<svg width="166" height="75" viewBox="0 0 166 75" fill="none" xmlns="http://www.w3.org/2000/svg">
<path d="M7.49711 27.0303L7.51223 27.0742C7.51282 27.0742 7.72521 26.9994 8.13294 26.8661C10.9868 25.9307 23.3689 22.113 38.7311 20.9289L38.7281 20.8359C38.7281 20.8359 38.6953 20.8359 38.6318 20.8359C37.2383 20.8362 21.0197 20.9661 7.47852 26.9879L7.51223 27.0742L7.49711 27.0303L7.5157 27.0727C21.033 21.0611 37.2446 20.9285 38.6318 20.9289C38.6949 20.9289 38.7274 20.9289 38.7274 20.9289L38.7277 20.8824L38.7241 20.8362C21.1546 22.1908 7.48431 26.9856 7.48198 26.9864L7.49711 27.0303Z" fill="black"/>
<path d="M7.49711 47.9657L7.48198 48.0096C7.48431 48.0104 21.1546 52.8056 38.7241 54.1598L38.7277 54.1133L38.7274 54.0667C38.7274 54.0667 38.6949 54.0671 38.6318 54.0671C37.2446 54.0675 21.033 53.935 7.5157 47.9233L7.49711 47.9657L7.47852 48.0085C21.0197 54.0295 37.2383 54.1598 38.6318 54.1602C38.6953 54.1602 38.7281 54.1598 38.7281 54.1598L38.7311 54.0671C29.9527 53.3904 22.1475 51.8541 16.5369 50.4869C13.7318 49.8031 11.4753 49.1617 9.9203 48.6916C9.14268 48.4563 8.54056 48.2639 8.13294 48.1302C7.72521 47.9966 7.51282 47.9222 7.51223 47.9218L7.47852 48.0085L7.49711 47.9657Z" fill="black"/>
<path d="M161.063 18.7496V18.7031H160.672L160.692 18.7645C161.139 20.0889 162.904 25.9677 162.904 36.2438C162.904 42.1285 162.286 47.2252 161.667 50.8504C161.357 52.6633 161.048 54.1079 160.816 55.0992C160.7 55.5951 160.603 55.9773 160.535 56.2356C160.468 56.494 160.429 56.6276 160.429 56.6281L160.412 56.6875H160.8H160.835L160.844 56.6541C160.845 56.6515 163.324 48.0263 163.324 36.2438C163.324 25.9569 161.557 20.0677 161.107 18.7347L161.096 18.7031H161.063V18.7496L161.02 18.7645C161.467 20.0889 163.232 25.9677 163.232 36.2438C163.232 42.1285 162.613 47.2252 161.994 50.8504C161.684 52.6633 161.374 54.1079 161.142 55.0992C161.026 55.5951 160.93 55.9773 160.862 56.2356C160.794 56.494 160.756 56.6276 160.756 56.6281L160.8 56.641V56.5944H160.473V56.641L160.518 56.6541C160.518 56.6515 162.997 48.0263 162.997 36.2438C162.997 25.9569 161.23 20.0677 160.78 18.7347L160.736 18.7496V18.7962H161.063V18.7496Z" fill="black"/>
<path d="M164.729 53.8731L164.775 53.8806C165.671 48.3402 165.726 43.6634 165.726 39.3919C165.726 38.806 165.725 38.2279 165.725 37.6558C165.725 37.0814 165.726 36.5 165.726 35.9115C165.726 31.6311 165.671 26.9442 164.769 21.3885C164.76 21.3398 164.751 21.294 164.743 21.2475L164.738 21.2151L161.566 20.6407L161.583 20.7107C162.268 23.4329 163.236 28.6301 163.236 36.2431C163.236 44.4707 162.027 51.1536 161.298 54.4326L161.283 54.5L164.77 53.9133L164.775 53.8806L164.729 53.8731L164.722 53.827L161.336 54.3969L161.343 54.4427L161.388 54.4527C162.118 51.1688 163.329 44.4801 163.329 36.2431C163.329 28.6219 162.359 23.4169 161.673 20.688L161.628 20.6995L161.62 20.7453L164.69 21.3011L164.698 21.2553L164.652 21.2631C164.66 21.3115 164.67 21.3573 164.677 21.4038C165.579 26.9517 165.633 31.6318 165.633 35.9115C165.633 36.5 165.632 37.081 165.632 37.6558C165.632 38.2279 165.633 38.806 165.633 39.3919C165.633 43.6626 165.579 48.3327 164.684 53.8657L164.729 53.8731Z" fill="black"/>
<path d="M52.5253 8.64888L52.5246 8.60235C48.434 8.67457 38.8877 9.99788 28.1904 12.5954C17.4896 15.1943 6.36539 20.8416 6.36381 20.8423L6.35805 20.8453L2.42801 24.4747L2.42454 24.4877C2.42425 24.4884 2.3407 24.8063 2.21403 25.3933L2.259 25.4034H2.3051V25.403H2.259L2.29559 25.4313C2.45781 25.2169 2.62582 25.014 2.77698 24.8666C2.92666 24.7181 3.06543 24.6299 3.14078 24.6329L3.17118 24.6377C3.22448 24.6548 3.26904 24.7133 3.29913 24.8223C3.32883 24.9299 3.34163 25.0803 3.34163 25.2571C3.34163 25.5002 3.31787 25.7946 3.2863 26.1065L3.24742 26.4922L3.37563 26.1267C3.40562 26.0414 3.43487 25.9528 3.4611 25.8586C3.69134 25.03 4.43004 24.0313 5.11158 23.2451C5.45233 22.8517 5.77854 22.5103 6.01944 22.268C6.26034 22.0253 6.41523 21.882 6.41567 21.8816L6.38454 21.8474L6.40328 21.8898C6.40387 21.8894 6.60744 21.7982 6.98378 21.633C9.61807 20.4761 20.6872 15.7181 29.1193 13.654C33.9384 12.4744 39.8603 11.4876 44.5769 10.796C46.935 10.4501 48.9921 10.178 50.4594 9.9923C51.1931 9.89924 51.7795 9.82813 52.1823 9.78012C52.5851 9.7321 52.8038 9.70753 52.8042 9.70753L52.8581 9.7012L52.5604 8.60161L52.5246 8.60235L52.5253 8.64888L52.4811 8.66117L52.7548 9.67329L52.7994 9.66137L52.7943 9.61484C52.7931 9.61522 38.746 11.2021 29.0975 13.5639C19.4472 15.9262 6.36713 21.8042 6.36584 21.8049L6.3589 21.8079L6.3533 21.8131C6.35156 21.8169 3.85227 24.1229 3.37232 25.8337C3.34683 25.9253 3.31828 26.0116 3.28877 26.0958L3.33226 26.111L3.37811 26.1159C3.40979 25.8028 3.43369 25.5065 3.43384 25.2571C3.43369 25.0754 3.4213 24.9195 3.38788 24.7974C3.35491 24.6771 3.2984 24.583 3.20043 24.5495L3.14078 24.5398C3.0098 24.5428 2.87078 24.6477 2.71284 24.7996C2.55607 24.9526 2.38636 25.1581 2.22241 25.3747L2.21289 25.3874V25.4034V25.8352L2.30407 25.4131C2.43044 24.8279 2.51343 24.5126 2.51358 24.5115L2.46906 24.4996L2.50019 24.5342L6.41567 20.9183L6.38454 20.8837L6.4053 20.9253C6.40575 20.925 6.57863 20.8375 6.90355 20.6782C9.17703 19.5626 18.8614 14.9565 28.212 12.6858C38.9028 10.0898 48.4495 8.76688 52.5265 8.69541L52.5253 8.64888Z" fill="black"/>
<path d="M29.1027 61.3907L29.1138 61.3456C24.2957 60.1659 18.6159 58.1071 14.1415 56.343C11.9041 55.4608 9.96808 54.6527 8.59151 54.0649C7.90322 53.7709 7.3547 53.5323 6.97832 53.367C6.60197 53.2017 6.3984 53.1102 6.39781 53.1102L6.37907 53.1526L6.41021 53.1183C6.40976 53.118 6.25488 52.9747 6.01398 52.732C5.2911 52.0057 3.80085 50.3857 3.45563 49.141L3.45534 49.1398L3.45158 49.1283L3.37364 48.8927L3.36183 49.141C3.35058 49.377 3.28935 49.5839 3.18386 49.7287C3.07782 49.8735 2.93201 49.9584 2.73463 49.9588C2.60192 49.9591 2.44501 49.9189 2.26419 49.8263L2.17773 49.782L2.19821 49.8776C2.24328 50.0883 2.28348 50.2666 2.31679 50.4092L2.31982 50.4222L2.43118 50.5328L2.43162 50.5335L6.35259 54.1543L6.35834 54.1573C6.35993 54.158 17.4841 59.8053 28.1849 62.4043C38.8822 65.0014 48.4285 66.3254 52.5192 66.3975L52.5549 66.3984L52.8526 65.2984L52.7987 65.2925C52.7984 65.2925 52.5796 65.2675 52.1769 65.2195C49.3573 64.8837 37.5477 63.4101 29.1138 61.3456L29.1027 61.3907L29.092 61.436C38.7405 63.7976 52.7877 65.3848 52.7888 65.3848L52.7939 65.3386L52.7493 65.3263L52.4756 66.3388L52.5199 66.351L52.521 66.3045C48.444 66.2331 38.8973 64.9098 28.2065 62.3138C22.8635 61.0162 17.411 58.9561 13.295 57.2204C11.237 56.3528 9.51291 55.5663 8.30362 54.9963C7.69891 54.7115 7.22283 54.4807 6.89809 54.3214C6.57317 54.1621 6.40028 54.0743 6.39984 54.0743L6.37907 54.1156L6.41021 54.0813L2.49543 50.4661L2.39399 50.3653L2.36157 50.3984L2.40654 50.3876C2.37341 50.2458 2.33335 50.0682 2.28839 49.8579L2.24328 49.8679L2.2224 49.9093C2.41273 50.0068 2.58362 50.0518 2.73463 50.0518C2.95982 50.0526 3.13908 49.9491 3.25822 49.7838C3.37795 49.6189 3.4418 49.3948 3.4539 49.1454L3.40779 49.1432L3.36412 49.1577L3.36759 49.1681L3.41122 49.1536L3.36685 49.1663C3.84681 50.8767 6.3461 53.1827 6.34783 53.1868L6.35329 53.192L6.36037 53.195C6.36166 53.1954 19.4418 59.0735 29.092 61.436L29.1027 61.3907Z" fill="black"/>
<path d="M156.476 13.7678L156.486 13.722C145.698 11.3788 126.756 9.83768 126.755 9.8373L126.677 9.83098L126.709 9.90319C126.82 10.144 126.87 10.3696 126.87 10.5825C126.87 11.0958 126.576 11.544 126.08 11.9416C124.592 13.135 121.319 13.8098 119.228 14.2748C116.708 14.8365 111.284 15.6964 106.463 16.0459L106.466 16.1386H106.468V16.092L106.467 16.1386C106.641 16.1427 106.825 16.1445 107.019 16.1445C114.246 16.1442 134.89 13.4722 138.54 13.3069C138.651 13.3021 138.774 13.2995 138.908 13.2995C142.835 13.2991 155.753 15.4283 158.115 15.8237L158.231 15.843L158.159 15.7492C157.856 15.3535 157.199 14.5547 156.511 13.7376L156.501 13.7253L156.486 13.722L156.476 13.7678L156.441 13.7979C157.129 14.6143 157.785 15.4131 158.086 15.8062L158.123 15.7775L158.13 15.7317C155.765 15.3364 142.855 13.2068 138.908 13.2064C138.773 13.2064 138.649 13.2091 138.535 13.2139C134.876 13.3803 114.234 16.0515 107.019 16.0515C106.826 16.0515 106.643 16.0496 106.469 16.0455H106.469H106.466V16.092L106.47 16.1386C111.296 15.7887 116.721 14.9288 119.248 14.3656C120.642 14.0548 122.563 13.6531 124.139 13.0609C124.927 12.7646 125.629 12.421 126.137 12.0142C126.645 11.6084 126.962 11.1346 126.962 10.5825C126.962 10.3547 126.908 10.115 126.793 9.86448L126.751 9.88383L126.748 9.93036C126.748 9.93036 127.044 9.95418 127.582 10.0011C131.354 10.3279 147.037 11.7648 156.467 13.8132L156.476 13.7678Z" fill="black"/>
<path d="M158.232 59.3812L158.273 59.4036C158.291 59.3701 158.317 59.3179 158.349 59.2502L158.386 59.1698L158.3 59.1848C156.55 59.4792 142.952 61.7408 138.905 61.7406C138.771 61.7406 138.648 61.7379 138.536 61.7331C134.886 61.5678 114.242 58.8958 107.017 58.8958C106.974 58.8958 106.931 58.8958 106.888 58.8958L106.885 58.9889C111.596 59.3566 116.779 60.1827 119.225 60.7276C120.619 61.0385 122.538 61.4405 124.103 62.029C124.886 62.3231 125.581 62.6645 126.076 63.0613C126.573 63.4588 126.866 63.9069 126.866 64.4202C126.866 64.6333 126.816 64.8588 126.706 65.0993L126.748 65.1189L126.745 65.0724C126.745 65.0724 126.698 65.0754 126.611 65.081L126.275 65.1029L126.745 65.2031L126.752 65.2024C126.753 65.2024 146.045 63.6323 156.779 61.2526L156.795 61.2492L156.805 61.2369C157.177 60.7909 157.523 60.3711 157.786 60.0438C158.049 59.7155 158.227 59.4855 158.273 59.4036L158.232 59.3812L158.192 59.3585C158.158 59.4227 157.976 59.6601 157.714 59.9851C157.452 60.3115 157.106 60.7314 156.734 61.1769L156.77 61.2071L156.76 61.1617C151.399 62.3502 143.894 63.3374 137.731 64.0272C134.649 64.3723 131.902 64.6429 129.926 64.8271C128.938 64.9194 128.142 64.9902 127.594 65.0375C127.046 65.0851 126.745 65.1096 126.744 65.1096L126.748 65.1561L126.758 65.1108L126.624 65.0821L126.614 65.1275L126.617 65.174C126.704 65.1685 126.751 65.1652 126.751 65.1652L126.778 65.1637L126.79 65.1382C126.904 64.8874 126.959 64.6481 126.959 64.4202C126.959 63.8683 126.641 63.3944 126.134 62.9883C124.61 61.7714 121.337 61.1044 119.245 60.6368C116.792 60.0903 111.609 59.2645 106.892 58.8963L106.888 58.9424L106.889 58.9889C106.931 58.9889 106.974 58.9889 107.017 58.9889C114.23 58.9886 134.872 61.6597 138.532 61.8258C138.645 61.831 138.77 61.8336 138.905 61.8336C142.972 61.8329 156.561 59.5708 158.315 59.2764L158.307 59.2305L158.265 59.2108C158.234 59.2771 158.209 59.3284 158.192 59.3585L158.232 59.3812Z" fill="black"/>
<path d="M58.1879 6.19038L58.1876 6.14385C56.2577 6.15874 54.6384 6.17177 53.5013 6.18071C52.3644 6.18964 51.7116 6.19485 51.7097 6.19485H51.7094C51.7083 6.19485 51.2807 6.20267 50.6725 6.21086C50.0643 6.21868 49.2764 6.22649 48.5582 6.22649C47.8401 6.22649 47.1909 6.21868 46.8633 6.19485C45.8689 6.12338 37.1971 5.80214 31.3179 5.80214C29.1524 5.80214 27.607 5.76789 26.3761 5.76789C24.2678 5.76789 23.078 5.86839 21.2859 6.41112C18.4399 7.27471 10.2677 11.8436 7.20955 15.3214C5.73295 17.0025 4.56688 19.1968 3.75441 21.0182L3.57227 21.4258L3.83364 21.0647C3.83854 21.0576 5.24396 19.1306 7.07886 17.0043C8.91263 14.8785 11.1809 12.5523 12.8939 11.7524L12.8994 11.7498L12.9042 11.7461C14.0081 10.8162 14.9834 10.2206 15.6821 9.85732C16.0315 9.67604 16.3116 9.55245 16.5043 9.47465C16.6969 9.39648 16.8005 9.36447 16.8008 9.36447L16.7873 9.3198L16.7413 9.32464C16.7414 9.32538 16.7836 9.7516 16.7835 10.1049C16.7842 10.2805 16.7715 10.4417 16.7443 10.5072L16.711 10.591L16.7982 10.5698C16.7995 10.5694 17.313 10.4425 18.1581 10.2448C20.6931 9.65184 26.2012 8.42344 29.6813 8.08471C33.4226 7.72028 48.736 7.1154 57.8892 6.8727L57.9176 6.87196L57.9297 6.8459C58.0017 6.69254 58.1053 6.47291 58.2292 6.21049L58.2613 6.14311L58.1876 6.14385L58.1879 6.19038L58.1463 6.17028C58.022 6.43271 57.9187 6.65271 57.8464 6.80607L57.8881 6.82617L57.887 6.77964C48.7312 7.02234 33.4215 7.62722 29.6725 7.99202C25.0189 8.44541 16.7773 10.479 16.7763 10.4793L16.7873 10.5244L16.83 10.5419C16.8666 10.4466 16.8752 10.2861 16.8757 10.1049C16.8757 9.74452 16.8331 9.31608 16.8331 9.31533L16.8275 9.25875L16.7737 9.27551C16.7691 9.277 15.0644 9.80558 12.8451 11.6746L12.8747 11.7103L12.8552 11.6679C11.1134 12.4838 8.84808 14.8137 7.00926 16.9433C5.17162 19.0729 3.76551 21.0011 3.75916 21.0096L3.79631 21.0372L3.83839 21.0561C4.64859 19.24 5.81207 17.052 7.27842 15.3828C10.3095 11.9296 18.4935 7.35177 21.3122 6.50046C23.0966 5.96034 24.2694 5.86132 26.3761 5.86095C27.6054 5.86095 29.1513 5.8952 31.3179 5.8952C37.193 5.8952 45.8685 6.21682 46.8567 6.28791C47.1901 6.31174 47.839 6.31955 48.5582 6.31955C49.9957 6.31955 51.7108 6.28791 51.7108 6.28791L51.7101 6.24138L51.7105 6.28791C51.7123 6.28791 52.3652 6.2827 53.502 6.27376C54.6392 6.26483 56.2585 6.2518 58.1883 6.23691L58.1879 6.19038Z" fill="black"/>
<path d="M157.888 10.3154L157.907 10.273C155.736 9.26794 145.617 6.698 141.789 5.87498C140.219 5.5381 137.105 5.44169 133.767 5.44132C129.173 5.44132 124.157 5.62558 122.199 5.62558C122.097 5.62558 122.003 5.6252 121.918 5.62409C121.765 5.62223 121.545 5.62111 121.265 5.62111C116.202 5.62111 91.4404 5.90997 89.6301 5.90997C88.3863 5.90997 72.7291 6.03094 61.9283 6.11544L61.8966 6.11581L61.6465 6.78883L61.7144 6.78771C62.2698 6.7784 62.7667 6.77208 63.1909 6.76947C65.324 6.7557 71.0995 6.75123 78.0174 6.75123C91.8539 6.75123 110.262 6.76947 113.252 6.76947C117.732 6.76947 138.162 7.71198 141.863 8.30979C145.009 8.81716 151.531 10.2566 153.434 10.6806L153.656 10.7305L153.47 10.5972C152.518 9.91527 151.32 9.176 151.32 9.17562L151.296 9.21546L151.286 9.26087L155.197 10.1379L155.207 10.0925L155.177 10.1278C155.215 10.1609 155.254 10.1959 155.293 10.2309L155.309 10.2454L155.331 10.2417C155.551 10.203 155.799 10.1792 156.076 10.1792C156.719 10.1792 157.517 10.3091 158.477 10.6903L158.518 10.6073C158.305 10.4747 158.1 10.3627 157.907 10.273L157.888 10.3154L157.869 10.3575C158.058 10.4453 158.259 10.5555 158.469 10.6865L158.493 10.6467L158.51 10.6035C157.541 10.2186 156.732 10.0858 156.076 10.0861C155.794 10.0861 155.541 10.1103 155.315 10.1498L155.323 10.1959L155.354 10.1606C155.315 10.1267 155.277 10.0917 155.237 10.0571L155.228 10.0493L151.036 9.10936L151.272 9.25491C151.273 9.25566 151.571 9.43954 151.988 9.70942C152.406 9.97892 152.943 10.3337 153.417 10.6731L153.444 10.6352L153.454 10.5898C151.55 10.1654 145.029 8.72633 141.878 8.21785C138.159 7.61817 117.741 6.67678 113.252 6.67641C110.262 6.67641 91.8539 6.65817 78.0174 6.65817C71.0991 6.65817 65.324 6.66264 63.1905 6.67641C62.766 6.67902 62.2687 6.68534 61.7125 6.69465L61.7136 6.74118L61.7568 6.75756L61.9718 6.17835L61.9283 6.16197L61.9287 6.2085C72.7295 6.124 88.3878 6.00303 89.6301 6.00303C91.4423 6.00303 116.203 5.71417 121.265 5.71417C121.545 5.71417 121.765 5.71529 121.917 5.71715C122.002 5.71826 122.096 5.71864 122.199 5.71864C124.161 5.71864 129.174 5.53438 133.767 5.53438C137.102 5.53401 140.218 5.63228 141.77 5.96617C145.59 6.78659 155.721 9.36174 157.869 10.3575L157.888 10.3154Z" fill="black"/>
<path d="M58.0768 68.5731L58.0779 68.5266C48.9543 68.2879 33.4067 67.6759 29.6329 67.3082C27.313 67.0822 24.0912 66.4609 21.4505 65.8963C20.13 65.6138 18.9549 65.3458 18.1097 65.148C17.2646 64.9504 16.7511 64.8235 16.7497 64.823L16.6626 64.8018L16.6959 64.8857C16.723 64.9516 16.7358 65.1124 16.7351 65.2881C16.7352 65.6413 16.6929 66.0674 16.6929 66.0683L16.7387 66.0727L16.7522 66.0285C16.7519 66.0285 16.6485 65.9965 16.4559 65.9182C15.8781 65.6844 14.5117 65.0413 12.8556 63.6469L12.851 63.6431L12.8455 63.6405C9.81775 62.2276 5.08341 56.068 4.00986 54.6316L3.74805 54.2817L3.93133 54.6792C4.7333 56.4183 5.83857 58.4284 7.21315 59.9932C10.2713 63.4715 18.4435 68.0405 21.2895 68.9036C23.0817 69.4467 24.2715 69.5472 26.38 69.5469C27.6109 69.5469 29.156 69.513 31.3215 69.513C37.2007 69.513 45.8725 69.1918 46.8669 69.12C47.1945 69.0964 47.8437 69.0882 48.5618 69.0882C49.28 69.0882 50.0679 69.0961 50.6761 69.1042C51.2844 69.1121 51.7119 69.1203 51.713 69.1203H51.7133C51.7133 69.1203 54.399 69.1415 58.3384 69.1723L58.4125 69.1727L58.3804 69.1057C58.2838 68.9029 58.1949 68.7153 58.1185 68.553L58.1063 68.5273L58.0779 68.5266L58.0768 68.5731L58.0352 68.5932C58.1115 68.7551 58.2008 68.943 58.297 69.146L58.3387 69.1258L58.3391 69.0792C56.3694 69.0641 54.7132 69.051 53.5495 69.0417C52.3854 69.0324 51.7159 69.0272 51.7141 69.0272L51.7137 69.0737L51.7144 69.0272C51.7144 69.0272 49.9993 68.9952 48.5618 68.9952C47.8426 68.9952 47.1937 69.003 46.8603 69.0272C45.8721 69.0987 37.1967 69.4199 31.3215 69.4199C29.1552 69.4199 27.6093 69.4538 26.38 69.4538C24.2731 69.4538 23.1003 69.3548 21.3158 68.8146C18.4971 67.9634 10.3131 63.3856 7.28202 59.9314C5.9171 58.3778 4.81456 56.3744 4.01491 54.6398L3.97312 54.6595L3.93624 54.6874C5.01702 56.1288 9.73664 62.2859 12.8068 63.7249L12.8261 63.6826L12.7966 63.7183C15.016 65.587 16.7207 66.1159 16.7252 66.1175L16.779 66.1337L16.7847 66.0776C16.7847 66.0769 16.8273 65.648 16.8273 65.2881C16.8267 65.1068 16.8182 64.9464 16.7815 64.851L16.7387 64.8686L16.7277 64.9136C16.7289 64.9139 24.9704 66.9475 29.624 67.4008C33.4056 67.769 48.9495 68.381 58.0757 68.6196L58.0768 68.5731Z" fill="black"/>
<path d="M155.27 65.1989L155.24 65.1635C155.2 65.1984 155.163 65.2335 155.124 65.2666L155.154 65.302L155.144 65.2566L151.234 66.1335L151.244 66.1789L151.268 66.2188C151.268 66.2185 152.465 65.4792 153.418 64.7972L153.603 64.6644L153.381 64.7138C151.478 65.1378 144.956 66.5773 141.811 67.0847C138.109 67.6821 117.679 68.6249 113.199 68.6249C110.21 68.6249 91.8015 68.6433 77.965 68.6433C71.0467 68.6433 65.2712 68.6388 63.1381 68.6249C62.7644 68.6223 62.3347 68.6171 61.8585 68.6096L61.791 68.6086L62.0109 69.2016L62.0426 69.2019C72.8397 69.2861 88.3899 69.4064 89.6293 69.4064C91.4389 69.4064 116.175 69.6948 121.256 69.6948C121.54 69.6948 121.763 69.6936 121.917 69.6918C122 69.691 122.092 69.6903 122.192 69.6903C124.146 69.6903 129.167 69.875 133.765 69.875C137.104 69.875 140.218 69.7786 141.788 69.4412C145.616 68.6182 155.735 66.0483 157.907 65.0433C158.018 64.9915 158.135 64.9305 158.254 64.8641L158.216 64.7797C157.343 65.101 156.609 65.2141 156.011 65.2141C155.739 65.2141 155.495 65.1907 155.278 65.1531L155.256 65.149L155.24 65.1635L155.27 65.1989L155.262 65.2447C155.484 65.2833 155.733 65.3072 156.011 65.3072C156.621 65.3072 157.366 65.1917 158.247 64.8672L158.231 64.8233L158.209 64.7827C158.092 64.8482 157.977 64.9082 157.868 64.9588C155.72 65.9545 145.589 68.5297 141.769 69.3501C140.216 69.6843 137.101 69.7822 133.765 69.7819C129.168 69.7819 124.15 69.5973 122.192 69.5973C122.092 69.5973 122 69.598 121.916 69.5987C121.763 69.6006 121.54 69.6018 121.256 69.6018C116.177 69.6018 91.4407 69.3133 89.6293 69.3133C88.3914 69.3133 72.8401 69.193 62.0433 69.1089L62.0429 69.1554L62.0861 69.1389L61.9009 68.6399L61.8578 68.6562L61.857 68.7027C62.3332 68.7102 62.7637 68.7154 63.1377 68.718C65.2715 68.7318 71.0467 68.7363 77.965 68.7363C91.8015 68.7363 110.21 68.718 113.199 68.718C117.688 68.7177 138.106 67.7762 141.825 67.1765C144.976 66.668 151.497 65.2287 153.401 64.8047L153.391 64.7593L153.364 64.7212C152.89 65.0608 152.354 65.4155 151.936 65.685C151.518 65.9548 151.22 66.1391 151.22 66.1395L150.984 66.285L155.175 65.3447L155.183 65.3373C155.224 65.3027 155.262 65.2673 155.3 65.2339L155.27 65.1989Z" fill="black"/>
<path d="M159.478 18.7507L159.563 18.7142C159.563 18.7142 159.309 18.1112 159.033 17.4668C158.756 16.8206 158.46 16.1405 158.364 15.9648C158.334 15.9112 158.268 15.8223 158.165 15.689C157.455 14.7685 155.084 11.9566 154.474 11.3405C154.117 10.9813 153.339 10.4356 152.644 9.97216C151.951 9.50984 151.343 9.13462 151.343 9.13462L151.295 9.21391L151.274 9.30473L155.185 10.1817L155.205 10.0909L155.146 10.1616C157.216 11.9421 158.677 14.0981 159.619 15.8089C160.09 16.6643 160.432 17.408 160.655 17.9377C160.767 18.2024 160.849 18.4134 160.903 18.5582C160.958 18.703 160.983 18.7801 160.984 18.7805L161.071 18.7507V18.6576H159.478V18.7507V18.8438H161.2L161.158 18.7209C161.155 18.7135 159.451 13.622 155.265 10.0198L155.248 10.0049L150.775 9.00211L151.246 9.2932C151.247 9.29357 151.398 9.38662 151.635 9.53738C151.992 9.76408 152.543 10.1203 153.069 10.4844C153.594 10.8473 154.095 11.2214 154.343 11.4719C154.682 11.8133 155.607 12.8838 156.466 13.9052C156.895 14.4167 157.309 14.9162 157.627 15.3086C157.785 15.5048 157.92 15.6738 158.02 15.8037C158.12 15.9321 158.187 16.0266 158.202 16.0553C158.287 16.2087 158.589 16.8988 158.864 17.5405C159.14 18.1845 159.393 18.7857 159.393 18.7872L159.417 18.8438H159.478V18.7507Z" fill="black"/>
<path d="M159.423 56.6416L159.338 56.6055C159.338 56.6067 159.085 57.2082 158.809 57.8518C158.534 58.4934 158.232 59.184 158.148 59.337C158.132 59.3656 158.065 59.4606 157.965 59.589C157.264 60.4987 154.883 63.3214 154.289 63.9203C153.957 64.2553 153.178 64.806 152.488 65.2649C152.143 65.4954 151.819 65.7037 151.581 65.8549C151.343 66.006 151.193 66.0988 151.192 66.0991L150.721 66.3906L155.193 65.387L155.21 65.372C159.397 61.7703 161.101 56.6788 161.104 56.6714L161.145 56.5485H159.362L159.338 56.6055L159.423 56.6416V56.7346H161.017V56.6416L160.929 56.6118C160.929 56.6122 160.903 56.6893 160.849 56.8341C160.47 57.8477 158.714 62.1154 155.091 65.2307L155.151 65.3014L155.13 65.2105L151.22 66.0876L151.24 66.1783L151.289 66.258C151.289 66.2577 151.896 65.8824 152.59 65.4202C153.285 64.9566 154.062 64.4111 154.419 64.0518C154.769 63.6988 155.69 62.6317 156.552 61.6073C156.982 61.0955 157.396 60.5952 157.715 60.2017C157.874 60.0048 158.009 59.835 158.111 59.7032C158.213 59.5703 158.279 59.4811 158.309 59.4274C158.405 59.2517 158.701 58.5717 158.978 57.9255C159.254 57.2811 159.508 56.6781 159.508 56.6781L159.423 56.6416Z" fill="black"/>
<path d="M2.70688 37.7657H2.79909C2.79894 34.7096 3.22862 28.839 3.27646 27.6791C3.30671 26.9391 3.47815 25.9289 3.47874 25.2559C3.47845 25.072 3.46635 24.9127 3.43105 24.7835C3.39649 24.6573 3.33378 24.5456 3.2135 24.5036L3.13929 24.4916C3.05873 24.4928 2.98584 24.5259 2.91093 24.5732C2.68917 24.7172 2.43271 25.018 2.18413 25.3448L2.17174 25.3612L2.16743 25.3817C1.7643 27.2436 0.923828 31.8225 0.923828 37.6578C0.923828 43.4424 1.74973 47.9945 2.15721 49.8866L2.16643 49.9298L2.20549 49.9499C2.40073 50.0496 2.57866 50.0976 2.73915 50.0976C2.99204 50.0991 3.1959 49.9726 3.32128 49.7805C3.44805 49.5888 3.50715 49.3353 3.5074 49.0598C3.5074 48.9474 3.49748 48.8309 3.47745 48.7133C3.38896 48.1944 3.21826 46.2148 3.07112 43.9918C2.92387 41.7677 2.79909 39.2923 2.79909 37.7657H2.70688H2.61466C2.61466 39.3012 2.73974 41.7773 2.88714 44.0044C3.03497 46.2327 3.20413 48.2033 3.29575 48.7445C3.31405 48.8525 3.32298 48.9586 3.32298 49.0598C3.32327 49.3085 3.26765 49.5277 3.16809 49.677C3.0671 49.8263 2.9328 49.91 2.73915 49.9115C2.6154 49.9115 2.46513 49.8743 2.28904 49.7838L2.24725 49.8669L2.33732 49.8471C1.93198 47.9643 1.10826 43.4245 1.10826 37.6578C1.10826 31.8408 1.94641 27.2738 2.34754 25.4211L2.2575 25.4014L2.33083 25.458C2.4922 25.2447 2.65918 25.0433 2.80746 24.8985C2.88153 24.8259 2.95095 24.7682 3.00974 24.7303C3.06854 24.6919 3.11653 24.677 3.13929 24.6778L3.15515 24.68C3.18624 24.6893 3.22471 24.7299 3.25341 24.8334C3.28137 24.9339 3.29446 25.0809 3.29432 25.2559C3.29476 25.9013 3.12402 26.9138 3.09218 27.6717C3.0449 28.8241 2.61466 34.6973 2.61466 37.7657H2.70688Z" fill="black"/>
<path d="M56.0986 65.1156L56.0193 65.1636L57.699 67.9886L57.778 67.9406L57.6946 67.98C57.6946 67.9804 58.1538 68.9695 58.6861 70.0695C59.2195 71.1705 59.8214 72.3766 60.1198 72.8291C60.6842 73.6772 61.9239 74.1235 63.4307 74.125C63.569 74.125 63.7092 74.1209 63.8519 74.1135L63.9773 74.1067L61.4027 67.1696H60.5385L60.0457 65.0226H55.9355L56.0193 65.1636L56.0986 65.1156V65.2087H59.8993L60.3921 67.3557H61.2747L63.7605 74.0532L63.8468 74.0204L63.842 73.9277C63.7029 73.9351 63.5657 73.9389 63.4307 73.9389C61.9567 73.94 60.776 73.4925 60.2733 72.726C59.9896 72.2969 59.3825 71.0848 58.8521 69.9879C58.5861 69.4384 58.3386 68.917 58.1575 68.5324C57.9764 68.1482 57.8621 67.9019 57.8617 67.9012L57.8595 67.8966L56.1775 65.0679L56.0986 65.1156Z" fill="black"/>
<path d="M56.0986 9.88741L56.1775 9.93542L57.8595 7.10603L57.8617 7.10194C57.8621 7.10119 57.9764 6.85514 58.1575 6.47062C58.429 5.89402 58.8506 5.00846 59.2582 4.18506C59.665 3.36241 60.0612 2.59821 60.2733 2.27734C60.776 1.51127 61.956 1.0631 63.4296 1.06458C63.5646 1.06458 63.7022 1.0683 63.842 1.07574L63.8468 0.982685L63.7605 0.950305L61.2747 7.64764H60.3921L59.8993 9.79435H56.0986V9.88741V9.98047H60.0457L60.5385 7.83376H61.4027L63.9773 0.896705L63.8519 0.889997C63.7088 0.88218 63.5679 0.878465 63.4296 0.878465C61.9232 0.879581 60.6838 1.32626 60.1198 2.17422C59.8214 2.6265 59.2195 3.83293 58.6861 4.93364C58.1538 6.03361 57.6946 7.02265 57.6946 7.02302L57.778 7.06248L57.699 7.01446L55.9355 9.98047H56.0986V9.88741Z" fill="black"/>
<path d="M119.226 60.6839L119.246 60.5931C116.161 59.9059 108.769 58.7769 103.403 58.6708C102.183 58.6467 100.464 58.6231 98.4219 58.6231C91.5 58.6231 80.857 58.8949 73.2228 60.3537C63.346 62.2414 52.7664 65.2561 52.7653 65.2565L52.7152 65.2706L52.3965 66.4487L52.5149 66.451C52.5149 66.451 54.1792 66.4826 56.8755 66.5274L57.0415 66.5303L56.2562 65.2096H59.8942L60.2092 66.5809L60.2811 66.5821C67.4709 66.6937 78.2806 66.8359 86.6458 66.8359C87.8671 66.8359 89.0364 66.8329 90.1345 66.8262C103.607 66.7455 126.745 65.2133 126.746 65.2133L126.801 65.2096L126.823 65.1594C126.94 64.9036 126.996 64.6572 126.996 64.4219C126.996 63.8506 126.667 63.3636 126.154 62.9534C125.382 62.3371 124.18 61.8675 122.907 61.4886C121.635 61.1109 120.291 60.8262 119.246 60.5931L119.226 60.6839L119.207 60.7747C120.602 61.0855 122.518 61.4872 124.079 62.0742C124.859 62.3676 125.55 62.7074 126.04 63.0994C126.53 63.4927 126.812 63.928 126.812 64.4219C126.812 64.6274 126.764 64.8459 126.656 65.0815L126.74 65.1206L126.734 65.0275C126.733 65.0275 126.372 65.0514 125.713 65.0934C121.101 65.3879 101.912 66.5697 90.1334 66.6401C89.0357 66.6468 87.8668 66.6498 86.6458 66.6498C78.2824 66.6498 67.4731 66.5076 60.2841 66.396L60.2826 66.489L60.3726 66.4682L60.0407 65.0235H55.9305L56.7977 66.4823L56.877 66.4346L56.8784 66.3416C55.5303 66.3189 54.4403 66.2998 53.6871 66.2864C52.9343 66.2728 52.5193 66.2649 52.5182 66.2649L52.5164 66.358L52.6056 66.3825L52.8793 65.3704L52.7904 65.3458L52.8155 65.4355C52.8159 65.4352 52.9804 65.3883 53.2887 65.3023C55.4469 64.7001 64.6244 62.1863 73.2575 60.5365C80.8666 59.0821 91.5059 58.8089 98.4219 58.8092C100.463 58.8092 102.18 58.8328 103.4 58.8569C108.744 58.9619 116.137 60.0905 119.207 60.7747L119.226 60.6839Z" fill="black"/>
<path d="M91.6957 59.1488L91.6931 59.0557C85.5303 59.2232 78.6722 59.6647 73.2961 60.6921C69.2944 61.4571 65.1558 62.4133 61.658 63.2773L61.5879 63.2947V65.4456L61.6786 65.4468C68.8403 65.5544 78.8592 65.6797 86.6623 65.6797C87.2304 65.6797 87.7859 65.679 88.3292 65.6778L88.3849 65.6775L91.8507 59.0517L91.6931 59.0557L91.6957 59.1488L91.6142 59.1056L88.2477 65.5413L88.3292 65.5848L88.3288 65.4917C87.7855 65.4929 87.23 65.4936 86.6623 65.4936C78.861 65.4936 68.8425 65.3682 61.6812 65.2607L61.6801 65.3537H61.7723V63.3677H61.6801L61.7019 63.4582C65.1975 62.5949 69.3335 61.639 73.3304 60.8749C78.6884 59.8508 85.541 59.4089 91.6983 59.2418L91.6957 59.1488Z" fill="black"/>
<path d="M125.146 64.0625L125.232 64.0274C125.038 63.5604 124.439 63.1702 123.635 62.8062C121.223 61.7245 116.894 60.9759 115.953 60.8202L115.871 60.8068L114.818 64.7578L114.945 64.7511C119.424 64.5092 123.154 64.2813 125.152 64.1555L125.28 64.1474L125.232 64.0274L125.146 64.0625L125.14 63.9699C123.143 64.0956 119.414 64.3235 114.936 64.565L114.94 64.6581L115.029 64.6822L116.027 60.9364L115.939 60.9122L115.924 61.0041C116.547 61.1065 118.678 61.4743 120.734 62.0252C121.761 62.3003 122.771 62.6215 123.56 62.9763C124.351 63.328 124.917 63.7256 125.061 64.0978L125.146 64.0625Z" fill="black"/>
<path d="M115.065 60.2669L115.079 60.175C111.497 59.6114 106.937 59.0821 103.402 59.0125C101.793 58.9808 100.119 58.9648 98.4256 58.9648C97.2243 58.9648 95.9421 58.9731 94.6073 58.9927L94.5357 58.9934L92.9629 65.6328L93.082 65.6305C99.485 65.5121 107.335 65.1552 113.842 64.8104L113.908 64.8067L115.181 60.191L115.079 60.175L115.065 60.2669L114.976 60.242L113.749 64.6925L113.838 64.7173L113.833 64.6243C107.327 64.969 99.4776 65.326 93.0787 65.4443L93.0802 65.5374L93.1702 65.5591L94.6984 59.1074L94.6087 59.0858L94.6102 59.1788C95.9436 59.1592 97.225 59.1509 98.4256 59.1509C100.118 59.1509 101.791 59.1669 103.398 59.1986C106.919 59.2678 111.475 59.7964 115.05 60.3588L115.065 60.2669Z" fill="black"/>
<path d="M119.226 14.3217L119.207 14.2309C116.137 14.9151 108.744 16.0441 103.4 16.1487C102.179 16.1729 100.461 16.1967 98.419 16.1967C91.5029 16.1967 80.8655 15.9235 73.2575 14.4691C68.3244 13.5262 63.2132 12.3016 59.3361 11.3125C57.3974 10.8182 55.7671 10.3823 54.6214 10.0707C54.0486 9.9144 53.5971 9.78971 53.2887 9.70335C52.9804 9.61736 52.8159 9.57045 52.8155 9.57045L52.7904 9.66016L52.8793 9.6356L52.6056 8.62311L52.5164 8.64767L52.5182 8.74073C52.5193 8.74073 52.9343 8.73291 53.6871 8.71914C54.4403 8.70574 55.5303 8.68675 56.8784 8.66442L56.877 8.57136L56.7977 8.52334L55.9305 9.98215H60.0407L60.3726 8.53786L60.2826 8.51664L60.2841 8.6097C67.472 8.4984 78.2791 8.35583 86.6418 8.35583C87.8642 8.35583 89.0345 8.35881 90.1334 8.36551C96.8642 8.40571 106.015 8.80885 113.482 9.20193C117.216 9.39847 120.529 9.59279 122.908 9.73759C124.098 9.81018 125.054 9.8701 125.713 9.91217C126.372 9.95423 126.733 9.97806 126.734 9.97806L126.74 9.88537L126.656 9.92445C126.764 10.1597 126.812 10.3786 126.812 10.5841C126.812 11.078 126.53 11.5132 126.04 11.9066C125.306 12.4951 124.118 12.9638 122.855 13.3383C121.592 13.7139 120.253 13.9975 119.207 14.2309L119.226 14.3217L119.246 14.4126C120.64 14.1017 122.563 13.6997 124.143 13.106C124.934 12.8086 125.639 12.4639 126.154 12.0522C126.667 11.6423 126.996 11.1554 126.996 10.5841C126.996 10.3488 126.94 10.1024 126.823 9.84628L126.801 9.79603L126.746 9.79268C126.745 9.79231 103.607 8.26017 90.1345 8.17939C89.0349 8.17269 87.8645 8.16971 86.6418 8.16971C78.2772 8.16971 67.4698 8.31228 60.2811 8.42358L60.2092 8.4247L59.8942 9.79603H56.2562L57.0415 8.47533L56.8755 8.4783C54.1792 8.52297 52.5149 8.55461 52.5149 8.55461L52.3965 8.55685L52.7152 9.73535L52.7653 9.7495C52.7664 9.74988 63.346 12.7643 73.2228 14.6519C80.8559 16.1107 91.497 16.3824 98.419 16.3828C100.463 16.3828 102.182 16.359 103.403 16.3348C108.769 16.2291 116.161 15.0997 119.246 14.4126L119.226 14.3217Z" fill="black"/>
<path d="M91.6957 15.8556L91.6983 15.7625C85.541 15.5958 78.6884 15.1539 73.3304 14.1295C69.3335 13.3657 65.1975 12.4098 61.7019 11.5465L61.6801 11.6366H61.7723V9.65073H61.6801L61.6812 9.74379C68.8425 9.63622 78.861 9.51077 86.6623 9.51077C87.23 9.51077 87.7855 9.51152 88.3288 9.51263L88.3292 9.41957L88.2477 9.46312L91.6142 15.8991L91.6957 15.8556L91.7772 15.8124L88.3849 9.32689L88.3292 9.32651C87.7859 9.3254 87.2304 9.32465 86.6623 9.32465C78.8592 9.32465 68.8403 9.4501 61.6786 9.55767L61.5879 9.55916V11.71L61.658 11.7271C65.1558 12.5911 69.2944 13.5473 73.2961 14.3123C78.6722 15.34 85.5303 15.7815 91.6931 15.9487L91.851 15.9531L91.7772 15.8124L91.6957 15.8556Z" fill="black"/>
<path d="M125.146 10.9397L125.061 10.9047C124.917 11.2766 124.351 11.6745 123.56 12.0263C121.188 13.0924 116.857 13.8454 115.924 13.9984L115.939 14.09L116.027 14.0658L115.029 10.3199L114.94 10.3441L114.936 10.4372C119.414 10.6788 123.143 10.9069 125.14 11.0324L125.146 10.9397L125.152 10.8466C123.154 10.7212 119.424 10.493 114.945 10.2514L114.818 10.2444L115.871 14.1953L115.953 14.1819C116.58 14.0788 118.715 13.7107 120.781 13.1571C121.814 12.8806 122.83 12.5575 123.635 12.1964C124.439 11.832 125.038 11.4422 125.232 10.9747L125.28 10.8548L125.152 10.8466L125.146 10.9397Z" fill="black"/>
<path d="M115.065 14.737L115.05 14.645C111.475 15.2078 106.919 15.7361 103.398 15.8053C101.791 15.8369 100.118 15.8529 98.4256 15.8529C97.225 15.8529 95.9436 15.8451 94.6102 15.8254L94.6087 15.9181L94.6984 15.8965L93.1702 9.4452L93.0802 9.4668L93.0787 9.55986C99.4776 9.67823 107.327 10.0352 113.833 10.3795L113.838 10.2865L113.749 10.3114L114.976 14.7619L115.065 14.737L115.154 14.712L113.908 10.1971L113.842 10.1934C107.335 9.84909 99.485 9.49211 93.082 9.37374L92.9629 9.3715L94.5357 16.0104L94.6073 16.0111C95.9421 16.0312 97.2243 16.0391 98.4256 16.0391C100.119 16.0391 101.793 16.0231 103.402 15.9914C106.937 15.9218 111.497 15.3925 115.079 14.8289L115.181 14.8129L115.154 14.712L115.065 14.737Z" fill="black"/>
<path d="M164.721 21.3972L164.812 21.382C163.777 15.0368 160.122 11.2485 157.926 10.2285C156.83 9.72118 153.763 8.83078 150.481 7.95862C147.2 7.0872 143.713 6.2385 141.798 5.82718C140.219 5.48844 137.106 5.39278 133.767 5.3924C129.171 5.3924 124.155 5.57666 122.198 5.57666C122.096 5.57666 122.003 5.57629 121.918 5.57517C121.765 5.57331 121.545 5.57219 121.264 5.57219C116.201 5.57219 91.4392 5.86105 89.6296 5.86105C88.3851 5.86105 72.7287 5.98203 61.9275 6.06652L61.9278 6.15958L62.0145 6.19234L63.9798 0.896866L63.8544 0.89016C63.7113 0.882339 63.5704 0.878624 63.432 0.878624C61.9256 0.879738 60.6863 1.32642 60.1223 2.17439C59.9128 2.49265 59.5557 3.17795 59.1754 3.94067C58.7959 4.70302 58.3957 5.5398 58.1076 6.14879L58.191 6.189L58.1902 6.09593C56.2604 6.11082 54.6411 6.12385 53.5039 6.13278C52.3671 6.14172 51.7142 6.14693 51.7124 6.14693H51.712H51.7113C51.7105 6.14693 51.283 6.15475 50.6748 6.16293C50.0669 6.17075 49.279 6.17857 48.5612 6.17857C47.8438 6.17857 47.1943 6.17075 46.8693 6.14731C45.8719 6.07546 37.2023 5.75422 31.3209 5.75422C29.1557 5.75422 27.6108 5.71996 26.3791 5.71996C24.2701 5.7196 23.0718 5.82085 21.2756 6.36543C18.416 7.23499 10.2498 11.799 7.17796 15.2891C4.11473 18.7785 2.38228 24.4641 2.37937 24.4697L2.37896 24.4712L2.37837 24.473C2.37708 24.4782 0.923976 29.9848 0.923828 37.6566C0.923976 45.3285 2.37708 50.8347 2.37837 50.8399L2.37882 50.8414L2.37937 50.8432C2.38228 50.8488 4.11473 56.5343 7.17796 60.0238C10.2498 63.5143 18.416 68.0783 21.2756 68.9478C23.0718 69.4921 24.2703 69.5933 26.3794 69.593C27.6111 69.593 29.1561 69.5591 31.3209 69.5591C37.2023 69.5591 45.8719 69.2379 46.8697 69.1661C47.1943 69.1425 47.8438 69.1343 48.5612 69.1343C49.279 69.1343 50.0665 69.1422 50.6748 69.1504C51.283 69.1582 51.7105 69.1664 51.7113 69.1664H51.7124C51.7124 69.1664 54.398 69.1876 58.3374 69.2184L58.3381 69.1253L58.2551 69.1656C58.8464 70.4081 59.739 72.2473 60.1223 72.8291C60.6866 73.6772 61.9264 74.1235 63.4331 74.125C63.5715 74.125 63.7116 74.1209 63.8544 74.1135L63.9798 74.1067L62.1296 69.1217L62.0433 69.1544L62.0425 69.2475C72.8397 69.3317 88.3895 69.4519 89.6296 69.4519C91.4385 69.4519 116.175 69.7404 121.256 69.7404C121.541 69.7404 121.764 69.7392 121.918 69.7374C122.001 69.7366 122.093 69.7359 122.193 69.7359C124.145 69.7359 129.166 69.9206 133.766 69.9206C137.106 69.9201 140.219 69.8245 141.798 69.4858C143.713 69.0745 147.2 68.2257 150.481 67.3543C153.763 66.4821 156.83 65.5917 157.926 65.0848C160.122 64.0648 163.777 60.2765 164.812 53.931C165.715 48.3719 165.77 43.6817 165.77 39.4013C165.77 38.8124 165.768 38.2314 165.768 37.6566C165.768 37.0823 165.77 36.5012 165.77 35.9123C165.77 31.6316 165.715 26.9414 164.812 21.382L164.721 21.3972L164.629 21.4121C165.531 26.9562 165.585 31.6331 165.585 35.9123C165.585 36.5008 165.584 37.0819 165.584 37.6566C165.584 38.2314 165.585 38.8124 165.585 39.4013C165.585 43.6802 165.531 48.357 164.629 53.9012C163.611 60.1861 159.972 63.9349 157.849 64.9157C156.786 65.4089 153.71 66.3049 150.434 67.1744C147.156 68.0448 143.669 68.8936 141.76 69.3038C140.216 69.6362 137.1 69.7347 133.766 69.7345C129.169 69.7345 124.153 69.5498 122.193 69.5498C122.092 69.5498 122 69.5505 121.916 69.5513C121.762 69.5531 121.54 69.5543 121.256 69.5543C116.178 69.5543 91.4418 69.2658 89.6296 69.2658C88.3921 69.2658 72.8408 69.1456 62.044 69.0614L61.9098 69.0602L63.7629 74.0532L63.8492 74.0204L63.8444 73.9277C63.7054 73.9351 63.5681 73.9389 63.4331 73.9389C61.9592 73.94 60.7785 73.4925 60.2757 72.726C59.9091 72.1714 59.0098 70.3225 58.4211 69.0852L58.3964 69.0327L58.3389 69.0323C56.3692 69.0172 54.713 69.0041 53.5493 68.9948C52.3852 68.9854 51.7157 68.9802 51.7139 68.9802L51.7131 69.0733L51.715 68.9802C51.7146 68.9802 49.9994 68.9482 48.5612 68.9482C47.8416 68.9482 47.1928 68.9561 46.8564 68.9802C45.8712 69.0513 37.1942 69.373 31.3209 69.373C29.1543 69.373 27.6078 69.4069 26.3794 69.4069C24.2733 69.4064 23.1089 69.3081 21.3285 68.7696C18.5234 67.9242 10.3336 63.342 7.31599 59.9002C5.80412 58.18 4.61168 55.9001 3.79991 54.0516C3.39372 53.1273 3.08252 52.311 2.87286 51.7258C2.76811 51.4336 2.68873 51.1987 2.63558 51.0372C2.58239 50.876 2.55576 50.7885 2.55561 50.7885L2.46756 50.8157L2.5566 50.7919C2.5566 50.7915 2.53429 50.7074 2.49478 50.5428C2.21814 49.3904 1.10815 44.3488 1.10826 37.6566C1.10826 33.8326 1.47066 30.5472 1.83287 28.2189C2.01398 27.0545 2.19509 26.1295 2.33083 25.4956C2.3987 25.1788 2.45532 24.9346 2.49478 24.7701C2.53429 24.6055 2.5566 24.521 2.5566 24.521L2.46756 24.4969L2.55561 24.5244C2.55576 24.524 2.58239 24.4369 2.63558 24.2754C3.00657 23.146 4.66889 18.4238 7.31599 15.4123C10.3336 11.9714 18.5234 7.38909 21.3285 6.54374C23.1089 6.0051 24.2733 5.90683 26.3791 5.90609C27.6075 5.90609 29.1539 5.94034 31.3209 5.94034C37.1942 5.94034 45.8712 6.26196 46.8564 6.33268C47.1928 6.35687 47.8416 6.36469 48.5612 6.36469C49.9994 6.36469 51.7146 6.33305 51.715 6.33305L51.7131 6.23999L51.7139 6.33305C51.7157 6.33305 52.3686 6.32784 53.5054 6.3189C54.6426 6.30997 56.2618 6.29694 58.1917 6.28205L58.2492 6.2813L58.274 6.22882C58.562 5.62058 58.9619 4.7849 59.3403 4.02442C59.7184 3.26468 60.0777 2.57715 60.2757 2.2775C60.7785 1.51143 61.9585 1.06326 63.432 1.06474C63.567 1.06474 63.7046 1.06846 63.8444 1.0759L63.8492 0.982841L63.7629 0.950462L61.7947 6.25376L61.9286 6.25264C72.7294 6.16814 88.3877 6.04716 89.6296 6.04716C91.4426 6.04716 116.203 5.75831 121.264 5.75831C121.545 5.75831 121.764 5.75943 121.916 5.76129C122.002 5.76241 122.096 5.76278 122.198 5.76278C124.163 5.76278 129.175 5.57852 133.767 5.57852C137.1 5.57815 140.216 5.67679 141.76 6.0092C143.669 6.4194 147.156 7.26812 150.434 8.13841C153.71 9.00834 156.786 9.90395 157.849 10.3975C159.972 11.3784 163.611 15.1272 164.629 21.4121L164.721 21.3972Z" fill="black"/>
<path d="M47.9249 61.0162L48.0013 60.964C45.6708 57.4799 42.4515 49.3785 42.4522 37.7374C42.4515 26.0964 45.6708 17.9946 48.0013 14.5108C49.2085 12.7051 50.5198 11.926 51.4995 11.588L51.8008 11.4841L50.4471 11.1577L50.4412 11.1569C50.4383 11.1569 50.3774 11.1502 50.2686 11.1502C49.6235 11.1484 47.2724 11.3795 45.2507 14.4066C42.8945 17.9317 39.6707 26.0599 39.6699 37.7374C39.6707 49.4146 42.8945 57.5428 45.2507 61.0683C47.272 64.0951 49.6228 64.3261 50.2682 64.3242C50.3774 64.3242 50.4383 64.318 50.4412 64.3175L50.4471 64.3168L51.8012 63.9904L51.4995 63.8865C50.5194 63.5489 49.2082 62.7694 48.0013 60.964L47.9249 61.0162L47.8482 61.0683C49.0757 62.9053 50.425 63.7138 51.4397 64.0629L51.4696 63.9748L51.4482 63.8844L50.4099 64.1345L50.4317 64.2249L50.4217 64.1326L50.3844 64.1352C50.3586 64.1366 50.3192 64.1381 50.2682 64.1381C49.6622 64.1359 47.3908 63.9342 45.4034 60.964C43.073 57.4799 39.8536 49.3785 39.8543 37.7374C39.8536 26.0964 43.073 17.9946 45.4034 14.5108C47.3912 11.5403 49.663 11.3386 50.2686 11.3363C50.3195 11.3363 50.3586 11.3378 50.3844 11.3393L50.4217 11.3423L50.4317 11.2496L50.4099 11.3401L51.4482 11.5906L51.4696 11.4998L51.4397 11.4119C50.4254 11.7611 49.0761 12.5692 47.8482 14.4066C45.4923 17.9317 42.2685 26.0599 42.2678 37.7374C42.2685 49.4146 45.4923 57.5428 47.8482 61.0683L47.9249 61.0162Z" fill="black"/>
<path d="M54.3441 13.0377L54.3227 13.1281L71.653 17.305L71.6744 17.2146L71.5903 17.177C70.2466 20.255 69.5443 24.7785 69.174 28.843C68.804 32.9075 68.7686 36.5107 68.7686 37.7362C68.7686 38.9616 68.804 42.5648 69.174 46.629C69.5443 50.6938 70.2466 55.2173 71.5903 58.295L71.6744 58.2578L71.653 58.1669L53.8709 62.4529C53.6721 62.5005 53.4681 62.5214 53.2645 62.5214C52.6806 62.5214 52.1004 62.3509 51.6681 62.1792C51.4519 62.0933 51.2727 62.0073 51.1476 61.9432C51.0853 61.9112 51.0366 61.8845 51.0034 61.8658L50.954 61.8375L50.9068 61.9172L50.9702 61.8499C50.6025 61.4958 50.2259 61.0541 49.8574 60.5024C47.3687 56.7815 44.447 48.5709 44.4481 37.7362C44.447 26.901 47.3687 18.6905 49.8574 14.9696C50.165 14.5099 50.4782 14.1261 50.7869 13.8056L50.7209 13.7405L50.7777 13.8138L50.8219 13.7807C51.0333 13.6284 51.9827 13.006 53.3084 13.0068C53.6263 13.0068 53.9657 13.0421 54.3227 13.1281L54.3441 13.0377L54.3655 12.9472C53.9941 12.8575 53.6396 12.8207 53.3084 12.8207C51.7264 12.8218 50.6722 13.6616 50.6637 13.6675L50.6589 13.6712L50.6545 13.6757C50.338 14.0044 50.0178 14.3967 49.7047 14.8658C47.188 18.6317 44.2648 26.8653 44.2637 37.7362C44.2648 48.6067 47.188 56.8402 49.7047 60.6062C50.0802 61.1682 50.4652 61.6208 50.8429 61.9847L50.8503 61.9916L50.8592 61.9973C50.8662 61.9999 52.027 62.7053 53.2645 62.707C53.4803 62.707 53.699 62.6855 53.9137 62.6337L71.8035 58.3222L71.7589 58.2201C70.4307 55.1804 69.7261 50.6666 69.3577 46.6118C68.9884 42.5567 68.953 38.9578 68.953 37.7362C68.953 36.5145 68.9884 32.9157 69.3577 28.8601C69.7261 24.8053 70.4307 20.2915 71.7589 17.2522L71.8035 17.1498L54.3655 12.9472L54.3441 13.0377Z" fill="black"/>
<path d="M139.574 57.9382V57.8451C132.645 57.8451 123.559 56.7928 120.454 56.4061L120.442 56.4984L120.529 56.5315C122.025 52.5578 123.541 42.6023 123.543 37.5532C123.541 32.5042 122.025 22.5483 120.529 18.575L120.442 18.6081L120.454 18.7004C123.56 18.3133 132.645 17.2613 139.573 17.2613C140.832 17.2613 141.968 17.2963 142.958 17.3652L142.965 17.2725L142.887 17.3231C143.78 18.709 147.463 25.1751 147.463 37.5532C147.463 49.9276 143.782 56.3941 142.887 57.7833L142.965 57.8344L142.958 57.7413C141.968 57.8101 140.832 57.8451 139.574 57.8451V57.9382V58.0312C140.835 58.0312 141.976 57.9962 142.971 57.927L143.017 57.9241L143.042 57.885C143.954 56.4704 147.647 49.9652 147.647 37.5532C147.647 25.1376 143.951 18.6327 143.042 17.2215L143.017 17.1828L142.971 17.1794C141.976 17.1102 140.835 17.0752 139.573 17.0752C132.628 17.0756 123.541 18.1283 120.431 18.5158L120.314 18.5303L120.356 18.6412C121.839 22.568 123.36 32.5392 123.358 37.5532C123.36 42.5673 121.839 52.5385 120.356 56.4652L120.314 56.5762L120.431 56.5907C123.54 56.9778 132.628 58.0308 139.574 58.0312V57.9382Z" fill="black"/>
<path d="M16.7386 66.0732L16.7656 65.9843C16.7656 65.9843 16.7434 65.9775 16.6977 65.9615C16.0124 65.7196 10.2991 63.4802 6.41612 54.4739L6.33169 54.5107L6.26744 54.5773C6.26788 54.5781 6.42852 54.7355 6.71065 55.0129C7.69804 55.9826 10.1681 58.4107 12.4015 60.6225C13.5182 61.728 14.5758 62.78 15.3591 63.5684C15.7509 63.9623 16.0741 64.2905 16.3015 64.5266C16.4151 64.6446 16.5049 64.7395 16.5668 64.8073C16.5978 64.8411 16.6219 64.8684 16.6377 64.8872L16.6549 64.9089L16.6572 64.9122L16.7021 64.8836L16.653 64.9037L16.6572 64.9122L16.7021 64.8836L16.653 64.9037C16.6754 64.9543 16.6902 65.1154 16.6889 65.2886C16.689 65.6384 16.6468 66.0631 16.6468 66.0639L16.7386 66.0732L16.8304 66.0825C16.8305 66.081 16.8733 65.6522 16.8733 65.2886C16.8722 65.1046 16.8657 64.9443 16.8243 64.8344L16.8003 64.7942C16.7402 64.7154 16.5435 64.5087 16.23 64.1871C14.0454 61.9496 6.39624 54.4445 6.39595 54.4441L6.06055 54.115L6.24711 54.5479C10.4119 64.2124 16.6947 66.1581 16.7117 66.1621L16.8191 66.1953L16.8304 66.0825L16.7386 66.0732Z" fill="black"/>
<path d="M16.7898 9.31878L16.7629 9.22981C16.7457 9.2339 10.4631 11.18 6.29804 20.8444L6.11133 21.2773L6.44691 20.9483C6.44691 20.9483 9.02485 18.4189 11.6149 15.8594C12.9099 14.5796 14.208 13.2924 15.1883 12.3097C15.6787 11.8184 16.0895 11.4029 16.3811 11.1029C16.5269 10.9525 16.6429 10.8312 16.7246 10.743C16.7655 10.6987 16.7978 10.6629 16.8214 10.635L16.8514 10.5982L16.8754 10.558C16.9168 10.4482 16.9233 10.2881 16.9244 10.1038C16.9244 9.74015 16.8816 9.31133 16.8815 9.30947L16.8704 9.19668L16.7629 9.22981L16.7898 9.31878L16.6981 9.32808C16.6981 9.32846 16.7086 9.4338 16.7191 9.58418C16.7296 9.73457 16.7401 9.92924 16.74 10.1038C16.7413 10.2769 16.7264 10.4381 16.7041 10.4887L16.7496 10.5073L16.7084 10.4802L16.7041 10.4891L16.7496 10.5073L16.7084 10.4802C16.7035 10.4891 16.6465 10.5561 16.5602 10.6477C15.9023 11.3523 13.3396 13.8966 10.9445 16.261C9.74658 17.4437 8.59 18.5823 7.733 19.4251C7.3045 19.8465 6.95077 20.1938 6.70423 20.4357C6.45772 20.678 6.31866 20.8143 6.31822 20.8147L6.38262 20.8813L6.46705 20.9185C8.53814 16.1144 11.1298 13.237 13.2014 11.5593C14.2373 10.7206 15.1432 10.1824 15.7892 9.85368C16.1122 9.68952 16.3703 9.57749 16.5469 9.50713C16.6352 9.47177 16.7032 9.44683 16.7489 9.43082C16.7946 9.41482 16.8166 9.40811 16.8166 9.40774L16.7898 9.31878Z" fill="black"/>
<path d="M6.33195 54.5102L6.29967 54.5437C6.29967 54.5437 6.52039 54.7604 6.89633 55.1292L7.01953 55.2502L6.42818 53.1381L6.38381 53.1508L6.42892 53.1411C6.42862 53.14 6.33283 52.6732 6.18857 51.8513C5.75605 49.3863 4.89053 43.7417 4.89068 38.0405C4.89068 37.7285 4.89326 37.4162 4.89861 37.1047C4.96703 33.1492 5.34957 29.336 5.71511 26.5118C5.89795 25.0999 6.07648 23.9352 6.20934 23.1237C6.34205 22.3118 6.42877 21.8551 6.42907 21.8536L6.38381 21.8451L6.42545 21.8648L7.35611 19.8621L7.17485 20.0401C6.66178 20.5441 6.35242 20.8475 6.35168 20.8482L6.38381 20.8813L6.42604 20.8999C8.95776 15.0271 12.2668 12.0284 14.4605 10.5803L14.4897 10.561L14.2871 9.91255L14.2369 9.94308C11.4866 11.6163 8.72475 13.6 7.21333 15.3204C4.15931 18.7979 2.42569 24.4809 2.42425 24.4835L2.42396 24.4846L2.42381 24.4854C2.42307 24.488 0.970703 29.9912 0.970703 37.6571C0.970703 45.323 2.42307 50.8254 2.42381 50.8284L2.42396 50.8291L2.42425 50.8299C2.42569 50.8329 4.15931 56.5158 7.21333 59.9932C8.92231 61.9382 12.229 64.2205 15.3109 66.0094L15.3552 66.0352L15.5846 65.51L15.5464 65.4895C13.5302 64.4226 9.39762 61.506 6.37418 54.4916L6.33195 54.5102L6.2896 54.5288C9.32126 61.5635 13.472 64.4973 15.5036 65.5721L15.525 65.5307L15.4829 65.5121L15.2915 65.9502L15.3338 65.9689L15.3568 65.9287C12.2802 64.1434 8.97646 61.8608 7.28219 59.9314C5.76527 58.205 4.57155 55.9217 3.75848 54.071C3.35185 53.1456 3.0402 52.3281 2.83029 51.7422C2.62034 51.1563 2.5127 50.8034 2.51241 50.8027L2.46833 50.8161L2.51285 50.8042C2.51256 50.8034 2.42252 50.4621 2.28649 49.8274C1.8789 47.9242 1.06292 43.3977 1.06292 37.6571C1.06292 33.8301 1.42558 30.5424 1.78812 28.2118C1.96938 27.0467 2.15064 26.1206 2.28649 25.4863C2.42252 24.8516 2.5127 24.5103 2.51285 24.5092L2.46833 24.4973L2.51241 24.511C2.51256 24.5103 2.62034 24.1574 2.83029 23.5715C3.45978 21.8138 5.00639 17.9719 7.28219 15.3819C8.78067 13.6759 11.5387 11.6926 14.2845 10.0227L14.2606 9.9829L14.2167 9.99668L14.3911 10.5554L14.4353 10.5416L14.4099 10.5026C12.2029 11.9588 8.88007 14.9731 6.34146 20.8631L6.24825 21.0794L6.41594 20.9148C6.41594 20.9148 6.72603 20.6107 7.23926 20.1067L7.20698 20.0736L7.16534 20.0535L6.33958 21.8305L6.33844 21.8361C6.33829 21.8376 4.94343 29.1823 4.8064 37.1032C4.80105 37.4155 4.79847 37.7278 4.79847 38.0405C4.79847 45.6543 6.33844 53.1586 6.33859 53.1601L6.33903 53.162L6.88409 55.1085L6.92846 55.0958L6.96059 55.0626C6.58469 54.6937 6.36466 54.4775 6.36407 54.4771L6.19635 54.3122L6.2896 54.5288L6.33195 54.5102Z" fill="black"/>
<path d="M72.8571 58.8191L72.9376 58.7742C71.6934 56.4952 70.8967 52.7606 70.4172 48.8364C69.9365 44.9115 69.7691 40.7942 69.7691 37.7363C69.7691 34.6783 69.9365 30.561 70.4172 26.6361C70.8967 22.7116 71.6934 18.9769 72.9376 16.698L72.9962 16.5908L51.465 11.4018L51.4395 11.4107C50.4252 11.7599 49.0759 12.568 47.848 14.4054C45.4921 17.9305 42.2683 26.0587 42.2676 37.7363C42.2683 49.4134 45.4921 57.5416 47.848 61.0671C49.0755 62.9042 50.4248 63.7126 51.4395 64.0618L51.465 64.0703L72.9962 58.8814L72.9376 58.7742L72.8571 58.8191L72.8354 58.7287L51.448 63.8832L51.4694 63.9736L51.4993 63.8853C50.5192 63.5477 49.208 62.7682 48.0011 60.9629C45.6706 57.4788 42.4513 49.3773 42.452 37.7363C42.4513 26.0952 45.6706 17.9934 48.0011 14.5096C49.2083 12.7039 50.5196 11.9248 51.4993 11.5868L51.4694 11.4986L51.448 11.5894L72.8354 16.7434L72.8571 16.653L72.776 16.6079C71.5101 18.9315 70.7167 22.6769 70.2338 26.613C69.7521 30.5487 69.5847 34.6716 69.5847 37.7363C69.5847 40.8009 69.7521 44.9238 70.2338 48.8592C70.7167 52.7952 71.5101 56.5408 72.776 58.8639L72.8571 58.8191Z" fill="black"/>
<path d="M148.365 37.5545H148.272C148.272 44.8232 147.036 50.0803 145.8 53.5187C145.183 55.2378 144.565 56.5022 144.103 57.3364C143.872 57.7533 143.68 58.0626 143.546 58.2673C143.478 58.3694 143.426 58.4457 143.39 58.4959C143.354 58.5465 143.336 58.57 143.336 58.5703L143.409 58.6269L143.402 58.5343C142.246 58.6285 140.947 58.6693 139.569 58.6693C135.268 58.6693 130.186 58.2725 126.18 57.8757C124.177 57.6774 122.443 57.4789 121.209 57.3305C120.593 57.256 120.101 57.1938 119.764 57.1506C119.427 57.1071 119.245 57.0825 119.244 57.0825L119.232 57.1744L119.311 57.2229C119.691 56.5896 120.086 55.4089 120.476 53.8943C121.641 49.3526 122.72 41.8334 122.721 37.5545C122.721 34.7016 122.241 30.4097 121.576 26.5187C121.243 24.5733 120.865 22.7285 120.476 21.2146C120.086 19.6996 119.691 18.5192 119.311 17.8857L119.232 17.9341L119.244 18.0264C119.245 18.026 119.427 18.0015 119.764 17.9583C122.124 17.6545 132.041 16.4395 139.567 16.4395C140.947 16.4395 142.245 16.4805 143.402 16.575L143.409 16.482L143.336 16.5389C143.336 16.5389 143.354 16.5628 143.39 16.613C143.925 17.369 148.272 23.9257 148.272 37.5545H148.365H148.457C148.457 22.9738 143.493 16.4384 143.482 16.4254L143.457 16.3926L143.417 16.3893C142.253 16.2944 140.95 16.2534 139.567 16.2534C130.945 16.2538 119.222 17.8418 119.22 17.8418L119.08 17.8608L119.153 17.9825C119.513 18.5792 119.911 19.7551 120.297 21.2612C121.458 25.7824 122.537 33.3039 122.537 37.5545C122.537 40.388 122.058 44.6762 121.394 48.5586C121.062 50.5002 120.684 52.3406 120.297 53.8474C119.911 55.3535 119.513 56.5297 119.153 57.1265L119.08 57.2479L119.22 57.2668C119.222 57.2668 130.947 58.8552 139.569 58.8555C140.951 58.8555 142.254 58.8146 143.417 58.7197L143.457 58.7163L143.482 58.6835C143.493 58.6708 148.457 52.1351 148.457 37.5545H148.365Z" fill="black"/>
<path d="M122.631 37.5557H122.724C122.723 34.8283 122.285 30.7876 121.665 27.0392C121.045 23.2892 120.247 19.8401 119.516 18.2774L119.489 18.2201L119.426 18.2245C117.419 18.3705 110.341 18.8134 96.6945 18.9634C96.1552 18.9694 95.6248 18.972 95.1033 18.972C82.5533 18.972 75.115 17.2977 72.817 16.6861L72.7466 16.6671L72.7122 16.7322C71.4729 19.0833 70.695 22.8117 70.2217 26.7164C69.7489 30.6205 69.584 34.6988 69.584 37.7373C69.584 40.7462 69.7459 44.7738 70.2081 48.6428C70.6706 52.5123 71.4312 56.2202 72.6403 58.6014L72.6743 58.668L72.7462 58.6487C74.9597 58.0538 82.4268 56.3434 95.1199 56.3434C95.6355 56.3434 96.1604 56.3464 96.6945 56.3519C110.129 56.4994 117.198 56.9311 119.329 57.0838L119.389 57.0883L119.417 57.0346C120.16 55.6123 120.98 52.146 121.623 48.3253C122.265 44.5065 122.723 40.3445 122.724 37.5557H122.631H122.539C122.539 40.3252 122.082 44.4838 121.441 48.2944C120.802 52.1032 119.974 55.5755 119.254 56.9475L119.335 56.9911L119.342 56.8981C117.207 56.7454 110.135 56.3136 96.6964 56.1658C96.1619 56.1603 95.6363 56.1573 95.1199 56.1573C82.4102 56.1573 74.9269 57.87 72.6986 58.4689L72.7222 58.5589L72.8045 58.5165C71.6142 56.1759 70.8514 52.4788 70.391 48.6205C69.93 44.7615 69.7684 40.7395 69.7684 37.7373C69.7684 34.7055 69.9333 30.6328 70.4047 26.7392C70.8753 22.8455 71.6562 19.1283 72.8749 16.8197L72.7938 16.7762L72.7702 16.8659C75.0829 17.4815 82.5371 19.1585 95.1033 19.1581C95.6256 19.1581 96.1567 19.1555 96.6964 19.1496C110.346 18.9995 117.429 18.5566 119.439 18.4103L119.433 18.3172L119.349 18.3571C120.064 19.8784 120.866 23.3302 121.483 27.0697C122.102 30.8103 122.539 34.8473 122.539 37.5557H122.631Z" fill="black"/>
<path d="M161.02 18.1497L160.997 18.0596L160.839 18.1009L160.736 18.1273L160.776 18.226C160.799 18.2837 160.82 18.3358 160.839 18.3857L160.917 18.5859L161.188 18.0097L160.997 18.0596L161.02 18.1497L160.937 18.1098L160.841 18.312L160.925 18.3518L161.011 18.3179C160.991 18.2677 160.971 18.2148 160.947 18.156L160.861 18.191L160.885 18.2811L161.043 18.2398L161.02 18.1497Z" fill="black"/>
<path d="M160.735 18.7489V18.6559H159.476V18.7489L159.561 18.7125C159.561 18.7125 159.533 18.6455 159.485 18.5338L159.466 18.4873L159.416 18.4787C159.414 18.4783 148.507 16.5512 143.49 16.4694H143.487L143.463 16.4701L143.292 16.4761L143.391 16.6171C143.938 17.3906 148.271 23.9473 148.271 37.5541C148.271 44.8228 147.035 50.08 145.799 53.5184C145.182 55.2374 144.564 56.5019 144.102 57.3361C143.871 57.753 143.679 58.0623 143.545 58.267C143.477 58.3691 143.425 58.4454 143.389 58.4955C143.353 58.5462 143.335 58.5697 143.335 58.57L143.201 58.7461L159.429 56.7334H160.542L160.561 56.6664C160.562 56.6608 163.042 48.0323 163.042 36.2431C163.042 25.951 161.274 20.0563 160.823 18.7188L160.801 18.6559H160.735V18.7489L160.648 18.7791C161.093 20.0987 162.857 25.9726 162.857 36.2431C162.857 42.1245 162.239 47.2189 161.62 50.842C161.311 52.6536 161.002 54.0976 160.77 55.0881C160.654 55.5832 160.557 55.9651 160.49 56.223C160.422 56.4814 160.384 56.6143 160.384 56.6147L160.472 56.6403V56.5472H159.418L143.397 58.5342L143.408 58.6266L143.481 58.6831C143.492 58.6705 148.456 52.1347 148.456 37.5541C148.456 23.9071 144.107 17.3084 143.542 16.5092L143.467 16.5632L143.47 16.6562L143.491 16.6555L143.489 16.5624L143.487 16.6555C145.978 16.6957 149.956 17.1971 153.307 17.6888C154.982 17.9345 156.502 18.1779 157.603 18.3596C158.703 18.5416 159.383 18.6615 159.385 18.6618L159.401 18.5703L159.316 18.6068C159.363 18.7184 159.391 18.7851 159.391 18.7851L159.415 18.842H160.735V18.7489Z" fill="black"/>
<path d="M115.093 37.7602H115.001C115.001 41.1282 114.651 46.7468 114.432 48.6843C114.323 49.6417 114.005 50.2306 113.542 50.5879C113.079 50.9456 112.456 51.077 111.721 51.077C110.226 51.077 86.1897 51.9167 82.7723 52.0494C81.7162 52.0902 80.9744 52.1186 80.4341 52.1186C79.8303 52.1189 79.4802 52.0825 79.2261 51.9957C78.9727 51.9093 78.8019 51.7721 78.5448 51.5438C78.4847 51.497 78.3866 51.2789 78.3069 50.952C78.0151 49.8006 77.7739 47.2742 77.6083 44.6555C77.4423 42.0353 77.3504 39.3158 77.3504 37.7602C77.3504 35.982 77.4707 32.6843 77.6839 29.7514C77.7905 28.2852 77.9203 26.9098 78.0697 25.8623C78.1442 25.3385 78.2239 24.8967 78.3069 24.5684C78.3866 24.2415 78.4847 24.0234 78.5448 23.9765C78.8019 23.7483 78.9727 23.611 79.2261 23.5246C79.4802 23.4379 79.8303 23.4018 80.4337 23.4018C80.9741 23.4018 81.7158 23.4301 82.7723 23.471C86.1897 23.6039 110.226 24.4433 111.721 24.4433C112.456 24.4433 113.079 24.5751 113.542 24.9324C114.005 25.2898 114.323 25.8786 114.432 26.8357C114.651 28.7736 115.001 34.3921 115.001 37.7602H115.093H115.185C115.185 34.3795 114.835 28.7657 114.615 26.8145C114.505 25.8273 114.166 25.1785 113.654 24.7846C113.143 24.3908 112.475 24.2575 111.721 24.2572C110.238 24.2575 86.193 23.4178 82.7793 23.2853C81.7229 23.2443 80.9803 23.2156 80.4337 23.2156C79.824 23.216 79.4562 23.2503 79.1674 23.3482C78.8779 23.4468 78.6805 23.608 78.4231 23.8365C78.2973 23.9549 78.2172 24.1824 78.1284 24.5222C77.8296 25.7056 77.5909 28.2275 77.4242 30.8529C77.2582 33.4772 77.166 36.1975 77.166 37.7602C77.166 39.5458 77.2863 42.8442 77.4998 45.7823C77.6068 47.2512 77.737 48.6296 77.8871 49.6849C77.9624 50.2123 78.0424 50.659 78.1284 50.9981C78.2172 51.338 78.2973 51.5655 78.4231 51.6838C78.6805 51.9124 78.8779 52.0739 79.1674 52.1722C79.4562 52.2701 79.824 52.3042 80.4341 52.3047C80.9803 52.3047 81.7229 52.2763 82.7793 52.2355C86.193 52.1026 110.238 51.2632 111.721 51.2632C112.475 51.2632 113.143 51.1295 113.654 50.7356C114.166 50.3419 114.505 49.6931 114.615 48.7055C114.835 46.755 115.185 41.1409 115.185 37.7602H115.093Z" fill="black"/>
<path d="M89.5718 24.5926L89.5751 24.4995C86.2543 24.3826 83.6354 24.2888 82.7413 24.2542C81.7535 24.2155 80.973 24.1853 80.4323 24.1853C80.0181 24.1857 79.7813 24.1913 79.5991 24.2319C79.4161 24.2721 79.2962 24.3555 79.1539 24.4794L79.1369 24.4943L79.1284 24.5151C78.9938 24.8535 78.8709 25.5816 78.7529 26.5669C78.401 29.5173 78.127 34.7156 78.127 37.7587C78.127 39.787 78.249 42.7739 78.4342 45.4138C78.5272 46.7338 78.6356 47.9666 78.7529 48.9501C78.8709 49.9354 78.9938 50.6635 79.1284 51.0018L79.1369 51.0231L79.1539 51.0379C79.2962 51.1619 79.4161 51.2452 79.5991 51.2855C79.7813 51.3261 80.0181 51.3316 80.4323 51.332C80.973 51.332 81.7535 51.3015 82.7413 51.2631C83.6354 51.2285 86.2543 51.1347 89.5751 51.0178C90.1376 50.9978 90.6219 50.8281 90.9694 50.5439C91.3169 50.2607 91.5245 49.8583 91.5238 49.3953V26.1217C91.5245 25.6587 91.3169 25.2563 90.9694 24.973C90.6219 24.689 90.1376 24.5196 89.5751 24.4995L89.5718 24.5926L89.5689 24.6856C90.0985 24.7042 90.5441 24.8643 90.8532 25.1178C91.1627 25.3717 91.339 25.7149 91.3394 26.1217V49.3953C91.339 49.8021 91.1627 50.1454 90.8532 50.3996C90.5441 50.653 90.0985 50.8131 89.5689 50.8317C86.2481 50.9486 83.6288 51.0424 82.7343 51.0774C81.7465 51.1154 80.9664 51.1459 80.4323 51.1459C80.0203 51.1462 79.7894 51.1381 79.6393 51.1039C79.4906 51.0693 79.4143 51.0164 79.2737 50.8965L79.2136 50.9672L79.2992 50.9322C79.18 50.6377 79.0517 49.9049 78.9359 48.9277C78.5854 45.9908 78.3114 40.7906 78.3114 37.7587C78.3114 35.7371 78.4331 32.7521 78.6183 30.1166C78.7109 28.7989 78.8193 27.5683 78.9359 26.5893C79.0517 25.6121 79.18 24.8792 79.2992 24.5851L79.2136 24.5501L79.2737 24.6209C79.4143 24.5006 79.4902 24.4481 79.6393 24.4135C79.7894 24.3793 80.0203 24.3711 80.4323 24.3715C80.9664 24.3715 81.7465 24.4016 82.7343 24.44C83.6288 24.4749 86.2481 24.5687 89.5689 24.6856L89.5718 24.5926Z" fill="black"/>
<path d="M113.568 26.9316L113.659 26.9211C113.59 26.3025 113.44 25.8718 113.126 25.5967C112.811 25.3227 112.359 25.2256 111.721 25.2252C110.931 25.2252 103.841 24.99 96.8375 24.7499C96.802 24.7487 96.7678 24.748 96.7338 24.748C96.0573 24.7465 95.6287 24.9911 95.3849 25.3261C95.1404 25.6604 95.0762 26.0691 95.0762 26.3993V49.1148C95.0762 49.4446 95.1404 49.8533 95.3849 50.1876C95.6287 50.5227 96.057 50.7672 96.7334 50.7656C96.7674 50.7656 96.8021 50.7649 96.8371 50.7639C103.841 50.5241 110.931 50.2889 111.721 50.2889C112.359 50.2884 112.811 50.1913 113.126 49.9174C113.44 49.6423 113.59 49.2116 113.659 48.5929C113.882 46.6197 114.223 41.0875 114.223 37.757C114.223 34.4266 113.882 28.8944 113.659 26.9211L113.568 26.9316L113.476 26.942C113.697 28.9026 114.039 34.4393 114.039 37.757C114.039 41.0748 113.697 46.6115 113.476 48.5717C113.408 49.1744 113.265 49.5503 113.006 49.7767C112.746 50.0041 112.344 50.1027 111.721 50.1027C110.92 50.1027 103.837 50.338 96.8312 50.5778C96.7976 50.5788 96.7652 50.5795 96.7334 50.5795C96.0979 50.5778 95.7434 50.3614 95.5328 50.0767C95.3226 49.7912 95.2602 49.4212 95.2606 49.1148V26.3993C95.2602 26.0929 95.3226 25.7225 95.5332 25.437C95.7438 25.1523 96.0983 24.936 96.7338 24.9341L96.8312 24.936C103.837 25.1757 110.92 25.4113 111.721 25.4113C112.344 25.411 112.746 25.5096 113.006 25.7374C113.265 25.9634 113.408 26.3397 113.476 26.942L113.568 26.9316Z" fill="black"/>
</svg>
