<svg width="182" height="56" viewBox="0 0 182 56" fill="none" xmlns="http://www.w3.org/2000/svg">
<path d="M1.26699 41.0935L1.21733 41.1045C1.21692 41.1028 1.074 40.4604 0.911552 39.7707C0.749508 39.0826 0.565485 38.3424 0.491385 38.1714L0.489357 38.1669L0.475918 38.1083L0.464109 38.0554L0.517845 38.0468C0.849669 37.9947 1.25274 37.976 1.66885 37.976C2.86993 37.976 4.18257 38.1352 4.18339 38.1352L4.17727 38.1856L4.18176 38.1347L24.0488 39.8952L24.039 39.9498C23.8953 40.7763 23.8155 41.6244 23.8139 42.4912V42.4932L23.5472 46.1445L23.4943 46.138C20.6825 45.7952 9.96566 44.4748 7.29763 43.9549C5.80992 43.665 4.3841 43.3869 3.22781 43.1003C2.07111 42.8125 1.18638 42.5201 0.767023 42.1854L0.649771 42.0914L10.626 42.3161L6.1959 41.144H1.22588L1.21733 41.1045L1.26699 41.0935V41.0426H6.20894L11.4815 42.4371L0.79756 42.1964L0.798773 42.1455L0.83054 42.106C1.21896 42.4191 2.10082 42.7168 3.25264 43.0014C4.40486 43.2872 5.82948 43.5653 7.31678 43.8551C9.97503 44.373 20.6968 45.6946 23.5065 46.037L23.5004 46.0875L23.4495 46.0835L23.7121 42.4875L23.763 42.4912H23.7121C23.7133 41.6183 23.7939 40.7645 23.9389 39.9323L23.989 39.9409L23.9845 39.9917L4.17198 38.2361H4.17116C4.17035 38.2361 3.84423 38.1966 3.36747 38.1567C2.89111 38.1172 2.26491 38.0778 1.66885 38.0778C1.25559 38.0778 0.857004 38.0969 0.53373 38.1474L0.525579 38.0973L0.57526 38.0859L0.587883 38.14L0.538202 38.151L0.584623 38.1311C0.667274 38.3249 0.847231 39.0553 1.0105 39.7475C1.17335 40.4376 1.31667 41.0821 1.31667 41.0821L1.26699 41.0935Z" fill="black"/>
<path d="M4.66255 37.3509L4.65929 37.4014L4.56647 37.3953C3.2119 37.3045 2.26243 37.2821 1.65375 37.2821C1.05484 37.2821 0.788965 37.3041 0.78815 37.3036L0.697775 37.311L0.73849 37.2304C0.935955 36.8387 1.16761 36.4841 1.16802 36.4833L1.21076 36.5109L1.16029 36.517L0.502751 30.8675L0.554459 30.8626C0.554866 30.8626 0.75558 30.8431 0.972996 30.8174C1.18797 30.7922 1.4286 30.7567 1.47745 30.736L1.48477 30.7543L1.4693 30.7413L1.47745 30.736L1.48477 30.7543L1.4693 30.7413C1.47256 30.7392 1.48886 30.701 1.49944 30.6476C1.54056 30.4575 1.56702 30.0581 1.58208 29.7108C1.59715 29.3627 1.60204 29.0647 1.60204 29.0638L1.60286 29.0138H1.65294C2.12075 29.0138 2.54945 29.0195 2.95904 29.0219H3.00099L3.00872 29.063C3.27418 30.4709 4.12715 34.9422 4.71221 37.3387L4.72852 37.4062L4.65929 37.4014L4.66255 37.3509L4.61329 37.3627C4.027 34.9609 3.17402 30.4905 2.90896 29.0822L2.95904 29.0728L2.95865 29.1237C2.54824 29.1212 2.11993 29.1156 1.65294 29.1156V29.0647L1.70383 29.0655C1.70383 29.0659 1.69731 29.4828 1.67451 29.907C1.66311 30.1192 1.64763 30.3333 1.62646 30.499C1.61587 30.5821 1.60407 30.6529 1.58982 30.7071L1.56538 30.7775L1.51531 30.8304C1.43388 30.8618 1.20588 30.8915 0.985202 30.9184C0.766565 30.9444 0.564627 30.964 0.56422 30.964L0.55933 30.9135L0.609825 30.9074L1.26329 36.5236L1.25311 36.5386C1.25311 36.539 1.19612 36.6262 1.11428 36.7626C1.03245 36.8989 0.92659 37.0834 0.829282 37.276L0.784075 37.2532L0.780019 37.2023C0.781241 37.2023 1.0524 37.1803 1.65375 37.1803C2.26488 37.1803 3.21678 37.2031 4.57339 37.2935L4.66621 37.3L4.66255 37.3509Z" fill="black"/>
<path d="M19.1174 45.5977H19.1178C19.1166 45.5977 19.1158 45.5972 19.1146 45.5972L19.1174 45.5977ZM19.1309 45.4967C16.4746 44.9157 12.6536 44.0599 10.6244 43.5131C9.61912 43.2419 8.76616 42.8397 8.04714 42.3617L0.959129 42.2021L7.85985 42.3576C8.6147 42.8804 9.52059 43.3209 10.5979 43.6112C12.3657 44.0876 15.4849 44.7968 18.0153 45.3558C18.3955 45.4039 18.7681 45.4511 19.1309 45.4967ZM12.3596 44.719C10.1419 44.4178 8.22587 44.138 7.2935 43.9565C8.22627 44.1385 10.1419 44.4178 12.3596 44.719ZM7.59602 43.9096C7.57892 43.9064 7.56262 43.9035 7.54634 43.9007C7.56262 43.9035 7.57933 43.9064 7.59602 43.9096ZM7.54431 43.9003C7.54146 43.8995 7.53819 43.899 7.53534 43.8986C7.53819 43.899 7.54105 43.8995 7.54431 43.9003ZM7.4527 43.8832C7.4523 43.8832 7.45148 43.8832 7.45107 43.8832C7.45189 43.8832 7.45189 43.8832 7.4527 43.8832ZM7.43479 43.8799C7.43479 43.8799 7.43478 43.8799 7.43437 43.8799H7.43479ZM7.32893 43.86C7.32852 43.86 7.3281 43.8596 7.3277 43.8596C7.3281 43.8596 7.32852 43.8596 7.32893 43.86Z" fill="#E5E5E5"/>
<path d="M19.1174 45.5977H19.1178C19.1166 45.5977 19.1158 45.5972 19.1146 45.5972L19.1174 45.5977ZM19.1309 45.4967C16.4746 44.9157 12.6536 44.0599 10.6244 43.5131C9.61912 43.2419 8.76616 42.8397 8.04714 42.3617L0.959129 42.2021L7.85985 42.3576C8.6147 42.8804 9.52059 43.3209 10.5979 43.6112C12.3657 44.0876 15.4849 44.7968 18.0153 45.3558C18.3955 45.4039 18.7681 45.4511 19.1309 45.4967ZM12.3596 44.719C10.1419 44.4178 8.22587 44.138 7.2935 43.9565C8.22627 44.1385 10.1419 44.4178 12.3596 44.719ZM7.59602 43.9096C7.57892 43.9064 7.56262 43.9035 7.54634 43.9007C7.56262 43.9035 7.57933 43.9064 7.59602 43.9096ZM7.54431 43.9003C7.54146 43.8995 7.53819 43.899 7.53534 43.8986C7.53819 43.899 7.54105 43.8995 7.54431 43.9003ZM7.4527 43.8832C7.4523 43.8832 7.45148 43.8832 7.45107 43.8832C7.45189 43.8832 7.45189 43.8832 7.4527 43.8832ZM7.43479 43.8799C7.43479 43.8799 7.43478 43.8799 7.43437 43.8799H7.43479ZM7.32893 43.86C7.32852 43.86 7.3281 43.8596 7.3277 43.8596C7.3281 43.8596 7.32852 43.8596 7.32893 43.86Z" fill="#E5E5E5"/>
<path d="M19.1136 45.5977H19.5879L19.1282 45.4971C19.1274 45.4971 19.127 45.4967 19.1266 45.4967C18.7638 45.4511 18.3913 45.4039 18.011 45.3558C17.1817 45.2504 16.3189 45.14 15.4554 45.0277C12.3102 44.6185 9.16254 44.1885 7.64511 43.919C7.64429 43.919 7.64347 43.9186 7.64306 43.9186C7.62596 43.9157 7.60969 43.9129 7.5934 43.9096C7.59259 43.9096 7.59218 43.9096 7.59177 43.9096C7.57508 43.9064 7.55838 43.9035 7.54209 43.9007C7.54128 43.9003 7.54047 43.9003 7.54006 43.9003C7.5368 43.8995 7.53395 43.899 7.5311 43.8986C7.53028 43.8982 7.52946 43.8982 7.52865 43.8982C7.52702 43.8978 7.52541 43.8974 7.52378 43.8974C7.52215 43.897 7.52011 43.8966 7.51807 43.8962C7.51807 43.8962 7.51767 43.8962 7.51726 43.8962C7.51604 43.8958 7.51481 43.8958 7.51318 43.8954C7.51074 43.895 7.50829 43.8946 7.50585 43.8938C7.49526 43.8921 7.48508 43.8901 7.4745 43.8881C7.47368 43.8881 7.47289 43.8881 7.47207 43.8876C7.46963 43.8872 7.46718 43.8868 7.46474 43.8864C7.45944 43.8852 7.45375 43.8844 7.44845 43.8832C7.44764 43.8832 7.44764 43.8832 7.44682 43.8832C7.4452 43.8828 7.44357 43.8824 7.44153 43.8819C7.43991 43.8815 7.43787 43.8815 7.43583 43.8811C7.4342 43.8807 7.43258 43.8803 7.43054 43.8799H7.43012C7.41099 43.8762 7.39144 43.8726 7.37271 43.8689C7.3723 43.8689 7.3719 43.8689 7.3715 43.8689C7.36661 43.8677 7.36131 43.8669 7.35643 43.8661C7.35602 43.8661 7.35603 43.8661 7.35603 43.8661C7.35074 43.8649 7.34585 43.864 7.34096 43.8628C7.33974 43.8628 7.33852 43.8624 7.3373 43.8624C7.33608 43.862 7.33486 43.862 7.33404 43.8616C7.33323 43.8616 7.33241 43.8612 7.3316 43.8612C7.32915 43.8608 7.32712 43.8604 7.32468 43.86C7.32427 43.8596 7.32385 43.8596 7.32345 43.8596C7.321 43.8591 7.31898 43.8587 7.31695 43.8583C7.31654 43.8583 7.31612 43.8583 7.31571 43.8583C7.31327 43.8575 7.31125 43.8571 7.3084 43.8567C5.8211 43.5668 4.39648 43.2887 3.24426 43.0029C2.20889 42.7468 1.39134 42.4806 0.95488 42.2021L8.04289 42.3617C7.99485 42.3299 7.94761 42.2977 7.90079 42.2652L7.88816 42.2562L0.791624 42.0962L0.64139 42.093L0.758644 42.187C1.178 42.5217 2.06273 42.814 3.21943 43.1019C4.37572 43.3885 5.80154 43.6666 7.28925 43.9565C8.22162 44.138 10.1377 44.4178 12.3554 44.719C12.357 44.7195 12.359 44.7195 12.3611 44.7199C12.3647 44.7203 12.3688 44.7211 12.3725 44.7215C14.5434 45.0163 17.0013 45.3318 19.1099 45.5972H19.1103C19.1115 45.5972 19.1123 45.5977 19.1136 45.5977Z" fill="black"/>
<path d="M6.71289 41.2812L6.58341 41.2471V41.2475L6.71289 41.2812ZM6.58341 41.2475V41.2471L6.1897 41.1428L6.58341 41.2475ZM6.62373 41.1526C5.83224 40.2992 5.31882 39.3644 5.0387 38.5355C5.01631 38.4687 4.99229 38.3913 4.96664 38.3062L4.85793 38.2965C4.88765 38.3974 4.91574 38.4895 4.94221 38.568C5.21418 39.373 5.70113 40.2723 6.44254 41.1046L6.20275 41.0414L6.62373 41.1526Z" fill="#E5E5E5"/>
<path d="M6.71289 41.2812L6.58341 41.2471V41.2475L6.71289 41.2812ZM6.58341 41.2475V41.2471L6.1897 41.1428L6.58341 41.2475ZM6.62373 41.1526C5.83224 40.2992 5.31882 39.3644 5.0387 38.5355C5.01631 38.4687 4.99229 38.3913 4.96664 38.3062L4.85793 38.2965C4.88765 38.3974 4.91574 38.4895 4.94221 38.568C5.21418 39.373 5.70113 40.2723 6.44254 41.1046L6.20275 41.0414L6.62373 41.1526Z" fill="#E5E5E5"/>
<path d="M6.75586 41.293L6.63616 41.1643C6.6325 41.1607 6.62924 41.157 6.62598 41.1533L6.205 41.0422H1.30377C1.26997 40.8915 1.1454 40.3358 1.00656 39.747C0.845329 39.0643 0.667809 38.344 0.584344 38.1388C0.897439 38.094 1.27486 38.0773 1.66491 38.0773C2.26097 38.0773 2.88717 38.1168 3.36353 38.1563C3.8403 38.1962 4.16641 38.2357 4.16722 38.2357H4.16804L4.86019 38.2972L4.96889 38.307C4.96197 38.2833 4.95505 38.2593 4.94772 38.2349L4.93796 38.2019L4.17945 38.1347C4.17864 38.1347 2.86599 37.9755 1.66491 37.9755C1.24881 37.9755 0.845732 37.9943 0.513909 38.0464L0.460173 38.0549L0.471982 38.1079L0.48542 38.1665L0.487448 38.171C0.561549 38.342 0.745571 39.0822 0.907615 39.7702C1.07007 40.46 1.21298 41.1024 1.21339 41.1041L1.22194 41.1435H6.19196L6.58567 41.2478L6.71514 41.282L6.75586 41.293Z" fill="black"/>
<path d="M131.597 42.5978H131.495C131.495 35.6629 137.117 30.0403 144.053 30.0399C150.989 30.0403 156.611 35.6629 156.611 42.5978C156.611 49.534 150.989 55.1562 144.053 55.1562C137.117 55.1562 131.495 49.534 131.495 42.5978H131.597H131.699C131.699 46.0101 133.081 49.0983 135.317 51.3344C137.553 53.57 140.641 54.9527 144.053 54.9527C147.465 54.9527 150.553 53.57 152.789 51.3344C155.025 49.0983 156.408 46.0101 156.408 42.5978C156.408 39.1864 155.025 36.0982 152.789 33.8621C150.553 31.6265 147.465 30.2438 144.053 30.2434C140.641 30.2438 137.553 31.6265 135.317 33.8621C133.081 36.0982 131.699 39.1864 131.699 42.5978H131.597Z" fill="black"/>
<path d="M134.875 39.6171L134.778 39.5854C136.118 35.4638 139.941 32.843 144.053 32.8434C145.052 32.8434 146.068 32.9981 147.069 33.3235C151.19 34.6626 153.811 38.4857 153.811 42.597C153.811 43.5961 153.656 44.612 153.331 45.6131C151.991 49.7351 148.168 52.3555 144.057 52.3555C143.057 52.3555 142.042 52.2008 141.04 51.8755C136.919 50.5359 134.299 46.7128 134.299 42.6011C134.299 41.6024 134.453 40.5865 134.778 39.5854L134.875 39.6171L134.972 39.6485C134.654 40.6289 134.502 41.6231 134.502 42.6011C134.502 46.6265 137.068 50.3706 141.103 51.6817C142.084 52.0004 143.079 52.1519 144.057 52.1519C148.082 52.1519 151.826 49.5861 153.137 45.5504C153.456 44.5696 153.607 43.575 153.607 42.597C153.607 38.572 151.042 34.8279 147.006 33.5168C146.025 33.1985 145.031 33.047 144.053 33.047C140.027 33.047 136.283 35.6124 134.972 39.6485L134.875 39.6171Z" fill="black"/>
<path d="M26.4842 42.5978H26.3825C26.3825 35.6629 32.0047 30.0403 38.9396 30.0399C45.8754 30.0403 51.498 35.6629 51.498 42.5978C51.498 49.534 45.8754 55.1562 38.9396 55.1562C32.0047 55.1562 26.3825 49.534 26.3825 42.5978H26.4842H26.586C26.586 46.0101 27.9687 49.0983 30.2043 51.3344C32.4404 53.57 35.5282 54.9527 38.9396 54.9527C42.3515 54.9527 45.4397 53.57 47.6758 51.3344C49.9118 49.0983 51.2945 46.0101 51.2945 42.5978C51.2945 39.1864 49.9118 36.0982 47.6758 33.8621C45.4397 31.6265 42.3515 30.2438 38.9396 30.2434C35.5282 30.2438 32.4404 31.6265 30.2043 33.8621C27.9687 36.0982 26.586 39.1864 26.586 42.5978H26.4842Z" fill="black"/>
<path d="M29.7661 39.6171L29.6692 39.5854C31.0087 35.4638 34.8314 32.843 38.9431 32.8434C39.9423 32.8434 40.9581 32.9981 41.9593 33.3235C46.0808 34.663 48.7012 38.4861 48.7012 42.5974C48.7012 43.5966 48.5465 44.6124 48.2211 45.6131C46.882 49.7351 43.0585 52.3555 38.9472 52.3555C37.948 52.3555 36.9322 52.2008 35.9311 51.8755C31.8091 50.5364 29.1891 46.7128 29.1891 42.6015C29.1891 41.6028 29.3438 40.5865 29.6692 39.5854L29.7661 39.6171L29.8626 39.6485C29.5442 40.6289 29.3927 41.6235 29.3927 42.6015C29.3927 46.6269 31.9581 50.3706 35.9938 51.6817C36.9746 52.0004 37.9692 52.1519 38.9472 52.1519C42.9726 52.1519 46.7167 49.5861 48.0278 45.5504C48.3461 44.5696 48.4976 43.5754 48.4976 42.5974C48.4976 38.572 45.9322 34.8283 41.8961 33.5168C40.9157 33.1985 39.9211 33.047 38.9431 33.047C34.9177 33.047 31.174 35.6124 29.8626 39.6485L29.7661 39.6171Z" fill="black"/>
<path d="M87.525 23.2141L87.5274 23.1123C88.6601 23.1416 91.3049 23.2112 92.6456 23.2674C94.0942 23.3277 95.4696 23.4893 95.8893 23.5418L95.8767 23.6428H95.7749V23.6424H95.9785V23.6587V23.6664L95.9773 23.6742C95.9716 23.71 95.97 23.7475 95.97 23.7865C95.97 23.8252 95.9716 23.8655 95.9716 23.9071C95.9712 23.9693 95.9683 24.0365 95.9427 24.1057C95.9044 24.2116 95.8075 24.3004 95.6577 24.3504C95.5066 24.4026 95.2945 24.4315 94.9749 24.4392C93.8544 24.4648 89.8583 24.4648 89.2757 24.4648C88.9813 24.4644 88.5607 24.4534 88.191 24.3944C88.0058 24.3651 87.834 24.324 87.6927 24.2625C87.5535 24.201 87.4342 24.118 87.3869 23.982C87.3483 23.8659 87.3271 23.7385 87.3271 23.6107C87.3271 23.4547 87.3584 23.2976 87.437 23.1628L87.4675 23.1111L87.5274 23.1123L87.525 23.2141L87.6129 23.2658C87.5575 23.3594 87.5302 23.4824 87.5307 23.6107C87.5302 23.7153 87.5486 23.8228 87.5799 23.9172C87.5942 23.9649 87.6569 24.0255 87.7741 24.076C88.1235 24.2316 88.8449 24.2629 89.2757 24.2613C89.8571 24.2613 93.8561 24.2613 94.97 24.2356C95.3816 24.2275 95.5938 24.1741 95.6805 24.1167C95.7245 24.0878 95.7399 24.0646 95.7521 24.0341C95.7635 24.0036 95.768 23.9612 95.768 23.9071C95.768 23.8712 95.7664 23.8309 95.7664 23.7865C95.7664 23.7422 95.768 23.6937 95.7762 23.6428L95.8767 23.6587H95.7749V23.6424H95.9785V23.6428V23.758L95.8641 23.7438C95.4476 23.6917 94.0763 23.5309 92.6371 23.4706C91.2996 23.4148 88.6544 23.3448 87.5225 23.3159L87.525 23.2141Z" fill="black"/>
<path d="M49.2671 21.9368L49.2696 21.835C50.4023 21.8639 53.0475 21.9339 54.3878 21.9897C55.8364 22.0503 57.2122 22.212 57.6315 22.2641L57.6189 22.3651H57.5171V22.3647H57.7207V22.3813V22.3891L57.7195 22.3968C57.7138 22.4322 57.7122 22.4693 57.7122 22.508C57.7122 22.5475 57.7138 22.5882 57.7138 22.6305C57.7138 22.6928 57.7105 22.76 57.6849 22.8292C57.6466 22.9351 57.5497 23.0234 57.3999 23.0731C57.2488 23.1252 57.0363 23.1541 56.7175 23.1619C55.5966 23.1875 51.6005 23.1875 51.0183 23.1875C50.7243 23.1871 50.3033 23.1761 49.9336 23.1171C49.7488 23.0873 49.5762 23.0466 49.4349 22.9851C49.2956 22.9233 49.1768 22.8406 49.1291 22.7042C49.0908 22.5886 49.0693 22.4612 49.0693 22.3333C49.0697 22.1774 49.101 22.0198 49.1792 21.8854L49.2097 21.8333L49.2696 21.835L49.2671 21.9368L49.3551 21.9881C49.3001 22.0817 49.2728 22.2051 49.2728 22.3333C49.2728 22.4379 49.2908 22.5454 49.3225 22.6399H49.3221C49.3364 22.6875 49.3991 22.7482 49.5163 22.7983C49.8665 22.9538 50.5879 22.9856 51.0183 22.9839C51.5993 22.9839 55.5983 22.9839 56.7126 22.9583C57.1238 22.9501 57.3359 22.8968 57.4227 22.8394C57.4666 22.8109 57.4821 22.7877 57.4943 22.7571C57.5061 22.727 57.5106 22.6847 57.5102 22.6305C57.5102 22.5943 57.5086 22.5532 57.5086 22.508C57.5086 22.464 57.5102 22.416 57.5184 22.3655L57.6189 22.3813H57.5171V22.3647H57.7207V22.3651V22.4807L57.6063 22.4664C57.1902 22.4143 55.8185 22.2531 54.3793 22.1933C53.0422 22.1375 50.3966 22.0674 49.2647 22.0385L49.2671 21.9368Z" fill="black"/>
<path d="M129.161 42.5014H129.11C129.119 34.2262 135.854 27.4969 144.132 27.4965C152.414 27.4969 159.152 34.2351 159.152 42.4994H159.102L159.152 42.4981L159.264 46.9438L159.215 46.947C158.853 46.9702 158.593 46.9869 158.465 46.9951L158.412 46.9983L158.3 42.5185V42.5181C158.3 38.605 156.715 35.0633 154.15 32.499C151.586 29.9348 148.044 28.349 144.132 28.349C140.219 28.349 136.676 29.9348 134.112 32.499C131.548 35.0633 129.962 38.605 129.962 42.5181V42.5193L129.699 48.5898H128.846L129.11 42.4994L129.161 42.5014L129.212 42.5038L128.953 48.4881H129.602L129.86 42.516L129.911 42.5181H129.86C129.86 34.6362 136.25 28.2472 144.132 28.2472C152.013 28.2472 158.402 34.6362 158.402 42.5181H158.351L158.402 42.5169L158.513 46.9429L158.462 46.9442L158.459 46.8937C158.586 46.8855 158.847 46.8688 159.208 46.8452L159.211 46.8961L159.161 46.8973L159.051 42.5002V42.4994C159.051 38.3953 157.378 34.6704 154.676 31.971C151.974 29.2716 148.245 27.5982 144.132 27.5982C135.91 27.5982 129.221 34.2827 129.212 42.5018V42.5026V42.5038L129.161 42.5014Z" fill="black"/>
<path d="M52.8998 48.5898H53.752V42.5185C53.752 34.2355 47.0137 27.4973 38.7307 27.4969C31.6761 27.4973 25.7456 32.3859 24.1407 38.9531L24.1264 39.0109L24.1859 39.0158C24.4904 39.0419 24.7445 39.0635 24.9387 39.0797L24.9818 39.0834L24.9924 39.0415C26.5432 32.8976 32.1057 28.349 38.7307 28.3494C42.6438 28.3494 46.1856 29.9353 48.7498 32.4995C51.314 35.0637 52.8998 38.6054 52.8998 42.5185V48.5898ZM38.7307 27.5986C42.8441 27.5986 46.5736 29.272 49.2754 31.9734C51.9768 34.6752 53.6502 38.4051 53.6502 42.5185V48.4881H53.0016V42.5185C53.0016 34.6366 46.6123 28.2476 38.7307 28.2476C32.0731 28.2476 26.4809 32.8077 24.9045 38.9747C24.7294 38.96 24.5108 38.9413 24.2539 38.9197C25.8682 32.4258 31.7445 27.5986 38.7307 27.5986Z" fill="#D9D9D9"/>
<path d="M52.8998 48.5898H53.752V42.5185C53.752 34.2355 47.0137 27.4973 38.7307 27.4969C31.6761 27.4973 25.7456 32.3859 24.1407 38.9531L24.1264 39.0109L24.1859 39.0158C24.4904 39.0419 24.7445 39.0635 24.9387 39.0797L24.9818 39.0834L24.9924 39.0415C26.5432 32.8976 32.1057 28.349 38.7307 28.3494C42.6438 28.3494 46.1856 29.9353 48.7498 32.4995C51.314 35.0637 52.8998 38.6054 52.8998 42.5185V48.5898ZM38.7307 27.5986C42.8441 27.5986 46.5736 29.272 49.2754 31.9734C51.9768 34.6752 53.6502 38.4051 53.6502 42.5185V48.4881H53.0016V42.5185C53.0016 34.6366 46.6123 28.2476 38.7307 28.2476C32.0731 28.2476 26.4809 32.8077 24.9045 38.9747C24.7294 38.96 24.5108 38.9413 24.2539 38.9197C25.8682 32.4258 31.7445 27.5986 38.7307 27.5986Z" fill="#D9D9D9"/>
<path d="M24.2897 46.2305L24.5604 42.5206V42.5189C24.5604 41.6647 24.6402 40.8293 24.7852 40.0162L24.7949 39.9617L24.0454 39.8953L24.0356 39.9498C23.8919 40.7763 23.8121 41.6244 23.8104 42.4912C23.8117 41.6407 23.889 40.8081 24.0279 39.9959L24.6752 40.0533C24.5356 40.8537 24.459 41.6757 24.4586 42.5161L24.1956 46.1209L24.1805 46.1197C24.1626 46.1173 23.9375 46.09 23.5511 46.0428L23.5438 46.1446L23.4908 46.138C23.9232 46.191 24.1695 46.2207 24.1695 46.2207L24.1704 46.2211H24.1716L24.2897 46.2305Z" fill="#D9D9D9"/>
<path d="M24.2897 46.2305L24.5604 42.5206V42.5189C24.5604 41.6647 24.6402 40.8293 24.7852 40.0162L24.7949 39.9617L24.0454 39.8953L24.0356 39.9498C23.8919 40.7763 23.8121 41.6244 23.8104 42.4912C23.8117 41.6407 23.889 40.8081 24.0279 39.9959L24.6752 40.0533C24.5356 40.8537 24.459 41.6757 24.4586 42.5161L24.1956 46.1209L24.1805 46.1197C24.1626 46.1173 23.9375 46.09 23.5511 46.0428L23.5438 46.1446L23.4908 46.138C23.9232 46.191 24.1695 46.2207 24.1695 46.2207L24.1704 46.2211H24.1716L24.2897 46.2305Z" fill="#D9D9D9"/>
<path d="M23.5472 46.1445L23.5545 46.0427L23.8139 42.4932V42.4912C23.8155 41.6244 23.8953 40.7763 24.039 39.9498L24.0488 39.8952L23.9934 39.8904L23.9898 39.89L23.947 39.8863L23.9389 39.9323C23.7944 40.7637 23.7137 41.6171 23.7121 42.4896L23.4462 46.1319L23.4943 46.138L23.5472 46.1445Z" fill="black"/>
<path d="M112.399 18.9595L112.329 19.0328C112.316 19.021 111.69 18.407 111.691 17.0602C111.691 16.9881 111.693 16.9144 111.696 16.8383C111.733 16.1013 111.809 15.2724 112.235 14.6002C112.662 13.926 113.445 13.4333 114.824 13.3743H114.844C114.917 13.3743 115.002 13.3881 115.098 13.4097L115.561 13.5131L115.096 13.6084C114.958 13.6369 114.431 13.7578 113.925 14.0314C113.417 14.3062 112.942 14.7252 112.861 15.3416C112.794 15.8448 112.759 16.3843 112.759 16.9034C112.759 17.6859 112.839 18.4245 113 18.9151L113.042 19.0454L112.36 19.0625L112.329 19.0328L112.399 18.9595L112.397 18.8577L112.9 18.8451L112.903 18.9469L112.806 18.9782C112.635 18.4514 112.556 17.7006 112.556 16.9034C112.556 16.3753 112.591 15.8277 112.659 15.3147C112.756 14.6014 113.295 14.1401 113.828 13.8523C114.363 13.5636 114.905 13.4398 115.055 13.4093L115.076 13.509L115.053 13.608C114.966 13.5884 114.89 13.5774 114.844 13.5778H114.833C113.494 13.6397 112.798 14.097 112.407 14.7093C112.016 15.3237 111.935 16.1176 111.9 16.848C111.896 16.9209 111.895 16.9914 111.895 17.0602C111.895 17.7014 112.042 18.1599 112.188 18.4579C112.26 18.6069 112.333 18.7156 112.386 18.7865L112.45 18.8642L112.466 18.8821L112.47 18.8862L112.399 18.9595Z" fill="black"/>
<path d="M112.903 18.9456L112.806 18.9769C112.66 18.5283 112.582 17.918 112.562 17.2535L112.558 17.1493L118.541 17.1326L118.538 17.3724L118.537 17.3834L118.535 17.3935C118.534 17.3972 118.461 17.7205 118.298 18.1105C118.135 18.5006 117.885 18.9594 117.51 19.233C117.157 19.4887 116.661 19.8026 116.188 20.0579C115.711 20.3124 115.27 20.5098 114.978 20.5269L114.955 20.5273C114.713 20.5241 114.502 20.3539 114.344 20.1336C114.187 19.9109 114.08 19.6267 114.08 19.3507C114.08 19.1707 114.127 18.9912 114.244 18.8462L114.323 18.9102L114.326 19.0119L112.83 19.049L112.806 18.9769L112.903 18.9456L112.9 18.8438L114.541 18.8031L114.402 18.9741C114.321 19.0755 114.283 19.2049 114.283 19.3507C114.282 19.5726 114.375 19.8258 114.51 20.016C114.645 20.2085 114.821 20.327 114.955 20.3238L114.968 20.3234C115.181 20.3164 115.63 20.1292 116.091 19.8788C116.555 19.6284 117.046 19.3173 117.39 19.0681C117.712 18.8369 117.956 18.4057 118.111 18.0324C118.188 17.8455 118.245 17.6737 118.282 17.5491C118.32 17.4245 118.336 17.3488 118.337 17.3484L118.436 17.3712L118.334 17.3695L118.335 17.337L112.664 17.3524L112.663 17.2506L112.765 17.2474C112.785 17.8992 112.863 18.4965 113 18.9138L112.903 18.9456Z" fill="black"/>
<path d="M178.619 28.226L178.718 28.1999C178.738 28.2769 178.889 28.7039 179.085 29.3016C179.281 29.9018 179.525 30.6827 179.74 31.4937C180.172 33.1247 180.254 34.8763 180.255 34.8799L180.264 35.0664L180.102 34.9728C180.093 34.9662 179.586 34.6768 179.471 34.0571C179.369 33.4993 178.686 30.7633 178.441 29.9079C178.317 29.4686 178.051 28.9474 178.048 28.4906C178.047 28.2821 178.111 28.0769 178.281 27.9251C178.45 27.7732 178.708 27.6771 179.084 27.6372L179.549 27.5884L179.147 27.8261C179.147 27.8261 179.119 27.8424 179.076 27.8705C179.011 27.9129 178.913 27.9813 178.836 28.0513C178.797 28.0863 178.764 28.1217 178.744 28.151L178.718 28.2019H178.709L178.718 28.1999L178.718 28.2019H178.709L178.718 28.1999L178.619 28.226L178.521 28.2524L178.515 28.2019C178.517 28.1111 178.564 28.0476 178.614 27.987C178.769 27.8103 179.039 27.6543 179.043 27.6507L179.095 27.7386L179.106 27.8396C178.753 27.8766 178.538 27.9662 178.417 28.0761C178.297 28.1861 178.253 28.3184 178.252 28.4906C178.249 28.8688 178.502 29.3896 178.636 29.8517C178.884 30.7193 179.565 33.4419 179.671 34.0205V34.0209C179.718 34.2798 179.851 34.4744 179.975 34.6051C180.036 34.6703 180.095 34.7191 180.138 34.7513L180.188 34.7867L180.204 34.7969L180.153 34.8848L180.052 34.8897C180.052 34.8893 180.046 34.7822 180.032 34.5941C179.989 34.0306 179.862 32.7485 179.544 31.5458C179.33 30.7401 179.087 29.9632 178.891 29.3651C178.695 28.765 178.548 28.3538 178.521 28.2524L178.619 28.226Z" fill="black"/>
<path d="M179.009 43.0413L178.907 43.0426V43.0332C178.907 42.8891 178.943 42.5963 178.996 42.223C179.155 41.1078 179.472 39.3217 179.472 39.3209L179.674 39.3392L179.663 43.707L179.55 43.6948C179.542 43.6936 179.395 43.6781 179.238 43.591C179.081 43.5071 178.909 43.33 178.907 43.0426L179.009 43.0413L179.11 43.0397C179.115 43.2453 179.219 43.3443 179.337 43.4131C179.395 43.4461 179.456 43.4664 179.501 43.4778L179.555 43.4896L179.572 43.4925L179.561 43.5934L179.459 43.593L179.47 39.3384L179.572 39.3388L179.672 39.3567C179.672 39.3583 179.531 40.1502 179.391 41.0081C179.32 41.4372 179.25 41.8822 179.197 42.2519C179.145 42.62 179.11 42.9184 179.11 43.0332V43.0401L179.009 43.0413Z" fill="black"/>
<path d="M176.545 39.4188V39.5206C176.544 39.5206 176.179 39.5206 175.614 39.5206C173.919 39.5206 170.436 39.5206 169.683 39.5206C169.197 39.521 168.854 39.646 168.626 39.8337C168.397 40.0214 168.276 40.2742 168.245 40.5515L168.243 40.5963C168.238 40.8491 168.474 41.2795 168.968 41.6997C169.459 42.1219 170.199 42.5425 171.179 42.8197C172.262 43.1267 173.489 43.1992 174.392 43.1988C174.784 43.1988 175.115 43.1853 175.347 43.1719C175.58 43.1585 175.713 43.145 175.714 43.145L175.724 43.2464L175.629 43.2094C175.629 43.209 175.679 43.0803 175.756 42.8572C175.985 42.1895 176.444 40.6863 176.443 39.4188H176.545H176.646C176.645 41.1691 175.82 43.2774 175.819 43.2835L175.796 43.3417L175.734 43.3478C175.731 43.3478 175.184 43.4023 174.392 43.4023C173.478 43.4023 172.237 43.3303 171.124 43.0156C170.117 42.731 169.352 42.2982 168.835 41.854C168.32 41.4081 168.044 40.9587 168.039 40.5963L168.043 40.5291C168.078 40.2071 168.224 39.8993 168.497 39.6761C168.769 39.4526 169.163 39.317 169.683 39.317C170.185 39.317 171.901 39.317 173.49 39.317C174.286 39.317 175.049 39.317 175.614 39.317C176.179 39.317 176.544 39.317 176.545 39.317H176.646V39.4188H176.545Z" fill="black"/>
<path d="M173.987 28.071L174.062 28.0021C174.069 28.0111 175.768 29.8591 175.828 32.5858L175.83 32.6953L175.72 32.6892C175.718 32.6892 170.959 32.4254 169.02 32.1212C168.043 31.9677 166.539 31.5081 165.172 31.0085C164.489 30.7585 163.84 30.4988 163.31 30.2614C162.779 30.0236 162.37 29.8119 162.152 29.645C161.747 29.3331 161.466 28.8755 161.283 28.4683C161.191 28.2648 161.125 28.0734 161.08 27.9175C161.036 27.7599 161.014 27.6451 161.013 27.5689L161.021 27.5099C161.036 27.4712 161.051 27.4594 161.068 27.4415C161.127 27.3829 161.236 27.3088 161.392 27.2164C161.856 26.9448 162.691 26.5543 163.354 26.5515L163.388 26.5519C164.295 26.5722 171.704 27.3825 174.013 27.9724L174.042 27.9798L174.062 28.0021L173.987 28.071L173.962 28.1695C171.697 27.5881 164.253 26.773 163.384 26.7555H163.384L163.354 26.7551C162.939 26.7538 162.396 26.9423 161.96 27.148C161.742 27.2501 161.55 27.356 161.412 27.4423C161.343 27.4851 161.288 27.5233 161.251 27.5518L161.211 27.5856L161.206 27.5909L161.16 27.5559L161.214 27.5742L161.206 27.5909L161.16 27.5559L161.214 27.5742L161.169 27.5592L161.217 27.5641L161.214 27.5742L161.169 27.5592L161.217 27.5641L161.217 27.5689C161.216 27.6023 161.235 27.7171 161.276 27.8621C161.4 28.3022 161.728 29.0652 162.276 29.4833C162.464 29.6283 162.87 29.842 163.393 30.0757C164.965 30.7797 167.625 31.6974 169.052 31.9201C170.009 32.0703 171.681 32.2124 173.111 32.3163C173.826 32.368 174.482 32.4107 174.958 32.44C175.434 32.4698 175.731 32.486 175.732 32.486L175.726 32.5878L175.624 32.5899C175.596 31.2691 175.168 30.1551 174.746 29.3714C174.535 28.9797 174.326 28.6707 174.169 28.4602C174.091 28.3547 174.027 28.2741 173.982 28.22C173.937 28.1662 173.913 28.1398 173.913 28.1398L173.987 28.071Z" fill="black"/>
<path d="M1.21236 36.5097L1.11098 36.5215L0.447739 30.8207L0.551163 30.8109C0.551559 30.8109 0.751877 30.7914 0.968475 30.7657C1.07678 30.7527 1.18915 30.738 1.28076 30.7238C1.37114 30.7103 1.44891 30.6932 1.46031 30.6875L1.48636 30.7531L1.43141 30.7075L1.46031 30.6875L1.48636 30.7531L1.43141 30.7075L1.45543 30.7274L1.42897 30.7108L1.43141 30.7075L1.45543 30.7274L1.42897 30.7108C1.43019 30.7112 1.44525 30.6721 1.45461 30.6183C1.49329 30.4249 1.51894 30.0304 1.5336 29.6909C1.54825 29.3505 1.55273 29.0626 1.55273 29.0618L1.55313 29.017L3.21632 27.5358L3.16463 26.6299L4.33963 25.3767L4.51796 19.1584L3.6255 19.0794L3.63609 18.9768C3.63609 18.9764 3.64464 18.8954 3.65277 18.7517C3.66133 18.6084 3.66989 18.4036 3.66989 18.1605C3.67111 17.3784 3.57828 16.196 3.12756 15.3915L3.0551 15.2616L3.20248 15.2413C3.20494 15.2409 10.7326 14.199 19.1496 14.0426L19.1512 14.1444L19.1093 14.0516C19.1113 14.0508 30.9804 8.66219 35.8861 7.01773C40.78 5.37815 47.2923 3.05906 53.2915 1.88485C58.0885 0.946381 64.0952 0.000988007 74.3125 0.000988007C76.8592 0.000988007 79.6673 0.0596123 82.784 0.191528C98.4082 0.853138 105.31 3.59323 108.667 4.96327C110.352 5.65094 116.502 8.67074 122.238 11.5224C127.973 14.3732 133.288 17.0531 133.288 17.0531L133.242 17.1439L133.257 17.0433L135.624 17.3938L138.544 16.9513L138.566 16.9586C138.567 16.9586 138.668 16.9908 138.865 17.0425C139.455 17.1984 140.888 17.5282 142.865 17.6597C145.523 17.8376 157.297 19.4691 166.174 21.765C175.058 24.0633 179.154 27.6523 179.163 27.6608L179.269 27.7532L179.148 27.8249C179.148 27.8249 179.12 27.8412 179.077 27.8693C179.012 27.9116 178.914 27.98 178.837 28.0501C178.799 28.0851 178.765 28.1205 178.745 28.1498L178.719 28.2007H178.71L178.719 28.1987L178.719 28.2007H178.71L178.719 28.1987C178.739 28.2756 178.89 28.7027 179.086 29.3004C179.282 29.9005 179.526 30.6814 179.742 31.4925C180.173 33.1235 180.256 34.875 180.256 34.8787L180.154 34.8836L180.201 34.7932L180.651 35.0249L180.502 39.3821L179.673 39.4057L179.663 43.592L179.561 43.5916L179.61 43.5024C179.611 43.5033 179.991 43.7121 180.374 43.9731C180.565 44.1038 180.757 44.2471 180.906 44.3872C180.98 44.4576 181.044 44.5272 181.091 44.5973C181.138 44.6673 181.173 44.7389 181.174 44.8216L181.172 44.855C181.162 44.9319 181.116 45.0032 181.051 45.0541C180.936 45.1441 180.762 45.2027 180.489 45.2613C179.674 45.4339 177.955 45.572 174.571 45.8802C169.688 46.324 159.538 46.977 158.467 47.0458L158.362 47.0528L158.248 42.5192V42.518C158.248 38.6187 156.668 35.09 154.113 32.5348C151.558 29.9795 148.029 28.3998 144.13 28.3998C140.231 28.3998 136.702 29.9795 134.147 32.5348C131.591 35.09 130.012 38.6187 130.011 42.518V42.52L129.747 48.6406H52.8486V42.518C52.8486 38.6187 51.2684 35.09 48.7136 32.5348C46.1584 29.9795 42.6292 28.3998 38.7304 28.3998C34.8312 28.3998 31.3024 29.9795 28.7472 32.5348C26.192 35.09 24.6118 38.6187 24.6118 42.518V42.5216L24.337 46.2845L24.168 46.2706H24.166L24.164 46.2702C24.1619 46.2698 10.3678 44.6046 7.28494 44.0041C5.74878 43.7048 4.27654 43.4182 3.09744 43.121C2.50749 42.9723 1.99124 42.8209 1.57472 42.6629C1.15822 42.5041 0.841858 42.3417 0.646835 42.1548L0.59024 42.1007L1.1749 41.0433L1.26405 41.0926L1.16472 41.1145C1.16431 41.1129 1.02141 40.4704 0.858963 39.7816C0.777939 39.4367 0.69162 39.0808 0.616302 38.7893C0.541794 38.499 0.474609 38.2666 0.441635 38.1904C0.420868 38.142 0.41394 38.0907 0.41394 38.0377C0.414764 37.8977 0.462799 37.7381 0.529984 37.5667C0.73233 37.0573 1.12564 36.4572 1.12686 36.4539L1.21236 36.5097L1.29745 36.5655C1.29745 36.5655 1.2551 36.6307 1.19037 36.7365C1.09346 36.8957 0.947723 37.1453 0.827606 37.3957C0.707092 37.644 0.615067 37.9001 0.617508 38.0377L0.62851 38.1102C0.673706 38.2165 0.736816 38.4429 0.813354 38.7384C1.04135 39.6203 1.36299 41.0698 1.3634 41.0702L1.37155 41.108L0.806442 42.1308L0.71727 42.0815L0.787704 42.0082C0.944046 42.1597 1.24289 42.3197 1.64719 42.4728C2.86252 42.9345 5.02039 43.3559 7.32361 43.8041C8.85243 44.1022 13.0725 44.6693 16.9054 45.1603C18.8222 45.4059 20.643 45.633 21.9845 45.7987C23.326 45.964 24.1864 46.0679 24.1884 46.0683L24.1762 46.1693L24.1843 46.0679L24.2511 46.0732L24.243 46.1745L24.1416 46.1672L24.4086 42.5106L24.51 42.518H24.4082C24.4082 34.608 30.8204 28.1962 38.7304 28.1962C46.64 28.1962 53.0522 34.608 53.0522 42.518V48.4371H129.552L129.808 42.5135L129.909 42.518H129.808C129.808 34.608 136.22 28.1962 144.13 28.1962C152.04 28.1962 158.452 34.608 158.452 42.518H158.35L158.452 42.5155L158.562 46.9416L158.461 46.9441L158.454 46.8427C159.524 46.7743 169.675 46.1208 174.553 45.6774C177.13 45.4429 178.745 45.3061 179.717 45.1799C180.202 45.1168 180.528 45.0557 180.725 44.9902C180.823 44.9576 180.888 44.9238 180.924 44.8949L180.97 44.8277L180.97 44.8216C180.971 44.8045 180.958 44.7634 180.923 44.7117C180.8 44.526 180.441 44.2561 180.12 44.0484C179.959 43.9434 179.807 43.8514 179.695 43.7854C179.583 43.7199 179.512 43.6808 179.512 43.6808L179.459 43.6519L179.47 39.2079L180.305 39.1839L180.443 35.1466L180.108 34.974L180.055 34.9471L180.053 34.8885C180.053 34.8881 180.048 34.781 180.033 34.5929C179.99 34.0294 179.863 32.7473 179.545 31.5446C179.331 30.7388 179.088 29.962 178.892 29.3639C178.696 28.7638 178.549 28.3526 178.522 28.2512L178.516 28.2007C178.518 28.1099 178.565 28.0464 178.615 27.9857C178.77 27.809 179.04 27.6531 179.044 27.6494L179.096 27.7374L179.029 27.8139C179.029 27.8135 178.968 27.7598 178.84 27.6588C177.947 26.9495 173.866 23.9652 166.123 21.962C157.268 19.6706 145.486 18.0379 142.851 17.8629C140.194 17.6858 138.511 17.1544 138.505 17.1524L138.536 17.0555L138.551 17.1561L135.625 17.5999L133.211 17.2424L133.196 17.2351C133.195 17.2342 132.864 17.0673 132.277 16.7717C130.219 15.7363 125.029 13.1298 119.987 10.6328C114.946 8.13575 110.048 5.74622 108.59 5.15138C105.242 3.78662 98.3817 1.05753 82.7754 0.3951C79.6616 0.263184 76.8559 0.204559 74.3125 0.204559C64.107 0.204559 58.1207 1.14751 53.3306 2.08475C47.3529 3.25448 40.8467 5.57032 35.9508 7.21071C33.5108 8.02826 29.3188 9.78551 25.74 11.3375C23.9506 12.1136 22.3135 12.8387 21.1242 13.3692C20.5298 13.6347 20.0469 13.8517 19.7126 14.0023C19.3788 14.153 19.1939 14.2368 19.1935 14.2368L19.1744 14.2454L19.1532 14.2462C14.9519 14.324 10.9704 14.6232 8.03976 14.9029C6.57445 15.043 5.37218 15.1777 4.53589 15.2779C3.69962 15.3781 3.2318 15.4428 3.23058 15.4428L3.21632 15.3418L3.3055 15.2922C3.78674 16.159 3.87224 17.3621 3.87347 18.1605C3.87347 18.656 3.83885 18.9947 3.83885 18.9972L3.73747 18.987L3.74643 18.8856L4.72684 18.9727L4.54118 25.4598L3.37267 26.7057L3.42519 27.6226L1.72209 29.1396L1.65453 29.0634L1.75632 29.0651C1.75632 29.0659 1.7498 29.4832 1.72659 29.9087C1.71519 30.1216 1.69971 30.3362 1.67854 30.5043C1.66795 30.5886 1.65573 30.6607 1.64067 30.7189L1.61299 30.7987C1.59956 30.8223 1.58693 30.8528 1.53604 30.8765C1.4823 30.8968 1.41022 30.909 1.3125 30.9249C1.02505 30.9697 0.571915 31.0133 0.570694 31.0133L0.560913 30.9123L0.66188 30.9005L1.3174 36.5346L1.29745 36.5655L1.21236 36.5097Z" fill="black"/>
<path d="M51.0214 8.01363L50.9774 7.92162C60.299 3.45849 66.7645 3.14743 73.5553 2.75087C75.1016 2.66089 76.9211 2.60225 78.9162 2.60225C85.6988 2.60266 94.5106 3.27567 101.517 5.66765C110.585 8.76562 124.301 18.4602 124.305 18.4622L124.345 18.4903L124.486 20.5586L115.403 20.2231L115.77 20.0448C116.317 19.7797 116.966 19.3771 117.393 19.0689C117.715 18.8376 117.958 18.4064 118.113 18.0331C118.191 17.8462 118.247 17.6744 118.285 17.5498C118.322 17.4252 118.338 17.3495 118.339 17.3491L118.438 17.3719L118.336 17.3702L118.36 15.8793L118.462 15.8809L118.369 15.9237C118.079 15.2926 117.338 14.6949 116.595 14.2666C116.225 14.052 115.854 13.8781 115.541 13.7589C115.23 13.6392 114.971 13.5756 114.85 13.5769L114.835 13.5773C113.497 13.6392 112.801 14.0964 112.41 14.7087C112.018 15.3231 111.937 16.117 111.902 16.8475C111.899 16.9203 111.897 16.9908 111.897 17.0596C111.897 17.7008 112.044 18.1593 112.19 18.4573C112.263 18.6063 112.335 18.715 112.388 18.7859L112.452 18.8637L112.469 18.8816L112.473 18.8856L112.402 18.9589L112.399 18.8571L114.543 18.8038L114.405 18.9748C114.323 19.0762 114.286 19.2052 114.285 19.351C114.284 19.5766 114.38 19.8347 114.519 20.0256L114.641 20.195L43.2042 17.553L43.1749 17.5127C42.8789 17.1011 42.6228 16.5112 42.6228 15.7754C42.6224 14.8366 43.0405 13.6701 44.2913 12.3444C45.5424 11.0175 47.6266 9.52577 50.9774 7.92162L51.0214 8.01363L51.0654 8.10565C47.7292 9.70206 45.665 11.1837 44.4395 12.4837C43.2136 13.7849 42.8268 14.8989 42.8264 15.7754C42.8264 16.4631 43.065 17.0107 43.3402 17.3939L43.2575 17.4533L43.2616 17.3515L114.44 19.9837L114.437 20.0855L114.354 20.1449C114.192 19.9206 114.083 19.6315 114.082 19.351C114.082 19.171 114.129 18.9915 114.247 18.847L114.326 18.9109L114.328 19.0127L112.362 19.0619L112.331 19.0322C112.318 19.0204 111.693 18.4064 111.693 17.0596C111.693 16.9875 111.695 16.9138 111.699 16.8377C111.736 16.1008 111.811 15.2718 112.238 14.5996C112.664 13.9254 113.447 13.4327 114.826 13.3737L114.85 13.3733C115.025 13.3749 115.289 13.4454 115.614 13.5687C116.099 13.754 116.71 14.0614 117.262 14.4514C117.814 14.8415 118.309 15.3117 118.554 15.8377L118.564 15.8589L118.54 17.3841L118.537 17.3943C118.536 17.3979 118.463 17.7212 118.301 18.1112C118.137 18.5013 117.887 18.9601 117.512 19.2337C117.075 19.5501 116.42 19.9552 115.859 20.228L115.815 20.1364L115.819 20.0346L124.268 20.3469L124.145 18.5526L124.246 18.5457L124.187 18.6287C124.187 18.6283 123.974 18.4777 123.581 18.2065C120.836 16.3108 109.34 8.55269 101.451 5.86023C94.4826 3.48047 85.685 2.80542 78.9162 2.80583C76.9252 2.80583 75.1093 2.86406 73.5675 2.95444C66.773 3.35181 60.3577 3.6584 51.0654 8.10565L51.0214 8.01363Z" fill="black"/>
<path d="M19.4348 14.0177L19.3929 13.9248C21.2205 13.0996 31.4281 8.51388 35.8867 7.01884C39.4118 5.83771 43.7776 4.30603 48.185 3.1017L48.2184 3.09274L51.4434 4.40497L51.186 4.49292C51.1852 4.49333 50.9019 4.59022 50.4002 4.76204C46.8898 5.96474 32.7069 10.8293 30.5894 11.6379C29.4111 12.0874 27.0806 12.7059 24.8254 13.2148C22.5686 13.7229 20.4018 14.1199 19.5276 14.1211L19.4303 14.1191L19.0016 14.1011L19.3929 13.9248L19.4348 14.0177L19.4389 13.9159L19.5276 13.9175C20.3554 13.9187 22.534 13.5234 24.7806 13.0161C27.0289 12.5092 29.3602 11.8895 30.5169 11.4474C32.9488 10.5191 51.1189 4.30075 51.1201 4.30034L51.1531 4.39642L51.1148 4.49088L48.1736 3.29427L48.2118 3.20023L48.2387 3.29835C43.8403 4.49984 39.4786 6.02988 35.9515 7.21183C31.5144 8.69872 21.3003 13.2864 19.4763 14.1101L19.4348 14.0177Z" fill="black"/>
<path d="M127.11 18.2926L127.051 18.3753C121.323 14.3001 115.108 10.9607 110.326 8.64123C107.934 7.48127 105.901 6.57618 104.466 5.96139C103.748 5.654 103.18 5.41867 102.792 5.26111C102.403 5.10273 102.195 5.02212 102.194 5.02171L101.923 4.91666L105.547 3.78439L105.579 3.79538C106.856 4.23184 107.864 4.63776 108.666 4.96511C110.351 5.65278 116.501 8.67258 122.237 11.5242C127.972 14.3751 133.287 17.0549 133.287 17.0549L133.241 17.1457L133.256 17.0451L136.17 17.4767L135.646 17.598C132.16 18.4042 130.035 18.6094 128.771 18.6094C127.473 18.6094 127.082 18.3932 127.06 18.3806L127.055 18.3781L127.051 18.3753L127.11 18.2926L127.161 18.2043L127.161 18.2047C127.187 18.2177 127.575 18.4062 128.771 18.4058C130.013 18.4058 132.124 18.2035 135.6 17.3993L135.623 17.4987L135.608 17.5992L133.21 17.2442L133.195 17.2369C133.195 17.2361 132.863 17.0691 132.276 16.7736C130.218 15.7382 125.028 13.1316 119.986 10.6346C114.945 8.13759 110.047 5.74806 108.589 5.15322C107.789 4.82668 106.785 4.42279 105.513 3.98796L105.546 3.89147L105.576 3.98878L102.262 5.02414L102.231 4.92684L102.268 4.83197C102.272 4.83401 115.686 10.0402 127.169 18.2096L127.11 18.2926Z" fill="black"/>
<path d="M126.377 17.1239L126.32 17.2081C120.844 13.5365 115.135 10.5472 110.796 8.47608C108.626 7.44071 106.799 6.63456 105.515 6.08777C104.872 5.81417 104.366 5.6053 104.02 5.46524C103.673 5.32477 103.489 5.25353 103.489 5.25312L103.217 5.14766L106.505 4.12084L106.537 4.13265C107.376 4.44005 108.08 4.72383 108.67 4.96486C110.145 5.56662 115.034 7.9529 120.077 10.4503C125.119 12.9474 130.309 15.5539 132.369 16.5901L132.611 16.7122L132.348 16.7794C131.298 17.0481 129.815 17.3987 128.822 17.5049C128.549 17.5347 128.299 17.5469 128.072 17.5469C126.902 17.5469 126.338 17.2195 126.325 17.2114L126.322 17.2098L126.32 17.2081L126.377 17.1239L126.428 17.0363L126.432 17.0384C126.483 17.066 127.011 17.3429 128.072 17.3433C128.292 17.3433 128.535 17.3311 128.801 17.3026C129.77 17.1992 131.253 16.8498 132.297 16.5823L132.323 16.6809L132.277 16.7717C130.218 15.7359 125.028 13.1293 119.987 10.6327C114.947 8.13652 110.051 5.7478 108.593 5.15296C108.003 4.91234 107.303 4.62978 106.467 4.3236L106.502 4.22834L106.532 4.32523L103.556 5.25516L103.526 5.15825L103.562 5.06339C103.566 5.06502 115.459 9.68083 126.433 17.0392L126.377 17.1239Z" fill="black"/>
<path d="M47.5508 13.3505L47.4685 13.2906C47.6916 12.9861 48.1985 12.5635 48.8614 12.0717C50.8466 10.6019 54.2076 8.56898 55.0235 8.07959L55.1583 7.99898L56.2637 17.2852L48.9065 17.0132H48.9049C48.2038 16.9655 47.7075 16.6997 47.3948 16.3166C47.0821 15.9338 46.9539 15.444 46.9539 14.9555C46.9543 14.3415 47.1538 13.7247 47.4685 13.2906L47.5508 13.3505L47.633 13.4103C47.3476 13.802 47.1566 14.3863 47.1574 14.9555C47.1574 15.4098 47.2771 15.8512 47.5524 16.1875C47.8284 16.5234 48.2604 16.7636 48.9192 16.81L48.9118 16.9114L48.9159 16.81L56.0332 17.0726L54.9746 8.17893L55.0756 8.16713L55.1281 8.25426C54.5858 8.57916 52.9116 9.59132 51.2712 10.6625C50.4509 11.1979 49.6394 11.7488 48.9827 12.2353C48.3268 12.7198 47.8223 13.1477 47.633 13.4103L47.5508 13.3505Z" fill="black"/>
<path d="M73.2629 3.62074L73.2572 3.51895L73.598 3.499C75.0633 3.41309 76.619 3.36709 78.2264 3.35609L78.3156 3.35569L80.377 18.1758L57.2039 17.3191L55.8525 6.65356L55.9283 6.62547C62.6075 4.14148 67.8181 3.83571 73.2572 3.51895L73.2629 3.62074L73.269 3.72212C67.8287 4.03928 62.6507 4.34301 55.9991 6.81642L55.9637 6.72075L56.0647 6.70812L57.3842 17.1221L80.1416 17.9637L78.1263 3.47213L78.2272 3.45788L78.228 3.55966C76.6235 3.57066 75.071 3.61667 73.6098 3.70217L73.269 3.72212L73.2629 3.62074Z" fill="black"/>
<path d="M101.242 6.47352L101.275 6.37702C105.27 7.74218 110.221 10.435 114.472 12.9915L114.529 13.0257L114.457 13.6067L114.379 13.6169C113.262 13.7635 112.678 14.2276 112.343 14.8224C112.009 15.4185 111.936 16.1615 111.903 16.8472C111.899 16.9201 111.898 16.9905 111.898 17.0593C111.898 17.7006 112.045 18.159 112.191 18.457C112.263 18.606 112.336 18.7147 112.389 18.7856L112.452 18.8634L112.469 18.8813L112.473 18.8854L112.402 18.9586L112.4 18.8568L113.802 18.8218L113.728 19.4102L85.0707 18.3504L81.4504 3.3845L81.5831 3.38817C86.9061 3.52945 94.762 4.154 101.275 6.37702L101.242 6.47352L101.209 6.57C94.7318 4.35798 86.8898 3.7322 81.5778 3.59174L81.5802 3.48995L81.6792 3.46593L85.2323 18.1529L113.55 19.1997L113.57 19.0315L112.362 19.0616L112.332 19.0319C112.318 19.0201 111.693 18.4061 111.694 17.0593C111.694 16.9872 111.696 16.9135 111.699 16.8374C111.734 16.1449 111.803 15.3721 112.165 14.7231C112.526 14.0729 113.19 13.5627 114.353 13.4149L114.366 13.5159L114.265 13.5033L114.319 13.066L114.42 13.0786L114.368 13.1662C110.122 10.613 105.177 7.92458 101.209 6.57L101.242 6.47352Z" fill="black"/>
<path d="M112.214 18.7164L112.224 18.615L114.318 18.8105L114.311 19.0136L112.358 19.0625L112.328 19.0324C112.323 19.0279 112.236 18.9416 112.128 18.7706L112.018 18.5959L112.224 18.615L112.214 18.7164L112.301 18.6623C112.349 18.7396 112.393 18.797 112.424 18.8345L112.459 18.8756L112.47 18.8866L112.399 18.9595L112.396 18.8577L112.585 18.8532L112.205 18.8178L112.214 18.7164Z" fill="black"/>
<path d="M114.436 20.0867L114.353 20.1461C114.192 19.9218 114.082 19.6327 114.081 19.3526C114.081 19.173 114.128 18.9943 114.245 18.8498L114.279 18.807L117.667 19.1238L117.443 19.2826C117.008 19.5912 116.393 19.9694 115.858 20.2292L115.814 20.1376L115.818 20.0358L124.453 20.355L125.135 22.6578L125.135 22.6712C125.135 22.6716 125.287 28.8126 125.287 32.6129C125.287 33.4529 125.28 34.1788 125.261 34.6999C125.161 37.5667 124.987 41.2676 124.987 41.268L124.987 41.2762L124.784 42.2378L124.233 43.9336L59.9574 43.3485L59.9272 43.316C59.9264 43.3151 59.4794 42.8286 58.9961 42.3058C58.5132 41.7839 57.9921 41.2236 57.8536 41.0852C57.8264 41.0571 57.7934 41.0144 57.7421 40.9464C56.9933 39.9407 52.9048 33.8067 52.1161 32.4627C51.7033 31.7587 49.6028 28.423 47.5488 25.0644C46.5216 23.3846 45.5057 21.6982 44.7163 20.3297C44.3217 19.6453 43.9838 19.0403 43.7289 18.5546C43.4745 18.0676 43.3035 17.7049 43.2396 17.4858L43.2001 17.3507L114.44 19.9849L114.436 20.0867L114.432 20.1885L43.3332 17.5591L43.3373 17.4573L43.435 17.4288C43.4883 17.6153 43.6573 17.9793 43.9093 18.4601C45.68 21.8386 51.5624 31.1171 52.292 32.3597C52.7061 33.0661 54.0664 35.1474 55.3562 37.083C56.0011 38.0512 56.6289 38.9839 57.113 39.692C57.3553 40.0458 57.5613 40.3438 57.7152 40.5616C57.7926 40.6703 57.8565 40.7591 57.9053 40.8246C57.953 40.889 57.9892 40.9337 57.9978 40.9415C58.2872 41.231 60.0762 43.1771 60.0771 43.1783L60.0021 43.2471L60.003 43.1454L124.085 43.7288L124.587 42.1853L124.786 41.2424L124.886 41.2631L124.784 41.2582C124.784 41.2562 124.827 40.3332 124.883 39.0499C124.939 37.7666 125.008 36.1254 125.058 34.6926C125.076 34.1759 125.084 33.4516 125.084 32.6129C125.084 30.7152 125.046 28.2304 125.008 26.2207C124.989 25.2159 124.97 24.3299 124.955 23.6948C124.941 23.0596 124.932 22.6769 124.932 22.6761L125.033 22.6737L124.936 22.7026L124.299 20.5529L115.402 20.2243L115.769 20.046C116.289 19.7935 116.9 19.4181 117.325 19.1164L117.384 19.1995L117.375 19.3009L114.315 19.0147L114.324 18.9137L114.403 18.9772C114.322 19.0782 114.285 19.2072 114.285 19.3526C114.284 19.5781 114.379 19.8359 114.518 20.0268L114.64 20.1962L114.432 20.1885L114.436 20.0867Z" fill="black"/>
<path d="M83.6626 21.0159L83.764 21.0053L84.8898 31.9844L84.9785 43.5742L59.9529 43.3466L59.9228 43.3141C59.922 43.3132 59.4749 42.8267 58.9916 42.3039C58.5088 41.782 57.9876 41.2217 57.8492 41.0833C57.8219 41.0552 57.7889 41.0125 57.7376 40.9445C56.9889 39.9388 52.9003 33.8048 52.1117 32.4608C51.6989 31.7568 49.5984 28.4211 47.5443 25.0625C46.5171 23.3827 45.5013 21.6963 44.7118 20.3278C44.3173 19.6434 43.9794 19.0384 43.7245 18.5527C43.47 18.0657 43.299 17.703 43.2351 17.4839L43.1956 17.3487L83.0951 18.8238L83.7628 20.9956L83.764 21.0053L83.6626 21.0159L83.5653 21.0456L82.9432 19.0221L43.3288 17.5572L43.3328 17.4554L43.4305 17.4269C43.4839 17.6134 43.6528 17.9774 43.9049 18.4582C45.6755 21.8367 51.558 31.1152 52.2876 32.3578C52.7016 33.0642 54.0619 35.1455 55.3518 37.0811C55.9967 38.0493 56.6245 38.982 57.1086 39.6901C57.3508 40.0439 57.5569 40.3419 57.7108 40.5597C57.7881 40.6684 57.852 40.7572 57.9009 40.8227C57.9485 40.8871 57.9848 40.9318 57.9933 40.9396C58.2828 41.2291 60.0718 43.1752 60.0726 43.1764L59.9977 43.2452L59.9985 43.1435L84.7733 43.3686L84.6862 31.9954L83.5616 21.0261L83.6626 21.0159Z" fill="black"/>
<path d="M49.2236 22.6697L49.2721 22.6535C49.2945 22.7235 49.3714 22.7894 49.494 22.8428C49.8616 23.0044 50.5827 23.0333 51.0163 23.0325C51.0957 23.0325 51.2419 23.0325 51.4348 23.0325H51.4764L51.4849 23.0732C51.5427 23.3835 51.9812 23.7523 52.5073 23.9864C52.8069 24.1224 53.4266 24.201 54.0585 24.2006C54.6582 24.2006 55.2738 24.1306 55.646 23.9856C56.0502 23.8285 56.2628 23.4637 56.3646 23.0508L56.3739 23.0126L56.4134 23.0122C56.527 23.0105 56.6288 23.0089 56.7119 23.0069C57.1263 22.9979 57.3446 22.9466 57.448 22.8802C57.5481 22.8143 57.5571 22.743 57.5591 22.6282C57.5591 22.5904 57.5575 22.5492 57.5575 22.5057C57.5575 22.4629 57.5591 22.4177 57.5665 22.3709L57.5685 22.3473C57.5681 22.296 57.5416 22.2561 57.4793 22.2154C57.292 22.0932 56.8222 22.0643 56.4684 22.0627L56.4236 22.0623L56.4183 22.0179C56.3845 21.7158 56.1252 21.4756 55.8019 21.3103C55.4806 21.1454 55.1016 21.0583 54.8585 21.0509H54.8561L54.8532 21.0505C54.8532 21.0505 54.7877 21.042 54.6692 21.0326C54.5511 21.0237 54.3814 21.0147 54.1766 21.0147C53.7886 21.0147 53.2739 21.0473 52.743 21.1727C52.3236 21.272 52.0533 21.5037 51.8689 21.774L51.853 21.7976L51.8245 21.7964C51.011 21.7557 50.2965 21.7272 49.9052 21.7272C49.7566 21.7272 49.6519 21.7321 49.6173 21.7398C49.3319 21.7989 49.2216 22.0493 49.2196 22.3281C49.2196 22.4397 49.2387 22.5533 49.2721 22.6535L49.2236 22.6697L49.1756 22.6856C49.1385 22.5745 49.1178 22.4511 49.1178 22.3281C49.1153 22.0269 49.2497 21.7117 49.5966 21.6401C49.6511 21.6291 49.7533 21.6258 49.9052 21.6254C50.3005 21.6254 51.0151 21.6543 51.8294 21.6946L51.8269 21.7455L51.785 21.717C51.9792 21.43 52.274 21.1784 52.7198 21.0733C53.2613 20.9455 53.7829 20.9129 54.1766 20.9129C54.5923 20.9129 54.8654 20.9496 54.8671 20.95L54.8602 21L54.8618 20.9491C55.124 20.9577 55.5108 21.0473 55.8483 21.2199C56.1842 21.3921 56.4765 21.6498 56.5193 22.0061L56.4688 22.0118L56.4692 21.9609C56.709 21.9633 56.9985 21.9739 57.233 22.022C57.3503 22.0464 57.4545 22.0794 57.5339 22.1295C57.6129 22.1783 57.6707 22.2528 57.6703 22.3473L57.667 22.3868C57.6609 22.4259 57.6593 22.4658 57.6593 22.5057C57.6593 22.5464 57.6609 22.5875 57.6609 22.6282C57.6629 22.7463 57.6418 22.8798 57.5025 22.9662C57.3661 23.0512 57.1361 23.0985 56.7143 23.1087C56.6304 23.1103 56.5286 23.1123 56.4146 23.1139L56.4138 23.063L56.4635 23.0753C56.3584 23.5044 56.1288 23.9071 55.683 24.0805C55.2872 24.2336 54.6668 24.302 54.0585 24.3024C53.4168 24.3016 52.7951 24.2267 52.4657 24.0793C51.9263 23.8342 51.4646 23.4698 51.3848 23.0932L51.4348 23.0834V23.1343C51.2419 23.1343 51.0957 23.1343 51.0163 23.1343C50.7236 23.1339 50.3046 23.1229 49.9398 23.0647C49.757 23.0354 49.5884 22.9947 49.4533 22.936C49.3197 22.8774 49.2147 22.8 49.1756 22.686L49.2236 22.6697ZM64.7163 45.1804L64.7176 45.1299C69.9245 45.2525 113.419 45.2769 116.735 45.2769C117.415 45.2769 118.104 45.2863 118.775 45.2863C120.079 45.2863 121.314 45.2508 122.272 45.0465C123.231 44.8413 123.901 44.4699 124.107 43.814L124.155 43.8291L124.155 43.88L84.8403 43.4871L59.9979 43.2961L59.9983 43.2452L60.0476 43.2587L60.0427 43.2851L60.037 43.3682C60.0382 43.5583 60.1127 43.9634 60.7345 44.3458C61.3566 44.7277 62.5312 45.0786 64.7176 45.1299L64.7163 45.1804L64.7151 45.2313C62.519 45.1796 61.3285 44.829 60.6811 44.4329C60.0329 44.0371 59.9336 43.5877 59.9352 43.3682C59.9352 43.2856 59.9483 43.2355 59.9495 43.2318L59.9596 43.1939L84.8411 43.3853L124.224 43.779L124.204 43.8446C123.978 44.5563 123.263 44.939 122.293 45.1458C121.32 45.3535 120.081 45.3881 118.775 45.3881C118.103 45.3881 117.414 45.3787 116.735 45.3787C113.418 45.3787 69.9262 45.3543 64.7151 45.2313L64.7163 45.1804ZM94.723 23.2915L94.6725 23.2976C94.6387 22.9955 94.3797 22.7552 94.0565 22.5904C93.7352 22.4251 93.3558 22.3379 93.1127 22.331H93.1102L93.1074 22.3306C93.1074 22.3306 93.0414 22.3216 92.9234 22.3127C92.8049 22.3037 92.6351 22.2948 92.4303 22.2948C92.0423 22.2944 91.5281 22.3269 90.9972 22.4523C90.5778 22.5517 90.3079 22.7833 90.1234 23.0537L90.1076 23.0773L90.0791 23.0761C89.2652 23.0358 88.5502 23.0069 88.159 23.0069C88.0107 23.0069 87.9061 23.0117 87.8715 23.0195C87.5861 23.0785 87.4762 23.3289 87.4737 23.6074C87.4737 23.7194 87.4933 23.833 87.5266 23.9335C87.549 24.0031 87.6256 24.0695 87.7486 24.1224C88.1154 24.2845 88.8364 24.313 89.2705 24.3122C89.3499 24.3122 89.4964 24.3122 89.6886 24.3122H89.7301L89.7387 24.3529C89.7965 24.6631 90.2354 25.032 90.7614 25.2661C91.0611 25.4021 91.6808 25.4807 92.3127 25.4803C92.9124 25.4803 93.528 25.4102 93.9001 25.2653C94.3044 25.1085 94.5173 24.7437 94.6191 24.3309L94.6285 24.2926L94.668 24.2918C94.7812 24.2902 94.883 24.2886 94.966 24.2865C95.3813 24.2776 95.5995 24.2263 95.7025 24.1595C95.8027 24.0939 95.8117 24.0219 95.8137 23.9071C95.8137 23.8696 95.8121 23.8293 95.8121 23.7865C95.8121 23.7434 95.8137 23.6978 95.821 23.6506L95.8231 23.6269C95.8227 23.5756 95.7962 23.5357 95.7339 23.495C95.5462 23.3729 95.0764 23.344 94.7225 23.3424L94.6778 23.3419L94.6725 23.2976L94.723 23.2915L94.7234 23.2406C94.9632 23.243 95.2526 23.2536 95.4872 23.3016C95.6048 23.3261 95.7087 23.359 95.7885 23.4091C95.867 23.458 95.9253 23.5325 95.9249 23.6269L95.9216 23.6664C95.9155 23.7059 95.9138 23.7462 95.9138 23.7865C95.9138 23.8269 95.9155 23.8667 95.9155 23.9071C95.9175 24.0251 95.8964 24.1591 95.7571 24.2454C95.6211 24.3309 95.3907 24.3781 94.9685 24.3883C94.8846 24.3903 94.7828 24.392 94.6692 24.3936L94.6688 24.3427L94.7181 24.3549C94.613 24.7845 94.383 25.1871 93.9372 25.3602C93.5414 25.5132 92.9209 25.5817 92.3127 25.5821C91.671 25.5812 91.0493 25.5063 90.7199 25.3589C90.1804 25.1138 89.7183 24.7494 89.6385 24.3728L89.6886 24.3631V24.414C89.4964 24.414 89.3499 24.414 89.2705 24.414C88.9777 24.4135 88.5584 24.4026 88.194 24.3443C88.0112 24.315 87.8426 24.2747 87.7078 24.2161C87.5739 24.157 87.4688 24.0797 87.4302 23.9657C87.3931 23.8545 87.3724 23.7308 87.3719 23.6074C87.3699 23.3061 87.5039 22.9914 87.8508 22.9197C87.9053 22.9087 88.0071 22.9055 88.159 22.9051C88.5547 22.9051 89.2692 22.934 90.0839 22.9743L90.0815 23.0252L90.0396 22.9967C90.2338 22.7101 90.5281 22.458 90.974 22.3534C91.5151 22.2255 92.0366 22.193 92.4303 22.193C92.8464 22.193 93.1196 22.2292 93.1212 22.2296L93.1143 22.2801L93.116 22.2292C93.3782 22.2374 93.7653 22.3269 94.1029 22.4996C94.4388 22.6718 94.7311 22.9299 94.7734 23.2858L94.723 23.2915ZM0.557129 30.9124L0.552246 30.8615C0.552246 30.8615 0.753372 30.842 0.970795 30.8163C1.18576 30.7911 1.42639 30.7556 1.47525 30.7349L1.48256 30.7532L1.46709 30.7402L1.47525 30.7349L1.48256 30.7532L1.46709 30.7402C1.47035 30.7381 1.48663 30.6999 1.49722 30.6465C1.53835 30.4564 1.5648 30.057 1.57986 29.7097C1.59492 29.3616 1.59982 29.0636 1.59982 29.0627L1.60023 29.0403L3.26463 27.5575L3.21294 26.6492L4.38634 25.3976L4.56346 19.2322L4.6131 19.2326C4.8118 19.2338 5.01944 19.2351 5.22911 19.2363L5.28001 19.2367V19.2872V19.3027C5.28001 20.0428 5.36472 21.5668 5.4498 22.9039C5.49214 23.5728 5.53488 24.1949 5.56665 24.6497C5.5984 25.1049 5.61957 25.3919 5.61957 25.3927L5.56909 25.3964L5.5687 25.3455L16.5783 25.2743L16.5787 25.3251L16.5347 25.3508C16.5343 25.35 16.3438 25.0251 16.0498 24.5275C15.6081 23.7812 14.9334 22.6494 14.3203 21.6551C13.7083 20.6625 13.1505 19.8002 12.9628 19.6141C12.8912 19.5421 12.7919 19.4631 12.675 19.38L12.5439 19.2864L12.7051 19.2876C20.2218 19.343 29.1159 19.424 32.8682 19.514C39.9285 19.6837 55.5788 19.9215 62.8435 20.1251C70.1094 20.3291 100.864 21.5171 108.638 21.8905C116.411 22.2642 130.455 22.6677 139.974 23.7238C148.423 24.6607 158.5 27.036 161.146 27.6801L161.177 27.6878L161.184 27.7192C161.267 28.1133 161.603 29.0367 162.24 29.5236C162.446 29.6812 162.884 29.9084 163.447 30.1567L163.454 30.16L163.461 30.1657L163.427 30.2036L163.454 30.1608C165.434 31.4205 169.238 32.3675 172.543 32.9941C174.195 33.308 175.723 33.543 176.838 33.6989C177.953 33.8553 178.653 33.9326 178.655 33.933L178.666 33.9342L178.676 33.9407C178.699 33.9558 179.184 34.2852 179.2 36.2749C179.2 36.369 179.201 36.461 179.201 36.551C179.201 38.3611 179.055 39.3424 179.055 39.3444L179.049 39.3863L176.544 39.4686L176.543 39.4177H176.593C176.593 41.1529 175.77 43.2607 175.769 43.2636L175.722 43.2452V43.1944H179.609L179.608 43.5917H179.557L179.582 43.5474C179.582 43.5474 179.778 43.6552 180.028 43.8108L180.117 43.8665L180.018 43.902C179.787 43.9838 179.532 44.0538 179.317 44.0542L179.284 44.0538C179.037 44.0453 176.59 44.0143 174.207 43.9858C171.824 43.9573 169.504 43.9309 169.504 43.9309L169.505 43.88L169.518 43.9293L166.903 44.6137L166.89 44.5644L166.891 44.5135C166.891 44.5135 167.209 44.5155 167.745 44.5184C169.353 44.5269 172.922 44.5445 175.739 44.5445C177.616 44.5445 179.162 44.5367 179.565 44.5135C180.095 44.483 180.479 44.4129 180.742 44.3433L180.768 44.3364L180.788 44.3543C180.973 44.518 181.114 44.6686 181.119 44.8221L181.117 44.8482C181.109 44.9113 181.073 44.9687 181.015 45.0143C180.813 45.1714 180.336 45.2631 179.335 45.3795C178.336 45.4943 176.818 45.6242 174.563 45.8294C170.265 46.2203 161.885 46.7732 159.21 46.947L159.157 46.9503L159.046 42.5002V42.4994C159.046 38.3953 157.372 34.6704 154.671 31.971C151.969 29.2716 148.24 27.5982 144.126 27.5982C135.905 27.5982 129.216 34.2828 129.207 42.5018V42.5026L128.943 48.5898H53.646V42.5181C53.646 38.4047 51.9727 34.6748 49.2713 31.973C46.5695 29.2716 42.84 27.5982 38.7266 27.5982C31.72 27.5982 25.8295 32.4543 24.2355 38.9771L24.2249 39.0191L24.1817 39.0154C20.0907 38.6681 6.83246 37.5456 4.56425 37.3942C3.20969 37.3034 2.26022 37.281 1.65155 37.281C1.05264 37.281 0.786758 37.303 0.785934 37.3026L0.695572 37.3099L0.736282 37.2293C0.933762 36.8376 1.16541 36.483 1.16582 36.4822L1.20854 36.5098L1.15808 36.5159L0.500534 30.8664L0.552246 30.8615L0.557129 30.9124L0.60762 30.9063L1.26106 36.5225L1.2509 36.5375C1.2509 36.5375 1.19391 36.6251 1.11208 36.7615C1.03024 36.8978 0.924377 37.0823 0.827072 37.2749L0.78186 37.2521L0.777817 37.2012C0.779037 37.2012 1.05019 37.1792 1.65155 37.1792C2.26266 37.1792 3.21458 37.202 4.57118 37.2924C6.84224 37.4442 20.0985 38.5667 24.1903 38.914L24.1858 38.9649L24.1366 38.9527C25.7415 32.3855 31.6716 27.4969 38.7266 27.4965C47.0096 27.4969 53.7474 34.2351 53.7478 42.5181V48.4881H128.845L129.105 42.4994L129.156 42.5014H129.105C129.114 34.2262 135.849 27.4969 144.126 27.4965C152.409 27.4969 159.147 34.2351 159.147 42.4994H159.096L159.147 42.4981L159.257 46.8949L159.206 46.8961L159.203 46.8452C161.878 46.6718 170.259 46.1185 174.553 45.728C177.131 45.4939 178.746 45.3571 179.72 45.2305C180.206 45.1674 180.533 45.1059 180.737 45.0383C180.839 45.0049 180.909 44.9695 180.952 44.9349C180.995 44.8999 181.011 44.8693 181.017 44.8347L181.017 44.8221C181.022 44.7419 180.903 44.5852 180.722 44.4309L180.755 44.3926L180.768 44.4419C180.498 44.5131 180.107 44.5844 179.571 44.6153C179.16 44.6385 177.618 44.6462 175.739 44.6462C171.982 44.6462 166.89 44.6153 166.89 44.6153L166.504 44.6128L169.498 43.8291H169.505C169.505 43.8291 178.786 43.9345 179.288 43.9521L179.317 43.9525C179.51 43.9529 179.759 43.8865 179.983 43.8059L180.001 43.8539L179.974 43.8971C179.726 43.7432 179.533 43.6365 179.533 43.6365L179.506 43.6219L179.507 43.2961H175.647L175.674 43.2269C175.674 43.2269 175.725 43.0962 175.802 42.8727C176.032 42.2021 176.492 40.6965 176.492 39.4177V39.3684L179.003 39.2862L179.005 39.3371L178.954 39.3297C178.954 39.3289 178.99 39.0871 179.026 38.618C179.063 38.1486 179.099 37.4532 179.099 36.551C179.099 36.4614 179.099 36.3698 179.098 36.2757C179.09 35.2884 178.966 34.7208 178.846 34.4037C178.785 34.2449 178.727 34.1488 178.685 34.0934L178.635 34.0381L178.624 34.0279L178.621 34.0263L178.629 34.0149L178.622 34.0263H178.621L178.629 34.0149L178.622 34.0263L178.649 33.9835L178.644 34.034C178.643 34.034 175.833 33.7229 172.524 33.0943C169.214 32.4653 165.407 31.5219 163.399 30.2467L163.396 30.2443L163.392 30.241L163.426 30.2032L163.406 30.25C162.839 29.9992 162.4 29.7732 162.178 29.6046C161.508 29.0876 161.173 28.1524 161.084 27.7403L161.134 27.7298L161.122 27.779C158.479 27.1353 148.403 24.7608 139.963 23.8248C130.451 22.7699 116.408 22.3656 108.633 21.9923C100.86 21.6189 70.1049 20.4304 62.8406 20.2269C55.5771 20.0233 39.9269 19.7855 32.8658 19.6157C29.1155 19.5258 20.221 19.4447 12.7043 19.3894L12.7047 19.3385L12.7344 19.2969C12.8537 19.382 12.9563 19.4635 13.0349 19.5421C13.1754 19.6829 13.462 20.1059 13.8236 20.6711C14.9058 22.3636 16.6227 25.2995 16.6227 25.2995L16.6671 25.3756L5.52185 25.4477L5.51819 25.4001C5.51819 25.3992 5.17822 20.7944 5.17822 19.3027V19.2872H5.22911L5.22873 19.3381C5.01863 19.3369 4.81139 19.3356 4.61229 19.3344L4.61272 19.2835L4.66359 19.2851L4.48689 25.4391L3.31676 26.687L3.36928 27.6011L1.68449 29.1014L1.65073 29.0636L1.70163 29.0644C1.70163 29.0644 1.69508 29.4817 1.67229 29.9059C1.66089 30.1181 1.64542 30.3322 1.62424 30.4979C1.61366 30.581 1.60185 30.6518 1.5876 30.706L1.56317 30.7764L1.51311 30.8293C1.43167 30.8607 1.20367 30.8904 0.983002 30.9173C0.764359 30.9433 0.562012 30.9629 0.562012 30.9629L0.557129 30.9124Z" fill="black"/>
<path d="M7.33736 15.871L7.39275 15.7855C7.39356 15.7863 8.80594 16.6987 9.82299 17.4581C10.3209 17.8298 10.9956 18.2068 11.6128 18.5561C12.2309 18.9075 12.7874 19.2251 13.0712 19.5068C13.1477 19.5842 13.2524 19.7238 13.3884 19.9193C14.3313 21.2799 16.6659 25.2736 16.6667 25.2748L16.7559 25.4271L5.47509 25.5L5.46775 25.4051C5.46775 25.4031 5.12779 20.8028 5.12738 19.3045C5.12779 19.1489 5.13104 19.0268 5.13959 18.9413C5.22753 18.0842 5.71205 16.0778 5.71245 16.0754L5.72874 16.0086L7.36058 15.7647L7.39275 15.7855L7.33736 15.871L7.35243 15.972L5.82645 16.2L5.81138 16.099L5.91032 16.123C5.91032 16.1243 5.78939 16.6246 5.65788 17.2313C5.52638 17.8375 5.38387 18.5508 5.34235 18.9621C5.33502 19.0337 5.33095 19.1526 5.33095 19.3045C5.33095 20.0426 5.41606 21.5666 5.50115 22.9028C5.54349 23.5709 5.58582 24.1931 5.61798 24.6478C5.64974 25.1026 5.67093 25.3893 5.67093 25.3901L5.56954 25.3974L5.56872 25.2956L16.5783 25.2244L16.5792 25.3261L16.4912 25.3779C16.4908 25.377 16.3007 25.0517 16.0063 24.5542C15.565 23.8083 14.8903 22.6764 14.2772 21.6826C13.9706 21.1859 13.6795 20.7234 13.4409 20.3614C13.2035 20.0007 13.0126 19.7348 12.9275 19.6509C12.6836 19.405 12.1278 19.0809 11.5122 18.7332C10.8958 18.3839 10.2163 18.0053 9.70125 17.6213C9.1972 17.2447 8.59218 16.8282 8.11338 16.5062C7.63458 16.1841 7.28323 15.9573 7.28241 15.9565L7.33736 15.871Z" fill="black"/>
<path d="M4.62129 19.0658L4.61681 19.1163L3.68038 19.0332L3.68525 18.9819C3.68566 18.9811 3.71946 18.6489 3.71946 18.1607C3.72028 17.3741 3.62908 16.1869 3.17063 15.3669L3.11851 15.2736L3.22395 15.292C3.22762 15.2936 4.77966 15.5639 5.7674 16.3957L5.79102 16.4157L5.7841 16.4462C5.64322 17.0533 5.35658 18.3341 5.29348 18.9559C5.28574 19.0312 5.28208 19.1509 5.28208 19.3036C5.28208 20.0446 5.36718 21.5685 5.45228 22.9052C5.49462 23.5737 5.53736 24.1954 5.56911 24.6502C5.60087 25.105 5.62205 25.392 5.62205 25.3928L5.62408 25.416L5.60738 25.4327C5.60657 25.4331 3.86481 27.1615 3.35343 27.6175L3.27445 27.6875L3.2154 26.6493L4.38881 25.3977L4.57039 19.0642L4.62129 19.0658L4.67218 19.0674L4.48936 25.4392L3.31924 26.6871L3.37013 27.5764L3.31924 27.5796L3.28544 27.5413C3.53828 27.3162 4.10176 26.7702 4.60051 26.2816C5.10008 25.7926 5.53451 25.3615 5.53573 25.3603L5.57156 25.3965L5.52067 25.4001C5.52067 25.3993 5.1807 20.797 5.1803 19.3036C5.1807 19.1488 5.18395 19.0275 5.1925 18.9457C5.25683 18.3109 5.54348 17.0325 5.68476 16.423L5.73442 16.4348L5.70144 16.4735C5.22426 16.07 4.5993 15.7984 4.09444 15.6291C3.84201 15.5444 3.6197 15.4853 3.46051 15.4471C3.30131 15.4088 3.20646 15.3925 3.20646 15.3921L3.21501 15.342L3.2598 15.3172C3.73331 16.1685 3.82084 17.3664 3.82125 18.1607C3.82125 18.6538 3.78664 18.9909 3.78664 18.9925L3.73614 18.9872L3.74064 18.9363L4.67339 19.0194L4.67218 19.0674L4.62129 19.0658Z" fill="black"/>
<path d="M3.32117 27.5807L3.28737 27.5424C3.54021 27.3173 4.10369 26.7713 4.60244 26.2827C5.10201 25.7937 5.53645 25.3626 5.53767 25.3613L5.55232 25.3471L12.3301 25.3031L12.313 25.3675C12.1489 25.99 11.5146 27.027 9.27241 27.928C6.5938 29.0057 5.09918 29.1254 3.28535 29.125C2.77804 29.125 2.2459 29.1156 1.65513 29.1156H1.52118L3.28737 27.5424L3.32117 27.5807L3.35536 27.6186L1.68891 29.1026L1.65513 29.0647V29.0138C2.24712 29.0138 2.77926 29.0232 3.28535 29.0232C5.0947 29.0224 6.56407 28.9068 9.23454 27.8335C11.4592 26.9382 12.0597 25.926 12.2144 25.3414L12.2637 25.3544L12.2641 25.4053L5.57349 25.4485V25.3976L5.60931 25.4338C5.6085 25.4342 3.86674 27.1626 3.35536 27.6186L3.32117 27.5807Z" fill="black"/>
</svg>
