<svg width="182" height="56" viewBox="0 0 182 56" fill="none" xmlns="http://www.w3.org/2000/svg">
<path d="M180.749 41.0935L180.798 41.1045C180.799 41.1028 180.942 40.4604 181.104 39.7707C181.266 39.0826 181.45 38.3424 181.524 38.1714L181.526 38.1669L181.54 38.1083L181.552 38.0554L181.498 38.0468C181.166 37.9947 180.763 37.976 180.347 37.976C179.146 37.976 177.833 38.1352 177.832 38.1352L177.838 38.1856L177.834 38.1347L157.967 39.8952L157.977 39.9498C158.12 40.7763 158.2 41.6244 158.202 42.4912V42.4932L158.468 46.1445L158.521 46.138C161.333 45.7952 172.05 44.4748 174.718 43.9549C176.206 43.665 177.632 43.3869 178.788 43.1003C179.945 42.8125 180.829 42.5201 181.249 42.1854L181.366 42.0914L171.39 42.3161L175.82 41.144H180.79L180.798 41.1045L180.749 41.0935V41.0426H175.807L170.534 42.4371L181.218 42.1964L181.217 42.1455L181.185 42.106C180.797 42.4191 179.915 42.7168 178.763 43.0014C177.611 43.2872 176.186 43.5653 174.699 43.8551C172.041 44.373 161.319 45.6946 158.509 46.037L158.515 46.0875L158.566 46.0835L158.304 42.4875L158.253 42.4912H158.304C158.302 41.6183 158.222 40.7645 158.077 39.9323L158.027 39.9409L158.031 39.9917L177.844 38.2361H177.844C177.845 38.2361 178.171 38.1966 178.648 38.1567C179.125 38.1172 179.751 38.0778 180.347 38.0778C180.76 38.0778 181.159 38.0969 181.482 38.1474L181.49 38.0973L181.44 38.0859L181.428 38.14L181.477 38.151L181.431 38.1311C181.348 38.3249 181.168 39.0553 181.005 39.7475C180.842 40.4376 180.699 41.0821 180.699 41.0821L180.749 41.0935Z" fill="black"/>
<path d="M177.353 37.3509L177.356 37.4014L177.449 37.3953C178.804 37.3045 179.753 37.2821 180.362 37.2821C180.961 37.2821 181.227 37.3041 181.227 37.3036L181.318 37.311L181.277 37.2304C181.08 36.8387 180.848 36.4841 180.848 36.4833L180.805 36.5109L180.855 36.517L181.513 30.8675L181.461 30.8626C181.461 30.8626 181.26 30.8431 181.043 30.8174C180.828 30.7922 180.587 30.7567 180.538 30.736L180.531 30.7543L180.546 30.7413L180.538 30.736L180.531 30.7543L180.546 30.7413C180.543 30.7392 180.527 30.701 180.516 30.6476C180.475 30.4575 180.449 30.0581 180.434 29.7108C180.418 29.3627 180.414 29.0647 180.414 29.0638L180.413 29.0138H180.363C179.895 29.0138 179.466 29.0195 179.057 29.0219H179.015L179.007 29.063C178.741 30.4709 177.888 34.9422 177.303 37.3387L177.287 37.4062L177.356 37.4014L177.353 37.3509L177.402 37.3627C177.989 34.9609 178.842 30.4905 179.107 29.0822L179.057 29.0728L179.057 29.1237C179.467 29.1212 179.896 29.1156 180.363 29.1156V29.0647L180.312 29.0655C180.312 29.0659 180.318 29.4828 180.341 29.907C180.353 30.1192 180.368 30.3333 180.389 30.499C180.4 30.5821 180.412 30.6529 180.426 30.7071L180.45 30.7775L180.5 30.8304C180.582 30.8618 180.81 30.8915 181.03 30.9184C181.249 30.9444 181.451 30.964 181.451 30.964L181.456 30.9135L181.406 30.9074L180.752 36.5236L180.763 36.5386C180.763 36.539 180.82 36.6262 180.901 36.7626C180.983 36.8989 181.089 37.0834 181.186 37.276L181.232 37.2532L181.236 37.2023C181.234 37.2023 180.963 37.1803 180.362 37.1803C179.751 37.1803 178.799 37.2031 177.442 37.2935L177.349 37.3L177.353 37.3509Z" fill="black"/>
<path d="M162.898 45.5977H162.898C162.899 45.5977 162.9 45.5972 162.901 45.5972L162.898 45.5977ZM162.885 45.4967C165.541 44.9157 169.362 44.0599 171.391 43.5131C172.397 43.2419 173.249 42.8397 173.968 42.3617L181.056 42.2021L174.156 42.3576C173.401 42.8804 172.495 43.3209 171.418 43.6112C169.65 44.0876 166.531 44.7968 164 45.3558C163.62 45.4039 163.248 45.4511 162.885 45.4967ZM169.656 44.719C171.874 44.4178 173.79 44.138 174.722 43.9565C173.789 44.1385 171.874 44.4178 169.656 44.719ZM174.42 43.9096C174.437 43.9064 174.453 43.9035 174.469 43.9007C174.453 43.9035 174.436 43.9064 174.42 43.9096ZM174.471 43.9003C174.474 43.8995 174.477 43.899 174.48 43.8986C174.477 43.899 174.475 43.8995 174.471 43.9003ZM174.563 43.8832C174.563 43.8832 174.564 43.8832 174.565 43.8832C174.564 43.8832 174.564 43.8832 174.563 43.8832ZM174.581 43.8799C174.581 43.8799 174.581 43.8799 174.581 43.8799H174.581ZM174.687 43.86C174.687 43.86 174.688 43.8596 174.688 43.8596C174.688 43.8596 174.687 43.8596 174.687 43.86Z" fill="#E5E5E5"/>
<path d="M162.898 45.5977H162.898C162.899 45.5977 162.9 45.5972 162.901 45.5972L162.898 45.5977ZM162.885 45.4967C165.541 44.9157 169.362 44.0599 171.391 43.5131C172.397 43.2419 173.249 42.8397 173.968 42.3617L181.056 42.2021L174.156 42.3576C173.401 42.8804 172.495 43.3209 171.418 43.6112C169.65 44.0876 166.531 44.7968 164 45.3558C163.62 45.4039 163.248 45.4511 162.885 45.4967ZM169.656 44.719C171.874 44.4178 173.79 44.138 174.722 43.9565C173.789 44.1385 171.874 44.4178 169.656 44.719ZM174.42 43.9096C174.437 43.9064 174.453 43.9035 174.469 43.9007C174.453 43.9035 174.436 43.9064 174.42 43.9096ZM174.471 43.9003C174.474 43.8995 174.477 43.899 174.48 43.8986C174.477 43.899 174.475 43.8995 174.471 43.9003ZM174.563 43.8832C174.563 43.8832 174.564 43.8832 174.565 43.8832C174.564 43.8832 174.564 43.8832 174.563 43.8832ZM174.581 43.8799C174.581 43.8799 174.581 43.8799 174.581 43.8799H174.581ZM174.687 43.86C174.687 43.86 174.688 43.8596 174.688 43.8596C174.688 43.8596 174.687 43.8596 174.687 43.86Z" fill="#E5E5E5"/>
<path d="M162.902 45.5977H162.428L162.887 45.4971C162.888 45.4971 162.889 45.4967 162.889 45.4967C163.252 45.4511 163.624 45.4039 164.005 45.3558C164.834 45.2504 165.697 45.14 166.56 45.0277C169.705 44.6185 172.853 44.1885 174.371 43.919C174.371 43.919 174.372 43.9186 174.373 43.9186C174.39 43.9157 174.406 43.9129 174.422 43.9096C174.423 43.9096 174.423 43.9096 174.424 43.9096C174.441 43.9064 174.457 43.9035 174.474 43.9007C174.474 43.9003 174.475 43.9003 174.476 43.9003C174.479 43.8995 174.482 43.899 174.485 43.8986C174.485 43.8982 174.486 43.8982 174.487 43.8982C174.489 43.8978 174.49 43.8974 174.492 43.8974C174.493 43.897 174.496 43.8966 174.498 43.8962C174.498 43.8962 174.498 43.8962 174.498 43.8962C174.5 43.8958 174.501 43.8958 174.502 43.8954C174.505 43.895 174.507 43.8946 174.51 43.8938C174.52 43.8921 174.531 43.8901 174.541 43.8881C174.542 43.8881 174.543 43.8881 174.544 43.8876C174.546 43.8872 174.548 43.8868 174.551 43.8864C174.556 43.8852 174.562 43.8844 174.567 43.8832C174.568 43.8832 174.568 43.8832 174.569 43.8832C174.57 43.8828 174.572 43.8824 174.574 43.8819C174.576 43.8815 174.578 43.8815 174.58 43.8811C174.581 43.8807 174.583 43.8803 174.585 43.8799H174.586C174.605 43.8762 174.624 43.8726 174.643 43.8689C174.643 43.8689 174.644 43.8689 174.644 43.8689C174.649 43.8677 174.654 43.8669 174.659 43.8661C174.66 43.8661 174.66 43.8661 174.66 43.8661C174.665 43.8649 174.67 43.864 174.675 43.8628C174.676 43.8628 174.677 43.8624 174.678 43.8624C174.68 43.862 174.681 43.862 174.682 43.8616C174.682 43.8616 174.683 43.8612 174.684 43.8612C174.686 43.8608 174.689 43.8604 174.691 43.86C174.691 43.8596 174.692 43.8596 174.692 43.8596C174.695 43.8591 174.697 43.8587 174.699 43.8583C174.699 43.8583 174.7 43.8583 174.7 43.8583C174.702 43.8575 174.704 43.8571 174.707 43.8567C176.195 43.5668 177.619 43.2887 178.771 43.0029C179.807 42.7468 180.624 42.4806 181.061 42.2021L173.973 42.3617C174.021 42.3299 174.068 42.2977 174.115 42.2652L174.127 42.2562L181.224 42.0962L181.374 42.093L181.257 42.187C180.838 42.5217 179.953 42.814 178.796 43.1019C177.64 43.3885 176.214 43.6666 174.726 43.9565C173.794 44.138 171.878 44.4178 169.66 44.719C169.659 44.7195 169.657 44.7195 169.655 44.7199C169.651 44.7203 169.647 44.7211 169.643 44.7215C167.472 45.0163 165.014 45.3318 162.906 45.5972H162.905C162.904 45.5972 162.903 45.5977 162.902 45.5977Z" fill="black"/>
<path d="M175.303 41.2812L175.432 41.2471V41.2475L175.303 41.2812ZM175.432 41.2475V41.2471L175.826 41.1428L175.432 41.2475ZM175.392 41.1526C176.183 40.2992 176.697 39.3644 176.977 38.5355C176.999 38.4687 177.023 38.3913 177.049 38.3062L177.158 38.2965C177.128 38.3974 177.1 38.4895 177.073 38.568C176.801 39.373 176.314 40.2723 175.573 41.1046L175.813 41.0414L175.392 41.1526Z" fill="#E5E5E5"/>
<path d="M175.303 41.2812L175.432 41.2471V41.2475L175.303 41.2812ZM175.432 41.2475V41.2471L175.826 41.1428L175.432 41.2475ZM175.392 41.1526C176.183 40.2992 176.697 39.3644 176.977 38.5355C176.999 38.4687 177.023 38.3913 177.049 38.3062L177.158 38.2965C177.128 38.3974 177.1 38.4895 177.073 38.568C176.801 39.373 176.314 40.2723 175.573 41.1046L175.813 41.0414L175.392 41.1526Z" fill="#E5E5E5"/>
<path d="M175.26 41.293L175.379 41.1643C175.383 41.1607 175.386 41.157 175.39 41.1533L175.811 41.0422H180.712C180.746 40.8915 180.87 40.3358 181.009 39.747C181.17 39.0643 181.348 38.344 181.431 38.1388C181.118 38.094 180.741 38.0773 180.351 38.0773C179.755 38.0773 179.128 38.1168 178.652 38.1563C178.175 38.1962 177.849 38.2357 177.848 38.2357H177.848L177.155 38.2972L177.047 38.307C177.054 38.2833 177.061 38.2593 177.068 38.2349L177.078 38.2019L177.836 38.1347C177.837 38.1347 179.15 37.9755 180.351 37.9755C180.767 37.9755 181.17 37.9943 181.502 38.0464L181.555 38.0549L181.544 38.1079L181.53 38.1665L181.528 38.171C181.454 38.342 181.27 39.0822 181.108 39.7702C180.946 40.46 180.803 41.1024 180.802 41.1041L180.794 41.1435H175.824L175.43 41.2478L175.3 41.282L175.26 41.293Z" fill="black"/>
<path d="M50.4186 42.5978H50.5204C50.5204 35.6629 44.8981 30.0403 37.9628 30.0399C31.0271 30.0403 25.4043 35.6629 25.4043 42.5978C25.4043 49.534 31.0271 55.1562 37.9628 55.1562C44.8981 55.1562 50.5204 49.534 50.5204 42.5978H50.4186H50.3168C50.3168 46.0101 48.9342 49.0983 46.6985 51.3344C44.4625 53.57 41.3747 54.9527 37.9628 54.9527C34.5509 54.9527 31.4627 53.57 29.2265 51.3344C26.9906 49.0983 25.6079 46.0101 25.6079 42.5978C25.6079 39.1864 26.9906 36.0982 29.2265 33.8621C31.4627 31.6265 34.5509 30.2438 37.9628 30.2434C41.3747 30.2438 44.4625 31.6265 46.6985 33.8621C48.9342 36.0982 50.3168 39.1864 50.3168 42.5978H50.4186Z" fill="black"/>
<path d="M47.1406 39.6171L47.2375 39.5854C45.898 35.4638 42.0744 32.843 37.9627 32.8434C36.964 32.8434 35.9477 32.9981 34.9466 33.3235C30.8251 34.6626 28.2051 38.4857 28.2051 42.597C28.2051 43.5961 28.3598 44.612 28.6851 45.6131C30.0242 49.7351 33.8473 52.3555 37.959 52.3555C38.9582 52.3555 39.974 52.2008 40.9752 51.8755C45.0967 50.5359 47.7171 46.7128 47.7171 42.6011C47.7171 41.6024 47.5624 40.5865 47.2375 39.5854L47.1406 39.6171L47.0437 39.6485C47.362 40.6289 47.5135 41.6231 47.5135 42.6011C47.5135 46.6265 44.9481 50.3706 40.9125 51.6817C39.9316 52.0004 38.937 52.1519 37.959 52.1519C33.9336 52.1519 30.1896 49.5861 28.8788 45.5504C28.5601 44.5696 28.4087 43.575 28.4087 42.597C28.4088 38.572 30.974 34.8279 35.0097 33.5168C35.9905 33.1985 36.9847 33.047 37.9627 33.047C41.9885 33.047 45.7327 35.6124 47.0437 39.6485L47.1406 39.6171Z" fill="black"/>
<path d="M155.531 42.5978H155.633C155.633 35.6629 150.011 30.0403 143.076 30.0399C136.14 30.0403 130.518 35.6629 130.518 42.5978C130.518 49.534 136.14 55.1562 143.076 55.1562C150.011 55.1562 155.633 49.534 155.633 42.5978H155.531H155.43C155.43 46.0101 154.047 49.0983 151.811 51.3344C149.575 53.57 146.487 54.9527 143.076 54.9527C139.664 54.9527 136.576 53.57 134.34 51.3344C132.104 49.0983 130.721 46.0101 130.721 42.5978C130.721 39.1864 132.104 36.0982 134.34 33.8621C136.576 31.6265 139.664 30.2438 143.076 30.2434C146.487 30.2438 149.575 31.6265 151.811 33.8621C154.047 36.0982 155.43 39.1864 155.43 42.5978H155.531Z" fill="black"/>
<path d="M152.25 39.6171L152.346 39.5854C151.007 35.4638 147.184 32.843 143.073 32.8434C142.073 32.8434 141.058 32.9981 140.056 33.3235C135.935 34.663 133.314 38.4861 133.314 42.5974C133.314 43.5966 133.469 44.6124 133.794 45.6131C135.134 49.7351 138.957 52.3555 143.068 52.3555C144.068 52.3555 145.083 52.2008 146.085 51.8755C150.207 50.5364 152.826 46.7128 152.826 42.6015C152.826 41.6028 152.672 40.5865 152.346 39.5854L152.25 39.6171L152.153 39.6485C152.471 40.6289 152.623 41.6235 152.623 42.6015C152.623 46.6269 150.057 50.3706 146.022 51.6817C145.041 52.0004 144.046 52.1519 143.068 52.1519C139.043 52.1519 135.299 49.5861 133.988 45.5504C133.669 44.5696 133.518 43.5754 133.518 42.5974C133.518 38.572 136.083 34.8283 140.119 33.5168C141.1 33.1985 142.095 33.047 143.073 33.047C147.098 33.047 150.842 35.6124 152.153 39.6485L152.25 39.6171Z" fill="black"/>
<path d="M94.4907 23.2141L94.4882 23.1123C93.3556 23.1416 90.7107 23.2112 89.37 23.2674C87.9214 23.3277 86.546 23.4893 86.1263 23.5418L86.1389 23.6428H86.2407V23.6424H86.0371V23.6587V23.6664L86.0383 23.6742C86.044 23.71 86.0457 23.7475 86.0457 23.7865C86.0457 23.8252 86.044 23.8655 86.044 23.9071C86.0444 23.9693 86.0473 24.0365 86.0729 24.1057C86.1112 24.2116 86.2081 24.3004 86.3579 24.3504C86.509 24.4026 86.7211 24.4315 87.0407 24.4392C88.1612 24.4648 92.1573 24.4648 92.7399 24.4648C93.0343 24.4644 93.4549 24.4534 93.8246 24.3944C94.0098 24.3651 94.1816 24.324 94.3229 24.2625C94.4622 24.201 94.5815 24.118 94.6287 23.982C94.6674 23.8659 94.6885 23.7385 94.6885 23.6107C94.6885 23.4547 94.6572 23.2976 94.5786 23.1628L94.5481 23.1111L94.4882 23.1123L94.4907 23.2141L94.4027 23.2658C94.4581 23.3594 94.4854 23.4824 94.485 23.6107C94.4854 23.7153 94.4671 23.8228 94.4357 23.9172C94.4215 23.9649 94.3588 24.0255 94.2415 24.076C93.8922 24.2316 93.1707 24.2629 92.7399 24.2613C92.1585 24.2613 88.1596 24.2613 87.0456 24.2356C86.634 24.2275 86.4219 24.1741 86.3351 24.1167C86.2912 24.0878 86.2757 24.0646 86.2635 24.0341C86.2521 24.0036 86.2476 23.9612 86.2476 23.9071C86.2476 23.8712 86.2492 23.8309 86.2492 23.7865C86.2492 23.7422 86.2476 23.6937 86.2395 23.6428L86.1389 23.6587H86.2407V23.6424H86.0371V23.6428V23.758L86.1515 23.7438C86.568 23.6917 87.9393 23.5309 89.3786 23.4706C90.716 23.4148 93.3613 23.3448 94.4931 23.3159L94.4907 23.2141Z" fill="black"/>
<path d="M132.748 21.9368L132.746 21.835C131.613 21.8639 128.968 21.9339 127.628 21.9897C126.179 22.0503 124.803 22.212 124.384 22.2641L124.397 22.3651H124.498V22.3647H124.295V22.3813V22.3891L124.296 22.3968C124.302 22.4322 124.303 22.4693 124.303 22.508C124.303 22.5475 124.302 22.5882 124.302 22.6305C124.302 22.6928 124.305 22.76 124.331 22.8292C124.369 22.9351 124.466 23.0234 124.616 23.0731C124.767 23.1252 124.979 23.1541 125.298 23.1619C126.419 23.1875 130.415 23.1875 130.997 23.1875C131.291 23.1871 131.712 23.1761 132.082 23.1171C132.267 23.0873 132.439 23.0466 132.581 22.9851C132.72 22.9233 132.839 22.8406 132.887 22.7042C132.925 22.5886 132.946 22.4612 132.946 22.3333C132.946 22.1774 132.915 22.0198 132.836 21.8854L132.806 21.8333L132.746 21.835L132.748 21.9368L132.661 21.9881C132.716 22.0817 132.743 22.2051 132.743 22.3333C132.743 22.4379 132.725 22.5454 132.693 22.6399H132.694C132.679 22.6875 132.617 22.7482 132.499 22.7983C132.149 22.9538 131.428 22.9856 130.997 22.9839C130.416 22.9839 126.417 22.9839 125.303 22.9583C124.892 22.9501 124.68 22.8968 124.593 22.8394C124.549 22.8109 124.534 22.7877 124.521 22.7571C124.509 22.727 124.505 22.6847 124.505 22.6305C124.505 22.5943 124.507 22.5532 124.507 22.508C124.507 22.464 124.505 22.416 124.497 22.3655L124.397 22.3813H124.498V22.3647H124.295V22.3651V22.4807L124.409 22.4664C124.825 22.4143 126.197 22.2531 127.636 22.1933C128.973 22.1375 131.619 22.0674 132.751 22.0385L132.748 21.9368Z" fill="black"/>
<path d="M52.8548 42.5014H52.9057C52.8967 34.2262 46.1617 27.4969 37.884 27.4965C29.6014 27.4969 22.8633 34.2351 22.8631 42.4994H22.914L22.8631 42.4981L22.752 46.9438L22.8008 46.947C23.1623 46.9702 23.4228 46.9869 23.5504 46.9951L23.6032 46.9983L23.7153 42.5185V42.5181C23.7153 38.605 25.3011 35.0633 27.8651 32.499C30.4294 29.9348 33.9714 28.349 37.884 28.349C41.7971 28.349 45.3393 29.9348 47.9035 32.499C50.4677 35.0633 52.0539 38.605 52.0539 42.5181V42.5193L52.3161 48.5898H53.1695L52.9057 42.4994L52.8548 42.5014L52.8039 42.5038L53.0628 48.4881H52.4134L52.1553 42.516L52.1048 42.5181H52.1557C52.1557 34.6362 45.766 28.2472 37.884 28.2472C30.0026 28.2472 23.6135 34.6362 23.6135 42.5181H23.6644L23.6135 42.5169L23.5027 46.9429L23.5535 46.9442L23.5569 46.8937C23.4292 46.8855 23.1688 46.8688 22.8075 46.8452L22.8042 46.8961L22.855 46.8973L22.9649 42.5002V42.4994C22.9649 38.3953 24.6381 34.6704 27.3395 31.971C30.0413 29.2716 33.7707 27.5982 37.884 27.5982C46.1051 27.5982 52.7949 34.2827 52.8039 42.5018V42.5026V42.5038L52.8548 42.5014Z" fill="black"/>
<path d="M129.116 48.5898H128.264V42.5185C128.264 34.2355 135.002 27.4973 143.285 27.4969C150.34 27.4973 156.27 32.3859 157.875 38.9531L157.889 39.0109L157.83 39.0158C157.525 39.0419 157.271 39.0635 157.077 39.0797L157.034 39.0834L157.023 39.0415C155.472 32.8976 149.91 28.349 143.285 28.3494C139.372 28.3494 135.83 29.9353 133.266 32.4995C130.702 35.0637 129.116 38.6054 129.116 42.5185V48.5898ZM143.285 27.5986C139.172 27.5986 135.442 29.272 132.74 31.9734C130.039 34.6752 128.365 38.4051 128.365 42.5185V48.4881H129.014V42.5185C129.014 34.6366 135.403 28.2476 143.285 28.2476C149.943 28.2476 155.535 32.8077 157.111 38.9747C157.286 38.96 157.505 38.9413 157.762 38.9197C156.147 32.4258 150.271 27.5986 143.285 27.5986Z" fill="#D9D9D9"/>
<path d="M129.116 48.5898H128.264V42.5185C128.264 34.2355 135.002 27.4973 143.285 27.4969C150.34 27.4973 156.27 32.3859 157.875 38.9531L157.889 39.0109L157.83 39.0158C157.525 39.0419 157.271 39.0635 157.077 39.0797L157.034 39.0834L157.023 39.0415C155.472 32.8976 149.91 28.349 143.285 28.3494C139.372 28.3494 135.83 29.9353 133.266 32.4995C130.702 35.0637 129.116 38.6054 129.116 42.5185V48.5898ZM143.285 27.5986C139.172 27.5986 135.442 29.272 132.74 31.9734C130.039 34.6752 128.365 38.4051 128.365 42.5185V48.4881H129.014V42.5185C129.014 34.6366 135.403 28.2476 143.285 28.2476C149.943 28.2476 155.535 32.8077 157.111 38.9747C157.286 38.96 157.505 38.9413 157.762 38.9197C156.147 32.4258 150.271 27.5986 143.285 27.5986Z" fill="#D9D9D9"/>
<path d="M157.726 46.2305L157.455 42.5206V42.5189C157.455 41.6647 157.375 40.8293 157.23 40.0162L157.221 39.9617L157.97 39.8953L157.98 39.9498C158.124 40.7763 158.204 41.6244 158.205 42.4912C158.204 41.6407 158.127 40.8081 157.988 39.9959L157.34 40.0533C157.48 40.8537 157.557 41.6757 157.557 42.5161L157.82 46.1209L157.835 46.1197C157.853 46.1173 158.078 46.09 158.465 46.0428L158.472 46.1446L158.525 46.138C158.092 46.191 157.846 46.2207 157.846 46.2207L157.845 46.2211H157.844L157.726 46.2305Z" fill="#D9D9D9"/>
<path d="M157.726 46.2305L157.455 42.5206V42.5189C157.455 41.6647 157.375 40.8293 157.23 40.0162L157.221 39.9617L157.97 39.8953L157.98 39.9498C158.124 40.7763 158.204 41.6244 158.205 42.4912C158.204 41.6407 158.127 40.8081 157.988 39.9959L157.34 40.0533C157.48 40.8537 157.557 41.6757 157.557 42.5161L157.82 46.1209L157.835 46.1197C157.853 46.1173 158.078 46.09 158.465 46.0428L158.472 46.1446L158.525 46.138C158.092 46.191 157.846 46.2207 157.846 46.2207L157.845 46.2211H157.844L157.726 46.2305Z" fill="#D9D9D9"/>
<path d="M158.468 46.1445L158.461 46.0427L158.202 42.4932V42.4912C158.2 41.6244 158.12 40.7763 157.977 39.9498L157.967 39.8952L158.022 39.8904L158.026 39.89L158.069 39.8863L158.077 39.9323C158.221 40.7637 158.302 41.6171 158.304 42.4896L158.569 46.1319L158.521 46.138L158.468 46.1445Z" fill="black"/>
<path d="M69.6162 18.9595L69.6866 19.0328C69.7 19.021 70.3254 18.407 70.3246 17.0602C70.3246 16.9881 70.323 16.9144 70.3193 16.8383C70.2822 16.1013 70.2065 15.2724 69.7802 14.6002C69.354 13.926 68.571 13.4333 67.192 13.3743H67.1712C67.0984 13.3743 67.0137 13.3881 66.918 13.4097L66.4551 13.5131L66.9196 13.6084C67.0581 13.6369 67.5849 13.7578 68.091 14.0314C68.5991 14.3062 69.0734 14.7252 69.1545 15.3416C69.2216 15.8448 69.2562 16.3843 69.2562 16.9034C69.2566 17.6859 69.1764 18.4245 69.016 18.9151L68.9741 19.0454L69.6561 19.0625L69.6866 19.0328L69.6162 18.9595L69.6186 18.8577L69.1154 18.8451L69.1129 18.9469L69.2098 18.9782C69.3808 18.4514 69.4594 17.7006 69.4598 16.9034C69.4598 16.3753 69.4248 15.8277 69.3564 15.3147C69.2599 14.6014 68.7208 14.1401 68.1879 13.8523C67.6525 13.5636 67.1106 13.4398 66.9603 13.4093L66.94 13.509L66.9624 13.608C67.0499 13.5884 67.1256 13.5774 67.1712 13.5778H67.1831C68.5213 13.6397 69.2172 14.097 69.6084 14.7093C70.0001 15.3237 70.0807 16.1176 70.1157 16.848C70.1194 16.9209 70.121 16.9914 70.121 17.0602C70.121 17.7014 69.9736 18.1599 69.8279 18.4579C69.7554 18.6069 69.6829 18.7156 69.6296 18.7865L69.5661 18.8642L69.5494 18.8821L69.5453 18.8862L69.6162 18.9595Z" fill="black"/>
<path d="M69.1128 18.9456L69.2097 18.9769C69.3554 18.5283 69.4336 17.918 69.4539 17.2535L69.4572 17.1493L63.4746 17.1326L63.4779 17.3724L63.4783 17.3834L63.4807 17.3935C63.4815 17.3972 63.5544 17.7205 63.7173 18.1105C63.8809 18.5006 64.1305 18.9594 64.5059 19.233C64.8589 19.4887 65.3544 19.8026 65.8279 20.0579C66.3047 20.3124 66.746 20.5098 67.0379 20.5269L67.0603 20.5273C67.303 20.5241 67.5139 20.3539 67.6719 20.1336C67.829 19.9109 67.9353 19.6267 67.9361 19.3507C67.9361 19.1707 67.8885 18.9912 67.7712 18.8462L67.6922 18.9102L67.6898 19.0119L69.186 19.049L69.2097 18.9769L69.1128 18.9456L69.1152 18.8438L67.4744 18.8031L67.6132 18.9741C67.6951 19.0755 67.7321 19.2049 67.7325 19.3507C67.7333 19.5726 67.6409 19.8258 67.5058 20.016C67.371 20.2085 67.1947 20.327 67.0603 20.3238L67.0477 20.3234C66.8344 20.3164 66.3861 20.1292 65.9244 19.8788C65.4603 19.6284 64.9692 19.3173 64.6252 19.0681C64.3032 18.8369 64.0601 18.4057 63.905 18.0324C63.8272 17.8455 63.7706 17.6737 63.7331 17.5491C63.6961 17.4245 63.6794 17.3488 63.679 17.3484L63.5797 17.3712L63.6814 17.3695L63.681 17.337L69.3518 17.3524L69.3522 17.2506L69.2504 17.2474C69.2308 17.8992 69.1527 18.4965 69.0159 18.9138L69.1128 18.9456Z" fill="black"/>
<path d="M3.39625 28.226L3.2978 28.1999C3.27761 28.2769 3.12684 28.7039 2.93109 29.3016C2.73452 29.9018 2.49023 30.6827 2.27518 31.4937C1.84389 33.1247 1.76116 34.8763 1.76083 34.8799L1.75195 35.0664L1.91339 34.9728C1.92259 34.9662 2.42977 34.6768 2.54507 34.0571C2.64637 33.4993 3.33009 30.7633 3.57503 29.9079C3.69827 29.4686 3.96438 28.9474 3.96739 28.4906C3.96882 28.2821 3.90474 28.0769 3.73471 27.9251C3.56534 27.7732 3.30737 27.6771 2.93137 27.6372L2.46666 27.5884L2.86888 27.8261C2.86888 27.8261 2.89656 27.8424 2.93968 27.8705C3.00437 27.9129 3.10221 27.9813 3.17949 28.0513C3.21813 28.0863 3.25139 28.1217 3.27207 28.151L3.29752 28.2019H3.30623L3.2978 28.1999L3.29752 28.2019H3.30623L3.2978 28.1999L3.39625 28.226L3.49454 28.2524L3.50109 28.2019C3.49836 28.1111 3.45195 28.0476 3.4015 27.987C3.24707 27.8103 2.97657 27.6543 2.97241 27.6507L2.92075 27.7386L2.90992 27.8396C3.26267 27.8766 3.4774 27.9662 3.59824 28.0761C3.71847 28.1861 3.76256 28.3184 3.76382 28.4906C3.767 28.8688 3.51363 29.3896 3.37923 29.8517C3.13148 30.7193 2.45062 33.4419 2.34484 34.0205V34.0209C2.29794 34.2798 2.16464 34.4744 2.04107 34.6051C1.97955 34.6703 1.92067 34.7191 1.87788 34.7513L1.82748 34.7867L1.81144 34.7969L1.86249 34.8848L1.96412 34.8897C1.96412 34.8893 1.96921 34.7822 1.98366 34.5941C2.02661 34.0306 2.15368 32.7485 2.47191 31.5458C2.68533 30.7401 2.92869 29.9632 3.12448 29.3651C3.32089 28.765 3.46722 28.3538 3.49454 28.2524L3.39625 28.226Z" fill="black"/>
<path d="M3.00707 43.0413L3.10886 43.0426V43.0332C3.10853 42.8891 3.07274 42.5963 3.01982 42.223C2.86091 41.1078 2.54394 39.3217 2.54394 39.3209L2.3418 39.3392L2.35311 43.707L2.46553 43.6948C2.47318 43.6936 2.62028 43.6781 2.77789 43.591C2.93472 43.5071 3.10695 43.33 3.10886 43.0426L3.00707 43.0413L2.90529 43.0397C2.90052 43.2453 2.79666 43.3443 2.67883 43.4131C2.62028 43.4461 2.5597 43.4664 2.51451 43.4778L2.4606 43.4896L2.44358 43.4925L2.45458 43.5934L2.55636 43.593L2.54537 39.3384L2.44358 39.3388L2.34338 39.3567C2.34371 39.3583 2.48414 40.1502 2.62489 41.0081C2.69536 41.4372 2.76564 41.8822 2.81828 42.2519C2.87109 42.62 2.90577 42.9184 2.90529 43.0332V43.0401L3.00707 43.0413Z" fill="black"/>
<path d="M5.47093 39.4188V39.5206C5.47186 39.5206 5.83687 39.5206 6.40178 39.5206C8.0962 39.5206 11.5792 39.5206 12.3331 39.5206C12.8186 39.521 13.1612 39.646 13.3901 39.8337C13.6186 40.0214 13.7395 40.2742 13.7705 40.5515L13.7729 40.5963C13.7772 40.8491 13.5413 41.2795 13.0481 41.6997C12.5567 42.1219 11.8167 42.5425 10.8362 42.8197C9.75373 43.1267 8.52704 43.1992 7.62355 43.1988C7.23199 43.1988 6.90103 43.1853 6.66818 43.1719C6.43533 43.1585 6.3024 43.145 6.30207 43.145L6.2919 43.2464L6.38684 43.2094C6.38668 43.209 6.33644 43.0803 6.25993 42.8572C6.03026 42.1895 5.5719 40.6863 5.57271 39.4188H5.47093H5.36914C5.37057 41.1691 6.19585 43.2774 6.19711 43.2835L6.21967 43.3417L6.28188 43.3478C6.28424 43.3478 6.8312 43.4023 7.62355 43.4023C8.53804 43.4023 9.77902 43.3303 10.8917 43.0156C11.8982 42.731 12.6636 42.2982 13.1808 41.854C13.696 41.4081 13.972 40.9587 13.9764 40.5963L13.9728 40.5291C13.9376 40.2071 13.7918 39.8993 13.5191 39.6761C13.2464 39.4526 12.853 39.317 12.3331 39.317C11.8305 39.317 10.1149 39.317 8.52513 39.317C7.7301 39.317 6.96654 39.317 6.40178 39.317C5.83687 39.317 5.47186 39.317 5.47093 39.317H5.36914V39.4188H5.47093Z" fill="black"/>
<path d="M8.02821 28.071L7.95313 28.0021C7.94645 28.0111 6.24743 29.8591 6.18795 32.5858L6.18555 32.6953L6.29531 32.6892C6.29735 32.6892 11.0563 32.4254 12.9952 32.1212C13.9727 31.9677 15.4763 31.5081 16.8437 31.0085C17.5271 30.7585 18.1755 30.4988 18.7056 30.2614C19.2363 30.0236 19.6454 29.8119 19.8637 29.645C20.2691 29.3331 20.5498 28.8755 20.7329 28.4683C20.8243 28.2648 20.891 28.0734 20.9352 27.9175C20.9793 27.7599 21.0017 27.6451 21.0025 27.5689L20.9944 27.5099C20.9796 27.4712 20.9644 27.4594 20.9481 27.4415C20.8883 27.3829 20.7792 27.3088 20.6238 27.2164C20.1596 26.9448 19.3247 26.5543 18.6612 26.5515L18.6277 26.5519C17.7207 26.5722 10.3112 27.3825 8.00292 27.9724L7.97365 27.9798L7.95313 28.0021L8.02821 28.071L8.05333 28.1695C10.3187 27.5881 17.7625 26.773 18.6319 26.7555H18.6321L18.6612 26.7551C19.0766 26.7538 19.6199 26.9423 20.0554 27.148C20.2734 27.2501 20.4656 27.356 20.6036 27.4423C20.6725 27.4851 20.728 27.5233 20.7649 27.5518L20.8043 27.5856L20.8094 27.5909L20.8557 27.5559L20.8011 27.5742L20.8094 27.5909L20.8557 27.5559L20.8011 27.5742L20.8463 27.5592L20.7987 27.5641L20.8011 27.5742L20.8463 27.5592L20.7987 27.5641L20.7989 27.5689C20.7997 27.6023 20.7811 27.7171 20.7394 27.8621C20.616 28.3022 20.2879 29.0652 19.7397 29.4833C19.5518 29.6283 19.1458 29.842 18.6224 30.0757C17.0506 30.7797 14.3905 31.6974 12.9637 31.9201C12.0071 32.0703 10.3346 32.2124 8.90438 32.3163C8.18915 32.368 7.53389 32.4107 7.05757 32.44C6.58125 32.4698 6.28481 32.486 6.28399 32.486L6.28957 32.5878L6.39136 32.5899C6.41917 31.2691 6.84748 30.1551 7.26973 29.3714C7.4808 28.9797 7.69007 28.6707 7.84625 28.4602C7.92434 28.3547 7.98908 28.2741 8.03411 28.22C8.07894 28.1662 8.10312 28.1398 8.10312 28.1398L8.02821 28.071Z" fill="black"/>
<path d="M180.803 36.5097L180.905 36.5215L181.568 30.8207L181.464 30.8109C181.464 30.8109 181.264 30.7914 181.047 30.7657C180.939 30.7527 180.826 30.738 180.735 30.7238C180.644 30.7103 180.567 30.6932 180.555 30.6875L180.529 30.7531L180.584 30.7075L180.555 30.6875L180.529 30.7531L180.584 30.7075L180.56 30.7274L180.587 30.7108L180.584 30.7075L180.56 30.7274L180.587 30.7108C180.585 30.7112 180.57 30.6721 180.561 30.6183C180.522 30.4249 180.497 30.0304 180.482 29.6909C180.467 29.3505 180.463 29.0626 180.463 29.0618L180.462 29.017L178.799 27.5358L178.851 26.6299L177.676 25.3767L177.498 19.1584L178.39 19.0794L178.38 18.9768C178.38 18.9764 178.371 18.8954 178.363 18.7517C178.354 18.6084 178.346 18.4036 178.346 18.1605C178.345 17.3784 178.437 16.196 178.888 15.3915L178.961 15.2616L178.813 15.2413C178.811 15.2409 171.283 14.199 162.866 14.0426L162.864 14.1444L162.906 14.0516C162.904 14.0508 151.035 8.66219 146.13 7.01773C141.236 5.37815 134.723 3.05906 128.724 1.88485C123.927 0.946381 117.92 0.000988007 107.703 0.000988007C105.156 0.000988007 102.348 0.0596123 99.2317 0.191528C83.6075 0.853138 76.7059 3.59323 73.349 4.96327C71.6634 5.65094 65.5139 8.67074 59.7776 11.5224C54.043 14.3732 48.7277 17.0531 48.7277 17.0531L48.7733 17.1439L48.7583 17.0433L46.3915 17.3938L43.4719 16.9513L43.4495 16.9586C43.4491 16.9586 43.3477 16.9908 43.1511 17.0425C42.5607 17.1984 41.1275 17.5282 39.1504 17.6597C36.4922 17.8376 24.7185 19.4691 15.8414 21.765C6.95725 24.0633 2.86193 27.6523 2.85236 27.6608L2.74679 27.7532L2.86779 27.8249C2.86779 27.8249 2.89548 27.8412 2.9386 27.8693C3.00329 27.9116 3.10113 27.98 3.1784 28.0501C3.21704 28.0851 3.25031 28.1205 3.27099 28.1498L3.29644 28.2007H3.30515L3.29672 28.1987L3.29644 28.2007H3.30515L3.29672 28.1987C3.27653 28.2756 3.12576 28.7027 2.93 29.3004C2.73343 29.9005 2.48915 30.6814 2.27409 31.4925C1.8428 33.1235 1.76007 34.875 1.75975 34.8787L1.86141 34.8836L1.81479 34.7932L1.36502 35.0249L1.51326 39.3821L2.34233 39.4057L2.353 43.592L2.45478 43.5916L2.4058 43.5024C2.40422 43.5033 2.02455 43.7121 1.64192 43.9731C1.45044 44.1038 1.25814 44.2471 1.10978 44.3872C1.03548 44.4576 0.972042 44.5272 0.924325 44.5973C0.877422 44.6673 0.842733 44.7389 0.841797 44.8216L0.843995 44.855C0.853563 44.9319 0.899204 45.0032 0.964551 45.0541C1.07969 45.1441 1.25354 45.2027 1.52613 45.2613C2.34123 45.4339 4.06044 45.572 7.44468 45.8802C12.3274 46.324 22.4776 46.977 23.5484 47.0458L23.654 47.0528L23.7676 42.5192V42.518C23.7676 38.6187 25.3475 35.09 27.9026 32.5348C30.4578 29.9795 33.9866 28.3998 37.8854 28.3998C41.7847 28.3998 45.3134 29.9795 47.8691 32.5348C50.4243 35.09 52.004 38.6187 52.0044 42.518V42.52L52.2687 48.6406H129.167V42.518C129.167 38.6187 130.747 35.09 133.302 32.5348C135.857 29.9795 139.386 28.3998 143.285 28.3998C147.184 28.3998 150.713 29.9795 153.268 32.5348C155.824 35.09 157.404 38.6187 157.404 42.518V42.5216L157.679 46.2845L157.848 46.2706H157.85L157.852 46.2702C157.854 46.2698 171.648 44.6046 174.731 44.0041C176.267 43.7048 177.739 43.4182 178.918 43.121C179.508 42.9723 180.024 42.8209 180.441 42.6629C180.857 42.5041 181.174 42.3417 181.369 42.1548L181.425 42.1007L180.841 41.0433L180.752 41.0926L180.851 41.1145C180.851 41.1129 180.994 40.4704 181.157 39.7816C181.238 39.4367 181.324 39.0808 181.399 38.7893C181.474 38.499 181.541 38.2666 181.574 38.1904C181.595 38.142 181.602 38.0907 181.602 38.0377C181.601 37.8977 181.553 37.7381 181.486 37.5667C181.283 37.0573 180.89 36.4572 180.889 36.4539L180.803 36.5097L180.718 36.5655C180.718 36.5655 180.761 36.6307 180.825 36.7365C180.922 36.8957 181.068 37.1453 181.188 37.3957C181.309 37.644 181.401 37.9001 181.398 38.0377L181.387 38.1102C181.342 38.2165 181.279 38.4429 181.202 38.7384C180.974 39.6203 180.653 41.0698 180.652 41.0702L180.644 41.108L181.209 42.1308L181.298 42.0815L181.228 42.0082C181.072 42.1597 180.773 42.3197 180.368 42.4728C179.153 42.9345 176.995 43.3559 174.692 43.8041C173.163 44.1022 168.943 44.6693 165.11 45.1603C163.193 45.4059 161.373 45.633 160.031 45.7987C158.69 45.964 157.829 46.0679 157.827 46.0683L157.839 46.1693L157.831 46.0679L157.765 46.0732L157.773 46.1745L157.874 46.1672L157.607 42.5106L157.506 42.518H157.607C157.607 34.608 151.195 28.1962 143.285 28.1962C135.376 28.1962 128.963 34.608 128.963 42.518V48.4371H52.4637L52.2076 42.5135L52.1062 42.518H52.208C52.2076 34.608 45.7955 28.1962 37.8854 28.1962C29.9759 28.1962 23.564 34.608 23.564 42.518H23.6658L23.564 42.5155L23.4533 46.9416L23.5549 46.9441L23.5615 46.8427C22.4916 46.7743 12.3403 46.1208 7.463 45.6774C4.8854 45.4429 3.2705 45.3061 2.29877 45.1799C1.81337 45.1168 1.48798 45.0557 1.29092 44.9902C1.19247 44.9576 1.12725 44.9238 1.09162 44.8949L1.04582 44.8277L1.04537 44.8216C1.04439 44.8045 1.05714 44.7634 1.09276 44.7117C1.216 44.526 1.57478 44.2561 1.89573 44.0484C2.05668 43.9434 2.20907 43.8514 2.32104 43.7854C2.433 43.7199 2.50376 43.6808 2.50393 43.6808L2.55673 43.6519L2.54542 39.2079L1.71016 39.1839L1.57291 35.1466L1.90799 34.974L1.96031 34.9471L1.96303 34.8885C1.96303 34.8881 1.96812 34.781 1.98258 34.5929C2.02553 34.0294 2.1526 32.7473 2.47083 31.5446C2.68425 30.7388 2.9276 29.962 3.1234 29.3639C3.31981 28.7638 3.46613 28.3526 3.49345 28.2512L3.50001 28.2007C3.49728 28.1099 3.45087 28.0464 3.40042 27.9857C3.24599 27.809 2.97548 27.6531 2.97133 27.6494L2.91966 27.7374L2.98676 27.8139C2.98692 27.8135 3.048 27.7598 3.17555 27.6588C4.06855 26.9495 8.14973 23.9652 15.8925 21.962C24.7481 19.6706 36.5301 18.0379 39.1643 17.8629C41.8217 17.6858 43.5049 17.1544 43.5106 17.1524L43.48 17.0555L43.465 17.1561L46.3911 17.5999L48.8047 17.2424L48.8193 17.2351C48.8201 17.2342 49.1511 17.0673 49.7391 16.7717C51.7968 15.7363 56.9867 13.1298 62.0288 10.6328C67.0696 8.13575 71.968 5.74622 73.426 5.15138C76.7739 3.78662 83.6339 1.05753 99.2402 0.3951C102.354 0.263184 105.16 0.204559 107.703 0.204559C117.909 0.204559 123.895 1.14751 128.685 2.08475C134.663 3.25448 141.169 5.57032 146.065 7.21071C148.505 8.02826 152.697 9.78551 156.276 11.3375C158.065 12.1136 159.702 12.8387 160.891 13.3692C161.486 13.6347 161.969 13.8517 162.303 14.0023C162.637 14.153 162.822 14.2368 162.822 14.2368L162.841 14.2454L162.862 14.2462C167.064 14.324 171.045 14.6232 173.976 14.9029C175.441 15.043 176.643 15.1777 177.48 15.2779C178.316 15.3781 178.784 15.4428 178.785 15.4428L178.799 15.3418L178.71 15.2922C178.229 16.159 178.143 17.3621 178.142 18.1605C178.142 18.656 178.177 18.9947 178.177 18.9972L178.278 18.987L178.269 18.8856L177.289 18.9727L177.474 25.4598L178.643 26.7057L178.59 27.6226L180.294 29.1396L180.361 29.0634L180.259 29.0651C180.259 29.0659 180.266 29.4832 180.289 29.9087C180.3 30.1216 180.316 30.3362 180.337 30.5043C180.348 30.5886 180.36 30.6607 180.375 30.7189L180.403 30.7987C180.416 30.8223 180.429 30.8528 180.48 30.8765C180.533 30.8968 180.605 30.909 180.703 30.9249C180.991 30.9697 181.444 31.0133 181.445 31.0133L181.455 30.9123L181.354 30.9005L180.698 36.5346L180.718 36.5655L180.803 36.5097Z" fill="black"/>
<path d="M130.994 8.01363L131.038 7.92162C121.717 3.45849 115.251 3.14743 108.46 2.75087C106.914 2.66089 105.094 2.60225 103.099 2.60225C96.3168 2.60266 87.505 3.27567 80.4988 5.66765C71.4309 8.76562 57.715 18.4602 57.7105 18.4622L57.671 18.4903L57.5293 20.5586L66.6123 20.2231L66.2455 20.0448C65.6991 19.7797 65.0493 19.3771 64.623 19.0689C64.3009 18.8376 64.0579 18.4064 63.9028 18.0331C63.825 17.8462 63.7684 17.6744 63.7309 17.5498C63.6939 17.4252 63.6772 17.3495 63.6768 17.3491L63.5774 17.3719L63.6792 17.3702L63.6556 15.8793L63.5538 15.8809L63.6463 15.9237C63.9366 15.2926 64.6776 14.6949 65.4202 14.2666C65.7911 14.052 66.162 13.8781 66.4747 13.7589C66.7853 13.6392 67.0451 13.5756 67.1656 13.5769L67.1803 13.5773C68.519 13.6392 69.2148 14.0964 69.6061 14.7087C69.9977 15.3231 70.0783 16.117 70.1134 16.8475C70.117 16.9203 70.1186 16.9908 70.1186 17.0596C70.1186 17.7008 69.9713 18.1593 69.8255 18.4573C69.753 18.6063 69.6806 18.715 69.6272 18.7859L69.5637 18.8637L69.547 18.8816L69.5429 18.8856L69.6138 18.9589L69.6162 18.8571L67.4722 18.8038L67.611 18.9748C67.6929 19.0762 67.7299 19.2052 67.7303 19.351C67.7311 19.5766 67.6355 19.8347 67.4966 20.0256L67.3745 20.195L138.811 17.553L138.841 17.5127C139.137 17.1011 139.393 16.5112 139.393 15.7754C139.393 14.8366 138.975 13.6701 137.724 12.3444C136.473 11.0175 134.389 9.52577 131.038 7.92162L130.994 8.01363L130.95 8.10565C134.286 9.70206 136.351 11.1837 137.576 12.4837C138.802 13.7849 139.189 14.8989 139.189 15.7754C139.189 16.4631 138.951 17.0107 138.675 17.3939L138.758 17.4533L138.754 17.3515L67.5752 19.9837L67.5789 20.0855L67.6615 20.1449C67.8232 19.9206 67.9331 19.6315 67.9339 19.351C67.9339 19.171 67.8863 18.9915 67.769 18.847L67.69 18.9109L67.6876 19.0127L69.6537 19.0619L69.6842 19.0322C69.6977 19.0204 70.323 18.4064 70.3222 17.0596C70.3222 16.9875 70.3206 16.9138 70.3169 16.8377C70.2799 16.1008 70.2041 15.2718 69.7779 14.5996C69.3516 13.9254 68.5686 13.4327 67.1896 13.3737L67.1656 13.3733C66.9901 13.3749 66.7271 13.4454 66.4018 13.5687C65.9165 13.754 65.3058 14.0614 64.7533 14.4514C64.2016 14.8415 63.7065 15.3117 63.4614 15.8377L63.4516 15.8589L63.4761 17.3841L63.4785 17.3943C63.4793 17.3979 63.5522 17.7212 63.7151 18.1112C63.8787 18.5013 64.1283 18.9601 64.5037 19.2337C64.941 19.5501 65.5953 19.9552 66.1563 20.228L66.2011 20.1364L66.197 20.0346L57.7479 20.3469L57.8709 18.5526L57.7695 18.5457L57.8281 18.6287C57.8286 18.6283 58.0419 18.4777 58.4344 18.2065C61.1798 16.3108 72.6759 8.55269 80.5648 5.86023C87.5331 3.48047 96.3307 2.80542 103.099 2.80583C105.09 2.80583 106.906 2.86406 108.448 2.95444C115.243 3.35181 121.658 3.6584 130.95 8.10565L130.994 8.01363Z" fill="black"/>
<path d="M162.581 14.0177L162.623 13.9248C160.795 13.0996 150.588 8.51388 146.129 7.01884C142.604 5.83771 138.238 4.30603 133.831 3.1017L133.797 3.09274L130.572 4.40497L130.83 4.49292C130.83 4.49333 131.114 4.59022 131.615 4.76204C135.126 5.96474 149.309 10.8293 151.426 11.6379C152.605 12.0874 154.935 12.7059 157.19 13.2148C159.447 13.7229 161.614 14.1199 162.488 14.1211L162.585 14.1191L163.014 14.1011L162.623 13.9248L162.581 14.0177L162.577 13.9159L162.488 13.9175C161.66 13.9187 159.482 13.5234 157.235 13.0161C154.987 12.5092 152.655 11.8895 151.499 11.4474C149.067 10.5191 130.897 4.30075 130.896 4.30034L130.863 4.39642L130.901 4.49088L133.842 3.29427L133.804 3.20023L133.777 3.29835C138.175 4.49984 142.537 6.02988 146.064 7.21183C150.501 8.69872 160.715 13.2864 162.539 14.1101L162.581 14.0177Z" fill="black"/>
<path d="M54.9055 18.2926L54.9645 18.3753C60.6923 14.3001 66.9073 10.9607 71.6901 8.64123C74.0816 7.48127 76.1145 6.57618 77.5497 5.96139C78.2675 5.654 78.8355 5.41867 79.2239 5.26111C79.6123 5.10273 79.8204 5.02212 79.8212 5.02171L80.0923 4.91666L76.4683 3.78439L76.437 3.79538C75.1594 4.23184 74.1513 4.63776 73.35 4.96511C71.6644 5.65278 65.5149 8.67258 59.7786 11.5242C54.044 14.3751 48.7287 17.0549 48.7287 17.0549L48.7743 17.1457L48.7592 17.0451L45.8457 17.4767L46.3693 17.598C49.8561 18.4042 51.981 18.6094 53.2448 18.6094C54.5427 18.6094 54.9336 18.3932 54.956 18.3806L54.9605 18.3781L54.9645 18.3753L54.9055 18.2926L54.8546 18.2043L54.8542 18.2047C54.829 18.2177 54.441 18.4062 53.2448 18.4058C52.003 18.4058 49.8915 18.2035 46.4153 17.3993L46.3925 17.4987L46.4072 17.5992L48.8056 17.2442L48.8203 17.2369C48.8211 17.2361 49.1521 17.0691 49.74 16.7736C51.7978 15.7382 56.9876 13.1316 62.0297 10.6346C67.0706 8.13759 71.969 5.74806 73.427 5.15322C74.227 4.82668 75.2306 4.42279 76.5025 3.98796L76.4696 3.89147L76.4394 3.98878L79.754 5.02414L79.7841 4.92684L79.7475 4.83197C79.7434 4.83401 66.3292 10.0402 54.8465 18.2096L54.9055 18.2926Z" fill="black"/>
<path d="M55.6389 17.1239L55.6955 17.2081C61.1712 13.5365 66.8802 10.5472 71.2196 8.47608C73.3892 7.44071 75.2165 6.63456 76.5011 6.08777C77.1435 5.81417 77.65 5.6053 77.9961 5.46524C78.3422 5.32477 78.5262 5.25353 78.527 5.25312L78.7982 5.14766L75.5109 4.12084L75.4787 4.13265C74.6396 4.44005 73.936 4.72383 73.3461 4.96486C71.8706 5.56662 66.9812 7.9529 61.9383 10.4503C56.8962 12.9474 51.7067 15.5539 49.647 16.5901L49.4043 16.7122L49.6677 16.7794C50.7173 17.0481 52.2006 17.3987 53.1932 17.5049C53.4664 17.5347 53.7164 17.5469 53.9436 17.5469C55.1137 17.5469 55.6776 17.2195 55.6906 17.2114L55.6935 17.2098L55.6955 17.2081L55.6389 17.1239L55.5872 17.0363L55.5835 17.0384C55.5326 17.066 55.0046 17.3429 53.9436 17.3433C53.7237 17.3433 53.481 17.3311 53.2148 17.3026C52.2454 17.1992 50.7629 16.8498 49.7182 16.5823L49.693 16.6809L49.7386 16.7717C51.7979 15.7359 56.9874 13.1293 62.0282 10.6327C67.0683 8.13652 71.965 5.7478 73.423 5.15296C74.0122 4.91234 74.7129 4.62978 75.5487 4.3236L75.5137 4.22834L75.4832 4.32523L78.4598 5.25516L78.49 5.15825L78.4533 5.06339C78.4492 5.06502 66.5565 9.68083 55.5823 17.0392L55.6389 17.1239Z" fill="black"/>
<path d="M134.465 13.3505L134.547 13.2906C134.324 12.9861 133.817 12.5635 133.154 12.0717C131.169 10.6019 127.808 8.56898 126.992 8.07959L126.857 7.99898L125.752 17.2852L133.109 17.0132H133.111C133.812 16.9655 134.308 16.6997 134.621 16.3166C134.933 15.9338 135.062 15.444 135.062 14.9555C135.061 14.3415 134.862 13.7247 134.547 13.2906L134.465 13.3505L134.383 13.4103C134.668 13.802 134.859 14.3863 134.858 14.9555C134.858 15.4098 134.738 15.8512 134.463 16.1875C134.187 16.5234 133.755 16.7636 133.096 16.81L133.104 16.9114L133.1 16.81L125.982 17.0726L127.041 8.17893L126.94 8.16713L126.887 8.25426C127.43 8.57916 129.104 9.59132 130.744 10.6625C131.565 11.1979 132.376 11.7488 133.033 12.2353C133.689 12.7198 134.193 13.1477 134.383 13.4103L134.465 13.3505Z" fill="black"/>
<path d="M108.753 3.62074L108.758 3.51895L108.418 3.499C106.952 3.41309 105.397 3.36709 103.789 3.35609L103.7 3.35569L101.639 18.1758L124.812 17.3191L126.163 6.65356L126.087 6.62547C119.408 4.14148 114.197 3.83571 108.758 3.51895L108.753 3.62074L108.747 3.72212C114.187 4.03928 119.365 4.34301 126.017 6.81642L126.052 6.72075L125.951 6.70812L124.631 17.1221L101.874 17.9637L103.889 3.47213L103.788 3.45788L103.788 3.55966C105.392 3.57066 106.945 3.61667 108.406 3.70217L108.747 3.72212L108.753 3.62074Z" fill="black"/>
<path d="M80.7739 6.47352L80.741 6.37702C76.7456 7.74218 71.7947 10.435 67.5433 12.9915L67.4863 13.0257L67.5588 13.6067L67.637 13.6169C68.7538 13.7635 69.338 14.2276 69.6727 14.8224C70.0066 15.4185 70.0798 16.1615 70.1128 16.8472C70.1165 16.9201 70.1181 16.9905 70.1181 17.0593C70.1181 17.7006 69.9707 18.159 69.825 18.457C69.7525 18.606 69.68 18.7147 69.6267 18.7856L69.5632 18.8634L69.5465 18.8813L69.5424 18.8854L69.6133 18.9586L69.6157 18.8568L68.2139 18.8218L68.2872 19.4102L96.9449 18.3504L100.565 3.3845L100.433 3.38817C95.1095 3.52945 87.2537 4.154 80.741 6.37702L80.7739 6.47352L80.8065 6.57C87.2838 4.35798 95.1258 3.7322 100.438 3.59174L100.435 3.48995L100.336 3.46593L96.7833 18.1529L68.4659 19.1997L68.4452 19.0315L69.6532 19.0616L69.6837 19.0319C69.6971 19.0201 70.3225 18.4061 70.3217 17.0593C70.3217 16.9872 70.3201 16.9135 70.3164 16.8374C70.2814 16.1449 70.2122 15.3721 69.8506 14.7231C69.4899 14.0729 68.8258 13.5627 67.663 13.4149L67.65 13.5159L67.751 13.5033L67.6968 13.066L67.5958 13.0786L67.648 13.1662C71.8933 10.613 76.8389 7.92458 80.8065 6.57L80.7739 6.47352Z" fill="black"/>
<path d="M69.8014 18.7164L69.7916 18.615L67.6973 18.8105L67.7042 19.0136L69.6573 19.0625L69.6878 19.0324C69.6927 19.0279 69.7798 18.9416 69.8873 18.7706L69.9972 18.5959L69.7916 18.615L69.8014 18.7164L69.7151 18.6623C69.6662 18.7396 69.6227 18.797 69.5921 18.8345L69.5563 18.8756L69.5457 18.8866L69.617 18.9595L69.6194 18.8577L69.4305 18.8532L69.8108 18.8178L69.8014 18.7164Z" fill="black"/>
<path d="M67.5798 20.0867L67.6624 20.1461C67.824 19.9218 67.9336 19.6327 67.9344 19.3526C67.9348 19.173 67.8876 18.9943 67.7711 18.8498L67.7365 18.807L64.3487 19.1238L64.5726 19.2826C65.0074 19.5912 65.623 19.9694 66.1576 20.2292L66.202 20.1376L66.1979 20.0358L57.5628 20.355L56.8808 22.6578L56.8804 22.6712C56.8804 22.6716 56.7285 28.8126 56.7285 32.6129C56.7285 33.4529 56.7358 34.1788 56.7542 34.6999C56.8543 37.5667 57.0286 41.2676 57.0286 41.268L57.029 41.2762L57.2313 42.2378L57.783 43.9336L122.058 43.3485L122.088 43.316C122.089 43.3151 122.536 42.8286 123.02 42.3058C123.502 41.7839 124.024 41.2236 124.162 41.0852C124.189 41.0571 124.222 41.0144 124.274 40.9464C125.022 39.9407 129.111 33.8067 129.899 32.4627C130.312 31.7587 132.413 28.423 134.467 25.0644C135.494 23.3846 136.51 21.6982 137.299 20.3297C137.694 19.6453 138.032 19.0403 138.287 18.5546C138.541 18.0676 138.712 17.7049 138.776 17.4858L138.816 17.3507L67.5761 19.9849L67.5798 20.0867L67.5838 20.1885L138.682 17.5591L138.678 17.4573L138.581 17.4288C138.527 17.6153 138.358 17.9793 138.106 18.4601C136.336 21.8386 130.453 31.1171 129.724 32.3597C129.31 33.0661 127.949 35.1474 126.659 37.083C126.015 38.0512 125.387 38.9839 124.903 39.692C124.66 40.0458 124.454 40.3438 124.3 40.5616C124.223 40.6703 124.159 40.7591 124.11 40.8246C124.063 40.889 124.026 40.9337 124.018 40.9415C123.728 41.231 121.939 43.1771 121.939 43.1783L122.013 43.2471L122.013 43.1454L57.9304 43.7288L57.4284 42.1853L57.2297 41.2424L57.13 41.2631L57.2317 41.2582C57.2317 41.2562 57.1882 40.3332 57.1324 39.0499C57.0762 37.7666 57.0074 36.1254 56.9577 34.6926C56.9394 34.1759 56.9321 33.4516 56.9321 32.6129C56.9321 30.7152 56.97 28.2304 57.0078 26.2207C57.027 25.2159 57.0461 24.3299 57.0603 23.6948C57.0746 23.0596 57.084 22.6769 57.084 22.6761L56.9822 22.6737L57.0799 22.7026L57.7163 20.5529L66.6136 20.2243L66.2464 20.046C65.7264 19.7935 65.1153 19.4181 64.6902 19.1164L64.6312 19.1995L64.641 19.3009L67.7011 19.0147L67.6917 18.9137L67.6123 18.9772C67.6938 19.0782 67.7308 19.2072 67.7308 19.3526C67.7316 19.5781 67.6364 19.8359 67.4975 20.0268L67.3754 20.1962L67.5838 20.1885L67.5798 20.0867Z" fill="black"/>
<path d="M98.353 21.0159L98.2516 21.0053L97.1259 31.9844L97.0371 43.5742L122.063 43.3466L122.093 43.3141C122.094 43.3132 122.541 42.8267 123.024 42.3039C123.507 41.782 124.028 41.2217 124.166 41.0833C124.194 41.0552 124.227 41.0125 124.278 40.9445C125.027 39.9388 129.115 33.8048 129.904 32.4608C130.317 31.7568 132.417 28.4211 134.471 25.0625C135.499 23.3827 136.514 21.6963 137.304 20.3278C137.698 19.6434 138.036 19.0384 138.291 18.5527C138.546 18.0657 138.717 17.703 138.781 17.4839L138.82 17.3487L98.9206 18.8238L98.2529 20.9956L98.2516 21.0053L98.353 21.0159L98.4503 21.0456L99.0724 19.0221L138.687 17.5572L138.683 17.4554L138.585 17.4269C138.532 17.6134 138.363 17.9774 138.111 18.4582C136.34 21.8367 130.458 31.1152 129.728 32.3578C129.314 33.0642 127.954 35.1455 126.664 37.0811C126.019 38.0493 125.391 38.982 124.907 39.6901C124.665 40.0439 124.459 40.3419 124.305 40.5597C124.228 40.6684 124.164 40.7572 124.115 40.8227C124.067 40.8871 124.031 40.9318 124.022 40.9396C123.733 41.2291 121.944 43.1752 121.943 43.1764L122.018 43.2452L122.017 43.1435L97.2423 43.3686L97.3294 31.9954L98.454 21.0261L98.353 21.0159Z" fill="black"/>
<path d="M132.792 22.6697L132.744 22.6535C132.721 22.7235 132.644 22.7894 132.522 22.8428C132.154 23.0044 131.433 23.0333 130.999 23.0325C130.92 23.0325 130.774 23.0325 130.581 23.0325H130.539L130.531 23.0732C130.473 23.3835 130.034 23.7523 129.508 23.9864C129.209 24.1224 128.589 24.201 127.957 24.2006C127.357 24.2006 126.742 24.1306 126.37 23.9856C125.965 23.8285 125.753 23.4637 125.651 23.0508L125.642 23.0126L125.602 23.0122C125.489 23.0105 125.387 23.0089 125.304 23.0069C124.889 22.9979 124.671 22.9466 124.568 22.8802C124.467 22.8143 124.459 22.743 124.457 22.6282C124.457 22.5904 124.458 22.5492 124.458 22.5057C124.458 22.4629 124.456 22.4177 124.449 22.3709L124.447 22.3473C124.448 22.296 124.474 22.2561 124.536 22.2154C124.724 22.0932 125.193 22.0643 125.547 22.0627L125.592 22.0623L125.597 22.0179C125.631 21.7158 125.89 21.4756 126.214 21.3103C126.535 21.1454 126.914 21.0583 127.157 21.0509H127.16L127.162 21.0505C127.162 21.0505 127.228 21.042 127.346 21.0326C127.465 21.0237 127.634 21.0147 127.839 21.0147C128.227 21.0147 128.742 21.0473 129.273 21.1727C129.692 21.272 129.962 21.5037 130.147 21.774L130.163 21.7976L130.191 21.7964C131.005 21.7557 131.719 21.7272 132.11 21.7272C132.259 21.7272 132.364 21.7321 132.398 21.7398C132.684 21.7989 132.794 22.0493 132.796 22.3281C132.796 22.4397 132.777 22.5533 132.744 22.6535L132.792 22.6697L132.84 22.6856C132.877 22.5745 132.898 22.4511 132.898 22.3281C132.9 22.0269 132.766 21.7117 132.419 21.6401C132.364 21.6291 132.262 21.6258 132.11 21.6254C131.715 21.6254 131.001 21.6543 130.186 21.6946L130.189 21.7455L130.231 21.717C130.036 21.43 129.742 21.1784 129.296 21.0733C128.754 20.9455 128.233 20.9129 127.839 20.9129C127.423 20.9129 127.15 20.9496 127.149 20.95L127.155 21L127.154 20.9491C126.892 20.9577 126.505 21.0473 126.167 21.2199C125.831 21.3921 125.539 21.6498 125.496 22.0061L125.547 22.0118L125.546 21.9609C125.307 21.9633 125.017 21.9739 124.783 22.022C124.665 22.0464 124.561 22.0794 124.482 22.1295C124.403 22.1783 124.345 22.2528 124.345 22.3473L124.349 22.3868C124.355 22.4259 124.356 22.4658 124.356 22.5057C124.356 22.5464 124.355 22.5875 124.355 22.6282C124.353 22.7463 124.374 22.8798 124.513 22.9662C124.649 23.0512 124.88 23.0985 125.301 23.1087C125.385 23.1103 125.487 23.1123 125.601 23.1139L125.602 23.063L125.552 23.0753C125.657 23.5044 125.887 23.9071 126.333 24.0805C126.728 24.2336 127.349 24.302 127.957 24.3024C128.599 24.3016 129.221 24.2267 129.55 24.0793C130.089 23.8342 130.551 23.4698 130.631 23.0932L130.581 23.0834V23.1343C130.774 23.1343 130.92 23.1343 130.999 23.1343C131.292 23.1339 131.711 23.1229 132.076 23.0647C132.259 23.0354 132.427 22.9947 132.562 22.936C132.696 22.8774 132.801 22.8 132.84 22.686L132.792 22.6697ZM117.299 45.1804L117.298 45.1299C112.091 45.2525 68.597 45.2769 65.2803 45.2769C64.6008 45.2769 63.9115 45.2863 63.2401 45.2863C61.9369 45.2863 60.702 45.2508 59.744 45.0465C58.7843 44.8413 58.1142 44.4699 57.909 43.814L57.8605 43.8291L57.8609 43.88L97.1753 43.4871L122.018 43.2961L122.017 43.2452L121.968 43.2587L121.973 43.2851L121.979 43.3682C121.977 43.5583 121.903 43.9634 121.281 44.3458C120.659 44.7277 119.484 45.0786 117.298 45.1299L117.299 45.1804L117.301 45.2313C119.497 45.1796 120.687 44.829 121.335 44.4329C121.983 44.0371 122.082 43.5877 122.08 43.3682C122.08 43.2856 122.067 43.2355 122.066 43.2318L122.056 43.1939L97.1745 43.3853L57.7913 43.779L57.8117 43.8446C58.0372 44.5563 58.7526 44.939 59.7228 45.1458C60.6955 45.3535 61.9348 45.3881 63.2401 45.3881C63.9123 45.3881 64.6016 45.3787 65.2803 45.3787C68.5978 45.3787 112.089 45.3543 117.301 45.2313L117.299 45.1804ZM87.2927 23.2915L87.3432 23.2976C87.377 22.9955 87.6359 22.7552 87.9592 22.5904C88.2804 22.4251 88.6599 22.3379 88.9029 22.331H88.9054L88.9082 22.3306C88.9082 22.3306 88.9742 22.3216 89.0923 22.3127C89.2107 22.3037 89.3805 22.2948 89.5853 22.2948C89.9733 22.2944 90.4875 22.3269 91.0185 22.4523C91.4378 22.5517 91.7078 22.7833 91.8922 23.0537L91.9081 23.0773L91.9366 23.0761C92.7505 23.0358 93.4654 23.0069 93.8567 23.0069C94.0049 23.0069 94.1095 23.0117 94.1441 23.0195C94.4295 23.0785 94.5395 23.3289 94.5419 23.6074C94.5419 23.7194 94.5224 23.833 94.489 23.9335C94.4666 24.0031 94.39 24.0695 94.2671 24.1224C93.9002 24.2845 93.1792 24.313 92.7452 24.3122C92.6658 24.3122 92.5192 24.3122 92.327 24.3122H92.2855L92.2769 24.3529C92.2191 24.6631 91.7802 25.032 91.2542 25.2661C90.9545 25.4021 90.3349 25.4807 89.703 25.4803C89.1032 25.4803 88.4876 25.4102 88.1155 25.2653C87.7112 25.1085 87.4983 24.7437 87.3965 24.3309L87.3871 24.2926L87.3476 24.2918C87.2344 24.2902 87.1327 24.2886 87.0496 24.2865C86.6343 24.2776 86.4161 24.2263 86.3131 24.1595C86.2129 24.0939 86.204 24.0219 86.2019 23.9071C86.2019 23.8696 86.2036 23.8293 86.2036 23.7865C86.2036 23.7434 86.2019 23.6978 86.1946 23.6506L86.1926 23.6269C86.193 23.5756 86.2194 23.5357 86.2817 23.495C86.4694 23.3729 86.9393 23.344 87.2931 23.3424L87.3379 23.3419L87.3432 23.2976L87.2927 23.2915L87.2923 23.2406C87.0525 23.243 86.763 23.2536 86.5285 23.3016C86.4108 23.3261 86.307 23.359 86.2272 23.4091C86.1486 23.458 86.0904 23.5325 86.0908 23.6269L86.094 23.6664C86.1001 23.7059 86.1018 23.7462 86.1018 23.7865C86.1018 23.8269 86.1001 23.8667 86.1001 23.9071C86.0981 24.0251 86.1193 24.1591 86.2585 24.2454C86.3945 24.3309 86.625 24.3781 87.0472 24.3883C87.131 24.3903 87.2328 24.392 87.3464 24.3936L87.3468 24.3427L87.2976 24.3549C87.4026 24.7845 87.6326 25.1871 88.0785 25.3602C88.4742 25.5132 89.0947 25.5817 89.703 25.5821C90.3446 25.5812 90.9663 25.5063 91.2957 25.3589C91.8352 25.1138 92.2973 24.7494 92.3771 24.3728L92.327 24.3631V24.414C92.5192 24.414 92.6658 24.414 92.7452 24.414C93.0379 24.4135 93.4573 24.4026 93.8217 24.3443C94.0045 24.315 94.173 24.2747 94.3078 24.2161C94.4417 24.157 94.5468 24.0797 94.5855 23.9657C94.6225 23.8545 94.6433 23.7308 94.6437 23.6074C94.6457 23.3061 94.5118 22.9914 94.1649 22.9197C94.1103 22.9087 94.0085 22.9055 93.8567 22.9051C93.4609 22.9051 92.7464 22.934 91.9317 22.9743L91.9341 23.0252L91.9761 22.9967C91.7819 22.7101 91.4875 22.458 91.0417 22.3534C90.5006 22.2255 89.979 22.193 89.5853 22.193C89.1692 22.193 88.896 22.2292 88.8944 22.2296L88.9013 22.2801L88.8997 22.2292C88.6375 22.2374 88.2503 22.3269 87.9128 22.4996C87.5769 22.6718 87.2845 22.9299 87.2422 23.2858L87.2927 23.2915ZM181.458 30.9124L181.463 30.8615C181.463 30.8615 181.262 30.842 181.045 30.8163C180.83 30.7911 180.589 30.7556 180.54 30.7349L180.533 30.7532L180.549 30.7402L180.54 30.7349L180.533 30.7532L180.549 30.7402C180.545 30.7381 180.529 30.6999 180.518 30.6465C180.477 30.4564 180.451 30.057 180.436 29.7097C180.421 29.3616 180.416 29.0636 180.416 29.0627L180.415 29.0403L178.751 27.5575L178.803 26.6492L177.629 25.3976L177.452 19.2322L177.403 19.2326C177.204 19.2338 176.996 19.2351 176.787 19.2363L176.736 19.2367V19.2872V19.3027C176.736 20.0428 176.651 21.5668 176.566 22.9039C176.523 23.5728 176.481 24.1949 176.449 24.6497C176.417 25.1049 176.396 25.3919 176.396 25.3927L176.447 25.3964L176.447 25.3455L165.437 25.2743L165.437 25.3251L165.481 25.3508C165.481 25.35 165.672 25.0251 165.966 24.5275C166.408 23.7812 167.082 22.6494 167.695 21.6551C168.307 20.6625 168.865 19.8002 169.053 19.6141C169.124 19.5421 169.224 19.4631 169.341 19.38L169.472 19.2864L169.311 19.2876C161.794 19.343 152.9 19.424 149.147 19.514C142.087 19.6837 126.437 19.9215 119.172 20.1251C111.906 20.3291 81.1521 21.5171 73.3773 21.8905C65.6044 22.2642 51.5608 22.6677 42.0417 23.7238C33.5922 24.6607 23.5153 27.036 20.8697 27.6801L20.8386 27.6878L20.832 27.7192C20.7488 28.1133 20.4126 29.0367 19.7751 29.5236C19.57 29.6812 19.1316 29.9084 18.5688 30.1567L18.5613 30.16L18.5548 30.1657L18.589 30.2036L18.5616 30.1608C16.5819 31.4205 12.7773 32.3675 9.47292 32.9941C7.82048 33.308 6.29226 33.543 5.17721 33.6989C4.06216 33.8553 3.36273 33.9326 3.36098 33.933L3.34921 33.9342L3.33919 33.9407C3.31676 33.9558 2.83185 34.2852 2.81577 36.2749C2.81516 36.369 2.81483 36.461 2.81483 36.551C2.81483 38.3611 2.96035 39.3424 2.96083 39.3444L2.96702 39.3863L5.47129 39.4686L5.47304 39.4177H5.42215C5.42292 41.1529 6.24597 43.2607 6.24662 43.2636L6.29401 43.2452V43.1944H2.40655L2.40769 43.5917H2.45858L2.43407 43.5474C2.43407 43.5474 2.23799 43.6552 1.98812 43.8108L1.89859 43.8665L1.99798 43.902C2.22842 43.9838 2.48337 44.0538 2.69904 44.0542L2.73133 44.0538C2.97911 44.0453 5.42598 44.0143 7.80823 43.9858C10.1912 43.9573 12.5116 43.9309 12.5116 43.9309L12.5109 43.88L12.4981 43.9293L15.1124 44.6137L15.1252 44.5644L15.1249 44.5135C15.1241 44.5135 14.8067 44.5155 14.2707 44.5184C12.6625 44.5269 9.09391 44.5445 6.27699 44.5445C4.39952 44.5445 2.85363 44.5367 2.4506 44.5135C1.92021 44.483 1.53627 44.4129 1.27338 44.3433L1.24748 44.3364L1.22713 44.3543C1.04249 44.518 0.901574 44.6686 0.896484 44.8221L0.898235 44.8482C0.906337 44.9113 0.942126 44.9687 1.00014 45.0143C1.20262 45.1714 1.67926 45.2631 2.68027 45.3795C3.68002 45.4943 5.19757 45.6242 7.45311 45.8294C11.7502 46.2203 20.1309 46.7732 22.806 46.947L22.8588 46.9503L22.9701 42.5002V42.4994C22.9701 38.3953 24.6432 34.6704 27.3447 31.971C30.0465 29.2716 33.7758 27.5982 37.8892 27.5982C46.1103 27.5982 52.8001 34.2828 52.8091 42.5018V42.5026L53.0725 48.5898H128.37V42.5181C128.37 38.4047 130.043 34.6748 132.744 31.973C135.446 29.2716 139.176 27.5982 143.289 27.5982C150.296 27.5982 156.186 32.4543 157.78 38.9771L157.791 39.0191L157.834 39.0154C161.925 38.6681 175.183 37.5456 177.451 37.3942C178.806 37.3034 179.755 37.281 180.364 37.281C180.963 37.281 181.229 37.303 181.23 37.3026L181.32 37.3099L181.279 37.2293C181.082 36.8376 180.85 36.483 180.85 36.4822L180.807 36.5098L180.858 36.5159L181.515 30.8664L181.463 30.8615L181.458 30.9124L181.408 30.9063L180.755 36.5225L180.765 36.5375C180.765 36.5375 180.822 36.6251 180.904 36.7615C180.985 36.8978 181.091 37.0823 181.189 37.2749L181.234 37.2521L181.238 37.2012C181.237 37.2012 180.965 37.1792 180.364 37.1792C179.753 37.1792 178.801 37.202 177.444 37.2924C175.173 37.4442 161.917 38.5667 157.825 38.914L157.83 38.9649L157.879 38.9527C156.274 32.3855 150.344 27.4969 143.289 27.4965C135.006 27.4969 128.268 34.2351 128.268 42.5181V48.4881H53.1702L52.9109 42.4994L52.86 42.5014H52.9109C52.9019 34.2262 46.1669 27.4969 37.8892 27.4965C29.6066 27.4969 22.8685 34.2351 22.8683 42.4994H22.9192L22.8683 42.4981L22.7584 46.8949L22.8093 46.8961L22.8127 46.8452C20.1379 46.6718 11.7569 46.1185 7.46215 45.728C4.8846 45.4939 3.26998 45.3571 2.29605 45.2305C1.80922 45.1674 1.4822 45.1059 1.27879 45.0383C1.17701 45.0049 1.10673 44.9695 1.06362 44.9349C1.02038 44.8999 1.00413 44.8693 0.999044 44.8347L0.99827 44.8221C0.993303 44.7419 1.11227 44.5852 1.29374 44.4309L1.26035 44.3926L1.24748 44.4419C1.51767 44.5131 1.90828 44.5844 2.44474 44.6153C2.85555 44.6385 4.39806 44.6462 6.27699 44.6462C10.0336 44.6462 15.1256 44.6153 15.1256 44.6153L15.5117 44.6128L12.5173 43.8291H12.5104C12.5104 43.8291 3.22992 43.9345 2.72782 43.9521L2.69904 43.9525C2.50548 43.9529 2.25676 43.8865 2.03218 43.8059L2.01499 43.8539L2.04203 43.8971C2.28949 43.7432 2.48305 43.6365 2.48305 43.6365L2.50963 43.6219L2.50866 43.2961H6.3686L6.34157 43.2269C6.34157 43.2269 6.29067 43.0962 6.21384 42.8727C5.98373 42.2021 5.52345 40.6965 5.52394 39.4177V39.3684L3.01266 39.2862L3.01108 39.3371L3.06132 39.3297C3.06132 39.3289 3.02541 39.0871 2.98913 38.618C2.95285 38.1486 2.91662 37.4532 2.91662 36.551C2.91662 36.4614 2.91694 36.3698 2.91755 36.2757C2.92553 35.2884 3.05004 34.7208 3.17011 34.4037C3.23024 34.2449 3.28891 34.1488 3.33105 34.0934L3.38036 34.0381L3.39212 34.0279L3.39436 34.0263L3.38642 34.0149L3.39387 34.0263H3.39436L3.38642 34.0149L3.39387 34.0263L3.36655 33.9835L3.37209 34.034C3.37291 34.034 6.1827 33.7229 9.49202 33.0943C12.802 32.4653 16.6086 31.5219 18.6162 30.2467L18.6199 30.2443L18.6234 30.241L18.5893 30.2032L18.6098 30.25C19.1767 29.9992 19.6161 29.7732 19.8372 29.6046C20.5075 29.0876 20.8425 28.1524 20.9315 27.7403L20.8818 27.7298L20.8938 27.779C23.5371 27.1353 33.6126 24.7608 42.0527 23.8248C51.5648 22.7699 65.6077 22.3656 73.3821 21.9923C81.1554 21.6189 111.911 20.4304 119.175 20.2269C126.438 20.0233 142.089 19.7855 149.15 19.6157C152.9 19.5258 161.795 19.4447 169.311 19.3894L169.311 19.3385L169.281 19.2969C169.162 19.382 169.059 19.4635 168.981 19.5421C168.84 19.6829 168.554 20.1059 168.192 20.6711C167.11 22.3636 165.393 25.2995 165.393 25.2995L165.349 25.3756L176.494 25.4477L176.497 25.4001C176.497 25.3992 176.837 20.7944 176.837 19.3027V19.2872H176.787L176.787 19.3381C176.997 19.3369 177.204 19.3356 177.403 19.3344L177.403 19.2835L177.352 19.2851L177.529 25.4391L178.699 26.687L178.646 27.6011L180.331 29.1014L180.365 29.0636L180.314 29.0644C180.314 29.0644 180.321 29.4817 180.343 29.9059C180.355 30.1181 180.37 30.3322 180.391 30.4979C180.402 30.581 180.414 30.6518 180.428 30.706L180.452 30.7764L180.503 30.8293C180.584 30.8607 180.812 30.8904 181.033 30.9173C181.251 30.9433 181.454 30.9629 181.454 30.9629L181.458 30.9124Z" fill="black"/>
<path d="M174.678 15.871L174.623 15.7855C174.622 15.7863 173.21 16.6987 172.193 17.4581C171.695 17.8298 171.02 18.2068 170.403 18.5561C169.785 18.9075 169.228 19.2251 168.944 19.5068C168.868 19.5842 168.763 19.7238 168.627 19.9193C167.684 21.2799 165.35 25.2736 165.349 25.2748L165.26 25.4271L176.541 25.5L176.548 25.4051C176.548 25.4031 176.888 20.8028 176.888 19.3045C176.888 19.1489 176.885 19.0268 176.876 18.9413C176.788 18.0842 176.304 16.0778 176.303 16.0754L176.287 16.0086L174.655 15.7647L174.623 15.7855L174.678 15.871L174.663 15.972L176.189 16.2L176.204 16.099L176.105 16.123C176.105 16.1243 176.226 16.6246 176.358 17.2313C176.489 17.8375 176.632 18.5508 176.673 18.9621C176.681 19.0337 176.685 19.1526 176.685 19.3045C176.685 20.0426 176.6 21.5666 176.514 22.9028C176.472 23.5709 176.43 24.1931 176.398 24.6478C176.366 25.1026 176.345 25.3893 176.345 25.3901L176.446 25.3974L176.447 25.2956L165.437 25.2244L165.436 25.3261L165.524 25.3779C165.525 25.377 165.715 25.0517 166.009 24.5542C166.451 23.8083 167.125 22.6764 167.738 21.6826C168.045 21.1859 168.336 20.7234 168.575 20.3614C168.812 20.0007 169.003 19.7348 169.088 19.6509C169.332 19.405 169.888 19.0809 170.503 18.7332C171.12 18.3839 171.799 18.0053 172.314 17.6213C172.818 17.2447 173.423 16.8282 173.902 16.5062C174.381 16.1841 174.732 15.9573 174.733 15.9565L174.678 15.871Z" fill="black"/>
<path d="M177.394 19.0658L177.399 19.1163L178.335 19.0332L178.33 18.9819C178.33 18.9811 178.296 18.6489 178.296 18.1607C178.295 17.3741 178.387 16.1869 178.845 15.3669L178.897 15.2736L178.792 15.292C178.788 15.2936 177.236 15.5639 176.248 16.3957L176.225 16.4157L176.232 16.4462C176.372 17.0533 176.659 18.3341 176.722 18.9559C176.73 19.0312 176.734 19.1509 176.734 19.3036C176.734 20.0446 176.648 21.5685 176.563 22.9052C176.521 23.5737 176.478 24.1954 176.447 24.6502C176.415 25.105 176.394 25.392 176.394 25.3928L176.392 25.416L176.408 25.4327C176.409 25.4331 178.151 27.1615 178.662 27.6175L178.741 27.6875L178.8 26.6493L177.627 25.3977L177.445 19.0642L177.394 19.0658L177.343 19.0674L177.526 25.4392L178.696 26.6871L178.645 27.5764L178.696 27.5796L178.73 27.5413C178.477 27.3162 177.914 26.7702 177.415 26.2816C176.916 25.7926 176.481 25.3615 176.48 25.3603L176.444 25.3965L176.495 25.4001C176.495 25.3993 176.835 20.797 176.835 19.3036C176.835 19.1488 176.832 19.0275 176.823 18.9457C176.759 18.3109 176.472 17.0325 176.331 16.423L176.281 16.4348L176.314 16.4735C176.791 16.07 177.416 15.7984 177.921 15.6291C178.174 15.5444 178.396 15.4853 178.555 15.4471C178.714 15.4088 178.809 15.3925 178.809 15.3921L178.801 15.342L178.756 15.3172C178.282 16.1685 178.195 17.3664 178.194 18.1607C178.194 18.6538 178.229 18.9909 178.229 18.9925L178.279 18.9872L178.275 18.9363L177.342 19.0194L177.343 19.0674L177.394 19.0658Z" fill="black"/>
<path d="M178.694 27.5807L178.728 27.5424C178.475 27.3173 177.912 26.7713 177.413 26.2827C176.914 25.7937 176.479 25.3626 176.478 25.3613L176.463 25.3471L169.686 25.3031L169.703 25.3675C169.867 25.99 170.501 27.027 172.743 27.928C175.422 29.0057 176.916 29.1254 178.73 29.125C179.238 29.125 179.77 29.1156 180.36 29.1156H180.494L178.728 27.5424L178.694 27.5807L178.66 27.6186L180.327 29.1026L180.36 29.0647V29.0138C179.769 29.0138 179.236 29.0232 178.73 29.0232C176.921 29.0224 175.452 28.9068 172.781 27.8335C170.556 26.9382 169.956 25.926 169.801 25.3414L169.752 25.3544L169.752 25.4053L176.442 25.4485V25.3976L176.406 25.4338C176.407 25.4342 178.149 27.1626 178.66 27.6186L178.694 27.5807Z" fill="black"/>
</svg>
