<svg width="107" height="74" viewBox="0 0 107 74" fill="none" xmlns="http://www.w3.org/2000/svg">
<path d="M106.531 21.1988L106.658 21.1587C106.295 20.0465 105.083 19.0335 103.949 18.726C102.899 18.4481 100.164 18.0326 99.0999 18.031C99.0398 18.031 98.984 18.0326 98.9335 18.0352C98.4226 18.0695 97.9834 18.4629 97.641 18.9491C97.2986 19.439 97.0535 20.0349 96.9716 20.5348C96.8669 21.1756 96.7696 22.3341 96.7154 23.0471L96.8478 23.0571L96.8446 22.9253L94.9434 22.9664L97.8516 25.8516L97.9138 25.8458C98.95 25.7524 100.573 25.619 101.33 25.619L101.451 25.6206L101.562 25.6216C102.138 25.6216 103.058 25.5278 103.931 25.3938C104.807 25.2588 105.622 25.0885 106.016 24.9155C106.464 24.7072 106.654 24.1799 106.761 23.7221C106.864 23.2607 106.871 22.8499 106.871 22.8446L106.871 22.8351L106.661 21.1703L106.658 21.1587L106.531 21.1988L106.399 21.2151L106.606 22.8589L106.738 22.8425L106.605 22.8404C106.605 22.8404 106.604 22.9359 106.59 23.0888C106.569 23.3182 106.52 23.671 106.411 23.9879C106.303 24.3075 106.132 24.5775 105.907 24.6745C105.573 24.8248 104.752 25.002 103.891 25.1333C103.028 25.2662 102.111 25.3585 101.562 25.358L101.458 25.3569L101.33 25.3553C100.548 25.3559 98.9303 25.4893 97.8898 25.5831L97.9015 25.7145L97.9956 25.6211L95.5713 23.2164L96.9711 23.1863L96.9802 23.0666C97.0339 22.3579 97.1328 21.1977 97.2338 20.577C97.3066 20.1267 97.5405 19.554 97.859 19.0994C98.1769 18.6417 98.5794 18.3158 98.9494 18.2984C98.993 18.2957 99.0436 18.2947 99.0999 18.2947C100.111 18.2931 102.871 18.7113 103.88 18.9807C104.921 19.2529 106.092 20.2437 106.404 21.2383L106.531 21.1988Z" fill="black"/>
<path d="M12.4822 23.0914L12.4854 22.9596L10.8953 22.9253L10.8926 23.0571L11.025 23.0471C10.9702 22.3341 10.8729 21.1761 10.7682 20.5348C10.6858 20.0349 10.4407 19.439 10.0988 18.9491C9.75643 18.4629 9.31727 18.0695 8.80634 18.0352C8.75584 18.0326 8.70052 18.031 8.63991 18.031C7.57552 18.0326 4.84118 18.4481 3.79062 18.726C2.65605 19.0335 1.44493 20.0465 1.08287 21.1587L1.07913 21.1703L0.869141 22.8351V22.8446C0.869672 22.8499 0.876043 23.2607 0.979186 23.7221C1.08605 24.1799 1.27532 24.7072 1.72458 24.9155C2.11748 25.0885 2.93306 25.2588 3.80871 25.3938C4.68223 25.5278 5.60201 25.6216 6.1778 25.6216L6.28891 25.6206L6.41067 25.619C7.16776 25.619 8.78985 25.7524 9.82606 25.8458L9.88826 25.8516L12.7965 22.9664L12.4854 22.9596L12.4822 23.0914L12.3881 22.9981L9.74418 25.6211L9.83829 25.7145L9.84999 25.5831C8.80953 25.4893 7.19221 25.3559 6.41067 25.3553L6.28253 25.3569L6.1778 25.358C5.6286 25.3585 4.71199 25.2662 3.8491 25.1333C2.98781 25.002 2.16691 24.8248 1.83356 24.6745C1.53157 24.549 1.33274 24.0997 1.23863 23.6647C1.19025 23.4495 1.16422 23.2417 1.15039 23.0888C1.13657 22.9359 1.1355 22.8404 1.13497 22.8404L1.00206 22.8425L1.13391 22.8589L1.34125 21.2151L1.2094 21.1988L1.33593 21.2383C1.64802 20.2437 2.81875 19.2529 3.85975 18.9807C4.86938 18.7113 7.62922 18.2931 8.63991 18.2947C8.69627 18.2947 8.74733 18.2957 8.79092 18.2984C9.16043 18.3152 9.5629 18.6417 9.88083 19.0994C10.1993 19.554 10.4332 20.1267 10.5061 20.577C10.6076 21.1977 10.706 22.3579 10.7602 23.0672L10.7692 23.1863L12.4796 23.2233L12.4822 23.0914Z" fill="black"/>
<path d="M106.245 21.2624L106.308 21.2418C105.993 20.3105 104.912 19.3555 103.858 19.0718C102.838 18.8013 100.126 18.3894 99.1016 18.3889C99.049 18.3889 99.0001 18.3899 98.957 18.3926C98.588 18.4173 98.2291 18.7359 97.9325 19.1572C97.6374 19.5807 97.4083 20.1133 97.3301 20.5921C97.2254 21.2292 97.1265 22.4194 97.0765 23.0749L97.0563 23.338L97.0547 23.3597L98.3913 25.4453L98.4317 25.4416C99.4307 25.3562 100.678 25.2623 101.331 25.2623L101.563 25.265C102.649 25.2629 105.163 24.9016 105.87 24.5894C106.113 24.4782 106.258 24.1834 106.359 23.8517C106.458 23.5194 106.506 23.144 106.512 22.8597V22.855L106.31 21.2482L106.308 21.2418L106.245 21.2624L106.179 21.2708L106.38 22.8661L106.446 22.8581L106.38 22.8566C106.373 23.1292 106.326 23.4968 106.232 23.8142C106.138 24.1333 105.989 24.3959 105.816 24.4692C105.158 24.765 102.62 25.1347 101.563 25.1331L101.331 25.1305C100.667 25.1305 99.4211 25.2244 98.42 25.3103L98.4258 25.3762L98.4817 25.3409L97.1903 23.3264L97.2089 23.0849C97.2588 22.4315 97.3583 21.2397 97.4614 20.6132C97.5348 20.1592 97.7575 19.6387 98.042 19.2326C98.3248 18.8245 98.6731 18.5376 98.965 18.5239C99.0043 18.5218 99.0506 18.5207 99.1016 18.5207C100.099 18.5197 102.824 18.9326 103.824 19.1994C104.829 19.4641 105.893 20.4097 106.182 21.2835L106.245 21.2624Z" fill="black"/>
<path d="M1.50234 21.2624L1.5656 21.2835C1.85429 20.4097 2.9176 19.4641 3.92351 19.1994C4.92303 18.9326 7.64781 18.5197 8.64521 18.5207C8.69625 18.5207 8.74198 18.5218 8.78132 18.5239C9.0732 18.5376 9.42146 18.8245 9.70431 19.2326C9.98875 19.6387 10.212 20.1592 10.2859 20.6132C10.388 21.2397 10.4874 22.4315 10.5374 23.0849L10.5555 23.3264L9.26569 25.3409L9.3215 25.3762L9.32734 25.3103C8.32569 25.2244 7.07893 25.1305 6.41542 25.1305L6.18256 25.1331C5.1272 25.1347 2.5885 24.765 1.93083 24.4692C1.75751 24.3959 1.60812 24.1333 1.51508 23.8142C1.42045 23.4968 1.37367 23.1292 1.36729 22.8566L1.30083 22.8581L1.36675 22.8661L1.56825 21.2708L1.50234 21.2624L1.4364 21.2545L1.23438 22.8545V22.8597C1.24129 23.144 1.2886 23.5194 1.38749 23.8517C1.4885 24.1834 1.63416 24.4782 1.8766 24.5894C2.58425 24.9016 5.09796 25.2629 6.18362 25.265L6.41648 25.2623C7.06883 25.2623 8.31613 25.3562 9.31566 25.4416L9.35605 25.4453L10.6916 23.3597L10.6698 23.0749C10.6198 22.4194 10.5209 21.2292 10.4173 20.5921C10.3386 20.1133 10.1089 19.5802 9.81381 19.1572C9.51714 18.7359 9.15827 18.4173 8.78929 18.3926C8.74623 18.3899 8.69785 18.3889 8.64521 18.3889C7.6207 18.3894 4.90922 18.8013 3.88895 19.0718C2.83467 19.3555 1.75379 20.3105 1.43904 21.2418L1.43694 21.2482L1.4364 21.2545L1.50234 21.2624Z" fill="black"/>
<path d="M35.8668 34.1841V34.25H71.6749L73.1657 24.8458H33.9863L35.8115 34.25H35.8668V34.1841L35.9322 34.1714L34.1469 24.9776H73.0099L71.5611 34.1182H35.8668V34.1841Z" fill="black"/>
<path d="M27.0648 24.9112L27 24.9255L27.001 24.9302L27.0016 24.9323L27.1175 25.4259L27.1291 25.4766H80.6166L80.7458 24.9313L80.7469 24.9276L80.7479 24.9181L80.7554 24.8453H26.9824L27 24.9255L27.0648 24.9112V24.9772H80.682V24.9112L80.6155 24.9044V24.9054L80.5113 25.3447H27.235L27.1308 24.9012L27.0659 24.9165L27.1308 24.9023L27.1297 24.8975L27.0648 24.9112Z" fill="black"/>
<path d="M78.0597 35.6842V35.6183H29.5332L30.2648 38.6611L30.2653 38.6627C30.2669 38.6695 30.4269 39.2707 31.0149 39.8729C31.6024 40.4757 32.6211 41.0747 34.3187 41.0742C37.6836 41.0742 71.3272 41.0742 73.1737 41.0742C75.0351 41.0716 77.0612 40.2484 77.3776 38.7175C77.5211 38.0061 77.8364 36.7779 78.124 35.7005L78.0597 35.6837H77.9933V35.6842H78.0597H78.1262V35.6837V35.1769L77.9954 35.6668C77.7077 36.7452 77.3919 37.9734 77.2473 38.6922C76.9693 40.1139 75.0042 40.9445 73.1737 40.9424C71.3272 40.9424 37.6836 40.9424 34.3187 40.9424C32.6525 40.9413 31.6763 40.3597 31.1101 39.7812C30.8273 39.4917 30.6476 39.2021 30.5391 38.9854C30.4849 38.8773 30.4482 38.7871 30.4253 38.7249C30.4025 38.6621 30.3939 38.6294 30.3934 38.6289L30.3296 38.6458L30.394 38.6305L29.7017 35.7501H78.1262V35.6842H78.0597Z" fill="black"/>
<path d="M29.2536 34.1841V34.25H78.5139L78.5272 34.2015C78.633 33.817 78.7015 33.575 78.7015 33.5745V33.5739L78.7765 33.2528L80.7426 24.9281L81.1488 21.4755L81.0834 21.4676C79.0243 21.2155 70.7978 20.3597 54.0409 20.3597C36.1472 20.3597 27.9745 21.3363 26.6586 21.5103L26.5938 21.5188L26.9962 24.9281L28.9618 33.2528L29.201 34.25H29.2536V34.1841L29.3185 34.1688L29.091 33.2227L27.127 24.9054L26.7336 21.5678L26.6677 21.5757L26.6761 21.6411C27.9851 21.4676 36.152 20.4915 54.0409 20.4915C70.793 20.4915 79.0142 21.3474 81.0669 21.5984L81.0754 21.533L81.0089 21.5256L80.6113 24.9054L78.6473 33.2227L78.5729 33.5418L78.6377 33.5565L78.5734 33.5391C78.5734 33.5391 78.5048 33.7817 78.399 34.1667L78.4633 34.1841V34.1182H29.2536V34.1841Z" fill="black"/>
<path d="M15.8262 56.3383L15.8814 56.3751L15.9367 56.3035C16.2079 55.9732 17.4796 54.626 20.3107 54.625C23.5725 54.625 84.8499 54.625 86.196 54.625C86.8457 54.6234 88.2876 55.0662 89.5524 55.5108C90.1862 55.7329 90.7779 55.9549 91.2112 56.1216C91.6445 56.2882 91.9183 56.3988 91.9188 56.3994L91.9438 56.3383V56.2723H15.8262V56.3383V56.4042H92.2836L91.9688 56.2771C91.9683 56.2771 90.8672 55.832 89.5966 55.3863C88.3238 54.9414 86.892 54.4952 86.196 54.4932C84.8504 54.4932 23.5725 54.4932 20.3107 54.4932C17.0235 54.4925 15.7772 56.2903 15.7714 56.3008L15.7007 56.4042H15.8262V56.3383ZM86.3997 50.6767V50.6107C79.3466 50.6107 19.6589 50.6107 18.7615 50.6107C17.9044 50.6123 12.7776 51.4218 9.39516 52.8841L9.3457 52.9058L9.35687 52.9585C9.76784 54.8359 10.2522 56.5877 10.7727 57.7495C11.9562 60.4015 13.2141 61.444 15.0239 61.4414H92.7217C94.5309 61.444 95.7888 60.4015 96.9723 57.7495C97.4631 56.6553 97.9197 55.0347 98.3153 53.2817L98.327 53.2295L98.2781 53.2074C96.6156 52.4485 92.0135 50.6113 86.3997 50.6107V50.6767V50.7426C91.9842 50.7426 96.5704 52.573 98.2223 53.3271L98.2504 53.2675L98.1856 53.2527C97.7916 55.0014 97.3344 56.6172 96.8511 57.6955C95.6649 60.334 94.4682 61.3069 92.7217 61.3096H15.0239C13.2768 61.3069 12.0801 60.334 10.8939 57.6955C10.3809 56.5503 9.89651 54.8026 9.48713 52.9305L9.42174 52.9442L9.44832 53.0049C12.7983 51.5531 17.9432 50.741 18.7615 50.7426C19.6589 50.7426 79.3466 50.7426 86.3997 50.7426V50.6767Z" fill="black"/>
<path d="M85.5966 22.1494L85.5647 22.2074C85.9932 22.4405 86.5254 22.9072 87.056 23.3533C87.5882 23.7989 88.1166 24.225 88.5685 24.3801C89.3719 24.6511 91.3199 25.1553 92.1993 26.0808L92.3003 25.9959L92.2992 25.9943L92.2466 26.0344L92.2429 26.0998L98.2539 26.4141L98.223 26.3218C98.105 25.9721 98.03 25.7596 98.03 25.7596L98.0253 25.7454L95.0942 22.8376L95.0469 22.884L95.1059 22.8534C95.1059 22.8534 92.7458 18.4448 90.3114 13.9259C87.8758 9.40499 85.3717 4.78225 85.0692 4.33137C84.9527 4.15735 84.8246 3.95537 84.6459 3.74022L84.3594 3.39481L84.5337 3.80772C85.8204 6.8579 88.7025 13.7535 89.1491 15.3382C89.2278 15.6182 89.2666 15.9093 89.2666 16.2109C89.2687 17.9702 87.9375 20.079 85.5535 22.0993L85.4801 22.1615L85.5647 22.2074L85.5966 22.1494L85.6396 22.1995C88.0369 20.1655 89.3974 18.0371 89.3995 16.2109C89.3995 15.8982 89.3591 15.5945 89.2773 15.3028C88.8232 13.695 85.9443 6.81149 84.656 3.7571L84.5949 3.78241L84.5433 3.82406C84.7161 4.03184 84.8405 4.22801 84.9586 4.40467C85.2488 4.83604 87.7615 9.47144 90.1944 13.9882C91.4114 16.2473 92.6097 18.4791 93.504 20.146C93.9511 20.9797 94.3222 21.6716 94.5817 22.1557C94.8406 22.6398 94.9884 22.9151 94.9884 22.9151L94.9932 22.9241L97.9205 25.8277L97.9673 25.7812L97.9046 25.8029C97.9051 25.8034 97.9795 26.0143 98.097 26.364L98.1603 26.3429L98.1635 26.277L92.1073 25.9611L92.1945 26.075L92.2471 26.0354L92.2955 25.9901C91.3683 25.0219 89.407 24.5277 88.6116 24.2551C88.199 24.1159 87.6706 23.6972 87.1416 23.2526C86.6115 22.8081 86.0793 22.3382 85.6285 22.0919L85.5966 22.1494Z" fill="black"/>
<path d="M19.1559 24.3146L19.1777 24.3773C19.6381 24.2191 20.1793 23.7783 20.7227 23.3216C21.2645 22.8654 21.8062 22.3924 22.2347 22.1746C22.2805 22.1514 22.3352 22.1261 22.3937 22.1013L22.4915 22.0602L22.4112 21.9911C20.1049 20.004 18.8209 17.9379 18.8225 16.2098C18.8225 15.9076 18.8613 15.616 18.9405 15.3354C19.4159 13.6437 22.6643 5.9096 23.7909 3.24808L23.8882 3.0171L23.6888 3.17003C23.1375 3.59243 22.8887 4.00693 22.6728 4.32861C22.3703 4.77949 19.8662 9.40223 17.4306 13.9232C14.9967 18.442 12.6361 22.8507 12.6361 22.8507L12.6951 22.8812L12.6478 22.8348L9.71674 25.7426L9.71193 25.7569C9.7114 25.7569 9.63803 25.9657 9.52159 26.3106L9.49023 26.4023L15.5379 26.087L15.556 26.068C16.4396 25.1488 18.3765 24.6473 19.1777 24.3773L19.1559 24.3146L19.1346 24.2523C18.3414 24.5234 16.3917 25.0154 15.4597 25.9768L15.5081 26.0226L15.5044 25.9567L9.58115 26.2658L9.58434 26.3317L9.6476 26.3522C9.76351 26.0084 9.83687 25.8012 9.8374 25.8001L9.77468 25.7785L9.82146 25.8249L12.7488 22.9213L12.7536 22.9124C12.7541 22.9118 12.9014 22.6371 13.1603 22.153C14.0678 20.4591 16.345 16.2129 18.4599 12.2937C20.5733 8.37654 22.5298 4.77844 22.7834 4.40191C23.0024 4.07548 23.2369 3.68366 23.7702 3.27444L23.7298 3.22223L23.6681 3.19692C22.5404 5.8632 19.2957 13.5846 18.8124 15.3001C18.73 15.5922 18.6896 15.8965 18.6896 16.2098C18.6917 18.0038 20.0044 20.0895 22.3241 22.0907L22.3676 22.0407L22.3416 21.98C22.281 22.0058 22.2236 22.0317 22.1736 22.0575C21.7201 22.2896 21.1783 22.7657 20.6365 23.2214C20.0969 23.677 19.5552 24.1105 19.1341 24.2523L19.1559 24.3146Z" fill="black"/>
<path d="M99.9136 36.3606H99.98C99.98 36.359 99.9805 34.0481 99.7259 31.9435C99.527 30.3092 98.6232 27.5117 98.2218 26.3199L98.2075 26.2777L92.0821 25.9576L92.197 26.0778C92.289 26.1738 92.3719 26.2719 92.4373 26.3747C92.7956 26.9374 93.5352 28.6655 94.1801 30.2439C94.5023 31.0338 94.8021 31.7879 95.0217 32.3443C95.2408 32.9012 95.379 33.2592 95.3795 33.2598L95.4412 33.2365V33.1706H93.709L93.7202 33.246C93.7617 33.524 93.8026 33.91 93.8026 34.3508C93.8032 35.2289 93.6394 36.3226 93.0019 37.2143C92.3645 38.1061 91.2554 38.8069 89.3287 38.9019C87.3769 38.9968 85.0387 39.0284 82.7892 39.0284C80.7343 39.0284 78.7528 39.002 77.2062 38.9736L77.16 38.9725L77.1429 39.0147C76.6559 40.2366 74.8552 40.9427 73.1714 40.9406C71.3249 40.9406 37.6813 40.9406 34.3164 40.9406C31.8458 40.9385 30.8893 39.6639 30.5496 39.0073L30.5304 38.9704L30.4889 38.9709C28.9253 39.001 26.8933 39.0284 24.7831 39.0284C22.5337 39.0284 20.1954 38.9968 18.2432 38.9019C16.3169 38.8069 15.2079 38.1061 14.5699 37.2149C13.9329 36.3231 13.7692 35.2294 13.7697 34.3514C13.7697 33.91 13.8107 33.524 13.8521 33.246L13.8633 33.1706H12.2997V33.2365L12.3619 33.2598C12.3624 33.2592 12.5001 32.9012 12.7197 32.3443C13.3758 30.6768 14.7634 27.2221 15.303 26.3747C15.3706 26.2692 15.4572 26.1675 15.5524 26.0688L15.6683 25.9486L9.53237 26.2687L9.51802 26.3114C9.11874 27.498 8.21013 30.305 8.01129 31.9435C7.75662 34.0481 7.75717 36.359 7.75717 36.3606H7.82363L7.76033 36.3395L7.50195 37.1073L7.50302 37.1205C7.50302 37.121 7.88422 42.8311 8.22289 46.0664C8.38399 47.6073 8.70034 49.7257 9.11504 51.8087L9.13098 51.891L9.20753 51.8562C12.5458 50.3384 17.9194 49.4868 18.7573 49.4884C19.6547 49.4884 79.3424 49.4884 86.3955 49.4884C92.2852 49.4878 97.0654 51.5239 98.4637 52.1863L98.5403 52.2227L98.5573 52.1399C99.0033 49.9519 99.3441 47.689 99.5143 46.0664C99.8529 42.8311 100.234 37.121 100.234 37.1205L100.234 37.1073L99.9768 36.3395L99.9136 36.3606L99.8508 36.3811L100.104 37.1368L100.167 37.1163L100.101 37.1115C100.101 37.1126 100.077 37.4685 100.036 38.0544C99.913 39.8115 99.6355 43.6301 99.3819 46.0527C99.2123 47.6701 98.872 49.9303 98.427 52.114L98.4924 52.1272L98.5206 52.0676C97.1122 51.4005 92.3161 49.357 86.3955 49.3565C79.3424 49.3565 19.6547 49.3565 18.7573 49.3565C17.8806 49.3581 12.5256 50.2066 9.15224 51.7359L9.17989 51.796L9.24528 51.7834C8.83165 49.7046 8.51585 47.5889 8.35529 46.0527C8.18622 44.4374 8.00596 42.202 7.8688 40.3705C7.79968 39.4545 7.74175 38.6403 7.70081 38.0544C7.65934 37.4685 7.63593 37.1126 7.63593 37.1115L7.56948 37.1163L7.63222 37.1368L7.88954 36.3711V36.3606C7.88954 36.359 7.88954 35.7842 7.92144 34.9457C7.95334 34.1072 8.01661 33.0061 8.14314 31.9593C8.33773 30.3456 9.24581 27.5354 9.64403 26.3531L9.58076 26.3325L9.58447 26.3979L15.5077 26.0889L15.5046 26.0235L15.4562 25.9776C15.3573 26.0804 15.2653 26.188 15.1909 26.304C14.8187 26.891 14.0845 28.6117 13.438 30.1943C12.792 31.7758 12.238 33.2128 12.238 33.2128L12.2035 33.3025H13.7862V33.2365L13.7208 33.2265C13.6783 33.5097 13.6368 33.9021 13.6368 34.3514C13.6368 35.2447 13.8011 36.3653 14.4614 37.2908C15.1223 38.2179 16.2813 38.9393 18.2368 39.0337C20.1922 39.1286 22.5321 39.1603 24.7831 39.1603C26.8944 39.1603 28.9275 39.1323 30.4916 39.1028L30.49 39.0368L30.431 39.0669C30.7803 39.7535 31.7958 41.0745 34.3164 41.0724C37.6813 41.0724 71.3249 41.0724 73.1714 41.0724C74.8871 41.0698 76.733 40.37 77.2668 39.0637L77.2046 39.0395L77.2036 39.1054C78.7507 39.1339 80.7333 39.1603 82.7892 39.1603C85.0403 39.1603 87.3796 39.1286 89.335 39.0337C91.2905 38.9393 92.4501 38.2174 93.1104 37.2908C93.7712 36.3648 93.9355 35.2442 93.9355 34.3508C93.9355 33.9015 93.8941 33.5097 93.8521 33.2265L93.7861 33.2365V33.3025H95.5379L95.5034 33.2128C95.5034 33.2128 94.9489 31.7758 94.3029 30.1943C93.6564 28.6117 92.9216 26.891 92.5495 26.304C92.4777 26.1912 92.3889 26.0868 92.2932 25.9871L92.2454 26.0325L92.2416 26.0978L98.1554 26.4069L98.1591 26.341L98.0958 26.362C98.4961 27.5486 99.3989 30.3493 99.594 31.9593C99.7206 33.0061 99.7838 34.1072 99.8157 34.9457C99.8471 35.7842 99.8471 36.359 99.8471 36.3606V36.3711L99.8508 36.3811L99.9136 36.3606Z" fill="black"/>
<path d="M15.0223 61.376V61.5078H92.5989L92.4665 61.3043C91.6377 60.0302 89.5339 57.5269 85.808 57.5259C80.8906 57.5259 21.8973 57.5259 19.8892 57.5259C19.0188 57.528 17.9736 57.9772 16.9953 58.6675C16.0187 59.3595 15.1117 60.2955 14.5444 61.2952L14.4434 61.4736L14.6491 61.4909C14.7703 61.5014 14.8942 61.5078 15.0223 61.5078V61.376V61.2441C14.9027 61.2441 14.7868 61.2383 14.6714 61.2283L14.6603 61.3597L14.7762 61.4246C15.3179 60.4679 16.2016 59.5529 17.15 58.8822C18.0969 58.2108 19.1119 57.7873 19.8892 57.7896C21.8973 57.7896 80.8906 57.7896 85.808 57.7896C89.401 57.7883 91.433 60.2047 92.2433 61.4472L92.3549 61.376V61.2441H15.0223V61.376Z" fill="black"/>
<path d="M85.0133 4.36588L85.1233 4.29205C85.0919 4.24511 85.059 4.19396 85.0223 4.13964L84.791 4.26779L93.5029 23.2296L96.426 24.3086V24.1187V24.0639L95.1404 22.7888L95.0463 22.8816L95.1638 22.8199C95.1638 22.8199 92.8037 18.4113 90.3692 13.8924C89.1522 11.6327 87.9167 9.34562 86.948 7.56846C86.4636 6.67935 86.0463 5.91786 85.731 5.35096C85.4147 4.78248 85.2052 4.41439 85.1239 4.29257L85.1233 4.29205L85.0133 4.36588L84.9027 4.43865C84.9697 4.53779 85.1845 4.91379 85.4981 5.47805C86.5992 7.45983 88.9577 11.8268 91.0397 15.6975C92.0812 17.6329 93.0531 19.4443 93.7655 20.7722C94.4774 22.1001 94.9277 22.9417 94.9288 22.9438L94.9384 22.9612L96.1989 24.2116L96.293 24.1187L96.3393 23.9953L93.699 23.0208L85.0329 4.15863L84.9122 4.21347L84.8017 4.28677C84.8357 4.33687 84.8687 4.38855 84.9032 4.43918L84.9048 4.44234L84.9027 4.43865L85.0133 4.36588Z" fill="black"/>
<path d="M11.4584 24.1032L11.5051 24.2271L14.2092 23.2288L22.8641 4.38984L22.6323 4.26275L22.6126 4.29281L22.6132 4.29176C22.5318 4.41357 22.3224 4.78166 22.006 5.35014C19.8007 9.31843 12.5732 22.8185 12.5732 22.8191L12.6907 22.8808L12.5967 22.788L10.9336 24.4375L11.5051 24.2271L11.4584 24.1032L11.5525 24.1965L12.7987 22.9604L12.8077 22.943C12.8082 22.9419 12.9555 22.6672 13.215 22.1836C14.1225 20.4898 16.3991 16.2436 18.5141 12.3243C19.5715 10.3652 20.5881 8.48733 21.3728 7.05136C21.7652 6.33364 22.0996 5.72614 22.3521 5.2742C22.6031 4.82385 22.7764 4.52379 22.8343 4.43783L22.8546 4.40724L22.7434 4.335L22.6222 4.28016L14.013 23.02L11.4121 23.9798L11.4584 24.1032Z" fill="black"/>
<path d="M87.0699 61.3765V61.2447H20.8555V64.3672H87.2028V61.2447H87.0699V61.3765H86.937V64.1035H21.1213V61.5084H87.0699V61.3765Z" fill="black"/>
<path d="M99.9141 36.3618H100.047C100.047 36.3586 100.048 34.0472 99.7924 31.9368C99.5329 29.8084 98.0932 25.742 98.0921 25.7368L98.082 25.7088L95.1403 22.7905L95.0462 22.8833L95.1637 22.8216C95.1637 22.8216 92.8036 18.4129 90.3692 13.8941C89.1522 11.6344 87.9166 9.34731 86.9479 7.57014C86.4636 6.68103 86.0462 5.91954 85.7309 5.35264C85.4146 4.78416 85.2051 4.41608 85.1238 4.29426C84.8324 3.85814 84.4645 3.23113 83.356 2.65527C82.2475 2.07624 80.4021 1.52938 77.1122 1.17131C70.5397 0.456223 58.278 0.0791702 53.8694 0.0786438C49.4609 0.0791702 37.1986 0.456223 30.6262 1.17131C27.3362 1.52938 25.4908 2.07624 24.3823 2.65527C23.2738 3.23113 22.9059 3.85814 22.6145 4.29426C22.5332 4.41608 22.3237 4.78416 22.0074 5.35264C19.802 9.32094 12.5746 22.821 12.5746 22.8216L12.6921 22.8833L12.598 22.7905L9.65576 25.7088L9.64621 25.7368C9.64514 25.742 8.20487 29.8084 7.94595 31.9368C7.69075 34.0472 7.69128 36.3586 7.69128 36.3618H7.8242L7.69764 36.3196L7.43555 37.1L7.43713 37.1259C7.43766 37.1269 7.81835 42.8365 8.15755 46.0744C8.49888 49.3192 9.51009 55.0978 10.7079 57.7764C11.305 59.1084 11.9153 60.0386 12.615 60.6407C13.3141 61.2441 14.1058 61.5088 15.0202 61.5078H92.7181C93.632 61.5088 94.4236 61.2441 95.1228 60.6407C95.8224 60.0386 96.4328 59.1084 97.0298 57.7764C98.2282 55.0978 99.2389 49.3192 99.5808 46.0744C99.92 42.8365 100.3 37.1269 100.3 37.1259L100.302 37.1L100.041 36.3201L99.9141 36.3618L99.7881 36.4029L100.042 37.1591L100.168 37.1174L100.035 37.1085C100.035 37.1095 100.011 37.465 99.9705 38.0508C99.8477 39.808 99.5696 43.626 99.3165 46.047C98.98 49.2675 97.9597 55.0572 96.7869 57.6693C96.1989 58.9829 95.6029 59.8794 94.9484 60.4416C94.2934 61.0037 93.582 61.2424 92.7181 61.2441H15.0202C14.1558 61.2424 13.4449 61.0037 12.7894 60.4416C12.1349 59.8794 11.5389 58.9829 10.9509 57.6693C9.77804 55.0572 8.75778 49.2675 8.42177 46.047C8.2527 44.4333 8.07301 42.1979 7.93531 40.367C7.86672 39.451 7.80823 38.6367 7.76729 38.0508C7.72635 37.465 7.70244 37.1095 7.70244 37.1085L7.57005 37.1174L7.69606 37.1591L7.95657 36.3828V36.3618C7.95657 36.3602 7.95657 35.7869 7.98847 34.9495C8.01984 34.1121 8.08365 33.0126 8.20965 31.9684C8.33406 30.9364 8.7562 29.3944 9.14697 28.1177C9.34262 27.4786 9.52977 26.9054 9.66853 26.4914C9.8073 26.0774 9.89662 25.8248 9.89662 25.8243L9.77167 25.7805L9.86523 25.8739L12.8 22.9629L12.8091 22.9455C12.8096 22.9444 12.9569 22.6697 13.2163 22.1861C14.1239 20.4923 16.4004 16.2461 18.5154 12.3268C19.5729 10.3677 20.5894 8.48984 21.3742 7.05387C21.7665 6.33615 22.1009 5.72865 22.3535 5.27671C22.6044 4.82635 22.7777 4.52629 22.8357 4.44033C23.1366 3.99473 23.4455 3.44628 24.5062 2.88835C25.5669 2.33358 27.3835 1.78883 30.6554 1.4334C37.2055 0.720425 49.4736 0.342319 53.8694 0.342319C58.2652 0.342319 70.5328 0.720425 77.0829 1.4334C80.3548 1.78883 82.1714 2.33358 83.2321 2.88835C84.2928 3.44628 84.6017 3.99473 84.9026 4.44033C84.9696 4.53948 85.1844 4.91547 85.4981 5.47974C86.5992 7.46151 88.9576 11.8285 91.0396 15.6992C92.0811 17.6346 93.053 19.446 93.7654 20.7739C94.4773 22.1017 94.9277 22.9434 94.9287 22.9455L94.9383 22.9629L97.8725 25.8739L97.9666 25.7805L97.8412 25.8243C97.8417 25.8248 97.931 26.0774 98.0692 26.4914C98.4855 27.7307 99.3415 30.418 99.5287 31.9684C99.6547 33.0126 99.7179 34.1121 99.7498 34.9495C99.7812 35.7869 99.7812 36.3602 99.7812 36.3618V36.3828L99.7881 36.4029L99.9141 36.3618Z" fill="black"/>
<path d="M53.8564 18.665V18.7969H84.1766L84.2155 18.7584C84.225 18.7468 85.0417 17.941 85.0443 16.6722C85.0443 16.5952 85.0411 16.5172 85.0348 16.4375C85.0055 16.0831 84.8338 15.27 84.5908 14.2269C83.863 11.1055 82.4992 5.99656 82.4992 5.99603L82.4769 5.91219L82.3908 5.89952C73.2834 4.53528 62.4656 4.45354 56.175 4.45354C55.3116 4.45354 54.5332 4.45512 53.8564 4.45512C53.1801 4.45512 52.4018 4.45354 51.5378 4.45354C45.2467 4.45354 34.4289 4.53528 25.3215 5.89952L25.2354 5.91219L25.213 5.99603C25.213 5.99656 24.6069 8.26732 23.987 10.7058C23.6771 11.925 23.3639 13.1864 23.1215 14.2269C22.8785 15.27 22.7068 16.0831 22.6775 16.4375C22.6712 16.5172 22.668 16.5957 22.668 16.6722C22.6706 17.941 23.4867 18.7468 23.4968 18.7584L23.5357 18.7969H53.8564V18.665V18.5332H23.5909V18.665L23.6845 18.5717L23.6558 18.5406C23.5144 18.3866 22.9322 17.6784 22.9338 16.6722C22.9338 16.6026 22.9365 16.5314 22.9423 16.4586C22.9668 16.1454 23.1385 15.3222 23.3804 14.2865C23.7435 12.7297 24.2661 10.6731 24.6973 9.00666C24.9132 8.17345 25.1067 7.4378 25.2455 6.90992C25.3848 6.38258 25.4698 6.06459 25.4698 6.06353L25.3417 6.02978L25.3614 6.16004C34.4411 4.79948 45.2504 4.71669 51.5378 4.71721C52.4013 4.71721 53.1796 4.7188 53.8564 4.7188C54.5338 4.7188 55.3116 4.71721 56.175 4.71721C62.4619 4.71669 73.2712 4.79948 82.3509 6.16004L82.3706 6.02978L82.2425 6.06353C82.2425 6.06512 82.3934 6.63096 82.6226 7.50319C82.966 8.81101 83.4834 10.8049 83.9252 12.5958C84.3664 14.3835 84.7328 15.984 84.77 16.4586C84.7758 16.5314 84.7785 16.6026 84.7785 16.6722C84.7785 17.2481 84.5903 17.7242 84.4005 18.0575C84.3058 18.2236 84.2112 18.3539 84.141 18.4414L84.0565 18.5406L84.0272 18.5717L84.1213 18.665V18.5332H53.8564V18.665Z" fill="black"/>
<path d="M23.918 17.9854L24.027 17.9099C23.8616 17.6758 23.6208 17.2349 23.6213 16.6723C23.6213 16.6206 23.6234 16.5673 23.6277 16.5135C23.6606 16.0927 23.9913 14.7659 24.4326 13.1116C24.8749 11.4541 25.4284 9.45339 25.9112 7.63562L25.7825 7.6024L25.8016 7.73265C34.1881 6.52081 44.4641 6.3626 52.01 6.3626H56.6509C64.1984 6.3626 73.5105 6.52081 81.8985 7.73265L81.9176 7.6024L81.789 7.63562C82.2717 9.45392 82.8294 11.4541 83.2755 13.1121C83.721 14.7659 84.056 16.0932 84.089 16.5135C84.0932 16.5673 84.0954 16.6206 84.0954 16.6728C84.0954 17.2339 83.8556 17.6737 83.6892 17.9099L83.7981 17.9854V17.8535H23.918V17.9854V18.1172H83.8673L83.9071 18.0613C84.0922 17.7981 84.3607 17.3098 84.3612 16.6728C84.3612 16.6137 84.3585 16.5536 84.3537 16.4924C84.3133 16.0136 83.9789 14.7074 83.5323 13.0441C83.0857 11.3845 82.528 9.38431 82.0463 7.56865L82.0234 7.48427L81.9368 7.47162C73.5253 6.25661 64.2026 6.09945 56.6509 6.09893H52.01C44.4593 6.09945 34.1759 6.25661 25.7634 7.47162L25.6762 7.48427L25.6538 7.56865C25.1716 9.38431 24.6182 11.3851 24.1758 13.0446C23.7335 14.7079 23.4028 16.0141 23.3629 16.4924C23.3581 16.5536 23.3555 16.6137 23.3555 16.6723C23.356 17.3109 23.6255 17.7997 23.809 18.0608L23.8488 18.1172H23.918V17.9854Z" fill="black"/>
<g id="light">
<path d="M25.986 21.0156L25.9568 20.8875C25.9557 20.8875 25.2305 21.0505 24.3931 21.2698C23.5547 21.4903 22.6121 21.7624 22.1463 21.9981C21.6795 22.2375 21.1388 22.7153 20.597 23.1709C20.059 23.6255 19.5167 24.0558 19.1158 24.1898C18.6815 24.3374 17.8818 24.5573 17.0976 24.8864C16.3134 25.217 15.5372 25.65 15.1411 26.268C14.762 26.8666 14.0305 28.5836 13.3829 30.1683C12.7369 31.7503 12.1824 33.1879 12.1824 33.1879L12.1133 33.3672H29.202L27.2008 24.8911L26.7904 21.417L26.0142 20.8743L25.9568 20.8875L25.986 21.0156L25.9094 21.1238L26.5405 21.5646L26.9382 24.937L28.8665 33.1035H12.3063V33.2354L12.4307 33.2823C12.4312 33.2812 12.5689 32.9237 12.788 32.3673C13.1166 31.5325 13.6269 30.2537 14.1224 29.0767C14.6174 27.9012 15.1034 26.8202 15.366 26.4083C15.701 25.8767 16.4357 25.448 17.2013 25.129C17.9664 24.8078 18.7538 24.5911 19.202 24.4392C19.6826 24.2731 20.2238 23.8285 20.7688 23.3718C21.3105 22.9146 21.8523 22.4432 22.2681 22.2328C22.6843 22.0192 23.6312 21.7413 24.4612 21.5245C25.2932 21.3067 26.0136 21.1448 26.0152 21.1443L25.986 21.0156Z" fill="black"/>
<path d="M81.7629 21.0156L81.7337 21.1443C81.7347 21.1448 82.4557 21.3067 83.2877 21.5245C84.1176 21.7413 85.0651 22.0192 85.4814 22.2328C85.8966 22.4432 86.4384 22.9146 86.9801 23.3718C87.5251 23.8285 88.0663 24.2731 88.5469 24.4392C88.9951 24.5911 89.782 24.8078 90.5476 25.129C91.3127 25.448 92.0474 25.8767 92.3823 26.4083C92.7343 26.9599 93.4765 28.6912 94.1198 30.2674C94.442 31.0569 94.7419 31.811 94.9609 32.3673C95.1805 32.9237 95.3182 33.2812 95.3187 33.2823L95.4426 33.2354V33.1035H78.8824L80.8107 24.937L81.2084 21.5646L81.8395 21.1238L81.7629 21.0156L81.6864 20.9081L80.958 21.417L80.5486 24.8911L78.5469 33.3672H95.6361L95.567 33.1879C95.5665 33.1879 95.0125 31.7503 94.366 30.1683C93.7179 28.5836 92.9863 26.8666 92.6072 26.268C92.2112 25.6505 91.4349 25.217 90.6507 24.8864C89.8671 24.5573 89.0674 24.3374 88.6336 24.1898C88.2322 24.0558 87.6899 23.6255 87.1519 23.1709C86.6101 22.7153 86.0694 22.2375 85.6026 21.9981C85.1368 21.7624 84.1947 21.4903 83.3558 21.2698C82.5184 21.0505 81.7932 20.8875 81.7922 20.8875L81.7342 20.8743L81.6864 20.9081L81.7629 21.0156Z" fill="black"/>
</g>
<path d="M99.4484 46.0605L99.3165 46.0468C98.98 49.2673 97.9598 55.057 96.7869 57.6691C96.1989 58.9827 95.6029 59.8792 94.9484 60.4413C94.2934 61.0035 93.582 61.2422 92.7181 61.2439H86.9336V71.273C86.9341 71.7577 87.0718 72.2006 87.302 72.5297C87.5312 72.8577 87.8619 73.0781 88.2394 73.0781H98.4414C98.8184 73.0781 99.1491 72.8571 99.3772 72.5297C99.6074 72.2006 99.7445 71.7577 99.7451 71.273V44.3551L99.4798 44.3435C99.4261 44.952 99.3697 45.5316 99.3165 46.0468L99.4484 46.0605L99.5808 46.0737C99.6345 45.5569 99.6903 44.9768 99.7446 44.3667L99.6122 44.3551H99.4792V71.273C99.4798 71.7077 99.3538 72.1015 99.1592 72.3794C98.963 72.6583 98.7083 72.8151 98.4414 72.8145H88.2394C87.9719 72.8151 87.7167 72.6583 87.5206 72.3794C87.3254 72.1015 87.1994 71.7077 87.1994 71.273V61.5076H92.7181C93.632 61.5086 94.4237 61.2439 95.1228 60.6405C95.8225 60.0384 96.4328 59.1082 97.0299 57.7762C98.2282 55.0976 99.2389 49.319 99.5808 46.0742L99.4484 46.0605Z" fill="black"/>
<path d="M15.0253 61.3757V61.2439C14.1608 61.2422 13.45 61.0035 12.7944 60.4413C12.1399 59.8792 11.5439 58.9827 10.9559 57.6691C9.92396 55.3704 9.01004 50.6089 8.57727 47.3061L8.3125 47.323V71.273C8.3125 71.7577 8.45073 72.2006 8.68041 72.5297C8.90955 72.8577 9.24024 73.0781 9.61772 73.0781H19.8198C20.1968 73.0775 20.5269 72.8571 20.7556 72.5297C20.9852 72.2006 21.1229 71.7577 21.1229 71.273V61.2439H15.0253V61.3757V61.5076H20.8571V71.273C20.8576 71.7077 20.7316 72.1015 20.537 72.3794C20.3414 72.6583 20.0862 72.8151 19.8198 72.8145H9.61772C9.3503 72.8151 9.0951 72.6583 8.89891 72.3794C8.70379 72.1015 8.5778 71.7077 8.57833 71.273V47.323H8.44542L8.31356 47.3399C8.75059 50.6611 9.65813 55.4177 10.713 57.7762C11.31 59.1082 11.9204 60.0384 12.62 60.6405C13.3192 61.2439 14.1108 61.5086 15.0253 61.5076V61.3757Z" fill="black"/>
</svg>
