<svg width="106" height="74" viewBox="0 0 106 74" fill="none" xmlns="http://www.w3.org/2000/svg">
<path d="M28.954 24.1892L28.905 24.2336L37.6542 33.8624L37.7033 33.8181L37.7476 33.7696C37.7465 33.7686 37.2761 33.3388 36.56 32.6822C34.4126 30.7142 30.0556 26.7095 29.6264 26.2338C29.3495 25.9295 29.1929 25.4159 29.1117 24.9797C29.0711 24.7614 29.0479 24.5626 29.0352 24.4187C29.022 24.2752 29.0199 24.1871 29.0199 24.1871L28.954 24.1892L28.8881 24.1908C28.8913 24.1966 28.9213 25.6421 29.5288 26.3224C29.8268 26.6514 31.8539 28.5325 33.8141 30.3387C35.7727 32.1428 37.6585 33.8667 37.6585 33.8672L37.7518 33.7738L28.8828 24.0131L28.8881 24.1908L28.954 24.1892Z" fill="black"/>
<path d="M76.1982 24.1892L76.1491 24.145L67.4004 33.7738L67.4937 33.8672C67.4937 33.8667 69.3795 32.1428 71.3381 30.3387C73.2977 28.5325 75.3254 26.6514 75.6239 26.3224C76.2309 25.6421 76.2604 24.1966 76.2641 24.1908L76.2688 24.0131L76.1491 24.145L76.1982 24.1892L76.1322 24.1871C76.1322 24.1882 76.1222 24.5431 76.04 24.9797C75.9587 25.4159 75.8021 25.9295 75.5258 26.2338C75.241 26.5491 73.206 28.4386 71.2485 30.2417C70.2697 31.1434 69.3083 32.0257 68.5922 32.6822C67.876 33.3388 67.4062 33.7686 67.4051 33.7696L67.4494 33.8181L67.4979 33.8624L76.2467 24.2336L76.1982 24.1892Z" fill="black"/>
<path d="M98.0128 31.9545L98.0782 31.9466C97.9733 31.0701 97.6663 29.862 97.3431 28.7435L97.2967 28.5821L97.2213 28.7319C96.7799 29.6057 96.1808 30.749 95.5643 31.9107L95.5527 31.9329L95.5585 31.9571C95.8538 33.1658 96.6032 35.3179 98.4442 37.4933L98.5491 37.6172L98.5602 37.4548C98.5744 37.2438 98.5829 37.1236 98.5829 37.1236L98.5834 37.1104L98.3271 36.342L98.2644 36.3626H98.3303C98.3303 36.3616 98.3308 34.0512 98.0782 31.9466L98.0128 31.9545L97.9474 31.9624C98.073 33.0092 98.1357 34.1098 98.1673 34.9483C98.1985 35.7867 98.1984 36.3616 98.1984 36.3626V36.3737L98.4542 37.1399L98.517 37.1188L98.4511 37.1146C98.4511 37.1146 98.4431 37.2349 98.4284 37.4458L98.4943 37.4505L98.5444 37.4078C96.7203 35.2525 95.9783 33.1199 95.6867 31.926L95.6229 31.9418L95.6809 31.9724C96.2973 30.8101 96.8964 29.6663 97.3389 28.7914L97.2798 28.7614L97.2165 28.7798C97.5393 29.8952 97.8441 31.1007 97.9474 31.9624L98.0128 31.9545Z" fill="black"/>
<path d="M8.05193 28.2528L7.98867 28.2344C7.61478 29.4805 7.2261 30.9339 7.10376 31.9448C6.85169 34.0495 6.85221 36.3598 6.85221 36.3609H6.91813L6.85538 36.3403L6.59961 37.1081L6.60015 37.1208C6.60015 37.1213 6.6033 37.174 6.61068 37.2721L6.62175 37.4219L6.7246 37.3122C8.111 35.8319 9.27541 33.8301 9.96834 32.5054L9.98361 32.4764L9.96937 32.4463C9.14302 30.705 8.44746 29.0476 8.11312 28.2281L8.04246 28.0551L7.98867 28.2344L8.05193 28.2528L7.99078 28.2782C8.32617 29.0987 9.02226 30.7583 9.85021 32.5033L9.90979 32.4748L9.85178 32.4442C9.162 33.7631 8.00025 35.7581 6.62809 37.222L6.6766 37.2668L6.742 37.2621C6.73515 37.1651 6.73199 37.1134 6.73199 37.1134L6.66607 37.1171L6.72882 37.1382L6.98405 36.3719V36.3609C6.98405 36.3598 6.98407 35.785 7.01518 34.9465C7.04682 34.108 7.10956 33.0074 7.23454 31.9606C7.35478 30.9666 7.74239 29.5148 8.11523 28.2718L8.05193 28.2528Z" fill="black"/>
<path d="M95.2477 25.8011L95.2007 25.7547L93.8987 27.0572L92.5281 24.2232L92.4627 24.2971C91.5573 25.318 90.2379 26.5615 89.4136 27.0709C88.0372 27.9231 78.1584 33.8901 75.3138 35.8007C72.4477 37.7266 71.8544 40.8184 71.5269 42.2813C71.1984 43.7494 68.7457 56.737 68.7457 56.7375L68.7451 56.7397V56.7418L68.7383 56.842C68.7362 57.1847 68.9877 57.3851 69.3484 57.4795C69.7118 57.5787 70.2064 57.5977 70.7707 57.5977C71.3598 57.5977 75.2289 57.5908 79.1398 57.5038C81.0952 57.46 83.0606 57.3967 84.6326 57.3044C86.2078 57.2106 87.3764 57.094 87.7778 56.9263C88.5166 56.6141 89.2833 55.9966 89.8698 55.3295C90.4546 54.6614 90.8628 53.9494 90.8659 53.4152L90.858 53.2945C90.7852 52.7661 90.2964 52.5103 89.8502 52.3837C89.3999 52.2561 88.9727 52.253 88.969 52.253L70.2887 52.2519V52.3178L70.353 52.3326C70.3536 52.3315 70.825 50.2216 71.0444 48.9291C71.2617 47.6429 71.5913 46.2681 71.9994 45.4955C72.1877 45.1311 72.9576 44.5805 73.6732 44.1407C74.0313 43.9198 74.3767 43.7225 74.633 43.5812C74.8888 43.4393 75.0544 43.3539 75.0544 43.3534L75.0834 43.3386L75.0892 43.3065C75.8971 38.7923 77.004 37.6395 77.2656 37.4249L77.2239 37.3743L77.2608 37.4286L77.2624 37.4276H77.2629L77.3299 37.3785L77.2914 37.3253L77.3077 37.3891L77.3099 37.3885L77.322 37.3854L77.332 37.378C78.3893 36.6065 81.8029 34.8383 85.2043 33.1223C88.6073 31.4052 92.0008 29.7383 93.0439 29.1518C95.1596 27.9595 96.4701 25.8179 96.4738 25.8137L96.4759 25.81L96.5181 25.7151L96.5629 25.6128L96.4516 25.6228C95.7582 25.6845 95.2414 25.7357 95.2408 25.7357L95.2176 25.7383L95.2007 25.7547L95.2477 25.8011L95.254 25.867C95.2551 25.867 95.7708 25.8153 96.4632 25.7541L96.4574 25.6887L96.3973 25.6618L96.3572 25.7531L96.4173 25.7794L96.3614 25.7452C96.3609 25.7452 96.2808 25.8759 96.1268 26.0932C95.6637 26.745 94.5379 28.1599 92.979 29.0369C91.9449 29.6185 88.5477 31.2881 85.1447 33.0047C81.7401 34.7228 78.3334 36.4852 77.2545 37.2715L77.2935 37.3247L77.2772 37.2604L77.275 37.2609L77.2624 37.2641L77.188 37.3189L77.1865 37.32L77.1843 37.3216L77.1817 37.3231C76.8832 37.5705 75.7705 38.7538 74.9595 43.2833L75.0243 43.2949L74.9937 43.2363C74.9932 43.2368 74.3251 43.5833 73.6036 44.0289C72.8817 44.4777 72.1102 45.0114 71.8829 45.4338C71.461 46.2354 71.134 47.6133 70.9147 48.9069C70.8055 49.5498 70.6331 50.3993 70.4875 51.088C70.3425 51.7762 70.2249 52.3025 70.2244 52.3036L70.2064 52.3837L88.9685 52.3848C88.9685 52.3848 89.0703 52.3853 89.2285 52.4017C89.4658 52.4259 89.8255 52.4855 90.1313 52.6253C90.4382 52.7666 90.6829 52.9791 90.7272 53.3119L90.7341 53.4152C90.7367 53.883 90.3465 54.5897 89.7706 55.2425C89.1958 55.8975 88.4385 56.5045 87.7266 56.805C87.3749 56.9564 86.1915 57.0819 84.6253 57.1726C79.9171 57.4495 71.653 57.4663 70.7707 57.4658C70.2101 57.4663 69.7218 57.4453 69.3832 57.3524C69.042 57.2544 68.8722 57.1099 68.8701 56.842L68.8759 56.7581L68.8105 56.7502L68.8754 56.7623C68.8754 56.7602 69.0283 55.9502 69.2635 54.7099C69.9686 50.9884 71.4104 43.4051 71.6556 42.3103C71.9831 40.8443 72.5711 37.802 75.3876 35.9104C78.2253 34.004 88.1058 28.036 89.4827 27.1827C90.3301 26.658 91.6475 25.414 92.5614 24.3846L92.5118 24.3408L92.4527 24.3693L93.8608 27.2813L95.2941 25.848L95.2477 25.8011Z" fill="black"/>
<path d="M36.4557 56.7502L36.5205 56.7375C36.5205 56.737 34.0678 43.7494 33.7388 42.2813C33.4118 40.8184 32.8186 37.7266 29.9524 35.8007C27.1079 33.8901 17.229 27.9231 15.8521 27.0709C15.012 26.552 13.6557 25.2684 12.7487 24.2364L12.6832 24.1615L11.2831 27.0567L9.96477 25.7383L9.94157 25.7357C9.94104 25.7357 9.46748 25.6887 8.81778 25.6307L8.70703 25.6207L8.78825 25.8058L8.79036 25.81L8.79247 25.8137C8.79563 25.8179 10.1061 27.9595 12.2224 29.1518C13.2655 29.7383 16.6589 31.4052 20.0619 33.1223C23.4633 34.8383 26.8769 36.6065 27.9342 37.378L27.9443 37.3854L27.9464 37.3859L28.0012 37.4265L28.0017 37.427L28.0044 37.4281L28.0418 37.3743L28.0002 37.4249C28.2617 37.6395 29.3686 38.7923 30.177 43.3065L30.1828 43.3386L30.2119 43.3534C30.2119 43.3539 30.3774 43.4393 30.6332 43.5812C31.0171 43.7932 31.603 44.1307 32.1298 44.4872C32.6567 44.8416 33.126 45.2244 33.2668 45.4955C33.675 46.2681 34.004 47.6429 34.2218 48.9291C34.4412 50.2216 34.9127 52.3315 34.9132 52.3326L34.9775 52.3178V52.2519L16.2977 52.253C16.2935 52.253 15.8658 52.2561 15.416 52.3837C14.9693 52.5103 14.481 52.7661 14.4082 53.2945L14.4003 53.4158C14.4029 53.95 14.8116 54.6614 15.3965 55.33C15.9829 55.9966 16.7497 56.6141 17.4885 56.9263C17.8898 57.094 19.0584 57.2106 20.6336 57.3044C25.3492 57.5818 33.6117 57.5977 34.4955 57.5977C35.0593 57.5977 35.5539 57.5787 35.9173 57.4795C36.278 57.3851 36.53 57.1847 36.5279 56.8425L36.5211 56.7418V56.7397L36.5205 56.7375L36.4557 56.7502L36.3903 56.7581L36.3961 56.8425C36.395 56.9801 36.3513 57.0777 36.2669 57.16C36.0153 57.412 35.3356 57.4695 34.4955 57.4658C33.907 57.4658 30.0384 57.459 26.1296 57.3719C24.1753 57.3287 22.2104 57.2649 20.641 57.1726C19.0747 57.0819 17.8914 56.9564 17.5396 56.805C16.8277 56.5045 16.0704 55.8975 15.4956 55.243C14.9197 54.5902 14.529 53.8835 14.5321 53.4158L14.539 53.3124C14.5954 52.87 15.0189 52.6337 15.4518 52.5103C15.6665 52.4497 15.879 52.418 16.0372 52.4017C16.1954 52.3853 16.2977 52.3848 16.2982 52.3848L35.0593 52.3837L35.0419 52.3036C35.0413 52.3025 34.9237 51.7762 34.7787 51.088C34.6332 50.3993 34.4607 49.5498 34.3516 48.9069C34.1317 47.6133 33.8052 46.2354 33.3833 45.4338C33.1555 45.0119 32.3845 44.4777 31.6621 44.0289C30.9412 43.5833 30.273 43.2368 30.2725 43.2363L30.2419 43.2949L30.3068 43.2833C29.4952 38.7538 28.383 37.5705 28.0835 37.3231L28.0819 37.3216L28.0782 37.3189L28.0402 37.3732L28.0793 37.32L28.0139 37.272L28.0038 37.2641L27.9891 37.2604L27.9727 37.3247L28.0117 37.2715C26.9328 36.4852 23.5261 34.7228 20.1215 33.0047C16.7185 31.2881 13.3214 29.6185 12.2872 29.0369C11.2478 28.452 10.4009 27.6283 9.81498 26.9512C9.52178 26.6121 9.29396 26.3105 9.13944 26.0932C8.98493 25.8759 8.90532 25.7452 8.90479 25.7452L8.84889 25.7794L8.90901 25.7531L8.87263 25.6697L8.81196 25.6961L8.80617 25.762C9.45481 25.82 9.92733 25.867 9.92838 25.867L9.93469 25.8011L9.88829 25.848L11.3211 27.2813L12.7587 24.3087L12.6996 24.2796L12.65 24.3234C13.565 25.3639 14.9192 26.648 15.783 27.1827C17.1604 28.036 27.0409 34.004 29.8786 35.9104C32.6951 37.802 33.2831 40.8443 33.6101 42.3103C33.7736 43.0391 34.4691 46.6546 35.1236 50.0845C35.4505 51.7994 35.7675 53.469 36.0027 54.7099C36.1203 55.33 36.2173 55.8432 36.2848 56.2012C36.3528 56.5593 36.3908 56.7623 36.3908 56.7623L36.4557 56.7502Z" fill="black"/>
<path d="M91.1866 59.1629L91.1592 59.1028C91.0896 59.136 90.8998 59.1761 90.6292 59.2114C88.7239 59.4656 82.6826 59.6412 79.1261 59.6412C75.0576 59.6412 30.5672 59.6412 26.0699 59.6412C23.8239 59.6412 20.7305 59.4693 18.1997 59.2979C16.9341 59.2119 15.8087 59.126 15.0003 59.0616C14.1914 58.9973 13.7004 58.9546 13.6993 58.9541L13.6935 59.02L13.6972 59.0859C13.6983 59.0859 14.1128 59.0627 14.7909 59.0274C16.8265 58.9229 21.2315 58.7131 23.893 58.7131C27.4453 58.7131 86.2021 58.7131 87.4915 58.7131C88.07 58.7131 89.0176 58.7542 89.8187 58.8275C90.2189 58.8639 90.5828 58.9092 90.8433 58.9609C90.9736 58.9862 91.0785 59.0142 91.1455 59.0411L91.2146 59.0769L91.222 59.0843L91.2389 59.0738H91.2193L91.222 59.0843L91.2389 59.0738H91.2193H91.2399L91.2215 59.0637L91.2193 59.0738H91.2399L91.2215 59.0637L91.2088 59.0753L91.1592 59.1028L91.1866 59.1629L91.2146 59.223L91.3058 59.166L91.3512 59.0738L91.2969 58.9741C91.1956 58.8971 90.9941 58.8518 90.7078 58.8022C89.8556 58.6619 88.3131 58.5818 87.4915 58.5812C86.2021 58.5812 27.4453 58.5812 23.893 58.5812C20.3366 58.5812 13.6904 58.9541 13.6898 58.9541L13.6877 59.0854C13.6888 59.0854 21.5663 59.773 26.0699 59.773C30.5672 59.773 75.0576 59.773 79.1261 59.773C81.1612 59.773 84.0052 59.7156 86.4268 59.619C87.6376 59.5705 88.7429 59.5125 89.5893 59.4466C90.0127 59.4134 90.3714 59.3786 90.6466 59.3422C90.9235 59.3047 91.1123 59.2689 91.2146 59.223L91.1866 59.1629ZM98.2605 36.3624H98.3264C98.3264 36.3613 98.327 34.051 98.0744 31.9463C97.9694 31.0699 97.6625 29.8617 97.3392 28.7432L97.2928 28.5824L97.2174 28.7316C96.0599 31.0203 93.8292 35.1542 93.0202 36.6466L93.0028 36.6788L93.0213 36.7104C93.3261 37.2478 93.4337 37.8911 93.4337 38.4C93.4337 38.6315 93.4115 38.8356 93.3767 38.9865C93.3488 39.1109 93.3002 39.2475 93.238 39.3899L93.1974 39.4822H93.2987V39.4162L93.2343 39.4031C93.2343 39.4036 93.228 39.4336 93.2111 39.4932C93.0909 39.912 92.4481 41.6854 89.8245 42.8129C86.8165 44.1049 83.7663 44.0253 80.8068 44.3744C79.3323 44.5489 77.4328 44.6966 75.8397 44.9044C75.0434 45.0088 74.323 45.128 73.7688 45.2746C73.2145 45.4238 72.8243 45.5868 72.6777 45.8294C72.5648 46.0255 72.4367 46.4448 72.2959 46.9953C71.8761 48.6417 71.3725 51.4256 71.2153 52.3089L71.2802 52.3205V52.2546H70.2904V52.3864L88.9702 52.3875C88.9702 52.3875 89.072 52.388 89.2302 52.4044C89.4675 52.4286 89.8271 52.4882 90.133 52.628C90.4399 52.7693 90.6846 52.9818 90.7289 53.3146L90.7358 53.4179C90.7384 53.8857 90.3482 54.5923 89.7723 55.2452C89.1975 55.9002 88.4402 56.5071 87.7283 56.8077C87.3765 56.9591 86.1932 57.0846 84.6269 57.1753C79.9188 57.4522 71.6546 57.469 70.7724 57.4685C70.2118 57.469 69.7235 57.4479 69.3849 57.3551C69.0437 57.257 68.8739 57.1125 68.8718 56.8446L68.8776 56.7608L68.8122 56.7529L68.8771 56.765C68.8771 56.7634 68.963 56.3073 69.1059 55.5537C69.5336 53.294 70.4671 48.3733 71.0883 45.1718L71.1035 45.0937H69.2842L69.2641 45.1201C68.9361 45.5688 68.1973 45.8278 66.6437 46.092C64.9267 46.3862 55.0821 46.565 52.5893 46.565C50.0966 46.565 40.2525 46.3862 38.5349 46.092C36.9813 45.8278 36.2425 45.5688 35.9145 45.1201L35.8945 45.0937H34.1653L34.1806 45.1718C34.5946 47.3065 35.1472 50.2048 35.5965 52.5694C35.8212 53.7517 36.02 54.8006 36.1624 55.5537C36.3048 56.3073 36.3912 56.7634 36.3912 56.765L36.4561 56.7529L36.3907 56.7608L36.3965 56.8452C36.3955 56.9828 36.3511 57.0804 36.2673 57.1626C36.0158 57.4147 35.3355 57.4722 34.4959 57.4685C33.9074 57.4685 30.0388 57.4617 26.13 57.3746C24.1757 57.3314 22.2108 57.2676 20.6414 57.1753C19.0751 57.0846 17.8918 56.9591 17.54 56.8077C16.8281 56.5071 16.0708 55.9002 15.496 55.2457C14.9202 54.5929 14.5294 53.8862 14.5326 53.4185L14.5394 53.3151V53.3146C14.5958 52.8726 15.0193 52.6364 15.4522 52.513C15.6669 52.4524 15.8794 52.4207 16.0376 52.4044C16.1958 52.388 16.2981 52.3875 16.2986 52.3875L34.9779 52.3864V52.2546H33.9876V52.3205L34.0524 52.3089C33.948 51.7204 33.6891 50.2865 33.4043 48.9086C33.2614 48.2193 33.1122 47.5443 32.9719 46.9953C32.8311 46.4448 32.7029 46.0255 32.5901 45.8294C32.443 45.5868 32.0527 45.4238 31.499 45.2746C29.8378 44.8364 26.6737 44.6365 24.461 44.3744C21.5015 44.0253 18.4513 44.1049 15.4443 42.8129C13.944 42.1685 13.0924 41.3137 12.6141 40.6207C12.3752 40.2742 12.2296 39.9684 12.1442 39.7495C12.1015 39.6404 12.0735 39.5528 12.0566 39.4932C12.0398 39.4336 12.034 39.4036 12.0334 39.4031L11.9691 39.4162V39.4822H11.9702V39.4162L11.9122 39.4479L11.9132 39.45L12.0313 39.3909C11.968 39.2485 11.9201 39.1109 11.8911 38.9865C11.8563 38.8356 11.8341 38.6321 11.8341 38.4006C11.8341 37.8911 11.9422 37.2462 12.2475 36.7078L12.2676 36.6724L12.2454 36.6387C10.5964 34.1638 8.73381 29.7515 8.11312 28.2296L8.04246 28.0571L7.98867 28.2359C7.61478 29.482 7.2261 30.9354 7.10376 31.9463C6.85169 34.051 6.85221 36.3613 6.85221 36.3624H6.91813L6.85538 36.3418L6.59961 37.1101L6.60015 37.1228C6.60015 37.1233 6.97774 42.8335 7.31418 46.0688C7.65222 49.3072 8.65629 56.1037 9.83913 58.769C11.0135 61.421 12.2613 62.4636 14.0558 62.4609H91.1228C92.9174 62.4636 94.1656 61.421 95.3401 58.769C96.5229 56.1037 97.527 49.3072 97.8645 46.0688C98.2009 42.8335 98.579 37.1233 98.579 37.1228L98.5796 37.1101L98.3233 36.3418L98.2605 36.3624L98.1983 36.3835L98.4504 37.1397L98.5131 37.1186L98.4472 37.1144C98.4472 37.1154 98.4235 37.4708 98.3829 38.0567C98.261 39.8139 97.9852 43.6324 97.7332 46.0551C97.3988 49.2825 96.3879 56.0895 95.2198 58.7152C94.0428 61.3535 92.8552 62.3265 91.1228 62.3291H14.0558C12.3235 62.3265 11.1364 61.3535 9.95936 58.7152C8.79075 56.0895 7.78035 49.2825 7.44548 46.0551C7.27726 44.4403 7.09903 42.2044 6.96245 40.3729C6.89442 39.4574 6.83692 38.6426 6.79631 38.0567C6.7557 37.4708 6.73199 37.1154 6.73199 37.1144L6.66607 37.1186L6.72882 37.1397L6.98405 36.3734V36.3624C6.98405 36.3613 6.98407 35.7865 7.01518 34.948C7.04682 34.1095 7.10956 33.0089 7.23454 31.9622C7.35478 30.9681 7.74239 29.5163 8.11523 28.2733L8.05193 28.2543L7.99078 28.2797C8.61411 29.8053 10.4751 34.2176 12.1357 36.712L12.1906 36.6751L12.1331 36.6429C11.8125 37.2093 11.7028 37.8732 11.7023 38.4006C11.7023 38.6405 11.7249 38.852 11.7624 39.016C11.794 39.1515 11.8452 39.296 11.9106 39.4447L11.9712 39.4178L12.0287 39.3857L12.0276 39.3841L12.0087 39.3503H11.9691H11.889L11.9042 39.4289C11.9053 39.441 12.3446 41.6264 15.3921 42.9342C18.4323 44.2389 21.4999 44.1566 24.4457 44.5057C25.9239 44.6803 27.8228 44.8279 29.4107 45.0352C30.2043 45.1391 30.9205 45.2582 31.4652 45.4017C32.01 45.543 32.3812 45.7218 32.4762 45.8953C32.5732 46.0614 32.7061 46.4833 32.8443 47.0275C33.2624 48.666 33.7661 51.4504 33.9227 52.3321L33.9322 52.3864H34.9779V52.2546L16.2981 52.2556C16.2939 52.2556 15.8662 52.2588 15.4164 52.3864C14.9697 52.513 14.4814 52.7688 14.4086 53.2972L14.4007 53.4185C14.4034 53.9527 14.8121 54.6641 15.3969 55.3327C15.9838 55.9993 16.7501 56.6168 17.4889 56.929C17.8902 57.0967 19.0588 57.2133 20.634 57.3071C25.3496 57.5845 33.6121 57.6003 34.4959 57.6003C35.0597 57.6003 35.5543 57.5814 35.9177 57.4822C36.2784 57.3878 36.5304 57.1874 36.5278 56.8452L36.5215 56.7445V56.7429L36.521 56.7402C36.521 56.7402 35.1377 49.4164 34.3103 45.147L34.2454 45.1596V45.2255H35.8613V45.1596L35.8085 45.1987C36.1866 45.7044 36.9566 45.9543 38.5128 46.2217C40.2625 46.5197 50.0871 46.6963 52.5893 46.6968C55.0916 46.6963 64.9167 46.5197 66.6659 46.2217C68.2221 45.9543 68.992 45.7044 69.3702 45.1987L69.3174 45.1596V45.2255H71.0234V45.1596L70.9585 45.147C70.1306 49.4164 68.7474 56.7402 68.7474 56.7402L68.7468 56.7423V56.7445L68.74 56.8446C68.7379 57.1874 68.9894 57.3878 69.3501 57.4822C69.714 57.5814 70.2081 57.6003 70.7724 57.6003C71.3614 57.6003 75.2306 57.5935 79.1414 57.5065C81.0969 57.4627 83.0623 57.3994 84.6343 57.3071C86.2095 57.2133 87.3781 57.0967 87.7794 56.929C88.5182 56.6168 89.285 55.9993 89.8714 55.3322C90.4563 54.6641 90.8644 53.9521 90.8676 53.4179L90.8597 53.2972C90.7869 52.7688 90.298 52.513 89.8519 52.3864C89.4016 52.2588 88.9744 52.2556 88.9707 52.2556L70.2904 52.2546V52.3864H71.3356L71.3451 52.3321C71.45 51.7441 71.7084 50.3108 71.9932 48.9349C72.1356 48.2473 72.2843 47.5733 72.4235 47.0275C72.5622 46.4833 72.6946 46.0614 72.7916 45.8953C72.8865 45.7218 73.2578 45.543 73.8025 45.4017C75.4384 44.9692 78.6056 44.7673 80.8221 44.5057C83.7679 44.1566 86.8355 44.2389 89.8767 42.9342C92.9232 41.6264 93.3625 39.441 93.3635 39.4289L93.3788 39.3503H93.2981V39.4162L93.3588 39.4426C93.4231 39.295 93.4748 39.151 93.5054 39.016C93.5428 38.852 93.5655 38.64 93.5655 38.4C93.565 37.8732 93.4558 37.2109 93.1357 36.6455L93.0782 36.6777L93.1363 36.7094C93.9457 35.2164 96.1759 31.0831 97.335 28.7912L97.276 28.7611L97.2127 28.7796C97.5354 29.8949 97.8402 31.1005 97.9436 31.9622C98.0691 33.0089 98.1319 34.1095 98.1635 34.948C98.1946 35.7865 98.1946 36.3613 98.1946 36.3624V36.3734L98.1983 36.3835L98.2605 36.3624Z" fill="black"/>
<path d="M91.9207 23.1283L91.9233 23.2601L93.9447 23.2158L93.5212 22.7918L93.4279 22.8847L93.5444 22.823C93.5444 22.823 89.4743 15.1585 86.5328 9.68244L86.2949 9.79476L91.569 22.7286L91.8031 23.1879L91.8405 23.2617L91.9233 23.2601L91.9207 23.1283L92.0383 23.0682L91.8089 22.6183L86.5391 9.6951L86.4167 9.7452L86.3007 9.80742C87.771 12.5449 89.5239 15.8298 90.9092 18.4301C91.6017 19.7306 92.2023 20.8596 92.6295 21.6638C93.0571 22.4675 93.3108 22.9453 93.3113 22.9464L93.3208 22.9643L93.3224 22.9653L91.9175 22.9965L91.9207 23.1283Z" fill="black"/>
<path d="M13.2578 23.1243L13.1259 23.13L13.127 23.1517L13.1496 23.6484L13.6221 22.7245L18.9505 9.65835L18.7121 9.54656C15.7653 15.0305 11.6298 22.8189 11.6298 22.8189L11.7464 22.8806L11.653 22.7873L11.4474 22.9935L11.2285 23.2118L13.2551 23.2561L13.2578 23.1243L13.2609 22.9924L11.5433 22.955L11.5402 23.0868L11.6335 23.1796L11.8397 22.974L11.8534 22.9602L11.8629 22.9423C11.8634 22.9413 12.1213 22.4556 12.5548 21.6403C13.8563 19.1928 16.7346 13.7838 18.9447 9.67101L18.8282 9.60879L18.7063 9.55922L13.3822 22.6143L13.1412 23.0858L13.2588 23.1459L13.3907 23.1395L13.3896 23.1179L13.3838 22.9951L13.2609 22.9924L13.2578 23.1243Z" fill="black"/>
<path d="M104.956 22.8414L104.953 22.7095L91.7188 22.9991L93.845 27.3945L95.3438 25.8953L95.2509 25.8019L95.2636 25.9332C95.2657 25.9332 96.0552 25.8547 96.9928 25.7756C97.9294 25.697 99.0157 25.6184 99.5916 25.6184L99.7113 25.6195L99.821 25.6211C100.393 25.6205 101.305 25.5272 102.172 25.3932C103.04 25.2577 103.849 25.0879 104.239 24.9149C104.685 24.7066 104.872 24.1793 104.978 23.7215C105.081 23.2601 105.087 22.8488 105.088 22.8435L105.09 22.7069L104.953 22.7095L104.956 22.8414L104.824 22.8393C104.824 22.8398 104.822 22.9353 104.809 23.0882C104.789 23.3171 104.74 23.6698 104.631 23.9873C104.524 24.3069 104.355 24.5769 104.132 24.6739C103.8 24.8242 102.986 25.0014 102.131 25.1327C101.275 25.2651 100.367 25.3574 99.821 25.3574L99.7176 25.3558L99.5916 25.3547C98.404 25.3547 95.2404 25.6712 95.2378 25.6712L95.1908 25.6759L93.921 26.9458L92.1348 23.2538L104.958 22.9732L104.956 22.8414Z" fill="black"/>
<path d="M104.749 21.1961L104.74 21.0648C104.739 21.0648 104.179 21.1033 103.562 21.1713C103.254 21.2051 102.932 21.2462 102.656 21.2937C102.379 21.3427 102.157 21.3923 102.016 21.465C101.87 21.5431 101.769 21.677 101.689 21.8247C101.451 22.2682 101.383 22.8926 101.381 22.9L101.363 23.0508L105.103 22.9685L104.864 21.0564L104.74 21.0648L104.749 21.1961L104.618 21.2124L104.805 22.7112L101.509 22.7834L101.512 22.9153L101.643 22.9305C101.643 22.9305 101.65 22.8662 101.669 22.7623C101.696 22.6068 101.748 22.3668 101.829 22.1522C101.91 21.9354 102.028 21.7519 102.139 21.6976C102.216 21.6554 102.437 21.5979 102.702 21.5536C103.101 21.484 103.617 21.4271 104.031 21.3886C104.446 21.349 104.757 21.3279 104.758 21.3274L104.749 21.1961Z" fill="black"/>
<path d="M0.231605 22.8414L0.228979 22.9732L13.052 23.2538L11.2664 26.9458L9.99709 25.6759L9.95015 25.6712C9.94751 25.6712 6.78393 25.3547 5.59528 25.3547L5.46873 25.3558L5.36537 25.3574C4.82061 25.3574 3.91199 25.2651 3.0561 25.1327C2.20179 25.0014 1.38756 24.8242 1.05639 24.6739C0.756854 24.5484 0.559628 24.0991 0.466287 23.6641C0.418298 23.4484 0.392449 23.2406 0.378738 23.0882C0.365027 22.9353 0.363443 22.8398 0.363443 22.8393L0.231605 22.8414L0.0997677 22.8435C0.0997677 22.8488 0.106112 23.2601 0.208946 23.7215C0.314943 24.1793 0.502669 24.7066 0.948807 24.9149C1.33852 25.0879 2.14747 25.2577 3.01549 25.3932C3.88193 25.5272 4.79425 25.6205 5.36537 25.6211L5.47558 25.6195L5.59528 25.6184C6.17168 25.6184 7.25804 25.697 8.19514 25.7756C9.13277 25.8547 9.92221 25.9332 9.92432 25.9332L9.93697 25.8019L9.84416 25.8953L11.3424 27.3945L13.4681 22.9991L0.0976562 22.7069L0.0997677 22.8435L0.231605 22.8414Z" fill="black"/>
<path d="M0.434469 21.1961L0.424967 21.3274C0.426549 21.3274 0.981843 21.3659 1.59199 21.4329C1.8968 21.4666 2.21532 21.5072 2.48163 21.5536C2.74636 21.5979 2.96732 21.6554 3.04431 21.6976C3.11762 21.735 3.1962 21.8263 3.26264 21.9502C3.36284 22.1348 3.43509 22.3837 3.47886 22.583C3.50101 22.6827 3.51683 22.7702 3.52632 22.833C3.53634 22.8952 3.54056 22.9305 3.54056 22.9305L3.67134 22.9153L3.67451 22.7834L0.377511 22.7112L0.565251 21.2124L0.434469 21.1961L0.303687 21.1797L0.0800781 22.9685L3.82004 23.0508L3.80264 22.9C3.80211 22.8963 3.76942 22.6152 3.67925 22.2988C3.63389 22.1406 3.57483 21.9734 3.49467 21.8247C3.41399 21.677 3.31273 21.5431 3.16771 21.465C3.02638 21.3923 2.80384 21.3427 2.52698 21.2937C1.7022 21.1513 0.445539 21.0648 0.44343 21.0648L0.318957 21.0564L0.303687 21.1797L0.434469 21.1961Z" fill="black"/>
<path d="M52.59 46.6299V46.7617C53.8414 46.7617 56.9243 46.7169 59.9133 46.6357C62.905 46.5534 65.788 46.4369 66.6777 46.2855C67.5483 46.1368 68.1732 45.9918 68.6299 45.8035C69.085 45.6168 69.3793 45.3748 69.5433 45.0441C69.5902 44.9497 69.635 44.8026 69.6899 44.5975C70.0659 43.1731 70.7599 39.1267 70.8021 38.7323C70.8084 38.6695 70.8152 38.5967 70.8152 38.5166C70.8179 38.2766 70.7462 37.9623 70.4371 37.7024C70.1302 37.4419 69.6108 37.2288 68.718 37.1065C67.4112 36.9287 63.9813 36.8075 60.5693 36.7289C57.1595 36.6508 53.7771 36.6166 52.59 36.6166C51.403 36.6166 48.0205 36.6508 44.6107 36.7289C41.1987 36.8075 37.7688 36.9287 36.4621 37.1065C35.5693 37.2288 35.0503 37.4419 34.7434 37.7024C34.4344 37.9618 34.3627 38.2761 34.3653 38.5161C34.3653 38.5962 34.3722 38.6695 34.3785 38.7323C34.4022 38.9617 34.6385 40.3723 34.9074 41.8152C35.0419 42.5355 35.1848 43.2612 35.3124 43.8449C35.3762 44.1371 35.4364 44.3934 35.4901 44.5975C35.545 44.8026 35.5904 44.9497 35.6368 45.0447C35.8008 45.3748 36.095 45.6168 36.5501 45.8035C37.0068 45.9918 37.6317 46.1368 38.5024 46.2855C39.3925 46.4369 42.2756 46.5534 45.2672 46.6357C48.2557 46.7169 51.3386 46.7617 52.59 46.7617V46.6299V46.498C51.3434 46.498 48.2605 46.4532 45.2741 46.372C42.2914 46.2908 39.3904 46.1706 38.5467 46.0255C37.6839 45.8784 37.0722 45.7344 36.6509 45.5599C36.2285 45.3837 36.0043 45.1881 35.8725 44.9265C35.8445 44.8727 35.7965 44.7267 35.7449 44.53C35.3762 43.1409 34.6765 39.0629 34.6406 38.7054V38.7049C34.6348 38.6453 34.629 38.5815 34.629 38.5161C34.6316 38.3183 34.6717 38.1132 34.9143 37.9028C35.159 37.6929 35.6315 37.4851 36.4979 37.3675C37.7715 37.1935 41.2108 37.0706 44.6165 36.9925C48.0242 36.9145 51.4067 36.8802 52.59 36.8802C53.7734 36.8802 57.1558 36.9145 60.5636 36.9925C63.9692 37.0706 67.4086 37.1935 68.6821 37.3675C69.5491 37.4851 70.0211 37.6934 70.2663 37.9033C70.5089 38.1137 70.5489 38.3188 70.5516 38.5166C70.5516 38.582 70.5458 38.6453 70.5394 38.7054L70.54 38.7049C70.5189 38.9058 70.281 40.3323 70.0131 41.7667C69.8787 42.4854 69.7368 43.209 69.6103 43.7885C69.547 44.078 69.4874 44.3317 69.4352 44.53C69.3835 44.7267 69.3355 44.8727 69.3076 44.9265C69.1757 45.1881 68.9516 45.3837 68.5292 45.5599C68.1078 45.7344 67.4961 45.8784 66.6334 46.0255C65.7901 46.1706 62.8892 46.2908 59.906 46.372C56.9196 46.4532 53.8367 46.498 52.59 46.498V46.6299Z" fill="black"/>
<path d="M52.5893 46.1416V46.0098C51.1892 46.0098 48.101 45.9623 45.1605 45.8806C42.2231 45.7988 39.4192 45.6802 38.6277 45.5441C37.8493 45.4112 37.2998 45.2831 36.9306 45.1444C36.5594 45.0046 36.3812 44.8591 36.3063 44.7067L36.1881 44.7652L36.3068 44.7083C36.2862 44.6666 36.244 44.5332 36.1976 44.3518C35.867 43.0666 35.1746 39.1574 35.1234 38.6527L35.1155 38.5414C35.1203 38.4323 35.1319 38.3389 35.3143 38.2071C35.4994 38.0779 35.8733 37.9397 36.5626 37.8469C37.8382 37.6723 41.324 37.55 44.7444 37.4735C48.1658 37.396 51.5314 37.3633 52.5893 37.3633C53.6471 37.3633 57.0127 37.396 60.4341 37.4735C63.8545 37.55 67.3408 37.6723 68.616 37.8469C69.3052 37.9397 69.6791 38.0779 69.8642 38.2071C70.0461 38.3389 70.0577 38.4323 70.063 38.5409L70.0551 38.6527C70.0266 38.938 69.7872 40.3439 69.5267 41.7277C69.3965 42.4206 69.2604 43.1104 69.1418 43.6572C69.0827 43.9304 69.0278 44.1677 68.9809 44.3512C68.935 44.5332 68.8923 44.6666 68.8717 44.7083L68.9904 44.7657L68.8723 44.7067C68.7974 44.8591 68.6197 45.0052 68.2484 45.1444C67.8793 45.2836 67.3293 45.4112 66.5509 45.5441C65.7593 45.6802 62.9554 45.7988 60.018 45.8806C57.0781 45.9623 53.9894 46.0098 52.5893 46.0098V46.1416V46.2734C53.9941 46.2734 57.0828 46.226 60.0254 46.1437C62.9717 46.0614 65.7572 45.9459 66.5952 45.8041C67.3815 45.6696 67.942 45.5409 68.3412 45.3912C68.7378 45.2419 68.9862 45.0674 69.108 44.8243L69.109 44.8232C69.1486 44.7394 69.1871 44.607 69.2367 44.4166C69.5736 43.0998 70.2613 39.2212 70.3177 38.6796C70.3214 38.6411 70.3267 38.5942 70.3267 38.5409C70.3314 38.379 70.2624 38.1549 70.014 37.9898C69.7677 37.8216 69.3611 37.6829 68.6518 37.5853C67.343 37.4071 63.8667 37.2869 60.4405 37.2099C57.0159 37.1323 53.6508 37.0997 52.5893 37.0997C51.5277 37.0997 48.1627 37.1323 44.7381 37.2099C41.3119 37.2869 37.8356 37.4071 36.5267 37.5853C35.8174 37.6829 35.4108 37.8216 35.1645 37.9898C34.9162 38.1554 34.8466 38.3795 34.8518 38.5414C34.8518 38.5947 34.8571 38.6416 34.8608 38.6796C34.8935 38.9923 35.1313 40.3856 35.3929 41.7767C35.5237 42.4718 35.6603 43.1631 35.7789 43.7137C35.8385 43.989 35.8939 44.2289 35.9424 44.4172C35.9914 44.607 36.0299 44.7394 36.0695 44.8227L36.0711 44.8253L36.0705 44.8243C36.1929 45.0674 36.4413 45.2419 36.8378 45.3912C37.237 45.5409 37.7971 45.6696 38.5828 45.8041C39.4213 45.9459 42.2068 46.0614 45.1531 46.1437C48.0962 46.226 51.1844 46.2734 52.5893 46.2734V46.1416Z" fill="black"/>
<path d="M66.7763 52.3193V52.1874H38.3996C38.3332 52.1874 38.262 52.1869 38.1887 52.1869C37.8659 52.188 37.4947 52.1948 37.182 52.334C37.0259 52.4036 36.884 52.5112 36.7843 52.6673C36.6847 52.8234 36.6303 53.0228 36.6309 53.2669L36.6314 53.2933L36.7627 53.2896L36.6309 53.2912C36.6388 53.8217 36.7596 54.7419 37.0111 55.6157C37.2669 56.4869 37.636 57.3143 38.2198 57.6476C38.9053 58.0278 39.7153 58.0932 40.5596 58.0938C41.0675 58.0938 41.589 58.0695 42.1069 58.0695H63.0691C63.5869 58.0695 64.1085 58.0938 64.6163 58.0938C65.4601 58.0932 66.2701 58.0278 66.9567 57.6476C67.5399 57.3143 67.9086 56.4869 68.1643 55.6157C68.4159 54.7419 68.5366 53.8217 68.5446 53.2912V53.2674C68.5451 53.0227 68.4908 52.8234 68.3911 52.6673C68.2408 52.4316 67.9998 52.3119 67.7498 52.2523C67.4983 52.1922 67.2293 52.1869 66.9868 52.1869C66.9135 52.1869 66.8428 52.1874 66.7763 52.1874V52.3193V52.4511C66.8444 52.4511 66.915 52.4506 66.9868 52.4506C67.3032 52.4495 67.6454 52.4648 67.8854 52.5745C68.0061 52.6293 68.1005 52.7026 68.1691 52.8092C68.2366 52.9157 68.2809 53.0602 68.2809 53.2674V53.2875C68.2746 53.7853 68.1559 54.6966 67.9112 55.5424C67.6707 56.3904 67.2868 57.1704 66.8286 57.4172C66.2116 57.7605 65.4479 57.8311 64.6163 57.8301C64.1169 57.8306 63.5948 57.8058 63.0691 57.8058H42.1069C41.5811 57.8058 41.059 57.8306 40.5596 57.8301C39.728 57.8311 38.9639 57.7605 38.3479 57.4172C37.8891 57.1704 37.5047 56.3904 37.2647 55.5424C37.02 54.6966 36.9014 53.7853 36.8945 53.2875V53.2854V53.2669C36.8945 53.0602 36.9389 52.9157 37.0069 52.8092C37.1076 52.651 37.2732 52.5608 37.4873 52.5091C37.6998 52.4574 37.9519 52.45 38.1887 52.4506C38.2609 52.4506 38.3316 52.4511 38.3996 52.4511H66.7763V52.3193Z" fill="black"/>
<path d="M90.7919 53.3025L90.9227 53.285C90.8857 53.0034 90.7302 52.7867 90.5329 52.6348C89.9418 52.1839 88.9799 52.1903 88.9688 52.186L73.095 52.185L73.0682 52.2815C72.9189 52.8189 72.68 53.6858 72.4686 54.4774C72.2566 55.2705 72.0741 55.9793 72.034 56.2287C72.0156 56.3463 72.004 56.4639 72.004 56.5805C72.0008 56.9544 72.1337 57.3277 72.5102 57.6267L72.5466 57.6562H72.5935C74.6866 57.6441 78.1692 57.6088 81.2843 57.5123C82.8421 57.4638 84.3076 57.4 85.4625 57.3151C86.0399 57.2729 86.5399 57.2254 86.9364 57.1721C87.3346 57.1178 87.6236 57.0609 87.8029 56.9865C88.5549 56.6675 89.3259 56.0452 89.9181 55.3723C90.5076 54.6957 90.9253 53.9817 90.9311 53.4142L90.9227 53.285L90.7919 53.3025L90.6611 53.3198L90.6674 53.4142C90.6732 53.8488 90.292 54.5528 89.7203 55.1983C89.1513 55.8469 88.3988 56.4492 87.7 56.7434C87.5724 56.7988 87.2882 56.8594 86.9011 56.9106C84.1758 57.2792 76.2497 57.3715 72.592 57.3926L72.593 57.5244L72.6753 57.4216C72.3594 57.1632 72.2708 56.899 72.2676 56.5805C72.2676 56.4813 72.2771 56.378 72.2945 56.2699C72.3283 56.0536 72.5123 55.3327 72.7233 54.5454C72.9342 53.7554 73.1731 52.889 73.3223 52.3522L73.1953 52.3168V52.4487L88.9678 52.4497L89.0348 52.4518C89.1903 52.4592 89.5906 52.493 89.9518 52.6227C90.1322 52.6876 90.302 52.7762 90.428 52.8906C90.5535 53.0056 90.6368 53.1411 90.6611 53.3198L90.7919 53.3025Z" fill="black"/>
<path d="M14.4752 53.304L14.3444 53.2861L14.3359 53.4163C14.3417 53.9838 14.7589 54.6978 15.3485 55.3739C15.9412 56.0473 16.7122 56.669 17.4642 56.9881C17.6403 57.0614 17.9214 57.1168 18.3074 57.1705C20.9922 57.5376 28.6487 57.6315 32.4225 57.6562H32.4699L32.5063 57.6267C32.8808 57.3282 33.0126 56.9554 33.0094 56.5826C33.0094 56.4655 32.9978 56.3484 32.9794 56.2308V56.2303C32.9393 55.9809 32.7568 55.2721 32.5448 54.479C32.3334 53.6874 32.0939 52.8204 31.9447 52.2831L31.9178 52.1866L16.2987 52.1876H16.2982C16.2914 52.1876 15.86 52.1908 15.3996 52.321C15.1691 52.3864 14.9308 52.4835 14.7336 52.6364C14.5369 52.7883 14.3808 53.005 14.3444 53.2866V53.2861L14.4752 53.304L14.6059 53.3214C14.6334 53.1173 14.7383 52.9686 14.8954 52.8447C15.1306 52.6601 15.485 52.5557 15.7788 52.5046C15.9259 52.4787 16.0572 52.4655 16.1516 52.4587C16.246 52.4513 16.3003 52.4513 16.3003 52.4513H16.2993L31.8176 52.4502V52.3184L31.6905 52.3537C31.8397 52.8906 32.0792 53.757 32.2901 54.547C32.5011 55.3343 32.6851 56.0552 32.7194 56.272L32.7188 56.2714C32.7362 56.3795 32.7463 56.4834 32.7463 56.5826C32.7426 56.9006 32.6545 57.1642 32.3407 57.4216L32.4235 57.5244L32.4241 57.3926C30.2704 57.3789 26.8452 57.3414 23.8098 57.2444C22.2921 57.1959 20.8714 57.1321 19.7571 57.0487C19.2002 57.0076 18.7198 56.9607 18.3433 56.9095C17.9683 56.8584 17.692 56.7993 17.567 56.745C16.8683 56.4507 16.1157 55.8485 15.5467 55.1998C14.9751 54.5549 14.5938 53.8504 14.5996 53.4163L14.6054 53.3214H14.6059L14.4752 53.304Z" fill="black"/>
<path d="M27.9756 37.3264L27.9108 37.4408L27.9218 37.4213L27.9097 37.4403L27.9108 37.4408L27.9218 37.4213L27.9097 37.4403C27.9392 37.4561 29.2122 38.284 30.113 43.3192L30.2427 43.296L30.2474 43.1647C30.2443 43.1641 29.0509 43.1235 27.405 43.0639C25.7586 43.0049 23.6624 42.9268 21.8631 42.853C18.2782 42.7058 15.4247 42.0097 14.3035 41.5873C13.7635 41.3843 13.2198 40.9456 12.7921 40.4467C12.3639 39.9494 12.0507 39.3893 11.9558 38.9701C11.9225 38.8251 11.9004 38.6247 11.9004 38.3969C11.8999 37.8574 12.0243 37.1623 12.3776 36.6171C12.7331 36.0728 13.2979 35.6678 14.2418 35.6647C15.4125 35.6641 18.8535 36.1119 21.9849 36.5601C23.5522 36.7842 25.0446 37.0084 26.1457 37.1761C27.2463 37.3443 27.9535 37.4561 27.955 37.4566L27.9756 37.3264L27.9962 37.1961C27.9962 37.1961 25.1585 36.7473 22.0224 36.2991C18.883 35.8508 15.4574 35.4021 14.2418 35.401C13.2177 35.3984 12.5453 35.8661 12.1562 36.4742C11.7649 37.0817 11.6372 37.8189 11.6367 38.3969C11.6367 38.6421 11.6599 38.8583 11.6984 39.0292C11.8113 39.5138 12.143 40.0939 12.5923 40.6186C13.0426 41.1417 13.6101 41.6069 14.2102 41.8341C15.3714 42.2703 18.2365 42.9669 21.852 43.1161C25.4528 43.2643 30.238 43.4278 30.238 43.4278L30.4014 43.4336L30.3724 43.2728C29.4353 38.042 28.0943 37.2441 28.041 37.2114L28.0199 37.1998L27.9962 37.1961L27.9756 37.3264Z" fill="black"/>
<path d="M77.2989 37.3264L77.2335 37.2114C77.1802 37.2441 75.8392 38.042 74.9021 43.2728L74.873 43.4336L75.036 43.4278C75.0365 43.4278 79.8217 43.2643 83.4225 43.1161C87.038 42.9669 89.9025 42.2703 91.0632 41.8341C91.6639 41.6069 92.2318 41.1417 92.6822 40.6186C93.1315 40.0939 93.4632 39.5138 93.5755 39.0292C93.6146 38.8583 93.6372 38.641 93.6378 38.3958C93.6367 37.8173 93.5091 37.0806 93.1178 36.4736C92.7286 35.8656 92.0562 35.3984 91.0321 35.401C89.8171 35.4021 86.3914 35.8508 83.2521 36.2991C80.116 36.7473 77.2783 37.1961 77.2783 37.1961L77.2546 37.1998L77.2335 37.2114L77.2989 37.3264L77.3194 37.4566C77.321 37.4561 78.0282 37.3443 79.1288 37.1761C80.7804 36.924 83.3133 36.5459 85.6558 36.231C87.9967 35.9157 90.1562 35.6641 91.0321 35.6647C91.9761 35.6678 92.5409 36.0728 92.8963 36.6165C93.2496 37.1613 93.3746 37.8558 93.3741 38.3958C93.3741 38.6242 93.3519 38.8251 93.3182 38.9701C93.2233 39.3893 92.9106 39.9494 92.4818 40.4467C92.0541 40.9456 91.5104 41.3843 90.9704 41.5873C89.8498 42.0097 86.9963 42.7058 83.4114 42.853C81.6121 42.9268 79.5159 43.0049 77.8695 43.0639C76.2236 43.1235 75.0302 43.1641 75.027 43.1647L75.0318 43.296L75.1615 43.3192C75.6266 40.722 76.1904 39.2417 76.6318 38.418C76.8522 38.0061 77.042 37.7577 77.1728 37.6148C77.2387 37.5431 77.2894 37.4977 77.3226 37.4714L77.3579 37.445L77.3648 37.4403L77.3526 37.4208L77.3637 37.4408L77.3648 37.4403L77.3526 37.4208L77.3637 37.4408L77.2989 37.3264Z" fill="black"/>
<path d="M52.5121 22.8291V22.961C62.6014 22.961 72.0446 23.3929 78.9656 23.8248C82.4255 24.0405 85.2553 24.2567 87.2197 24.4186C88.2016 24.4998 88.9673 24.5668 89.4878 24.6142C90.0078 24.6617 90.2815 24.688 90.2825 24.6886L90.4724 24.707L90.4223 24.5225C88.2116 16.377 82.723 6.44014 82.7209 6.43539L82.6929 6.3853L82.6376 6.37106C81.5908 6.10738 79.5531 5.90118 76.9791 5.73454C69.2623 5.23619 56.7736 5.11438 52.5121 5.11438C49.6707 5.11438 43.1727 5.16869 36.8704 5.35221C33.7189 5.44397 30.6165 5.56842 28.0441 5.73454C25.4701 5.90118 23.4324 6.10738 22.3856 6.37106L22.3303 6.3853L22.3023 6.43539C22.3007 6.44014 16.8115 16.377 14.6009 24.5225L14.5508 24.707L14.7412 24.6886C14.7417 24.688 15.0154 24.6617 15.5353 24.6142C19.1772 24.2836 34.8538 22.961 52.5121 22.961V22.8291V22.6973C32.3167 22.6973 14.718 24.4259 14.7153 24.4259L14.728 24.5573L14.8556 24.5915C15.953 20.5441 17.8731 16.0337 19.5184 12.5384C20.3411 10.7908 21.0952 9.29627 21.6431 8.23893C21.9174 7.71052 22.1399 7.29128 22.2939 7.00388C22.4479 6.717 22.5333 6.56301 22.5333 6.56248L22.4178 6.4992L22.4505 6.62681C23.4556 6.3721 25.4949 6.16275 28.061 5.99769C35.764 5.49987 48.2548 5.37805 52.5121 5.37805C55.3498 5.37805 61.8468 5.43237 68.1454 5.61589C71.2948 5.70765 74.3945 5.83157 76.9622 5.99769C79.5278 6.16275 81.5676 6.3721 82.5732 6.62681L82.6054 6.4992L82.4899 6.56248C82.4904 6.56301 82.5753 6.717 82.7293 7.00388C83.8077 9.01256 88.247 17.5066 90.1681 24.5915L90.2952 24.5573L90.3084 24.4259C90.3058 24.4259 72.7059 22.6973 52.5121 22.6973V22.8291Z" fill="black"/>
<path d="M86.3788 62.3916L86.507 62.3605C86.3709 61.8057 86.1315 61.2678 85.7149 60.8644C85.2983 60.461 84.7045 60.2031 83.9003 60.2042C81.4623 60.2042 24.1446 60.2042 21.4124 60.2042C20.451 60.2026 19.8214 60.5338 19.4338 60.9773C19.0456 61.4202 18.8964 61.9592 18.8394 62.3737L18.8184 62.5234H86.547L86.507 62.3605L86.3788 62.3916V62.2598H18.9697V62.3916L19.1005 62.4095C19.1527 62.0256 19.2925 61.5368 19.6321 61.1513C19.9722 60.7668 20.509 60.4699 21.4124 60.4678C24.1446 60.4678 81.4623 60.4678 83.9003 60.4678C84.6502 60.4694 85.1633 60.6999 85.5314 61.0542C85.8995 61.4092 86.1225 61.8991 86.2512 62.4232L86.3788 62.3916Z" fill="black"/>
<path d="M104.756 21.196L104.882 21.156C104.523 20.0438 103.321 19.0313 102.196 18.7238C101.154 18.4459 98.44 18.0298 97.3848 18.0288C97.3252 18.0288 97.2703 18.0298 97.2208 18.0325C96.7135 18.0667 96.2778 18.4601 95.9382 18.9469C95.5992 19.4363 95.3561 20.0327 95.2748 20.5326C95.171 21.1734 95.0745 22.3314 95.0201 23.0449L95.1514 23.0544L95.1488 22.9226L93.6991 22.9542L93.5335 22.7886L93.4402 22.8814L93.5567 22.8197C93.5567 22.8197 91.2158 18.4111 88.8011 13.8917C87.594 11.6325 86.3679 9.34541 85.4076 7.56771C84.9272 6.6786 84.5132 5.91763 84.2005 5.3502C83.8867 4.78172 83.6789 4.41363 83.5982 4.29234C83.3092 3.85569 82.9438 3.22921 81.8443 2.65281C80.7448 2.07431 78.9143 1.52744 75.6516 1.16937C69.1325 0.453754 56.9702 0.0766983 52.5974 0.0766983C48.2241 0.0766983 36.0618 0.453754 29.5427 1.16937C26.2795 1.52744 24.449 2.07431 23.3495 2.65281C22.25 3.22921 21.8845 3.85569 21.5955 4.29234C21.5149 4.41363 21.3071 4.78172 20.9933 5.3502C18.8064 9.31905 11.6381 22.8192 11.6376 22.8197L11.7541 22.8814L11.6608 22.7881L11.4947 22.9542L10.0502 22.9226L10.0476 23.0544L10.1789 23.0449C10.1251 22.3314 10.0281 21.1734 9.92475 20.5326C9.84301 20.0327 9.59991 19.4363 9.26082 18.9469C8.92121 18.4601 8.48561 18.0667 7.97883 18.0325C7.92873 18.0298 7.87388 18.0288 7.81429 18.0288C6.75906 18.0298 4.0453 18.4459 3.00378 18.7238C1.87842 19.0313 0.676603 20.0438 0.31695 21.156L0.313242 21.1676L0.105469 22.8329V22.8419C0.105469 22.8472 0.111813 23.2585 0.214647 23.7199C0.320644 24.1777 0.50837 24.705 0.954508 24.9133C1.34422 25.0863 2.15317 25.2561 3.02119 25.3916C3.88763 25.5256 4.79995 25.6189 5.37107 25.6195L5.48128 25.6179L5.60099 25.6168C6.33453 25.6163 7.88813 25.7439 8.91804 25.8367L8.92963 25.7054L8.83629 25.6121L8.76352 25.6854L8.74243 25.707L8.73241 25.7349C8.73136 25.7402 7.30329 29.8061 7.04595 31.935C6.79335 34.0449 6.79386 36.3563 6.79386 36.3589H6.9257L6.80019 36.3173L6.5402 37.0983L6.54231 37.1241C6.54231 37.1247 6.91937 42.8348 7.25635 46.0722C7.4251 47.6922 7.76102 50.2029 8.20241 52.6425C8.64486 55.083 9.1891 57.4461 9.78606 58.7924C10.3788 60.124 10.9842 61.0542 11.6782 61.657C12.3717 62.2598 13.1569 62.525 14.0634 62.5234H91.1304C92.0369 62.525 92.8221 62.2598 93.5156 61.657C94.2101 61.0542 94.8155 60.124 95.4083 58.7924C96.0052 57.4461 96.5489 55.083 96.9914 52.6425C97.4333 50.2029 97.7692 47.6922 97.9374 46.0722C98.2744 42.8348 98.652 37.1247 98.652 37.1241L98.6541 37.0983L98.3936 36.3173L98.2681 36.3589H98.3999C98.3999 36.3563 98.4004 34.0449 98.1473 31.935C97.8905 29.8061 96.4624 25.7402 96.4614 25.7349L96.4513 25.707L96.3575 25.6131L96.2647 25.7065L96.2763 25.8372C97.3062 25.7439 98.864 25.6163 99.5975 25.6168L99.7172 25.6179L99.8269 25.6195C100.399 25.6189 101.311 25.5256 102.178 25.3916C103.046 25.2561 103.855 25.0863 104.245 24.9133C104.691 24.705 104.878 24.1777 104.984 23.7199C105.087 23.2585 105.093 22.8472 105.094 22.8419V22.8329L104.885 21.1676L104.882 21.156L104.756 21.196L104.625 21.2124L104.831 22.8561L104.962 22.8398L104.83 22.8377C104.83 22.8382 104.828 22.9337 104.815 23.0866C104.795 23.3155 104.746 23.6682 104.637 23.9857C104.53 24.3053 104.361 24.5753 104.137 24.6723C103.806 24.8226 102.992 24.9998 102.137 25.1311C101.281 25.2635 100.373 25.3558 99.8269 25.3558L99.7236 25.3542L99.5975 25.3531C98.8403 25.3531 97.2872 25.4813 96.2525 25.5746L95.972 25.6005L96.2441 25.872L96.3369 25.7787L96.2125 25.8225C96.213 25.823 96.3016 26.0756 96.4392 26.4896C96.8516 27.7289 97.7007 30.4157 97.8857 31.9666C98.0107 33.0108 98.0735 34.1098 98.1051 34.9472C98.1363 35.7847 98.1362 36.3579 98.1362 36.3589V36.3806L98.3957 37.1568L98.5207 37.1152L98.3894 37.1067C98.3888 37.1072 98.3656 37.4632 98.325 38.0491C98.2027 39.8057 97.9269 43.6242 97.6753 46.0448C97.5076 47.6574 97.1723 50.1644 96.7319 52.5955C96.2926 55.0256 95.7452 57.3855 95.1673 58.6854C94.5835 59.9985 93.9923 60.895 93.3431 61.4577C92.6929 62.0198 91.9873 62.2587 91.1304 62.2598H14.0634C13.2064 62.2587 12.5008 62.0198 11.8511 61.4577C11.2014 60.895 10.6108 59.9985 10.027 58.6848C9.44854 57.3855 8.90115 55.0256 8.46186 52.5955C8.02205 50.1644 7.68615 47.6574 7.51845 46.0448C7.35075 44.4311 7.17251 42.1957 7.03593 40.3647C6.9679 39.4492 6.90989 38.6345 6.86928 38.0491C6.82867 37.4632 6.80547 37.1072 6.80547 37.1067L6.67363 37.1152L6.79862 37.1568L7.05753 36.3806V36.3589C7.05753 36.3579 7.05755 35.7847 7.08867 34.9472C7.11978 34.1098 7.18253 33.0108 7.30751 31.9666C7.43144 30.9341 7.85014 29.3926 8.23774 28.1159C8.43128 27.4768 8.61745 26.903 8.75456 26.4896C8.8922 26.0756 8.98078 25.823 8.98131 25.8225L8.85686 25.7787L8.9502 25.872L9.02297 25.7987L9.22178 25.5994L8.94176 25.5741C7.90762 25.4813 6.35826 25.3531 5.60099 25.3531L5.47443 25.3542L5.37107 25.3558C4.82632 25.3558 3.91769 25.2635 3.0618 25.1311C2.20749 24.9998 1.39327 24.8226 1.06209 24.6723C0.762555 24.5468 0.565329 24.0975 0.471988 23.6624C0.423999 23.4468 0.39815 23.239 0.384439 23.0866C0.370728 22.9337 0.369144 22.8382 0.369144 22.8377L0.237306 22.8398L0.368088 22.8561L0.573776 21.2124L0.442994 21.196L0.568497 21.2361C0.877524 20.2415 2.03926 19.2512 3.07182 18.9785C4.07325 18.7085 6.81232 18.2903 7.81429 18.2924C7.87019 18.2924 7.92028 18.2935 7.96299 18.2961C8.3295 18.313 8.7287 18.6389 9.04406 19.0966C9.35994 19.5512 9.59199 20.1239 9.66424 20.5748C9.76496 21.195 9.86252 22.3551 9.91578 23.0644L9.92475 23.1836L11.6012 23.2205L11.8475 22.9748L11.8612 22.9611L11.8707 22.9431C11.8707 22.9426 12.0167 22.6679 12.2741 22.1843C13.1743 20.4904 15.4324 16.2442 17.5297 12.3249C18.5786 10.3653 19.5874 8.48741 20.3657 7.05144C20.7549 6.33371 21.0861 5.72621 21.3366 5.27427C21.586 4.82444 21.7574 4.52385 21.8149 4.43841C22.1134 3.9928 22.4198 3.44383 23.4724 2.88643C24.5244 2.33165 26.3264 1.7869 29.5717 1.43146C36.0687 0.717957 48.2368 0.339848 52.5974 0.340374C56.9576 0.339848 69.1256 0.717957 75.6226 1.43146C78.8679 1.7869 80.6693 2.33165 81.7214 2.88643C82.774 3.44383 83.0804 3.9928 83.3789 4.43841C83.4453 4.53703 83.6584 4.91303 83.9695 5.47782C85.0616 7.45908 87.4004 11.8261 89.4661 15.6968C90.4986 17.6327 91.4631 19.4442 92.1698 20.772C92.8759 22.0994 93.3226 22.9416 93.3237 22.9431L93.3331 22.9611L93.5525 23.1805L93.5921 23.2205L95.2738 23.1836L95.2833 23.065C95.3371 22.3551 95.4341 21.195 95.5354 20.5748C95.6071 20.1239 95.8391 19.5512 96.155 19.0966C96.4704 18.6389 96.8696 18.313 97.2361 18.2961C97.2793 18.2935 97.3294 18.2924 97.3848 18.2924C98.3867 18.2903 101.126 18.7085 102.128 18.9785C103.16 19.2512 104.322 20.2415 104.631 21.2361L104.756 21.196Z" fill="black"/>
<path d="M14.0561 62.3929V62.2611C13.1991 62.26 12.4935 62.0212 11.8438 61.459C11.1942 60.8963 10.6035 59.9998 10.0198 58.6862C9.47605 57.4638 8.95871 55.3011 8.53367 53.0256C8.1081 50.7496 7.77114 48.3559 7.57707 46.6531L7.31445 46.6679V71.2725C7.31445 71.7576 7.45103 72.2006 7.67938 72.5297C7.90666 72.8577 8.23521 73.0776 8.60963 73.0781H18.7279C19.1018 73.0776 19.4298 72.8572 19.6566 72.5297C19.8849 72.2001 20.0215 71.7576 20.0215 71.2725V62.2611H14.0561V62.3929V62.5248H19.7578V71.2725C19.7583 71.7075 19.6333 72.1015 19.4398 72.3794C19.2457 72.6584 18.9926 72.815 18.7279 72.8144H8.60963C8.34437 72.815 8.0907 72.6584 7.89611 72.3789C7.70257 72.1015 7.5776 71.7075 7.57813 71.2725V46.6679H7.44629L7.31497 46.6826C7.51009 48.3923 7.84706 50.7902 8.27422 53.0741C8.70242 55.3597 9.21713 57.5266 9.77876 58.7932C10.3715 60.1253 10.9769 61.0556 11.6709 61.6583C12.3644 62.2611 13.1496 62.5264 14.0561 62.5248V62.3929Z" fill="black"/>
<path d="M97.8008 46.0598L97.6695 46.0461C97.5018 47.6588 97.1664 50.1658 96.726 52.5969C96.2868 55.0269 95.7394 57.3868 95.1614 58.6867C94.5776 59.9998 93.9865 60.8963 93.3373 61.459C92.6871 62.0212 91.9815 62.2601 91.1245 62.2611H85.3047V71.2725C85.3052 71.7576 85.4418 72.2006 85.6702 72.5297C85.8974 72.8577 86.2254 73.0776 86.5999 73.0781H96.7187C97.0926 73.0776 97.4206 72.8572 97.6468 72.5297C97.8751 72.2001 98.0112 71.7576 98.0117 71.2725V45.2588L97.7486 45.2467C97.7222 45.5251 97.6958 45.7941 97.6695 46.0461L97.8008 46.0598L97.9316 46.0736C97.9585 45.8204 97.9848 45.5504 98.0112 45.2709L97.8799 45.2588H97.748V71.2725C97.748 71.7075 97.6236 72.1015 97.4306 72.3794C97.236 72.6584 96.9834 72.815 96.7187 72.8144H86.5999C86.3346 72.815 86.0815 72.6584 85.8869 72.3789C85.6933 72.1015 85.5684 71.7075 85.5684 71.2725V62.5248H91.1245C92.031 62.5264 92.8163 62.2611 93.5097 61.6583C94.2042 61.0556 94.8097 60.1253 95.4024 58.7938C95.9994 57.4475 96.5431 55.0844 96.9855 52.6438C97.4274 50.2043 97.7633 47.6936 97.9316 46.0736L97.8008 46.0598Z" fill="black"/>
<path d="M90.1486 24.0247L90.0853 24.0427C90.1354 24.2204 90.1866 24.3976 90.2345 24.5727L90.2978 24.5553L90.3041 24.4893C90.3031 24.4893 72.7049 22.7612 52.5147 22.7612C32.323 22.7612 14.7253 24.4893 14.7243 24.4893L14.7306 24.5553L14.7944 24.5721C14.8224 24.4677 14.854 24.3612 14.8835 24.2552L14.912 24.155L12.8242 24.5099L12.906 24.5996C13.8051 25.5815 14.999 26.6937 15.7885 27.1825C17.1659 28.0358 27.0463 34.0038 29.884 35.9102C32.7006 37.8018 33.2886 40.8441 33.6156 42.3101C33.6968 42.6724 33.9109 43.754 34.1851 45.1689L34.1956 45.2227H71.0828L71.0933 45.1689C71.3675 43.754 71.5811 42.6724 71.6623 42.3101C71.9898 40.8441 72.5778 37.8018 75.3944 35.9102C78.232 34.0038 88.1125 28.0358 89.4894 27.1825C89.9071 26.9246 90.4355 26.4927 90.9755 25.9981L90.9765 25.997L92.3455 24.628L92.3719 24.599L92.4457 24.5168L92.3387 24.4909C92.3197 24.4862 91.4654 24.2779 90.1639 23.9609L90.0542 23.934L90.0853 24.0427L90.1486 24.0247L90.1328 24.0891C91.4343 24.406 92.288 24.6143 92.307 24.6191L92.3229 24.5547L92.2738 24.511L92.2506 24.5368L90.8842 25.9026L90.9307 25.9496L90.8863 25.9011C90.35 26.392 89.8248 26.8207 89.4203 27.0707C88.0439 27.9229 78.1651 33.8899 75.3205 35.8005C72.4544 37.7264 71.8611 40.8182 71.5336 42.2811C71.4514 42.6481 71.2383 43.7281 70.9636 45.1441L71.0284 45.1567V45.0908H34.2499V45.1567L34.3148 45.1441C34.0401 43.7281 33.8265 42.6481 33.7442 42.2811C33.4173 40.8182 32.824 37.7264 29.9579 35.8005C27.1133 33.8899 17.2345 27.9229 15.8575 27.0707C15.0908 26.5966 13.8953 25.486 13.003 24.5104L12.9545 24.5547L12.9656 24.6201L14.8313 24.3021L14.8202 24.2373L14.757 24.2193C14.7274 24.3243 14.6958 24.4319 14.6673 24.5384L14.6425 24.6301L14.7375 24.6206C14.738 24.6206 15.0117 24.5938 15.5322 24.5468C19.1751 24.2156 34.8532 22.893 52.5147 22.893C62.6061 22.893 72.0504 23.325 78.9719 23.7569C82.4329 23.9731 85.2627 24.1888 87.2276 24.3506C88.21 24.4319 88.9758 24.4994 89.4963 24.5468C90.0167 24.5938 90.2905 24.6206 90.2915 24.6206L90.3864 24.6301L90.3616 24.5379C90.3137 24.3617 90.2625 24.184 90.2119 24.0068L90.1486 24.0247Z" fill="black"/>
<path d="M71.5913 42.2955L71.5269 42.2813C71.1984 43.7494 68.7457 56.737 68.7457 56.7375L68.7451 56.7397V56.7418L68.7383 56.842C68.7362 57.1847 68.9877 57.3851 69.3484 57.4795C69.7118 57.5787 70.2064 57.5977 70.7707 57.5977C71.3598 57.5977 75.2289 57.5908 79.1398 57.5038C81.0952 57.46 83.0606 57.3967 84.6326 57.3044C86.2078 57.2106 87.3764 57.094 87.7778 56.9263C88.5166 56.6141 89.2833 55.9966 89.8698 55.3295C90.4546 54.6614 90.8628 53.9494 90.8659 53.4152L90.858 53.2945C90.7852 52.7661 90.2964 52.5103 89.8502 52.3837C89.3999 52.2561 88.9727 52.253 88.969 52.253L70.2887 52.2519V52.3178L70.353 52.3326C70.3536 52.3315 70.825 50.2216 71.0444 48.9291C71.2617 47.6429 71.5913 46.2681 71.9994 45.4955C72.1877 45.1311 72.9576 44.5805 73.6732 44.1407C74.0313 43.9198 74.3767 43.7225 74.633 43.5812C74.8888 43.4393 75.0544 43.3539 75.0544 43.3534L75.0834 43.3386L75.0892 43.3065C75.8971 38.7923 77.004 37.6395 77.2656 37.4249L77.2239 37.3743L77.2608 37.4286L77.2624 37.4276L77.264 37.4265L77.2946 37.4028L77.361 37.3511L75.3539 35.7743L75.3138 35.8007C72.4477 37.7266 71.8544 40.8184 71.5269 42.2813L71.5913 42.2955L71.6556 42.3103C71.9831 40.8443 72.5711 37.802 75.3876 35.9104L75.3507 35.8555L75.3101 35.9072L77.2133 37.4028L77.2539 37.3506L77.2139 37.2989L77.1865 37.32L77.1843 37.3216L77.1817 37.3231C76.8832 37.5705 75.7705 38.7538 74.9595 43.2833L75.0243 43.2949L74.9937 43.2363C74.9932 43.2368 74.3251 43.5833 73.6036 44.0289C72.8817 44.4777 72.1102 45.0114 71.8829 45.4338C71.461 46.2354 71.134 47.6133 70.9147 48.9069C70.8055 49.5498 70.6331 50.3993 70.4875 51.088C70.3425 51.7762 70.2249 52.3025 70.2244 52.3036L70.2064 52.3837L88.9685 52.3848C88.9685 52.3848 89.0703 52.3853 89.2285 52.4017C89.4658 52.4259 89.8255 52.4855 90.1313 52.6253C90.4382 52.7666 90.6829 52.9791 90.7272 53.3119L90.7341 53.4152C90.7367 53.883 90.3465 54.5897 89.7706 55.2425C89.1958 55.8975 88.4385 56.5045 87.7266 56.805C87.3749 56.9564 86.1915 57.0819 84.6253 57.1726C79.9171 57.4495 71.653 57.4663 70.7707 57.4658C70.2101 57.4663 69.7218 57.4453 69.3832 57.3524C69.042 57.2544 68.8722 57.1099 68.8701 56.842L68.8759 56.7581L68.8105 56.7502L68.8754 56.7623C68.8754 56.7602 69.0283 55.9502 69.2635 54.7099C69.9686 50.9884 71.4104 43.4051 71.6556 42.3103L71.5913 42.2955Z" fill="black"/>
<path d="M29.9138 35.8553L29.8768 35.9102C32.6934 37.8018 33.2814 40.8441 33.6084 42.3101C33.6896 42.6724 33.9037 43.754 34.1779 45.1689L34.1885 45.2227H71.0756L71.0861 45.1689C71.3604 43.754 71.5739 42.6724 71.6551 42.3101C71.9826 40.8441 72.5706 37.8018 75.3872 35.9102L75.5375 35.8089L75.3571 35.7899C75.3561 35.7899 61.8074 34.3476 52.7269 34.3476C43.6454 34.3476 29.908 35.7899 29.9069 35.7899L29.7266 35.8089L29.8768 35.9102L29.9138 35.8553L29.9206 35.9207C29.9227 35.9207 30.7786 35.8305 32.2083 35.6955C36.4961 35.29 45.9252 34.4789 52.7269 34.4795C57.2606 34.4795 62.9159 34.8396 67.4363 35.1998C69.6965 35.3802 71.6736 35.5605 73.0853 35.6955C74.497 35.8305 75.3413 35.9207 75.3434 35.9207L75.3503 35.8553L75.3134 35.8005C72.4472 37.7264 71.8539 40.8182 71.5265 42.2811C71.4442 42.6481 71.2311 43.7281 70.9564 45.1441L71.0212 45.1567V45.0908H34.2428V45.1567L34.3076 45.1441C34.0329 43.7281 33.8193 42.6481 33.7371 42.2811C33.4101 40.8182 32.8168 37.7264 29.9507 35.8005L29.9138 35.8553Z" fill="black"/>
<path d="M30.2381 43.2949L30.208 43.3534C30.208 43.3539 30.3736 43.4393 30.6294 43.5812C31.0133 43.7932 31.5992 44.1307 32.126 44.4872C32.6528 44.8416 33.1222 45.2244 33.263 45.4955C33.6711 46.2681 34.0002 47.6429 34.218 48.9291C34.4374 50.2216 34.9088 52.3315 34.9094 52.3326L34.9737 52.3178V52.2519L16.2939 52.253C16.2897 52.253 15.862 52.2561 15.4121 52.3837C14.9655 52.5103 14.4772 52.7661 14.4044 53.2945L14.3965 53.4158C14.3991 53.95 14.8078 54.6614 15.3927 55.33C15.9791 55.9966 16.7458 56.6141 17.4847 56.9263C17.886 57.094 19.0546 57.2106 20.6298 57.3044C25.3453 57.5818 33.6079 57.5977 34.4917 57.5977C35.0554 57.5977 35.5501 57.5787 35.9134 57.4795C36.2741 57.3851 36.5262 57.1847 36.5241 56.8425L36.5172 56.7418V56.7397L36.5167 56.7375C36.5167 56.737 34.064 43.7494 33.735 42.2813C33.408 40.8184 32.8147 37.7266 29.9486 35.8007L29.9059 35.7722L28.0216 37.445L28.0728 37.494C28.4287 37.8389 29.4276 39.143 30.1732 43.3065L30.179 43.3386L30.208 43.3534L30.2381 43.2949L30.303 43.2833C29.5541 39.1051 28.5506 37.7751 28.1646 37.3996L28.1187 37.4471L28.1619 37.4961L29.9554 35.9046L29.9117 35.8555L29.8747 35.9104C32.6913 37.802 33.2793 40.8443 33.6063 42.3103C33.7698 43.0391 34.4653 46.6546 35.1198 50.0845C35.4467 51.7994 35.7637 53.469 35.9989 54.7099C36.1165 55.33 36.2135 55.8432 36.281 56.2012C36.349 56.5593 36.387 56.7623 36.387 56.7623L36.4519 56.7502L36.3865 56.7581L36.3923 56.8425C36.3912 56.9801 36.3474 57.0777 36.2631 57.16C36.0115 57.412 35.3318 57.4695 34.4917 57.4658C33.9032 57.4658 30.0345 57.459 26.1258 57.3719C24.1714 57.3287 22.2065 57.2649 20.6371 57.1726C19.0709 57.0819 17.8875 56.9564 17.5358 56.805C16.8239 56.5045 16.0666 55.8975 15.4918 55.243C14.9159 54.5902 14.5252 53.8835 14.5283 53.4158L14.5352 53.3124C14.5916 52.87 15.0151 52.6337 15.448 52.5103C15.6626 52.4497 15.8752 52.418 16.0334 52.4017C16.1916 52.3853 16.2939 52.3848 16.2944 52.3848L35.0554 52.3837L35.038 52.3036C35.0375 52.3025 34.9199 51.7762 34.7749 51.088C34.6294 50.3993 34.4569 49.5498 34.3477 48.9069C34.1278 47.6133 33.8014 46.2354 33.3795 45.4338C33.1517 45.0119 32.3807 44.4777 31.6583 44.0289C30.9374 43.5833 30.2692 43.2368 30.2687 43.2363L30.2381 43.2949Z" fill="black"/>
<path d="M98.0063 31.9525L98.0717 31.9446C97.9668 31.0681 97.6598 29.86 97.3366 28.7415L97.2902 28.5806L97.2148 28.7299C96.0572 31.0186 93.8265 35.1524 93.0176 36.6448L93.0002 36.677L93.0186 36.7087C93.3234 37.246 93.431 37.8894 93.431 38.3983C93.431 38.6298 93.4089 38.8339 93.3741 38.9847C93.3461 39.1092 93.2976 39.2457 93.2354 39.3881L93.1948 39.4804H93.296V39.4145L93.2317 39.4013L93.2148 39.4683C93.1784 39.6017 93.0735 39.926 92.8298 40.3374L92.8066 40.3764L92.8351 40.4122C93.0909 40.7329 93.4004 41.0973 93.6989 41.3831C93.9995 41.6679 94.2774 41.882 94.519 41.8867C94.8918 41.8867 96.6853 41.8651 98.173 41.8461L98.2331 41.8451L98.2378 41.7855C98.4293 39.3343 98.5764 37.1216 98.5764 37.121L98.5769 37.1084L98.3206 36.34L98.2579 36.3606H98.3238C98.3238 36.3596 98.3243 34.0492 98.0717 31.9446L98.0063 31.9525L97.9409 31.9604C98.0665 33.0072 98.1292 34.1078 98.1608 34.9463C98.192 35.7847 98.1919 36.3596 98.1919 36.3606V36.3717L98.4477 37.1379L98.5105 37.1168L98.4446 37.1126C98.4446 37.1137 98.4082 37.6658 98.3475 38.5249C98.2869 39.3844 98.202 40.5499 98.1065 41.7749L98.1719 41.7802L98.1714 41.7143C96.6842 41.7333 94.8892 41.7554 94.519 41.7549C94.3623 41.7602 94.0786 41.5687 93.7901 41.2882C93.499 41.0092 93.1916 40.6485 92.9385 40.33L92.8868 40.3711L92.9438 40.4049C93.2776 39.8395 93.3598 39.4329 93.3609 39.4271L93.3767 39.3486H93.2955V39.4145L93.3561 39.4409C93.4205 39.2932 93.4722 39.1492 93.5028 39.0142C93.5402 38.8502 93.5629 38.6382 93.5629 38.3983C93.5624 37.8715 93.4532 37.2091 93.1331 36.6438L93.0756 36.676L93.1336 36.7076C93.9431 35.2147 96.1733 31.0813 97.3324 28.7894L97.2733 28.7594L97.21 28.7778C97.5328 29.8932 97.8376 31.0987 97.9409 31.9604L98.0063 31.9525Z" fill="black"/>
<path d="M12.4638 40.5093L12.5197 40.474C12.3224 40.1645 12.2006 39.895 12.1284 39.7041C12.092 39.6086 12.0682 39.5322 12.0535 39.4805C12.0387 39.4288 12.0334 39.403 12.0334 39.4024L11.9691 39.4161V39.4821H11.9702V39.4161L11.9122 39.4478L11.9132 39.4499L12.0313 39.3908C11.968 39.2484 11.9201 39.1108 11.8911 38.9864C11.8563 38.8355 11.8341 38.632 11.8341 38.4005C11.8341 37.891 11.9422 37.2461 12.2475 36.7077L12.2676 36.6723L12.2454 36.6386C10.5964 34.1637 8.73381 29.7514 8.11312 28.2295L8.04246 28.057L7.98867 28.2358C7.61478 29.4819 7.2261 30.9353 7.10376 31.9462C6.85169 34.0509 6.85221 36.3612 6.85221 36.3623H6.91813L6.85538 36.3417L6.59961 37.11L6.60015 37.1227C6.60015 37.1232 6.74465 39.3012 6.93397 41.7281L6.93871 41.7871L6.99829 41.7887C7.95859 41.8124 9.26749 41.8398 10.165 41.8398C10.5722 41.8398 10.8928 41.834 11.0636 41.8198C11.3299 41.7956 11.5941 41.6089 11.8446 41.3663C12.0946 41.1232 12.3287 40.8194 12.5181 40.5468L12.5429 40.5109L12.5197 40.474L12.4638 40.5093L12.4094 40.4719C12.2233 40.7398 11.9928 41.0383 11.7529 41.2719C11.5129 41.5066 11.2619 41.6722 11.0526 41.6885C10.8917 41.7022 10.5701 41.708 10.165 41.708C9.27013 41.708 7.96123 41.6806 7.00146 41.6569L6.99989 41.7228L7.06526 41.7175C6.97087 40.5046 6.88756 39.3539 6.82744 38.5059C6.76785 37.6585 6.73199 37.1153 6.73199 37.1143L6.66607 37.1185L6.72882 37.1396L6.98405 36.3733V36.3623C6.98405 36.3612 6.98407 35.7864 7.01518 34.9479C7.04682 34.1094 7.10956 33.0088 7.23454 31.9621C7.35478 30.968 7.74239 29.5162 8.11523 28.2732L8.05193 28.2542L7.99078 28.2796C8.61411 29.8052 10.4751 34.2175 12.1357 36.7119L12.1906 36.675L12.1331 36.6428C11.8125 37.2092 11.7028 37.8731 11.7023 38.4005C11.7023 38.6404 11.7249 38.8519 11.7624 39.0159C11.794 39.1514 11.8452 39.2959 11.9106 39.4446L11.9712 39.4177L12.0287 39.3856L12.0276 39.384L12.0087 39.3502H11.9691H11.8879L11.9042 39.4293C11.9058 39.4351 12.0039 39.9087 12.4084 40.5447L12.4638 40.5093Z" fill="black"/>
</svg>
