<svg width="101" height="81" viewBox="0 0 101 81" fill="none" xmlns="http://www.w3.org/2000/svg">
<g clip-path="url(#clip0_7800_5072)">
<path d="M90.7924 60.9977L90.8532 61.0181C92.076 57.3871 93.6485 47.5545 93.6489 47.5526L93.5854 47.5422H93.5211V58.3829L93.6485 57.7853C93.6489 57.7826 94.475 53.8842 94.6596 48.8038C94.7212 47.1124 94.7412 45.1575 94.7412 43.3014C94.7412 39.9524 94.6747 36.9265 94.6616 36.3586L94.6596 36.2734L93.7774 36.552L93.7716 36.5915C93.7712 36.5946 93.605 37.7089 93.3411 39.4449C92.5496 44.653 90.8802 55.4398 90.2053 58.3536C89.7547 60.2974 89.2176 62.0646 88.7932 63.3459C88.5808 63.9861 88.3973 64.5048 88.2661 64.8634C88.1353 65.222 88.0576 65.4194 88.0576 65.4198L88.0156 65.5267L88.1284 65.5067C88.4823 65.4452 88.8648 65.2208 89.3011 64.5687C89.7397 63.9161 90.2422 62.8307 90.8532 61.0181L90.7924 60.9977L90.732 60.9777C90.123 62.7842 89.6224 63.8619 89.1949 64.4975C88.7663 65.1335 88.4208 65.324 88.106 65.3805L88.1172 65.4436L88.1772 65.4671C88.1776 65.4652 89.4269 62.2809 90.33 58.3829C91.2337 54.481 93.8982 36.612 93.8982 36.6105L93.8351 36.6013L93.8543 36.6623L94.6169 36.4212L94.5977 36.3602L94.5334 36.3617C94.5469 36.9291 94.6131 39.954 94.6131 43.3014C94.6131 45.1563 94.5923 47.1105 94.5315 48.7992C94.4396 51.3336 94.1872 53.5745 93.9578 55.1805C93.8436 55.9839 93.7347 56.6287 93.6543 57.0728C93.5742 57.5164 93.5227 57.758 93.5227 57.7584L93.5854 57.7719H93.6496V47.5422L93.5223 47.5326C93.5219 47.5341 93.4238 48.1467 93.2576 49.1251C92.7585 52.0593 91.6431 58.2732 90.732 60.9777L90.7924 60.9977Z" fill="black"/>
<path d="M10.306 60.9977L10.3671 60.9777C9.75973 59.1755 9.06151 55.8111 8.51619 52.9012C8.24324 51.446 8.00831 50.104 7.84209 49.1251C7.67534 48.1467 7.57738 47.5341 7.57684 47.5326L7.44964 47.5422V57.7719H7.51374L7.57634 57.7584C7.57634 57.758 7.52505 57.5164 7.44502 57.0728C7.20389 55.7407 6.70524 52.6011 6.56723 48.7992C6.50617 47.1074 6.48566 45.1498 6.48566 43.2921C6.48566 39.9486 6.55184 36.9281 6.56519 36.3617L6.50105 36.3602L6.48208 36.4212L7.24441 36.6623L7.26391 36.6013L7.20031 36.6105C7.20081 36.612 9.86489 54.481 10.7683 58.3829C11.6722 62.2809 12.9219 65.4652 12.9224 65.4671L12.9819 65.4436L12.9932 65.3805C12.6782 65.324 12.3325 65.1335 11.9036 64.4975C11.4768 63.8619 10.9761 62.7842 10.3671 60.9777L10.306 60.9977L10.2455 61.0181C10.8565 62.8307 11.3593 63.9161 11.7974 64.5687C12.234 65.2208 12.6167 65.4452 12.9707 65.5067L13.0835 65.5267L13.042 65.4198C13.0415 65.4194 12.964 65.222 12.8332 64.8634C12.4402 63.7876 11.5696 61.2697 10.8935 58.3536C10.4436 56.4117 9.55142 50.9681 8.77267 46.0147C8.38279 43.5372 8.02162 41.1813 7.75794 39.4449C7.49373 37.7089 7.32751 36.5946 7.32701 36.5915L7.32136 36.552L6.43899 36.2734L6.43691 36.3586C6.4236 36.926 6.35742 39.9466 6.35742 43.2921C6.35742 45.1505 6.37793 47.1094 6.43899 48.8038C6.62314 53.8842 7.45064 57.7826 7.45114 57.7853L7.57788 58.3829V47.5422H7.51374L7.45064 47.5526C7.45118 47.5545 9.02303 57.3871 10.2455 61.0181L10.306 60.9977Z" fill="black"/>
<path d="M93.8353 36.6018L93.8542 36.6629L94.6172 36.4217L94.5976 36.3607H94.5337V36.3612H94.5976L94.6618 36.3602C94.6607 36.3002 94.6599 36.2622 94.6599 36.2617L94.6591 36.2504L94.6553 36.2401C94.6553 36.2391 94.5414 35.9492 94.3652 35.487C93.838 34.1014 92.7553 31.1659 92.546 29.9347C92.4594 29.4227 92.2998 28.8004 92.1059 28.1366L92.0778 28.0391L91.865 28.2289L91.8454 28.2463L91.8434 28.272C91.7934 28.9122 91.6811 29.7038 91.4441 30.4251L91.4395 30.44L91.4418 30.4549C91.6534 31.858 92.2332 34.0485 93.7595 36.7696L93.8511 36.9332L93.8784 36.7475C93.8919 36.6592 93.8985 36.611 93.8985 36.611L93.8353 36.6018L93.7719 36.5926C93.7719 36.5926 93.7646 36.6408 93.7519 36.7285L93.8153 36.7377L93.8711 36.7065C92.3529 33.9993 91.778 31.8241 91.5683 30.4359L91.5052 30.4451L91.5657 30.4651C91.8081 29.7289 91.9208 28.9286 91.9712 28.2822L91.9073 28.2771L91.95 28.3248L92.0874 28.2022L92.0443 28.1545L91.9827 28.1725C92.1763 28.8337 92.3344 29.4524 92.4198 29.9562C92.7069 31.6322 94.5352 36.2843 94.536 36.2868L94.5956 36.2637L94.5314 36.2652C94.5314 36.2652 94.5325 36.3027 94.5337 36.3622L94.6618 36.3612V36.2729L93.7773 36.5526L93.7719 36.5926L93.8353 36.6018Z" fill="black"/>
<path d="M90.0223 34.2548L89.9589 34.262C89.9589 34.263 90.0204 34.8191 90.082 35.6713C90.1439 36.5239 90.2055 37.671 90.2055 38.8488C90.2055 38.9249 90.2051 39.0011 90.2051 39.0777L90.2047 39.1023L93.0431 42.2539L93.0635 42.12C93.5521 38.9484 93.9007 36.607 93.9007 36.607L93.8376 36.5978L93.8569 36.6588L94.6194 36.4177L94.6002 36.3566H94.536V36.3572H94.6002L94.6641 36.3561C94.6633 36.293 94.6622 36.2576 94.6622 36.2576L94.6618 36.2464L94.6575 36.2361C94.6575 36.235 94.5436 35.9452 94.3678 35.483C93.8403 34.0973 92.758 31.1619 92.5487 29.9306C92.4456 29.3258 92.2462 28.5701 92.0015 27.7688L91.8919 27.4102L91.8761 27.7847C91.8484 28.4526 91.7549 29.4499 91.4721 30.3472C91.1897 31.246 90.718 32.036 89.9515 32.3141L89.9223 32.3249L89.8269 32.6039L89.8223 32.6173L89.8238 32.6316C89.8692 33.0277 89.9208 33.5781 89.9577 34.2584L89.9615 34.3189H90.0223V34.1907L90.022 34.2548L90.0862 34.2512C90.0493 33.5684 89.9969 33.0154 89.9515 32.6173L89.8877 32.6244L89.9485 32.6455L90.0343 32.3951L89.9731 32.3746L89.9954 32.4346C90.8223 32.1315 91.3059 31.2993 91.5945 30.3857C91.8827 29.4704 91.9761 28.4649 92.0042 27.7898L91.94 27.7872L91.8792 27.8062C92.1231 28.604 92.3209 29.3566 92.4225 29.9522C92.7091 31.6282 94.5375 36.2802 94.5386 36.2828L94.5979 36.2597L94.534 36.2612C94.534 36.2617 94.5348 36.2961 94.5359 36.3582L94.6641 36.3572V36.2689L93.7799 36.5485L93.7741 36.588C93.7737 36.5896 93.6868 37.1734 93.5387 38.1548C93.3905 39.1366 93.1812 40.5148 92.9369 42.1004L93.0004 42.11L93.0481 42.0677L90.3163 39.035L90.2694 39.0781H90.3332C90.3332 39.0019 90.334 38.9253 90.334 38.8488C90.334 36.4844 90.0866 34.2492 90.0862 34.2476L90.0801 34.1907L90.0223 34.1907L90.022 34.2548L90.0223 34.2548Z" fill="black"/>
<path d="M7.26006 36.6018L7.27952 36.5407L6.43359 36.2729V36.3612L6.56183 36.3622C6.56287 36.3032 6.56387 36.2663 6.56387 36.2663L6.49977 36.2637L6.55979 36.2868C6.56029 36.2843 8.38817 31.6322 8.67493 29.9562C8.76062 29.4524 8.91864 28.8337 9.11202 28.1725L9.05045 28.1545L9.00786 28.2022L9.14434 28.3248L9.18743 28.2771L9.12329 28.2822C9.17462 28.9286 9.28697 29.7289 9.5296 30.4656L9.59066 30.4451L9.52706 30.4359C9.31725 31.8241 8.74215 33.9993 7.22412 36.7065L7.28006 36.7377L7.34366 36.7285C7.33031 36.6408 7.32366 36.5926 7.32366 36.5926L7.3175 36.5526L7.27952 36.5407L7.26006 36.6018L7.19642 36.611C7.19642 36.611 7.20361 36.6593 7.21642 36.7475L7.24417 36.9332L7.33597 36.7696C8.86169 34.0485 9.44191 31.858 9.6543 30.4549L9.65634 30.44L9.65172 30.4251C9.41367 29.7038 9.30186 28.9122 9.25107 28.272L9.24899 28.2463L9.09355 28.1068L9.01764 28.0391L8.98889 28.1366C8.79447 28.8004 8.63595 29.4227 8.54823 29.9347C8.40918 30.7545 7.88133 32.3351 7.38934 33.7053C7.14309 34.3907 6.90608 35.0248 6.73013 35.487C6.55468 35.9493 6.44079 36.2396 6.44025 36.2401L6.43617 36.2504V36.2612C6.43617 36.2612 6.43463 36.2997 6.43359 36.3602L6.49773 36.3612H6.56183V36.3607H6.49773L6.47823 36.4217L7.24055 36.6629L7.26006 36.6018Z" fill="black"/>
<path d="M11.0753 34.2553L11.0112 34.2481C11.0112 34.2497 10.7634 36.4849 10.7634 38.8493C10.7634 38.9258 10.7639 39.0024 10.7644 39.0794L10.8286 39.0786L10.7808 39.0355L8.04958 42.0682L8.09729 42.1105L8.16039 42.1009C7.91669 40.5153 7.70742 39.1371 7.55913 38.1553C7.41088 37.1739 7.32366 36.5901 7.32366 36.5885L7.3175 36.549L6.43359 36.2694V36.3577L6.56183 36.3587C6.56287 36.2966 6.56387 36.2627 6.56387 36.2627L6.49977 36.2602L6.55979 36.2833C6.56029 36.2807 8.38817 31.6287 8.67493 29.9527C8.77601 29.3571 8.97504 28.6045 9.21871 27.8062L9.15719 27.7877L9.09305 27.7903C9.12179 28.4654 9.21513 29.4709 9.50293 30.3862C9.79123 31.2998 10.2745 32.132 11.1015 32.4351L11.1235 32.3751L11.063 32.3956L11.1487 32.646L11.2092 32.6249L11.1456 32.6178C11.101 33.0159 11.0492 33.5689 11.0112 34.2517L11.0753 34.2553L11.1389 34.2589C11.1769 33.5786 11.2287 33.0282 11.2728 32.6321L11.2749 32.6178L11.1841 32.3541L11.1743 32.3254L11.1456 32.3146C10.3791 32.0365 9.9077 31.2465 9.62555 30.3477C9.34287 29.4504 9.24953 28.4531 9.22129 27.7846L9.2054 27.4102L9.09613 27.7693C8.85142 28.5706 8.65134 29.3263 8.54823 29.9311C8.40918 30.7509 7.88133 32.3315 7.38934 33.7018C7.14309 34.3872 6.90608 35.0212 6.73013 35.4835C6.55468 35.9457 6.44079 36.2361 6.44025 36.2366L6.43617 36.2469V36.2571C6.43617 36.2576 6.43463 36.2935 6.43359 36.3566L6.49773 36.3577H6.56183V36.3571H6.49773L6.47823 36.4182L7.24055 36.6593L7.26006 36.5983L7.19642 36.6075C7.19642 36.6075 7.54582 38.9489 8.03369 42.1205L8.0542 42.2544L10.8927 39.1028V39.0782C10.8922 39.0016 10.8917 38.9258 10.8917 38.8493C10.8917 37.6715 10.9537 36.5244 11.0153 35.6718C11.0769 34.8196 11.1389 34.2635 11.1389 34.2625V34.2589L11.0753 34.2553Z" fill="black"/>
<path d="M77.077 28.7514L77.0236 28.7149C77.0228 28.7201 76.5988 29.3291 76.5957 29.8754C76.5949 30.075 76.6569 30.274 76.8266 30.4161C77.0482 30.6029 77.3368 30.7178 77.6946 30.7886L77.7231 30.7942L82.8792 26.8994L79.5699 25.0664L77.0243 28.7144L77.0236 28.7149L77.077 28.7514L77.1294 28.7878L79.6088 25.2342L82.6441 26.9163L77.6684 30.6747L77.7069 30.726L77.72 30.6629C77.3741 30.5942 77.1082 30.4859 76.9093 30.3181C76.7742 30.2037 76.7246 30.0519 76.7242 29.8754C76.7235 29.6353 76.8235 29.3598 76.9262 29.148C76.977 29.0423 77.0282 28.9515 77.0667 28.8874C77.1048 28.8237 77.1298 28.7873 77.1298 28.7873L77.1294 28.7878L77.077 28.7514Z" fill="black"/>
<path d="M21.6151 25.2114L21.6494 25.157L21.5453 25.0908L21.5135 25.0703L18.3574 26.8192L23.7148 30.7206L23.7456 30.7114C23.9744 30.6411 24.1709 30.5462 24.3314 30.4108C24.5013 30.2687 24.5628 30.0701 24.5623 29.8706C24.5592 29.3237 24.135 28.7147 24.1334 28.7096L21.6607 25.1642L21.6494 25.157L21.6151 25.2114L21.5627 25.2478L24.0277 28.7825V28.782C24.0277 28.782 24.0524 28.8184 24.0908 28.882C24.2063 29.0728 24.4356 29.5094 24.434 29.8706C24.433 30.0465 24.3837 30.1989 24.2489 30.3128C24.1052 30.4333 23.9257 30.5216 23.7081 30.5888L23.7266 30.6498L23.7646 30.598L18.5954 26.8335L21.5088 25.2196L21.5807 25.2652L21.6151 25.2114Z" fill="black"/>
<path d="M70.9371 2.98163L70.9406 3.10937L71.0687 3.0673L71.1341 2.9293C71.1295 2.83696 71.0903 2.78257 71.0456 2.71331C70.9083 2.51632 70.6359 2.25776 70.4216 2.06179L70.3869 2.0305L70.3404 2.02845C64.9472 1.80375 55.8584 1.46875 50.5503 1.46875C45.3722 1.46875 36.598 1.78681 31.1631 2.01203L31.117 2.01357L31.0821 2.04487C30.9395 2.17414 30.7656 2.33831 30.624 2.49067C30.5532 2.56711 30.4906 2.64048 30.4429 2.70871C30.3962 2.78001 30.3562 2.83491 30.3516 2.9293L30.4167 3.0673L30.5449 3.10989H30.5803C31.3766 3.10989 43.63 2.80617 50.7427 2.80617C57.8553 2.80617 70.108 3.10989 70.9052 3.10989L70.9406 3.10937L70.9371 2.98163L70.9329 2.85338H70.9052C70.1192 2.85338 57.8584 2.54966 50.7427 2.54966C43.627 2.54966 31.3653 2.85338 30.5803 2.85338H30.5526L30.5521 2.8544L30.5526 2.85389V2.85338L30.5521 2.8544L30.5526 2.85389L30.5321 2.92622L30.5906 2.88107L30.5526 2.85389L30.5321 2.92622L30.5906 2.88107L30.528 2.9293H30.608L30.5906 2.88107L30.528 2.9293H30.5865L30.6075 2.93494L30.608 2.9293H30.5865L30.6075 2.93494C30.6101 2.90878 30.7097 2.76924 30.8374 2.6379C30.9656 2.50195 31.1237 2.3537 31.2545 2.23468L31.1683 2.13977L31.1739 2.26802C36.6067 2.04332 45.3807 1.72526 50.5503 1.72526C55.8492 1.72526 64.9384 2.05974 70.33 2.28444L70.3354 2.1567L70.2492 2.2511C70.3881 2.37781 70.5539 2.53531 70.6817 2.67434C70.7455 2.7436 70.8002 2.80874 70.8348 2.85953L70.8717 2.92109L70.8775 2.93545L70.8994 2.9293H70.8775V2.93545L70.8994 2.9293H70.9595L70.9094 2.8662L70.8775 2.9293H70.9595L70.9094 2.8662L70.9514 2.91904L70.9329 2.85389L70.9094 2.8662L70.9514 2.91904L70.9329 2.85389L70.9333 2.85491V2.85338L70.9329 2.85389L70.9333 2.85491V2.85338L70.9371 2.98163Z" fill="black"/>
<path d="M77.417 3.38215V3.51041H79.5159L79.4266 2.98816L79.4251 2.97944L79.4224 2.97073C79.4224 2.97073 79.4136 2.94353 79.3982 2.89018C79.3528 2.7296 79.2516 2.3392 79.1823 1.82413V1.82362C79.1331 1.44398 78.9415 1.12284 78.5959 0.892498C78.252 0.66113 77.7629 0.508245 77.0923 0.412312C76.7699 0.366141 76.4913 0.347672 76.2501 0.347672C75.4909 0.345622 75.0939 0.53903 74.9161 0.607775C74.8322 0.643685 74.7964 0.704212 74.7626 0.765773C74.6549 0.982267 74.5975 1.36139 74.554 1.70511C74.5129 2.04626 74.4944 2.34074 74.4944 2.34228L74.4863 2.47206L74.6164 2.47823C74.6171 2.47823 74.9527 2.49413 75.3393 2.53158C75.7237 2.56749 76.1689 2.63264 76.3393 2.70806C76.5186 2.78398 76.7737 2.97739 76.9738 3.14977C77.075 3.23595 77.1631 3.31701 77.2262 3.37651C77.2893 3.43602 77.3262 3.47295 77.3262 3.47295L77.3639 3.51041H77.417V3.38215L77.5075 3.29136C77.5063 3.28982 77.3505 3.13386 77.1412 2.95482C76.9303 2.77526 76.6718 2.57261 76.4405 2.47257C76.1993 2.37151 75.761 2.31612 75.3643 2.27661C74.9704 2.23814 74.6298 2.22172 74.6283 2.22172L74.6221 2.34997L74.7507 2.35817C74.7507 2.35715 74.7741 1.97957 74.8276 1.59173C74.8542 1.39781 74.8884 1.20184 74.9296 1.05512C74.9496 0.982275 74.9715 0.920705 74.9915 0.882745L75.015 0.845296L75.0177 0.842214L74.9946 0.812468L75.0081 0.847347L75.0177 0.842214L74.9946 0.812468L75.0081 0.847347C75.2035 0.772961 75.5267 0.606232 76.2501 0.604181C76.4778 0.604181 76.7441 0.621619 77.0561 0.666251C77.7064 0.758594 78.1604 0.907373 78.4528 1.10539C78.7445 1.30445 78.8826 1.53992 78.928 1.85798C79.0234 2.56594 79.1762 3.04356 79.1781 3.04869L79.3004 3.0097L79.1735 3.03126L79.2116 3.2539H77.417L77.417 3.38215Z" fill="black"/>
<path d="M76.4959 0.485984L76.5017 0.358243C76.4136 0.353626 76.3301 0.351579 76.2501 0.351579C75.4925 0.349528 75.0942 0.542424 74.9165 0.610654H74.9161C74.8322 0.646564 74.7964 0.70709 74.7626 0.768652C74.6549 0.985146 74.5975 1.36427 74.554 1.70799C74.5129 2.04914 74.4944 2.34362 74.4944 2.34516L74.4863 2.47494L74.6164 2.48111C74.6171 2.48111 74.9527 2.49701 75.3393 2.53446C75.7237 2.57037 76.1689 2.63552 76.3393 2.71094C76.646 2.83868 77.1381 3.29116 77.2793 3.43018L77.4763 3.62051L77.4963 3.34707C77.4967 3.3445 77.5052 3.22292 77.5052 3.029C77.5048 2.71093 77.4824 2.19844 77.3566 1.69055C77.2304 1.18369 77.0034 0.673239 76.5671 0.379282L76.5371 0.359782L76.5017 0.358243L76.4959 0.485984L76.4244 0.592697C76.7768 0.825605 76.9903 1.2745 77.1077 1.75211C77.2258 2.22819 77.2489 2.72376 77.2489 3.02901C77.2489 3.21523 77.24 3.3281 77.2408 3.32861L77.3686 3.33784L77.4578 3.2455C77.3031 3.09877 76.8245 2.6427 76.4405 2.47546C76.1993 2.3744 75.761 2.319 75.3643 2.27949C74.9704 2.24102 74.6298 2.2246 74.6283 2.2246L74.6221 2.35285L74.7507 2.36106C74.7507 2.36003 74.7741 1.98246 74.8276 1.59462C74.8542 1.4007 74.8884 1.20473 74.9296 1.058C74.9496 0.985158 74.9715 0.923588 74.9915 0.885627L75.015 0.848179L75.0177 0.845097L74.9946 0.815351L75.0081 0.850229L75.0177 0.845097L74.9946 0.815351L75.0081 0.850229C75.2035 0.776355 75.5279 0.610142 76.2501 0.608088C76.3255 0.608088 76.4047 0.610135 76.489 0.61424L76.4959 0.485984Z" fill="black"/>
<path d="M79.2804 3.38444V3.32031H77.7402L77.786 3.41266C78.1931 4.24478 78.7452 5.97413 78.9484 6.63184L78.9618 6.67544L79.0072 6.67697C79.5436 6.6934 80.0392 6.71033 80.4924 6.72826L80.5844 6.73188L80.5563 6.64415C80.2485 5.68941 79.5898 3.99595 79.3397 3.36084L79.3239 3.32031H79.2804V3.38444L79.2204 3.40753C79.4697 4.04163 80.1284 5.73612 80.4339 6.68363L80.4951 6.66416L80.4978 6.60002C80.0438 6.58205 79.5475 6.56512 79.0115 6.54873L79.0096 6.61283L79.0711 6.59387C78.8664 5.93312 78.317 4.20631 77.9007 3.35623L77.8434 3.38444V3.44856H79.2804V3.38444Z" fill="black"/>
<path d="M23.7003 3.38215V3.2539H21.9058L21.9437 3.03126L21.8175 3.0097L21.9396 3.04869C21.9412 3.04356 22.0941 2.56594 22.1895 1.85798C22.2346 1.53992 22.3731 1.30445 22.6645 1.10539C22.957 0.907373 23.4109 0.758594 24.0609 0.666251C24.3728 0.621619 24.6396 0.604181 24.8674 0.604181C25.5907 0.606232 25.9139 0.772961 26.1089 0.847347L26.1222 0.812468L26.0997 0.842214L26.1089 0.847347L26.1222 0.812468L26.0997 0.842214L26.1114 0.857604C26.1433 0.903776 26.1879 1.03307 26.2202 1.18646C26.271 1.41885 26.3084 1.71332 26.332 1.94828C26.3562 2.18324 26.3664 2.35715 26.3669 2.35817L26.4947 2.34997L26.4885 2.22172C26.4875 2.22172 26.1468 2.23814 25.7528 2.27661C25.3558 2.31612 24.9177 2.37151 24.6771 2.47257C24.4457 2.57261 24.1871 2.77526 23.9763 2.95482C23.767 3.13386 23.611 3.28982 23.6095 3.29136L23.7003 3.38215L23.7911 3.47295C23.7911 3.47244 23.8275 3.43602 23.8906 3.37651C24.0774 3.19901 24.5057 2.82246 24.7781 2.70806C24.9479 2.63264 25.3932 2.56749 25.7775 2.53158C26.1643 2.49413 26.4998 2.47823 26.5008 2.47823L26.6306 2.47206L26.6229 2.34228C26.6224 2.34023 26.5988 1.95649 26.5439 1.55685C26.5162 1.35677 26.4813 1.1531 26.4352 0.986888C26.4121 0.903264 26.3864 0.82939 26.3541 0.765773C26.3202 0.704212 26.2849 0.643685 26.2012 0.607775H26.2007C26.0237 0.539034 25.6266 0.345622 24.8674 0.347672C24.6263 0.347672 24.3477 0.366141 24.0245 0.412312C23.3545 0.508245 22.8656 0.66113 22.5214 0.892498C22.1761 1.12284 21.9843 1.44399 21.9355 1.82413C21.8889 2.16734 21.8283 2.45514 21.7801 2.65675C21.7555 2.75731 21.7344 2.83682 21.719 2.89018C21.7042 2.94405 21.6954 2.97073 21.6954 2.97073L21.6924 2.97944L21.6272 3.3601L21.6016 3.51041H23.7531L23.7911 3.47295L23.7003 3.38215Z" fill="black"/>
<path d="M24.6215 0.48598L24.6276 0.614232C24.7118 0.610127 24.7913 0.60808 24.8667 0.60808C25.589 0.610135 25.9138 0.776348 26.1087 0.850222H26.1082L26.1215 0.815343L26.0989 0.845089L26.1082 0.850222L26.1215 0.815343L26.0989 0.845089L26.1108 0.86048C26.1425 0.906651 26.1872 1.03594 26.2195 1.18933C26.2703 1.42173 26.3078 1.71619 26.3313 1.95115C26.3555 2.18611 26.3657 2.36003 26.3662 2.36105L26.4939 2.35285L26.4878 2.22459C26.4868 2.22459 26.1461 2.24101 25.7521 2.27949C25.3551 2.31899 24.917 2.37439 24.6764 2.47545C24.2927 2.64269 23.814 3.09928 23.6596 3.24549L23.7483 3.33784L23.8766 3.3286C23.8766 3.32809 23.8678 3.21471 23.8678 3.02797C23.8678 2.72272 23.8915 2.22716 24.0095 1.75108C24.1264 1.27398 24.3404 0.825597 24.6923 0.592689L24.6215 0.48598L24.5502 0.379282C24.1136 0.672728 23.8863 1.18318 23.7601 1.68952C23.635 2.19741 23.6119 2.70939 23.6113 3.02798C23.6113 3.22292 23.6206 3.3445 23.6206 3.34707L23.6406 3.61948L23.8376 3.43018C23.9797 3.29116 24.4711 2.83868 24.7774 2.71094C24.9472 2.63552 25.3925 2.57037 25.7768 2.53446C26.1636 2.49701 26.4991 2.48111 26.5001 2.48111L26.6299 2.47494L26.6222 2.34516C26.6217 2.34311 26.5981 1.95937 26.5432 1.55973C26.5155 1.35965 26.4806 1.15598 26.4345 0.989767C26.4114 0.906143 26.3857 0.832269 26.3534 0.768652C26.3195 0.707091 26.2841 0.646564 26.2005 0.610654H26.2C26.023 0.54242 25.6244 0.349524 24.8667 0.351579C24.7872 0.351579 24.703 0.353626 24.6148 0.358243L24.5794 0.359782L24.5502 0.379282L24.6215 0.48598Z" fill="black"/>
<path d="M21.8388 3.38444V3.44856H23.2767V3.38444L23.2187 3.35623C22.8027 4.20631 22.2533 5.93312 22.0486 6.59387L22.1096 6.61283L22.1076 6.54873C21.5715 6.56512 21.0754 6.58205 20.6219 6.60002L20.6245 6.66416L20.6855 6.68363C20.9902 5.73612 21.65 4.04163 21.8983 3.40753L21.8388 3.38444L21.7787 3.36084C21.5304 3.99595 20.8707 5.68941 20.5634 6.64465L20.5352 6.73188L20.627 6.72826C21.08 6.71033 21.5755 6.6934 22.1117 6.67697L22.1573 6.67544L22.1712 6.63184C22.3743 5.97413 22.9258 4.24478 23.3342 3.41266L23.3793 3.32031H21.7951L21.7787 3.36084L21.8388 3.38444Z" fill="black"/>
<path d="M90.0663 35.9331L90.1975 35.9321C90.1883 34.2899 90.0628 33.0474 89.9809 32.3995L89.9616 32.2461L89.8108 32.2928C89.2341 32.4718 88.1063 32.6252 86.7181 32.7478C82.5477 33.1177 75.9779 33.2342 74.1053 33.2398L74.0068 33.2403L72.7521 40.3003L72.0723 40.3165C75.0538 40.2487 83.7474 40.0137 84.0806 40.0137C84.2072 40.0071 84.4592 40.1491 84.7178 40.3492C84.9805 40.5473 85.2614 40.7897 85.5269 40.959C85.8732 41.1791 86.276 41.2299 86.7712 41.2299C87.0782 41.2299 87.4245 41.2106 87.8266 41.1941C88.3603 41.1726 88.802 41.1237 89.1467 41.0371C89.4899 40.9494 89.7462 40.8267 89.8889 40.622C89.9628 40.5092 90.0005 40.3503 90.0405 40.1187C90.1525 39.4304 90.1987 38.1334 90.199 36.4749C90.199 36.2979 90.1986 36.1168 90.1975 35.9321L90.0663 35.9331L89.9347 35.9336C89.9359 36.1178 89.9362 36.2984 89.9362 36.4749C89.9362 37.5769 89.9147 38.5192 89.8685 39.2207C89.8458 39.5708 89.8158 39.8609 89.7808 40.0783C89.7469 40.2938 89.6988 40.4431 89.6704 40.48C89.593 40.5973 89.398 40.7105 89.0809 40.789C88.7662 40.8682 88.3387 40.9167 87.8155 40.9382C87.4107 40.9544 87.0663 40.974 86.7712 40.9736C86.2907 40.974 85.9498 40.9221 85.6704 40.7443C85.4296 40.5912 85.1498 40.3511 84.8786 40.1464C84.6043 39.944 84.3495 39.7639 84.0806 39.757C83.7332 39.757 75.9279 39.9413 72.9449 40.009L72.9453 40.2957L74.2315 33.404L74.1053 33.3681L74.1057 33.4963C75.3593 33.4927 78.6963 33.4394 82.0225 33.2947C83.6858 33.2224 85.3453 33.1269 86.742 33.0033C88.1394 32.8786 89.2675 32.7289 89.8901 32.5375L89.8504 32.4149L89.7204 32.4308C89.8012 33.071 89.9251 34.3033 89.9347 35.9336L90.0663 35.9331Z" fill="black"/>
<path d="M11.0428 35.9332L11.1739 35.9337C11.1833 34.3033 11.3065 33.071 11.3873 32.4308L11.2572 32.4149L11.2179 32.5375C11.8387 32.7289 12.9637 32.8786 14.3578 33.0033C18.5346 33.3742 25.0843 33.4907 26.9596 33.4963V33.3681L26.8338 33.404L28.2287 40.2984V40.0775C25.2545 40.0098 17.3586 39.757 17.0126 39.757C16.7437 39.764 16.4905 39.944 16.2163 40.1464C15.9458 40.3511 15.6669 40.5912 15.4267 40.7443C15.1478 40.9221 14.8076 40.974 14.3284 40.9736C14.0337 40.974 13.6903 40.9544 13.2872 40.9382C12.7655 40.9167 12.3393 40.8682 12.0248 40.789C11.7091 40.7105 11.5147 40.597 11.4376 40.48C11.4093 40.4431 11.3605 40.2934 11.3275 40.0768C11.2205 39.4207 11.1723 38.1181 11.1723 36.461C11.1723 36.2892 11.1728 36.1132 11.1739 35.9337L11.0428 35.9332L10.9117 35.9321C10.9107 36.1122 10.9102 36.2887 10.9102 36.461C10.9102 37.5697 10.9311 38.5192 10.9778 39.2322C11.0014 39.5889 11.0313 39.8863 11.0685 40.1172C11.1078 40.3496 11.1461 40.5092 11.2195 40.622C11.3616 40.8267 11.6169 40.9494 11.9592 41.0371C12.3037 41.1237 12.744 41.1726 13.2762 41.1941C13.6772 41.2106 14.0222 41.2299 14.3284 41.2299C14.8223 41.2299 15.2238 41.1791 15.5699 40.959C15.8341 40.7897 16.1146 40.5473 16.3767 40.3492C16.6346 40.1491 16.8863 40.0071 17.0126 40.0137C17.3445 40.0137 25.2566 40.2307 28.2287 40.2984L27.0581 33.2403L26.9601 33.2398C25.715 33.2362 22.3885 33.1829 19.0762 33.0382C17.42 32.9664 15.7675 32.8709 14.3813 32.7478C12.9967 32.6252 11.8727 32.4718 11.2971 32.2928L11.1466 32.2461L11.1272 32.3995C11.0454 33.0479 10.9212 34.2899 10.9117 35.9321L11.0428 35.9332Z" fill="black"/>
<path d="M85.677 48.4836V48.3551H79.8532V48.4836L79.8763 48.3578L79.8729 48.3566L79.7894 48.3235L79.7586 48.2889L79.7867 48.2208L79.7871 48.2204C79.8775 48.0804 80.1207 47.6683 80.3958 47.2693C80.5327 47.0707 80.6774 46.8757 80.8105 46.7245C80.9421 46.5729 81.0706 46.4667 81.136 46.4451C81.1583 46.4355 81.2888 46.4113 81.4654 46.3924C82.7262 46.2474 86.7677 46.0723 87.4942 46.0727L87.5615 46.0734C87.8278 46.0788 88.0755 46.0819 88.2279 46.1535C88.3049 46.1889 88.3591 46.2339 88.4018 46.3093C88.4441 46.3859 88.4742 46.499 88.4734 46.6691L88.4688 46.7926C88.4391 47.2108 88.2006 48.5459 87.9547 49.8464C87.7092 51.1492 87.4557 52.4255 87.3914 52.7598C87.2699 53.3831 86.8705 53.7891 86.3264 53.8618C85.9224 53.9168 84.348 53.9264 83.4746 53.926C83.1137 53.926 82.8694 53.9245 82.869 53.9245H82.8636L82.859 53.9249H82.8463C82.7816 53.9249 82.5135 53.9095 82.2765 53.674C82.1233 53.5217 81.677 53.0368 81.2738 52.5936C80.869 52.15 80.5054 51.7467 80.5043 51.7456L80.4096 51.8318L80.4177 51.9595C80.4204 51.9595 84.8547 51.6748 85.1518 51.6421C85.3538 51.6186 85.5057 51.4728 85.6196 51.2746C85.7351 51.0746 85.8239 50.8075 85.8978 50.4817C86.0425 49.8349 86.1691 48.8837 86.1694 48.8822L86.1718 48.8653L86.1694 48.8487C86.1679 48.8399 86.1556 48.7329 86.0917 48.6132C86.0317 48.4959 85.8932 48.3535 85.677 48.3551V48.6117C85.7785 48.6136 85.8228 48.6625 85.8659 48.7352L85.9059 48.8379L85.9136 48.8718L85.9151 48.881L86.0425 48.8653L85.9151 48.8476C85.9151 48.8483 85.884 49.0842 85.8339 49.4001C85.7847 49.7164 85.7177 50.1119 85.6473 50.4251C85.5777 50.736 85.4919 50.9838 85.3976 51.1465C85.301 51.3123 85.2072 51.3785 85.1237 51.387C84.9905 51.402 83.802 51.482 82.6581 51.5571C81.5119 51.6325 80.4034 51.7036 80.4011 51.7036L80.1364 51.7206L80.3142 51.9176C80.3157 51.9191 81.7717 53.5336 82.0952 53.8564C82.4011 54.1584 82.7451 54.1819 82.8463 54.1815L82.8774 54.1811L82.8682 54.0526L82.8674 54.1811C82.8678 54.1811 83.1125 54.1827 83.4746 54.1827C84.3565 54.1819 85.9109 54.1754 86.3599 54.1165C87.0221 54.0311 87.5115 53.5166 87.6435 52.8083C87.7069 52.4762 87.9609 51.1977 88.2071 49.8937C88.4534 48.5875 88.6912 47.265 88.725 46.811C88.7285 46.7614 88.73 46.7141 88.73 46.669C88.73 46.4705 88.6962 46.3112 88.6257 46.185C88.5207 45.9926 88.3364 45.8995 88.1513 45.861C87.964 45.821 87.7635 45.8226 87.5692 45.8168L87.4942 45.8164C87.0659 45.8164 85.5715 45.8734 84.1252 45.9491C83.403 45.9872 82.6939 46.0303 82.1383 46.0734C81.8601 46.095 81.6208 46.1165 81.4361 46.1373C81.2488 46.16 81.1276 46.1765 81.0468 46.2046C80.8975 46.2631 80.7644 46.3912 80.6181 46.5551C80.1884 47.043 79.6993 47.8837 79.5716 48.0811C79.5277 48.1492 79.502 48.2189 79.502 48.2889C79.5016 48.3593 79.5297 48.4228 79.5662 48.4655C79.6774 48.5917 79.8194 48.604 79.8301 48.6098L79.8417 48.6117L85.677 48.6117V48.4836Z" fill="black"/>
<path d="M15.4319 48.4836V48.6117H21.2668L21.2782 48.6098C21.2853 48.6082 21.3505 48.5975 21.4269 48.5574L21.5429 48.4655C21.5793 48.4224 21.6075 48.3589 21.607 48.2885C21.607 48.2181 21.5818 48.1488 21.5377 48.0811C21.4536 47.9515 21.2048 47.5301 20.9242 47.1234C20.7836 46.9199 20.6348 46.7187 20.4902 46.5551C20.344 46.3912 20.2111 46.2631 20.0618 46.205C19.9807 46.1765 19.8597 46.16 19.6724 46.1373C18.3853 45.9903 14.3628 45.8164 13.6148 45.8164L13.5394 45.8168C13.2803 45.8256 13.0099 45.8164 12.7755 45.9195C12.659 45.9711 12.5523 46.0584 12.4831 46.185C12.4133 46.3112 12.3789 46.4705 12.3789 46.6683C12.3789 46.7141 12.381 46.7614 12.3846 46.811C12.4179 47.265 12.6554 48.5875 12.9017 49.8937C13.1474 51.1977 13.4019 52.4762 13.465 52.8083C13.5968 53.5166 14.0867 54.0311 14.7485 54.1165C15.1984 54.1753 16.7523 54.1819 17.6337 54.1827C17.9959 54.1827 18.2411 54.1811 18.2411 54.1811L18.2401 54.0526L18.2309 54.1811L18.2616 54.1815C18.3632 54.1819 18.7069 54.1584 19.0127 53.8564C19.3374 53.5336 20.7934 51.9191 20.7949 51.9176L20.9724 51.7206L20.7077 51.7036C20.7056 51.7036 19.597 51.6325 18.4509 51.557C17.3069 51.482 16.1183 51.402 15.9859 51.387C15.9013 51.3785 15.8074 51.3123 15.7115 51.1465C15.6165 50.9838 15.5309 50.736 15.4616 50.4251C15.3913 50.1119 15.3241 49.7163 15.2749 49.4001C15.2251 49.0842 15.1933 48.8476 15.1933 48.8476L15.0666 48.8653L15.1938 48.881L15.1953 48.8718C15.1995 48.8453 15.219 48.7675 15.2584 48.709C15.3005 48.6506 15.3411 48.6136 15.4319 48.6117V48.3551C15.2159 48.3535 15.0769 48.4959 15.0174 48.6132C14.9532 48.7329 14.9409 48.8399 14.9394 48.8491L14.9373 48.8656L14.9394 48.8822C14.9399 48.8837 15.0666 49.8349 15.2113 50.4813C15.2846 50.8075 15.3734 51.0746 15.4893 51.2754C15.6032 51.4728 15.7556 51.6186 15.9577 51.6421C16.2542 51.6748 20.6887 51.9595 20.6913 51.9595L20.6995 51.8318L20.6041 51.7456C20.6035 51.7467 20.2393 52.15 19.835 52.5936C19.4313 53.0368 18.9855 53.5217 18.8321 53.674C18.5946 53.9095 18.3263 53.9249 18.2616 53.9249H18.2493L18.2447 53.9245H18.2396C18.2396 53.9245 17.9949 53.926 17.6337 53.926C16.7606 53.9264 15.1866 53.9168 14.7824 53.8625C14.2386 53.7891 13.8385 53.3831 13.7169 52.7606C13.6532 52.4255 13.3993 51.1492 13.1536 49.8464C12.9084 48.5459 12.6698 47.2108 12.6406 46.7926L12.6354 46.6683C12.6354 46.499 12.6652 46.3851 12.7073 46.3093C12.7704 46.1981 12.8637 46.1458 13.012 46.1119C13.1582 46.0796 13.3475 46.0784 13.547 46.0734L13.6148 46.0727C14.0288 46.0723 15.5283 46.1292 16.9699 46.205C17.6912 46.2435 18.3986 46.2862 18.9506 46.3289C19.2266 46.3505 19.4636 46.372 19.6432 46.3924C19.8202 46.4113 19.95 46.4355 19.9725 46.4451C20.0377 46.4667 20.1665 46.5729 20.2978 46.7245C20.7016 47.1815 21.1883 48.0126 21.3222 48.2204L21.3505 48.2885L21.3448 48.3027L21.2792 48.3428L21.2433 48.3547L21.232 48.3578L21.2551 48.4836V48.3551H15.4319V48.4836Z" fill="black"/>
<path d="M89.3904 27.2905L89.4016 27.3536L92.2534 26.8319L92.2415 26.7688V26.7693L92.223 26.8303L92.2415 26.8329V26.7693L92.223 26.8303L92.2322 26.8001L92.2211 26.8298L92.223 26.8303L92.2322 26.8001L92.2211 26.8298C92.2476 26.838 92.6485 27.0038 92.7628 27.1223C92.8628 27.2161 93.0579 27.2608 93.2403 27.3003C93.4215 27.3362 93.5827 27.3541 93.5835 27.3541L93.5893 27.3552L93.595 27.3547C93.5958 27.3547 97.6943 27.093 99.0267 26.9273C99.6377 26.8514 99.9947 26.659 100.196 26.4179C100.398 26.1773 100.438 25.8977 100.437 25.6679C100.437 25.6207 100.435 25.5755 100.433 25.5329C100.418 25.2497 100.29 24.4187 100.133 23.5963L100.122 23.5424L100.067 23.544C98.5592 23.5937 93.7805 23.7476 92.2084 23.7476C91.9487 23.7482 91.7705 23.743 91.7286 23.7348C91.5266 23.6999 91.3388 23.5517 91.2049 23.408C91.1376 23.3367 91.0833 23.2675 91.0468 23.2162C91.0098 23.1648 90.991 23.1326 90.9902 23.1326L90.9694 23.0977L88.043 23.4065L89.3465 27.3639L89.4016 27.3536L89.3904 27.2905L89.4508 27.2705L88.215 23.5173L90.9421 23.2295L90.9356 23.1659L90.8806 23.1987C90.8863 23.2023 91.2134 23.7681 91.7066 23.861C91.7747 23.8723 91.944 23.8759 92.2084 23.8759C93.7859 23.8759 98.5623 23.722 100.072 23.6722L100.07 23.6081L100.007 23.6204C100.163 24.4376 100.292 25.2744 100.305 25.5396L100.309 25.6679C100.309 25.8843 100.272 26.1275 100.098 26.3353C99.9236 26.5436 99.6034 26.7257 99.0109 26.8001C98.3499 26.8822 96.9925 26.9894 95.8024 27.0751C94.6116 27.1612 93.5889 27.2264 93.5866 27.2269L93.5908 27.2905L93.5981 27.2269C93.5974 27.2269 93.4404 27.2095 93.2657 27.1746C93.0925 27.1423 92.8963 27.0802 92.8536 27.0315C92.7693 26.9489 92.6262 26.8729 92.5 26.8119C92.4369 26.7816 92.3784 26.756 92.3361 26.738L92.2846 26.7165L92.2699 26.7108L92.2653 26.7093L92.2626 26.7083L92.2607 26.7072L92.2415 26.7046H92.2361L89.3785 27.2274L89.3904 27.2905Z" fill="black"/>
<path d="M11.6131 27.2905L11.6249 27.2274L8.76742 26.7046H8.76177L8.7428 26.7072C8.72021 26.7165 8.31545 26.8714 8.14973 27.0315C8.10718 27.0802 7.91068 27.1423 7.73781 27.1746C7.5634 27.2095 7.40638 27.2269 7.40588 27.2269L7.41307 27.2905L7.41719 27.2269C7.41461 27.2264 6.39219 27.1612 5.20148 27.0751C4.01078 26.9894 2.65334 26.8822 1.9931 26.8001C1.40057 26.7257 1.07993 26.5436 0.905503 26.3353C0.730565 26.1275 0.694648 25.8843 0.694136 25.6679L0.698245 25.5396C0.712096 25.2744 0.840864 24.4376 0.996306 23.6204L0.93321 23.6081L0.931155 23.6722C2.44043 23.722 7.21761 23.8759 8.79513 23.8759C9.0593 23.8759 9.2281 23.8723 9.29631 23.861C9.79034 23.7681 10.1172 23.2018 10.1228 23.1987L10.0679 23.1659L10.0607 23.2295L12.7884 23.5173L11.5525 27.2705L11.6131 27.2905L11.6742 27.3105L12.9598 23.4065L10.0336 23.0977L10.0125 23.1326C10.0125 23.1326 9.99354 23.1648 9.9566 23.2162C9.84733 23.3711 9.5785 23.684 9.27377 23.7348C9.23221 23.743 9.05418 23.7482 8.79513 23.7476C7.22273 23.7476 2.44403 23.5937 0.93526 23.544L0.880378 23.5424L0.870109 23.5963C0.714151 24.4187 0.58538 25.2497 0.569993 25.5329C0.567943 25.5755 0.566411 25.6207 0.566411 25.6679C0.565899 25.8977 0.604883 26.1773 0.807009 26.4179C1.00913 26.659 1.36568 26.8514 1.97719 26.9273C3.30897 27.093 7.40792 27.3547 7.40896 27.3547L7.41461 27.3552L7.42027 27.3541C7.42127 27.3541 7.58237 27.3362 7.76347 27.3003C7.94558 27.2608 8.1405 27.2161 8.24054 27.1223C8.29852 27.0627 8.43807 26.9847 8.55862 26.9273C8.61918 26.8981 8.67558 26.8734 8.71714 26.856L8.76639 26.8355L8.77974 26.8303L8.78228 26.8293L8.77612 26.8129L8.78228 26.8298V26.8293L8.77612 26.8129L8.78228 26.8298L8.76385 26.7765L8.78024 26.8303L8.78228 26.8298L8.76385 26.7765L8.78024 26.8303L8.76177 26.7693V26.8329L8.78024 26.8303L8.76177 26.7693V26.7688L8.75 26.8319L11.6567 27.3639L11.6742 27.3105L11.6131 27.2905Z" fill="black"/>
<path d="M72.2626 36.2829L72.201 36.2649L72.0318 36.8482H29.0484L28.9033 36.347H72.2626V36.2188H28.7324L28.952 36.9765H72.1279L72.3476 36.2188H72.2626V36.2829Z" fill="black"/>
<path d="M71.4768 38.9861L71.4153 38.968L71.2452 39.5513H29.8355L29.6904 39.05H71.4768V38.9219H29.5195L29.7391 39.6795H71.3418L71.5618 38.9219H71.4768V38.9861Z" fill="black"/>
<path d="M70.9411 42.1861L70.8834 42.168L70.7253 42.7602H30.5318L30.3961 42.2515H70.9411V42.1211H30.2363L30.4416 42.8906H70.8153L71.0208 42.1211H70.9411V42.1861Z" fill="black"/>
<path d="M70.1728 44.8814L70.1151 44.8634L69.955 45.4555H30.9209L30.7841 44.9468H70.1728V44.8164H30.623L30.83 45.5859H70.0458L70.2532 44.8164H70.1728V44.8814Z" fill="black"/>
<path d="M71.596 46.0233L71.7187 46.0795L74.1007 33.2734H26.7754L29.1582 46.0795L29.2814 46.0233L29.1542 46.0448C29.1562 46.0714 29.2265 47.0314 29.8141 48.0098C30.4017 48.9886 31.5017 49.9628 33.5159 50.0433C37.5012 50.2029 50.4469 50.2029 50.4477 50.2029C50.4484 50.2029 63.3764 50.2029 67.3609 50.0433C69.3751 49.9628 70.4755 48.9886 71.0627 48.0098C71.6506 47.0314 71.7214 46.0714 71.7229 46.0448L71.596 46.0233L71.4682 46.0017L71.4655 46.0314C71.4467 46.2049 71.3301 47.066 70.7699 47.9025C70.2089 48.7382 69.1974 49.5658 67.354 49.642C65.3667 49.7212 61.1386 49.7616 57.4091 49.7816C55.545 49.7912 53.8039 49.7966 52.5296 49.7993C51.2553 49.8016 50.45 49.8016 50.4477 49.8016C50.4458 49.8016 49.6385 49.8016 48.3623 49.7993C44.5351 49.792 36.5043 49.7616 33.522 49.642C31.556 49.56 30.5371 48.625 30.0013 47.7347C29.7331 47.2884 29.5849 46.8494 29.5034 46.5242C29.4629 46.3611 29.4388 46.2272 29.4255 46.1356L29.4116 46.0314L29.409 46.0017L29.4075 45.984L27.0697 33.4179L26.9466 33.4741V33.6748H73.9299V33.4741L73.8068 33.4179L71.4698 45.984L71.4682 46.0017L71.596 46.0233Z" fill="black"/>
<path d="M50.4454 48.8316V48.6188C50.3153 48.6188 37.442 48.6169 33.5168 48.4491C31.9777 48.383 31.1673 47.7181 30.74 47.0948C30.5259 46.782 30.4062 46.4776 30.3394 46.2529C30.3065 46.1406 30.2865 46.0482 30.2747 45.9855L30.2634 45.9139L30.2609 45.8932L30.134 45.9274L30.2614 45.9051L30.2536 45.7781L30.2526 45.7589L28.2698 34.465H72.6025L70.6202 45.7589L70.6102 45.9036L70.7379 45.9274L70.6121 45.8882C70.6106 45.8951 70.5479 46.4915 70.1162 47.1117C69.6849 47.73 68.875 48.3837 67.3544 48.4491C63.4298 48.6169 50.5754 48.6188 50.4454 48.6188L50.4454 49.0447C50.577 49.0447 63.4275 49.0432 67.3609 48.8751C68.9223 48.8097 69.7984 48.1313 70.2843 47.4338C70.7707 46.737 70.8572 46.0313 70.8641 45.9667L70.8653 45.9582L70.873 45.8424L72.9445 34.0391H27.9277L29.9994 45.8412L30.0061 45.9497L30.0066 45.9555L30.0072 45.9617C30.0113 46.0067 30.0878 46.7104 30.57 47.4141C31.0522 48.1186 31.9305 48.8089 33.5102 48.8751C37.4441 49.0432 50.3138 49.0447 50.4454 49.0447L50.4454 48.8316Z" fill="black"/>
<path d="M32.3621 53.7648L32.2379 53.7979L34.0601 60.7056L34.0611 60.7098C34.0663 60.7256 34.1535 60.9757 34.4557 61.2315C34.7573 61.4882 35.2729 61.7444 36.1112 61.7825L36.1142 61.7829H65.0103L65.0134 61.7825C65.8514 61.7444 66.367 61.4882 66.6686 61.2315C66.971 60.9757 67.058 60.7256 67.0634 60.7102L67.0641 60.7063L68.9287 53.6367H32.1953L32.2379 53.7979L32.3621 53.7648V53.8934H68.5955L66.8175 60.6367L66.9418 60.6694L66.8202 60.6286L66.8187 60.6328C66.7856 60.7002 66.4832 61.4528 65.0014 61.5266L65.0072 61.6548V61.5266H36.1173V61.6548L36.1234 61.5266C35.3308 61.4889 34.8789 61.2531 34.6214 61.0353C34.4926 60.9268 34.4126 60.8218 34.3649 60.7448L34.3156 60.6555L34.3064 60.6328L34.3048 60.6286L34.1827 60.6694L34.3069 60.6367L32.4857 53.7329L32.3621 53.7648Z" fill="black"/>
<path d="M90.794 60.9964L90.9156 61.0376C91.1984 60.1961 91.4989 59.0306 91.7936 57.7325L91.829 57.5762H81.0442V57.7044L81.1258 57.6055C81.1254 57.6047 80.9034 57.4216 80.5448 57.1268C79.4705 56.2419 77.1789 54.3535 76.0377 53.4093C75.6295 53.073 75.0031 52.8364 74.2886 52.6563C72.1466 52.1196 69.1948 52.1219 69.1898 52.1211H31.9132C31.9101 52.1211 30.5957 52.1211 29.0865 52.2792C28.3318 52.3581 27.529 52.4766 26.8143 52.6563C26.0992 52.8364 25.4728 53.073 25.0645 53.4093C24.3042 54.0387 23.0319 55.088 21.95 55.9795C21.4093 56.4254 20.9157 56.8317 20.5576 57.1268C20.1996 57.4216 19.9769 57.6047 19.9764 57.6055L20.058 57.7044V57.5762H9.27344L9.30884 57.7332C9.60433 59.0306 9.90394 60.1961 10.1866 61.0376C10.7992 62.8525 11.3024 63.9421 11.7462 64.6035C12.1868 65.263 12.588 65.5042 12.962 65.5685L12.9841 65.4423L12.8655 65.4916C12.8661 65.4919 13.3873 66.7413 13.9383 68.0348C14.2132 68.682 14.4964 69.3396 14.7252 69.8586C14.8401 70.1183 14.9412 70.343 15.0212 70.515C15.1028 70.6881 15.1582 70.802 15.1987 70.8632C15.3198 71.0483 15.4768 71.2276 15.7646 71.3392C16.0514 71.4523 16.4582 71.5096 17.1148 71.51H33.5733L35.9732 69.1106H65.1302L67.5291 71.51H83.9876C84.6448 71.5096 85.0515 71.4523 85.3381 71.3392C85.6259 71.2276 85.7829 71.0483 85.9045 70.8632C85.9445 70.8016 85.9999 70.6881 86.0815 70.515C86.6413 69.3153 88.2369 65.4923 88.2373 65.4916L88.1188 65.4423L88.1415 65.5685C88.5147 65.5042 88.9156 65.263 89.3561 64.6035C89.7998 63.9421 90.3038 62.8525 90.9156 61.0376L90.794 60.9964L90.6724 60.956C90.0645 62.759 89.5651 63.8332 89.1434 64.4604C88.7186 65.0891 88.3916 65.2622 88.0968 65.3161L88.0276 65.3284L88.0003 65.3931C88.0003 65.3934 87.8706 65.7047 87.6709 66.1787C87.3723 66.8894 86.9187 67.9636 86.5182 68.8932C86.3177 69.3576 86.1303 69.7863 85.9826 70.1141C85.9087 70.2784 85.8445 70.4173 85.7944 70.5227C85.744 70.6266 85.7044 70.7016 85.6913 70.7205C85.5763 70.8905 85.4774 71.0063 85.2438 71.1006C85.0095 71.1941 84.6294 71.2537 83.9876 71.2537H67.5822V71.3819L67.673 71.2911L65.2364 68.8544H35.867L33.4296 71.2911L33.52 71.3819V71.2537H17.1148C16.473 71.2537 16.0929 71.1941 15.8585 71.1006C15.6251 71.0063 15.5265 70.8905 15.4122 70.7212C15.3932 70.6939 15.3316 70.5739 15.2536 70.4061C14.9771 69.8136 14.4385 68.5589 13.9701 67.4538C13.5012 66.3488 13.1036 65.395 13.1026 65.3931L13.0754 65.3284L13.0066 65.3161C12.7111 65.2615 12.3844 65.0887 11.9591 64.4604C11.5374 63.8332 11.0377 62.759 10.4298 60.956C10.1517 60.1299 9.85315 58.9691 9.5592 57.6763L9.43404 57.7044V57.8325H20.1042L20.1396 57.8033C20.1396 57.8033 23.7065 54.866 25.2281 53.607C25.5801 53.3139 26.1798 53.0784 26.8764 52.9052C27.922 52.6424 29.1834 52.5097 30.1818 52.4439C30.6804 52.4104 31.1139 52.3943 31.4222 52.3858C31.7306 52.3777 31.9127 52.3777 31.9132 52.3777H69.1898C69.1902 52.3777 69.5145 52.3777 70.0278 52.3973C70.7981 52.4266 71.9897 52.5005 73.1259 52.6836C74.2617 52.8641 75.3459 53.1653 75.8746 53.607C77.3963 54.866 80.9626 57.8032 80.9626 57.8032L80.998 57.8325H91.6682V57.7044L91.5431 57.6763C91.2495 58.9691 90.9502 60.1299 90.6724 60.956L90.794 60.9964Z" fill="black"/>
<path d="M20.6248 6.66224L20.6196 6.534C19.707 6.56994 18.9693 6.60941 18.4598 6.65097L18.3752 6.65816L11.3926 27.6123L11.4721 27.6666C11.6747 27.8051 11.9431 27.879 12.2878 27.879C12.4858 27.879 12.7095 27.8549 12.9644 27.8041C13.5672 27.6841 14.2162 27.5743 14.8472 27.4784L14.9293 27.4661L20.7956 6.52734L20.6196 6.534L20.6248 6.66224L20.5011 6.62788L14.7046 27.3168L14.8282 27.3517L14.8087 27.2249C14.1747 27.3209 13.5221 27.4312 12.9142 27.5522C12.6726 27.6009 12.4648 27.6225 12.2878 27.6225C11.9785 27.6225 11.7666 27.5569 11.6167 27.4548L11.5444 27.5609L11.6665 27.6015L18.5922 6.81926L18.4701 6.77871L18.4809 6.90699C18.9836 6.86543 19.7193 6.82642 20.6294 6.79052L20.6248 6.66224Z" fill="black"/>
<path d="M82.6314 6.77821L82.6418 6.65047C82.1347 6.60891 81.4036 6.57044 80.4994 6.53454L80.3086 6.52734L80.3736 6.70637C80.7553 7.75908 82.0662 12.3896 83.352 17.0201C84.6383 21.6526 85.9034 26.2933 86.2023 27.3922L86.2239 27.4727L86.3066 27.4856C86.9211 27.5794 87.5505 27.6866 88.1369 27.8036C88.3951 27.8549 88.6217 27.8796 88.8225 27.8796C89.0876 27.8796 89.3073 27.8365 89.4874 27.7534L89.4909 27.7513L89.5128 27.7395L89.5166 27.7374L89.5601 27.7097L89.6448 27.6564L82.7264 6.65766L82.6418 6.65047L82.6314 6.77821L82.5094 6.81876L89.3697 27.6415L89.492 27.6015L89.4235 27.4927L89.3866 27.5158L89.372 27.524L89.4335 27.6369L89.3789 27.5204C89.2415 27.5846 89.0599 27.623 88.8225 27.623C88.6429 27.623 88.4324 27.601 88.1873 27.5517C87.5959 27.4342 86.9634 27.3265 86.3455 27.2321L86.3262 27.3583L86.4497 27.325C86.1508 26.2256 84.8861 21.5843 83.5991 16.9513C82.3117 12.3162 81.0058 7.69806 80.6149 6.61865L80.494 6.66278L80.489 6.79102C81.3921 6.82642 82.1208 6.86489 82.6206 6.90645L82.6314 6.77821Z" fill="black"/>
<path d="M69.5348 65.3725L69.6291 65.2859C67.8799 63.3902 66.197 63.3348 66.0231 63.336L66.0085 63.3363L66.0119 63.4645V63.3363H59.4141C58.8612 63.3367 58.5461 63.4321 58.3568 63.5653C58.1656 63.6976 58.1244 63.8754 58.1271 63.9623L58.1325 64.0224L58.2579 63.9951H58.1294V65.5006H69.8284L69.6291 65.2859L69.5348 65.3725V65.2444H58.386V63.9812L58.3829 63.9677L58.3472 63.9762L58.3841 63.9716L58.3829 63.9677L58.3472 63.9762L58.3841 63.9716L58.3833 63.9624C58.386 63.9331 58.3856 63.8616 58.5049 63.7746C58.6257 63.6876 58.8897 63.5918 59.4141 63.593H66.0139L66.0162 63.5922H66.0231C66.1504 63.5937 67.7464 63.6261 69.4409 65.4598L69.5348 65.3725Z" fill="black"/>
<path d="M31.4648 65.3725L31.5592 65.4598C33.2537 63.6261 34.8491 63.5937 34.9763 63.5922H34.984L34.9856 63.593H41.5855C42.1099 63.5918 42.3739 63.6873 42.4947 63.7746C42.614 63.8615 42.6136 63.9323 42.6163 63.9616L42.6155 63.972L42.6494 63.9754L42.6163 63.9689L42.6155 63.972L42.6494 63.9754L42.6163 63.9689L42.6136 63.9816V65.2444H31.4648V65.5006H42.8702V63.9951H42.7417L42.8675 64.0216L42.8725 63.9616C42.8752 63.875 42.8336 63.6976 42.6428 63.5653C42.4535 63.4318 42.1384 63.3367 41.5855 63.3363H34.9876V63.4645L34.9912 63.3363L34.9763 63.336C34.8019 63.3348 33.1203 63.3902 31.3709 65.2859L31.1719 65.5006H31.4648V65.3725Z" fill="black"/>
<path d="M75.5507 61.3489L75.5792 61.2916C75.1798 61.095 74.171 60.9891 72.9409 60.9226C71.7132 60.8579 70.2753 60.8399 69.0549 60.8399C68.0926 60.8399 67.2653 60.8514 66.7836 60.8595L66.7536 60.8599L66.7344 60.8841C66.5262 61.1446 66.051 61.5382 65.0026 61.5878L65.0053 61.6521V61.5878H36.1154V61.6521L36.1184 61.5878C35.0714 61.5382 34.5963 61.1469 34.387 60.886L34.3681 60.8626L34.3383 60.8622C33.8817 60.8533 32.9922 60.8398 31.942 60.8398C30.7211 60.8398 29.2831 60.8579 28.0565 60.9226C26.8268 60.9891 25.8187 61.0949 25.4196 61.2916C24.7963 61.6048 23.6436 62.6094 22.636 63.5405C21.6295 64.4712 20.7758 65.3246 20.7753 65.3254L20.666 65.4347H80.3325L80.2233 65.3254C80.2225 65.3246 79.3691 64.4712 78.3629 63.5405C77.3549 62.6094 76.2025 61.6048 75.5792 61.2916L75.5507 61.3489L75.5219 61.4062C76.1129 61.7002 77.2737 62.7067 78.2756 63.6344C78.7781 64.0988 79.2421 64.5443 79.5807 64.8737C79.9193 65.2027 80.1317 65.4154 80.1324 65.4162L80.1779 65.3704V65.3062H20.821V65.3704L20.8661 65.4162C20.8666 65.4154 21.079 65.2027 21.4176 64.8737C22.4313 63.8868 24.587 61.8491 25.477 61.4062C25.8239 61.23 26.8422 61.1138 28.0631 61.0507C29.2862 60.9861 30.7226 60.9684 31.942 60.9684C32.9912 60.9684 33.8802 60.9814 34.3357 60.9903L34.3368 60.926L34.287 60.966C34.5163 61.2546 35.035 61.6671 36.1123 61.7163H65.0083C66.0876 61.6671 66.6066 61.2519 66.8352 60.9637L66.7848 60.9237L66.7859 60.9876C67.2669 60.9795 68.0933 60.9684 69.0549 60.9684C70.2738 60.9684 71.7109 60.9861 72.9344 61.0507C74.1556 61.1138 75.1752 61.23 75.5219 61.4062L75.5507 61.3489Z" fill="black"/>
<path d="M85.7951 70.793L85.8486 70.8288C85.9152 70.7272 86.0856 70.3544 86.3157 69.8334C87.0021 68.2782 88.1749 65.4683 88.1757 65.4679L88.116 65.4433L88.131 65.506L88.2222 65.4837L88.3873 65.4444L88.1464 65.3167L88.1318 65.3086H12.9612L12.8694 65.3728L12.752 65.4556L12.9669 65.506L12.9813 65.4433L12.9222 65.4679C12.9222 65.4679 13.4435 66.7168 13.994 68.0108C14.2694 68.6572 14.5526 69.3155 14.7814 69.8334C15.0112 70.3544 15.1821 70.7272 15.2493 70.8288C15.3688 71.01 15.5109 71.1731 15.7854 71.2805C16.0588 71.3886 16.459 71.4467 17.112 71.4471H33.5438L35.9437 69.0477H65.1536L67.553 71.4471H83.9849C84.6378 71.4467 85.0379 71.3886 85.3119 71.2805C85.5858 71.1731 85.7286 71.01 85.8486 70.8288L85.7951 70.793L85.7417 70.7576C85.6247 70.9307 85.512 71.0623 85.2646 71.1612C85.0168 71.2593 84.6305 71.319 83.9849 71.319H67.5795V71.3828L67.6249 71.337L65.2071 68.9196H35.8903L33.472 71.337L33.5171 71.3828V71.319H17.112C16.4666 71.319 16.0798 71.2593 15.8321 71.1612C15.5853 71.0623 15.4719 70.9307 15.356 70.7576C15.3042 70.6822 15.1256 70.2978 14.8989 69.7818C14.5557 69.0054 14.0914 67.9142 13.7123 67.0177C13.3337 66.1208 13.0413 65.4202 13.0407 65.4186L13.0279 65.3882L12.9207 65.3632L12.9064 65.4256L12.9428 65.4779L13.0018 65.4371H88.1002L88.1772 65.4779L88.2072 65.4217L88.1926 65.359L88.101 65.3805L88.0695 65.3882L88.0571 65.4186C88.0564 65.419 87.9267 65.7303 87.7278 66.2043C87.4285 66.915 86.9752 67.99 86.5743 68.9196C86.3738 69.3844 86.1864 69.813 86.0383 70.1412C85.8909 70.4686 85.7794 70.7022 85.7417 70.7576L85.7951 70.793Z" fill="black"/>
<path d="M100.369 25.5381L100.497 25.5314C100.471 25.0574 100.141 23.1039 99.8757 22.1614C99.7407 21.6838 99.5213 21.2426 99.242 20.9133C98.9646 20.586 98.6199 20.3628 98.2355 20.3618C97.7161 20.3618 94.0547 20.1797 92.3417 20.1797C92.1267 20.1797 91.942 20.1822 91.7962 20.1889C91.6484 20.1961 91.5464 20.2043 91.471 20.2238C91.3544 20.2576 91.2798 20.3444 91.2202 20.4444C91.1167 20.6219 91.0474 20.8723 90.9912 21.157C90.8266 22.0075 90.8073 23.1618 90.8066 23.1654L90.9351 23.168L90.9216 23.0402L87.957 23.3532L89.3025 27.4388L92.264 26.8971L92.2409 26.7709L92.2109 26.8955L92.2409 26.8992V26.7709L92.2109 26.8955L92.2402 26.7765L92.199 26.892L92.2109 26.8955L92.2402 26.7765L92.199 26.892C92.2144 26.8981 92.3206 26.9407 92.4345 26.9961C92.548 27.05 92.6742 27.1249 92.7173 27.1695C92.7835 27.2331 92.8612 27.2634 92.9497 27.2942C93.2113 27.3809 93.5718 27.4194 93.5761 27.4204L93.5872 27.4214L93.5984 27.4209C93.5999 27.4204 97.6968 27.1598 99.0339 26.993C99.6545 26.9161 100.03 26.7186 100.245 26.461C100.461 26.204 100.501 25.9059 100.501 25.67C100.501 25.6212 100.499 25.575 100.497 25.532L100.496 25.5161L100.497 25.5314L100.369 25.5381L100.24 25.5448L100.244 25.67C100.244 25.8798 100.209 26.105 100.048 26.2964C99.8876 26.4882 99.5852 26.6652 99.0019 26.7386C98.3448 26.8207 96.9869 26.9274 95.7973 27.0136C94.6072 27.0992 93.5841 27.1649 93.5822 27.1649L93.5903 27.2926L93.6045 27.1654C93.6041 27.1654 93.4491 27.148 93.2775 27.1136C93.1921 27.0962 93.1028 27.0751 93.0305 27.051C92.9589 27.0284 92.9035 26.9961 92.8981 26.9884C92.8012 26.894 92.6565 26.8191 92.5272 26.756C92.4633 26.7252 92.4041 26.6996 92.3606 26.6811L92.3079 26.6591L92.2925 26.6534L92.2867 26.6508L92.2833 26.6498L92.2786 26.6483L92.2717 26.6462L92.2409 26.6426H92.2294L89.4764 27.1464L88.3002 23.5748L91.0613 23.2834L91.0632 23.1701C91.0632 23.1695 91.0663 23.0048 91.0786 22.7535C91.0974 22.3764 91.1382 21.8065 91.2217 21.3242C91.2633 21.0836 91.3156 20.864 91.3775 20.7076C91.4372 20.547 91.5168 20.4695 91.5384 20.4711C91.5668 20.4629 91.6696 20.4506 91.8077 20.4449C91.947 20.4387 92.1286 20.4362 92.3417 20.4362C94.0447 20.4362 97.6964 20.6178 98.2355 20.6183C98.5133 20.6173 98.7968 20.785 99.0466 21.0795C99.2955 21.3724 99.5033 21.7844 99.6291 22.2312C99.8861 23.1372 100.219 25.1185 100.24 25.5453V25.5448L100.369 25.5381Z" fill="black"/>
<path d="M0.633792 25.5381L0.762043 25.5453C0.783078 25.1185 1.11655 23.1372 1.37408 22.2312V22.2307C1.49976 21.7844 1.70702 21.3724 1.95582 21.079C2.20566 20.785 2.48883 20.6173 2.76637 20.6183C3.30606 20.6178 6.95769 20.4362 8.6614 20.4362C8.87379 20.4362 9.0554 20.4387 9.19491 20.4449C9.33342 20.4505 9.43554 20.4629 9.46424 20.4711C9.47863 20.4731 9.51919 20.5013 9.56174 20.5747C9.63769 20.7009 9.70795 20.9353 9.75924 21.2057C9.83823 21.6125 9.88394 22.106 9.90906 22.4954C9.93419 22.8848 9.9388 23.1695 9.9393 23.17L9.94138 23.2834L12.7024 23.5748L11.526 27.1464L8.77271 26.6426H8.76144L8.73066 26.6462L8.71477 26.6514C8.69422 26.6591 8.58753 26.7016 8.46133 26.7627C8.33563 26.8247 8.19762 26.8971 8.10373 26.9884C8.09862 26.9961 8.04321 27.0284 7.97192 27.051C7.86368 27.0869 7.71744 27.1167 7.60151 27.1362C7.48504 27.1557 7.39836 27.1654 7.39836 27.1654L7.41275 27.2926L7.42094 27.1649C7.4184 27.1649 6.39594 27.0992 5.20577 27.0135C4.01557 26.9274 2.65762 26.8207 2.00096 26.7386C1.41716 26.6652 1.11501 26.4882 0.953923 26.2963C0.793351 26.105 0.75845 25.8798 0.757938 25.67L0.762043 25.5453L0.633792 25.5381L0.50554 25.5314C0.503489 25.575 0.501958 25.6212 0.501958 25.67C0.501446 25.9059 0.541973 26.204 0.757434 26.461C0.973415 26.7185 1.34843 26.9161 1.96917 26.993C3.30557 27.1597 7.40247 27.4203 7.40451 27.4209L7.41582 27.4214L7.4271 27.4203C7.42914 27.4198 7.59127 27.4019 7.77542 27.3649C7.86776 27.3465 7.96526 27.3234 8.05298 27.2941C8.14121 27.2634 8.2192 27.2331 8.28538 27.1695C8.33051 27.1218 8.46802 27.0428 8.58599 26.9874C8.64551 26.9586 8.70142 26.9345 8.74197 26.9171L8.78964 26.8976L8.8025 26.8925L8.80453 26.892L8.77633 26.8155L8.8025 26.8925L8.80453 26.892L8.77633 26.8155L8.8025 26.8925L8.76352 26.7786L8.79838 26.8935L8.8025 26.8925L8.76352 26.7786L8.79838 26.8935L8.76144 26.773L8.79172 26.8955L8.79838 26.8935L8.76144 26.773L8.79172 26.8955L8.76144 26.7709V26.8992L8.79172 26.8955L8.76144 26.7709L8.73836 26.8971L11.7 27.4388L13.0456 23.3532L10.0809 23.0402L10.0676 23.168L10.1958 23.1654C10.1953 23.1634 10.1835 22.4913 10.1061 21.7967C10.0665 21.4489 10.0117 21.0964 9.93061 20.8127C9.88955 20.6711 9.84284 20.546 9.78282 20.4444C9.72334 20.3444 9.64846 20.2576 9.532 20.2238C9.45658 20.2043 9.35397 20.1961 9.20672 20.1889C9.06051 20.1822 8.87637 20.1797 8.6614 20.1797C6.94846 20.1797 3.28657 20.3618 2.76637 20.3618C2.38213 20.3628 2.0379 20.586 1.76036 20.9133C1.48128 21.2426 1.26171 21.6838 1.12679 22.1614H1.12731C0.861577 23.1039 0.531704 25.0574 0.50554 25.5314L0.633792 25.5381Z" fill="black"/>
<path d="M89.3902 27.2904L89.5118 27.2504L88.3006 23.5726L89.3571 23.4608L89.3006 23.3064C87.6496 18.8375 82.7508 6.73031 82.7501 6.72981L82.7212 6.65644L82.6419 6.64978C78.2103 6.28453 56.4856 6.15625 50.55 6.15625C44.6139 6.15625 22.8894 6.28453 18.4581 6.64978L18.379 6.65644L18.3498 6.72981C18.3493 6.73031 13.4428 18.8555 11.7951 23.3161L11.7376 23.4705L12.7015 23.5726L11.4903 27.2504L11.6119 27.2904L11.635 27.1642C11.6345 27.1642 11.4934 27.1386 11.281 27.0991L11.0332 27.0529L11.1415 27.2802C11.3113 27.647 11.6883 27.8845 12.2793 27.8789C12.4789 27.8789 12.7051 27.8543 12.9627 27.8029C14.1364 27.568 15.4846 27.3751 16.5384 27.2417C17.5926 27.1078 18.3498 27.0334 18.3513 27.0334L18.3775 27.0309L21.5736 25.2599L21.5115 25.1481L21.5212 25.2758C21.5238 25.2753 22.4924 25.2035 24.1607 25.0947C29.1646 24.7695 40.4396 24.119 50.55 24.119C57.2902 24.119 64.5479 24.4078 70.1203 24.6972C72.906 24.8418 75.2711 24.9865 76.9394 25.0947C78.607 25.2035 79.5758 25.2753 79.5789 25.2758L79.5881 25.1481L79.5258 25.2599L82.7216 27.0309L82.7477 27.0334C82.7497 27.0334 83.5069 27.1078 84.5611 27.2417C85.615 27.3751 86.9636 27.568 88.1375 27.8029C88.3956 27.8543 88.6223 27.8789 88.8223 27.8789C89.4256 27.885 89.8062 27.6372 89.9704 27.2576L90.0701 27.0355L89.8304 27.0791C89.5538 27.1299 89.3668 27.1642 89.3668 27.1642L89.3902 27.2904L89.4133 27.4166C89.4137 27.4166 89.5999 27.3818 89.8766 27.3315L89.8535 27.2053L89.7365 27.1529C89.6045 27.4361 89.3675 27.6167 88.8223 27.6224C88.6434 27.6224 88.4326 27.6003 88.1879 27.5511C85.82 27.078 82.7747 26.7779 82.7728 26.7779L82.7604 26.9057L82.8228 26.7933L79.6254 25.0219L79.5977 25.0198C79.5958 25.0198 64.0442 23.8625 50.5499 23.8625C37.0557 23.8625 21.5038 25.0198 21.5023 25.0198L21.474 25.0219L18.2764 26.7933L18.339 26.9057L18.3262 26.7779C18.3241 26.7779 15.2799 27.078 12.9124 27.5511C12.6682 27.6003 12.4578 27.6224 12.2793 27.6224C11.7448 27.6167 11.5078 27.4418 11.3733 27.1699L11.2574 27.2253L11.2338 27.3515C11.4472 27.391 11.5888 27.4166 11.5893 27.4166L11.6991 27.4366L13.0447 23.351L11.9284 23.233L11.9151 23.3607L12.0356 23.4049C12.8575 21.1799 14.496 17.0337 15.9284 13.4457C16.6445 11.6512 17.3094 9.99671 17.7952 8.7901C18.2805 7.58399 18.5868 6.82782 18.5873 6.82574L18.4683 6.77753L18.4791 6.90581C22.8802 6.54155 44.6216 6.41277 50.5499 6.41277C56.4779 6.41277 78.2191 6.54155 82.6208 6.90581L82.6315 6.77753L82.5127 6.82574C82.5138 6.82782 82.8189 7.58245 83.3037 8.78752C84.7585 12.4017 87.8239 20.0508 89.0597 23.3951L89.1798 23.3505L89.1667 23.2233L87.9574 23.351L89.3029 27.4372L89.4133 27.4166L89.3902 27.2904Z" fill="black"/>
<path d="M11.9169 23.3588L11.9769 23.3809C13.5852 19.0285 18.3065 7.35119 18.5209 6.82076L18.5856 6.66016L18.4306 6.74019L18.4111 6.75046L18.4019 6.76943C17.9479 7.71698 17.4564 8.73891 17.0101 9.63771C15.883 11.9098 11.8194 20.6291 10.7272 23.2141L10.6934 23.2942L11.96 23.4276L11.9769 23.3809L11.9169 23.3588L11.9236 23.2947L10.7929 23.1757L10.7862 23.2393L10.8453 23.2644C11.9344 20.685 16 11.9622 17.125 9.69465C17.5719 8.79481 18.0633 7.77239 18.5178 6.82537L18.4599 6.79767L18.4891 6.85461L18.4907 6.85358L18.4614 6.79663L18.4019 6.77251C18.1875 7.30348 13.4667 18.9797 11.8569 23.3362L11.9169 23.3588Z" fill="black"/>
<path d="M94.5948 36.2594L94.6544 36.2358C94.6544 36.2348 94.5405 35.9449 94.3647 35.4827C93.8372 34.097 92.7549 31.1616 92.5456 29.9303C92.404 29.0993 92.0808 27.984 91.7087 26.8553L91.6906 26.8025L91.636 26.8122C91.0989 26.9107 90.319 27.0534 89.8295 27.1431L89.7968 27.1493L89.7284 27.2965L89.7176 27.3206L89.728 27.3494L89.7884 27.3278L89.7314 27.2986C89.7314 27.2986 89.688 27.3832 89.6021 27.5279C89.3451 27.9624 88.7111 28.9295 87.7776 29.6846C87.1774 30.1751 85.6972 30.4587 84.1651 30.606C82.6311 30.7553 81.0386 30.7779 80.1871 30.7779C78.4807 30.7804 77.4403 30.7702 76.9074 30.3141C76.7724 30.1997 76.7227 30.0478 76.7223 29.8714C76.7216 29.6313 76.8216 29.3558 76.9243 29.1439C76.9751 29.0382 77.0263 28.9474 77.0648 28.8833C77.1029 28.8197 77.1279 28.7833 77.1279 28.7833L79.7042 25.0906L79.5919 25.0824C79.5919 25.0824 72.6043 24.5622 63.9333 24.2195L63.8737 24.2169L63.8672 24.2764C63.7394 25.4645 63.4643 27.9814 63.3966 28.4072C63.352 28.6914 63.2623 29.2716 63.0846 29.8154C62.9087 30.3603 62.6379 30.8589 62.2704 30.9913C62.1381 31.042 61.6663 31.0913 61.0065 31.1272C59.0196 31.2385 55.2489 31.2693 52.7776 31.2693C51.7396 31.2693 50.93 31.2642 50.5795 31.257H50.5768C50.2267 31.2642 49.4172 31.2693 48.3783 31.2693C46.7312 31.2693 44.5061 31.256 42.6165 31.2134C41.672 31.1924 40.8112 31.1642 40.1491 31.1272C39.4892 31.0913 39.0179 31.042 38.8855 30.9913C38.5182 30.8589 38.2473 30.3603 38.0713 29.8154C37.8938 29.2716 37.8046 28.6914 37.7594 28.4077C37.6922 27.9814 37.4162 25.461 37.2879 24.2744L37.2818 24.2148L37.2218 24.2169C28.9617 24.5422 22.2172 25.0295 21.5595 25.0777L21.4369 25.087L21.5169 25.185L24.0276 28.7838V28.7833C24.0276 28.7833 24.0522 28.8197 24.0907 28.8833C24.2061 29.0741 24.4354 29.5107 24.4339 29.8719C24.4329 30.0478 24.3837 30.2002 24.2487 30.3141C23.7152 30.7702 22.6748 30.7804 20.9685 30.7779C20.1169 30.7779 18.5245 30.7553 16.9906 30.606C15.4582 30.4587 13.9782 30.1751 13.378 29.6846C12.4038 28.8961 11.7579 27.8803 11.524 27.4771L11.5183 27.4674L11.5101 27.4602C11.4255 27.3883 11.3629 27.2991 11.3142 27.196L11.2998 27.1667L11.2674 27.1606C10.8165 27.078 10.0291 26.9338 9.45654 26.8292L9.40164 26.8194L9.38421 26.8723C9.0143 27.9947 8.69314 29.1033 8.55209 29.9303C8.41304 30.7502 7.88518 32.3308 7.39269 33.701C7.14695 34.3864 6.90944 35.0205 6.73345 35.4827C6.5575 35.9449 6.44361 36.2348 6.44361 36.2358L6.43949 36.2466L6.43899 36.2579C6.43899 36.2579 6.35742 39.5757 6.35742 43.2914C6.35742 45.1494 6.37793 47.1071 6.43899 48.8C6.62314 53.8804 7.45064 57.7788 7.45114 57.7815L7.57788 58.379V47.5384H7.51374L7.45064 47.5488C7.45118 47.5511 9.02303 57.3833 10.2455 61.0146C10.8565 62.8269 11.3593 63.9127 11.7974 64.5652C12.234 65.217 12.6167 65.4413 12.9707 65.5029L12.9819 65.4398L12.923 65.4644C12.923 65.4644 13.4442 66.7133 13.9946 68.0073C14.2701 68.6537 14.5533 69.312 14.7821 69.8299C15.0119 70.3509 15.1828 70.7237 15.25 70.8253C15.3695 71.0065 15.5116 71.1697 15.7861 71.277C16.0595 71.3851 16.4597 71.4432 17.1127 71.4436H33.5445L35.9444 69.0442H65.1542L67.5535 71.4436H83.9855C84.6384 71.4432 85.0385 71.3851 85.3125 71.277C85.5864 71.1697 85.7292 71.0065 85.8492 70.8253C85.9158 70.7237 86.0862 70.3509 86.3167 69.8299C87.0031 68.2747 88.1762 65.4644 88.1762 65.4644L88.1166 65.4398L88.1282 65.5029C88.4821 65.4413 88.8642 65.217 89.3005 64.5652C89.7391 63.9127 90.2416 62.8269 90.8526 61.0146C92.0754 57.3833 93.6479 47.5511 93.6483 47.5488L93.5848 47.5384H93.5206V58.379L93.6479 57.7815C93.6483 57.7788 94.4744 53.8804 94.6591 48.8C94.7206 47.1071 94.7406 45.1494 94.7406 43.2914C94.7406 39.5757 94.6591 36.2579 94.6591 36.2579L94.6587 36.2461L94.6544 36.2358L94.5948 36.2594L94.5309 36.2609C94.5309 36.263 94.5513 37.09 94.5717 38.3833C94.5917 39.6766 94.6125 41.4341 94.6125 43.2914C94.6125 45.1486 94.5917 47.1044 94.5309 48.7954C94.439 51.3298 94.1866 53.5707 93.9573 55.177C93.843 55.98 93.7341 56.6249 93.6537 57.0689C93.5736 57.5125 93.5221 57.7549 93.5221 57.7549L93.5848 57.768H93.6491V47.5384L93.5217 47.5288C93.5213 47.5303 93.4232 48.1428 93.257 49.1213C92.758 52.0555 91.6425 58.2694 90.7314 60.9739C90.1227 62.7803 89.6218 63.858 89.1943 64.4937C88.7657 65.1297 88.4202 65.3201 88.1055 65.3767L88.0708 65.3828L88.0577 65.4152C88.0577 65.4152 87.9273 65.7268 87.7284 66.2008C87.4294 66.9115 86.9758 67.9865 86.5753 68.9161C86.3744 69.3809 86.187 69.8095 86.0389 70.1377C85.8915 70.4651 85.78 70.6987 85.7426 70.7541C85.6257 70.9272 85.5126 71.0588 85.2652 71.1577C85.0174 71.2558 84.6315 71.3155 83.9854 71.3155H67.5801V71.3793L67.6255 71.3336L65.2077 68.9161H35.891L33.4727 71.3336L33.5178 71.3793V71.3155H17.1127C16.4673 71.3155 16.0805 71.2558 15.8328 71.1577C15.586 71.0588 15.4726 70.9272 15.3567 70.7541C15.3049 70.6787 15.1263 70.2943 14.8996 69.7783C14.5564 69.0019 14.0921 67.9107 13.713 67.0142C13.3344 66.1173 13.0419 65.4167 13.0414 65.4152L13.0276 65.3828L12.9932 65.3767C12.6782 65.3201 12.3324 65.1297 11.9036 64.4937C11.4767 63.858 10.9761 62.7803 10.3671 60.9739C9.75972 59.1716 9.0615 55.8073 8.51618 52.8977C8.24323 51.4422 8.0083 50.1001 7.84208 49.1213C7.67533 48.1428 7.57737 47.5303 7.57683 47.5288L7.44963 47.5384V57.768H7.51373L7.57633 57.7549C7.57633 57.7549 7.52504 57.5125 7.44501 57.0689C7.20388 55.7369 6.70523 52.5972 6.56722 48.7954C6.50616 47.1044 6.48565 45.1486 6.48565 43.2914C6.48565 41.4341 6.50616 39.6766 6.5267 38.3833C6.54671 37.09 6.56722 36.263 6.56722 36.2609L6.50308 36.2594L6.5631 36.2825C6.56364 36.28 8.39202 31.6279 8.67878 29.9519C8.81729 29.1377 9.13741 28.0317 9.50578 26.9128L9.44522 26.8928L9.43344 26.9554C10.006 27.0595 10.7929 27.2042 11.2444 27.2868L11.2562 27.2237L11.1982 27.2509C11.2525 27.3663 11.3259 27.4725 11.427 27.5582L11.4686 27.5089L11.4131 27.5413C11.6522 27.9522 12.3037 28.9792 13.2974 29.7841C13.9541 30.3115 15.4362 30.5814 16.9783 30.7337C18.5194 30.8835 20.1144 30.9061 20.9685 30.9061C22.6732 30.9035 23.728 30.9138 24.3318 30.4121C24.5011 30.27 24.5627 30.0714 24.5621 29.8719C24.5591 29.325 24.1348 28.716 24.1333 28.7109L21.619 25.1075L21.6139 25.1013L21.5646 25.1419L21.5692 25.206C22.2254 25.1573 28.9689 24.6704 37.2269 24.3452L37.2243 24.281L37.1607 24.2882C37.289 25.4774 37.5639 27.9917 37.6332 28.4272C37.6778 28.7119 37.7681 29.2988 37.9497 29.8549C38.1329 30.41 38.4001 30.9435 38.8409 31.1113C39.0156 31.1744 39.475 31.217 40.1418 31.2555C42.1352 31.3668 45.9054 31.3976 48.3783 31.3976C49.4175 31.3976 50.2271 31.3924 50.5795 31.3853L50.578 31.3212L50.5768 31.3853C50.9292 31.3924 51.7384 31.3976 52.7776 31.3976C54.4259 31.3976 56.6514 31.3843 58.5421 31.3417C59.4874 31.3206 60.3493 31.2924 61.0138 31.2555C61.681 31.217 62.1404 31.1744 62.315 31.1113C62.756 30.9435 63.023 30.41 63.2069 29.8549C63.3877 29.2988 63.4782 28.7119 63.5232 28.4272C63.5921 27.9912 63.8664 25.4805 63.9949 24.2903L63.931 24.2836L63.9287 24.3477C68.2626 24.5191 72.1764 24.7345 75.0067 24.9074C76.4214 24.9936 77.5657 25.0696 78.356 25.1234C79.1463 25.1778 79.5811 25.2101 79.5826 25.2101L79.5873 25.1465L79.5349 25.1096L77.0225 28.7104L77.0217 28.7109C77.0205 28.7161 76.5969 29.325 76.5938 29.8714C76.5927 30.0709 76.655 30.27 76.8247 30.4121C77.428 30.9138 78.4822 30.9035 80.1871 30.9061C81.0413 30.9061 82.6361 30.8835 84.177 30.7337C85.7192 30.5814 87.202 30.3115 87.8588 29.7846C89.1277 28.7561 89.843 27.3612 89.8457 27.3571L89.8584 27.3324L89.8565 27.3268L89.8992 27.2329L89.8407 27.2057L89.8526 27.2694C90.342 27.1796 91.1219 27.0365 91.6591 26.9385L91.6475 26.8754L91.5867 26.8954C91.958 28.0209 92.2797 29.1331 92.4194 29.9519C92.706 31.6279 94.5344 36.28 94.5355 36.2825L94.5948 36.2594Z" fill="black"/>
<path d="M94.5985 36.2608L94.7182 36.2136C94.7174 36.2131 94.6035 35.9232 94.4281 35.461C93.9014 34.0779 92.8183 31.1383 92.612 29.9209C92.4697 29.0837 92.1457 27.9669 91.7729 26.8367L91.7379 26.7305L91.6282 26.7505C91.2107 26.8269 90.6463 26.9301 90.1861 27.0147C89.9556 27.0568 89.7517 27.0942 89.6055 27.1209C89.532 27.1343 89.4732 27.145 89.4324 27.1527L89.3858 27.1614L89.3739 27.1635L89.3708 27.164L89.3916 27.282L89.3716 27.164H89.3708L89.3916 27.282L89.3716 27.164L89.3931 27.2902L89.3731 27.1635L89.3716 27.164L89.3931 27.2902V27.162L89.3731 27.1635L89.3931 27.2902L89.5147 27.2502L88.3035 23.5724L90.4989 23.3405L90.432 23.1814C89.3323 20.581 85.2793 11.8828 84.1519 9.61069C83.5494 8.39534 82.8607 6.95275 82.297 5.77639C82.0154 5.18797 81.7649 4.66623 81.5717 4.27224C81.4748 4.07474 81.3921 3.91005 81.327 3.78333C81.2612 3.6561 81.2155 3.57249 81.1816 3.52222C81.0904 3.39909 80.9427 3.33239 80.7584 3.25646C80.2097 3.04202 79.3301 2.88503 79.3263 2.8835L79.3036 3.0097L79.4256 2.97072C79.4256 2.97072 79.4171 2.94353 79.4017 2.89017C79.3559 2.7296 79.2547 2.33919 79.1855 1.82413V1.82361C79.1362 1.44398 78.9446 1.12284 78.5991 0.892498C78.2551 0.661126 77.7661 0.508241 77.0955 0.412309C76.773 0.366141 76.4945 0.347673 76.2532 0.347673C75.4941 0.345618 75.097 0.539034 74.9193 0.607775C74.8354 0.643681 74.8 0.704212 74.7661 0.765777C74.6584 0.982267 74.6007 1.36139 74.5572 1.70511C74.516 2.04626 74.4976 2.34074 74.4976 2.34228L74.6253 2.34997L74.6326 2.22172C73.2717 2.14682 58.0945 1.47015 50.5529 1.47015C43.0104 1.47015 27.8336 2.14682 26.4726 2.22172L26.4798 2.34997L26.6076 2.34228C26.6076 2.34023 26.584 1.95649 26.5285 1.55634C26.5008 1.35677 26.4659 1.1531 26.4198 0.986888C26.3967 0.903264 26.3711 0.828878 26.3387 0.765777C26.3049 0.704212 26.2695 0.643681 26.1858 0.607775H26.1853C26.0083 0.53903 25.6113 0.345614 24.852 0.347673C24.6114 0.347673 24.3323 0.366141 24.0096 0.412312C23.3397 0.508245 22.8507 0.66113 22.506 0.892502C22.1613 1.12284 21.9694 1.44399 21.9202 1.82413C21.874 2.16734 21.8134 2.45514 21.7652 2.65675C21.7406 2.75731 21.7196 2.83683 21.7042 2.89018C21.6888 2.94404 21.6806 2.97073 21.6806 2.97073L21.8027 3.00971L21.7796 2.8835C21.778 2.88402 21.3846 2.95481 20.9614 3.0646C20.7495 3.12 20.5309 3.18464 20.3468 3.25647C20.1626 3.33239 20.0148 3.39909 19.9235 3.52222H19.924C19.8896 3.57249 19.844 3.6561 19.7783 3.78333C19.3238 4.66366 18.0089 7.48269 16.9537 9.61069C15.825 11.8854 11.7625 20.6026 10.6693 23.1912L10.6021 23.3502L12.7044 23.5724L11.4932 27.2502L11.6148 27.2902L11.6343 27.1635L11.6148 27.162V27.2902L11.6343 27.1635H11.6338C11.5532 27.1486 10.2881 26.9167 9.47194 26.7674L9.3616 26.7474L9.32674 26.8536C8.95687 27.9776 8.63467 29.0878 8.49258 29.9209C8.35507 30.73 7.82772 32.3126 7.33622 33.6808C7.08998 34.3657 6.85301 34.9993 6.67706 35.461C6.50161 35.9232 6.38768 36.2131 6.38768 36.2136L6.37898 36.2346L6.37844 36.2572C6.37844 36.2582 6.29688 39.576 6.29688 43.2928C6.29688 45.1512 6.31738 47.1096 6.37844 48.8034C6.56313 53.8899 7.39113 57.7914 7.39163 57.796L7.64561 58.9918V47.5398H7.51733L7.39063 47.5606C7.39217 47.5644 8.96252 57.3928 10.1881 61.0365C10.8006 62.8514 11.3039 63.941 11.7476 64.6024C12.1883 65.2619 12.5895 65.5032 12.9635 65.5674L12.9855 65.4412L12.867 65.4905C12.8675 65.4909 13.3888 66.7402 13.9397 68.0337C14.2147 68.6809 14.4979 69.3385 14.7267 69.8575C14.8416 70.1172 14.9427 70.3419 15.0227 70.5139C15.1043 70.6871 15.1597 70.8009 15.2002 70.8621C15.3213 71.0472 15.4783 71.2265 15.7661 71.3381C16.0528 71.4512 16.4597 71.5085 17.1163 71.5089H33.5748L35.9746 69.1095H65.1318L67.5304 71.5089H83.9888C84.646 71.5085 85.053 71.4512 85.3397 71.3381C85.6275 71.2265 85.7845 71.0472 85.9061 70.8621C85.9461 70.8006 86.0015 70.6871 86.083 70.5139C86.6429 69.3142 88.2381 65.4912 88.2388 65.4905L88.1203 65.4412L88.1427 65.5674C88.5163 65.5032 88.9168 65.2619 89.3577 64.6024C89.8014 63.941 90.305 62.8514 90.9172 61.0365C92.1438 57.3928 93.714 47.5644 93.7151 47.5606L93.5885 47.5398H93.46V58.9915L93.714 57.796C93.7151 57.7914 94.542 53.8899 94.7267 48.8034C94.7882 47.1096 94.8082 45.1512 94.8082 43.2928C94.8082 39.576 94.7267 36.2582 94.7267 36.2572L94.7263 36.2346L94.7182 36.2136L94.5985 36.2608L94.4704 36.2639C94.4704 36.2659 94.4908 37.0924 94.5112 38.3857C94.532 39.6784 94.552 41.436 94.552 43.2928C94.552 45.1493 94.5312 47.105 94.4704 48.7941C94.3784 51.3259 94.1264 53.5644 93.8971 55.1689C93.7828 55.9715 93.674 56.6156 93.5939 57.0584C93.5139 57.5017 93.4631 57.7421 93.4631 57.7429L93.5885 57.7695H93.7167V47.5398L93.4616 47.5198C93.4616 47.5213 93.3638 48.1339 93.1968 49.1123C92.6982 52.0446 91.5824 58.2604 90.674 60.9549C90.0661 62.7579 89.5663 63.8321 89.1446 64.4593C88.7198 65.088 88.3931 65.2611 88.098 65.315L88.0288 65.3273L88.0018 65.392C88.0018 65.3923 87.8718 65.7036 87.6725 66.1776C87.3739 66.8883 86.9203 67.9626 86.5197 68.8921C86.3189 69.3565 86.1319 69.7852 85.9842 70.113C85.9103 70.2773 85.846 70.4162 85.7956 70.5216C85.7456 70.6255 85.706 70.7005 85.6925 70.7194C85.5779 70.8894 85.4786 71.0052 85.2454 71.0995C85.0107 71.193 84.6306 71.2526 83.9888 71.2526H67.5838V71.3808L67.6746 71.29L65.2379 68.8533H35.8685L33.4311 71.29L33.5214 71.3808V71.2526H17.1163C16.4745 71.2526 16.0944 71.193 15.8599 71.0995C15.6265 71.0052 15.528 70.8894 15.4136 70.7201C15.3947 70.6928 15.3331 70.5728 15.2551 70.405C14.9786 69.8125 14.4399 68.5578 13.9715 67.4528C13.5026 66.3477 13.1051 65.3939 13.104 65.392L13.0769 65.3273L13.0081 65.315C12.7126 65.2604 12.3858 65.0876 11.9605 64.4593C11.5388 63.8321 11.0391 62.7579 10.4312 60.9549C9.82639 59.1596 9.12766 55.7952 8.58234 52.8872C8.30993 51.4321 8.075 50.09 7.90878 49.1123C7.74203 48.1339 7.64403 47.5213 7.64403 47.5198L7.38909 47.5398V57.7695H7.51733L7.64303 57.7429C7.64249 57.7421 7.59174 57.5017 7.51171 57.0584C7.27112 55.7291 6.77244 52.5921 6.63496 48.7941C6.5739 47.105 6.55339 45.1493 6.55339 43.2928C6.55339 41.436 6.5739 39.6784 6.59441 38.3857C6.61442 37.0924 6.63496 36.2659 6.63496 36.2639L6.50668 36.2608L6.62623 36.3075C6.62677 36.307 7.08436 35.1414 7.57735 33.7675C8.07088 32.3916 8.59981 30.8151 8.74548 29.964C8.88299 29.156 9.20207 28.0515 9.5704 26.9342L9.44882 26.8942L9.42574 27.0198C9.84743 27.0973 10.3887 27.1963 10.8247 27.2758C11.0428 27.3158 11.2346 27.3513 11.3716 27.3764C11.4403 27.3887 11.4952 27.3989 11.5332 27.4056L11.5768 27.4138L11.5881 27.4159L11.5912 27.4164H11.5922L11.5927 27.4169H11.5958L11.6148 27.4185H11.7076L13.0476 23.3508L10.8006 23.1132L10.7873 23.241L10.9053 23.2907C11.9934 20.7149 16.0595 11.9901 17.1835 9.72459C17.7879 8.50666 18.4763 7.06358 19.0396 5.88721C19.3212 5.29929 19.5716 4.77756 19.7645 4.3851C19.9548 3.99522 20.0959 3.7228 20.1354 3.6674C20.1477 3.6397 20.2734 3.55711 20.4407 3.49503C20.6931 3.39602 21.0419 3.30522 21.3246 3.24007C21.6082 3.17543 21.8247 3.13592 21.8252 3.13592L21.9012 3.12207L21.9248 3.0487C21.9263 3.04357 22.0787 2.56595 22.1746 1.858C22.2197 1.53992 22.3583 1.30445 22.6496 1.1054C22.9415 0.907381 23.3961 0.758602 24.0461 0.666259C24.358 0.621626 24.6243 0.604189 24.852 0.604189C25.5754 0.60624 25.8986 0.772969 26.0935 0.847354L26.1068 0.812476L26.0843 0.842225L26.0935 0.847354L26.1068 0.812476L26.0843 0.842225L26.0961 0.857612C26.1279 0.903787 26.1725 1.03307 26.2048 1.18646C26.2556 1.41886 26.2931 1.71333 26.3172 1.94828C26.3408 2.18325 26.3516 2.35767 26.3516 2.35819L26.3597 2.4849L26.487 2.47823C27.8408 2.40282 43.0235 1.72667 50.5529 1.72667C58.0818 1.72667 73.2644 2.40282 74.6188 2.47823L74.7461 2.4849L74.7538 2.35819C74.7538 2.35716 74.7773 1.97958 74.8308 1.59174C74.8573 1.39782 74.8916 1.20185 74.9327 1.05513C74.9527 0.982283 74.9747 0.920713 74.9947 0.882752L75.0185 0.8453L75.0208 0.842225L74.9977 0.812476L75.0112 0.847354L75.0208 0.842225L74.9977 0.812476L75.0112 0.847354C75.2067 0.772969 75.5299 0.60624 76.2532 0.604189C76.481 0.604189 76.7473 0.621626 77.0593 0.666259C77.7095 0.758602 78.1636 0.907381 78.456 1.1054C78.7476 1.30445 78.8861 1.53992 78.9311 1.858C79.0266 2.56595 79.1793 3.04357 79.1816 3.0487L79.2047 3.12207L79.2805 3.13592C79.2817 3.13592 79.668 3.2062 80.0796 3.31291C80.2851 3.36678 80.4967 3.42936 80.6645 3.49503C80.8318 3.55762 80.9577 3.6397 80.9704 3.6674C81.0092 3.7228 81.1504 3.99522 81.3413 4.3851C81.9196 5.56351 83.0157 7.89774 83.9222 9.72459C85.0446 11.987 89.1015 20.6934 90.1953 23.281L90.3139 23.2312L90.3 23.104L87.9603 23.3508L89.3 27.4185H89.3931L89.4124 27.4169C89.4231 27.4154 90.8383 27.1558 91.6744 27.0029L91.6513 26.8767L91.5297 26.9167C91.9002 28.0407 92.2211 29.152 92.3592 29.964C92.5054 30.8151 93.0337 32.3916 93.5277 33.7675C94.0214 35.1414 94.4789 36.307 94.4789 36.3075L94.5985 36.2608Z" fill="black"/>
<path d="M17.1138 71.3814V71.2532C16.472 71.2532 16.0919 71.1936 15.8575 71.1001C15.6241 71.0058 15.5256 70.89 15.4111 70.7207C15.3922 70.6934 15.3306 70.5734 15.2526 70.4056C14.9761 69.8131 14.4375 68.5584 13.9691 67.4533C13.5002 66.3483 13.1026 65.3945 13.1016 65.3926L13.0744 65.3279L13.0056 65.3156C12.7101 65.261 12.3834 65.0882 11.958 64.4599C11.5363 63.8327 11.0367 62.7585 10.4288 60.9555C9.4012 57.907 8.10945 50.3611 7.74366 48.146L7.67494 47.7305L7.50049 48.1137C7.43277 48.2614 7.39637 48.4223 7.3866 48.5881V57.77H7.51488L7.64004 57.7423L7.63235 57.7081L7.37891 56.565V79.3101C7.37944 80.0512 7.98375 80.6553 8.72456 80.6556H19.3177C20.058 80.6553 20.6628 80.052 20.6634 79.3101V71.2532H17.1138V71.5095H20.5351V71.3814H20.4068V79.3101C20.4058 79.9088 19.9154 80.3982 19.3177 80.399H8.72456C8.12638 80.3982 7.63646 79.9088 7.63543 79.3101V57.7362H7.50719L7.38202 57.7639L7.38968 57.7978L7.64312 58.9416V48.5954H7.51488L7.64312 48.6023C7.65082 48.465 7.6811 48.3361 7.73392 48.2199L7.61696 48.1668L7.49076 48.1876C7.85909 50.4107 9.14522 57.9451 10.1856 61.0371C10.7981 62.852 11.3014 63.9416 11.7452 64.603C12.1859 65.2625 12.587 65.5038 12.961 65.568L12.983 65.4418L12.8645 65.4911C12.8651 65.4915 13.3863 66.7408 13.9373 68.0343C14.2122 68.6815 14.4954 69.3391 14.7242 69.8581C14.8391 70.1178 14.9402 70.3425 15.0202 70.5145C15.1018 70.6876 15.1572 70.8015 15.1977 70.8627C15.3188 71.0478 15.4758 71.2271 15.7636 71.3387C16.0504 71.4518 16.4572 71.5091 17.1138 71.5095V71.3814Z" fill="black"/>
<path d="M90.7925 60.9964L90.6709 60.956C90.063 62.759 89.5636 63.8333 89.1419 64.4604C88.7171 65.0891 88.3901 65.2623 88.0953 65.3162L88.0261 65.3285L87.9988 65.3931C87.9988 65.3935 87.8691 65.7048 87.6694 66.1788C87.3708 66.8894 86.9172 67.9637 86.5167 68.8933C86.3162 69.3577 86.1288 69.7863 85.9811 70.1141C85.9072 70.2784 85.843 70.4173 85.7929 70.5227C85.7425 70.6266 85.7029 70.7017 85.6898 70.7205C85.5748 70.8906 85.4759 71.0064 85.2423 71.1007C85.008 71.1942 84.6279 71.2538 83.9861 71.2538H80.4102V79.3107C80.4109 80.0525 81.015 80.6558 81.7553 80.6562H92.3485C93.0895 80.6558 93.6932 80.0517 93.6936 79.3107V48.6652C93.6936 48.4871 93.6566 48.3178 93.5943 48.1635L93.4235 47.7422L93.3488 48.1904C92.9729 50.4617 91.6913 57.928 90.6709 60.956L90.7925 60.9964L90.9141 61.0376C91.9475 57.9665 93.2238 50.5113 93.602 48.2328L93.475 48.2116L93.3565 48.2597C93.4081 48.3859 93.4373 48.5225 93.4373 48.6652V79.3107C93.4362 79.9094 92.9468 80.3988 92.3485 80.3996H81.7553C81.1577 80.3988 80.6679 79.9094 80.6668 79.3107V71.3819H80.5387V71.51H83.9861C84.6433 71.5097 85.05 71.4523 85.3366 71.3392C85.6244 71.2276 85.7814 71.0483 85.903 70.8633C85.943 70.8017 85.9984 70.6882 86.08 70.5151C86.6398 69.3154 88.2354 65.4924 88.2358 65.4916L88.1173 65.4424L88.14 65.5686C88.5132 65.5043 88.9141 65.2631 89.3547 64.6036C89.7983 63.9422 90.3023 62.8525 90.9141 61.0376L90.7925 60.9964Z" fill="black"/>
</g>
<defs>
<clipPath id="clip0_7800_5072">
<rect width="100" height="80.3072" fill="white" transform="translate(0.5 0.347656)"/>
</clipPath>
</defs>
</svg>
