<svg width="173" height="81" viewBox="0 0 173 81" fill="none" xmlns="http://www.w3.org/2000/svg">
<g clip-path="url(#clip0_45_2)">
<path d="M124.754 9.84177V9.78012C123.675 9.78012 79.7456 9.71846 73.6375 9.71846C70.6143 9.71846 65.5242 9.59516 60.65 9.56433H60.5575L61.1745 10.5816H61.2053C61.2053 10.5816 62.0999 10.5816 63.6732 10.6124C74.748 10.7049 119.14 11.1673 120.96 11.2598C121.793 11.3214 122.718 11.3523 123.551 11.4139C124.353 11.4756 125.063 11.5989 125.433 11.7838H125.464L125.495 11.753C126.05 11.3523 126.513 11.0132 126.821 10.7974C127.099 10.5816 127.222 10.4275 127.222 10.2733C127.222 10.1192 127.099 10.0267 126.945 9.96508C126.451 9.74929 125.433 9.74929 124.785 9.74929V9.84177V9.90342C125.217 9.90342 125.803 9.90342 126.297 9.96508C126.543 9.9959 126.759 10.0267 126.914 10.0884C127.068 10.15 127.13 10.2425 127.13 10.3042C127.13 10.3966 127.037 10.5508 126.79 10.7357C126.482 10.9515 126.019 11.2906 125.464 11.6914L125.495 11.7222L125.525 11.6914C125.124 11.4756 124.415 11.3831 123.613 11.3214C122.78 11.2598 121.854 11.229 121.022 11.1673C118.924 11.044 61.2362 10.4891 61.2362 10.4891V10.5508L61.267 10.52L60.7117 9.62598L60.6809 9.65681V9.71846C65.555 9.74929 70.6451 9.8726 73.6683 9.8726C79.7764 9.8726 123.705 9.93425 124.785 9.93425V9.84177H124.754Z" fill="black"/>
<path d="M124.755 70.9121V70.8505C123.675 70.8505 79.7464 70.9121 73.6383 70.9121C70.6151 70.9121 65.525 71.0354 60.6509 71.0662V71.1279L60.6817 71.1587L61.237 70.2648L61.2061 70.2339V70.2956C61.2061 70.2956 118.894 69.7407 120.992 69.6174C121.824 69.5557 122.75 69.5249 123.583 69.4633C124.416 69.4016 125.125 69.2783 125.495 69.0933L125.465 69.0625L125.434 69.0933C125.989 69.4941 126.452 69.8332 126.76 70.049C127.007 70.2339 127.1 70.3881 127.1 70.4805C127.1 70.573 127.038 70.6347 126.884 70.6963C126.421 70.8813 125.403 70.8813 124.755 70.8813V70.9121V70.9738C125.187 70.9738 125.773 70.9738 126.267 70.9121C126.513 70.8813 126.729 70.8505 126.915 70.758C127.069 70.6963 127.192 70.6038 127.192 70.4497C127.192 70.2956 127.069 70.1414 126.791 69.9257C126.483 69.7099 126.02 69.3708 125.465 68.97L125.434 68.9392H125.403C125.033 69.1242 124.323 69.2475 123.521 69.3091C122.719 69.3708 121.763 69.4016 120.93 69.4633C119.881 69.5249 104.95 69.679 90.2659 69.8332C82.9238 69.8948 75.6435 69.9873 70.2141 70.049C67.4993 70.0798 65.2474 70.1106 63.6432 70.1106C62.0699 70.1106 61.1753 70.1414 61.1753 70.1414H61.1444L60.5275 71.1587H60.62C65.4942 71.1279 70.5842 71.0046 73.6074 71.0046C79.7155 71.0046 123.645 70.9429 124.724 70.9429V70.9121H124.755Z" fill="black"/>
<path d="M43.1272 61.9993H43.1889C41.7698 56.9437 40.7827 45.4763 40.7827 40.3899C40.7827 35.3343 41.7698 23.8668 43.1889 18.8113C43.991 15.9136 44.392 13.7865 45.3483 12.3685L45.5334 12.0911L45.2866 12.276C45.2866 12.276 43.8984 13.3858 42.0166 17.5782C40.1349 21.8014 39.6721 32.2825 39.6721 39.6809C39.6721 47.0484 39.8264 55.3408 41.2146 60.6738C42.356 65.1128 44.4537 67.5481 45.1632 68.2571L45.4717 68.5654L45.2558 68.1954C44.4229 66.7774 44.0218 64.712 43.2506 61.9685L43.1272 61.9993H43.0655C43.8367 64.7429 44.2378 66.7774 45.0707 68.2571L45.1015 68.2263L45.1324 68.1954C44.4537 67.4864 42.356 65.082 41.2146 60.6738C39.8572 55.3408 39.703 47.0792 39.703 39.6809C39.703 32.3133 40.1657 21.8014 42.0475 17.609C43.0038 15.5128 43.8059 14.1873 44.392 13.3858C44.6697 12.985 44.9164 12.7384 45.0707 12.5535C45.1632 12.461 45.1941 12.3993 45.2558 12.3685C45.2866 12.3377 45.3175 12.3068 45.3175 12.3068L45.2866 12.276L45.2558 12.2452C44.2995 13.7249 43.8984 15.8519 43.0964 18.7188C41.6773 23.8052 40.6901 35.2727 40.6901 40.3282C40.6901 45.4146 41.6773 56.8513 43.0964 61.9377L43.1272 61.9993Z" fill="black"/>
<path d="M170.011 40.4543H169.918C169.918 41.3175 169.918 42.2423 169.918 43.2287C169.918 46.4347 169.857 50.2572 169.363 54.1105C169.055 56.6383 168.499 59.3818 168.006 61.478C167.759 62.5262 167.543 63.4201 167.389 64.0675C167.234 64.684 167.111 65.0539 167.111 65.0539L167.049 65.2697L167.234 65.1772C167.234 65.1772 170.073 63.9133 170.813 60.4299C171.553 56.9774 172.386 45.2941 172.386 40.4543C172.386 35.6145 171.522 23.9313 170.813 20.4787C170.073 16.9953 167.265 15.7314 167.234 15.7314L167.049 15.6389L167.111 15.8547C167.111 15.8547 167.204 16.2246 167.389 16.8412C167.882 18.7216 168.9 23.0065 169.363 26.7673C169.857 30.6206 169.918 34.4431 169.918 37.6491C169.918 38.6355 169.918 39.5603 169.918 40.4235H170.011H170.103C170.103 39.5603 170.103 38.6355 170.103 37.6491C170.103 34.4123 170.042 30.5898 169.548 26.7365C168.9 21.6809 167.296 15.7622 167.296 15.7622L167.204 15.793L167.173 15.8855H167.204C167.512 16.0397 169.98 17.3036 170.628 20.4787C171.337 23.9004 172.201 35.6145 172.201 40.4235C172.201 45.2324 171.337 56.9465 170.628 60.3683C170.258 62.0638 169.394 63.2043 168.623 63.9442C168.222 64.3141 167.882 64.5607 167.605 64.7457C167.481 64.8381 167.358 64.8998 167.296 64.9306C167.265 64.9614 167.234 64.9614 167.204 64.9614H167.173L167.204 65.0539L167.296 65.0848C167.296 65.0848 168.931 59.1661 169.548 54.1105C170.042 50.2263 170.103 46.4038 170.103 43.1979C170.103 42.2114 170.103 41.2866 170.103 40.4235H170.011V40.4543Z" fill="black"/>
<path d="M165.073 11.291L165.104 11.2602C161.927 8.63993 157.392 6.82116 153.69 6.42041C151.87 6.23545 148.662 6.0505 145.052 5.89636H144.991L145.022 5.95802C145.268 6.66703 145.824 7.46852 146.965 7.59182C149.063 7.83844 159.86 8.70158 164.981 11.6301L165.043 11.6609L165.135 11.291V11.2602L165.104 11.2294L165.073 11.291H165.012L164.919 11.5993H164.981L165.012 11.5685C159.86 8.63993 149.063 7.77678 146.934 7.53017C145.854 7.40687 145.33 6.6362 145.052 5.95802L144.991 5.98884V6.0505C148.6 6.20463 151.808 6.35876 153.628 6.57455C157.299 6.97529 161.834 8.79406 165.012 11.3835L165.073 11.291Z" fill="black"/>
<path d="M165.074 69.4631L165.043 69.4322C161.866 72.0525 157.362 73.8404 153.66 74.2412C151.84 74.4261 148.632 74.6111 145.022 74.7652V74.8269L145.084 74.8577C145.331 74.1795 145.855 73.4089 146.966 73.2856C149.064 73.0389 159.861 72.1758 165.043 69.2473L165.013 69.2164H164.951L165.043 69.5247L165.074 69.4631H165.136L165.043 69.1548L165.013 69.0931L164.951 69.124C159.83 72.0217 149.033 72.9156 146.935 73.1622C145.794 73.2856 145.238 74.087 144.992 74.7961L144.961 74.8577H145.022C148.632 74.7036 151.84 74.5494 153.66 74.3337C157.362 73.9329 161.897 72.1141 165.074 69.4939L165.105 69.4631V69.4322L165.074 69.4631Z" fill="black"/>
<path d="M168.653 26.6474H168.714C168.005 21.931 165.105 14.9333 163.192 12.8371C161.249 10.7409 156.035 10.1861 149.557 9.41539C147.552 9.16877 145.948 9.07629 144.652 9.07629C141.752 9.07629 140.272 9.56952 138.637 10.1861C137.464 10.6484 135.829 11.4191 134.441 12.2206C133.053 13.0221 131.881 13.7928 131.541 14.286C131.48 14.3785 131.449 14.4401 131.449 14.5326C131.449 14.6559 131.511 14.7484 131.603 14.81C131.912 15.0875 132.652 15.2108 133.331 15.2724C134.009 15.3341 134.595 15.3649 134.626 15.3649V15.2724C134.38 15.2416 134.194 15.2416 134.102 15.2416C134.102 15.2416 134.04 15.2416 133.978 15.2108C133.855 15.18 133.701 15.1183 133.547 15.0567C133.392 14.9642 133.3 14.8717 133.3 14.7792C133.3 14.6559 133.423 14.4709 133.855 14.2552C135.336 13.5153 139.932 11.1725 141.938 10.6176C142.74 10.4018 143.542 10.3094 144.498 10.3094C145.979 10.3094 147.799 10.5251 150.421 10.7718C152.58 10.9875 155.233 11.3883 157.516 11.9123C159.799 12.4672 161.681 13.1762 162.329 14.0085C163.624 15.704 166.339 22.3934 166.987 27.0482C167.635 31.703 167.912 37.0668 167.912 40.2111C167.912 43.3555 167.635 48.7193 166.987 53.3741C166.339 58.0289 163.624 64.7183 162.329 66.4137C161.712 67.2461 159.799 67.9551 157.516 68.5099C155.233 69.0648 152.58 69.4347 150.421 69.6505C147.799 69.928 145.979 70.1438 144.498 70.1129C143.542 70.1129 142.74 70.0204 141.938 69.8047C139.932 69.2498 135.336 66.9378 133.855 66.1671C133.423 65.9513 133.269 65.7664 133.3 65.6431C133.3 65.5814 133.331 65.5198 133.423 65.4581C133.547 65.3656 133.701 65.304 133.855 65.2423C134.009 65.1807 134.102 65.1807 134.102 65.1807C134.194 65.1807 134.38 65.1807 134.626 65.1498V65.0574C134.472 65.0574 133.701 65.0882 132.96 65.1807C132.59 65.2423 132.22 65.304 131.942 65.4273C131.819 65.4889 131.696 65.5506 131.603 65.6122C131.511 65.6739 131.449 65.7664 131.449 65.8897C131.449 65.9513 131.48 66.0438 131.541 66.1363C131.881 66.6295 133.053 67.4002 134.441 68.2017C135.829 69.0032 137.464 69.7738 138.637 70.2362C140.272 70.8528 141.752 71.346 144.652 71.346C145.948 71.346 147.552 71.2535 149.557 71.0069C156.035 70.2671 161.28 69.7122 163.192 67.5851C165.105 65.4889 168.005 58.4913 168.714 53.7748C169.424 49.0892 169.825 45.9757 169.825 40.2111C169.825 34.4466 169.424 31.3639 168.714 26.6474H168.653H168.591C169.301 31.3331 169.702 34.4466 169.702 40.1803C169.702 45.9449 169.301 49.0275 168.591 53.7132C167.882 58.3988 164.982 65.3965 163.1 67.4618C161.218 69.5272 156.005 70.0821 149.526 70.8528C147.521 71.0994 145.917 71.1919 144.621 71.1919C141.752 71.1919 140.272 70.6986 138.637 70.0821C137.464 69.6197 135.86 68.849 134.441 68.0475C133.053 67.2769 131.881 66.4754 131.572 66.013C131.541 65.9513 131.511 65.8897 131.511 65.828C131.511 65.7664 131.541 65.7047 131.603 65.6431C131.85 65.4273 132.529 65.2732 133.176 65.2115C133.824 65.1498 134.441 65.119 134.534 65.119V65.0574V64.9957C134.287 64.9957 134.133 65.0265 134.04 65.0265C134.04 65.0265 133.824 65.0574 133.608 65.1498C133.516 65.1807 133.392 65.2423 133.3 65.3348C133.207 65.3965 133.146 65.4889 133.146 65.6122C133.146 65.7972 133.331 66.013 133.763 66.2288C135.243 66.9686 139.84 69.3114 141.876 69.8663C142.678 70.0821 143.48 70.1746 144.467 70.1746C145.948 70.1746 147.799 69.9588 150.421 69.6814C152.58 69.4656 155.233 69.0648 157.516 68.5408C159.799 67.9859 161.712 67.3077 162.39 66.4137C163.717 64.6875 166.401 57.9981 167.079 53.3433C167.727 48.6885 168.005 43.3246 168.005 40.1803C168.005 37.036 167.727 31.6722 167.079 27.0174C166.432 22.3317 163.717 15.6732 162.39 13.9469C161.712 13.0529 159.799 12.3747 157.516 11.8199C155.233 11.265 152.58 10.8951 150.421 10.6793C147.799 10.4018 145.979 10.2169 144.467 10.1861C143.511 10.1861 142.678 10.2785 141.876 10.4943C139.84 11.0492 135.243 13.3612 133.763 14.1319C133.331 14.3476 133.146 14.5634 133.146 14.7484C133.146 14.8717 133.207 14.9642 133.3 15.0258C133.547 15.2416 134.04 15.3341 134.04 15.3341C134.133 15.3341 134.318 15.3341 134.565 15.3649V15.3033V15.2416C134.565 15.2416 133.763 15.2416 132.991 15.1183C132.59 15.0567 132.22 14.995 131.942 14.9025C131.788 14.8409 131.696 14.7792 131.603 14.7176C131.511 14.6559 131.48 14.5943 131.48 14.5018C131.48 14.4401 131.511 14.4093 131.541 14.3168C131.85 13.8544 133.022 13.0837 134.41 12.2823C135.799 11.4808 137.403 10.7101 138.606 10.2477C140.241 9.63117 141.691 9.13795 144.591 9.13795C145.886 9.13795 147.49 9.23043 149.496 9.47704C155.974 10.2169 161.218 10.8026 163.069 12.8371C164.951 14.9025 167.851 21.9002 168.56 26.5858L168.653 26.6474Z" fill="black"/>
<path d="M153.812 19.3055L153.874 19.2747L153.843 19.2438H153.812C153.195 19.398 150.882 19.9529 148.784 19.9529C148.722 19.9529 148.691 19.9529 148.661 19.9529V20.0453C148.661 20.0453 149.093 20.0762 149.74 20.1995C150.728 20.3536 152.27 20.631 153.689 21.1243C155.108 21.6175 156.404 22.2957 156.928 23.1896C157.638 24.4227 158.224 27.3204 158.625 30.6497C159.026 33.9789 159.242 37.7398 159.242 40.73C159.242 43.7201 159.088 47.4193 158.717 50.5945C158.347 53.7696 157.761 56.4515 156.897 57.3147C155.139 59.1334 152.794 60.3048 148.506 60.5206V60.6131C148.506 60.6131 148.753 60.6131 149.123 60.6439C150.296 60.7364 152.733 60.9522 153.689 61.3221H153.72L153.751 61.2913C153.812 61.1988 153.874 61.1372 153.905 61.0447L153.874 61.0139L153.905 61.0755C153.905 61.0755 156.866 59.7808 157.761 58.2703C158.224 57.5305 158.779 55.5267 159.242 52.4441C159.705 49.3614 160.044 45.1998 160.044 40.1443C160.044 35.0887 159.705 30.9271 159.242 27.8445C158.779 24.7618 158.224 22.7581 157.761 22.0182C156.836 20.5077 153.905 19.213 153.905 19.213L153.812 19.3055L153.782 19.3671C153.782 19.3671 153.967 19.4596 154.244 19.5829C155.108 20.0145 156.928 21.0318 157.576 22.1107C158.008 22.8197 158.594 24.8234 159.026 27.9061C159.489 30.9888 159.828 35.1195 159.828 40.1751C159.828 45.2306 159.489 49.3922 159.026 52.4441C158.563 55.5267 158.008 57.4996 157.576 58.2395C157.144 58.9485 156.188 59.6575 155.324 60.1507C154.892 60.3973 154.491 60.6131 154.213 60.7672C153.936 60.9214 153.751 60.983 153.751 60.983C153.689 61.0755 153.658 61.1372 153.596 61.2296L153.627 61.2605L153.658 61.1988C153.01 60.9522 151.715 60.7672 150.573 60.6439C149.432 60.5206 148.445 60.4898 148.445 60.4898V60.5515V60.6131C152.733 60.3973 155.108 59.2259 156.897 57.3763C157.792 56.4207 158.378 53.7696 158.748 50.5945C159.118 47.4193 159.273 43.7201 159.273 40.73C159.273 37.7398 159.057 33.9789 158.656 30.6497C158.255 27.3204 157.699 24.4227 156.959 23.1588C156.219 21.8949 154.121 21.0934 152.239 20.631C150.326 20.1378 148.63 19.9837 148.63 19.9837V20.0453V20.107C148.661 20.107 148.722 20.107 148.784 20.107C150.913 20.107 153.226 19.5521 153.843 19.398L153.812 19.3055L153.751 19.3363V19.3671H153.782L153.812 19.3055Z" fill="black"/>
<path d="M132.867 8.42315L132.96 8.45398C133.114 7.86828 133.176 7.09761 133.176 6.35777C133.176 6.11116 133.176 5.86455 133.145 5.64876V5.55628H133.052C131.078 5.52546 129.319 5.49463 127.9 5.49463C127.376 5.49463 126.913 5.49463 126.481 5.49463C120.867 5.55628 115.808 6.04951 115.808 6.04951L90.9432 6.17281V6.91265L92.6399 8.11489L93.2261 9.84118V10.8893L94.3983 15.2667L94.5217 16.0373H94.6143C104.208 16.1606 114.975 16.2839 117.072 16.2839C117.227 16.2839 117.35 16.2839 117.412 16.2839C118.121 16.2531 119.695 15.914 121.329 15.4516C122.995 14.9892 124.723 14.3727 125.803 13.8178C126.851 13.2629 128.548 12.2457 130.06 11.2284C130.8 10.7043 131.51 10.2111 132.034 9.71787C132.559 9.25547 132.929 8.8239 133.021 8.45398L132.867 8.42315L132.774 8.39233C132.713 8.66977 132.373 9.07051 131.849 9.53291C130.307 10.9201 127.253 12.7697 125.679 13.602C124.661 14.1569 122.903 14.7426 121.237 15.2358C119.571 15.6982 118.029 16.0373 117.35 16.0681C117.288 16.0681 117.196 16.0681 117.041 16.0681C114.944 16.0681 104.177 15.9448 94.5834 15.8215V15.914H94.676L94.5834 15.205L93.442 10.8585V9.81035L92.825 7.99158L91.1592 6.82017V6.3886L115.838 6.26529C115.838 6.26529 116.147 6.23447 116.702 6.17281C118.368 6.01868 122.286 5.74124 126.481 5.67959C126.882 5.67959 127.376 5.67959 127.9 5.67959C129.319 5.67959 131.078 5.71042 133.052 5.74124V5.64876H132.96C132.96 5.86455 132.99 6.11116 132.99 6.35777C132.99 7.06678 132.929 7.83745 132.805 8.42315H132.867Z" fill="black"/>
<path d="M132.868 72.3587L132.775 72.3895C132.899 72.9444 132.96 73.7151 132.96 74.4549C132.96 74.7015 132.96 74.9481 132.93 75.1639H133.022V75.0714C131.048 75.1023 129.289 75.1331 127.87 75.1331C127.346 75.1331 126.883 75.1331 126.482 75.1331C123.675 75.1023 121.022 74.9481 119.047 74.8248C118.06 74.7632 117.258 74.7015 116.703 74.6399C116.148 74.5782 115.839 74.5474 115.839 74.5474L91.16 74.4241V73.9925L92.8258 72.8211L93.4428 71.0023V69.9542L94.5842 65.6077L94.6768 64.8987H94.5842V64.9912C104.178 64.8678 114.945 64.7445 117.042 64.7445C117.197 64.7445 117.32 64.7445 117.351 64.7445C117.999 64.7754 119.572 65.1145 121.238 65.5769C122.904 66.0393 124.631 66.6558 125.68 67.2107C126.729 67.7655 128.426 68.752 129.906 69.7693C130.647 70.2933 131.325 70.7866 131.85 71.2489C132.374 71.7113 132.714 72.1429 132.775 72.3895L132.868 72.3587L132.96 72.3279C132.868 71.958 132.498 71.5572 131.973 71.064C130.4 69.646 127.346 67.7964 125.773 66.9641C124.724 66.4092 122.965 65.7926 121.299 65.3302C119.634 64.8678 118.06 64.4979 117.382 64.4979C117.32 64.4979 117.227 64.4979 117.042 64.4979C114.945 64.4979 104.147 64.6212 94.5842 64.7445H94.4917L94.3683 65.5152L93.196 69.8926V70.9407L92.6099 72.667L90.9132 73.8692V74.609L115.777 74.7324C115.777 74.7324 120.837 75.2256 126.451 75.2872C126.852 75.2872 127.346 75.2872 127.87 75.2872C129.289 75.2872 131.079 75.2564 133.022 75.2256H133.115V75.1331C133.115 74.9173 133.145 74.6707 133.145 74.4241C133.145 73.6843 133.084 72.9136 132.93 72.3279L132.868 72.3587Z" fill="black"/>
<path d="M4.96796 52.2309H5.0605C4.53607 46.1581 4.50522 43.5378 4.50522 41.3183C4.50522 41.01 4.50522 40.7018 4.50522 40.3935C4.50522 40.0852 4.50522 39.777 4.50522 39.4687C4.50522 37.2492 4.53607 34.6289 5.0605 28.5561C5.27645 25.9975 5.73918 23.8396 6.35616 21.9592L6.41786 21.7434L3.51806 23.1614L2.46919 23.8704V23.9013C1.66712 27.6929 1.01929 32.9951 1.01929 40.3935C1.01929 47.7919 1.66712 53.094 2.46919 56.8549V56.8857L3.51806 57.5947L6.23277 58.9203L6.29446 58.8894L6.35616 58.8586L6.32531 58.797C5.70833 56.9165 5.27645 54.7587 5.02966 52.2001L4.96796 52.2309H4.87541C5.09135 54.7895 5.55409 56.9782 6.17107 58.8586L6.26362 58.8278L6.29446 58.7353L3.64145 57.4406L2.65428 56.7624L2.59259 56.8549L2.68513 56.8241C1.85221 53.0324 1.23523 47.761 1.23523 40.3935C1.23523 33.0259 1.85221 27.7238 2.65428 23.9629L2.56174 23.9321L2.62343 24.0246L3.6106 23.3464L6.26362 22.0517L6.23277 21.9592L6.14022 21.9284C5.52324 23.8088 5.0605 25.9975 4.84456 28.5561C4.32013 34.6289 4.28928 37.2492 4.28928 39.4687C4.28928 39.777 4.28928 40.0852 4.28928 40.3935C4.28928 40.7018 4.28928 41.01 4.28928 41.3183C4.28928 43.5378 4.32013 46.1889 4.84456 52.2309H4.96796Z" fill="black"/>
<path d="M78.0192 17.6123V17.7047C78.0192 17.7047 95.8499 18.3521 99.5827 18.4754C103.315 18.5987 121.578 19.0919 126.298 19.3077C130.864 19.4927 142.956 19.9551 144.992 19.9551C145.085 19.9551 145.147 19.9551 145.177 19.9551C145.609 19.9551 146.103 19.9242 146.597 19.9242C147.553 19.9242 148.447 19.9551 148.447 19.9551V19.8626H148.355V21.4039H148.447V21.3114C148.447 21.3114 147.553 21.2806 146.597 21.2806C146.103 21.2806 145.609 21.2806 145.177 21.3114C145.116 21.3114 145.054 21.3114 144.992 21.3114C142.956 21.3114 130.864 20.849 126.298 20.6641C121.578 20.4791 103.285 19.9551 99.5827 19.8318C97.7317 19.7701 92.3332 19.5852 87.3973 19.4002C84.9294 19.3077 82.5849 19.2152 80.8573 19.1536C79.9936 19.1228 79.284 19.0919 78.7904 19.0919C78.2969 19.0611 78.0192 19.0611 78.0192 19.0611H77.4639L78.1118 17.6431L78.0192 17.6123L77.9267 17.5814L77.1555 19.2769H78.0192C78.0192 19.2769 95.8499 19.9242 99.5827 20.0476C103.315 20.1709 121.578 20.6641 126.298 20.8799C130.864 21.0648 142.926 21.5272 144.992 21.5272C145.085 21.5272 145.147 21.5272 145.208 21.5272C145.64 21.5272 146.134 21.4964 146.627 21.4964C147.584 21.4964 148.478 21.5272 148.478 21.5272H148.571V19.7701H148.478C148.478 19.7701 147.584 19.7393 146.627 19.7393C146.134 19.7393 145.64 19.7393 145.208 19.7701C145.147 19.7701 145.085 19.7701 145.023 19.7701C142.987 19.7701 130.894 19.3077 126.329 19.1228C121.609 18.9378 103.315 18.4137 99.6135 18.2904C97.7626 18.2288 92.364 18.0438 87.4282 17.8589C84.9602 17.7664 82.6157 17.6739 80.8882 17.6123C80.0244 17.5814 79.3149 17.5506 78.8213 17.5506C78.3277 17.5198 78.0501 17.5198 78.0501 17.5198H77.9884L77.9575 17.5814L78.0192 17.6123Z" fill="black"/>
<path d="M77.5251 18.6893L77.5868 18.7202L78.1112 17.5796L76.1677 17.3946L71.3244 16.7164L71.2936 16.7473C71.016 17.0863 70.7692 17.4563 70.5224 17.9187L70.4915 17.9803L75.3657 18.6585L77.5868 18.751V18.7202L77.5251 18.6893V18.6277L75.3348 18.5352L70.5532 17.857V17.9187L70.5841 17.9495C70.8309 17.4871 71.0776 17.0863 71.3553 16.7781L71.3244 16.7473V16.8089L76.1677 17.4871L77.957 17.6412L77.4942 18.6585L77.5251 18.6893Z" fill="black"/>
<path d="M78.0182 63.0817V63.1742C78.0182 63.1742 78.2958 63.1742 78.7894 63.1434C82.2445 63.0201 96.3116 62.5268 99.5816 62.4035C103.314 62.2802 121.577 61.787 126.297 61.5712C130.832 61.3863 142.955 60.9239 144.991 60.9239C145.084 60.9239 145.146 60.9239 145.176 60.9239C145.608 60.9239 146.102 60.9547 146.595 60.9547C147.583 60.9547 148.446 60.9239 148.446 60.9239H148.539V59.1667H148.446C148.446 59.1667 147.552 59.1976 146.595 59.1976C146.102 59.1976 145.608 59.1976 145.176 59.1667C145.115 59.1667 145.053 59.1667 144.96 59.1667C142.894 59.1667 130.801 59.6291 126.266 59.8141C121.546 59.9991 103.253 60.5231 99.5508 60.6464C95.818 60.7697 77.9873 61.4171 77.9873 61.4171H77.1235L77.9256 63.1742H77.9873L78.0182 63.0817L78.1107 63.0509L77.4629 61.6329H78.0182C78.0182 61.6329 78.2958 61.6329 78.7894 61.602C82.2445 61.4787 96.3116 60.9855 99.5816 60.8622C103.314 60.7389 121.577 60.2457 126.297 60.0299C130.832 59.8449 142.955 59.3825 144.991 59.3825C145.084 59.3825 145.146 59.3825 145.176 59.3825C145.608 59.3825 146.102 59.4134 146.595 59.4134C147.583 59.4134 148.446 59.3825 148.446 59.3825V59.2901H148.354V60.8314H148.446V60.7389C148.446 60.7389 147.552 60.7697 146.595 60.7697C146.102 60.7697 145.608 60.7697 145.176 60.7389C145.115 60.7389 145.053 60.7389 144.991 60.7389C142.924 60.7389 130.832 61.2013 126.297 61.3863C121.577 61.5712 103.283 62.0953 99.5816 62.2186C95.8489 62.3419 78.0182 62.9892 78.0182 62.9892V63.0817Z" fill="black"/>
<path d="M77.524 62.0328L77.4623 62.0637L77.9251 63.081L76.1358 63.2351L71.2925 63.9133V63.9749L71.3234 63.9441C71.0457 63.6358 70.7989 63.2351 70.5521 62.7727L70.5213 62.8035V62.8652L75.3029 62.187L77.4932 62.0945L77.524 62.0328V61.9712L75.3337 62.0637L70.4596 62.7419L70.4904 62.8035C70.7372 63.2659 70.984 63.6667 71.2617 63.9749L71.2925 64.0057L76.1358 63.3276L78.0793 63.1426L77.5549 61.9712H77.524V62.0328Z" fill="black"/>
<path d="M10.1193 14.4359L10.2118 14.4976C12.3712 11.5074 17.3071 10.0586 18.6336 9.75029C18.8187 9.71946 19.2506 9.65781 19.8675 9.59616V9.38037H14.4073C14.4073 9.38037 11.1681 10.336 9.03954 12.2164H9.00869L8.54595 13.2029L8.6385 13.2337L8.5768 13.1412C8.5768 13.1412 4.99832 16.2855 3.48672 23.2215L3.45587 23.4373L6.35568 22.0193V21.9884C7.37369 18.7825 8.82359 16.4397 10.2118 14.5284L10.1193 14.4359L10.0267 14.3743C8.6385 16.2855 7.1886 18.6592 6.13973 21.896L6.23228 21.9268L6.20143 21.8343L3.54842 23.129L3.57927 23.2215L3.67181 23.2523C4.41219 19.7998 5.677 17.3336 6.75671 15.6998C7.28115 14.8983 7.77473 14.2818 8.14492 13.8811C8.33001 13.6961 8.45341 13.542 8.5768 13.4495C8.6385 13.3878 8.66935 13.357 8.7002 13.3262L8.73105 13.2953H8.7619L9.22463 12.3397L9.13209 12.3089L9.19378 12.3705C10.2426 11.4458 11.5692 10.7367 12.618 10.2743C13.1425 10.0277 13.6052 9.8736 13.9445 9.75029C14.2839 9.62698 14.469 9.56533 14.469 9.56533L14.4073 9.50368V9.59616H19.8058V9.50368V9.4112C19.1889 9.47285 18.757 9.5345 18.541 9.56533C17.1837 9.8736 12.217 11.3224 9.99586 14.4051L10.1193 14.4359Z" fill="black"/>
<path d="M10.1193 66.3201L10.0267 66.3818C12.2478 69.4645 17.2145 70.9133 18.5719 71.2216C18.757 71.2524 19.2197 71.3141 19.8367 71.3757V71.2832V71.1599H14.4073V71.2524L14.4381 71.1599C14.4381 71.1599 14.253 71.0983 13.9137 70.975C12.9265 70.6359 10.7054 69.7419 9.13209 68.3547L9.07039 68.4164L9.16294 68.3855L8.7002 67.4299H8.66935L8.6385 67.3991C8.26831 67.0292 5.06002 63.9157 3.64097 57.4729L3.54842 57.5037L3.51757 57.5962L6.17058 58.8909L6.20143 58.7985L6.10888 58.8293C7.15775 62.0661 8.60765 64.4397 9.99586 66.351L10.1193 66.3201L10.2118 66.2585C8.8236 64.3472 7.40454 62.0044 6.35568 58.7985V58.7676L3.45587 57.3496L3.48672 57.5654C4.99832 64.5014 8.5768 67.6149 8.5768 67.6457L8.6385 67.584L8.54596 67.6149L9.00869 68.5705H9.03954C11.199 70.4509 14.4073 71.4065 14.4073 71.4065H19.8367V71.1907C19.2197 71.1291 18.7878 71.0674 18.6027 71.0366C17.2762 70.7284 12.3404 69.2795 10.181 66.2893L10.1193 66.3201Z" fill="black"/>
<path d="M163.129 12.8383L163.067 12.9C163.808 13.7015 164.702 15.3045 165.566 17.1849L165.597 17.2774L166.954 16.8766V15.1503V15.1195C166.954 15.1195 166.584 14.318 166.183 13.4857C165.967 13.0541 165.751 12.6225 165.566 12.2526C165.381 11.8827 165.196 11.6053 165.073 11.482C164.98 11.4203 164.857 11.3278 164.672 11.2353C164.024 10.9271 162.697 10.4955 161.371 10.0948C160.075 9.69402 158.779 9.38575 158.224 9.3241C158.132 9.3241 158.039 9.3241 157.946 9.3241C156.928 9.3241 155.54 9.75567 154.954 9.97146L154.553 10.0948L154.985 10.1564C158.841 10.7113 161.772 11.4203 163.067 12.8383H163.129L163.191 12.7767C161.833 11.297 158.872 10.588 154.985 10.0331V10.1256L155.016 10.2181C155.602 10.0023 156.99 9.57071 157.946 9.57071C158.039 9.57071 158.132 9.57071 158.193 9.57071C158.81 9.63236 160.384 10.0331 161.864 10.4955C162.605 10.7113 163.314 10.9579 163.869 11.1737C164.147 11.2662 164.394 11.3587 164.579 11.4511C164.764 11.5436 164.887 11.6053 164.918 11.6361C165.011 11.7286 165.196 12.006 165.381 12.3759C165.659 12.9 166.029 13.6398 166.276 14.1947C166.553 14.7804 166.738 15.212 166.738 15.212L166.831 15.1811H166.738V16.7225L165.597 17.0307L165.628 17.1232L165.72 17.0924C164.857 15.1811 163.962 13.5782 163.191 12.7458L163.129 12.8383Z" fill="black"/>
<path d="M163.129 67.5178L163.191 67.5794C163.962 66.7471 164.857 65.1441 165.72 63.2329L165.628 63.202L165.597 63.2945L166.738 63.6028V65.1441H166.831L166.738 65.1133C166.738 65.1133 166.646 65.2982 166.522 65.6065C166.307 66.0689 165.998 66.7471 165.69 67.3945C165.535 67.7027 165.381 68.011 165.258 68.2268C165.134 68.4734 165.011 68.6275 164.949 68.6892C164.918 68.72 164.795 68.8125 164.61 68.8741C163.993 69.1516 162.635 69.614 161.34 69.9839C160.044 70.3538 158.749 70.6929 158.224 70.7546C158.132 70.7546 158.07 70.7546 157.977 70.7546C157.021 70.7546 155.633 70.323 155.047 70.1072L155.016 70.1997V70.2922C158.872 69.7373 161.833 69.0283 163.222 67.5486L163.129 67.5178L163.067 67.4561C161.772 68.8741 158.841 69.5831 154.985 70.138L154.553 70.1997L154.954 70.3538C155.571 70.5696 156.959 71.0012 157.946 71.0012C158.039 71.0012 158.132 71.0012 158.224 71.0012C158.872 70.9395 160.445 70.5079 161.926 70.0764C162.666 69.8606 163.376 69.614 163.962 69.3982C164.24 69.3057 164.486 69.1824 164.672 69.1207C164.857 69.0283 164.98 68.9666 165.073 68.8741C165.196 68.7508 165.381 68.4734 165.566 68.1035C166.152 67.0245 166.954 65.2366 166.954 65.2366V65.2058V63.4795L165.597 63.0787L165.566 63.1712C164.702 65.0825 163.808 66.6546 163.067 67.4561L163.129 67.5178Z" fill="black"/>
<path d="M91.9616 65.5485V65.641C93.0105 65.641 93.8743 65.641 94.4604 65.641C94.9848 65.641 95.8795 65.641 97.0517 65.6101V65.5177H96.9592L96.4964 69.8334H96.589V69.7409C94.4295 69.7717 92.2084 69.8025 90.0181 69.8025V69.895L90.1107 69.9259L92.0542 65.5793L91.9616 65.5485L91.8691 65.5177L89.8639 70.0183H90.0181C92.2084 69.9875 94.4295 69.9567 96.589 69.9567H96.6815L97.1443 65.4252H97.0209C95.8794 65.456 94.954 65.456 94.4604 65.456C93.8743 65.456 93.0105 65.456 91.9616 65.456H91.8999L91.8691 65.5177L91.9616 65.5485Z" fill="black"/>
<path d="M118.337 65.5177V65.6101C118.553 65.641 118.738 65.641 118.862 65.6718L118.893 65.5793H118.8L119.201 69.5868H119.294V69.4943C119.139 69.4943 118.985 69.4943 118.831 69.4943V69.5868H118.923L118.461 65.5177H118.337H118.245L118.738 69.6792H118.831C118.985 69.6792 119.139 69.6792 119.294 69.6792H119.417L119.016 65.4868H118.923C118.769 65.456 118.584 65.456 118.368 65.4252H118.245V65.5485L118.337 65.5177Z" fill="black"/>
<path d="M91.9616 15.2094V15.3018C93.0105 15.3018 93.8743 15.3018 94.4604 15.3018C94.9848 15.3018 95.8794 15.3018 97.0209 15.3327H97.1443L96.6815 10.8012H96.589C94.4295 10.7703 92.2084 10.7395 90.0181 10.7395H89.8639L91.8999 15.3018H91.9616V15.2094L92.0542 15.1785L90.1107 10.832L90.0181 10.8628V10.9553C92.2084 10.9861 94.4295 10.9861 96.589 11.0169V10.9245H96.4964L96.9592 15.2402H97.0517V15.1477C95.8795 15.1169 94.9848 15.1169 94.4604 15.1169C93.8743 15.1169 93.0105 15.1169 91.9616 15.1169V15.2094Z" fill="black"/>
<path d="M118.338 15.269V15.3615C118.554 15.3307 118.739 15.3307 118.893 15.2998H118.986L119.387 11.1074H119.264C119.109 11.1074 118.955 11.1074 118.801 11.1074H118.708L118.215 15.3923H118.338V15.269H118.431L118.893 11.1999H118.801V11.2924C118.955 11.2924 119.109 11.2924 119.264 11.2924V11.1999H119.171L118.77 15.2074H118.863L118.832 15.1149C118.678 15.1457 118.523 15.1457 118.307 15.1765L118.338 15.269Z" fill="black"/>
<path d="M65.7713 40.3959H65.6787C65.6787 50.7536 67.1903 56.4565 68.7019 61.4196C68.7328 61.5429 68.7636 61.6662 68.7636 61.8204C68.7636 62.3752 68.3934 62.8376 67.7765 62.9609L50.6553 66.2286C50.501 66.2594 50.3468 66.2594 50.1925 66.2594C48.8352 66.2594 47.231 65.3346 46.6758 63.5466C46.4907 62.9918 46.3673 62.3752 46.1822 61.7279C44.8248 56.8573 43.8377 45.6056 43.8377 40.4267C43.8377 35.2478 44.8248 23.9961 46.1822 19.1255C46.3673 18.4782 46.4907 17.8616 46.6758 17.3068C47.231 15.5188 48.8352 14.594 50.1925 14.594C50.3468 14.594 50.501 14.594 50.6553 14.6249L67.7765 17.8308C68.3934 17.9541 68.7636 18.4165 68.7636 18.9714C68.7636 19.0947 68.7328 19.218 68.7019 19.3721C67.1903 24.3352 65.6787 30.0381 65.6787 40.3959H65.7713H65.8638C65.8638 30.0381 67.3754 24.3661 68.887 19.4338C68.9487 19.2797 68.9487 19.1255 68.9487 19.0022C68.9487 18.3549 68.486 17.8 67.8073 17.6459L50.6553 14.3782C50.501 14.3474 50.3159 14.3474 50.1617 14.3474C48.7118 14.3474 47.0459 15.3339 46.4598 17.2143C46.2747 17.8 46.1513 18.4165 45.9662 19.0639C44.6089 23.9653 43.6217 35.217 43.6217 40.4267C43.6217 45.6364 44.6089 56.8573 45.9662 61.7587C46.1513 62.4061 46.2747 63.0226 46.4598 63.6083C47.0459 65.4887 48.7426 66.4752 50.1617 66.4752C50.3159 66.4752 50.501 66.4752 50.6553 66.4443L67.8073 63.1767C68.5168 63.0534 68.9487 62.4985 68.9487 61.8204C68.9487 61.6662 68.9179 61.5121 68.887 61.3888C67.3754 56.4257 65.8638 50.7536 65.8638 40.4267H65.7713V40.3959Z" fill="black"/>
<path d="M121.793 40.33H121.7C121.7 44.06 121.299 50.2562 121.053 52.3832C120.929 53.4313 120.59 54.0787 120.065 54.4794C119.541 54.8801 118.862 55.0343 118.029 55.0343C116.364 55.0343 89.5558 55.9591 85.7613 56.1132C84.5891 56.144 83.7561 56.1749 83.1392 56.1749C82.4605 56.1749 82.0903 56.144 81.7818 56.0516C81.5042 55.9591 81.3191 55.8049 81.0106 55.5583C80.9489 55.4967 80.8255 55.2809 80.733 54.911C80.3936 53.6471 80.1468 50.8419 79.9617 47.9442C79.7766 45.0465 79.6841 42.0563 79.6841 40.33C79.6841 38.3571 79.8075 34.7196 80.0543 31.4828C80.1777 29.849 80.3319 28.3385 80.4862 27.1979C80.5787 26.6122 80.6712 26.1189 80.7638 25.7798C80.8563 25.4099 80.9489 25.1633 81.0414 25.1325C81.3191 24.8859 81.5042 24.7317 81.8127 24.6393C82.0903 24.5468 82.4913 24.516 83.17 24.516C83.787 24.516 84.5891 24.5468 85.7922 24.5776C89.6175 24.7317 116.394 25.6565 118.06 25.6565C118.893 25.6565 119.572 25.8107 120.096 26.2114C120.621 26.6122 120.96 27.2595 121.083 28.3076C121.33 30.4347 121.731 36.6616 121.731 40.3608H121.793H121.886C121.886 36.6308 121.484 30.4347 121.238 28.2768C121.114 27.1979 120.744 26.458 120.158 26.0265C119.603 25.5949 118.831 25.4408 117.999 25.4408C116.333 25.4408 89.5249 24.516 85.7305 24.3618C84.5582 24.331 83.7253 24.3002 83.1083 24.3002C82.4296 24.3002 82.0286 24.331 81.6893 24.4543C81.3808 24.5776 81.134 24.7317 80.8563 24.9784C80.7021 25.1017 80.6404 25.3483 80.517 25.749C80.1777 27.0437 79.9309 29.849 79.7458 32.7467C79.5607 35.6444 79.4681 38.6345 79.4681 40.3608C79.4681 42.3337 79.5915 45.9713 79.8383 49.2081C79.9617 50.8419 80.116 52.3524 80.2702 53.5238C80.3628 54.1095 80.4553 54.6027 80.5479 54.9726C80.6404 55.3425 80.733 55.5892 80.8872 55.7433C81.1648 55.9899 81.3808 56.1749 81.7201 56.2673C82.0286 56.3906 82.4605 56.4215 83.1392 56.4215C83.7561 56.4215 84.5891 56.3906 85.7613 56.3598C89.5558 56.2057 116.394 55.2809 118.029 55.2809C118.862 55.2809 119.603 55.1268 120.189 54.6952C120.744 54.2636 121.145 53.5546 121.269 52.4448C121.515 50.287 121.916 44.0908 121.916 40.3608H121.793V40.33Z" fill="black"/>
<path d="M93.319 25.7829V25.6904C89.6171 25.5671 86.6864 25.4438 85.6993 25.413C84.5887 25.3821 83.7249 25.3513 83.1388 25.3513C82.6761 25.3513 82.3984 25.3513 82.2133 25.413C81.9974 25.4438 81.874 25.5363 81.7197 25.6904L81.6889 25.7212V25.7521C81.5346 26.122 81.4113 26.9235 81.257 28.0024C80.856 31.27 80.5475 37.0038 80.5475 40.3639C80.5475 42.6142 80.6709 45.9127 80.8868 48.8104C80.9794 50.2592 81.1028 51.6156 81.257 52.7253C81.3804 53.8043 81.5346 54.6057 81.6889 54.9757V55.0065L81.7197 55.0373C81.874 55.1606 81.9974 55.2531 82.2133 55.3148C82.4293 55.3456 82.6761 55.3764 83.1388 55.3764C83.7558 55.3764 84.6195 55.3456 85.6993 55.3148C86.6864 55.2839 89.6171 55.1606 93.319 55.0373C93.9359 55.0065 94.4912 54.8215 94.8614 54.5133C95.2625 54.205 95.4784 53.7426 95.4784 53.2494V27.4784C95.4784 26.9543 95.2625 26.5227 94.8614 26.2145C94.4604 25.9062 93.9359 25.7212 93.319 25.6904V25.7829V25.8754C93.9051 25.9062 94.3987 26.0603 94.738 26.3378C95.0774 26.6152 95.2933 26.9851 95.2933 27.4475V53.1569C95.2933 53.6193 95.1082 53.9892 94.738 54.2667C94.3987 54.5441 93.9051 54.7291 93.319 54.7291C89.6171 54.8524 86.6864 54.9757 85.6993 55.0065C84.5887 55.0373 83.7249 55.0681 83.1388 55.0681C82.6761 55.0681 82.4293 55.0681 82.2442 55.0065C82.0899 54.9757 81.9974 54.914 81.8431 54.7907L81.7814 54.8832L81.874 54.8524C81.7506 54.5133 81.5964 53.7118 81.473 52.6328C81.0719 49.3961 80.7634 43.6623 80.7634 40.3022C80.7634 38.0827 80.8868 34.7843 81.1028 31.8557C81.1953 30.4069 81.3187 29.0505 81.4421 27.9716C81.5655 26.8926 81.7197 26.0912 81.8431 25.7521L81.7506 25.7212L81.8123 25.8137C81.9665 25.6904 82.0591 25.6288 82.2133 25.5979C82.3676 25.5671 82.6452 25.5363 83.1079 25.5363C83.6941 25.5363 84.5887 25.5671 85.6684 25.5979C86.6556 25.6288 89.5862 25.7521 93.2881 25.8754L93.319 25.7829Z" fill="black"/>
<path d="M120.098 28.3745H120.19C120.098 27.6963 119.944 27.2031 119.604 26.9257C119.265 26.6174 118.741 26.5249 118.031 26.5249C117.136 26.5249 109.239 26.2783 101.434 26.0009C101.403 26.0009 101.342 26.0009 101.311 26.0009C100.571 26.0009 100.077 26.2783 99.7993 26.6482C99.5217 27.0181 99.46 27.4805 99.46 27.8196V52.9125C99.46 53.2824 99.5217 53.714 99.7993 54.0839C100.077 54.4538 100.54 54.7312 101.311 54.7312C101.342 54.7312 101.373 54.7312 101.434 54.7312C109.239 54.4538 117.136 54.2072 118.031 54.2072C118.741 54.2072 119.234 54.1147 119.604 53.8064C119.944 53.4982 120.129 53.0358 120.19 52.3576C120.437 50.1689 120.807 44.0652 120.807 40.3969C120.807 36.7285 120.437 30.6248 120.19 28.4362L120.098 28.3745H120.005C120.252 30.5324 120.622 36.6669 120.622 40.3044C120.622 43.9419 120.252 50.0764 120.005 52.2343C119.944 52.9125 119.759 53.3132 119.481 53.5598C119.203 53.8064 118.741 53.9297 118.062 53.9297C117.167 53.9297 109.27 54.1764 101.465 54.4538C101.434 54.4538 101.403 54.4538 101.342 54.4538C100.632 54.4538 100.231 54.2072 100.015 53.8989C99.7685 53.5906 99.7068 53.1899 99.7068 52.8508V27.7888C99.7068 27.4497 99.7685 27.049 100.015 26.7407C100.262 26.4324 100.632 26.1858 101.342 26.1858H101.465C109.27 26.4633 117.167 26.7099 118.062 26.7099C118.771 26.7099 119.203 26.8332 119.481 27.0798C119.759 27.3264 119.944 27.758 120.005 28.4053L120.098 28.3745Z" fill="black"/>
<path d="M162.359 13.9757L162.452 13.9141C161.927 13.2359 160.755 12.681 159.213 12.2186H159.182L150.729 16.781L150.883 16.8734C150.883 16.8734 151.007 16.9351 151.192 17.0584C151.778 17.4283 153.074 18.3223 153.722 19.3704L153.752 19.432L163.902 16.6577L163.84 16.5343C163.285 15.3321 162.791 14.4073 162.39 13.8833L162.359 13.9757L162.267 14.0374C162.637 14.5306 163.131 15.4554 163.686 16.6268L163.778 16.596L163.748 16.5035L153.783 19.2163L153.814 19.3087L153.907 19.2471C152.981 17.7674 151.007 16.6885 150.976 16.6885L150.914 16.781L150.976 16.8734L159.213 12.4036L159.151 12.3111L159.12 12.4036C160.632 12.866 161.804 13.4209 162.236 14.0066L162.359 13.9757Z" fill="black"/>
<path d="M162.358 66.4146L162.266 66.353C161.803 66.9387 160.662 67.5244 159.15 67.956L159.181 68.0484L159.243 67.956L151.006 63.4861L150.944 63.5786L151.006 63.6711C151.006 63.6711 153.011 62.5613 153.937 61.1124L153.844 61.0508L153.813 61.1433L163.778 63.856L163.808 63.7635L163.716 63.7327C163.191 64.9041 162.667 65.8597 162.297 66.3221L162.358 66.4146L162.451 66.4763C162.852 65.9522 163.346 65.0274 163.901 63.8252L163.963 63.7019L153.813 60.9275L153.782 60.9891C153.351 61.6982 152.641 62.3147 152.024 62.7771C151.716 62.9929 151.438 63.1778 151.253 63.3011C151.16 63.3628 151.068 63.4244 151.006 63.4553C150.944 63.4861 150.914 63.5169 150.914 63.5169L150.759 63.6094L159.212 68.1717H159.243C160.754 67.7093 161.957 67.1545 162.482 66.4763L162.358 66.4146Z" fill="black"/>
<path d="M159.922 40.1773H159.86C159.86 48.6854 158.873 54.6658 158.04 57.1936L158.009 57.2552L163.87 58.2417C163.994 58.2725 164.117 58.3033 164.24 58.3033C164.765 58.3033 165.197 57.9642 165.382 57.3785C165.783 55.9297 166.153 54.4808 166.307 53.2478C166.863 49.302 167.14 43.5991 167.202 40.1773C167.14 36.7556 166.863 31.0526 166.307 27.1068C166.122 25.8429 165.783 24.4249 165.382 22.9761C165.228 22.3904 164.765 22.0513 164.24 22.0513C164.117 22.0513 163.994 22.0821 163.87 22.1129L158.009 23.0994L158.04 23.161C158.873 25.6888 159.86 31.6692 159.86 40.1773H159.922H159.983C159.983 31.6383 158.996 25.6888 158.163 23.1302L158.101 23.161V23.2227L163.932 22.2362C164.055 22.2054 164.179 22.1746 164.271 22.1746C164.765 22.1746 165.135 22.4828 165.289 23.0069C165.69 24.4557 166.06 25.8738 166.215 27.1377C166.77 31.0835 167.048 36.7864 167.109 40.2081C167.048 43.6299 166.77 49.302 166.215 53.2786C166.03 54.5425 165.69 55.9605 165.289 57.4094C165.135 57.9334 164.734 58.2417 164.271 58.2417C164.148 58.2417 164.024 58.2109 163.932 58.18L158.101 57.1936V57.2552L158.163 57.2861C158.996 54.7275 159.983 48.7779 159.983 40.239H159.922V40.1773Z" fill="black"/>
<path d="M159.923 40.1759H159.83C159.83 45.2315 159.491 49.3931 159.028 52.4449C158.812 53.9862 158.535 55.2501 158.288 56.2057C158.041 57.1614 157.794 57.8396 157.578 58.2095C157.146 58.9185 156.19 59.5967 155.357 60.1207C154.925 60.3673 154.555 60.5831 154.247 60.7372C153.969 60.8914 153.784 60.953 153.784 60.953H153.753L153.722 60.9839C153.29 61.6929 152.581 62.3094 151.964 62.7718C151.655 62.9876 151.378 63.1726 151.192 63.2959C151.1 63.3575 151.007 63.4192 150.946 63.45C150.884 63.4808 150.853 63.5116 150.853 63.5116L150.915 63.6041V63.5116C150.915 63.5116 150.668 63.5425 150.236 63.5733C148.755 63.7274 144.992 64.0665 141.475 64.4056C137.958 64.7139 134.627 65.0221 134.04 65.0221C134.04 65.0221 133.824 65.053 133.609 65.1455C133.485 65.2071 133.393 65.2379 133.3 65.3304C133.208 65.3921 133.146 65.5154 133.146 65.6387C133.146 65.762 133.208 65.8545 133.3 65.9778C133.393 66.0702 133.578 66.1936 133.794 66.3169C135.274 67.0567 139.871 69.3995 141.907 69.9544C142.709 70.1702 143.542 70.2627 144.498 70.2627C145.979 70.2627 147.83 70.0469 150.452 69.7694C152.612 69.5537 155.265 69.1529 157.578 68.6289C158.72 68.3514 159.768 68.0432 160.632 67.7041C161.496 67.3341 162.144 66.9642 162.483 66.5018C163.162 65.6387 164.149 63.5116 165.075 61.0455C166 58.5794 166.833 55.7433 167.172 53.4005C167.82 48.7457 168.098 43.3819 168.098 40.2067C168.098 37.0624 167.82 31.6986 167.172 27.013C166.833 24.6701 166 21.8341 165.075 19.368C164.149 16.9018 163.162 14.8056 162.483 13.9117C162.144 13.4493 161.496 13.0793 160.632 12.7094C158.072 11.6613 153.722 10.9523 150.483 10.6132C147.861 10.3358 146.041 10.12 144.529 10.12C143.573 10.12 142.74 10.2125 141.938 10.4283C139.902 10.9831 135.305 13.326 133.824 14.0658C133.609 14.1891 133.454 14.2816 133.331 14.4049C133.238 14.4974 133.177 14.6207 133.177 14.744C133.177 14.8673 133.238 14.9906 133.331 15.0522C133.609 15.268 134.071 15.3605 134.071 15.3605C134.75 15.3605 138.976 15.7304 143.017 16.1004C145.054 16.2853 147.028 16.4703 148.509 16.6244C149.989 16.7785 150.946 16.871 150.946 16.871V16.7785L150.884 16.871C150.884 16.871 151.007 16.9327 151.192 17.056C151.779 17.4259 153.074 18.3199 153.722 19.368L153.753 19.3988H153.784C153.784 19.3988 153.969 19.4913 154.247 19.6146C155.11 20.0462 156.93 21.0634 157.578 22.1115C157.794 22.4506 158.041 23.1288 158.288 24.1153C159.059 27.0438 159.83 32.5926 159.83 40.1759H159.923H160.015C160.015 35.1204 159.676 30.9588 159.213 27.8761C158.997 26.3348 158.72 25.0709 158.473 24.0844C158.226 23.098 157.979 22.4198 157.732 22.0191C157.27 21.2484 156.283 20.5702 155.45 20.0462C154.586 19.5221 153.845 19.2138 153.845 19.2138L153.815 19.3063L153.907 19.2447C152.982 17.765 151.007 16.6861 150.977 16.6861H150.946H150.915C150.915 16.6861 147.028 16.3161 142.987 15.9462C138.945 15.5763 134.719 15.2064 134.04 15.2064V15.2989L134.071 15.2064C134.071 15.2064 134.01 15.2064 133.948 15.1756C133.824 15.1447 133.67 15.0831 133.516 15.0214C133.454 14.9906 133.393 14.9289 133.362 14.8981C133.331 14.8673 133.3 14.8056 133.3 14.7748C133.3 14.744 133.331 14.6823 133.393 14.5899C133.485 14.4974 133.609 14.4049 133.824 14.2816C135.305 13.5417 139.902 11.1989 141.907 10.644C142.678 10.4283 143.48 10.3358 144.437 10.3358C145.917 10.3358 147.737 10.5516 150.36 10.7982C152.519 11.014 155.172 11.4147 157.455 11.9388C158.596 12.2162 159.645 12.5245 160.478 12.8636C161.311 13.2027 161.928 13.6034 162.236 14.0041C162.884 14.8365 163.871 16.9327 164.797 19.3988C165.722 21.8649 166.555 24.701 166.895 27.013C167.542 31.6678 167.82 37.0316 167.82 40.1759C167.82 43.3202 167.542 48.6841 166.895 53.3389C166.555 55.6509 165.722 58.4869 164.797 60.953C163.871 63.4192 162.884 65.5154 162.236 66.3477C161.928 66.7484 161.311 67.1492 160.478 67.4883C157.979 68.5364 153.63 69.2454 150.39 69.5537C147.768 69.8311 145.948 70.0161 144.467 70.0161C143.511 70.0161 142.709 69.9236 141.938 69.7078C139.933 69.1529 135.336 66.8409 133.855 66.0702C133.639 65.9469 133.485 65.8545 133.423 65.762C133.331 65.6695 133.331 65.6078 133.331 65.577C133.331 65.5154 133.362 65.4845 133.423 65.4229C133.516 65.3304 133.701 65.2688 133.824 65.2071C133.886 65.1763 133.948 65.1763 134.01 65.1455C134.04 65.1455 134.071 65.1146 134.071 65.1146L134.04 65.0221V65.1146C134.75 65.1146 138.945 64.7447 142.987 64.3748C147.028 64.0049 150.915 63.635 150.915 63.635H150.946H150.977C150.977 63.635 152.982 62.5252 153.907 61.0763L153.815 61.0147L153.845 61.1072C153.845 61.1072 154.586 60.7681 155.45 60.2749C156.313 59.7508 157.27 59.0726 157.732 58.302C157.979 57.9012 158.226 57.223 158.473 56.2366C159.244 53.308 160.015 47.7284 160.015 40.1451H159.923V40.1759Z" fill="black"/>
<path d="M55.4372 69.9283V70.0208H59.7252L60.1879 71.223H60.2496C60.373 71.223 60.5273 71.223 60.6507 71.223H60.7124L61.2985 70.2674L61.206 70.2057V70.2982C61.206 70.2982 62.3474 70.2982 64.3526 70.2674H64.4451V68.202L76.8464 65.4276H75.8901C75.7975 65.4276 75.705 65.4276 75.6124 65.4276C74.7795 65.4276 73.9774 65.3968 73.2371 65.1502C72.4967 64.9035 71.7872 64.472 71.1702 63.6397L71.1393 63.578L45.1028 68.387L45.1953 68.5103C45.473 68.9418 45.8123 69.3118 46.2442 69.6508L49.3599 70.8223C50.8715 71.038 53.2469 71.1613 55.9925 71.1922H56.1467L56.085 71.038C55.7457 70.3599 55.5297 69.8666 55.5297 69.8666L55.4372 69.9283L55.3446 69.9591C55.3446 69.9591 55.5606 70.4523 55.8999 71.1305L55.9925 71.0997V71.0072C53.2469 70.9764 50.8715 70.8531 49.3908 70.6373V70.7298L49.4216 70.6373L46.3367 69.4967L46.3059 69.5892L46.3676 69.4967C45.9666 69.1884 45.6581 68.8185 45.3804 68.4178L45.2879 68.4794L45.3187 68.5719L71.1393 63.8554L71.1085 63.763L71.0159 63.8246C71.6638 64.6878 72.4041 65.181 73.2062 65.4276C74.0083 65.6742 74.8104 65.705 75.6433 65.705C75.7358 65.705 75.8284 65.705 75.9209 65.705V65.6126L75.8901 65.5201L64.26 68.1095V70.2365H64.3526V70.1441C63.3654 70.1441 62.5633 70.1749 62.0389 70.1749C61.5144 70.1749 61.206 70.1749 61.206 70.1749H61.1443L60.5581 71.1305L60.6507 71.1922V71.0997C60.5273 71.0997 60.373 71.0997 60.2496 71.0997V71.1922L60.3422 71.1613L59.8486 69.8975H55.2521L55.3138 70.0516L55.4372 69.9283Z" fill="black"/>
<path d="M55.4369 69.9252V70.0177H59.7249L60.5887 72.2372H61.4216L64.2906 79.7281L64.3831 79.6973V79.6048C64.3831 79.6048 64.2906 79.6048 64.1363 79.6048C63.6427 79.574 62.5322 79.5123 61.6684 79.1732C61.1131 78.9574 60.5578 78.3717 60.0026 77.6627C59.4473 76.9229 58.9228 76.0906 58.3984 75.3199C57.9048 74.5801 57.1644 73.2237 56.5783 72.0523C56.3007 71.4666 56.023 70.9425 55.8379 70.5418C55.6528 70.141 55.5294 69.8944 55.5294 69.8944L55.4369 69.9252L55.3444 69.9561C55.3444 69.9561 57.1644 73.871 58.2133 75.4124C58.7377 76.1522 59.2622 77.0154 59.8175 77.7552C60.3727 78.495 60.9589 79.1116 61.5759 79.3582C62.8098 79.8206 64.3831 79.8206 64.3831 79.8206H64.5374L61.5759 72.0523H60.7429L59.8792 69.8328H55.2827L55.3444 69.9869L55.4369 69.9252Z" fill="black"/>
<path d="M122.44 66.5041L122.471 66.4733C120.805 65.5793 119.478 65.4868 118.892 65.4868C118.707 65.4868 118.584 65.4868 118.584 65.4868L118.152 65.5485L118.584 65.6101C118.8 65.641 118.985 65.6718 119.108 65.7026C120.867 66.1034 123.674 67.8605 125.463 69.0935L125.494 69.0627L125.463 69.0319C125.093 69.2168 124.383 69.3402 123.581 69.4018C122.748 69.4635 121.823 69.4943 120.99 69.5559C119.941 69.6176 105.01 69.7717 90.3261 69.9259C82.9841 69.9875 75.7037 70.08 70.2743 70.1416C67.5596 70.1725 65.3076 70.2033 63.7035 70.2033C62.1302 70.2033 61.2355 70.2341 61.2355 70.2341H61.2047L60.6186 71.1589L60.6494 71.1897V71.1281C60.526 71.1281 60.3718 71.1281 60.2484 71.1281H60.1558L60.5877 72.2687H61.4206L61.6674 72.8852H61.6983C80.8246 72.8544 122.656 72.8236 125.309 72.8236C126.728 72.8236 127.715 72.7002 128.363 72.4845C128.671 72.392 128.918 72.2687 129.072 72.1145C129.227 71.9912 129.319 71.8371 129.319 71.683C129.319 71.5597 129.258 71.4364 129.165 71.3131C128.918 71.0048 127.777 70.1108 126.45 69.1244C125.124 68.1379 123.581 67.1206 122.471 66.5041H122.44L122.409 66.5349C123.52 67.1206 125.062 68.1687 126.389 69.1244C127.715 70.08 128.826 71.0048 129.072 71.2822C129.165 71.3747 129.196 71.4672 129.196 71.5597C129.196 71.683 129.134 71.8063 129.011 71.9296C128.579 72.2995 127.437 72.6078 125.309 72.6078C122.687 72.6078 80.8555 72.6386 61.6983 72.6694V72.7311L61.76 72.7002L61.5132 72.0529H60.6803L60.3101 71.0356L60.2484 71.0664V71.1281C60.3718 71.1281 60.526 71.1281 60.6494 71.1281H60.6803L61.2664 70.2033L61.2355 70.1725V70.2341C61.2355 70.2341 118.923 69.6792 121.021 69.5559C121.854 69.4943 122.779 69.4635 123.612 69.4018C124.445 69.3402 125.155 69.2168 125.525 69.0319L125.587 69.0011L125.525 68.9394C123.736 67.7063 120.928 65.9492 119.139 65.5177C119.016 65.4868 118.831 65.456 118.615 65.4252V65.4868V65.5485C118.615 65.5485 118.707 65.5485 118.923 65.5485C119.478 65.5485 120.805 65.6718 122.471 66.5349L122.44 66.5041Z" fill="black"/>
<path d="M55.9918 71.1267V71.0342H52.6601L52.3516 72.7605L51.457 74.5484L51.6421 74.5176C52.0122 74.4559 52.1973 74.4251 52.1973 74.4251L52.1665 74.3326V74.4251L57.781 74.4559L57.6885 74.3018C57.1332 73.2845 56.4854 72.0206 56.0226 71.0958L55.9918 71.0342H55.9301V71.1267L55.8375 71.1575C56.3003 72.0823 56.9172 73.377 57.5034 74.3634L57.5959 74.3018V74.2093L52.1356 74.1785C52.1356 74.1785 51.9197 74.2093 51.5804 74.271L51.6112 74.3634L51.7038 74.3943L52.5058 72.7605L52.7835 71.1883H55.9301L55.9918 71.1267Z" fill="black"/>
<path d="M132.867 72.3587L132.96 72.3279C132.867 71.958 132.497 71.5572 131.973 71.064C130.4 69.646 127.346 67.7964 125.772 66.9641C124.723 66.4092 122.965 65.7926 121.299 65.3302C119.633 64.8678 118.06 64.4979 117.381 64.4979C117.32 64.4979 117.227 64.4979 117.042 64.4979C113.309 64.4979 81.9975 64.8987 79.036 64.8987H78.9434H78.8817C76.4138 64.8987 75.8585 65.4227 75.8277 65.4536L75.8894 65.5152L75.8585 65.4227L72.1566 66.255L64.2285 68.0122L64.2902 70.0467L61.1127 70.0775L60.5574 70.9715H60.2181H60.0638L60.5266 72.2046H61.3595L62.1924 74.4241L115.777 74.7015C115.777 74.7015 120.836 75.1948 126.451 75.2564C126.852 75.2564 127.346 75.2564 127.87 75.2564C129.289 75.2564 131.078 75.2256 133.022 75.1948H133.114V75.1023C133.114 74.8865 133.145 74.6399 133.145 74.3933C133.145 73.6534 133.083 72.8828 132.929 72.2971L132.867 72.3587L132.775 72.3895C132.898 72.9444 132.96 73.7151 132.96 74.4549C132.96 74.7015 132.96 74.9481 132.929 75.1639H133.022V75.0714C131.047 75.1023 129.289 75.1331 127.87 75.1331C127.346 75.1331 126.883 75.1331 126.482 75.1331C123.674 75.1023 121.021 74.9481 119.047 74.8248C118.06 74.7632 117.258 74.7015 116.703 74.6399C116.147 74.5782 115.839 74.5474 115.839 74.5474L62.4084 74.27L61.5754 72.0504H60.7425L60.434 71.2181H60.6808H60.7425L61.2978 70.3242L64.5678 70.2933L64.5061 68.2279L72.28 66.5017L76.0128 65.6693L76.0436 65.6385C76.0436 65.6385 76.5989 65.1453 78.9743 65.1453H79.036H79.1285C82.09 65.1453 113.402 64.7445 117.134 64.7445C117.289 64.7445 117.412 64.7445 117.443 64.7445C118.091 64.7754 119.664 65.1145 121.33 65.5769C122.996 66.0393 124.723 66.6558 125.772 67.2107C126.821 67.7655 128.518 68.752 129.999 69.7693C130.739 70.2933 131.418 70.7866 131.942 71.249C132.466 71.7113 132.806 72.1429 132.867 72.3895V72.3587Z" fill="black"/>
<path d="M51.55 70.9453V70.8836C49.0203 70.8836 42.141 70.822 36.1563 70.5445C28.66 70.2054 20.7935 69.6197 18.2947 69.219C15.796 68.8182 12.526 66.907 10.9218 64.6566C9.87297 63.2078 9.25599 62.1597 9.25599 61.5432C9.25599 61.2349 9.41024 61.0191 9.78043 60.9266C9.87297 60.8958 10.0581 60.865 10.3049 60.865C12.2792 60.865 18.2331 61.9747 22.6753 62.3138C26.9633 62.6221 38.8093 63.0845 41.9868 63.2078H42.0793L42.0485 63.1461C41.74 62.4063 41.4623 61.574 41.2464 60.68C39.889 55.347 39.7348 47.0855 39.7348 39.6871C39.7348 32.3196 40.1975 21.8077 42.0793 17.6153L42.1102 17.5536H42.0176C38.8402 17.6769 26.9633 18.1393 22.6753 18.4476C18.2331 18.7867 12.2792 19.8964 10.3049 19.8964C10.0581 19.8964 9.90382 19.8656 9.78043 19.8348C9.41024 19.7115 9.25599 19.5265 9.25599 19.2183C9.25599 18.6017 9.87297 17.5536 10.9218 16.1048C12.4951 13.8853 15.796 11.9432 18.2947 11.5424C20.7935 11.1417 28.66 10.5868 36.1563 10.2169C42.141 9.93946 49.0203 9.87781 51.55 9.87781C52.8148 9.78533 54.3572 9.7545 55.9922 9.72368H56.0231V9.69285C56.2699 9.19962 56.5475 8.61392 56.856 8.02821L56.8868 7.96656H56.7943C55.3752 7.96656 54.2338 7.96656 53.4318 7.96656C52.6605 7.96656 52.2286 7.96656 52.2286 7.96656C52.2286 7.96656 38.5625 8.18235 36.0021 8.30565C34.7373 8.36731 30.696 8.61392 26.8091 8.89136C22.9221 9.1688 19.1894 9.44624 18.5107 9.60037C17.1842 9.90864 12.2175 11.3575 9.99637 14.4093C7.80609 17.4611 5.43072 21.6227 4.84459 28.5587C4.32016 34.6316 4.28931 37.2518 4.28931 39.4713C4.28931 39.7796 4.28931 40.0879 4.28931 40.3961C4.28931 40.7044 4.28931 41.0127 4.28931 41.3209C4.28931 43.5404 4.32016 46.1607 4.84459 52.2335C5.43072 59.1387 7.80609 63.3311 9.99637 66.3829C12.1866 69.4348 17.1842 70.8836 18.5107 71.1919C19.1894 71.346 22.9221 71.6235 26.8091 71.9009C30.696 72.1783 34.7373 72.4249 36.0021 72.4866C38.5317 72.6407 52.2286 72.8257 52.2286 72.8257C52.2286 72.8257 53.9253 72.8257 56.7943 72.8257H56.8868L56.856 72.764C56.5475 72.1783 56.2699 71.5926 56.0231 71.0994V71.0686H55.9922C54.3572 71.0377 52.8148 71.0069 51.55 70.9144V70.9453V71.0069C52.8148 71.0994 54.3572 71.1302 55.9922 71.1611V71.0994L55.9305 71.1302C56.1773 71.6235 56.455 72.2092 56.7634 72.7949L56.7943 72.764V72.7024C55.3752 72.7024 54.2338 72.7024 53.4318 72.7024C52.6605 72.7024 52.2286 72.7024 52.2286 72.7024C52.2286 72.7024 51.3649 72.7024 50.0384 72.6716C46.0588 72.6099 37.9147 72.4558 36.0021 72.3633C34.7373 72.3016 30.696 72.055 26.8091 71.7776C22.9221 71.5001 19.1894 71.2227 18.5415 71.0686C17.215 70.7603 12.2483 69.3115 10.0889 66.2905C7.89864 63.2386 5.52327 59.1079 4.93714 52.2027C4.4127 46.1299 4.38185 43.5096 4.38185 41.2901C4.38185 40.9818 4.38185 40.6736 4.38185 40.3653C4.38185 40.057 4.38185 39.7488 4.38185 39.4405C4.38185 37.221 4.4127 34.6007 4.93714 28.5279C5.52327 21.6227 7.89864 17.492 10.0889 14.4401C12.2483 11.4191 17.215 9.97029 18.5415 9.66202C19.1894 9.50789 22.9221 9.23045 26.8091 8.95301C30.696 8.67557 34.7373 8.42896 36.0021 8.36731C37.2669 8.30565 41.3389 8.21317 45.0717 8.12069C46.9535 8.08987 48.7427 8.05904 50.0384 8.02821C51.3649 7.99739 52.1978 7.99739 52.2286 7.99739C52.2286 7.99739 53.9253 7.99739 56.7943 7.99739V7.93573L56.7634 7.90491C56.455 8.49061 56.1773 9.07632 55.9305 9.56954L55.9614 9.60037V9.53872C54.3264 9.56954 52.7839 9.60037 51.5191 9.69285C48.9895 9.69285 42.1102 9.7545 36.1255 10.0319C28.6292 10.371 20.7627 10.9567 18.2639 11.3575C15.7343 11.7582 12.4334 13.7003 10.8293 15.9506C9.78043 17.4303 9.16345 18.4476 9.16345 19.1258C9.16345 19.4957 9.34854 19.7423 9.74958 19.8656C9.87297 19.8964 10.0581 19.9273 10.3049 19.9273C12.31 19.9273 18.2639 18.8175 22.6753 18.4784C26.9633 18.1702 38.8402 17.7078 41.9868 17.5845V17.5228L41.9251 17.492C40.0433 21.7152 39.5806 32.1963 39.5806 39.5946C39.5806 46.9622 39.7348 55.2545 41.123 60.5875C41.3698 61.5123 41.6474 62.3447 41.9251 63.0845L41.9868 63.0537V62.992C38.8093 62.8687 26.9325 62.4063 22.6753 62.098C18.2639 61.7589 12.31 60.6492 10.3049 60.6492C10.0581 60.6492 9.87297 60.68 9.74958 60.7108C9.34854 60.8342 9.16345 61.0808 9.16345 61.4507C9.16345 62.1289 9.78043 63.1461 10.8293 64.6258C12.4334 66.8762 15.7343 68.8182 18.2639 69.219C20.7627 69.6197 28.6292 70.1746 36.1255 70.5445C42.1102 70.822 48.9895 70.8836 51.5191 70.8836V70.9453H51.55Z" fill="black"/>
<path d="M125.31 8.05824V7.99659C122.688 7.99659 80.8565 7.96576 61.7301 7.93494H61.6993L61.4525 8.55147H60.6196L60.1877 9.69205H60.2494C60.3728 9.69205 60.4962 9.69205 60.6504 9.69205V9.6304L60.6196 9.66123L61.2057 10.586H61.2365C61.2365 10.586 62.1312 10.586 63.7045 10.6168C74.7793 10.7093 119.171 11.1717 120.991 11.2642C121.824 11.3259 122.749 11.3567 123.582 11.4183C124.384 11.48 125.094 11.6033 125.464 11.7883L125.495 11.7574L125.464 11.7266C123.675 12.9597 120.868 14.7168 119.109 15.1175C118.986 15.1484 118.801 15.1792 118.585 15.21L118.215 15.2408L118.585 15.3025C118.585 15.3025 118.708 15.3025 118.893 15.3025C119.479 15.3025 120.806 15.1792 122.472 14.316C123.582 13.7303 125.125 12.6822 126.451 11.6958C127.778 10.7093 128.888 9.81536 129.166 9.50709C129.259 9.38379 129.32 9.26048 129.32 9.13717C129.32 8.98304 129.228 8.82891 129.073 8.7056C128.611 8.30486 127.469 7.99659 125.31 7.99659V8.05824V8.1199C126.729 8.1199 127.716 8.2432 128.333 8.45899C128.642 8.55147 128.858 8.67477 129.012 8.79808C129.166 8.92139 129.197 9.04469 129.197 9.168C129.197 9.26048 129.166 9.35296 129.073 9.44544C128.827 9.7537 127.716 10.6477 126.39 11.6033C125.063 12.5589 123.521 13.607 122.41 14.1927C120.775 15.0559 119.449 15.1792 118.862 15.1792C118.77 15.1792 118.677 15.1792 118.647 15.1792H118.585V15.2408V15.3025C118.801 15.2717 118.986 15.2408 119.109 15.21C120.898 14.8093 123.706 13.0213 125.495 11.7883L125.557 11.7266L125.495 11.6958C125.094 11.48 124.384 11.3875 123.582 11.3259C122.749 11.2642 121.824 11.2334 120.991 11.1717C118.893 11.0484 61.2057 10.4935 61.2057 10.4935V10.5552L61.2365 10.5244L60.6504 9.59957H60.6196C60.4962 9.59957 60.3728 9.59957 60.2185 9.59957V9.66123L60.2802 9.69205L60.6504 8.7056H61.4833L61.7301 8.05824L61.6684 8.02742V8.08907C80.7948 8.1199 122.626 8.15072 125.248 8.15072V8.05824H125.31Z" fill="black"/>
<path d="M57.6587 6.45303V6.36055L52.1984 6.39137V6.48385L52.2293 6.39137C52.2293 6.39137 52.0133 6.36055 51.674 6.29889L51.4889 6.26807L52.3835 8.05601L52.692 9.7823H56.0854L56.1162 9.72064C56.579 8.79585 57.196 7.53196 57.7821 6.51468L57.8746 6.36055H57.6895L57.6587 6.45303L57.5661 6.39137C56.98 7.40865 56.363 8.67254 55.9003 9.59734L55.9928 9.62816V9.53568H52.8463L52.5686 7.96353L51.7665 6.32972L51.674 6.36055L51.6431 6.45303C52.0133 6.51468 52.1984 6.54551 52.1984 6.54551L57.6587 6.51468V6.45303Z" fill="black"/>
<path d="M133.052 5.62252V5.53004C131.077 5.49921 129.319 5.46838 127.9 5.46838C127.376 5.46838 126.913 5.46838 126.481 5.46838C120.866 5.53004 115.807 6.02326 115.807 6.02326L62.2225 6.3007L61.3895 8.52022H60.5566L60.0939 9.75328H60.5875L61.1427 10.6473L64.3202 10.6781L64.2585 12.7126L72.1867 14.4697L75.8886 15.3021L75.9194 15.2096L75.8577 15.2712C75.8886 15.3021 76.4438 15.8261 78.9118 15.8261H78.9735H79.066C82.0275 15.8261 113.339 16.2269 117.072 16.2269C117.226 16.2269 117.35 16.2269 117.411 16.2269C118.121 16.196 119.694 15.8569 121.329 15.3945C122.995 14.9321 124.722 14.3156 125.802 13.7607C126.851 13.2059 128.548 12.1886 130.059 11.1713C130.8 10.6473 131.509 10.154 132.034 9.6608C132.558 9.1984 132.928 8.76683 133.021 8.39691C133.175 7.8112 133.237 7.04054 133.237 6.3007C133.237 6.05409 133.237 5.80748 133.206 5.59169V5.49921H133.113L133.052 5.62252H132.959C132.959 5.8383 132.99 6.08492 132.99 6.33153C132.99 7.04054 132.928 7.8112 132.805 8.39691C132.743 8.67435 132.404 9.07509 131.879 9.53749C130.337 10.9247 127.283 12.7743 125.71 13.6066C124.692 14.1615 122.933 14.7472 121.267 15.2404C119.602 15.7028 118.059 16.0419 117.38 16.0727C117.319 16.0727 117.226 16.0727 117.072 16.0727C113.339 16.0727 82.0275 15.672 79.066 15.672H78.9735H78.9118C77.6778 15.672 76.9683 15.5487 76.5364 15.4254C76.3204 15.3637 76.197 15.3021 76.1045 15.2404C76.0736 15.2096 76.0428 15.2096 76.0119 15.1788H75.9811L75.9503 15.1479L72.2175 14.3156L64.4436 12.5893L64.5053 10.5239L61.2353 10.4931L60.68 9.59915H60.3715L60.68 8.76683H61.5129L62.3458 6.54731L115.776 6.26988C115.776 6.26988 116.085 6.23905 116.64 6.1774C118.306 6.02326 122.224 5.74582 126.419 5.68417C126.82 5.68417 127.314 5.68417 127.838 5.68417C129.257 5.68417 131.016 5.715 132.99 5.74582L133.052 5.62252Z" fill="black"/>
<path d="M171.83 23.0674H171.922C171.151 17.4569 168.251 14.8983 168.22 14.8983L168.159 14.9908L168.251 14.9292C167.079 12.6172 164.734 10.6443 162.051 9.13376C159.367 7.62326 156.313 6.63681 153.66 6.35937C148.785 5.83532 134.441 5.4654 127.87 5.4654C127.345 5.4654 126.883 5.4654 126.451 5.4654C120.836 5.52705 115.777 6.02028 115.777 6.02028L62.1923 6.29771L61.3594 8.51723H60.5265L59.6627 10.7367H55.3747V10.8292L55.4672 10.86C55.4672 10.86 55.5289 10.7059 55.6832 10.4285C56.0842 9.59616 56.948 7.77739 57.7192 6.45185L57.8118 6.29771L52.1972 6.32854V6.42102L52.2281 6.32854C52.2281 6.32854 46.9221 5.43457 41.431 5.43457C41.0916 5.43457 40.7523 5.43457 40.4438 5.43457C34.6442 5.55788 25.3895 5.9278 21.41 6.32854C17.3996 6.72929 11.7542 8.4864 9.00866 11.5074L9.07036 11.5691L9.00866 11.4766C9.00866 11.4766 5.46103 13.8194 4.16537 16.3164C2.90056 18.8441 0.185852 25.2252 0.185852 40.3919C0.185852 55.5586 2.90056 61.9397 4.16537 64.4058C5.46103 66.9028 9.00866 69.2456 9.00866 69.2456L9.07036 69.1531L9.00866 69.2148C11.7542 72.2358 17.4304 73.9929 21.41 74.3936C25.3895 74.7944 34.6442 75.1643 40.4438 75.2876C40.7831 75.2876 41.1225 75.2876 41.431 75.2876C46.9221 75.2876 52.2281 74.3936 52.2281 74.3936L52.1972 74.3012V74.3936L57.8118 74.4245L57.7192 74.2703C57.2256 73.3764 56.6704 72.2974 56.2385 71.4035C56.0225 70.9719 55.8374 70.5711 55.714 70.2937C55.5906 70.0163 55.4981 69.8621 55.4981 69.8621L55.4055 69.893V69.9854H59.6936L60.5573 72.2049H61.3903L62.2232 74.3936L115.808 74.6711C115.808 74.6711 120.867 75.1643 126.482 75.226C126.914 75.226 127.376 75.226 127.901 75.226C134.472 75.226 148.816 74.856 153.69 74.332C156.313 74.0545 159.367 73.0373 162.081 71.5576C164.765 70.0471 167.11 68.0742 168.282 65.7622L168.189 65.7005L168.251 65.793C168.251 65.793 171.182 63.2344 171.953 57.624C172.724 52.0444 173.033 44.461 173.033 40.2994C173.033 36.1378 172.724 28.5545 171.953 22.9749L171.83 23.0674H171.737C172.508 28.6162 172.817 36.2303 172.817 40.3611C172.817 44.4919 172.508 52.0752 171.737 57.6548C171.367 60.4292 170.441 62.4329 169.639 63.7585C169.238 64.4058 168.837 64.899 168.56 65.2381C168.405 65.3923 168.313 65.5156 168.22 65.6081C168.189 65.6389 168.159 65.6697 168.128 65.7005L168.097 65.7314V65.7622C166.956 68.0125 164.642 69.9854 161.958 71.4651C159.274 72.9448 156.251 73.9312 153.66 74.2087C148.816 74.7327 134.441 75.1026 127.901 75.1026C127.376 75.1026 126.914 75.1026 126.482 75.1026C123.674 75.0718 121.021 74.9177 119.047 74.7944C118.06 74.7327 117.258 74.6711 116.702 74.6094C116.147 74.5478 115.839 74.5169 115.839 74.5169L62.3774 74.2395L61.5445 72.0508H60.7116L59.8478 69.8313H55.2513L55.313 69.9854C55.313 69.9854 56.547 72.6057 57.5341 74.3936L57.6267 74.332V74.2395L52.1664 74.2087C52.1664 74.2087 51.8271 74.2703 51.2409 74.332C49.4825 74.5786 45.503 75.0718 41.4001 75.0718C41.0608 75.0718 40.7523 75.0718 40.4129 75.0718C34.6133 74.9485 25.3586 74.5786 21.3791 74.1779C17.4304 73.7771 11.7851 72.02 9.10121 69.0915C9.10121 69.0915 9.03951 69.0606 8.94697 68.999C8.26829 68.5366 5.43018 66.4712 4.31962 64.3442C3.05481 61.9089 0.340097 55.5586 0.340097 40.4227C0.401795 25.2252 3.08566 18.9058 4.35047 16.4397C4.96745 15.2374 6.17056 14.0352 7.21942 13.1412C7.74385 12.7096 8.20659 12.3397 8.57678 12.0623C8.76187 11.939 8.88527 11.8465 8.97781 11.754C9.07036 11.6924 9.13206 11.6615 9.13206 11.6615C11.8159 8.73301 17.4304 6.94507 21.41 6.57515C25.3895 6.17441 34.6442 5.80449 40.4438 5.68118C40.7831 5.68118 41.1225 5.68118 41.431 5.68118C44.1765 5.68118 46.8604 5.89697 48.8656 6.11276C49.8836 6.23606 50.6856 6.32854 51.2718 6.42102C51.8579 6.5135 52.1664 6.54433 52.1972 6.57515L57.6575 6.54433V6.45185L57.565 6.39019C56.547 8.17814 55.313 10.8292 55.313 10.8292L55.2513 10.9834H59.8478L60.7116 8.76384H61.5445L62.3774 6.54433L115.808 6.26689C115.808 6.26689 116.116 6.23606 116.672 6.17441C118.337 6.02028 122.255 5.74284 126.451 5.68118C126.852 5.68118 127.345 5.68118 127.87 5.68118C134.41 5.68118 148.816 6.0511 153.629 6.57515C156.22 6.85259 159.274 7.83904 161.927 9.31872C164.611 10.7984 166.894 12.7713 168.066 15.0216V15.0525L168.097 15.0833C168.405 15.3607 170.997 17.9193 171.706 23.0982L171.83 23.0674Z" fill="black"/>
<path d="M171.83 23.0674H171.922C171.151 17.4569 168.251 14.8983 168.22 14.8983L168.159 14.9908L168.251 14.9292C167.079 12.6172 164.734 10.6443 162.051 9.13376C159.367 7.62326 156.313 6.63681 153.66 6.35937C148.785 5.83532 134.441 5.4654 127.87 5.4654C127.345 5.4654 126.883 5.4654 126.451 5.4654C120.836 5.52705 115.777 6.02028 115.777 6.02028L62.1923 6.29771L61.3594 8.51723H60.5265L59.6627 10.7367H55.3747V10.8292L55.4672 10.86C55.4672 10.86 55.5289 10.7059 55.6832 10.4285C56.0842 9.59616 56.948 7.77739 57.7192 6.45185L57.8118 6.29771L52.1972 6.32854V6.42102L52.2281 6.32854C52.2281 6.32854 46.9221 5.43457 41.431 5.43457C41.0916 5.43457 40.7523 5.43457 40.4438 5.43457C34.6442 5.55788 25.3895 5.9278 21.41 6.32854C17.3996 6.72929 11.7542 8.4864 9.00866 11.5074L9.07036 11.5691L9.00866 11.4766C9.00866 11.4766 5.46103 13.8194 4.16537 16.3164C2.90056 18.8441 0.185852 25.2252 0.185852 40.3919C0.185852 55.5586 2.90056 61.9397 4.16537 64.4058C5.46103 66.9028 9.00866 69.2456 9.00866 69.2456L9.07036 69.1531L9.00866 69.2148C11.7542 72.2358 17.4304 73.9929 21.41 74.3936C25.3895 74.7944 34.6442 75.1643 40.4438 75.2876C40.7831 75.2876 41.1225 75.2876 41.431 75.2876C46.9221 75.2876 52.2281 74.3936 52.2281 74.3936L52.1972 74.3012V74.3936L57.8118 74.4245L57.7192 74.2703C57.2256 73.3764 56.6704 72.2974 56.2385 71.4035C56.0225 70.9719 55.8374 70.5711 55.714 70.2937C55.5906 70.0163 55.4981 69.8621 55.4981 69.8621L55.4055 69.893V69.9854H59.6936L60.5573 72.2049H61.3903L62.2232 74.3936L115.808 74.6711C115.808 74.6711 120.867 75.1643 126.482 75.226C126.914 75.226 127.376 75.226 127.901 75.226C134.472 75.226 148.816 74.856 153.69 74.332C156.313 74.0545 159.367 73.0373 162.081 71.5576C164.765 70.0471 167.11 68.0742 168.282 65.7622L168.189 65.7005L168.251 65.793C168.251 65.793 171.182 63.2344 171.953 57.624C172.724 52.0444 173.033 44.461 173.033 40.2994C173.033 36.1378 172.724 28.5545 171.953 22.9749L171.83 23.0674H171.737C172.508 28.6162 172.817 36.2303 172.817 40.3611C172.817 44.4919 172.508 52.0752 171.737 57.6548C171.367 60.4292 170.441 62.4329 169.639 63.7585C169.238 64.4058 168.837 64.899 168.56 65.2381C168.405 65.3923 168.313 65.5156 168.22 65.6081C168.189 65.6389 168.159 65.6697 168.128 65.7005L168.097 65.7314V65.7622C166.956 68.0125 164.642 69.9854 161.958 71.4651C159.274 72.9448 156.251 73.9312 153.66 74.2087C148.816 74.7327 134.441 75.1026 127.901 75.1026C127.376 75.1026 126.914 75.1026 126.482 75.1026C123.674 75.0718 121.021 74.9177 119.047 74.7944C118.06 74.7327 117.258 74.6711 116.702 74.6094C116.147 74.5478 115.839 74.5169 115.839 74.5169L62.3774 74.2395L61.5445 72.0508H60.7116L59.8478 69.8313H55.2513L55.313 69.9854C55.313 69.9854 56.547 72.6057 57.5341 74.3936L57.6267 74.332V74.2395L52.1664 74.2087C52.1664 74.2087 51.8271 74.2703 51.2409 74.332C49.4825 74.5786 45.503 75.0718 41.4001 75.0718C41.0608 75.0718 40.7523 75.0718 40.4129 75.0718C34.6133 74.9485 25.3586 74.5786 21.3791 74.1779C17.4304 73.7771 11.7851 72.02 9.10121 69.0915C9.10121 69.0915 9.03951 69.0606 8.94697 68.999C8.26829 68.5366 5.43018 66.4712 4.31962 64.3442C3.05481 61.9089 0.340097 55.5586 0.340097 40.4227C0.401795 25.2252 3.08566 18.9058 4.35047 16.4397C4.96745 15.2374 6.17056 14.0352 7.21942 13.1412C7.74385 12.7096 8.20659 12.3397 8.57678 12.0623C8.76187 11.939 8.88527 11.8465 8.97781 11.754C9.07036 11.6924 9.13206 11.6615 9.13206 11.6615C11.8159 8.73301 17.4304 6.94507 21.41 6.57515C25.3895 6.17441 34.6442 5.80449 40.4438 5.68118C40.7831 5.68118 41.1225 5.68118 41.431 5.68118C44.1765 5.68118 46.8604 5.89697 48.8656 6.11276C49.8836 6.23606 50.6856 6.32854 51.2718 6.42102C51.8579 6.5135 52.1664 6.54433 52.1972 6.57515L57.6575 6.54433V6.45185L57.565 6.39019C56.547 8.17814 55.313 10.8292 55.313 10.8292L55.2513 10.9834H59.8478L60.7116 8.76384H61.5445L62.3774 6.54433L115.808 6.26689C115.808 6.26689 116.116 6.23606 116.672 6.17441C118.337 6.02028 122.255 5.74284 126.451 5.68118C126.852 5.68118 127.345 5.68118 127.87 5.68118C134.41 5.68118 148.816 6.0511 153.629 6.57515C156.22 6.85259 159.274 7.83904 161.927 9.31872C164.611 10.7984 166.894 12.7713 168.066 15.0216V15.0525L168.097 15.0833C168.405 15.3607 170.997 17.9193 171.706 23.0982L171.83 23.0674Z" fill="black"/>
<path d="M55.4358 10.8585V10.9509H59.8472L60.711 8.73143H61.5439L64.5054 0.963135H64.3512C64.3512 0.963135 62.7779 0.963135 61.5439 1.42553C60.8961 1.67215 60.3408 2.28868 59.7855 3.02852C59.2303 3.76835 58.7058 4.6315 58.1814 5.37134C57.1325 6.88184 55.3124 10.8276 55.3124 10.8276L55.2507 10.9818H55.405V10.8585L55.4975 10.8893C55.4975 10.8893 55.6209 10.6427 55.806 10.2419C56.3613 9.07053 57.5953 6.57357 58.3665 5.46382C58.8909 4.72398 59.4153 3.86083 59.9706 3.121C60.5259 2.38116 61.0812 1.79545 61.6365 1.61049C62.2226 1.39471 62.9013 1.2714 63.4566 1.20975C63.7342 1.17892 63.9501 1.17892 64.1352 1.14809C64.2895 1.14809 64.382 1.14809 64.382 1.14809V1.08644L64.2895 1.05561L61.3897 8.51565H60.5568L59.693 10.7352H55.405V10.8585H55.4358Z" fill="black"/>
<path d="M64.3526 12.6478H64.4451V10.4899H64.3526C62.3782 10.4591 61.206 10.4591 61.206 10.4591V10.5516L61.2985 10.4899L60.7124 9.5343H60.6507C60.5273 9.5343 60.4039 9.5343 60.2496 9.5343H60.1879L59.7252 10.7365H55.4372V10.829L55.5297 10.8598C55.5297 10.8598 55.7457 10.3666 56.085 9.68843L56.1467 9.5343H55.9925C53.2469 9.56513 50.8715 9.68843 49.3599 9.90422L46.2442 11.0756C45.8432 11.3839 45.5038 11.7846 45.1953 12.2162L45.1028 12.3395L71.1393 17.0868L71.1702 17.0252C71.7872 16.1928 72.4967 15.7304 73.2371 15.5147C73.9774 15.268 74.7795 15.2372 75.6124 15.2372C75.705 15.2372 75.7975 15.2372 75.8901 15.2372H76.8464L64.3526 12.4628V12.6478L64.3217 12.7403L75.8901 15.2989L75.9209 15.2064V15.1139C75.8284 15.1139 75.7358 15.1139 75.6433 15.1139C74.8104 15.1139 73.9774 15.1447 73.2062 15.3914C72.4041 15.638 71.6638 16.1004 71.0159 16.9943L71.1085 17.056L71.1393 16.9635L45.3187 12.247L45.2879 12.3395L45.3804 12.4012C45.6581 11.9696 45.9666 11.6305 46.3676 11.3222L46.3059 11.2298L46.3367 11.3222L49.4216 10.1817L49.3908 10.0892V10.1817C50.8715 9.96587 53.2469 9.84257 55.9925 9.81174V9.71926L55.8999 9.68843C55.5606 10.3974 55.3446 10.8598 55.3446 10.8598L55.283 11.014H59.8486L60.3422 9.75009L60.2496 9.71926V9.81174C60.373 9.81174 60.4964 9.81174 60.6507 9.81174V9.71926L60.5581 9.78091L61.1443 10.7365H61.206C61.206 10.7365 61.4836 10.7365 62.0389 10.7365C62.5633 10.7365 63.3654 10.7365 64.3526 10.7674V10.6749H64.26V12.8019L64.3526 12.8327V12.6478Z" fill="black"/>
<path d="M94.4907 65.5454V65.4529C91.159 65.4529 78.8194 65.4529 76.3207 65.4529C76.0739 65.4529 75.8579 65.4529 75.6111 65.4529C74.4697 65.4529 73.39 65.3913 72.4028 64.8364C71.4157 64.2507 70.5519 63.1718 69.9041 61.0447C68.4542 56.3283 66.9426 50.6562 66.9426 40.3909C66.9426 30.1257 68.4542 24.4844 69.9041 19.7371C70.5519 17.6101 71.4465 16.5003 72.4028 15.9454C73.39 15.3597 74.4697 15.3289 75.6111 15.3289C75.8579 15.3289 76.0739 15.3289 76.3207 15.3289C78.8194 15.3289 91.159 15.3289 94.4907 15.3289C96.6193 15.3289 105.288 15.5447 111.766 15.5447C113.555 15.5447 115.19 15.5447 116.455 15.483C117.751 15.4522 118.676 15.3906 119.108 15.2981C120.928 14.8665 123.705 13.1094 125.525 11.8763L125.679 11.7838L125.525 11.6914C125.124 11.4756 124.414 11.3831 123.581 11.3214C122.748 11.2598 121.823 11.229 120.99 11.1673C118.892 11.044 61.2047 10.4891 61.2047 10.4891V10.5816L61.2972 10.52L60.7111 9.56433H60.6494C60.526 9.56433 60.3717 9.56433 60.2483 9.56433H60.1866L59.7239 10.7666H55.4359V10.859L55.5284 10.8899C55.5284 10.8899 55.7444 10.3966 56.0837 9.71846L56.1454 9.56433H55.9912C52.8754 9.62598 50.2533 9.74929 48.8034 10.0267C46.7056 10.4275 45.5951 11.3523 44.8547 12.8011C44.1143 14.25 43.7133 16.192 43.0038 18.7198C41.5847 23.8062 40.5975 35.2737 40.5975 40.3601C40.5975 45.4465 41.5847 56.914 43.0038 62.0004C43.7133 64.5281 44.1143 66.501 44.8547 67.9191C45.5951 69.3679 46.7056 70.2927 48.8034 70.6935C50.2533 70.9709 52.8754 71.0942 55.9912 71.1559H56.1454L56.0837 71.0017C55.7444 70.3235 55.5284 69.8303 55.5284 69.8303L55.4359 69.8611V69.9536H59.7239L60.1866 71.1559H60.2483C60.3717 71.1559 60.526 71.1559 60.6494 71.1559H60.7111L61.2972 70.2002L61.2047 70.1386V70.2311C61.2047 70.2311 118.892 69.6762 120.99 69.5529C121.823 69.4912 122.748 69.4604 123.581 69.3987C124.414 69.3371 125.124 69.2446 125.525 69.0288L125.679 68.9363L125.525 68.8439C123.736 67.6108 120.928 65.8229 119.108 65.4221C118.676 65.3296 117.751 65.268 116.455 65.2371C115.16 65.2063 113.555 65.1755 111.766 65.1755C105.257 65.1755 96.6193 65.3913 94.4907 65.3913V65.5454V65.6379C96.6501 65.6379 105.288 65.4221 111.766 65.4221C113.555 65.4221 115.19 65.4529 116.455 65.4838C117.72 65.5146 118.676 65.5762 119.077 65.6687C120.836 66.0695 123.643 67.8266 125.401 69.0596L125.463 68.9672L125.401 68.8747C125.062 69.0596 124.353 69.183 123.55 69.2446C122.748 69.3063 121.792 69.3371 120.959 69.3987C119.91 69.4604 104.979 69.6145 90.2953 69.7687C82.9532 69.8303 75.6728 69.9228 70.2434 69.9844C67.5287 70.0153 65.2459 70.0461 63.6726 70.0461C62.0993 70.0769 61.2047 70.0769 61.2047 70.0769H61.143L60.5568 71.0325L60.6494 71.0942V71.0017C60.526 71.0017 60.3717 71.0017 60.2483 71.0017V71.0942L60.3409 71.0634L59.8473 69.7995H55.2508L55.3125 69.9536C55.3125 69.9536 55.5284 70.4468 55.8678 71.125L55.9603 71.0942V71.0017C52.8754 70.9401 50.2224 70.8168 48.8342 70.5393C46.7673 70.1386 45.7493 69.2754 45.0089 67.8574C44.2994 66.4702 43.8984 64.4973 43.1888 61.9695C41.7698 56.914 40.8135 45.4465 40.8135 40.3909C40.8135 35.3354 41.8006 23.8679 43.1888 18.8123C43.8984 16.2845 44.2994 14.3116 45.0089 12.9244C45.7493 11.5372 46.7673 10.6741 48.8342 10.2425C50.2533 9.96508 52.8754 9.84177 55.9912 9.78012V9.68764L55.8986 9.65681C55.5593 10.3658 55.3433 10.8282 55.3433 10.8282L55.2817 10.9824H59.8473L60.3409 9.71846L60.2483 9.68764V9.78012C60.3717 9.78012 60.4951 9.78012 60.6494 9.78012V9.68764L60.5568 9.74929L61.143 10.7049H61.2047C61.2047 10.7049 62.0993 10.7049 63.6726 10.7357C74.7474 10.8282 119.139 11.2906 120.959 11.3831C121.792 11.4448 122.718 11.4756 123.55 11.5372C124.353 11.5989 125.062 11.7222 125.401 11.9072L125.463 11.8147L125.401 11.7222C123.612 12.9553 120.805 14.7124 119.077 15.1131C118.676 15.2056 117.751 15.2672 116.455 15.2981C115.19 15.3289 113.555 15.3597 111.766 15.3597C105.257 15.3597 96.6193 15.1439 94.4907 15.1439C91.159 15.1439 78.8194 15.1439 76.3207 15.1439C76.0739 15.1439 75.8579 15.1439 75.6111 15.1439C74.4697 15.1439 73.3283 15.2056 72.3103 15.7913C71.2923 16.4078 70.3668 17.5484 69.719 19.7063C68.2382 24.4536 66.7266 30.1565 66.7266 40.4217C66.7266 50.687 68.2382 56.3899 69.719 61.1372C70.3977 63.2951 71.2923 64.4357 72.3103 65.0522C73.3283 65.6687 74.4697 65.6995 75.6111 65.6995C75.8579 65.6995 76.0739 65.6995 76.3207 65.6995C78.8194 65.6995 91.159 65.6995 94.4907 65.6995V65.5454Z" fill="black"/>
</g>
<defs>
<clipPath id="clip0_45_2">
<rect width="173" height="79.2531" fill="white" transform="translate(0 0.875)"/>
</clipPath>
</defs>
</svg>
