<svg width="180" height="67" viewBox="0 0 180 67" fill="none" xmlns="http://www.w3.org/2000/svg">
<g clip-path="url(#clip0_7800_4964)">
<path d="M25.4085 52.584H25.3119C25.3119 44.8678 31.5587 38.6367 39.2223 38.6367C46.9182 38.6367 53.1328 44.9001 53.1328 52.584C53.1328 60.3002 46.886 66.5313 39.2223 66.5313C31.5265 66.5313 25.3119 60.268 25.3119 52.584H25.4085H25.5051C25.5051 56.3937 27.0507 59.816 29.5301 62.3019C32.0095 64.7879 35.4549 66.3376 39.2223 66.3376C43.022 66.3376 46.4352 64.7879 48.9146 62.3019C51.394 59.816 52.9396 56.3937 52.9396 52.584C52.9396 48.7743 51.394 45.3521 48.9146 42.8661C46.4352 40.3801 42.9898 38.8304 39.2223 38.8304C35.4227 38.8304 32.0095 40.3801 29.5301 42.8661C27.0507 45.3521 25.5051 48.7743 25.5051 52.584H25.4085Z" fill="black"/>
<path d="M36.0657 42.8947L36.0335 42.7978C37.0961 42.4427 38.1587 42.2812 39.1891 42.2812C43.5039 42.2812 47.5289 45.0578 48.9457 49.384C49.2999 50.4495 49.4609 51.5149 49.4609 52.548C49.4609 56.8743 46.6917 60.9099 42.3769 62.3305C41.3143 62.6856 40.2517 62.8471 39.2213 62.8471C34.9065 62.8471 30.8815 60.0705 29.4646 55.7443C29.1104 54.6789 28.9494 53.6134 28.9494 52.5803C28.9494 48.2541 31.7187 44.2184 36.0335 42.7978L36.0657 42.8947L36.0979 42.9915C31.8475 44.3798 29.1426 48.3186 29.1426 52.548C29.1426 53.5812 29.3036 54.6143 29.6256 55.6474C31.0103 59.9091 34.9387 62.6211 39.1569 62.6211C40.1873 62.6211 41.2177 62.4596 42.2481 62.1368C46.4985 60.7485 49.2033 56.8097 49.2033 52.5803C49.2033 51.5472 49.0423 50.514 48.7203 49.4809C47.3357 45.2192 43.4073 42.5072 39.1891 42.5072C38.1587 42.5072 37.1283 42.6687 36.0979 42.9915L36.0657 42.8947Z" fill="black"/>
<path d="M130.992 52.584H130.896C130.896 44.8678 137.143 38.6367 144.806 38.6367C152.502 38.6367 158.717 44.9001 158.717 52.584C158.717 60.3002 152.47 66.5313 144.806 66.5313C137.11 66.5313 130.896 60.268 130.896 52.584H130.992H131.089C131.089 56.3937 132.635 59.816 135.114 62.3019C137.593 64.7879 141.007 66.3376 144.806 66.3376C148.606 66.3376 152.019 64.7879 154.499 62.3019C156.978 59.816 158.524 56.3937 158.524 52.584C158.524 48.7743 156.978 45.3521 154.499 42.8661C152.019 40.3801 148.574 38.8304 144.806 38.8304C141.007 38.8304 137.593 40.3801 135.114 42.8661C132.635 45.3521 131.089 48.7743 131.089 52.584H130.992Z" fill="black"/>
<path d="M141.683 42.8947L141.651 42.7978C142.713 42.4427 143.776 42.2812 144.806 42.2812C149.121 42.2812 153.146 45.0578 154.563 49.384C154.917 50.4495 155.078 51.5149 155.078 52.548C155.078 56.8743 152.309 60.9099 147.994 62.3305C146.931 62.6856 145.869 62.8471 144.838 62.8471C140.524 62.8471 136.499 60.0705 135.082 55.7443C134.728 54.6789 134.567 53.6134 134.567 52.5803C134.567 48.2541 137.336 44.2184 141.651 42.7978L141.683 42.8947L141.715 42.9915C137.465 44.3798 134.76 48.3186 134.76 52.548C134.76 53.5812 134.921 54.6143 135.243 55.6474C136.627 59.9091 140.556 62.6211 144.774 62.6211C145.804 62.6211 146.835 62.4596 147.865 62.1368C152.116 60.7485 154.821 56.8097 154.821 52.5803C154.821 51.5472 154.66 50.514 154.338 49.4809C152.953 45.2192 149.024 42.5072 144.806 42.5072C143.776 42.5072 142.745 42.6687 141.715 42.9915L141.683 42.8947Z" fill="black"/>
<path d="M88.1008 26.5597H88.2296C88.2296 26.6888 88.3584 26.818 88.4872 26.818L97.4389 26.6888C97.5999 26.6888 97.6965 26.5597 97.6965 26.4305V26.1077C97.6965 25.9463 97.5677 25.8494 97.4389 25.8494L88.4872 25.6557C88.3584 25.6557 88.2296 25.7848 88.2296 25.914V26.5597H88.1008H88.0042V25.914C88.0042 25.6557 88.2296 25.4297 88.4872 25.4297L97.4389 25.6234C97.6965 25.6234 97.9219 25.8494 97.9219 26.1077V26.4305C97.9219 26.6888 97.6965 26.9148 97.4389 26.9148L88.4872 27.044C88.2296 27.044 88.0042 26.818 88.0042 26.5597H88.1008Z" fill="black"/>
<path d="M45.6282 25.2071H45.7248C45.7248 25.3362 45.8536 25.4654 45.9824 25.4654L54.934 25.3362C55.095 25.3362 55.1916 25.2071 55.1916 25.0779V24.7551C55.1916 24.5937 55.0628 24.4968 54.934 24.4968L45.9824 24.3354C45.8536 24.3354 45.7248 24.4645 45.7248 24.5937V25.2394H45.6282H45.5316V24.5937C45.5316 24.3354 45.757 24.1094 46.0146 24.1094L54.9662 24.2708C55.2238 24.2708 55.4492 24.4968 55.4492 24.7551V25.0779C55.4492 25.3362 55.2238 25.5622 54.9662 25.5622L46.0146 25.6914C45.757 25.6914 45.5316 25.4654 45.5316 25.2071H45.6282Z" fill="black"/>
<path d="M175.01 27.3323L175.074 27.2677C175.203 27.4291 175.3 27.526 175.3 27.526L178.971 34.9516H177.683L177.65 34.9193C177.65 34.9193 175.654 32.2074 174.012 29.7214C173.4 28.8174 172.756 28.0103 172.176 27.3968L172.015 27.2031H175.01L175.042 27.2354L175.01 27.3323V27.4291H172.273V27.3323L172.337 27.2677C172.917 27.9134 173.561 28.6883 174.173 29.6245C174.978 30.8514 175.912 32.1751 176.588 33.1436C176.942 33.6279 177.232 34.0476 177.457 34.3382C177.683 34.6288 177.779 34.7902 177.779 34.7902L177.683 34.8548V34.7579H178.649L175.139 27.6228L175.235 27.5905L175.139 27.6551C175.139 27.6551 175.042 27.5583 174.913 27.3968L175.01 27.3323Z" fill="black"/>
<path d="M172.627 25.6218V25.5572H172.692C173.175 25.5572 173.819 26.0415 174.334 26.558C174.849 27.0423 175.268 27.5266 175.268 27.5266L178.906 34.92H177.747L177.715 34.8877C177.715 34.8877 175.718 32.1757 174.076 29.6897C173.271 28.4629 172.37 27.4297 171.661 26.7517C171.307 26.3966 171.017 26.1383 170.824 25.9446C170.631 25.7509 170.502 25.654 170.502 25.654V25.6218C170.47 25.428 170.244 25.1375 169.922 24.8792C169.633 24.6209 169.246 24.3949 168.956 24.2335L168.892 24.2012L168.924 24.1366C169.021 24.0075 169.182 23.8461 169.311 23.6846L169.343 23.6523H169.375C169.568 23.6846 169.729 23.7492 169.858 23.7815C171.597 24.2658 172.692 25.5249 172.692 25.5249L172.627 25.6218L172.595 25.654C172.595 25.654 172.531 25.5895 172.402 25.4603C172.015 25.0729 171.082 24.2981 169.826 23.9429C169.697 23.9106 169.536 23.8783 169.343 23.8138V23.7492L169.375 23.7815C169.214 23.9429 169.085 24.1043 168.989 24.2335L168.956 24.2012L168.989 24.1366C169.311 24.2981 169.697 24.524 169.987 24.8146C170.309 25.0729 170.534 25.3635 170.599 25.5895H170.534H170.566C170.566 25.5895 172.531 27.1392 174.173 29.6574C174.978 30.8843 175.912 32.208 176.588 33.1765C176.942 33.6608 177.232 34.0805 177.457 34.3711C177.683 34.6617 177.779 34.8231 177.779 34.8231L177.747 34.8554V34.7908H178.713L175.171 27.5912C175.171 27.5912 175.074 27.462 174.913 27.3006C174.656 27.0423 174.269 26.6226 173.851 26.2675C173.432 25.9123 172.981 25.654 172.692 25.654H172.659H172.627L172.595 25.6218H172.627Z" fill="black"/>
<path d="M4.34929 24.816H7.0863C7.1507 24.0735 7.2473 23.4278 7.3117 23.0403C7.3117 23.0403 7.3117 22.9758 7.3439 22.8789H3.76969C3.76969 23.0403 3.73748 23.2018 3.73748 23.3632C3.73748 23.5892 3.73748 23.8475 3.70528 24.0412C3.70528 23.7829 3.70528 23.4278 3.73748 23.1049H7.21511C7.15071 23.4923 7.0863 24.0089 7.0219 24.6223H4.22048L3.70528 24.4932C3.70528 24.5255 3.70528 24.5255 3.70528 24.5255L4.31709 24.6546L4.34929 24.816ZM7.21511 24.816H7.27949V24.7192C7.34389 24.0412 7.4083 23.4278 7.5049 23.0726V23.008L7.53711 22.8789H7.47271C7.4405 22.9758 7.44049 23.0403 7.44049 23.0403C7.34389 23.46 7.27951 24.0735 7.21511 24.816ZM3.51209 24.6223C3.51209 24.59 3.51209 24.3318 3.51209 23.9443C3.51209 24.2349 3.51209 24.4286 3.51209 24.5255V24.6223Z" fill="black"/>
<path d="M4.34929 24.816H7.0863C7.1507 24.0735 7.2473 23.4278 7.3117 23.0403C7.3117 23.0403 7.3117 22.9758 7.3439 22.8789H3.76969C3.76969 23.0403 3.73748 23.2018 3.73748 23.3632C3.73748 23.5892 3.73748 23.8475 3.70528 24.0412C3.70528 23.7829 3.70528 23.4278 3.73748 23.1049H7.21511C7.15071 23.4923 7.0863 24.0089 7.0219 24.6223H4.22048L3.70528 24.4932C3.70528 24.5255 3.70528 24.5255 3.70528 24.5255L4.31709 24.6546L4.34929 24.816ZM7.21511 24.816H7.27949V24.7192C7.34389 24.0412 7.4083 23.4278 7.5049 23.0726V23.008L7.53711 22.8789H7.47271C7.4405 22.9758 7.44049 23.0403 7.44049 23.0403C7.34389 23.46 7.27951 24.0735 7.21511 24.816ZM3.51209 24.6223C3.51209 24.59 3.51209 24.3318 3.51209 23.9443C3.51209 24.2349 3.51209 24.4286 3.51209 24.5255V24.6223Z" fill="black"/>
<path d="M0.870178 42.6739H0.77359V39.9942L3.25299 39.7359V39.8328L3.1564 39.8005C3.1564 39.8005 3.1886 39.7359 3.22081 39.6068C3.34961 39.2193 3.60721 38.3799 3.60721 37.6696V37.6051C3.60721 37.0885 3.47841 36.0876 3.38181 35.2159C3.25301 34.3442 3.1564 33.6016 3.1564 33.6016V33.5694L4.31563 28.6297L4.15462 24.7877L3.5428 24.6585V24.5617C3.5428 24.5617 3.5428 23.9805 3.575 23.3025C3.60719 22.6245 3.6394 21.882 3.73601 21.5591C3.8326 21.204 4.18681 20.6228 4.54102 20.1062C4.86301 19.5897 5.18501 19.1377 5.18501 19.1377L16.3263 5.5777L13.7825 4.80284L14.3621 4.2217L26.6949 2.8657V2.96256L26.6304 2.89799C27.1135 2.44599 27.9829 2.05856 29.0455 1.7357C30.1081 1.41285 31.3639 1.15456 32.5875 0.993133C33.2315 0.896276 34.9704 0.831705 37.3854 0.767133C44.6627 0.573419 57.9614 0.476562 64.4015 0.476562C72.999 0.476562 88.4873 0.702562 90.4516 0.831705C92.4158 0.960847 96.8272 2.1877 96.8272 2.1877L96.795 2.28456V2.1877C96.795 2.1877 97.6966 2.28456 98.9524 2.38142C100.208 2.51056 101.786 2.67199 103.171 2.80113C105.972 3.05941 110.255 5.09341 110.287 5.09341C110.287 5.09341 118.627 9.93626 122.33 12.3254C126.033 14.7145 133.729 20.1708 133.729 20.1708L133.664 20.2677V20.1708L134.824 20.074L135.983 20.7842L136.176 20.5905L136.208 20.5582L139.074 19.6865H139.106C140.91 20.2031 143.164 20.1062 151.632 20.978C161.131 21.9465 168.151 23.3025 169.89 23.7868C171.629 24.2711 172.723 25.5625 172.756 25.5625L172.659 25.6271V25.5302H172.723C172.981 25.5302 173.271 25.6594 173.561 25.8531C174.43 26.4019 175.332 27.4997 175.364 27.5319L179.067 35.1836L178.262 35.4419L178.616 36.6365H179.711V37.9279H178.52L178.648 40.3816H179.711V43.1905L178.681 44.2236L178.037 45.5473L178.487 45.9993V46.0639C178.487 46.0639 178.004 48.9696 177.618 50.4225C177.232 51.8753 176.04 53.9739 176.04 53.9739L176.008 54.0385H175.106L172.627 58.9136H161.357V52.6179C161.357 48.0333 159.521 43.8685 156.559 40.8659C153.596 37.8633 149.507 35.9908 144.967 35.9908C140.459 35.9908 136.369 37.8633 133.375 40.8659C130.412 43.8685 128.577 48.0333 128.577 52.6179V56.9119H55.0956V52.4888C55.0956 47.8719 53.2923 43.7071 50.3621 40.6722C47.4319 37.6373 43.4068 35.7971 38.9632 35.7971C34.5195 35.7971 30.4945 37.6696 27.5643 40.6722C24.634 43.7071 22.8308 47.8719 22.8308 52.4888V52.8116V52.9407L4.50882 49.4216L0.193954 48.679V43.3196L0.676971 42.6093L0.870178 42.6739L0.966782 42.7385L0.515961 43.3842V48.4853L4.63763 49.1956L22.702 52.6825V52.4888C22.702 47.8073 24.5374 43.5779 27.4677 40.5431C30.4301 37.4759 34.5195 35.6034 39.0276 35.6034C43.5356 35.6034 47.6251 37.5082 50.5875 40.5431C53.5499 43.6102 55.3532 47.8396 55.3532 52.4888V56.6859H128.416V52.5533C128.416 47.9042 130.283 43.7071 133.278 40.6722C136.273 37.6373 140.427 35.7325 144.999 35.7325C149.571 35.7325 153.725 37.6051 156.72 40.6722C159.715 43.7071 161.582 47.9365 161.582 52.5533V58.623H172.498L174.977 53.7479H175.943V53.8447L175.847 53.7802C175.847 53.7802 175.911 53.651 176.04 53.425C176.394 52.7793 177.135 51.3265 177.393 50.2933C177.586 49.583 177.779 48.4853 177.972 47.5813C178.133 46.6773 178.262 45.967 178.262 45.967L178.359 45.9993L178.294 46.0639L177.779 45.5473L178.52 44.0622L179.486 43.0936V40.5753H178.455L178.294 37.7019H179.486V36.8302H178.455L178.004 35.2805L178.777 35.0222L175.106 27.5965L175.203 27.5642L175.106 27.6288C175.106 27.6288 175.01 27.4997 174.849 27.3382C174.591 27.0799 174.205 26.6602 173.786 26.3051C173.367 25.9499 172.949 25.6917 172.659 25.7239H172.627H172.562L172.53 25.6917L172.498 25.6271C172.273 25.4011 171.274 24.4002 169.793 23.9805C168.087 23.4962 161.067 22.1402 151.568 21.1717C143.099 20.3 140.877 20.3968 139.01 19.8802L139.042 19.7834L139.074 19.8802L136.305 20.7197L136.079 20.9457L136.015 21.0102L134.759 20.2354L133.632 20.3322L133.6 20.3C133.6 20.3 133.117 19.9448 132.344 19.396C129.994 17.7494 124.97 14.2302 122.201 12.4545C120.366 11.26 117.339 9.45197 114.795 7.96683C113.507 7.22426 112.38 6.54626 111.511 6.02969C110.673 5.54541 110.158 5.22255 110.158 5.22255L110.223 5.1257L110.19 5.22255C110.19 5.22255 109.933 5.09341 109.482 4.8997C108.162 4.31855 105.199 3.12399 103.171 2.93027C100.401 2.67199 96.795 2.31684 96.795 2.31684C96.795 2.31684 96.5052 2.25227 96.0866 2.12313C94.7664 1.76799 91.9006 1.0577 90.4516 0.960847C88.5195 0.831705 73.0312 0.605705 64.4337 0.605705C60.1188 0.605705 52.7771 0.637991 46.2083 0.734848C42.9238 0.767133 39.8326 0.831705 37.3854 0.896276C34.9704 0.960847 33.1993 1.02542 32.5875 1.12228C31.3639 1.2837 30.1081 1.54199 29.0777 1.86485C28.0151 2.1877 27.1779 2.57513 26.7271 2.99484L26.6949 3.02713L14.3943 4.38313L14.1367 4.64141L16.6483 5.41627L5.31383 19.2345C5.31383 19.2345 5.24944 19.3314 5.12064 19.5251C4.95963 19.7834 4.66982 20.2031 4.44441 20.5905C4.21901 20.978 3.99362 21.3977 3.92921 21.5914C3.83261 21.882 3.80042 22.6245 3.76822 23.2702C3.73601 23.9159 3.73601 24.4971 3.73601 24.5294H3.6394L3.67162 24.4325L4.38 24.5617L4.50882 28.6619L3.34961 33.6016L3.25299 33.5694L3.34961 33.5371C3.34961 33.5371 3.83261 36.5074 3.83261 37.5728V37.6373C3.80042 38.6382 3.34961 39.8328 3.34961 39.8651L3.3174 39.9296L0.966782 40.1879V42.7062L0.934586 42.7385L0.870178 42.6739Z" fill="black"/>
<path d="M129.831 22.8786L129.863 22.8463C129.992 22.9109 130.056 22.9432 130.056 22.9432H130.088C130.314 23.0077 131.731 23.1046 133.759 23.2337C139.942 23.6212 152.113 24.2669 157.813 24.622C165.38 25.074 170.5 25.5583 170.5 25.5583C170.5 25.5583 171.401 26.3009 172.528 27.5277L172.625 27.6246H172.496C170.918 27.5277 159.391 26.7529 158.425 26.6237C157.394 26.4946 128.8 24.9771 125.645 24.848C122.489 24.6866 86.8432 23.2983 83.752 23.1369C80.6608 22.9754 54.8361 22.2974 50.4568 21.9746C46.4318 21.684 45.2726 20.102 45.2726 18.9074C45.2726 18.8106 45.2726 18.6814 45.3048 18.5846C45.3692 18.2617 45.7556 17.5514 46.3352 16.6152C48.074 13.774 51.5516 8.83433 53.2582 6.89719C55.3835 4.50805 58.6035 4.41119 60.4711 4.41119C60.6321 4.41119 60.7609 4.41119 60.8897 4.41119C62.2744 4.41119 72.2887 4.37891 78.1169 4.37891C79.5659 4.37891 80.7574 4.37891 81.498 4.37891C85.201 4.41119 95.8593 4.73405 98.4032 4.83091C99.82 4.86319 100.883 5.25062 101.494 5.60576L129.799 22.814L129.831 22.8786L129.799 22.9109L101.494 5.70262C100.883 5.37976 99.82 4.99233 98.4354 4.96005C95.8915 4.89548 85.2332 4.54033 81.5302 4.50805C80.7896 4.50805 79.5982 4.50805 78.1491 4.50805C72.3209 4.50805 62.3066 4.54033 60.9219 4.54033C60.7931 4.54033 60.6643 4.54033 60.5033 4.54033C58.6679 4.54033 55.4801 4.63719 53.387 6.99404C52.26 8.28547 50.328 10.9006 48.6536 13.3543C47.8164 14.5812 47.0436 15.7435 46.464 16.712C45.8844 17.6483 45.498 18.3909 45.4658 18.6492C45.4336 18.746 45.4336 18.8429 45.4336 18.9397C45.4336 20.0697 46.5284 21.6194 50.5212 21.91C54.9005 22.2329 80.7252 22.9109 83.7842 23.0723C86.8754 23.2337 122.521 24.622 125.677 24.7834C128.833 24.9449 157.426 26.43 158.457 26.5591C159.423 26.6883 170.951 27.4631 172.528 27.56V27.6246L172.496 27.6569C171.949 27.0434 171.434 26.5269 171.079 26.204C170.725 25.8811 170.5 25.6874 170.5 25.6874L170.532 25.6551V25.7197C170.532 25.7197 170.21 25.6874 169.63 25.6229C167.827 25.4614 163.544 25.1063 157.877 24.7512C154.078 24.5252 147.412 24.17 141.552 23.8149C138.621 23.6534 135.884 23.492 133.824 23.3629C131.763 23.2337 130.378 23.1369 130.121 23.04H130.088L130.024 23.0077C129.992 22.9754 129.927 22.9754 129.831 22.9109V22.8786Z" fill="black"/>
<path d="M5.21833 19.2325V19.168L9.40435 19.2003H9.43654L9.46875 19.2325L8.05194 21.1051H8.01974C6.15213 21.0728 4.73532 21.0728 4.09132 21.0728H3.99472L4.02692 21.0082C4.44552 20.2657 5.12172 19.2648 5.15392 19.2003V19.168H5.18611L5.21833 19.2325L5.25052 19.2648C5.21832 19.2971 4.54212 20.298 4.12351 21.0405L4.09132 21.0082V20.9437C4.73532 20.9437 6.15213 20.976 8.01974 20.976V21.0405L7.98753 21.0082L9.33994 19.2003L9.37213 19.2325V19.2971L5.18611 19.2648L5.21833 19.2325Z" fill="black"/>
<path d="M14.297 4.34596V4.28139C14.297 4.28139 15.1342 4.31368 16.1647 4.37825C17.1951 4.41053 18.3865 4.4751 19.1271 4.4751C19.2237 4.4751 19.3203 4.4751 19.3847 4.4751C20.0287 4.4751 21.6709 4.28139 23.1521 4.08768C23.8927 3.99082 24.6011 3.89397 25.0841 3.8294C25.5993 3.76483 25.9213 3.73254 25.9213 3.73254L26.4043 3.66797L25.9535 3.8294C25.9535 3.8294 25.6315 3.95854 25.1485 4.11996C23.6673 4.66882 20.6083 5.86338 19.8033 6.31537H19.7711L16.4545 5.57281L13.8462 4.76567L14.2326 4.24911H14.2648L14.297 4.34596L14.3292 4.37825L14.0394 4.73339L16.4867 5.47595L19.8033 6.21852V6.28309L19.7711 6.2508C20.3185 5.92795 21.8319 5.31453 23.2487 4.76567C24.6655 4.21682 25.9213 3.73254 25.9213 3.73254L25.9535 3.79711V3.86168C25.9535 3.86168 20.7049 4.57196 19.3847 4.60425C19.3203 4.60425 19.2237 4.60425 19.1271 4.60425C17.6459 4.60425 14.297 4.44282 14.297 4.44282V4.34596Z" fill="black"/>
<path d="M4.15662 39.8623C4.38202 39.6363 6.08862 37.9574 6.12082 35.6975C6.15302 33.9218 6.50723 32.6626 6.66823 32.1461C6.73263 31.9846 6.76483 31.8878 6.76483 31.8878C6.76483 31.8878 6.76482 31.4681 6.79702 30.7901C6.82922 30.1121 6.86143 29.2081 6.92583 28.2072C6.99023 27.0772 7.05463 25.8504 7.15123 24.8495H7.05464C6.79703 27.5292 6.66822 31.6618 6.63602 31.8878C6.57162 32.0169 6.02421 33.4375 5.99201 35.7297C5.95981 37.5054 4.86503 38.926 4.31762 39.5394C4.18882 39.7008 4.06001 39.7977 4.02781 39.83H3.31941C3.54481 39.7977 3.80242 39.83 4.15662 39.8623ZM7.34442 22.8801H7.44102C7.44102 22.8156 7.47323 22.7187 7.50543 22.5896C7.56983 22.3313 7.63422 22.0407 7.76302 21.847C7.82742 21.7179 7.92403 21.6533 7.98843 21.6533H8.05283L8.18164 21.169C7.66644 21.169 7.18344 21.169 6.73263 21.169C5.60563 21.169 4.73621 21.1367 4.22101 21.1367C4.92941 21.1367 6.31402 21.169 8.05283 21.169L7.92402 21.5564C7.79522 21.5887 7.69863 21.6856 7.63423 21.8147C7.53763 21.9439 7.47322 22.1376 7.44102 22.3313C7.40882 22.525 7.37663 22.7187 7.34442 22.8801Z" fill="black"/>
<path d="M7.08521 24.816H7.18182C7.24623 24.0735 7.31064 23.46 7.40726 23.0403C7.40726 23.0403 7.40725 22.9758 7.43945 22.8789H7.34284C7.34284 22.9758 7.31065 23.0403 7.31065 23.0403C7.24624 23.46 7.14962 24.0735 7.08521 24.816Z" fill="black"/>
<path d="M7.08521 24.816H7.18182C7.24623 24.0735 7.31064 23.46 7.40726 23.0403C7.40726 23.0403 7.40725 22.9758 7.43945 22.8789H7.34284C7.34284 22.9758 7.31065 23.0403 7.31065 23.0403C7.24624 23.46 7.14962 24.0735 7.08521 24.816Z" fill="black"/>
<path d="M3.38112 39.7988H3.31671C3.41332 39.5082 3.73537 38.5074 3.76758 37.668C3.73537 38.5074 3.41332 39.5405 3.31671 39.7988C3.34891 39.7988 3.34891 39.7988 3.38112 39.7988Z" fill="black"/>
<path d="M4.15548 39.8604C3.80123 39.8281 3.51138 39.7959 3.38257 39.7959C3.35036 39.7959 3.35036 39.7959 3.31815 39.7959C3.41477 39.5376 3.73682 38.5044 3.76902 37.665V37.6005C3.76902 36.5996 3.31816 33.7908 3.28596 33.5971L4.44531 28.6574L4.28429 24.654L3.67241 24.5249C3.67241 24.3634 3.67241 23.8791 3.70461 23.3303C3.73682 22.6846 3.76902 21.9097 3.86563 21.6192C3.89784 21.49 3.99445 21.2963 4.12327 21.0703H4.09107H3.99446C3.89785 21.264 3.80123 21.4577 3.76902 21.5869C3.67241 21.9097 3.608 22.6523 3.608 23.3303C3.5758 23.976 3.57579 24.5249 3.57579 24.5894V24.6217L4.18768 24.7509L4.3487 28.6251L3.18935 33.5325C3.18935 33.5325 3.31815 34.2751 3.41476 35.1468C3.54358 36.0185 3.6402 37.0193 3.6402 37.5359V37.6005C3.6402 38.0847 3.51138 38.6336 3.38257 39.0533C3.28595 39.4084 3.18933 39.6667 3.15713 39.7313H3.18935C3.25376 39.7636 3.60801 39.7959 4.15548 39.8604Z" fill="black"/>
<path d="M8.17874 21.1359L8.21094 21.0391H8.14652L8.08211 21.1359H8.04991C7.59905 21.1359 7.18039 21.1359 6.76173 21.1359C7.2126 21.1359 7.69567 21.1359 8.17874 21.1359Z" fill="black"/>
<path d="M0.837982 42.5773C0.837982 42.5773 0.870186 42.5773 0.902386 42.5773V40.1559L3.25299 39.8976H3.18861L3.2208 39.8331C3.2208 39.8331 3.2208 39.8331 3.2208 39.8008L0.805789 40.0591V42.6096L0.837982 42.5773Z" fill="black"/>
<path d="M3.25255 39.8976H4.12208C4.12208 39.8976 4.12209 39.8976 4.1543 39.8654C3.57461 39.8331 3.25255 39.8008 3.25255 39.8008H3.22036C3.22036 39.8331 3.22036 39.8331 3.22036 39.8331L3.18816 39.8976H3.25255Z" fill="black"/>
<path d="M167.734 44.1572L167.638 44.2218C167.284 43.5438 166.833 42.2524 166.414 41.0256C165.996 39.831 165.674 38.7333 165.577 38.5396C165.545 38.4427 165.513 38.3136 165.513 38.1844C165.513 37.9584 165.577 37.7002 165.802 37.5064C165.996 37.3127 166.318 37.1836 166.768 37.1836C166.833 37.1836 166.929 37.1836 167.026 37.1836C168.539 37.1836 173.788 37.345 175.173 37.3773H175.205L175.237 37.4096C175.688 37.7647 175.913 38.2813 176.042 38.7979C176.171 39.3144 176.203 39.831 176.203 40.1216C176.203 40.2184 176.203 40.3153 176.203 40.3476V40.4444H171.47L171.631 41.8004L175.752 42.2524L175.72 42.3815C175.495 42.995 175.076 44.3187 174.658 45.0612C174.432 45.4809 174.142 45.7069 173.885 45.8684H173.853H173.82C172.339 45.8361 169.28 45.7069 169.28 45.7069C169.248 45.7069 168.346 45.6101 167.638 44.2218L167.734 44.1572L167.831 44.125C168.153 44.7707 168.539 45.1258 168.829 45.2872C168.958 45.3841 169.087 45.4164 169.183 45.4487C169.216 45.4487 169.248 45.4809 169.28 45.4809H169.312C169.312 45.4809 170.085 45.5132 171.019 45.5455C171.985 45.5778 173.112 45.6101 173.853 45.6424V45.7392L173.788 45.6424C174.014 45.5132 174.303 45.3195 174.497 44.9321C174.883 44.1895 175.302 42.8981 175.527 42.2847L175.624 42.317V42.4138L171.47 41.9618L171.244 40.1861H176.139V40.283H176.042C176.042 40.2507 176.042 40.1539 176.042 40.057C176.042 39.7664 176.01 39.2821 175.881 38.7979C175.752 38.3136 175.527 37.8293 175.141 37.5387L175.205 37.4419V37.5387C173.82 37.5064 168.539 37.345 167.058 37.345C166.962 37.345 166.865 37.345 166.801 37.345C166.382 37.345 166.124 37.4742 165.963 37.6033C165.802 37.7647 165.738 37.9262 165.738 38.1199C165.738 38.2167 165.77 38.3136 165.802 38.4104C165.899 38.6364 166.221 39.7341 166.64 40.9287C167.058 42.1233 167.509 43.4147 167.831 44.0927L167.734 44.1572Z" fill="black"/>
<path d="M158.458 26.5901V26.4932C159.424 26.6224 170.92 27.3972 172.53 27.4941H172.562L172.626 27.5264C173.142 28.1075 173.689 28.8178 174.236 29.5926C175.009 30.7549 175.814 31.9495 176.49 32.8857L176.619 33.0472H171.596L170.759 33.8866H170.727C170.727 33.8866 167.732 33.8866 166.251 33.7897C164.705 33.6929 163.836 32.4337 163.836 32.4015H163.9L163.836 32.466L158.104 26.4609L158.394 26.4932C158.426 26.4932 158.458 26.4932 158.49 26.4932L158.458 26.5901V26.6869C158.426 26.6869 158.394 26.6869 158.362 26.6869V26.5901L158.426 26.5255L163.964 32.3369L163.997 32.4015C164.19 32.6275 164.995 33.5637 166.218 33.6283C166.959 33.6606 168.054 33.6929 168.988 33.6929C169.922 33.6929 170.662 33.6929 170.662 33.6929V33.7897L170.598 33.7252L171.467 32.8535H176.394V32.9503L176.297 33.0149C175.621 32.0463 174.784 30.8518 174.011 29.7218C173.496 28.9469 172.948 28.2366 172.433 27.6555L172.498 27.5909V27.6878C170.92 27.5909 159.392 26.8161 158.426 26.6869L158.458 26.5901Z" fill="black"/>
<path d="M7.37612 23.0419H7.2795C7.2795 23.0419 7.3117 22.6545 7.4405 22.2993C7.5049 22.1056 7.56931 21.9119 7.63372 21.7828C7.66592 21.7182 7.73032 21.6536 7.79472 21.589C7.85912 21.5245 7.92352 21.4922 8.02012 21.4922C8.24552 21.4922 10.6283 21.4922 12.9467 21.4922C14.1059 21.4922 15.2651 21.4922 16.1024 21.4922C16.9718 21.4922 17.5192 21.4922 17.5192 21.4922C17.5192 21.4922 17.6802 21.5245 17.8412 21.5568C18.0022 21.6213 18.1954 21.7182 18.2598 21.9442V22.0088C18.2598 22.1379 18.1632 22.2993 18.0666 22.4608C17.7124 22.9773 16.9718 23.7199 16.4566 24.2364C15.716 24.979 15.0398 25.6893 14.1382 25.8184C13.6873 25.883 13.1399 25.8184 12.6247 25.883C12.1095 25.9476 11.6587 26.109 11.4011 26.6256C11.1435 27.1421 10.6283 28.369 10.1453 29.499C9.91992 30.0478 9.66233 30.5967 9.46913 30.9841C9.37253 31.1778 9.27591 31.3715 9.21151 31.5007C9.17931 31.5652 9.14711 31.6298 9.11491 31.6621C9.08271 31.6944 9.05052 31.7267 9.01832 31.759C8.88952 31.8235 8.72852 31.8558 8.50312 31.8881C7.82692 31.9527 6.76431 31.9527 6.76431 31.9527H6.66771V31.8558C6.66771 31.8558 6.73211 30.1447 6.82871 28.1753C6.92531 26.2059 7.08631 24.0105 7.31171 23.0096L7.37612 23.0419L7.47271 23.0742C7.27951 24.0427 7.11851 26.2381 7.0219 28.2076C6.9575 29.1761 6.92532 30.1124 6.89312 30.7904C6.86092 31.4684 6.8609 31.8881 6.8609 31.8881H6.76431V31.7912C6.76431 31.7912 7.24731 31.7912 7.73031 31.759C7.98791 31.759 8.24551 31.7267 8.47091 31.6944C8.69631 31.6621 8.85732 31.6298 8.92172 31.5975C8.92172 31.5975 8.98611 31.5007 9.05051 31.3715C9.30811 30.9195 9.72672 29.951 10.1453 28.9824C10.5639 28.0138 10.9825 27.013 11.2401 26.561C11.5299 25.9799 12.0773 25.7861 12.6247 25.7216C13.1721 25.657 13.7517 25.7216 14.1382 25.657C14.9432 25.5602 15.5872 24.8822 16.3278 24.1396C16.682 23.7845 17.1328 23.3325 17.487 22.945C17.648 22.7513 17.809 22.5576 17.9378 22.3962C18.0344 22.2348 18.0988 22.1056 18.0988 22.0733C18.0666 21.9765 17.9378 21.8796 17.809 21.815C17.7446 21.7828 17.6802 21.7828 17.6158 21.7505H17.5514H17.5192C17.5192 21.7505 8.47092 21.7505 8.02012 21.7505L7.9235 21.7828C7.7947 21.8796 7.6659 22.2348 7.6015 22.5253C7.5693 22.6867 7.53711 22.8159 7.50491 22.945C7.47271 23.0419 7.47271 23.1065 7.47271 23.1065L7.37612 23.0419Z" fill="black"/>
<path d="M175.557 37.4752V37.3783C175.557 37.3783 175.847 37.3783 176.169 37.5075C176.491 37.6366 176.845 37.8949 176.942 38.4115C177.135 39.38 177.135 40.3163 177.135 40.3486V40.4455H171.5L171.661 41.8014L176.394 42.318C176.394 42.318 176.459 42.318 176.523 42.3826C176.587 42.4472 176.62 42.544 176.62 42.6731C176.62 42.8023 176.587 42.996 176.491 43.222C176.201 43.9646 175.589 45.0946 175.428 45.3528C175.364 45.482 175.299 45.6111 175.138 45.708C175.01 45.8048 174.816 45.8694 174.527 45.8694C173.947 45.8694 169.278 45.6757 169.278 45.6757C169.246 45.6757 168.344 45.5788 167.636 44.1906C167.282 43.5126 166.831 42.2212 166.412 40.9943C165.994 39.7997 165.672 38.702 165.575 38.5083C165.543 38.4115 165.511 38.2823 165.511 38.1532C165.511 37.9272 165.575 37.6689 165.8 37.4752C165.994 37.2815 166.316 37.1523 166.766 37.1523C166.831 37.1523 166.927 37.1523 167.024 37.1523C168.763 37.1523 175.525 37.3461 175.525 37.3461L175.557 37.4752V37.5721C175.557 37.5721 175.138 37.5721 174.462 37.5398C172.466 37.4752 168.344 37.3783 167.056 37.3783C166.96 37.3783 166.863 37.3783 166.799 37.3783C166.38 37.3783 166.122 37.5075 165.961 37.6366C165.8 37.7981 165.736 37.9595 165.736 38.1532C165.736 38.25 165.768 38.3469 165.8 38.4438C165.897 38.6698 166.219 39.7675 166.638 40.962C167.056 42.1566 167.507 43.448 167.829 44.126C168.151 44.7717 168.537 45.1268 168.827 45.2883C168.956 45.3851 169.085 45.4174 169.181 45.4497C169.214 45.4497 169.246 45.482 169.278 45.482H169.31C169.31 45.482 170.469 45.5143 171.725 45.5788C172.981 45.6111 174.269 45.6757 174.559 45.6757C174.816 45.6757 174.977 45.6111 175.042 45.5466C175.138 45.482 175.203 45.3851 175.267 45.256C175.396 44.9977 176.008 43.8677 176.298 43.1574C176.394 42.9314 176.426 42.77 176.426 42.6731C176.426 42.5763 176.394 42.544 176.394 42.544L171.468 41.9952L171.242 40.2195H177.038V40.3163H176.942C176.942 40.3163 176.942 40.0903 176.909 39.7352C176.877 39.38 176.845 38.8958 176.748 38.4438C176.652 38.0241 176.362 37.7981 176.104 37.7012C175.976 37.6366 175.847 37.6043 175.75 37.6043C175.686 37.6043 175.654 37.6043 175.621 37.6043H175.589L175.557 37.4752Z" fill="black"/>
<path d="M64.402 0.573419V0.476562C72.9995 0.476562 88.4879 0.702562 90.4521 0.831705C92.2231 0.960847 95.9906 1.9617 96.699 2.15542L98.8242 3.02713L98.2446 2.99484C98.2446 2.99484 97.665 2.96256 96.6668 2.93027C93.7044 2.83342 87.2321 2.6397 82.724 2.54284C79.021 2.47827 68.4915 2.44599 59.733 2.44599C54.3233 2.44599 49.5899 2.44599 47.529 2.51056C44.8242 2.54284 41.089 2.70427 37.9977 2.8657C36.4521 2.93027 35.0997 2.99484 34.1015 3.05941C33.1033 3.12399 32.5237 3.15627 32.5237 3.15627L25.7616 3.7697L26.5988 2.93027C27.0818 2.47827 27.9512 2.09084 29.0138 1.76799C30.0764 1.44513 31.3323 1.18685 32.5559 1.02542C33.1999 0.928562 34.9387 0.86399 37.3537 0.799419C44.6632 0.573419 57.962 0.476562 64.402 0.476562V0.573419V0.670276C60.0872 0.670276 52.7455 0.702562 46.1766 0.799419C42.8922 0.831705 39.801 0.896276 37.3537 0.960847C34.9387 1.02542 33.1677 1.08999 32.5559 1.18685C31.3323 1.34828 30.0764 1.60656 29.046 1.92942C27.9834 2.25227 27.1462 2.6397 26.6954 3.05941L26.631 2.99484L26.7276 3.05941L26.309 3.47913L32.4915 2.93027C32.4915 2.93027 42.1194 2.4137 47.4968 2.31684C49.5577 2.28456 54.2911 2.25227 59.7008 2.25227C68.4593 2.25227 78.9566 2.28456 82.6918 2.34913C88.7133 2.44599 98.2124 2.76884 98.2124 2.76884V2.8657V2.99484L96.6668 2.34913C95.9262 2.15542 92.1587 1.15456 90.4521 1.02542C88.5201 0.896276 73.0317 0.670276 64.4342 0.670276V0.573419H64.402Z" fill="black"/>
<path d="M83.5611 2.47454L83.5289 2.44225L84.2373 1.44141H84.2695C85.6863 1.47369 86.7489 1.50598 87.2319 1.50598C88.4877 1.57055 89.486 2.1194 90.0978 2.60368L90.2266 2.70054H90.0656C87.876 2.63597 85.5897 2.5714 83.5611 2.53911H83.4645L83.5289 2.44225L83.5611 2.47454V2.40997C85.5575 2.44225 87.876 2.50683 90.0656 2.5714V2.63597L90.0334 2.66825C89.4216 2.21626 88.4555 1.6674 87.2319 1.60283C86.7489 1.57055 85.6863 1.57055 84.2695 1.53826V1.47369L84.3017 1.50598L83.6255 2.50683L83.5611 2.47454Z" fill="black"/>
<path d="M51.2323 2.37608L51.2001 2.3438L52.0051 1.34295H52.0373C56.2878 1.27838 60.989 1.24609 63.9836 1.24609C67.0748 1.24609 72.903 1.31066 77.9907 1.37524H78.0229L78.5059 2.50523H78.4093C73.4826 2.47294 66.141 2.44065 59.7332 2.44065C56.5132 2.44065 53.5507 2.44065 51.2323 2.47294H51.1357L51.2001 2.3438L51.2323 2.37608V2.31151C53.5507 2.31151 56.5132 2.27923 59.7332 2.27923C66.141 2.27923 73.4826 2.31151 78.4093 2.3438V2.40837L78.3449 2.44065L77.8941 1.40752L77.9585 1.37524V1.43981C72.8708 1.37524 67.0426 1.31066 63.9514 1.31066C60.9568 1.31066 56.2234 1.37524 52.0051 1.40752V1.34295L52.0373 1.37524L51.2323 2.37608Z" fill="black"/>
<path d="M33.8753 2.24854L33.8431 2.21626C34.0041 2.1194 34.3261 2.02254 34.8091 1.92569C36.2581 1.6674 39.0273 1.44141 42.2796 1.44141C42.8592 1.44141 43.5676 1.44141 44.3726 1.44141H44.4048L44.9844 2.53911H44.8878C40.3797 2.66825 34.7769 2.95882 33.0381 3.05568H32.9093L32.9737 2.95882C33.1991 2.66825 33.4889 2.37768 33.8109 2.18397L33.8753 2.24854L33.9075 2.28083C33.6177 2.47454 33.3279 2.73282 33.1025 3.02339L33.0703 2.99111V2.92654C34.8091 2.82968 40.412 2.53911 44.92 2.40997V2.47454L44.8878 2.50683L44.3726 1.50598L44.4048 1.47369V1.53826C43.5998 1.53826 42.8914 1.53826 42.3118 1.53826C40.1543 1.53826 38.1901 1.63512 36.7089 1.76426C35.9683 1.82883 35.3243 1.92569 34.8735 1.99026C34.3905 2.08711 34.0685 2.18397 33.9397 2.24854H33.8753Z" fill="black"/>
<path d="M163.321 47.6124L175.203 47.5801H175.236C175.236 47.5801 176.942 46.6438 177.908 45.7398L177.876 45.7076C176.942 46.6116 175.236 47.5478 175.236 47.5478L166.155 47.5801H163.418V47.5478C161.228 39.3796 153.822 33.3422 145.064 33.3422C136.338 33.3422 128.964 39.315 126.71 47.451V47.4833L85.4288 46.6438L56.9315 46.4501V46.4178C54.452 38.7339 47.4002 33.1484 39.1247 33.1484C31.6542 33.1484 25.1819 37.6684 22.1551 44.2224V44.2547L4.47708 43.9964V43.9641C4.47708 43.9641 4.44489 43.8996 4.34828 43.7704C4.12288 43.4153 3.57547 42.7373 3.06026 42.6727C2.89926 42.6404 2.73827 42.6404 2.54506 42.6404C1.96545 42.6404 1.32144 42.705 1.06384 42.7373V42.7696L0.613037 43.4153L1.03165 42.8018C1.09604 42.8018 1.28923 42.7696 1.48244 42.7696C1.77225 42.7373 2.19086 42.7373 2.54506 42.7373C2.73827 42.7373 2.89926 42.7373 3.06026 42.7696C3.35007 42.8018 3.63986 43.0278 3.89746 43.2861C4.15506 43.5444 4.34828 43.835 4.41269 43.9641L4.44487 44.0287L4.47708 44.0933L22.2195 44.3516L22.2517 44.287C25.2785 37.7653 31.7186 33.2453 39.1569 33.2453C47.4324 33.2453 54.452 38.7984 56.9315 46.4824L56.9637 46.547L85.4932 46.7407L126.806 47.5801L126.838 47.5155C129.06 39.4118 136.434 33.439 145.128 33.439C153.855 33.439 161.228 39.4441 163.45 47.6124H163.321ZM166.155 47.451L175.171 47.4187C175.236 47.3864 175.654 47.1281 176.169 46.8053C176.717 46.4501 177.329 46.0304 177.779 45.5784L177.812 45.4816C177.135 46.1596 175.976 46.8698 175.429 47.1927C175.3 47.2573 175.203 47.3218 175.171 47.3541L166.155 47.3864C166.155 47.4187 166.155 47.4187 166.155 47.451Z" fill="black"/>
<path d="M163.321 47.6124L175.203 47.5801H175.236C175.236 47.5801 176.942 46.6438 177.908 45.7398L177.876 45.7076C176.942 46.6116 175.236 47.5478 175.236 47.5478L166.155 47.5801H163.418V47.5478C161.228 39.3796 153.822 33.3422 145.064 33.3422C136.338 33.3422 128.964 39.315 126.71 47.451V47.4833L85.4288 46.6438L56.9315 46.4501V46.4178C54.452 38.7339 47.4002 33.1484 39.1247 33.1484C31.6542 33.1484 25.1819 37.6684 22.1551 44.2224V44.2547L4.47708 43.9964V43.9641C4.47708 43.9641 4.44489 43.8996 4.34828 43.7704C4.12288 43.4153 3.57547 42.7373 3.06026 42.6727C2.89926 42.6404 2.73827 42.6404 2.54506 42.6404C1.96545 42.6404 1.32144 42.705 1.06384 42.7373V42.7696L0.613037 43.4153L1.03165 42.8018C1.09604 42.8018 1.28923 42.7696 1.48244 42.7696C1.77225 42.7373 2.19086 42.7373 2.54506 42.7373C2.73827 42.7373 2.89926 42.7373 3.06026 42.7696C3.35007 42.8018 3.63986 43.0278 3.89746 43.2861C4.15506 43.5444 4.34828 43.835 4.41269 43.9641L4.44487 44.0287L4.47708 44.0933L22.2195 44.3516L22.2517 44.287C25.2785 37.7653 31.7186 33.2453 39.1569 33.2453C47.4324 33.2453 54.452 38.7984 56.9315 46.4824L56.9637 46.547L85.4932 46.7407L126.806 47.5801L126.838 47.5155C129.06 39.4118 136.434 33.439 145.128 33.439C153.855 33.439 161.228 39.4441 163.45 47.6124H163.321ZM166.155 47.451L175.171 47.4187C175.236 47.3864 175.654 47.1281 176.169 46.8053C176.717 46.4501 177.329 46.0304 177.779 45.5784L177.812 45.4816C177.135 46.1596 175.976 46.8698 175.429 47.1927C175.3 47.2573 175.203 47.3218 175.171 47.3541L166.155 47.3864C166.155 47.4187 166.155 47.4187 166.155 47.451Z" fill="black"/>
<path d="M161.356 58.8806H172.626L175.105 54.0054H176.007L176.039 53.9408C176.039 53.9408 177.231 51.8746 177.617 50.3894C178.003 48.9366 178.486 46.0309 178.486 46.0309V45.9663L178.036 45.5143L178.003 45.482L177.971 45.5789C177.939 45.6111 177.907 45.6434 177.907 45.6434L177.939 45.6757L178.261 45.9986C178.229 46.1923 178.132 46.8057 177.971 47.5806C177.81 48.4846 177.585 49.5823 177.392 50.2926C177.102 51.358 176.361 52.7786 176.039 53.4243C175.975 53.5534 175.91 53.6503 175.878 53.7148H174.976L172.497 58.59H161.581V52.5203C161.581 47.8711 159.714 43.674 156.719 40.6392C153.724 37.6043 149.57 35.6995 144.998 35.6995C140.426 35.6995 136.272 37.572 133.277 40.6392C130.282 43.674 128.415 47.9034 128.415 52.5203V56.6528H55.3844V52.4557C55.3844 47.7743 53.5489 43.5449 50.6187 40.51C47.6563 37.4429 43.5668 35.5703 39.0588 35.5703C34.5507 35.5703 30.4613 37.4752 27.4988 40.51C24.5364 43.5772 22.7332 47.8066 22.7332 52.4557V52.6494L4.66879 49.1626L0.54715 48.4523V43.3512L0.99794 42.7054H0.965744C0.933548 42.7054 0.901337 42.7054 0.901337 42.7054H0.836929V42.6409V42.544L0.321732 43.2866V48.646L4.6366 49.3886L22.9586 52.9077V52.7786V52.4557C22.9586 47.8389 24.7618 43.674 27.692 40.6392C30.6223 37.6043 34.6473 35.764 39.091 35.764C43.5346 35.764 47.5597 37.6366 50.4899 40.6392C53.4201 43.674 55.2234 47.8389 55.2234 52.4557V56.9111H128.64V52.5848C128.64 48.0003 130.476 43.8354 133.438 40.8329C136.4 37.8303 140.49 35.9577 145.03 35.9577C149.538 35.9577 153.628 37.8303 156.622 40.8329C159.585 43.8354 161.42 48.0003 161.42 52.5848V58.8806H161.356ZM177.778 45.6111C177.81 45.5789 177.81 45.5789 177.842 45.5466L177.907 45.4497L177.842 45.5143L177.778 45.6111Z" fill="black"/>
<path d="M166.122 47.5478L175.202 47.5155C175.202 47.5155 176.909 46.5792 177.843 45.6752C177.875 45.6429 177.907 45.6106 177.907 45.6106L177.939 45.5138L177.875 45.4492L177.811 45.5461C177.778 45.5784 177.778 45.5784 177.746 45.6106C177.295 46.0304 176.684 46.4824 176.136 46.8375C175.621 47.1603 175.202 47.3863 175.138 47.4509L166.122 47.4832C166.122 47.4509 166.122 47.4509 166.122 47.4186C166.122 47.4509 166.122 47.4832 166.154 47.5155V47.5801H166.122V47.5478Z" fill="black"/>
<path d="M163.449 47.4494H166.025C166.025 47.4171 166.025 47.4171 166.025 47.3848H163.482C161.228 39.1843 153.789 33.1468 144.999 33.1468C136.208 33.1468 128.802 39.152 126.516 47.2879L85.3635 46.4485L56.9628 46.2548C54.4511 38.5385 47.3349 32.9531 39.0272 32.9531C31.5245 32.9531 25.02 37.5054 21.961 44.0271L4.4762 43.8011C4.4118 43.7042 4.25078 43.446 4.05759 43.22C3.76778 42.8971 3.41357 42.542 2.99498 42.5097C2.83397 42.4774 2.64076 42.4774 2.44757 42.4774C1.86797 42.4774 1.22397 42.542 0.96637 42.5742V42.6388C1.22397 42.6065 1.86797 42.542 2.44757 42.542C2.64076 42.542 2.83397 42.542 2.99498 42.5742C3.38138 42.6065 3.76779 42.9617 4.02539 43.2845C4.25079 43.5428 4.4118 43.8011 4.4762 43.898L22.0254 44.1562C25.0844 37.6023 31.5567 33.0823 39.0594 33.0823C47.3671 33.0823 54.4511 38.6677 56.9628 46.3839L85.3957 46.5777L126.58 47.4171C128.834 39.2488 136.24 33.2437 144.999 33.2437C153.789 33.2114 161.228 39.2488 163.449 47.4494Z" fill="black"/>
<path d="M163.449 47.4494H166.025C166.025 47.4171 166.025 47.4171 166.025 47.3848H163.482C161.228 39.1843 153.789 33.1468 144.999 33.1468C136.208 33.1468 128.802 39.152 126.516 47.2879L85.3635 46.4485L56.9628 46.2548C54.4511 38.5385 47.3349 32.9531 39.0272 32.9531C31.5245 32.9531 25.02 37.5054 21.961 44.0271L4.4762 43.8011C4.4118 43.7042 4.25078 43.446 4.05759 43.22C3.76778 42.8971 3.41357 42.542 2.99498 42.5097C2.83397 42.4774 2.64076 42.4774 2.44757 42.4774C1.86797 42.4774 1.22397 42.542 0.96637 42.5742V42.6388C1.22397 42.6065 1.86797 42.542 2.44757 42.542C2.64076 42.542 2.83397 42.542 2.99498 42.5742C3.38138 42.6065 3.76779 42.9617 4.02539 43.2845C4.25079 43.5428 4.4118 43.8011 4.4762 43.898L22.0254 44.1562C25.0844 37.6023 31.5567 33.0823 39.0594 33.0823C47.3671 33.0823 54.4511 38.6677 56.9628 46.3839L85.3957 46.5777L126.58 47.4171C128.834 39.2488 136.24 33.2437 144.999 33.2437C153.789 33.2114 161.228 39.2488 163.449 47.4494Z" fill="black"/>
<path d="M0.902531 42.6386C0.902531 42.6386 0.934666 42.6386 0.966797 42.6386V42.5742C0.934666 42.5742 0.934662 42.5742 0.902531 42.5742V42.6386Z" fill="black"/>
<path d="M163.386 47.547H166.123H166.059V47.5147C166.059 47.4825 166.026 47.4502 166.026 47.3856C166.026 47.4179 166.026 47.4179 166.026 47.4502H163.45C161.229 39.2496 153.79 33.2122 145 33.2122C136.241 33.2122 128.835 39.2173 126.581 47.3856L85.3967 46.5462L56.9638 46.3525C54.4522 38.6362 47.3681 33.0508 39.0604 33.0508C31.5577 33.0508 25.0533 37.6031 22.0264 44.1248L4.47723 43.8988C4.41283 43.8019 4.25182 43.5436 4.02641 43.2853C3.73662 42.9625 3.38242 42.6396 2.996 42.575C2.83501 42.5428 2.6418 42.5428 2.44859 42.5428C1.86899 42.5428 1.22498 42.6073 0.967377 42.6396V42.7365C1.19278 42.7042 1.86899 42.6396 2.44859 42.6396C2.6418 42.6396 2.83501 42.6396 2.96381 42.6719C3.47902 42.7365 4.02643 43.4145 4.25183 43.7696C4.31622 43.8988 4.38062 43.9633 4.38062 43.9633V43.9956L22.0586 44.2539V44.2216C25.0855 37.6999 31.5577 33.1476 39.0282 33.1476C47.3037 33.1476 54.3556 38.7331 56.835 46.417V46.4493L85.3323 46.643L126.613 47.4825V47.4502C128.835 39.3142 136.209 33.3414 144.967 33.3414C153.726 33.3414 161.132 39.3788 163.322 47.547H163.386Z" fill="black"/>
<path d="M163.386 47.547H166.123H166.059V47.5147C166.059 47.4825 166.026 47.4502 166.026 47.3856C166.026 47.4179 166.026 47.4179 166.026 47.4502H163.45C161.229 39.2496 153.79 33.2122 145 33.2122C136.241 33.2122 128.835 39.2173 126.581 47.3856L85.3967 46.5462L56.9638 46.3525C54.4522 38.6362 47.3681 33.0508 39.0604 33.0508C31.5577 33.0508 25.0533 37.6031 22.0264 44.1248L4.47723 43.8988C4.41283 43.8019 4.25182 43.5436 4.02641 43.2853C3.73662 42.9625 3.38242 42.6396 2.996 42.575C2.83501 42.5428 2.6418 42.5428 2.44859 42.5428C1.86899 42.5428 1.22498 42.6073 0.967377 42.6396V42.7365C1.19278 42.7042 1.86899 42.6396 2.44859 42.6396C2.6418 42.6396 2.83501 42.6396 2.96381 42.6719C3.47902 42.7365 4.02643 43.4145 4.25183 43.7696C4.31622 43.8988 4.38062 43.9633 4.38062 43.9633V43.9956L22.0586 44.2539V44.2216C25.0855 37.6999 31.5577 33.1476 39.0282 33.1476C47.3037 33.1476 54.3556 38.7331 56.835 46.417V46.4493L85.3323 46.643L126.613 47.4825V47.4502C128.835 39.3142 136.209 33.3414 144.967 33.3414C153.726 33.3414 161.132 39.3788 163.322 47.547H163.386Z" fill="black"/>
<path d="M0.9346 42.7356H0.966797V42.6388C0.934592 42.6388 0.934588 42.6388 0.902384 42.6388V42.5742C0.870179 42.5742 0.837971 42.5742 0.837971 42.5742V42.6711L0.9346 42.7356Z" fill="black"/>
<path d="M166.057 47.5481H166.121H166.186V47.4836C166.186 47.4513 166.186 47.419 166.153 47.3867H166.057C166.057 47.419 166.089 47.4513 166.089 47.5159L166.057 47.5481Z" fill="black"/>
<path d="M0.806721 42.7356H0.871134C0.871134 42.7356 0.903342 42.7356 0.935547 42.7356L0.871134 42.7034H0.806721V42.7356ZM0.806721 42.6711H0.871134V42.5742H0.838917V42.6711H0.806721Z" fill="black"/>
<path d="M0.419498 44.8674V44.7706H0.516095C0.870296 44.7706 1.22451 44.7383 1.57872 44.7383C1.93292 44.7383 2.2871 44.7706 2.6091 44.8674C2.93111 44.9643 3.18872 45.1257 3.34972 45.4163C3.54292 45.7714 3.80052 46.4171 4.02592 47.1597C4.25132 47.9023 4.47673 48.7094 4.63773 49.2582L4.66992 49.4197L0.258498 48.6448V44.7383H0.355094L0.419498 44.8674H0.516095V48.4834L4.57333 49.1937L4.54111 49.2905L4.44452 49.3228C4.28352 48.7417 4.05813 47.9668 3.83273 47.2243C3.60732 46.4817 3.34971 45.8037 3.15651 45.5131C2.99551 45.2871 2.80231 45.1257 2.51251 45.0611C2.25491 44.9643 1.90071 44.9643 1.5465 44.9643C1.1923 44.9643 0.838104 44.9966 0.483902 44.9966H0.387306L0.419498 44.8674Z" fill="black"/>
<path d="M0.418969 48.5763H0.322373V45.832H0.451181C0.837583 45.8643 1.32057 45.9289 1.70698 45.9935C2.09338 46.058 2.41538 46.1549 2.57638 46.2517C2.64078 46.284 2.67298 46.3486 2.73738 46.4132C2.89839 46.6715 3.12379 47.1235 3.3492 47.64C3.5746 48.1566 3.79999 48.7054 3.96099 49.1251L4.02539 49.2866L0.354565 48.6409V48.544H0.418969L0.451181 48.4472L3.86439 49.0283L3.8322 49.1251L3.73558 49.1574C3.54238 48.6731 3.28479 48.0274 3.02719 47.4463C2.89839 47.1557 2.76958 46.8974 2.67298 46.7037C2.60858 46.6069 2.57638 46.51 2.51198 46.4777C2.47978 46.4132 2.44758 46.3809 2.41538 46.3809C2.31878 46.3163 1.99678 46.2195 1.61038 46.1549C1.22398 46.0903 0.773179 46.0257 0.386777 45.9935V45.8966H0.483374V48.544H0.418969V48.5763Z" fill="black"/>
<path d="M161.486 54.1349V54.0704C163.257 54.0704 165.35 54.0704 167.217 54.0704C169.311 54.0704 171.082 54.0704 171.693 54.0704H171.726C173.561 54.0704 174.849 51.875 175.557 50.971C175.944 50.4867 176.813 50.3253 177.522 50.293H177.586L177.554 50.3898C177.167 51.8427 175.976 53.9089 175.976 53.9089V53.9412H175.074L172.595 58.8163H161.421V54.0704H161.486V54.1349H161.55V58.7195H172.531L175.01 53.8444H175.944V53.9089L175.912 53.8767C175.912 53.8767 175.976 53.7475 176.105 53.5215C176.459 52.8758 177.2 51.423 177.489 50.3575H177.554V50.4221C176.845 50.4544 176.008 50.6158 175.686 51.0678C175.01 51.9395 173.722 54.1995 171.79 54.1995H171.758C171.114 54.1995 169.343 54.1995 167.282 54.1995C165.414 54.1995 163.321 54.1995 161.55 54.1995V54.1349H161.486Z" fill="black"/>
<path d="M3.99527 47.4513V47.3867L23.2188 49.0333V49.0978C22.9933 50.1956 22.8967 51.3255 22.8967 52.5201V52.843V52.9075L4.63927 49.3884H4.54265H4.51046V49.3561C4.38166 48.8396 4.18846 48.1616 3.96305 47.4836L3.93086 47.419H3.99527V47.4513H4.05965C4.25285 48.1293 4.47826 48.8073 4.60706 49.3238H4.54265V49.2593H4.63927L22.7679 52.7461V52.4878C22.7679 51.3255 22.8968 50.1633 23.09 49.0656H23.1543V49.1301L3.99527 47.4836V47.4513Z" fill="black"/>
<path d="M119.917 19.4258L119.949 19.3289C119.949 19.3289 120.304 19.4258 120.722 19.5872C121.141 19.7164 121.592 19.9101 121.817 20.0392C121.978 20.1683 122.171 20.2975 122.3 20.4912C122.429 20.6849 122.525 20.8786 122.525 21.1369C122.525 21.2338 122.525 21.2983 122.493 21.3952C122.332 22.0086 121.914 22.6543 121.914 22.6543L121.881 22.6866H121.817C121.817 22.6866 121.463 22.6866 120.915 22.6543C119.273 22.622 115.924 22.5575 115.474 22.5575C115.152 22.5575 114.604 22.5575 114.121 22.4283C113.864 22.3638 113.638 22.2669 113.445 22.1378C113.252 22.0086 113.123 21.7826 113.059 21.5566C113.026 21.3952 113.026 21.2015 113.026 20.9755C113.026 20.3298 113.091 19.3935 113.187 18.6186C113.22 18.2312 113.284 17.8761 113.348 17.6178C113.381 17.4887 113.413 17.3595 113.413 17.2949C113.413 17.2627 113.445 17.2304 113.445 17.1981C113.477 17.1658 113.477 17.1335 113.509 17.1012C113.735 16.9721 114.218 16.7461 115.313 16.7461C115.409 16.7461 115.538 16.7461 115.635 16.7461C116.955 16.7784 117.792 16.9721 118.5 17.5532C119.209 18.1344 120.014 19.3935 120.014 19.3935L119.917 19.4258L119.821 19.4904C119.821 19.4904 119.756 19.4258 119.692 19.2966C119.434 18.9092 118.855 18.1021 118.372 17.7147C117.695 17.1981 116.923 17.0044 115.635 16.9398C115.506 16.9398 115.409 16.9398 115.313 16.9398C114.25 16.9398 113.799 17.1335 113.638 17.2627C113.638 17.2627 113.606 17.3272 113.574 17.4241C113.413 18.0375 113.187 19.9424 113.187 21.0078C113.187 21.2338 113.187 21.4275 113.22 21.5566C113.252 21.7503 113.348 21.8795 113.509 22.0086C113.992 22.3638 114.958 22.396 115.441 22.396C116.053 22.396 121.817 22.5252 121.817 22.5252V22.622L121.72 22.5575C121.72 22.5575 121.753 22.5252 121.785 22.4606C121.914 22.2669 122.171 21.7826 122.268 21.3952C122.3 21.3306 122.3 21.2661 122.3 21.2015C122.3 21.0078 122.236 20.8463 122.107 20.6849C121.978 20.5235 121.817 20.3943 121.656 20.2975C121.495 20.1683 121.044 20.0069 120.626 19.8778C120.239 19.7486 119.885 19.6518 119.885 19.6518H119.853L119.821 19.6195L119.917 19.4258Z" fill="black"/>
<path d="M113.122 21.5223H113.058C113.026 21.3931 113.026 21.1994 113.026 20.9411C113.026 20.2954 113.09 19.3591 113.187 18.5843C113.219 18.1969 113.283 17.8417 113.348 17.5834C113.38 17.4543 113.412 17.3252 113.412 17.2606C113.444 17.1637 113.444 17.1314 113.509 17.0992C113.67 17.0023 113.96 16.8732 114.539 16.8086H114.668L114.604 16.9054C114.378 17.2283 114.088 17.7449 114.056 18.2614C114.024 18.778 113.96 19.6497 113.96 20.5214C113.96 21.1671 113.992 21.8128 114.121 22.3294L114.153 22.4263L114.056 22.394C113.573 22.2648 113.122 22.0388 113.058 21.5546L113.122 21.5223H113.187C113.251 21.942 113.638 22.168 114.088 22.2648V22.3294H114.024C113.895 21.8128 113.863 21.1671 113.863 20.5214C113.863 19.6497 113.927 18.7457 113.96 18.2614C113.992 17.6803 114.282 17.1637 114.507 16.8409L114.539 16.8732V16.9377C113.96 17.0023 113.67 17.1314 113.541 17.2283C113.541 17.2283 113.509 17.2929 113.477 17.3574C113.316 17.9386 113.09 19.908 113.09 20.9734C113.09 21.1994 113.09 21.3931 113.122 21.5223Z" fill="black"/>
<path d="M113.958 19.4247H113.894C113.926 18.9405 113.958 18.553 113.958 18.2625C113.99 17.6813 114.28 17.1648 114.505 16.8419V16.8096H114.538C114.731 16.7773 114.988 16.7773 115.278 16.7773C115.375 16.7773 115.504 16.7773 115.6 16.7773C116.921 16.8096 117.726 17.0033 118.434 17.5845C119.142 18.1333 119.947 19.4247 119.947 19.4247L120.012 19.5216H119.915C119.915 19.5216 118.885 19.5216 117.661 19.5216C116.405 19.5216 114.956 19.5216 114.055 19.5216H113.958H113.894V19.457L113.958 19.4247V19.3602H114.055C114.956 19.3602 116.405 19.3602 117.661 19.3602C118.917 19.3602 119.915 19.3602 119.915 19.3602V19.4247L119.883 19.457C119.883 19.457 119.69 19.1342 119.4 18.7468C119.11 18.3593 118.756 17.9073 118.402 17.6491C117.726 17.1002 116.953 16.9388 115.633 16.8742C115.504 16.8742 115.407 16.8742 115.311 16.8742C115.021 16.8742 114.795 16.8742 114.57 16.9065V16.8419L114.602 16.8742C114.377 17.1971 114.087 17.7136 114.055 18.2302C114.055 18.5208 114.022 18.9405 113.99 19.3925L113.958 19.4247Z" fill="black"/>
<path d="M79.4404 20.9444H79.376L79.1827 5.38281L84.3348 5.4151L86.4922 21.2672L79.376 20.9767V20.9121L79.4404 20.9444V20.8798L86.3634 21.1704L84.2382 5.54424L79.2794 5.51195L79.4725 20.9444H79.4404Z" fill="black"/>
<path d="M102.495 5.67315V5.57629C103.396 5.57629 104.33 5.544 105.2 5.51172H105.232H105.264C109.579 7.804 129.704 20.3631 133.15 22.5263L133.375 22.6877L133.085 22.7523C132.055 22.946 130.896 23.0105 129.833 23.0428H129.801L101.11 5.60858H101.497C101.851 5.60858 102.205 5.60858 102.463 5.60858V5.67315V5.77C102.173 5.77 101.851 5.77 101.497 5.77V5.67315L101.561 5.57629L129.865 22.7845L129.801 22.8814V22.7845C130.831 22.7523 131.99 22.6554 133.021 22.494L133.053 22.5908L132.989 22.6877C129.575 20.5568 109.418 7.99771 105.135 5.70543L105.2 5.60858V5.70543C104.298 5.73772 103.396 5.77 102.463 5.77V5.67315H102.495Z" fill="black"/>
<path d="M19.9988 6.34893V6.25207L23.2832 6.28436L14.3638 19.4245H14.2994C12.5284 19.4245 10.854 19.3922 9.40495 19.3922H9.17954L19.7412 6.1875L20.031 6.25207L19.9988 6.34893L19.9666 6.44578L19.8056 6.4135L9.46935 19.3277L9.37274 19.2631V19.1662C10.8217 19.1662 12.5284 19.1985 14.2672 19.1985V19.2954L14.1706 19.2308L22.8646 6.47807L19.9666 6.44578L19.9988 6.34893Z" fill="black"/>
<path d="M5.21621 19.2323L5.11962 19.1677L16.3897 5.41406L19.9962 6.2212L39.574 6.41492C39.574 6.41492 40.0892 6.47949 40.6044 6.6732C40.862 6.77006 41.1196 6.8992 41.345 7.06063C41.5382 7.22206 41.6992 7.44806 41.6992 7.73863C41.6992 7.86777 41.667 7.99691 41.6348 8.12606C41.506 8.4812 41.1196 8.96548 40.6366 9.6112C39.1554 11.4838 36.4506 14.3572 35.0337 15.81C33.1661 17.7472 31.4595 19.2 28.5615 19.3615C27.5955 19.426 24.7618 19.426 21.413 19.426C15.3593 19.426 7.47023 19.3615 5.24841 19.3615H5.05521L5.184 19.2L5.21621 19.2323V19.1355C7.43804 19.1355 15.2949 19.2 21.3808 19.2C24.7618 19.2 27.5633 19.1677 28.5293 19.1355C31.3629 18.974 32.9729 17.5858 34.8727 15.6486C35.8065 14.68 37.32 13.098 38.6724 11.5806C39.3486 10.8381 39.9604 10.0955 40.4756 9.44977C40.9586 8.83634 41.3128 8.31977 41.4416 8.0292C41.4738 7.93234 41.506 7.83549 41.506 7.73863C41.506 7.54492 41.4094 7.3512 41.2162 7.22206C40.9586 6.99606 40.54 6.83463 40.1858 6.77006C40.0248 6.73777 39.8638 6.70549 39.735 6.6732C39.6062 6.64092 39.5418 6.64092 39.5418 6.64092L19.964 6.4472L16.4863 5.67235L5.28062 19.2969L5.21621 19.2323Z" fill="black"/>
<path d="M47.8506 17.4895L47.7862 17.4572C48.2692 16.4563 52.584 9.35354 54.1296 7.54556C54.6126 6.96442 55.321 6.51242 56.0938 6.15728L56.1582 6.125V20.1692H56.0938C53.0348 20.04 50.7486 19.9109 49.9758 19.8463C48.6878 19.7172 47.8506 19.3943 47.5608 18.8777C47.4964 18.7486 47.4642 18.6195 47.4642 18.458C47.4642 18.1675 47.5608 17.8446 47.754 17.4572L47.8506 17.4895L47.915 17.5218C47.7218 17.9092 47.6252 18.1998 47.6252 18.458C47.6252 18.5872 47.6574 18.7163 47.7218 18.8455C47.9472 19.2975 48.7522 19.6203 50.0402 19.7495C50.813 19.8463 53.0992 19.9432 56.126 20.0723V20.1369H56.0616V6.22186H56.126L56.1582 6.28643C55.3854 6.64157 54.7092 7.09356 54.2262 7.64241C52.7128 9.41811 48.398 16.5209 47.915 17.5218L47.8506 17.4895Z" fill="black"/>
<path d="M47.9477 17.1334L47.8512 17.1011C48.3664 16.068 52.4558 9.41716 53.937 7.70602C55.4182 5.96259 58.4773 5.34916 60.5703 5.34916C61.6007 5.34916 66.8816 5.34916 71.9048 5.34916C74.4164 5.34916 76.8637 5.34916 78.6669 5.34916C79.5685 5.34916 80.3413 5.34916 80.8565 5.34916C81.3717 5.34916 81.6937 5.34916 81.6937 5.34916C81.6937 5.34916 82.7241 5.34916 84.3342 5.38145C89.1642 5.44602 99.2751 5.57516 102.495 5.57516C105.425 5.57516 108.484 5.25231 110.159 5.05859H110.191H110.223C110.288 5.09088 110.32 5.09088 110.32 5.09088C110.32 5.09088 118.66 9.93373 122.363 12.3229C126.066 14.712 133.762 20.1683 133.762 20.1683L133.697 20.2651V20.1683L134.857 20.0714L136.145 20.8786V20.9431C136.08 21.4274 135.758 21.7826 135.243 22.0731C134.502 22.4928 133.375 22.7188 132.152 22.848C130.96 22.9771 129.704 23.0094 128.674 23.0094C127.515 23.0094 126.678 22.9448 126.678 22.9448L118.982 22.622V22.396C120.463 22.4283 121.815 22.4606 121.815 22.4606V22.5574L121.719 22.4928C121.719 22.4928 121.751 22.4606 121.783 22.396C121.912 22.2023 122.17 21.718 122.266 21.3306C122.298 21.266 122.298 21.2014 122.298 21.1368C122.298 20.9431 122.234 20.7817 122.105 20.6203C121.976 20.4588 121.815 20.3297 121.654 20.2328C121.493 20.1037 121.043 19.9423 120.624 19.8131C120.238 19.684 119.883 19.5871 119.883 19.5871H119.851L119.819 19.5548C119.819 19.5548 119.755 19.4903 119.69 19.3611C119.433 18.9737 118.853 18.1666 118.37 17.7791C117.694 17.2626 116.921 17.0689 115.633 17.0043C115.504 17.0043 115.408 17.0043 115.311 17.0043C114.248 17.0043 113.797 17.198 113.636 17.3271C113.636 17.3271 113.604 17.3917 113.572 17.4886C113.411 18.102 113.186 20.0068 113.186 21.0723C113.186 21.2983 113.186 21.492 113.218 21.6211C113.25 21.8148 113.347 21.944 113.508 22.0731C113.669 22.2023 113.894 22.2668 114.119 22.3314L115.118 22.5897L83.1749 21.2983C83.1749 21.2983 75.7367 21.0723 67.912 20.814C60.0873 20.5557 51.8762 20.2328 50.2984 20.0714C49.2358 19.9423 48.5596 19.7163 48.141 19.4257C47.7224 19.1351 47.5292 18.7154 47.5614 18.328C47.5614 17.9406 47.7224 17.5531 47.8834 17.198L47.9477 17.1334L48.0444 17.1657C47.8834 17.4886 47.7545 17.8437 47.7545 18.1988C47.7545 18.5217 47.8833 18.8446 48.2697 19.1028C48.6562 19.3611 49.3002 19.5871 50.3306 19.7163C51.8762 19.8777 60.1195 20.2006 67.912 20.4588C71.8082 20.588 75.6401 20.7171 78.4737 20.814C79.8905 20.8463 81.0497 20.9108 81.8869 20.9108C82.6919 20.9431 83.1749 20.9431 83.1749 20.9431L114.119 22.2023V22.2991L114.087 22.396C113.83 22.3314 113.604 22.2346 113.411 22.1054C113.218 21.9763 113.089 21.7503 113.025 21.5243C112.992 21.3628 112.992 21.1691 112.992 20.9431C112.992 20.2974 113.057 19.3611 113.153 18.5863C113.186 18.1988 113.25 17.8437 113.314 17.5854C113.347 17.4563 113.379 17.3271 113.379 17.2626C113.379 17.2303 113.411 17.198 113.411 17.1657C113.443 17.1334 113.443 17.1011 113.475 17.0689C113.701 16.9397 114.184 16.7137 115.279 16.7137C115.375 16.7137 115.504 16.7137 115.601 16.7137C116.921 16.746 117.758 16.9397 118.467 17.5209C119.175 18.102 119.98 19.3611 119.98 19.3611L119.883 19.4257L119.916 19.3288C119.916 19.3288 120.27 19.4257 120.688 19.5871C121.107 19.7163 121.558 19.91 121.783 20.0391C121.944 20.1683 122.137 20.2974 122.266 20.4911C122.395 20.6848 122.492 20.8786 122.492 21.1368C122.492 21.2337 122.492 21.2983 122.459 21.3951C122.298 22.0086 121.88 22.6543 121.88 22.6543L121.848 22.6866H121.783C121.783 22.6866 121.429 22.6866 120.914 22.6543C120.399 22.6543 119.69 22.622 118.95 22.622V22.5251V22.4283L126.645 22.7511C126.645 22.7511 126.839 22.7511 127.193 22.7834C127.547 22.7834 128.03 22.8157 128.61 22.8157C129.962 22.8157 131.733 22.7511 133.214 22.4606C133.955 22.3314 134.599 22.1377 135.082 21.8794C135.565 21.6211 135.823 21.2983 135.855 20.9108H135.951L135.887 21.0077L134.728 20.2974L133.601 20.3943L133.569 20.362C133.569 20.362 133.085 20.0068 132.313 19.458C129.962 17.8114 124.939 14.2923 122.17 12.5166C120.334 11.322 117.307 9.51401 114.763 8.02887C113.475 7.2863 112.348 6.6083 111.479 6.09173C110.642 5.60745 110.127 5.28459 110.127 5.28459L110.191 5.18774L110.159 5.28459C110.159 5.28459 110.127 5.28459 110.062 5.25231L110.094 5.15545V5.25231C108.452 5.44602 105.361 5.76888 102.399 5.76888C98.0837 5.76888 81.5971 5.54288 81.5971 5.54288C81.5971 5.54288 62.5345 5.54288 60.4737 5.54288C58.4451 5.54288 55.4182 6.18859 54.0014 7.83516C52.5524 9.51401 48.4307 16.1971 47.9477 17.198V17.1334Z" fill="black"/>
<path d="M41.7331 33.2768L41.6365 33.3091C41.6365 33.3091 41.7331 26.4645 41.8619 23.3328C41.9907 20.1688 42.9889 17.5537 44.5668 15.1968C45.3718 14.0022 47.175 11.8068 48.9782 9.74054C50.8136 7.64197 52.649 5.70484 53.5507 4.99455C54.3557 4.38112 55.7403 4.05827 57.2215 3.89684C58.7349 3.73541 60.3449 3.70312 61.5363 3.70312C61.955 3.70312 62.3414 3.70312 62.6312 3.70312C64.692 3.70312 79.9872 3.83227 81.3074 3.83227C82.6276 3.83227 92.1589 4.05827 94.9281 4.09055C97.6973 4.15512 99.082 4.25198 100.112 4.54255C101.143 4.83312 103.687 6.05998 103.687 6.05998C107.293 7.99712 127.676 20.7499 127.676 20.7499L127.805 20.8145L125.164 22.9454L125.1 22.8485L125.196 22.8162C125.196 22.8162 126.227 28.4662 126.323 30.9845C126.323 31.1136 126.323 31.2428 126.323 31.4042C126.323 34.2776 125.486 41.6065 125.229 43.5436C125.1 44.5768 124.456 47.3856 123.876 49.9362C123.264 52.4867 122.717 54.779 122.717 54.779L122.685 54.8759H57.8655V54.779C57.8655 52.8742 57.6079 50.7756 57.3503 49.129C57.2215 48.3219 57.0927 47.6116 56.9961 47.1273C56.8995 46.643 56.8351 46.3525 56.8351 46.3525C54.6133 39.5079 48.8172 34.3745 41.7331 33.3091H41.6687V33.2445L41.7331 33.2768V33.1799C48.9138 34.2453 54.7743 39.4433 56.9961 46.3525C56.9961 46.3525 58.0265 50.9693 58.0265 54.8113H57.9299V54.7145H122.588V54.8113L122.492 54.779C122.492 54.779 122.62 54.1979 122.846 53.3262C123.49 50.6465 124.81 45.0933 125.003 43.5759C125.261 41.6388 126.098 34.2776 126.098 31.4365C126.098 31.2751 126.098 31.1459 126.098 31.0168C126.034 29.7899 125.776 27.7559 125.518 26.0448C125.39 25.1731 125.261 24.3982 125.164 23.8171C125.068 23.2359 125.003 22.8808 125.003 22.8808V22.8162L127.579 20.7499L127.644 20.8468L127.579 20.9437C127.579 20.9437 127.257 20.7499 126.71 20.3948C122.749 17.9088 106.778 7.93254 103.622 6.18912L103.687 6.09226L103.654 6.18912C103.654 6.18912 103.01 5.89855 102.238 5.54341C101.465 5.22055 100.595 4.83312 100.08 4.70398C99.1142 4.41341 97.7296 4.31655 94.9603 4.28427C92.1911 4.2197 82.692 4.02598 81.3718 4.02598C80.0516 4.02598 64.7564 3.89684 62.6956 3.89684C62.3736 3.89684 62.0193 3.89684 61.6007 3.89684C60.3771 3.89684 58.7993 3.92912 57.2859 4.09055C55.8047 4.25198 54.4201 4.57484 53.7117 5.15598C52.8422 5.83398 50.9746 7.8034 49.1714 9.86968C47.336 11.936 45.5328 14.1314 44.76 15.326C43.1821 17.6505 42.2161 20.2334 42.0873 23.3651C42.0229 24.9148 41.9585 27.4331 41.9263 29.5316C41.8941 30.5971 41.8941 31.5334 41.8941 32.2114C41.8941 32.8894 41.8619 33.3414 41.8619 33.3414L41.7331 33.2768Z" fill="black"/>
<path d="M44.6308 15.195L44.5342 15.1304C45.3392 13.9358 47.1425 11.7404 48.9457 9.67413C50.7811 7.57557 52.6165 5.63843 53.5181 4.92814C54.3231 4.31472 55.7078 3.99186 57.189 3.83043C58.7024 3.669 60.3124 3.63672 61.5038 3.63672C61.9224 3.63672 62.3088 3.63672 62.5986 3.63672C64.6594 3.63672 79.9546 3.76586 81.2748 3.76586C81.307 3.76586 81.3714 3.76586 81.4358 3.76586H81.5324L83.1747 20.4575L83.8187 23.0727L84.6881 28.8518V30.4338L85.2033 40.2486L85.3965 43.1866V46.5766L85.1711 54.9386H57.7364V54.8417C57.7364 52.9369 57.4788 50.8383 57.2212 49.1918C57.0924 48.3846 56.9636 47.6743 56.867 47.19C56.7704 46.7058 56.706 46.4152 56.706 46.4152C54.4841 39.5706 48.6881 34.4372 41.604 33.3718H41.5396L41.5074 33.3072C41.5074 33.3072 41.604 26.4627 41.7328 23.331C41.8616 20.167 42.8598 17.5518 44.4376 15.195H44.6308L44.7274 15.2595C43.1496 17.5841 42.1836 20.167 42.0548 23.2987C41.9904 24.8484 41.926 27.3667 41.8938 29.4652C41.8616 30.5307 41.8616 31.4669 41.8616 32.1449C41.8616 32.8229 41.8294 33.2749 41.8294 33.2749H41.7328V33.1781C48.9135 34.2435 54.7739 39.4415 56.9958 46.3506C56.9958 46.3506 58.0262 50.9675 58.0262 54.8095H57.9296V54.7126H85.0423L85.2677 46.5766V43.2189L85.0745 40.2809L84.5593 30.4661V28.8841L83.6899 23.1372L83.0459 20.5221L81.4036 3.895H81.5002V3.99186C81.4358 3.99186 81.3714 3.99186 81.3392 3.99186C80.019 3.99186 64.7239 3.86272 62.663 3.86272C62.341 3.86272 61.9868 3.86272 61.5682 3.86272C60.3446 3.86272 58.7668 3.895 57.2534 4.05643C55.7721 4.21786 54.3875 4.54072 53.6791 5.12186C52.8097 5.79986 50.9421 7.76928 49.1389 9.83556C47.3035 11.9018 45.5002 14.0973 44.7274 15.2918L44.6308 15.195Z" fill="black"/>
</g>
<defs>
<clipPath id="clip0_7800_4964">
<rect width="180" height="66.1856" fill="white" transform="matrix(-1 0 0 1 180 0.40625)"/>
</clipPath>
</defs>
</svg>
