<svg width="180" height="67" viewBox="0 0 180 67" fill="none" xmlns="http://www.w3.org/2000/svg">
<g clip-path="url(#clip0_45_49)">
<path d="M154.592 52.1767H154.689C154.689 44.4605 148.442 38.2294 140.779 38.2294C133.083 38.2294 126.868 44.4927 126.868 52.1767C126.868 59.8929 133.115 66.124 140.779 66.124C148.474 66.124 154.689 59.8606 154.689 52.1767H154.592H154.496C154.496 55.9864 152.95 59.4086 150.471 61.8946C147.991 64.3806 144.546 65.9303 140.779 65.9303C136.979 65.9303 133.566 64.3806 131.086 61.8946C128.607 59.4086 127.061 55.9864 127.061 52.1767C127.061 48.367 128.607 44.9447 131.086 42.4588C133.566 39.9728 137.011 38.4231 140.779 38.4231C144.578 38.4231 147.991 39.9728 150.471 42.4588C152.95 44.9447 154.496 48.367 154.496 52.1767H154.592Z" fill="black"/>
<path d="M143.935 42.4899L143.967 42.393C142.904 42.0379 141.842 41.8765 140.811 41.8765C136.496 41.8765 132.471 44.653 131.055 48.9793C130.7 50.0447 130.539 51.1101 130.539 52.1432C130.539 56.4695 133.309 60.5052 137.623 61.9257C138.686 62.2809 139.749 62.4423 140.779 62.4423C145.094 62.4423 149.119 59.6657 150.536 55.3395C150.89 54.2741 151.051 53.2087 151.051 52.1755C151.051 47.8493 148.282 43.8136 143.967 42.393L143.935 42.4899L143.902 42.5867C148.153 43.975 150.858 47.9138 150.858 52.1432C150.858 53.1764 150.697 54.2095 150.375 55.2426C148.99 59.5043 145.062 62.2163 140.843 62.2163C139.813 62.2163 138.783 62.0549 137.752 61.732C133.502 60.3437 130.797 56.4049 130.797 52.1755C130.797 51.1424 130.958 50.1092 131.28 49.0761C132.665 44.8144 136.593 42.1025 140.811 42.1025C141.842 42.1025 142.872 42.2639 143.902 42.5867L143.935 42.4899Z" fill="black"/>
<path d="M49.0073 52.1767H49.1039C49.1039 44.4605 42.8571 38.2294 35.1934 38.2294C27.4976 38.2294 21.283 44.4927 21.283 52.1767C21.283 59.8929 27.5298 66.124 35.1934 66.124C42.8893 66.124 49.1039 59.8606 49.1039 52.1767H49.0073H48.9107C48.9107 55.9864 47.3651 59.4086 44.8857 61.8946C42.4063 64.3806 38.993 65.9303 35.1934 65.9303C31.3938 65.9303 27.9806 64.3806 25.5012 61.8946C23.0218 59.4086 21.4762 55.9864 21.4762 52.1767C21.4762 48.367 23.0218 44.9447 25.5012 42.4588C27.9806 39.9728 31.426 38.4231 35.1934 38.4231C38.993 38.4231 42.4063 39.9728 44.8857 42.4588C47.3651 44.9447 48.9107 48.367 48.9107 52.1767H49.0073Z" fill="black"/>
<path d="M38.3173 42.4899L38.3495 42.393C37.2869 42.0379 36.2242 41.8765 35.1938 41.8765C30.879 41.8765 26.854 44.653 25.4372 48.9793C25.083 50.0447 24.922 51.1101 24.922 52.1432C24.922 56.4695 27.6912 60.5052 32.006 61.9257C33.0686 62.2809 34.1312 62.4423 35.1616 62.4423C39.4765 62.4423 43.5015 59.6657 44.9183 55.3395C45.2725 54.2741 45.4335 53.2087 45.4335 52.1755C45.4335 47.8493 42.6643 43.8136 38.3495 42.393L38.3173 42.4899L38.2851 42.5867C42.5355 43.975 45.2403 47.9138 45.2403 52.1432C45.2403 53.1764 45.0793 54.2095 44.7573 55.2426C43.3727 59.5043 39.4443 62.2163 35.226 62.2163C34.1956 62.2163 33.1652 62.0549 32.1348 61.732C27.8844 60.3437 25.1796 56.4049 25.1796 52.1755C25.1796 51.1424 25.3406 50.1092 25.6626 49.0761C27.0472 44.8144 30.9756 42.1025 35.1938 42.1025C36.2242 42.1025 37.2547 42.2639 38.2851 42.5867L38.3173 42.4899Z" fill="black"/>
<path d="M91.8989 26.1551H91.7701C91.7701 26.2843 91.6413 26.4134 91.5125 26.4134L82.5609 26.2843C82.3999 26.2843 82.3033 26.1551 82.3033 26.026V25.7031C82.3033 25.5417 82.4321 25.4449 82.5609 25.4449L91.5125 25.2511C91.6413 25.2511 91.7701 25.3803 91.7701 25.5094V26.1551H91.8989H91.9955V25.5094C91.9955 25.2511 91.7701 25.0251 91.5125 25.0251L82.5609 25.2189C82.3033 25.2189 82.0779 25.4449 82.0779 25.7031V26.026C82.0779 26.2843 82.3033 26.5103 82.5609 26.5103L91.5125 26.6394C91.7701 26.6394 91.9955 26.4134 91.9955 26.1551H91.8989Z" fill="black"/>
<path d="M134.372 24.7989H134.276C134.276 24.928 134.147 25.0572 134.018 25.0572L125.066 24.928C124.905 24.928 124.809 24.7989 124.809 24.6697V24.3469C124.809 24.1855 124.937 24.0886 125.066 24.0886L134.018 23.9272C134.147 23.9272 134.276 24.0563 134.276 24.1855V24.8312H134.372H134.469V24.1855C134.469 23.9272 134.243 23.7012 133.986 23.7012L125.034 23.8626C124.776 23.8626 124.551 24.0886 124.551 24.3469V24.6697C124.551 24.928 124.776 25.154 125.034 25.154L133.986 25.2832C134.243 25.2832 134.469 25.0572 134.469 24.7989H134.372Z" fill="black"/>
<path d="M4.98998 26.9277L4.92558 26.8632C4.79678 27.0246 4.70018 27.1214 4.70018 27.1214L1.02936 34.5471H2.31736L2.34956 34.5148C2.34956 34.5148 4.34597 31.8028 5.98818 29.3168C6.59998 28.4129 7.24399 27.6057 7.82359 26.9923L7.98459 26.7986H4.98998L4.95778 26.8309L4.98998 26.9277V27.0246H7.72699V26.9277L7.66259 26.8632C7.08299 27.5089 6.43898 28.2837 5.82718 29.22C5.02218 30.4468 4.08837 31.7705 3.41217 32.7391C3.05797 33.2234 2.76817 33.6431 2.54276 33.9337C2.31736 34.2242 2.22076 34.3857 2.22076 34.3857L2.31736 34.4502V34.3534H1.35136L4.86118 27.2183L4.76458 27.186L4.86118 27.2506C4.86118 27.2506 4.95778 27.1537 5.08658 26.9923L4.98998 26.9277Z" fill="black"/>
<path d="M7.37254 25.2172V25.1526H7.30814C6.82513 25.1526 6.18113 25.6369 5.66593 26.1535C5.15073 26.6378 4.73212 27.1221 4.73212 27.1221L1.09351 34.5154H2.25271L2.28491 34.4831C2.28491 34.4831 4.28132 31.7712 5.92353 29.2852C6.72853 28.0583 7.63014 27.0252 8.33854 26.3472C8.69274 25.9921 8.98254 25.7338 9.17574 25.5401C9.36894 25.3464 9.49775 25.2495 9.49775 25.2495V25.2172C9.52995 25.0235 9.75535 24.7329 10.0773 24.4746C10.3671 24.2164 10.7536 23.9904 11.0434 23.8289L11.1078 23.7967L11.0756 23.7321C10.979 23.6029 10.818 23.4415 10.6892 23.2801L10.657 23.2478H10.6248C10.4315 23.2801 10.2705 23.3447 10.1417 23.3769C8.40294 23.8612 7.30814 25.1204 7.30814 25.1204L7.37254 25.2172L7.40474 25.2495C7.40474 25.2495 7.46914 25.1849 7.59794 25.0558C7.98434 24.6684 8.91814 23.8935 10.1739 23.5384C10.3027 23.5061 10.4637 23.4738 10.657 23.4092V23.3447L10.6248 23.3769C10.7858 23.5384 10.9146 23.6998 11.0112 23.8289L11.0434 23.7967L11.0112 23.7321C10.6892 23.8935 10.3027 24.1195 10.0129 24.4101C9.69095 24.6684 9.46555 24.9589 9.40115 25.1849H9.46555H9.43335C9.43335 25.1849 7.46914 26.7346 5.82693 29.2529C5.02192 30.4797 4.08812 31.8034 3.41192 32.772C3.05772 33.2563 2.76791 33.676 2.54251 33.9666C2.31711 34.2571 2.22051 34.4186 2.22051 34.4186L2.25271 34.4508V34.3863H1.28671L4.82872 27.1866C4.82872 27.1866 4.92532 27.0575 5.08632 26.8961C5.34393 26.6378 5.73033 26.2181 6.14893 25.8629C6.56753 25.5078 7.01833 25.2495 7.30814 25.2495H7.34034H7.37254L7.40474 25.2172H7.37254Z" fill="black"/>
<path d="M175.651 24.4105H172.914C172.849 23.6679 172.753 23.0222 172.688 22.6348C172.688 22.6348 172.688 22.5702 172.656 22.4734H176.23C176.23 22.6348 176.263 22.7962 176.263 22.9577C176.263 23.1837 176.263 23.442 176.295 23.6357C176.295 23.3774 176.295 23.0222 176.263 22.6994H172.785C172.849 23.0868 172.914 23.6034 172.978 24.2168H175.78L176.295 24.0877C176.295 24.1199 176.295 24.1199 176.295 24.1199L175.683 24.2491L175.651 24.4105ZM172.785 24.4105H172.721V24.3137C172.656 23.6357 172.592 23.0222 172.495 22.6671V22.6025L172.463 22.4734H172.527C172.559 22.5702 172.56 22.6348 172.56 22.6348C172.656 23.0545 172.72 23.6679 172.785 24.4105ZM176.488 24.2168C176.488 24.1845 176.488 23.9262 176.488 23.5388C176.488 23.8294 176.488 24.0231 176.488 24.1199V24.2168Z" fill="black"/>
<path d="M175.651 24.4105H172.914C172.849 23.6679 172.753 23.0222 172.688 22.6348C172.688 22.6348 172.688 22.5702 172.656 22.4734H176.23C176.23 22.6348 176.263 22.7962 176.263 22.9577C176.263 23.1837 176.263 23.442 176.295 23.6357C176.295 23.3774 176.295 23.0222 176.263 22.6994H172.785C172.849 23.0868 172.914 23.6034 172.978 24.2168H175.78L176.295 24.0877C176.295 24.1199 176.295 24.1199 176.295 24.1199L175.683 24.2491L175.651 24.4105ZM172.785 24.4105H172.721V24.3137C172.656 23.6357 172.592 23.0222 172.495 22.6671V22.6025L172.463 22.4734H172.527C172.559 22.5702 172.56 22.6348 172.56 22.6348C172.656 23.0545 172.72 23.6679 172.785 24.4105ZM176.488 24.2168C176.488 24.1845 176.488 23.9262 176.488 23.5388C176.488 23.8294 176.488 24.0231 176.488 24.1199V24.2168Z" fill="black"/>
<path d="M179.13 42.2667H179.226V39.587L176.747 39.3287V39.4255L176.844 39.3933C176.844 39.3933 176.811 39.3287 176.779 39.1995C176.65 38.8121 176.393 37.9727 176.393 37.2624V37.1978C176.393 36.6813 176.522 35.6804 176.618 34.8087C176.747 33.937 176.844 33.1944 176.844 33.1944V33.1621L175.684 28.2224L175.845 24.3804L176.457 24.2513V24.1544C176.457 24.1544 176.457 23.5733 176.425 22.8953C176.393 22.2173 176.361 21.4747 176.264 21.1519C176.167 20.7967 175.813 20.2156 175.459 19.699C175.137 19.1824 174.815 18.7304 174.815 18.7304L163.674 5.17047L166.217 4.39561L165.638 3.81447L153.305 2.45847V2.55533L153.37 2.49076C152.887 2.03876 152.017 1.65133 150.955 1.32848C149.892 1.00562 148.636 0.747335 147.412 0.585906C146.768 0.489049 145.03 0.424478 142.615 0.359907C135.337 0.166193 122.039 0.0693359 115.599 0.0693359C107.001 0.0693359 91.5127 0.295335 89.5484 0.424478C87.5842 0.553621 83.1728 1.78048 83.1728 1.78048L83.205 1.87733V1.78048C83.205 1.78048 82.3034 1.87733 81.0476 1.97419C79.7917 2.10333 78.2139 2.26476 76.8293 2.3939C74.0279 2.65219 69.7452 4.68618 69.713 4.68618C69.713 4.68618 61.3731 9.52903 57.6701 11.9182C53.9671 14.3073 46.2712 19.7636 46.2712 19.7636L46.3356 19.8604V19.7636L45.1764 19.6667L44.0171 20.377L43.8239 20.1833L43.7917 20.151L40.9259 19.2793H40.8937C39.0905 19.7959 36.8365 19.699 28.3678 20.5707C18.8687 21.5393 11.849 22.8953 10.1102 23.3796C8.37135 23.8639 7.27654 25.1553 7.24434 25.1553L7.34094 25.2199V25.123H7.27654C7.01894 25.123 6.72913 25.2521 6.43933 25.4459C5.56992 25.9947 4.66831 27.0924 4.63611 27.1247L0.93307 34.7764L1.73808 35.0347L1.38387 36.2293H0.289062V37.5207H1.48048L1.35167 39.9744H0.289062V42.7833L1.31947 43.8164L1.96348 45.1401L1.51268 45.5921V45.6567C1.51268 45.6567 1.99568 48.5624 2.38209 50.0152C2.76849 51.4681 3.9599 53.5667 3.9599 53.5667L3.9921 53.6312H4.89371L7.37314 58.5064H18.6433V52.2107C18.6433 47.6261 20.4787 43.4613 23.4411 40.4587C26.4036 37.4561 30.493 35.5836 35.0332 35.5836C39.5413 35.5836 43.6307 37.4561 46.6254 40.4587C49.5878 43.4613 51.4232 47.6261 51.4232 52.2107V56.5047H124.904V52.0815C124.904 47.4647 126.708 43.2998 129.638 40.265C132.568 37.2301 136.593 35.3898 141.037 35.3898C145.48 35.3898 149.506 37.2624 152.436 40.265C155.366 43.2998 157.169 47.4647 157.169 52.0815V52.4044V52.5335L175.491 49.0144L179.806 48.2718V42.9124L179.323 42.2021L179.13 42.2667L179.033 42.3313L179.484 42.977V48.0781L175.362 48.7884L157.298 52.2752V52.0815C157.298 47.4001 155.463 43.1707 152.532 40.1358C149.57 37.0687 145.48 35.1961 140.972 35.1961C136.464 35.1961 132.375 37.101 129.412 40.1358C126.45 43.203 124.647 47.4324 124.647 52.0815V56.2787H51.5842V52.1461C51.5842 47.497 49.7166 43.2998 46.722 40.265C43.7273 37.2301 39.5735 35.3253 35.001 35.3253C30.4286 35.3253 26.2747 37.1978 23.2801 40.265C20.2855 43.2998 18.4179 47.5292 18.4179 52.1461V58.2158H7.50194L5.02251 53.3407H4.0565V53.4375L4.15311 53.3729C4.15311 53.3729 4.0887 53.2438 3.9599 53.0178C3.6057 52.3721 2.86509 50.9192 2.60749 49.8861C2.41429 49.1758 2.22108 48.0781 2.02788 47.1741C1.86688 46.2701 1.73808 45.5598 1.73808 45.5598L1.64148 45.5921L1.70588 45.6567L2.22108 45.1401L1.48048 43.655L0.514465 42.6864V40.1681H1.54488L1.70588 37.2947H0.514465V36.423H1.54488L1.99568 34.8733L1.22287 34.615L4.89371 27.1893L4.79711 27.157L4.89371 27.2216C4.89371 27.2216 4.99031 27.0924 5.15132 26.931C5.40892 26.6727 5.79532 26.253 6.21393 25.8979C6.63253 25.5427 7.05114 25.2844 7.34094 25.3167H7.37314H7.43754L7.46974 25.2844L7.50194 25.2199C7.72734 24.9939 8.72556 23.993 10.2068 23.5733C11.9134 23.089 18.9331 21.733 28.4322 20.7644C36.9009 19.8927 39.1227 19.9896 40.9903 19.473L40.9581 19.3762L40.9259 19.473L43.6951 20.3124L43.9205 20.5384L43.9849 20.603L45.2408 19.8282L46.3678 19.925L46.4 19.8927C46.4 19.8927 46.883 19.5376 47.6558 18.9887C50.0064 17.3422 55.0297 13.823 57.7989 12.0473C59.6343 10.8527 62.6612 9.04475 65.205 7.55961C66.493 6.81704 67.62 6.13904 68.4894 5.62247C69.3266 5.13818 69.8418 4.81533 69.8418 4.81533L69.7774 4.71847L69.8096 4.81533C69.8096 4.81533 70.0672 4.68618 70.518 4.49247C71.8383 3.91133 74.8007 2.71676 76.8293 2.52305C79.5985 2.26476 83.205 1.90962 83.205 1.90962C83.205 1.90962 83.4948 1.84505 83.9134 1.7159C85.2336 1.36076 88.0994 0.650478 89.5484 0.553621C91.4805 0.424478 106.969 0.198479 115.566 0.198479C119.881 0.198479 127.223 0.230764 133.792 0.327621C137.076 0.359907 140.167 0.424478 142.615 0.489049C145.03 0.553621 146.801 0.618192 147.412 0.715049C148.636 0.876477 149.892 1.13476 150.922 1.45762C151.985 1.78048 152.822 2.1679 153.273 2.58762L153.305 2.6199L165.606 3.9759L165.863 4.23419L163.352 5.00904L174.686 18.8273C174.686 18.8273 174.751 18.9242 174.879 19.1179C175.04 19.3762 175.33 19.7959 175.556 20.1833C175.781 20.5707 176.006 20.9904 176.071 21.1842C176.167 21.4747 176.2 22.2173 176.232 22.863C176.264 23.5087 176.264 24.0899 176.264 24.1221H176.361L176.328 24.0253L175.62 24.1544L175.491 28.2547L176.65 33.1944L176.747 33.1621L176.65 33.1298C176.65 33.1298 176.167 36.1001 176.167 37.1656V37.2301C176.2 38.231 176.65 39.4255 176.65 39.4578L176.683 39.5224L179.033 39.7807V42.299L179.065 42.3313L179.13 42.2667Z" fill="black"/>
<path d="M50.1689 22.4728L50.1367 22.4405C50.0079 22.5051 49.9435 22.5374 49.9435 22.5374H49.9113C49.6859 22.602 48.2691 22.6988 46.2405 22.828C40.058 23.2154 27.8863 23.8611 22.1868 24.2162C14.6197 24.6682 9.49986 25.1525 9.49986 25.1525C9.49986 25.1525 8.59825 25.8951 7.47124 27.122L7.37463 27.2188H7.50344C9.08125 27.122 20.609 26.3471 21.575 26.218C22.6054 26.0888 51.1993 24.5714 54.355 24.4422C57.5106 24.2808 93.1564 22.8925 96.2476 22.7311C99.3389 22.5697 125.164 21.8917 129.543 21.5688C133.568 21.2783 134.727 19.6963 134.727 18.5017C134.727 18.4048 134.727 18.2757 134.695 18.1788C134.63 17.856 134.244 17.1457 133.664 16.2094C131.926 13.3683 128.448 8.42856 126.741 6.49142C124.616 4.10229 121.396 4.00543 119.529 4.00543C119.368 4.00543 119.239 4.00543 119.11 4.00543C117.725 4.00543 107.711 3.97314 101.883 3.97314C100.434 3.97314 99.2423 3.97314 98.5017 3.97314C94.7986 4.00543 84.1403 4.32829 81.5965 4.42514C80.1797 4.45743 79.117 4.84486 78.5052 5.2L50.2011 22.4082L50.1689 22.4728L50.2011 22.5051L78.5052 5.29686C79.117 4.974 80.1797 4.58657 81.5643 4.55429C84.1081 4.48971 94.7664 4.13457 98.4695 4.10229C99.2101 4.10229 100.401 4.10229 101.85 4.10229C107.679 4.10229 117.693 4.13457 119.078 4.13457C119.206 4.13457 119.335 4.13457 119.496 4.13457C121.332 4.13457 124.52 4.23143 126.613 6.58828C127.74 7.87971 129.672 10.4948 131.346 12.9486C132.183 14.1754 132.956 15.3377 133.536 16.3063C134.115 17.2425 134.502 17.9851 134.534 18.2434C134.566 18.3403 134.566 18.4371 134.566 18.534C134.566 19.664 133.471 21.2137 129.478 21.5042C125.099 21.8271 99.2745 22.5051 96.2154 22.6665C93.1242 22.828 57.4784 24.2162 54.3228 24.3777C51.1671 24.5391 22.5732 26.0242 21.5428 26.1534C20.5768 26.2825 9.04905 27.0574 7.47124 27.1542V27.2188L7.50344 27.2511C8.05084 26.6377 8.56605 26.1211 8.92025 25.7982C9.27446 25.4754 9.49986 25.2817 9.49986 25.2817L9.46766 25.2494V25.314C9.46766 25.314 9.78966 25.2817 10.3693 25.2171C12.1725 25.0557 16.4551 24.7005 22.1224 24.3454C25.922 24.1194 32.5875 23.7642 38.448 23.4091C41.3782 23.2477 44.1152 23.0862 46.1761 22.9571C48.2369 22.828 49.6215 22.7311 49.8791 22.6342H49.9113L49.9757 22.602C50.0079 22.5697 50.0723 22.5697 50.1689 22.5051V22.4728Z" fill="black"/>
<path d="M174.781 18.8268V18.7622L170.595 18.7945H170.563L170.531 18.8268L171.948 20.6993H171.98C173.848 20.667 175.264 20.667 175.908 20.667H176.005L175.973 20.6025C175.554 19.8599 174.878 18.8591 174.846 18.7945V18.7622H174.814L174.781 18.8268L174.749 18.8591C174.781 18.8913 175.458 19.8922 175.876 20.6348L175.908 20.6025V20.5379C175.264 20.5379 173.848 20.5702 171.98 20.5702V20.6348L172.012 20.6025L170.66 18.7945L170.628 18.8268V18.8913L174.814 18.8591L174.781 18.8268Z" fill="black"/>
<path d="M165.703 3.94093V3.87636C165.703 3.87636 164.866 3.90865 163.835 3.97322C162.805 4.0055 161.613 4.07008 160.873 4.07008C160.776 4.07008 160.679 4.07008 160.615 4.07008C159.971 4.07008 158.329 3.87636 156.848 3.68265C156.107 3.58579 155.399 3.48894 154.916 3.42437C154.4 3.3598 154.078 3.32751 154.078 3.32751L153.595 3.26294L154.046 3.42437C154.046 3.42437 154.368 3.55351 154.851 3.71494C156.332 4.26379 159.391 5.45835 160.196 5.91034H160.229L163.545 5.16778L166.154 4.36064L165.767 3.84408H165.735L165.703 3.94093L165.671 3.97322L165.96 4.32836L163.513 5.07092L160.196 5.81349V5.87806L160.229 5.84577C159.681 5.52292 158.168 4.9095 156.751 4.36064C155.334 3.81179 154.078 3.32751 154.078 3.32751L154.046 3.39208V3.45665C154.046 3.45665 159.295 4.16693 160.615 4.19922C160.679 4.19922 160.776 4.19922 160.873 4.19922C162.354 4.19922 165.703 4.03779 165.703 4.03779V3.94093Z" fill="black"/>
<path d="M175.844 39.4577C175.619 39.2317 173.912 37.5529 173.88 35.2929C173.848 33.5172 173.493 32.2581 173.332 31.7415C173.268 31.5801 173.236 31.4832 173.236 31.4832C173.236 31.4832 173.236 31.0635 173.204 30.3855C173.171 29.7075 173.139 28.8035 173.075 27.8027C173.01 26.6727 172.946 25.4459 172.849 24.445H172.946C173.204 27.1247 173.332 31.2572 173.365 31.4832C173.429 31.6124 173.976 33.0329 174.009 35.3252C174.041 37.1009 175.136 38.5215 175.683 39.1349C175.812 39.2963 175.941 39.3932 175.973 39.4254H176.681C176.456 39.3932 176.198 39.4254 175.844 39.4577ZM172.656 22.4756H172.56C172.56 22.411 172.527 22.3142 172.495 22.185C172.431 21.9267 172.366 21.6362 172.238 21.4425C172.173 21.3133 172.077 21.2487 172.012 21.2487H171.948L171.819 20.7645C172.334 20.7645 172.817 20.7645 173.268 20.7645C174.395 20.7645 175.264 20.7322 175.78 20.7322C175.071 20.7322 173.687 20.7645 171.948 20.7645L172.077 21.1519C172.205 21.1842 172.302 21.281 172.366 21.4102C172.463 21.5393 172.527 21.733 172.56 21.9267C172.592 22.1205 172.624 22.3142 172.656 22.4756Z" fill="black"/>
<path d="M172.915 24.4105H172.819C172.754 23.6679 172.69 23.0545 172.593 22.6348C172.593 22.6348 172.593 22.5702 172.561 22.4734H172.658C172.658 22.5702 172.69 22.6348 172.69 22.6348C172.754 23.0545 172.851 23.6679 172.915 24.4105Z" fill="black"/>
<path d="M172.915 24.4105H172.819C172.754 23.6679 172.69 23.0545 172.593 22.6348C172.593 22.6348 172.593 22.5702 172.561 22.4734H172.658C172.658 22.5702 172.69 22.6348 172.69 22.6348C172.754 23.0545 172.851 23.6679 172.915 24.4105Z" fill="black"/>
<path d="M176.619 39.3933H176.683C176.587 39.1027 176.265 38.1019 176.232 37.2625C176.265 38.1019 176.587 39.135 176.683 39.3933C176.651 39.3933 176.651 39.3933 176.619 39.3933Z" fill="black"/>
<path d="M175.844 39.4541C176.198 39.4218 176.488 39.3895 176.617 39.3895C176.649 39.3895 176.649 39.3895 176.681 39.3895C176.585 39.1312 176.263 38.0981 176.231 37.2587V37.1941C176.231 36.1932 176.681 33.3844 176.714 33.1907L175.554 28.251L175.715 24.2476L176.327 24.1185C176.327 23.9571 176.327 23.4728 176.295 22.9239C176.263 22.2782 176.231 21.5034 176.134 21.2128C176.102 21.0837 176.005 20.8899 175.876 20.6639H175.909H176.005C176.102 20.8577 176.198 21.0514 176.231 21.1805C176.327 21.5034 176.392 22.2459 176.392 22.9239C176.424 23.5696 176.424 24.1185 176.424 24.1831V24.2153L175.812 24.3445L175.651 28.2187L176.81 33.1261C176.81 33.1261 176.681 33.8687 176.585 34.7404C176.456 35.6121 176.359 36.6129 176.359 37.1295V37.1941C176.359 37.6784 176.488 38.2272 176.617 38.6469C176.714 39.0021 176.81 39.2604 176.842 39.3249H176.81C176.746 39.3572 176.392 39.3895 175.844 39.4541Z" fill="black"/>
<path d="M171.821 20.7287L171.789 20.6318H171.853L171.918 20.7287H171.95C172.401 20.7287 172.819 20.7287 173.238 20.7287C172.787 20.7287 172.304 20.7287 171.821 20.7287Z" fill="black"/>
<path d="M179.161 42.1695C179.161 42.1695 179.129 42.1695 179.097 42.1695V39.7481L176.746 39.4898H176.811L176.778 39.4252C176.778 39.4252 176.778 39.4252 176.778 39.3929L179.193 39.6512V42.2018L179.161 42.1695Z" fill="black"/>
<path d="M176.747 39.4898H175.877C175.877 39.4898 175.877 39.4898 175.845 39.4575C176.425 39.4252 176.747 39.3929 176.747 39.3929H176.779C176.779 39.4252 176.779 39.4252 176.779 39.4252L176.811 39.4898H176.747Z" fill="black"/>
<path d="M12.2664 43.7506L12.363 43.8152C12.7172 43.1372 13.168 41.8458 13.5866 40.6189C14.0052 39.4244 14.3272 38.3267 14.4238 38.133C14.456 38.0361 14.4882 37.907 14.4882 37.7778C14.4882 37.5518 14.4238 37.2935 14.1984 37.0998C14.0052 36.9061 13.6832 36.777 13.2324 36.777C13.168 36.777 13.0714 36.777 12.9748 36.777C11.4614 36.777 6.21274 36.9384 4.82813 36.9707H4.79593L4.76373 37.003C4.31293 37.3581 4.08753 37.8747 3.95873 38.3912C3.82993 38.9078 3.79773 39.4244 3.79773 39.715C3.79773 39.8118 3.79773 39.9087 3.79773 39.9409V40.0378H8.53115L8.37015 41.3938L4.24853 41.8458L4.28073 41.9749C4.50613 42.5884 4.92473 43.9121 5.34334 44.6546C5.56874 45.0743 5.85854 45.3003 6.11614 45.4618H6.14834H6.18054C7.66175 45.4295 10.7208 45.3003 10.7208 45.3003C10.753 45.3003 11.6546 45.2035 12.363 43.8152L12.2664 43.7506L12.1698 43.7183C11.8478 44.364 11.4614 44.7192 11.1716 44.8806C11.0428 44.9775 10.914 45.0098 10.8174 45.042C10.7852 45.042 10.753 45.0743 10.7208 45.0743H10.6886C10.6886 45.0743 9.91576 45.1066 8.98195 45.1389C8.01595 45.1712 6.88894 45.2035 6.14834 45.2358V45.3326L6.21274 45.2358C5.98734 45.1066 5.69754 44.9129 5.50434 44.5255C5.11794 43.7829 4.69933 42.4915 4.47393 41.8781L4.37733 41.9104V42.0072L8.53115 41.5552L8.75655 39.7795H3.86213V39.8764H3.95873C3.95873 39.8441 3.95873 39.7472 3.95873 39.6504C3.95873 39.3598 3.99093 38.8755 4.11973 38.3912C4.24853 37.907 4.47393 37.4227 4.86033 37.1321L4.79593 37.0353V37.1321C6.18054 37.0998 11.4614 36.9384 12.9426 36.9384C13.0392 36.9384 13.1358 36.9384 13.2002 36.9384C13.6188 36.9384 13.8764 37.0675 14.0374 37.1967C14.1984 37.3581 14.2628 37.5195 14.2628 37.7133C14.2628 37.8101 14.2306 37.907 14.1984 38.0038C14.1018 38.2298 13.7798 39.3275 13.3612 40.5221C12.9426 41.7166 12.4918 43.0081 12.1698 43.6861L12.2664 43.7506Z" fill="black"/>
<path d="M21.5414 26.1855V26.0887C20.5754 26.2178 9.07992 26.9927 7.46991 27.0895H7.43771L7.37331 27.1218C6.85811 27.703 6.31071 28.4132 5.7633 29.1881C4.9905 30.3504 4.1855 31.5449 3.50929 32.4812L3.38049 32.6426H8.40372L9.24092 33.482H9.27312C9.27312 33.482 12.2677 33.482 13.7489 33.3852C15.2945 33.2883 16.164 32.0292 16.164 31.9969H16.0996L16.164 32.0615L21.8956 26.0564L21.6058 26.0887C21.5736 26.0887 21.5414 26.0887 21.5092 26.0887L21.5414 26.1855V26.2824C21.5736 26.2824 21.6058 26.2824 21.638 26.2824V26.1855L21.5736 26.121L16.0352 31.9323L16.003 31.9969C15.8097 32.2229 15.0047 33.1592 13.7811 33.2238C13.0405 33.256 11.9457 33.2883 11.0119 33.2883C10.0781 33.2883 9.33752 33.2883 9.33752 33.2883V33.3852L9.40192 33.3206L8.53252 32.4489H3.60589V32.5458L3.70249 32.6103C4.3787 31.6418 5.2159 30.4472 5.98871 29.3172C6.50391 28.5424 7.05131 27.8321 7.56651 27.251L7.50211 27.1864V27.2832C9.07992 27.1864 20.6076 26.4115 21.5736 26.2824L21.5414 26.1855Z" fill="black"/>
<path d="M172.624 22.6349H172.72C172.72 22.6349 172.688 22.2475 172.559 21.8923C172.495 21.6986 172.431 21.5049 172.366 21.3758C172.334 21.3112 172.27 21.2466 172.205 21.1821C172.141 21.1175 172.076 21.0852 171.98 21.0852C171.754 21.0852 169.372 21.0852 167.053 21.0852C165.894 21.0852 164.735 21.0852 163.898 21.0852C163.028 21.0852 162.481 21.0852 162.481 21.0852C162.481 21.0852 162.32 21.1175 162.159 21.1498C161.998 21.2143 161.805 21.3112 161.74 21.5372V21.6018C161.74 21.7309 161.837 21.8923 161.933 22.0538C162.288 22.5703 163.028 23.3129 163.543 23.8295C164.284 24.572 164.96 25.2823 165.862 25.4115C166.313 25.476 166.86 25.4115 167.375 25.476C167.89 25.5406 168.341 25.702 168.599 26.2186C168.856 26.7352 169.372 27.962 169.855 29.092C170.08 29.6408 170.338 30.1897 170.531 30.5771C170.627 30.7708 170.724 30.9645 170.788 31.0937C170.821 31.1583 170.853 31.2228 170.885 31.2551C170.917 31.2874 170.949 31.3197 170.982 31.352C171.11 31.4165 171.271 31.4488 171.497 31.4811C172.173 31.5457 173.236 31.5457 173.236 31.5457H173.332V31.4488C173.332 31.4488 173.268 29.7377 173.171 27.7683C173.075 25.7989 172.914 23.6035 172.688 22.6026L172.624 22.6349L172.527 22.6672C172.72 23.6358 172.881 25.8312 172.978 27.8006C173.042 28.7691 173.075 29.7054 173.107 30.3834C173.139 31.0614 173.139 31.4811 173.139 31.4811H173.236V31.3843C173.236 31.3843 172.753 31.3843 172.27 31.352C172.012 31.352 171.754 31.3197 171.529 31.2874C171.304 31.2551 171.143 31.2228 171.078 31.1905C171.078 31.1905 171.014 31.0937 170.949 30.9645C170.692 30.5126 170.273 29.544 169.855 28.5754C169.436 27.6069 169.017 26.606 168.76 26.154C168.47 25.5729 167.923 25.3792 167.375 25.3146C166.828 25.25 166.248 25.3146 165.862 25.25C165.057 25.1532 164.413 24.4752 163.672 23.7326C163.318 23.3775 162.867 22.9255 162.513 22.538C162.352 22.3443 162.191 22.1506 162.062 21.9892C161.966 21.8278 161.901 21.6986 161.901 21.6663C161.933 21.5695 162.062 21.4726 162.191 21.4081C162.255 21.3758 162.32 21.3758 162.384 21.3435H162.449H162.481C162.481 21.3435 171.529 21.3435 171.98 21.3435L172.076 21.3758C172.205 21.4726 172.334 21.8278 172.398 22.1183C172.431 22.2798 172.463 22.4089 172.495 22.538C172.527 22.6349 172.527 22.6995 172.527 22.6995L172.624 22.6349Z" fill="black"/>
<path d="M4.44274 37.0677V36.9709C4.44274 36.9709 4.15293 36.9709 3.83093 37.1C3.50893 37.2292 3.15473 37.4874 3.05813 38.004C2.86493 38.9726 2.86493 39.9088 2.86493 39.9411V40.038H8.49995L8.33895 41.394L3.60553 41.9105C3.60553 41.9105 3.54113 41.9105 3.47673 41.9751C3.41233 42.0397 3.38013 42.1365 3.38013 42.2657C3.38013 42.3948 3.41233 42.5885 3.50893 42.8145C3.79873 43.5571 4.41054 44.6871 4.57154 44.9454C4.63594 45.0745 4.70034 45.2037 4.86134 45.3005C4.99014 45.3974 5.18334 45.4619 5.47314 45.4619C6.05274 45.4619 10.7218 45.2682 10.7218 45.2682C10.754 45.2682 11.6556 45.1714 12.364 43.7831C12.7182 43.1051 13.169 41.8137 13.5876 40.5868C14.0062 39.3923 14.3282 38.2946 14.4248 38.1009C14.457 38.004 14.4892 37.8749 14.4892 37.7457C14.4892 37.5197 14.4248 37.2614 14.1994 37.0677C14.0062 36.874 13.6842 36.7449 13.2334 36.7449C13.169 36.7449 13.0724 36.7449 12.9758 36.7449C11.237 36.7449 4.47494 36.9386 4.47494 36.9386L4.44274 37.0677V37.1646C4.44274 37.1646 4.86134 37.1646 5.53754 37.1323C7.53395 37.0677 11.6556 36.9709 12.9436 36.9709C13.0402 36.9709 13.1368 36.9709 13.2012 36.9709C13.6198 36.9709 13.8774 37.1 14.0384 37.2292C14.1994 37.3906 14.2638 37.552 14.2638 37.7457C14.2638 37.8426 14.2316 37.9394 14.1994 38.0363C14.1028 38.2623 13.7808 39.36 13.3622 40.5546C12.9436 41.7491 12.4928 43.0405 12.1708 43.7185C11.8488 44.3642 11.4624 44.7194 11.1726 44.8808C11.0438 44.9777 10.915 45.0099 10.8184 45.0422C10.7862 45.0422 10.754 45.0745 10.7218 45.0745H10.6896C10.6896 45.0745 9.53036 45.1068 8.27455 45.1714C7.01875 45.2037 5.73074 45.2682 5.44094 45.2682C5.18334 45.2682 5.02234 45.2037 4.95794 45.1391C4.86134 45.0745 4.79694 44.9777 4.73254 44.8485C4.60374 44.5902 3.99193 43.4602 3.70213 42.75C3.60553 42.524 3.57333 42.3625 3.57333 42.2657C3.57333 42.1688 3.60553 42.1365 3.60553 42.1365L8.53215 41.5877L8.75756 39.812H2.96153V39.9088H3.05813C3.05813 39.9088 3.05813 39.6828 3.09033 39.3277C3.12253 38.9726 3.15473 38.4883 3.25133 38.0363C3.34793 37.6166 3.63773 37.3906 3.89533 37.2937C4.02413 37.2292 4.15293 37.1969 4.24954 37.1969C4.31394 37.1969 4.34614 37.1969 4.37834 37.1969H4.41054L4.44274 37.0677Z" fill="black"/>
<path d="M115.597 0.166193V0.0693359C107 0.0693359 91.5115 0.295335 89.5473 0.424478C87.7762 0.553621 84.0088 1.55448 83.3004 1.74819L81.1752 2.6199L81.7548 2.58762C81.7548 2.58762 82.3344 2.55533 83.3326 2.52305C86.295 2.42619 92.7673 2.23247 97.2754 2.13562C100.978 2.07105 111.508 2.03876 120.266 2.03876C125.676 2.03876 130.41 2.03876 132.47 2.10333C135.175 2.13562 138.91 2.29705 142.002 2.45847C143.547 2.52305 144.9 2.58762 145.898 2.65219C146.896 2.71676 147.476 2.74904 147.476 2.74904L154.238 3.36247L153.401 2.52305C152.918 2.07105 152.048 1.68362 150.986 1.36076C149.923 1.03791 148.667 0.77962 147.444 0.618192C146.8 0.521335 145.061 0.456764 142.646 0.392192C135.336 0.166193 122.037 0.0693359 115.597 0.0693359V0.166193V0.26305C119.912 0.26305 127.254 0.295335 133.823 0.392192C137.107 0.424478 140.198 0.489049 142.646 0.553621C145.061 0.618192 146.832 0.682763 147.444 0.77962C148.667 0.941048 149.923 1.19933 150.953 1.52219C152.016 1.84505 152.853 2.23247 153.304 2.65219L153.368 2.58762L153.272 2.65219L153.69 3.0719L147.508 2.52305C147.508 2.52305 137.88 2.00647 132.503 1.90962C130.442 1.87733 125.708 1.84505 120.299 1.84505C111.54 1.84505 101.043 1.87733 97.3076 1.9419C91.2861 2.03876 81.787 2.36162 81.787 2.36162V2.45847V2.58762L83.3326 1.9419C84.0732 1.74819 87.8406 0.747335 89.5473 0.618192C91.4793 0.489049 106.968 0.26305 115.565 0.26305V0.166193H115.597Z" fill="black"/>
<path d="M96.4388 2.06939L96.471 2.0371L95.7625 1.03625H95.7303C94.3135 1.06854 93.2509 1.10083 92.7679 1.10083C91.5121 1.1654 90.5139 1.71425 89.9021 2.19853L89.7733 2.29539H89.9343C92.1239 2.23082 94.4101 2.16624 96.4388 2.13396H96.5353L96.471 2.0371L96.4388 2.06939V2.00482C94.4423 2.0371 92.1239 2.10167 89.9343 2.16624V2.23082L89.9665 2.2631C90.5783 1.81111 91.5443 1.26225 92.7679 1.19768C93.2509 1.1654 94.3135 1.1654 95.7303 1.13311V1.06854L95.6982 1.10083L96.3743 2.10167L96.4388 2.06939Z" fill="black"/>
<path d="M128.769 1.96959L128.801 1.9373L127.996 0.936456H127.964C123.713 0.871885 119.012 0.8396 116.017 0.8396C112.926 0.8396 107.098 0.904171 102.01 0.968741H101.978L101.495 2.09873H101.592C106.518 2.06645 113.86 2.03416 120.268 2.03416C123.488 2.03416 126.45 2.03416 128.769 2.06645H128.865L128.801 1.9373L128.769 1.96959V1.90502C126.45 1.90502 123.488 1.87273 120.268 1.87273C113.86 1.87273 106.518 1.90502 101.592 1.9373V2.00188L101.656 2.03416L102.107 1.00103L102.042 0.968741V1.03331C107.13 0.968741 112.958 0.90417 116.049 0.90417C119.044 0.90417 123.777 0.968741 127.996 1.00103V0.936456L127.964 0.968741L128.769 1.96959Z" fill="black"/>
<path d="M146.124 1.84339L146.156 1.81111C145.995 1.71425 145.673 1.61739 145.19 1.52054C143.741 1.26225 140.972 1.03625 137.72 1.03625C137.14 1.03625 136.432 1.03625 135.627 1.03625H135.595L135.015 2.13396H135.112C139.62 2.2631 145.222 2.55367 146.961 2.65053H147.09L147.026 2.55367C146.8 2.2631 146.51 1.97253 146.188 1.77882L146.124 1.84339L146.092 1.87568C146.382 2.06939 146.671 2.32767 146.897 2.61824L146.929 2.58596V2.52138C145.19 2.42453 139.587 2.13396 135.079 2.00482V2.06939L135.112 2.10167L135.627 1.10083L135.595 1.06854V1.13311C136.4 1.13311 137.108 1.13311 137.688 1.13311C139.845 1.13311 141.809 1.22997 143.29 1.35911C144.031 1.42368 144.675 1.52054 145.126 1.58511C145.609 1.68196 145.931 1.77882 146.06 1.84339H146.124Z" fill="black"/>
<path d="M16.6794 47.2047L4.79742 47.1724H4.76522C4.76522 47.1724 3.0586 46.2361 2.09259 45.3321L2.12479 45.2998C3.0586 46.2038 4.76522 47.1401 4.76522 47.1401L13.8457 47.1724H16.5828V47.1401C18.7724 38.9719 26.1785 32.9344 34.937 32.9344C43.6633 32.9344 51.0371 38.9073 53.2912 47.0433V47.0755L94.572 46.2361L123.069 46.0424V46.0101C125.549 38.3261 132.601 32.7407 140.876 32.7407C148.347 32.7407 154.819 37.2607 157.846 43.8147V43.847L175.524 43.5887V43.5564C175.524 43.5564 175.556 43.4918 175.653 43.3627C175.878 43.0076 176.425 42.3296 176.941 42.265C177.102 42.2327 177.263 42.2327 177.456 42.2327C178.035 42.2327 178.679 42.2973 178.937 42.3296V42.3618L179.388 43.0076L178.969 42.3941C178.905 42.3941 178.712 42.3618 178.518 42.3618C178.229 42.3296 177.81 42.3296 177.456 42.3296C177.263 42.3296 177.102 42.3296 176.941 42.3618C176.651 42.3941 176.361 42.6201 176.103 42.8784C175.846 43.1367 175.653 43.4273 175.588 43.5564L175.556 43.621L175.524 43.6856L157.781 43.9438L157.749 43.8793C154.722 37.3576 148.282 32.8376 140.844 32.8376C132.568 32.8376 125.549 38.3907 123.069 46.0747L123.037 46.1393L94.5076 46.333L53.1946 47.1724L53.1624 47.1078C50.9405 39.0041 43.5667 33.0313 34.8726 33.0313C26.1463 33.0313 18.7724 39.0364 16.5506 47.2047H16.6794ZM13.8457 47.0433L4.82962 47.011C4.76522 46.9787 4.34662 46.7204 3.83141 46.3975C3.284 46.0424 2.6722 45.6227 2.22139 45.1707L2.18919 45.0738C2.8654 45.7518 4.02461 46.4621 4.57202 46.785C4.70082 46.8495 4.79742 46.9141 4.82962 46.9464L13.8457 46.9787C13.8457 47.011 13.8457 47.011 13.8457 47.0433Z" fill="black"/>
<path d="M16.6794 47.2047L4.79742 47.1724H4.76522C4.76522 47.1724 3.0586 46.2361 2.09259 45.3321L2.12479 45.2998C3.0586 46.2038 4.76522 47.1401 4.76522 47.1401L13.8457 47.1724H16.5828V47.1401C18.7724 38.9719 26.1785 32.9344 34.937 32.9344C43.6633 32.9344 51.0371 38.9073 53.2912 47.0433V47.0755L94.572 46.2361L123.069 46.0424V46.0101C125.549 38.3261 132.601 32.7407 140.876 32.7407C148.347 32.7407 154.819 37.2607 157.846 43.8147V43.847L175.524 43.5887V43.5564C175.524 43.5564 175.556 43.4918 175.653 43.3627C175.878 43.0076 176.425 42.3296 176.941 42.265C177.102 42.2327 177.263 42.2327 177.456 42.2327C178.035 42.2327 178.679 42.2973 178.937 42.3296V42.3618L179.388 43.0076L178.969 42.3941C178.905 42.3941 178.712 42.3618 178.518 42.3618C178.229 42.3296 177.81 42.3296 177.456 42.3296C177.263 42.3296 177.102 42.3296 176.941 42.3618C176.651 42.3941 176.361 42.6201 176.103 42.8784C175.846 43.1367 175.653 43.4273 175.588 43.5564L175.556 43.621L175.524 43.6856L157.781 43.9438L157.749 43.8793C154.722 37.3576 148.282 32.8376 140.844 32.8376C132.568 32.8376 125.549 38.3907 123.069 46.0747L123.037 46.1393L94.5076 46.333L53.1946 47.1724L53.1624 47.1078C50.9405 39.0041 43.5667 33.0313 34.8726 33.0313C26.1463 33.0313 18.7724 39.0364 16.5506 47.2047H16.6794ZM13.8457 47.0433L4.82962 47.011C4.76522 46.9787 4.34662 46.7204 3.83141 46.3975C3.284 46.0424 2.6722 45.6227 2.22139 45.1707L2.18919 45.0738C2.8654 45.7518 4.02461 46.4621 4.57202 46.785C4.70082 46.8495 4.79742 46.9141 4.82962 46.9464L13.8457 46.9787C13.8457 47.011 13.8457 47.011 13.8457 47.0433Z" fill="black"/>
<path d="M18.6434 58.4743H7.37328L4.89386 53.5992H3.99225L3.96004 53.5346C3.96004 53.5346 2.76863 51.4683 2.38223 49.9832C1.99582 48.5303 1.51282 45.6246 1.51282 45.6246V45.56L1.96362 45.108L1.99582 45.0758L2.02802 45.1726C2.06022 45.2049 2.09242 45.2372 2.09242 45.2372L2.06022 45.2695L1.73822 45.5923C1.77042 45.786 1.86702 46.3995 2.02802 47.1743C2.18903 48.0783 2.41443 49.176 2.60763 49.8863C2.89743 50.9517 3.63804 52.3723 3.96004 53.018C4.02445 53.1472 4.08885 53.244 4.12105 53.3086H5.02266L7.50208 58.1837H18.418V52.114C18.418 47.4649 20.2856 43.2678 23.2803 40.2329C26.2749 37.1981 30.4287 35.2932 35.0012 35.2932C39.5736 35.2932 43.7275 37.1658 46.7221 40.2329C49.7168 43.2678 51.5844 47.4972 51.5844 52.114V56.2466H124.615V52.0495C124.615 47.368 126.45 43.1386 129.38 40.1038C132.343 37.0366 136.432 35.1641 140.94 35.1641C145.448 35.1641 149.538 37.0689 152.5 40.1038C155.463 43.1709 157.266 47.4003 157.266 52.0495V52.2432L175.33 48.7563L179.452 48.046V42.9449L179.001 42.2992H179.033C179.066 42.2992 179.098 42.2992 179.098 42.2992H179.162V42.2346V42.1378L179.677 42.8803V48.2397L175.363 48.9823L157.041 52.5015V52.3723V52.0495C157.041 47.4326 155.237 43.2678 152.307 40.2329C149.377 37.1981 145.352 35.3578 140.908 35.3578C136.465 35.3578 132.439 37.2303 129.509 40.2329C126.579 43.2678 124.776 47.4326 124.776 52.0495V56.5049H51.359V52.1786C51.359 47.594 49.5236 43.4292 46.5611 40.4266C43.5987 37.4241 39.5092 35.5515 34.969 35.5515C30.4609 35.5515 26.3715 37.4241 23.3769 40.4266C20.4144 43.4292 18.579 47.594 18.579 52.1786V58.4743H18.6434ZM2.22123 45.2049C2.18903 45.1726 2.18902 45.1726 2.15682 45.1403L2.09242 45.0435L2.15682 45.108L2.22123 45.2049Z" fill="black"/>
<path d="M13.8779 47.1407L4.7975 47.1084C4.7975 47.1084 3.09089 46.1721 2.15709 45.2681C2.12489 45.2358 2.09269 45.2035 2.09269 45.2035L2.06049 45.1067L2.12489 45.0421L2.18929 45.139C2.22149 45.1713 2.22149 45.1713 2.25369 45.2035C2.70449 45.6233 3.31629 46.0752 3.86369 46.4304C4.3789 46.7532 4.7975 46.9792 4.8619 47.0438L13.8779 47.0761C13.8779 47.0438 13.8779 47.0438 13.8779 47.0115C13.8779 47.0438 13.8779 47.0761 13.8457 47.1084V47.173H13.8779V47.1407Z" fill="black"/>
<path d="M16.5508 47.0443H13.9747C13.9747 47.0121 13.9747 47.0121 13.9747 46.9798H16.5186C18.7726 38.7792 26.2109 32.7418 35.0016 32.7418C43.7923 32.7418 51.1983 38.7469 53.4846 46.8829L94.6366 46.0435L123.037 45.8498C125.549 38.1335 132.665 32.5481 140.973 32.5481C148.476 32.5481 154.98 37.1004 158.039 43.6221L175.524 43.3961C175.588 43.2992 175.749 43.0409 175.943 42.8149C176.232 42.4921 176.587 42.1369 177.005 42.1046C177.166 42.0724 177.359 42.0724 177.553 42.0724C178.132 42.0724 178.776 42.1369 179.034 42.1692V42.2338C178.776 42.2015 178.132 42.1369 177.553 42.1369C177.359 42.1369 177.166 42.1369 177.005 42.1692C176.619 42.2015 176.232 42.5566 175.975 42.8795C175.749 43.1378 175.588 43.3961 175.524 43.4929L157.975 43.7512C154.916 37.1972 148.443 32.6772 140.941 32.6772C132.633 32.6772 125.549 38.2627 123.037 45.9789L94.6044 46.1726L53.4202 47.0121C51.1661 38.8438 43.7601 32.8387 35.0016 32.8387C26.2109 32.8064 18.7726 38.8438 16.5508 47.0443Z" fill="black"/>
<path d="M16.5508 47.0443H13.9747C13.9747 47.0121 13.9747 47.0121 13.9747 46.9798H16.5186C18.7726 38.7792 26.2109 32.7418 35.0016 32.7418C43.7923 32.7418 51.1983 38.7469 53.4846 46.8829L94.6366 46.0435L123.037 45.8498C125.549 38.1335 132.665 32.5481 140.973 32.5481C148.476 32.5481 154.98 37.1004 158.039 43.6221L175.524 43.3961C175.588 43.2992 175.749 43.0409 175.943 42.8149C176.232 42.4921 176.587 42.1369 177.005 42.1046C177.166 42.0724 177.359 42.0724 177.553 42.0724C178.132 42.0724 178.776 42.1369 179.034 42.1692V42.2338C178.776 42.2015 178.132 42.1369 177.553 42.1369C177.359 42.1369 177.166 42.1369 177.005 42.1692C176.619 42.2015 176.232 42.5566 175.975 42.8795C175.749 43.1378 175.588 43.3961 175.524 43.4929L157.975 43.7512C154.916 37.1972 148.443 32.6772 140.941 32.6772C132.633 32.6772 125.549 38.2627 123.037 45.9789L94.6044 46.1726L53.4202 47.0121C51.1661 38.8438 43.7601 32.8387 35.0016 32.8387C26.2109 32.8064 18.7726 38.8438 16.5508 47.0443Z" fill="black"/>
<path d="M179.097 42.2337C179.097 42.2337 179.065 42.2337 179.033 42.2337V42.1693C179.065 42.1693 179.065 42.1693 179.097 42.1693V42.2337Z" fill="black"/>
<path d="M16.6134 47.1407H13.8764H13.9408V47.1084C13.9408 47.0761 13.973 47.0438 13.973 46.9792C13.973 47.0115 13.973 47.0115 13.973 47.0438H16.549C18.7709 38.8433 26.2091 32.8058 34.9998 32.8058C43.7583 32.8058 51.1644 38.811 53.4184 46.9792L94.6027 46.1398L123.036 45.9461C125.547 38.2298 132.631 32.6444 140.939 32.6444C148.442 32.6444 154.946 37.1967 157.973 43.7184L175.522 43.4924C175.587 43.3955 175.748 43.1372 175.973 42.879C176.263 42.5561 176.617 42.2332 177.003 42.1687C177.164 42.1364 177.358 42.1364 177.551 42.1364C178.13 42.1364 178.774 42.201 179.032 42.2332V42.3301C178.807 42.2978 178.13 42.2332 177.551 42.2332C177.358 42.2332 177.164 42.2332 177.036 42.2655C176.52 42.3301 175.973 43.0081 175.748 43.3632C175.683 43.4924 175.619 43.557 175.619 43.557V43.5892L157.941 43.8475V43.8152C154.914 37.2935 148.442 32.7413 140.971 32.7413C132.696 32.7413 125.644 38.3267 123.164 46.0107V46.043L94.6671 46.2367L53.3863 47.0761V47.0438C51.1644 38.9078 43.7905 32.935 35.032 32.935C26.2735 32.935 18.8675 38.9724 16.6778 47.1407H16.6134Z" fill="black"/>
<path d="M16.6134 47.1407H13.8764H13.9408V47.1084C13.9408 47.0761 13.973 47.0438 13.973 46.9792C13.973 47.0115 13.973 47.0115 13.973 47.0438H16.549C18.7709 38.8433 26.2091 32.8058 34.9998 32.8058C43.7583 32.8058 51.1644 38.811 53.4184 46.9792L94.6027 46.1398L123.036 45.9461C125.547 38.2298 132.631 32.6444 140.939 32.6444C148.442 32.6444 154.946 37.1967 157.973 43.7184L175.522 43.4924C175.587 43.3955 175.748 43.1372 175.973 42.879C176.263 42.5561 176.617 42.2332 177.003 42.1687C177.164 42.1364 177.358 42.1364 177.551 42.1364C178.13 42.1364 178.774 42.201 179.032 42.2332V42.3301C178.807 42.2978 178.13 42.2332 177.551 42.2332C177.358 42.2332 177.164 42.2332 177.036 42.2655C176.52 42.3301 175.973 43.0081 175.748 43.3632C175.683 43.4924 175.619 43.557 175.619 43.557V43.5892L157.941 43.8475V43.8152C154.914 37.2935 148.442 32.7413 140.971 32.7413C132.696 32.7413 125.644 38.3267 123.164 46.0107V46.043L94.6671 46.2367L53.3863 47.0761V47.0438C51.1644 38.9078 43.7905 32.935 35.032 32.935C26.2735 32.935 18.8675 38.9724 16.6778 47.1407H16.6134Z" fill="black"/>
<path d="M179.065 42.3307H179.033V42.2339C179.065 42.2339 179.065 42.2339 179.097 42.2339V42.1693C179.129 42.1693 179.162 42.1693 179.162 42.1693V42.2662L179.065 42.3307Z" fill="black"/>
<path d="M13.943 47.1414H13.8786H13.8142V47.0768C13.8142 47.0446 13.8142 47.0123 13.8464 46.98H13.943C13.943 47.0123 13.9108 47.0445 13.9108 47.1091L13.943 47.1414Z" fill="black"/>
<path d="M179.194 42.3307H179.129C179.129 42.3307 179.097 42.3307 179.065 42.3307L179.129 42.2985H179.194V42.3307ZM179.194 42.2662H179.129V42.1693H179.162V42.2662H179.194Z" fill="black"/>
<path d="M179.58 44.461V44.3642H179.483C179.129 44.3642 178.775 44.3319 178.421 44.3319C178.067 44.3319 177.712 44.3642 177.39 44.461C177.068 44.5579 176.811 44.7193 176.65 45.0099C176.457 45.365 176.199 46.0108 175.974 46.7533C175.748 47.4959 175.523 48.303 175.362 48.8519L175.33 49.0133L179.741 48.2384V44.3319H179.644L179.58 44.461H179.483V48.077L175.426 48.7873L175.458 48.8842L175.555 48.9164C175.716 48.3353 175.941 47.5605 176.167 46.8179C176.392 46.0753 176.65 45.3973 176.843 45.1068C177.004 44.8808 177.197 44.7193 177.487 44.6548C177.745 44.5579 178.099 44.5579 178.453 44.5579C178.807 44.5579 179.161 44.5902 179.516 44.5902H179.612L179.58 44.461Z" fill="black"/>
<path d="M179.582 48.1715H179.679V45.4272H179.55C179.163 45.4595 178.68 45.5241 178.294 45.5887C177.908 45.6532 177.586 45.7501 177.425 45.847C177.36 45.8792 177.328 45.9438 177.264 46.0084C177.103 46.2667 176.877 46.7187 176.652 47.2352C176.426 47.7518 176.201 48.3006 176.04 48.7204L175.976 48.8818L179.646 48.2361V48.1392H179.582L179.55 48.0424L176.137 48.6235L176.169 48.7204L176.265 48.7526C176.459 48.2684 176.716 47.6227 176.974 47.0415C177.103 46.7509 177.231 46.4927 177.328 46.299C177.392 46.2021 177.425 46.1052 177.489 46.073C177.521 46.0084 177.553 45.9761 177.586 45.9761C177.682 45.9115 178.004 45.8147 178.391 45.7501C178.777 45.6855 179.228 45.621 179.614 45.5887V45.4918H179.518V48.1392H179.582V48.1715Z" fill="black"/>
<path d="M18.5136 53.7267V53.6622C16.7426 53.6622 14.6496 53.6622 12.782 53.6622C10.689 53.6622 8.918 53.6622 8.3062 53.6622H8.274C6.43859 53.6622 5.15059 51.4668 4.44218 50.5628C4.05578 50.0785 3.18638 49.9171 2.47797 49.8848H2.41357L2.44577 49.9816C2.83218 51.4345 4.02358 53.5007 4.02358 53.5007V53.533H4.92519L7.4046 58.4081H18.578V53.6622H18.5136V53.7267H18.4492V58.3113H7.469L4.98959 53.4362H4.05578V53.5007L4.08798 53.4685C4.08798 53.4685 4.02358 53.3393 3.89478 53.1133C3.54058 52.4676 2.79998 51.0148 2.51017 49.9493H2.44577V50.0139C3.15418 50.0462 3.99138 50.2076 4.31338 50.6596C4.98959 51.5313 6.27759 53.7913 8.2096 53.7913H8.2418C8.8858 53.7913 10.6568 53.7913 12.7176 53.7913C14.5852 53.7913 16.6782 53.7913 18.4492 53.7913V53.7267H18.5136Z" fill="black"/>
<path d="M176.005 47.0446V46.98L156.781 48.6265V48.6911C157.007 49.7888 157.103 50.9188 157.103 52.1134V52.4362V52.5008L175.361 48.9817H175.457H175.489V48.9494C175.618 48.4328 175.811 47.7548 176.037 47.0768L176.069 47.0123H176.005V47.0446H175.94C175.747 47.7225 175.522 48.4005 175.393 48.9171H175.457V48.8525H175.361L157.232 52.3394V52.0811C157.232 50.9188 157.103 49.7565 156.91 48.6588H156.846V48.7234L176.005 47.0768V47.0446Z" fill="black"/>
<path d="M60.0833 19.0184L60.051 18.9216C60.051 18.9216 59.6968 19.0184 59.2782 19.1799C58.8596 19.309 58.4088 19.5027 58.1834 19.6319C58.0224 19.761 57.8292 19.8901 57.7004 20.0839C57.5716 20.2776 57.475 20.4713 57.475 20.7296C57.475 20.8264 57.475 20.891 57.5072 20.9878C57.6682 21.6013 58.0868 22.247 58.0868 22.247L58.119 22.2793H58.1834C58.1834 22.2793 58.5376 22.2793 59.085 22.247C60.7273 22.2147 64.0761 22.1501 64.5269 22.1501C64.8489 22.1501 65.3963 22.1501 65.8793 22.021C66.1369 21.9564 66.3623 21.8596 66.5555 21.7304C66.7487 21.6013 66.8775 21.3753 66.9419 21.1493C66.9741 20.9878 66.9741 20.7941 66.9741 20.5681C66.9741 19.9224 66.9097 18.9862 66.8131 18.2113C66.7809 17.8239 66.7165 17.4687 66.6521 17.2105C66.6199 17.0813 66.5877 16.9522 66.5877 16.8876C66.5877 16.8553 66.5555 16.823 66.5555 16.7907C66.5233 16.7585 66.5233 16.7262 66.4911 16.6939C66.2657 16.5647 65.7827 16.3387 64.6879 16.3387C64.5913 16.3387 64.4625 16.3387 64.3659 16.3387C63.0457 16.371 62.2085 16.5647 61.5001 17.1459C60.7917 17.727 59.9866 18.9862 59.9866 18.9862L60.0833 19.0184L60.1798 19.083C60.1798 19.083 60.2443 19.0184 60.3087 18.8893C60.5663 18.5019 61.1459 17.6947 61.6289 17.3073C62.3051 16.7907 63.0779 16.597 64.3659 16.5325C64.4947 16.5325 64.5913 16.5325 64.6879 16.5325C65.7505 16.5325 66.2013 16.7262 66.3623 16.8553C66.3623 16.8553 66.3945 16.9199 66.4267 17.0167C66.5877 17.6302 66.8131 19.535 66.8131 20.6004C66.8131 20.8264 66.8131 21.0201 66.7809 21.1493C66.7487 21.343 66.6521 21.4721 66.4911 21.6013C66.0081 21.9564 65.0421 21.9887 64.5591 21.9887C63.9473 21.9887 58.1834 22.1178 58.1834 22.1178V22.2147L58.28 22.1501C58.28 22.1501 58.2478 22.1178 58.2156 22.0533C58.0868 21.8596 57.8292 21.3753 57.7326 20.9878C57.7004 20.9233 57.7004 20.8587 57.7004 20.7941C57.7004 20.6004 57.7648 20.439 57.8936 20.2776C58.0224 20.1161 58.1834 19.987 58.3444 19.8901C58.5054 19.761 58.9562 19.5996 59.3748 19.4704C59.7612 19.3413 60.1154 19.2444 60.1154 19.2444H60.1476L60.1798 19.2121L60.0833 19.0184Z" fill="black"/>
<path d="M66.8786 21.1166H66.943C66.9752 20.9875 66.9752 20.7938 66.9752 20.5355C66.9752 19.8898 66.9108 18.9535 66.8142 18.1787C66.782 17.7912 66.7176 17.4361 66.6532 17.1778C66.621 17.0487 66.5888 16.9195 66.5888 16.855C66.5566 16.7581 66.5566 16.7258 66.4922 16.6935C66.3312 16.5967 66.0414 16.4675 65.4618 16.403H65.3329L65.3974 16.4998C65.6228 16.8227 65.9126 17.3392 65.9448 17.8558C65.977 18.3724 66.0414 19.2441 66.0414 20.1158C66.0414 20.7615 66.0092 21.4072 65.8804 21.9238L65.8482 22.0206L65.9448 21.9883C66.4278 21.8592 66.8786 21.6332 66.943 21.1489L66.8786 21.1166H66.8142C66.7498 21.5363 66.3634 21.7623 65.9126 21.8592V21.9238H65.9769C66.1058 21.4072 66.138 20.7615 66.138 20.1158C66.138 19.2441 66.0736 18.3401 66.0414 17.8558C66.0092 17.2747 65.7193 16.7581 65.4939 16.4352L65.4618 16.4675V16.5321C66.0414 16.5967 66.3312 16.7258 66.46 16.8227C66.46 16.8227 66.4922 16.8872 66.5244 16.9518C66.6854 17.5329 66.9108 19.5024 66.9108 20.5678C66.9108 20.7938 66.9108 20.9875 66.8786 21.1166Z" fill="black"/>
<path d="M66.0423 19.0183H66.1067C66.0745 18.534 66.0423 18.1465 66.0423 17.856C66.0101 17.2748 65.7203 16.7583 65.4949 16.4354V16.4031H65.4627C65.2695 16.3708 65.0119 16.3708 64.7221 16.3708C64.6255 16.3708 64.4967 16.3708 64.4001 16.3708C63.0799 16.4031 62.2749 16.5968 61.5665 17.178C60.8581 17.7268 60.0531 19.0183 60.0531 19.0183L59.9887 19.1151H60.0853C60.0853 19.1151 61.1157 19.1151 62.3393 19.1151C63.5951 19.1151 65.0441 19.1151 65.9457 19.1151H66.0423H66.1067V19.0505L66.0423 19.0183V18.9537H65.9457C65.0441 18.9537 63.5951 18.9537 62.3393 18.9537C61.0835 18.9537 60.0853 18.9537 60.0853 18.9537V19.0183L60.1175 19.0505C60.1175 19.0505 60.3107 18.7277 60.6005 18.3403C60.8903 17.9528 61.2445 17.5008 61.5987 17.2426C62.2749 16.6937 63.0477 16.5323 64.3679 16.4677C64.4967 16.4677 64.5933 16.4677 64.6899 16.4677C64.9797 16.4677 65.2051 16.4677 65.4305 16.5V16.4354L65.3983 16.4677C65.6237 16.7906 65.9135 17.3071 65.9457 17.8237C65.9457 18.1143 65.9779 18.534 66.0101 18.986L66.0423 19.0183Z" fill="black"/>
<path d="M100.56 20.5378H100.625L100.818 4.9762L95.6661 5.00848L93.5087 20.8606L100.625 20.5701V20.5055L100.56 20.5378V20.4732L93.6375 20.7638L95.7627 5.13762L100.721 5.10534L100.528 20.5378H100.56Z" fill="black"/>
<path d="M77.5042 5.26604V5.16919C76.6026 5.16919 75.6687 5.1369 74.7993 5.10461H74.7671H74.7349C70.4201 7.3969 50.2949 19.956 46.8494 22.1191L46.624 22.2806L46.9138 22.3451C47.9442 22.5389 49.1035 22.6034 50.1661 22.6357H50.1983L78.8888 5.20147H78.5024C78.1482 5.20147 77.794 5.20147 77.5364 5.20147V5.26604V5.3629C77.8262 5.3629 78.1482 5.3629 78.5024 5.3629V5.26604L78.438 5.16919L50.1339 22.3774L50.1983 22.4743V22.3774C49.1678 22.3452 48.0086 22.2483 46.9782 22.0869L46.946 22.1837L47.0104 22.2806C50.4237 20.1497 70.5811 7.59061 74.8637 5.29833L74.7993 5.20147V5.29833C75.7009 5.33061 76.6026 5.3629 77.5364 5.3629V5.26604H77.5042Z" fill="black"/>
<path d="M160.001 5.94414V5.84729L156.717 5.87957L165.636 19.0197H165.701C167.472 19.0197 169.146 18.9875 170.595 18.9875H170.821L160.259 5.78271L159.969 5.84729L160.001 5.94414L160.034 6.041L160.195 6.00871L170.531 18.9229L170.627 18.8583V18.7615C169.178 18.7615 167.472 18.7937 165.733 18.7937V18.8906L165.83 18.826L157.136 6.07328L160.034 6.041L160.001 5.94414Z" fill="black"/>
<path d="M174.784 18.8266L174.881 18.762L163.61 5.0083L160.004 5.81544L140.426 6.00916C140.426 6.00916 139.911 6.07373 139.396 6.26744C139.138 6.3643 138.881 6.49344 138.655 6.65487C138.462 6.8163 138.301 7.0423 138.301 7.33287C138.301 7.46201 138.333 7.59115 138.365 7.7203C138.494 8.07544 138.881 8.55972 139.364 9.20544C140.845 11.078 143.55 13.9514 144.966 15.4043C146.834 17.3414 148.541 18.7943 151.439 18.9557C152.405 19.0203 155.238 19.0203 158.587 19.0203C164.641 19.0203 172.53 18.9557 174.752 18.9557H174.945L174.816 18.7943L174.784 18.8266V18.7297C172.562 18.7297 164.705 18.7943 158.619 18.7943C155.238 18.7943 152.437 18.762 151.471 18.7297C148.637 18.5683 147.027 17.18 145.127 15.2429C144.194 14.2743 142.68 12.6923 141.328 11.1749C140.652 10.4323 140.04 9.68972 139.525 9.04401C139.042 8.43058 138.687 7.91401 138.559 7.62344C138.526 7.52658 138.494 7.42972 138.494 7.33287C138.494 7.13915 138.591 6.94544 138.784 6.8163C139.042 6.5903 139.46 6.42887 139.814 6.3643C139.975 6.33201 140.136 6.29973 140.265 6.26744C140.394 6.23516 140.458 6.23516 140.458 6.23516L160.036 6.04144L163.514 5.26659L174.72 18.8911L174.784 18.8266Z" fill="black"/>
<path d="M132.149 17.083L132.213 17.0507C131.73 16.0498 127.415 8.94705 125.87 7.13906C125.387 6.55793 124.678 6.10593 123.905 5.75079L123.841 5.71851V19.7627H123.905C126.964 19.6335 129.251 19.5044 130.023 19.4398C131.311 19.3107 132.149 18.9878 132.438 18.4713C132.503 18.3421 132.535 18.213 132.535 18.0515C132.535 17.761 132.438 17.4381 132.245 17.0507L132.149 17.083L132.084 17.1153C132.277 17.5027 132.374 17.7933 132.374 18.0515C132.374 18.1807 132.342 18.3098 132.277 18.439C132.052 18.891 131.247 19.2138 129.959 19.343C129.186 19.4398 126.9 19.5367 123.873 19.6658V19.7304H123.938V5.81536H123.873L123.841 5.87993C124.614 6.23507 125.29 6.68707 125.773 7.23592C127.286 9.01162 131.601 16.1144 132.084 17.1153L132.149 17.083Z" fill="black"/>
<path d="M132.052 16.7261L132.149 16.6938C131.634 15.6606 127.544 9.00981 126.063 7.29867C124.582 5.55524 121.523 4.94182 119.43 4.94182C118.399 4.94182 113.119 4.94182 108.095 4.94182C105.584 4.94182 103.136 4.94182 101.333 4.94182C100.432 4.94182 99.6588 4.94182 99.1436 4.94182C98.6284 4.94182 98.3064 4.94182 98.3064 4.94182C98.3064 4.94182 97.276 4.94182 95.666 4.9741C90.8359 5.03867 80.725 5.16782 77.505 5.16782C74.5747 5.16782 71.5157 4.84496 69.8413 4.65125H69.8091H69.7769C69.7125 4.68353 69.6803 4.68353 69.6803 4.68353C69.6803 4.68353 61.3404 9.52638 57.6373 11.9155C53.9343 14.3047 46.2384 19.7609 46.2384 19.7609L46.3028 19.8578V19.7609L45.1436 19.6641L43.8556 20.4712V20.5358C43.92 21.0201 44.242 21.3752 44.7572 21.6658C45.4978 22.0855 46.6248 22.3115 47.8484 22.4406C49.0399 22.5698 50.2957 22.6021 51.3261 22.6021C52.4853 22.6021 53.3225 22.5375 53.3225 22.5375L61.0184 22.2146V21.9886C59.5372 22.0209 58.1847 22.0532 58.1847 22.0532V22.1501L58.2814 22.0855C58.2814 22.0855 58.2492 22.0532 58.217 21.9886C58.0882 21.7949 57.8305 21.3106 57.7339 20.9232C57.7017 20.8586 57.7017 20.7941 57.7017 20.7295C57.7017 20.5358 57.7661 20.3744 57.8949 20.2129C58.0238 20.0515 58.1847 19.9224 58.3458 19.8255C58.5068 19.6964 58.9576 19.5349 59.3762 19.4058C59.7626 19.2766 60.1168 19.1798 60.1168 19.1798H60.149L60.1812 19.1475C60.1812 19.1475 60.2456 19.0829 60.31 18.9538C60.5676 18.5664 61.1472 17.7592 61.6302 17.3718C62.3064 16.8552 63.0792 16.6615 64.3672 16.5969C64.496 16.5969 64.5926 16.5969 64.6892 16.5969C65.7518 16.5969 66.2026 16.7906 66.3636 16.9198C66.3636 16.9198 66.3958 16.9844 66.428 17.0812C66.589 17.6946 66.8144 19.5995 66.8144 20.6649C66.8144 20.8909 66.8144 21.0846 66.7822 21.2138C66.75 21.4075 66.6534 21.5366 66.4924 21.6658C66.3314 21.7949 66.106 21.8595 65.8806 21.9241L64.8824 22.1823L96.8252 20.8909C96.8252 20.8909 104.263 20.6649 112.088 20.4066C119.913 20.1484 128.124 19.8255 129.702 19.6641C130.764 19.5349 131.441 19.3089 131.859 19.0184C132.278 18.7278 132.471 18.3081 132.439 17.9206C132.439 17.5332 132.278 17.1458 132.117 16.7906L132.052 16.7261L131.956 16.7584C132.117 17.0812 132.246 17.4364 132.246 17.7915C132.246 18.1144 132.117 18.4372 131.73 18.6955C131.344 18.9538 130.7 19.1798 129.67 19.3089C128.124 19.4704 119.881 19.7932 112.088 20.0515C108.192 20.1806 104.36 20.3098 101.526 20.4066C100.11 20.4389 98.9504 20.5035 98.1132 20.5035C97.3082 20.5358 96.8252 20.5358 96.8252 20.5358L65.8806 21.7949V21.8918L65.9128 21.9886C66.1704 21.9241 66.3958 21.8272 66.589 21.6981C66.7822 21.5689 66.911 21.3429 66.9754 21.1169C67.0076 20.9555 67.0077 20.7618 67.0077 20.5358C67.0077 19.8901 66.9432 18.9538 66.8466 18.1789C66.8144 17.7915 66.75 17.4364 66.6856 17.1781C66.6534 17.0489 66.6212 16.9198 66.6212 16.8552C66.6212 16.8229 66.589 16.7906 66.589 16.7584C66.5568 16.7261 66.5568 16.6938 66.5246 16.6615C66.2992 16.5324 65.8162 16.3064 64.7214 16.3064C64.6248 16.3064 64.496 16.3064 64.3994 16.3064C63.0792 16.3386 62.242 16.5324 61.5336 17.1135C60.8252 17.6946 60.0202 18.9538 60.0202 18.9538L60.1168 19.0184L60.0846 18.9215C60.0846 18.9215 59.7304 19.0184 59.3118 19.1798C58.8932 19.3089 58.4424 19.5026 58.217 19.6318C58.056 19.7609 57.8627 19.8901 57.7339 20.0838C57.6051 20.2775 57.5085 20.4712 57.5085 20.7295C57.5085 20.8263 57.5085 20.8909 57.5407 20.9878C57.7017 21.6012 58.1204 22.2469 58.1204 22.2469L58.1526 22.2792H58.217C58.217 22.2792 58.5712 22.2792 59.0864 22.2469C59.6016 22.2469 60.31 22.2146 61.0506 22.2146V22.1178V22.0209L53.3547 22.3438C53.3547 22.3438 53.1615 22.3438 52.8073 22.3761C52.4531 22.3761 51.9701 22.4083 51.3905 22.4083C50.0381 22.4083 48.267 22.3438 46.7858 22.0532C46.0452 21.9241 45.4012 21.7303 44.9182 21.4721C44.4352 21.2138 44.1776 20.8909 44.1454 20.5035H44.0488L44.1132 20.6004L45.2724 19.8901L46.3994 19.9869L46.4316 19.9546C46.4316 19.9546 46.9146 19.5995 47.6874 19.0506C50.0381 17.4041 55.0613 13.8849 57.8305 12.1092C59.666 10.9147 62.6928 9.10666 65.2366 7.62152C66.5246 6.87895 67.6517 6.20096 68.5211 5.68439C69.3583 5.2001 69.8735 4.87724 69.8735 4.87724L69.8091 4.78039L69.8413 4.87724C69.8413 4.87724 69.8735 4.87724 69.9379 4.84496L69.9057 4.7481V4.84496C71.5479 5.03867 74.6391 5.36153 77.6016 5.36153C81.9164 5.36153 98.403 5.13553 98.403 5.13553C98.403 5.13553 117.466 5.13553 119.526 5.13553C121.555 5.13553 124.582 5.78124 125.999 7.42781C127.448 9.10666 131.569 15.7898 132.052 16.7906V16.7261Z" fill="black"/>
<path d="M138.267 32.8687L138.363 32.901C138.363 32.901 138.267 26.0564 138.138 22.9247C138.009 19.7607 137.011 17.1456 135.433 14.7887C134.628 13.5942 132.825 11.3987 131.021 9.33246C129.186 7.23389 127.351 5.29675 126.449 4.58647C125.644 3.97304 124.259 3.65019 122.778 3.48876C121.265 3.32733 119.655 3.29504 118.463 3.29504C118.045 3.29504 117.658 3.29504 117.369 3.29504C115.308 3.29504 100.013 3.42419 98.6923 3.42419C97.3721 3.42419 87.8408 3.65019 85.0716 3.68247C82.3023 3.74704 80.9177 3.8439 79.8873 4.13447C78.8569 4.42504 76.3131 5.6519 76.3131 5.6519C72.7066 7.58904 52.3238 20.3419 52.3238 20.3419L52.195 20.4064L54.8354 22.5373L54.8998 22.4404L54.8032 22.4081C54.8032 22.4081 53.7728 28.0581 53.6762 30.5764C53.6762 30.7056 53.6762 30.8347 53.6762 30.9961C53.6762 33.8696 54.5134 41.1984 54.771 43.1355C54.8998 44.1687 55.5438 46.9775 56.1235 49.5281C56.7353 52.0787 57.2827 54.3709 57.2827 54.3709L57.3149 54.4678H122.134V54.3709C122.134 52.4661 122.392 50.3675 122.649 48.721C122.778 47.9138 122.907 47.2035 123.004 46.7192C123.1 46.235 123.165 45.9444 123.165 45.9444C125.386 39.0998 131.182 33.9664 138.267 32.901H138.331V32.8364L138.267 32.8687V32.7718C131.086 33.8373 125.225 39.0353 123.004 45.9444C123.004 45.9444 121.973 50.5612 121.973 54.4032H122.07V54.3064H57.4115V54.4032L57.5081 54.3709C57.5081 54.3709 57.3793 53.7898 57.1539 52.9181C56.5099 50.2384 55.1896 44.6852 54.9964 43.1678C54.7388 41.2307 53.9016 33.8696 53.9016 31.0284C53.9016 30.867 53.9016 30.7378 53.9016 30.6087C53.966 29.3818 54.2236 27.3479 54.4812 25.6367C54.61 24.765 54.7388 23.9901 54.8354 23.409C54.932 22.8279 54.9964 22.4727 54.9964 22.4727V22.4081L52.4204 20.3419L52.356 20.4387L52.4204 20.5356C52.4204 20.5356 52.7424 20.3419 53.2898 19.9867C57.2505 17.5007 73.2218 7.52446 76.3775 5.78104L76.3131 5.68418L76.3453 5.78104C76.3453 5.78104 76.9893 5.49047 77.7621 5.13533C78.5349 4.81247 79.4043 4.42504 79.9195 4.2959C80.8855 4.00533 82.2701 3.90847 85.0394 3.87619C87.8086 3.81161 97.3077 3.6179 98.6279 3.6179C99.9481 3.6179 115.243 3.48876 117.304 3.48876C117.626 3.48876 117.98 3.48876 118.399 3.48876C119.623 3.48876 121.2 3.52104 122.714 3.68247C124.195 3.8439 125.58 4.16676 126.288 4.7479C127.157 5.4259 129.025 7.39532 130.828 9.4616C132.664 11.5279 134.467 13.7233 135.24 14.9179C136.818 17.2424 137.784 19.8253 137.912 22.957C137.977 24.5067 138.041 27.025 138.073 29.1236C138.106 30.189 138.106 31.1253 138.106 31.8033C138.106 32.4813 138.138 32.9333 138.138 32.9333L138.267 32.8687Z" fill="black"/>
<path d="M135.37 14.7892L135.466 14.7246C134.661 13.5301 132.858 11.3347 131.055 9.26837C129.219 7.16981 127.384 5.23267 126.482 4.52238C125.677 3.90896 124.293 3.5861 122.812 3.42467C121.298 3.26324 119.688 3.23096 118.497 3.23096C118.078 3.23096 117.692 3.23096 117.402 3.23096C115.341 3.23096 100.046 3.3601 98.7257 3.3601C98.6935 3.3601 98.6291 3.3601 98.5647 3.3601H98.468L96.8258 20.0518L96.1818 22.6669L95.3124 28.446V30.028L94.7972 39.8429L94.604 42.7809V46.1709L94.8294 54.5328H122.264V54.436C122.264 52.5311 122.522 50.4326 122.779 48.786C122.908 47.9789 123.037 47.2686 123.134 46.7843C123.23 46.3 123.295 46.0094 123.295 46.0094C125.516 39.1649 131.312 34.0315 138.396 32.966H138.461L138.493 32.9015C138.493 32.9015 138.396 26.0569 138.268 22.9252C138.139 19.7612 137.141 17.1461 135.563 14.7892H135.37L135.273 14.8538C136.851 17.1784 137.817 19.7612 137.946 22.8929C138.01 24.4426 138.074 26.9609 138.107 29.0595C138.139 30.1249 138.139 31.0612 138.139 31.7392C138.139 32.4172 138.171 32.8692 138.171 32.8692H138.268V32.7723C131.087 33.8377 125.227 39.0357 123.005 45.9449C123.005 45.9449 121.974 50.5617 121.974 54.4037H122.071V54.3068H94.9582L94.7328 46.1709V42.8132L94.926 39.8752L95.4412 30.0603V28.4783L96.3106 22.7315L96.9546 20.1163L98.5969 3.48924H98.5002V3.5861C98.5647 3.5861 98.6291 3.5861 98.6613 3.5861C99.9815 3.5861 115.277 3.45696 117.337 3.45696C117.659 3.45696 118.014 3.45696 118.432 3.45696C119.656 3.45696 121.234 3.48924 122.747 3.65067C124.228 3.8121 125.613 4.13496 126.321 4.7161C127.191 5.39409 129.058 7.36352 130.862 9.4298C132.697 11.4961 134.5 13.6915 135.273 14.8861L135.37 14.7892Z" fill="black"/>
</g>
<defs>
<clipPath id="clip0_45_49">
<rect width="180" height="66.1856" fill="white"/>
</clipPath>
</defs>
</svg>
