<svg width="101" height="81" viewBox="0 0 101 81" fill="none" xmlns="http://www.w3.org/2000/svg">
<g clip-path="url(#clip0_7800_5118)">
<path d="M99.8263 22.0817L99.7641 22.0991L99.7026 22.1166C99.4477 21.2052 98.8554 20.4521 98.2484 20.4592C97.7149 20.4592 94.0648 20.2774 92.3605 20.2774C91.9365 20.2769 91.6259 20.2907 91.541 20.3153C91.4599 20.3291 91.3503 20.5038 91.2773 20.7707C91.2016 21.0356 91.1466 21.3809 91.1089 21.7221C91.0321 22.4045 91.0201 23.0694 91.0201 23.071L91.019 23.1273L90.1976 23.2139L90.1791 23.1703C89.0905 20.5945 85.0299 11.8837 83.9056 9.6193C83.3533 8.5063 82.7306 7.20549 82.1982 6.09387L82.0829 5.85384C81.5763 4.79601 81.1642 3.93977 81.0051 3.65233L81.0635 3.59919L81.0204 3.55154L80.9662 3.58536C80.9766 3.60217 80.9897 3.62461 81.0051 3.65233L80.1221 4.45424L80.1114 4.45885C80.1114 4.45885 80.0779 4.47215 80.0249 4.50189C79.9711 4.53209 79.8992 4.57819 79.8285 4.64121C79.6859 4.76724 79.5494 4.95374 79.5494 5.21705C79.5494 5.30516 79.5648 5.40252 79.6017 5.51111C79.7374 5.90971 79.9342 6.42919 80.0964 6.84823C80.2252 7.17951 80.332 7.44805 80.3716 7.54653H80.3282V7.61054L80.3877 7.58699C80.3877 7.58676 80.382 7.57262 80.3716 7.54653C80.332 7.44805 80.2252 7.17951 80.0964 6.84823C79.9342 6.42919 79.7374 5.90971 79.6017 5.51111C79.5648 5.40252 79.5494 5.30516 79.5494 5.21705C79.5494 4.95374 79.6859 4.76724 79.8285 4.64121C79.8992 4.57819 79.9711 4.53209 80.0249 4.50189C80.0779 4.47215 80.1114 4.45885 80.1114 4.45885L80.1221 4.45424L81.0051 3.65233C81.1642 3.93977 81.5763 4.79601 82.0829 5.85384L82.1982 6.09387C82.7306 7.20549 83.3533 8.5063 83.9056 9.6193C85.0299 11.8837 89.0905 20.5945 90.1791 23.1703L90.1976 23.2139L91.019 23.1273L91.0201 23.071C91.0201 23.0694 91.0321 22.4045 91.1089 21.7221C91.1466 21.3809 91.2016 21.0356 91.2773 20.7707C91.3503 20.5038 91.4599 20.3291 91.541 20.3153C91.6259 20.2907 91.9365 20.2769 92.3605 20.2774C94.0648 20.2774 97.7149 20.4592 98.2484 20.4592C98.8554 20.4521 99.4477 21.2052 99.7026 22.1166C99.9612 23.031 100.293 25.0024 100.316 25.4404L100.32 25.5685C100.32 25.7846 100.283 26.0275 100.109 26.235C99.9347 26.443 99.6149 26.6248 99.0226 26.6991C98.3626 26.7811 97.0065 26.8882 95.8168 26.9737C94.6721 27.0565 93.6831 27.1199 93.6082 27.1246C93.5767 27.1208 93.436 27.1032 93.283 27.0726C93.11 27.0403 92.9144 26.9788 92.8717 26.9302C92.7879 26.8477 92.6449 26.7719 92.5188 26.7109C92.4558 26.6807 92.3974 26.6551 92.3547 26.6371L92.3036 26.6156L92.2886 26.61L92.284 26.6084L92.2813 26.6074L92.279 26.6064L92.2605 26.6038L92.2509 26.6044C92.2409 26.6059 91.9561 26.6582 91.5633 26.7299L91.491 26.7432L91.5141 26.8129C91.8839 27.9307 92.2025 29.0347 92.3416 29.8483C92.6192 31.4745 94.3516 35.9058 94.45 36.1588C94.4527 36.2594 94.4719 37.0596 94.4911 38.2675C94.5115 39.5596 94.5319 41.3147 94.5319 43.1694C94.5319 45.0237 94.5115 46.9779 94.45 48.6658C94.3585 51.1967 94.1063 53.4345 93.8773 55.0383C93.7631 55.8406 93.6539 56.4841 93.574 56.9272C93.5029 57.3222 93.4544 57.5569 93.4444 57.6042C93.4191 57.6526 93.2684 57.945 93.0401 58.3715C92.6634 59.0739 92.0764 60.1405 91.4964 61.0784C90.9198 62.0155 90.334 62.8305 90.0088 63.0065C89.7963 63.1271 89.1767 63.2458 88.3794 63.3446C85.9767 63.6439 81.9061 63.8107 81.3841 63.8902C81.178 63.9259 80.949 64.1273 80.6049 64.4066C79.5821 65.2438 77.6294 66.8211 73.638 66.8226H27.386C24.7246 66.8219 22.9697 66.1195 21.7925 65.4044C21.2036 65.0471 20.7593 64.6863 20.418 64.4066C20.074 64.1273 19.845 63.9259 19.6395 63.8902C19.2884 63.836 17.369 63.7453 15.4097 63.6016C14.4308 63.5294 13.4443 63.4445 12.6443 63.3446C11.8468 63.2458 11.2271 63.1271 11.0144 63.0065C10.8007 62.89 10.462 62.4866 10.0966 61.9556C9.5456 61.1579 8.91468 60.0675 8.42217 59.1768C7.95864 58.3388 7.61816 57.6803 7.57926 57.6042C7.56926 57.5573 7.52075 57.3225 7.44941 56.9272C7.20906 55.5977 6.71094 52.4624 6.57306 48.6658C6.51206 46.9779 6.49153 45.0237 6.49153 43.1694C6.49153 41.3147 6.51206 39.5596 6.53258 38.2675C6.55165 37.0651 6.57029 36.2667 6.57279 36.1603C6.6652 35.923 8.40414 31.4776 8.68251 29.8483C8.82142 29.0347 9.14023 27.9307 9.50924 26.8129L9.53226 26.7432L9.4595 26.7299C9.2627 26.694 9.09203 26.6628 8.97007 26.6402C8.90906 26.6295 8.8604 26.6202 8.82708 26.6141L8.78864 26.6074L8.77837 26.6054L8.7753 26.6049H8.77426L8.77322 26.6044L8.7635 26.6038L8.74301 26.6074C8.71737 26.6177 8.31558 26.7714 8.1521 26.9302C8.10955 26.9788 7.91325 27.0403 7.74054 27.0726C7.58698 27.1032 7.44691 27.1208 7.41516 27.1246C7.33998 27.1199 6.35062 27.0565 5.20616 26.9737C4.01715 26.8882 2.66106 26.7811 2.00044 26.6991C1.40952 26.6249 1.08919 26.4435 0.914936 26.236C0.740684 26.0285 0.704303 25.7862 0.704303 25.57L0.707904 25.4404C0.729945 25.0029 1.06307 23.031 1.32086 22.1166C1.57609 21.2052 2.16752 20.4521 2.77433 20.4592C3.30888 20.4592 6.95898 20.2774 8.66306 20.2774C9.08638 20.2769 9.3975 20.2907 9.48256 20.3153C9.56355 20.3291 9.67321 20.5038 9.74598 20.7707C9.86026 21.1683 9.92587 21.7456 9.96173 22.2211C9.99763 22.6965 10.0043 23.07 10.0043 23.071L10.0053 23.1273L10.8259 23.2144L10.8443 23.1704C11.9329 20.5945 15.994 11.8837 17.1174 9.61931C17.7211 8.4036 18.4089 6.96251 18.9717 5.78776C19.253 5.20016 19.5031 4.67964 19.6959 4.28722C19.8834 3.90426 20.0194 3.63898 20.0679 3.56679L20.0777 3.55667L21.0658 4.45425L21.0761 4.45886C21.0761 4.45886 21.1093 4.47215 21.1627 4.50189C21.3256 4.59411 21.6403 4.82465 21.6383 5.21706C21.6383 5.30517 21.6229 5.40253 21.586 5.51111C21.4501 5.90971 21.2534 6.42919 21.0914 6.84824C20.963 7.17952 20.856 7.44806 20.8166 7.54654H20.6758C20.6722 7.54754 19.6959 7.56652 19.2407 7.7325L18.6339 8.73404L18.8738 8.34212C19.0409 8.06394 19.1997 7.87951 19.2853 7.85288C19.4893 7.77708 19.8414 7.73043 20.1381 7.70534C20.4354 7.68025 20.6788 7.6746 20.6788 7.6746H20.9033L20.9192 7.63464C20.9192 7.63464 21.4333 6.35592 21.7074 5.55211C21.7485 5.43223 21.7664 5.32004 21.7664 5.21706C21.7669 4.9061 21.6024 4.68425 21.444 4.54493C21.3081 4.42562 21.1744 4.36188 21.1354 4.34474L20.0725 3.37891L19.9726 3.48086L19.9685 3.48494L19.9654 3.48956C19.9075 3.57511 19.7748 3.83639 19.581 4.23086C19.0019 5.41021 17.9072 7.74069 17.0026 9.56194C15.8834 11.8188 11.8629 20.4409 10.745 23.0768L10.1311 23.0119C10.1262 22.8364 10.1068 22.2791 10.0427 21.7077C10.0038 21.3624 9.94893 21.0125 9.86952 20.7354C9.78649 20.4613 9.69474 20.2487 9.51589 20.1913C9.39289 20.159 9.09307 20.1503 8.66306 20.1493C6.95437 20.1493 3.29914 20.3312 2.77433 20.3312C2.05887 20.3388 1.46436 21.1478 1.19734 22.0817C0.935451 23.0141 0.604379 24.9722 0.579778 25.4337C0.57773 25.4763 0.576177 25.5224 0.576177 25.57C0.575666 25.799 0.615138 26.0782 0.817069 26.318C1.01848 26.5583 1.37467 26.7504 1.98455 26.8262C3.31657 26.9917 7.41048 27.253 7.41152 27.253H7.41717L7.42278 27.2524C7.42382 27.2524 7.58476 27.2345 7.76569 27.1981C7.94811 27.1592 8.14284 27.1146 8.24278 27.0209C8.30071 26.9614 8.43962 26.8836 8.56055 26.8262C8.62105 26.797 8.6774 26.7724 8.71891 26.755L8.76812 26.7345L8.76904 26.7341C8.82919 26.7449 9.06105 26.7873 9.36429 26.8427C9.00447 27.9397 8.69447 29.0181 8.55594 29.8268C8.41706 30.6449 7.88969 32.2239 7.39818 33.5922C7.15217 34.2767 6.9149 34.9094 6.73912 35.3715C6.56384 35.8331 6.45006 36.1225 6.44952 36.1235L6.44545 36.1338V36.1451C6.44545 36.1451 6.36342 39.4581 6.36342 43.1694C6.36342 45.0248 6.38395 46.9798 6.44545 48.6704C6.62772 53.7108 7.44434 57.5861 7.45549 57.6388L7.4556 57.6395L7.45714 57.6476L7.46122 57.6553C7.46122 57.6553 8.09214 58.8848 8.84142 60.1801C9.21657 60.8275 9.62044 61.4918 9.99149 62.0282C10.3641 62.5658 10.6941 62.973 10.9519 63.1187C11.2107 63.2597 11.8232 63.3699 12.6283 63.4718C15.0361 63.7719 19.1213 63.9398 19.62 64.0166C19.7553 64.0331 19.9977 64.2245 20.337 64.5053C21.3625 65.3476 23.3603 66.9521 27.386 66.9506H73.638C76.3214 66.9506 78.1038 66.2394 79.2976 65.514C79.8946 65.1512 80.3447 64.7855 80.6864 64.5053C81.0258 64.2245 81.268 64.0331 81.4033 64.0166C81.7331 63.9655 83.6658 63.8733 85.6234 63.7292C86.6028 63.657 87.5914 63.5721 88.3944 63.4718C89.2001 63.3699 89.8128 63.2597 90.0715 63.1187C90.3294 62.973 90.6592 62.5658 91.0321 62.0282C92.1437 60.4198 93.5613 57.6564 93.562 57.6553L93.5663 57.6476L93.5678 57.6395V57.6388C93.5793 57.5846 94.3958 53.71 94.578 48.6704C94.6395 46.9798 94.6599 45.0248 94.6599 43.1694C94.6599 39.4581 94.578 36.1451 94.578 36.1451V36.1338L94.5741 36.1235C94.5734 36.1225 94.4596 35.8331 94.2839 35.3715C93.7573 33.9877 92.6768 31.0563 92.4677 29.8268C92.3293 29.0181 92.0195 27.9397 91.6594 26.8427C91.8258 26.8124 91.9703 26.786 92.0768 26.7663C92.1379 26.7555 92.1867 26.7463 92.2198 26.7401L92.2552 26.734C92.3347 26.7653 92.6768 26.9129 92.781 27.0209C92.8805 27.1146 93.0754 27.1592 93.2576 27.1981C93.4383 27.2345 93.5997 27.2524 93.6005 27.2524L93.6063 27.253H93.612C93.612 27.253 97.7068 26.9917 99.0383 26.8262C99.6491 26.7504 100.005 26.5577 100.208 26.3175C100.409 26.0767 100.448 25.7975 100.448 25.5685C100.448 25.5208 100.446 25.4757 100.444 25.4337C100.419 24.9722 100.088 23.0141 99.8263 22.0817C99.5592 21.1478 98.9641 20.3388 98.2484 20.3312C97.7249 20.3312 94.0694 20.1493 92.3605 20.1493C91.93 20.1503 91.6305 20.159 91.5071 20.1913C91.328 20.2487 91.2369 20.4613 91.1543 20.7354C90.9448 21.4685 90.901 22.7307 90.8937 23.0118L90.279 23.0767C89.1605 20.4409 85.1406 11.8188 84.0202 9.56194C83.4759 8.46497 82.8624 7.18471 82.3346 6.08262L82.1982 5.79852C81.6412 4.63561 81.2046 3.72677 81.075 3.51774L81.0347 3.45268L80.0522 4.34471C80.0134 4.36181 79.8796 4.42559 79.7439 4.54493C79.5852 4.68425 79.4206 4.90611 79.421 5.21707C79.421 5.32004 79.4391 5.43223 79.4798 5.55261C79.7543 6.35593 80.269 7.63464 80.269 7.63464L80.2847 7.6746H80.5615V7.61055L80.56 7.6746H80.2847L80.269 7.63464C80.269 7.63464 79.7543 6.35593 79.4798 5.55261C79.4391 5.43223 79.421 5.32004 79.421 5.21707C79.4206 4.90611 79.5852 4.68425 79.7439 4.54493C79.8796 4.42559 80.0134 4.36181 80.0522 4.34471L80.0445 4.35178L80.0875 4.39942L80.0633 4.33998C80.0626 4.34021 80.0587 4.34179 80.0522 4.34471L81.0347 3.45268L81.075 3.51774C81.2046 3.72677 81.6412 4.63561 82.1982 5.79852L82.3346 6.08262C82.8624 7.18471 83.4759 8.46497 84.0202 9.56194C85.1406 11.8188 89.1605 20.4409 90.279 23.0767L90.2314 23.0818L90.2387 23.1453L90.2975 23.1207C90.2913 23.1062 90.2852 23.0916 90.279 23.0767L90.8937 23.0118C90.8925 23.0482 90.8921 23.0681 90.8921 23.0684L90.9559 23.0695L90.9494 23.0059L90.8937 23.0118C90.901 22.7307 90.9448 21.4685 91.1543 20.7354C91.2369 20.4613 91.328 20.2487 91.5071 20.1913C91.6305 20.159 91.93 20.1503 92.3605 20.1493C94.0694 20.1493 97.7249 20.3312 98.2484 20.3312C98.9641 20.3388 99.5592 21.1478 99.8263 22.0817Z" fill="black"/>
<path d="M100.38 25.4345L100.508 25.4279C100.482 24.9545 100.152 23.0031 99.8872 22.062C99.7526 21.5856 99.5328 21.145 99.2545 20.8161C98.9766 20.4887 98.6322 20.2659 98.2482 20.2649C97.7292 20.2654 94.0711 20.083 92.3598 20.083C92.1453 20.083 91.9608 20.0861 91.8151 20.0927C91.6675 20.0999 91.5657 20.1076 91.49 20.1275C91.3739 20.1609 91.2993 20.248 91.2397 20.3479C91.1363 20.5251 91.0675 20.7751 91.0118 21.0595C90.8477 21.9088 90.8281 23.0615 90.8277 23.0651L90.9557 23.0672L90.9426 22.9401L90.2246 23.016L90.2384 23.143L90.356 23.0933C89.2629 20.5077 85.2049 11.8031 84.0775 9.53151C83.4752 8.31784 82.7876 6.87724 82.2248 5.7025C81.9435 5.11489 81.6932 4.59387 81.4999 4.20042C81.403 4.00319 81.3211 3.83823 81.2562 3.7122C81.1901 3.58515 81.1443 3.50113 81.1105 3.45093C81.0198 3.32797 80.8722 3.26189 80.6877 3.18607C80.1392 2.97192 79.2605 2.81465 79.2562 2.81362L79.2336 2.93965L79.3558 2.90071C79.3558 2.9002 79.347 2.87356 79.3316 2.82027C79.2858 2.65992 79.1851 2.27005 79.1159 1.75519C79.0667 1.37608 78.8749 1.05538 78.5305 0.825353C78.1861 0.594304 77.6983 0.44163 77.0284 0.345311C76.7059 0.299714 76.4276 0.281275 76.187 0.281275C75.4282 0.278712 75.0315 0.472365 74.8543 0.541019C74.7709 0.576875 74.7348 0.637334 74.7017 0.698811C74.5933 0.915006 74.536 1.29309 74.4926 1.63684C74.4515 1.97753 74.433 2.27108 74.433 2.27262L74.561 2.28081L74.5683 2.15273C73.208 2.07743 58.0464 1.40221 50.5118 1.4017C42.9771 1.40221 27.8152 2.07743 26.4549 2.15273L26.4621 2.28081L26.5902 2.27262C26.5897 2.27108 26.5662 1.88787 26.5113 1.48879C26.4837 1.28847 26.4483 1.0856 26.4027 0.919106C26.3796 0.836108 26.354 0.762336 26.3217 0.698811C26.2878 0.637334 26.2525 0.576875 26.169 0.541019C25.9911 0.472365 25.5944 0.278712 24.8364 0.281275C24.5956 0.281275 24.3173 0.299714 23.9949 0.345311C23.325 0.441626 22.8366 0.594304 22.4922 0.825353C22.1473 1.05538 21.9561 1.37608 21.9069 1.75519C21.8608 2.09843 21.8003 2.38583 21.7516 2.58717C21.7275 2.68758 21.706 2.76648 21.6906 2.82027C21.6758 2.87356 21.6671 2.9002 21.6671 2.90071L21.789 2.93965L21.7665 2.81362C21.7644 2.81413 21.3714 2.88483 20.9491 2.99447C20.7374 3.04979 20.5191 3.11383 20.3356 3.18607C20.1511 3.26189 20.0035 3.32797 19.9123 3.45093C19.8482 3.54622 19.718 3.80391 19.5227 4.20042C18.9436 5.38078 17.8489 7.71075 16.9448 9.53151C15.8183 11.8031 11.7598 20.5077 10.6671 23.0933L10.785 23.143L10.7988 23.016L10.0813 22.9401L10.068 23.0672L10.1961 23.0651C10.1961 23.0631 10.1838 22.392 10.1059 21.6983C10.0669 21.3509 10.0116 20.9985 9.93063 20.7157C9.88962 20.5738 9.84295 20.4493 9.78299 20.3479C9.72357 20.248 9.64876 20.1609 9.53241 20.1275C9.45707 20.1076 9.35456 20.0999 9.20746 20.0927C9.06189 20.0861 8.87743 20.083 8.66267 20.083C6.9514 20.083 3.29414 20.2654 2.77395 20.2649C2.39059 20.2659 2.04619 20.4887 1.76892 20.8161C1.49012 21.145 1.27074 21.5856 1.13544 22.062C0.871501 23.0031 0.540948 24.9545 0.515325 25.4279C0.513276 25.4714 0.511723 25.5186 0.511723 25.5678C0.511212 25.8034 0.552222 26.1011 0.767476 26.3572C0.98273 26.6134 1.35737 26.8106 1.97648 26.8875C3.3131 27.0535 7.40547 27.3142 7.40701 27.3147L7.41831 27.3152L7.42957 27.3137C7.43161 27.3137 7.59409 27.2958 7.77809 27.2589C7.86985 27.2404 7.96717 27.2174 8.05535 27.1882C8.14349 27.1574 8.2214 27.1267 8.28752 27.0642C8.33264 27.016 8.46998 26.9366 8.58783 26.8818C8.6468 26.8531 8.70265 26.8291 8.74312 26.8116L8.79132 26.7922L8.80362 26.787L8.80516 26.7865L8.77545 26.704L8.80313 26.787L8.80516 26.7865L8.77545 26.704L8.80313 26.787L8.76469 26.6723L8.79797 26.7886L8.80313 26.787L8.76469 26.6723L8.79797 26.7886L8.76311 26.6661V26.7937L8.79797 26.7886L8.76311 26.6661L8.74416 26.7922L8.76311 26.7937V26.6661L8.74416 26.7922L8.74466 26.7927C8.78156 26.7988 9.05832 26.8495 9.42479 26.9167L9.44781 26.7906L9.32638 26.7507C8.95584 27.8731 8.635 28.9818 8.49254 29.8138C8.35567 30.6216 7.82883 32.2016 7.33732 33.5679C7.09182 34.2524 6.85454 34.8846 6.67926 35.3461C6.50345 35.8078 6.38967 36.0967 6.38967 36.0977L6.38152 36.1187L6.38098 36.1413C6.38098 36.1418 6.29895 39.4553 6.29895 43.167C6.29895 45.0232 6.31948 46.9786 6.38098 48.6703C6.56498 53.7499 7.39167 57.6456 7.39267 57.6502L7.39625 57.6667L7.40394 57.6821C7.40447 57.6832 8.03536 58.9128 8.78567 60.2099C9.16083 60.8585 9.5657 61.5236 9.93832 62.0623C10.3145 62.6029 10.641 63.0117 10.9208 63.172C11.0643 63.2511 11.2821 63.3103 11.5717 63.3706C12.5798 63.5743 14.4381 63.7276 16.1258 63.8421C16.9694 63.9001 17.7689 63.9477 18.3942 63.9865C19.0179 64.025 19.4756 64.0565 19.6099 64.0776C19.6565 64.083 19.7487 64.1276 19.8651 64.2117C20.2787 64.5041 20.987 65.213 22.1714 65.8381C23.3573 66.4652 25.0271 67.0124 27.3856 67.0124H73.6377C76.3323 67.0127 78.1285 66.2973 79.3304 65.5665C79.9316 65.2015 80.3848 64.833 80.7265 64.5529C80.8972 64.4127 81.0409 64.2947 81.1578 64.2117C81.2739 64.1276 81.3661 64.083 81.413 64.0776C81.5671 64.0534 82.1403 64.0165 82.9067 63.9692C84.0599 63.8978 85.6693 63.8013 87.0807 63.6726C87.7864 63.6081 88.4426 63.5358 88.9692 63.4548C89.4989 63.3714 89.8882 63.288 90.102 63.172C90.3818 63.0117 90.7081 62.6029 91.0844 62.0623C92.1995 60.4478 93.6171 57.6844 93.6187 57.6821L93.6264 57.6667L93.6302 57.6506C93.631 57.6456 94.4582 53.7499 94.6419 48.6703C94.7034 46.9786 94.7238 45.0232 94.7238 43.167C94.7238 39.4553 94.6419 36.1418 94.6419 36.1413L94.6411 36.1187L94.633 36.0977C94.6327 36.0967 94.5193 35.8078 94.3436 35.3461C93.8178 33.965 92.7361 31.0295 92.5309 29.8138C92.3883 28.9818 92.0673 27.8731 91.6964 26.7507L91.5749 26.7906L91.598 26.9167C91.7952 26.8808 91.9658 26.8495 92.0881 26.827C92.1488 26.8157 92.1976 26.807 92.2307 26.8009L92.2691 26.7942L92.2791 26.7922H92.281L92.2722 26.7415L92.2806 26.7922H92.281L92.2722 26.7415L92.2806 26.7922L92.2618 26.6784L92.2791 26.7922H92.2806L92.2618 26.6784L92.2791 26.7922L92.2603 26.6661V26.7937L92.2791 26.7922L92.2603 26.6661V26.6656L92.2295 26.7901L92.2603 26.7937V26.6656L92.2295 26.7901L92.2587 26.6713L92.218 26.7865L92.2295 26.7901L92.2587 26.6713L92.218 26.7865L92.2207 26.7793L92.2176 26.7865H92.218L92.2207 26.7793L92.2176 26.7865C92.2333 26.7927 92.3394 26.8347 92.4532 26.8905C92.5662 26.9443 92.6927 27.0186 92.7357 27.0637C92.8015 27.1267 92.8791 27.1569 92.9675 27.1882C93.2289 27.2742 93.5887 27.3132 93.5933 27.3137L93.6044 27.3152L93.6156 27.3147C93.6171 27.3142 97.7096 27.0535 99.0461 26.8875C99.6658 26.8106 100.041 26.6129 100.256 26.3562C100.471 26.0995 100.512 25.8019 100.511 25.5662C100.511 25.5175 100.51 25.4709 100.508 25.4284L100.38 25.4345L100.252 25.4412L100.255 25.5662C100.255 25.7757 100.22 26.0001 100.059 26.1917C99.8991 26.3834 99.5973 26.5601 99.0146 26.6333C98.3573 26.7153 97.0008 26.8219 95.8119 26.9079C94.6227 26.9935 93.6014 27.0586 93.5994 27.0591L93.6075 27.1866L93.6214 27.0596C93.6214 27.0596 93.4664 27.0422 93.2954 27.0078C93.2097 26.9904 93.1205 26.9689 93.049 26.9448C92.9771 26.9228 92.9218 26.8905 92.9168 26.8829C92.8199 26.7881 92.6754 26.7138 92.5462 26.6508C92.4817 26.62 92.4225 26.5939 92.379 26.5755L92.3268 26.554L92.3114 26.5478L92.3056 26.5457L92.3021 26.5447L92.2975 26.5432L92.291 26.5411L92.2603 26.5375L92.241 26.5391C92.2268 26.5411 91.9454 26.5929 91.5518 26.6646L91.4069 26.6912L91.4534 26.8306C91.8221 27.9469 92.1403 29.0494 92.2779 29.8568C92.4232 30.7062 92.9514 32.281 93.4445 33.6545C93.9369 35.027 94.3943 36.1905 94.3947 36.1915L94.5135 36.1444L94.3855 36.1474C94.3855 36.15 94.4059 36.9753 94.4266 38.2663C94.447 39.5579 94.4674 41.3131 94.4674 43.167C94.4674 45.0209 94.447 46.9743 94.3855 48.6611C94.294 51.1894 94.0426 53.4244 93.8135 55.0271C93.6994 55.8282 93.5906 56.4718 93.5107 56.9136C93.4307 57.3563 93.3796 57.596 93.3796 57.5972L93.5049 57.6237L93.3907 57.5649C93.3903 57.566 93.2339 57.8715 92.9833 58.3391C92.607 59.0407 92.0208 60.1066 91.4415 61.0426C91.1521 61.5106 90.8646 61.9467 90.6074 62.2867C90.353 62.6271 90.1189 62.8723 89.9774 62.9483C89.8855 63.0002 89.6776 63.0636 89.3997 63.1193C88.4226 63.3176 86.5626 63.4724 84.8793 63.5873C84.0376 63.6446 83.2384 63.6918 82.6127 63.731C81.985 63.7706 81.5375 63.7998 81.3738 63.8244C81.25 63.8455 81.1389 63.912 81.009 64.0031C80.562 64.322 79.8862 65.0017 78.7315 65.6118C77.5788 66.2205 75.9563 66.7557 73.6377 66.7565H27.3856C24.7354 66.7557 22.9945 66.0568 21.8249 65.3475C21.2406 64.9925 20.7994 64.6344 20.4586 64.3542C20.2879 64.2148 20.1424 64.0949 20.0132 64.0031C19.8835 63.912 19.7728 63.8455 19.6488 63.8244C19.4628 63.796 18.9026 63.7614 18.1318 63.7137C16.9787 63.6423 15.3709 63.5454 13.9656 63.4175C13.2625 63.3533 12.6105 63.2811 12.0924 63.2012C11.5768 63.1236 11.1853 63.0294 11.0448 62.9484C10.8531 62.8465 10.5108 62.4458 10.149 61.9171C9.60006 61.1229 8.96968 60.0332 8.47767 59.1441C8.23166 58.6992 8.01999 58.3042 7.87035 58.021C7.72017 57.737 7.63203 57.5653 7.63203 57.5649L7.51771 57.6237L7.64329 57.5972C7.64329 57.596 7.59201 57.3563 7.51206 56.9136C7.27221 55.5865 6.77409 52.4535 6.63675 48.6611C6.57575 46.974 6.55522 45.0209 6.55522 43.167C6.55522 41.3131 6.57575 39.5579 6.59623 38.2663C6.61676 36.9753 6.63675 36.15 6.63675 36.1474L6.5086 36.1444L6.62798 36.1915C6.62852 36.1905 7.08567 35.027 7.57871 33.6545C8.07176 32.281 8.59963 30.7062 8.74516 29.8568C8.88304 29.0494 9.20081 27.9469 9.56931 26.8306L9.6154 26.6912L9.47091 26.6646C9.27411 26.6287 9.1029 26.5975 8.98094 26.5749C8.92048 26.5642 8.87178 26.555 8.83795 26.5488L8.79951 26.5422L8.78929 26.5401L8.78617 26.5396L8.78414 26.5391H8.7821L8.76311 26.5376L8.72775 26.5427L8.71083 26.5483C8.68008 26.5601 8.57146 26.6041 8.44999 26.6636C8.32749 26.7251 8.1963 26.7947 8.10609 26.8829C8.10147 26.8905 8.04558 26.9228 7.97436 26.9448C7.86569 26.9812 7.72017 27.0109 7.60382 27.0304C7.48746 27.0498 7.40136 27.0591 7.40086 27.0596L7.41524 27.1866L7.42342 27.0591C7.42135 27.0586 6.39993 26.9935 5.21042 26.9079C4.02191 26.8219 2.6653 26.7153 2.00826 26.6333C1.42605 26.5601 1.12419 26.3834 0.963772 26.1922C0.802843 26.0012 0.767975 25.7773 0.767975 25.5678L0.771581 25.4412C0.79208 25.0155 1.12622 23.0369 1.38196 22.1317C1.50804 21.6855 1.7156 21.2741 1.96416 20.9816C2.21375 20.6875 2.49668 20.52 2.77395 20.521C3.31362 20.521 6.96063 20.3391 8.66267 20.3391C8.87485 20.3391 9.05628 20.3422 9.19619 20.3484C9.33407 20.354 9.43655 20.3658 9.46526 20.3745C9.4791 20.3765 9.51957 20.4042 9.56213 20.478C9.63796 20.604 9.70819 20.8376 9.75997 21.1081C9.83888 21.5144 9.88451 22.0072 9.90961 22.396C9.93471 22.7849 9.93982 23.0692 9.93982 23.0698L9.94189 23.1829L10.8659 23.2808L10.9034 23.1932C11.9899 20.6204 16.0525 11.9071 17.1744 9.64524C17.7782 8.42903 18.4664 6.9879 19.0292 5.81319C19.3105 5.22609 19.5607 4.70507 19.7529 4.31312C19.9435 3.92378 20.0839 3.65176 20.1234 3.59592C20.1362 3.56825 20.2618 3.48628 20.4289 3.42429C20.681 3.32541 21.0295 3.23423 21.3119 3.16967C21.5948 3.10461 21.8111 3.06567 21.8116 3.06567L21.8874 3.05184L21.911 2.97859C21.9126 2.97346 22.0658 2.4965 22.1606 1.78952C22.2063 1.47189 22.3446 1.23673 22.6357 1.03744C22.9274 0.840204 23.3814 0.69113 24.0308 0.598919C24.3424 0.554859 24.6084 0.537426 24.8364 0.537426C25.5586 0.539478 25.8819 0.705981 26.0772 0.780264L26.09 0.745433L26.0669 0.775146L26.0767 0.779749L26.09 0.745433L26.0669 0.775146L26.0793 0.790519C26.111 0.836112 26.1551 0.965724 26.1879 1.11891C26.2387 1.35047 26.2755 1.64504 26.2997 1.87969C26.3237 2.11432 26.334 2.28799 26.3345 2.2885L26.3422 2.41556L26.4693 2.40838C27.8223 2.33358 42.9902 1.65785 50.5118 1.65785C58.0338 1.65785 73.2011 2.33358 74.5541 2.40838L74.6809 2.41556L74.6886 2.2885C74.6886 2.28799 74.7125 1.91093 74.7655 1.52362C74.7924 1.32997 74.8266 1.13427 74.867 0.987752C74.8877 0.914487 74.9097 0.85404 74.9293 0.815621L74.9531 0.778224L74.9558 0.775146L74.9331 0.745433L74.9466 0.779749L74.9558 0.775146L74.9331 0.745433L74.9466 0.779749C75.1407 0.705981 75.4643 0.539478 76.187 0.537426C76.4145 0.537426 76.6809 0.554859 76.9926 0.598919C77.6415 0.69113 78.0954 0.840204 78.3872 1.03744C78.6781 1.23673 78.8165 1.47189 78.8623 1.78952C78.9568 2.4965 79.1102 2.97346 79.1117 2.97859L79.1352 3.05184L79.2105 3.06567C79.2117 3.06567 79.598 3.13534 80.0096 3.24241C80.2153 3.29569 80.4263 3.35871 80.5943 3.42429C80.7615 3.48628 80.8864 3.56825 80.8995 3.59592C80.9168 3.62153 80.9648 3.70759 81.0279 3.83004C81.4761 4.69685 82.7922 7.51814 83.8477 9.64524C84.9709 11.9071 89.033 20.6204 90.12 23.1932L90.1569 23.2808L91.0818 23.1829L91.0841 23.0698C91.0841 23.0692 91.0871 22.9048 91.0994 22.6537C91.1179 22.2772 91.1586 21.708 91.2417 21.2264C91.2828 20.9857 91.3355 20.7669 91.397 20.6107C91.4569 20.4503 91.5361 20.373 91.5576 20.3745C91.5861 20.3658 91.6887 20.354 91.8267 20.3484C91.9658 20.3422 92.1477 20.3391 92.3598 20.3391C94.0619 20.3391 97.7097 20.521 98.2482 20.521C98.5261 20.52 98.809 20.6875 99.0585 20.9816C99.3075 21.2741 99.5147 21.6855 99.6408 22.1317C99.8976 23.0369 100.23 25.0155 100.252 25.4412L100.38 25.4345Z" fill="black"/>
<path d="M92.2605 26.3978L92.2221 26.4496C92.2898 26.4977 92.4347 26.5515 92.5919 26.6197C92.7464 26.6852 92.9071 26.7646 92.9609 26.821L92.9651 26.8251L92.9697 26.8281C93.022 26.863 93.1069 26.8865 93.223 26.9147C93.3372 26.9414 93.4752 26.9654 93.6074 26.9808L93.6128 26.9818L93.6186 26.9813C93.9584 26.9598 97.7495 26.7149 99.0049 26.5581C99.5177 26.4941 99.8144 26.3492 99.9828 26.1652C100.152 25.9813 100.182 25.7661 100.182 25.5925C100.182 25.5392 100.179 25.4895 100.177 25.4449C100.153 25.0079 99.8302 23.0832 99.5688 22.1523C99.4427 21.7071 99.2455 21.3229 99.0149 21.0462C98.7847 20.7701 98.5191 20.5975 98.2485 20.5964C98.0574 20.5964 97.4897 20.5739 96.7059 20.5427C95.3341 20.4883 93.4537 20.4141 92.3597 20.4141C92.0776 20.4141 91.8965 20.4192 91.7831 20.4248C91.6724 20.4299 91.6198 20.4356 91.6198 20.4351V20.4991L91.634 20.4366L91.6321 20.4361L91.6025 20.4289L91.5779 20.4484C91.5064 20.5089 91.4657 20.6164 91.4184 20.7737C91.2831 21.2435 91.1754 22.1492 91.1585 23.0709L91.1551 23.3076V23.3086C91.1551 23.3593 91.1543 23.4198 91.1543 23.4884C91.1558 24.178 91.1935 25.6775 92.2221 26.4496L92.2605 26.3978L92.299 26.3466C91.3338 25.6319 91.2804 24.1739 91.2827 23.4884C91.2827 23.4203 91.2831 23.3598 91.2831 23.3086H91.2189L91.2831 23.3096L91.2865 23.0729C91.2981 22.4648 91.3492 21.8613 91.4215 21.3926C91.4572 21.1584 91.4983 20.9581 91.5414 20.8096C91.5817 20.6615 91.6348 20.5626 91.6578 20.5488L91.6179 20.4986L91.6029 20.5611H91.6048L91.6121 20.5631H91.6198C91.6409 20.5626 91.6767 20.558 91.7893 20.5524C91.9 20.5473 92.0791 20.5421 92.3597 20.5421C93.4483 20.5421 95.3295 20.6164 96.7009 20.6707C97.4855 20.702 98.0509 20.7245 98.2485 20.7245C98.4602 20.7235 98.7001 20.8675 98.9165 21.1282C99.1333 21.3874 99.324 21.7573 99.4454 22.1872C99.703 23.1001 100.028 25.0387 100.049 25.4511C100.051 25.4962 100.054 25.5438 100.054 25.5925C100.053 25.7538 100.027 25.927 99.8886 26.0786C99.7499 26.2308 99.4858 26.3691 98.9892 26.4311C97.7434 26.5868 93.948 26.8322 93.6109 26.8532L93.6144 26.9173L93.622 26.8538C93.4956 26.8389 93.3614 26.8153 93.2523 26.7897C93.1446 26.7662 93.0547 26.7339 93.0435 26.7236L93.0066 26.7759L93.0524 26.7308C92.964 26.6442 92.801 26.5715 92.6426 26.5023C92.487 26.4362 92.3301 26.3722 92.299 26.3466L92.2605 26.3978Z" fill="black"/>
<path d="M8.71289 26.3978L8.67495 26.3466C8.64266 26.3722 8.48584 26.4357 8.33005 26.5023C8.17168 26.5715 8.0092 26.6442 7.92106 26.7308L7.96615 26.7759L7.92975 26.7236C7.91795 26.7339 7.82778 26.7662 7.72065 26.7897C7.61148 26.8153 7.47722 26.8389 7.35064 26.8538L7.35833 26.9173L7.3624 26.8532C7.02519 26.8322 3.22955 26.5868 1.98312 26.4311C1.48702 26.3691 1.22307 26.2308 1.08418 26.0792C0.945291 25.927 0.919653 25.7538 0.919142 25.593C0.919142 25.5438 0.921709 25.4962 0.924273 25.4516C0.944261 25.0387 1.26919 23.1001 1.5275 22.1872C1.64896 21.7573 1.83962 21.3874 2.0559 21.1282C2.27269 20.8675 2.51253 20.7235 2.72368 20.7245C2.92202 20.7245 3.48682 20.702 4.27147 20.6707C5.64449 20.6164 7.52438 20.5421 8.61245 20.5421C8.89328 20.5421 9.07213 20.5473 9.18284 20.5524C9.29611 20.558 9.33148 20.5626 9.3525 20.5631H9.35761L9.3658 20.5616L9.35558 20.4986L9.3156 20.5488C9.33866 20.5626 9.39094 20.6615 9.43142 20.8096C9.56057 21.2568 9.66923 22.1615 9.68561 23.0734L9.69022 23.3096L9.7543 23.3086H9.69022V23.4874C9.6923 24.1718 9.63948 25.6314 8.67445 26.3466L8.71289 26.3978L8.75133 26.4496C9.77993 25.677 9.81684 24.1759 9.81837 23.4874V23.3066L9.81376 23.0709C9.80246 22.4571 9.75068 21.8485 9.67792 21.3731C9.64152 21.1354 9.60004 20.931 9.55442 20.7742C9.50725 20.6164 9.46628 20.5094 9.39555 20.4484L9.37349 20.431L9.34278 20.4356L9.3525 20.4991V20.4351C9.3525 20.4356 9.30023 20.4299 9.18902 20.4248C9.07575 20.4192 8.89482 20.4141 8.61245 20.4141C7.51927 20.4141 5.63987 20.4883 4.26632 20.5427C3.48271 20.5739 2.91536 20.5964 2.72368 20.5964C2.45359 20.5975 2.18813 20.7701 1.9575 21.0462C1.72738 21.3229 1.53005 21.7071 1.40397 22.1523C1.14208 23.0837 0.819206 25.0079 0.796143 25.4449C0.794095 25.4895 0.791016 25.5392 0.791016 25.593C0.791016 25.7667 0.820759 25.9813 0.989887 26.1652C1.1585 26.3492 1.45472 26.4941 1.96723 26.5581C3.22339 26.7149 7.01542 26.9598 7.35422 26.9813L7.35983 26.9818L7.36548 26.9808C7.49721 26.9654 7.63505 26.9414 7.74936 26.9147C7.86567 26.8865 7.95078 26.863 8.00305 26.8287L8.00767 26.8251L8.01178 26.821C8.06559 26.7646 8.22653 26.6852 8.38078 26.6197C8.53761 26.5515 8.68314 26.4977 8.75133 26.4496L8.71289 26.3978Z" fill="black"/>
<path d="M88.6157 22.0437L88.7329 21.993C88.3901 21.1928 84.9237 13.2141 84.145 11.5665C83.7587 10.7474 83.3539 9.82932 82.9895 9.09263C82.8069 8.72427 82.6351 8.40152 82.4783 8.15561C82.3999 8.03315 82.3257 7.92918 82.2523 7.84719C82.1785 7.76627 82.1089 7.70325 82.0205 7.66944C81.7783 7.5813 81.422 7.53777 81.1172 7.51114C80.8131 7.48501 80.5664 7.47936 80.5641 7.47936H77.208V7.60743L77.2445 7.48501C77.2407 7.48397 74.2752 6.59306 72.1096 6.38507C69.9471 6.17863 57.8521 6.03516 50.6196 6.03516C43.387 6.03516 31.2916 6.17863 29.1299 6.38507C26.964 6.59306 23.9986 7.48397 23.9945 7.48501L24.0314 7.60743V7.47936H20.6745C20.673 7.47936 20.4259 7.48501 20.122 7.51114C19.817 7.53777 19.4609 7.5813 19.219 7.66944C19.1303 7.70325 19.0606 7.76627 18.9868 7.84719C18.7347 8.13206 18.44 8.69507 18.1114 9.37696C17.7844 10.0573 17.4324 10.8498 17.0936 11.5665C16.3156 13.2141 12.8485 21.1928 12.5056 21.9936C12.3134 22.4479 12.133 22.8235 12.1289 23.1365C12.1284 23.2559 12.1612 23.3768 12.2468 23.4675C12.3324 23.5581 12.4549 23.6083 12.6045 23.6304C12.726 23.6478 13.0058 23.657 13.4133 23.6637C13.8187 23.6698 14.3419 23.6724 14.92 23.6724C17.2335 23.6724 20.4279 23.6319 20.4279 23.6319L20.4264 23.5038V23.6319H80.8128V23.5038L80.8112 23.6319C80.8112 23.6319 84.0058 23.6724 86.319 23.6724C86.8971 23.6724 87.4207 23.6698 87.8258 23.6637C88.2329 23.657 88.5127 23.6478 88.6342 23.6304C88.7845 23.6083 88.9063 23.5581 88.992 23.4675C89.0781 23.3768 89.1108 23.2559 89.1104 23.1365C89.1058 22.8235 88.9251 22.4479 88.7329 21.993L88.6157 22.0437L88.4981 22.094C88.6941 22.5458 88.8583 22.929 88.854 23.1365C88.8529 23.2159 88.8363 23.2584 88.8056 23.2923C88.7741 23.3255 88.713 23.3599 88.5969 23.3773C88.5127 23.3901 88.2229 23.4014 87.822 23.4075C87.4191 23.4137 86.8968 23.4162 86.319 23.4162C85.164 23.4162 83.7875 23.406 82.6997 23.3957C81.6127 23.386 80.8162 23.3757 80.8143 23.3757H20.4249C20.4229 23.3757 19.6264 23.386 18.5389 23.3957C17.4518 23.406 16.0752 23.4162 14.92 23.4162C14.3425 23.4162 13.8202 23.4137 13.4174 23.4075C13.0166 23.4014 12.726 23.3901 12.6424 23.3773C12.5256 23.3599 12.4646 23.3255 12.4338 23.2923C12.4031 23.2584 12.3862 23.2159 12.3852 23.1365C12.3811 22.929 12.545 22.5458 12.7414 22.094C13.0822 21.2978 16.5524 13.312 17.3258 11.6757C17.7143 10.8529 18.1191 9.93487 18.4794 9.20636C18.6593 8.84211 18.8284 8.52497 18.9766 8.29343C19.0504 8.17816 19.1185 8.08387 19.178 8.01832C19.2364 7.9517 19.2876 7.91585 19.3076 7.9097C19.4988 7.83797 19.8499 7.79086 20.144 7.76627C20.4393 7.74114 20.6806 7.73553 20.6806 7.73553L20.6776 7.60743V7.73553H24.0504L24.0683 7.73038C24.0683 7.73038 24.2523 7.67505 24.5624 7.58848C25.4936 7.32978 27.5616 6.79186 29.1545 6.6402C31.2814 6.43579 43.3963 6.29082 50.6196 6.29132C57.8429 6.29082 69.9578 6.43579 72.085 6.6402C73.1463 6.74164 74.4201 7.01418 75.4264 7.26112C75.9296 7.38511 76.3658 7.50242 76.6764 7.58848C76.987 7.67505 77.1707 7.73038 77.1707 7.73038L77.1888 7.73553H80.5618V7.60743L80.5587 7.73553C80.5587 7.73553 80.8001 7.74114 81.0953 7.76627C81.3893 7.79086 81.7407 7.83797 81.9317 7.9097C81.9517 7.91585 82.0028 7.9517 82.0612 8.01832C82.2719 8.2514 82.5744 8.81391 82.8969 9.48762C83.2213 10.1633 83.5738 10.9559 83.9136 11.6757C84.687 13.312 88.1568 21.2978 88.4981 22.094L88.6157 22.0437Z" fill="black"/>
<path d="M74.1882 10.3687L74.2504 10.3518C74.0905 9.76008 74.0229 9.28978 73.8522 8.89429C73.6819 8.49776 73.4006 8.18319 72.8405 7.92753C72.6799 7.85633 72.2812 7.80254 71.6697 7.74775C67.4084 7.37477 53.1821 7.23438 50.6186 7.23438C49.1541 7.23438 43.8804 7.28052 38.835 7.3891C36.3118 7.44344 33.8461 7.5136 31.9411 7.6017C30.9888 7.64577 30.177 7.69445 29.5677 7.74775C28.9562 7.80254 28.5575 7.85633 28.3971 7.92753C27.8369 8.18319 27.5555 8.49776 27.3854 8.89429C27.2147 9.28978 27.147 9.76008 26.9871 10.3518C26.6638 11.5511 24.7398 21.6267 24.7393 21.6287L24.7383 21.6343V21.6405C24.7383 21.6476 24.7388 21.9243 24.9392 22.2045C25.1401 22.4863 25.5444 22.7594 26.3153 22.7583H74.9223C75.6919 22.7594 76.097 22.4863 76.2973 22.205C76.4983 21.9248 76.4983 21.6487 76.4987 21.6405V21.6343L76.4975 21.6287C76.4971 21.6267 74.5737 11.5511 74.2504 10.3518L74.1882 10.3687L74.1263 10.3851C74.2858 10.9742 74.8478 13.7955 75.369 16.4636C75.63 17.7982 75.8806 19.0953 76.0662 20.059C76.2511 21.0226 76.3714 21.6512 76.3714 21.6528L76.4345 21.6405H76.3707L76.368 21.6799C76.3584 21.7727 76.3146 22.0103 76.1178 22.2224C75.9217 22.4345 75.5712 22.6298 74.9223 22.6303H26.3153C25.5732 22.6287 25.2211 22.3756 25.0432 22.1302C24.9546 22.0068 24.9105 21.8828 24.8885 21.7906C24.8772 21.744 24.8716 21.7055 24.869 21.6794L24.8664 21.6405H24.8024L24.8654 21.6528C24.8654 21.6512 24.9853 21.0226 25.1708 20.059C25.7274 17.1696 26.8719 11.2714 27.1107 10.3851C27.2721 9.78567 27.3413 9.31641 27.5028 8.94501C27.6652 8.57357 27.9107 8.29281 28.4504 8.04433C28.5652 7.98954 28.9752 7.92703 29.5789 7.87531C33.8266 7.50334 48.0594 7.36248 50.6186 7.36248C52.0812 7.36248 57.3549 7.40858 62.3999 7.51721C64.9223 7.5715 67.3873 7.64166 69.2904 7.7298C70.2413 7.77383 71.0524 7.82252 71.6585 7.87531C72.2624 7.92703 72.6722 7.98954 72.7867 8.04433C73.3268 8.29281 73.5724 8.57357 73.7342 8.94501C73.8956 9.31641 73.9652 9.78567 74.1263 10.3851L74.1882 10.3687Z" fill="black"/>
<path d="M80.8104 23.5049L80.8088 23.633C80.8088 23.633 84.0161 23.6735 86.3301 23.6735H86.5154L80.4144 7.48047H77.0469L80.4552 23.633H80.8104V23.3769H80.6628L77.3632 7.73663H80.2373L86.2102 23.5905L86.3301 23.5454V23.4173C85.1743 23.4173 83.7947 23.4071 82.7038 23.3973C81.6133 23.3871 80.8138 23.3769 80.8119 23.3769H80.8104V23.5049Z" fill="black"/>
<path d="M20.1901 23.5049L20.1886 23.3769C20.1866 23.3769 19.3871 23.3871 18.2959 23.3973C17.2053 23.4071 15.8256 23.4173 14.6694 23.4173V23.5454L14.7893 23.5905L20.7631 7.73663H23.6368L20.3372 23.3769H20.1886L20.1901 23.5049V23.633H20.5453L23.9525 7.48047H20.5858L14.4844 23.6735H14.6694C16.9844 23.6735 20.1912 23.633 20.1917 23.633L20.1901 23.5049Z" fill="black"/>
<path d="M80.297 34.1255L80.425 34.1199L80.1294 27.5639L80.1291 27.5587L80.1283 27.5531L80.1275 27.5254C80.1291 27.4255 80.1525 27.1581 80.4473 26.9399C80.6779 26.7667 80.7594 26.6294 80.8994 26.551C81.0397 26.468 81.2841 26.4025 81.868 26.3938C82.2601 26.3871 83.1076 26.385 84.0613 26.385C85.0157 26.385 86.077 26.3871 86.9003 26.3896C87.7233 26.3917 88.306 26.3938 88.3075 26.3938H88.3148L88.3225 26.3927H88.3245L88.3429 26.3922C88.3963 26.3922 88.5332 26.403 88.67 26.4967C88.8069 26.591 88.9552 26.7667 89.0313 27.1397C89.2162 28.0624 89.3811 28.8523 89.4545 29.5629C89.4734 29.7484 89.4857 29.9394 89.4857 30.1239C89.4864 30.3836 89.4607 30.6306 89.3961 30.8304C89.3319 31.0312 89.2331 31.1792 89.0901 31.2673C88.8576 31.4118 88.6981 31.4825 88.5593 31.6408C88.4232 31.8006 88.3425 32.0138 88.2395 32.4144C88.138 32.8109 87.7686 34.2459 87.425 35.5815C87.081 36.9171 86.7627 38.1538 86.7627 38.1538L86.8869 38.1855L86.765 38.1471L86.7642 38.1486C86.7577 38.1681 86.7074 38.2947 86.5736 38.413C86.4391 38.5308 86.223 38.6476 85.8533 38.6488H82.6414V38.7767L82.7528 38.7137C82.7528 38.7137 80.889 35.3924 80.7225 35.0969C80.5634 34.8141 80.4412 34.481 80.425 34.1199L80.297 34.1255L80.169 34.1317C80.1879 34.5436 80.3258 34.914 80.4988 35.2223C80.5818 35.3699 81.09 36.2741 81.5766 37.1415C82.0636 38.0088 82.5295 38.8394 82.5295 38.8394L82.5664 38.9047H85.8533C86.3072 38.9058 86.6043 38.7426 86.7777 38.5728C86.9514 38.4043 87.0053 38.2368 87.0095 38.224L87.0102 38.2209L87.0114 38.2178C87.0114 38.2173 88.2845 33.272 88.4878 32.4779C88.5874 32.085 88.6639 31.9113 88.7534 31.8078C88.8411 31.7038 88.9767 31.6362 89.2243 31.4851C89.4349 31.3554 89.5645 31.1454 89.6406 30.9082C89.7163 30.67 89.7421 30.4 89.7421 30.1239C89.7421 29.9276 89.7286 29.7284 89.7094 29.5368C89.634 28.8067 89.4668 28.0106 89.2823 27.0895C89.1989 26.6663 89.0102 26.4173 88.8145 26.2851C88.6185 26.1525 88.4286 26.1361 88.3429 26.1361L88.2937 26.1381L88.3079 26.2657L88.3087 26.1376C88.3087 26.1376 85.9705 26.1289 84.0613 26.1289C83.1065 26.1289 82.2597 26.1309 81.8641 26.1376C81.266 26.1473 80.9755 26.2104 80.7702 26.3302C80.5642 26.4547 80.4888 26.5941 80.2951 26.7339C79.9161 27.0126 79.8696 27.382 79.8711 27.5254L79.8746 27.5921L80.0018 27.5752L79.8738 27.5813L80.169 34.1317L80.297 34.1255Z" fill="black"/>
<path d="M20.8322 34.1255L20.9599 34.1317L21.2551 27.5808L21.127 27.5752L21.2541 27.5915L21.2571 27.5254C21.2587 27.382 21.2126 27.0126 20.8343 26.7339C20.6401 26.5936 20.5647 26.4547 20.3592 26.3302C20.1532 26.2104 19.8626 26.1474 19.2645 26.1376C18.8688 26.1309 18.0222 26.1289 17.0674 26.1289C15.1583 26.1289 12.8202 26.1376 12.8202 26.1376L12.8207 26.2657L12.8346 26.1381L12.7859 26.1361C12.7003 26.1361 12.5101 26.1525 12.3143 26.2851C12.1186 26.4173 11.93 26.6663 11.8459 27.0895C11.6614 28.0106 11.4948 28.8067 11.42 29.5368C11.4001 29.7289 11.3867 29.9282 11.3867 30.1249C11.3867 30.401 11.4129 30.671 11.4882 30.9087C11.564 31.1454 11.6937 31.356 11.9043 31.4851C12.1519 31.6362 12.2877 31.7038 12.3753 31.8078C12.4656 31.9113 12.5414 32.085 12.6413 32.4779C12.8443 33.272 14.1179 38.2173 14.1179 38.2178L14.1189 38.2209L14.1199 38.224C14.1241 38.2368 14.1773 38.4038 14.3511 38.5728C14.5243 38.7425 14.8216 38.9058 15.2756 38.9047H18.5624L18.5993 38.8394C18.5998 38.8378 19.0651 38.0088 19.552 37.1415C20.0389 36.2741 20.5468 35.3699 20.6298 35.2223C20.803 34.914 20.9415 34.5436 20.9599 34.1317L20.8322 34.1255L20.7041 34.1199C20.6877 34.481 20.5658 34.8141 20.4064 35.0968C20.2398 35.3924 18.3758 38.7137 18.3753 38.7137L18.4875 38.7767V38.6488H15.2756C14.881 38.6473 14.6617 38.5155 14.53 38.3889C14.4643 38.3259 14.4218 38.2624 14.3962 38.2163L14.37 38.162L14.3649 38.1486L14.3644 38.1476L14.2419 38.1855L14.3659 38.1538C14.3654 38.1512 14.0477 36.9171 13.7038 35.5815C13.3604 34.2459 12.9909 32.8109 12.8899 32.4144C12.7864 32.0138 12.7054 31.8006 12.5696 31.6408C12.4307 31.4825 12.2713 31.4118 12.0386 31.2673C11.8956 31.1792 11.7967 31.0311 11.7327 30.8308C11.6686 30.631 11.643 30.3841 11.643 30.1249C11.643 29.9399 11.6558 29.7489 11.6747 29.5629C11.7475 28.8523 11.9126 28.0624 12.0976 27.1397C12.1734 26.7667 12.322 26.591 12.4589 26.4967C12.5957 26.403 12.7326 26.3922 12.7859 26.3922L12.8038 26.3927H12.8064L12.8135 26.3938H12.8212C12.8223 26.3938 13.4055 26.3917 14.2286 26.3896C15.0516 26.3871 16.1131 26.385 17.0674 26.385C18.0217 26.385 18.8688 26.3871 19.2604 26.3938C19.8447 26.4025 20.0897 26.468 20.2296 26.551C20.3695 26.6294 20.4509 26.7667 20.6821 26.9399C20.9763 27.1581 20.9998 27.4255 21.0014 27.5254L21.0004 27.5531L20.9998 27.5587L20.9993 27.5639L20.7041 34.1199L20.8322 34.1255Z" fill="black"/>
<path d="M80.0321 28.1867V28.0586H20.9809L20.8789 30.3168H80.2562L80.1544 28.0586H80.0321V28.1867L79.9041 28.1923L79.9883 30.0607H21.1469L21.2259 28.3148H80.0321V28.1867Z" fill="black"/>
<path d="M81.0991 52.8998L81.2094 52.8348C81.1894 52.7945 80.501 51.7071 77.6408 51.7109H23.6397C20.7794 51.7071 20.0911 52.7945 20.0711 52.8348L20.1813 52.8998L20.1803 52.7718C12.3717 52.8302 8.44432 53.5775 6.92216 53.966L6.8125 53.994L6.82684 54.1062C7.10152 56.2795 7.39265 57.6496 7.39315 57.6527L7.39676 57.6688L7.40441 57.6842C7.40495 57.6853 8.03583 58.9149 8.78615 60.2121C9.1613 60.8606 9.56621 61.5257 9.93879 62.0644C10.315 62.605 10.6414 63.0139 10.9213 63.1741C11.0648 63.2532 11.2826 63.3124 11.5722 63.3727C12.5803 63.5764 14.4386 63.7297 16.1263 63.8442C16.9699 63.9022 17.7694 63.9498 18.3947 63.9887C19.0184 64.0271 19.4761 64.0586 19.6103 64.0797C19.657 64.0851 19.7493 64.1297 19.8656 64.2138C20.2792 64.5062 20.9875 65.2151 22.1719 65.8403C23.3578 66.4673 25.0275 67.0145 27.3861 67.0145H73.6379C76.3328 67.0149 78.129 66.2994 79.3309 65.5686C79.9321 65.2036 80.3853 64.8351 80.727 64.555C80.8977 64.4148 81.0411 64.2968 81.1579 64.2138C81.2744 64.1297 81.3666 64.0851 81.4131 64.0797C81.5677 64.0555 82.1404 64.0186 82.9072 63.9714C84.0604 63.8999 85.6698 63.8035 87.0812 63.6747C87.787 63.6102 88.4427 63.538 88.9697 63.4569C89.499 63.3735 89.8888 63.2901 90.1025 63.1741C90.3823 63.0139 90.7086 62.605 91.0849 62.0644C92.2 60.4499 93.6176 57.6865 93.6192 57.6842L93.6269 57.6688L93.6303 57.6527C93.6311 57.6496 93.9278 56.2529 94.205 54.0444L94.2192 53.9307L94.1077 53.9041C92.4276 53.5045 88.5119 52.8268 81.0995 52.7718L81.0991 52.8998L81.0979 53.0281C88.495 53.0826 92.3918 53.7589 94.0481 54.1531L94.0777 54.0286L93.9509 54.0125C93.8125 55.1122 93.6699 56.0097 93.5611 56.6314C93.4531 57.2535 93.3797 57.5981 93.3797 57.5993L93.5054 57.6258L93.3912 57.567C93.3905 57.5682 93.2344 57.8736 92.9838 58.3412C92.6075 59.0428 92.0213 60.1087 91.442 61.0447C91.1526 61.5127 90.8651 61.9488 90.6075 62.2888C90.3535 62.6292 90.1194 62.8744 89.9779 62.9505C89.8861 63.0023 89.6781 63.0657 89.4002 63.1214C88.4227 63.3197 86.5631 63.4745 84.8799 63.5894C84.0377 63.6467 83.2389 63.6939 82.6132 63.7331C81.9851 63.7727 81.5377 63.8019 81.3743 63.8265C81.2501 63.8476 81.1395 63.9141 81.0095 64.0052C80.5625 64.3241 79.8864 65.0038 78.7317 65.6139C77.5793 66.2226 75.9564 66.7578 73.6378 66.7586H27.3861C24.736 66.7578 22.9949 66.0589 21.8254 65.3496C21.2412 64.9946 20.7999 64.6365 20.4591 64.3564C20.2884 64.2169 20.1429 64.097 20.0137 64.0052C19.884 63.9141 19.7733 63.8476 19.6493 63.8265C19.4632 63.7981 18.9031 63.7635 18.1323 63.7158C16.9791 63.6444 15.3714 63.5476 13.9661 63.4196C13.2629 63.3554 12.611 63.2832 12.0929 63.2033C11.5773 63.1257 11.1857 63.0315 11.0453 62.9505C10.8536 62.8486 10.5113 62.4479 10.1494 61.9192C9.60054 61.125 8.97015 60.0353 8.47814 59.1462C8.23214 58.7013 8.02046 58.3063 7.87082 58.0231C7.72064 57.7391 7.6325 57.5674 7.6325 57.567L7.51823 57.6258L7.64376 57.5993C7.64327 57.5981 7.5715 57.26 7.46491 56.6495C7.35882 56.0382 7.21787 55.156 7.08103 54.074L6.95391 54.0901L6.9857 54.2138C8.48172 53.8323 12.3896 53.0857 20.1823 53.0281L20.2546 53.0273L20.2915 52.9651C20.3094 52.942 20.928 51.9707 23.6397 51.9668H77.6408C79.04 51.9668 79.8825 52.2293 80.3718 52.4829C80.6163 52.61 80.7731 52.7353 80.8673 52.826C80.9146 52.8717 80.9465 52.9086 80.9653 52.9332L80.9853 52.9605L80.9888 52.9655L81.0007 52.9582L80.9884 52.9651L80.9888 52.9655L81.0007 52.9582L80.9884 52.9651L81.0253 53.0273L81.0979 53.0281L81.0991 52.8998Z" fill="black"/>
<path d="M82.5917 60.0069V59.8789H17.7048C14.2361 59.8797 11.5101 61.1868 10.093 62.0448L9.97461 62.1163L10.0551 62.2285C10.3841 62.6853 10.6686 63.0284 10.9202 63.171C11.0637 63.2501 11.2815 63.3093 11.5711 63.3696C12.5792 63.5733 14.4376 63.7266 16.1253 63.8411C16.9689 63.8991 17.7683 63.9468 18.3936 63.9856C19.0173 64.024 19.475 64.0555 19.6093 64.0766C19.6559 64.082 19.7482 64.1266 19.8645 64.2107C20.2781 64.5031 20.9864 65.212 22.1708 65.8372C23.3567 66.4642 25.0265 67.0114 27.3851 67.0114H73.6371C76.3316 67.0118 78.1282 66.2963 79.3298 65.5655C79.931 65.2005 80.3842 64.832 80.7259 64.5519C80.8966 64.4117 81.0403 64.2937 81.1572 64.2107C81.2732 64.1266 81.3655 64.082 81.4124 64.0766C81.5665 64.0524 82.1396 64.0155 82.9061 63.9683C84.0592 63.8968 85.6686 63.8004 87.0801 63.6716C87.7858 63.6071 88.442 63.5349 88.9686 63.4538C89.4983 63.3704 89.8876 63.287 90.1013 63.171C90.2932 63.0626 90.4961 62.8417 90.7298 62.5447L90.8148 62.436L90.6998 62.3591C89.5017 61.5595 86.5239 59.8801 82.5917 59.8789V60.1352C86.4493 60.1348 89.3845 61.7885 90.5576 62.5724L90.6287 62.4655L90.5276 62.3868C90.3058 62.6734 90.1029 62.8801 89.9772 62.9474C89.8849 62.9992 89.677 63.0626 89.3991 63.1184C88.422 63.3166 86.562 63.4715 84.8787 63.5863C84.0369 63.6436 83.2378 63.6909 82.612 63.73C81.9844 63.7696 81.5369 63.7988 81.3732 63.8234C81.2494 63.8446 81.1387 63.911 81.0084 64.0021C80.5614 64.321 79.8856 65.0007 78.7309 65.6109C77.5782 66.2195 75.9557 66.7547 73.6371 66.7555H27.3851C24.7349 66.7547 22.9939 66.0558 21.8243 65.3465C21.2401 64.9915 20.7988 64.6334 20.458 64.3533C20.2873 64.2138 20.1418 64.0939 20.0126 64.0021C19.883 63.911 19.7723 63.8446 19.6482 63.8234C19.4622 63.795 18.902 63.7604 18.1312 63.7128C16.9781 63.6413 15.3703 63.5445 13.965 63.4165C13.2619 63.3523 12.6099 63.2801 12.0918 63.2002C11.5762 63.1226 11.1847 63.0284 11.0442 62.9474C10.8746 62.8575 10.5794 62.5251 10.2637 62.0798L10.1597 62.1539L10.2258 62.2638C11.6178 61.4212 14.3017 60.1352 17.7048 60.1352H82.5917V60.0069Z" fill="black"/>
<path d="M21.3017 53.6519L21.3396 53.703C21.4959 53.5885 22.1033 53.2342 23.6398 53.2342H77.6409C79.3245 53.2342 79.8919 53.6584 79.9741 53.7287L80.0157 53.6799L79.9626 53.7153C80.1321 53.9712 82.0782 57.5384 83.1026 60.0493L83.118 60.087L83.1591 60.0889C83.5427 60.1066 83.9187 60.1335 84.2815 60.1788L84.3692 60.1896L84.3522 60.1027C83.6642 56.5524 81.1534 52.8623 81.1519 52.8588L81.0992 52.8946L81.1542 52.8619C81.1442 52.8419 80.4857 51.768 77.6409 51.7695H23.6397C20.7948 51.768 20.1362 52.8419 20.1265 52.8619L20.125 52.8646L20.1239 52.8669C20.1234 52.868 17.833 57.6133 17.0166 60.0001L16.9863 60.0889L17.0807 60.0851C17.2862 60.0747 17.4948 60.0689 17.7059 60.0689H18.4967L18.5131 60.0305C19.4489 57.8531 21.0798 54.2632 21.3596 53.6795L21.3017 53.6519L21.2438 53.6242C20.9619 54.2117 19.3326 57.8 18.3952 59.9798L18.4542 60.0047V59.941H17.7059C17.4927 59.941 17.2821 59.9467 17.0745 59.9571L17.0776 60.0209L17.138 60.0412C17.5429 58.8563 18.3189 57.075 18.9928 55.5919C19.3295 54.8503 19.6416 54.1825 19.8687 53.7011C20.0962 53.2188 20.2387 52.9234 20.2392 52.9222L20.1813 52.8946L20.2367 52.9276L20.2423 52.9188C20.3105 52.8208 21.0014 51.8994 23.6397 51.8979H77.6409C79.0478 51.8979 79.9015 52.1614 80.4012 52.4212C80.6514 52.551 80.8132 52.6801 80.912 52.7747C80.9612 52.8223 80.9951 52.8619 81.0162 52.8884L81.0381 52.9188L81.0439 52.9276L81.045 52.9291L81.0458 52.9307C81.0458 52.9307 81.2019 53.1597 81.4467 53.5597C82.182 54.7596 83.7172 57.4938 84.2262 60.1269L84.2892 60.1154L84.2969 60.0516C83.9298 60.0063 83.5512 59.9782 83.1653 59.9609L83.1622 60.0251L83.2214 60.0009C82.1893 57.475 80.2509 53.9197 80.0691 53.6446L80.0645 53.6377L80.0572 53.6315C79.9472 53.537 79.3449 53.1059 77.6409 53.1063H23.6397C22.0843 53.1059 21.4467 53.4647 21.2637 53.6L21.2509 53.6092L21.2438 53.6242L21.3017 53.6519Z" fill="black"/>
<path d="M65.7946 57.4208L65.7992 57.5491C65.8407 57.5475 65.9303 57.5472 66.0579 57.5472C67.8595 57.5464 77.3172 57.6889 78.8255 57.7124L79.0523 57.7158L78.9385 57.5199C78.7375 57.1748 78.5764 56.9074 78.4842 56.7914C78.3715 56.6561 78.1851 56.5708 77.9399 56.4859C77.2088 56.2412 75.9396 56.0913 75.0028 56.0905C73.8758 56.0905 66.689 56.0068 65.5347 55.9926L65.4659 55.9922L65.4275 56.0479C65.321 56.202 65.1995 56.381 65.0981 56.5386C64.9954 56.6992 64.9166 56.8267 64.8828 56.9182C64.8659 56.9654 64.8555 57.0158 64.8555 57.0688C64.8532 57.1994 64.9289 57.3408 65.0719 57.4223C65.2145 57.5064 65.4144 57.5499 65.7008 57.5502L65.7988 57.5491L65.7946 57.4208L65.7903 57.2928L65.7008 57.2943C65.4409 57.2947 65.2826 57.2509 65.203 57.2025C65.1242 57.1518 65.115 57.1161 65.1119 57.0688L65.1242 57.0039C65.1354 56.9674 65.2153 56.8283 65.3133 56.6777C65.4121 56.524 65.5328 56.3464 65.6381 56.1935L65.5328 56.1205L65.5313 56.2489C66.6875 56.2631 73.8708 56.3464 75.0028 56.3464C75.6086 56.3464 76.3724 56.4133 77.017 56.527C77.3395 56.5839 77.632 56.6523 77.858 56.7288C78.084 56.8021 78.2435 56.8944 78.2839 56.9512C78.3519 57.0346 78.5203 57.3093 78.7171 57.6482L78.8278 57.5841L78.8297 57.4561C77.3199 57.4327 67.8656 57.2909 66.0579 57.2909C65.9287 57.2909 65.8392 57.2913 65.7903 57.2928L65.7946 57.4208Z" fill="black"/>
<path d="M50.1484 60.0081V60.0719H80.2778L80.2267 59.9777C80.0864 59.718 79.7081 59.0199 79.3303 58.3428C78.9517 57.6647 78.5788 57.0157 78.4343 56.8344C78.3397 56.7191 78.1602 56.6319 77.92 56.5496C77.2012 56.3083 75.9327 56.1581 75.0033 56.1577C74.3898 56.1577 71.9813 56.1331 69.7273 56.1086C68.6003 56.0963 67.5117 56.0836 66.7045 56.074C65.8981 56.0647 65.3741 56.0586 65.3726 56.0586H65.3634L65.3546 56.0613C65.3499 56.0651 64.03 56.424 63.5041 57.0645C62.9914 57.6989 62.3556 59.298 60.5567 59.2969H40.5342C38.735 59.298 38.099 57.6989 37.587 57.0645C37.0606 56.424 35.7404 56.0651 35.7358 56.0613L35.7271 56.0586H35.7178C35.7168 56.0586 35.193 56.0647 34.3858 56.074C31.9658 56.102 27.0083 56.1577 26.0873 56.1577C25.4677 56.1577 24.6973 56.2254 24.0398 56.341C23.7108 56.399 23.4104 56.469 23.1706 56.5496C22.9302 56.6319 22.7503 56.7191 22.6555 56.8344C22.5115 57.0157 22.1389 57.6647 21.7602 58.3429C21.3824 59.0199 21.0042 59.718 20.8638 59.9777L20.8125 60.0719L50.1484 60.0719V59.9439H20.9202V60.0081L20.9765 60.0388C21.1164 59.7795 21.4947 59.0813 21.8719 58.4055C22.2476 57.7315 22.6279 57.073 22.756 56.9143C22.8144 56.8378 22.981 56.7471 23.2111 56.6711C23.9045 56.4374 25.1725 56.2853 26.0873 56.2857C27.3183 56.2857 35.7194 56.1869 35.7194 56.1869L35.7189 56.1228L35.7014 56.1846C35.7025 56.1846 36.0274 56.2753 36.4154 56.4424C36.8033 56.6084 37.2518 56.8532 37.4875 57.1448C37.9739 57.7385 38.6453 59.4245 40.5343 59.4248H60.5567C62.4456 59.4245 63.1159 57.7385 63.6033 57.1448C63.8393 56.8532 64.2871 56.6084 64.6757 56.4424C64.8695 56.3591 65.0482 56.2945 65.1785 56.2507C65.3084 56.2073 65.3891 56.1846 65.3891 56.1846L65.3722 56.1228L65.3711 56.1869C65.3715 56.1869 73.7733 56.2857 75.0033 56.2857C75.6137 56.2857 76.3798 56.3529 77.0286 56.467C77.353 56.5243 77.6482 56.5934 77.8789 56.6711C78.1095 56.7471 78.2756 56.8378 78.3344 56.9143C78.4627 57.073 78.8425 57.7315 79.2184 58.4055C79.5959 59.0813 79.9741 59.7795 80.1141 60.0388L80.1702 60.0081V59.9439H50.1484V60.0081Z" fill="black"/>
<path d="M35.2956 57.4208L35.3002 57.2928C35.251 57.2913 35.1618 57.2909 35.0327 57.2909C33.2251 57.2909 23.7703 57.4327 22.2615 57.4561L22.2635 57.5841L22.3742 57.6482C22.5705 57.3093 22.7386 57.0346 22.8063 56.9516C22.8473 56.8944 23.0067 56.8022 23.2321 56.7288C23.9128 56.4982 25.1802 56.3457 26.0879 56.3465C27.2205 56.3465 34.4033 56.2631 35.559 56.2489L35.5575 56.1205L35.4524 56.1939C35.558 56.3464 35.6784 56.524 35.7773 56.6777C35.8757 56.8283 35.9557 56.9674 35.967 57.0039L35.9787 57.0684C35.9757 57.1161 35.9665 57.1518 35.8875 57.2025C35.8081 57.2509 35.6492 57.2947 35.3899 57.2943L35.3002 57.2928L35.2956 57.4208L35.2915 57.5491L35.3899 57.5502C35.6764 57.5499 35.8763 57.5064 36.0188 57.4223C36.1618 57.3405 36.2381 57.1994 36.235 57.0684C36.235 57.0158 36.2248 56.9654 36.2084 56.919C36.174 56.8267 36.0951 56.6992 35.9931 56.5386C35.8916 56.381 35.7696 56.202 35.6631 56.0479L35.6241 55.9922L35.5559 55.9926C34.4012 56.0068 27.2154 56.0905 26.0879 56.0905C25.4641 56.0905 24.6908 56.1582 24.0291 56.275C23.698 56.3334 23.3951 56.4033 23.1507 56.4859C22.9057 56.5708 22.7192 56.6561 22.6064 56.7914C22.5136 56.9074 22.3527 57.1748 22.1523 57.5203L22.0391 57.7158L22.2656 57.7124C23.7729 57.6889 33.2312 57.5464 35.0327 57.5472C35.1603 57.5472 35.25 57.5475 35.2915 57.5491L35.2956 57.4208Z" fill="black"/>
<path d="M80.6101 35.1605L80.6662 35.1292C80.5036 34.8403 80.3775 34.498 80.3606 34.1241L80.1807 30.125H20.9491L20.7691 34.1241C20.7522 34.498 20.6262 34.8403 20.4632 35.1292C20.2966 35.4248 18.4326 38.7461 18.4321 38.7461L18.4219 38.7649L18.4249 38.7864C18.4249 38.7872 18.6643 40.4444 18.9656 42.2364C19.2685 44.0304 19.6268 45.9481 19.8805 46.5041C20.1203 47.0285 20.2448 47.5972 21.0536 48.0079C21.8597 48.4183 23.3286 48.6842 26.2812 48.6849H77.2056V48.6208L77.2029 48.6849L77.2559 48.6857C77.4816 48.6853 78.3929 48.6565 79.3439 48.2062C80.2945 47.7566 81.2831 46.8775 81.6398 45.1961C82.4001 41.6213 82.7042 38.786 82.7049 38.7845L82.7069 38.7641L82.6965 38.7461C82.6965 38.7461 80.8326 35.4248 80.6662 35.1292L80.6101 35.1605L80.5543 35.1922C80.6373 35.3398 81.1451 36.244 81.6321 37.1113C82.1191 37.9787 82.585 38.8091 82.585 38.8091L82.6407 38.7779L82.5773 38.7706C82.5773 38.7726 82.5016 39.4776 82.3309 40.6315C82.1595 41.7857 81.8943 43.3856 81.5149 45.1692C81.1643 46.8107 80.2126 47.651 79.2889 48.0905C78.3653 48.5286 77.47 48.5578 77.2559 48.5578L77.2079 48.5566H26.2812C23.3368 48.5578 21.8803 48.2873 21.112 47.8938C20.3463 47.5015 20.248 46.9978 19.9968 46.4506C19.7585 45.9354 19.3921 44.0023 19.0922 42.2149C18.9416 41.32 18.8062 40.4582 18.7089 39.8204C18.6115 39.1825 18.552 38.7695 18.5515 38.7687L18.4885 38.7779L18.5443 38.8091C18.5449 38.8071 19.0102 37.9787 19.4971 37.1113C19.984 36.244 20.4919 35.3398 20.5749 35.1922C20.7445 34.8905 20.8788 34.5293 20.8973 34.1297L21.0715 30.2531H80.0581L80.2326 34.1297C80.251 34.5293 80.3848 34.8905 80.5543 35.1922L80.6101 35.1605Z" fill="black"/>
<path d="M93.5032 57.6232L93.5658 57.6367C93.5662 57.634 94.3923 53.741 94.576 48.6676C94.6375 46.9735 94.6579 45.0139 94.6579 43.1546C94.6579 39.9517 94.5968 37.048 94.5798 36.3195L94.4519 36.3164C94.4519 36.3179 94.4026 36.9885 94.3242 38.0132C94.207 39.5502 94.024 41.8805 93.8453 43.925C93.6662 45.9676 93.489 47.735 93.3883 48.117C93.2691 48.5754 93.1403 48.9338 92.9654 49.1705C92.7894 49.4068 92.5776 49.5267 92.2559 49.5286C92.1621 49.5286 92.0587 49.5179 91.9453 49.4948C91.4729 49.4011 89.2792 49.2428 86.6854 49.106C84.0939 48.97 81.1123 48.8566 79.0881 48.8566C75.0429 48.8566 54.164 48.8094 50.4966 48.8094C46.8285 48.8094 25.9499 48.8566 21.9052 48.8566C19.8803 48.8566 16.8985 48.97 14.3073 49.106C11.714 49.2428 9.51995 49.4011 9.04689 49.4948C8.93365 49.5179 8.8306 49.5286 8.73681 49.5286C8.41496 49.5267 8.20329 49.4068 8.02751 49.1705C7.85273 48.9338 7.72412 48.5754 7.60469 48.117C7.48322 47.6547 7.25106 45.1845 7.03684 42.634C6.82259 40.0812 6.62375 37.4368 6.56124 36.5931L6.43309 36.5966C6.41107 37.6238 6.36133 40.276 6.36133 43.1704C6.36133 45.0247 6.38182 46.9773 6.44332 48.6676C6.62682 53.741 7.45297 57.634 7.45347 57.6367L7.45505 57.6447L7.45912 57.6524C7.45962 57.6532 8.09001 58.882 8.83932 60.1772C9.21448 60.8246 9.61831 61.489 9.98939 62.0253C10.362 62.5629 10.692 62.9702 10.9498 63.1158C11.2087 63.2568 11.8211 63.3671 12.6263 63.4689C15.034 63.769 19.1192 63.9369 19.6179 64.0137C19.7532 64.0303 19.9956 64.2216 20.3349 64.5025C21.3604 65.3447 23.3582 66.9493 27.3839 66.9477H73.636C76.3194 66.9477 78.1018 66.2365 79.2957 65.5111C79.8926 65.1484 80.3427 64.7826 80.6844 64.5025C81.0238 64.2216 81.266 64.0303 81.4013 64.0137C81.7307 63.9626 83.6638 63.8704 85.6214 63.7263C86.6008 63.6541 87.5895 63.5692 88.3924 63.4689C89.1981 63.3671 89.8108 63.2568 90.0695 63.1158C90.3274 62.9702 90.6572 62.5629 91.0297 62.0253C92.1413 60.417 93.5593 57.6536 93.5601 57.6524L93.5643 57.6447L93.5658 57.6367L93.5032 57.6232L93.4459 57.594C93.4459 57.5948 93.2887 57.9003 93.0381 58.3686C92.6614 59.071 92.0744 60.1376 91.494 61.0755C90.9174 62.0127 90.3317 62.8276 90.0069 63.0036C89.7943 63.1243 89.1747 63.243 88.3771 63.3417C85.9747 63.641 81.9041 63.8078 81.3817 63.8873C81.1757 63.9231 80.947 64.1244 80.6029 64.4037C79.5801 65.241 77.6274 66.8182 73.636 66.8198H27.3839C24.7225 66.819 22.9677 66.1166 21.7904 65.4016C21.2015 65.0443 20.7572 64.6835 20.4159 64.4037C20.072 64.1244 19.8429 63.9231 19.6374 63.8873C19.2863 63.8332 17.367 63.7425 15.4076 63.5988C14.4287 63.5265 13.4422 63.4416 12.6421 63.3417C11.8447 63.243 11.225 63.1242 11.0124 63.0036C10.7986 62.8872 10.4599 62.4837 10.0945 61.9527C9.54352 61.1551 8.91259 60.0646 8.42008 59.174C7.92758 58.2837 7.57395 57.5956 7.57345 57.594L7.51602 57.6232L7.57906 57.6102C7.57856 57.609 7.52728 57.3677 7.44733 56.9243C7.20698 55.5949 6.70882 52.4595 6.57098 48.663C6.50998 46.9754 6.48945 45.0235 6.48945 43.1704C6.48945 40.2775 6.53919 37.6259 6.56125 36.5992L6.49718 36.5982L6.4331 36.6028C6.49564 37.4465 6.69498 40.0912 6.9092 42.6448C7.12445 45.2014 7.35254 47.6547 7.48066 48.1492C7.60212 48.6126 7.73181 48.9842 7.924 49.2466C8.11565 49.5098 8.38061 49.6585 8.73682 49.657C8.84033 49.657 8.95157 49.6447 9.072 49.6209C9.51996 49.5302 11.7263 49.3699 14.3139 49.2343C16.9037 49.0979 19.8844 48.9846 21.9052 48.9846C25.9499 48.9846 46.8292 48.9377 50.4966 48.9377C54.1636 48.9377 75.0429 48.9846 79.0881 48.9846C81.1084 48.9846 84.0889 49.0979 86.6789 49.2343C89.2669 49.3699 91.4729 49.5302 91.9203 49.6205C92.0406 49.6447 92.1517 49.657 92.2559 49.657C92.6118 49.6585 92.877 49.5098 93.0688 49.2466C93.2614 48.9842 93.391 48.6126 93.5124 48.1492C93.6535 47.6036 93.9179 44.6597 94.1505 41.8356C94.3823 39.0145 94.5798 36.3256 94.5798 36.3256L94.516 36.321L94.4519 36.3226C94.4688 37.05 94.5299 39.9532 94.5299 43.1546C94.5299 45.0128 94.5091 46.9708 94.4476 48.663C94.3565 51.1939 94.1044 53.4317 93.8753 55.0354C93.7611 55.8377 93.652 56.4813 93.572 56.9243C93.4921 57.3677 93.4409 57.609 93.4402 57.6102L93.5032 57.6232Z" fill="black"/>
<path d="M81.3917 63.9524L81.4013 64.0157C81.7307 63.9646 83.6638 63.8724 85.6214 63.7283C86.6008 63.6561 87.5895 63.5712 88.3925 63.4709C89.1981 63.3691 89.8108 63.2588 90.0695 63.1178C90.3274 62.9722 90.6572 62.5649 91.0297 62.0274C92.1413 60.419 93.5593 57.6556 93.5601 57.6544L93.5643 57.6467L93.5658 57.6387C93.5662 57.636 94.3923 53.743 94.576 48.6696C94.6375 46.979 94.6579 45.024 94.6579 43.1685C94.6579 39.4573 94.576 36.1447 94.576 36.1442V36.1329L94.5718 36.1227C94.5714 36.1217 94.4315 35.7651 94.2224 35.2123C94.0125 34.6601 93.735 33.9126 93.4609 33.1344L93.4505 33.1047L93.4206 33.095C92.6925 32.8501 91.87 32.5811 91.4099 32.4571C90.9767 32.3414 90.5477 32.1344 90.1564 32.1328C89.9331 32.1313 89.7178 32.2071 89.5456 32.4095C89.3734 32.6108 89.2396 32.929 89.1458 33.4182C88.7999 35.2236 87.8063 39.1464 87.5853 39.8342C87.4796 40.16 87.2166 40.4363 86.6939 40.6376C86.1719 40.8378 85.3943 40.9562 84.2869 40.9562H16.4947C15.3872 40.9562 14.6097 40.8378 14.0879 40.6376C13.5652 40.4363 13.3017 40.16 13.1962 39.8342C12.9753 39.1464 11.9815 35.2236 11.6356 33.4182C11.5413 32.929 11.408 32.6108 11.2358 32.4095C11.0636 32.2071 10.8483 32.1318 10.6249 32.1328C10.2339 32.1344 9.80489 32.3414 9.37231 32.4571C8.96794 32.5662 8.28427 32.786 7.63033 33.0043L7.60057 33.014L7.59031 33.0437C7.31102 33.8394 7.02504 34.6094 6.80929 35.1801C6.59349 35.7508 6.44797 36.1217 6.44743 36.1227L6.44332 36.1329V36.1442C6.44282 36.1447 6.36133 39.4573 6.36133 43.1686C6.36133 45.024 6.38182 46.979 6.44332 48.6696C6.62682 53.743 7.45297 57.636 7.45347 57.6387L7.45505 57.6467L7.45912 57.6544C7.45962 57.6552 8.09001 58.884 8.83932 60.1792C9.21448 60.8266 9.61831 61.491 9.98939 62.0274C10.362 62.5649 10.692 62.9722 10.9498 63.1178C11.2087 63.2588 11.8211 63.3691 12.6263 63.4709C15.034 63.771 19.1192 63.9389 19.6179 64.0158C19.7532 64.0323 19.9956 64.2236 20.3349 64.5045C21.3604 65.3467 23.3582 66.9513 27.3839 66.9497H73.636C76.3194 66.9497 78.1018 66.2385 79.2957 65.5131C79.8926 65.1504 80.3427 64.7846 80.6844 64.5045C81.0238 64.2236 81.266 64.0323 81.4013 64.0157L81.3917 63.9524L81.3817 63.8893C81.1757 63.9251 80.947 64.1264 80.603 64.4058C79.5801 65.243 77.6274 66.8203 73.636 66.8218H27.3839C24.7225 66.821 22.9677 66.1186 21.7904 65.4036C21.2015 65.0463 20.7572 64.6855 20.4159 64.4058C20.072 64.1264 19.8429 63.9251 19.6374 63.8893C19.2863 63.8352 17.3669 63.7445 15.4076 63.6008C14.4287 63.5285 13.4422 63.4436 12.6421 63.3437C11.8447 63.245 11.225 63.1263 11.0123 63.0056C10.7986 62.8892 10.4599 62.4858 10.0944 61.9547C9.54351 61.1571 8.91259 60.0666 8.42008 59.176C7.92757 58.2857 7.57394 57.5976 7.57344 57.596L7.51601 57.6252L7.57905 57.6122C7.57855 57.611 7.52727 57.3697 7.44732 56.9263C7.20697 55.5969 6.70881 52.4616 6.57097 48.665C6.50997 46.9771 6.48944 45.0229 6.48944 43.1686C6.48944 41.3139 6.50997 39.5587 6.53046 38.2667C6.55098 36.9752 6.57097 36.1499 6.57097 36.1473L6.50689 36.1457L6.56686 36.1693C6.56686 36.1688 7.15112 34.6806 7.71128 33.0863L7.65081 33.0653L7.6713 33.1257C8.32371 32.908 9.00745 32.6882 9.40567 32.5806C9.85155 32.4592 10.28 32.2594 10.6249 32.2609C10.8222 32.2619 10.9882 32.3199 11.1384 32.493C11.2886 32.6667 11.4183 32.9649 11.51 33.4423C11.858 35.2579 12.8497 39.1718 13.0742 39.8738C13.1926 40.2426 13.497 40.5489 14.0418 40.7571C14.5876 40.9662 15.3779 41.0837 16.4947 41.0845H84.2869C85.4035 41.0837 86.1938 40.9662 86.7396 40.7571C87.285 40.5489 87.5895 40.2426 87.7071 39.8738C87.9316 39.1718 88.9233 35.2579 89.2715 33.4423C89.363 32.9649 89.4929 32.6667 89.6428 32.493C89.7931 32.3198 89.9592 32.2619 90.1564 32.2609C90.5016 32.2594 90.9301 32.4592 91.3764 32.5806C91.83 32.703 92.6529 32.972 93.3802 33.2164L93.4002 33.1554L93.3402 33.177C93.8899 34.7364 94.4526 36.1688 94.4526 36.1693L94.5118 36.1457L94.4476 36.1473C94.4476 36.1499 94.4684 36.9752 94.4887 38.2667C94.5095 39.5587 94.5299 41.3139 94.5299 43.1686C94.5299 45.0229 94.5091 46.9771 94.4476 48.665C94.3565 51.1959 94.1044 53.4337 93.8753 55.0374C93.7611 55.8397 93.652 56.4833 93.572 56.9263C93.4921 57.3697 93.4409 57.611 93.4402 57.6122L93.5032 57.6252L93.4459 57.596C93.4459 57.5968 93.2887 57.9023 93.0381 58.3706C92.6614 59.073 92.0744 60.1396 91.494 61.0775C90.9175 62.0147 90.3317 62.8296 90.0069 63.0056C89.7943 63.1263 89.1747 63.245 88.3771 63.3437C85.9747 63.6431 81.9041 63.8098 81.3817 63.8893L81.3917 63.9524Z" fill="black"/>
<path d="M31.8318 37.7574L31.8892 37.785L35.6033 30.125H20.9502L20.7703 34.1241C20.7534 34.498 20.6273 34.8403 20.4643 35.1292C20.2978 35.4248 18.4338 38.7459 18.4333 38.7459L18.3789 38.8435L18.4901 38.842C18.4922 38.8412 19.1697 38.832 20.2055 38.8174C23.3118 38.7744 29.6265 38.6872 30.4193 38.6872C31.5192 38.6856 31.8892 37.7886 31.8907 37.7814L31.8318 37.7574L31.7723 37.7333L31.757 37.766C31.678 37.9233 31.3111 38.5596 30.4193 38.5591C29.3584 38.5591 18.4886 38.7137 18.4886 38.7137L18.4896 38.7778L18.5455 38.809C18.546 38.807 19.0114 37.9787 19.4983 37.1113C19.9851 36.244 20.493 35.3398 20.576 35.1922C20.7457 34.8905 20.88 34.5293 20.8984 34.1297L21.0727 30.2531H35.3988L31.7733 37.7312L31.7723 37.7333L31.8318 37.7574Z" fill="black"/>
<path d="M69.2997 37.7574L69.357 37.7292L65.7318 30.2531H80.0593L80.2334 34.1297C80.2519 34.5293 80.3856 34.8905 80.5551 35.1922C80.6382 35.3398 81.1463 36.244 81.633 37.1113C82.12 37.9787 82.5858 38.809 82.5858 38.809L82.6416 38.7778L82.6427 38.7137C82.6423 38.7137 71.7728 38.5591 70.7119 38.5591C70.2007 38.5586 69.8659 38.3521 69.6537 38.1447C69.5476 38.0407 69.4734 37.9367 69.4261 37.8593L69.3742 37.766L69.3589 37.7333L69.3585 37.7317L69.357 37.7292L69.2997 37.7574L69.2401 37.7814C69.242 37.7886 69.6118 38.6856 70.7119 38.6872C71.2404 38.6872 74.2232 38.726 77.0734 38.7644C78.4979 38.784 79.8902 38.8028 80.9257 38.8174C81.9616 38.832 82.6408 38.842 82.6408 38.842L82.7519 38.8435L82.6977 38.7459C82.6977 38.7459 80.8334 35.4248 80.667 35.1292C80.5044 34.8403 80.3783 34.498 80.3614 34.1241L80.1815 30.125H65.5273L69.242 37.785L69.2997 37.7574Z" fill="black"/>
<path d="M55.8365 45.1867L55.8915 45.1533C55.8911 45.1529 55.7085 44.8547 55.4898 44.4582C55.2707 44.0625 55.0163 43.5687 54.874 43.1856C54.6553 42.5955 54.1376 42.5055 53.8712 42.5079C53.7632 42.5079 53.6925 42.5209 53.6894 42.5217L53.7009 42.5847V42.5205H47.231V42.5847L47.2433 42.5217C47.2402 42.5209 47.1695 42.5079 47.0615 42.5079C46.7951 42.5055 46.277 42.5955 46.0586 43.1856C45.9164 43.5687 45.6619 44.0625 45.4428 44.4582C45.2241 44.8547 45.0416 45.1529 45.0412 45.1533L45.0377 45.159L45.0354 45.1652C45.0339 45.169 44.9785 45.3235 44.9785 45.5187C44.9785 45.6731 45.0139 45.8583 45.15 46.0059C45.2856 46.1527 45.5147 46.2518 45.8741 46.251H55.0582C55.4176 46.2518 55.6467 46.1527 55.7823 46.0051C55.918 45.8583 55.9542 45.6731 55.9542 45.5187C55.9534 45.3235 55.8988 45.169 55.8973 45.1652L55.895 45.159L55.8915 45.1533L55.8365 45.1867L55.7766 45.2082C55.7766 45.2082 55.7885 45.2409 55.8008 45.2978C55.8131 45.3546 55.8258 45.433 55.8258 45.5187C55.8258 45.6547 55.7942 45.8046 55.6885 45.9187C55.5825 46.0328 55.396 46.1227 55.0582 46.1231H45.8741C45.5363 46.1227 45.3498 46.0328 45.2441 45.9187C45.1384 45.8046 45.1069 45.6547 45.1069 45.5187C45.1069 45.433 45.1192 45.3546 45.1319 45.2978C45.1442 45.2409 45.1565 45.2082 45.1561 45.2082L45.0954 45.1867L45.1503 45.2198C45.1515 45.2182 45.8857 44.0194 46.1789 43.2302C46.3738 42.7077 46.8143 42.6385 47.0615 42.6358C47.1587 42.6358 47.2195 42.6481 47.2195 42.6477L47.2256 42.6485H53.7071L53.7132 42.6477L53.7543 42.642C53.782 42.6389 53.8224 42.6358 53.8712 42.6358C54.1183 42.6385 54.5588 42.7077 54.7537 43.2302C55.047 44.0194 55.7812 45.2182 55.7823 45.2198L55.8365 45.1867Z" fill="black"/>
<path d="M45.8755 45.745V45.6808C45.6683 45.6839 45.5722 45.6274 45.5718 45.6182L45.5538 45.5225C45.5538 45.4749 45.5614 45.4215 45.5699 45.3884L45.5076 45.3731L45.5622 45.4057C45.7083 45.1618 46.3241 44.1243 46.5981 43.3878C46.6154 43.3413 46.6439 43.2675 46.7092 43.2037C46.7753 43.1415 46.8776 43.0854 47.0625 43.085L47.1486 43.09L47.1547 43.0266L47.1451 43.0896L47.1805 43.0954L47.1855 43.0957L53.7507 43.0973L53.798 43.0881L53.7861 43.0254V43.0896L53.8726 43.085C54.0578 43.0854 54.1601 43.1415 54.2258 43.2037C54.2915 43.2675 54.3196 43.3413 54.3369 43.3878C54.6117 44.1243 55.2275 45.1614 55.3736 45.4046L55.4281 45.3719L55.3659 45.3869L55.3816 45.5195C55.3824 45.5671 55.372 45.609 55.3636 45.6178C55.3636 45.6274 55.2648 45.6839 55.0595 45.6808L45.8755 45.6808V45.8088H55.0595C55.2836 45.8053 55.4059 45.77 55.4681 45.692C55.5031 45.6397 55.5085 45.5806 55.5096 45.5195C55.5096 45.463 55.5019 45.4054 55.49 45.3566L55.4881 45.3469L55.4831 45.3385C55.3386 45.0987 54.724 44.0609 54.4572 43.3432C54.4391 43.2952 54.4038 43.1972 54.315 43.1115C54.2266 43.0254 54.084 42.9563 53.8726 42.957L53.8091 42.9593L53.7899 42.9609L53.7845 42.9617L53.7861 42.9801V42.9617H53.7845L53.7861 42.9801V42.9617H53.7799L53.7388 42.9693L47.1951 42.9678L47.1647 42.9632L47.1624 42.9624H47.1609C47.152 42.9617 47.1136 42.957 47.0625 42.957C46.8514 42.9563 46.7088 43.0254 46.6208 43.1115C46.532 43.1972 46.4963 43.2952 46.4782 43.3432C46.2118 44.0609 45.5972 45.0987 45.4527 45.34L45.4477 45.3485L45.4458 45.3577C45.435 45.4015 45.4258 45.4615 45.4258 45.5225C45.4266 45.5806 45.4315 45.6394 45.4665 45.6916C45.5284 45.77 45.6499 45.8053 45.8755 45.8088V45.745Z" fill="black"/>
<path d="M78.1063 2.78698L78.0802 2.91249C78.7363 3.04723 79.2222 3.06721 79.2272 3.06772L79.4102 3.07489L79.3544 2.90071C79.3544 2.90019 79.3456 2.87355 79.3302 2.82027C79.2849 2.65992 79.1838 2.27005 79.1146 1.75518C79.0654 1.37607 78.8736 1.05538 78.5292 0.82535C78.1847 0.5943 77.697 0.441626 77.027 0.345311C76.7049 0.299714 76.4266 0.281275 76.1856 0.281275C75.4272 0.278712 75.0305 0.472368 74.8529 0.541019C74.7695 0.576883 74.7338 0.637338 74.7003 0.698815C74.5923 0.91501 74.5347 1.29309 74.4912 1.63685C74.4501 1.97754 74.4316 2.27109 74.4316 2.27262V4.65229L76.708 4.82647L76.7433 4.7399C76.7437 4.7399 76.791 4.62359 76.8732 4.44685C76.997 4.182 77.1973 3.78341 77.4214 3.45758C77.5328 3.29518 77.6508 3.15123 77.7619 3.05286C77.8738 2.95348 77.9753 2.90737 78.0444 2.90891L78.0802 2.91249L78.1063 2.78698L78.1321 2.66147L78.0444 2.65275C77.818 2.65685 77.6328 2.80542 77.4598 2.99293C76.9455 3.56159 76.5104 4.63692 76.5065 4.64257L76.6249 4.69122L76.6345 4.56365L74.688 4.41507V2.28081H74.56L74.6876 2.2885C74.6876 2.28799 74.7111 1.91092 74.7645 1.52362C74.791 1.32997 74.8252 1.13427 74.866 0.987748C74.8864 0.914487 74.9083 0.854044 74.9279 0.815617L74.9521 0.77822L74.9544 0.775146L74.9321 0.745426L74.9452 0.779749L74.9544 0.775146L74.9321 0.745426L74.9452 0.779749C75.1397 0.705977 75.4629 0.539474 76.1856 0.537426C76.4131 0.537426 76.6795 0.554855 76.9912 0.598915C77.6401 0.69113 78.094 0.8402 78.3858 1.03744C78.6767 1.23673 78.8151 1.47189 78.8609 1.78951C78.9558 2.4965 79.1088 2.97346 79.1103 2.97858L79.2326 2.93964L79.2376 2.81157C79.2376 2.81157 79.1226 2.80696 78.9254 2.78595C78.7275 2.76443 78.4504 2.72705 78.1321 2.66147L78.1063 2.78698Z" fill="black"/>
<path d="M78.1065 2.78514L78.0931 2.84764C78.7446 2.98187 79.2274 3.00185 79.2301 3.00185L79.3215 3.00544L79.2935 2.91833C79.2935 2.91782 79.2566 2.80307 79.2074 2.60019C79.1582 2.39732 79.0978 2.10787 79.0509 1.76206C78.9871 1.27179 78.68 0.909575 78.0969 0.676989L78.0854 0.672386H78.0731L78.0435 0.671875C77.4219 0.671875 77.0641 0.793284 76.853 0.946976C76.6416 1.10067 76.5859 1.28817 76.5628 1.38346C76.5501 1.43777 76.5455 1.54945 76.5409 1.72057C76.5371 1.88963 76.5352 2.1094 76.5352 2.35326C76.5352 3.3292 76.5609 4.69042 76.5609 4.69092L76.5663 5.00034L76.6843 4.71398C76.6843 4.71348 76.7323 4.59613 76.8154 4.41785C76.9395 4.15096 77.1413 3.75032 77.3685 3.41988C77.5934 3.08637 77.8555 2.83585 78.0446 2.84303L78.0931 2.84764L78.1065 2.78514L78.1192 2.72264L78.0446 2.71495C77.8517 2.717 77.6748 2.85122 77.5069 3.03412C77.0056 3.58741 76.5674 4.66222 76.5655 4.66529L76.6247 4.68939L76.6889 4.68835C76.6889 4.68581 76.6631 3.32715 76.6631 2.35326C76.6631 2.10991 76.6655 1.89065 76.6689 1.72313C76.6724 1.55817 76.6808 1.43624 76.687 1.41472C76.71 1.3266 76.7493 1.18315 76.9288 1.05047C77.1086 0.918801 77.4373 0.799951 78.0435 0.799951L78.0723 0.800462L78.0727 0.736426L78.0485 0.795336C78.6058 1.02331 78.8626 1.33531 78.9241 1.77896C79.0183 2.48082 79.1705 2.95471 79.1716 2.95727L79.2324 2.93781L79.235 2.87377C79.2347 2.87377 79.1178 2.86916 78.9183 2.84764C78.7196 2.82612 78.4398 2.78822 78.1192 2.72264L78.1065 2.78514Z" fill="black"/>
<path d="M22.9215 2.78698L22.8959 2.66147C22.5776 2.72704 22.3004 2.76444 22.1025 2.78596C21.9052 2.80696 21.7904 2.81157 21.7899 2.81157L21.7955 2.93965L21.9175 2.97858C21.919 2.97346 22.0723 2.4965 22.1671 1.78952C22.2122 1.47189 22.3506 1.23673 22.6422 1.03744C22.9338 0.840204 23.3879 0.69113 24.0373 0.598915C24.3488 0.554859 24.6148 0.53743 24.8424 0.53743C25.565 0.539478 25.8879 0.705977 26.0832 0.780264L26.0965 0.74543L26.0734 0.775146L26.0832 0.779749L26.0965 0.74543L26.0734 0.775146L26.0857 0.790519C26.1175 0.836116 26.1616 0.965724 26.1939 1.1189C26.2451 1.35047 26.282 1.64505 26.3061 1.87969C26.3297 2.11432 26.3404 2.28799 26.3404 2.2885L26.4686 2.28082H26.3404V4.41509L24.3929 4.56367L24.4032 4.69123L24.5216 4.64255C24.52 4.63998 24.3232 4.15892 24.0424 3.67224C23.902 3.42838 23.741 3.18351 23.5683 2.99293C23.3946 2.80542 23.2095 2.65685 22.9835 2.65275L22.8954 2.66147L22.9215 2.78698L22.9476 2.91249L22.9835 2.9089C23.0753 2.90429 23.2264 2.99497 23.3787 3.16557C23.6082 3.41711 23.8389 3.81415 24.0075 4.14509C24.0916 4.31057 24.1613 4.45966 24.2094 4.56724C24.2576 4.67536 24.2843 4.73991 24.2843 4.73991L24.3197 4.82594L26.5967 4.65227V2.27672L26.5962 2.27262C26.5962 2.27108 26.5726 1.88787 26.5178 1.48879C26.4901 1.28847 26.4547 1.08561 26.4092 0.919109C26.3856 0.836116 26.3605 0.76234 26.3282 0.698815C26.2943 0.637338 26.259 0.576879 26.1755 0.541019C25.9976 0.472368 25.6009 0.278712 24.8424 0.281275C24.6015 0.281275 24.3232 0.299718 24.0009 0.345315C23.331 0.44163 22.8431 0.5943 22.4987 0.825353C22.1538 1.05538 21.9626 1.37608 21.9129 1.75518C21.8668 2.09843 21.8068 2.38584 21.7581 2.58717C21.7335 2.68758 21.7125 2.76648 21.6971 2.82027C21.6817 2.87356 21.6735 2.9002 21.6735 2.90071L21.6172 3.07489L21.8007 3.06772C21.8053 3.06721 22.2916 3.04723 22.9471 2.91249L22.9215 2.78698Z" fill="black"/>
<path d="M22.9202 2.78514L22.9074 2.72264C22.5871 2.78822 22.3073 2.82613 22.1084 2.84764C21.909 2.86916 21.7917 2.87377 21.7912 2.87377L21.7943 2.93781L21.8553 2.95727C21.8558 2.95471 22.008 2.48082 22.1023 1.77896C22.1648 1.33531 22.4205 1.02331 22.9781 0.795336L22.954 0.736426L22.9545 0.800465L22.9838 0.799951C23.5896 0.799951 23.9181 0.918801 24.098 1.05047C24.2774 1.18315 24.3168 1.3266 24.3394 1.41472C24.346 1.43624 24.3542 1.55817 24.3573 1.72313C24.3614 1.89065 24.3629 2.10991 24.3629 2.35326C24.3629 3.32715 24.3378 4.6858 24.3378 4.68838L24.4019 4.68937L24.4608 4.66532C24.4603 4.66378 24.2635 4.18426 23.9857 3.70217C23.8469 3.46087 23.6874 3.21906 23.5193 3.03412C23.3512 2.85122 23.1744 2.717 22.9822 2.71495L22.9074 2.72264L22.9202 2.78514L22.933 2.84764L22.9822 2.84303C23.1073 2.84046 23.2672 2.9455 23.4245 3.12071C23.6618 3.38096 23.8935 3.78055 24.0631 4.11407C24.2333 4.44758 24.3419 4.71347 24.3424 4.71397L24.4598 5.00087L24.4654 4.69091C24.4654 4.69041 24.491 3.3292 24.491 2.35326C24.491 2.1094 24.4895 1.88963 24.4854 1.72057C24.4808 1.54945 24.4762 1.43777 24.4639 1.38346C24.4408 1.28817 24.385 1.10067 24.1733 0.946976C23.9622 0.793284 23.605 0.671875 22.9838 0.671875L22.954 0.672386H22.9417L22.9305 0.676989C22.3467 0.909579 22.0397 1.2723 21.9751 1.76206C21.929 2.10788 21.8681 2.39732 21.8189 2.60019C21.7702 2.80307 21.7333 2.91782 21.7333 2.91833L21.7051 3.00544L21.7968 3.00185C21.7989 3.00185 22.2826 2.98187 22.933 2.84764L22.9202 2.78514Z" fill="black"/>
<path d="M19.6279 63.9519L19.6474 63.8255C19.4614 63.797 18.9012 63.7625 18.1304 63.7148C16.9773 63.6433 15.3695 63.5465 13.9642 63.4186C13.2611 63.3544 12.6091 63.2822 12.091 63.2022C11.5754 63.1246 11.1838 63.0305 11.0434 62.9494C10.8594 62.8514 10.533 62.4749 10.1865 61.9746C9.13484 60.4688 7.76437 57.8269 7.64037 57.5859L7.39844 57.1172V79.3995C7.39894 80.1387 8.00219 80.7428 8.74224 80.7435H19.325C20.0651 80.7428 20.6683 80.1387 20.6688 79.3995V64.5282L20.6217 64.4898C20.407 64.3157 20.2281 64.164 20.0733 64.0483C19.9175 63.9342 19.7899 63.8501 19.6479 63.8255L19.6279 63.9519L19.6085 64.0787C19.6633 64.0844 19.7766 64.1448 19.9201 64.2535C20.0646 64.3615 20.2435 64.5129 20.4603 64.6885L20.5407 64.5893H20.4126V79.3995C20.4116 79.9962 19.9226 80.4857 19.325 80.4872H8.74224C8.14468 80.4857 7.6557 79.9962 7.6547 79.3995V57.6443H7.52655L7.41281 57.7031C7.49684 57.8668 8.13391 59.0956 8.86524 60.3501C9.23067 60.9768 9.61967 61.61 9.97637 62.121C10.3367 62.6328 10.6488 63.0186 10.9194 63.173C11.0629 63.2522 11.2807 63.3114 11.5703 63.3717C12.5784 63.5753 14.4367 63.7286 16.1244 63.8431C16.968 63.9012 17.7675 63.9488 18.3928 63.9876C19.0165 64.026 19.4742 64.0575 19.6085 64.0787L19.6279 63.9519Z" fill="black"/>
<path d="M90.0396 63.0554L89.9774 62.944C89.8855 62.9962 89.6776 63.0592 89.3997 63.115C88.4222 63.3132 86.5625 63.4681 84.8793 63.583C84.0371 63.6402 83.2384 63.6878 82.6126 63.7267C81.9845 63.7662 81.5371 63.7954 81.3738 63.82C81.2323 63.8446 81.1058 63.9276 80.9509 64.0406C80.7976 64.1555 80.62 64.3057 80.407 64.4778L80.3594 64.5163V79.394C80.3601 80.1333 80.9632 80.7373 81.7039 80.7381H92.2867C93.0271 80.7373 93.6305 80.1333 93.6309 79.394V57.0898L93.3884 57.5651C93.3634 57.6143 92.7315 58.8423 91.9908 60.1195C91.621 60.7581 91.2231 61.409 90.8618 61.93C90.5047 62.4495 90.1665 62.8433 89.9774 62.944L90.0396 63.0554L90.1019 63.1676C90.3791 63.0093 90.7008 62.6074 91.0725 62.076C92.1737 60.4864 93.576 57.7615 93.6167 57.6816L93.5029 57.6235H93.3745V79.394C93.3738 79.9907 92.8841 80.4803 92.2867 80.4818H81.7039C81.1062 80.4803 80.6169 79.9907 80.6158 79.394V64.5777H80.4878L80.5685 64.6772C80.7833 64.5028 80.9605 64.3526 81.1043 64.2461C81.2461 64.1386 81.3588 64.079 81.4133 64.0732C81.5671 64.049 82.1398 64.0121 82.9067 63.9649C84.0598 63.8938 85.6692 63.797 87.0807 63.6683C87.7864 63.6037 88.4422 63.5315 88.9691 63.4504C89.4984 63.367 89.8882 63.2836 90.1019 63.1676L90.0396 63.0554Z" fill="black"/>
</g>
<defs>
<clipPath id="clip0_7800_5118">
<rect width="99.98" height="80.4771" fill="white" transform="translate(0.509766 0.261719)"/>
</clipPath>
</defs>
</svg>
