<svg width="24" height="19" viewBox="0 0 24 19" fill="none" xmlns="http://www.w3.org/2000/svg">
<path d="M0 0.078125H24V18.0781H0" fill="#BD3D44"/>
<path d="M0 2.15234H24ZM0 4.91609H24ZM0 7.69109H24ZM0 10.4661H24ZM0 13.2411H24ZM0 16.0161H24Z" fill="black"/>
<path d="M0 1.45898V2.84648H24V1.45898H0ZM0 4.22273V5.61023H24V4.22273H0ZM0 6.99773V8.38523H24V6.99773H0ZM0 9.77273V11.1602H24V9.77273H0ZM0 12.5477V13.9352H24V12.5477H0ZM0 15.3227V16.7102H24V15.3227H0Z" fill="white"/>
<path d="M0 0.078125H13.68V9.77188H0" fill="#192F5D"/>
<path d="M12.5246 8.25273L12.8621 9.26523L11.9996 8.62773H13.0496L12.1871 9.26523L12.5246 8.25273ZM10.2746 8.25273L10.6121 9.26523L9.74961 8.62773H10.7996L9.93711 9.26523L10.2746 8.25273ZM7.98711 8.25273L8.32461 9.26523L7.46211 8.62773H8.51211L7.64961 9.26523L7.98711 8.25273ZM5.69961 8.25273L6.03711 9.26523L5.17461 8.62773H6.22461L5.36211 9.26523L5.69961 8.25273ZM3.41211 8.25273L3.74961 9.26523L2.88711 8.62773H3.93711L3.07461 9.26523L3.41211 8.25273ZM1.12461 8.25273L1.46211 9.26523L0.599609 8.62773H1.64961L0.787109 9.26523L1.12461 8.25273ZM11.3996 7.27773L11.7371 8.29023L10.8746 7.65273H11.9246L11.0621 8.29023L11.3996 7.27773ZM9.11211 7.27773L9.44961 8.29023L8.58711 7.65273H9.63711L8.77461 8.29023L9.11211 7.27773ZM6.86211 7.27773L7.19961 8.29023L6.33711 7.65273H7.38711L6.52461 8.29023L6.86211 7.27773ZM4.57461 7.27773L4.91211 8.29023L4.04961 7.65273H5.09961L4.23711 8.29023L4.57461 7.27773ZM2.28711 7.27773L2.62461 8.29023L1.76211 7.65273H2.81211L1.94961 8.29023L2.28711 7.27773ZM12.5246 6.30273L12.8621 7.31523L11.9996 6.67773H13.0496L12.1871 7.31523L12.5246 6.30273ZM10.2746 6.30273L10.6121 7.31523L9.74961 6.67773H10.7996L9.93711 7.31523L10.2746 6.30273ZM7.98711 6.30273L8.32461 7.31523L7.46211 6.67773H8.51211L7.64961 7.31523L7.98711 6.30273ZM5.69961 6.30273L6.03711 7.31523L5.17461 6.67773H6.22461L5.36211 7.31523L5.69961 6.30273ZM3.41211 6.30273L3.74961 7.31523L2.88711 6.67773H3.93711L3.07461 7.31523L3.41211 6.30273ZM1.12461 6.30273L1.46211 7.31523L0.599609 6.67773H1.64961L0.787109 7.31523L1.12461 6.30273ZM11.3996 5.36523L11.7371 6.37773L10.8746 5.74023H11.9246L11.0621 6.37773L11.3996 5.36523ZM9.11211 5.36523L9.44961 6.37773L8.58711 5.74023H9.63711L8.77461 6.37773L9.11211 5.36523ZM6.86211 5.36523L7.19961 6.37773L6.33711 5.74023H7.38711L6.52461 6.37773L6.86211 5.36523ZM4.57461 5.36523L4.91211 6.37773L4.04961 5.74023H5.09961L4.23711 6.37773L4.57461 5.36523ZM2.28711 5.36523L2.62461 6.37773L1.76211 5.74023H2.81211L1.94961 6.37773L2.28711 5.36523ZM12.5246 4.39023L12.8621 5.40273L11.9996 4.76523H13.0496L12.1871 5.40273L12.5246 4.39023ZM10.2746 4.39023L10.6121 5.40273L9.74961 4.76523H10.7996L9.93711 5.40273L10.2746 4.39023ZM7.98711 4.39023L8.32461 5.40273L7.46211 4.76523H8.51211L7.64961 5.40273L7.98711 4.39023ZM5.69961 4.39023L6.03711 5.40273L5.17461 4.76523H6.22461L5.36211 5.40273L5.69961 4.39023ZM3.41211 4.39023L3.74961 5.40273L2.88711 4.76523H3.93711L3.07461 5.40273L3.41211 4.39023ZM1.12461 4.39023L1.46211 5.40273L0.599609 4.76523H1.64961L0.787109 5.40273L1.12461 4.39023ZM11.3996 3.41523L11.7371 4.42773L10.8746 3.79023H11.9246L11.0621 4.42773L11.3996 3.41523ZM9.11211 3.41523L9.44961 4.42773L8.58711 3.79023H9.63711L8.77461 4.42773L9.11211 3.41523ZM6.86211 3.41523L7.19961 4.42773L6.33711 3.79023H7.38711L6.52461 4.42773L6.86211 3.41523ZM4.57461 3.41523L4.91211 4.42773L4.04961 3.79023H5.09961L4.23711 4.42773L4.57461 3.41523ZM2.28711 3.41523L2.62461 4.42773L1.76211 3.79023H2.81211L1.94961 4.42773L2.28711 3.41523ZM12.5246 2.44023L12.8621 3.45273L11.9996 2.81523H13.0496L12.1871 3.45273L12.5246 2.44023ZM10.2746 2.44023L10.6121 3.45273L9.74961 2.81523H10.7996L9.93711 3.45273L10.2746 2.44023ZM7.98711 2.44023L8.32461 3.45273L7.46211 2.81523H8.51211L7.64961 3.45273L7.98711 2.44023ZM5.69961 2.44023L6.03711 3.45273L5.17461 2.81523H6.22461L5.36211 3.45273L5.69961 2.44023ZM3.41211 2.44023L3.74961 3.45273L2.88711 2.81523H3.93711L3.07461 3.45273L3.41211 2.44023ZM1.12461 2.44023L1.46211 3.45273L0.599609 2.81523H1.64961L0.787109 3.45273L1.12461 2.44023ZM11.3996 1.46523L11.7371 2.47773L10.8746 1.84023H11.9246L11.0621 2.47773L11.3996 1.46523ZM9.11211 1.46523L9.44961 2.47773L8.58711 1.84023H9.63711L8.77461 2.47773L9.11211 1.46523ZM6.86211 1.46523L7.19961 2.47773L6.33711 1.84023H7.38711L6.52461 2.47773L6.86211 1.46523ZM4.57461 1.46523L4.91211 2.47773L4.04961 1.84023H5.09961L4.23711 2.47773L4.57461 1.46523ZM2.28711 1.46523L2.62461 2.47773L1.76211 1.84023H2.81211L1.94961 2.47773L2.28711 1.46523ZM12.5246 0.490234L12.8621 1.50273L11.9996 0.865234H13.0496L12.1871 1.50273L12.5246 0.490234ZM10.2746 0.490234L10.6121 1.50273L9.74961 0.865234H10.7996L9.93711 1.50273L10.2746 0.490234ZM7.98711 0.490234L8.32461 1.50273L7.46211 0.865234H8.51211L7.64961 1.50273L7.98711 0.490234ZM5.69961 0.490234L6.03711 1.50273L5.17461 0.865234H6.22461L5.36211 1.50273L5.69961 0.490234ZM3.41211 0.490234L3.74961 1.50273L2.88711 0.865234H3.93711L3.07461 1.50273L3.41211 0.490234ZM1.12461 0.490234L1.46211 1.50273L0.599609 0.865234H1.64961L0.787109 1.50273L1.12461 0.490234Z" fill="white"/>
</svg>
