<svg width="24" height="18" viewBox="0 0 24 18" fill="none" xmlns="http://www.w3.org/2000/svg">
<path d="M0.00375366 0H24.0038V18H0.00375366V0Z" fill="#3F9C35"/>
<path d="M0.00375366 0H24.0038V12H0.00375366V0Z" fill="#ED2939"/>
<path d="M0.00375366 0H24.0038V6H0.00375366V0Z" fill="#00B9E4"/>
<path d="M11.4 11.7C12.8912 11.7 14.1 10.4912 14.1 9C14.1 7.50883 12.8912 6.3 11.4 6.3C9.90883 6.3 8.7 7.50883 8.7 9C8.7 10.4912 9.90883 11.7 11.4 11.7Z" fill="white"/>
<path d="M12 11.25C13.2426 11.25 14.25 10.2426 14.25 9C14.25 7.75736 13.2426 6.75 12 6.75C10.7574 6.75 9.75 7.75736 9.75 9C9.75 10.2426 10.7574 11.25 12 11.25Z" fill="#ED2939"/>
<path d="M14.4 7.5L14.6888 8.30625L15.4613 7.93875L15.0938 8.715L15.9 9L15.0938 9.28875L15.4613 10.0612L14.6888 9.69375L14.4 10.5L14.1113 9.69375L13.3388 10.0612L13.7063 9.28875L12.9 9L13.7063 8.71125L13.3388 7.93875L14.1113 8.30625L14.4 7.5Z" fill="white"/>
</svg>
