<svg width="24" height="18" viewBox="0 0 24 18" fill="none" xmlns="http://www.w3.org/2000/svg">
<path d="M0 0H24V18H0V0Z" fill="white"/>
<path d="M10.2 0H13.8V18H10.2V0Z" fill="#FF0000"/>
<path d="M0 7.20001H24V10.8H0V7.20001Z" fill="#FF0000"/>
<path fill-rule="evenodd" clip-rule="evenodd" d="M5.505 13.9912C5.5425 13.3612 5.655 12.825 5.655 12.825C5.655 12.825 5.2875 12.8625 5.1 12.8625C4.9125 12.8625 4.545 12.825 4.545 12.825C4.545 12.825 4.6575 13.3612 4.695 13.995C4.06125 13.9575 3.525 13.845 3.525 13.845C3.525 13.845 3.5625 14.1225 3.5625 14.4C3.5625 14.6775 3.525 14.955 3.525 14.955C3.525 14.955 4.06125 14.8425 4.695 14.805C4.6575 15.4387 4.545 15.975 4.545 15.975C4.545 15.975 4.8225 15.9375 5.1 15.9375C5.3775 15.9375 5.655 15.975 5.655 15.975C5.655 15.975 5.5425 15.4387 5.505 14.805C6.13875 14.8425 6.675 14.955 6.675 14.955C6.675 14.955 6.6375 14.5875 6.6375 14.4C6.6375 14.2125 6.675 13.845 6.675 13.845C6.675 13.845 6.13875 13.9575 5.50875 13.995L5.505 13.9912ZM19.305 3.19124C19.3425 2.56124 19.455 2.02499 19.455 2.02499C19.455 2.02499 19.0875 2.06249 18.9 2.06249C18.7125 2.06249 18.345 2.02499 18.345 2.02499C18.345 2.02499 18.4575 2.56124 18.495 3.19124C17.8613 3.15374 17.325 3.04499 17.325 3.04499C17.325 3.04499 17.3625 3.32249 17.3625 3.59999C17.3625 3.87749 17.325 4.15499 17.325 4.15499C17.325 4.15499 17.8613 4.04249 18.495 4.00499C18.4575 4.63874 18.345 5.17499 18.345 5.17499C18.345 5.17499 18.6225 5.13749 18.9 5.13749C19.1775 5.13749 19.455 5.17499 19.455 5.17499C19.455 5.17499 19.3425 4.63874 19.305 4.00874C19.9388 4.04624 20.475 4.15874 20.475 4.15874C20.475 4.15874 20.4375 3.78374 20.4375 3.59999C20.4375 3.41624 20.475 3.04499 20.475 3.04499C20.475 3.04499 19.9388 3.15749 19.305 3.19499V3.19124ZM5.505 3.19124C5.5425 2.56124 5.655 2.02499 5.655 2.02499C5.655 2.02499 5.2875 2.06249 5.1 2.06249C4.9125 2.06249 4.545 2.02499 4.545 2.02499C4.545 2.02499 4.6575 2.56124 4.695 3.19499C4.06125 3.15749 3.525 3.04499 3.525 3.04499C3.525 3.04499 3.5625 3.32249 3.5625 3.59999C3.5625 3.87749 3.525 4.15499 3.525 4.15499C3.525 4.15499 4.06125 4.04249 4.695 4.00499C4.6575 4.63874 4.545 5.17499 4.545 5.17499C4.545 5.17499 4.8225 5.13749 5.1 5.13749C5.3775 5.13749 5.655 5.17499 5.655 5.17499C5.655 5.17499 5.5425 4.63874 5.505 4.00499C6.13875 4.04249 6.675 4.15499 6.675 4.15499C6.675 4.15499 6.6375 3.78749 6.6375 3.59999C6.6375 3.41249 6.675 3.04499 6.675 3.04499C6.675 3.04499 6.13875 3.15749 5.50875 3.19499L5.505 3.19124ZM19.305 13.9912C19.3425 13.3612 19.455 12.825 19.455 12.825C19.455 12.825 19.0875 12.8625 18.9 12.8625C18.7125 12.8625 18.345 12.825 18.345 12.825C18.345 12.825 18.4575 13.3612 18.495 13.995C17.8613 13.9575 17.325 13.845 17.325 13.845C17.325 13.845 17.3625 14.1225 17.3625 14.4C17.3625 14.6775 17.325 14.955 17.325 14.955C17.325 14.955 17.8613 14.8425 18.495 14.805C18.4575 15.4387 18.345 15.975 18.345 15.975C18.345 15.975 18.6225 15.9375 18.9 15.9375C19.1775 15.9375 19.455 15.975 19.455 15.975C19.455 15.975 19.3425 15.4387 19.305 14.805C19.9388 14.8425 20.475 14.955 20.475 14.955C20.475 14.955 20.4375 14.5875 20.4375 14.4C20.4375 14.2125 20.475 13.845 20.475 13.845C20.475 13.845 19.9388 13.9575 19.305 13.995V13.9912Z" fill="#FF0000"/>
</svg>
