<svg width="141" height="52" viewBox="0 0 141 52" fill="none" xmlns="http://www.w3.org/2000/svg">
<path d="M1.0779 30.8722C0.934537 27.1744 4.12993 23.206 4.74616 22.4768C4.81124 21.9892 5.12854 20.6671 6.6684 20.1941C7.47964 19.9441 11.0192 19.1983 14.8544 18.4402C18.6383 17.6924 22.716 16.9301 24.7531 16.6161C28.2448 16.0769 30.4773 16.3764 31.1313 16.4921C32.4611 15.6741 33.2056 15.2134 33.9323 14.763C45.9145 7.33851 54.1254 2.25043 69.2874 1.52326H69.299C69.4066 1.51913 106.74 0.496552 114.901 0.858067C118.498 1.0192 121.26 1.23611 123.338 1.47161C126.028 1.77529 127.609 2.11407 128.383 2.39502C130.031 2.9941 129.162 3.98157 128.573 4.4691L134.386 13.1021C134.707 13.4285 137.153 15.9922 137.569 19.1136C137.817 20.9729 137.88 23.08 137.925 24.5839C137.955 25.5879 137.976 26.3026 137.988 26.3212C138.107 26.5196 138.301 26.974 138.44 27.4285V27.4306C138.549 27.788 138.631 28.1598 138.631 28.4408C138.631 28.8374 138.694 29.6472 138.727 30.0542C139.309 30.4363 140.745 31.6097 140.467 33.723C140.304 34.9605 139.893 36.0533 139.25 36.9498C138.613 37.8402 137.749 38.5384 136.675 38.9929C136.016 39.2718 134.562 39.7717 132.889 40.3192C130.154 41.2137 126.764 42.2672 125.403 42.6866L124.779 42.8808V42.2259V39.6354C124.779 36.2413 123.39 33.157 121.153 30.9197C118.916 28.6825 115.83 27.2922 112.436 27.2922C109.043 27.2922 105.957 28.6825 103.719 30.9197C101.482 33.157 100.093 36.2413 100.093 39.6354V43.8517V44.3062L99.6369 44.331L99.4557 44.3413H99.4537L93.6593 44.645L93.3194 44.6615L93.1897 44.3434C93.1874 44.3392 92.4615 42.4656 88.9213 42.4118H88.9195C86.5138 42.3726 69.7878 42.4532 57.3495 42.6349C49.9236 42.7444 44.0718 42.8705 43.8658 42.9944L43.8664 42.9965C43.1564 43.4695 41.2594 44.6305 41.254 44.6346L41.1447 44.7008L41.0144 44.7049L38.599 44.7627L38.1001 44.7751L38.1067 44.2773L38.1071 44.2504L38.1073 44.2236H38.1055V39.6354C38.1055 36.2413 36.7169 33.157 34.4796 30.9197C32.2421 28.6825 29.1564 27.2922 25.7627 27.2922C22.369 27.2922 19.2831 28.6825 17.0458 30.9197C14.8083 33.157 13.4197 36.2413 13.4197 39.6354V44.2236C13.4197 44.3992 13.4219 44.5437 13.4263 44.6615C13.4308 44.7875 13.4391 44.9321 13.4505 45.0933L13.4856 45.5911L12.9846 45.6077L12.952 45.6097H12.9462C12.9299 45.6097 7.21274 45.7357 6.28808 44.9528C5.76977 44.5148 5.78465 44.1244 5.80365 43.6286C5.81873 43.2278 5.83836 42.7155 5.19982 41.9326C4.80834 41.4512 4.26669 40.9327 3.70334 40.3915C2.37048 39.1127 0.922141 37.7224 0.689944 36.1442C0.535421 35.0947 0.489148 34.3201 0.504848 33.7168C0.521168 33.0971 0.6038 32.6612 0.702959 32.2976C0.853143 31.7461 1.22995 31.494 1.54581 31.3763L1.54478 31.3494L1.43632 31.3205L1.09175 31.2275L1.0779 30.8722ZM5.57249 22.9932C5.56237 23.0036 2.12568 26.8769 2.03747 30.4838L2.13457 30.5086L2.47914 30.6016L2.49298 30.9569L2.52314 31.7419L2.54236 32.2419H2.04223C2.04119 32.2419 1.71479 32.2419 1.63092 32.5497C1.54912 32.8513 1.48074 33.2149 1.4669 33.7396C1.45264 34.285 1.49706 35.0038 1.64435 36.0058C1.82862 37.2576 3.1528 38.5281 4.37122 39.6974C4.95419 40.2572 5.51485 40.7943 5.94661 41.3252C6.81404 42.3891 6.78677 43.1039 6.76549 43.6617C6.75661 43.8972 6.74959 44.081 6.91051 44.2174C7.43977 44.6656 11.1448 44.6677 12.463 44.6553C12.457 44.488 12.4541 44.3434 12.4541 44.2236V39.6354C12.4541 35.9748 13.951 32.6488 16.363 30.2359C18.7749 27.8251 22.1023 26.3274 25.7627 26.3274C29.4231 26.3274 32.7503 27.8251 35.1623 30.2359C37.5744 32.6488 39.0713 35.9748 39.0713 39.6354V43.7897L40.8609 43.7463C41.2656 43.4964 42.699 42.6122 43.3307 42.1929H43.3326C43.6919 41.9532 49.7368 41.7838 57.3382 41.6723C69.7837 41.4905 86.525 41.412 88.9345 41.4492C92.1878 41.5008 93.4909 42.9985 93.9111 43.6658L99.1277 43.3952V39.6354C99.1277 35.9748 100.625 32.6488 103.037 30.2359C105.448 27.8251 108.776 26.3274 112.436 26.3274C116.097 26.3274 119.424 27.8251 121.836 30.2359C124.248 32.6488 125.745 35.9748 125.745 39.6354V41.5731C127.329 41.0814 130.175 40.1932 132.591 39.402C134.253 38.8566 135.685 38.369 136.302 38.1067C137.203 37.7245 137.929 37.1378 138.465 36.3879C139.017 35.6174 139.371 34.6733 139.512 33.5991C139.769 31.6428 138.051 30.771 138.047 30.7689L137.815 30.6491L137.79 30.3847C137.79 30.3806 137.665 28.9861 137.665 28.4408C137.665 28.2548 137.603 27.9842 137.52 27.7115H137.52C137.401 27.3273 137.25 26.9616 137.162 26.815C137.022 26.5815 136.997 25.7635 136.963 24.6087C136.919 23.1296 136.857 21.0534 136.615 19.2376C136.215 16.236 133.683 13.7611 133.676 13.7549L133.642 13.7198L133.614 13.6785L127.518 4.62404L127.243 4.21707L127.659 3.95265C127.661 3.95058 128.457 3.44652 128.055 3.30192C127.341 3.04163 125.838 2.72348 123.233 2.43014C121.163 2.19464 118.42 1.97773 114.86 1.82073C106.768 1.46128 69.8454 2.4694 69.3329 2.48386C54.4188 3.19864 46.2942 8.23508 34.4376 15.5811C33.2719 16.3041 32.076 17.0457 31.4773 17.4135L31.3096 17.5168L31.1169 17.4713C31.1107 17.4713 28.9147 16.9507 24.9002 17.5705C22.8613 17.8845 18.8009 18.6447 15.0393 19.3884C11.2231 20.1424 7.72031 20.8778 6.95121 21.1133C5.71462 21.4955 5.69148 22.6854 5.69127 22.6896L5.6859 22.8631L5.57249 22.9932Z" fill="black"/>
<path fill-rule="evenodd" clip-rule="evenodd" d="M1.55798 30.8532C1.40697 26.9612 5.20951 22.6747 5.20951 22.6747C5.20951 22.6747 5.23967 21.1356 6.80906 20.6543C8.37825 20.1709 20.7213 17.725 24.8256 17.0928C28.93 16.4586 31.2236 17.0019 31.2236 17.0019C44.8315 8.62922 53.0592 2.78296 69.3093 2.00208C69.3093 2.00208 106.731 0.977451 114.879 1.33897C123.028 1.70049 126.891 2.36567 128.219 2.84701C129.546 3.33041 127.917 4.35711 127.917 4.35711L134.013 13.4095C134.013 13.4095 136.669 16.0062 137.091 19.1752C137.514 22.3441 137.393 26.2671 137.574 26.5687C137.755 26.8703 138.148 27.897 138.148 28.4403C138.148 28.9836 138.268 30.3409 138.268 30.3409C138.268 30.3409 140.29 31.3676 139.989 33.6606C139.687 35.9537 138.48 37.7034 136.488 38.5483C134.794 39.2672 127.429 41.5562 125.261 42.2255V39.635C125.261 32.5823 119.49 26.8104 112.435 26.8104C105.381 26.8104 99.6096 32.5823 99.6096 39.635V43.8513L99.4282 43.8616L93.634 44.1632C93.634 44.1632 92.7889 41.99 88.9261 41.9301C85.0632 41.8681 44.3219 42.1098 43.5976 42.5932C42.8734 43.0766 41.0024 44.2231 41.0024 44.2231L38.5868 44.281C38.587 44.2624 38.5876 44.2417 38.5876 44.2231V39.635C38.5876 32.5823 32.816 26.8104 25.7618 26.8104C18.7077 26.8104 12.9361 32.5823 12.9361 39.635V44.2231C12.9361 44.5268 12.9474 44.8284 12.9687 45.128H12.9361C12.9361 45.128 7.38315 45.2498 6.59856 44.5846C5.81396 43.9215 6.90016 43.2563 5.57247 41.6285C4.24456 39.9985 1.46812 38.1269 1.1663 36.0756C0.864487 34.0222 0.98513 33.0863 1.1661 32.4232C1.34727 31.7601 2.04138 31.7601 2.04138 31.7601L2.01122 30.9751L1.55798 30.8532Z" fill="black"/>
<path fill-rule="evenodd" clip-rule="evenodd" d="M136.247 16.5439C136.641 17.3331 136.966 18.2276 137.091 19.1737C137.168 19.7459 137.227 20.345 137.272 20.942C137.271 20.9565 137.215 21.4564 136.843 21.7539C136.466 22.0555 135.938 22.0266 135.938 22.0266H130.626C130.626 22.0266 128.272 18.7957 127.699 17.6491C127.126 16.5026 128.242 16.1411 128.242 16.1411C128.242 16.1411 135.363 15.7796 136.247 16.5439Z" fill="white"/>
<path fill-rule="evenodd" clip-rule="evenodd" d="M127.917 4.35818L134.013 13.4106C134.013 13.4106 134.074 13.4726 134.18 13.5841C134.18 13.5841 132.678 13.6688 132.195 13.3362C131.712 13.0036 126.068 4.70526 126.068 4.70526L127.917 4.35818Z" fill="white"/>
<path fill-rule="evenodd" clip-rule="evenodd" d="M31.2227 17.0013C39.356 11.9979 45.5676 7.89524 52.7184 5.2386L54.2492 5.38115C54.2492 5.38115 50.2957 7.61635 46.433 9.60779C42.5699 11.5992 35.9306 16.6088 35.0857 17.0013C34.2406 17.3938 31.2227 17.0013 31.2227 17.0013Z" fill="white"/>
<path fill-rule="evenodd" clip-rule="evenodd" d="M4.72656 27.0195C7.14088 22.0099 8.80075 21.7992 10.34 21.4356C11.879 21.0741 14.7761 20.2891 14.565 20.7725C14.3539 21.2559 10.8228 25.6313 10.0985 25.9329C9.37422 26.2345 4.72656 27.0195 4.72656 27.0195Z" fill="white"/>
<path fill-rule="evenodd" clip-rule="evenodd" d="M4.13882 30.9119C4.71374 30.9119 5.17999 31.8105 5.17999 32.9199C5.17999 34.0271 4.71374 34.9258 4.13882 34.9258C3.56391 34.9258 3.09766 34.0271 3.09766 32.9199C3.09766 31.8105 3.56391 30.9119 4.13882 30.9119Z" fill="white"/>
<path fill-rule="evenodd" clip-rule="evenodd" d="M44.502 13.3821C44.502 13.3821 50.749 8.52329 55.4871 6.62068C59.0913 5.17461 64.8461 4.26773 70.2514 3.76781L68.7988 17.0943L46.3732 18.3008V17.9393C46.3732 17.9393 47.882 17.3051 47.8519 16.52C47.8217 15.735 47.6707 14.3468 47.1879 13.8655C46.7051 13.3821 46.3128 13.1714 45.8602 13.2003C45.4074 13.2313 44.502 13.3821 44.502 13.3821ZM73.9395 3.48479C76.284 3.33811 78.4329 3.27201 80.1432 3.27201C85.2131 3.27201 90.8263 2.87951 92.3957 3.72443C93.9649 4.56935 100.393 15.6462 100.393 15.6462L74.4791 16.8134L73.9395 3.48479Z" fill="white"/>
<path fill-rule="evenodd" clip-rule="evenodd" d="M99.9406 4.75016L107.138 13.5918C107.138 13.5918 108.3 14.7549 109.417 14.6929C110.533 14.633 126.498 13.91 126.498 13.91C126.498 13.91 128.052 13.6683 127.298 12.34C126.543 11.0116 122.077 4.82454 122.077 4.82454C122.077 4.82454 121.247 3.66356 117.973 3.5582C114.698 3.45285 100.575 3.39086 100.575 3.39086C100.575 3.39086 99.6617 3.45285 99.6239 3.95071C99.5863 4.44857 99.9406 4.75016 99.9406 4.75016Z" fill="white"/>
<path fill-rule="evenodd" clip-rule="evenodd" d="M25.5894 29.9033C19.6039 29.9033 14.752 34.7415 14.752 40.7075C14.752 46.6757 19.6039 51.5117 25.5894 51.5117C31.5747 51.5117 36.4268 46.6757 36.4268 40.7075C36.4268 34.7415 31.5747 29.9033 25.5894 29.9033Z" fill="black"/>
<path fill-rule="evenodd" clip-rule="evenodd" d="M25.5907 32.5186C21.0532 32.5186 17.375 36.1854 17.375 40.7075C17.375 45.2316 21.0532 48.8984 25.5907 48.8984C30.1281 48.8984 33.8065 45.2316 33.8065 40.7075C33.8065 36.1854 30.1281 32.5186 25.5907 32.5186Z" fill="white"/>
<path fill-rule="evenodd" clip-rule="evenodd" d="M23.7549 33.9671C23.4932 34.0394 23.2376 34.1241 22.9889 34.2233L22.9503 34.3699C22.9036 34.2584 23.8894 38.0285 23.5764 38.107C23.2632 38.1855 23.3415 38.1256 22.383 37.5781C21.4325 37.0348 20.1978 36.2911 20.1773 36.2787C19.9722 36.5266 19.784 36.7911 19.6144 37.0658C19.632 37.0803 22.6173 39.458 22.3442 39.6708C22.0702 39.8877 21.9723 39.9455 21.0921 39.9848C20.2133 40.024 18.6127 40.1749 18.6079 40.1749C18.5947 40.3504 18.5879 40.5281 18.5879 40.7058C18.5879 40.8814 18.5943 41.0549 18.6071 41.2284C18.6536 41.2222 18.6887 41.2181 18.7056 41.216C18.8046 41.2098 20.5248 41.2945 21.0923 41.2945C21.6598 41.2945 22.3051 41.373 22.2857 41.8048C22.2661 42.2324 19.5906 44.2755 19.5774 44.2858C19.752 44.5771 19.9474 44.8539 20.1614 45.1163C20.1784 45.1039 21.4889 44.2652 22.3828 43.7611C23.2827 43.2508 23.3806 43.1352 23.6545 43.3293C23.9278 43.5256 22.7957 47.0994 22.7926 47.1077C23.0887 47.2358 23.3954 47.3453 23.7113 47.4341C23.7113 47.4341 24.0654 46.4198 24.3391 45.7939C24.613 45.1679 25.2588 43.7611 25.5129 43.7611C25.7672 43.7611 27.2242 47.4961 27.2242 47.4961C27.5461 47.4197 27.8595 47.3205 28.1623 47.2027C28.1623 47.2027 27.2157 44.4635 27.1571 44.0338C27.0984 43.6041 27.0592 43.3108 27.4308 43.2116C27.802 43.1145 30.8737 45.2795 30.8788 45.2836C31.1121 45.015 31.3253 44.73 31.5159 44.4284C31.5118 44.4263 29.5036 42.9183 29.0543 42.5485C28.6042 42.1766 28.3501 41.9597 28.4478 41.5507C28.5455 41.1396 32.5639 41.2945 32.5689 41.2945C32.585 41.1003 32.5935 40.9041 32.5935 40.7058C32.5935 40.5137 32.5854 40.3236 32.5699 40.1335C32.555 40.1335 29.2878 40.0034 28.8389 40.0034C28.3889 40.0034 28.3497 39.8485 28.3497 39.6129C28.3497 39.3774 31.4414 36.8675 31.343 36.9336L31.4288 36.851C31.2505 36.5824 31.0542 36.3283 30.8419 36.0887H30.8417C30.8417 36.0887 27.9778 38.1648 27.4498 38.1462C26.9218 38.1256 27.2542 37.1092 27.4108 36.3676C27.5673 35.6239 27.8997 34.1158 27.8997 34.1158L27.9026 34.1138C27.5967 34.0084 27.2812 33.9216 26.9577 33.8576C27.005 33.9692 27.0391 34.0539 27.0389 34.0559C27.0765 33.8824 25.7282 37.4418 25.4935 37.5389C25.2588 37.636 24.9456 37.324 24.7696 36.7167C24.5944 36.1135 23.7632 33.9898 23.7549 33.9671Z" fill="black"/>
<path fill-rule="evenodd" clip-rule="evenodd" d="M112.38 29.9033C106.395 29.9033 101.543 34.7415 101.543 40.7075C101.543 46.6757 106.395 51.5117 112.38 51.5117C118.366 51.5117 123.218 46.6757 123.218 40.7075C123.218 34.7415 118.366 29.9033 112.38 29.9033Z" fill="black"/>
<path fill-rule="evenodd" clip-rule="evenodd" d="M112.38 32.5186C107.842 32.5186 104.164 36.1854 104.164 40.7075C104.164 45.2316 107.842 48.8984 112.38 48.8984C116.917 48.8984 120.596 45.2316 120.596 40.7075C120.596 36.1854 116.917 32.5186 112.38 32.5186Z" fill="white"/>
<path fill-rule="evenodd" clip-rule="evenodd" d="M110.544 33.9671C110.282 34.0394 110.027 34.1241 109.778 34.2233L109.739 34.3699C109.693 34.2584 110.678 38.0285 110.365 38.107C110.052 38.1855 110.131 38.1256 109.172 37.5781C108.221 37.0348 106.987 36.2911 106.966 36.2787C106.761 36.5266 106.573 36.7911 106.403 37.0658C106.421 37.0803 109.406 39.458 109.133 39.6708C108.859 39.8877 108.761 39.9455 107.881 39.9848C107.002 40.024 105.402 40.1749 105.397 40.1749C105.384 40.3504 105.377 40.5281 105.377 40.7058C105.377 40.8814 105.383 41.0549 105.396 41.2284C105.443 41.2222 105.478 41.2181 105.495 41.216C105.593 41.2098 107.314 41.2945 107.881 41.2945C108.449 41.2945 109.094 41.373 109.075 41.8048C109.055 42.2324 106.38 44.2755 106.366 44.2858C106.541 44.5771 106.736 44.8539 106.95 45.1163C106.967 45.1039 108.278 44.2652 109.172 43.7611C110.072 43.2508 110.17 43.1352 110.443 43.3293C110.717 43.5256 109.585 47.0994 109.582 47.1077C109.878 47.2358 110.185 47.3453 110.5 47.4341C110.5 47.4341 110.854 46.4198 111.128 45.7939C111.402 45.1679 112.048 43.7611 112.302 43.7611C112.556 43.7611 114.013 47.4961 114.013 47.4961C114.335 47.4197 114.649 47.3205 114.952 47.2027C114.952 47.2027 114.005 44.4635 113.946 44.0338C113.887 43.6041 113.848 43.3108 114.22 43.2116C114.591 43.1145 117.663 45.2795 117.668 45.2836C117.901 45.015 118.114 44.73 118.305 44.4284C118.301 44.4263 116.293 42.9183 115.843 42.5485C115.393 42.1766 115.139 41.9597 115.237 41.5507C115.335 41.1396 119.353 41.2945 119.358 41.2945C119.374 41.1003 119.383 40.9041 119.383 40.7058C119.383 40.5137 119.374 40.3236 119.359 40.1335C119.344 40.1335 116.077 40.0034 115.628 40.0034C115.178 40.0034 115.139 39.8485 115.139 39.6129C115.139 39.3774 118.23 36.8675 118.132 36.9336L118.218 36.851C118.04 36.5824 117.843 36.3283 117.631 36.0887H117.631C117.631 36.0887 114.767 38.1648 114.239 38.1462C113.711 38.1256 114.043 37.1092 114.2 36.3676C114.356 35.6239 114.689 34.1158 114.689 34.1158L114.692 34.1138C114.386 34.0084 114.07 33.9216 113.747 33.8576C113.794 33.9692 113.828 34.0539 113.828 34.0559C113.866 33.8824 112.517 37.4418 112.283 37.5389C112.048 37.636 111.735 37.324 111.559 36.7167C111.384 36.1135 110.552 33.9898 110.544 33.9671Z" fill="black"/>
</svg>
