<svg xmlns="http://www.w3.org/2000/svg">

    <symbol id="sedan" viewBox="0 0 141 38" fill="none">
        <path fill-rule="evenodd" clip-rule="evenodd"
            d="M17.6427 37.3438C17.6427 37.3438 4.57564 36.5372 3.60781 36.2146C2.63998 35.892 1.1461 34.6417 1.1461 34.6417C1.1461 34.6417 0.782781 23.8328 5.13945 20.8887C9.49613 17.9445 24.4582 16.0086 29.9426 15.202C35.4269 14.3955 36.7173 14.3955 36.7173 14.3955L38.8158 14.5568C38.8158 14.5568 52.0049 6.04663 59.9103 3.90927C70.1408 1.14268 82.5336 0.402142 93.0199 1.85214C96.8127 2.37645 103.506 3.62677 105.404 4.19148C107.299 4.75619 124.441 11.29 124.441 11.29C124.441 11.29 135.046 12.0158 135.61 12.4192C136.177 12.8223 137.508 15.8473 137.508 15.8473L136.741 16.049L138.031 23.4297C138.031 23.4297 140.007 25.6883 139.845 26.8979C139.685 28.1078 139.199 32.3023 137.586 33.1495C136.136 33.911 123.145 35.5528 120.54 35.876C120.543 35.7479 120.543 35.6194 120.543 35.4901C120.543 28.2508 115.434 22.3823 109.13 22.3823C102.826 22.3823 97.7166 28.2508 97.7166 35.4901C97.7166 35.8577 97.7311 36.2213 97.7573 36.5811L40.7572 37.1386C40.8182 36.5986 40.8502 36.0484 40.8502 35.4901C40.8502 28.2508 35.6304 22.3823 29.1927 22.3823C22.758 22.3823 17.5381 28.2508 17.5381 35.4901C17.5381 36.1193 17.5788 36.7381 17.6544 37.3438H17.6427Z"
            fill="currentColor" />
        <path
            d="M17.6066 37.9863C17.5687 37.9837 4.45755 37.1746 3.40691 36.8242C2.32135 36.4619 0.741042 35.1388 0.738131 35.1353L0.514028 34.9497L0.505302 34.6589C0.505302 34.6269 0.129848 23.498 4.78061 20.3539C8.89295 17.5739 21.8906 15.7084 28.2905 14.7899C28.8144 14.7145 29.2917 14.6458 29.8505 14.5637C35.386 13.7497 36.716 13.7497 36.7189 13.7497L36.7684 13.752L38.6514 13.897C40.2667 12.8682 52.2806 5.30442 59.7428 3.28608C64.8796 1.89697 70.5606 1.01454 76.2737 0.659767C82.0216 0.302956 87.8074 0.480495 93.1101 1.2142C95.0484 1.48224 97.7434 1.93946 100.174 2.39842C102.528 2.84342 104.641 3.29103 105.59 3.57362C107.432 4.12281 123.279 10.1566 124.583 10.6534C125.657 10.7282 135.313 11.4136 135.986 11.8943C136.696 12.4025 138.093 15.578 138.098 15.5873L138.401 16.2774L137.671 16.4694L137.479 16.5201L138.637 23.149C139.088 23.6935 140.657 25.6935 140.485 26.9808L140.465 27.1476C140.27 28.6222 139.728 32.7512 137.886 33.7186C137.289 34.0323 135.165 34.4456 132.578 34.8592C128.101 35.5751 122.266 36.3114 120.619 36.5157L119.88 36.6077L119.897 35.8606C119.9 35.7902 119.9 35.7282 119.903 35.6755C119.903 35.6298 119.9 35.6589 119.9 35.4895C119.9 32.0309 118.683 28.9037 116.716 26.6444C114.769 24.4095 112.089 23.0271 109.132 23.0271C106.175 23.0271 103.494 24.4095 101.547 26.6444C99.5798 28.9037 98.3633 32.0309 98.3633 35.4895C98.3633 35.7043 98.3662 35.8787 98.372 36.0154C98.3779 36.1653 98.3866 36.3396 98.4011 36.5352L98.4506 37.2168L97.7638 37.2235L40.7643 37.7809L40.0396 37.7878L40.1182 37.0675C40.1502 36.803 40.1706 36.5402 40.1852 36.2806C40.1997 36.0373 40.2055 35.7736 40.2055 35.4895C40.2055 32.0329 38.9628 28.9078 36.9547 26.6496C34.9669 24.4115 32.2224 23.0271 29.1957 23.0271C26.1689 23.0271 23.4244 24.4115 21.4337 26.6496C19.4256 28.9078 18.1858 32.0329 18.1858 35.4895C18.1858 35.8009 18.1945 36.0966 18.2119 36.3766C18.2323 36.6915 18.2585 36.9878 18.2934 37.2651L18.3837 37.9791L17.6619 37.986L17.6502 37.9863H17.6066ZM3.81146 35.6042C4.56816 35.8565 14.1723 36.4791 16.9401 36.654C16.9343 36.5879 16.9314 36.5221 16.9255 36.4572C16.9052 36.1249 16.8935 35.8018 16.8935 35.4895C16.8935 31.7072 18.2614 28.2782 20.4733 25.7925C22.6997 23.2867 25.7847 21.7366 29.1957 21.7366C32.6066 21.7366 35.6916 23.2867 37.918 25.7925C40.1299 28.2782 41.4978 31.7072 41.4978 35.4895C41.4978 35.7605 41.489 36.048 41.4715 36.3513C41.4686 36.397 41.4657 36.4427 41.4628 36.4884L97.0827 35.9444C97.0769 35.7678 97.074 35.6155 97.074 35.4895C97.074 31.7093 98.4128 28.2823 100.575 25.7974C102.761 23.2887 105.785 21.7366 109.132 21.7366C112.479 21.7366 115.505 23.2887 117.688 25.7974C119.786 28.2063 121.108 31.5012 121.186 35.1449C123.451 34.8603 128.512 34.2069 132.377 33.5888C134.845 33.1938 136.833 32.8196 137.292 32.5792C138.541 31.9238 139.018 28.282 139.187 26.9814L139.21 26.8143C139.332 25.8941 137.551 23.8559 137.546 23.8501L137.426 23.7139L137.397 23.5399L136.108 16.1595L136.006 15.5768L136.579 15.4258L136.605 15.4185C136.204 14.5509 135.526 13.1473 135.241 12.943C134.821 12.6449 124.429 11.9342 124.397 11.9322L124.3 11.9255L124.21 11.8917C124.164 11.8731 107.091 5.36583 105.22 4.80849C104.306 4.53638 102.246 4.09952 99.9378 3.66355C97.5281 3.20837 94.8563 2.75523 92.9355 2.48951C87.7172 1.76774 82.0158 1.59341 76.3493 1.94527C70.7265 2.29451 65.1357 3.16355 60.0775 4.53113C52.269 6.64231 39.2015 15.0739 39.1636 15.0981L38.9832 15.2154L38.7707 15.1991L36.7073 15.0402C36.5618 15.0428 35.1619 15.0859 30.0367 15.8394C29.6788 15.892 29.1054 15.9741 28.471 16.0652C22.17 16.9697 9.37024 18.8068 5.50237 21.4226C1.83823 23.8976 1.76549 32.6199 1.78586 34.33C2.2166 34.6717 3.16827 35.3906 3.81146 35.6042Z"
            fill="currentColor" />
        <path fill-rule="evenodd" clip-rule="evenodd"
            d="M103.803 3.79319C104.48 3.94497 105.034 4.0813 105.405 4.19148C107.299 4.75591 124.44 11.2898 124.44 11.2898C124.44 11.2898 122.382 11.7735 121.657 11.6324C120.932 11.4913 120.204 11.0877 117.421 9.83739C114.639 8.58712 103.971 5.09854 103.184 4.81605C102.484 4.56476 103.561 3.92895 103.803 3.79319Z"
            fill="white" />
        <path fill-rule="evenodd" clip-rule="evenodd"
            d="M38.8164 14.5556C38.8164 14.5556 50.593 6.95699 58.5609 4.3173L60.4326 4.89716C53.8261 7.81422 49.5121 10.5635 43.4134 14.375C42.1221 15.1815 38.8164 14.5556 38.8164 14.5556Z"
            fill="white" />
        <path fill-rule="evenodd" clip-rule="evenodd"
            d="M3.68755 30.8509L11.9954 30.6089C11.9954 30.6089 11.1895 33.5531 9.85837 33.9161C8.52724 34.2791 4.41479 34.2791 3.92997 34.0775C3.44515 33.8757 3.68755 30.8509 3.68755 30.8509Z"
            fill="white" />
        <path fill-rule="evenodd" clip-rule="evenodd"
            d="M4.85547 24.9629C6.06596 22.18 7.39663 21.2121 7.39663 21.2121L16.1083 21.2524C16.1083 21.2524 14.9579 22.5632 14.4342 23.5513C13.9105 24.5394 13.7882 24.9225 13.7882 24.9225L4.85547 24.9629Z"
            fill="white" />
        <path fill-rule="evenodd" clip-rule="evenodd"
            d="M51.5605 11.0685C59.2676 5.4217 64.9918 4.61533 68.5397 3.88943C70.7216 3.4431 73.7911 3.24869 77.245 3.25837L74.2806 14.7478L51.602 15.3438C51.602 15.3438 53.3746 14.3958 53.3552 13.3071C53.3359 12.2178 52.8713 11.7137 52.5892 11.5323C52.3072 11.3509 51.5605 11.0685 51.5605 11.0685ZM79.1697 3.28354C84.6976 3.4113 90.9197 4.00751 95.9664 4.89767L101.411 13.7288L77.4358 14.6494L79.1697 3.28354ZM98.4193 5.37469C100.203 5.75742 101.76 6.17968 102.985 6.63182C107.783 8.40661 117.019 12.843 116.253 13.2061C115.487 13.5692 103.469 13.6497 103.469 13.6497L98.4193 5.37469Z"
            fill="white" />
        <path fill-rule="evenodd" clip-rule="evenodd"
            d="M135.068 15.484C135.953 17.2586 136.397 20.7676 136.397 20.7676L129.744 20.6868L127.846 15.6455L135.068 15.484Z"
            fill="white" />
        <path fill-rule="evenodd" clip-rule="evenodd"
            d="M29.1994 24.4062C23.8572 24.4062 19.5254 28.749 19.5254 34.1066C19.5254 39.4636 23.8572 43.8066 29.1994 43.8066C34.5416 43.8066 38.8735 39.4636 38.8735 34.1066C38.8735 28.749 34.5416 24.4062 29.1994 24.4062Z"
            fill="currentColor" />
        <path fill-rule="evenodd" clip-rule="evenodd"
            d="M29.2024 26.8749C25.2193 26.8749 21.9902 30.1122 21.9902 34.1054C21.9902 38.0986 25.2193 41.3359 29.2024 41.3359C33.1831 41.3359 36.4122 38.0986 36.4122 34.1054C36.4122 30.1122 33.1831 26.8749 29.2024 26.8749Z"
            fill="white" />
        <path fill-rule="evenodd" clip-rule="evenodd"
            d="M28.885 27.9425C28.6631 27.9536 28.4458 27.9765 28.2329 28.0107L28.516 31.4288L26.5847 28.5188C26.4126 28.6 26.2451 28.6892 26.0798 28.7859L26.2111 28.8264L27.7054 31.8332L25.3462 29.2958C25.1741 29.4344 25.0111 29.582 24.8549 29.7378L27.0194 32.308L23.8179 31.1116C23.7319 31.2701 23.6504 31.4327 23.5757 31.5993L26.7386 33.1518L23.2451 32.5459C23.1908 32.7535 23.1478 32.9657 23.1161 33.1812C23.1251 33.1833 26.5462 33.9252 26.4579 33.9252C26.3696 33.9252 23.0957 34.8952 23.0957 34.8952V34.8949C23.1251 35.1257 23.1681 35.3525 23.2225 35.5742L26.7907 34.7695L23.4806 36.3861C23.5531 36.5735 23.6368 36.7567 23.7297 36.9349L27.0375 35.6312C27.0375 35.6312 24.8662 38.177 24.787 38.251C24.7711 38.2666 24.7236 38.2732 24.6625 38.2739C24.8277 38.4557 25.0043 38.6275 25.19 38.7883L27.7598 36.2113C27.7598 36.2113 25.9847 39.3706 26.0368 39.2882L25.8715 39.2984C26.0866 39.4379 26.313 39.5642 26.5462 39.6761L28.3575 36.6507L28.199 40.0924L28.0428 40.1696C28.2896 40.2165 28.5386 40.2489 28.7945 40.2656L29.2722 36.6157L29.7454 40.2557C29.9582 40.2369 30.1688 40.2074 30.3748 40.1674L30.1688 36.598L32.1159 39.5452C32.2631 39.4659 32.4057 39.381 32.5438 39.2907L30.925 36.1411L33.3476 38.6678C33.4698 38.5569 33.5876 38.4412 33.6985 38.321L31.4865 35.6491L34.7128 36.8606C34.7989 36.6879 34.8758 36.5106 34.946 36.3288L31.7672 34.7172L35.2155 35.4234C35.2607 35.2228 35.2947 35.019 35.3173 34.8118C34.7898 34.6604 32.1793 33.9612 32.0842 33.9612C31.9801 33.9612 35.2879 33.1776 35.2879 33.1776C35.2562 32.9723 35.2155 32.7698 35.1656 32.5717L31.7695 33.1876L34.8736 31.7059C34.7898 31.5087 34.697 31.3167 34.5951 31.1306L31.5748 32.3786L33.6012 29.7905C33.4653 29.6506 33.3204 29.517 33.1732 29.3907L30.8729 31.7811L32.46 28.8704C32.2993 28.7687 32.1318 28.6741 31.9597 28.5874L30.205 31.4469L30.3205 28.0367C30.1212 28.0001 29.9174 27.9724 29.7091 27.9555L29.3084 31.3944L28.885 27.9425Z"
            fill="currentColor" />
        <path fill-rule="evenodd" clip-rule="evenodd"
            d="M109.14 24.4041C103.796 24.4041 99.4648 28.7471 99.4648 34.1044C99.4648 39.4616 103.796 43.8047 109.14 43.8047C114.482 43.8047 118.813 39.4616 118.813 34.1044C118.813 28.7471 114.482 24.4041 109.14 24.4041Z"
            fill="currentColor" />
        <path fill-rule="evenodd" clip-rule="evenodd"
            d="M109.14 26.8748C105.156 26.8748 101.928 30.1121 101.928 34.1054C101.928 38.0987 105.156 41.3359 109.14 41.3359C113.122 41.3359 116.35 38.0987 116.35 34.1054C116.35 30.1121 113.122 26.8748 109.14 26.8748Z"
            fill="white" />
        <path fill-rule="evenodd" clip-rule="evenodd"
            d="M108.821 27.9425C108.601 27.9535 108.383 27.9766 108.168 28.0105L108.449 31.4286L106.521 28.5187C106.348 28.6 106.18 28.6892 106.017 28.7859L106.147 28.8264L107.642 31.8332L105.282 29.2958C105.111 29.4343 104.946 29.5817 104.791 29.7376L106.956 32.3078L103.756 31.1115C103.668 31.2699 103.585 31.4327 103.511 31.5994L106.675 33.1515L103.18 32.5458C103.128 32.7535 103.084 32.9656 103.051 33.1813C103.062 33.1832 106.48 33.925 106.395 33.925C106.306 33.925 103.031 34.8951 103.031 34.8951V34.8949C103.062 35.1257 103.103 35.3524 103.158 35.5741L106.728 34.7695L103.417 36.3859C103.491 36.5735 103.574 36.7566 103.665 36.9349L106.973 35.6311C106.973 35.6311 104.802 38.1769 104.723 38.251C104.706 38.2664 104.659 38.273 104.599 38.2738C104.764 38.4556 104.94 38.6275 105.127 38.7881L107.695 36.2113C107.695 36.2113 105.921 39.3704 105.97 39.2881L105.808 39.2982C106.023 39.4379 106.249 39.5641 106.48 39.6762L108.292 36.6506L108.135 40.0924L107.978 40.1695C108.224 40.2163 108.474 40.2488 108.73 40.2656L109.207 36.6156L109.681 40.2554C109.893 40.2367 110.105 40.2072 110.311 40.1673L110.105 36.598L112.052 39.545C112.198 39.4657 112.342 39.3809 112.479 39.2905L110.86 36.141L113.284 38.6677C113.405 38.5567 113.523 38.441 113.633 38.3209L111.422 35.649L114.647 36.8605C114.732 36.6878 114.812 36.5107 114.881 36.3289L111.705 34.7172L115.151 35.4232C115.195 35.2227 115.231 35.0191 115.253 34.812C114.724 34.6602 112.116 33.9611 112.022 33.9611C111.915 33.9611 115.223 33.1774 115.223 33.1774C115.192 32.9722 115.151 32.7698 115.102 32.5714L111.705 33.1873L114.81 31.706C114.727 31.5087 114.633 31.3167 114.531 31.1305L111.512 32.3786L113.537 29.7905C113.399 29.6505 113.256 29.5169 113.107 29.3905L110.807 31.7812L112.397 28.8702C112.234 28.7685 112.066 28.6741 111.895 28.5873L110.141 31.4468L110.256 28.0367C110.055 28 109.851 27.9725 109.645 27.9554L109.243 31.3944L108.821 27.9425Z"
            fill="currentColor" />
    </symbol>

    <symbol id="suv" viewBox="0 0 141 52" fill="none">
        <path
            d="M1.0779 30.8722C0.934537 27.1744 4.12993 23.206 4.74616 22.4768C4.81124 21.9892 5.12854 20.6671 6.6684 20.1941C7.47964 19.9441 11.0192 19.1983 14.8544 18.4402C18.6383 17.6924 22.716 16.9301 24.7531 16.6161C28.2448 16.0769 30.4773 16.3764 31.1313 16.4921C32.4611 15.6741 33.2056 15.2134 33.9323 14.763C45.9145 7.33851 54.1254 2.25043 69.2874 1.52326H69.299C69.4066 1.51913 106.74 0.496552 114.901 0.858067C118.498 1.0192 121.26 1.23611 123.338 1.47161C126.028 1.77529 127.609 2.11407 128.383 2.39502C130.031 2.9941 129.162 3.98157 128.573 4.4691L134.386 13.1021C134.707 13.4285 137.153 15.9922 137.569 19.1136C137.817 20.9729 137.88 23.08 137.925 24.5839C137.955 25.5879 137.976 26.3026 137.988 26.3212C138.107 26.5196 138.301 26.974 138.44 27.4285V27.4306C138.549 27.788 138.631 28.1598 138.631 28.4408C138.631 28.8374 138.694 29.6472 138.727 30.0542C139.309 30.4363 140.745 31.6097 140.467 33.723C140.304 34.9605 139.893 36.0533 139.25 36.9498C138.613 37.8402 137.749 38.5384 136.675 38.9929C136.016 39.2718 134.562 39.7717 132.889 40.3192C130.154 41.2137 126.764 42.2672 125.403 42.6866L124.779 42.8808V42.2259V39.6354C124.779 36.2413 123.39 33.157 121.153 30.9197C118.916 28.6825 115.83 27.2922 112.436 27.2922C109.043 27.2922 105.957 28.6825 103.719 30.9197C101.482 33.157 100.093 36.2413 100.093 39.6354V43.8517V44.3062L99.6369 44.331L99.4557 44.3413H99.4537L93.6593 44.645L93.3194 44.6615L93.1897 44.3434C93.1874 44.3392 92.4615 42.4656 88.9213 42.4118H88.9195C86.5138 42.3726 69.7878 42.4532 57.3495 42.6349C49.9236 42.7444 44.0718 42.8705 43.8658 42.9944L43.8664 42.9965C43.1564 43.4695 41.2594 44.6305 41.254 44.6346L41.1447 44.7008L41.0144 44.7049L38.599 44.7627L38.1001 44.7751L38.1067 44.2773L38.1071 44.2504L38.1073 44.2236H38.1055V39.6354C38.1055 36.2413 36.7169 33.157 34.4796 30.9197C32.2421 28.6825 29.1564 27.2922 25.7627 27.2922C22.369 27.2922 19.2831 28.6825 17.0458 30.9197C14.8083 33.157 13.4197 36.2413 13.4197 39.6354V44.2236C13.4197 44.3992 13.4219 44.5437 13.4263 44.6615C13.4308 44.7875 13.4391 44.9321 13.4505 45.0933L13.4856 45.5911L12.9846 45.6077L12.952 45.6097H12.9462C12.9299 45.6097 7.21274 45.7357 6.28808 44.9528C5.76977 44.5148 5.78465 44.1244 5.80365 43.6286C5.81873 43.2278 5.83836 42.7155 5.19982 41.9326C4.80834 41.4512 4.26669 40.9327 3.70334 40.3915C2.37048 39.1127 0.922141 37.7224 0.689944 36.1442C0.535421 35.0947 0.489148 34.3201 0.504848 33.7168C0.521168 33.0971 0.6038 32.6612 0.702959 32.2976C0.853143 31.7461 1.22995 31.494 1.54581 31.3763L1.54478 31.3494L1.43632 31.3205L1.09175 31.2275L1.0779 30.8722ZM5.57249 22.9932C5.56237 23.0036 2.12568 26.8769 2.03747 30.4838L2.13457 30.5086L2.47914 30.6016L2.49298 30.9569L2.52314 31.7419L2.54236 32.2419H2.04223C2.04119 32.2419 1.71479 32.2419 1.63092 32.5497C1.54912 32.8513 1.48074 33.2149 1.4669 33.7396C1.45264 34.285 1.49706 35.0038 1.64435 36.0058C1.82862 37.2576 3.1528 38.5281 4.37122 39.6974C4.95419 40.2572 5.51485 40.7943 5.94661 41.3252C6.81404 42.3891 6.78677 43.1039 6.76549 43.6617C6.75661 43.8972 6.74959 44.081 6.91051 44.2174C7.43977 44.6656 11.1448 44.6677 12.463 44.6553C12.457 44.488 12.4541 44.3434 12.4541 44.2236V39.6354C12.4541 35.9748 13.951 32.6488 16.363 30.2359C18.7749 27.8251 22.1023 26.3274 25.7627 26.3274C29.4231 26.3274 32.7503 27.8251 35.1623 30.2359C37.5744 32.6488 39.0713 35.9748 39.0713 39.6354V43.7897L40.8609 43.7463C41.2656 43.4964 42.699 42.6122 43.3307 42.1929H43.3326C43.6919 41.9532 49.7368 41.7838 57.3382 41.6723C69.7837 41.4905 86.525 41.412 88.9345 41.4492C92.1878 41.5008 93.4909 42.9985 93.9111 43.6658L99.1277 43.3952V39.6354C99.1277 35.9748 100.625 32.6488 103.037 30.2359C105.448 27.8251 108.776 26.3274 112.436 26.3274C116.097 26.3274 119.424 27.8251 121.836 30.2359C124.248 32.6488 125.745 35.9748 125.745 39.6354V41.5731C127.329 41.0814 130.175 40.1932 132.591 39.402C134.253 38.8566 135.685 38.369 136.302 38.1067C137.203 37.7245 137.929 37.1378 138.465 36.3879C139.017 35.6174 139.371 34.6733 139.512 33.5991C139.769 31.6428 138.051 30.771 138.047 30.7689L137.815 30.6491L137.79 30.3847C137.79 30.3806 137.665 28.9861 137.665 28.4408C137.665 28.2548 137.603 27.9842 137.52 27.7115H137.52C137.401 27.3273 137.25 26.9616 137.162 26.815C137.022 26.5815 136.997 25.7635 136.963 24.6087C136.919 23.1296 136.857 21.0534 136.615 19.2376C136.215 16.236 133.683 13.7611 133.676 13.7549L133.642 13.7198L133.614 13.6785L127.518 4.62404L127.243 4.21707L127.659 3.95265C127.661 3.95058 128.457 3.44652 128.055 3.30192C127.341 3.04163 125.838 2.72348 123.233 2.43014C121.163 2.19464 118.42 1.97773 114.86 1.82073C106.768 1.46128 69.8454 2.4694 69.3329 2.48386C54.4188 3.19864 46.2942 8.23508 34.4376 15.5811C33.2719 16.3041 32.076 17.0457 31.4773 17.4135L31.3096 17.5168L31.1169 17.4713C31.1107 17.4713 28.9147 16.9507 24.9002 17.5705C22.8613 17.8845 18.8009 18.6447 15.0393 19.3884C11.2231 20.1424 7.72031 20.8778 6.95121 21.1133C5.71462 21.4955 5.69148 22.6854 5.69127 22.6896L5.6859 22.8631L5.57249 22.9932Z"
            fill="currentColor" />
        <path fill-rule="evenodd" clip-rule="evenodd"
            d="M1.55798 30.8532C1.40697 26.9612 5.20951 22.6747 5.20951 22.6747C5.20951 22.6747 5.23967 21.1356 6.80906 20.6543C8.37825 20.1709 20.7213 17.725 24.8256 17.0928C28.93 16.4586 31.2236 17.0019 31.2236 17.0019C44.8315 8.62922 53.0592 2.78296 69.3093 2.00208C69.3093 2.00208 106.731 0.977451 114.879 1.33897C123.028 1.70049 126.891 2.36567 128.219 2.84701C129.546 3.33041 127.917 4.35711 127.917 4.35711L134.013 13.4095C134.013 13.4095 136.669 16.0062 137.091 19.1752C137.514 22.3441 137.393 26.2671 137.574 26.5687C137.755 26.8703 138.148 27.897 138.148 28.4403C138.148 28.9836 138.268 30.3409 138.268 30.3409C138.268 30.3409 140.29 31.3676 139.989 33.6606C139.687 35.9537 138.48 37.7034 136.488 38.5483C134.794 39.2672 127.429 41.5562 125.261 42.2255V39.635C125.261 32.5823 119.49 26.8104 112.435 26.8104C105.381 26.8104 99.6096 32.5823 99.6096 39.635V43.8513L99.4282 43.8616L93.634 44.1632C93.634 44.1632 92.7889 41.99 88.9261 41.9301C85.0632 41.8681 44.3219 42.1098 43.5976 42.5932C42.8734 43.0766 41.0024 44.2231 41.0024 44.2231L38.5868 44.281C38.587 44.2624 38.5876 44.2417 38.5876 44.2231V39.635C38.5876 32.5823 32.816 26.8104 25.7618 26.8104C18.7077 26.8104 12.9361 32.5823 12.9361 39.635V44.2231C12.9361 44.5268 12.9474 44.8284 12.9687 45.128H12.9361C12.9361 45.128 7.38315 45.2498 6.59856 44.5846C5.81396 43.9215 6.90016 43.2563 5.57247 41.6285C4.24456 39.9985 1.46812 38.1269 1.1663 36.0756C0.864487 34.0222 0.98513 33.0863 1.1661 32.4232C1.34727 31.7601 2.04138 31.7601 2.04138 31.7601L2.01122 30.9751L1.55798 30.8532Z"
            fill="currentColor" />
        <path fill-rule="evenodd" clip-rule="evenodd"
            d="M136.247 16.5439C136.641 17.3331 136.966 18.2276 137.091 19.1737C137.168 19.7459 137.227 20.345 137.272 20.942C137.271 20.9565 137.215 21.4564 136.843 21.7539C136.466 22.0555 135.938 22.0266 135.938 22.0266H130.626C130.626 22.0266 128.272 18.7957 127.699 17.6491C127.126 16.5026 128.242 16.1411 128.242 16.1411C128.242 16.1411 135.363 15.7796 136.247 16.5439Z"
            fill="white" />
        <path fill-rule="evenodd" clip-rule="evenodd"
            d="M127.917 4.35818L134.013 13.4106C134.013 13.4106 134.074 13.4726 134.18 13.5841C134.18 13.5841 132.678 13.6688 132.195 13.3362C131.712 13.0036 126.068 4.70526 126.068 4.70526L127.917 4.35818Z"
            fill="white" />
        <path fill-rule="evenodd" clip-rule="evenodd"
            d="M31.2227 17.0013C39.356 11.9979 45.5676 7.89524 52.7184 5.2386L54.2492 5.38115C54.2492 5.38115 50.2957 7.61635 46.433 9.60779C42.5699 11.5992 35.9306 16.6088 35.0857 17.0013C34.2406 17.3938 31.2227 17.0013 31.2227 17.0013Z"
            fill="white" />
        <path fill-rule="evenodd" clip-rule="evenodd"
            d="M4.72656 27.0195C7.14088 22.0099 8.80075 21.7992 10.34 21.4356C11.879 21.0741 14.7761 20.2891 14.565 20.7725C14.3539 21.2559 10.8228 25.6313 10.0985 25.9329C9.37422 26.2345 4.72656 27.0195 4.72656 27.0195Z"
            fill="white" />
        <path fill-rule="evenodd" clip-rule="evenodd"
            d="M4.13882 30.9119C4.71374 30.9119 5.17999 31.8105 5.17999 32.9199C5.17999 34.0271 4.71374 34.9258 4.13882 34.9258C3.56391 34.9258 3.09766 34.0271 3.09766 32.9199C3.09766 31.8105 3.56391 30.9119 4.13882 30.9119Z"
            fill="white" />
        <path fill-rule="evenodd" clip-rule="evenodd"
            d="M44.502 13.3821C44.502 13.3821 50.749 8.52329 55.4871 6.62068C59.0913 5.17461 64.8461 4.26773 70.2514 3.76781L68.7988 17.0943L46.3732 18.3008V17.9393C46.3732 17.9393 47.882 17.3051 47.8519 16.52C47.8217 15.735 47.6707 14.3468 47.1879 13.8655C46.7051 13.3821 46.3128 13.1714 45.8602 13.2003C45.4074 13.2313 44.502 13.3821 44.502 13.3821ZM73.9395 3.48479C76.284 3.33811 78.4329 3.27201 80.1432 3.27201C85.2131 3.27201 90.8263 2.87951 92.3957 3.72443C93.9649 4.56935 100.393 15.6462 100.393 15.6462L74.4791 16.8134L73.9395 3.48479Z"
            fill="white" />
        <path fill-rule="evenodd" clip-rule="evenodd"
            d="M99.9406 4.75016L107.138 13.5918C107.138 13.5918 108.3 14.7549 109.417 14.6929C110.533 14.633 126.498 13.91 126.498 13.91C126.498 13.91 128.052 13.6683 127.298 12.34C126.543 11.0116 122.077 4.82454 122.077 4.82454C122.077 4.82454 121.247 3.66356 117.973 3.5582C114.698 3.45285 100.575 3.39086 100.575 3.39086C100.575 3.39086 99.6617 3.45285 99.6239 3.95071C99.5863 4.44857 99.9406 4.75016 99.9406 4.75016Z"
            fill="white" />
        <path fill-rule="evenodd" clip-rule="evenodd"
            d="M25.5894 29.9033C19.6039 29.9033 14.752 34.7415 14.752 40.7075C14.752 46.6757 19.6039 51.5117 25.5894 51.5117C31.5747 51.5117 36.4268 46.6757 36.4268 40.7075C36.4268 34.7415 31.5747 29.9033 25.5894 29.9033Z"
            fill="currentColor" />
        <path fill-rule="evenodd" clip-rule="evenodd"
            d="M25.5907 32.5186C21.0532 32.5186 17.375 36.1854 17.375 40.7075C17.375 45.2316 21.0532 48.8984 25.5907 48.8984C30.1281 48.8984 33.8065 45.2316 33.8065 40.7075C33.8065 36.1854 30.1281 32.5186 25.5907 32.5186Z"
            fill="white" />
        <path fill-rule="evenodd" clip-rule="evenodd"
            d="M23.7549 33.9671C23.4932 34.0394 23.2376 34.1241 22.9889 34.2233L22.9503 34.3699C22.9036 34.2584 23.8894 38.0285 23.5764 38.107C23.2632 38.1855 23.3415 38.1256 22.383 37.5781C21.4325 37.0348 20.1978 36.2911 20.1773 36.2787C19.9722 36.5266 19.784 36.7911 19.6144 37.0658C19.632 37.0803 22.6173 39.458 22.3442 39.6708C22.0702 39.8877 21.9723 39.9455 21.0921 39.9848C20.2133 40.024 18.6127 40.1749 18.6079 40.1749C18.5947 40.3504 18.5879 40.5281 18.5879 40.7058C18.5879 40.8814 18.5943 41.0549 18.6071 41.2284C18.6536 41.2222 18.6887 41.2181 18.7056 41.216C18.8046 41.2098 20.5248 41.2945 21.0923 41.2945C21.6598 41.2945 22.3051 41.373 22.2857 41.8048C22.2661 42.2324 19.5906 44.2755 19.5774 44.2858C19.752 44.5771 19.9474 44.8539 20.1614 45.1163C20.1784 45.1039 21.4889 44.2652 22.3828 43.7611C23.2827 43.2508 23.3806 43.1352 23.6545 43.3293C23.9278 43.5256 22.7957 47.0994 22.7926 47.1077C23.0887 47.2358 23.3954 47.3453 23.7113 47.4341C23.7113 47.4341 24.0654 46.4198 24.3391 45.7939C24.613 45.1679 25.2588 43.7611 25.5129 43.7611C25.7672 43.7611 27.2242 47.4961 27.2242 47.4961C27.5461 47.4197 27.8595 47.3205 28.1623 47.2027C28.1623 47.2027 27.2157 44.4635 27.1571 44.0338C27.0984 43.6041 27.0592 43.3108 27.4308 43.2116C27.802 43.1145 30.8737 45.2795 30.8788 45.2836C31.1121 45.015 31.3253 44.73 31.5159 44.4284C31.5118 44.4263 29.5036 42.9183 29.0543 42.5485C28.6042 42.1766 28.3501 41.9597 28.4478 41.5507C28.5455 41.1396 32.5639 41.2945 32.5689 41.2945C32.585 41.1003 32.5935 40.9041 32.5935 40.7058C32.5935 40.5137 32.5854 40.3236 32.5699 40.1335C32.555 40.1335 29.2878 40.0034 28.8389 40.0034C28.3889 40.0034 28.3497 39.8485 28.3497 39.6129C28.3497 39.3774 31.4414 36.8675 31.343 36.9336L31.4288 36.851C31.2505 36.5824 31.0542 36.3283 30.8419 36.0887H30.8417C30.8417 36.0887 27.9778 38.1648 27.4498 38.1462C26.9218 38.1256 27.2542 37.1092 27.4108 36.3676C27.5673 35.6239 27.8997 34.1158 27.8997 34.1158L27.9026 34.1138C27.5967 34.0084 27.2812 33.9216 26.9577 33.8576C27.005 33.9692 27.0391 34.0539 27.0389 34.0559C27.0765 33.8824 25.7282 37.4418 25.4935 37.5389C25.2588 37.636 24.9456 37.324 24.7696 36.7167C24.5944 36.1135 23.7632 33.9898 23.7549 33.9671Z"
            fill="currentColor" />
        <path fill-rule="evenodd" clip-rule="evenodd"
            d="M112.38 29.9033C106.395 29.9033 101.543 34.7415 101.543 40.7075C101.543 46.6757 106.395 51.5117 112.38 51.5117C118.366 51.5117 123.218 46.6757 123.218 40.7075C123.218 34.7415 118.366 29.9033 112.38 29.9033Z"
            fill="currentColor" />
        <path fill-rule="evenodd" clip-rule="evenodd"
            d="M112.38 32.5186C107.842 32.5186 104.164 36.1854 104.164 40.7075C104.164 45.2316 107.842 48.8984 112.38 48.8984C116.917 48.8984 120.596 45.2316 120.596 40.7075C120.596 36.1854 116.917 32.5186 112.38 32.5186Z"
            fill="white" />
        <path fill-rule="evenodd" clip-rule="evenodd"
            d="M110.544 33.9671C110.282 34.0394 110.027 34.1241 109.778 34.2233L109.739 34.3699C109.693 34.2584 110.678 38.0285 110.365 38.107C110.052 38.1855 110.131 38.1256 109.172 37.5781C108.221 37.0348 106.987 36.2911 106.966 36.2787C106.761 36.5266 106.573 36.7911 106.403 37.0658C106.421 37.0803 109.406 39.458 109.133 39.6708C108.859 39.8877 108.761 39.9455 107.881 39.9848C107.002 40.024 105.402 40.1749 105.397 40.1749C105.384 40.3504 105.377 40.5281 105.377 40.7058C105.377 40.8814 105.383 41.0549 105.396 41.2284C105.443 41.2222 105.478 41.2181 105.495 41.216C105.593 41.2098 107.314 41.2945 107.881 41.2945C108.449 41.2945 109.094 41.373 109.075 41.8048C109.055 42.2324 106.38 44.2755 106.366 44.2858C106.541 44.5771 106.736 44.8539 106.95 45.1163C106.967 45.1039 108.278 44.2652 109.172 43.7611C110.072 43.2508 110.17 43.1352 110.443 43.3293C110.717 43.5256 109.585 47.0994 109.582 47.1077C109.878 47.2358 110.185 47.3453 110.5 47.4341C110.5 47.4341 110.854 46.4198 111.128 45.7939C111.402 45.1679 112.048 43.7611 112.302 43.7611C112.556 43.7611 114.013 47.4961 114.013 47.4961C114.335 47.4197 114.649 47.3205 114.952 47.2027C114.952 47.2027 114.005 44.4635 113.946 44.0338C113.887 43.6041 113.848 43.3108 114.22 43.2116C114.591 43.1145 117.663 45.2795 117.668 45.2836C117.901 45.015 118.114 44.73 118.305 44.4284C118.301 44.4263 116.293 42.9183 115.843 42.5485C115.393 42.1766 115.139 41.9597 115.237 41.5507C115.335 41.1396 119.353 41.2945 119.358 41.2945C119.374 41.1003 119.383 40.9041 119.383 40.7058C119.383 40.5137 119.374 40.3236 119.359 40.1335C119.344 40.1335 116.077 40.0034 115.628 40.0034C115.178 40.0034 115.139 39.8485 115.139 39.6129C115.139 39.3774 118.23 36.8675 118.132 36.9336L118.218 36.851C118.04 36.5824 117.843 36.3283 117.631 36.0887H117.631C117.631 36.0887 114.767 38.1648 114.239 38.1462C113.711 38.1256 114.043 37.1092 114.2 36.3676C114.356 35.6239 114.689 34.1158 114.689 34.1158L114.692 34.1138C114.386 34.0084 114.07 33.9216 113.747 33.8576C113.794 33.9692 113.828 34.0539 113.828 34.0559C113.866 33.8824 112.517 37.4418 112.283 37.5389C112.048 37.636 111.735 37.324 111.559 36.7167C111.384 36.1135 110.552 33.9898 110.544 33.9671Z"
            fill="currentColor" />
    </symbol>


</svg>