<svg width="141" height="38" viewBox="0 0 141 38" fill="none" xmlns="http://www.w3.org/2000/svg">
<path d="M17.6066 37.9883C17.5687 37.9857 4.45755 37.1766 3.40691 36.8262C2.32135 36.4638 0.741042 35.1408 0.738131 35.1373L0.514028 34.9516L0.505302 34.6609C0.505302 34.6288 0.129848 23.4999 4.78061 20.3558C8.89295 17.5759 21.8906 15.7103 28.2905 14.7918C28.8144 14.7164 29.2917 14.6478 29.8505 14.5657C35.386 13.7517 36.716 13.7517 36.7189 13.7517L36.7684 13.754L38.6514 13.8989C40.2667 12.8701 52.2806 5.30637 59.7428 3.28804C64.8796 1.89892 70.5606 1.01649 76.2737 0.66172C82.0216 0.304909 87.8074 0.482449 93.1101 1.21615C95.0484 1.4842 97.7434 1.94141 100.174 2.40038C102.528 2.84537 104.641 3.29298 105.59 3.57558C107.432 4.12476 123.279 10.1585 124.583 10.6553C125.657 10.7301 135.313 11.4155 135.986 11.8963C136.696 12.4044 138.093 15.58 138.098 15.5893L138.401 16.2793L137.671 16.4714L137.479 16.522L138.637 23.151C139.088 23.6955 140.657 25.6955 140.485 26.9827L140.465 27.1495C140.27 28.6242 139.728 32.7531 137.886 33.7205C137.289 34.0343 135.165 34.4475 132.578 34.8611C128.101 35.5771 122.266 36.3134 120.619 36.5177L119.88 36.6096L119.897 35.8626C119.9 35.7921 119.9 35.7301 119.903 35.6775C119.903 35.6318 119.9 35.6609 119.9 35.4915C119.9 32.0328 118.683 28.9056 116.716 26.6463C114.769 24.4114 112.089 23.029 109.132 23.029C106.175 23.029 103.494 24.4114 101.547 26.6463C99.5798 28.9056 98.3633 32.0328 98.3633 35.4915C98.3633 35.7063 98.3662 35.8806 98.372 36.0174C98.3779 36.1673 98.3866 36.3416 98.4011 36.5372L98.4506 37.2188L97.7638 37.2255L40.7643 37.7828L40.0396 37.7898L40.1182 37.0695C40.1502 36.8049 40.1706 36.5421 40.1852 36.2825C40.1997 36.0392 40.2055 35.7755 40.2055 35.4915C40.2055 32.0348 38.9628 28.9097 36.9547 26.6516C34.9669 24.4135 32.2224 23.029 29.1957 23.029C26.1689 23.029 23.4244 24.4135 21.4337 26.6516C19.4256 28.9097 18.1858 32.0348 18.1858 35.4915C18.1858 35.8029 18.1945 36.0986 18.2119 36.3786C18.2323 36.6935 18.2585 36.9897 18.2934 37.2671L18.3837 37.981L17.6619 37.988L17.6502 37.9883H17.6066ZM3.81146 35.6061C4.56816 35.8585 14.1723 36.481 16.9401 36.6559C16.9343 36.5899 16.9314 36.5241 16.9255 36.4592C16.9052 36.1268 16.8935 35.8038 16.8935 35.4915C16.8935 31.7092 18.2614 28.2802 20.4733 25.7944C22.6997 23.2886 25.7847 21.7386 29.1957 21.7386C32.6066 21.7386 35.6916 23.2886 37.918 25.7944C40.1299 28.2802 41.4978 31.7092 41.4978 35.4915C41.4978 35.7624 41.489 36.05 41.4715 36.3532C41.4686 36.3989 41.4657 36.4446 41.4628 36.4903L97.0827 35.9464C97.0769 35.7697 97.074 35.6175 97.074 35.4915C97.074 31.7112 98.4128 28.2843 100.575 25.7994C102.761 23.2907 105.785 21.7386 109.132 21.7386C112.479 21.7386 115.505 23.2907 117.688 25.7994C119.786 28.2083 121.108 31.5031 121.186 35.1469C123.451 34.8623 128.512 34.2089 132.377 33.5907C134.845 33.1958 136.833 32.8215 137.292 32.5811C138.541 31.9257 139.018 28.284 139.187 26.9833L139.21 26.8163C139.332 25.896 137.551 23.8579 137.546 23.8521L137.426 23.7159L137.397 23.5418L136.108 16.1614L136.006 15.5788L136.579 15.4277L136.605 15.4205C136.204 14.5529 135.526 13.1492 135.241 12.9449C134.821 12.6469 124.429 11.9362 124.397 11.9341L124.3 11.9275L124.21 11.8937C124.164 11.8751 107.091 5.36778 105.22 4.81045C104.306 4.53833 102.246 4.10147 99.9378 3.6655C97.5281 3.21032 94.8563 2.75718 92.9355 2.49147C87.7172 1.7697 82.0158 1.59536 76.3493 1.94722C70.7265 2.29647 65.1357 3.1655 60.0775 4.53308C52.269 6.64426 39.2015 15.0759 39.1636 15.1L38.9832 15.2173L38.7707 15.201L36.7073 15.0421C36.5618 15.0447 35.1619 15.0878 30.0367 15.8413C29.6788 15.894 29.1054 15.976 28.471 16.0671C22.17 16.9717 9.37024 18.8087 5.50237 21.4245C1.83823 23.8995 1.76549 32.6219 1.78586 34.332C2.2166 34.6737 3.16827 35.3925 3.81146 35.6061Z" fill="black"/>
</svg>
