<svg width="151" height="25" viewBox="0 0 151 25" fill="none" xmlns="http://www.w3.org/2000/svg">
<path d="M2.71725 2.69372C0.55242 4.10085 0.335938 5.29151 0.335938 12.7602C0.335938 19.9041 0.660662 21.5277 2.60901 23.2596C4.55735 25.0997 5.09856 25.0997 7.58811 23.6926C10.9436 21.7442 12.026 19.3629 9.6447 19.3629C8.67053 19.3629 7.91284 19.9041 7.91284 20.5536C7.91284 21.203 6.83042 21.5277 5.53153 21.3112C3.15022 20.9865 3.04197 20.4453 3.04197 12.8684C3.04197 5.72448 3.25846 4.7503 5.09856 4.42558C6.18098 4.2091 7.58811 4.7503 8.12932 5.72448C9.31998 7.88931 11.1601 7.99755 11.1601 5.94096C11.1601 4.53382 7.26339 0.961853 5.74801 0.961853C5.42329 0.961853 4.01615 1.71954 2.71725 2.69372Z" fill="black"/>
<path d="M49.2602 2.69296C47.0954 4.1001 46.8789 5.29076 46.8789 12.8677C46.8789 20.7693 47.0954 21.6352 49.5849 23.2588C52.8322 25.4237 56.4042 24.3413 57.8113 20.7693C59.3267 16.7644 59.0019 16.1149 55.5382 16.1149C52.0745 16.1149 51.2086 17.6303 54.0228 18.7127C56.0794 19.4704 54.997 21.527 52.3992 21.527C49.2602 21.527 47.6366 10.9193 50.1261 6.26493C51.5333 3.77538 54.2393 3.5589 55.1053 5.83197C55.9712 7.88855 57.7031 7.9968 57.7031 5.94021C57.7031 4.53307 53.8064 0.961102 52.291 0.961102C51.9663 0.961102 50.5591 1.71879 49.2602 2.69296Z" fill="black"/>
<path d="M66.1452 2.58427C62.7897 4.42438 59.8672 9.29524 59.8672 12.8672C59.8672 19.5782 67.4441 25.6397 74.0468 24.2326C78.593 23.1501 82.5979 17.9546 82.5979 12.759C82.5979 4.42438 73.1809 -1.42066 66.1452 2.58427ZM74.0468 8.53755C76.9693 10.1612 76.8611 15.6815 73.8303 17.1969C72.0985 18.171 71.0161 18.0628 68.9595 16.6557C65.9287 14.7073 65.604 12.2178 68.2018 9.40349C70.2584 7.13041 71.1243 7.02217 74.0468 8.53755Z" fill="black"/>
<path d="M106.627 2.69327C104.463 4.10041 104.246 5.29107 104.246 12.7597C104.246 19.5789 104.679 21.5273 106.194 22.9344C111.498 27.8053 115.07 23.5839 115.07 12.5432C115.07 5.29107 114.746 4.10041 112.689 2.69327C111.39 1.7191 109.983 0.961407 109.658 0.961407C109.333 0.961407 107.926 1.7191 106.627 2.69327ZM112.256 5.94051C113.23 8.43007 113.014 18.6048 111.931 20.2284C111.39 21.0943 110.091 21.5273 109.009 21.3108C107.385 21.0943 106.844 19.7954 106.627 15.0328C106.411 11.8938 106.519 8.10534 106.952 6.6982C107.602 3.77568 111.282 3.34272 112.256 5.94051Z" fill="black"/>
<path d="M134.341 2.58679C130.985 4.4269 128.062 9.406 128.062 13.0862C128.062 17.3076 131.851 22.2867 136.181 23.6939C147.113 27.2658 155.556 13.9521 147.871 5.29283C144.19 1.2879 138.67 0.205481 134.341 2.58679ZM142.242 8.54007C145.165 10.1637 145.056 15.684 142.026 17.1994C140.294 18.1736 139.211 18.0653 137.155 16.6582C134.124 14.7098 133.799 12.2203 136.397 9.406C138.454 7.13293 139.32 7.02469 142.242 8.54007Z" fill="black"/>
<path d="M18.7379 2.47669C18.7379 2.69317 17.7637 7.67228 16.573 13.4091C13.9752 25.9651 14.0835 24.7744 16.0318 24.7744C16.8978 24.7744 17.6554 24.0167 17.6554 23.1508C17.6554 22.1766 18.6296 21.5272 20.3615 21.5272C22.0933 21.5272 23.0675 22.1766 23.0675 23.1508C23.0675 24.0167 23.8252 24.7744 24.7994 24.7744C25.8818 24.7744 26.3148 24.125 25.8818 22.8261C25.5571 21.8519 24.5829 16.7646 23.5005 11.4607C22.3098 5.18273 21.2274 2.04372 20.2532 2.04372C19.3873 2.04372 18.7379 2.26021 18.7379 2.47669ZM21.8769 17.414C21.9851 18.4964 21.2274 19.3624 20.3615 19.3624C18.6296 19.3624 18.3049 17.1975 19.4956 12.8679L20.2532 10.1618L21.0109 12.8679C21.4439 14.3832 21.7686 16.4398 21.8769 17.414Z" fill="black"/>
<path d="M30.6445 13.4076C30.6445 22.1752 30.9693 24.8812 32.0517 24.5565C32.7011 24.2318 33.6753 21.634 34 18.7115L34.5412 13.4076L36.2731 17.1961C37.139 19.2527 38.2214 21.8505 38.5462 22.8247C39.3038 24.9895 41.4687 25.4224 41.3604 23.3659C41.3604 22.7164 40.711 20.3351 39.9533 18.2785C38.7626 14.923 38.7626 14.1653 40.8192 11.4593C42.8758 8.64502 42.8758 8.21206 41.3604 5.50602C40.0615 3.12471 38.8709 2.47526 35.1907 2.25878L30.6445 1.93405V13.4076ZM39.0874 7.34612C39.5203 9.83568 37.8967 11.784 35.2989 11.784C34.433 11.784 33.8918 10.2686 33.8918 7.88733C33.8918 4.53185 34.2165 4.09888 36.3813 4.4236C37.8967 4.64009 38.8709 5.61426 39.0874 7.34612Z" fill="black"/>
<path d="M89.0938 13.4081C89.0938 22.8251 89.4185 24.7734 90.7174 24.7734C91.908 24.7734 92.341 23.4745 92.341 19.4696C92.341 14.3823 92.5575 14.0575 95.2635 13.7328C97.1036 13.5163 98.8355 12.3257 99.8097 10.5938C101.217 7.99601 101.217 7.45481 99.5932 4.85701C98.0778 2.58394 96.8871 2.04273 93.4234 2.04273H89.0938V13.4081ZM97.5366 7.34657C97.9695 9.83612 96.3459 11.7845 93.7481 11.7845C92.8822 11.7845 92.341 10.2691 92.341 7.88777C92.341 4.53229 92.6657 4.09932 94.8305 4.42405C96.3459 4.64053 97.3201 5.6147 97.5366 7.34657Z" fill="black"/>
<path d="M118.32 13.4081V24.7734H123.191C126.763 24.7734 128.062 24.3405 128.062 23.1498C128.062 22.0674 126.98 21.5262 124.815 21.5262H121.568V11.7845C121.568 3.88284 121.243 2.04273 119.944 2.04273C118.645 2.04273 118.32 3.99108 118.32 13.4081Z" fill="black"/>
</svg>
