<svg width="900" height="397" viewBox="0 0 900 397" fill="none" xmlns="http://www.w3.org/2000/svg">
<path id="roof" d="M336.803 61.2148L334.029 70.9492L343.188 73.5315L357.737 76.7973L370.963 80.0087L387.792 83.9766L393.037 85.4816L391.395 88.8566L388.705 95.1049L384.828 108.149L382.502 119.368L380.541 130.177L379.446 139.025L378.169 149.378L377.394 158.728L376.391 173.641L375.934 188.555V197.54V211.906L376.208 221.894L376.938 235.348L378.124 250.034L379.674 262.759L381.544 274.48L384.144 288.253L386.926 297.694L389.252 304.718L392.407 312L393.271 313.49L387.596 314.746L378.54 316.93L365.915 319.893L346.684 324.534L334.025 327.547L336.791 334.922L338.246 334.598L349.351 331.907L360.493 329.481L375.917 326.071L389.826 323.304L408.547 319.893L421.888 318.226L441.405 316.141L468.199 314.512L494 313.336L517.995 312.895H524.51H530.102H542.009L554.569 313.072L568.212 313.337L578.862 314.057L592.202 315.194L603.457 316.558L617.556 318.567L630.479 320.5L642.682 322.773L653.18 324.934L662.882 327.283L671.447 329.974L677.243 308.249L661.137 306.397L646.586 304.206L647.886 301.114L650.311 294.718L652.42 287.619L655.196 276.022L657.164 266.885L658.956 255.569L661.557 239.192L662.4 231.917L663.736 220.004L664.157 211.991L665.001 198.883V192.909L664.157 181.909L662.576 166.411L661.416 156.817L658.183 136.293L655.149 120.807L652.647 109.985L651.016 103.895L650.164 101.593L648.134 95.9191L646.354 92.2922L650.652 91.7233L677.243 88.6124L671.398 66.1956L657.604 70.1706L650.164 71.6243L640.286 73.9629C637.863 74.4685 632.954 75.4292 632.702 75.227C632.449 75.0247 626.613 76.2804 623.726 76.9335L612.286 78.5768L603.754 79.5881L596.865 80.2833L591.555 80.8522L577.565 82.2077L568.383 82.923L550.779 83.3836H533.635H516.952L494.332 82.8206L473.503 82.0018L463.78 81.5924L453.698 80.9783L438.857 79.8012L427.291 78.5218L417.67 77.4472L411.864 76.7973L400.051 74.8517L392.269 73.5315L385.112 72.0028L375.314 70.0571L366.003 68.042L356.831 65.9574L336.803 61.2148Z" fill="transparent" stroke="#3265B1" stroke-width="0.1"/>
<path id="bumper" d="M851.708 338.803L843.31 347.784L844.573 348.185H847.787L849.898 347.953L852.667 347.565L855.223 347.139L857.959 346.268L862.078 343.693C863.853 342.318 867.423 339.553 867.5 339.491C867.577 339.429 869.546 337.438 870.521 336.451L874.529 332.074L878.925 326.401L881.868 321.385L887.077 311.684L891.473 299.601L893.647 289.669L895.249 281.341L896.194 273.271L897.319 264.78L897.889 256.1L898.545 247.179L898.749 242.711L898.913 239.117C898.949 237.669 899.02 234.76 899.014 234.703C899.008 234.647 899.183 232.331 899.272 231.18L899.514 226.595V221.29V217.869L899.561 214.837V211.408V208.377V204.955V202.463V198.628L899.678 195.745V192.331V187.949L899.608 183.535L899.499 179.16V174.77L899.452 169.387L899.249 164.88L899.163 157.427L898.756 153.654L898.53 148.771L898.428 144.975L897.796 138.444L897.069 131.093C896.889 129.325 896.522 125.779 896.491 125.742C896.46 125.704 896.113 122.455 895.944 120.836L895.014 114.836L894.483 111.094L893.319 105.071L892.015 100.712L890.882 96.4075L889.624 92.564L887.273 86.3222L885.07 81.9241L883.664 79.4008L881.523 75.612L879.992 72.9481L877.07 68.7843C876.703 68.2557 875.973 67.1875 875.992 67.1438C876.011 67.1 873.37 64.0632 872.047 62.5503C870.664 61.1572 867.888 58.3584 867.844 58.3084C867.801 58.2584 866.649 57.397 866.079 56.9725L863.391 54.5977L861.501 53.3165C860.1 52.6942 857.273 51.4385 857.173 51.3948C857.073 51.351 855.658 51.0953 854.962 50.9729C854.098 50.7907 852.353 50.4245 852.291 50.4183C852.228 50.412 850.228 50.0821 849.236 49.918L844.604 49.9958L843.135 50.2483L845.592 52.6221L850.115 57.0057L855.494 63.4006L860.445 69.667L866.034 78.7351L871.558 89.4443L873.864 94.786L875.571 100.153L877.069 105.704L878.463 111.293L879.857 117.625L880.925 123.383L882.202 130.966L882.971 136.295L883.674 141.545L884.3 147.434L884.86 153.375L885.381 159.173L885.657 164.531L886.297 178.482L886.471 191.008V202.024L886.122 208.418L885.279 223.968L884.437 235.1L883.012 248.237L881.763 257.857L880.135 267.856L876.793 286.137L874.874 293.81L872.956 301.425H874.06L873.595 303.518L869.265 312.47L867.347 316.83L857.959 331.275L851.708 338.803Z" fill="transparent" stroke="#3265B1" stroke-width="0.1"/>
<g id="hatch">
<path d="M419.009 247.307L419.536 255.897L420.963 266.734L421.695 270.603L423.02 274.263L425.703 276.563L428.527 277.818L432.675 278.236L443.689 277.818L459.235 277.121L483.381 276.434L499.855 275.944L510.154 275.526L522.432 275.145L538.489 274.563L555.708 274.018L571.02 273.474L578.485 273.237L590.782 272.947L599.427 272.711L604.386 272.547L610.634 271.948L613.795 270.658L616.156 269.078L617.954 266.989L619.425 263.647L620.116 260.468L620.915 252.204L621.551 243.958L622.313 233.151L622.568 227.138L622.913 221.054L623.076 214.969C623.185 213.098 623.403 209.338 623.403 209.266V203.435V193.191L623.167 187.106L622.858 176.771L622.368 168.525L622.095 161.223L621.641 157.391L621.224 151.487L620.842 146.075L620.533 142.86L619.68 137.592L618.917 135.177L618.208 133.596L617.119 131.98L615.938 130.745L614.212 129.491L612.178 128.456L609.999 127.802L607.655 127.475L597.865 127.221L587.639 127.076L577.668 126.531L569.803 126.295L558.214 125.986L544.229 125.496L530.442 125.169L518.999 124.587L505.086 124.224L490.955 123.716L478.586 123.189L472.682 122.989L458.878 122.589L443.712 121.897L436.81 121.625L430.253 121.897L426.783 122.697L424.604 124.057C424.016 124.633 422.842 125.764 422.842 125.677C422.842 125.59 421.57 131.694 420.935 134.758L420.19 143.167L418.991 151.975L418.682 158.188L418.01 167.889L417.738 175.027L417.375 179.347L417.048 186.778V191.902L416.74 197.629L417.105 216.716L417.956 232.761L419.009 247.307Z" fill="transparent" stroke="transparent" stroke-width="0.1"/>
<path d="M494.245 248.989V254.551L494.527 262.545L493.787 265.151L492.731 267.405L490.195 269.412L486.991 270.961L476.497 271.384L470.933 271.701L460.545 272.123H454.488L438.923 272.687L435.155 273.039H431.951L429.415 272.44L427.795 271.419L426.633 268.849L424.837 253.671L423.816 242.015L423.112 231.239L422.337 211.273L422.02 199.793L422.337 186.905L422.971 170.706L423.992 154.895L424.451 148.803L425.366 141.443L426.071 134.928L426.634 131.334L427.62 128.202L430.12 127.285H441.53L468.292 128.202L481.006 128.625L485.654 128.871L489.069 129.75L491.604 131.334L493.401 133.623L494.245 136.303V140.705V156.126V171.55V186.976V202.399V213.879V225.114V240.642V248.989Z" fill="transparent"/>
<path d="M516.907 132.131L515.163 135.191L514.738 137.631V147.562V159.071V179.396V199.722V220.048V234.806V246.129V259.123V263.253L515.619 266.13L518.032 268.636L522.116 269.657H528.984L541.096 269.286L572.281 268.079L590.101 267.429H604.812L609.546 266.826L612.516 265.295L613.908 263.299L615.022 260.004L616.321 244.783L617.713 221.441L618.224 199.908L617.713 177.772L615.811 149.743C615.733 147.407 615.514 142.587 615.254 141.993C614.994 141.399 614.619 139.765 614.465 139.023L613.49 135.821L611.216 133.686L607.921 132.573H603.374L577.386 131.737L546.684 130.937L536.799 130.325C534.993 130.396 531.339 130.533 531.168 130.509C530.997 130.484 526.812 130.192 524.741 130.05H520.243L516.907 132.131Z" fill="transparent"/>
<path d="M494.245 248.989V254.551L494.527 262.545L493.787 265.151L492.731 267.405L490.195 269.412L486.991 270.961L476.497 271.384L470.933 271.701L460.545 272.123H454.488L438.923 272.687L435.155 273.039H431.951L429.415 272.44L427.795 271.419L426.633 268.849L424.837 253.671L423.816 242.015L423.112 231.239L422.337 211.273L422.02 199.793L422.337 186.905L422.971 170.706L423.992 154.895L424.451 148.803L425.366 141.443L426.071 134.928L426.634 131.334L427.62 128.202L430.12 127.285H441.53L468.292 128.202L481.006 128.625L485.654 128.871L489.069 129.75L491.604 131.334L493.401 133.623L494.245 136.303V140.705V156.126V171.55V186.976V202.399V213.879V225.114V240.642V248.989Z" stroke="transparent" stroke-width="0.1"/>
<path d="M516.907 132.131L515.163 135.191L514.738 137.631V147.562V159.071V179.396V199.722V220.048V234.806V246.129V259.123V263.253L515.619 266.13L518.032 268.636L522.116 269.657H528.984L541.096 269.286L572.281 268.079L590.101 267.429H604.812L609.546 266.826L612.516 265.295L613.908 263.299L615.022 260.004L616.321 244.783L617.713 221.441L618.224 199.908L617.713 177.772L615.811 149.743C615.733 147.407 615.514 142.587 615.254 141.993C614.994 141.399 614.619 139.765 614.465 139.023L613.49 135.821L611.216 133.686L607.921 132.573H603.374L577.386 131.737L546.684 130.937L536.799 130.325C534.993 130.396 531.339 130.533 531.168 130.509C530.997 130.484 526.812 130.192 524.741 130.05H520.243L516.907 132.131Z" stroke="transparent" stroke-width="0.1"/>
</g>
<mask id="path-5-inside-1_25_169" fill="white">
<path d="M279.141 31.9677L280.633 41.7375L281.658 42.0683C281.906 43.3188 282.402 45.8613 282.402 46.028C282.402 46.1948 282.759 47.0103 282.938 47.3973L288.394 48.8921L298.633 51.711L308.332 54.1148L315.794 56.2289L324.212 58.2168L335.801 61.2108L333.035 70.9502L324.764 69.2195L311.566 65.7879L304.82 64.4681L291.182 61.0366L283.116 59.0129L277.133 57.5171L275.342 57.271L272.385 58.3891L267.164 61.6736L263.322 65.0978L260.016 68.3357L255.658 73.9496C255.076 74.8737 253.903 76.7686 253.866 76.9549C253.82 77.1879 251.604 80.6586 251.557 80.7751C251.52 80.8683 249.43 84.8981 248.389 86.9014L246.455 91.3974L244.712 94.7051L242.312 101.111L240.842 104.815L238.772 111.22L237.277 115.67L236.301 118.954L235.485 122.332L234.228 127.154L233.134 130.974L232.086 136.378L229.848 147.606L229.406 151.356L228.124 160.907C227.961 161.908 227.621 163.949 227.565 164.098C227.509 164.247 227.139 168.71 226.962 170.924L226.518 178.75L226.096 184.341L225.84 189.489V196.663V202.37L226.005 211.851L226.517 221.867L226.983 228.53L227.892 236.823L228.917 243.858L231.06 256.832L233.366 267.92L236.86 280.942L240.191 291.68L245.083 304.073L249.905 314.788L254.261 322.429L258.104 328.019L260.597 331.047L264.65 334.728L268.796 337.966L272.151 339.899L275.388 341.344L280.281 339.899L288.388 337.966L297.274 336.211L304.809 334.184L312.448 332.365L324.4 329.611L333.028 327.54L335.798 334.923L331.969 335.85L327.802 336.963L322.11 338.331L315.24 340.08L308.148 341.893L300.515 343.865L292.533 345.995L285.854 347.745L282.833 348.683L282.021 351.135L280.641 354.583L279.137 365.052L279.528 368.915L264.701 368.598H259.724L249.971 368.738L241.062 369.369L227.843 369.693L214.137 370.18C212.453 370.138 209.058 370.079 208.943 370.18C208.827 370.281 198.64 370.523 193.56 370.631L172.317 371.136L159.283 370.929L144.596 371.136H132.179L122.563 370.145L115.403 369.023L106.157 366.156L97.7786 362.421L92.3979 359.794L84.0369 355.448L80.1185 353.137L71.5329 348.19L63.0405 342.822L54.5988 336.973L48.2045 332.303L42.1996 327.371L36.4415 322.178L31.7493 316.787L26.9693 310.481L24.1555 305.854L20.4663 299.395L16.9986 292.433L13.3514 284.752L9.97017 276.045L7.35305 267.839L5.23633 257.627L3.40371 246.432L1.82798 234.735L1.02296 223.452L0.193359 206.431V189.3L0.824741 178.825L1.10843 171.493L2.50507 160.211L3.2034 153.315L4.44728 145.852L5.69116 137.995L6.97869 132.125L9.13912 123.636L10.7322 119.926L13.4382 113.38L16.2751 106.746L19.6139 99.8279L24.895 90.7934L31.8782 80.4495L34.1477 78.3982L43.4878 69.1454L54.3336 60.8311L66.4669 52.7349L72.7081 48.7632L83.1175 42.9366L91.8246 38.2229L103.281 32.8983L109.152 30.5196L116.397 28.3592L122.551 27.3117L133.702 26.3733L140.227 26.7007L156.157 26.8971H173.157H193.365L213.42 27.6827L227.037 27.8572L246.284 28.6647L255.406 29.123L277.098 28.8393L279.531 28.3483L279.141 31.9677Z"/>
</mask>
<g id="front">
<path d="M279.141 31.9677L280.633 41.7375L281.658 42.0683C281.906 43.3188 282.402 45.8613 282.402 46.028C282.402 46.1948 282.759 47.0103 282.938 47.3973L288.394 48.8921L298.633 51.711L308.332 54.1148L315.794 56.2289L324.212 58.2168L335.801 61.2108L333.035 70.9502L324.764 69.2195L311.566 65.7879L304.82 64.4681L291.182 61.0366L283.116 59.0129L277.133 57.5171L275.342 57.271L272.385 58.3891L267.164 61.6736L263.322 65.0978L260.016 68.3357L255.658 73.9496C255.076 74.8737 253.903 76.7686 253.866 76.9549C253.82 77.1879 251.604 80.6586 251.557 80.7751C251.52 80.8683 249.43 84.8981 248.389 86.9014L246.455 91.3974L244.712 94.7051L242.312 101.111L240.842 104.815L238.772 111.22L237.277 115.67L236.301 118.954L235.485 122.332L234.228 127.154L233.134 130.974L232.086 136.378L229.848 147.606L229.406 151.356L228.124 160.907C227.961 161.908 227.621 163.949 227.565 164.098C227.509 164.247 227.139 168.71 226.962 170.924L226.518 178.75L226.096 184.341L225.84 189.489V196.663V202.37L226.005 211.851L226.517 221.867L226.983 228.53L227.892 236.823L228.917 243.858L231.06 256.832L233.366 267.92L236.86 280.942L240.191 291.68L245.083 304.073L249.905 314.788L254.261 322.429L258.104 328.019L260.597 331.047L264.65 334.728L268.796 337.966L272.151 339.899L275.388 341.344L280.281 339.899L288.388 337.966L297.274 336.211L304.809 334.184L312.448 332.365L324.4 329.611L333.028 327.54L335.798 334.923L331.969 335.85L327.802 336.963L322.11 338.331L315.24 340.08L308.148 341.893L300.515 343.865L292.533 345.995L285.854 347.745L282.833 348.683L282.021 351.135L280.641 354.583L279.137 365.052L279.528 368.915L264.701 368.598H259.724L249.971 368.738L241.062 369.369L227.843 369.693L214.137 370.18C212.453 370.138 209.058 370.079 208.943 370.18C208.827 370.281 198.64 370.523 193.56 370.631L172.317 371.136L159.283 370.929L144.596 371.136H132.179L122.563 370.145L115.403 369.023L106.157 366.156L97.7786 362.421L92.3979 359.794L84.0369 355.448L80.1185 353.137L71.5329 348.19L63.0405 342.822L54.5988 336.973L48.2045 332.303L42.1996 327.371L36.4415 322.178L31.7493 316.787L26.9693 310.481L24.1555 305.854L20.4663 299.395L16.9986 292.433L13.3514 284.752L9.97017 276.045L7.35305 267.839L5.23633 257.627L3.40371 246.432L1.82798 234.735L1.02296 223.452L0.193359 206.431V189.3L0.824741 178.825L1.10843 171.493L2.50507 160.211L3.2034 153.315L4.44728 145.852L5.69116 137.995L6.97869 132.125L9.13912 123.636L10.7322 119.926L13.4382 113.38L16.2751 106.746L19.6139 99.8279L24.895 90.7934L31.8782 80.4495L34.1477 78.3982L43.4878 69.1454L54.3336 60.8311L66.4669 52.7349L72.7081 48.7632L83.1175 42.9366L91.8246 38.2229L103.281 32.8983L109.152 30.5196L116.397 28.3592L122.551 27.3117L133.702 26.3733L140.227 26.7007L156.157 26.8971H173.157H193.365L213.42 27.6827L227.037 27.8572L246.284 28.6647L255.406 29.123L277.098 28.8393L279.531 28.3483L279.141 31.9677Z" fill="transparent" stroke="#9EC4FE" stroke-width="0.2" mask="url(#path-5-inside-1_25_169)"/>
<path d="M31.9951 102.328L29.8466 106.623L30.4713 107.1L37.3913 100.388L41.4236 96.2257L49.124 88.8635L55.1855 82.8281L62.7819 75.2577L66.2419 71.9798C68.5485 69.6471 73.1931 64.9766 73.3179 64.9558C73.4428 64.935 76.1275 62.3456 77.4543 61.0535L83.0995 55.3042L86.0392 52.0524L86.1953 48.3583V45.6791L83.0995 46.5632L78.8331 48.6185L72.0692 53.1973L64.2127 58.6085L56.122 66.699L50.5028 73.0987L45.1093 79.9264L39.8861 87.9933L35.4173 95.3058L31.9951 102.328Z" fill="transparent"/>
<path d="M33.6451 294.408L29.7949 290.948L32.7337 297.842L34.9449 302.654L39.3415 309.808L43.6079 316.156L49.1751 323.909L53.7798 329.476L56.1211 331.505L59.373 335.095L62.5468 337.957L67.8278 342.327L72.4845 345.553L76.9331 348.545L82.4482 351.432L86.0643 352.395V346.073L83.723 343.758L77.1932 337.072L68.6083 328.903L56.6934 316.884L50.2938 310.823C46.669 307.32 39.4039 300.282 39.3415 300.157C39.279 300.032 35.5179 296.272 33.6451 294.408Z" fill="transparent"/>
</g>
<path d="M31.9951 102.328L29.8466 106.623L30.4713 107.1L37.3913 100.388L41.4236 96.2257L49.124 88.8635L55.1855 82.8281L62.7819 75.2577L66.2419 71.9798C68.5485 69.6471 73.1931 64.9766 73.3179 64.9558C73.4428 64.935 76.1275 62.3456 77.4543 61.0535L83.0995 55.3042L86.0392 52.0524L86.1953 48.3583V45.6791L83.0995 46.5632L78.8331 48.6185L72.0692 53.1973L64.2127 58.6085L56.122 66.699L50.5028 73.0987L45.1093 79.9264L39.8861 87.9933L35.4173 95.3058L31.9951 102.328Z" stroke="#9EC4FE" stroke-width="0.1"/>
<path d="M33.6451 294.408L29.7949 290.948L32.7337 297.842L34.9449 302.654L39.3415 309.808L43.6079 316.156L49.1751 323.909L53.7798 329.476L56.1211 331.505L59.373 335.095L62.5468 337.957L67.8278 342.327L72.4845 345.553L76.9331 348.545L82.4482 351.432L86.0643 352.395V346.073L83.723 343.758L77.1932 337.072L68.6083 328.903L56.6934 316.884L50.2938 310.823C46.669 307.32 39.4039 300.282 39.3415 300.157C39.279 300.032 35.5179 296.272 33.6451 294.408Z" stroke="#9EC4FE" stroke-width="0.1"/>
<g id="doors">
<path d="M687.283 347.57L683.776 363.704L678.903 371.825L640.345 371.344L581.044 370.981L534.425 370.498L483.519 369.955L404.773 369.411L344.507 368.988L280.073 368.549L279.689 364.722L281.177 354.287L281.855 353.881L324.271 354.414L347.531 355.037H347.532L422.694 355.615L509.331 355.348H509.332L551.005 354.191H551.006L586.985 352.591H586.986L625.323 350.768L651.454 349.484H651.455L686.382 347.221L687.283 347.57Z" fill="transparent" stroke="#3265B1" stroke-width="0.1"/>
<path d="M544.412 312.427L558.773 312.609H558.774L571.225 313.201H571.226L588.068 314.498H588.069L593.805 315.112L593.806 315.113L609.965 317.024H609.966L625.807 319.164H625.809V319.165L635.641 321.008L635.643 321.009L644.996 322.988L656.467 325.378L656.47 325.379L669.738 328.952L669.745 328.954L677.802 332.254L677.808 332.257L682.519 334.942L682.53 334.949L682.494 334.986L682.529 334.951L686.763 339.184L686.771 339.192L686.774 339.202L687.98 342.571L687.984 342.581L687.983 342.592L687.71 345.71L687.709 345.72L687.705 345.728L686.954 347.253L686.941 347.279L686.912 347.28L683.521 347.462L683.521 347.463L678.173 347.781H678.172L671.48 348.101L671.479 348.1L665.61 348.532H665.609L646.56 349.624L639.368 350.171H639.367L625.598 350.831H625.596L618.996 351.013L618.997 351.014L604.932 351.764L604.933 351.765L591.367 352.652H591.366L577.643 353.038L569.313 353.562H569.312L547.6 354.495H547.599L523.178 355.247L502.99 355.725H502.989L475.473 355.906H475.472L440.991 355.793L393.992 355.429L369.366 355.292L344.239 354.928L324.318 354.542L324.94 357.704L325.446 358.644H329.939L329.951 358.677L332.194 364.958L343.6 395.136L343.625 395.203H339.921L333.639 394.643L333.628 394.642L333.644 394.593L333.628 394.64L329.889 393.443L329.879 393.44L329.904 393.396L329.879 393.439L325.691 391.083L325.684 391.079L325.678 391.072L323.322 388.343L323.314 388.335L323.316 388.334L320.96 383.996L320.959 383.994L317.22 376.366V376.365L313.817 369.897L313.815 369.895L310.34 361.822L306.453 355.879L305.345 354.181L281.72 353.653L281.656 353.652L281.672 353.591L282.574 350.062L282.576 350.057L283.353 348.12L283.362 348.097L283.387 348.091L299.179 343.96L317.938 339.012H317.939L332.054 335.483L351.417 330.922L372.07 326.146L372.072 326.145L389.8 322.659H389.802L412.435 318.872H412.438L429.82 316.807H429.822L445.055 315.474L457.104 314.569L471.088 313.665H471.09L485.72 313.149L506.46 312.547H519.627L534.729 312.203H534.732L544.412 312.427ZM495.679 314.598L481.362 315.164L463.58 316.07H463.579L440.677 317.724H440.676L421.354 319.718H421.352L403.185 322.164H403.182L383.928 325.766L383.927 325.767L368.364 328.983H368.363L346.345 334.012L331.725 337.575L331.687 337.584V348.336L331.735 348.338L343.831 348.659H364.47L379.382 349.197H394.243L417.009 349.333L441.405 349.65H477.362L477.377 349.623L482.903 339.09H482.904L488.046 329.259L495.725 314.671L495.766 314.595L495.679 314.598ZM511.471 314.328L511.463 314.368L510.47 319.391L506.42 335.642L503.167 349.182L503.152 349.241L503.214 349.243L510.733 349.405H510.736L532.085 348.7L547.161 348.104L569.123 347.345H569.124L588.141 346.387L588.14 346.386L616.43 345.121L616.466 345.12L616.476 345.084L617 343.133L618.663 337.312L620.308 331.564V331.563L623.254 320.935L623.27 320.881L623.214 320.872L610.939 319.01H610.938L593.188 316.841H593.186L574.585 315.214H574.583L556.813 314.509H556.812L535.481 314.328H511.471ZM628.048 324.265L625.97 332.121L622.457 344.399L622.438 344.465L622.507 344.463L631.876 344.123H631.877L654.771 342.838L678.118 341.327L678.165 341.324V340.766L678.149 340.751C677.294 339.908 675.504 338.151 675.201 337.878C675.159 337.84 675.065 337.779 674.936 337.701C674.804 337.622 674.631 337.523 674.427 337.41C674.019 337.184 673.485 336.898 672.905 336.593C671.747 335.983 670.405 335.295 669.523 334.848H669.524L669.518 334.846L659.998 331.503L659.994 331.502L648.245 328.347L648.242 328.346L636.796 325.853H636.794L628.105 324.228L628.06 324.22L628.048 324.265Z" fill="transparent"/>
<path d="M687.282 47.6562L683.776 32.5986L678.904 25.0166L640.345 25.4668H640.344L581.044 25.8047L534.425 26.2559L483.519 26.7627L404.773 27.2705L344.507 27.665L280.073 28.0762L279.689 31.6455L281.177 41.3838L281.856 41.7646L324.271 41.2666L347.531 40.6846H347.532L422.694 40.1445L509.331 40.3945H509.332L551.005 41.4736H551.006L586.985 42.9688L625.323 44.6709L651.454 45.8682H651.455L686.383 47.9824L687.282 47.6562Z" fill="transparent" stroke="#3265B1" stroke-width="0.1"/>
<path d="M544.412 82.7764L558.773 82.5938H558.774L571.225 82.002H571.226L588.068 80.7051H588.069L593.805 80.0908L593.806 80.0898L609.965 78.1787H609.966L625.807 76.0391H625.809V76.0381L635.641 74.1953L635.643 74.1943L644.996 72.2148L656.467 69.8252L656.47 69.8242L669.738 66.251L669.745 66.249L677.802 62.9492L677.808 62.9463L682.519 60.2607L682.53 60.2539L682.494 60.2168L682.529 60.252L686.763 56.0195L686.771 56.0107L686.774 56.001L687.98 52.6318L687.984 52.6221L687.983 52.6113L687.71 49.4932L687.709 49.4834L687.705 49.4756L686.954 47.9502L686.941 47.9238L686.912 47.9229L683.521 47.7412L683.521 47.7402L678.173 47.4219H678.172L671.48 47.1025L671.479 47.1035L665.61 46.6709H665.609L646.56 45.5791L639.368 45.0322H639.367L625.598 44.3721H625.596L618.996 44.1904L618.997 44.1895L604.932 43.4395L604.933 43.4385L591.367 42.5508H591.366L577.643 42.165L569.313 41.6406H569.312L547.6 40.708H547.599L523.178 39.9561L502.99 39.4785H502.989L475.473 39.2969H475.472L440.991 39.4102L393.992 39.7744L369.366 39.9111L344.239 40.2754L324.318 40.6611L324.94 37.499L325.446 36.5596H329.939L329.951 36.5264L332.194 30.2451L343.6 0.0673828L343.625 0H339.921L333.639 0.560547L333.628 0.561523L333.644 0.610352L333.628 0.563477L329.889 1.75977L329.879 1.7627L329.904 1.80762L329.879 1.76367L325.691 4.12012L325.684 4.12402L325.678 4.13086L323.322 6.86035L323.314 6.86816L323.316 6.86914L320.96 11.207L320.959 11.209L317.22 18.8369V18.8379L313.817 25.3057L313.815 25.3086L310.34 33.3809L306.453 39.3242L305.345 41.0225L281.72 41.5498L281.656 41.5508L281.672 41.6123L282.574 45.1406L282.576 45.1465L283.353 47.083L283.362 47.1064L283.387 47.1123L299.179 51.2432L317.938 56.1914H317.939L332.054 59.7197L351.417 64.2812L372.07 69.0576L372.072 69.0586L389.8 72.5439H389.802L412.435 76.3311H412.438L429.82 78.3965H429.822L445.055 79.7295L457.104 80.6338L471.088 81.5381H471.09L485.72 82.0537L506.46 82.6562H519.627L534.729 83H534.732L544.412 82.7764ZM495.679 80.6055L481.362 80.0391L463.58 79.1328H463.579L440.677 77.4795H440.676L421.354 75.4854H421.352L403.185 73.0391H403.182L383.928 69.4375L383.927 69.4365L368.364 66.2197H368.363L346.345 61.1914L331.725 57.6279L331.687 57.6191V46.8672L331.735 46.8652L343.831 46.5439H364.47L379.382 46.0059H394.243L417.009 45.8701L441.405 45.5527H477.362L477.377 45.5801L482.903 56.1133H482.904L488.046 65.9443L495.725 80.5322L495.766 80.6084L495.679 80.6055ZM511.471 80.875L511.463 80.835L510.47 75.8125L506.42 59.5615L503.167 46.0215L503.152 45.9619L503.214 45.96L510.733 45.7979H510.736L532.085 46.5029L547.161 47.0996L569.123 47.8584H569.124L588.141 48.8164L588.14 48.8174L616.43 50.082L616.466 50.083L616.476 50.1191L617 52.0703L618.663 57.8906L620.308 63.6387V63.6396L623.254 74.2686L623.27 74.3223L623.214 74.3311L610.939 76.1934H610.938L593.188 78.3623H593.186L574.585 79.9893H574.583L556.813 80.6943H556.812L535.481 80.875H511.471ZM628.048 70.9385L625.97 63.082L622.457 50.8037L622.438 50.7383L622.507 50.7402L631.876 51.0801H631.877L654.771 52.3652L678.118 53.876L678.165 53.8789V54.4375L678.149 54.4521C677.294 55.2952 675.504 57.0522 675.201 57.3252C675.159 57.363 675.065 57.4241 674.936 57.502C674.804 57.5809 674.631 57.6797 674.427 57.793C674.019 58.0194 673.485 58.3055 672.905 58.6104C671.747 59.2203 670.405 59.9084 669.523 60.3555H669.524L669.518 60.3574L659.998 63.7002L659.994 63.7012L648.245 66.8564L648.242 66.8574L636.796 69.3506H636.794L628.105 70.9756L628.06 70.9834L628.048 70.9385Z" fill="transparent"/>
</g>
<g id="lights">
<path d="M829.708 46.936L821.884 45.3828L825.217 47.7718L829.407 50.3806L832.806 52.9103L837.411 56.1911L839.822 58.9383L844.467 64.235L847.49 67.496C848.927 69.1562 851.819 72.4804 851.898 72.4962C851.977 72.5121 854.25 75.6914 855.376 77.2791L859.037 81.2911L860.025 83.4367L862.987 90.6327L866.062 96.5567L871.721 96.6706H874.341L872.955 92.9302L870.866 88.4113L865.74 78.3482L859.037 67.9244L855.923 64.127L851.234 58.26L845.466 52.6871L842.303 49.754L837.184 48.6613L829.708 46.936Z" fill="transparent"/>
<path d="M869.574 301.648H865.547L864.253 304.536L860.342 313.595L857.95 318.297L851.647 325.58L846.487 331.653L840.35 339.121L833.823 344.739L826.646 349.48L820.541 353.506L826.646 351.948L834.666 350.064L841.843 348.636L844.083 346.785L848.694 342.206L855.026 335.127L861.781 325.58C862.506 324.357 863.976 321.879 864.054 321.749C864.132 321.619 865.71 319.118 866.489 317.884L869.379 312.462L871.685 307.688L873.438 303.499L874.12 301.648H869.574Z" fill="transparent"/>
</g>
<path d="M829.708 46.936L821.884 45.3828L825.217 47.7718L829.407 50.3806L832.806 52.9103L837.411 56.1911L839.822 58.9383L844.467 64.235L847.49 67.496C848.927 69.1562 851.819 72.4804 851.898 72.4962C851.977 72.5121 854.25 75.6914 855.376 77.2791L859.037 81.2911L860.025 83.4367L862.987 90.6327L866.062 96.5567L871.721 96.6706H874.341L872.955 92.9302L870.866 88.4113L865.74 78.3482L859.037 67.9244L855.923 64.127L851.234 58.26L845.466 52.6871L842.303 49.754L837.184 48.6613L829.708 46.936Z" stroke="#3265B1" stroke-width="0.1"/>
<path d="M869.574 301.648H865.547L864.253 304.536L860.342 313.595L857.95 318.297L851.647 325.58L846.487 331.653L840.35 339.121L833.823 344.739L826.646 349.48L820.541 353.506L826.646 351.948L834.666 350.064L841.843 348.636L844.083 346.785L848.694 342.206L855.026 335.127L861.781 325.58C862.506 324.357 863.976 321.879 864.054 321.749C864.132 321.619 865.71 319.118 866.489 317.884L869.379 312.462L871.685 307.688L873.438 303.499L874.12 301.648H869.574Z" stroke="#3265B1" stroke-width="0.1"/>
<path id="trunk" d="M782.834 84.9639L778.44 84.8633L780.573 88.995L784.16 94.9446L788.803 105.565L792.639 116.658L795.753 126.639L799.701 142.764L801.369 152.3L803.649 172.54L804.622 189.999V209.933L803.593 225.808L802.453 236.845L799.701 253.248L797.06 266.176L793.084 279.66L789.581 289.613L782.631 304.265L777.654 312.439L790.888 310.798L812.275 308.233L817.52 307.539L826.167 306.439L833.697 305.508L845.034 304.205L855.559 302.919L864.985 301.735L872.684 301.566L873.716 297.403L875.476 290.008L877.1 282.529L878.725 273.832L880.992 260.481L882.278 250.836L883.479 240.548L884.512 229.769L885.459 217.264L885.974 203.235L886.164 191.635L886.022 177.952L885.738 171.608L885.122 160.222L884.601 154.256L883.773 145.426L883.157 140.455L882.447 135.223L881.88 130.862L881.314 127.831L880.082 121.129L879.515 118.048L878.504 113.17L877.888 110.41L877.149 107.157L876.164 103.806C875.934 102.919 875.469 101.12 875.449 101.021C875.429 100.923 874.915 99.2884 874.66 98.4834L874.094 96.7399H865.348L864.625 95.6365L862.699 95.3557L857.383 94.4328L841.555 91.9051L827.05 89.8588L821.754 89.1566L808.814 87.5517L804.36 86.8094L795.232 85.8665L788.371 85.4452L782.834 84.9639Z" fill="transparent" stroke="#3265B1" stroke-width="0.1"/>
<path d="M35.9023 141.505L35.9848 141.742C35.9881 141.742 37.1476 141.337 39.3737 140.616C54.9551 135.556 122.556 114.902 206.429 108.496L206.413 107.993C206.413 107.993 206.233 107.993 205.887 107.993C198.279 107.995 109.731 108.697 35.8008 141.275L35.9848 141.742L35.9023 141.505L36.0038 141.734C109.803 109.211 198.313 108.494 205.887 108.496C206.231 108.496 206.409 108.496 206.409 108.496L206.411 108.244L206.391 107.995C110.467 115.323 35.8324 141.263 35.8197 141.267L35.9023 141.505Z" fill="#3265B1"/>
<path d="M35.9023 254.773L35.8197 255.011C35.8324 255.015 110.467 280.957 206.391 288.283L206.411 288.031L206.409 287.78C206.409 287.78 206.231 287.782 205.887 287.782C198.313 287.784 109.803 287.067 36.0038 254.544L35.9023 254.773L35.8008 255.005C109.731 287.578 198.279 288.283 205.887 288.285C206.233 288.285 206.413 288.283 206.413 288.283L206.429 287.782C158.502 284.121 115.888 275.81 85.2566 268.413C69.9415 264.713 57.6218 261.244 49.1321 258.7C44.8865 257.427 41.5992 256.386 39.3737 255.663C37.1476 254.94 35.9881 254.538 35.9848 254.536L35.8008 255.005L35.9023 254.773Z" fill="#3265B1"/>
<path d="M874.322 96.7164V96.4646H872.185L872.298 96.7969C874.739 103.962 884.375 135.766 884.375 191.36C884.375 223.197 880.996 250.77 877.617 270.382C875.927 280.19 874.237 288.005 872.971 293.368C872.338 296.051 871.809 298.119 871.44 299.516C871.072 300.914 870.862 301.637 870.86 301.639L870.768 301.961H872.886H873.075L873.128 301.78C873.132 301.766 886.667 255.104 886.667 191.36C886.667 135.708 877.018 103.847 874.56 96.6358L874.501 96.4646H874.322V96.7164L874.084 96.7969C876.525 103.962 886.163 135.766 886.163 191.36C886.163 223.197 882.782 250.77 879.403 270.382C877.713 280.19 876.022 288.005 874.755 293.368C874.121 296.051 873.593 298.119 873.224 299.516C872.854 300.914 872.645 301.637 872.645 301.639L872.886 301.709V301.457H871.102V301.709L871.344 301.78C871.348 301.766 884.878 255.104 884.878 191.36C884.878 135.708 875.23 103.847 872.775 96.6358L872.536 96.7164V96.9681H874.322V96.7164Z" fill="#3265B1"/>
<path d="M894.315 286.738L894.563 286.778C899.458 256.804 899.754 231.502 899.754 208.394C899.754 205.224 899.748 202.097 899.748 199.001C899.748 195.894 899.754 192.748 899.754 189.565C899.754 166.408 899.456 141.052 894.529 110.995C894.482 110.732 894.432 110.484 894.39 110.232L894.36 110.057L877.043 106.95L877.137 107.328C880.875 122.055 886.163 150.172 886.163 191.359C886.163 235.87 879.56 272.025 875.583 289.764L875.5 290.129L894.535 286.955L894.563 286.778L894.315 286.738L894.273 286.488L875.788 289.571L875.828 289.819L876.074 289.873C880.057 272.107 886.667 235.921 886.667 191.359C886.667 150.128 881.374 121.969 877.627 107.205L877.383 107.268L877.339 107.515L894.098 110.522L894.142 110.274L893.894 110.317C893.939 110.578 893.989 110.826 894.031 111.078C898.953 141.092 899.251 166.412 899.251 189.565C899.251 192.748 899.245 195.892 899.245 199.001C899.245 202.097 899.251 205.224 899.251 208.394C899.251 231.498 898.955 256.764 894.065 286.697L894.315 286.738Z" fill="#3265B1"/>
<path d="M281.72 42.0533L281.716 41.8016C259.382 42.1923 207.263 49.3514 148.859 63.4039C90.4365 77.4644 29.7025 108.016 29.6938 108.02L29.6624 108.036L8.20571 127.671L8.18678 127.742C8.18517 127.746 7.72904 129.465 7.03749 132.641L7.28298 132.696H7.53471V132.693H7.28298L7.48275 132.847C8.36843 131.687 9.28572 130.589 10.111 129.792C10.9282 128.988 11.6858 128.511 12.0972 128.527L12.2632 128.553C12.5542 128.646 12.7974 128.962 12.9618 129.552C13.1239 130.134 13.1938 130.948 13.1938 131.904C13.1938 133.219 13.0641 134.812 12.8917 136.5L12.6794 138.586L13.3794 136.608C13.5431 136.147 13.7028 135.668 13.846 135.158C15.1031 130.676 19.1361 125.273 22.8571 121.019C24.7174 118.891 26.4985 117.044 27.8137 115.733C29.1289 114.42 29.9745 113.645 29.977 113.643L29.807 113.457L29.9093 113.687C29.9125 113.685 31.0239 113.192 33.0786 112.298C47.461 106.039 107.895 80.2978 153.931 69.1312C180.241 62.7494 212.573 57.4107 238.324 53.6691C251.198 51.7982 262.429 50.3262 270.44 49.3213C274.446 48.8178 277.648 48.4331 279.847 48.1733C282.046 47.9136 283.24 47.7806 283.242 47.7806L283.536 47.7464L281.911 41.7976L281.716 41.8016L281.72 42.0533L281.478 42.1198L282.972 47.5954L283.216 47.5309L283.188 47.2792C283.182 47.2812 206.489 55.8662 153.812 68.6439C101.125 81.4236 29.7119 113.224 29.7049 113.228L29.667 113.244L29.6364 113.272C29.6269 113.292 15.9817 125.768 13.3613 135.023C13.2221 135.519 13.0663 135.986 12.9052 136.441L13.1426 136.524L13.3929 136.55C13.5659 134.856 13.6964 133.253 13.6972 131.904C13.6964 130.921 13.6287 130.078 13.4463 129.417C13.2662 128.767 12.9577 128.257 12.4229 128.076L12.0972 128.023C11.3821 128.04 10.6231 128.607 9.76079 129.429C8.90491 130.257 7.97835 131.368 7.08321 132.54L7.03125 132.609V132.696V135.032L7.52907 132.748C8.21901 129.582 8.67211 127.876 8.67292 127.87L8.42985 127.806L8.59982 127.993L29.977 108.431L29.807 108.244L29.9204 108.469C29.9228 108.467 30.8667 107.994 32.6406 107.132C45.053 101.097 97.9262 76.1776 148.977 63.8932C207.345 49.8488 259.467 42.6917 281.726 42.3051L281.72 42.0533Z" fill="#3265B1"/>
<path d="M153.868 327.392L153.929 327.148C127.623 320.766 96.6136 309.628 72.1851 300.084C59.9699 295.312 49.3997 290.94 41.8841 287.76C38.1264 286.169 35.1316 284.878 33.0767 283.984C31.022 283.09 29.9106 282.595 29.9073 282.595L29.805 282.824L29.975 282.639C29.9726 282.637 29.127 281.862 27.8118 280.548C23.8651 276.62 15.7288 267.855 13.8441 261.121L13.8425 261.115L13.8219 261.053L13.3964 259.778L13.332 261.121C13.2705 262.398 12.9362 263.518 12.3603 264.301C11.7813 265.084 10.9853 265.543 9.90766 265.546C9.18308 265.548 8.3264 265.33 7.33923 264.829L6.86719 264.589L6.97895 265.106C7.22504 266.246 7.44455 267.211 7.6264 267.982L7.64291 268.053L8.25089 268.651L8.2533 268.655L29.6604 288.243L29.6919 288.259C29.7005 288.263 90.4346 318.815 148.857 332.876C207.261 346.926 259.38 354.089 281.714 354.48L281.909 354.484L283.534 348.533L283.24 348.501C283.238 348.501 282.044 348.366 279.845 348.106C264.451 346.29 199.975 338.317 153.929 327.148L153.868 327.392L153.81 327.638C206.487 340.414 283.18 349.001 283.186 349.001L283.214 348.75L282.97 348.684L281.476 354.162L281.718 354.228L281.724 353.976C259.465 353.59 207.343 346.431 148.975 332.386C119.804 325.367 90.0357 314.221 67.5634 304.831C56.3277 300.137 46.9147 295.882 40.3124 292.799C37.0109 291.258 34.4117 290.009 32.6387 289.148C30.8647 288.286 29.9208 287.81 29.9184 287.81L29.805 288.034L29.975 287.849L8.60169 268.29L8.04789 267.745L7.87088 267.924L8.11636 267.865C7.93552 267.098 7.71682 266.138 7.47133 265L7.22505 265.054L7.11106 265.278C8.15019 265.805 9.0832 266.049 9.90766 266.049C11.1371 266.053 12.1158 265.493 12.7663 264.599C13.42 263.707 13.7686 262.495 13.8346 261.145L13.5829 261.133L13.3444 261.212L13.3634 261.268L13.6016 261.19L13.3594 261.258C15.9797 270.512 29.625 282.987 29.6345 283.009L29.6643 283.038L29.7029 283.054C29.71 283.056 101.123 314.856 153.81 327.638L153.868 327.392Z" fill="#3265B1"/>
<path d="M849.244 69.7629L849.296 69.5152C790.396 56.8382 686.982 48.5009 686.976 48.4989L686.547 48.4647L686.726 48.8553C687.328 50.1583 687.602 51.3787 687.602 52.5306C687.602 55.3076 685.999 57.7323 683.289 59.883C675.165 66.3394 657.298 69.9904 645.882 72.5057C632.123 75.5445 602.508 80.1965 576.188 82.0875L576.206 82.5889H576.218V82.3372L576.212 82.5889C577.162 82.611 578.167 82.6211 579.226 82.6211C618.681 82.6191 731.389 68.1639 751.316 67.2697C751.924 67.2435 752.596 67.2295 753.325 67.2295C774.767 67.2274 845.295 78.7465 858.189 80.8852L858.821 80.9899L858.431 80.4824C856.775 78.3417 853.191 74.0201 849.435 69.5997L849.381 69.5333L849.296 69.5152L849.244 69.7629L849.052 69.9259C852.804 74.3423 856.391 78.664 858.032 80.7906L858.231 80.6355L858.272 80.3878C845.359 78.2491 774.873 66.728 753.325 66.726C752.59 66.726 751.912 66.7401 751.291 66.7663C731.312 67.6664 618.613 82.1176 579.226 82.1176C578.171 82.1176 577.168 82.1076 576.222 82.0854H576.22H576.206V82.3372L576.224 82.5889C602.577 80.6959 632.196 76.0439 645.991 72.997C653.601 71.3155 664.089 69.1426 672.692 65.9386C676.995 64.3356 680.828 62.4768 683.603 60.2757C686.374 58.0807 688.106 55.5171 688.106 52.5306C688.106 51.2981 687.81 50.0012 687.185 48.6459L686.956 48.7506L686.936 49.0023C686.94 49.0023 688.551 49.1312 691.493 49.385C712.086 51.1531 797.706 58.9265 849.191 70.0085L849.244 69.7629Z" fill="#3265B1"/>
<path d="M858.852 316.534L859.073 316.656C859.174 316.475 859.315 316.192 859.488 315.826L859.692 315.391L859.219 315.472C849.665 317.065 775.427 329.3 753.33 329.299C752.599 329.299 751.928 329.285 751.318 329.259C731.389 328.364 618.679 313.909 579.235 313.909C578.997 313.909 578.763 313.909 578.53 313.909L578.512 314.412C604.232 316.402 632.528 320.871 645.884 323.819C653.498 325.501 663.97 327.675 672.519 330.859C676.794 332.45 680.586 334.297 683.291 336.444C686.002 338.594 687.605 341.019 687.605 343.796C687.605 344.948 687.329 346.168 686.728 347.47L686.958 347.576L686.942 347.324C686.942 347.324 686.684 347.341 686.211 347.37L684.376 347.489L686.942 348.031L686.978 348.027C686.984 348.027 792.315 339.533 850.917 326.659L851.002 326.641L851.056 326.574C853.09 324.161 854.977 321.89 856.413 320.119C857.853 318.343 858.824 317.099 859.073 316.656L858.852 316.534L858.632 316.412C858.443 316.759 857.452 318.043 856.023 319.801C854.591 321.567 852.704 323.839 850.672 326.25L850.865 326.412L850.811 326.167C821.544 332.597 780.571 337.938 746.92 341.67C730.094 343.536 715.097 345 704.309 345.997C698.914 346.497 694.57 346.88 691.578 347.135C688.583 347.392 686.942 347.525 686.938 347.525L686.958 347.777L687.01 347.532L686.279 347.377L686.227 347.622L686.243 347.874C686.716 347.844 686.974 347.826 686.974 347.826L687.123 347.818L687.188 347.68C687.812 346.323 688.108 345.028 688.108 343.796C688.108 340.81 686.376 338.246 683.605 336.049C675.288 329.465 657.415 325.857 645.993 323.327C632.601 320.371 604.303 315.903 578.552 313.911L578.532 314.16L578.534 314.412C578.763 314.412 578.999 314.412 579.235 314.412C618.613 314.41 731.313 328.861 751.294 329.76C751.914 329.788 752.593 329.802 753.33 329.802C775.538 329.798 849.727 317.56 859.301 315.967L859.261 315.719L859.031 315.613C858.862 315.971 858.723 316.249 858.632 316.412L858.852 316.534Z" fill="#3265B1"/>
<path d="M312.661 28.7598L312.659 28.5081C302.123 28.5887 293.282 28.6591 287.073 28.7075C280.867 28.7558 277.302 28.784 277.292 28.784H277.29C277.284 28.784 274.95 28.8263 271.629 28.8706C268.309 28.9129 264.007 28.9552 260.086 28.9552C256.165 28.9552 252.621 28.9129 250.833 28.784C245.403 28.3974 198.058 26.6594 165.96 26.6594C154.137 26.6594 145.7 26.4741 138.979 26.4741C127.469 26.4741 120.973 27.0179 111.189 29.954C95.6505 34.6261 51.0334 59.3438 34.3368 78.1589C26.2751 87.2533 19.9088 99.1248 15.4729 108.978L14.4785 111.184L15.9055 109.23C15.9323 109.192 23.6054 98.7664 33.6233 87.2634C43.635 75.7625 56.0192 63.1781 65.3716 58.8504L65.4014 58.8363L65.4274 58.8161C71.4548 53.7856 76.7796 50.5635 80.5941 48.598C82.5018 47.6173 84.0309 46.9487 85.0827 46.5278C86.1346 46.1049 86.7 45.9317 86.7017 45.9317L86.6277 45.6901L86.3768 45.7162C86.3776 45.7202 86.608 48.0261 86.6072 49.9372C86.6112 50.8877 86.542 51.7597 86.3933 52.1141L86.2115 52.5672L86.6876 52.4524C86.6946 52.4504 89.4983 51.7637 94.1119 50.6944C107.952 47.4864 138.024 40.8407 157.025 39.0082C177.451 37.0366 261.057 33.7642 311.03 32.4512L311.185 32.4472L311.251 32.3062C311.644 31.4765 312.21 30.2883 312.887 28.8686L313.062 28.5041L312.659 28.5081L312.661 28.7598L312.433 28.6511C311.755 30.0708 311.191 31.261 310.796 32.0907L311.024 32.1995L311.018 31.9477C261.031 33.2607 177.445 36.5332 156.976 38.5067C131.57 40.9596 86.5734 51.9611 86.5679 51.9631L86.6277 52.2068L86.8613 52.3014C87.0611 51.7859 87.1076 50.9179 87.1107 49.9372C87.1107 47.9878 86.8779 45.6699 86.8779 45.6659L86.8472 45.3598L86.5538 45.4504C86.5287 45.4585 77.2218 48.3181 65.105 58.4295L65.2663 58.6228L65.16 58.3932C55.6503 62.8075 43.2826 75.4121 33.2433 86.9331C23.2104 98.4542 15.5336 108.886 15.4989 108.932L15.7017 109.081L15.9315 109.184C20.3548 99.3584 26.707 87.5212 34.7128 78.4912C51.2616 59.8089 95.9433 35.043 111.333 30.4374C121.074 27.5153 127.478 26.9796 138.979 26.9776C145.691 26.9776 154.131 27.1629 165.96 27.1629C198.036 27.1629 245.401 28.9028 250.796 29.2875C252.617 29.4164 256.159 29.4586 260.086 29.4586C267.934 29.4586 277.298 29.2875 277.298 29.2875L277.294 29.0358L277.296 29.2875C277.306 29.2875 280.871 29.2593 287.077 29.2109C293.286 29.1626 302.127 29.0921 312.663 29.0116L312.661 28.7598Z" fill="#3265B1"/>
<path d="M856.966 51.071L857.071 50.8414C845.214 45.4041 789.968 31.5007 769.071 27.0481C760.498 25.2256 743.497 24.704 725.272 24.702C700.188 24.702 672.806 25.6989 662.115 25.6989C661.557 25.6989 661.043 25.6968 660.58 25.6908C659.746 25.6807 658.546 25.6747 657.014 25.6747C629.372 25.6747 494.184 27.2374 484.3 27.2374C477.51 27.2374 392.027 27.8919 333.058 28.349L332.885 28.351L331.52 31.9921L331.89 31.986C334.923 31.9357 337.636 31.9014 339.951 31.8873C351.597 31.8128 383.13 31.7887 420.899 31.7887C496.442 31.7887 596.945 31.8873 613.267 31.8873C637.727 31.8873 749.267 36.9863 769.474 40.2205C786.648 42.9654 822.258 50.7528 832.645 53.0466L833.86 53.3164L832.845 52.5955C827.645 48.9062 821.108 44.9067 821.106 44.9047L820.975 45.1202L820.921 45.3658L842.271 50.1104L842.326 49.8647L842.163 50.056C842.372 50.2353 842.581 50.4246 842.795 50.6139L842.886 50.6924L843.004 50.6723C844.207 50.4628 845.56 50.334 847.07 50.334C850.582 50.334 854.938 51.0368 860.178 53.0989L860.402 52.6499C859.242 51.9329 858.124 51.3267 857.071 50.8414L856.966 51.071L856.862 51.2986C857.893 51.7738 858.992 52.3699 860.138 53.0788L860.269 52.8633L860.362 52.6297C855.071 50.5474 850.651 49.8285 847.07 49.8305C845.532 49.8305 844.148 49.9614 842.918 50.1749L842.962 50.4246L843.127 50.2333C842.918 50.05 842.708 49.8607 842.491 49.6734L842.443 49.6311L819.555 44.5462L820.842 45.3336C820.846 45.3377 822.475 46.3325 824.755 47.7925C827.035 49.2505 829.965 51.1697 832.555 53.0063L832.7 52.8009L832.754 52.5552C822.361 50.2594 786.756 42.474 769.554 39.7231C749.251 36.4788 637.778 31.3859 613.267 31.3839C596.945 31.3839 496.442 31.2852 420.899 31.2852C383.128 31.2852 351.597 31.3094 339.949 31.3839C337.631 31.398 334.917 31.4322 331.88 31.4826L331.886 31.7343L332.122 31.8229L333.296 28.6894L333.058 28.6008L333.06 28.8525C392.029 28.3954 477.518 27.7409 484.3 27.7409C494.194 27.7409 629.378 26.1781 657.014 26.1781C658.544 26.1781 659.744 26.1842 660.574 26.1943C661.039 26.2003 661.555 26.2023 662.115 26.2023C672.828 26.2023 700.198 25.2055 725.272 25.2055C743.481 25.2035 760.49 25.7351 768.966 27.5415C789.819 31.98 845.135 45.9116 856.862 51.2986L856.966 51.071Z" fill="#3265B1"/>
<path d="M312.032 366.259L312.038 366.007C262.226 364.716 177.342 361.405 156.738 359.416C144.073 358.194 126.482 354.832 112.065 351.778C104.856 350.249 98.4399 348.799 93.8254 347.73C89.2117 346.66 86.4081 345.974 86.4003 345.971L85.925 345.857L86.1068 346.31C86.2547 346.667 86.3247 347.537 86.3207 348.487C86.3215 350.398 86.0903 352.704 86.0903 352.708L86.3404 352.732L86.4144 352.493C86.4127 352.493 85.8479 352.32 84.7962 351.896C81.6418 350.632 74.182 347.152 65.1401 339.608L65.1149 339.588L65.0852 339.574C48.5545 331.93 22.7067 298.606 16.8454 290.835L15.416 288.942L16.4167 291.093C20.7951 300.501 26.8296 311.376 34.3343 319.842C51.0309 338.66 95.6479 363.378 111.186 368.047C120.971 370.985 127.467 371.529 138.978 371.527C145.699 371.527 154.134 371.344 165.958 371.344C198.056 371.344 245.401 369.606 250.83 369.218C252.618 369.09 256.163 369.046 260.084 369.046C264.005 369.046 268.306 369.089 271.627 369.133C274.948 369.175 277.282 369.219 277.288 369.219H277.29C277.29 369.219 291.952 369.334 313.46 369.501L313.865 369.503L313.69 369.141C313.162 368.043 312.677 367.028 312.26 366.151L312.193 366.011L312.038 366.007L312.032 366.259L311.805 366.368C312.221 367.244 312.709 368.26 313.234 369.358L313.462 369.249L313.464 368.997C302.71 368.916 293.668 368.845 287.315 368.794C280.959 368.744 277.304 368.716 277.294 368.716L277.292 368.968L277.296 368.716C277.296 368.716 267.931 368.543 260.084 368.543C256.157 368.543 252.614 368.585 250.794 368.716C245.399 369.103 198.034 370.841 165.958 370.841C154.13 370.841 145.69 371.024 138.978 371.024C127.476 371.024 121.072 370.488 111.33 367.566C95.9407 362.961 51.259 338.195 34.7102 319.508C27.2583 311.102 21.2388 300.264 16.873 290.88L16.6448 290.986L16.4435 291.137C22.3442 298.935 48.1116 332.245 64.8735 340.031L64.979 339.802L64.8177 339.994C76.9353 350.104 86.242 352.966 86.2665 352.974L86.5605 353.062L86.5914 352.759C86.5914 352.755 86.8242 350.434 86.8242 348.487C86.8209 347.506 86.7746 346.639 86.574 346.122L86.3404 346.218L86.2806 346.461C86.2869 346.463 131.283 357.464 156.69 359.917C177.336 361.909 262.2 365.22 312.026 366.511L312.032 366.259Z" fill="#3265B1"/>
<path d="M842.685 347.999L842.52 347.808C842.305 347.997 842.099 348.186 841.888 348.366L842.051 348.557L841.995 348.311L820.648 353.056L820.703 353.301L820.833 353.517C820.837 353.515 827.368 349.516 832.572 345.826L833.585 345.107L832.371 345.375C821.983 347.669 786.373 355.456 769.201 358.201C748.994 361.433 637.451 366.534 612.993 366.534C596.671 366.534 496.169 366.633 420.626 366.633C382.855 366.633 351.323 366.609 339.677 366.534C337.637 366.52 335.291 366.492 332.691 366.451L332.322 366.446L333.523 369.654L333.696 369.655C392.644 370.111 477.543 370.761 484.31 370.761C494.189 370.761 629.242 372.322 656.981 372.322C658.533 372.322 659.748 372.316 660.589 372.306C661.045 372.302 661.546 372.298 662.092 372.298C672.761 372.298 700.169 373.297 725.278 373.297C743.503 373.297 760.505 372.775 769.08 370.95C789.978 366.498 845.223 352.595 857.08 347.157C857.69 346.877 858.329 346.547 858.975 346.188L858.768 345.731C854.005 347.47 849.998 348.082 846.729 348.082C845.243 348.082 843.912 347.955 842.728 347.751L842.611 347.729L842.52 347.808L842.685 347.999L842.643 348.247C843.853 348.456 845.215 348.585 846.729 348.585C850.062 348.585 854.128 347.96 858.939 346.205L858.852 345.967L858.732 345.748C858.093 346.102 857.465 346.426 856.869 346.7C845.144 352.087 789.829 366.019 768.975 370.457C760.497 372.265 743.487 372.795 725.278 372.793C700.179 372.793 672.781 371.794 662.092 371.794C661.544 371.794 661.041 371.798 660.583 371.802C659.746 371.812 658.531 371.819 656.981 371.819C629.25 371.819 494.199 370.258 484.31 370.258C477.551 370.258 392.646 369.607 333.7 369.152L333.698 369.404L333.933 369.315L332.922 366.615L332.687 366.703L332.683 366.955C335.283 366.995 337.633 367.023 339.675 367.038C351.325 367.112 382.855 367.137 420.626 367.137C496.169 367.137 596.673 367.038 612.993 367.038C637.501 367.036 748.978 361.942 769.28 358.698C786.484 355.947 822.086 348.16 832.479 345.866L832.425 345.621L832.28 345.415C829.69 347.252 826.762 349.171 824.482 350.629C822.201 352.089 820.576 353.085 820.572 353.088L819.287 353.875L842.166 348.788L842.212 348.748C842.434 348.561 842.641 348.369 842.851 348.189L842.685 347.999Z" fill="#3265B1"/>
<path d="M865.653 96.7153L866.116 96.5179C866.116 96.5179 864.732 93.2555 863.224 89.7696C861.71 86.2736 860.095 82.5944 859.571 81.6439C859.406 81.3539 859.047 80.8725 858.488 80.1516C854.609 75.1714 841.664 59.959 838.333 56.6261C836.386 54.6828 832.139 51.7305 828.345 49.2233C824.557 46.7222 821.242 44.6922 821.238 44.6922L820.976 45.1211L820.865 45.6125L842.218 50.3571L842.327 49.8657L842 50.2483C853.304 59.8804 861.279 71.5445 866.424 80.8C868.996 85.4278 870.861 89.4514 872.081 92.3171C872.691 93.7489 873.14 94.8908 873.436 95.6741C873.734 96.4575 873.873 96.8744 873.875 96.8764L874.353 96.7153V96.2118H865.653V96.7153V97.2188H875.053L874.828 96.5542C874.81 96.5139 865.508 68.9688 842.653 49.481L842.558 49.4005L818.141 43.9753L820.712 45.5501C820.714 45.5521 821.538 46.0555 822.835 46.8711C824.782 48.0976 827.793 50.0248 830.663 51.9943C833.528 53.9578 836.267 55.9817 837.62 57.337C839.467 59.1836 844.52 64.9754 849.208 70.5014C851.554 73.2683 853.814 75.9709 855.545 78.0935C856.411 79.1547 857.146 80.069 857.694 80.7719C858.238 81.4666 858.606 81.9781 858.689 82.1332C859.152 82.9629 860.797 86.6965 862.3 90.1684C863.806 93.6523 865.188 96.9046 865.19 96.9126L865.321 97.2188H865.653V96.7153Z" fill="#3265B1"/>
<path d="M865.369 301.707L864.904 301.512C864.902 301.518 863.523 304.772 862.016 308.254C860.514 311.725 858.869 315.461 858.406 316.289C858.323 316.444 857.953 316.957 857.411 317.652C853.581 322.574 840.579 337.845 837.337 341.085C835.529 342.897 831.276 345.876 827.508 348.359C825.623 349.606 823.853 350.733 822.556 351.551C821.257 352.369 820.435 352.87 820.433 352.872L817.857 354.449L842.275 349.02L842.37 348.939C865.224 329.453 874.528 301.908 874.547 301.868L874.77 301.203H865.035L864.904 301.512L865.369 301.707V302.21H874.069V301.707L873.592 301.545C873.592 301.548 873.451 301.965 873.155 302.748C871.083 308.232 861.499 331.32 841.715 348.174L842.043 348.556L841.933 348.065L820.586 352.81L820.695 353.301L820.959 353.732C820.961 353.73 824.275 351.7 828.063 349.199C831.855 346.691 836.101 343.74 838.048 341.796C839.957 339.887 844.99 334.113 849.692 328.572C852.04 325.803 854.304 323.096 856.041 320.967C856.911 319.902 857.651 318.983 858.204 318.27C858.762 317.551 859.121 317.068 859.286 316.778C859.811 315.828 861.427 312.149 862.941 308.653C864.447 305.166 865.833 301.904 865.833 301.904L865.369 301.707Z" fill="#3265B1"/>
<path d="M9.73482 199.585H10.2383C10.2375 183.051 12.5834 151.291 12.8446 145.016C13.0097 141.013 13.9457 135.547 13.9489 131.906C13.9473 130.911 13.8813 130.049 13.6886 129.351C13.4999 128.668 13.1575 128.064 12.5008 127.836L12.0956 127.772C11.6558 127.778 11.2579 127.957 10.8489 128.213C9.63815 128.992 8.23795 130.619 6.88083 132.388L6.81317 132.476L6.78961 132.587C4.5887 142.66 0 167.432 0 199.001C0 230.296 4.50915 254.923 6.73382 265.159L6.78417 265.392L6.99743 265.501C8.06335 266.041 9.03482 266.301 9.91103 266.301C11.2917 266.309 12.4047 265.624 13.0892 264.585C13.7814 263.548 14.104 262.176 14.1054 260.686C14.1054 260.078 14.0512 259.448 13.9419 258.811C13.4588 256.004 12.5268 245.295 11.7235 233.268C10.9196 221.235 10.2383 207.843 10.2383 199.585H9.73482H9.23137C9.23137 207.892 9.91425 221.288 10.719 233.336C11.5261 245.391 12.4497 256.052 12.9499 258.98C13.0498 259.564 13.0985 260.138 13.0985 260.686C13.1001 262.031 12.7964 263.218 12.2529 264.025C11.7015 264.833 10.9683 265.286 9.91103 265.294C9.23539 265.294 8.41496 265.092 7.45356 264.603L7.2254 265.052L7.71717 264.945C5.50418 254.759 1.00691 230.199 1.00691 199.001C1.00691 167.531 5.58292 142.823 7.77295 132.8L7.28138 132.694L7.68173 133C8.56278 131.846 9.47443 130.756 10.284 129.973C10.6884 129.58 11.0674 129.268 11.3884 129.063C11.7094 128.855 11.9714 128.775 12.0956 128.779L12.1822 128.791C12.352 128.841 12.562 129.061 12.7187 129.621C12.8713 130.164 12.9428 130.96 12.942 131.906C12.9445 135.398 12.0123 140.876 11.8385 144.976C11.5803 151.211 9.23137 182.985 9.23137 199.585H9.73482Z" fill="#3265B1"/>
<path d="M301.246 347.556L300.813 347.816L309.984 363.099L310.415 362.839L309.959 363.052C309.959 363.054 312.467 368.405 315.373 374.356C318.285 380.313 321.571 386.838 323.2 389.286C326.281 393.874 333.05 396.289 341.276 396.297C342.032 396.297 342.797 396.275 343.576 396.235L344.261 396.198L330.204 358.668H325.486L322.796 347.053H300.355L300.813 347.816L301.246 347.556V348.06H321.996L324.686 359.675H329.506L343.077 395.908L343.548 395.731L343.522 395.229C342.763 395.269 342.013 395.29 341.276 395.29C333.229 395.296 326.783 392.875 324.038 388.729C322.489 386.407 319.175 379.85 316.279 373.915C314.827 370.942 313.476 368.121 312.487 366.041C311.498 363.962 310.874 362.63 310.872 362.626L310.86 362.601L301.677 347.298L301.246 347.556Z" fill="#3265B1"/>
<path d="M301.246 48.77L301.677 49.0297L310.86 33.7227L310.872 33.7005C310.874 33.6965 311.498 32.3654 312.487 30.2851C313.969 27.1657 316.271 22.3748 318.496 17.9202C320.717 13.4696 322.88 9.33527 324.038 7.59935C326.783 3.4549 333.225 1.03029 341.27 1.03835C342.007 1.03835 342.759 1.05845 343.522 1.09873L343.548 0.59527L343.077 0.420093L329.506 36.6528H324.686L321.996 48.2665H301.246V48.77V49.2734H322.796L325.486 37.6597H330.204L344.261 0.130114L343.576 0.0938297C342.795 0.0515395 342.026 0.0314386 341.27 0.0314386C333.046 0.0374801 326.279 2.45403 323.2 7.04152C321.571 9.48831 318.285 16.0151 315.373 21.97C312.467 27.9209 309.959 33.2716 309.959 33.2736L310.415 33.4871L309.984 33.2273L300.355 49.2734H301.246V48.77Z" fill="#3265B1"/>
<path d="M645.931 323.573L646.04 323.081C629.194 319.364 588.837 313.256 559.542 312.682C552.878 312.551 543.496 312.424 532.345 312.424C494.554 312.424 436.447 313.894 394.767 321.787C340.843 331.999 283.082 348.309 283.076 348.311L282.802 348.387L281.062 354.761L281.709 354.773C281.709 354.773 290.795 354.944 305.516 355.186L306.423 355.202L302.135 348.057H321.997L323.717 355.476L324.11 355.482C363.363 356.086 422.381 356.855 468.052 356.855C474.72 356.855 481.104 356.839 487.099 356.803C560.654 356.366 686.979 348.077 686.983 348.077L687.283 348.057L687.408 347.785C688.046 346.402 688.352 345.068 688.352 343.795C688.352 340.705 686.556 338.07 683.753 335.851C679.54 332.517 672.977 329.976 666.027 327.927C659.079 325.883 651.745 324.343 646.04 323.081L645.931 323.573L645.822 324.064C653.439 325.746 663.9 327.919 672.425 331.094C676.684 332.682 680.456 334.52 683.128 336.641C685.805 338.769 687.345 341.123 687.345 343.795C687.345 344.907 687.081 346.089 686.493 347.364L686.951 347.575L686.918 347.072C686.912 347.072 684.945 347.201 681.346 347.428C656.167 349.021 551.402 355.415 487.093 355.796C481.1 355.832 474.718 355.849 468.052 355.849C422.391 355.849 363.376 355.079 324.126 354.475L324.118 354.979L324.609 354.866L322.797 347.05H300.357L305.091 354.942L305.524 354.684L305.532 354.181C298.172 354.058 292.221 353.955 288.109 353.883C283.999 353.809 281.733 353.766 281.727 353.766L281.717 354.27L282.204 354.403L283.699 348.927L283.213 348.794L283.35 349.279C283.352 349.278 284.25 349.024 285.934 348.559C297.717 345.3 347.823 331.701 394.956 322.775C436.499 314.907 494.586 313.429 532.345 313.431C543.49 313.431 552.864 313.558 559.524 313.689C588.7 314.257 629.065 320.363 645.822 324.064L645.931 323.573Z" fill="#3265B1"/>
<path d="M495.568 315.261L495.554 314.758C461.907 315.664 424.464 318.053 395.112 323.611C373.264 327.75 350.669 332.922 331.572 337.597L331.189 337.691V349.327L331.685 349.334C370.785 349.916 425.485 350.594 468.087 350.594C471.188 350.594 474.221 350.59 477.188 350.584L477.492 350.582L496.414 314.736L495.554 314.758L495.568 315.261L495.123 315.028L476.743 349.845L477.188 350.08L477.186 349.577C474.219 349.583 471.186 349.587 468.087 349.587C425.495 349.587 370.797 348.909 331.699 348.327L331.693 348.83H332.196V338.086H331.693L331.812 338.575C350.897 333.905 373.478 328.734 395.3 324.6C424.552 319.06 461.965 316.669 495.582 315.765L495.568 315.261Z" fill="#3265B1"/>
<path d="M678.227 341.863L678.694 341.674C677.635 339.147 674.366 337.036 669.978 335.067C656.808 329.215 633.174 325.165 628.036 324.322L627.587 324.25L621.84 345.625L622.533 345.589C646.986 344.28 667.352 343.047 678.259 342.367L678.958 342.323L678.694 341.674L678.227 341.863L678.195 341.362C667.292 342.043 646.928 343.275 622.48 344.582L622.506 345.085L622.992 345.216L628.441 324.951L627.956 324.82L627.875 325.318C631.277 325.871 642.91 327.861 654.136 330.842C659.746 332.33 665.256 334.067 669.567 335.987C673.887 337.89 676.972 340.04 677.76 342.054L678.227 341.863Z" fill="#3265B1"/>
<path d="M623.19 321.326L623.266 320.829C603.71 317.779 578.817 314.916 559.515 314.539C550.732 314.368 541.59 314.281 532.346 314.281C525.787 314.281 518.787 314.326 511.499 314.432L511.108 314.436L502.521 350.355L503.172 350.343C538.13 349.703 580.988 347.771 616.516 345.906L616.876 345.886L623.826 320.915L623.266 320.829L623.19 321.326L622.704 321.191L616.004 345.268L616.49 345.403L616.464 344.899C580.942 346.764 538.09 348.696 503.154 349.336L503.162 349.839L503.653 349.957L511.997 315.053L511.507 314.936L511.515 315.439C518.795 315.333 525.791 315.288 532.346 315.288C541.584 315.288 550.718 315.375 559.495 315.546C578.718 315.921 603.589 318.78 623.111 321.823L623.19 321.326Z" fill="#3265B1"/>
<path d="M645.931 72.7518L645.822 72.2604C629.065 75.9618 588.7 82.0698 559.524 82.6356C552.86 82.7665 543.48 82.8954 532.329 82.8954C494.57 82.8954 436.493 81.4173 394.956 73.5492C368.023 68.4482 340.118 61.8228 318.951 56.4721C308.366 53.7977 299.465 51.4395 293.21 49.7539C290.082 48.9081 287.618 48.2335 285.934 47.7663C284.25 47.3011 283.352 47.0474 283.35 47.0474L283.213 47.5327L283.699 47.3998L282.204 41.9222L281.717 42.0551L281.727 42.5585C281.733 42.5585 283.999 42.5162 288.109 42.4417C292.221 42.3692 298.172 42.2665 305.532 42.1457L305.524 41.6422L305.091 41.3825L300.357 49.2747H322.797L324.609 41.461L324.118 41.3462L324.126 41.8497C363.369 41.2475 422.372 40.4762 468.03 40.4762C474.704 40.4762 481.093 40.4924 487.093 40.5286C523.841 40.7461 573.8 42.9271 614.57 45.0537C634.954 46.117 653.042 47.1682 666.033 47.9516C672.528 48.3443 677.749 48.6685 681.346 48.896C684.945 49.1236 686.912 49.2525 686.918 49.2525L686.951 48.7511L686.493 48.9625C687.081 50.2353 687.345 51.4194 687.345 52.531C687.345 55.2033 685.805 57.5575 683.128 59.6861C679.121 62.87 672.638 65.4054 665.743 67.4313C658.846 69.4632 651.535 70.9978 645.822 72.2604L645.931 72.7518L646.04 73.2432C653.65 71.5617 664.146 69.3867 672.775 66.1747C677.091 64.5656 680.943 62.7008 683.753 60.4735C686.556 58.2563 688.352 55.6222 688.352 52.531C688.352 51.2583 688.046 49.9251 687.408 48.5396L687.283 48.2678L686.983 48.2496C686.979 48.2476 560.654 39.9587 487.099 39.5217C481.096 39.4854 474.706 39.4693 468.03 39.4693C422.362 39.4693 363.357 40.2406 324.11 40.8428L323.717 40.8488L321.997 48.2678H302.135L306.423 41.1227L305.516 41.1388C290.795 41.3805 281.709 41.5516 281.709 41.5516L281.062 41.5637L282.802 47.9395L283.076 48.016C283.082 48.018 340.843 64.326 394.767 74.5381C436.441 82.4302 494.538 83.9003 532.329 83.9023C543.488 83.9023 552.874 83.7735 559.542 83.6426C588.837 83.0706 629.194 76.9607 646.04 73.2432L645.931 72.7518Z" fill="#3265B1"/>
<path d="M495.568 81.0622L495.582 80.5587C461.965 79.6566 424.552 77.2662 395.3 71.7241C373.478 67.5918 350.897 62.4202 331.812 57.7502L331.693 58.2376H332.196V47.4938H331.693L331.699 47.9973C370.797 47.4153 425.495 46.7366 468.087 46.7366C471.186 46.7366 474.219 46.7406 477.186 46.7467L477.188 46.2432L476.743 46.4788L495.123 81.2978L495.568 81.0622L496.013 80.8286L477.492 45.7418L477.188 45.7398C474.221 45.7337 471.188 45.7297 468.087 45.7297C425.485 45.7297 370.785 46.4083 331.685 46.9903L331.189 46.9984V58.6343L331.572 58.7269C350.669 63.401 373.264 68.5745 395.112 72.7129C424.464 78.2731 461.907 80.6614 495.554 81.5657L496.416 81.5898L496.013 80.8286L495.568 81.0622Z" fill="#3265B1"/>
<path d="M678.227 54.4613L677.76 54.272C676.972 56.2838 673.887 58.4366 669.567 60.3397C656.619 66.1073 632.97 70.1812 627.875 71.0089L627.956 71.5043L628.441 71.3734L622.992 51.1083L622.506 51.2392L622.48 51.7427C646.928 53.0496 667.292 54.2841 678.195 54.9628L678.227 54.4613L678.259 53.9579C667.352 53.2792 646.986 52.0447 622.533 50.7377L621.84 50.6995L627.587 72.0742L628.036 72.0017C631.456 71.4439 643.112 69.4522 654.393 66.4576C660.036 64.9614 665.582 63.2134 669.978 61.26C674.366 59.2884 677.635 57.18 678.694 54.6506L678.958 54.0022L678.259 53.9579L678.227 54.4613Z" fill="#3265B1"/>
<path d="M623.19 74.9986L623.111 74.5012C603.589 77.5461 578.718 80.4037 559.495 80.7783C550.718 80.9495 541.584 81.0361 532.346 81.0361C525.791 81.0361 518.795 80.9938 511.515 80.887L511.507 81.3885L511.997 81.2717L503.653 46.3701L503.162 46.4869L503.154 46.9904C538.09 47.6308 580.942 49.562 616.464 51.4248L616.49 50.9213L616.004 51.0563L622.704 75.1335L623.19 74.9986L623.675 74.8637L616.876 50.438L616.516 50.4179C580.988 48.5551 538.13 46.6238 503.172 45.9834L502.521 45.9713L511.108 81.8879L511.499 81.8919C518.787 82.0007 525.787 82.043 532.346 82.043C541.59 82.043 550.732 81.9564 559.515 81.7852C578.817 81.4086 603.71 78.545 623.266 75.496L623.826 75.4094L623.675 74.8637L623.19 74.9986Z" fill="#3265B1"/>
<path d="M894.273 111.039L894.77 110.956C889.123 76.6285 869.164 56.1338 857.178 50.6159C851.193 47.8711 834.45 43.054 816.529 38.3356C798.618 33.6213 779.577 29.0297 769.126 26.8045C760.505 24.9719 743.508 24.4543 725.275 24.4523C700.186 24.4523 672.799 25.4492 662.117 25.4492C661.559 25.4492 661.048 25.4471 660.585 25.4411C659.751 25.431 658.549 25.425 657.016 25.425C629.37 25.425 494.183 26.9877 484.303 26.9877C477.508 26.9877 392.029 27.6422 333.059 28.0993L333.061 28.6028L333.534 28.78L344.263 0.131391L343.579 0.0951072C342.797 0.052817 342.028 0.0327161 341.273 0.0327161C333.048 0.0387576 326.282 2.45531 323.203 7.0428C322.059 8.76462 320.11 12.4721 318.033 16.5984C315.961 20.7227 313.776 25.2498 312.203 28.5444L312.658 28.7619L312.654 28.2584C302.118 28.339 293.277 28.4095 287.069 28.4578C280.862 28.5061 277.298 28.5344 277.288 28.5344H277.286H277.282C277.278 28.5344 274.944 28.5766 271.623 28.6209C268.304 28.6632 264.003 28.7055 260.084 28.7055C256.167 28.7055 252.62 28.6632 250.846 28.5364C245.401 28.1477 198.068 26.4098 165.958 26.4098C154.136 26.4098 145.702 26.2245 138.977 26.2245C127.463 26.2224 120.92 26.7702 111.113 29.7164C95.5009 34.4207 50.9167 59.1122 34.1454 77.9938C17.4212 96.8714 7.96266 127.631 7.94675 127.661L7.94453 127.669L7.94131 127.679C7.93426 127.707 0.000805529 157.498 0 199.002C0.000805529 240.507 7.93426 270.296 7.94131 270.324L7.94373 270.332L7.94675 270.342C7.96266 270.372 17.4212 301.131 34.1454 320.009C50.9167 338.893 95.5009 363.584 111.113 368.288C120.92 371.233 127.463 371.78 138.978 371.779C145.703 371.779 154.138 371.595 165.958 371.595C198.068 371.595 245.401 369.858 250.848 369.469C252.62 369.341 256.167 369.297 260.084 369.297C264.003 369.297 268.302 369.34 271.623 369.384C274.944 369.426 277.278 369.471 277.282 369.471H277.288C277.288 369.471 291.95 369.585 313.458 369.752L313.462 369.249L313.009 369.467C316.237 376.188 321.111 386.139 323.203 389.286C326.284 393.874 333.052 396.289 341.279 396.297C342.034 396.297 342.799 396.275 343.579 396.235L344.263 396.198L334.162 369.229L333.691 369.406L333.687 369.91C392.635 370.365 477.532 371.016 484.303 371.016C494.178 371.016 629.233 372.576 656.974 372.576C658.527 372.576 659.743 372.57 660.585 372.56C661.04 372.556 661.539 372.552 662.085 372.552C672.744 372.552 700.156 373.551 725.271 373.551C743.506 373.549 760.502 373.031 769.126 371.199C779.577 368.973 798.618 364.382 816.529 359.667C834.45 354.949 851.193 350.132 857.178 347.389C869.164 341.871 889.123 321.376 894.77 287.047C899.702 256.972 900 231.598 900 208.441C900 205.255 899.994 202.112 899.994 199.002C899.994 195.895 900 192.752 900 189.566C900 166.407 899.702 141.033 894.77 110.956L894.273 111.039L893.775 111.119C898.695 141.113 898.993 166.415 898.993 189.566C898.993 192.75 898.987 195.893 898.987 199.002C898.987 202.112 898.993 205.255 898.993 208.441C898.993 231.59 898.695 256.892 893.775 286.886C888.213 320.887 868.347 341.168 856.757 346.474C850.951 349.143 834.16 353.99 816.273 358.694C798.376 363.403 779.34 367.995 768.916 370.214C760.486 372.012 743.472 372.545 725.271 372.544C700.176 372.544 672.786 371.545 662.085 371.545C661.537 371.545 661.032 371.549 660.573 371.553C659.737 371.563 658.525 371.569 656.974 371.569C629.246 371.569 494.197 370.009 484.303 370.009C477.546 370.009 392.642 369.358 333.695 368.903L332.962 368.896L343.079 395.908L343.551 395.731L343.524 395.229C342.765 395.269 342.016 395.29 341.279 395.29C333.232 395.296 326.785 392.875 324.041 388.729C322.039 385.728 317.129 375.725 313.915 369.032L313.78 368.748L313.466 368.745C302.712 368.663 293.67 368.593 287.317 368.542C280.961 368.492 277.306 368.464 277.296 368.464L277.292 368.967L277.302 368.464C277.3 368.464 267.936 368.29 260.084 368.29C256.155 368.29 252.612 368.333 250.776 368.464C245.397 368.848 198.024 370.588 165.958 370.588C154.128 370.588 145.685 370.772 138.978 370.772C127.48 370.769 121.123 370.237 111.402 367.324C96.0877 362.75 51.3738 337.96 34.8989 319.34C26.6447 310.034 20.1344 297.7 15.7024 287.699C13.4848 282.699 11.7857 278.283 10.641 275.117C10.0691 273.536 9.63574 272.265 9.34555 271.391C9.05515 270.519 8.90976 270.046 8.90895 270.046L8.42825 270.193L8.91439 270.064C8.91439 270.062 8.79255 269.607 8.57687 268.717C7.06651 262.482 1.00631 235.207 1.00691 199.002C1.00691 178.314 2.98549 160.54 4.96307 147.944C5.95185 141.645 6.94064 136.64 7.68173 133.211C8.05227 131.497 8.3614 130.176 8.57687 129.286C8.79255 128.396 8.91439 127.939 8.91439 127.939L8.42825 127.808L8.90895 127.957C8.90976 127.955 9.05515 127.484 9.34555 126.61C11.3711 120.5 20.4467 94.9522 34.8989 78.6604C51.3738 60.0446 96.0877 35.2545 111.402 30.6811C121.123 27.7671 127.48 27.2354 138.977 27.2314C145.684 27.2314 154.126 27.4167 165.958 27.4167C198.024 27.4167 245.397 29.1566 250.776 29.5393C252.612 29.6702 256.155 29.7124 260.084 29.7124C267.936 29.7124 277.3 29.5413 277.302 29.5413L277.292 29.0378L277.296 29.5413C277.306 29.5413 280.87 29.5131 287.077 29.4647C293.286 29.4164 302.126 29.3459 312.663 29.2654L312.977 29.2613L313.112 28.9774C314.684 25.6868 316.867 21.1658 318.934 17.0515C320.998 12.9413 322.959 9.22176 324.041 7.60063C326.785 3.45618 333.228 1.03157 341.273 1.03963C342.01 1.03963 342.761 1.05973 343.524 1.1L343.551 0.596547L343.079 0.42137L332.334 29.1123L333.065 29.1063C392.033 28.6491 477.522 27.9946 484.303 27.9946C494.201 27.9946 629.382 26.4319 657.016 26.4319C658.547 26.4319 659.745 26.4379 660.573 26.448C661.042 26.4541 661.555 26.4561 662.117 26.4561C672.841 26.4561 700.205 25.4592 725.275 25.4592C743.474 25.4572 760.488 25.9909 768.916 27.7892C779.34 30.0084 798.376 34.6 816.273 39.3083C834.16 44.0146 850.951 48.8599 856.759 51.5302C868.347 56.8366 888.213 77.1178 893.775 111.119L894.273 111.039Z" fill="#3265B1"/>
<path d="M256.608 325.373L257.025 325.091C244.302 306.242 226.725 262.413 226.729 199.435C226.725 136.456 244.302 92.6255 257.025 73.7781C263.617 64.009 270.776 59.7941 276.124 57.9656L277.77 57.4037L270.379 55.6376L270.347 55.6335C270.331 55.6335 269.998 55.5973 269.404 55.5973C265.882 55.5872 253.046 56.8378 242.008 73.2142C229.144 92.2851 211.543 136.259 211.539 199.435C211.543 262.608 229.144 306.582 242.008 325.655C253.044 342.03 265.878 343.28 269.402 343.269C269.998 343.269 270.331 343.236 270.347 343.233L270.379 343.229L277.772 341.463L276.124 340.902C270.774 339.075 263.615 334.858 257.025 325.091L256.608 325.373L256.19 325.655C262.892 335.593 270.258 339.967 275.798 341.856L275.961 341.379L275.844 340.89L270.176 342.243L270.294 342.732L270.24 342.233L270.037 342.247C269.896 342.255 269.68 342.263 269.402 342.263C266.094 342.251 253.692 341.16 242.842 325.091C230.119 306.242 212.542 262.413 212.546 199.435C212.542 136.456 230.119 92.6255 242.842 73.7781C253.694 57.7078 266.098 56.6163 269.404 56.6042C269.682 56.6042 269.896 56.6123 270.037 56.6203L270.24 56.6364L270.294 56.135L270.176 56.6244L275.844 57.9797L275.961 57.4883L275.798 57.013C270.26 58.902 262.894 63.274 256.19 73.2142C243.327 92.2851 225.726 136.259 225.722 199.435C225.726 262.608 243.327 306.582 256.19 325.655L256.608 325.373Z" fill="#3265B1"/>
<path d="M291.661 65.8153L291.544 66.3046L386.161 88.9017L386.278 88.4124L385.819 88.209C378.483 104.861 374.648 129.333 372.627 151.322C370.607 173.311 370.413 192.805 370.413 199.434C370.413 206.064 370.607 225.558 372.627 247.545C374.648 269.536 378.483 294.008 385.819 310.658L386.278 310.457L386.161 309.965L289.077 333.152C287.992 333.41 286.878 333.523 285.766 333.523C282.578 333.523 279.411 332.601 277.05 331.672C275.87 331.207 274.892 330.742 274.209 330.395C273.869 330.222 273.603 330.077 273.422 329.977L273.152 329.823L272.894 330.254L273.24 329.89C271.233 327.975 269.176 325.585 267.165 322.6C253.577 302.47 237.626 258.051 237.632 199.434C237.626 140.816 253.577 96.3972 267.165 76.267C268.844 73.7799 270.554 71.7037 272.239 69.9698L271.879 69.6174L272.189 70.0141L272.431 69.8349C273.585 69.0112 278.768 65.6441 286.006 65.6481C287.742 65.6481 289.595 65.8394 291.544 66.3046L291.661 65.8153L291.778 65.3259C289.75 64.8406 287.814 64.6412 286.006 64.6412C277.369 64.6472 271.613 69.1904 271.567 69.2226L271.541 69.2428L271.516 69.2669C269.789 71.0452 268.041 73.1678 266.331 75.7052C252.591 96.079 236.631 140.623 236.625 199.434C236.631 258.244 252.591 302.788 266.331 323.162C268.381 326.202 270.483 328.651 272.546 330.619L272.586 330.657L272.634 330.688C272.672 330.702 279.01 334.518 285.766 334.527C286.944 334.527 288.139 334.411 289.311 334.131L386.983 310.805L386.739 310.253C379.488 293.808 375.641 269.389 373.629 247.452C371.614 225.513 371.42 206.044 371.42 199.434C371.42 192.825 371.614 173.355 373.629 151.415C375.641 129.478 379.488 105.059 386.739 88.6158L386.983 88.062L291.778 65.3259L291.661 65.8153Z" fill="#3265B1"/>
<path d="M756.96 308.735V308.231C719.133 308.231 669.526 302.538 652.572 300.446L652.509 300.945L652.981 301.125C661.151 279.627 669.427 225.767 669.436 198.452C669.427 171.136 661.151 117.275 652.981 95.7791L652.509 95.9583L652.572 96.4578C669.53 94.3634 719.131 88.6723 756.956 88.6723C763.827 88.6723 770.034 88.8616 775.439 89.2342L775.473 88.7327L775.05 89.0066C779.924 96.5041 800.03 131.486 800.03 198.452C800.03 265.397 779.936 300.381 775.05 307.897L775.473 308.173L775.439 307.67C770.034 308.042 763.829 308.231 756.96 308.231V308.735V309.238C763.848 309.238 770.072 309.049 775.508 308.674L775.759 308.658L775.896 308.447C780.872 300.794 801.039 265.601 801.037 198.452C801.039 131.283 780.86 96.0913 775.896 88.4569L775.759 88.2474L775.508 88.2293C770.072 87.8547 763.846 87.6654 756.956 87.6654C719.038 87.6674 669.427 93.3625 652.449 95.4589L651.811 95.5374L652.04 96.1376C660.134 117.381 668.437 171.326 668.429 198.452C668.437 225.578 660.134 279.522 652.04 300.766L651.811 301.366L652.449 301.445C669.423 303.539 719.04 309.236 756.96 309.238V308.735Z" fill="#3265B1"/>
<path d="M86.3396 352.73L86.4866 352.249C86.4866 352.249 86.3656 352.212 86.116 352.126C82.3748 350.817 51.1819 338.702 29.9823 289.977L29.5214 290.177L29.1706 290.537C29.173 290.541 30.05 291.393 31.5904 292.893C36.9812 298.14 50.4667 311.276 62.6606 323.241C68.7571 329.222 74.5311 334.914 78.8081 339.179C80.947 341.31 82.7115 343.085 83.9528 344.363C84.5735 345.001 85.0636 345.515 85.4017 345.881C85.5709 346.065 85.7024 346.212 85.7888 346.314L85.8824 346.431L85.8951 346.449L86.1404 346.294L85.8722 346.403L85.8951 346.449L86.1404 346.294L85.8722 346.403C85.9942 346.677 86.0752 347.548 86.0681 348.485C86.0689 350.378 85.8383 352.676 85.8383 352.68L86.3396 352.73L86.8406 352.78C86.8414 352.772 87.075 350.452 87.075 348.485C87.0688 347.49 87.0333 346.622 86.8076 346.028L86.6763 345.81C86.3482 345.384 85.2745 344.266 83.5627 342.526C71.6355 330.421 29.8738 289.818 29.8722 289.816L28.041 288.036L29.0596 290.378C51.7977 342.663 86.0995 353.189 86.1924 353.211L86.7792 353.391L86.8406 352.78L86.3396 352.73Z" fill="#3265B1"/>
<path d="M86.6252 45.6907L86.478 45.2093C86.3843 45.2315 52.0833 55.7598 29.3436 108.045L28.3242 110.387L30.1564 108.607C30.1564 108.607 44.231 94.9226 58.3719 81.0755C65.4422 74.152 72.5292 67.1882 77.8816 61.8717C80.5586 59.2135 82.8013 56.9661 84.3935 55.3429C85.1895 54.5293 85.8227 53.8728 86.2687 53.3956C86.4923 53.1559 86.6685 52.9626 86.7974 52.8115L86.9611 52.6122L87.0924 52.3947C87.3181 51.8006 87.3536 50.9346 87.3598 49.9378C87.3598 47.9703 87.1262 45.6504 87.1254 45.6403L87.0648 45.0301L86.478 45.2093L86.6252 45.6907L86.1242 45.741C86.1242 45.743 86.1815 46.3129 86.2389 47.1265C86.2963 47.9401 86.3537 48.9933 86.3529 49.9378C86.36 50.8742 86.279 51.7462 86.1572 52.0201L86.4057 52.1208L86.1807 51.9738L86.1572 52.0221L86.4057 52.1208L86.1807 51.9738C86.154 52.0221 85.8424 52.3846 85.3712 52.88C81.7793 56.6922 67.7881 70.4567 54.7115 83.2485C48.1715 89.6464 41.8569 95.8067 37.178 100.366C34.8385 102.646 32.9073 104.524 31.5612 105.833C30.2154 107.144 29.4562 107.882 29.4538 107.884L29.8054 108.244L30.2664 108.445C41.5738 82.455 55.7233 66.8882 67.0337 57.8119C72.6889 53.2747 77.6353 50.3627 81.1619 48.5845C82.9256 47.6964 84.3345 47.0903 85.2989 46.7097C85.781 46.5184 86.1523 46.3834 86.4017 46.2968C86.6512 46.2102 86.7714 46.174 86.7714 46.172L86.6252 45.6907Z" fill="#3265B1"/>
<path d="M29.5244 290.177L29.3482 290.358C29.3482 290.358 30.5533 291.53 32.6058 293.526L33.2784 294.181L30.0498 282.754L29.8076 282.823L30.0539 282.77C30.0522 282.764 29.5293 280.239 28.7416 275.792C26.3802 262.457 21.6548 231.919 21.6556 201.076C21.6556 199.388 21.6697 197.698 21.6989 196.013C22.0725 174.614 24.161 153.984 26.1567 138.705C27.155 131.067 28.1296 124.766 28.855 120.376C29.5796 115.983 30.053 113.513 30.0547 113.505L29.8076 113.458L30.0349 113.565L35.116 102.731L34.1264 103.693C31.3252 106.42 29.6362 108.061 29.6322 108.065L29.8076 108.244L30.0381 108.345C43.8604 76.573 61.9266 60.3496 73.9032 52.5159L74.0629 52.4111L72.9569 48.9031L72.6824 49.0682C57.6668 58.1204 42.5883 68.852 34.3364 78.1599C17.6626 96.973 8.19763 127.718 8.18978 127.732L8.18817 127.738L8.18736 127.742C8.18333 127.756 0.253906 157.529 0.253906 199.001C0.253906 240.474 8.18333 270.242 8.18736 270.258L8.18817 270.262L8.18978 270.266C8.19763 270.283 17.6626 301.028 34.3364 319.84C43.6669 330.363 61.7204 342.71 78.5461 352.388L78.7884 352.527L80.0408 349.686L79.8323 349.575C68.8246 343.803 46.2619 328.025 29.755 290.076L29.5244 290.177L29.2932 290.278C45.845 328.335 68.5068 344.208 79.5985 350.022L79.7151 349.798L79.4853 349.698L78.4406 352.068L78.6712 352.169L78.797 351.952C61.9997 342.293 43.9625 329.944 34.7124 319.506C26.4306 310.166 19.9132 297.814 15.4742 287.801C13.2541 282.795 11.5527 278.372 10.4066 275.202C9.26032 272.033 8.67269 270.124 8.67108 270.119L8.43043 270.192L8.6735 270.128C8.67189 270.124 8.18032 268.277 7.43762 264.843C5.21234 254.547 0.757362 230.059 0.757362 199.001C0.757362 178.297 2.73735 160.511 4.71674 147.903C5.70633 141.599 6.69593 136.589 7.43762 133.157C8.18032 129.724 8.67269 127.877 8.6735 127.871L8.43043 127.807L8.67108 127.881C8.67189 127.877 9.26032 125.968 10.4066 122.798C13.8434 113.289 22.2873 92.5043 34.7124 78.4922C42.8936 69.2628 57.9515 58.5332 72.9428 49.4992L72.8121 49.2837L72.5723 49.3582L73.5248 52.3809L73.7657 52.3064L73.6271 52.095C61.578 59.9731 43.4363 76.281 29.5764 108.146L29.0675 109.316L29.983 108.426C29.983 108.426 31.676 106.78 34.478 104.054L34.3018 103.874L34.0744 103.766L29.5661 113.38L29.5599 113.41C29.5591 113.418 21.9436 153.153 21.1954 196.005C21.1662 197.694 21.1522 199.384 21.1522 201.076C21.1522 242.266 29.5599 282.865 29.5607 282.873L29.5631 282.883L32.5389 293.414L32.7812 293.345L32.9566 293.166C30.9043 291.17 29.703 290 29.6998 289.998L28.7841 289.106L29.2932 290.278L29.5244 290.177Z" fill="#3265B1"/>
<path d="M392.731 313.493L393.17 313.25C386.377 300.921 382.028 280.717 379.41 259.487C376.786 238.253 375.871 215.978 375.871 199.435C375.871 182.891 376.786 160.616 379.41 139.382C382.028 118.151 386.377 97.946 393.17 85.6174L393.49 85.0374L275.937 56.9648L275.798 57.0131C270.26 58.9021 262.894 63.2741 256.19 73.2143C243.328 92.2852 225.727 136.259 225.723 199.435C225.727 262.608 243.328 306.582 256.19 325.655C262.892 335.593 270.258 339.967 275.798 341.856L275.937 341.902L393.49 313.83L393.17 313.25L392.731 313.493L392.612 313.004L275.845 340.89L275.961 341.379L276.125 340.902C270.774 339.075 263.615 334.858 257.026 325.091C244.302 306.242 226.726 262.413 226.73 199.435C226.726 136.456 244.302 92.6255 257.026 73.7782C263.617 64.0091 270.776 59.7942 276.125 57.9656L275.961 57.4883L275.845 57.9797L392.612 85.8631L392.731 85.3737L392.288 85.1301C385.377 97.7004 381.045 117.963 378.409 139.258C375.779 160.55 374.864 182.855 374.864 199.435C374.864 216.014 375.779 238.32 378.409 259.61C381.045 280.904 385.377 301.167 392.288 313.736L392.731 313.493Z" fill="#3265B1"/>
<path d="M804.993 198.453H804.489C804.489 237.777 797.737 266.218 790.993 284.819C787.62 294.12 784.25 300.96 781.727 305.473C780.464 307.729 779.415 309.402 778.682 310.51C778.316 311.062 778.028 311.475 777.832 311.746C777.637 312.02 777.538 312.147 777.538 312.149L777.939 312.455L777.899 311.954C771.586 312.464 764.497 312.684 756.969 312.684C733.49 312.684 705.742 310.538 683.871 308.391C672.934 307.318 663.467 306.244 656.735 305.441C653.368 305.038 650.686 304.702 648.845 304.468C647.004 304.233 646.008 304.1 646.006 304.1L645.939 304.597L646.37 304.859C648.442 301.433 650.603 295.046 652.73 286.851C659.093 262.281 664.984 221.602 664.988 198.453C664.986 183.019 662.366 159.799 658.735 138.749C656.918 128.225 654.852 118.244 652.73 110.054C650.603 101.858 648.442 95.4718 646.37 92.0442L645.939 92.306L646.006 92.8055C646.008 92.8034 647.004 92.6705 648.845 92.4369C661.727 90.7937 715.869 84.2205 756.961 84.2205C764.493 84.2205 771.584 84.4421 777.899 84.9536L777.939 84.4501L777.538 84.7582C777.54 84.7582 777.637 84.8871 777.832 85.159C780.752 89.249 804.487 124.721 804.489 198.453H804.993H805.496C805.498 119.571 778.394 84.2145 778.338 84.144L778.201 83.9668L777.979 83.9487C771.628 83.4351 764.513 83.2136 756.961 83.2136C709.89 83.2156 645.883 91.8066 645.873 91.8066L645.109 91.9093L645.508 92.5678C647.472 95.796 649.647 102.158 651.755 110.306C658.095 134.765 663.983 175.457 663.981 198.453C663.981 213.782 661.367 236.981 657.742 257.985C655.932 268.489 653.867 278.446 651.755 286.598C649.647 294.746 647.472 301.109 645.508 304.337L645.109 304.994L645.873 305.097C645.883 305.097 709.896 313.69 756.969 313.691C764.517 313.691 771.63 313.47 777.979 312.957L778.201 312.939L778.338 312.761C778.394 312.692 805.498 277.334 805.496 198.453H804.993Z" fill="#3265B1"/>
<path d="M664.479 198.45H664.983C664.981 183.695 662.586 161.835 659.205 141.556C655.818 121.268 651.464 102.608 647.471 94.1543L647.324 93.8442L646.979 93.8683C636.024 94.6578 597.377 97.0542 522.873 97.8658C519.929 97.898 517.033 97.9121 514.186 97.9121C445.667 97.9121 405.057 88.8539 392.511 85.5452L392.126 85.4425L391.939 85.7949C385.172 98.5142 380.925 118.685 378.341 139.81C375.76 160.931 374.859 182.994 374.859 199.433C374.859 215.711 375.743 237.5 378.267 258.432C380.792 279.366 384.945 299.425 391.546 312.308L391.731 312.668L392.124 312.563C404.209 309.345 444.977 300.092 514.276 300.092C517.092 300.092 519.957 300.108 522.873 300.138C596.223 300.936 634.816 303.271 646.45 304.097L646.776 304.122L646.929 303.832C650.987 296.136 655.463 277.384 658.973 256.714C662.478 236.054 664.981 213.538 664.983 198.45H664.479H663.976C663.976 213.433 661.479 235.931 657.981 256.547C654.493 277.152 649.972 295.938 646.039 303.36L646.484 303.596L646.52 303.093C634.864 302.267 596.251 299.931 522.883 299.131C519.965 299.101 517.096 299.085 514.276 299.085C444.886 299.085 404.03 308.351 391.864 311.591L391.993 312.078L392.442 311.848C385.943 299.186 381.779 279.184 379.266 258.311C376.748 237.434 375.866 215.674 375.866 199.433C375.866 183.03 376.766 160.997 379.34 139.933C381.91 118.868 386.173 98.7579 392.827 86.2682L392.384 86.0326L392.255 86.5179C404.881 89.8487 445.579 98.921 514.186 98.919C517.037 98.919 519.937 98.9049 522.883 98.8727C597.405 98.0611 636.074 95.6647 647.052 94.8732L647.015 94.3698L646.56 94.5853C650.461 102.816 654.841 121.49 658.212 141.721C661.587 161.958 663.976 183.798 663.976 198.45H664.479Z" fill="#3265B1"/>
<path d="M872.536 96.7163V96.2128H865.661V96.7163L866.124 96.519C866.124 96.519 865.971 96.1565 865.713 95.5523L865.606 95.3006L865.336 95.2543C865.322 95.2523 805.775 84.8267 778.383 84.3837H778.369L778.238 84.3877L777.302 84.4199L777.846 85.1831C780.828 89.3679 804.487 124.839 804.489 198.453C804.489 237.777 797.736 266.218 790.992 284.819C787.619 294.12 784.25 300.96 781.726 305.473C780.464 307.729 779.415 309.402 778.681 310.51C778.315 311.062 778.027 311.475 777.832 311.746C777.636 312.02 777.538 312.147 777.538 312.149L776.807 313.102L865.407 302.213H871.48L871.585 301.85C871.593 301.82 885.13 255.14 885.13 191.36C885.13 135.68 875.478 103.789 873.013 96.5532L872.896 96.2128H872.536V96.7163L872.061 96.8794C874.491 104.018 884.123 135.797 884.123 191.36C884.123 223.178 880.746 250.74 877.369 270.34C875.679 280.141 873.992 287.953 872.725 293.312C872.093 295.99 871.565 298.056 871.197 299.451C870.828 300.849 870.621 301.568 870.619 301.571L871.102 301.709V301.206H865.344L777.876 311.955L777.938 312.455L778.337 312.761C778.394 312.692 805.498 277.334 805.496 198.453C805.498 124.622 781.753 88.9228 778.665 84.5991L778.257 84.8911L778.273 85.3946L778.391 85.3906L778.375 84.8871L778.365 85.3906C791.969 85.6081 813.686 88.3207 831.979 90.9809C841.128 92.3101 849.425 93.6271 855.434 94.6099C861.444 95.5946 865.153 96.243 865.163 96.2451L865.25 95.7497L864.787 95.947C865.044 96.5512 865.197 96.9116 865.197 96.9116L865.328 97.2198H872.536V96.7163Z" fill="#3265B1"/>
<path d="M623.321 199.548H622.818C622.818 217.769 620.907 248.166 619.712 258.648C619.118 263.827 617.38 267.014 614.855 268.946C612.328 270.882 608.922 271.593 604.911 271.593C596.749 271.593 465.52 276.136 446.862 276.853C441.096 277.074 437.047 277.227 434.096 277.227C430.8 277.229 428.889 277.032 427.501 276.563C426.118 276.096 425.185 275.353 423.782 274.118C423.453 273.865 422.918 272.685 422.483 270.916C420.89 264.687 419.573 251.02 418.668 236.852C417.762 222.677 417.261 207.964 417.261 199.548C417.261 189.928 417.917 172.088 419.081 156.221C419.663 148.288 420.372 140.847 421.188 135.18C421.595 132.347 422.03 129.957 422.483 128.18C422.918 126.412 423.453 125.232 423.782 124.978C425.185 123.744 426.118 123.001 427.501 122.534C428.889 122.064 430.8 121.869 434.094 121.869C437.045 121.869 441.094 122.022 446.862 122.244C465.52 122.963 596.749 127.504 604.911 127.504C608.922 127.504 612.328 128.217 614.855 130.15C617.38 132.083 619.118 135.269 619.712 140.447C620.907 150.931 622.818 181.327 622.818 199.548H623.321H623.825C623.825 181.259 621.914 150.888 620.711 140.332C620.109 134.991 618.26 131.481 615.467 129.35C612.676 127.22 609.029 126.499 604.911 126.497C596.817 126.499 465.538 121.956 446.9 121.239C441.133 121.017 437.079 120.862 434.094 120.862C430.765 120.864 428.758 121.049 427.181 121.579C425.6 122.113 424.523 122.985 423.117 124.221C422.43 124.862 421.993 126.092 421.508 127.931C419.877 134.333 418.574 147.976 417.664 162.18C416.757 176.377 416.254 191.094 416.254 199.548C416.254 209.209 416.91 227.053 418.076 242.948C418.66 250.895 419.371 258.352 420.191 264.061C420.602 266.914 421.039 269.331 421.508 271.166C421.993 273.005 422.43 274.235 423.117 274.875C424.523 276.112 425.6 276.986 427.181 277.518C428.758 278.047 430.765 278.232 434.096 278.234C437.079 278.234 441.133 278.081 446.9 277.86C465.538 277.141 596.817 272.6 604.911 272.6C609.029 272.6 612.676 271.877 615.467 269.746C618.26 267.615 620.109 264.105 620.711 258.763C621.914 248.21 623.825 217.838 623.825 199.548H623.321Z" fill="#3265B1"/>
<path d="M483.989 128.32L484.007 127.816C465.877 127.184 451.578 126.676 446.697 126.489C441.304 126.28 437.043 126.116 434.09 126.116C431.829 126.118 430.536 126.149 429.541 126.368C428.542 126.586 427.888 127.037 427.11 127.707L427.018 127.788L426.971 127.901C426.236 129.731 425.566 133.67 424.921 139.001C423 154.962 421.504 183.085 421.504 199.548C421.504 210.522 422.17 226.681 423.181 240.963C423.689 248.104 424.281 254.773 424.921 260.094C425.566 265.425 426.236 269.363 426.971 271.194L427.018 271.309L427.11 271.389C427.888 272.06 428.542 272.511 429.541 272.729C430.536 272.948 431.829 272.978 434.09 272.98C437.043 272.98 441.304 272.815 446.697 272.608C451.578 272.42 465.877 271.913 484.007 271.281C487.078 271.172 489.722 270.254 491.619 268.717C493.516 267.184 494.65 265.008 494.646 262.503V136.592C494.65 134.087 493.516 131.91 491.619 130.378C489.722 128.841 487.078 127.925 484.007 127.816L483.989 128.32L483.973 128.823C486.865 128.924 489.297 129.79 490.985 131.161C492.674 132.534 493.637 134.391 493.639 136.592V262.503C493.637 264.704 492.674 266.561 490.985 267.936C489.297 269.307 486.865 270.173 483.973 270.274C465.842 270.906 451.542 271.414 446.659 271.603C441.266 271.808 437.006 271.974 434.09 271.974C431.841 271.975 430.58 271.931 429.761 271.746C428.949 271.559 428.532 271.273 427.765 270.624L427.437 271.007L427.904 270.817C427.253 269.224 426.553 265.259 425.92 259.973C424.007 244.084 422.511 215.951 422.511 199.548C422.511 188.611 423.175 172.463 424.186 158.205C424.692 151.076 425.284 144.418 425.92 139.122C426.553 133.835 427.253 129.87 427.904 128.279L427.437 128.09L427.765 128.473C428.532 127.822 428.947 127.538 429.761 127.351C430.58 127.166 431.841 127.121 434.09 127.123C437.006 127.123 441.266 127.286 446.659 127.494C451.542 127.683 465.842 128.191 483.973 128.823L483.989 128.32Z" fill="#3265B1"/>
<path d="M614.982 140.983L615.484 140.927C615.103 137.58 614.286 135.25 612.572 133.762C610.854 132.279 608.385 131.754 604.901 131.752C600.588 131.752 561.88 130.479 523.641 129.18C523.448 129.174 523.261 129.17 523.076 129.17C519.382 129.162 517.042 130.485 515.711 132.297C514.376 134.106 514.025 136.317 514.025 138.103V260.995C514.025 262.779 514.376 264.99 515.711 266.799C517.042 268.611 519.38 269.934 523.074 269.926C523.259 269.926 523.448 269.922 523.639 269.916C561.88 268.619 600.588 267.346 604.901 267.346C608.385 267.344 610.854 266.819 612.572 265.337C614.286 263.848 615.103 261.518 615.484 258.171C616.696 247.496 618.559 217.567 618.561 199.549C618.559 181.531 616.696 151.602 615.484 140.927L614.982 140.983L614.483 141.039C615.689 151.646 617.554 181.6 617.554 199.549C617.554 217.498 615.689 247.452 614.483 258.057C614.112 261.317 613.331 263.351 611.913 264.575C610.498 265.806 608.3 266.34 604.901 266.34C600.527 266.34 561.858 267.612 523.607 268.91C523.424 268.915 523.247 268.919 523.074 268.919C519.604 268.91 517.668 267.739 516.519 266.199C515.371 264.654 515.03 262.652 515.032 260.995V138.103C515.03 136.446 515.371 134.442 516.521 132.898C517.67 131.357 519.606 130.187 523.076 130.177L523.607 130.187C561.858 131.484 600.527 132.759 604.901 132.759C608.3 132.757 610.498 133.29 611.913 134.523C613.331 135.745 614.112 137.781 614.483 141.039L614.982 140.983Z" fill="#3265B1"/>
</svg>
