<svg width="900" height="275" viewBox="0 0 900 275" fill="none" xmlns="http://www.w3.org/2000/svg">
    <g id="front">
    <path
        d="M337.792 57.0869L282.144 91.9834L271.363 90.4142C281.364 82.0412 317.158 61.3758 333.827 52.3633L337.792 57.0869Z"
        fill="transparent" stroke="transparent" />
    <path
        d="M99.0341 137.338C99.0341 137.491 98.8821 138.099 98.73 138.707C98.1219 140.835 96.4496 144.636 93.7132 146.764C92.801 147.524 90.8246 148.588 88.0882 149.653C80.3348 153.149 66.9564 157.71 59.9632 158.774C55.2503 159.534 46.8888 160.295 39.7436 160.751C36.2469 161.055 32.9023 161.207 30.6219 161.359C29.1017 161.511 27.8855 161.511 27.2773 161.511C27.5814 155.126 29.5577 149.805 31.6861 146.004C32.7503 144.028 33.8145 142.507 34.5746 141.443C35.0307 140.835 35.3348 140.531 35.4868 140.227C35.6388 140.075 35.6388 140.075 35.7909 139.923C47.1929 137.034 83.9834 133.082 88.2402 132.93H88.3922C90.5206 132.93 93.105 133.842 95.3855 134.906C96.4496 135.362 97.3618 135.97 98.1219 136.426C98.426 136.578 98.7301 136.882 98.8821 137.034L99.0341 137.338Z"
        fill="transparent" />
    <path
        d="M14.204 141.897C14.204 143.721 12.9878 146.458 12.2276 148.738C11.0114 152.995 7.66681 166.677 7.0587 169.414C6.75465 170.782 6.14654 171.694 5.53843 172.302C5.3864 172.454 5.3864 172.454 5.23438 172.606C5.23438 172.454 5.23438 172.302 5.23438 172.302C5.3864 169.566 5.99451 163.181 7.66681 157.1C8.731 153.147 9.94721 149.194 10.8594 146.306C11.1634 145.546 11.3155 144.938 11.6195 144.329C11.7715 143.721 12.0756 143.113 12.2276 142.657C12.3796 142.353 12.3796 142.049 12.5317 141.745C12.5317 141.593 12.6837 141.441 12.6837 141.289C12.6837 141.137 12.8357 140.985 12.8357 140.833V140.529C12.8357 140.377 12.8357 140.225 12.6837 140.073C12.5317 139.921 12.5317 139.769 12.3796 139.617C12.3796 139.465 12.2276 139.465 12.0756 139.312C12.6837 139.465 12.9878 139.769 13.2918 140.073C13.8999 140.377 14.204 140.985 14.204 141.897Z"
        fill="transparent" />
    <path
        d="M9.94574 214.267C9.94574 214.571 9.94573 214.875 9.79371 215.027H8.27344V201.953C8.42546 202.713 8.57749 203.473 8.57749 204.234C8.88155 206.362 9.33763 208.642 9.48965 210.467C9.79371 212.139 9.94574 213.659 9.94574 214.267Z"
        fill="transparent" />
    <path
        d="M68.7841 221.709C68.176 221.709 67.4159 221.709 66.5037 221.709C58.4463 221.709 40.6591 221.861 26.6726 221.861C17.399 221.861 9.64559 221.861 7.66924 221.709C5.54086 221.557 3.86856 221.405 2.65234 221.101C3.41248 220.493 4.17261 219.884 4.93275 219.428C5.2368 219.276 5.54086 218.972 5.84491 218.82C6.9091 219.124 7.97329 219.428 8.88545 219.428H9.03748C10.2537 219.428 22.4159 219.276 34.274 219.124C45.524 218.972 56.6219 218.82 57.6861 218.82L68.7841 221.709Z"
        fill="transparent" />
    <path
        d="M259.581 241.167H256.541L255.325 211.674C255.325 172.299 223.399 140.373 184.024 140.373C144.649 140.373 112.723 172.299 112.723 211.674L112.267 233.261C111.659 233.261 110.595 233.109 109.227 233.109L109.835 211.674C109.835 191.302 118.196 172.755 131.575 159.224C144.953 145.846 163.652 137.484 184.024 137.484C224.919 137.484 258.213 170.778 258.365 211.674L259.581 241.167Z"
        fill="transparent" />
    <path d="M391.928 240.585H283.613V219.289L391.928 218.565V240.585Z" fill="transparent" stroke="transparent" />
    <path
        d="M283.599 241.167H260.187L258.97 211.674C258.97 208.329 258.666 205.137 258.362 201.944C258.21 200.88 258.058 199.816 257.906 198.752C257.754 197.992 257.602 197.079 257.45 196.319C257.146 194.799 256.69 193.279 256.386 191.758C256.082 190.846 255.93 189.934 255.626 189.022C255.322 187.958 255.018 187.046 254.562 185.981C252.585 180.66 250.001 175.492 246.96 170.779C246.504 170.171 246.2 169.562 245.744 168.954C243.16 165.306 240.423 161.961 237.23 158.769C235.102 156.64 232.822 154.664 230.541 152.84C229.173 151.775 227.653 150.711 226.132 149.647C214.122 141.59 199.832 136.877 184.325 136.877C143.126 136.877 109.528 170.475 109.528 211.522L109.072 232.958C95.5413 232.046 54.1899 229.309 32.9061 227.333C20.1359 226.117 12.0784 225.508 7.21358 224.9C4.78114 224.596 3.10885 224.292 2.19669 223.988C1.7406 223.836 1.43655 223.684 1.28452 223.532L0.980469 223.228C0.980469 223.076 0.980469 222.924 1.28452 222.62C1.58858 222.316 1.89263 221.86 2.50074 221.404C3.86898 221.708 5.69331 222.012 7.97371 222.164C9.95006 222.316 17.7034 222.316 26.9771 222.316C45.0683 222.316 69.3926 222.164 70.9129 222.164H71.0649H72.5852L70.6088 221.708L57.6865 218.363C57.6865 218.363 11.4703 218.819 9.0379 218.971H8.88587C8.12574 218.971 7.21358 218.819 6.45344 218.515C6.7575 218.363 6.90952 218.211 7.06155 218.211C7.51763 218.059 7.66966 217.755 7.82168 217.755C8.12574 217.755 8.58182 217.603 9.34196 217.299C9.79804 216.995 10.4061 216.539 10.7102 215.779H26.369L26.521 216.083H26.8251C26.8251 216.083 29.5615 216.387 33.5143 216.387C38.0751 216.387 44.3082 216.083 49.7811 214.41C54.798 213.042 58.5987 210.914 61.1832 208.633C63.7676 206.353 65.1359 204.225 65.1359 202.4V202.096C64.9838 200.424 64.2237 198.904 62.8555 197.84C61.4872 196.775 59.5109 196.015 56.9264 196.015H22.1122V196.167L10.5582 195.863C10.5582 195.407 10.4061 194.343 10.2541 192.519C10.1021 190.238 9.95006 186.742 9.95006 182.181C9.95006 181.725 9.95006 181.269 9.95006 180.813C9.95006 175.948 10.5582 173.059 11.1663 171.539C11.4703 170.779 11.7744 170.323 11.9264 170.019L12.2305 169.715C13.2947 169.562 26.8251 168.042 42.6359 165.002C58.2947 161.961 76.0818 157.704 86.4197 151.775C87.1798 151.471 87.7879 151.167 88.548 150.863C91.1325 149.647 93.2609 148.583 94.3251 147.823C96.3014 146.302 97.6697 144.022 98.5818 141.894C99.0379 140.829 99.342 139.917 99.646 139.157C99.646 138.853 99.798 138.549 99.798 138.397C113.632 135.052 163.193 123.498 204.697 118.785C226.285 116.353 252.585 114.681 278.43 113.312C278.43 116.505 277.67 144.63 277.67 162.569C277.67 166.826 277.67 170.323 277.822 172.907C278.278 187.198 279.19 205.593 279.19 205.593L280.254 210.458L282.991 218.819H283.143L283.599 241.167Z"
        fill="transparent" />
    <path
        d="M282.532 92.1817L281.924 101.759L278.731 112.705C252.735 114.074 226.434 115.746 204.846 118.178C163.495 122.739 114.238 134.293 100.099 137.638C100.099 137.486 100.099 137.334 100.099 137.182V136.878C100.099 136.726 99.9473 136.574 99.7953 136.574C99.4912 136.27 99.0352 135.965 98.123 135.509C95.8426 134.141 91.5858 132.165 88.3933 132.165H88.2412C83.6804 132.317 46.8899 136.27 35.3358 139.158H35.1838L35.0318 139.31C35.0318 139.31 26.5183 148.584 26.2142 162.114V162.722H26.8223C26.8223 162.722 50.5385 161.354 60.1162 159.834C64.9811 159.074 72.4304 156.793 79.2716 154.209C79.5757 154.057 79.8798 154.057 80.1838 153.905C69.846 158.313 55.4034 161.658 42.6331 164.09C34.4237 165.611 26.8223 166.827 21.1973 167.587C15.5723 168.347 12.0757 168.803 12.0757 168.803C11.9237 168.955 9.49124 170.476 9.49124 180.357V181.726C9.49124 190.695 10.2514 195.56 10.2514 195.56V195.712L22.2615 196.168C22.2615 203.77 25.4541 212.587 26.2142 214.715H10.8595C10.8595 214.411 11.0115 214.259 11.0115 213.955C11.0115 213.195 10.8595 211.827 10.5554 209.851C9.79529 204.378 8.27502 195.864 8.27502 195.408V195.256L4.17029 195.104L3.41016 175.036L4.32232 174.58L5.08245 174.124L5.23448 173.972H5.38651C5.99462 173.516 7.81894 172.148 8.27502 169.563C8.7311 166.827 12.2277 153.145 13.4439 148.888C14.052 146.759 15.4203 144.175 15.4203 141.895C15.4203 140.83 15.1162 139.918 14.2041 139.158C13.596 138.55 12.6838 138.094 11.3156 137.942C15.7243 134.445 36.096 119.547 74.5588 109.513C118.647 98.1107 177.329 90.0533 190.403 89.1412C202.718 88.381 210.927 85.9486 211.991 85.6445L226.282 87.7729C243.613 91.7256 254.255 92.7898 260.488 92.7898C266.873 92.7898 268.849 91.7256 269.001 91.5736C269.762 90.9655 270.522 90.5094 271.282 89.9013L282.532 92.1817Z"
        fill="transparent" />
         <path
        d="M63.9193 202.102C63.9193 203.318 62.7031 205.446 60.2707 207.575C57.8383 209.703 54.1896 211.832 49.3247 213.2C44.0038 214.72 37.7707 215.024 33.3619 215.024C31.3856 215.024 29.7133 215.024 28.6491 214.872C27.8889 214.872 27.4329 214.872 27.1288 214.72C26.9768 214.416 26.8247 213.96 26.6727 213.2C25.6085 210.007 23.3281 202.862 23.3281 196.629H56.9261C59.3585 196.629 61.0308 197.237 62.247 198.149C63.4633 199.061 63.9193 200.278 64.0714 201.646L63.9193 202.102Z"
        fill="transparent" />
    </g>

   
    
    <g id="front-wheels">
        <circle cx="184.864" cy="212.005" r="62.485" fill="transparent" />
        <circle cx="184.866" cy="212.007" r="48.5304" fill="transparent" />
    </g>
    <g id="rear-wheels">
        <circle cx="708.481" cy="212.008" r="62.485" fill="transparent" />
        <circle cx="708.483" cy="212.011" r="48.5304" fill="transparent" />
    </g>
    <path id="bumper"
        d="M784.551 209.816L784.549 209.798L784.049 203.298L784.048 203.281L784.046 203.266L783.546 199.766L782.544 193.754L782.537 193.715L782.525 193.678L782.025 192.178L780.529 187.192L780.523 187.171L780.515 187.15L778.515 182.15L778.51 182.138L778.504 182.124L775.004 174.624L774.986 174.587L774.964 174.554L768.944 165.756L894.518 154.341L898.511 155.228L897.553 165.288L896.555 173.777H896.554V173.786L896.056 178.764L895.558 181.754L895.531 181.914L895.604 182.06L897.104 185.06L899.026 188.906L898.565 191.215L896.07 201.195L895.011 204.374L895.604 205.56L895.624 205.6L895.65 205.636L897.124 207.601L897.551 208.454V209.129L896.763 209.916L892.394 211.858L883.442 213.848L866.963 217.343L844.972 220.842L785.682 228.311L785.551 225.313L785.55 225.303L785.549 225.291L784.551 214.312V209.816Z"
        fill="transparent" stroke="#3265B1" />
    <path id="lights" d="M872.577 80.4102L875.486 93.501L873.521 125.461H820.576L837.359 97.8164L865.605 79.4805L872.577 80.4102Z"
        fill="transparent" stroke="#3265B1" />
    <path id="trunk"
        d="M813.7 70.7781L866.568 74.3808C867.168 74.3808 867.968 74.4808 868.768 74.4808C869.468 74.4808 870.168 74.5808 870.168 74.5808H870.268C870.368 74.5808 870.568 74.5808 870.768 74.6808C871.168 74.6808 871.668 74.7808 872.268 74.8808C873.368 74.9808 874.768 75.1808 875.668 75.2808L884.886 76.3665L884.768 77.9476L883.568 81.1476V81.2476V81.3476C883.368 82.9476 883.168 85.4476 882.968 87.5476C882.868 88.5476 882.768 89.5476 882.668 90.2476C882.668 90.5476 882.568 90.8476 882.568 91.0476C882.568 91.1476 882.568 91.2476 882.568 91.2476V91.3476V93.6476H881.968L879.168 93.9476H878.868L878.768 94.2476L878.568 94.8476V94.9476V96.1476C878.668 99.7476 878.768 105.248 878.868 109.748C878.868 112.048 878.968 114.048 878.968 115.548C878.968 116.248 878.968 116.948 878.968 117.348C878.968 117.548 878.968 117.748 878.968 117.848C878.968 117.948 878.968 117.948 878.968 117.948C878.968 118.148 879.168 123.048 879.268 125.948H874.668V124.048L875.268 119.548L875.468 112.248L876.068 103.448C876.068 101.948 876.168 99.6476 876.168 97.6476C876.168 96.6476 876.168 95.8476 876.168 95.1476C876.168 94.8476 876.168 94.5476 876.168 94.3476C876.168 94.2476 876.168 94.1476 876.168 94.1476C876.168 94.1476 876.168 94.1476 876.168 94.0476C876.168 93.9476 876.168 93.9476 876.168 93.8476V93.7476C876.168 93.6476 876.168 93.5476 876.168 93.3476L876.068 92.5476C876.068 92.2476 875.968 91.6476 875.868 91.2476C875.868 91.0476 875.868 90.8476 875.768 90.6476C875.768 90.5476 875.768 90.5476 875.768 90.4476V90.3476V90.2476V90.1476C875.768 90.0476 875.768 89.9476 875.668 89.8476C875.568 89.5476 875.568 89.2476 875.468 88.9476C875.368 88.6476 875.268 88.3476 875.268 88.0476L875.168 87.6476L873.968 82.2476L873.368 79.5476L873.268 79.1476H872.268L865.268 78.1476H865.068L864.868 78.2476L860.568 81.1476L809.529 70.5312L813.7 70.7781ZM875.768 90.6476C875.768 90.7476 875.768 90.7476 875.768 90.6476Z"
        fill="transparent" />
    <path
        d="M875.768 90.6476C875.868 90.8476 875.868 91.0476 875.868 91.2476C875.968 91.6476 876.068 92.2476 876.068 92.5476L876.168 93.3476C876.168 93.5476 876.168 93.6476 876.168 93.7476V93.8476C876.168 93.9476 876.168 93.9476 876.168 94.0476C876.168 94.1476 876.168 94.1476 876.168 94.1476C876.168 94.1476 876.168 94.2476 876.168 94.3476C876.168 94.5476 876.168 94.8476 876.168 95.1476C876.168 95.8476 876.168 96.6476 876.168 97.6476C876.168 99.6476 876.068 101.948 876.068 103.448L875.468 112.248L875.268 119.548L874.668 124.048V125.948H879.268C879.168 123.048 878.968 118.148 878.968 117.948C878.968 117.948 878.968 117.948 878.968 117.848C878.968 117.748 878.968 117.548 878.968 117.348C878.968 116.948 878.968 116.248 878.968 115.548C878.968 114.048 878.868 112.048 878.868 109.748C878.768 105.248 878.668 99.7476 878.568 96.1476V94.9476V94.8476L878.768 94.2476L878.868 93.9476H879.168L881.968 93.6476H882.568V91.3476V91.2476C882.568 91.2476 882.568 91.1476 882.568 91.0476C882.568 90.8476 882.668 90.5476 882.668 90.2476C882.768 89.5476 882.868 88.5476 882.968 87.5476C883.168 85.4476 883.368 82.9476 883.568 81.3476V81.2476V81.1476L884.768 77.9476L884.886 76.3665L875.668 75.2808C874.768 75.1808 873.368 74.9808 872.268 74.8808C871.668 74.7808 871.168 74.6808 870.768 74.6808C870.568 74.5808 870.368 74.5808 870.268 74.5808H870.168C870.168 74.5808 869.468 74.4808 868.768 74.4808C867.968 74.4808 867.168 74.3808 866.568 74.3808L813.7 70.7781L809.529 70.5312L860.568 81.1476L864.868 78.2476L865.068 78.1476H865.268L872.268 79.1476H873.268L873.368 79.5476L873.968 82.2476L875.168 87.6476L875.268 88.0476C875.268 88.3476 875.368 88.6476 875.468 88.9476C875.568 89.2476 875.568 89.5476 875.668 89.8476C875.768 89.9476 875.768 90.0476 875.768 90.1476V90.2476V90.3476V90.4476C875.768 90.5476 875.768 90.5476 875.768 90.6476ZM875.768 90.6476C875.768 90.7476 875.768 90.7476 875.768 90.6476Z"
        stroke="transparent" />

        <g id="doors">
    <path
        d="M344.963 85.0156C344.963 88.2129 344.233 90.4967 343.504 91.9888C343.352 92.2933 343.2 92.5674 343.063 92.7957L340.873 92.9937C340.889 92.9176 340.919 92.8262 340.919 92.7501C340.965 92.4912 341.026 92.2324 341.071 91.9584C341.086 91.8518 341.117 91.73 341.132 91.6082C341.178 91.2884 341.238 90.9839 341.284 90.649C341.421 89.6746 341.527 88.6393 341.573 87.5582C341.603 87.0406 341.634 86.5229 341.649 85.9901L341.664 85.4724C341.679 85.0612 341.679 84.6502 341.679 84.2391C341.679 81.6052 341.512 78.8646 341.178 76.3067C340.691 72.7592 338 70.4602 335.354 69.0138C334.533 68.5723 333.697 68.1916 332.922 67.9023C333.165 67.9327 333.393 67.9785 333.621 68.0089C334.275 68.1155 334.883 68.2677 335.461 68.42C336.039 68.5875 336.586 68.7854 337.088 68.9833C337.331 69.0746 337.574 69.1812 337.817 69.3031C337.924 69.3488 338.03 69.3944 338.137 69.4553C338.167 69.4705 338.182 69.4705 338.198 69.4858C338.258 69.5162 338.304 69.5467 338.365 69.5771C338.456 69.6228 338.562 69.6837 338.654 69.7294C338.821 69.8359 338.973 69.9274 339.14 70.0187C339.186 70.0491 339.231 70.0796 339.277 70.1101C339.429 70.2166 339.581 70.3231 339.733 70.4297C339.916 70.5668 340.098 70.7038 340.265 70.8561C340.387 70.9627 340.509 71.0693 340.63 71.191C340.721 71.2671 340.797 71.3433 340.889 71.4194C341.162 71.6935 341.406 71.9675 341.664 72.2568V72.272C341.801 72.4395 341.938 72.6069 342.059 72.7896C342.303 73.1399 342.531 73.5053 342.743 73.8707C342.835 74.0229 342.911 74.1752 343.002 74.3427C343.048 74.4493 343.093 74.5406 343.139 74.6472C343.2 74.769 343.26 74.8907 343.306 75.0126C343.458 75.378 343.595 75.7434 343.732 76.124C343.808 76.3524 343.869 76.596 343.945 76.8244C343.945 76.8701 343.96 76.9157 343.975 76.9615C344.036 77.1594 344.097 77.3725 344.158 77.5704C344.264 77.9815 344.355 78.3926 344.416 78.8189C344.507 79.2757 344.553 79.7629 344.614 80.2348C344.72 81.0418 344.796 81.864 344.857 82.671C344.857 82.7318 344.872 82.7927 344.872 82.8537C344.872 82.9298 344.887 83.0059 344.887 83.082C344.902 83.3713 344.918 83.6758 344.933 83.9651C344.948 84.3152 344.963 84.6806 344.963 85.0156Z"
        fill="transparent" />
    <path
        d="M340.615 86.4786C340.585 86.9809 340.57 87.4986 340.539 88.0011C340.494 88.5035 340.448 88.9907 340.403 89.4627C340.372 89.8433 340.327 90.2087 340.266 90.5589C340.22 90.9091 340.174 91.2441 340.114 91.579C340.053 91.9139 339.992 92.2337 339.931 92.5382C339.886 92.7361 339.84 92.9188 339.81 93.1015L333.105 93.7257L332.953 93.741H332.907L331.797 93.7106H331.782L331.888 93.8323L317.795 95.1569H317.779C317.719 95.1265 317.658 95.0808 317.597 95.0352C317.399 94.8981 317.217 94.7459 317.034 94.5632C316.654 94.2282 316.289 93.8171 315.97 93.3908C315.803 93.1624 315.651 92.9493 315.499 92.7209C315.21 92.2642 314.936 91.7769 314.678 91.305C314.541 91.0613 314.434 90.8177 314.328 90.5893C314.222 90.3458 314.115 90.1022 314.024 89.8738C313.629 88.9451 313.355 88.0772 313.173 87.4681C313.081 87.1485 313.02 86.9048 312.96 86.7374C312.929 86.6612 312.914 86.6003 312.914 86.5699V86.4023L340.615 86.4786Z"
        fill="transparent" />
    <path
        d="M340.676 84.2371C340.676 84.6482 340.676 85.0592 340.661 85.4703L312.884 85.379L312.777 79.2584C314.252 76.1372 317.901 73.214 321.565 71.0824C323.42 70.0167 325.26 69.1488 326.81 68.555C327.677 68.22 328.468 67.9764 329.106 67.8242H329.121C329.897 67.9917 332.421 68.6006 334.868 69.9101C337.407 71.2803 339.764 73.3662 340.159 76.4417C340.494 78.9539 340.676 81.6488 340.676 84.2371Z"
        fill="transparent" />
    <path
        d="M286.777 90.7369C300.46 81.2819 357.687 42.5944 396.974 29.1656C430.116 17.8359 471.568 14.2585 504.592 13.9609L488.348 93.8123L333.255 99.5675C333.285 99.5066 333.316 99.4304 333.346 99.3696C333.376 99.3087 333.407 99.2477 333.437 99.1716C333.498 99.0503 333.543 98.929 333.589 98.8077L333.589 98.8062C333.604 98.7605 333.635 98.7149 333.65 98.654L333.652 98.6493C333.727 98.4377 333.803 98.2261 333.863 98.0145V97.9993C333.863 97.9841 333.878 97.9841 333.878 97.9841C333.908 97.8166 333.954 97.6491 333.985 97.4969V97.4816C334.015 97.3294 334.03 97.1771 334.045 97.0401C334.045 97.0097 334.061 96.9792 334.061 96.9488V96.9335L334.064 96.897C334.078 96.7436 334.091 96.6015 334.091 96.4463C334.091 96.3397 334.061 96.2027 334.045 96.0809C334.061 95.9896 334.045 95.8982 334.03 95.8069V95.7612C334.015 95.6698 334 95.5632 333.985 95.4719C333.985 95.4566 333.969 95.4566 333.985 95.4414C333.969 95.3805 333.954 95.3044 333.924 95.2435C333.924 95.2283 333.908 95.1978 333.908 95.1826C333.893 95.137 333.878 95.076 333.863 95.0304C333.832 94.939 333.802 94.8628 333.772 94.7715L335.596 94.8172L335.839 96.7356L478.527 91.4524L496.559 16.833L495.89 16.8482C469.389 17.5486 430.27 20.6698 397.856 31.7539C377.954 38.5596 353.308 51.9883 332.145 64.7319L331.856 64.8994L332.084 66.7569C331.537 66.6959 330.974 66.6656 330.381 66.6351H330.26C330.092 66.6351 329.895 66.6503 329.697 66.6808C329.332 66.7264 328.906 66.8178 328.435 66.9396C328.405 66.9548 328.374 66.9548 328.329 66.9701L326.732 67.3202L327.036 67.3811C326.854 67.4572 326.656 67.5334 326.459 67.6095C324.041 68.523 321 70.0608 318.249 72.0097C315.497 73.9585 313.034 76.3031 311.817 78.9219L311.772 79.0285L311.878 85.3775L311.893 86.626V86.6868C311.893 86.6868 311.924 86.7782 311.969 86.9457C311.985 86.9913 312 87.0523 312.015 87.1284C312.045 87.235 312.091 87.372 312.121 87.5243C312.319 88.179 312.623 89.1686 313.079 90.2496C313.262 90.6759 313.444 91.1175 313.672 91.559C313.885 92.0006 314.128 92.4573 314.402 92.8836C314.934 93.7667 315.573 94.604 316.318 95.2892L316.226 95.3044L317.002 95.8525H317.017L317.2 95.9896L317.23 96.0048L317.336 96.0961C317.412 96.1571 317.504 96.2179 317.58 96.2637C317.625 96.2941 317.656 96.3093 317.701 96.3398C317.762 96.3854 317.808 96.4159 317.868 96.4616L317.869 96.4622C317.975 96.5381 318.082 96.614 318.203 96.6899C318.279 96.7509 318.37 96.8118 318.446 96.8574C318.659 97.0097 318.887 97.1467 319.115 97.299C319.146 97.3295 319.191 97.3446 319.237 97.3751C320.316 98.0907 321.517 98.8063 322.703 99.4762L322.709 99.4796C322.966 99.6307 323.222 99.7818 323.479 99.9177L283.371 101.41L283.964 92.7009C284.359 92.4269 285.317 91.7417 286.777 90.7369Z"
        fill="transparent" />
    <path
        d="M333.073 96.4487V96.6009C333.073 96.7227 333.058 96.8597 333.028 96.9968V97.012C333.028 97.1033 333.013 97.2099 332.982 97.3013C332.967 97.3926 332.952 97.4992 332.921 97.5906C332.876 97.7885 332.815 97.9712 332.754 98.1691C332.709 98.3213 332.648 98.4584 332.587 98.5954C332.572 98.6411 332.541 98.6867 332.526 98.7325C332.48 98.8391 332.42 98.9608 332.359 99.0674C332.313 99.174 332.252 99.2958 332.192 99.3871C332.176 99.4024 332.161 99.4176 332.161 99.4328C332.07 99.5546 331.994 99.6764 331.903 99.7983L331.69 100.088C331.067 100.864 330.322 101.306 329.729 101.29H329.668C328.999 101.275 327.874 100.894 326.566 100.316L326.141 100.118L325.973 100.042L325.836 99.9809L325.669 99.9047C325.35 99.7525 325.015 99.5851 324.681 99.4024C324.483 99.2958 324.286 99.1892 324.073 99.0826C323.906 98.9913 323.738 98.8999 323.571 98.8086C323.449 98.7325 323.328 98.6715 323.206 98.5954C322.917 98.4279 322.613 98.2605 322.324 98.093C322.081 97.9559 321.853 97.8189 321.625 97.6819C320.834 97.1947 320.074 96.7227 319.375 96.2507C319.268 96.1899 319.177 96.1289 319.086 96.0528L332.617 94.7891C332.678 94.8804 332.739 94.9718 332.785 95.0783C332.815 95.1241 332.845 95.1849 332.861 95.2458C332.906 95.322 332.937 95.4134 332.952 95.5047C332.962 95.5149 332.967 95.525 332.967 95.5351V95.5961C332.997 95.6569 332.997 95.7178 333.013 95.7788C333.028 95.8396 333.043 95.9006 333.043 95.9767C333.058 96.1289 333.073 96.2812 333.073 96.4487Z"
        fill="transparent" />
    <path
        d="M488.031 94.8516L485.218 104.048C434.711 105.981 381.756 108.113 361.17 109.102C340.402 110.107 310.633 111.158 280.18 112.711L283.205 102.434L325.335 100.866H325.35C327.038 101.688 328.528 102.251 329.622 102.312H329.729C330.839 102.297 331.827 101.581 332.572 100.607L488.031 94.8516Z"
        fill="transparent" />
    <path
        d="M310.692 225.756C314.037 225.756 317.473 225.71 320.848 225.71L478.983 225.329V217.215L284.359 218.996C285.591 221.919 288.799 223.594 293.284 224.569C298.058 225.574 304.216 225.756 310.692 225.756Z"
        fill="transparent" />
    <path
        d="M361.2 109.621C340.386 110.626 310.556 111.661 280.042 113.244C280.042 113.838 279.996 115.574 279.935 118.101C279.875 121.268 279.768 125.684 279.677 130.693C279.495 140.711 279.297 153.104 279.297 162.559C279.297 166.746 279.343 170.355 279.434 172.928C279.677 180.068 280.012 188.26 280.3 194.654C280.559 200.562 280.756 204.962 280.787 205.586L281.775 210.291L284.269 217.98L478.999 216.198L479.424 159.438L485.019 104.688L485.034 104.642L485.065 104.551C434.604 106.484 381.755 108.631 361.2 109.621Z"
        fill="transparent" />


    <path
        d="M508.595 13.9141C518.492 13.9141 527.539 14.2034 535.217 14.6602C569.045 16.6394 600.988 18.1625 647.253 40.3457C663.87 48.3084 674.148 55.6924 680.245 62.1631C686.357 68.6642 688.273 74.2065 688.273 78.5762C688.273 81.9104 687.163 84.5593 685.855 86.4473H685.841L487.766 93.7861L504.294 13.9326C505.744 13.9204 507.179 13.9141 508.595 13.9141ZM511.575 16.6699L501.312 90.5586L616.693 86.2803L623.429 33.1133L623.049 32.9609C589.798 20.5828 563.845 19.0601 536.768 17.4766L535.064 17.3857C527.767 16.9442 520.028 16.7156 512.031 16.6699H511.575ZM621.361 86.1123L657.987 84.7578H658.002C661.483 84.5143 663.962 83.1892 665.513 81.2861C667.063 79.3678 667.718 76.9321 667.718 74.4961C667.703 71.436 666.714 68.3603 665.148 66.1982C664.039 64.6757 661.514 62.5743 658.215 60.123C648.332 52.7845 631.594 42.6593 627.534 40.208L626.865 39.8125L621.361 86.1123Z"
        fill="transparent" />
    <path
        d="M685.021 87.5C684.625 88.5201 683.88 90.0579 682.877 91.961C682.33 93.0116 681.691 94.1839 681.007 95.4476C680.49 96.3763 679.943 97.366 679.35 98.4013C646.175 99.0255 610.051 99.6803 588.598 100.274C571.798 100.761 529.775 102.284 485.699 103.974L488.527 94.7777L685.021 87.5Z"
        fill="transparent" />
    <path
        d="M602.57 216.169V216.062L602.555 216.063L479.422 217.189V225.482C526.728 225.371 568.93 225.203 579.454 224.954C590.25 224.695 596.056 222.944 599.132 221.041C602.193 219.138 602.57 217.113 602.57 216.169Z"
        fill="transparent" />
    <path
        d="M588.615 100.791C571.8 101.263 529.686 102.785 485.549 104.49L485.458 104.764V104.78L479.848 159.469L479.422 216.168L602.542 215.042H602.557C602.603 214.981 602.694 214.889 602.785 214.783C603.287 214.235 604.199 213.245 605.294 212.057C605.568 211.768 605.841 211.448 606.145 211.144C606.297 210.976 606.449 210.824 606.586 210.657C608.669 208.388 610.995 205.891 612.166 204.673C612.333 204.475 612.485 204.323 612.607 204.216C612.653 204.156 612.698 204.11 612.744 204.064C612.774 204.018 612.957 203.79 613.2 203.47C613.443 203.151 613.762 202.709 614.143 202.161C614.918 201.08 615.937 199.588 617.138 197.822C619.555 194.305 622.687 189.646 625.895 184.819C632.311 175.166 639.092 164.798 641.144 161.266C641.312 160.976 641.54 160.596 641.829 160.139C642.011 159.834 642.209 159.484 642.452 159.104C642.908 158.358 643.455 157.475 644.079 156.47C644.383 155.967 644.717 155.434 645.067 154.871C645.25 154.582 645.417 154.308 645.599 154.003C645.964 153.425 646.344 152.816 646.739 152.176C648.321 149.618 650.145 146.68 652.122 143.498C653.11 141.899 654.128 140.239 655.193 138.534C658.355 133.419 661.761 127.892 665.106 122.395C667.888 117.828 670.625 113.275 673.164 109.028C673.665 108.175 674.167 107.338 674.654 106.515C675.368 105.282 676.083 104.079 676.767 102.907C676.995 102.511 677.223 102.13 677.436 101.75C677.877 100.989 678.303 100.243 678.713 99.5269C678.835 99.3137 678.956 99.1158 679.063 98.918C645.964 99.5269 609.992 100.182 588.615 100.791Z"
        fill="transparent" />
        </g>



    <path id="roof"
        d="M334.018 51.8734L338.578 57.2992L341.812 55.118L347.411 52.066L354.534 48.0331L364.747 42.717L373.206 38.4223L382.512 34.3108L391.485 30.5922L397.77 28.3662L403.688 26.4807L412.566 24.019L424.01 21.3217L440.246 18.5982L447.971 17.3674L465.412 15.3771L477.223 14.4082L489.112 13.8059L498.304 13.5596H508.396H521.067L545.028 14.7194L564.536 16.1841L582.578 18.581L597.47 21.6658L608.944 24.6397L617.266 27.3472L625.256 30.0326L642.115 37.2237L651.681 41.6712L661.919 47.2096L678.097 32.335L651.113 23.2967L647.542 21.7169L652.606 19.7259L659.185 17.1072L662.143 15.6769L655.17 14.108L638.784 10.2979L626.358 7.90727L607.457 4.99368L590.274 2.92676L574.635 1.78125L558.946 0.934561L540.469 0.465179H518.704L499.629 1.01191L480.304 1.93267L460.805 3.25234L442.701 5.04515L425.045 7.65825L411.623 9.97691L400.541 12.4171L392.473 14.3583L382.512 17.4469L376.894 19.2875L384.461 21.6819L393.155 24.3899L390.656 25.2708L374.994 32.1701L358.803 39.7023L348.878 44.3471L334.018 51.8734Z"
        fill="transparent" stroke="transparent" stroke-width="0.1" />
    <path
        d="M895.77 204.589L896.017 204.644C896.019 204.636 896.731 201.437 897.54 198.003C898.347 194.577 899.263 190.892 899.632 190.04L899.642 190.018L899.709 189.726L899.768 189.462L899.5 189.42C897.848 189.16 895.841 189.067 893.769 189.067C887.789 189.067 881.254 189.86 881.249 189.86L881.28 190.111L881.258 189.858L782.34 198.623L782.389 198.895C783.104 203.01 783.501 207.233 783.51 211.548V211.559L784.837 229.738L785.101 229.706C799.101 227.999 852.46 221.425 865.744 218.836C873.151 217.393 880.25 216.008 886.007 214.581C891.766 213.148 896.172 211.692 898.259 210.026L898.843 209.558L849.172 210.677L871.229 204.841H895.975L896.017 204.644L895.77 204.589V204.336H871.164L844.912 211.279L898.107 210.081L898.101 209.827L897.943 209.631C896.009 211.19 891.619 212.672 885.884 214.088C880.147 215.512 873.054 216.896 865.648 218.339C852.413 220.918 799.03 227.498 785.04 229.203L785.07 229.454L785.324 229.434L784.016 211.53L783.763 211.548H784.016C784.01 207.202 783.609 202.951 782.887 198.808L782.638 198.85L782.66 199.104L881.306 190.362H881.31C881.314 190.362 882.938 190.166 885.312 189.967C887.684 189.771 890.802 189.574 893.769 189.574C895.827 189.574 897.811 189.669 899.421 189.921L899.462 189.671L899.214 189.614L899.151 189.884L899.399 189.939L899.168 189.84C898.756 190.804 897.86 194.441 897.047 197.887C896.236 201.323 895.523 204.532 895.523 204.532L895.77 204.589Z"
        fill="#3265B1" />
    <path
        d="M878.84 185.959L878.856 186.21L879.319 186.18C886.063 185.728 890.79 185.616 893.821 185.616C896.803 185.616 898.127 185.726 898.131 185.724L898.581 185.76L898.378 185.359C897.395 183.408 896.241 181.643 896.239 181.639L896.027 181.777L896.278 181.807L899.552 153.678L899.294 153.654C899.292 153.654 898.293 153.556 897.21 153.429C896.14 153.303 894.942 153.127 894.699 153.023L894.662 153.115L894.739 153.05L894.699 153.023L894.662 153.115L894.739 153.05C894.723 153.039 894.642 152.849 894.589 152.583C894.384 151.637 894.253 149.648 894.178 147.919C894.103 146.186 894.078 144.702 894.078 144.698L894.074 144.448H893.825C891.496 144.448 889.361 144.477 887.322 144.489H887.113L887.075 144.694C885.753 151.704 881.506 173.966 878.593 185.898L878.512 186.234L878.856 186.21L878.84 185.959L879.085 186.017C882.005 174.059 886.252 151.801 887.571 144.789L887.322 144.742L887.324 144.996C889.367 144.984 891.5 144.955 893.825 144.955V144.702L893.572 144.706C893.572 144.708 893.604 146.784 893.718 148.896C893.774 149.952 893.851 151.018 893.957 151.843C894.01 152.257 894.068 152.61 894.139 152.879L894.261 153.23L894.51 153.494C894.916 153.65 896.051 153.798 897.15 153.931C898.238 154.061 899.244 154.158 899.246 154.158L899.27 153.907L899.019 153.877L895.765 181.839L895.816 181.914C895.816 181.916 896.099 182.35 896.507 183.029C896.914 183.709 897.441 184.627 897.926 185.586L898.151 185.472L898.171 185.219C898.165 185.219 896.815 185.109 893.821 185.109C890.778 185.109 886.039 185.223 879.284 185.673L878.822 185.705L878.84 185.959Z"
        fill="#3265B1" />
    <path
        d="M806.876 227.012H806.874C806.88 227.012 806.884 227.01 806.89 227.01L806.876 227.012ZM806.809 226.509C820.034 223.616 839.059 219.355 849.162 216.633C854.167 215.283 858.414 213.28 861.994 210.9L897.285 210.105L862.927 210.88C859.168 213.482 854.658 215.676 849.294 217.121C840.492 219.493 824.962 223.024 812.363 225.808C810.47 226.047 808.615 226.282 806.809 226.509ZM840.522 222.637C851.564 221.137 861.104 219.744 865.747 218.84C861.102 219.746 851.564 221.137 840.522 222.637ZM864.24 218.607C864.325 218.591 864.407 218.577 864.488 218.562C864.407 218.577 864.323 218.591 864.24 218.607ZM864.498 218.56C864.512 218.556 864.528 218.554 864.542 218.552C864.528 218.554 864.514 218.556 864.498 218.56ZM864.954 218.475C864.956 218.475 864.96 218.475 864.962 218.475C864.958 218.475 864.958 218.475 864.954 218.475ZM865.043 218.459C865.043 218.459 865.043 218.459 865.045 218.459H865.043ZM865.57 218.36C865.572 218.36 865.574 218.358 865.576 218.358C865.574 218.358 865.572 218.358 865.57 218.36Z"
        fill="#3265B1" />
    <path
        d="M806.876 227.012H806.874C806.88 227.012 806.884 227.01 806.89 227.01L806.876 227.012ZM806.809 226.509C820.034 223.616 839.059 219.355 849.162 216.633C854.167 215.283 858.414 213.28 861.994 210.9L897.285 210.105L862.927 210.88C859.168 213.482 854.658 215.676 849.294 217.121C840.492 219.493 824.962 223.024 812.363 225.808C810.47 226.047 808.615 226.282 806.809 226.509ZM840.522 222.637C851.564 221.137 861.104 219.744 865.747 218.84C861.102 219.746 851.564 221.137 840.522 222.637ZM864.24 218.607C864.325 218.591 864.407 218.577 864.488 218.562C864.407 218.577 864.323 218.591 864.24 218.607ZM864.498 218.56C864.512 218.556 864.528 218.554 864.542 218.552C864.528 218.554 864.514 218.556 864.498 218.56ZM864.954 218.475C864.956 218.475 864.96 218.475 864.962 218.475C864.958 218.475 864.958 218.475 864.954 218.475ZM865.043 218.459C865.043 218.459 865.043 218.459 865.045 218.459H865.043ZM865.57 218.36C865.572 218.36 865.574 218.358 865.576 218.358C865.574 218.358 865.572 218.358 865.57 218.36Z"
        fill="#3265B1" />
    <path
        d="M806.875 227.012H804.514L806.802 226.511C806.806 226.511 806.808 226.509 806.81 226.509C808.617 226.282 810.472 226.047 812.365 225.808C816.494 225.283 820.79 224.733 825.089 224.174C840.749 222.136 856.421 219.996 863.977 218.654C863.981 218.654 863.985 218.652 863.987 218.652C864.072 218.637 864.153 218.623 864.234 218.607C864.238 218.607 864.24 218.607 864.242 218.607C864.325 218.591 864.408 218.577 864.489 218.562C864.494 218.56 864.498 218.56 864.5 218.56C864.516 218.556 864.53 218.554 864.544 218.552C864.548 218.55 864.552 218.55 864.556 218.55C864.565 218.548 864.573 218.546 864.581 218.546C864.589 218.544 864.599 218.542 864.609 218.54C864.609 218.54 864.611 218.54 864.613 218.54C864.619 218.538 864.625 218.538 864.633 218.536C864.646 218.534 864.658 218.532 864.67 218.528C864.723 218.52 864.773 218.51 864.826 218.5C864.83 218.5 864.834 218.5 864.838 218.498C864.85 218.496 864.862 218.494 864.875 218.492C864.901 218.485 864.929 218.481 864.956 218.475C864.96 218.475 864.96 218.475 864.964 218.475C864.972 218.473 864.98 218.471 864.99 218.469C864.998 218.467 865.008 218.467 865.019 218.465C865.027 218.463 865.035 218.461 865.045 218.459H865.047C865.142 218.441 865.24 218.423 865.333 218.404C865.335 218.404 865.337 218.404 865.339 218.404C865.363 218.398 865.39 218.394 865.414 218.39C865.416 218.39 865.416 218.39 865.416 218.39C865.442 218.384 865.467 218.38 865.491 218.374C865.497 218.374 865.503 218.372 865.509 218.372C865.515 218.37 865.521 218.37 865.525 218.368C865.529 218.368 865.533 218.366 865.538 218.366C865.55 218.364 865.56 218.362 865.572 218.36C865.574 218.358 865.576 218.358 865.578 218.358C865.59 218.356 865.6 218.354 865.61 218.352C865.612 218.352 865.615 218.352 865.617 218.352C865.629 218.348 865.639 218.346 865.653 218.344C873.058 216.9 880.151 215.516 885.888 214.093C891.043 212.817 895.114 211.492 897.287 210.105L861.996 210.9C862.235 210.742 862.47 210.582 862.704 210.419L862.766 210.375L898.1 209.578L898.848 209.562L898.264 210.03C896.176 211.696 891.771 213.152 886.012 214.585C880.255 216.012 873.156 217.397 865.748 218.84C861.106 219.744 851.566 221.137 840.524 222.637C840.516 222.639 840.506 222.639 840.496 222.641C840.478 222.643 840.457 222.647 840.439 222.649C829.63 224.117 817.392 225.688 806.894 227.01H806.892C806.885 227.01 806.881 227.012 806.875 227.012Z"
        fill="#3265B1" />
    <path
        d="M868.629 205.531L869.274 205.361V205.363L868.629 205.531ZM869.274 205.363V205.361L871.234 204.842L869.274 205.363ZM869.073 204.891C873.014 200.642 875.57 195.987 876.965 191.86C877.076 191.528 877.196 191.142 877.323 190.719L877.865 190.67C877.717 191.173 877.577 191.631 877.445 192.022C876.091 196.03 873.666 200.508 869.975 204.651L871.169 204.337L869.073 204.891Z"
        fill="#3265B1" />
    <path
        d="M868.629 205.531L869.274 205.361V205.363L868.629 205.531ZM869.274 205.363V205.361L871.234 204.842L869.274 205.363ZM869.073 204.891C873.014 200.642 875.57 195.987 876.965 191.86C877.076 191.528 877.196 191.142 877.323 190.719L877.865 190.67C877.717 191.173 877.577 191.631 877.445 192.022C876.091 196.03 873.666 200.508 869.975 204.651L871.169 204.337L869.073 204.891Z"
        fill="#3265B1" />
    <path
        d="M868.418 205.586L869.014 204.945C869.032 204.927 869.048 204.909 869.065 204.891L871.161 204.337H895.564C895.732 203.587 896.352 200.82 897.044 197.889C897.846 194.489 898.73 190.903 899.146 189.881C897.587 189.658 895.708 189.575 893.766 189.575C890.798 189.575 887.68 189.772 885.308 189.969C882.934 190.167 881.311 190.364 881.307 190.364H881.303L877.856 190.67L877.315 190.719C877.35 190.601 877.384 190.482 877.421 190.36L877.469 190.196L881.246 189.861C881.25 189.861 887.786 189.069 893.766 189.069C895.837 189.069 897.844 189.162 899.497 189.421L899.764 189.464L899.705 189.727L899.638 190.019L899.628 190.042C899.259 190.893 898.343 194.578 897.536 198.004C896.727 201.438 896.016 204.637 896.014 204.645L895.971 204.842H871.226L869.265 205.361L868.621 205.531L868.418 205.586Z"
        fill="#3265B1" />
    <path
        d="M246.839 212.081H247.346C247.346 177.553 219.352 149.557 184.822 149.555C150.289 149.557 122.293 177.553 122.293 212.081C122.293 246.616 150.289 274.609 184.822 274.609C219.352 274.609 247.346 246.616 247.346 212.081H246.839H246.332C246.332 229.071 239.448 244.447 228.317 255.58C217.183 266.712 201.809 273.596 184.822 273.596C167.834 273.596 152.458 266.712 141.324 255.58C130.191 244.447 123.307 229.071 123.307 212.081C123.307 195.096 130.191 179.72 141.324 168.586C152.458 157.455 167.834 150.571 184.822 150.569C201.809 150.571 217.183 157.455 228.317 168.586C239.448 179.72 246.332 195.096 246.332 212.081H246.839Z"
        fill="#3265B1" />
    <path
        d="M230.527 197.236L231.01 197.078C224.341 176.557 205.303 163.508 184.831 163.51C179.858 163.51 174.799 164.28 169.814 165.9C149.293 172.567 136.248 191.603 136.248 212.073C136.248 217.048 137.019 222.105 138.638 227.09C145.305 247.613 164.34 260.66 184.813 260.66C189.787 260.66 194.845 259.89 199.83 258.27C220.351 251.601 233.398 232.566 233.398 212.093C233.398 207.121 232.628 202.063 231.01 197.078L230.527 197.236L230.045 197.392C231.63 202.274 232.384 207.224 232.384 212.093C232.384 232.136 219.611 250.778 199.518 257.305C194.634 258.893 189.682 259.647 184.813 259.647C164.77 259.647 146.129 246.871 139.602 226.778C138.016 221.895 137.262 216.942 137.262 212.073C137.262 192.032 150.034 173.391 170.128 166.863C175.011 165.278 179.962 164.524 184.831 164.524C204.876 164.524 223.518 177.297 230.045 197.392L230.527 197.236Z"
        fill="#3265B1" />
    <path
        d="M770.18 212.081H770.687C770.687 177.553 742.694 149.557 708.165 149.555C673.632 149.557 645.637 177.553 645.637 212.081C645.637 246.616 673.632 274.609 708.165 274.609C742.694 274.609 770.687 246.616 770.687 212.081H770.18H769.673C769.673 229.071 762.789 244.447 751.658 255.58C740.524 266.712 725.15 273.596 708.165 273.596C691.177 273.596 675.801 266.712 664.668 255.58C653.535 244.447 646.65 229.071 646.65 212.081C646.65 195.096 653.535 179.72 664.668 168.586C675.801 157.455 691.177 150.571 708.165 150.569C725.15 150.571 740.524 157.455 751.658 168.586C762.789 179.72 769.673 195.096 769.673 212.081H770.18Z"
        fill="#3265B1" />
    <path
        d="M753.856 197.236L754.338 197.078C747.669 176.557 728.636 163.508 708.163 163.51C703.189 163.51 698.131 164.28 693.146 165.9C672.625 172.57 659.578 191.605 659.578 212.075C659.578 217.05 660.348 222.107 661.968 227.09C668.636 247.613 687.673 260.66 708.143 260.66C713.118 260.66 718.175 259.89 723.16 258.27C743.683 251.603 756.728 232.566 756.728 212.095C756.728 207.123 755.958 202.063 754.338 197.078L753.856 197.236L753.375 197.392C754.96 202.274 755.715 207.226 755.715 212.095C755.715 232.138 742.941 250.778 722.848 257.305C717.965 258.893 713.012 259.647 708.143 259.647C688.1 259.647 669.459 246.871 662.931 226.778C661.346 221.895 660.592 216.944 660.592 212.075C660.592 192.032 673.365 173.393 693.46 166.863C698.342 165.278 703.294 164.524 708.163 164.524C728.206 164.524 746.846 177.297 753.375 197.392L753.856 197.236Z"
        fill="#3265B1" />
    <path
        d="M466.284 115.573L466.271 115.067C460.632 115.212 447.463 115.559 440.788 115.839C433.575 116.139 426.727 116.944 424.637 117.205L424.7 117.708H425.207V117.706H424.193V117.787V117.826L424.199 117.864C424.228 118.042 424.236 118.229 424.236 118.424C424.236 118.616 424.228 118.817 424.228 119.024C424.23 119.334 424.244 119.668 424.372 120.013C424.562 120.54 425.045 120.982 425.791 121.231C426.543 121.491 427.599 121.635 429.19 121.673C434.769 121.801 454.666 121.801 457.567 121.801C459.032 121.799 461.126 121.744 462.967 121.45C463.889 121.304 464.745 121.099 465.448 120.793C466.142 120.487 466.736 120.074 466.971 119.397C467.163 118.819 467.269 118.184 467.269 117.548C467.269 116.771 467.113 115.989 466.721 115.318L466.569 115.06L466.271 115.067L466.284 115.573L465.846 115.831C466.121 116.297 466.257 116.909 466.255 117.548C466.257 118.069 466.166 118.604 466.01 119.074C465.939 119.311 465.627 119.614 465.043 119.865C463.304 120.639 459.711 120.795 457.567 120.787C454.672 120.787 434.761 120.787 429.215 120.66C427.165 120.619 426.109 120.353 425.677 120.068C425.458 119.924 425.381 119.808 425.32 119.656C425.264 119.504 425.241 119.293 425.241 119.024C425.241 118.845 425.25 118.644 425.25 118.424C425.25 118.203 425.241 117.961 425.201 117.708L424.7 117.787H425.207V117.706H424.193V117.708V118.282L424.763 118.211C426.837 117.951 433.664 117.15 440.83 116.85C447.49 116.573 460.66 116.224 466.296 116.08L466.284 115.573Z"
        fill="#3265B1" />
    <path
        d="M656.758 109.202L656.746 108.695C651.106 108.839 637.936 109.188 631.262 109.466C624.05 109.768 617.2 110.573 615.112 110.832L615.175 111.335H615.682V111.333H614.668V111.416V111.454L614.674 111.493C614.702 111.669 614.711 111.854 614.711 112.046C614.711 112.243 614.702 112.446 614.702 112.657C614.702 112.967 614.719 113.301 614.846 113.646C615.037 114.173 615.519 114.613 616.265 114.86C617.017 115.12 618.076 115.263 619.663 115.302C625.244 115.43 645.14 115.43 648.039 115.43C649.503 115.428 651.599 115.373 653.44 115.079C654.36 114.931 655.219 114.728 655.923 114.422C656.616 114.114 657.208 113.703 657.445 113.023C657.636 112.448 657.743 111.813 657.743 111.177C657.741 110.4 657.585 109.616 657.196 108.947L657.044 108.687L656.746 108.695L656.758 109.202L656.32 109.458C656.594 109.924 656.73 110.538 656.73 111.177C656.73 111.698 656.641 112.233 656.482 112.703H656.484C656.413 112.94 656.101 113.242 655.517 113.492C653.774 114.266 650.182 114.424 648.039 114.416C645.146 114.416 625.236 114.416 619.687 114.288C617.64 114.248 616.584 113.982 616.152 113.696C615.933 113.555 615.856 113.439 615.795 113.287C615.736 113.137 615.714 112.926 615.716 112.657C615.716 112.476 615.724 112.271 615.724 112.046C615.724 111.827 615.716 111.588 615.675 111.337L615.175 111.416H615.682V111.333H614.668V111.335V111.911L615.238 111.84C617.309 111.58 624.139 110.777 631.305 110.479C637.962 110.202 651.135 109.853 656.77 109.709L656.758 109.202Z"
        fill="#3265B1" />
    <path
        d="M258.983 211.608H259.236C259.192 170.405 225.658 136.9 184.444 136.898C143.205 136.9 109.656 170.45 109.655 211.597H109.909L109.655 211.591L109.102 233.726L109.345 233.742C111.145 233.858 112.442 233.941 113.077 233.981L113.34 233.998L113.898 211.693V211.691C113.898 192.208 121.794 174.573 134.56 161.806C147.327 149.039 164.963 141.143 184.444 141.143C203.927 141.143 221.563 149.039 234.331 161.806C247.098 174.573 254.996 192.208 254.996 211.691V211.697L256.301 241.922H260.55L259.236 211.597L258.983 211.608L258.73 211.62L260.019 241.415H256.786L255.5 211.681L255.249 211.691H255.502C255.502 172.447 223.688 140.636 184.444 140.636C145.203 140.636 113.391 172.447 113.391 211.691H113.645L113.391 211.685L112.839 233.722L113.093 233.728L113.109 233.477C112.473 233.436 111.177 233.353 109.378 233.235L109.361 233.489L109.615 233.495L110.162 211.601V211.597C110.162 191.164 118.492 172.617 131.943 159.177C145.395 145.737 163.963 137.405 184.444 137.405C225.377 137.405 258.685 170.687 258.73 211.61V211.614V211.62L258.983 211.608Z"
        fill="#3265B1" />
    <path
        d="M638.676 241.918H634.434V211.689C634.434 170.448 667.983 136.898 709.224 136.896C744.349 136.898 773.877 161.239 781.868 193.937L781.939 194.225L781.643 194.249C780.126 194.379 778.861 194.486 777.894 194.567L777.679 194.586L777.627 194.377C769.905 163.787 742.21 141.139 709.224 141.141C689.741 141.141 672.107 149.037 659.339 161.804C646.572 174.571 638.676 192.206 638.676 211.689V241.918ZM709.224 137.403C688.743 137.403 670.175 145.735 656.722 159.185C643.272 172.637 634.94 191.208 634.94 211.689V241.411H638.17V211.689C638.17 172.445 669.982 140.635 709.224 140.635C742.372 140.635 770.215 163.339 778.065 194.044C778.936 193.971 780.025 193.878 781.304 193.771C773.266 161.437 744.008 137.403 709.224 137.403Z"
        fill="#3265B1" />
    <path
        d="M638.676 241.918H634.434V211.689C634.434 170.448 667.983 136.898 709.224 136.896C744.349 136.898 773.877 161.239 781.868 193.937L781.939 194.225L781.643 194.249C780.126 194.379 778.861 194.486 777.894 194.567L777.679 194.586L777.627 194.377C769.905 163.787 742.21 141.139 709.224 141.141C689.741 141.141 672.107 149.037 659.339 161.804C646.572 174.571 638.676 192.206 638.676 211.689V241.918ZM709.224 137.403C688.743 137.403 670.175 145.735 656.722 159.185C643.272 172.637 634.94 191.208 634.94 211.689V241.411H638.17V211.689C638.17 172.445 669.982 140.635 709.224 140.635C742.372 140.635 770.215 163.339 778.065 194.044C778.936 193.971 780.025 193.878 781.304 193.771C773.266 161.437 744.008 137.403 709.224 137.403Z"
        fill="#3265B1" />
    <path
        d="M781.123 230.168L779.775 211.696V211.688C779.775 207.435 779.378 203.276 778.656 199.227L778.607 198.956L782.339 198.625L782.388 198.897C783.104 203.012 783.501 207.235 783.509 211.55C783.503 207.316 783.118 203.17 782.427 199.126L779.203 199.412C779.899 203.397 780.28 207.49 780.282 211.674L781.591 229.623L781.666 229.617C781.756 229.604 782.877 229.469 784.8 229.233L784.837 229.74L785.1 229.708C782.948 229.971 781.721 230.119 781.721 230.119L781.717 230.121H781.711L781.123 230.168Z"
        fill="#3265B1" />
    <path
        d="M781.123 230.168L779.775 211.696V211.688C779.775 207.435 779.378 203.276 778.656 199.227L778.607 198.956L782.339 198.625L782.388 198.897C783.104 203.012 783.501 207.235 783.509 211.55C783.503 207.316 783.118 203.17 782.427 199.126L779.203 199.412C779.899 203.397 780.28 207.49 780.282 211.674L781.591 229.623L781.666 229.617C781.756 229.604 782.877 229.469 784.8 229.233L784.837 229.74L785.1 229.708C782.948 229.971 781.721 230.119 781.721 230.119L781.717 230.121H781.711L781.123 230.168Z"
        fill="#3265B1" />
    <path
        d="M784.837 229.738L784.801 229.231L783.51 211.559V211.548C783.501 207.233 783.104 203.01 782.389 198.895L782.34 198.623L782.616 198.599L782.634 198.597L782.847 198.579L782.887 198.808C783.607 202.947 784.008 207.196 784.016 211.54L785.34 229.675L785.101 229.706L784.837 229.738Z"
        fill="#3265B1" />
    <path
        d="M342.428 94.3856L342.779 94.7505C342.846 94.6917 345.96 91.6347 345.956 84.9288C345.956 84.57 345.948 84.2031 345.929 83.824C345.745 80.1549 345.368 76.0275 343.245 72.6807C341.123 69.3237 337.225 66.8708 330.359 66.5769H330.255C329.892 66.5769 329.471 66.6458 328.994 66.7532L326.689 67.2681L329.002 67.7425C329.692 67.8844 332.315 68.4865 334.835 69.8487C337.365 71.2171 339.726 73.303 340.13 76.3722C340.464 78.8777 340.636 81.5637 340.636 84.1484C340.638 88.0446 340.239 91.7219 339.44 94.1646L339.232 94.8133L342.627 94.8984L342.779 94.7505L342.428 94.3856L342.441 93.8788L339.935 93.816L339.923 94.3228L340.405 94.4788C341.257 91.8557 341.648 88.1175 341.65 84.1484C341.65 81.5191 341.476 78.7926 341.135 76.2383C340.655 72.6867 337.971 70.39 335.317 68.9568C332.651 67.5195 329.953 66.9033 329.205 66.7512L329.104 67.2479L329.215 67.7405C329.651 67.6431 330.028 67.5884 330.255 67.5904H330.314C336.977 67.8986 340.442 70.1751 342.39 73.224C344.34 76.283 344.741 80.2359 344.916 83.8727C344.934 84.2355 344.942 84.5862 344.942 84.9288C344.942 88.1216 344.208 90.4042 343.483 91.8881C343.122 92.6301 342.761 93.1713 342.495 93.524L342.179 93.9112L342.096 94.0004L342.076 94.0207L342.428 94.3856Z"
        fill="#3265B1" />
    <path
        d="M339.914 94.3237L340.397 94.4798C341.122 92.2459 341.511 89.2071 341.613 85.8988L341.629 85.3798L311.842 85.2967L311.858 86.4907L311.86 86.5454L311.872 86.5961C311.876 86.6143 312.239 88.2239 313.05 90.166C313.865 92.108 315.108 94.3926 316.977 95.7548C318.734 97.0279 321.201 98.5909 323.559 99.8619C325.933 101.129 328.13 102.112 329.584 102.197L329.695 102.199C330.903 102.183 331.953 101.336 332.74 100.239C333.522 99.1301 334.051 97.7151 334.056 96.3407C334.056 95.4447 333.818 94.5507 333.234 93.829L332.841 94.1473L332.829 94.6541L340.279 94.8386L340.397 94.4798L339.914 94.3237L339.926 93.8169L331.757 93.6142L332.448 94.4656C332.855 94.9704 333.04 95.615 333.042 96.3407C333.046 97.4455 332.586 98.7064 331.913 99.6531C331.242 100.612 330.364 101.202 329.695 101.186L329.632 101.184C328.57 101.149 326.338 100.217 324.039 98.97C321.728 97.7232 319.284 96.1745 317.571 94.9339C315.967 93.7824 314.757 91.6356 313.985 89.7767C313.597 88.8462 313.316 87.9908 313.129 87.3705C312.945 86.7502 312.861 86.3731 312.859 86.3711L312.365 86.4846L312.872 86.4765L312.87 86.3143L341.104 86.3914L341.106 85.8846L340.599 85.8683C340.502 89.1138 340.113 92.0877 339.432 94.1656L339.914 94.3237Z"
        fill="#3265B1" />
    <path
        d="M12.7162 140.52L12.2261 140.39C12.1255 140.773 11.3748 142.9 10.4002 145.875C9.42146 148.863 8.20517 152.752 7.13442 156.79C4.98703 164.911 4.57511 173.631 4.57349 173.65L4.5293 174.578L5.33307 174.112C5.37888 174.079 7.90413 172.638 8.47823 169.553C8.98259 166.776 12.3868 153.153 13.6064 148.894C14.22 146.707 15.5449 144.112 15.5599 141.837C15.567 140.799 15.248 139.778 14.4014 139.022C13.5581 138.265 12.2737 137.787 10.4016 137.588L8.08779 137.345L10.0904 138.529C10.0904 138.529 10.2283 138.61 10.443 138.75C10.7651 138.961 11.2522 139.301 11.637 139.65C11.8293 139.824 11.995 140.001 12.0979 140.147L12.2246 140.4H12.268L12.2261 140.39L12.2246 140.4H12.268L12.2261 140.39L12.7162 140.52L13.2056 140.651L13.2382 140.4C13.2246 139.948 12.9935 139.632 12.7424 139.33C11.9735 138.45 10.6266 137.673 10.6059 137.655L10.3487 138.093L10.2948 138.596C12.0511 138.78 13.1202 139.226 13.7219 139.774C14.3205 140.321 14.5401 140.98 14.5464 141.837C14.5622 143.721 13.3007 146.313 12.6315 148.614C11.398 152.934 8.00792 166.49 7.48126 169.37V169.372C7.24773 170.662 6.58404 171.631 5.96879 172.281C5.66249 172.606 5.36936 172.849 5.1563 173.009L4.90534 173.185L4.82547 173.236L5.07967 173.674L5.58565 173.698C5.58565 173.696 5.611 173.163 5.68296 172.227C5.89683 169.421 6.52951 163.037 8.11394 157.049C9.17659 153.037 10.3882 149.17 11.3631 146.192C12.341 143.204 13.0696 141.156 13.2056 140.651L12.7162 140.52Z"
        fill="#3265B1" />
    <path
        d="M10.787 214.287L11.2938 214.293V214.247C11.2922 213.529 11.114 212.071 10.8505 210.213C10.0592 204.66 8.4811 195.767 8.4811 195.763L7.47461 195.854L7.53096 217.602L8.09067 217.541C8.12878 217.535 8.86119 217.458 9.64591 217.024C10.4268 216.606 11.2843 215.724 11.2938 214.293L10.787 214.287L10.2802 214.279C10.2565 215.303 9.73936 215.795 9.1527 216.138C8.86119 216.302 8.55955 216.404 8.33454 216.46L8.06614 216.519L7.9814 216.533L8.03613 217.036L8.54293 217.034L8.48819 195.85L7.9814 195.852L7.48252 195.941C7.48414 195.949 8.18331 199.892 8.8841 204.163C9.235 206.3 9.58489 208.516 9.84701 210.356C10.1099 212.189 10.2826 213.675 10.2802 214.247V214.281L10.787 214.287Z"
        fill="#3265B1" />
    <path
        d="M23.04 196.252V196.759C23.0447 196.759 24.862 196.759 27.6747 196.759C36.1112 196.759 53.453 196.759 57.2065 196.759C59.6241 196.761 61.3298 197.383 62.4693 198.318C63.6071 199.252 64.209 200.511 64.3632 201.892L64.3752 202.115C64.3967 203.374 63.2223 205.516 60.7666 207.608C58.3198 209.71 54.6353 211.805 49.7534 213.185C44.364 214.714 38.2563 215.074 33.7578 215.072C31.8083 215.072 30.1604 215.005 29.0011 214.939C27.8418 214.872 27.1799 214.805 27.1783 214.805L27.1276 215.31L27.6003 215.125C27.5995 215.123 27.3494 214.482 26.9684 213.372C25.8249 210.047 23.5427 202.563 23.5468 196.252H23.04H22.5332C22.5403 204.967 26.6494 215.464 26.6557 215.494L26.768 215.784L27.0777 215.814C27.0895 215.814 29.8128 216.086 33.7578 216.086C38.3111 216.086 44.4899 215.727 50.0297 214.16C55.0415 212.743 58.852 210.588 61.4271 208.377C63.9927 206.157 65.3667 203.919 65.3888 202.115L65.3705 201.78C65.1956 200.177 64.4695 198.644 63.1115 197.533C61.7541 196.42 59.795 195.745 57.2065 195.745C54.7042 195.745 46.1623 195.745 38.2468 195.745C34.2884 195.745 30.4866 195.745 27.6747 195.745C24.862 195.745 23.0447 195.745 23.04 195.745H22.5332V196.252H23.04Z"
        fill="#3265B1" />
    <path
        d="M35.7918 139.761L35.4179 139.418C35.3847 139.463 26.9253 148.664 26.6291 162.24L26.6172 162.785L27.1637 162.755C27.1738 162.755 50.8688 161.441 60.5224 159.927C65.3892 159.163 72.8756 156.874 79.684 154.387C83.0866 153.142 86.3149 151.849 88.9543 150.667C91.5967 149.483 93.6334 148.429 94.7206 147.598C96.739 146.045 98.1368 143.766 99.0482 141.739C99.5035 140.725 99.8353 139.773 100.055 138.996C100.275 138.212 100.386 137.64 100.39 137.261L100.35 136.967C100.276 136.775 100.201 136.716 100.12 136.627C99.8217 136.335 99.2786 135.966 98.5049 135.506C96.1935 134.153 92.037 132.209 88.7333 132.195L88.5663 132.197C84.0503 132.299 47.1589 136.333 35.6659 139.27L35.5201 139.306L35.4179 139.418L35.7918 139.761L35.9168 140.251C47.1962 137.356 84.2585 133.298 88.5876 133.211H88.5884L88.7333 133.209C90.8016 133.203 93.5067 134.141 95.6747 135.165C96.7605 135.674 97.7171 136.201 98.4043 136.631C98.7473 136.843 99.0236 137.034 99.2073 137.176L99.4037 137.344L99.4291 137.371L99.6596 137.196L99.3879 137.287L99.4291 137.371L99.6596 137.196L99.3879 137.287L99.6127 137.212L99.3759 137.237L99.3879 137.287L99.6127 137.212L99.3759 137.237L99.3768 137.261C99.3808 137.427 99.2882 137.999 99.0806 138.721C98.4662 140.912 96.8325 144.711 94.1029 146.793C93.1677 147.514 91.1462 148.579 88.5401 149.742C80.7142 153.247 67.4695 157.817 60.3657 158.925C55.6027 159.673 47.2753 160.381 40.1542 160.898C36.5931 161.155 33.3306 161.368 30.959 161.514C28.5874 161.662 27.1114 161.743 27.1074 161.743L27.1351 162.25L27.6419 162.26C27.7804 155.684 29.913 150.138 32.0153 146.235C33.0662 144.285 34.1082 142.747 34.8858 141.699C35.2746 141.173 35.5969 140.772 35.8211 140.502C36.0443 140.235 36.1647 140.103 36.1647 140.103L35.7918 139.761Z"
        fill="#3265B1" />
    <path
        d="M896.025 181.776L896.529 181.835L899.832 153.451L899.317 153.402C899.315 153.402 898.317 153.305 897.239 153.177C896.7 153.112 896.14 153.039 895.684 152.968C895.234 152.901 894.847 152.816 894.79 152.788L894.66 153.114L894.934 152.887L894.79 152.788L894.66 153.114L894.934 152.887L894.814 152.986L894.946 152.903L894.934 152.887L894.814 152.986L894.946 152.903C894.94 152.905 894.865 152.711 894.819 152.443C894.626 151.48 894.498 149.516 894.425 147.825C894.352 146.131 894.33 144.697 894.33 144.693L894.328 144.47L886.047 137.095L886.304 132.585L880.454 126.345L879.566 95.3844L884.01 94.9911L883.957 94.4803C883.957 94.4783 883.914 94.0749 883.874 93.3593C883.831 92.6457 883.789 91.626 883.789 90.4158C883.783 86.5216 884.245 80.6347 886.489 76.629L886.85 75.9824L886.116 75.881C886.104 75.879 848.623 70.6914 806.716 69.913L806.708 70.4198L806.916 69.9576C806.906 69.9535 747.81 43.1239 723.385 34.9362C699.018 26.7728 666.594 15.2261 636.723 9.3797C612.839 4.70707 582.932 -1.7013e-05 532.061 -1.7013e-05C519.381 -1.7013e-05 505.399 0.291882 489.881 0.948685C412.089 4.24284 377.726 17.8857 361.012 24.7071C352.62 28.131 322.001 43.1665 293.44 57.3648C264.888 71.5591 238.423 84.9019 238.423 84.9019L238.65 85.354L238.575 84.8532L226.791 86.5986L212.254 84.3951L212.143 84.4316C212.141 84.4316 211.636 84.5918 210.657 84.8492C207.718 85.6256 200.582 87.2676 190.738 87.9224C177.503 88.8083 118.882 96.9311 74.683 108.362C30.4487 119.806 10.0582 137.675 10.0106 137.718L9.48492 138.178L10.0874 138.535C10.0874 138.535 10.2252 138.616 10.4399 138.756C10.762 138.967 11.2492 139.307 11.6339 139.656C11.8263 139.83 11.9919 140.006 12.0949 140.152L12.2216 140.406H12.265L12.223 140.396L12.2216 140.406H12.265L12.223 140.396C12.1225 140.779 11.3718 142.905 10.3971 145.881C9.41843 148.869 8.20213 152.757 7.13138 156.795C4.984 164.916 4.57208 173.637 4.57046 173.655L5.07664 173.68L4.84453 173.23L2.60512 174.383L3.34321 196.078L7.47113 196.196L7.52424 217.039L8.03104 217.037L7.78717 216.593C7.77926 216.597 5.88893 217.637 3.98379 218.936C3.03041 219.587 2.07298 220.301 1.33428 220.998C0.964322 221.349 0.64849 221.695 0.410906 222.044C0.177376 222.393 0.00466249 222.749 0 223.161L0.0109469 223.327C0.0585854 223.71 0.285831 224.065 0.611191 224.318C1.18448 224.766 2.05008 225.058 3.40727 225.35C7.46566 226.21 16.0256 226.897 32.8756 228.432C57.1867 230.641 107.724 233.893 113.056 234.235L113.581 234.27L114.147 211.697V211.691C114.147 192.277 122.013 174.708 134.735 161.985C147.458 149.263 165.027 141.397 184.44 141.397C203.854 141.397 221.423 149.263 234.148 161.985C246.87 174.708 254.736 192.277 254.738 211.691V211.701L256.053 242.176H638.929V211.691C638.929 192.277 646.796 174.708 659.517 161.985C672.239 149.263 689.811 141.397 709.223 141.397C728.637 141.397 746.207 149.263 758.929 161.985C771.652 174.708 779.519 192.277 779.519 211.691V211.709L780.888 230.445L781.729 230.376H781.739L781.749 230.374C781.759 230.372 850.44 222.08 865.789 219.09C873.438 217.6 880.768 216.173 886.639 214.693C889.576 213.954 892.147 213.199 894.22 212.413C896.294 211.622 897.869 210.813 898.84 209.883L899.122 209.613L896.211 204.349L895.767 204.594L896.262 204.704C896.264 204.695 896.975 201.497 897.784 198.067C898.188 196.35 898.617 194.578 898.992 193.126C899.363 191.681 899.698 190.524 899.862 190.144C899.965 189.903 900 189.648 900 189.384C899.996 188.687 899.757 187.892 899.422 187.039C898.415 184.503 896.456 181.515 896.45 181.499L896.025 181.776L895.601 182.054C895.601 182.054 895.812 182.378 896.134 182.905C896.617 183.698 897.342 184.941 897.94 186.187C898.54 187.424 898.999 188.699 898.986 189.384L898.932 189.745C898.707 190.274 898.392 191.401 898.011 192.873C896.876 197.264 895.275 204.481 895.273 204.483L895.232 204.671L898.046 209.763L898.49 209.518L898.139 209.153C897.361 209.907 895.873 210.704 893.86 211.466C887.809 213.765 877.065 215.863 865.597 218.095C857.985 219.579 836.973 222.403 817.89 224.848C808.346 226.07 799.28 227.201 792.601 228.026C785.921 228.849 781.638 229.366 781.627 229.368L781.688 229.871L781.648 229.366L781.315 229.392L781.356 229.897L781.861 229.861L780.531 211.655L780.026 211.691H780.533C780.533 172.307 748.607 140.384 709.223 140.384C669.841 140.384 637.915 172.307 637.915 211.691V241.162H257.024L255.749 211.669L255.245 211.691H255.751C255.749 172.307 223.823 140.384 184.44 140.384C145.058 140.384 113.133 172.307 113.133 211.691H113.64L113.133 211.679L112.582 233.716L113.088 233.729L113.121 233.224C107.794 232.883 57.2509 229.63 32.9668 227.422C20.133 226.254 12.0925 225.573 7.25422 224.945C4.83743 224.631 3.21732 224.327 2.23617 224C1.746 223.838 1.42125 223.67 1.24387 223.526L1.01581 223.191L1.01358 223.161C1.00872 223.076 1.07217 222.871 1.24954 222.614C1.86317 221.689 3.64951 220.345 5.24753 219.311C6.04887 218.788 6.80764 218.33 7.36511 218.002C7.92258 217.675 8.2749 217.481 8.27571 217.481L8.53864 217.337L8.48229 195.21L4.32354 195.091L3.64019 174.989L5.30855 174.13L5.56904 173.996L5.58262 173.704C5.58262 173.702 5.60796 173.169 5.67993 172.232C5.89379 169.427 6.52647 163.043 8.11091 157.055C9.17355 153.043 10.3852 149.175 11.3601 146.197C12.338 143.209 13.0665 141.162 13.2026 140.657L13.2352 140.406C13.2216 139.954 12.9905 139.637 12.7393 139.335C11.9704 138.456 10.6236 137.679 10.6029 137.661L10.3457 138.099L10.6797 138.48C10.6805 138.478 10.9846 138.21 11.6197 137.708C16.0659 134.176 36.3861 119.317 74.9372 109.343C119.029 97.9346 177.691 89.8056 190.807 88.9339C204.038 88.0521 212.419 85.4067 212.447 85.3965L212.295 84.914L212.22 85.4147L226.789 87.6244L238.806 85.8445L238.879 85.8081C238.883 85.804 240.531 84.9728 243.459 83.5011C253.704 78.346 279.544 65.3681 304.649 52.9354C329.747 40.5028 354.136 28.6054 361.395 25.6437C378.065 18.8486 412.22 5.26047 489.924 1.96227C505.428 1.30547 519.397 1.01357 532.061 1.01357C582.874 1.01357 612.679 5.70848 636.529 10.375C666.292 16.1991 698.686 27.7296 723.063 35.8971C735.211 39.9676 756.083 48.7169 773.902 56.4445C782.811 60.3083 790.963 63.9186 796.884 66.56C799.844 67.8818 802.248 68.9622 803.912 69.7123C805.574 70.4623 806.495 70.8799 806.497 70.8799L806.592 70.9225L806.697 70.9266C827.616 71.3138 847.44 72.8038 862.031 74.1964C869.327 74.8938 875.313 75.5648 879.477 76.0634C883.641 76.5621 885.97 76.8844 885.976 76.8844L886.047 76.3817L885.603 76.1344C883.207 80.4503 882.781 86.4405 882.775 90.4158C882.775 92.8829 882.947 94.5695 882.947 94.5816L883.452 94.531L883.408 94.0262L878.526 94.46L879.451 126.759L885.269 132.962L885.007 137.527L893.487 145.08L893.823 144.701L893.316 144.709C893.316 144.714 893.349 146.791 893.464 148.91C893.521 149.97 893.598 151.038 893.704 151.876C893.756 152.295 893.817 152.654 893.892 152.944L894.03 153.341C894.097 153.459 894.16 153.611 894.413 153.728C894.681 153.83 895.04 153.891 895.526 153.97C896.957 154.193 899.213 154.409 899.22 154.409L899.268 153.907L898.765 153.848L895.502 181.9L895.601 182.054L896.025 181.776Z"
        fill="#3265B1" />
    <path
        d="M648.032 39.8865L648.251 39.4284C601.839 17.2066 569.648 15.6578 535.837 13.6833C528.138 13.2353 519.078 12.9434 509.145 12.9434C475.374 12.9454 431.5 16.2963 396.617 28.206C351.468 43.6307 283.176 91.8996 283.154 91.9098L282.957 92.0496L282.252 102.348L327.476 100.677L325.65 99.7894C322.929 98.4697 319.694 96.4648 317.571 94.9303C315.968 93.7788 314.758 91.632 313.985 89.7731C313.598 88.8426 313.316 87.9872 313.13 87.3669C312.945 86.7466 312.862 86.3695 312.86 86.3675L312.366 86.481L312.872 86.4729L312.755 79.0494L312.248 79.0575L312.708 79.2704C314.154 76.1283 317.843 73.1524 321.541 71.0198C323.387 69.9515 325.234 69.0859 326.791 68.4919C328.338 67.8959 329.631 67.5797 330.231 67.5858L330.304 67.5878C336.969 67.8959 340.434 70.1724 342.382 73.2213C344.332 76.2803 344.733 80.2333 344.908 83.87C344.926 84.2329 344.934 84.5836 344.934 84.9262C344.934 88.119 344.2 90.4016 343.475 91.8855C343.114 92.6274 342.753 93.1686 342.487 93.5214L342.171 93.9086L342.088 93.9978L342.068 94.018L342.42 94.3829L342.433 93.8761L331.757 93.6106L332.449 94.462C332.856 94.9668 333.041 95.6094 333.043 96.3351C333.047 97.4581 332.57 98.7434 331.879 99.6941L331.271 100.537L686.954 87.3831L687.1 87.1824C688.574 85.1329 689.849 82.1956 689.849 78.5325C689.851 73.8578 687.769 68.05 681.542 61.4495C675.312 54.843 664.935 47.4154 648.251 39.4284L648.032 39.8865L647.813 40.3447C664.424 48.2932 674.702 55.6701 680.804 62.1428C686.907 68.6217 688.833 74.168 688.835 78.5325C688.835 81.9564 687.647 84.6829 686.277 86.5905L686.689 86.8864L686.668 86.3796L332.27 99.4853L332.289 99.9921L332.7 100.288C333.505 99.1711 334.052 97.7318 334.056 96.3351C334.056 95.4391 333.819 94.5451 333.235 93.8254L332.842 94.1437L332.83 94.6505L342.619 94.8958L342.771 94.7478C342.838 94.689 345.952 91.632 345.948 84.9262C345.948 84.5674 345.94 84.2005 345.921 83.8214C345.737 80.1522 345.36 76.0249 343.237 72.678C341.115 69.321 337.217 66.8681 330.351 66.5742L330.231 66.5722C329.357 66.5803 328.048 66.931 326.428 67.5452C324.012 68.4676 320.971 69.9981 318.22 71.9401C315.473 73.8821 313.008 76.2235 311.788 78.8426L311.739 78.9481L311.861 86.5418L311.873 86.5925C311.877 86.6107 312.24 88.2203 313.051 90.1624C313.866 92.1044 315.108 94.389 316.977 95.7512C319.155 97.3263 322.412 99.3434 325.206 100.702L325.429 100.246L325.408 99.7387L283.341 101.294L283.953 92.3598L283.448 92.3253L283.74 92.7389C283.742 92.7369 284.804 91.9868 286.758 90.6367C300.428 81.1982 357.667 42.5705 396.945 29.1648C431.64 17.316 475.443 13.9549 509.145 13.957C519.058 13.957 528.099 14.2469 535.776 14.6969C569.605 16.6754 601.547 18.2019 647.813 40.3447L648.032 39.8865Z"
        fill="#3265B1" />
    <path
        d="M805.304 69.782L805.512 69.3198C796.412 65.2107 745.589 42.3787 723.39 34.9349C705.839 29.0541 684.101 21.4279 662.157 15.4315L661.991 15.3869L645.934 21.9205L647.215 22.3584C647.219 22.3604 648.63 22.8428 651.127 23.6983C668.605 29.6866 739.222 53.9072 749.765 57.9332C755.632 60.1712 767.235 63.2504 778.464 65.7844C789.7 68.3143 800.489 70.2908 804.841 70.2969L805.326 70.2867L807.461 70.1975L805.512 69.3198L805.304 69.782L805.283 69.2752L804.841 69.2833C800.72 69.2894 789.873 67.321 778.687 64.7951C767.493 62.2713 755.885 59.1859 750.126 56.9844C738.018 52.3625 647.549 21.4016 647.543 21.3995L647.379 21.8779L647.57 22.3482L662.214 16.3904L662.023 15.9221L661.889 16.4106C683.789 22.3928 705.506 30.0109 723.067 35.8958C745.159 43.299 796.015 66.1412 805.097 70.2421L805.304 69.782Z"
        fill="#3265B1" />
    <path
        d="M269.185 91.0596L269.479 91.4711C297.997 71.1812 328.942 54.5543 352.755 43.0055C364.662 37.2301 374.784 32.7237 381.93 29.6627C385.504 28.1322 388.332 26.9605 390.266 26.1759C392.199 25.3874 393.235 24.986 393.239 24.984L394.589 24.461L376.546 18.8234L376.39 18.8781C370.028 21.0513 365.009 23.0723 361.02 24.7022C352.627 28.1261 322.009 43.1616 293.448 57.3599C264.895 71.5542 238.431 84.897 238.431 84.897L238.658 85.3491L238.583 84.8483L224.076 86.9971L226.683 87.6012C244.044 91.615 254.624 92.6367 260.916 92.6367C267.379 92.6367 269.325 91.5603 269.436 91.4974L269.458 91.4853L269.479 91.4711L269.185 91.0596L268.931 90.6197L268.929 90.6217C268.804 90.6866 266.872 91.6252 260.916 91.6231C254.733 91.6231 244.22 90.6156 226.912 86.612L226.799 87.1066L226.872 87.6073L238.814 85.8396L238.887 85.8031C238.891 85.7991 240.539 84.9679 243.466 83.4962C253.711 78.3411 279.552 65.3632 304.656 52.9305C329.755 40.4979 354.143 28.6005 361.403 25.6388C365.386 24.013 370.383 22.002 376.716 19.837L376.552 19.3566L376.402 19.841L392.905 24.9961L393.055 24.5116L392.872 24.0393C392.852 24.0494 326.063 49.9709 268.891 90.646L269.185 91.0596Z"
        fill="#3265B1" />
    <path
        d="M272.849 85.2454L273.13 85.6649C300.394 67.3839 328.819 52.5005 350.424 42.1882C361.227 37.0331 370.325 33.0194 376.721 30.2969C379.92 28.9346 382.442 27.8947 384.165 27.1973C385.888 26.498 386.804 26.1432 386.808 26.1412L388.158 25.6161L371.791 20.5036L371.631 20.5624C367.453 22.0929 363.95 23.5058 361.012 24.7059C353.666 27.7021 329.322 39.5833 304.213 52.018C279.109 64.4506 253.27 77.4286 243.015 82.5877L241.807 83.1959L243.118 83.5304C248.344 84.8683 255.729 86.6137 260.671 87.1428C262.032 87.2907 263.276 87.3516 264.408 87.3516C270.234 87.3516 273.041 85.7217 273.106 85.6812L273.12 85.6731L273.13 85.6649L272.849 85.2454L272.591 84.8095L272.573 84.8196C272.32 84.9575 269.69 86.336 264.408 86.338C263.313 86.338 262.105 86.2772 260.779 86.1353C255.952 85.6204 248.571 83.8811 243.37 82.5492L243.244 83.0398L243.471 83.4918C253.724 78.3347 279.563 65.3568 304.661 52.9262C329.755 40.4976 354.136 28.6042 361.395 25.6425C364.329 24.4444 367.818 23.0376 371.979 21.5131L371.805 21.0388L371.653 21.5213L386.474 26.1513L386.624 25.6688L386.441 25.1965C386.421 25.2046 327.207 48.1866 272.567 84.8237L272.849 85.2454Z"
        fill="#3265B1" />
    <path
        d="M665.284 66.4641L665.693 66.1661C664.582 64.6498 662.059 62.5456 658.758 60.0968C648.874 52.7787 632.14 42.657 628.077 40.2204L627.406 39.819L621.902 86.0547L658.533 84.7005H658.541C662.032 84.4633 664.503 83.1396 666.06 81.232C667.617 79.3265 668.256 76.8878 668.256 74.4552C668.254 71.3983 667.26 68.3271 665.693 66.1661L665.284 66.4641L664.874 66.7621C666.295 68.7122 667.246 71.6212 667.242 74.4552C667.242 76.7176 666.646 78.915 665.276 80.5894C663.901 82.2619 661.75 83.4578 658.47 83.6889L658.507 84.1937L658.487 83.6889L623.05 84.9965L628.32 40.715L627.818 40.6562L627.556 41.09C630.256 42.7077 638.592 47.7472 646.76 53.0807C650.844 55.7464 654.884 58.4892 658.154 60.9117C661.42 63.324 663.932 65.4546 664.874 66.7621L665.284 66.4641Z"
        fill="#3265B1" />
    <path
        d="M537.286 18.0229L537.314 17.5161L535.618 17.4168C528.322 16.9891 520.576 16.76 512.573 16.7052L512.129 16.7032L501.865 90.4922L617.244 86.227L623.972 33.1233L623.595 32.9834C590.339 20.6157 564.395 19.0933 537.314 17.5161L537.286 18.0229L537.256 18.5277C564.343 20.1068 590.124 21.6191 623.242 33.9342L623.418 33.4578L622.916 33.395L616.346 85.2459L503.037 89.436L513.071 17.283L512.569 17.212L512.565 17.7188C520.554 17.7736 528.283 18.0026 535.559 18.4283L537.256 18.5277L537.286 18.0229Z"
        fill="#3265B1" />
    <path
        d="M397.991 32.2215L397.827 31.7411C377.934 38.5382 353.284 51.9459 332.116 64.6745L331.832 64.8448L332.193 67.7375L332.582 67.7882C338.143 68.518 341.052 70.829 342.718 73.7907C344.38 76.7585 344.745 80.458 344.909 83.8718C344.928 84.2347 344.936 84.5853 344.936 84.9279C344.936 88.1207 344.202 90.4033 343.476 91.8872C343.115 92.6292 342.754 93.1704 342.489 93.5231L342.173 93.9103L342.09 93.9995L342.069 94.0198L342.422 94.3847L342.434 93.8779L335.455 93.7036L335.819 96.6328L478.506 91.3561L496.531 16.8414L495.871 16.8596C469.367 17.5631 430.253 20.6727 397.827 31.7411L397.991 32.2215L398.153 32.7019C430.403 21.6883 469.448 18.5726 495.897 17.8732L495.885 17.3664L495.392 17.2468L477.701 90.3729L336.709 95.5848L336.606 94.7475L342.621 94.8975L342.773 94.7496C342.84 94.6908 345.953 91.6338 345.949 84.9279C345.949 84.5691 345.941 84.2022 345.923 83.8231C345.749 80.3749 345.404 76.5273 343.604 73.296C341.808 70.0586 338.501 67.5186 332.712 66.7827L332.647 67.2855L333.15 67.2226L332.88 65.0454L332.377 65.1083L332.637 65.5441C353.774 52.8317 378.398 39.4463 398.153 32.7019L397.991 32.2215Z"
        fill="#3265B1" />
    <path
        d="M343.34 93.1753L343.291 92.6706L332.863 93.6436L332.898 94.6552L342.622 94.8984L342.774 94.7484C342.798 94.7261 343.232 94.2964 343.767 93.445L344.315 92.5753L343.291 92.6706L343.34 93.1753L342.91 92.9058C342.667 93.2909 342.45 93.5768 342.298 93.7633L342.119 93.968L342.067 94.0227L342.421 94.3856L342.434 93.8788L341.493 93.8565L343.386 93.6801L343.34 93.1753Z"
        fill="#3265B1" />
    <path
        d="M332.29 99.9932L332.701 100.289C333.506 99.1722 334.051 97.7329 334.056 96.3382C334.058 95.4443 333.822 94.5543 333.243 93.8347L333.07 93.6218L316.202 95.1989L317.317 95.9896C319.482 97.5262 322.547 99.4094 325.209 100.703L325.43 100.247L325.41 99.7398L282.415 101.329L279.02 112.795L279.018 112.862C279.018 112.864 278.262 143.44 278.262 162.361C278.262 166.543 278.298 170.158 278.389 172.752C278.888 187.026 279.756 205.453 279.756 205.455L279.758 205.495L280.765 210.283L283.512 218.727L603.537 215.813L603.687 215.651C603.691 215.647 605.917 213.225 608.323 210.622C610.728 208.023 613.322 205.234 614.012 204.544C614.147 204.405 614.312 204.192 614.567 203.853C618.295 198.846 638.652 168.305 642.579 161.613C644.634 158.108 655.092 141.5 665.319 124.777C670.434 116.413 675.492 108.017 679.422 101.203C681.387 97.7958 683.069 94.7834 684.338 92.365C685.605 89.9405 686.457 88.1343 686.775 87.0436L686.971 86.3706L332.272 99.4864L332.29 99.9932L332.31 100.5L686.309 87.4085L686.288 86.9018L685.802 86.7599C685.536 87.6883 684.695 89.5006 683.44 91.8946C674.624 108.716 645.336 154.913 641.703 161.1C639.641 164.617 632.868 174.98 626.446 184.617C623.235 189.438 620.109 194.082 617.699 197.608C616.493 199.369 615.467 200.853 614.701 201.938C614.316 202.479 613.997 202.921 613.754 203.247C613.517 203.567 613.337 203.79 613.294 203.829C611.853 205.27 602.945 214.96 602.941 214.966L603.314 215.309L603.31 214.802L284.246 217.707L281.746 210.022L280.757 205.327L280.261 205.43L280.767 205.406C280.767 205.396 280.55 200.8 280.273 194.411C279.993 188.021 279.65 179.85 279.403 172.716C279.312 170.143 279.275 166.537 279.275 162.361C279.275 152.912 279.464 140.541 279.652 130.535C279.748 125.531 279.843 121.12 279.914 117.958C279.985 114.796 280.031 112.89 280.031 112.886L279.525 112.874L280.011 113.018L283.18 102.314L327.479 100.678L325.651 99.7905C323.062 98.5337 320.019 96.6646 317.903 95.1625L317.609 95.576L317.658 96.0808L332.894 94.6557L332.847 94.1529L332.452 94.4692C332.857 94.9719 333.042 95.6145 333.042 96.3382C333.046 97.4613 332.572 98.7445 331.88 99.6952L331.272 100.539L332.31 100.5L332.29 99.9932Z"
        fill="#3265B1" />
    <path
        d="M485.489 104.632L484.985 104.579L479.379 159.244L478.938 216.949L603.54 215.816L603.69 215.654C603.694 215.65 605.919 213.227 608.326 210.624C610.73 208.026 613.325 205.236 614.014 204.547C614.15 204.407 614.314 204.194 614.569 203.856C618.297 198.849 638.654 168.307 642.581 161.616C644.636 158.111 655.095 141.502 665.322 124.78C670.436 116.416 675.494 108.019 679.425 101.206C681.389 97.7983 683.071 94.7859 684.34 92.3675C685.607 89.943 686.459 88.1368 686.777 87.0462L686.974 86.3731L488.315 93.7176L484.991 104.531L484.985 104.579L485.489 104.632L485.974 104.78L489.071 94.7048L686.311 87.4111L686.291 86.9043L685.804 86.7624C685.539 87.6908 684.697 89.5031 683.442 91.8972C674.626 108.719 645.338 154.916 641.705 161.103C639.643 164.62 632.871 174.983 626.449 184.62C623.238 189.441 620.112 194.085 617.701 197.61C616.495 199.372 615.469 200.856 614.703 201.94C614.318 202.481 614 202.923 613.756 203.25C613.519 203.57 613.339 203.793 613.296 203.831C611.855 205.273 602.948 214.963 602.944 214.969L603.317 215.311L603.312 214.804L479.959 215.925L480.393 159.299L485.992 104.683L485.489 104.632Z"
        fill="#3265B1" />
    <path
        d="M579.825 224.946L579.819 224.695C553.894 225.305 337.337 225.427 320.824 225.427C317.44 225.427 314.008 225.473 310.666 225.473C304.177 225.473 298.028 225.297 293.258 224.279C288.48 223.258 285.144 221.409 284.122 218.143L283.881 218.218L283.883 218.472L479.628 216.515L603.318 215.565L603.316 215.311L603.071 215.378L603.095 215.51L603.123 215.923C603.117 216.87 602.746 218.887 599.651 220.791C596.553 222.692 590.705 224.44 579.819 224.695L579.825 224.946L579.831 225.2C590.766 224.942 596.693 223.197 599.916 221.225C603.144 219.254 603.638 217.016 603.63 215.923C603.63 215.512 603.565 215.263 603.559 215.244L603.509 215.056L479.624 216.009L283.536 217.969L283.637 218.295C284.76 221.839 288.322 223.744 293.153 224.774C297.996 225.808 304.167 225.98 310.666 225.98C314.013 225.98 317.445 225.934 320.824 225.934C337.341 225.934 553.885 225.812 579.831 225.2L579.825 224.946ZM899.273 153.906L899.297 153.653C899.297 153.653 898.295 153.556 897.213 153.428C896.143 153.302 894.944 153.126 894.701 153.022L894.665 153.114L894.742 153.049L894.701 153.022L894.665 153.114L894.742 153.049C894.726 153.039 894.645 152.848 894.592 152.582C894.387 151.636 894.255 149.647 894.18 147.918C894.105 146.185 894.081 144.701 894.081 144.697L894.079 144.585L885.792 137.202L886.049 132.68L880.207 126.448L879.325 95.7508L879.078 95.7528C878.089 95.7589 877.055 95.765 876.011 95.7711L875.757 95.7731V96.0245V96.1015C875.757 99.7869 875.336 107.375 874.912 114.032C874.701 117.362 874.488 120.46 874.33 122.724C874.172 124.991 874.067 126.42 874.067 126.424L874.318 126.442L874.32 126.189L819.503 125.834L819.501 126.087L819.72 126.215C819.722 126.211 820.671 124.593 822.135 122.116C824.334 118.4 827.693 112.765 830.746 107.814C833.793 102.872 836.57 98.5787 837.505 97.6523C837.862 97.2935 838.356 96.9002 838.938 96.4867L839.591 96.0204L838.788 96.0265C801.362 96.3022 757.079 96.7056 738.396 97.1536C703.243 97.9989 625.321 99.1828 589.15 100.196C552.973 101.212 399.849 107.127 361.138 108.986C322.437 110.847 252.514 112.856 205.119 118.115C163.049 122.779 112.876 134.606 99.7039 137.813L99.5494 137.851L99.5161 138.007C99.102 139.969 97.4279 144.567 94.2542 146.992C93.2327 147.776 91.0503 148.907 88.2479 150.144L88.2108 150.16L88.1784 150.188L88.3485 150.377L88.2122 150.164C78.3551 156.436 59.4122 161.151 42.9597 164.271C34.7323 165.834 27.1233 167.004 21.5715 167.78C16.0197 168.559 12.5372 168.944 12.5285 168.946L12.4699 168.952L12.42 168.984C12.3083 169.059 9.89396 170.699 9.81389 180.606C9.81085 181.074 9.80922 181.533 9.80922 181.981C9.80922 190.993 10.5337 195.879 10.5362 195.889L10.567 196.098L23.0357 196.507L23.0444 196.254H22.791C22.7949 204.894 26.8928 215.388 26.896 215.402L27.132 215.311V215.058H7.77638L7.78206 217.036H8.03545L7.91342 216.815C7.91342 216.815 6.93713 217.353 5.69306 218.127L5.24728 218.405L5.74212 218.581C6.88949 218.989 8.15891 219.337 9.2327 219.339L9.39345 219.337C10.6272 219.295 22.8101 219.141 34.6712 218.999C46.5359 218.857 58.0891 218.725 58.0891 218.725L58.0859 218.472L58.0218 218.717L71.0385 222.125L71.1025 221.879L71.1009 221.626C71.0971 221.626 69.5165 221.636 66.8479 221.65C58.8406 221.693 41.0726 221.78 27.0473 221.78C17.6994 221.78 10.0024 221.741 7.99572 221.626C5.35493 221.474 3.44331 221.125 2.13436 220.778L2.00543 220.744L1.90407 220.833C0.984753 221.648 0.283152 222.398 0.257812 223.162L0.266529 223.292C0.30687 223.606 0.485059 223.892 0.773931 224.119C1.78204 224.902 4.15525 225.358 9.13925 225.938C14.117 226.509 21.6728 227.156 32.9031 228.178C54.2985 230.124 96.0255 232.877 109.345 233.742L109.608 233.758L110.162 211.601V211.597C110.162 191.164 118.492 172.617 131.943 159.177C145.395 145.737 163.963 137.405 184.444 137.405C225.377 137.405 258.685 170.687 258.73 211.61V211.614L260.041 241.922H634.944V211.691C634.944 191.21 643.276 172.639 656.726 159.187C670.178 145.737 688.747 137.405 709.227 137.405C744.113 137.405 773.442 161.583 781.378 194.06L781.431 194.269L781.646 194.251C802.015 192.522 868.028 186.933 879.321 186.179C886.066 185.727 890.793 185.615 893.823 185.615C896.805 185.615 898.129 185.725 898.133 185.723L898.583 185.759L898.381 185.358C897.397 183.408 896.244 181.642 896.242 181.638L896.029 181.776L896.28 181.806L899.554 153.677L899.297 153.653L899.273 153.906L899.021 153.876L895.768 181.839L895.818 181.914C895.818 181.914 896.102 182.349 896.509 183.029C896.917 183.708 897.444 184.626 897.929 185.585L898.154 185.471L898.174 185.218C898.168 185.218 896.818 185.108 893.823 185.108C890.781 185.108 886.041 185.222 879.287 185.672C867.979 186.428 801.977 192.017 781.604 193.746L781.626 194L781.871 193.939C773.88 161.241 744.354 136.9 709.227 136.898C667.987 136.9 634.439 170.45 634.437 211.691V241.415H260.528L259.236 211.597L258.983 211.608H259.236C259.192 170.405 225.658 136.9 184.444 136.898C143.205 136.9 109.656 170.45 109.655 211.597H109.909L109.655 211.591L109.108 233.483L109.361 233.489L109.378 233.235C96.0604 232.372 54.3317 229.617 32.9481 227.673C20.1145 226.507 12.0754 225.826 7.2262 225.196C4.80232 224.881 3.1741 224.575 2.16132 224.239C1.65453 224.073 1.30464 223.896 1.08996 223.724C0.874679 223.55 0.793796 223.398 0.768456 223.225L0.764602 223.162C0.73987 222.763 1.33221 221.983 2.23572 221.214L2.06949 221.024L2.00543 221.269C3.35066 221.624 5.29553 221.979 7.96653 222.133C10.0119 222.248 17.6921 222.287 27.0473 222.287C45.7511 222.287 71.1041 222.133 71.1041 222.133L73.0267 222.12L58.1175 218.218H58.0834C58.0834 218.218 11.8759 218.743 9.37602 218.83L9.2327 218.832C8.26898 218.834 7.03059 218.504 5.9124 218.103L5.82685 218.342L5.96146 218.557C7.19357 217.79 8.15729 217.259 8.15729 217.259L8.28966 217.186L8.2848 215.565H27.5034L27.3688 215.22C27.3688 215.22 27.1154 214.569 26.7328 213.456C25.5871 210.118 23.2954 202.621 23.2978 196.254V196.009L10.7942 195.599L10.7863 195.852L11.0365 195.816C11.0365 195.812 10.8577 194.608 10.6771 192.272C10.4964 189.935 10.316 186.473 10.316 181.981C10.316 181.535 10.3176 181.078 10.3207 180.61C10.3604 175.694 10.9803 172.868 11.5781 171.289C11.8775 170.499 12.1697 170.02 12.3795 169.744L12.625 169.469L12.6836 169.418L12.6947 169.41L12.6552 169.353L12.6923 169.41H12.6947L12.6552 169.353L12.6923 169.41L12.5562 169.197L12.5838 169.449C12.5879 169.449 26.5778 167.9 43.0548 164.77C59.5351 161.638 78.4883 156.941 88.4839 150.592L88.5021 150.58L88.5195 150.563L88.3501 150.375L88.4523 150.608C91.2745 149.359 93.4624 148.234 94.5632 147.395C97.9007 144.82 99.5684 140.164 100.012 138.113L99.7641 138.06L99.8243 138.305C112.985 135.1 163.151 123.278 205.174 118.617C252.535 113.365 322.454 111.352 361.162 109.493C399.865 107.634 552.996 101.717 589.164 100.703C625.329 99.6896 703.251 98.5057 738.409 97.6604C757.081 97.2124 801.366 96.809 838.792 96.5333L838.79 96.2799L838.642 96.0731C838.048 96.4968 837.537 96.9022 837.146 97.2935C836.447 97.9949 835.019 100.101 833.219 102.915C827.831 111.342 819.283 125.96 819.283 125.96L819.062 126.339L874.553 126.698L874.572 126.46C874.572 126.456 876.264 103.529 876.264 96.1015V96.0245H876.011L876.013 96.2779C877.059 96.2718 878.091 96.2657 879.082 96.2596L879.08 96.0062L878.827 96.0143L879.706 126.655L885.532 132.868L885.271 137.419L893.659 144.889L893.828 144.701L893.574 144.705C893.574 144.705 893.607 146.783 893.72 148.895C893.777 149.951 893.854 151.018 893.959 151.843C894.012 152.256 894.071 152.609 894.142 152.878L894.264 153.229L894.513 153.493C894.918 153.649 896.053 153.797 897.152 153.931C898.241 154.06 899.248 154.158 899.248 154.158L899.273 153.906Z"
        fill="#3265B1" />
    <path
        d="M865.521 79.0106L865.246 78.5848C865.242 78.5889 858.209 83.1318 853.146 86.9125C850.666 88.7633 847.307 90.6404 844.234 92.3797C841.157 94.1292 838.386 95.7104 836.973 97.1132C836.592 97.4984 836.071 98.1937 835.394 99.1667C830.699 105.941 819.075 125.826 819.071 125.832L818.627 126.59L874.794 126.953L874.83 126.481C874.83 126.471 876.523 103.566 876.525 96.1057C876.523 95.3313 876.507 94.7231 876.464 94.2974C876.026 90.0302 873.614 80.0404 873.612 80.0282L873.531 79.6957L865.406 78.4815L865.246 78.5848L865.521 79.0106L865.446 79.5133L873.044 80.6485L873.119 80.1457L872.627 80.2654C872.627 80.2715 873.229 82.7628 873.884 85.7833C874.538 88.8018 875.248 92.3534 875.455 94.4008C875.491 94.7576 875.511 95.3495 875.511 96.1057C875.511 99.7809 875.088 107.369 874.664 114.022C874.453 117.348 874.242 120.446 874.082 122.71C873.924 124.975 873.819 126.402 873.819 126.406L874.323 126.442L874.327 125.935L819.511 125.581L819.507 126.088L819.945 126.345C819.947 126.341 820.893 124.721 822.359 122.244C824.556 118.53 827.915 112.895 830.968 107.946C832.495 105.473 833.944 103.17 835.132 101.368C836.314 99.5722 837.265 98.2484 837.688 97.8308C838.903 96.6064 841.67 94.9928 844.735 93.2616C847.804 91.5223 851.187 89.637 853.752 87.7254C856.261 85.8502 859.274 83.7764 861.658 82.1729C864.042 80.5694 865.791 79.4403 865.795 79.4362L865.521 79.0106Z"
        fill="#3265B1" />
    <path
        d="M879.051 94.9203L879.073 95.1717L883.735 94.7581L883.711 94.5027C883.709 94.4987 883.541 92.8445 883.541 90.4139C883.537 86.4974 883.991 80.5862 886.273 76.5035L886.533 76.0392L886.008 76.1305C885.99 76.1386 878.262 77.4846 873.344 81.6261L873.227 81.7254L873.261 81.8775C873.962 84.9 875.39 91.2775 875.704 94.373C875.742 94.748 875.761 95.344 875.761 96.1041C875.761 99.7936 875.337 107.381 874.913 114.037C874.702 117.365 874.49 120.461 874.331 122.725C874.173 124.989 874.068 126.418 874.068 126.423L874.058 126.538L874.141 126.621C874.145 126.623 882.817 135.229 885.363 137.499L885.757 137.848L886.05 132.678L880.208 126.447L879.304 94.9122L879.051 94.9203L878.797 94.9284L879.707 126.654L885.534 132.867L885.28 137.294L885.534 137.31L885.702 137.12C884.443 135.999 881.637 133.28 879.154 130.848C876.667 128.413 874.504 126.266 874.498 126.26L874.319 126.441L874.573 126.459C874.573 126.455 876.265 103.54 876.267 96.1041C876.265 95.3338 876.249 94.7298 876.207 94.3223C875.886 91.162 874.459 84.7966 873.756 81.7619L873.508 81.8207L873.673 82.0133C876.048 80.0044 879.16 78.6522 881.674 77.8089C882.931 77.3873 884.038 77.0934 884.83 76.9028C885.623 76.7123 886.095 76.6312 886.095 76.6292L886.052 76.3798L885.829 76.2562C883.472 80.495 883.036 86.4589 883.034 90.4139C883.034 92.8688 883.206 94.5473 883.206 94.5554L883.458 94.5291L883.435 94.2757L878.791 94.6892L878.797 94.9284L879.051 94.9203Z"
        fill="#3265B1" />
    <path
        d="M885.539 137.311L885.707 137.12C884.448 135.999 881.643 133.281 879.159 130.848C876.672 128.414 874.509 126.267 874.503 126.261L874.43 126.19L840.684 125.971L840.769 126.291C841.586 129.391 844.744 134.554 855.908 139.04C869.244 144.406 876.686 145.002 885.717 145C888.243 145 890.893 144.953 893.834 144.953H894.501L885.707 137.12L885.539 137.311L885.369 137.499L893.666 144.888L893.834 144.7V144.447C890.886 144.447 888.237 144.493 885.717 144.493C876.708 144.489 869.392 143.913 856.096 138.57C845.02 134.112 842.03 129.072 841.259 126.161L841.014 126.226L841.012 126.48L874.325 126.695V126.441L874.146 126.622C874.15 126.624 882.822 135.229 885.369 137.499L885.539 137.311Z"
        fill="#3265B1" />
</svg>