<svg width="651" height="452" viewBox="0 0 651 452" fill="none" xmlns="http://www.w3.org/2000/svg">
<path id="trunk" d="M162.792 136.674C212.132 130.61 285.03 129.17 350.227 129.946C413.283 130.697 468.718 133.514 488.464 136.141L486.452 153.583L473.524 208.013L177.096 207.772L164.844 153.463L162.792 136.674Z" fill="transparent" stroke="#DEE7F4" stroke-width="1"/>
<g id="doors">
<path d="M126.04 46.6196L126.79 43.3086L125.041 44.6829L122.479 49.4932L114.733 63.8617L107.798 76.9183L100.114 91.4742L93.3674 103.906L85.8084 118.275L79.4362 129.894L73.8138 141.202L71.5648 142.701L62.5064 142.264L61.6943 133.83L60.8197 128.145L59.9451 124.022L57.5711 118.899L54.3851 114.651L50.9491 112.715L47.5132 112.152L39.4543 112.715L27.0225 114.651L19.2135 116.463L12.5915 119.274L6.71917 124.522L3.22075 129.644L1.84766 137.453V143.388L2.84503 148.761L5.22176 152.697L9.59176 154.383L19.5887 156.32L33.0824 157.257L45.5158 158.007L55.1345 159.006L57.5701 157.257L65.5067 149.261L68.3181 148.324L81.9979 142.701L91.7425 121.398L100.992 101.845L105.987 91.0369L111.797 77.4806L116.797 66.7979L123.917 51.4299L126.04 46.6196Z" fill="transparent" stroke="#DEE7F4" stroke-width="0.1"/>
<path d="M524.809 45.9634L524.059 42.6523L525.808 44.0267L528.369 48.837L536.116 63.2055L543.05 76.2621L550.734 90.818L557.481 103.25L565.04 117.618L571.412 129.238L577.035 140.545L579.284 142.045L588.342 141.607L589.154 133.174L590.029 127.489L590.904 123.366L593.277 118.243L596.464 113.995L599.899 112.058L603.335 111.496L611.394 112.058L623.826 113.995L631.635 115.807L638.257 118.618L644.129 123.866L647.628 128.988L649.001 136.797V142.732L648.004 148.105L645.627 152.04L641.257 153.727L631.26 155.664L617.766 156.601L605.333 157.35L595.714 158.35L593.279 156.601L585.342 148.604L582.531 147.667L568.851 142.045L559.106 120.742L549.857 101.188L544.862 90.3807L539.052 76.8243L534.051 66.1417L526.932 50.7736L524.809 45.9634Z" fill="transparent" stroke="#DEE7F4" stroke-width="0.1"/>
</g>
<g id="lights">
<path d="M165.9 175.409L170.917 196.179L172.96 204.872H85.2199H70.8105L74.6016 195.947L79.0363 184.104L83.8772 172.903L88.3701 162.694L91.6367 159.31L97.9371 155.402L109.429 151.143L114.737 149.16L119.989 145.426L128.214 138.309L132.706 135.917L154.058 129.848L158.609 132.94L158.959 135.917L160.359 151.434L162.284 158.726L165.9 175.409Z" fill="transparent"/>
<path d="M481.425 187.423L477.691 203.82V204.896H579.496L572.597 187.463L566.586 172.922L561.176 161.958L559.172 159.869L554.02 156.291L546.091 153.056L542.091 151.759L533.757 148.133L524.178 140.123L518.225 135.848L496.362 129.625L491.978 132.764L490.842 140.611L489.164 152.787L487.432 161.717L481.425 187.423Z" fill="transparent"/>
</g>
<path d="M165.9 175.409L170.917 196.179L172.96 204.872H85.2199H70.8105L74.6016 195.947L79.0363 184.104L83.8772 172.903L88.3701 162.694L91.6367 159.31L97.9371 155.402L109.429 151.143L114.737 149.16L119.989 145.426L128.214 138.309L132.706 135.917L154.058 129.848L158.609 132.94L158.959 135.917L160.359 151.434L162.284 158.726L165.9 175.409Z" stroke="#3265B1" stroke-width="0.1"/>
<path d="M481.425 187.423L477.691 203.82V204.896H579.496L572.597 187.463L566.586 172.922L561.176 161.958L559.172 159.869L554.02 156.291L546.091 153.056L542.091 151.759L533.757 148.133L524.178 140.123L518.225 135.848L496.362 129.625L491.978 132.764L490.842 140.611L489.164 152.787L487.432 161.717L481.425 187.423Z" stroke="#3265B1" stroke-width="0.1"/>
<g id="rear-wheels">
<path d="M48.5697 305.012L47.2885 299.956L47.0469 301.561V441.838L47.8494 447.135L50.4976 449.863L53.7879 451.308H110.284H117.827L120.877 449.703L122.963 446.493L123.605 441.838V379.805H86.5299L81.6881 379.201L76.8197 377.478L71.1219 372.823L66.3871 366.885L61.9734 358.86L58.5226 350.514L54.5101 335.266L52.5841 327.081L51.4606 320.099L49.6951 313.518L48.5697 305.012Z" fill="transparent"/>
<path d="M528.93 441.794V380.03L568.55 379.777L572.587 378.326L576.436 375.992L580.158 372.838L585.331 365.33L589.18 358.012L592.713 348.611L595.867 336.688L599.337 321.862L602.176 305.774L604.321 289.686L606.025 288.109V437.945V443.118L604.952 446.715L602.302 450.248L599.274 451.762H535.617L533.157 450.5L531.075 448.418L529.687 444.948L528.93 441.794Z" fill="transparent"/>
</g>
<path d="M48.5697 305.012L47.2885 299.956L47.0469 301.561V441.838L47.8494 447.135L50.4976 449.863L53.7879 451.308H110.284H117.827L120.877 449.703L122.963 446.493L123.605 441.838V379.805H86.5299L81.6881 379.201L76.8197 377.478L71.1219 372.823L66.3871 366.885L61.9734 358.86L58.5226 350.514L54.5101 335.266L52.5841 327.081L51.4606 320.099L49.6951 313.518L48.5697 305.012Z" stroke="#DEE7F4" stroke-width="0.1"/>
<path d="M528.93 441.794V380.03L568.55 379.777L572.587 378.326L576.436 375.992L580.158 372.838L585.331 365.33L589.18 358.012L592.713 348.611L595.867 336.688L599.337 321.862L602.176 305.774L604.321 289.686L606.025 288.109V437.945V443.118L604.952 446.715L602.302 450.248L599.274 451.762H535.617L533.157 450.5L531.075 448.418L529.687 444.948L528.93 441.794Z" stroke="#DEE7F4" stroke-width="0.1"/>
<path id="bumper" d="M162.602 241.598H130.647L119.168 241.424L107.877 240.964L102.887 240.596L99.8289 240.044L95.9658 239.01L91.7118 237.262L88.3775 235.1L85.963 232.916L84.4527 230.937L41.9727 239.808L44.0384 266.963L45.8978 287.49L48.4158 305.498L51.9745 324.273L55.0944 337.847L58.3228 348.849L60.5678 355.035L63.4143 361.822L68.5044 369.485L72.6094 374.138L76.824 377.039L81.5875 378.791L86.7315 379.502H123.625V396.904H528.901V379.454H541.284H567.202L573.014 377.616L578.055 374.235L580.961 371.033L585.113 364.865L588.968 357.332L591.311 351.235L596.728 333.18L599.863 317.882L602.505 301.479L605.512 277.767L607.71 249.544L608.456 239.751L565.177 230.922L561.806 234.513L558.655 236.709L555.028 238.469L551.327 239.751L546.784 240.52L541.801 240.922L535.975 241.143L526.558 241.436L518.757 241.623H489.589L468.3 241.356L467.125 243.679L464.961 246.324L461.435 249.075L456.734 251.265L452.327 252.708L447.145 253.295L444.917 253.507H211.749H204.039L200.332 253.179L196.198 252.425L192.064 250.85L188.39 248.783L185.962 246.683L183.731 244.223L181.697 241.27L162.602 241.598Z" fill="transparent" stroke="#3265B1" stroke-width="0.1"/>
<path id="roof" d="M119.32 59.5736L143.289 63.6635L150.31 37.2143L179.719 33.4586L219.377 30.4668L251.587 29.0663L273.612 28.5323H314.67H349.426H385.377L415.77 29.8456L457.491 32.4287L486.466 35.5171L499.842 37.034L506.774 63.6617L530.523 59.5976L529.146 56.3076L520.638 37.034L516.418 27.5741L513.606 23.1606L511.01 20.6078L506.293 17.1896L500.495 14.9396L496.428 13.3819L485.87 10.7858L476.914 9.27138L461.64 7.36756L441.001 5.80989L408.766 3.90606L382.848 2.69454L355.718 1.87243L346.112 1.52734H309.81L277.618 2.21981L245.426 3.64576L222.234 4.90166L197.874 6.41448L180.61 8.23321L163.389 10.9573L151.187 14.3344L142.447 18.3131L137.644 22.2954L134.442 26.5353L131.427 33.4801L119.32 59.5736Z" fill="transparent" stroke="#3265B1" stroke-width="0.1"/>
<path d="M648.173 131.029L648.948 130.781C646.728 123.905 639.295 117.642 632.341 115.742C625.899 114.023 609.132 111.454 602.605 111.445C602.237 111.445 601.894 111.454 601.585 111.471C598.452 111.683 595.759 114.115 593.659 117.121C591.56 120.149 590.057 123.833 589.555 126.924C588.912 130.885 588.316 138.048 587.983 142.455L588.795 142.517L588.775 141.702L577.117 141.957L594.95 159.793L595.332 159.757C601.686 159.18 611.636 158.355 616.278 158.355L617.025 158.365L617.703 158.372C621.234 158.372 626.874 157.791 632.23 156.963C637.6 156.129 642.601 155.076 645.013 154.006C647.765 152.718 648.929 149.458 649.584 146.628C650.217 143.776 650.256 141.236 650.256 141.203L650.259 141.145L648.971 130.852L648.948 130.781L648.173 131.029L647.364 131.13L648.632 141.292L649.441 141.19L648.626 141.177C648.626 141.177 648.619 141.767 648.534 142.713C648.407 144.131 648.107 146.312 647.439 148.272C646.774 150.247 645.727 151.916 644.345 152.516C642.298 153.445 637.264 154.541 631.983 155.353C626.691 156.174 621.071 156.745 617.703 156.741L617.064 156.735L616.278 156.725C611.486 156.728 601.565 157.553 595.185 158.134L595.257 158.945L595.834 158.368L580.967 143.502L589.552 143.316L589.607 142.576C589.936 138.194 590.543 131.022 591.162 127.185C591.609 124.401 593.043 120.86 594.996 118.05C596.945 115.22 599.414 113.205 601.683 113.098C601.95 113.081 602.26 113.075 602.605 113.075C608.803 113.065 625.73 115.65 631.917 117.316C638.301 118.998 645.483 125.124 647.393 131.273L648.173 131.029Z" fill="#DEE7F4"/>
<path d="M71.4715 142.729L71.4911 141.914L61.74 141.702L61.7237 142.517L62.5355 142.455C62.1997 138.048 61.6031 130.888 60.9608 126.924C60.4555 123.833 58.9526 120.149 56.8563 117.121C54.7568 114.115 52.0639 111.683 48.9308 111.471C48.6211 111.454 48.2819 111.445 47.9103 111.445C41.3834 111.454 24.6164 114.023 18.1743 115.742C11.2171 117.642 3.79053 123.905 1.57036 130.781L1.54744 130.852L0.259766 141.145V141.203C0.263026 141.236 0.30209 143.776 0.934563 146.628C1.58986 149.458 2.75048 152.718 5.50533 154.006C7.91459 155.076 12.9158 156.129 18.2852 156.963C23.6417 157.791 29.2818 158.372 32.8126 158.372L33.4939 158.365L34.2405 158.355C38.883 158.355 48.8297 159.18 55.1837 159.757L55.5651 159.793L73.3983 141.957L71.4911 141.914L71.4715 142.729L70.8945 142.152L54.6817 158.368L55.2587 158.945L55.3305 158.134C48.9504 157.553 39.0329 156.728 34.2405 156.725L33.4547 156.735L32.8126 156.741C29.4448 156.745 23.8242 156.174 18.5329 155.353C13.2515 154.541 8.21772 153.445 6.1736 152.516C4.32182 151.74 3.10254 148.963 2.52549 146.273C2.22881 144.943 2.06917 143.658 1.98441 142.713C1.89964 141.767 1.89311 141.177 1.88985 141.177L1.07481 141.19L1.88332 141.292L3.15476 131.13L2.34624 131.029L3.12212 131.273C5.03584 125.124 12.2148 118.998 18.5982 117.316C24.7893 115.65 41.7127 113.065 47.9103 113.075C48.2559 113.075 48.5689 113.081 48.8363 113.098C51.1021 113.202 53.57 115.22 55.5196 118.05C57.4725 120.86 58.9069 124.401 59.3535 127.185C59.9762 131.022 60.5794 138.194 60.912 142.579L60.9673 143.316L71.4553 143.544L71.4715 142.729Z" fill="#DEE7F4"/>
<path d="M214.846 211.307V211.715H434.421L443.563 153.576H203.314L214.506 211.715H214.846V211.307L215.247 211.229L204.299 154.391H442.607L433.724 210.9H214.846V211.307Z" fill="#DEE7F4"/>
<path d="M160.884 153.982L160.487 154.07L160.493 154.099L160.496 154.112L161.207 157.164L161.279 157.477H489.265L490.057 154.106L490.063 154.083L490.07 154.024L490.116 153.574H160.379L160.487 154.07L160.884 153.982V154.389H489.666V153.982L489.258 153.939V153.946L488.619 156.662H161.927L161.289 153.92L160.891 154.014L161.289 153.926L161.282 153.897L160.884 153.982Z" fill="#DEE7F4"/>
<path d="M473.593 220.58V220.173H176.027L180.513 238.984L180.516 238.994C180.526 239.036 181.508 242.753 185.113 246.476C188.716 250.202 194.962 253.906 205.372 253.902C226.006 253.902 432.309 253.902 443.632 253.902C455.045 253.886 467.47 248.797 469.41 239.333C470.29 234.935 472.223 227.342 473.987 220.681L473.593 220.577H473.185V220.58H473.593H474V220.577V217.444L473.198 220.473C471.434 227.14 469.498 234.733 468.611 239.176C466.906 247.966 454.856 253.1 443.632 253.087C432.309 253.087 226.006 253.087 205.372 253.087C195.155 253.081 189.169 249.485 185.697 245.908C183.962 244.119 182.861 242.329 182.196 240.989C181.863 240.32 181.638 239.763 181.498 239.378C181.358 238.99 181.305 238.788 181.302 238.785L180.911 238.889L181.306 238.795L177.061 220.988H474V220.58H473.593Z" fill="#DEE7F4"/>
<path d="M174.324 211.307V211.715H476.389L476.47 211.415C477.119 209.038 477.539 207.542 477.539 207.539V207.535L477.999 205.55L490.055 154.085L492.546 132.741L492.145 132.692C479.518 131.133 429.074 125.842 326.32 125.842C216.596 125.842 166.48 131.88 158.411 132.956L158.014 133.008L160.482 154.085L172.534 205.55L174.002 211.715H174.324V211.307L174.722 211.213L173.327 205.364L161.284 153.945L158.871 133.311L158.467 133.36L158.519 133.764C166.545 132.692 216.625 126.657 326.32 126.657C429.044 126.657 479.456 131.948 492.044 133.5L492.096 133.096L491.689 133.05L489.25 153.945L477.207 205.364L476.751 207.336L477.148 207.428L476.754 207.32C476.754 207.32 476.333 208.82 475.684 211.2L476.079 211.307V210.9H174.324V211.307Z" fill="#DEE7F4"/>
<path d="M91.9492 348.276L92.2882 348.503L92.6273 348.06C94.29 346.019 102.088 337.69 119.449 337.684C139.45 337.684 515.204 337.684 523.459 337.684C527.442 337.674 536.284 340.412 544.04 343.16C547.926 344.533 551.555 345.906 554.212 346.936C556.869 347.966 558.548 348.65 558.551 348.654L558.704 348.276V347.868H91.9492V348.276V348.683H560.787L558.857 347.897C558.854 347.897 552.102 345.145 544.311 342.391C536.506 339.64 527.726 336.882 523.459 336.869C515.207 336.869 139.45 336.869 119.449 336.869C99.2911 336.865 91.6491 347.979 91.6133 348.044L91.1797 348.683H91.9492V348.276ZM524.707 313.274V312.867C481.458 312.867 115.452 312.867 109.949 312.867C104.693 312.877 73.2554 317.881 52.5142 326.921L52.2109 327.055L52.2794 327.381C54.7995 338.988 57.7695 349.818 60.9612 357C68.2183 373.395 75.9319 379.84 87.0295 379.824H563.474C574.568 379.84 582.282 373.395 589.539 357C592.548 350.236 595.348 340.217 597.774 329.38L597.846 329.057L597.546 328.92C587.351 324.229 559.131 312.87 524.707 312.867V313.274V313.682C558.952 313.682 587.074 324.998 597.203 329.66L597.376 329.292L596.979 329.2C594.563 340.011 591.759 350 588.795 356.667C581.522 372.978 574.183 378.993 563.474 379.009H87.0295C76.3166 378.993 68.978 372.978 61.7046 356.667C58.5585 349.586 55.5885 338.782 53.0782 327.208L52.6772 327.293L52.8402 327.668C73.3825 318.693 104.931 313.672 109.949 313.682C115.452 313.682 481.458 313.682 524.707 313.682V313.274Z" fill="#DEE7F4"/>
<path d="M519.813 136.905L519.617 137.263C522.245 138.704 525.509 141.589 528.762 144.348C532.026 147.102 535.266 149.737 538.037 150.695C542.963 152.371 554.909 155.488 560.301 161.209L560.92 160.684L560.914 160.674L560.591 160.922L560.568 161.326L597.428 163.27L597.239 162.699C596.515 160.538 596.055 159.224 596.055 159.224L596.026 159.136L578.053 141.159L577.762 141.446L578.124 141.257C578.124 141.257 563.653 114.002 548.724 86.0655C533.789 58.1161 518.434 29.5374 516.579 26.75C515.865 25.6741 515.079 24.4255 513.984 23.0953L512.227 20.96L513.296 23.5127C521.185 42.3695 538.859 84.9994 541.597 94.7962C542.08 96.5274 542.318 98.327 542.318 100.192C542.331 111.068 534.167 124.105 519.549 136.595L519.099 136.98L519.617 137.263L519.813 136.905L520.077 137.214C534.777 124.64 543.12 111.482 543.133 100.192C543.133 98.2585 542.885 96.3807 542.383 94.5778C539.599 84.6375 521.945 42.0826 514.046 23.1997L513.671 23.3562L513.355 23.6137C514.414 24.8982 515.177 26.111 515.901 27.2031C517.681 29.87 533.088 58.5269 548.007 86.4502C555.469 100.417 562.818 114.214 568.301 124.519C571.043 129.674 573.319 133.951 574.91 136.944C576.498 139.937 577.404 141.638 577.404 141.638L577.433 141.694L595.384 159.644L595.671 159.357L595.286 159.491C595.289 159.494 595.746 160.798 596.466 162.96L596.854 162.829L596.874 162.422L559.737 160.469L560.272 161.173L560.594 160.929L560.891 160.648C555.205 154.663 543.179 151.608 538.301 149.922C535.771 149.062 532.531 146.473 529.287 143.725C526.037 140.977 522.773 138.072 520.009 136.549L519.813 136.905Z" fill="#DEE7F4"/>
<path d="M112.389 150.304L112.523 150.692C115.346 149.714 118.665 146.988 121.997 144.165C125.319 141.345 128.641 138.421 131.269 137.074C131.549 136.931 131.885 136.774 132.243 136.621L132.843 136.367L132.351 135.94C118.208 123.655 110.335 110.882 110.345 100.198C110.345 98.3303 110.583 96.5275 111.069 94.793C113.983 84.3344 133.903 36.5208 140.811 20.0667L141.408 18.6387L140.185 19.5842C136.804 22.1956 135.279 24.7581 133.955 26.7468C132.1 29.5342 116.745 58.1129 101.81 86.0623C86.8847 113.999 72.4095 141.254 72.4095 141.254L72.7714 141.443L72.4813 141.156L54.5081 159.132L54.4786 159.22C54.4753 159.22 54.0254 160.512 53.3114 162.644L53.1191 163.211L90.2036 161.261L90.3143 161.144C95.7327 155.462 107.61 152.361 112.523 150.692L112.389 150.304L112.259 149.919C107.394 151.595 95.4393 154.637 89.7242 160.58L90.021 160.864L89.9982 160.456L53.6766 162.367L53.6962 162.774L54.0841 162.901C54.7949 160.776 55.2447 159.494 55.248 159.488L54.8634 159.354L55.1502 159.641L73.1007 141.691L73.13 141.635C73.1333 141.632 74.0363 139.933 75.624 136.94C81.1891 126.469 95.1525 100.218 108.121 75.9884C121.081 51.7718 133.078 29.5277 134.633 27.1999C135.976 25.1819 137.414 22.7596 140.684 20.2297L140.436 19.9069L140.058 19.7505C133.143 36.2339 113.246 83.9693 110.283 94.5746C109.778 96.3807 109.53 98.2618 109.53 100.198C109.543 111.289 117.592 124.183 131.816 136.556L132.084 136.246L131.924 135.871C131.552 136.031 131.2 136.191 130.894 136.35C128.113 137.785 124.791 140.729 121.469 143.546C118.159 146.362 114.837 149.042 112.255 149.919L112.389 150.304Z" fill="#DEE7F4"/>
<path d="M607.601 224.773H608.009C608.009 224.764 608.012 210.477 606.45 197.466C605.231 187.363 599.689 170.068 597.227 162.7L597.139 162.439L559.579 160.46L560.283 161.203C560.847 161.797 561.356 162.403 561.757 163.039C563.954 166.517 568.489 177.201 572.444 186.959C574.419 191.842 576.258 196.504 577.604 199.944C578.947 203.387 579.795 205.6 579.798 205.604L580.177 205.46V205.053H569.555L569.623 205.519C569.878 207.237 570.129 209.623 570.129 212.349C570.132 217.777 569.128 224.539 565.219 230.052C561.31 235.564 554.509 239.897 542.694 240.484C530.726 241.071 516.388 241.267 502.594 241.267C489.994 241.267 477.843 241.104 468.359 240.927L468.076 240.921L467.971 241.182C464.985 248.736 453.943 253.101 443.618 253.088C432.295 253.088 225.992 253.088 205.358 253.088C190.208 253.075 184.343 245.195 182.26 241.136L182.143 240.908L181.888 240.911C172.3 241.097 159.84 241.267 146.9 241.267C133.106 241.267 118.768 241.071 106.797 240.484C94.9853 239.897 88.1845 235.564 84.2723 230.055C80.3666 224.542 79.3626 217.78 79.3658 212.352C79.3658 209.623 79.6168 207.237 79.8711 205.519L79.9395 205.053H70.3515V205.46L70.7329 205.604C70.7362 205.6 71.5805 203.387 72.927 199.944C76.95 189.635 85.459 168.278 88.7681 163.039C89.1821 162.387 89.7135 161.758 90.2971 161.148L91.0079 160.405L53.3822 162.383L53.2942 162.648C50.8458 169.983 45.2742 187.337 44.0549 197.466C42.4933 210.477 42.4966 224.764 42.4966 224.773H42.9041L42.516 224.643L40.9316 229.39L40.9382 229.471C40.9382 229.474 43.2757 264.776 45.3524 284.777C46.3403 294.303 48.2802 307.399 50.8231 320.277L50.9208 320.785L51.3903 320.57C71.8609 311.187 104.811 305.922 109.949 305.932C115.453 305.932 481.459 305.932 524.708 305.932C560.824 305.929 590.136 318.516 598.711 322.611L599.18 322.836L599.284 322.324C602.02 308.798 604.109 294.808 605.153 284.777C607.229 264.776 609.564 229.474 609.564 229.471L609.567 229.39L607.989 224.643L607.601 224.773L607.216 224.9L608.768 229.572L609.156 229.445L608.749 229.416C608.749 229.422 608.602 231.623 608.351 235.245C607.598 246.108 605.896 269.715 604.341 284.692C603.301 294.691 601.214 308.664 598.486 322.164L598.887 322.246L599.059 321.877C590.423 317.753 561.013 305.12 524.708 305.117C481.459 305.117 115.453 305.117 109.949 305.117C104.573 305.127 71.737 310.372 51.0512 319.827L51.2208 320.198L51.6217 320.12C49.0853 307.269 47.1489 294.189 46.1643 284.692C45.1276 274.706 44.0222 260.886 43.1811 249.564C42.7573 243.901 42.4021 238.867 42.151 235.245C41.8967 231.623 41.7532 229.422 41.7532 229.416L41.3457 229.445L41.7304 229.572L43.3083 224.839V224.773C43.3083 224.764 43.3083 221.21 43.504 216.026C43.6996 210.843 44.0875 204.035 44.8634 197.564C46.0566 187.588 51.625 170.214 54.0669 162.905L53.6789 162.778L53.7017 163.182L90.0233 161.272L90.0037 160.867L89.707 160.584C89.1006 161.22 88.5367 161.885 88.0802 162.602C85.7981 166.23 81.2958 176.868 77.3314 186.652C73.3703 196.429 69.9732 205.313 69.9732 205.313L69.7614 205.868H79.4669V205.46L79.0659 205.398C78.8051 207.149 78.5508 209.574 78.5508 212.352C78.5508 217.875 79.5581 224.803 83.6072 230.524C87.6596 236.256 94.7669 240.716 106.758 241.299C118.749 241.886 133.097 242.082 146.9 242.082C159.846 242.082 172.313 241.909 181.905 241.726L181.895 241.319L181.533 241.505C183.675 245.749 189.902 253.916 205.358 253.903C225.992 253.903 432.295 253.903 443.618 253.903C454.138 253.887 465.458 249.56 468.731 241.485L468.35 241.335L468.343 241.743C477.83 241.919 489.987 242.082 502.594 242.082C516.398 242.082 530.743 241.886 542.733 241.299C554.724 240.716 561.835 236.252 565.884 230.524C569.936 224.799 570.944 217.872 570.944 212.349C570.944 209.571 570.689 207.149 570.432 205.398L570.028 205.46V205.868H580.77L580.558 205.313C580.558 205.313 577.158 196.429 573.196 186.652C569.232 176.868 564.727 166.23 562.444 162.602C562.004 161.904 561.46 161.259 560.873 160.643L560.58 160.923L560.557 161.327L596.82 163.238L596.843 162.83L596.455 162.961C598.91 170.296 604.445 187.611 605.642 197.564C606.418 204.035 606.806 210.843 607.001 216.026C607.194 221.21 607.194 224.764 607.194 224.773V224.839L607.216 224.9L607.601 224.773Z" fill="#DEE7F4"/>
<path d="M87.0404 379.415V380.23H562.741L561.93 378.972C556.847 371.095 543.947 355.62 521.099 355.614C490.946 355.614 129.198 355.614 116.884 355.614C111.547 355.626 105.138 358.404 99.139 362.671C93.1501 366.949 87.5882 372.736 84.1096 378.916L83.4902 380.019L84.7518 380.126C85.4951 380.191 86.2547 380.23 87.0404 380.23V379.415V378.6C86.3069 378.6 85.5963 378.565 84.8889 378.502L84.8204 379.315L85.531 379.716C88.8531 373.802 94.2715 368.145 100.088 363.998C105.894 359.848 112.118 357.23 116.884 357.244C129.198 357.244 490.946 357.244 521.099 357.244C543.132 357.236 555.592 372.174 560.56 379.856L561.245 379.415V378.6H87.0404V379.415Z" fill="#DEE7F4"/>
<path d="M516.228 26.9758L516.903 26.5194C516.71 26.2292 516.508 25.913 516.283 25.5772L514.865 26.3694L568.286 143.595L586.211 150.266V149.092V148.753L578.328 140.87L577.751 141.444L578.471 141.062C578.471 141.062 563.999 113.807 549.071 85.8708C541.608 71.901 534.032 57.7616 528.092 46.7748C525.122 41.2782 522.563 36.5705 520.629 33.0658C518.689 29.5513 517.405 27.2758 516.906 26.5227L516.903 26.5194L516.228 26.9758L515.55 27.4257C515.961 28.0386 517.278 30.3631 519.201 33.8515C525.953 46.1032 540.415 73.1007 553.182 97.0303C559.569 108.995 565.528 120.194 569.897 128.403C574.262 136.612 577.024 141.815 577.03 141.828L577.089 141.936L584.819 149.666L585.396 149.092L585.679 148.329L569.489 142.304L516.349 25.6946L515.609 26.0336L514.931 26.4868C515.139 26.7965 515.341 27.116 515.553 27.429L515.563 27.4485L515.55 27.4257L516.228 26.9758Z" fill="#DEE7F4"/>
<path d="M65.1983 149.003L65.4851 149.77L82.0663 143.598L135.139 27.1317L133.717 26.346L133.597 26.5319L133.6 26.5254C133.101 27.2785 131.817 29.554 129.877 33.0685C116.354 57.6013 72.0348 141.062 72.0348 141.065L72.7553 141.446L72.1784 140.872L61.9805 151.07L65.4851 149.77L65.1983 149.003L65.7753 149.58L73.4172 141.939L73.4726 141.831C73.4758 141.824 74.3789 140.126 75.9699 137.136C81.535 126.665 95.495 100.414 108.464 76.1842C114.948 64.0727 121.182 52.4632 125.994 43.5858C128.4 39.1487 130.451 35.393 131.999 32.599C133.538 29.8149 134.601 27.9598 134.956 27.4284L135.08 27.2393L134.399 26.7927L133.655 26.4536L80.8633 142.307L64.9146 148.24L65.1983 149.003Z" fill="#DEE7F4"/>
<path d="M528.836 379.414V378.599H122.809V397.902H529.652V378.599H528.836V379.414H528.021V396.272H124.439V380.229H528.836V379.414Z" fill="#DEE7F4"/>
<path d="M607.602 224.773H608.417C608.417 224.753 608.42 210.464 606.855 197.417C605.264 184.258 596.436 159.119 596.429 159.087L596.367 158.914L578.329 140.872L577.752 141.446L578.472 141.064C578.472 141.064 564 113.81 549.072 85.8731C541.609 71.9033 534.033 57.7639 528.093 46.7772C525.123 41.2805 522.563 36.5728 520.63 33.0681C518.69 29.5537 517.406 27.2781 516.907 26.525C515.12 23.8288 512.864 19.9525 506.067 16.3924C499.27 12.8127 487.953 9.43194 467.78 7.21829C427.477 2.7975 352.288 0.46649 325.255 0.46323C298.221 0.46649 223.029 2.7975 182.727 7.21829C162.553 9.43194 151.237 12.8127 144.439 16.3924C137.642 19.9525 135.386 23.8288 133.599 26.525C133.1 27.2781 131.816 29.5537 129.876 33.0681C116.353 57.6009 72.0342 141.061 72.0342 141.064L72.7546 141.446L72.1777 140.872L54.1359 158.914L54.0773 159.087C54.0708 159.119 45.239 184.258 43.6513 197.417C42.0864 210.464 42.0896 224.753 42.0896 224.773H42.9047L42.1286 224.512L40.5215 229.337L40.5312 229.497C40.5345 229.503 42.8688 264.801 44.9488 284.818C47.0418 304.878 53.2426 340.603 60.5878 357.162C64.2489 365.397 67.9916 371.148 72.282 374.87C76.5691 378.6 81.4234 380.237 87.0309 380.23H563.475C569.079 380.237 573.934 378.6 578.221 374.87C582.511 371.148 586.254 365.397 589.915 357.162C597.264 340.603 603.461 304.878 605.557 284.818C607.637 264.801 609.968 229.503 609.968 229.497L609.981 229.337L608.378 224.515L607.602 224.773L606.829 225.027L608.384 229.702L609.157 229.444L608.342 229.389C608.342 229.395 608.198 231.593 607.947 235.215C607.194 246.078 605.489 269.681 603.937 284.649C601.873 304.559 595.617 340.352 588.425 356.5C584.82 364.621 581.165 370.163 577.152 373.639C573.135 377.114 568.773 378.59 563.475 378.6H87.0309C81.7299 378.59 77.3711 377.114 73.3513 373.639C69.338 370.163 65.6833 364.621 62.0776 356.5C54.8857 340.352 48.6295 304.559 46.569 284.649C45.5323 274.673 44.4304 260.853 43.586 249.534C43.1654 243.871 42.8068 238.837 42.5557 235.215C42.3047 231.593 42.1581 229.395 42.1581 229.389L41.3462 229.444L42.1189 229.702L43.7164 224.903V224.773C43.7164 224.763 43.7164 221.219 43.912 216.042C44.1044 210.865 44.4956 204.067 45.2683 197.612C46.0312 191.232 48.6197 181.699 51.0159 173.806C52.2157 169.855 53.3633 166.311 54.2142 163.752C55.0651 161.193 55.6128 159.631 55.6128 159.628L54.8466 159.357L55.4204 159.934L73.4165 141.938L73.4719 141.831C73.4752 141.824 74.3783 140.126 75.9693 137.136C81.5344 126.664 95.4944 100.413 108.463 76.1839C114.948 64.0723 121.181 52.4629 125.993 43.5854C128.399 39.1484 130.45 35.3927 131.998 32.5987C133.537 29.8145 134.6 27.9595 134.955 27.4281C136.801 24.6732 138.695 21.2826 145.199 17.8334C151.703 14.4037 162.843 11.0359 182.906 8.83858C223.071 4.43084 298.3 2.09331 325.255 2.09331C352.21 2.09331 427.435 4.43084 467.6 8.83858C487.663 11.0359 498.803 14.4037 505.307 17.8334C511.811 21.2826 513.705 24.6732 515.551 27.4281C515.962 28.041 517.279 30.3655 519.202 33.8538C525.954 46.1056 540.416 73.103 553.183 97.0327C559.57 108.997 565.529 120.196 569.898 128.405C574.263 136.614 577.025 141.818 577.031 141.831L577.09 141.938L595.083 159.934L595.66 159.357L594.89 159.628C594.893 159.631 595.441 161.193 596.289 163.752C598.841 171.413 604.09 188.027 605.238 197.612C606.011 204.067 606.399 210.865 606.594 216.042C606.787 221.219 606.787 224.763 606.787 224.773V224.903L606.829 225.027L607.602 224.773Z" fill="#DEE7F4"/>
<path d="M325.182 115.369V116.184H511.106L511.344 115.946C511.402 115.874 516.41 110.892 516.426 103.048C516.426 102.572 516.407 102.09 516.368 101.598C516.188 99.4068 515.135 94.3796 513.645 87.931C509.182 68.634 500.82 37.0495 500.82 37.0463L500.683 36.5279L500.155 36.4496C444.308 28.0156 377.973 27.5103 339.399 27.5103C334.105 27.5103 329.332 27.5201 325.182 27.5201C321.035 27.5201 316.262 27.5103 310.964 27.5103C272.387 27.5103 206.052 28.0156 150.205 36.4496L149.677 36.5279L149.54 37.0463C149.54 37.0495 145.823 51.0878 142.022 66.1628C140.121 73.7003 138.201 81.4987 136.715 87.931C135.225 94.3796 134.172 99.4068 133.992 101.598C133.953 102.09 133.934 102.576 133.934 103.048C133.95 110.892 138.954 115.874 139.016 115.946L139.254 116.184H325.182V115.369V114.554H139.593V115.369L140.167 114.791L139.991 114.599C139.124 113.647 135.554 109.269 135.564 103.048C135.564 102.618 135.58 102.178 135.616 101.728C135.766 99.7915 136.819 94.7023 138.302 88.2994C140.529 78.6753 143.734 65.9607 146.378 55.6586C147.701 50.5075 148.888 45.9596 149.739 42.6961C150.593 39.436 151.115 37.4701 151.115 37.4636L150.329 37.2549L150.45 38.0602C206.127 29.6489 272.409 29.1371 310.964 29.1404C316.259 29.1404 321.031 29.1501 325.182 29.1501C329.335 29.1501 334.105 29.1404 339.399 29.1404C377.951 29.1371 444.233 29.6489 499.91 38.0602L500.031 37.2549L499.245 37.4636C499.245 37.4734 500.171 40.9715 501.576 46.3638C503.682 54.449 506.855 66.7758 509.564 77.8473C512.27 88.8993 514.516 98.7939 514.744 101.728C514.78 102.178 514.796 102.618 514.796 103.048C514.796 106.608 513.642 109.552 512.478 111.613C511.898 112.64 511.318 113.445 510.887 113.986L510.369 114.599L510.19 114.791L510.767 115.369V114.554H325.182V115.369Z" fill="#DEE7F4"/>
<path d="M141.598 111.162L142.266 110.695C141.252 109.248 139.775 106.522 139.779 103.044C139.779 102.724 139.792 102.395 139.818 102.062C140.02 99.4608 142.048 91.2582 144.753 81.031C147.466 70.7843 150.86 58.4153 153.82 47.1775L153.031 46.9721L153.148 47.7773C204.574 40.2854 267.587 39.3074 313.858 39.3074H342.316C388.598 39.3074 445.7 40.2854 497.135 47.7773L497.253 46.9721L496.464 47.1775C499.424 58.4185 502.844 70.7843 505.579 81.0343C508.311 91.2582 510.365 99.464 510.567 102.062C510.593 102.395 510.606 102.724 510.606 103.047C510.606 106.516 509.136 109.235 508.116 110.695L508.784 111.162V110.346H141.598V111.162V111.977H509.208L509.452 111.631C510.587 110.004 512.233 106.985 512.237 103.047C512.237 102.682 512.22 102.31 512.191 101.932C511.943 98.9718 509.892 90.8963 507.154 80.6138C504.415 70.354 500.995 57.9882 498.042 46.7634L497.901 46.2418L497.37 46.1635C445.791 38.6521 388.624 37.6806 342.316 37.6773H313.858C267.558 37.6806 204.499 38.6521 152.914 46.1635L152.379 46.2418L152.242 46.7634C149.285 57.9882 145.891 70.3573 143.179 80.617C140.466 90.8996 138.439 98.975 138.194 101.932C138.165 102.31 138.148 102.682 138.148 103.044C138.152 106.992 139.805 110.014 140.929 111.628L141.174 111.977H141.598V111.162Z" fill="#DEE7F4"/>
<path d="M154.245 129.914L154.066 129.122C154.06 129.122 149.613 130.129 144.478 131.485C139.337 132.848 133.556 134.53 130.701 135.987C127.838 137.468 124.522 140.421 121.2 143.238C117.901 146.048 114.576 148.709 112.118 149.537C109.454 150.45 104.551 151.809 99.7418 153.843C94.9331 155.888 90.1733 158.564 87.7445 162.385C85.42 166.085 80.934 176.7 76.9631 186.497C73.002 196.278 69.6017 205.165 69.6017 205.165L69.1777 206.273H173.966L161.695 153.873L159.178 132.395L154.418 129.04L154.066 129.122L154.245 129.914L153.776 130.582L157.646 133.308L160.084 154.156L171.909 204.643H70.3613V205.458L71.1241 205.749C71.1274 205.742 71.9718 203.532 73.315 200.092C75.3298 194.931 78.4594 187.025 81.4979 179.749C84.5331 172.482 87.513 165.798 89.1235 163.252C91.1774 159.966 95.683 157.315 100.378 155.343C105.069 153.358 109.897 152.018 112.646 151.079C115.593 150.052 118.912 147.304 122.253 144.48C125.575 141.654 128.897 138.739 131.447 137.438C134 136.118 139.806 134.4 144.895 133.06C149.997 131.713 154.415 130.713 154.425 130.709L154.245 129.914Z" fill="#DEE7F4"/>
<path d="M496.295 129.914L496.116 130.709C496.122 130.713 500.543 131.713 505.645 133.06C510.734 134.4 516.544 136.118 519.097 137.438C521.643 138.739 524.965 141.654 528.287 144.48C531.629 147.304 534.948 150.052 537.895 151.079C540.643 152.018 545.468 153.358 550.163 155.343C554.854 157.315 559.36 159.966 561.414 163.252C563.572 166.662 568.123 177.366 572.068 187.11C574.044 191.991 575.882 196.653 577.225 200.092C578.572 203.532 579.416 205.742 579.419 205.749L580.179 205.458V204.643H478.631L490.456 154.156L492.895 133.308L496.764 130.582L496.295 129.914L495.826 129.249L491.359 132.395L488.849 153.873L476.574 206.273H581.366L580.942 205.165C580.939 205.165 577.542 196.278 573.577 186.497C569.603 176.7 565.117 166.085 562.793 162.385C560.364 158.567 555.604 155.888 550.795 153.843C545.99 151.809 541.087 150.45 538.426 149.537C535.965 148.709 532.639 146.048 529.34 143.238C526.018 140.421 522.702 137.468 519.84 135.987C516.984 134.53 511.207 132.848 506.063 131.485C500.928 130.129 496.481 129.122 496.474 129.122L496.119 129.04L495.826 129.249L496.295 129.914Z" fill="#DEE7F4"/>
<path d="M604.753 284.734L603.944 284.649C601.881 304.559 595.624 340.352 588.432 356.5C584.827 364.621 581.172 370.163 577.159 373.639C573.142 377.114 568.78 378.59 563.482 378.6H528.012V440.602C528.015 443.599 528.859 446.336 530.271 448.371C531.676 450.399 533.704 451.762 536.019 451.762H598.578C600.889 451.762 602.917 450.395 604.316 448.371C605.728 446.336 606.569 443.599 606.572 440.602V274.19L604.945 274.118C604.616 277.881 604.27 281.464 603.944 284.649L604.753 284.734L605.565 284.815C605.894 281.62 606.236 278.034 606.569 274.262L605.757 274.19H604.942V440.602C604.945 443.289 604.172 445.724 602.979 447.442C601.776 449.166 600.215 450.136 598.578 450.132H536.019C534.379 450.136 532.814 449.166 531.611 447.442C530.414 445.724 529.642 443.289 529.642 440.602V380.23H563.482C569.087 380.237 573.941 378.6 578.228 374.87C582.518 371.148 586.261 365.397 589.922 357.162C597.271 340.603 603.468 304.878 605.565 284.818L604.753 284.734Z" fill="#DEE7F4"/>
<path d="M87.032 379.415V378.6C81.7309 378.59 77.3721 377.114 73.3523 373.639C69.339 370.163 65.6844 364.621 62.0786 356.5C55.7506 342.289 50.1465 312.852 47.4927 292.434L45.8691 292.538V440.602C45.8691 443.599 46.7168 446.336 48.1252 448.371C49.5303 450.399 51.5581 451.762 53.8728 451.762H116.432C118.744 451.758 120.768 450.395 122.17 448.371C123.579 446.336 124.423 443.599 124.423 440.602V378.6H87.032V379.415V380.23H122.793V440.602C122.796 443.289 122.023 445.724 120.83 447.442C119.631 449.166 118.066 450.136 116.432 450.132H53.8728C52.2329 450.136 50.668 449.166 49.465 447.442C48.2686 445.724 47.496 443.289 47.4992 440.602V292.538H46.6842L45.8757 292.643C48.5555 313.175 54.1206 342.582 60.5888 357.162C64.2499 365.397 67.9927 371.148 72.283 374.87C76.5702 378.6 81.4245 380.237 87.032 380.23V379.415Z" fill="#DEE7F4"/>
</svg>
