<svg width="507" height="352" viewBox="0 0 507 352" fill="none" xmlns="http://www.w3.org/2000/svg">

    <g id="trunk" class="hover-group">
        <path
            d="M127.148 106.303C165.524 101.587 222.223 100.468 272.932 101.072C321.976 101.655 365.091 103.848 380.449 105.891L378.885 119.455L368.83 161.79L138.274 161.603L128.744 119.357L127.148 106.303Z"
            fill="transparent" stroke="#3265B1" stroke-width="2" />
    </g>
    <g id="doors" class="hover-group">
        <path id="Vector 484"
            d="M98.5628 36.2601L99.1461 33.6848L97.7855 34.7537L95.7933 38.4951L89.7683 49.6706L84.3749 59.8257L78.3984 71.147L73.1508 80.8162L67.2715 91.9917L62.3154 101.029L57.9424 109.824L56.1932 110.99L49.1478 110.65L48.5161 104.09L47.8359 99.6688L47.1556 96.4619L45.3092 92.4776L42.8312 89.1735L40.1588 87.6673L37.4864 87.23L31.2184 87.6673L21.5492 89.1735L15.4755 90.5826L10.3251 92.7691L5.7577 96.8506L3.03671 100.835L1.96875 106.909V111.525L2.74449 115.703L4.59306 118.764L7.99194 120.076L15.7674 121.582L26.2625 122.311L35.9329 122.894L43.4141 123.672L45.3084 122.311L51.4814 116.092L53.668 115.363L64.3078 110.99L71.887 94.4212L79.0806 79.2128L82.9659 70.8069L87.4849 60.263L91.374 51.9543L96.9116 40.0014L98.5628 36.2601Z"
            fill="transparent" stroke="#3265B1" stroke-width="0.0777778" />
        <path id="Vector 485"
            d="M408.716 35.7496L408.132 33.1743L409.493 34.2432L411.485 37.9846L417.51 49.1601L422.903 59.3152L428.88 70.6365L434.128 80.3057L440.007 91.4812L444.963 100.519L449.336 109.313L451.085 110.48L458.131 110.139L458.762 103.58L459.442 99.1583L460.123 95.9514L461.969 91.9671L464.447 88.6631L467.12 87.1568L469.792 86.7195L476.06 87.1568L485.729 88.6631L491.803 90.0721L496.953 92.2586L501.521 96.3401L504.242 100.324L505.31 106.398V111.014L504.534 115.193L502.685 118.254L499.286 119.566L491.511 121.072L481.016 121.801L471.345 122.384L463.864 123.161L461.97 121.801L455.797 115.581L453.61 114.853L442.97 110.48L435.391 93.9107L428.198 78.7023L424.312 70.2964L419.793 59.7525L415.904 51.4438L410.367 39.4909L408.716 35.7496Z"
            fill="transparent" stroke="#3265B1" stroke-width="0.0777778" />
    </g>
    <g id="lights" class="hover-group">

        <path
            d="M129.566 136.431L133.468 152.585L135.057 159.347H66.8147H55.6074L58.556 152.405L62.0052 143.194L65.7703 134.482L69.2648 126.542L71.8055 123.91L76.7058 120.87L85.6441 117.558L89.7727 116.015L93.8571 113.111L100.255 107.575L103.749 105.715L120.356 100.995L123.895 103.4L124.167 105.715L125.257 117.784L126.753 123.455L129.566 136.431Z"
            fill="transparent" />
        <path
            d="M374.974 145.775L372.07 158.529V159.365H451.252L445.886 145.807L441.211 134.497L437.003 125.97L435.444 124.344L431.437 121.561L425.27 119.045L422.159 118.036L415.677 115.216L408.227 108.987L403.597 105.661L386.592 100.821L383.182 103.263L382.298 109.366L380.993 118.836L379.646 125.782L374.974 145.775Z"
            fill="transparent" />
        <path
            d="M129.566 136.431L133.468 152.585L135.057 159.347H66.8147H55.6074L58.556 152.405L62.0052 143.194L65.7703 134.482L69.2648 126.542L71.8055 123.91L76.7058 120.87L85.6441 117.558L89.7727 116.015L93.8571 113.111L100.255 107.575L103.749 105.715L120.356 100.995L123.895 103.4L124.167 105.715L125.257 117.784L126.753 123.455L129.566 136.431Z"
            stroke="#3265B1" stroke-width="0.0777778" />
        <path
            d="M374.974 145.775L372.07 158.529V159.365H451.252L445.886 145.807L441.211 134.497L437.003 125.97L435.444 124.344L431.437 121.561L425.27 119.045L422.159 118.036L415.677 115.216L408.227 108.987L403.597 105.661L386.592 100.821L383.182 103.263L382.298 109.366L380.993 118.836L379.646 125.782L374.974 145.775Z"
            stroke="#3265B1" stroke-width="0.0777778" />

    </g>
    <g id="rear-wheels" class="hover-group">

        <path
            d="M38.3094 237.234L37.3129 233.301L37.125 234.55V343.654L37.7492 347.774L39.8089 349.896L42.368 351.019H86.3094H92.1766L94.5484 349.771L96.1712 347.274L96.6706 343.654V295.406H67.834L64.0681 294.936L60.2816 293.596L55.85 289.976L52.1674 285.357L48.7345 279.115L46.0506 272.624L42.9298 260.765L41.4318 254.398L40.5579 248.968L39.1848 243.85L38.3094 237.234Z"
            fill="transparent" />
        <path
            d="M411.923 343.619V295.581L442.738 295.385L445.879 294.256L448.872 292.44L451.767 289.987L455.791 284.148L458.784 278.456L461.532 271.144L463.985 261.87L466.684 250.339L468.892 237.826L470.561 225.314L471.885 224.087V340.626V344.65L471.051 347.447L468.99 350.195L466.635 351.372H417.124L415.211 350.391L413.591 348.772L412.512 346.073L411.923 343.619Z"
            fill="transparent" />
        <path
            d="M38.3094 237.234L37.3129 233.301L37.125 234.55V343.654L37.7492 347.774L39.8089 349.896L42.368 351.019H86.3094H92.1766L94.5484 349.771L96.1712 347.274L96.6706 343.654V295.406H67.834L64.0681 294.936L60.2816 293.596L55.85 289.976L52.1674 285.357L48.7345 279.115L46.0506 272.624L42.9298 260.765L41.4318 254.398L40.5579 248.968L39.1848 243.85L38.3094 237.234Z"
            stroke="#3265B1" stroke-width="0.0777778" />
        <path
            d="M411.923 343.619V295.581L442.738 295.385L445.879 294.256L448.872 292.44L451.767 289.987L455.791 284.148L458.784 278.456L461.532 271.144L463.985 261.87L466.684 250.339L468.892 237.826L470.561 225.314L471.885 224.087V340.626V344.65L471.051 347.447L468.99 350.195L466.635 351.372H417.124L415.211 350.391L413.591 348.772L412.512 346.073L411.923 343.619Z"
            stroke="#3265B1" stroke-width="0.0777778" />

    </g>
    <g id="bumper" class="hover-group">
        <path
            d="M127.001 187.912H102.147L93.2183 187.776L84.4368 187.419L80.5558 187.132L78.1771 186.703L75.1724 185.898L71.8637 184.539L69.2704 182.858L67.3925 181.159L66.2177 179.62L33.1777 186.519L34.7844 207.64L36.2307 223.605L38.1891 237.611L40.9569 252.214L43.3835 262.772L45.8945 271.329L47.6406 276.14L49.8546 281.419L53.8135 287.379L57.0063 290.998L60.2843 293.255L63.9893 294.617L67.9902 295.17H96.6849V308.705H411.9V295.133H421.531H441.689L446.21 293.703L450.131 291.074L452.391 288.583L455.62 283.786L458.618 277.927L460.441 273.184L464.654 259.142L467.093 247.243L469.147 234.486L471.486 216.043L473.196 194.092L473.776 186.475L440.115 179.608L437.493 182.401L435.042 184.109L432.221 185.478L429.342 186.475L425.809 187.073L421.933 187.386L417.402 187.558L410.078 187.786L404.01 187.931H381.323L364.766 187.723L363.852 189.53L362.169 191.587L359.427 193.727L355.77 195.431L352.342 196.552L348.312 197.009L346.579 197.174H165.226H159.23L156.346 196.919L153.131 196.332L149.916 195.108L147.058 193.5L145.169 191.867L143.434 189.953L141.852 187.656L127.001 187.912Z"
            fill="transparent" stroke="#3265B1" stroke-width="0.0777778" />
    </g>
    <g id="roof" class="hover-group">
        <path
            d="M93.3379 46.337L111.98 49.518L117.441 28.9465L140.315 26.0254L171.16 23.6984L196.212 22.6092L213.342 22.1938H245.277H272.309H300.271L323.91 23.2153L356.36 25.2243L378.896 27.6264L389.299 28.8062L394.69 49.5167L413.162 46.3557L412.091 43.7968L405.474 28.8062L402.192 21.4485L400.004 18.0158L397.985 16.0303L394.317 13.3717L389.807 11.6217L386.644 10.4102L378.432 8.39095L371.466 7.21308L359.586 5.73233L343.534 4.52081L318.462 3.04005L298.304 2.09776L277.203 1.45834L269.732 1.18994H241.497L216.458 1.72853L191.42 2.8376L173.382 3.81441L154.435 4.99105L141.007 6.40561L127.613 8.52436L118.123 11.151L111.325 14.2455L107.589 17.3429L105.099 20.6405L102.754 26.0421L93.3379 46.337Z"
            fill="transparent" stroke="#3265B1" stroke-width="0.0777778" />
    </g>
    <g id="line">
        <path id="path182"
            d="M504.667 101.912L505.27 101.719C503.543 96.3716 497.762 91.5005 492.353 90.0222C487.343 88.6859 474.302 86.6878 469.225 86.6802C468.939 86.6802 468.673 86.6878 468.432 86.7005C465.995 86.8653 463.9 88.7569 462.267 91.0948C460.634 93.4505 459.465 96.3158 459.075 98.7196C458.575 101.8 458.111 107.371 457.853 110.8L458.484 110.848L458.469 110.214L449.401 110.412L463.272 124.284L463.568 124.257C468.51 123.808 476.249 123.166 479.86 123.166L480.441 123.174L480.968 123.179C483.714 123.179 488.101 122.727 492.267 122.083C496.443 121.434 500.333 120.615 502.21 119.784C504.35 118.782 505.255 116.246 505.765 114.045C506.256 111.827 506.287 109.851 506.287 109.826L506.29 109.78L505.288 101.775L505.27 101.719L504.667 101.912L504.038 101.991L505.024 109.894L505.653 109.816L505.019 109.806C505.019 109.806 505.014 110.265 504.948 111C504.849 112.103 504.616 113.799 504.096 115.323C503.579 116.86 502.765 118.158 501.69 118.625C500.097 119.347 496.182 120.199 492.074 120.831C487.959 121.47 483.587 121.914 480.968 121.911L480.471 121.906L479.86 121.898C476.133 121.901 468.416 122.542 463.454 122.994L463.51 123.625L463.959 123.176L452.396 111.614L459.073 111.469L459.116 110.893C459.372 107.485 459.843 101.907 460.325 98.9225C460.673 96.757 461.788 94.0032 463.307 91.8175C464.823 89.6165 466.743 88.0495 468.508 87.9658C468.716 87.9531 468.957 87.948 469.225 87.948C474.046 87.9404 487.211 89.9512 492.024 91.247C496.989 92.5554 502.575 97.3199 504.061 102.102L504.667 101.912Z"
            fill="#3265B1" />
        <path id="path184"
            d="M56.1213 111.013L56.1365 110.379L48.5524 110.214L48.5396 110.848L49.1711 110.8C48.9099 107.371 48.4458 101.803 47.9463 98.7196C47.5533 96.3158 46.3844 93.4505 44.7539 91.0948C43.1209 88.7569 41.0264 86.8653 38.5896 86.7005C38.3488 86.6878 38.085 86.6802 37.7959 86.6802C32.7194 86.6878 19.6784 88.6859 14.6679 90.0222C9.25674 91.5005 3.48053 96.3716 1.75373 101.719L1.7359 101.775L0.734375 109.78V109.826C0.736911 109.851 0.767294 111.827 1.25922 114.045C1.76889 116.246 2.6716 118.782 4.81425 119.784C6.68813 120.615 10.5779 121.434 14.7542 122.083C18.9203 122.727 23.3071 123.179 26.0532 123.179L26.5831 123.174L27.1638 123.166C30.7746 123.166 38.511 123.808 43.453 124.257L43.7497 124.284L57.6199 110.412L56.1365 110.379L56.1213 111.013L55.6725 110.564L43.0625 123.176L43.5113 123.625L43.5672 122.994C38.6048 122.542 30.8913 121.901 27.1638 121.898L26.5527 121.906L26.0532 121.911C23.4339 121.914 19.0623 121.47 14.9468 120.831C10.839 120.199 6.9239 119.347 5.33402 118.625C3.89375 118.021 2.94542 115.861 2.4966 113.769C2.26586 112.734 2.14169 111.735 2.07576 111C2.00984 110.265 2.00475 109.806 2.00222 109.806L1.3683 109.816L1.99714 109.894L2.98603 101.991L2.35719 101.912L2.96065 102.102C4.4491 97.3199 10.0327 92.5554 14.9976 91.247C19.8129 89.9512 32.9755 87.9404 37.7959 87.948C38.0647 87.948 38.3082 87.9531 38.5161 87.9658C40.2784 88.0469 42.1979 89.6165 43.7143 91.8175C45.2331 94.0032 46.3488 96.757 46.6962 98.9225C47.1805 101.907 47.6497 107.485 47.9083 110.896L47.9514 111.469L56.1087 111.647L56.1213 111.013Z"
            fill="#3265B1" />
        <path id="path190"
            d="M167.635 164.351V164.668H338.416L345.526 119.449H158.666L167.371 164.668H167.635V164.351L167.947 164.29L159.432 120.083H344.783L337.873 164.034H167.635V164.351Z"
            fill="#3265B1" />
        <path id="path192"
            d="M125.664 119.764L125.355 119.833L125.36 119.856L125.363 119.866L125.916 122.239L125.971 122.483H381.071L381.688 119.861L381.693 119.843L381.698 119.797L381.733 119.447H125.271L125.355 119.833L125.664 119.764V120.081H381.383V119.764L381.066 119.731V119.736L380.569 121.849H126.476L125.979 119.716L125.67 119.79L125.979 119.721L125.974 119.698L125.664 119.764Z"
            fill="#3265B1" />
        <path id="path194"
            d="M368.883 171.563V171.246H137.443L140.932 185.877L140.935 185.885C140.942 185.918 141.706 188.808 144.51 191.704C147.312 194.602 152.171 197.483 160.267 197.48C176.315 197.48 336.774 197.48 345.58 197.48C354.457 197.468 364.121 193.51 365.63 186.148C366.314 182.728 367.818 176.822 369.19 171.642L368.883 171.561H368.566V171.563H368.883H369.2V171.561V169.124L368.576 171.48C367.204 176.665 365.698 182.571 365.008 186.027C363.682 192.863 354.31 196.857 345.58 196.847C336.774 196.847 176.315 196.847 160.267 196.847C152.32 196.841 147.665 194.045 144.964 191.263C143.615 189.871 142.758 188.479 142.241 187.437C141.982 186.917 141.807 186.483 141.698 186.184C141.589 185.882 141.549 185.725 141.546 185.722L141.242 185.804L141.549 185.73L138.247 171.88H369.2V171.563H368.883Z"
            fill="#3265B1" />
        <path id="path196"
            d="M136.119 164.351V164.668H371.058L371.121 164.435C371.626 162.586 371.953 161.422 371.953 161.42V161.417L372.31 159.873L381.687 119.845L383.624 103.244L383.313 103.205C373.492 101.993 334.257 97.878 254.337 97.878C168.996 97.878 130.018 102.574 123.742 103.411L123.433 103.451L125.352 119.845L134.727 159.873L135.868 164.668H136.119V164.351L136.428 164.277L135.343 159.728L125.976 119.736L124.099 103.687L123.785 103.725L123.826 104.04C130.068 103.205 169.019 98.5119 254.337 98.5119C334.234 98.5119 373.444 102.627 383.234 103.834L383.274 103.52L382.957 103.484L381.061 119.736L371.694 159.728L371.339 161.263L371.648 161.334L371.342 161.25C371.342 161.25 371.014 162.416 370.51 164.267L370.817 164.351V164.034H136.119V164.351Z"
            fill="#3265B1" />
        <path id="path198"
            d="M72.0491 270.882L72.3128 271.059L72.5766 270.715C73.8698 269.127 79.9351 262.649 93.4377 262.644C108.994 262.644 401.247 262.644 407.667 262.644C410.766 262.636 417.643 264.766 423.675 266.903C426.698 267.971 429.52 269.039 431.587 269.84C433.653 270.641 434.959 271.173 434.962 271.176L435.081 270.882V270.565H72.0491V270.882V271.199H436.701L435.2 270.588C435.197 270.588 429.946 268.448 423.886 266.305C417.815 264.166 410.987 262.02 407.667 262.01C401.25 262.01 108.994 262.01 93.4377 262.01C77.7595 262.007 71.8158 270.651 71.7879 270.702L71.4506 271.199H72.0491V270.882ZM408.639 243.659V243.342C375 243.342 90.3289 243.342 86.0486 243.342C81.9611 243.35 57.5095 247.242 41.3775 254.273L41.1416 254.377L41.1948 254.631C43.1549 263.658 45.4649 272.082 47.9473 277.668C53.5918 290.42 59.5912 295.433 68.2227 295.42H438.79C447.419 295.433 453.419 290.42 459.063 277.668C461.404 272.407 463.582 264.614 465.468 256.185L465.524 255.934L465.291 255.828C457.362 252.179 435.413 243.345 408.639 243.342V243.659V243.976C435.273 243.976 457.146 252.777 465.025 256.403L465.159 256.117L464.85 256.046C462.971 264.454 460.79 272.223 458.485 277.408C452.828 290.095 447.12 294.773 438.79 294.786H68.2227C59.8904 294.773 54.1827 290.095 48.5255 277.408C46.0786 271.901 43.7686 263.498 41.8161 254.496L41.5042 254.562L41.631 254.854C57.6084 247.873 82.1462 243.968 86.0486 243.976C90.3289 243.976 375 243.976 408.639 243.976V243.659Z"
            fill="#3265B1" />
        <path id="path200"
            d="M404.832 106.482L404.68 106.761C406.724 107.882 409.262 110.126 411.793 112.271C414.331 114.414 416.851 116.463 419.007 117.208C422.838 118.511 432.129 120.936 436.323 125.386L436.805 124.977L436.8 124.97L436.549 125.163L436.531 125.477L465.199 126.988L465.052 126.545C464.489 124.863 464.132 123.842 464.132 123.842L464.109 123.773L450.13 109.791L449.904 110.014L450.185 109.867C450.185 109.867 438.93 88.669 427.319 66.9407C415.703 45.2023 403.76 22.9744 402.317 20.8064C401.761 19.9696 401.15 18.9985 400.298 17.9639L398.932 16.3031L399.763 18.2885C405.9 32.9549 419.646 66.1115 421.776 73.7313C422.151 75.0777 422.336 76.4774 422.336 77.9278C422.346 86.3869 415.997 96.5271 404.627 106.241L404.277 106.541L404.68 106.761L404.832 106.482L405.038 106.723C416.471 96.943 422.96 86.7089 422.97 77.9278C422.97 76.4242 422.777 74.9636 422.387 73.5614C420.221 65.8301 406.491 32.7318 400.347 18.0451L400.055 18.1668L399.809 18.3671C400.633 19.3661 401.226 20.3094 401.789 21.1589C403.174 23.2331 415.157 45.5218 426.761 67.2399C432.565 78.1028 438.28 88.8338 442.545 96.8491C444.678 100.858 446.448 104.185 447.685 106.513C448.92 108.84 449.625 110.164 449.625 110.164L449.648 110.207L463.609 124.169L463.833 123.945L463.533 124.049C463.536 124.052 463.891 125.066 464.451 126.747L464.753 126.646L464.768 126.329L435.884 124.81L436.3 125.358L436.551 125.168L436.782 124.95C432.36 120.294 423.005 117.918 419.212 116.607C417.244 115.938 414.724 113.924 412.201 111.787C409.673 109.649 407.135 107.39 404.984 106.206L404.832 106.482Z"
            fill="#3265B1" />
        <path id="path202"
            d="M87.9464 116.904L88.0504 117.206C90.2463 116.445 92.8276 114.325 95.4191 112.129C98.003 109.936 100.587 107.661 102.631 106.614C102.849 106.503 103.11 106.381 103.389 106.262L103.855 106.064L103.472 105.732C92.4726 96.1774 86.3489 86.2426 86.3565 77.9331C86.3565 76.4802 86.5417 75.0779 86.9195 73.729C89.1864 65.5945 104.679 28.4061 110.053 15.6085L110.517 14.4978L109.566 15.2332C106.936 17.2643 105.75 19.2573 104.72 20.8041C103.277 22.9721 91.3341 45.1999 79.7182 66.9384C68.1098 88.6667 56.8513 109.865 56.8513 109.865L57.1327 110.012L56.9071 109.789L42.9279 123.771L42.905 123.839C42.9025 123.839 42.5525 124.843 41.9972 126.502L41.8477 126.943L70.6911 125.427L70.7773 125.335C74.9916 120.916 84.2291 118.504 88.0504 117.206L87.9464 116.904L87.845 116.605C84.0617 117.908 74.7633 120.274 70.3183 124.897L70.5491 125.117L70.5314 124.8L42.2812 126.286L42.2965 126.603L42.5982 126.702C43.151 125.049 43.5009 124.052 43.5034 124.047L43.2043 123.943L43.4274 124.166L57.3889 110.205L57.4117 110.162C57.4142 110.159 58.1166 108.838 59.3514 106.51C63.6799 98.3657 74.5403 77.9483 84.6272 59.1031C94.7066 40.268 104.038 22.967 105.247 21.1565C106.292 19.5869 107.41 17.7029 109.954 15.7352L109.761 15.4842L109.467 15.3625C104.089 28.1829 88.6133 65.3105 86.3083 73.559C85.9153 74.9638 85.7226 76.4269 85.7226 77.9331C85.7327 86.5595 91.9934 96.5882 103.057 106.211L103.265 105.97L103.14 105.679C102.851 105.803 102.577 105.927 102.339 106.051C100.176 107.167 97.5922 109.457 95.0083 111.648C92.4346 113.838 89.8508 115.923 87.8425 116.605L87.9464 116.904Z"
            fill="#3265B1" />
        <path id="path204"
            d="M473.111 174.825H473.428C473.428 174.817 473.431 163.706 472.216 153.586C471.268 145.728 466.957 132.276 465.043 126.545L464.974 126.342L435.76 124.803L436.308 125.381C436.747 125.843 437.142 126.315 437.454 126.809C439.163 129.515 442.69 137.824 445.766 145.413C447.303 149.212 448.733 152.838 449.78 155.513C450.825 158.191 451.484 159.912 451.487 159.915L451.781 159.803V159.486H443.52L443.573 159.849C443.771 161.185 443.966 163.041 443.966 165.161C443.968 169.383 443.187 174.642 440.147 178.93C437.107 183.218 431.817 186.588 422.628 187.044C413.32 187.501 402.168 187.653 391.439 187.653C381.639 187.653 372.188 187.526 364.812 187.389L364.591 187.384L364.51 187.587C362.187 193.462 353.599 196.857 345.569 196.847C336.762 196.847 176.304 196.847 160.256 196.847C148.472 196.837 143.91 190.708 142.29 187.551L142.199 187.374L142.001 187.376C134.544 187.521 124.852 187.653 114.788 187.653C104.06 187.653 92.9077 187.501 83.5967 187.044C74.4099 186.588 69.1204 183.218 66.0776 178.933C63.0398 174.645 62.2589 169.386 62.2614 165.164C62.2614 163.041 62.4566 161.185 62.6544 159.849L62.7076 159.486H55.2503V159.803L55.5469 159.915C55.5494 159.912 56.2062 158.191 57.2534 155.513C60.3825 147.495 67.0006 130.884 69.5743 126.809C69.8963 126.302 70.3096 125.813 70.7635 125.338L71.3163 124.76L42.0519 126.299L41.9835 126.505C40.0792 132.21 35.7457 145.707 34.7974 153.586C33.5828 163.706 33.5854 174.817 33.5854 174.825H33.9023L33.6005 174.723L32.3682 178.415L32.3732 178.479C32.3732 178.481 34.1913 205.938 35.8066 221.494C36.5749 228.903 38.0837 239.089 40.0615 249.105L40.1375 249.501L40.5027 249.333C56.4242 242.036 82.0525 237.941 86.0487 237.948C90.3289 237.948 375 237.948 408.639 237.948C436.729 237.946 459.527 247.736 466.196 250.921L466.561 251.096L466.642 250.698C468.77 240.177 470.395 229.296 471.207 221.494C472.822 205.938 474.638 178.481 474.638 178.479L474.64 178.415L473.413 174.723L473.111 174.825L472.812 174.924L474.019 178.557L474.321 178.458L474.004 178.436C474.004 178.441 473.889 180.152 473.694 182.969C473.109 191.418 471.785 209.779 470.575 221.428C469.767 229.205 468.144 240.073 466.021 250.573L466.333 250.637L466.468 250.35C459.751 247.143 436.876 237.317 408.639 237.314C375 237.314 90.3289 237.314 86.0487 237.314C81.8673 237.322 56.3279 241.402 40.2389 248.755L40.3708 249.044L40.6827 248.983C38.7099 238.988 37.2038 228.815 36.438 221.428C35.6317 213.661 34.772 202.913 34.1178 194.106C33.7881 189.702 33.5118 185.787 33.3166 182.969C33.1188 180.152 33.0072 178.441 33.0072 178.436L32.6902 178.458L32.9895 178.557L34.2167 174.876V174.825C34.2167 174.817 34.2167 172.053 34.3689 168.022C34.521 163.99 34.8227 158.695 35.4262 153.662C36.3543 145.903 40.6852 132.39 42.5845 126.705L42.2827 126.606L42.3004 126.921L70.5506 125.435L70.5353 125.12L70.3045 124.9C69.8329 125.394 69.3943 125.911 69.0393 126.469C67.2643 129.291 63.7625 137.565 60.6791 145.175C57.5982 152.78 54.9561 159.689 54.9561 159.689L54.7913 160.12H62.34V159.803L62.0281 159.755C61.8253 161.117 61.6275 163.003 61.6275 165.164C61.6275 169.459 62.411 174.848 65.5603 179.298C68.7121 183.755 74.24 187.224 83.5662 187.678C92.8925 188.135 104.052 188.287 114.788 188.287C124.857 188.287 134.554 188.152 142.014 188.01L142.006 187.693L141.725 187.838C143.391 191.139 148.234 197.491 160.256 197.481C176.304 197.481 336.762 197.481 345.569 197.481C353.751 197.468 362.555 194.104 365.101 187.823L364.804 187.706L364.799 188.023C372.178 188.16 381.634 188.287 391.439 188.287C402.175 188.287 413.332 188.135 422.658 187.678C431.985 187.224 437.515 183.753 440.664 179.298C443.816 174.845 444.6 169.457 444.6 165.161C444.6 163.001 444.402 161.117 444.202 159.755L443.887 159.803V160.12H452.242L452.078 159.689C452.078 159.689 449.433 152.78 446.352 145.175C443.269 137.565 439.764 129.291 437.989 126.469C437.647 125.927 437.223 125.425 436.767 124.945L436.539 125.163L436.521 125.478L464.726 126.964L464.743 126.647L464.442 126.748C466.351 132.453 470.656 145.92 471.587 153.662C472.191 158.695 472.492 163.99 472.645 168.022C472.794 172.053 472.794 174.817 472.794 174.825V174.876L472.812 174.924L473.111 174.825Z"
            fill="#3265B1" />
        <path id="path206"
            d="M68.231 295.102V295.736H438.221L437.589 294.757C433.636 288.631 423.602 276.594 405.832 276.589C382.38 276.589 101.02 276.589 91.4427 276.589C87.2918 276.599 82.3067 278.759 77.641 282.079C72.983 285.406 68.6571 289.907 65.9515 294.713L65.4697 295.571L66.4509 295.654C67.0291 295.705 67.6199 295.736 68.231 295.736V295.102V294.468C67.6605 294.468 67.1078 294.44 66.5575 294.392L66.5043 295.024L67.057 295.336C69.6409 290.736 73.8552 286.336 78.3788 283.111C82.8949 279.883 87.7355 277.846 91.4427 277.857C101.02 277.857 382.38 277.857 405.832 277.857C422.969 277.851 432.66 289.47 436.524 295.444L437.057 295.102V294.468H68.231V295.102Z"
            fill="#3265B1" />
        <path id="path208"
            d="M402.043 20.9822L402.568 20.6272C402.419 20.4015 402.261 20.1556 402.086 19.8944L400.983 20.5106L442.533 111.686L456.474 116.874V115.961V115.698L450.343 109.566L449.894 110.013L450.455 109.716C450.455 109.716 439.199 88.5177 427.588 66.7894C421.784 55.924 415.891 44.9267 411.271 36.3814C408.961 32.1063 406.97 28.4447 405.467 25.7188C403.958 22.9854 402.959 21.2155 402.571 20.6297L402.568 20.6272L402.043 20.9822L401.516 21.3321C401.835 21.8088 402.86 23.6168 404.356 26.33C409.607 35.8591 420.856 56.8571 430.785 75.469C435.753 84.775 440.388 93.4851 443.786 99.8699C447.181 106.255 449.329 110.302 449.334 110.312L449.38 110.396L455.392 116.408L455.841 115.961L456.061 115.368L443.469 110.682L402.137 19.9857L401.562 20.2494L401.034 20.6018C401.196 20.8427 401.354 21.0912 401.519 21.3347L401.526 21.3499L401.516 21.3321L402.043 20.9822Z"
            fill="#3265B1" />
        <path id="path210"
            d="M51.243 115.892L51.4661 116.488L64.3626 111.688L105.641 21.1033L104.535 20.4922L104.442 20.6368L104.444 20.6317C104.056 21.2174 103.057 22.9873 101.549 25.7208C91.0305 44.8018 56.5603 109.715 56.5603 109.718L57.1206 110.015L56.6719 109.568L48.7402 117.5L51.4661 116.488L51.243 115.892L51.6918 116.341L57.6354 110.398L57.6785 110.314C57.6811 110.309 58.3835 108.988 59.6209 106.662C63.9493 98.5179 74.8071 78.1005 84.8941 59.2553C89.9376 49.8352 94.7858 40.8056 98.5285 33.9009C100.4 30.4499 101.995 27.5288 103.199 25.3557C104.396 23.1902 105.223 21.7474 105.499 21.3341L105.595 21.187L105.065 20.8396L104.487 20.5759L63.4269 110.684L51.0224 115.299L51.243 115.892Z"
            fill="#3265B1" />
        <path id="path212"
            d="M411.85 295.1V294.466H96.0508V309.48H412.484V294.466H411.85V295.1H411.216V308.213H97.3186V295.734H411.85V295.1Z"
            fill="#3265B1" />
        <path id="path214"
            d="M473.112 174.824H473.746C473.746 174.809 473.749 163.695 472.531 153.547C471.294 143.313 464.427 123.76 464.422 123.735L464.374 123.601L450.344 109.568L449.895 110.015L450.456 109.718C450.456 109.718 439.2 88.5195 427.589 66.7912C421.785 55.9258 415.892 44.9285 411.272 36.3833C408.962 32.1081 406.971 28.4466 405.468 25.7207C403.959 22.9872 402.96 21.2173 402.572 20.6316C401.182 18.5346 399.428 15.5197 394.141 12.7507C388.854 9.96651 380.053 7.33699 364.362 5.61526C333.016 2.17687 274.535 0.363864 253.509 0.361329C232.483 0.363864 174 2.17687 142.654 5.61526C126.963 7.33699 118.162 9.96651 112.875 12.7507C107.588 15.5197 105.833 18.5346 104.444 20.6316C104.056 21.2173 103.057 22.9872 101.548 25.7207C91.0299 44.8017 56.5597 109.715 56.5597 109.718L57.12 110.015L56.6713 109.568L42.6388 123.601L42.5932 123.735C42.5881 123.76 35.719 143.313 34.4841 153.547C33.267 163.695 33.2695 174.809 33.2695 174.824H33.9034L33.2998 174.621L32.0498 178.374L32.0574 178.498C32.0599 178.503 33.8755 205.957 35.4933 221.526C37.1212 237.129 41.944 264.914 47.6569 277.794C50.5045 284.198 53.4155 288.671 56.7524 291.567C60.0869 294.468 63.8624 295.741 68.2238 295.736H438.792C443.15 295.741 446.926 294.468 450.261 291.567C453.597 288.671 456.508 284.198 459.356 277.794C465.072 264.914 469.892 237.129 471.522 221.526C473.14 205.957 474.953 178.503 474.953 178.498L474.963 178.374L473.716 174.624L473.112 174.824L472.511 175.022L473.721 178.658L474.322 178.458L473.688 178.415C473.688 178.42 473.576 180.129 473.381 182.946C472.795 191.395 471.469 209.753 470.262 221.395C468.657 236.88 463.791 264.719 458.197 277.279C455.393 283.595 452.55 287.906 449.429 290.609C446.305 293.312 442.912 294.46 438.792 294.468H68.2238C64.1008 294.46 60.7106 293.312 57.5841 290.609C54.4627 287.906 51.6201 283.595 48.8157 277.279C43.2219 264.719 38.356 236.88 36.7535 221.395C35.9471 213.635 35.0901 202.887 34.4333 194.083C34.1062 189.678 33.8273 185.763 33.632 182.946C33.4368 180.129 33.3227 178.42 33.3227 178.415L32.6913 178.458L33.2923 178.658L34.5347 174.926V174.824C34.5347 174.817 34.5348 172.06 34.6869 168.034C34.8365 164.007 35.1408 158.72 35.7418 153.699C36.3351 148.737 38.3484 141.323 40.2122 135.184C41.1453 132.111 42.0379 129.354 42.6997 127.364C43.3615 125.373 43.7875 124.159 43.7875 124.156L43.1916 123.946L43.6378 124.394L57.6349 110.397L57.6779 110.314C57.6805 110.309 58.3829 108.988 59.6203 106.662C63.9487 98.5177 74.8065 78.1004 84.8935 59.2552C89.937 49.8351 94.7852 40.8055 98.5279 33.9008C100.399 30.4498 101.994 27.5287 103.199 25.3556C104.395 23.1901 105.222 21.7473 105.498 21.334C106.934 19.1913 108.407 16.5542 113.466 13.8714C118.524 11.2039 127.189 8.58454 142.793 6.87549C174.033 3.44724 232.544 1.62917 253.509 1.62917C274.474 1.62917 332.982 3.44724 364.222 6.87549C379.827 8.58454 388.491 11.2039 393.55 13.8714C398.609 16.5542 400.082 19.1913 401.517 21.334C401.837 21.8107 402.861 23.6186 404.357 26.3318C409.608 35.8609 420.857 56.8589 430.787 75.4709C435.754 84.7769 440.389 93.4869 443.787 99.8718C447.182 106.257 449.33 110.304 449.335 110.314L449.381 110.397L463.375 124.394L463.824 123.946L463.225 124.156C463.228 124.159 463.654 125.373 464.313 127.364C466.299 133.323 470.381 146.244 471.274 153.699C471.875 158.72 472.177 164.007 472.329 168.034C472.478 172.06 472.478 174.817 472.478 174.824V174.926L472.511 175.022L473.112 174.824Z"
            fill="#3265B1" />
        <path id="path216"
            d="M253.452 89.732V90.366H398.059L398.244 90.1809C398.29 90.1251 402.185 86.2505 402.197 80.1497C402.197 79.7795 402.182 79.4042 402.152 79.0213C402.012 77.3173 401.193 73.4073 400.035 68.3917C396.563 53.383 390.059 28.8173 390.059 28.8147L389.953 28.4115L389.542 28.3507C346.106 21.7908 294.512 21.3978 264.51 21.3978C260.392 21.3978 256.68 21.4054 253.452 21.4054C250.226 21.4054 246.514 21.3978 242.394 21.3978C212.389 21.3978 160.795 21.7908 117.359 28.3507L116.948 28.4115L116.841 28.8147C116.841 28.8173 113.951 39.7359 110.994 51.4609C109.516 57.3234 108.022 63.3888 106.866 68.3917C105.707 73.4073 104.888 77.3173 104.749 79.0213C104.718 79.4042 104.703 79.782 104.703 80.1497C104.716 86.2505 108.608 90.1251 108.656 90.1809L108.841 90.366H253.452V89.732V89.0981H109.105V89.732L109.551 89.2832L109.414 89.1336C108.74 88.3932 105.963 84.9878 105.971 80.1497C105.971 79.815 105.984 79.4727 106.012 79.1227C106.128 77.6165 106.947 73.6583 108.101 68.6782C109.833 61.1929 112.325 51.3037 114.382 43.2909C115.411 39.2846 116.334 35.7473 116.996 33.209C117.66 30.6734 118.066 29.1444 118.066 29.1393L117.455 28.977L117.549 29.6033C160.853 23.0612 212.406 22.6631 242.394 22.6657C246.511 22.6657 250.224 22.6733 253.452 22.6733C256.682 22.6733 260.392 22.6657 264.51 22.6657C294.494 22.6631 346.047 23.0612 389.352 29.6033L389.445 28.977L388.834 29.1393C388.834 29.1469 389.555 31.8677 390.647 36.0617C392.286 42.3502 394.753 51.9376 396.86 60.5488C398.965 69.1448 400.712 76.8406 400.889 79.1227C400.917 79.4727 400.93 79.815 400.93 80.1497C400.93 82.9186 400.032 85.2084 399.127 86.8109C398.675 87.6097 398.224 88.236 397.889 88.6569L397.486 89.1336L397.347 89.2832L397.796 89.732V89.0981H253.452V89.732Z"
            fill="#3265B1" />
        <path id="path218"
            d="M110.664 86.4598L111.184 86.0972C110.395 84.9714 109.247 82.8515 109.249 80.146C109.249 79.8975 109.259 79.6414 109.28 79.3827C109.437 77.3592 111.014 70.9795 113.119 63.025C115.228 55.0553 117.868 45.435 120.17 36.6944L119.557 36.5347L119.648 37.161C159.646 31.334 208.656 30.5733 244.645 30.5733H266.779C302.775 30.5733 347.188 31.334 387.193 37.161L387.285 36.5347L386.671 36.6944C388.973 45.4375 391.633 55.0553 393.761 63.0275C395.886 70.9795 397.483 77.3618 397.641 79.3827C397.661 79.6414 397.671 79.8975 397.671 80.1485C397.671 82.8465 396.527 84.9613 395.734 86.0972L396.253 86.4598V85.8259H110.664V86.4598V87.0938H396.583L396.773 86.825C397.656 85.5597 398.936 83.2116 398.939 80.1485C398.939 79.8645 398.926 79.5755 398.903 79.2813C398.711 76.9789 397.116 70.698 394.986 62.7005C392.856 54.7207 390.196 45.1028 387.898 36.3724L387.789 35.9667L387.376 35.9058C347.259 30.0636 302.796 29.308 266.779 29.3054H244.645C208.633 29.308 159.588 30.0636 119.466 35.9058L119.05 35.9667L118.943 36.3724C116.643 45.1028 114.004 54.7232 111.894 62.703C109.784 70.7006 108.207 76.9814 108.017 79.2813C107.994 79.5755 107.981 79.8645 107.981 80.146C107.984 83.2167 109.27 85.5673 110.144 86.8224L110.335 87.0938H110.664V86.4598Z"
            fill="#3265B1" />
        <path id="path220"
            d="M120.502 101.045L120.362 100.429C120.357 100.429 116.898 101.212 112.905 102.267C108.906 103.327 104.41 104.635 102.189 105.769C99.9626 106.92 97.3838 109.217 94.7999 111.408C92.2338 113.594 89.6474 115.663 87.7355 116.307C85.6639 117.017 81.8501 118.075 78.11 119.657C74.3698 121.247 70.6678 123.329 68.7787 126.3C66.9707 129.178 63.4817 137.435 60.3932 145.054C57.3123 152.661 54.6676 159.574 54.6676 159.574L54.3379 160.436H135.84L126.296 119.68L124.338 102.975L120.636 100.365L120.362 100.429L120.502 101.045L120.136 101.565L123.146 103.685L125.043 119.9L134.24 159.168H55.2584V159.802L55.8517 160.028C55.8543 160.022 56.5111 158.303 57.5558 155.628C59.1228 151.614 61.557 145.465 63.9203 139.805C66.281 134.153 68.5986 128.955 69.8513 126.975C71.4487 124.419 74.9531 122.357 78.6045 120.823C82.2533 119.279 86.0086 118.237 88.1462 117.507C90.4385 116.708 93.0199 114.57 95.6189 112.374C98.2028 110.176 100.787 107.909 102.77 106.897C104.755 105.87 109.271 104.534 113.229 103.492C117.198 102.445 120.634 101.666 120.641 101.664L120.502 101.045Z"
            fill="#3265B1" />
        <path id="path224"
            d="M386.54 101.045L386.4 101.664C386.405 101.666 389.844 102.445 393.812 103.492C397.77 104.534 402.289 105.87 404.274 106.897C406.255 107.909 408.838 110.176 411.422 112.374C414.021 114.57 416.603 116.708 418.895 117.507C421.033 118.237 424.785 119.279 428.437 120.823C432.086 122.357 435.59 124.419 437.187 126.975C438.866 129.627 442.406 137.952 445.474 145.531C447.011 149.327 448.441 152.953 449.485 155.628C450.533 158.303 451.189 160.022 451.192 160.028L451.783 159.802V159.168H372.801L381.998 119.9L383.895 103.685L386.905 101.565L386.54 101.045L386.174 100.528L382.701 102.975L380.748 119.68L371.201 160.436H452.706L452.376 159.574C452.374 159.574 449.731 152.661 446.648 145.054C443.557 137.435 440.068 129.178 438.26 126.3C436.371 123.331 432.669 121.247 428.929 119.657C425.191 118.075 421.377 117.017 419.308 116.307C417.394 115.663 414.807 113.594 412.241 111.408C409.657 109.217 407.079 106.92 404.852 105.769C402.631 104.635 398.138 103.327 394.137 102.267C390.143 101.212 386.684 100.429 386.679 100.429L386.403 100.365L386.174 100.528L386.54 101.045Z"
            fill="#3265B1" />
        <path id="path226"
            d="M470.896 221.46L470.268 221.394C468.662 236.88 463.797 264.719 458.203 277.279C455.398 283.595 452.556 287.906 449.434 290.609C446.31 293.312 442.918 294.46 438.797 294.468H411.209V342.691C411.212 345.022 411.868 347.151 412.966 348.734C414.059 350.311 415.636 351.371 417.437 351.371H466.094C467.892 351.371 469.469 350.308 470.557 348.734C471.655 347.151 472.309 345.022 472.311 342.691V213.26L471.046 213.204C470.79 216.13 470.521 218.917 470.268 221.394L470.896 221.46L471.528 221.524C471.784 219.039 472.05 216.249 472.309 213.316L471.677 213.26H471.044V342.691C471.046 344.781 470.445 346.675 469.517 348.011C468.581 349.352 467.367 350.106 466.094 350.103H417.437C416.161 350.106 414.944 349.352 414.008 348.011C413.078 346.675 412.477 344.781 412.477 342.691V295.736H438.797C443.156 295.74 446.932 294.468 450.266 291.566C453.603 288.671 456.514 284.198 459.362 277.794C465.077 264.914 469.897 237.128 471.528 221.526L470.896 221.46Z"
            fill="#3265B1" />
        <path id="path228"
            d="M68.2245 295.102V294.468C64.1015 294.46 60.7113 293.312 57.5848 290.609C54.4633 287.906 51.6208 283.595 48.8163 277.279C43.8946 266.226 39.5358 243.331 37.4718 227.45L36.209 227.531V342.691C36.209 345.022 36.8682 347.151 37.9637 348.734C39.0565 350.311 40.6337 351.371 42.434 351.371H91.0914C92.8892 351.368 94.4639 350.308 95.5542 348.734C96.6496 347.151 97.3064 345.022 97.3064 342.691V294.468H68.2245V295.102V295.736H96.0386V342.691C96.0411 344.781 95.4401 346.675 94.5121 348.011C93.5789 349.352 92.3618 350.106 91.0914 350.103H42.434C41.1586 350.106 39.9415 349.352 39.0058 348.011C38.0752 346.675 37.4743 344.781 37.4768 342.691V227.531H36.8429L36.2141 227.612C38.2984 243.582 42.6268 266.453 47.6576 277.794C50.5052 284.198 53.4162 288.671 56.7531 291.566C60.0876 294.468 63.8631 295.74 68.2245 295.736V295.102Z"
            fill="#3265B1" />
    </g>

</svg>