<svg width="504" height="350" viewBox="0 0 504 350" fill="none" xmlns="http://www.w3.org/2000/svg">

    <g id="doors" fill="transparent">
        <path id="Vector 480"
            d="M422.701 62.48L417.78 54.1152L419.44 59.4897L426.246 76.5263L429.529 84.6638L434.336 96.0374L437.096 102.89L439.856 109.648L442.235 114.692L444.789 119.972L446.857 124.528L449.179 129.169L449.555 130.938L450.939 135.524L457.952 152.737L458.633 154.882L459.083 156.389L459.764 158.418L461.315 162.404L462.663 165.332L464.591 168.912L465.46 170.477L467.518 173.579L468.765 175.347L470.301 177.411L471.746 179.048L472.114 177.411L470.674 173.981L470.262 168.562L470.674 162.252L469.851 156.078L468.753 148.944L467.587 142.977L466.078 137.832L464.295 132.276L462.443 125.965L461.414 122.878L464.782 122.494L469.692 122.233L475.515 121.886H479.818L484.812 121.492L492.187 120.312L497.97 118.837L500.743 116.772L502.277 113.173L502.808 108.983L502.277 104.794L501.451 101.253L500.743 98.7161L497.97 95.4118L495.138 92.5795L491.361 90.6913L487.585 89.5702L480.563 88.3311L473.187 87.21L468.054 86.7379H465.163L462.743 87.859L460.206 90.6323L457.846 94.5267L456.961 98.4801L455.958 103.673V109.986L448.188 110.404L447.401 108.534L445.236 104.598L440.02 95.151L433.525 83.2438L427.227 70.6477L422.701 62.48Z"
            fill="transparent" stroke="#3265B1" stroke-width="0.0774668" />
        <path id="Vector 481"
            d="M80.5923 62.48L85.5127 54.1152L83.8525 59.4897L77.0474 76.5263L73.7638 84.6638L68.9574 96.0374L66.1973 102.89L63.4372 109.648L61.0578 114.692L58.5038 119.972L56.4359 124.528L54.1135 129.169L53.7375 130.938L52.3539 135.524L47.0695 155.458L45.0843 159.05L43.0047 162.736L40.4051 166.801L37.7583 170.677L35.7747 173.579L34.5282 175.347L32.9918 177.411L31.5472 179.048L31.1786 177.411L32.6191 173.981L33.0307 168.562L32.6191 162.252L33.4422 156.078L34.5397 148.944L35.7058 142.977L37.2149 137.832L38.9984 132.276L40.8504 125.965L41.8793 122.878L38.5114 122.494L33.6007 122.233L27.7775 121.886H23.4752L18.4814 121.492L11.1057 120.312L5.32307 118.837L2.54979 116.772L1.01563 113.173L0.484581 108.983L1.01563 104.794L1.84171 101.253L2.54979 98.7161L5.32307 95.4118L8.15536 92.5795L11.9317 90.6913L15.7081 89.5702L22.7298 88.3311L30.1056 87.21L35.2391 86.7379H38.1304L40.5496 87.859L43.0869 90.6323L45.4471 94.5267L46.3322 98.4801L47.3353 103.673V109.986L55.1049 110.404L55.8921 108.534L58.0571 104.598L63.2727 95.151L69.7675 83.2438L76.0656 70.6477L80.5923 62.48Z"
            fill="transparent" stroke="#3265B1" stroke-width="0.0774668" />
    </g>
    <g id="front-wheels" fill="transparent">

        <path
            d="M37.4663 240.179L35.6477 229.919L35.0664 243.744V268.338V284.855V310.176V334.625V342.919L36.4489 346.267L38.268 348.304L40.4508 349.031H44.2345H51.3652H68.3916H85.6363H90.5113L92.8397 347.431L94.2222 344.666L94.9498 341.682V316.943V298.534H93.2763H82.1437H72.3935H63.9531L58.6414 296.424L55.1488 293.95L51.4379 289.585L48.0181 283.109L43.7251 272.413L41.324 260.552L40.5236 256.041L37.4663 240.179Z"
            fill="transparent" />
        <path
            d="M408.955 330.54V298.675H415.216H433.097L440.054 298.258L445.202 296.031L449.864 291.857L453.412 286.778L456.404 281.073L460.578 267.994L462.943 256.653L464.822 245.591L466.144 238.355L467.048 229.45L468.231 223.467L468.788 234.111V257.627V281.073V296.936V312.729V327.896V340.489L468.161 344.037L467.048 346.611L464.961 348.976H462.248H450.49H431.149H420.921H413.964L411.251 347.237L409.511 344.037L408.955 341.741V330.54Z"
            fill="transparent" />
        <path
            d="M37.4663 240.179L35.6477 229.919L35.0664 243.744V268.338V284.855V310.176V334.625V342.919L36.4489 346.267L38.268 348.304L40.4508 349.031H44.2345H51.3652H68.3916H85.6363H90.5113L92.8397 347.431L94.2222 344.666L94.9498 341.682V316.943V298.534H93.2763H82.1437H72.3935H63.9531L58.6414 296.424L55.1488 293.95L51.4379 289.585L48.0181 283.109L43.7251 272.413L41.324 260.552L40.5236 256.041L37.4663 240.179Z"
            stroke="#3265B1" stroke-width="0.0774668" />
        <path
            d="M408.955 330.54V298.675H415.216H433.097L440.054 298.258L445.202 296.031L449.864 291.857L453.412 286.778L456.404 281.073L460.578 267.994L462.943 256.653L464.822 245.591L466.144 238.355L467.048 229.45L468.231 223.467L468.788 234.111V257.627V281.073V296.936V312.729V327.896V340.489L468.161 344.037L467.048 346.611L464.961 348.976H462.248H450.49H431.149H420.921H413.964L411.251 347.237L409.511 344.037L408.955 341.741V330.54Z"
            stroke="#3265B1" stroke-width="0.0774668" />

    </g>
    <g id="front" fill="transparent">
        <path id="Union"
            d="M74.0805 84.4311L77.3645 76.2933L84.1709 59.2529H93.0096L89.512 66.9941C88.158 69.7489 85.4502 75.3038 85.4502 75.4844C85.4502 75.6649 84.6228 77.4024 84.2091 78.2486L80.9371 85.9209C80.561 87.0022 79.7862 89.193 79.6959 89.3058C79.6057 89.4186 77.7562 94.2708 76.8427 96.6828L73.3188 107.38L70.9905 115.12L70.4242 117.197L85.4006 115.938L96.9791 115.12L105.474 114.05L128.002 112.666L150.152 111.596L174.63 110.401L196.654 109.646L219.622 109.079H249.953H281.227L323.01 110.275L344.531 111.156L376.812 112.918L405.255 114.806L429.544 116.756H432.69L430.425 108.89L423.44 89.5721L420.042 81.0771L414.819 69.2469L410.163 58.8012L407.918 53.8794H418.022L419.682 59.2537L419.684 59.2567L426.489 76.2933L429.773 84.4319L434.579 95.8045L437.339 102.658L440.099 109.415L440.1 109.417L442.48 114.462L445.033 119.741L447.101 124.297L449.421 128.936L449.797 130.699L449.797 130.702L451.181 135.288L451.183 135.291L458.196 152.504L458.876 154.646L459.325 156.153V156.154L460.007 158.183L460.007 158.185L461.558 162.171L461.559 162.173L462.907 165.101L462.908 165.103L464.835 168.683L464.836 168.684L465.705 170.249L465.707 170.251L467.765 173.353L467.766 173.355L469.012 175.122L469.013 175.123L470.549 177.187L470.552 177.189L471.996 178.826L472.046 178.883L471.999 180.777L471.447 186.886L471.179 192.695L470.778 196.496L470.46 201.619L470.292 203.109L469.522 211.529L469.154 213.053L469.037 220.971L468.903 222.863L468.078 226.883L466.802 235.265L465.358 246.089L463.915 253.417L461.306 266.572L457.476 279.562L453.424 287.444L448.928 293.383L445.375 296.159L441.378 297.935L435.772 298.435L425.114 298.768L414.234 298.435H407.462H370.326H66.0791L62.9706 298.046L57.7527 296.048L54.8107 293.05L51.3136 289.054L48.7047 284.002L45.9292 277.896L42.6541 266.184L39.2681 248.698L37.5473 238.041L35.993 228.659L35.4934 221.998L34.4943 213.228L33.8837 204.291L32.4959 186.972L31.8066 178.883L31.8573 178.826L33.3015 177.189L33.3038 177.187L34.8403 175.123L34.841 175.122L36.087 173.355L36.0877 173.354L40.7183 166.576V166.575L43.3185 162.51L43.3192 162.508L45.3989 158.821L47.384 155.229L47.3893 155.221L47.3507 155.21L47.3878 155.22L52.672 135.288L54.0556 130.702L54.0564 130.699L54.4316 128.936L56.7519 124.297L58.8202 119.74L61.3734 114.462L63.7534 109.417L63.7541 109.415L66.5139 102.657L69.2744 95.8038L74.0805 84.4311Z"
            fill="transparent" />

        <path
            d="M142.857 197.642L144.939 206.038L145.153 207.04L141.853 206.911L127.417 206.498L120.07 205.828H111.331L100.066 205.21L93.3638 204.797L84.0578 203.121L77.3554 201.987L69.6477 199.77L65.6262 197.992L62.5586 195.44L60.2593 193.436L57.9464 190.008L56.4595 185.919L56.1289 182.532L56.9548 178.03L58.0682 175.511L60.218 172.703L63.5639 170.431L67.6102 169.935H73.7214L92.1032 172.041L102.924 173.694L117.336 175.759L129.605 177.7L133.856 178.297L135.201 179.506L138.022 183.267L140.574 189.85L142.857 197.642Z"
            fill="transparent" />
        <path
            d="M361.155 198.736L359.546 206.148L359.815 207.093L382.696 206.167L401.83 205.373L411.441 204.58L420.919 203.301L428.943 201.714L436.791 198.981L440.406 197.041L443.051 194.528L445.52 192.059L447.416 187.783L448.077 185.005V182.139L447.063 177.598L446.049 174.953L444.021 172.308L441.42 170.589L437.408 169.795H433.308L417.745 171.559L397.245 174.292L384.327 176.1L376.524 177.51L370.616 178.392L368.059 180.729L366.075 184.873L363.562 190.604L361.155 198.736Z"
            fill="transparent" />
        <path
            d="M144.317 250.231H152.27L153.095 252.625L154.609 258.128L156.205 264.76L157.47 269.272V271.666L156.7 274.198L155.351 275.271H153.013L141.043 275.078L128.715 274.721H122.221L108.876 274.363L98.1716 273.758L91.3474 273.18L85.8165 272.712L83.0648 271.749L80.1756 270.043L77.534 267.952L74.1219 264.815L71.9481 262.146L69.9118 258.376L69.3064 256.174L69.4715 253.835L71.1501 252.047L73.3789 251.084L76.5159 250.231H79.185H97.9514H106.454H124.45H139.997H144.317Z"
            fill="transparent" />
        <path
            d="M363.315 250.17H350.879L349.685 254.163L348.217 259.652L346.366 267.152L345.457 270.594L346.074 273.126L347.21 274.458L348.542 275.205L358.315 274.945H370.394L382.278 274.75L393.999 274.36L404.876 273.906L415.007 273.191L419.618 272.445L423.124 270.691L426.436 268.386L429.034 266.016L431.956 262.671L433.742 259.879L434.619 257.703L435.365 255.041L434.262 252.833L432.378 251.469L430.17 250.625L426.956 250.17H385.654H372.342H363.315Z"
            fill="transparent" />
        <path
            d="M349.645 254.294L349.685 254.163M349.685 254.163L350.879 250.17H363.315H372.342H385.654H426.956L430.17 250.625L432.378 251.469L434.262 252.833L435.365 255.041L434.619 257.703L433.742 259.879L431.956 262.671L429.034 266.016L426.436 268.386L423.124 270.691L419.618 272.445L415.007 273.191L404.876 273.906L393.999 274.36L382.278 274.75L370.394 274.945H358.315L348.542 275.205L347.21 274.458L346.074 273.126L345.457 270.594L346.366 267.152L348.217 259.652L349.685 254.163ZM144.939 206.038L142.857 197.642L140.574 189.85L138.022 183.267L135.201 179.506L133.856 178.297L129.605 177.7L117.336 175.759L102.924 173.694L92.1032 172.041L73.7214 169.935H67.6102L63.5639 170.431L60.218 172.703L58.0682 175.511L56.9548 178.03L56.1289 182.532L56.4595 185.919L57.9464 190.008L60.2593 193.436L62.5586 195.44L65.6262 197.992L69.6477 199.77L77.3554 201.987L84.0578 203.121L93.3638 204.797L100.066 205.21L111.331 205.828H120.07L127.417 206.498L141.853 206.911L145.153 207.04L144.939 206.038ZM359.546 206.148L361.155 198.736L363.562 190.604L366.075 184.873L368.059 180.729L370.616 178.392L376.524 177.51L384.327 176.1L397.245 174.292L417.745 171.559L433.308 169.795H437.408L441.42 170.589L444.021 172.308L446.049 174.953L447.063 177.598L448.077 182.139V185.005L447.416 187.783L445.52 192.059L443.051 194.528L440.406 197.041L436.791 198.981L428.943 201.714L420.919 203.301L411.441 204.58L401.83 205.373L382.696 206.167L359.815 207.093L359.546 206.148ZM152.27 250.231H144.317H139.997H124.45H106.454H97.9514H79.185H76.5159L73.3789 251.084L71.1501 252.047L69.4715 253.835L69.3064 256.174L69.9118 258.376L71.9481 262.146L74.1219 264.815L77.534 267.952L80.1756 270.043L83.0648 271.749L85.8165 272.712L91.3474 273.18L98.1716 273.758L108.876 274.363L122.221 274.721H128.715L141.043 275.078L153.013 275.271H155.351L156.7 274.198L157.47 271.666V269.272L156.205 264.76L154.609 258.128L153.095 252.625L152.27 250.231Z"
            stroke="#3265B1" stroke-width="0.0774668" />

    </g>
    <g id="roof" fill="transparent">
        <path
            d="M262.239 0.922119L275.12 1.24438L301.204 2.10864L318.043 2.93579L342.579 4.22974V4.23071L364.236 6.06567V6.06665L379.378 8.61646V8.61743L388.082 11.4612L392.47 13.5081L396.741 16.2024L399.145 19.2512H399.146L401.592 23.2815L406.808 33.1018L406.809 33.1028L412.42 42.8499V42.8508L417.971 54.5608H407.945L399.573 37.8518L399.572 37.8508L395.866 30.9788L395.859 30.9641L395.844 30.9602L393.146 30.1321L393.134 30.1692L393.146 30.1311H393.137L363.346 27.6477H363.345L333.949 26.425L315.275 25.8127L287.211 25.2737L253.21 24.9504H230.218L202.873 25.4543L175.133 25.9924L147.141 27.0715H147.14L120.838 28.8723H120.836L107.451 30.7434L107.431 30.7463L107.422 30.7649L104.904 35.7629L98.6797 47.1692L98.6787 47.1711L92.9326 59.5627H84.6279L88.0283 50.1506L95.4365 35.7991L95.4375 35.8L103.677 21.1204L103.676 21.1194L106.548 17.0637L110.569 13.9026L117.398 10.8118L125.418 8.51001L137.397 6.49634L137.396 6.49536L156.498 4.58911L156.499 4.59009L176.827 3.47388L205.574 2.0354L223.348 1.31567L242.165 0.922119H262.239Z"
            fill="transparent" stroke="#3265B1" stroke-width="0.0774668" />
    </g>
    <g id="line">
        <path id="path104"
            d="M138.433 115.594L138.198 115.806L180.146 161.972L180.382 161.76L180.594 161.527C180.589 161.522 178.334 159.461 174.9 156.314C164.604 146.878 143.715 127.677 141.657 125.396C140.329 123.938 139.579 121.475 139.189 119.384C138.995 118.337 138.883 117.384 138.823 116.694C138.759 116.006 138.749 115.584 138.749 115.584L138.433 115.594L138.117 115.601C138.132 115.629 138.276 122.56 141.189 125.821C142.618 127.399 152.337 136.418 161.735 145.077C171.125 153.727 180.167 161.992 180.167 161.995L180.614 161.547L138.092 114.749L138.117 115.601L138.433 115.594Z"
            fill="#3265B1" />
        <path id="path106"
            d="M364.93 115.594L364.695 115.382L322.749 161.547L323.197 161.995C323.197 161.992 332.238 153.727 341.628 145.077C351.024 136.418 360.746 127.399 362.177 125.821C365.087 122.56 365.228 115.629 365.246 115.601L365.269 114.749L364.695 115.382L364.93 115.594L364.614 115.584C364.614 115.589 364.566 117.29 364.171 119.384C363.782 121.475 363.031 123.938 361.706 125.396C360.341 126.908 350.584 135.968 341.199 144.612C336.506 148.936 331.897 153.166 328.463 156.314C325.03 159.461 322.777 161.522 322.772 161.527L322.984 161.76L323.217 161.972L365.163 115.806L364.93 115.594Z"
            fill="#3265B1" />
        <path id="path108"
            d="M469.529 152.823L469.843 152.785C469.34 148.583 467.868 142.79 466.318 137.427L466.096 136.654L465.734 137.372C463.618 141.561 460.746 147.043 457.79 152.613L457.734 152.719L457.762 152.835C459.178 158.631 462.771 168.949 471.598 179.378L472.101 179.973L472.154 179.194C472.222 178.183 472.262 177.606 472.262 177.606L472.265 177.543L471.036 173.859L470.735 173.958H471.051C471.051 173.953 471.054 162.876 469.843 152.785L469.529 152.823L469.216 152.861C469.818 157.88 470.118 163.156 470.27 167.176C470.419 171.197 470.419 173.953 470.419 173.958V174.011L471.646 177.684L471.946 177.583L471.63 177.563C471.63 177.563 471.592 178.14 471.522 179.151L471.838 179.174L472.078 178.969C463.332 168.635 459.775 158.411 458.377 152.686L458.071 152.762L458.349 152.909C461.304 147.336 464.177 141.852 466.298 137.658L466.015 137.513L465.711 137.602C467.259 142.949 468.72 148.729 469.216 152.861L469.529 152.823Z"
            fill="#3265B1" />
        <path id="path110"
            d="M38.2171 135.082L37.9138 134.994C36.1211 140.968 34.2576 147.937 33.6711 152.784C32.4625 162.874 32.465 173.951 32.465 173.956H32.7811L32.4802 173.858L31.2539 177.539L31.2565 177.6C31.2565 177.602 31.2716 177.855 31.307 178.325L31.3601 179.043L31.8532 178.518C38.5003 171.42 44.083 161.823 47.4053 155.471L47.4785 155.332L47.4103 155.188C43.4483 146.839 40.1134 138.893 38.5104 134.964L38.1717 134.134L37.9138 134.994L38.2171 135.082L37.9239 135.204C39.5319 139.138 42.8694 147.095 46.8389 155.461L47.1246 155.325L46.8465 155.178C43.5393 161.502 37.9693 171.066 31.3904 178.085L31.623 178.3L31.9366 178.277C31.9038 177.812 31.8886 177.564 31.8886 177.564L31.5725 177.582L31.8734 177.683L33.0971 174.009V173.956C33.0971 173.951 33.0972 171.195 33.2464 167.175C33.3981 163.155 33.6989 157.878 34.2981 152.86C34.8746 148.094 36.733 141.133 38.5206 135.173L38.2171 135.082Z"
            fill="#3265B1" />
        <path id="path112"
            d="M456.283 123.334L456.058 123.112L449.816 129.357L443.244 115.769L442.931 116.123C438.589 121.018 432.263 126.98 428.312 129.422C421.713 133.508 374.348 162.117 360.71 171.277C346.968 180.511 344.124 195.335 342.554 202.349C340.979 209.388 329.219 271.657 329.219 271.659L329.216 271.67V271.68L329.184 272.16C329.174 273.803 330.38 274.764 332.109 275.217C333.851 275.692 336.223 275.783 338.928 275.783C341.752 275.783 360.303 275.75 379.054 275.333C388.429 275.123 397.852 274.82 405.389 274.377C412.942 273.927 418.544 273.369 420.469 272.565C424.011 271.068 427.687 268.107 430.499 264.909C433.303 261.705 435.26 258.292 435.275 255.731L435.237 255.152C434.888 252.618 432.544 251.392 430.405 250.785C428.246 250.173 426.198 250.158 426.18 250.158L336.617 250.153V250.469L336.926 250.54C336.928 250.535 339.188 240.419 340.24 234.222C341.282 228.055 342.862 221.463 344.819 217.759C345.722 216.012 349.413 213.373 352.844 211.264C354.561 210.204 356.217 209.259 357.446 208.581C358.672 207.901 359.466 207.491 359.466 207.489L359.605 207.418L359.633 207.264C363.507 185.621 368.814 180.094 370.068 179.065L369.868 178.822L370.045 179.083L370.053 179.077H370.055L370.376 178.842L370.192 178.587L370.27 178.893L370.28 178.89L370.338 178.875L370.386 178.84C375.456 175.141 391.822 166.663 408.13 158.436C424.446 150.203 440.716 142.211 445.717 139.4C455.861 133.683 462.144 123.415 462.162 123.395L462.172 123.377L462.374 122.922L462.589 122.431L462.055 122.479C458.731 122.775 456.253 123.021 456.25 123.021L456.139 123.033L456.058 123.112L456.283 123.334L456.314 123.65C456.319 123.65 458.791 123.402 462.111 123.109L462.083 122.796L461.795 122.667L461.603 123.104L461.891 123.23L461.623 123.066C461.621 123.066 461.236 123.693 460.498 124.735C458.278 127.86 452.88 134.644 445.406 138.848C440.448 141.637 424.16 149.642 407.844 157.872C391.521 166.109 375.188 174.559 370.015 178.329L370.202 178.584L370.123 178.276L370.113 178.279L370.053 178.294L369.696 178.557L369.688 178.562L369.678 178.569L369.666 178.577C368.235 179.763 362.9 185.436 359.011 207.153L359.322 207.208L359.175 206.928C359.173 206.93 355.969 208.591 352.511 210.728C349.049 212.879 345.35 215.438 344.26 217.463C342.238 221.307 340.67 227.913 339.618 234.115C339.095 237.197 338.268 241.271 337.57 244.573C336.875 247.872 336.311 250.396 336.309 250.401L336.223 250.785L426.178 250.79C426.178 250.79 426.666 250.793 427.424 250.871C428.562 250.987 430.286 251.273 431.753 251.943C433.224 252.621 434.397 253.64 434.61 255.235L434.643 255.731C434.655 257.973 432.784 261.361 430.023 264.491C427.267 267.632 423.637 270.542 420.223 271.983C418.537 272.709 412.863 273.31 405.354 273.745C382.78 275.073 343.158 275.154 338.928 275.151C336.24 275.154 333.899 275.053 332.276 274.608C330.64 274.137 329.826 273.444 329.816 272.16L329.844 271.758L329.53 271.72L329.841 271.778C329.841 271.768 330.574 267.885 331.702 261.938C335.082 244.095 341.995 207.737 343.171 202.488C344.741 195.459 347.56 180.873 361.064 171.803C374.669 162.663 422.041 134.049 428.643 129.958C432.706 127.443 439.022 121.478 443.404 116.543L443.166 116.333L442.883 116.47L449.634 130.431L456.506 123.559L456.283 123.334Z"
            fill="#3265B1" />
        <path id="path114"
            d="M174.404 271.72L174.714 271.659C174.714 271.657 162.955 209.388 161.377 202.349C159.81 195.335 156.965 180.511 143.223 171.277C129.585 162.117 82.221 133.508 75.6194 129.422C71.5916 126.934 65.0887 120.78 60.7399 115.832L60.4263 115.473L53.7135 129.354L47.3925 123.033L47.2813 123.021C47.2788 123.021 45.0083 122.796 41.8933 122.517L41.3623 122.469L41.7517 123.357L41.7618 123.377L41.7719 123.395C41.7871 123.415 48.0702 133.683 58.2166 139.399C63.2177 142.211 79.4878 150.203 95.8035 158.436C112.112 166.663 128.478 175.141 133.547 178.84L133.595 178.875L133.605 178.878L133.868 179.072L133.871 179.075L133.884 179.08L134.063 178.822L133.863 179.065C135.117 180.094 140.424 185.621 144.301 207.264L144.328 207.418L144.467 207.489C144.467 207.491 145.261 207.901 146.488 208.581C148.328 209.598 151.137 211.216 153.663 212.925C156.189 214.624 158.439 216.46 159.114 217.759C161.071 221.463 162.649 228.055 163.693 234.222C164.745 240.419 167.005 250.535 167.008 250.54L167.316 250.469V250.153L77.7559 250.158C77.7357 250.158 75.6851 250.173 73.5284 250.785C71.3868 251.392 69.0456 252.618 68.6967 255.152L68.6588 255.733C68.6714 258.294 70.6309 261.705 73.4349 264.911C76.2465 268.107 79.9227 271.068 83.465 272.565C85.3891 273.369 90.9921 273.927 98.5444 274.377C121.153 275.707 160.768 275.783 165.006 275.783C167.708 275.783 170.08 275.692 171.822 275.217C173.551 274.764 174.76 273.803 174.75 272.163L174.717 271.68V271.67L174.714 271.659L174.404 271.72L174.09 271.758L174.118 272.163C174.113 272.822 173.903 273.29 173.498 273.685C172.292 274.893 169.033 275.169 165.006 275.151C162.184 275.151 143.636 275.118 124.895 274.701C115.525 274.494 106.104 274.188 98.5797 273.745C91.0703 273.31 85.3966 272.709 83.7102 271.983C80.2969 270.542 76.6662 267.632 73.9102 264.494C71.1492 261.364 69.2757 257.976 69.2909 255.733L69.3237 255.238C69.5942 253.116 71.6245 251.983 73.7004 251.392C74.7294 251.101 75.7484 250.949 76.5069 250.871C77.2654 250.793 77.7558 250.79 77.7584 250.79L167.708 250.785L167.625 250.401C167.622 250.396 167.059 247.872 166.363 244.573C165.665 241.271 164.839 237.197 164.315 234.115C163.261 227.913 161.696 221.307 159.673 217.463C158.581 215.441 154.884 212.879 151.42 210.728C147.964 208.591 144.761 206.93 144.758 206.928L144.611 207.208L144.922 207.153C141.031 185.436 135.699 179.763 134.263 178.577L134.255 178.569L134.238 178.557L134.055 178.817L134.243 178.562L133.929 178.332L133.881 178.294L133.81 178.276L133.732 178.584L133.919 178.329C128.746 174.559 112.412 166.109 96.0892 157.872C79.7735 149.642 63.4857 141.637 58.5276 138.848C53.5441 136.044 49.4834 132.095 46.6744 128.849C45.2686 127.223 44.1763 125.777 43.4355 124.735C42.6947 123.693 42.313 123.066 42.3104 123.066L42.0424 123.23L42.3307 123.104L42.1563 122.705L41.8654 122.831L41.8376 123.147C44.9475 123.425 47.213 123.65 47.2181 123.65L47.2483 123.334L47.0259 123.559L53.8955 130.431L60.7879 116.179L60.5047 116.04L60.2671 116.25C64.6538 121.238 71.1466 127.395 75.2881 129.958C81.8923 134.049 129.264 162.663 142.869 171.803C156.374 180.873 159.193 195.459 160.76 202.488C161.544 205.982 164.879 223.317 168.017 239.761C169.584 247.984 171.104 255.988 172.232 261.938C172.795 264.911 173.261 267.371 173.584 269.088C173.91 270.805 174.093 271.778 174.093 271.778L174.404 271.72Z"
            fill="#3265B1" />
        <path id="path116"
            d="M436.807 283.271L436.676 282.983C436.342 283.142 435.432 283.334 434.135 283.504C425 284.723 396.035 285.564 378.983 285.564C359.477 285.564 146.167 285.564 124.604 285.564C113.836 285.564 99.0046 284.74 86.8709 283.918C80.8028 283.506 75.4072 283.094 71.5312 282.786C67.6526 282.477 65.2987 282.272 65.2937 282.27L65.2658 282.586L65.2836 282.902C65.2886 282.902 67.2759 282.791 70.5274 282.621C80.2869 282.121 101.407 281.115 114.167 281.115C131.199 281.115 412.909 281.115 419.091 281.115C421.865 281.115 426.408 281.312 430.249 281.663C432.168 281.838 433.912 282.055 435.161 282.303C435.786 282.424 436.289 282.558 436.61 282.687L436.941 282.859L436.977 282.894L437.058 282.844H436.964L436.977 282.894L437.058 282.844H436.964H437.063L436.974 282.796L436.964 282.844H437.063L436.974 282.796L436.913 282.851L436.676 282.983L436.807 283.271L436.941 283.559L437.379 283.286L437.596 282.844L437.336 282.366C436.85 281.997 435.884 281.779 434.511 281.542C430.426 280.869 423.03 280.485 419.091 280.482C412.909 280.482 131.199 280.482 114.167 280.482C97.1159 280.482 65.2507 282.27 65.2481 282.27L65.238 282.9C65.2431 282.9 103.012 286.197 124.604 286.197C146.167 286.197 359.477 286.197 378.983 286.197C388.74 286.197 402.376 285.921 413.986 285.458C419.791 285.226 425.091 284.948 429.149 284.631C431.179 284.472 432.898 284.305 434.218 284.131C435.546 283.951 436.451 283.779 436.941 283.559L436.807 283.271ZM470.723 173.954H471.039C471.039 173.949 471.042 162.872 469.831 152.781C469.327 148.579 467.856 142.786 466.306 137.424L466.083 136.653L465.722 137.368C460.172 148.341 449.477 168.161 445.598 175.317L445.515 175.471L445.604 175.623C447.065 178.199 447.581 181.284 447.581 183.724C447.581 184.833 447.475 185.812 447.308 186.535C447.174 187.132 446.941 187.787 446.643 188.469L446.448 188.912H446.934V188.596L446.625 188.533C446.625 188.535 446.595 188.679 446.514 188.965C445.937 190.972 442.855 199.475 430.276 204.881C415.855 211.076 401.23 210.694 387.041 212.368C379.972 213.205 370.864 213.912 363.226 214.909C359.408 215.409 355.954 215.981 353.297 216.684C350.64 217.399 348.769 218.18 348.066 219.343C347.525 220.284 346.911 222.294 346.235 224.934C344.223 232.827 341.808 246.175 341.055 250.41L341.366 250.465V250.149H336.62V250.781L426.181 250.786C426.181 250.786 426.668 250.789 427.427 250.867C428.565 250.984 430.289 251.269 431.756 251.939C433.227 252.617 434.4 253.636 434.613 255.231L434.646 255.727C434.658 257.97 432.787 261.358 430.026 264.488C427.27 267.628 423.639 270.538 420.226 271.979C418.54 272.705 412.866 273.307 405.357 273.742C382.783 275.069 343.161 275.15 338.931 275.147C336.243 275.15 333.902 275.049 332.279 274.604C330.643 274.134 329.829 273.441 329.819 272.156L329.846 271.754L329.533 271.716L329.844 271.775C329.844 271.767 330.256 269.58 330.941 265.967C332.992 255.133 337.467 231.54 340.445 216.191L340.519 215.816H331.796L331.7 215.943C330.127 218.094 326.585 219.336 319.136 220.603C310.904 222.013 263.704 222.871 251.752 222.871C239.8 222.871 192.603 222.013 184.368 220.603C176.919 219.336 173.377 218.094 171.804 215.943L171.708 215.816H163.418L163.491 216.191C165.476 226.425 168.126 240.322 170.28 251.659C171.357 257.327 172.31 262.356 172.993 265.967C173.676 269.58 174.09 271.767 174.09 271.775L174.401 271.716L174.088 271.754L174.115 272.159C174.11 272.819 173.898 273.287 173.496 273.681C172.29 274.89 169.028 275.165 165.003 275.147C162.181 275.147 143.633 275.115 124.893 274.697C115.523 274.49 106.102 274.184 98.5773 273.742C91.068 273.307 85.3943 272.705 83.7078 271.979C80.2945 270.538 76.6638 267.628 73.9079 264.49C71.1469 261.36 69.2733 257.972 69.2885 255.729L69.3213 255.234V255.231C69.5919 253.113 71.6222 251.98 73.698 251.388C74.727 251.097 75.746 250.946 76.5045 250.867C77.263 250.789 77.7535 250.786 77.756 250.786L167.314 250.781V250.149H162.566V250.465L162.877 250.41C162.376 247.588 161.135 240.713 159.769 234.107C159.084 230.802 158.369 227.566 157.696 224.934C157.021 222.294 156.407 220.284 155.866 219.343C155.16 218.18 153.289 217.399 150.634 216.684C142.67 214.583 127.5 213.624 116.89 212.368C102.701 210.694 88.0769 211.076 73.6601 204.881C66.4668 201.791 62.3835 197.693 60.0902 194.371C58.9449 192.709 58.247 191.243 57.8374 190.194C57.6326 189.67 57.4986 189.251 57.4177 188.965C57.3367 188.679 57.309 188.535 57.3064 188.533L56.998 188.596V188.912H57.0031V188.596L56.7249 188.747L56.73 188.758L57.2963 188.474C56.9929 187.792 56.7629 187.132 56.6238 186.535C56.457 185.812 56.3507 184.836 56.3507 183.726C56.3507 181.284 56.869 178.191 58.333 175.61L58.429 175.441L58.3228 175.279C50.4166 163.413 41.4863 142.258 38.5104 134.961L38.1717 134.134L37.9138 134.991C36.1211 140.966 34.2576 147.934 33.6711 152.781C32.4625 162.872 32.465 173.949 32.465 173.954H32.7811L32.4802 173.855L31.2539 177.539L31.2565 177.6C31.2565 177.602 33.0668 204.98 34.6799 220.491C36.3006 236.018 41.1147 268.604 46.7858 281.382C52.4166 294.098 58.3987 299.096 67.0028 299.084H436.501C445.105 299.096 451.09 294.098 456.721 281.382C462.392 268.604 467.206 236.018 468.824 220.491C470.437 204.98 472.25 177.602 472.25 177.6L472.253 177.539L471.024 173.855L470.723 173.954L470.425 174.055L471.633 177.681L471.934 177.58L471.618 177.559C471.618 177.564 471.504 179.268 471.31 182.078C470.726 190.502 469.403 208.81 468.195 220.426C466.592 235.899 461.745 268.536 456.144 281.125C450.501 293.774 444.807 298.439 436.501 298.452H67.0028C58.6971 298.439 53.0056 293.774 47.3623 281.125C41.7593 268.536 36.915 235.899 35.3094 220.426C34.5029 212.684 33.6484 201.963 32.9935 193.182C32.6674 188.793 32.3917 184.887 32.197 182.078C32.0023 179.268 31.8886 177.564 31.8886 177.559L31.5725 177.58L31.8734 177.681L33.0971 174.007V173.954C33.0971 173.949 33.0972 171.193 33.2464 167.173C33.3981 163.153 33.6989 157.876 34.2981 152.857C34.8746 148.091 36.733 141.13 38.5206 135.171L38.2171 135.08L37.9239 135.201C40.9124 142.516 49.835 163.671 57.7969 175.63L58.0599 175.453L57.7843 175.299C56.2471 178.014 55.7212 181.198 55.7186 183.726C55.7186 184.876 55.8273 185.89 56.0068 186.677C56.1585 187.327 56.4038 188.019 56.7173 188.732L57.0082 188.603L57.2837 188.449L57.2786 188.442L57.1877 188.28H56.998H56.6137L56.687 188.656C56.6921 188.715 58.7982 199.192 73.4097 205.463C87.9859 211.718 102.694 211.323 116.817 212.997C123.904 213.834 133.009 214.542 140.622 215.536C144.427 216.034 147.861 216.605 150.472 217.293C153.084 217.971 154.864 218.828 155.319 219.66C155.785 220.456 156.422 222.479 157.084 225.088C159.089 232.944 161.504 246.294 162.255 250.521L162.3 250.781H167.314V250.149L77.7535 250.154C77.7333 250.154 75.6827 250.17 73.526 250.781C71.3845 251.388 69.0432 252.614 68.6943 255.148L68.6564 255.729C68.669 258.291 70.6286 261.702 73.4325 264.908C76.2466 268.103 79.9204 271.064 83.4626 272.561C85.3867 273.365 90.9897 273.924 98.542 274.374C121.151 275.704 160.766 275.78 165.003 275.78C167.706 275.78 170.078 275.689 171.82 275.213C173.549 274.761 174.758 273.8 174.745 272.159L174.715 271.676V271.668L174.712 271.656C174.712 271.656 168.08 236.542 164.113 216.072L163.802 216.132V216.448H171.549V216.132L171.296 216.32C173.109 218.744 176.801 219.943 184.262 221.225C192.651 222.653 239.755 223.5 251.752 223.503C263.749 223.5 310.856 222.653 319.242 221.225C326.704 219.943 330.395 218.744 332.208 216.32L331.955 216.132V216.448H340.134V216.132L339.823 216.072C335.854 236.542 329.222 271.656 329.222 271.656L329.219 271.666V271.676L329.186 272.156C329.176 273.8 330.382 274.761 332.112 275.213C333.856 275.689 336.226 275.78 338.931 275.78C341.755 275.78 360.306 275.747 379.056 275.33C388.432 275.12 397.855 274.816 405.392 274.374C412.944 273.924 418.547 273.365 420.471 272.561C424.014 271.064 427.69 268.103 430.501 264.905C433.305 261.702 435.262 258.288 435.278 255.727L435.24 255.148C434.891 252.614 432.547 251.388 430.408 250.781C428.249 250.17 426.201 250.154 426.183 250.154L336.62 250.149V250.781H341.631L341.677 250.521C342.18 247.702 343.419 240.83 344.784 234.233C345.467 230.936 346.18 227.705 346.847 225.088C347.512 222.479 348.147 220.456 348.612 219.66C349.067 218.828 350.847 217.971 353.459 217.293C361.302 215.22 376.488 214.251 387.114 212.997C401.238 211.323 415.946 211.718 430.527 205.463C445.133 199.192 447.239 188.715 447.245 188.656L447.318 188.28H446.931V188.596L447.222 188.722C447.53 188.014 447.778 187.324 447.925 186.677C448.104 185.89 448.213 184.874 448.213 183.724C448.21 181.198 447.687 178.022 446.152 175.312L445.877 175.466L446.155 175.618C450.036 168.46 460.728 148.642 466.286 137.654L466.003 137.51L465.699 137.598C467.247 142.946 468.708 148.726 469.204 152.857C469.805 157.876 470.106 163.153 470.258 167.173C470.407 171.193 470.407 173.949 470.407 173.954V174.007L470.425 174.055L470.723 173.954Z"
            fill="#3265B1" />
        <path id="path118"
            d="M440.36 110.505L440.372 111.137L450.064 110.925L448.033 108.892L447.586 109.337L448.145 109.041C448.145 109.041 428.63 72.2938 414.527 46.0391L413.387 46.5776L438.673 108.589L439.796 110.791L439.975 111.145L440.372 111.137L440.36 110.505L440.923 110.217L439.824 108.06L414.557 46.0997L413.971 46.3399L413.414 46.6382C420.464 59.7631 428.868 75.5124 435.51 87.9799C438.83 94.2149 441.71 99.6282 443.758 103.484C445.808 107.337 447.024 109.628 447.027 109.633L447.072 109.719L447.08 109.724L440.344 109.873L440.36 110.505Z"
            fill="#3265B1" />
        <path id="path120"
            d="M63.1794 110.505L62.5473 110.533L62.5524 110.637L62.661 113.018L64.9265 108.589L90.4733 45.9427L89.3305 45.4067C75.2018 71.6994 55.3743 109.041 55.3743 109.041L55.933 109.337L55.4855 108.889L54.4995 109.878L53.4502 110.925L63.1667 111.137L63.1794 110.505L63.1946 109.873L54.9596 109.694L54.9444 110.326L55.3919 110.771L56.3806 109.784L56.4464 109.719L56.4918 109.633C56.4943 109.628 57.7307 107.299 59.8091 103.39C66.0491 91.6559 79.849 65.7223 90.4455 46.0034L89.8868 45.7051L89.3027 45.4674L63.7761 108.06L62.6207 110.321L63.1845 110.609L63.8166 110.578L63.8115 110.475L63.7836 109.886L63.1946 109.873L63.1794 110.505Z"
            fill="#3265B1" />
        <path id="path122"
            d="M502.823 109.139L502.807 108.507L439.357 109.895L449.552 130.969L456.738 123.781L456.293 123.333L456.353 123.963C456.363 123.963 460.148 123.586 464.644 123.207C469.134 122.83 474.343 122.453 477.104 122.453L477.678 122.458L478.204 122.466C480.947 122.463 485.321 122.016 489.475 121.374C493.637 120.724 497.518 119.91 499.386 119.08C501.523 118.082 502.423 115.553 502.931 113.359C503.424 111.146 503.452 109.174 503.455 109.149L503.465 108.494L502.807 108.507L502.823 109.139L502.19 109.129C502.19 109.131 502.183 109.589 502.117 110.322C502.021 111.419 501.786 113.111 501.267 114.633C500.752 116.165 499.94 117.46 498.871 117.925C497.283 118.645 493.376 119.495 489.28 120.125C485.177 120.759 480.82 121.202 478.204 121.202L477.708 121.194L477.104 121.189C471.41 121.189 456.242 122.706 456.229 122.706L456.004 122.729L449.916 128.817L441.352 111.116L502.835 109.771L502.823 109.139Z"
            fill="#3265B1" />
        <path id="path124"
            d="M501.835 101.257L501.792 100.628C501.787 100.628 499.102 100.812 496.146 101.139C494.669 101.3 493.122 101.498 491.802 101.725C490.472 101.96 489.408 102.198 488.73 102.547C488.032 102.921 487.549 103.563 487.163 104.271C486.025 106.398 485.699 109.391 485.686 109.427L485.603 110.15L503.534 109.755L502.389 100.587L501.792 100.628L501.835 101.257L501.208 101.336L502.105 108.521L486.3 108.868L486.315 109.5L486.943 109.573C486.943 109.573 486.978 109.265 487.066 108.767C487.198 108.021 487.446 106.87 487.838 105.841C488.222 104.802 488.791 103.922 489.322 103.662C489.691 103.46 490.75 103.184 492.02 102.972C493.936 102.638 496.409 102.365 498.394 102.18C500.381 101.991 501.875 101.889 501.878 101.887L501.835 101.257Z"
            fill="#3265B1" />
        <path id="path126"
            d="M0.725228 109.139L0.712635 109.771L62.1929 111.116L53.6317 128.817L47.5459 122.729L47.3209 122.706C47.3082 122.706 32.1404 121.189 26.4414 121.189L25.8347 121.194L25.3391 121.202C22.7273 121.202 18.3709 120.759 14.2673 120.125C10.1713 119.495 6.26749 118.645 4.67966 117.925C3.24354 117.323 2.29793 115.169 1.85041 113.083C1.62033 112.049 1.4964 111.053 1.43066 110.322C1.36492 109.589 1.35732 109.131 1.35732 109.129L0.725228 109.139L0.0931312 109.149C0.0931312 109.174 0.123551 111.146 0.616586 113.359C1.12479 115.553 2.02484 118.082 4.16386 119.08C6.03234 119.91 9.91087 120.724 14.0726 121.374C18.2267 122.016 22.6009 122.463 25.3391 122.466L25.8675 122.458L26.4414 122.453C29.205 122.453 34.4135 122.83 38.9065 123.207C43.4019 123.586 47.1869 123.963 47.1971 123.963L47.2577 123.333L46.8127 123.781L53.9958 130.969L64.1877 109.895L0.0830078 108.494L0.0931312 109.149L0.725228 109.139Z"
            fill="#3265B1" />
        <path id="path128"
            d="M1.69913 101.257L1.65358 101.887C1.66116 101.887 4.32352 102.071 7.24887 102.393C8.71027 102.554 10.2375 102.749 11.5143 102.972C12.7835 103.184 13.8429 103.46 14.2121 103.662C14.5635 103.841 14.9403 104.279 15.2588 104.873C15.7392 105.758 16.0856 106.951 16.2955 107.907C16.4017 108.385 16.4775 108.805 16.523 109.105C16.5711 109.404 16.5913 109.573 16.5913 109.573L17.2183 109.5L17.2335 108.868L1.42605 108.521L2.32617 101.336L1.69913 101.257L1.0721 101.179L0 109.755L17.9313 110.15L17.8478 109.427C17.8453 109.409 17.6886 108.061 17.2562 106.544C17.0388 105.786 16.7556 104.984 16.3713 104.271C15.9845 103.563 15.499 102.921 14.8037 102.547C14.1261 102.198 13.0591 101.96 11.7317 101.725C7.77729 101.042 1.75221 100.628 1.74209 100.628L1.14531 100.587L1.0721 101.179L1.69913 101.257Z"
            fill="#3265B1" />
        <path id="path130"
            d="M251.761 223.188V223.82C257.761 223.82 272.541 223.605 286.872 223.216C301.216 222.821 315.039 222.263 319.304 221.537C323.478 220.824 326.475 220.129 328.664 219.226C330.846 218.331 332.257 217.17 333.043 215.585C333.268 215.133 333.483 214.427 333.746 213.444C335.549 206.614 338.876 187.214 339.079 185.323C339.109 185.022 339.142 184.673 339.142 184.289C339.154 183.138 338.811 181.631 337.329 180.385C335.857 179.136 333.367 178.114 329.086 177.528C322.821 176.676 306.376 176.094 290.018 175.717C273.669 175.343 257.452 175.179 251.761 175.179C246.069 175.179 229.852 175.343 213.504 175.717C197.145 176.094 180.7 176.676 174.435 177.528C170.155 178.114 167.667 179.136 166.195 180.385C164.713 181.629 164.37 183.136 164.382 184.286C164.382 184.67 164.415 185.022 164.445 185.323C164.559 186.423 165.692 193.186 166.981 200.104C167.626 203.558 168.311 207.037 168.923 209.836C169.229 211.236 169.517 212.465 169.775 213.444C170.038 214.427 170.256 215.133 170.478 215.588C171.265 217.17 172.675 218.331 174.857 219.226C177.047 220.129 180.043 220.824 184.217 221.537C188.485 222.263 202.308 222.821 216.652 223.216C230.98 223.605 245.761 223.82 251.761 223.82V223.188V222.556C245.784 222.556 231.003 222.341 216.684 221.952C202.384 221.562 188.475 220.986 184.43 220.29C180.293 219.585 177.36 218.895 175.34 218.058C173.315 217.213 172.24 216.275 171.608 215.021C171.474 214.763 171.244 214.063 170.996 213.12C169.229 206.46 165.874 186.908 165.702 185.194V185.191C165.674 184.906 165.646 184.6 165.646 184.286C165.659 183.338 165.851 182.355 167.014 181.346C168.187 180.339 170.453 179.343 174.607 178.779C180.713 177.945 197.203 177.356 213.532 176.982C229.87 176.607 246.087 176.443 251.761 176.443C257.434 176.443 273.651 176.607 289.99 176.982C306.318 177.356 322.808 177.945 328.914 178.779C333.071 179.343 335.334 180.342 336.51 181.348C337.673 182.357 337.865 183.341 337.878 184.289C337.878 184.602 337.85 184.906 337.819 185.194L337.822 185.191C337.721 186.155 336.58 192.994 335.296 199.871C334.651 203.317 333.971 206.786 333.364 209.565C333.061 210.953 332.775 212.169 332.525 213.12C332.277 214.063 332.047 214.763 331.913 215.021C331.281 216.275 330.207 217.213 328.181 218.058C326.161 218.895 323.228 219.585 319.092 220.29C315.049 220.986 301.14 221.562 286.837 221.952C272.519 222.341 257.738 222.556 251.761 222.556V223.188Z"
            fill="#3265B1" />
        <path id="path132"
            d="M251.756 220.861V220.229C245.043 220.229 230.236 220.001 216.138 219.609C202.055 219.217 188.612 218.648 184.817 217.996C181.085 217.359 178.45 216.745 176.68 216.08C174.9 215.41 174.046 214.712 173.687 213.981L173.12 214.262L173.689 213.989C173.59 213.789 173.388 213.149 173.166 212.279C171.58 206.118 168.261 187.375 168.015 184.955L167.977 184.422C168 183.898 168.056 183.451 168.931 182.819C169.818 182.199 171.611 181.537 174.915 181.092C181.031 180.255 197.744 179.668 214.143 179.302C230.547 178.93 246.684 178.773 251.756 178.773C256.827 178.773 272.964 178.93 289.368 179.302C305.767 179.668 322.482 180.255 328.596 181.092C331.9 181.537 333.693 182.199 334.58 182.819C335.453 183.451 335.508 183.898 335.534 184.419L335.496 184.955C335.359 186.323 334.211 193.064 332.962 199.698C332.338 203.021 331.685 206.328 331.117 208.95C330.833 210.259 330.57 211.397 330.345 212.277C330.125 213.149 329.921 213.789 329.822 213.989L330.391 214.264L329.825 213.981C329.466 214.712 328.613 215.412 326.833 216.08C325.064 216.747 322.426 217.359 318.695 217.996C314.899 218.648 301.456 219.217 287.373 219.609C273.277 220.001 258.468 220.229 251.756 220.229V220.861V221.493C258.491 221.493 273.3 221.265 287.408 220.871C301.534 220.477 314.889 219.923 318.907 219.243C322.677 218.598 325.364 217.981 327.278 217.263C329.18 216.547 330.371 215.711 330.955 214.545L330.96 214.54C331.149 214.138 331.334 213.503 331.572 212.59C333.187 206.277 336.484 187.681 336.755 185.084C336.772 184.9 336.798 184.675 336.798 184.419C336.821 183.643 336.489 182.568 335.298 181.777C334.118 180.97 332.168 180.305 328.768 179.838C322.492 178.983 305.825 178.407 289.398 178.037C272.979 177.666 256.845 177.509 251.756 177.509C246.666 177.509 230.532 177.666 214.113 178.037C197.686 178.407 181.019 178.983 174.743 179.838C171.343 180.305 169.393 180.97 168.212 181.777C167.022 182.571 166.688 183.645 166.713 184.422C166.713 184.677 166.738 184.902 166.756 185.084C166.913 186.583 168.053 193.263 169.307 199.933C169.934 203.266 170.589 206.58 171.158 209.22C171.444 210.54 171.709 211.69 171.942 212.593C172.177 213.503 172.362 214.138 172.551 214.537L172.559 214.55L172.556 214.545C173.143 215.711 174.334 216.547 176.235 217.263C178.149 217.981 180.834 218.598 184.602 219.243C188.622 219.923 201.977 220.477 216.103 220.871C230.214 221.265 245.02 221.493 251.756 221.493V220.861Z"
            fill="#3265B1" />
        <path id="path142"
            d="M319.768 250.476V249.844H183.716C183.397 249.844 183.056 249.841 182.704 249.841C181.157 249.846 179.377 249.879 177.878 250.547C177.129 250.88 176.449 251.396 175.971 252.145C175.493 252.893 175.233 253.849 175.235 255.019L175.238 255.146L175.867 255.128L175.235 255.136C175.273 257.679 175.852 262.091 177.058 266.281C178.285 270.458 180.055 274.425 182.853 276.023C186.14 277.846 190.024 278.159 194.072 278.162C196.507 278.162 199.007 278.045 201.49 278.045H301.994C304.476 278.045 306.977 278.162 309.412 278.162C313.457 278.159 317.341 277.846 320.633 276.023C323.429 274.425 325.197 270.458 326.423 266.281C327.629 262.091 328.208 257.679 328.246 255.136V255.022C328.248 253.849 327.988 252.893 327.51 252.145C326.789 251.014 325.634 250.44 324.436 250.155C323.229 249.866 321.94 249.841 320.777 249.841C320.426 249.841 320.087 249.844 319.768 249.844V250.476V251.108C320.094 251.108 320.433 251.105 320.777 251.105C322.294 251.1 323.935 251.174 325.085 251.7C325.664 251.962 326.117 252.314 326.446 252.825C326.769 253.335 326.982 254.028 326.982 255.022V255.118C326.951 257.505 326.382 261.874 325.209 265.929C324.056 269.995 322.216 273.734 320.019 274.918C317.06 276.564 313.399 276.902 309.412 276.897C307.017 276.9 304.514 276.781 301.994 276.781H201.49C198.969 276.781 196.466 276.9 194.072 276.897C190.085 276.902 186.421 276.564 183.468 274.918C181.268 273.734 179.425 269.995 178.274 265.929C177.101 261.874 176.532 257.505 176.5 255.118V255.108V255.019C176.5 254.028 176.712 253.335 177.038 252.825C177.521 252.066 178.315 251.634 179.342 251.386C180.36 251.138 181.569 251.103 182.704 251.105C183.051 251.105 183.389 251.108 183.716 251.108H319.768V250.476Z"
            fill="#3265B1" />
        <path id="path146"
            d="M434.923 255.19L435.55 255.107C435.373 253.757 434.627 252.718 433.681 251.989C430.847 249.828 426.235 249.858 426.182 249.838L350.075 249.833L349.946 250.295C349.231 252.872 348.085 257.029 347.072 260.824C346.055 264.626 345.18 268.024 344.988 269.22C344.9 269.784 344.844 270.348 344.844 270.907C344.829 272.699 345.466 274.49 347.271 275.923L347.446 276.065H347.671C357.706 276.007 374.403 275.837 389.339 275.374C396.807 275.142 403.834 274.836 409.371 274.429C412.14 274.227 414.537 273.999 416.438 273.744C418.347 273.483 419.732 273.21 420.592 272.854C424.198 271.324 427.894 268.341 430.733 265.114C433.56 261.87 435.563 258.447 435.59 255.726L435.55 255.107L434.923 255.19L434.296 255.274L434.326 255.726C434.354 257.81 432.526 261.185 429.785 264.28C427.057 267.39 423.449 270.277 420.099 271.688C419.487 271.954 418.124 272.244 416.268 272.49C403.202 274.257 365.2 274.699 347.663 274.801L347.668 275.433L348.063 274.94C346.548 273.701 346.123 272.434 346.108 270.907C346.108 270.431 346.154 269.936 346.237 269.418C346.399 268.381 347.281 264.925 348.293 261.15C349.304 257.362 350.449 253.208 351.165 250.634L350.556 250.465V251.097L426.177 251.102L426.498 251.112C427.244 251.147 429.163 251.309 430.895 251.931C431.76 252.242 432.574 252.667 433.178 253.216C433.78 253.767 434.18 254.417 434.296 255.274L434.923 255.19Z"
            fill="#3265B1" />
        <path id="path148"
            d="M69.0132 255.195L68.3862 255.109L68.3457 255.733C68.3735 258.454 70.3735 261.877 73.2003 265.119C76.0422 268.347 79.7386 271.328 83.3441 272.858C84.1885 273.209 85.5362 273.475 87.387 273.733C100.259 275.493 136.969 275.943 155.062 276.062H155.289L155.464 275.92C157.259 274.489 157.891 272.701 157.876 270.914C157.876 270.352 157.82 269.791 157.732 269.227V269.225C157.54 268.029 156.665 264.631 155.648 260.828C154.635 257.033 153.487 252.876 152.771 250.3L152.642 249.837L77.7563 249.842H77.7538C77.721 249.842 75.6527 249.857 73.4454 250.482C72.3405 250.795 71.1977 251.261 70.2521 251.994C69.309 252.722 68.5607 253.761 68.3862 255.111V255.109L69.0132 255.195L69.6403 255.278C69.7717 254.3 70.2748 253.587 71.0283 252.993C72.1559 252.108 73.855 251.607 75.2633 251.362C75.9688 251.238 76.5984 251.175 77.051 251.142C77.5036 251.106 77.7639 251.106 77.7639 251.106H77.7589L152.162 251.101V250.469L151.552 250.639C152.268 253.212 153.416 257.367 154.427 261.154C155.439 264.929 156.321 268.385 156.485 269.425L156.483 269.422C156.566 269.94 156.614 270.438 156.614 270.914C156.597 272.438 156.174 273.702 154.67 274.936L155.067 275.429L155.069 274.797C144.743 274.732 128.322 274.552 113.768 274.087C106.491 273.854 99.68 273.548 94.3375 273.149C91.6675 272.952 89.3641 272.727 87.5589 272.481C85.7612 272.236 84.4364 271.953 83.8371 271.692C80.487 270.282 76.879 267.394 74.1509 264.284C71.4101 261.192 69.5821 257.814 69.6099 255.733L69.6377 255.278H69.6403L69.0132 255.195Z"
            fill="#3265B1" />
        <path id="path150"
            d="M133.754 178.585L133.443 179.134L133.496 179.041L133.438 179.132L133.443 179.134L133.496 179.041L133.438 179.132C133.58 179.207 139.683 183.177 144.002 207.318L144.624 207.207L144.646 206.577C144.631 206.575 138.909 206.38 131.018 206.094C123.125 205.811 113.074 205.437 104.447 205.083C87.2595 204.378 73.5784 201.04 68.203 199.015C65.6139 198.041 63.0071 195.938 60.9566 193.546C58.9036 191.162 57.4017 188.477 56.9466 186.466C56.7873 185.771 56.6812 184.81 56.6812 183.718C56.6787 181.132 57.2753 177.799 58.9693 175.185C60.6735 172.575 63.3814 170.634 67.9072 170.619C73.5202 170.616 90.018 172.763 105.032 174.912C112.546 175.986 119.701 177.061 124.98 177.865C130.257 178.671 133.648 179.207 133.655 179.21L133.754 178.585L133.853 177.961C133.853 177.961 120.247 175.809 105.211 173.66C90.1595 171.511 73.7351 169.359 67.9072 169.354C62.9971 169.342 59.7734 171.584 57.9075 174.5C56.0314 177.412 55.4195 180.947 55.417 183.718C55.417 184.894 55.5282 185.93 55.7128 186.75C56.2539 189.073 57.8443 191.854 59.9985 194.37C62.1577 196.878 64.8782 199.108 67.7555 200.198C73.323 202.289 87.0598 205.629 104.394 206.345C121.658 207.055 144.601 207.839 144.601 207.839L145.385 207.867L145.245 207.096C140.753 182.017 134.323 178.191 134.067 178.034L133.966 177.979L133.853 177.961L133.754 178.585Z"
            fill="#3265B1" />
        <path id="path154"
            d="M370.191 178.585L369.878 178.034C369.622 178.191 363.193 182.017 358.7 207.096L358.561 207.867L359.342 207.839C359.344 207.839 382.287 207.055 399.551 206.345C416.885 205.629 430.62 202.289 436.185 200.198C439.064 199.108 441.787 196.878 443.947 194.37C446.101 191.854 447.691 189.073 448.23 186.75C448.417 185.93 448.526 184.889 448.528 183.713C448.523 180.939 447.911 177.407 446.035 174.497C444.169 171.582 440.945 169.342 436.035 169.354C430.21 169.359 413.786 171.511 398.734 173.66C383.698 175.809 370.092 177.961 370.092 177.961L369.979 177.979L369.878 178.034L370.191 178.585L370.29 179.21C370.297 179.207 373.688 178.671 378.965 177.865C386.884 176.656 399.027 174.843 410.259 173.334C421.482 171.822 431.836 170.616 436.035 170.619C440.561 170.634 443.269 172.576 444.973 175.182C446.667 177.794 447.267 181.124 447.264 183.713C447.264 184.808 447.158 185.771 446.996 186.466C446.541 188.477 445.042 191.162 442.986 193.546C440.935 195.938 438.329 198.041 435.74 199.015C430.367 201.04 416.686 204.378 399.498 205.083C390.871 205.437 380.821 205.811 372.927 206.094C365.036 206.38 359.314 206.575 359.299 206.577L359.322 207.207L359.944 207.318C362.174 194.866 364.876 187.769 366.993 183.819C368.05 181.845 368.96 180.654 369.587 179.969C369.903 179.625 370.146 179.407 370.305 179.281L370.474 179.154L370.507 179.132L370.449 179.038L370.502 179.134L370.507 179.132L370.449 179.038L370.502 179.134L370.191 178.585Z"
            fill="#3265B1" />
        <path id="path158"
            d="M251.37 109.074V109.706C299.743 109.706 345.019 111.777 378.202 113.848C394.79 114.882 408.358 115.919 417.776 116.695C422.484 117.084 426.155 117.405 428.651 117.633C431.144 117.86 432.456 117.987 432.461 117.989L433.371 118.078L433.131 117.193C422.532 78.1395 396.216 30.4971 396.206 30.4743L396.072 30.2341L395.807 30.1659C390.788 28.9017 381.018 27.913 368.677 27.1141C331.679 24.7247 271.802 24.1407 251.37 24.1407C237.747 24.1407 206.593 24.4011 176.376 25.281C161.266 25.7209 146.392 26.3176 134.058 27.1141C121.717 27.913 111.947 28.9017 106.929 30.1659L106.663 30.2341L106.529 30.4743C106.521 30.4971 80.2035 78.1395 69.6045 117.193L69.3643 118.078L70.2771 117.989C70.2796 117.987 71.5917 117.86 74.0847 117.633C91.5458 116.048 166.707 109.706 251.37 109.706V109.074V108.442C154.543 108.442 70.1658 116.73 70.1531 116.73L70.2139 117.36L70.8257 117.524C76.0873 98.1188 85.2931 76.4935 93.1817 59.7353C97.126 51.3563 100.742 44.1908 103.369 39.1214C104.683 36.5879 105.75 34.5779 106.489 33.1999C107.227 31.8245 107.636 31.0862 107.636 31.0836L107.083 30.7802L107.24 31.3921C112.059 30.1709 121.836 29.1671 134.139 28.3757C171.071 25.9889 230.959 25.4049 251.37 25.4049C264.975 25.4049 296.125 25.6653 326.324 26.5452C341.424 26.9851 356.286 27.5793 368.596 28.3757C380.897 29.1671 390.677 30.1709 395.498 31.3921L395.653 30.7802L395.099 31.0836C395.101 31.0862 395.509 31.8245 396.247 33.1999C401.417 42.8305 422.701 83.5553 431.912 117.524L432.522 117.36L432.585 116.73C432.572 116.73 348.19 108.442 251.37 108.442V109.074Z"
            fill="#3265B1" />
        <path id="path162"
            d="M413.748 298.77L414.363 298.62C413.71 295.961 412.563 293.382 410.565 291.447C408.568 289.513 405.721 288.277 401.865 288.282C390.176 288.282 115.366 288.282 102.266 288.282C97.657 288.274 94.6381 289.862 92.7797 291.988C90.9188 294.112 90.2033 296.696 89.9302 298.684L89.8291 299.402H414.555L414.363 298.62L413.748 298.77V298.137H90.5548V298.77L91.1818 298.856C91.4321 297.015 92.1022 294.671 93.7304 292.823C95.3613 290.98 97.9351 289.556 102.266 289.546C115.366 289.546 390.176 289.546 401.865 289.546C405.46 289.554 407.92 290.658 409.685 292.358C411.45 294.059 412.52 296.408 413.136 298.921L413.748 298.77Z"
            fill="#3265B1" />
        <path id="path164"
            d="M501.843 101.257L502.447 101.065C500.726 95.7324 494.963 90.878 489.568 89.4039C484.572 88.0715 471.561 86.0765 466.501 86.0715C466.216 86.0715 465.953 86.0765 465.715 86.0892C463.283 86.2535 461.194 88.1397 459.566 90.4734C457.94 92.8198 456.775 95.6793 456.385 98.0762C455.887 101.148 455.424 106.701 455.164 110.122L455.794 110.167L455.781 109.535L448.83 109.687L448.037 108.893L447.589 109.338L448.148 109.042C448.148 109.042 436.924 87.9045 425.347 66.2363C419.559 55.4047 413.681 44.4391 409.077 35.9159C406.773 31.653 404.789 28.0045 403.289 25.284C401.785 22.5584 400.788 20.7936 400.402 20.212C399.016 18.1185 397.264 15.1148 391.992 12.3513C386.721 9.57768 377.945 6.95571 362.301 5.23894C331.045 1.80792 272.733 0.000126498 251.768 0.000126498C230.8 0.000126498 172.488 1.80792 141.232 5.23894C125.586 6.95571 116.81 9.57768 111.538 12.3513C106.267 15.1148 104.515 18.1185 103.129 20.212C102.742 20.7936 101.746 22.5584 100.242 25.284C89.7565 44.3126 55.3881 109.039 55.3855 109.042L55.9443 109.338L55.4968 108.89L54.7004 109.687L47.7751 109.535L47.7625 110.167L48.392 110.122C48.1341 106.701 47.6689 101.148 47.1733 98.0762C46.7814 95.6793 45.6159 92.8198 43.9901 90.4734C42.3619 88.1397 40.2734 86.2535 37.8436 86.0892C37.6034 86.0765 37.3404 86.0715 37.0547 86.0715C31.9954 86.0765 18.9843 88.0715 13.9907 89.4039C8.59515 90.878 2.83303 95.7324 1.10867 101.065L1.0909 101.12L0.0947266 109.105V109.148C0.0947266 109.173 0.125146 111.146 0.618182 113.358C1.12639 115.552 2.02644 118.081 4.16545 119.08C6.03393 119.909 9.91246 120.723 14.0742 121.373C18.2283 122.015 22.6025 122.463 25.3407 122.465L25.8691 122.458L26.443 122.452C29.96 122.45 37.4088 123.062 42.3467 123.507L42.4023 122.877L41.9547 122.43L41.6058 122.781L41.5047 122.885L41.4567 123.019C41.4516 123.044 34.6048 142.538 33.3709 152.745C32.1598 162.861 32.1623 173.943 32.1623 173.956H32.7944L32.1927 173.756L30.9461 177.5L30.9562 177.624C30.9562 177.627 32.764 205.004 34.3797 220.526C35.1888 228.293 36.7993 240.331 38.9156 252.027C41.0369 263.729 43.6463 275.058 46.5084 281.513C49.3503 287.897 52.2529 292.358 55.5802 295.247C58.9051 298.137 62.6698 299.409 67.0161 299.402H436.515C440.861 299.409 444.626 298.137 447.951 295.247C451.28 292.358 454.183 287.897 457.025 281.513C459.887 275.058 462.494 263.729 464.615 252.027C466.734 240.331 468.345 228.293 469.151 220.526C470.767 205.004 472.577 177.627 472.577 177.624L472.587 177.5L471.338 173.756L470.736 173.956H471.368C471.368 173.943 471.371 162.861 470.157 152.745C468.926 142.538 462.079 123.044 462.074 123.019L462.026 122.885L461.576 122.435L461.131 122.882L461.187 123.509C466.125 123.062 473.593 122.45 477.11 122.452L477.684 122.458L478.21 122.465C480.954 122.463 485.328 122.015 489.482 121.373C493.644 120.723 497.525 119.909 499.393 119.08C501.53 118.081 502.43 115.552 502.938 113.358C503.431 111.146 503.459 109.173 503.461 109.148V109.105L502.463 101.12L502.447 101.065L501.843 101.257L501.216 101.335L502.202 109.216L502.829 109.138L502.197 109.128C502.197 109.13 502.19 109.588 502.124 110.321C502.028 111.419 501.792 113.11 501.274 114.632C500.758 116.164 499.947 117.459 498.877 117.924C497.289 118.645 493.383 119.494 489.287 120.124C485.184 120.758 480.827 121.201 478.21 121.201L477.715 121.193L477.11 121.188C473.48 121.188 466.034 121.803 461.073 122.25L459.728 122.374L461.032 123.676L461.477 123.229L460.881 123.438C460.883 123.441 461.308 124.652 461.968 126.637C463.945 132.579 468.016 145.461 468.903 152.897C469.503 157.903 469.803 163.172 469.955 167.187C470.104 171.202 470.104 173.951 470.104 173.956V174.059L471.348 177.781L471.947 177.581L471.318 177.541C471.315 177.543 471.204 179.25 471.009 182.059C470.423 190.481 469.1 208.789 467.894 220.395C467.09 228.126 465.482 240.146 463.371 251.802C461.265 263.453 458.641 274.767 455.87 281C453.071 287.296 450.236 291.594 447.124 294.292C444.006 296.987 440.623 298.132 436.515 298.137H67.0161C62.9075 298.132 59.5245 296.987 56.4095 294.292C53.2945 291.594 50.4628 287.296 47.6638 280.997C44.8902 274.767 42.2657 263.453 40.1595 251.802C38.0509 240.146 36.4404 228.126 35.6363 220.395C34.8323 212.658 33.9777 201.94 33.3229 193.161C32.9967 188.772 32.7186 184.866 32.5239 182.059C32.3292 179.25 32.218 177.543 32.218 177.541L31.5859 177.581L32.1851 177.781L33.4265 174.059V173.956C33.4265 173.951 33.4266 171.202 33.5757 167.187C33.7249 163.172 34.0258 157.903 34.625 152.897C35.2192 147.946 37.2266 140.556 39.085 134.434C40.0129 131.37 40.9055 128.619 41.5629 126.637C42.2228 124.652 42.6475 123.441 42.65 123.438L42.0534 123.229L42.5009 123.676L42.8498 123.325L43.803 122.369L42.4604 122.248C37.5022 121.803 30.0738 121.188 26.443 121.188L25.8363 121.193L25.3407 121.201C22.7289 121.201 18.3725 120.758 14.2689 120.124C10.1729 119.494 6.26908 118.645 4.68126 117.924C3.24513 117.322 2.29953 115.168 1.85201 113.082C1.62192 112.048 1.49799 111.052 1.43225 110.321C1.36652 109.588 1.35892 109.13 1.35892 109.128L0.726823 109.138L1.35386 109.216L2.34003 101.335L1.71299 101.257L2.31472 101.449C3.79635 96.6806 9.36632 91.9323 14.3169 90.6251C19.1183 89.3306 32.2508 87.3255 37.0547 87.3357C37.3227 87.3357 37.5629 87.3407 37.7677 87.3534C39.5249 87.4343 41.4389 88.9968 42.9509 91.1914C44.4654 93.3709 45.578 96.1167 45.9243 98.2785C46.4073 101.252 46.875 106.814 47.1304 110.215L47.1733 110.786L55.2111 110.963L56.3918 109.785L56.4576 109.719L56.5031 109.634C56.5031 109.631 57.2034 108.314 58.4373 105.995C62.7532 97.874 73.5798 77.5154 83.6352 58.7244C88.6642 49.329 93.5009 40.3254 97.2328 33.4406C99.0988 29.9994 100.687 27.0868 101.888 24.9199C103.084 22.7632 103.905 21.322 104.181 20.9124C105.612 18.7759 107.081 16.1439 112.128 13.4714C117.172 10.8115 125.811 8.19967 141.371 6.49554C172.521 3.07463 230.861 1.26179 251.768 1.26432C272.673 1.26179 331.013 3.07463 362.162 6.49554C377.722 8.19967 386.359 10.8115 391.403 13.4714C396.45 16.1439 397.919 18.7759 399.35 20.9124C399.668 21.3852 400.69 23.1879 402.182 25.8958C407.418 35.395 418.631 56.3326 428.535 74.8909C433.486 84.1726 438.11 92.8577 441.498 99.2241C444.884 105.588 447.025 109.626 447.03 109.634L447.076 109.719L448.128 110.771L448.317 110.963L456.38 110.786L456.426 110.218C456.684 106.814 457.149 101.252 457.634 98.2785C457.978 96.1167 459.091 93.3709 460.605 91.1914C462.117 88.9968 464.031 87.4343 465.788 87.3534C465.996 87.3407 466.236 87.3357 466.501 87.3357C471.305 87.3255 484.44 89.3306 489.242 90.6251C494.192 91.9323 499.762 96.6806 501.241 101.449L501.843 101.257Z"
            fill="#3265B1" />
        <path id="path166"
            d="M67.0084 298.77V298.138C62.8998 298.133 59.5167 296.987 56.4018 294.292C53.2868 291.594 50.455 287.296 47.6561 280.998C45.0494 275.137 42.569 264.768 40.5311 253.858C38.4907 242.946 36.8751 231.469 35.9447 223.305L34.6855 223.376V341.343C34.6855 343.669 35.3404 345.793 36.4352 347.37C37.5249 348.943 39.1001 349.997 40.8953 350H89.4074C91.2 349.997 92.7727 348.941 93.8599 347.37C94.9547 345.79 95.6096 343.669 95.6096 341.343V298.138H67.0084V298.77V299.402H94.3454V341.343C94.3479 343.429 93.7486 345.317 92.8207 346.65C91.8902 347.987 90.6766 348.738 89.4074 348.736H40.8953C39.6235 348.738 38.4073 347.987 37.4743 346.647C36.5464 345.317 35.9472 343.429 35.9497 341.343V223.376H35.3176L34.688 223.447C35.6235 231.644 37.2391 243.14 39.2871 254.091C41.3402 265.049 43.808 275.438 46.5007 281.511C49.3426 287.898 52.2452 292.358 55.5725 295.248C58.8973 298.138 62.6621 299.409 67.0084 299.402V298.77Z"
            fill="#3265B1" />
        <path id="path168"
            d="M468.518 220.461L467.888 220.395C467.084 228.127 465.477 240.147 463.365 251.802C461.259 263.453 458.635 274.768 455.864 281C453.065 287.296 450.23 291.594 447.118 294.292C444 296.987 440.617 298.133 436.509 298.138H408.605V341.343C408.608 343.669 409.263 345.793 410.358 347.37C411.447 348.943 413.02 349.997 414.815 350H463.33C465.122 349.997 466.695 348.941 467.78 347.37C468.875 345.79 469.527 343.669 469.529 341.343V216.62L468.268 216.562C468.141 217.897 468.015 219.186 467.888 220.395L468.518 220.461L469.145 220.526C469.274 219.313 469.401 218.018 469.527 216.678L468.897 216.62H468.265V341.343C468.265 343.429 467.669 345.317 466.743 346.65C465.81 347.987 464.599 348.738 463.33 348.736H414.815C413.543 348.738 412.33 347.987 411.397 346.647C410.469 345.317 409.87 343.429 409.87 341.343V299.402H436.509C440.855 299.409 444.62 298.138 447.945 295.248C451.274 292.358 454.177 287.898 457.019 281.514C459.881 275.059 462.488 263.729 464.609 252.028C466.728 240.331 468.339 228.294 469.145 220.526L468.518 220.461Z"
            fill="#3265B1" />
        <path id="path170"
            d="M431.822 114.818L431.519 114.904C431.759 115.756 432.004 116.606 432.234 117.445L432.538 117.362L432.568 117.046C432.563 117.046 348.188 108.76 251.386 108.76C154.577 108.76 70.2048 117.046 70.1997 117.046L70.2301 117.362L70.536 117.443C70.67 116.942 70.8217 116.431 70.9633 115.923L71.0998 115.443L61.0898 117.144L61.4818 117.574C65.7927 122.282 71.5169 127.614 75.3019 129.958C81.906 134.049 129.278 162.663 142.883 171.803C156.387 180.872 159.207 195.458 160.774 202.487C161.163 204.224 162.19 209.41 163.505 216.194L163.555 216.452H340.411L340.462 216.194C341.776 209.41 342.8 204.224 343.19 202.487C344.76 195.458 347.579 180.872 361.083 171.803C374.688 162.663 422.06 134.049 428.662 129.958C430.664 128.722 433.198 126.651 435.787 124.279L435.792 124.274L442.356 117.711L442.482 117.571L442.836 117.177L442.323 117.053C442.232 117.03 438.136 116.032 431.896 114.512L431.37 114.383L431.519 114.904L431.822 114.818L431.746 115.127C437.986 116.646 442.08 117.645 442.171 117.668L442.247 117.359L442.012 117.149L441.9 117.273L435.349 123.822L435.572 124.047L435.359 123.814C432.788 126.168 430.27 128.224 428.331 129.422C421.732 133.508 374.367 162.117 360.729 171.277C346.987 180.511 344.143 195.335 342.573 202.348C342.178 204.108 341.157 209.286 339.84 216.075L340.151 216.136V215.82H163.816V216.136L164.127 216.075C162.809 209.286 161.785 204.108 161.391 202.348C159.823 195.335 156.979 180.511 143.237 171.277C129.599 162.117 82.2348 133.508 75.6331 129.422C71.9569 127.149 66.225 121.824 61.947 117.147L61.7144 117.359L61.7675 117.673L70.7129 116.148L70.6598 115.837L70.3565 115.751C70.2149 116.254 70.0631 116.77 69.9266 117.281L69.8077 117.721L70.2629 117.675C70.2654 117.675 71.5776 117.546 74.0731 117.321C91.5392 115.733 166.708 109.392 251.386 109.392C299.77 109.392 345.051 111.463 378.236 113.534C394.83 114.57 408.397 115.604 417.818 116.381C422.528 116.77 426.199 117.094 428.695 117.321C431.19 117.546 432.502 117.675 432.508 117.675L432.963 117.721L432.844 117.278C432.614 116.434 432.368 115.582 432.126 114.732L431.822 114.818Z"
            fill="#3265B1" />
        <path id="path172"
            d="M342.862 202.417L342.554 202.349C340.979 209.388 329.219 271.657 329.219 271.659L329.216 271.67V271.68L329.184 272.16C329.174 273.803 330.38 274.764 332.109 275.217C333.851 275.692 336.223 275.783 338.928 275.783C341.752 275.783 360.303 275.75 379.054 275.333C388.429 275.123 397.852 274.82 405.389 274.377C412.942 273.927 418.544 273.369 420.469 272.565C424.011 271.068 427.687 268.107 430.499 264.909C433.303 261.705 435.26 258.292 435.275 255.731L435.237 255.152C434.888 252.618 432.544 251.392 430.405 250.785C428.246 250.173 426.198 250.158 426.18 250.158L336.617 250.153V250.469L336.926 250.54C336.928 250.535 339.188 240.419 340.24 234.222C341.282 228.055 342.862 221.463 344.819 217.759C345.722 216.012 349.413 213.373 352.844 211.264C354.561 210.204 356.217 209.259 357.446 208.581C358.672 207.901 359.466 207.491 359.466 207.489L359.605 207.418L359.633 207.264C363.507 185.621 368.814 180.094 370.068 179.065L369.868 178.822L370.045 179.083L370.053 179.077L370.06 179.072L370.207 178.959L370.525 178.711L360.902 171.151L360.71 171.277C346.968 180.511 344.124 195.335 342.554 202.349L342.862 202.417L343.171 202.488C344.741 195.459 347.56 180.873 361.064 171.803L360.887 171.54L360.692 171.788L369.817 178.959L370.012 178.708L369.82 178.461L369.688 178.562L369.678 178.569L369.666 178.577C368.235 179.763 362.9 185.436 359.011 207.153L359.322 207.208L359.175 206.928C359.173 206.93 355.969 208.591 352.511 210.728C349.049 212.879 345.35 215.438 344.26 217.463C342.238 221.307 340.67 227.913 339.618 234.115C339.095 237.197 338.268 241.271 337.57 244.573C336.875 247.872 336.311 250.396 336.309 250.401L336.223 250.785L426.178 250.79C426.178 250.79 426.666 250.793 427.424 250.871C428.562 250.987 430.286 251.273 431.753 251.943C433.224 252.621 434.397 253.64 434.61 255.235L434.643 255.731C434.655 257.973 432.784 261.361 430.023 264.491C427.267 267.632 423.637 270.542 420.223 271.983C418.537 272.709 412.863 273.31 405.354 273.745C382.78 275.073 343.158 275.154 338.928 275.151C336.24 275.154 333.899 275.053 332.276 274.608C330.64 274.137 329.826 273.444 329.816 272.16L329.844 271.758L329.53 271.72L329.841 271.778C329.841 271.768 330.574 267.885 331.702 261.938C335.082 244.095 341.995 207.737 343.171 202.488L342.862 202.417Z"
            fill="#3265B1" />
        <path id="path174"
            d="M143.05 171.54L142.873 171.803C156.377 180.872 159.196 195.458 160.764 202.487C161.153 204.224 162.18 209.41 163.494 216.194L163.545 216.452H340.401L340.451 216.194C341.766 209.41 342.79 204.224 343.179 202.487C344.749 195.458 347.569 180.872 361.073 171.803L361.793 171.317L360.929 171.226C360.924 171.226 295.964 164.311 252.428 164.311C208.887 164.311 143.022 171.226 143.017 171.226L142.152 171.317L142.873 171.803L143.05 171.54L143.083 171.853C143.093 171.853 147.196 171.421 154.051 170.774C174.609 168.829 219.817 164.941 252.428 164.943C274.164 164.943 301.279 166.67 322.952 168.397C333.789 169.262 343.268 170.127 350.036 170.774C356.805 171.421 360.853 171.853 360.863 171.853L360.896 171.54L360.719 171.277C346.977 180.511 344.132 195.335 342.562 202.348C342.168 204.108 341.146 209.286 339.829 216.075L340.14 216.136V215.82H163.805V216.136L164.116 216.075C162.799 209.286 161.775 204.108 161.381 202.348C159.813 195.335 156.969 180.511 143.227 171.277L143.05 171.54Z"
            fill="#3265B1" />
        <path id="path176"
            d="M144.604 207.208L144.46 207.489C144.46 207.491 145.254 207.901 146.48 208.581C148.321 209.598 151.13 211.216 153.656 212.925C156.182 214.624 158.432 216.46 159.107 217.759C161.064 221.463 162.642 228.055 163.686 234.222C164.738 240.419 166.998 250.535 167.001 250.54L167.309 250.469V250.153L77.7485 250.158C77.7283 250.158 75.6777 250.173 73.521 250.785C71.3794 251.392 69.0382 252.618 68.6893 255.152L68.6514 255.733C68.664 258.294 70.6235 261.705 73.4275 264.911C76.2391 268.107 79.9153 271.068 83.4576 272.565C85.3817 273.369 90.9847 273.927 98.537 274.377C121.146 275.707 160.761 275.783 164.998 275.783C167.701 275.783 170.073 275.692 171.815 275.217C173.544 274.764 174.753 273.803 174.743 272.163L174.71 271.68V271.67L174.707 271.659C174.707 271.657 162.948 209.388 161.37 202.349C159.802 195.335 156.958 180.511 143.216 171.277L143.011 171.141L133.977 179.161L134.223 179.396C135.929 181.05 140.718 187.302 144.293 207.264L144.321 207.418L144.46 207.489L144.604 207.208L144.915 207.153C141.325 187.12 136.513 180.744 134.663 178.943L134.443 179.171L134.65 179.406L143.249 171.775L143.039 171.54L142.862 171.803C156.366 180.873 159.185 195.459 160.753 202.488C161.537 205.982 164.872 223.317 168.009 239.761C169.577 247.984 171.097 255.988 172.224 261.938C172.788 264.911 173.253 267.371 173.577 269.088C173.903 270.805 174.085 271.778 174.085 271.778L174.396 271.72L174.083 271.758L174.11 272.163C174.105 272.822 173.895 273.29 173.491 273.685C172.285 274.893 169.026 275.169 164.998 275.151C162.176 275.151 143.628 275.118 124.888 274.701C115.518 274.494 106.097 274.188 98.5723 273.745C91.063 273.31 85.3892 272.709 83.7028 271.983C80.2895 270.542 76.6588 267.632 73.9028 264.494C71.1418 261.364 69.2683 257.976 69.2835 255.733L69.3163 255.238C69.5868 253.116 71.6172 251.983 73.693 251.392C74.722 251.101 75.741 250.949 76.4995 250.871C77.258 250.793 77.7484 250.79 77.751 250.79L167.701 250.785L167.617 250.401C167.615 250.396 167.051 247.872 166.356 244.573C165.658 241.271 164.831 237.197 164.308 234.115C163.254 227.913 161.688 221.307 159.666 217.463C158.573 215.441 154.877 212.879 151.413 210.728C147.957 208.591 144.753 206.93 144.751 206.928L144.604 207.208Z"
            fill="#3265B1" />
        <path id="path178"
            d="M469.532 152.82L469.846 152.782C469.343 148.58 467.871 142.787 466.321 137.425L466.099 136.653L465.737 137.369C460.188 148.342 449.492 168.162 445.614 175.318L445.53 175.472L445.619 175.623C447.08 178.2 447.596 181.284 447.596 183.724C447.596 184.834 447.49 185.813 447.323 186.536C447.189 187.133 446.956 187.788 446.658 188.47L446.464 188.913H446.949V188.597L446.64 188.533L446.56 188.854C446.385 189.494 445.882 191.049 444.714 193.021L444.603 193.208L444.739 193.38C445.965 194.918 447.449 196.665 448.881 198.035C450.322 199.4 451.654 200.427 452.812 200.45C454.6 200.45 463.199 200.346 470.331 200.255L470.62 200.25L470.642 199.964C471.56 188.212 472.266 177.603 472.266 177.601L472.268 177.54L471.039 173.856L470.739 173.955H471.055C471.055 173.95 471.057 162.873 469.846 152.782L469.532 152.82L469.219 152.858C469.821 157.877 470.122 163.153 470.273 167.174C470.422 171.194 470.422 173.95 470.422 173.955V174.008L471.649 177.682L471.95 177.58L471.634 177.56C471.634 177.565 471.459 180.212 471.168 184.331C470.878 188.453 470.47 194.04 470.013 199.914L470.326 199.939L470.324 199.623C463.194 199.714 454.587 199.82 452.812 199.818C452.061 199.843 450.701 198.925 449.318 197.58C447.922 196.242 446.448 194.513 445.235 192.986L444.987 193.183L445.26 193.345C446.86 190.634 447.255 188.685 447.26 188.657L447.336 188.281H446.946V188.597L447.237 188.723C447.546 188.015 447.793 187.325 447.94 186.678C448.12 185.891 448.228 184.875 448.228 183.724C448.226 181.199 447.702 178.023 446.168 175.312L445.892 175.467L446.17 175.618C450.051 168.461 460.744 148.643 466.301 137.655L466.018 137.511L465.715 137.599C467.262 142.947 468.723 148.726 469.219 152.858L469.532 152.82Z"
            fill="#3265B1" />
        <path id="path180"
            d="M59.3696 193.841L59.6376 193.671C58.692 192.187 58.108 190.895 57.7616 189.98C57.5871 189.522 57.4733 189.156 57.4025 188.908C57.3317 188.66 57.3064 188.536 57.3064 188.534L56.998 188.599V188.915H57.0031V188.599L56.7249 188.751L56.73 188.761L57.2963 188.478C56.9929 187.795 56.7629 187.135 56.6238 186.539C56.457 185.816 56.3507 184.84 56.3507 183.73C56.3507 181.287 56.869 178.195 58.333 175.614L58.429 175.444L58.3228 175.282C50.4166 163.417 41.4863 142.262 38.5104 134.965L38.1717 134.138L37.9138 134.995C36.1211 140.969 34.2576 147.938 33.6711 152.785C32.4625 162.875 32.465 173.952 32.465 173.957H32.7811L32.4802 173.859L31.2539 177.543L31.2565 177.603C31.2565 177.606 31.9493 188.048 32.857 199.684L32.8797 199.967L33.1654 199.974C37.7696 200.088 44.0451 200.22 48.3484 200.22C50.3003 200.22 51.8375 200.192 52.6567 200.124C53.9335 200.007 55.2002 199.112 56.4012 197.949C57.5997 196.784 58.7223 195.327 59.63 194.02L59.7489 193.848L59.6376 193.671L59.3696 193.841L59.1091 193.661C58.2166 194.946 57.1118 196.377 55.9614 197.497C54.8109 198.622 53.6074 199.416 52.6036 199.494C51.8324 199.56 50.2902 199.588 48.3484 199.588C44.0577 199.588 37.7822 199.456 33.1806 199.342L33.173 199.658L33.4865 199.633C33.0339 193.818 32.6345 188.301 32.3462 184.235C32.0605 180.172 31.8886 177.568 31.8886 177.563L31.5725 177.583L31.8734 177.684L33.0971 174.01V173.957C33.0971 173.952 33.0972 171.196 33.2464 167.176C33.3981 163.156 33.6989 157.879 34.2981 152.861C34.8746 148.095 36.733 141.134 38.5205 135.174L38.2171 135.083L37.9239 135.205C40.9124 142.519 49.835 163.674 57.7969 175.634L58.0599 175.457L57.7843 175.303C56.2471 178.018 55.7212 181.201 55.7186 183.73C55.7186 184.88 55.8273 185.894 56.0068 186.68C56.1585 187.33 56.4038 188.023 56.7173 188.736L57.0081 188.607L57.2837 188.453L57.2786 188.445L57.1877 188.283H56.998H56.6086L56.687 188.662C56.6946 188.69 57.1648 190.961 59.1041 194.01L59.3696 193.841Z"
            fill="#3265B1" />
    </g>

</svg>