<svg width="650" height="452" viewBox="0 0 650 452" fill="none" xmlns="http://www.w3.org/2000/svg">
<g id="doors">
<path d="M545.656 80.6553L539.305 69.8574L541.448 76.7952L550.232 98.7873L554.471 109.292L560.675 123.974L564.238 132.82L567.801 141.543L570.873 148.054L574.17 154.87L576.839 160.752L579.837 166.743L580.323 169.026L582.109 174.945L591.162 197.165L592.041 199.935L592.621 201.88L593.5 204.5L595.502 209.645L597.242 213.424L599.731 218.046L600.853 220.067L603.51 224.07L605.119 226.353L607.103 229.017L608.967 231.13L609.443 229.017L607.584 224.589L607.052 217.594L607.584 209.448L606.521 201.479L605.104 192.27L603.599 184.566L601.651 177.925L599.349 170.753L596.958 162.607L595.63 158.622L599.978 158.126L606.317 157.789L613.834 157.34H619.387L625.834 156.833L635.355 155.31L642.82 153.405L646.399 150.739L648.38 146.093L649.065 140.685L648.38 135.277L647.314 130.707L646.399 127.432L642.82 123.166L639.163 119.51L634.289 117.073L629.414 115.625L620.35 114.026L610.828 112.579L604.202 111.969H600.469L597.346 113.416L594.071 116.996L591.024 122.024L589.882 127.127L588.587 133.83V141.98L578.557 142.519L577.541 140.106L574.746 135.024L568.014 122.829L559.63 107.459L551.5 91.1987L545.656 80.6553Z" fill="transparent" stroke="#3265B1" stroke-width="0.1"/>
<path d="M104.037 80.6553L110.389 69.8574L108.246 76.7952L99.461 98.7873L95.2223 109.292L89.0179 123.974L85.4549 132.82L81.892 141.543L78.8204 148.054L75.5235 154.87L72.8542 160.752L69.8562 166.743L69.3708 169.026L67.5848 174.945L60.7632 200.678L58.2007 205.315L55.5161 210.074L52.1604 215.321L48.7437 220.324L46.183 224.07L44.574 226.353L42.5907 229.017L40.7259 231.13L40.2501 229.017L42.1096 224.589L42.6409 217.594L42.1096 209.448L43.1722 201.479L44.5889 192.27L46.0942 184.566L48.0422 177.925L50.3445 170.753L52.7352 162.607L54.0634 158.622L49.7158 158.126L43.3768 157.789L35.8597 157.34H30.306L23.8596 156.833L14.3384 155.31L6.87383 153.405L3.29386 150.739L1.31346 146.093L0.627937 140.685L1.31346 135.277L2.37983 130.707L3.29386 127.432L6.87383 123.166L10.53 119.51L15.4048 117.073L20.2796 115.625L29.3438 114.026L38.865 112.579L45.4917 111.969H49.224L52.3469 113.416L55.6222 116.996L58.669 122.024L59.8115 127.127L61.1064 133.83V141.98L71.136 142.519L72.1522 140.106L74.9469 135.024L81.6795 122.829L90.0636 107.459L98.1936 91.1987L104.037 80.6553Z" fill="transparent" stroke="#3265B1" stroke-width="0.1"/>
</g>
<g id="front-wheels">
<path d="M48.3656 310.04L46.0179 296.796L45.2676 314.643V346.39V367.711V400.398V431.958V442.665L47.0522 446.986L49.4004 449.616L52.2182 450.555H57.1024H66.3073H88.2862H110.547H116.84L119.846 448.489L121.63 444.92L122.57 441.069V409.133V385.37H120.409H106.038H93.4522H82.5567L75.7 382.646L71.1915 379.452L66.4012 373.817L61.9866 365.457L56.4449 351.65L53.3453 336.34L52.3121 330.516L48.3656 310.04Z" fill="transparent"/>
<path d="M527.911 426.684V385.551H535.994H559.075L568.056 385.013L574.702 382.139L580.719 376.75L585.3 370.194L589.162 362.83L594.55 345.945L597.604 331.306L600.029 317.026L601.735 307.686L602.903 296.191L604.429 288.467L605.148 302.208V332.564V362.83V383.306V403.693V423.272V439.527L604.339 444.108L602.903 447.431L600.208 450.484H596.706H581.528H556.561H543.358H534.377L530.875 448.239L528.63 444.108L527.911 441.144V426.684Z" fill="transparent"/>
</g>
<path d="M48.3656 310.04L46.0179 296.796L45.2676 314.643V346.39V367.711V400.398V431.958V442.665L47.0522 446.986L49.4004 449.616L52.2182 450.555H57.1024H66.3073H88.2862H110.547H116.84L119.846 448.489L121.63 444.92L122.57 441.069V409.133V385.37H120.409H106.038H93.4522H82.5567L75.7 382.646L71.1915 379.452L66.4012 373.817L61.9866 365.457L56.4449 351.65L53.3453 336.34L52.3121 330.516L48.3656 310.04Z" stroke="#3265B1" stroke-width="0.1"/>
<path d="M527.911 426.684V385.551H535.994H559.075L568.056 385.013L574.702 382.139L580.719 376.75L585.3 370.194L589.162 362.83L594.55 345.945L597.604 331.306L600.029 317.026L601.735 307.686L602.903 296.191L604.429 288.467L605.148 302.208V332.564V362.83V383.306V403.693V423.272V439.527L604.339 444.108L602.903 447.431L600.208 450.484H596.706H581.528H556.561H543.358H534.377L530.875 448.239L528.63 444.108L527.911 441.144V426.684Z" stroke="#3265B1" stroke-width="0.1"/>
<g id="front">
<path d="M95.6309 108.987L99.8701 98.4824L108.656 76.4854H120.066L115.551 86.4782C113.803 90.0344 110.308 97.2051 110.308 97.4382C110.308 97.6712 109.24 99.9142 108.706 101.007L104.482 110.91C103.996 112.306 102.996 115.134 102.88 115.28C102.763 115.426 100.376 121.689 99.1965 124.803L94.6476 138.612L91.6421 148.603L90.911 151.284L110.244 149.659L125.19 148.603L136.156 147.222L165.236 145.435L193.829 144.054L225.428 142.511L253.858 141.536L283.507 140.805H322.66H363.031L416.968 142.348L444.749 143.486L486.42 145.76L523.135 148.197L554.49 150.715H558.552L555.627 140.561L546.611 115.624L542.224 104.658L535.482 89.3864L529.471 75.9023L526.574 69.5488H539.617L541.76 76.4863L541.762 76.4902L550.546 98.4824L554.785 108.988L560.989 123.669L564.553 132.516L568.115 141.238L568.116 141.241L571.188 147.753L574.484 154.567L577.154 160.449L580.149 166.438L580.634 168.713L580.635 168.717L582.421 174.637L582.423 174.641L591.476 196.861L592.354 199.626L592.934 201.571V201.573L593.813 204.192L593.814 204.194L595.816 209.34L595.817 209.343L597.558 213.122L597.559 213.125L600.047 217.746L600.048 217.747L601.17 219.768L601.172 219.771L603.829 223.774L603.83 223.776L605.438 226.059L605.439 226.06L607.423 228.724L607.426 228.727L609.29 230.84L609.355 230.913L609.294 233.358L608.582 241.244L608.236 248.743L607.718 253.649L607.307 260.262L607.091 262.185L606.097 273.055L605.621 275.022L605.47 285.244L605.297 287.686L604.233 292.875L602.585 303.695L600.722 317.668L598.859 327.127L595.491 344.109L590.547 360.876L585.316 371.052L579.512 378.719L574.926 382.302L569.767 384.595L562.529 385.239L548.772 385.669L534.727 385.239H525.985H478.047H85.3021L81.2893 384.738L74.5537 382.158L70.7559 378.289L66.2416 373.13L62.8738 366.609L59.291 358.727L55.0633 343.607L50.6923 321.036L48.471 307.278L46.4646 295.168L45.8197 286.569L44.5299 275.248L43.7417 263.711L41.9503 241.355L41.0605 230.913L41.126 230.84L42.9902 228.727L42.9932 228.724L44.9766 226.06L44.9775 226.059L46.5859 223.776L46.5869 223.775L52.5645 215.026V215.024L55.9209 209.777L55.9219 209.775L58.6064 205.016L61.1689 200.379L61.1758 200.368L61.126 200.354L61.1738 200.367L67.9951 174.637L69.7812 168.717L69.7822 168.713L70.2666 166.438L73.2617 160.449L75.9316 154.566L79.2275 147.753L82.2998 141.241L82.3008 141.238L85.8633 132.515L89.4268 123.668L95.6309 108.987Z" fill="transparent"/>
<path d="M184.413 255.128L187.1 265.966L187.376 267.26L183.116 267.093L164.481 266.561L154.997 265.696H143.717L129.175 264.897L120.523 264.365L108.51 262.202L99.8578 260.738L89.9081 257.876L84.7169 255.58L80.757 252.285L77.7889 249.699L74.8032 245.274L72.8838 239.996L72.457 235.624L73.5231 229.812L74.9605 226.56L77.7356 222.935L82.0547 220.002L87.2779 219.363H95.1668L118.895 222.081L132.863 224.214L151.468 226.88L167.306 229.385L172.793 230.156L174.529 231.717L178.171 236.572L181.465 245.07L184.413 255.128Z" fill="transparent"/>
<path d="M466.208 256.541L464.131 266.109L464.478 267.328L494.014 266.133L518.714 265.109L531.12 264.084L543.356 262.434L553.714 260.385L563.844 256.857L568.511 254.352L571.926 251.109L575.113 247.922L577.56 242.401L578.414 238.816V235.117L577.105 229.255L575.796 225.84L573.178 222.425L569.82 220.206L564.641 219.182H559.348L539.259 221.458L512.795 224.987L496.12 227.32L486.047 229.141L478.421 230.279L475.12 233.296L472.559 238.645L469.315 246.044L466.208 256.541Z" fill="transparent"/>
<path d="M186.297 323.014H196.563L197.628 326.104L199.582 333.208L201.642 341.769L203.276 347.594V350.685L202.282 353.953L200.541 355.338H197.522L182.07 355.089L166.157 354.627H157.774L140.546 354.166L126.729 353.384L117.92 352.638L110.78 352.034L107.228 350.791L103.498 348.589L100.088 345.889L95.6837 341.84L92.8776 338.394L90.2491 333.528L89.4676 330.686L89.6807 327.667L91.8475 325.358L94.7247 324.115L98.774 323.014H102.22H126.445H137.421H160.651H180.72H186.297Z" fill="transparent"/>
<path d="M468.996 322.936H452.943L451.401 328.09L449.506 335.175L447.117 344.857L445.944 349.3L446.74 352.569L448.207 354.288L449.925 355.252L462.542 354.917H478.134L493.474 354.665L508.605 354.162L522.647 353.575L535.724 352.653L541.676 351.689L546.203 349.426L550.478 346.45L553.831 343.39L557.603 339.073L559.909 335.468L561.04 332.66L562.004 329.223L560.579 326.373L558.148 324.613L555.298 323.523L551.149 322.936H497.833H480.649H468.996Z" fill="transparent"/>
</g>
<path d="M451.35 328.259L451.401 328.09M451.401 328.09L452.943 322.936H468.996H480.649H497.833H551.149L555.298 323.523L558.148 324.613L560.579 326.373L562.004 329.223L561.04 332.66L559.909 335.468L557.603 339.073L553.831 343.39L550.478 346.45L546.203 349.426L541.676 351.689L535.724 352.653L522.647 353.575L508.605 354.162L493.474 354.665L478.134 354.917H462.542L449.925 355.252L448.207 354.288L446.74 352.569L445.944 349.3L447.117 344.857L449.506 335.175L451.401 328.09ZM187.1 265.966L184.413 255.128L181.465 245.07L178.171 236.572L174.529 231.717L172.793 230.156L167.306 229.385L151.468 226.88L132.863 224.214L118.895 222.081L95.1668 219.363H87.2779L82.0547 220.002L77.7356 222.935L74.9605 226.56L73.5231 229.812L72.457 235.624L72.8838 239.996L74.8032 245.274L77.7889 249.699L80.757 252.285L84.7169 255.58L89.9081 257.876L99.8578 260.738L108.51 262.202L120.523 264.365L129.175 264.897L143.717 265.696H154.997L164.481 266.561L183.116 267.093L187.376 267.26L187.1 265.966ZM464.131 266.109L466.208 256.541L469.315 246.044L472.559 238.645L475.12 233.296L478.421 230.279L486.047 229.141L496.12 227.32L512.795 224.987L539.259 221.458L559.348 219.182H564.641L569.82 220.206L573.178 222.425L575.796 225.84L577.105 229.255L578.414 235.117V238.816L577.56 242.401L575.113 247.922L571.926 251.109L568.511 254.352L563.844 256.857L553.714 260.385L543.356 262.434L531.12 264.084L518.714 265.109L494.014 266.133L464.478 267.328L464.131 266.109ZM196.563 323.014H186.297H180.72H160.651H137.421H126.445H102.22H98.774L94.7247 324.115L91.8475 325.358L89.6807 327.667L89.4676 330.686L90.2491 333.528L92.8776 338.394L95.6837 341.84L100.088 345.889L103.498 348.589L107.228 350.791L110.78 352.034L117.92 352.638L126.729 353.384L140.546 354.166L157.774 354.627H166.157L182.07 355.089L197.522 355.338H200.541L202.282 353.953L203.276 350.685V347.594L201.642 341.769L199.582 333.208L197.628 326.104L196.563 323.014Z" stroke="#3265B1" stroke-width="0.1"/>
<path id="roof" d="M155.989 37.2671L155.986 37.2681L138.708 39.6831L138.683 39.687L138.671 39.7104L135.42 46.1626L127.385 60.8872L127.384 60.8901L119.967 76.8853H109.247L113.636 64.7349L123.199 46.2114L133.833 27.2661L137.545 22.022L142.735 17.9438L151.554 13.9517L161.904 10.9819L177.365 8.38232L202.021 5.92139L202.022 5.92236L228.264 4.48193L265.373 2.62451L288.316 1.69482L312.606 1.18701H338.521L355.147 1.60303V1.604L388.819 2.71826V2.71924L410.556 3.7876L442.229 5.45752V5.4585L470.189 7.82764L489.735 11.1216L500.965 14.7915H500.966L506.632 17.4351L512.145 20.9116L515.249 24.8472V24.8481L518.407 30.0503L525.141 42.728L525.142 42.729L532.387 55.3159L539.55 70.4282H526.609L515.802 48.8589L515.801 48.8579L511.017 39.9868L511.007 39.9683L510.987 39.9624L507.504 38.894L507.489 38.9419L507.504 38.8931L507.493 38.8921L469.037 35.688L469.035 35.687L431.089 34.1079L406.983 33.3188L370.756 32.6226L326.865 32.2056H297.185L261.887 32.856L226.077 33.5503H226.076L189.942 34.9438H189.94L155.989 37.2671Z" fill="transparent" stroke="#3265B1" stroke-width="0.1"/>
<path d="M178.7 149.217L178.397 149.492L232.547 209.086L232.851 208.812L233.125 208.511C233.118 208.505 230.207 205.845 225.775 201.781C212.484 189.601 185.519 164.815 182.862 161.871C181.148 159.988 180.179 156.809 179.676 154.11C179.425 152.759 179.281 151.528 179.203 150.637C179.121 149.749 179.108 149.204 179.108 149.204L178.7 149.217L178.292 149.227C178.312 149.263 178.498 158.209 182.258 162.42C184.102 164.456 196.648 176.098 208.78 187.277C220.902 198.443 232.573 209.112 232.573 209.115L233.151 208.538L178.26 148.127L178.292 149.227L178.7 149.217Z" fill="#3265B1"/>
<path d="M471.079 149.217L470.776 148.943L416.629 208.538L417.207 209.115C417.207 209.112 428.878 198.443 441 187.277C453.128 176.098 465.678 164.456 467.525 162.42C471.282 158.209 471.464 149.263 471.487 149.227L471.517 148.127L470.776 148.943L471.079 149.217L470.671 149.204C470.671 149.211 470.609 151.407 470.1 154.11C469.598 156.809 468.628 159.988 466.918 161.871C465.155 163.823 452.56 175.517 440.445 186.676C434.387 192.258 428.437 197.718 424.005 201.781C419.573 205.845 416.665 208.505 416.658 208.511L416.932 208.812L417.233 209.086L471.38 149.492L471.079 149.217Z" fill="#3265B1"/>
<path d="M606.105 197.275L606.509 197.226C605.86 191.802 603.96 184.324 601.96 177.402L601.672 176.403L601.206 177.33C598.474 182.738 594.766 189.814 590.951 197.004L590.879 197.141L590.915 197.292C592.743 204.772 597.38 218.092 608.775 231.555L609.424 232.322L609.492 231.317C609.581 230.011 609.633 229.267 609.633 229.267L609.636 229.186L608.05 224.43L607.662 224.558H608.069C608.069 224.551 608.073 210.252 606.509 197.226L606.105 197.275L605.7 197.324C606.477 203.803 606.865 210.614 607.061 215.804C607.254 220.993 607.254 224.551 607.254 224.558V224.626L608.837 229.368L609.225 229.238L608.817 229.212C608.817 229.212 608.768 229.956 608.677 231.262L609.085 231.291L609.395 231.027C598.105 217.687 593.513 204.488 591.708 197.099L591.313 197.197L591.672 197.386C595.487 190.193 599.195 183.113 601.934 177.699L601.568 177.513L601.176 177.627C603.174 184.53 605.06 191.991 605.7 197.324L606.105 197.275Z" fill="#3265B1"/>
<path d="M49.3343 174.375L48.9428 174.261C46.6287 181.973 44.2232 190.968 43.4659 197.225C41.9058 210.251 41.9091 224.55 41.9091 224.556H42.3171L41.9287 224.429L40.3457 229.181L40.349 229.259C40.349 229.263 40.3685 229.589 40.4142 230.196L40.4828 231.123L41.1193 230.444C49.6999 221.283 56.9065 208.893 61.1952 200.694L61.2897 200.515L61.2016 200.329C56.0871 189.552 51.7822 179.293 49.713 174.221L49.2757 173.151L48.9428 174.261L49.3343 174.375L48.9558 174.531C51.0316 179.61 55.3398 189.881 60.464 200.681L60.8328 200.505L60.4737 200.316C56.2046 208.479 49.0145 220.826 40.522 229.886L40.8222 230.163L41.227 230.134C41.1846 229.534 41.165 229.214 41.165 229.214L40.757 229.237L41.1454 229.367L42.7251 224.625V224.556C42.7251 224.55 42.7252 220.992 42.9177 215.803C43.1136 210.613 43.5018 203.802 44.2754 197.323C45.0195 191.171 47.4185 182.185 49.726 174.492L49.3343 174.375Z" fill="#3265B1"/>
<path d="M589.005 159.209L588.715 158.922L580.656 166.984L572.174 149.444L571.769 149.901C566.165 156.219 557.999 163.916 552.898 167.068C544.379 172.343 483.237 209.273 465.632 221.098C447.893 233.017 444.222 252.153 442.195 261.207C440.161 270.294 424.981 350.675 424.981 350.679L424.978 350.692V350.705L424.936 351.325C424.923 353.446 426.479 354.687 428.712 355.271C430.961 355.884 434.022 356.002 437.514 356.002C441.16 356.002 465.107 355.96 489.312 355.421C501.414 355.15 513.578 354.758 523.308 354.187C533.057 353.606 540.289 352.885 542.773 351.847C547.346 349.915 552.091 346.093 555.721 341.964C559.34 337.829 561.867 333.423 561.886 330.116L561.837 329.369C561.387 326.099 558.361 324.516 555.6 323.732C552.813 322.943 550.169 322.923 550.146 322.923L434.531 322.916V323.324L434.93 323.416C434.933 323.409 437.851 310.351 439.208 302.351C440.553 294.391 442.593 285.882 445.119 281.1C446.284 278.845 451.05 275.438 455.479 272.715C457.695 271.348 459.833 270.127 461.419 269.253C463.002 268.375 464.027 267.846 464.027 267.843L464.206 267.751L464.242 267.552C469.242 239.614 476.093 232.479 477.712 231.151L477.454 230.837L477.682 231.173L477.692 231.167H477.695L478.11 230.863L477.872 230.534L477.973 230.929L477.986 230.925L478.061 230.906L478.123 230.86C484.667 226.085 505.794 215.141 526.846 204.521C547.907 193.894 568.91 183.577 575.366 179.948C588.46 172.568 596.571 159.314 596.594 159.287L596.607 159.265L596.868 158.677L597.145 158.044L596.457 158.106C592.165 158.488 588.966 158.804 588.963 158.804L588.819 158.821L588.715 158.922L589.005 159.209L589.044 159.617C589.051 159.617 592.243 159.297 596.529 158.919L596.493 158.514L596.121 158.347L595.872 158.912L596.245 159.075L595.899 158.863C595.895 158.863 595.399 159.673 594.446 161.017C591.58 165.051 584.612 173.808 574.964 179.236C568.564 182.836 547.538 193.169 526.477 203.793C505.405 214.427 484.321 225.334 477.643 230.201L477.885 230.53L477.784 230.132L477.771 230.136L477.692 230.155L477.232 230.494L477.222 230.501L477.209 230.511L477.193 230.521C475.345 232.051 468.459 239.375 463.439 267.408L463.841 267.48L463.651 267.118C463.648 267.121 459.513 269.266 455.048 272.024C450.58 274.801 445.805 278.104 444.398 280.718C441.787 285.679 439.763 294.208 438.405 302.214C437.73 306.193 436.663 311.451 435.762 315.713C434.864 319.973 434.136 323.23 434.133 323.236L434.022 323.732L550.143 323.739C550.143 323.739 550.773 323.742 551.752 323.843C553.221 323.994 555.447 324.362 557.34 325.227C559.239 326.102 560.754 327.417 561.028 329.477L561.07 330.116C561.086 333.011 558.671 337.385 555.107 341.426C551.55 345.479 546.863 349.236 542.456 351.096C540.279 352.033 532.956 352.81 523.262 353.371C494.122 355.085 442.975 355.189 437.514 355.186C434.045 355.189 431.023 355.059 428.927 354.484C426.816 353.877 425.765 352.983 425.752 351.325L425.787 350.806L425.383 350.757L425.784 350.832C425.784 350.819 426.731 345.806 428.186 338.129C432.55 315.096 441.473 268.162 442.991 261.387C445.018 252.313 448.657 233.484 466.089 221.777C483.652 209.978 544.803 173.041 553.325 167.76C558.57 164.513 566.723 156.813 572.379 150.442L572.073 150.172L571.707 150.348L580.421 168.371L589.292 159.5L589.005 159.209Z" fill="#3265B1"/>
<path d="M225.134 350.757L225.536 350.679C225.536 350.675 210.356 270.294 208.319 261.207C206.295 252.153 202.624 233.017 184.885 221.098C167.28 209.273 106.138 172.343 97.6161 167.068C92.4168 163.857 84.0224 155.913 78.4086 149.525L78.0038 149.062L69.3384 166.98L61.1788 158.821L61.0352 158.804C61.032 158.804 58.101 158.514 54.08 158.155L53.3945 158.093L53.8972 159.238L53.9102 159.265L53.9233 159.287C53.9429 159.314 62.0535 172.568 75.1513 179.948C81.6072 183.577 102.61 193.894 123.671 204.521C144.723 215.141 165.85 226.085 172.394 230.86L172.456 230.906L172.469 230.909L172.808 231.16L172.812 231.164L172.828 231.17L173.06 230.837L172.802 231.15C174.421 232.479 181.272 239.614 186.275 267.552L186.311 267.751L186.49 267.842C186.49 267.846 187.515 268.375 189.098 269.252C191.474 270.565 195.1 272.653 198.361 274.86C201.622 277.053 204.526 279.423 205.398 281.1C207.924 285.882 209.961 294.391 211.309 302.351C212.666 310.351 215.584 323.409 215.587 323.416L215.986 323.324V322.916L100.374 322.923C100.348 322.923 97.701 322.943 94.9169 323.732C92.1525 324.516 89.1302 326.099 88.6798 329.369L88.6309 330.12C88.6472 333.426 91.1767 337.829 94.7963 341.967C98.4257 346.093 103.171 349.915 107.744 351.847C110.228 352.885 117.46 353.606 127.209 354.187C156.395 355.904 207.532 356.002 213.003 356.002C216.492 356.002 219.553 355.884 221.802 355.271C224.034 354.687 225.594 353.446 225.581 351.328L225.539 350.705V350.692L225.536 350.679L225.134 350.757L224.729 350.806L224.765 351.328C224.759 352.18 224.488 352.784 223.966 353.293C222.409 354.853 218.202 355.209 213.003 355.186C209.36 355.186 185.417 355.144 161.225 354.605C149.129 354.337 136.968 353.942 127.255 353.371C117.561 352.81 110.237 352.033 108.06 351.096C103.654 349.236 98.9674 345.479 95.4099 341.429C91.8458 337.388 89.4272 333.015 89.4468 330.12L89.4892 329.48C89.8384 326.742 92.4593 325.279 95.1389 324.516C96.4673 324.14 97.7827 323.945 98.7618 323.843C99.741 323.742 100.374 323.739 100.377 323.739L216.492 323.732L216.384 323.236C216.381 323.23 215.653 319.973 214.755 315.713C213.854 311.451 212.787 306.193 212.112 302.214C210.751 294.208 208.73 285.679 206.119 280.718C204.709 278.107 199.937 274.801 195.466 272.023C191.004 269.266 186.869 267.121 186.866 267.118L186.676 267.48L187.078 267.408C182.055 239.375 175.171 232.051 173.317 230.521L173.308 230.511L173.285 230.494L173.05 230.831L173.291 230.501L172.887 230.204L172.825 230.155L172.733 230.132L172.632 230.53L172.874 230.201C166.196 225.334 145.111 214.427 124.04 203.793C102.979 193.169 81.9531 182.836 75.5527 179.236C69.1197 175.616 63.8779 170.518 60.2518 166.328C58.4371 164.229 57.0271 162.362 56.0708 161.017C55.1145 159.673 54.6217 158.863 54.6185 158.863L54.2725 159.075L54.6446 158.912L54.4194 158.396L54.044 158.56L54.0081 158.968C58.0226 159.327 60.9471 159.617 60.9536 159.617L60.9927 159.209L60.7055 159.5L69.5733 168.371L78.4706 149.972L78.105 149.793L77.7982 150.064C83.461 156.503 91.8424 164.451 97.1886 167.76C105.714 173.041 166.865 209.978 184.428 221.777C201.86 233.484 205.499 252.313 207.523 261.387C208.534 265.897 212.839 288.274 216.89 309.502C218.913 320.116 220.875 330.449 222.331 338.129C223.058 341.967 223.659 345.143 224.077 347.359C224.498 349.575 224.733 350.832 224.733 350.832L225.134 350.757Z" fill="#3265B1"/>
<path d="M563.865 365.668L563.695 365.296C563.264 365.502 562.089 365.75 560.415 365.968C548.623 367.542 511.232 368.628 489.221 368.628C464.04 368.628 188.684 368.628 160.85 368.628C146.949 368.628 127.803 367.564 112.14 366.504C104.307 365.972 97.3421 365.44 92.3387 365.041C87.332 364.643 84.2934 364.379 84.2868 364.376L84.2508 364.784L84.2738 365.192C84.2803 365.192 86.8456 365.048 91.0429 364.829C103.641 364.183 130.904 362.884 147.377 362.884C169.362 362.884 533.015 362.884 540.995 362.884C544.575 362.884 550.441 363.139 555.398 363.592C557.876 363.817 560.128 364.098 561.74 364.418C562.546 364.575 563.196 364.748 563.61 364.914L564.038 365.136L564.083 365.182L564.188 365.116H564.067L564.083 365.182L564.188 365.116H564.067H564.194L564.08 365.054L564.067 365.116H564.194L564.08 365.054L564.002 365.126L563.695 365.296L563.865 365.668L564.038 366.04L564.602 365.688L564.883 365.116L564.547 364.5C563.92 364.023 562.673 363.742 560.901 363.436C555.627 362.567 546.08 362.071 540.995 362.068C533.015 362.068 169.362 362.068 147.377 362.068C125.365 362.068 84.2313 364.376 84.228 364.376L84.2149 365.188C84.2215 365.188 132.977 369.444 160.85 369.444C188.684 369.444 464.04 369.444 489.221 369.444C501.816 369.444 519.418 369.089 534.405 368.491C541.899 368.191 548.74 367.832 553.979 367.424C556.599 367.218 558.819 367.003 560.523 366.778C562.236 366.546 563.405 366.324 564.038 366.04L563.865 365.668ZM607.646 224.553H608.054C608.054 224.546 608.057 210.248 606.494 197.222C605.844 191.797 603.945 184.32 601.944 177.397L601.657 176.402L601.19 177.325C594.026 191.49 580.22 217.075 575.213 226.312L575.105 226.511L575.22 226.707C577.106 230.033 577.772 234.015 577.772 237.164C577.772 238.597 577.635 239.86 577.419 240.794C577.247 241.564 576.946 242.409 576.561 243.291L576.31 243.862H576.936V243.454L576.538 243.372C576.538 243.375 576.499 243.561 576.395 243.93C575.65 246.522 571.672 257.498 555.434 264.476C536.817 272.473 517.939 271.98 499.623 274.14C490.497 275.221 478.741 276.135 468.881 277.421C463.952 278.067 459.494 278.804 456.064 279.712C452.633 280.635 450.218 281.644 449.311 283.145C448.612 284.359 447.819 286.954 446.948 290.362C444.35 300.551 441.233 317.781 440.26 323.248L440.661 323.32V322.912H434.535V323.728L550.147 323.734C550.147 323.734 550.777 323.738 551.756 323.839C553.225 323.989 555.451 324.358 557.344 325.223C559.243 326.097 560.758 327.413 561.032 329.472L561.074 330.112C561.091 333.007 558.675 337.38 555.111 341.421C551.554 345.475 546.867 349.231 542.46 351.092C540.283 352.028 532.96 352.805 523.266 353.367C494.126 355.08 442.979 355.185 437.518 355.181C434.049 355.185 431.027 355.054 428.931 354.48C426.82 353.873 425.769 352.978 425.756 351.32L425.791 350.801L425.387 350.752L425.788 350.827C425.788 350.818 426.32 347.994 427.205 343.33C429.852 329.345 435.629 298.89 439.474 279.075L439.568 278.592H428.308L428.184 278.755C426.154 281.533 421.581 283.135 411.966 284.771C401.339 286.592 340.41 287.698 324.982 287.698C309.553 287.698 248.627 286.592 237.997 284.771C228.382 283.135 223.809 281.533 221.779 278.755L221.655 278.592H210.953L211.048 279.075C213.61 292.287 217.03 310.225 219.811 324.86C221.201 332.178 222.432 338.67 223.313 343.33C224.194 347.994 224.73 350.818 224.73 350.827L225.131 350.752L224.726 350.801L224.762 351.323C224.756 352.175 224.481 352.779 223.963 353.288C222.406 354.848 218.195 355.204 212.999 355.181C209.357 355.181 185.413 355.139 161.222 354.6C149.126 354.333 136.965 353.938 127.252 353.367C117.558 352.805 110.234 352.028 108.057 351.092C103.651 349.231 98.9642 345.475 95.4066 341.424C91.8425 337.384 89.424 333.01 89.4436 330.115L89.486 329.475V329.472C89.8352 326.737 92.4561 325.275 95.1357 324.511C96.4641 324.136 97.7795 323.94 98.7586 323.839C99.7378 323.738 100.371 323.734 100.374 323.734L215.983 323.728V322.912H209.853V323.32L210.254 323.248C209.608 319.606 208.006 310.731 206.243 302.203C205.359 297.937 204.435 293.759 203.567 290.362C202.695 286.954 201.902 284.359 201.204 283.145C200.293 281.644 197.878 280.635 194.451 279.712C184.17 276.999 164.587 275.762 150.892 274.14C132.575 271.98 113.697 272.473 95.0868 264.476C85.8012 260.488 80.5301 255.197 77.5698 250.908C76.0913 248.764 75.1904 246.871 74.6617 245.517C74.3973 244.841 74.2243 244.299 74.1199 243.93C74.0154 243.561 73.9795 243.375 73.9763 243.372L73.5782 243.454V243.862H73.5847V243.454L73.2256 243.65L73.2322 243.663L73.9632 243.297C73.5715 242.416 73.2746 241.564 73.0951 240.794C72.8797 239.86 72.7426 238.6 72.7426 237.168C72.7426 234.015 73.4116 230.023 75.3014 226.691L75.4254 226.472L75.2883 226.263C65.0823 210.946 53.5545 183.638 49.713 174.218L49.2757 173.151L48.9428 174.257C46.6287 181.97 44.2232 190.965 43.4659 197.222C41.9058 210.248 41.9091 224.546 41.9091 224.553H42.3171L41.9287 224.426L40.3457 229.181L40.349 229.259C40.349 229.263 42.686 264.603 44.7683 284.627C46.8604 304.67 53.0747 346.735 60.3955 363.23C67.6641 379.644 75.3863 386.096 86.4931 386.08H563.47C574.577 386.096 582.302 379.644 589.571 363.23C596.892 346.735 603.106 304.67 605.195 284.627C607.277 264.603 609.617 229.263 609.617 229.259L609.62 229.181L608.034 224.426L607.646 224.553L607.261 224.683L608.821 229.364L609.209 229.233L608.801 229.207C608.801 229.214 608.654 231.413 608.403 235.04C607.649 245.915 605.942 269.548 604.382 284.542C602.313 304.517 596.056 346.646 588.826 362.897C581.542 379.226 574.191 385.248 563.47 385.264H86.4931C75.7714 385.248 68.4245 379.226 61.1396 362.897C53.9069 346.646 47.6534 304.517 45.5809 284.542C44.5397 274.548 43.4367 260.71 42.5913 249.374C42.1703 243.708 41.8144 238.666 41.5631 235.04C41.3118 231.413 41.165 229.214 41.165 229.207L40.757 229.233L41.1454 229.364L42.7251 224.621V224.553C42.7251 224.546 42.7252 220.989 42.9177 215.799C43.1136 210.61 43.5018 203.798 44.2754 197.32C45.0195 191.167 47.4185 182.182 49.726 174.489L49.3343 174.371L48.9558 174.528C52.8137 183.97 64.3316 211.279 74.6094 226.717L74.9489 226.488L74.5932 226.289C72.6088 229.795 71.9299 233.904 71.9266 237.168C71.9266 238.653 72.0669 239.962 72.2986 240.977C72.4944 241.815 72.811 242.71 73.2158 243.63L73.5912 243.464L73.9469 243.265L73.9404 243.255L73.823 243.046H73.5782H73.0821L73.1767 243.532C73.1832 243.607 75.9019 257.132 94.7636 265.227C113.58 273.302 132.565 272.792 150.797 274.953C159.946 276.033 171.699 276.947 181.526 278.23C186.438 278.873 190.87 279.611 194.242 280.498C197.614 281.373 199.911 282.479 200.499 283.553C201.099 284.581 201.922 287.192 202.777 290.561C205.365 300.701 208.482 317.935 209.452 323.392L209.51 323.728H215.983V322.912L100.371 322.918C100.345 322.918 97.6978 322.938 94.9137 323.728C92.1493 324.511 89.127 326.094 88.6766 329.364L88.6277 330.115C88.644 333.421 91.1735 337.824 94.7931 341.963C98.4257 346.088 103.168 349.91 107.741 351.842C110.224 352.88 117.457 353.602 127.206 354.183C156.391 355.899 207.529 355.997 212.999 355.997C216.488 355.997 219.55 355.88 221.799 355.266C224.031 354.682 225.591 353.442 225.575 351.323L225.536 350.7V350.69L225.532 350.674C225.532 350.674 216.971 305.346 211.85 278.922L211.449 279V279.408H221.449V279L221.123 279.242C223.463 282.372 228.228 283.919 237.86 285.574C248.689 287.418 309.495 288.511 324.982 288.514C340.468 288.511 401.277 287.418 412.103 285.574C421.735 283.919 426.5 282.372 428.84 279.242L428.514 279V279.408H439.072V279L438.671 278.922C433.546 305.346 424.985 350.674 424.985 350.674L424.982 350.687V350.7L424.94 351.32C424.927 353.442 426.483 354.682 428.716 355.266C430.968 355.88 434.026 355.997 437.518 355.997C441.164 355.997 465.111 355.955 489.316 355.416C501.418 355.145 513.582 354.754 523.312 354.183C533.061 353.602 540.293 352.88 542.777 351.842C547.35 349.91 552.095 346.088 555.725 341.96C559.344 337.824 561.871 333.418 561.89 330.112L561.841 329.364C561.391 326.094 558.365 324.511 555.604 323.728C552.817 322.938 550.173 322.918 550.15 322.918L434.535 322.912V323.728H441.004L441.063 323.392C441.712 319.752 443.312 310.881 445.074 302.366C445.955 298.11 446.876 293.939 447.738 290.561C448.596 287.192 449.415 284.581 450.016 283.553C450.603 282.479 452.901 281.373 456.272 280.498C466.397 277.822 485.999 276.572 499.717 274.953C517.949 272.792 536.935 273.302 555.757 265.227C574.613 257.132 577.331 243.607 577.338 243.532L577.433 243.046H576.933V243.454L577.308 243.617C577.707 242.703 578.027 241.812 578.216 240.977C578.448 239.962 578.588 238.649 578.588 237.164C578.585 233.904 577.909 229.804 575.928 226.306L575.572 226.505L575.931 226.701C580.941 217.461 594.744 191.879 601.918 177.694L601.552 177.508L601.161 177.622C603.158 184.525 605.045 191.986 605.684 197.32C606.461 203.798 606.849 210.61 607.045 215.799C607.238 220.989 607.238 224.546 607.238 224.553V224.621L607.261 224.683L607.646 224.553Z" fill="#3265B1"/>
<path d="M568.449 142.649L568.466 143.465L580.976 143.191L578.355 140.566L577.778 141.141L578.499 140.759C578.499 140.759 553.309 93.3225 535.103 59.4309L533.631 60.1261L566.273 140.175L567.722 143.018L567.953 143.475L568.466 143.465L568.449 142.649L569.177 142.277L567.758 139.493L535.142 59.5092L534.385 59.8193L533.667 60.2044C542.766 77.1469 553.615 97.4774 562.189 113.571C566.475 121.62 570.192 128.608 572.836 133.585C575.483 138.559 577.053 141.516 577.056 141.523L577.115 141.634L577.125 141.64L568.43 141.833L568.449 142.649Z" fill="#3265B1"/>
<path d="M81.5573 142.648L80.7413 142.684L80.7478 142.818L80.8881 145.893L83.8125 140.174L116.79 59.3063L115.315 58.6144C97.0767 92.555 71.4818 140.759 71.4818 140.759L72.2031 141.14L71.6254 140.563L70.3525 141.839L68.998 143.19L81.5409 143.464L81.5573 142.648L81.5769 141.832L70.9465 141.601L70.9269 142.417L71.5046 142.991L72.7808 141.718L72.8657 141.633L72.9244 141.522C72.9276 141.516 74.5237 138.51 77.2066 133.464C85.2617 118.316 103.076 84.8393 116.754 59.3846L116.033 58.9995L115.279 58.6927L82.3275 139.492L80.836 142.41L81.5638 142.782L82.3798 142.743L82.3732 142.609L82.3372 141.849L81.5769 141.832L81.5573 142.648Z" fill="#3265B1"/>
<path d="M649.082 140.884L649.062 140.069L567.156 141.86L580.316 169.064L589.592 159.785L589.017 159.208L589.096 160.02C589.109 160.02 593.995 159.534 599.798 159.044C605.595 158.558 612.318 158.072 615.882 158.072L616.623 158.078L617.302 158.088C620.843 158.085 626.49 157.507 631.852 156.678C637.224 155.839 642.234 154.788 644.646 153.718C647.404 152.429 648.566 149.165 649.222 146.332C649.859 143.476 649.895 140.93 649.898 140.898L649.911 140.052L649.062 140.069L649.082 140.884L648.266 140.871C648.266 140.875 648.256 141.466 648.171 142.412C648.047 143.829 647.744 146.012 647.074 147.977C646.409 149.955 645.361 151.626 643.98 152.226C641.931 153.156 636.888 154.253 631.601 155.066C626.304 155.885 620.68 156.456 617.302 156.456L616.662 156.446L615.882 156.44C608.532 156.44 588.952 158.398 588.936 158.398L588.645 158.428L580.786 166.287L569.731 143.437L649.098 141.7L649.082 140.884Z" fill="#3265B1"/>
<path d="M647.807 130.711L647.752 129.898C647.745 129.898 644.279 130.136 640.464 130.557C638.558 130.766 636.56 131.021 634.856 131.314C633.14 131.618 631.766 131.925 630.891 132.375C629.99 132.858 629.367 133.687 628.867 134.601C627.399 137.346 626.978 141.21 626.961 141.256L626.854 142.189L650.001 141.68L648.522 129.846L647.752 129.898L647.807 130.711L646.998 130.812L648.157 140.088L627.754 140.535L627.774 141.351L628.583 141.445C628.583 141.445 628.629 141.047 628.743 140.404C628.913 139.441 629.233 137.956 629.739 136.628C630.235 135.287 630.969 134.151 631.655 133.814C632.131 133.553 633.499 133.198 635.137 132.923C637.611 132.493 640.803 132.14 643.365 131.902C645.931 131.657 647.86 131.527 647.863 131.523L647.807 130.711Z" fill="#3265B1"/>
<path d="M0.936448 140.884L0.920193 141.7L80.2836 143.437L69.2322 166.287L61.3762 158.428L61.0856 158.398C61.0693 158.398 41.4896 156.44 34.1329 156.44L33.3496 156.446L32.7099 156.456C29.3384 156.456 23.7148 155.885 18.4176 155.066C13.1301 154.253 8.09082 153.156 6.04113 152.226C4.18727 151.45 2.96662 148.669 2.38892 145.976C2.09191 144.641 1.93193 143.355 1.84707 142.412C1.76221 141.466 1.75241 140.875 1.75241 140.871L0.936448 140.884L0.12049 140.898C0.12049 140.93 0.159758 143.476 0.796205 146.332C1.45224 149.165 2.61409 152.429 5.37529 153.718C7.78727 154.788 12.794 155.839 18.1662 156.678C23.5287 157.507 29.1752 158.085 32.7099 158.088L33.392 158.078L34.1329 158.072C37.7003 158.072 44.4238 158.558 50.2237 159.044C56.0268 159.534 60.9127 160.02 60.9258 160.02L61.0041 159.208L60.4297 159.785L69.7021 169.064L82.8587 141.86L0.107422 140.052L0.12049 140.898L0.936448 140.884Z" fill="#3265B1"/>
<path d="M2.19337 130.711L2.13456 131.523C2.14435 131.523 5.58113 131.762 9.35739 132.176C11.2439 132.385 13.2153 132.636 14.8635 132.923C16.502 133.198 17.8695 133.553 18.346 133.814C18.7997 134.046 19.286 134.611 19.6973 135.378C20.3174 136.52 20.7646 138.061 21.0355 139.294C21.1726 139.911 21.2704 140.453 21.3292 140.842C21.3912 141.227 21.4173 141.445 21.4173 141.445L22.2267 141.351L22.2463 140.535L1.84085 140.088L3.00279 130.812L2.19337 130.711L1.38394 130.609L0 141.68L23.1471 142.189L23.0394 141.256C23.0361 141.233 22.8338 139.494 22.2757 137.535C21.995 136.556 21.6294 135.521 21.1333 134.601C20.634 133.687 20.0072 132.858 19.1097 132.375C18.235 131.925 16.8577 131.618 15.1442 131.314C10.0395 130.433 2.26188 129.898 2.24883 129.898L1.47845 129.846L1.38394 130.609L2.19337 130.711Z" fill="#3265B1"/>
<path d="M324.993 288.108V288.924C332.738 288.924 351.818 288.646 370.317 288.144C388.833 287.635 406.676 286.913 412.183 285.977C417.571 285.056 421.439 284.159 424.265 282.993C427.082 281.838 428.903 280.34 429.918 278.293C430.209 277.709 430.486 276.799 430.826 275.529C433.153 266.713 437.448 241.67 437.709 239.229C437.748 238.84 437.791 238.39 437.791 237.894C437.807 236.409 437.363 234.463 435.45 232.854C433.551 231.242 430.336 229.923 424.81 229.166C416.723 228.066 395.495 227.316 374.378 226.829C353.274 226.346 332.34 226.134 324.993 226.134C317.646 226.134 296.711 226.346 275.608 226.829C254.491 227.316 233.263 228.066 225.175 229.166C219.649 229.923 216.437 231.242 214.538 232.854C212.625 234.46 212.181 236.405 212.198 237.89C212.198 238.387 212.24 238.84 212.279 239.229C212.426 240.648 213.888 249.379 215.553 258.309C216.385 262.767 217.27 267.258 218.06 270.872C218.454 272.68 218.827 274.266 219.159 275.529C219.499 276.799 219.78 277.709 220.067 278.297C221.082 280.34 222.903 281.838 225.72 282.993C228.546 284.159 232.414 285.056 237.803 285.977C243.312 286.913 261.155 287.635 279.671 288.144C298.167 288.646 317.248 288.924 324.993 288.924V288.108V287.292C317.277 287.292 298.197 287.015 279.713 286.512C261.253 286.009 243.299 285.265 238.077 284.368C232.737 283.457 228.951 282.566 226.343 281.486C223.729 280.395 222.342 279.185 221.526 277.566C221.353 277.233 221.056 276.329 220.736 275.111C218.455 266.514 214.123 241.275 213.901 239.062V239.059C213.866 238.69 213.83 238.295 213.83 237.89C213.846 236.667 214.094 235.397 215.595 234.095C217.11 232.796 220.034 231.51 225.397 230.782C233.279 229.705 254.566 228.944 275.643 228.461C296.734 227.978 317.669 227.766 324.993 227.766C332.317 227.766 353.251 227.978 374.342 228.461C395.42 228.944 416.706 229.705 424.589 230.782C429.954 231.51 432.875 232.799 434.393 234.098C435.894 235.4 436.142 236.67 436.159 237.894C436.159 238.298 436.123 238.69 436.084 239.062L436.087 239.059C435.956 240.302 434.484 249.131 432.826 258.009C431.994 262.457 431.116 266.935 430.333 270.522C429.941 272.314 429.572 273.884 429.249 275.111C428.929 276.329 428.632 277.233 428.459 277.566C427.643 279.185 426.256 280.395 423.642 281.486C421.034 282.566 417.248 283.457 411.908 284.368C406.69 285.265 388.735 286.009 370.272 286.512C351.789 287.015 332.708 287.292 324.993 287.292V288.108Z" fill="#3265B1"/>
<path d="M324.986 285.104V284.288C316.32 284.288 297.207 283.994 279.008 283.488C260.829 282.982 243.475 282.248 238.576 281.406C233.758 280.584 230.357 279.79 228.073 278.932C225.775 278.067 224.672 277.166 224.208 276.223L223.477 276.585L224.212 276.233C224.084 275.975 223.823 275.149 223.536 274.027C221.49 266.073 217.204 241.878 216.888 238.754L216.839 238.066C216.868 237.39 216.94 236.812 218.069 235.996C219.215 235.197 221.529 234.342 225.795 233.767C233.69 232.687 255.264 231.93 276.433 231.456C297.609 230.977 318.439 230.774 324.986 230.774C331.533 230.774 352.363 230.977 373.539 231.456C394.708 231.93 416.285 232.687 424.177 233.767C428.443 234.342 430.757 235.197 431.902 235.996C433.028 236.812 433.1 237.39 433.133 238.062L433.084 238.754C432.908 240.52 431.426 249.221 429.814 257.786C429.007 262.074 428.165 266.343 427.431 269.728C427.065 271.419 426.726 272.887 426.435 274.023C426.151 275.149 425.887 275.975 425.76 276.233L426.494 276.589L425.763 276.223C425.3 277.166 424.2 278.07 421.902 278.932C419.617 279.794 416.213 280.584 411.396 281.406C406.497 282.248 389.143 282.982 370.963 283.488C352.767 283.994 333.651 284.288 324.986 284.288V285.104V285.92C333.681 285.92 352.797 285.626 371.009 285.117C389.244 284.608 406.484 283.893 411.67 283.015C416.536 282.183 420.006 281.386 422.476 280.46C424.931 279.536 426.468 278.456 427.222 276.951L427.229 276.944C427.473 276.425 427.712 275.606 428.018 274.428C430.104 266.278 434.36 242.273 434.709 238.921C434.732 238.682 434.765 238.392 434.765 238.062C434.794 237.06 434.367 235.673 432.829 234.652C431.305 233.61 428.789 232.752 424.399 232.148C416.298 231.045 394.783 230.301 373.578 229.824C352.382 229.345 331.556 229.142 324.986 229.142C318.416 229.142 297.589 229.345 276.394 229.824C255.189 230.301 233.673 231.045 225.573 232.148C221.183 232.752 218.666 233.61 217.142 234.652C215.605 235.676 215.174 237.064 215.207 238.066C215.207 238.395 215.239 238.686 215.262 238.921C215.465 240.856 216.937 249.479 218.555 258.089C219.365 262.391 220.21 266.67 220.945 270.077C221.313 271.781 221.656 273.266 221.956 274.431C222.26 275.606 222.498 276.425 222.743 276.941L222.753 276.957L222.749 276.951C223.507 278.456 225.044 279.536 227.498 280.46C229.969 281.386 233.435 282.183 238.298 283.015C243.488 283.893 260.727 284.608 278.962 285.117C297.178 285.626 316.291 285.92 324.986 285.92V285.104Z" fill="#3265B1"/>
<path d="M412.781 323.333V322.517H237.154C236.743 322.517 236.302 322.514 235.848 322.514C233.851 322.521 231.553 322.563 229.618 323.425C228.652 323.856 227.774 324.521 227.157 325.487C226.54 326.454 226.204 327.687 226.207 329.198L226.21 329.362L227.023 329.339L226.207 329.349C226.256 332.632 227.004 338.327 228.56 343.736C230.143 349.127 232.428 354.248 236.041 356.311C240.284 358.664 245.297 359.069 250.523 359.072C253.666 359.072 256.894 358.922 260.099 358.922H389.836C393.041 358.922 396.269 359.072 399.412 359.072C404.634 359.069 409.648 358.664 413.897 356.311C417.507 354.248 419.788 349.127 421.371 343.736C422.928 338.327 423.676 332.632 423.725 329.349V329.202C423.728 327.687 423.392 326.454 422.775 325.487C421.845 324.029 420.353 323.288 418.806 322.919C417.249 322.547 415.585 322.514 414.083 322.514C413.63 322.514 413.192 322.517 412.781 322.517V323.333V324.149C413.202 324.149 413.639 324.146 414.083 324.146C416.042 324.139 418.16 324.234 419.645 324.913C420.392 325.252 420.976 325.706 421.401 326.365C421.818 327.025 422.093 327.919 422.093 329.202V329.326C422.054 332.407 421.319 338.047 419.805 343.282C418.316 348.53 415.94 353.357 413.104 354.885C409.285 357.01 404.559 357.447 399.412 357.44C396.321 357.444 393.09 357.29 389.836 357.29H260.099C256.845 357.29 253.613 357.444 250.523 357.44C245.376 357.447 240.646 357.01 236.834 354.885C233.995 353.357 231.615 348.53 230.13 343.282C228.616 338.047 227.881 332.407 227.839 329.326V329.313V329.198C227.839 327.919 228.113 327.025 228.534 326.365C229.158 325.386 230.182 324.828 231.508 324.508C232.823 324.188 234.383 324.143 235.848 324.146C236.296 324.146 236.733 324.149 237.154 324.149H412.781V323.333Z" fill="#3265B1"/>
<path d="M561.431 329.419L562.241 329.311C562.012 327.568 561.049 326.227 559.829 325.287C556.17 322.496 550.217 322.536 550.148 322.509L451.904 322.503L451.737 323.1C450.814 326.426 449.335 331.792 448.026 336.691C446.714 341.6 445.585 345.986 445.337 347.53C445.223 348.258 445.151 348.986 445.151 349.707C445.131 352.021 445.954 354.332 448.284 356.183L448.509 356.365H448.8C461.754 356.29 483.308 356.071 502.588 355.474C512.229 355.174 521.299 354.779 528.447 354.254C532.021 353.992 535.115 353.699 537.569 353.369C540.034 353.033 541.822 352.68 542.932 352.22C547.586 350.246 552.358 346.394 556.023 342.23C559.672 338.042 562.257 333.623 562.293 330.111L562.241 329.311L561.431 329.419L560.622 329.527L560.661 330.111C560.697 332.8 558.337 337.158 554.799 341.153C551.278 345.167 546.62 348.894 542.296 350.716C541.506 351.058 539.747 351.434 537.351 351.75C520.483 354.032 471.428 354.603 448.79 354.733L448.796 355.549L449.306 354.913C447.351 353.314 446.802 351.678 446.783 349.707C446.783 349.093 446.841 348.454 446.949 347.785C447.158 346.447 448.297 341.985 449.603 337.112C450.908 332.223 452.387 326.86 453.31 323.538L452.524 323.319V324.135L550.142 324.141L550.556 324.154C551.519 324.2 553.996 324.409 556.232 325.212C557.348 325.613 558.399 326.162 559.179 326.87C559.956 327.582 560.472 328.42 560.622 329.527L561.431 329.419Z" fill="#3265B1"/>
<path d="M89.0883 329.425L88.2788 329.314L88.2266 330.12C88.2625 333.632 90.8442 338.051 94.4932 342.235C98.1617 346.403 102.933 350.251 107.588 352.226C108.678 352.68 110.417 353.022 112.807 353.355C129.423 355.627 176.81 356.208 200.166 356.361H200.46L200.685 356.179C203.003 354.331 203.819 352.024 203.799 349.716C203.799 348.992 203.727 348.267 203.613 347.539V347.536C203.365 345.992 202.236 341.606 200.924 336.697C199.615 331.798 198.133 326.432 197.209 323.106L197.043 322.509L100.374 322.515H100.371C100.329 322.515 97.659 322.535 94.8097 323.341C93.3834 323.746 91.9082 324.346 90.6875 325.293C89.4701 326.233 88.504 327.574 88.2788 329.317V329.314L89.0883 329.425L89.8977 329.533C90.0674 328.269 90.7168 327.349 91.6894 326.582C93.1451 325.44 95.3384 324.793 97.1564 324.477C98.067 324.317 98.8798 324.235 99.464 324.193C100.048 324.147 100.384 324.147 100.384 324.147H100.378L196.423 324.141V323.325L195.636 323.543C196.56 326.866 198.042 332.228 199.347 337.118C200.653 341.991 201.792 346.452 202.004 347.794L202.001 347.79C202.108 348.46 202.17 349.103 202.17 349.716C202.147 351.684 201.602 353.316 199.66 354.909L200.173 355.545L200.176 354.729C186.847 354.645 165.648 354.413 146.861 353.812C137.468 353.512 128.675 353.117 121.779 352.601C118.332 352.347 115.359 352.056 113.028 351.74C110.708 351.423 108.998 351.058 108.224 350.721C103.9 348.9 99.242 345.173 95.7203 341.158C92.1823 337.167 89.8226 332.806 89.8585 330.12L89.8943 329.533H89.8977L89.0883 329.425Z" fill="#3265B1"/>
<path d="M172.66 230.532L172.259 231.24L172.328 231.119L172.253 231.237L172.259 231.24L172.328 231.119L172.253 231.237C172.435 231.335 180.314 236.459 185.889 267.622L186.692 267.478L186.721 266.666C186.701 266.662 179.315 266.411 169.129 266.042C158.939 265.677 145.966 265.194 134.829 264.737C112.642 263.826 94.9812 259.518 88.0423 256.903C84.7001 255.647 81.335 252.931 78.6881 249.844C76.0378 246.766 74.0992 243.3 73.5117 240.705C73.306 239.807 73.169 238.567 73.169 237.157C73.1658 233.818 73.936 229.517 76.1227 226.142C78.3226 222.773 81.8182 220.267 87.6604 220.247C94.9061 220.244 116.203 223.015 135.583 225.789C145.283 227.176 154.52 228.564 161.335 229.601C168.147 230.643 172.523 231.335 172.533 231.338L172.66 230.532L172.788 229.726C172.788 229.726 155.225 226.948 135.815 224.174C116.385 221.399 95.1836 218.622 87.6604 218.615C81.3221 218.599 77.1607 221.494 74.752 225.257C72.3303 229.017 71.5404 233.58 71.5371 237.157C71.5371 238.675 71.6807 240.013 71.919 241.071C72.6174 244.07 74.6704 247.66 77.4512 250.908C80.2385 254.145 83.7503 257.024 87.4646 258.431C94.6515 261.13 112.384 265.442 134.761 266.365C157.046 267.282 186.662 268.294 186.662 268.294L187.674 268.33L187.495 267.335C181.695 234.961 173.395 230.022 173.065 229.82L172.935 229.748L172.788 229.726L172.66 230.532Z" fill="#3265B1"/>
<path d="M477.871 230.532L477.466 229.82C477.137 230.022 468.837 234.961 463.037 267.335L462.857 268.33L463.866 268.294C463.869 268.294 493.485 267.282 515.771 266.365C538.148 265.442 555.877 261.13 563.06 258.431C566.778 257.024 570.293 254.145 573.08 250.908C575.861 247.66 577.914 244.07 578.609 241.071C578.851 240.013 578.991 238.668 578.994 237.151C578.988 233.57 578.198 229.011 575.776 225.254C573.368 221.491 569.206 218.599 562.868 218.615C555.348 218.622 534.146 221.399 514.717 224.174C495.307 226.948 477.744 229.726 477.744 229.726L477.597 229.748L477.466 229.82L477.871 230.532L477.998 231.338C478.008 231.335 482.385 230.643 489.197 229.601C499.419 228.041 515.095 225.701 529.593 223.753C544.081 221.801 557.447 220.244 562.868 220.247C568.71 220.267 572.206 222.774 574.405 226.139C576.592 229.51 577.366 233.809 577.363 237.151C577.363 238.564 577.225 239.807 577.017 240.705C576.429 243.3 574.494 246.766 571.84 249.844C569.193 252.931 565.828 255.647 562.486 256.903C555.55 259.518 537.89 263.826 515.702 264.737C504.566 265.194 491.592 265.677 481.403 266.042C471.216 266.411 463.83 266.662 463.81 266.666L463.84 267.478L464.643 267.622C467.522 251.547 471.011 242.386 473.742 237.288C475.107 234.739 476.282 233.201 477.091 232.317C477.499 231.873 477.812 231.592 478.018 231.429L478.237 231.266L478.279 231.237L478.204 231.116L478.273 231.24L478.279 231.237L478.204 231.116L478.273 231.24L477.871 230.532Z" fill="#3265B1"/>
<path d="M324.488 140.801V141.617C386.932 141.617 445.377 144.29 488.212 146.963C509.626 148.298 527.14 149.637 539.297 150.639C545.375 151.141 550.114 151.556 553.335 151.849C556.553 152.143 558.247 152.306 558.254 152.31L559.429 152.424L559.119 151.281C545.437 100.868 511.467 39.3679 511.454 39.3385L511.281 39.0285L510.938 38.9403C504.459 37.3084 491.848 36.0322 475.917 35.0009C428.157 31.9165 350.863 31.1626 324.488 31.1626C306.903 31.1626 266.686 31.4988 227.68 32.6346C208.175 33.2025 188.974 33.9728 173.053 35.0009C157.122 36.0322 144.511 37.3084 138.032 38.9403L137.689 39.0285L137.516 39.3385C137.506 39.3679 103.533 100.868 89.8511 151.281L89.541 152.424L90.7194 152.31C90.7226 152.306 92.4164 152.143 95.6346 151.849C118.175 149.803 215.199 141.617 324.488 141.617V140.801V139.985C199.496 139.985 90.5757 150.684 90.5594 150.684L90.6378 151.497L91.4276 151.709C98.2196 126.659 110.103 98.7435 120.286 77.1109C125.378 66.2945 130.045 57.0448 133.436 50.5008C135.134 47.2304 136.511 44.6357 137.464 42.8569C138.417 41.0814 138.946 40.1283 138.946 40.1251L138.231 39.7334L138.433 40.5232C144.654 38.9468 157.275 37.6511 173.157 36.6295C220.832 33.5485 298.139 32.7945 324.488 32.7945C342.051 32.7945 382.261 33.1307 421.245 34.2665C440.736 34.8344 459.921 35.6014 475.813 36.6295C491.691 37.6511 504.316 38.9468 510.54 40.5232L510.739 39.7334L510.024 40.1251C510.027 40.1283 510.553 41.0814 511.506 42.8569C518.18 55.2889 545.655 107.859 557.545 151.709L558.332 151.497L558.414 150.684C558.397 150.684 449.47 139.985 324.488 139.985V140.801Z" fill="#3265B1"/>
<path d="M534.098 385.674L534.892 385.482C534.05 382.048 532.568 378.719 529.989 376.222C527.411 373.725 523.736 372.129 518.758 372.136C503.67 372.136 148.924 372.136 132.014 372.136C126.064 372.126 122.167 374.176 119.768 376.921C117.366 379.662 116.442 382.998 116.09 385.563L115.959 386.49H535.14L534.892 385.482L534.098 385.674V384.858H116.896V385.674L117.705 385.785C118.028 383.409 118.893 380.384 120.995 377.998C123.1 375.618 126.423 373.781 132.014 373.768C148.924 373.768 503.67 373.768 518.758 373.768C523.4 373.778 526.575 375.204 528.854 377.397C531.132 379.594 532.512 382.626 533.309 385.87L534.098 385.674Z" fill="#3265B1"/>
<path d="M647.818 130.71L648.598 130.462C646.375 123.579 638.937 117.312 631.972 115.409C625.523 113.689 608.727 111.114 602.196 111.108C601.827 111.108 601.488 111.114 601.181 111.13C598.041 111.343 595.345 113.777 593.243 116.79C591.145 119.819 589.64 123.51 589.137 126.604C588.495 130.57 587.897 137.737 587.561 142.153L588.374 142.212L588.357 141.396L579.385 141.592L578.36 140.567L577.783 141.141L578.504 140.759C578.504 140.759 564.016 113.474 549.071 85.5028C541.6 71.5205 534.011 57.3653 528.068 46.3629C525.094 40.8601 522.532 36.1503 520.597 32.6384C518.655 29.12 517.369 26.8419 516.87 26.0912C515.081 23.3887 512.819 19.5113 506.014 15.944C499.209 12.3635 487.88 8.97891 467.687 6.76277C427.339 2.33374 352.066 0.000112784 325.002 0.000112784C297.935 0.000112784 222.661 2.33374 182.314 6.76277C162.117 8.97891 150.788 12.3635 143.983 15.944C137.178 19.5113 134.916 23.3887 133.128 26.0912C132.628 26.8419 131.342 29.12 129.4 32.6384C115.865 57.2021 71.4999 140.756 71.4966 140.759L72.2179 141.141L71.6402 140.564L70.6121 141.592L61.6725 141.396L61.6562 142.212L62.4688 142.153C62.1359 137.737 61.5354 130.57 60.8957 126.604C60.3898 123.51 58.8852 119.819 56.7866 116.79C54.6847 113.777 51.9887 111.343 48.8522 111.13C48.5421 111.114 48.2026 111.108 47.8338 111.108C41.3029 111.114 24.5071 113.689 18.0611 115.409C11.096 117.312 3.65786 123.579 1.43193 130.462L1.40898 130.534L0.123047 140.841V140.897C0.123047 140.929 0.162315 143.475 0.798762 146.331C1.45479 149.164 2.61665 152.428 5.37785 153.717C7.78982 154.787 12.7965 155.838 18.1688 156.677C23.5313 157.506 29.1777 158.084 32.7125 158.087L33.3945 158.077L34.1354 158.071C38.6754 158.068 48.2908 158.857 54.6651 159.432L54.7368 158.619L54.1591 158.041L53.7087 158.495L53.5782 158.629L53.5162 158.802C53.5097 158.835 44.6712 183.999 43.0785 197.175C41.5151 210.233 41.5183 224.539 41.5183 224.555H42.3342L41.5575 224.297L39.9484 229.131L39.9614 229.291C39.9614 229.294 42.2951 264.635 44.3807 284.672C45.4251 294.698 47.5041 310.237 50.236 325.336C52.9743 340.441 56.3427 355.066 60.0373 363.399C63.7059 371.64 67.4527 377.397 71.7479 381.128C76.0399 384.858 80.8997 386.5 86.5103 386.49H563.487C569.097 386.5 573.957 384.858 578.249 381.128C582.548 377.397 586.295 371.64 589.963 363.399C593.658 355.066 597.023 340.441 599.761 325.336C602.496 310.237 604.575 294.698 605.616 284.672C607.702 264.635 610.039 229.294 610.039 229.291L610.052 229.131L608.44 224.297L607.663 224.555H608.479C608.479 224.539 608.482 210.233 606.915 197.175C605.326 183.999 596.488 158.835 596.481 158.802L596.419 158.629L595.838 158.048L595.264 158.626L595.335 159.435C601.71 158.857 611.351 158.068 615.891 158.071L616.632 158.077L617.311 158.087C620.852 158.084 626.499 157.506 631.861 156.677C637.233 155.838 642.243 154.787 644.655 153.717C647.413 152.428 648.575 149.164 649.231 146.331C649.868 143.475 649.904 140.929 649.907 140.897V140.841L648.618 130.534L648.598 130.462L647.818 130.71L647.008 130.811L648.281 140.985L649.091 140.883L648.275 140.87C648.275 140.874 648.265 141.464 648.18 142.411C648.056 143.827 647.753 146.011 647.083 147.976C646.418 149.954 645.37 151.625 643.989 152.225C641.94 153.155 636.897 154.252 631.61 155.065C626.313 155.884 620.689 156.455 617.311 156.455L616.671 156.445L615.891 156.439C611.204 156.439 601.592 157.232 595.188 157.81L593.452 157.97L595.136 159.65L595.711 159.073L594.941 159.344C594.944 159.347 595.492 160.91 596.344 163.473C598.896 171.143 604.151 187.772 605.297 197.371C606.07 203.833 606.459 210.635 606.654 215.818C606.847 221.001 606.847 224.549 606.847 224.555V224.689L608.453 229.493L609.226 229.235L608.414 229.183C608.41 229.186 608.267 231.39 608.015 235.016C607.258 245.888 605.551 269.521 603.994 284.502C602.956 294.483 600.881 309.999 598.155 325.045C595.437 340.085 592.049 354.691 588.472 362.736C584.859 370.863 581.2 376.411 577.182 379.894C573.158 383.373 568.791 384.852 563.487 384.858H86.5103C81.2065 384.852 76.8395 383.373 72.8184 379.894C68.7974 376.411 65.1419 370.863 61.5289 362.733C57.9484 354.691 54.5605 340.085 51.8417 325.045C49.1197 309.999 47.0408 294.483 46.0029 284.502C44.965 274.515 43.8618 260.679 43.0165 249.347C42.5955 243.681 42.2364 238.639 41.9851 235.016C41.7337 231.39 41.5902 229.186 41.5902 229.183L40.7742 229.235L41.5478 229.493L43.1502 224.689V224.555C43.1502 224.549 43.1503 221.001 43.3429 215.818C43.5354 210.635 43.9238 203.833 44.6973 197.371C45.4643 190.98 48.0557 181.44 50.4546 173.538C51.6524 169.582 52.8047 166.031 53.6533 163.473C54.5051 160.91 55.0534 159.347 55.0567 159.344L54.2864 159.073L54.8641 159.65L55.3145 159.197L56.545 157.963L54.8119 157.806C48.4115 157.232 38.8223 156.439 34.1354 156.439L33.3522 156.445L32.7125 156.455C29.3409 156.455 23.7173 155.884 18.4201 155.065C13.1327 154.252 8.09337 153.155 6.04369 152.225C4.18983 151.448 2.96917 148.668 2.39148 145.975C2.09447 144.64 1.93449 143.354 1.84963 142.411C1.76477 141.464 1.75496 140.874 1.75496 140.87L0.939005 140.883L1.74843 140.985L3.02145 130.811L2.21203 130.71L2.98878 130.958C4.90139 124.803 12.0915 118.673 18.4821 116.986C24.6801 115.315 41.6325 112.726 47.8338 112.739C48.1798 112.739 48.4898 112.746 48.7542 112.762C51.0225 112.867 53.4933 114.884 55.445 117.717C57.4001 120.53 58.8362 124.075 59.2834 126.865C59.9068 130.704 60.5106 137.884 60.8402 142.274L60.8957 143.011L71.2714 143.24L72.7956 141.719L72.8806 141.634L72.9392 141.523C72.9392 141.52 73.8433 139.819 75.436 136.827C81.0074 126.343 94.9832 100.063 107.963 75.8059C114.455 63.6775 120.699 52.055 125.516 43.1676C127.925 38.7255 129.975 34.9656 131.525 32.1685C133.069 29.3844 134.13 27.524 134.485 26.9953C136.333 24.2373 138.229 20.8397 144.744 17.3898C151.255 13.9563 162.407 10.5847 182.493 8.38488C222.704 3.96892 298.013 1.62877 325.002 1.63203C351.987 1.62877 427.297 3.96892 467.507 8.38488C487.593 10.5847 498.742 13.9563 505.254 17.3898C511.768 20.8397 513.665 24.2373 515.512 26.9953C515.923 27.6056 517.242 29.9327 519.167 33.4283C525.927 45.6905 540.402 72.7183 553.186 96.6748C559.577 108.656 565.546 119.868 569.92 128.086C574.29 136.301 577.055 141.513 577.061 141.523L577.12 141.634L578.478 142.992L578.723 143.24L589.131 143.011L589.19 142.277C589.523 137.884 590.123 130.704 590.75 126.865C591.194 124.075 592.63 120.53 594.585 117.717C596.537 114.884 599.007 112.867 601.276 112.762C601.543 112.746 601.853 112.739 602.196 112.739C608.397 112.726 625.353 115.315 631.551 116.986C637.941 118.673 645.132 124.803 647.041 130.958L647.818 130.71Z" fill="#3265B1"/>
<path d="M86.5002 385.675V384.859C81.1965 384.852 76.8294 383.374 72.8083 379.895C68.7873 376.412 65.1319 370.864 61.5188 362.733C58.1538 355.168 54.9519 341.783 52.3213 327.699C49.6873 313.613 47.6019 298.798 46.4008 288.259L44.7754 288.351V440.631C44.7754 443.634 45.6207 446.376 47.0339 448.412C48.4407 450.442 50.4741 451.803 52.7914 451.807H115.414C117.729 451.803 119.759 450.439 121.162 448.412C122.575 446.372 123.421 443.634 123.421 440.631V384.859H86.5002V385.675V386.491H121.789V440.631C121.792 443.324 121.018 445.762 119.821 447.482C118.62 449.209 117.053 450.178 115.414 450.175H52.7914C51.1497 450.178 49.5797 449.209 48.3753 447.479C47.1775 445.762 46.404 443.324 46.4073 440.631V288.351H45.5913L44.7786 288.442C45.9862 299.023 48.0718 313.864 50.7155 328C53.3657 342.145 56.5513 355.556 60.0273 363.396C63.6958 371.64 67.4427 377.398 71.7379 381.128C76.0298 384.859 80.8897 386.501 86.5002 386.491V385.675Z" fill="#3265B1"/>
<path d="M604.799 284.587L603.986 284.502C602.948 294.483 600.872 310 598.147 325.046C595.428 340.086 592.041 354.691 588.463 362.737C584.85 370.864 581.191 376.412 577.174 379.895C573.149 383.374 568.782 384.852 563.479 384.859H527.459V440.631C527.462 443.634 528.308 446.376 529.721 448.412C531.128 450.442 533.158 451.803 535.475 451.807H598.101C600.415 451.803 602.446 450.439 603.846 448.412C605.259 446.372 606.101 443.634 606.104 440.631V279.63L604.476 279.555C604.312 281.278 604.149 282.942 603.986 284.502L604.799 284.587L605.608 284.672C605.775 283.106 605.938 281.434 606.101 279.705L605.288 279.63H604.472V440.631C604.472 443.324 603.702 445.762 602.508 447.482C601.303 449.209 599.74 450.178 598.101 450.175H535.475C533.833 450.178 532.267 449.209 531.062 447.479C529.864 445.762 529.091 443.324 529.091 440.631V386.491H563.479C569.089 386.501 573.949 384.859 578.241 381.128C582.539 377.398 586.286 371.64 589.955 363.399C593.65 355.067 597.015 340.441 599.753 325.336C602.488 310.238 604.567 294.699 605.608 284.672L604.799 284.587Z" fill="#3265B1"/>
<path d="M557.429 148.216L557.037 148.327C557.347 149.427 557.664 150.523 557.961 151.607L558.353 151.499L558.392 151.091C558.385 151.091 449.468 140.396 324.509 140.396C199.54 140.396 90.6256 151.091 90.6191 151.091L90.6583 151.499L91.0532 151.604C91.2262 150.957 91.422 150.298 91.6047 149.642L91.781 149.022L78.8594 151.218L79.3654 151.773C84.9302 157.851 92.3194 164.734 97.2054 167.76C105.731 173.04 166.882 209.977 184.444 221.776C201.877 233.483 205.516 252.313 207.539 261.386C208.042 263.628 209.367 270.322 211.064 279.079L211.13 279.412H439.428L439.494 279.079C441.191 270.322 442.513 263.628 443.015 261.386C445.042 252.313 448.681 233.483 466.113 221.776C483.676 209.977 544.827 173.04 553.349 167.76C555.934 166.164 559.204 163.49 562.547 160.429L562.553 160.422L571.026 151.95L571.189 151.77L571.646 151.261L570.984 151.101C570.866 151.072 565.579 149.782 557.524 147.821L556.845 147.654L557.037 148.327L557.429 148.216L557.331 148.614C565.386 150.576 570.67 151.865 570.788 151.894L570.886 151.496L570.582 151.225L570.439 151.385L561.982 159.838L562.269 160.129L561.995 159.828C558.676 162.867 555.425 165.521 552.922 167.068C544.403 172.342 483.262 209.272 465.656 221.097C447.917 233.017 444.246 252.153 442.219 261.206C441.71 263.478 440.391 270.162 438.691 278.926L439.092 279.004V278.596H211.466V279.004L211.867 278.926C210.167 270.162 208.845 263.478 208.336 261.206C206.312 252.153 202.64 233.017 184.901 221.097C167.296 209.272 106.155 172.342 97.633 167.068C92.8873 164.133 85.4883 157.26 79.9659 151.222L79.6656 151.496L79.7341 151.901L91.2815 149.932L91.213 149.531L90.8215 149.42C90.6387 150.07 90.4428 150.735 90.2665 151.395L90.1131 151.963L90.7007 151.904C90.7039 151.904 92.3978 151.737 95.6192 151.447C118.166 149.397 215.2 141.212 324.509 141.212C386.965 141.212 445.417 143.885 488.255 146.558C509.676 147.896 527.19 149.231 539.351 150.233C545.431 150.735 550.17 151.153 553.392 151.447C556.613 151.737 558.307 151.904 558.313 151.904L558.901 151.963L558.748 151.391C558.451 150.301 558.134 149.201 557.821 148.105L557.429 148.216Z" fill="#3265B1"/>
<path d="M442.593 261.295L442.195 261.207C440.161 270.294 424.981 350.675 424.981 350.679L424.978 350.692V350.705L424.936 351.325C424.923 353.446 426.479 354.687 428.712 355.271C430.961 355.884 434.022 356.002 437.514 356.002C441.16 356.002 465.107 355.96 489.312 355.421C501.414 355.15 513.578 354.758 523.308 354.187C533.057 353.606 540.289 352.885 542.773 351.847C547.346 349.915 552.091 346.093 555.721 341.964C559.34 337.829 561.867 333.423 561.886 330.116L561.837 329.369C561.387 326.099 558.361 324.516 555.6 323.732C552.813 322.943 550.169 322.923 550.146 322.923L434.531 322.916V323.324L434.93 323.416C434.933 323.409 437.851 310.351 439.208 302.351C440.553 294.391 442.593 285.882 445.119 281.1C446.284 278.845 451.05 275.438 455.479 272.715C457.695 271.348 459.833 270.127 461.419 269.253C463.002 268.375 464.027 267.846 464.027 267.843L464.206 267.751L464.242 267.552C469.242 239.614 476.093 232.479 477.712 231.151L477.454 230.837L477.682 231.173L477.692 231.167L477.702 231.16L477.891 231.013L478.303 230.694L465.88 220.935L465.632 221.098C447.893 233.017 444.222 252.153 442.195 261.207L442.593 261.295L442.991 261.387C445.018 252.313 448.657 233.484 466.089 221.777L465.861 221.437L465.61 221.757L477.389 231.013L477.64 230.69L477.392 230.37L477.222 230.501L477.209 230.511L477.193 230.521C475.345 232.051 468.459 239.375 463.439 267.408L463.841 267.48L463.651 267.118C463.648 267.121 459.513 269.266 455.048 272.024C450.58 274.801 445.805 278.104 444.398 280.718C441.787 285.679 439.763 294.208 438.405 302.214C437.73 306.193 436.663 311.451 435.762 315.713C434.864 319.973 434.136 323.23 434.133 323.236L434.022 323.732L550.143 323.739C550.143 323.739 550.773 323.742 551.752 323.843C553.221 323.994 555.447 324.362 557.34 325.227C559.239 326.102 560.754 327.417 561.028 329.477L561.07 330.116C561.086 333.011 558.671 337.385 555.107 341.426C551.55 345.479 546.863 349.236 542.456 351.096C540.279 352.033 532.956 352.81 523.262 353.371C494.122 355.085 442.975 355.189 437.514 355.186C434.045 355.189 431.023 355.059 428.927 354.484C426.816 353.877 425.765 352.983 425.752 351.325L425.787 350.806L425.383 350.757L425.784 350.832C425.784 350.819 426.731 345.806 428.186 338.129C432.55 315.096 441.473 268.162 442.991 261.387L442.593 261.295Z" fill="#3265B1"/>
<path d="M184.661 221.437L184.432 221.776C201.864 233.483 205.503 252.313 207.527 261.386C208.03 263.628 209.355 270.322 211.052 279.079L211.117 279.412H439.416L439.481 279.079C441.178 270.322 442.5 263.628 443.003 261.386C445.03 252.313 448.669 233.483 466.101 221.776L467.031 221.149L465.915 221.032C465.908 221.032 382.054 212.105 325.854 212.105C269.648 212.105 184.625 221.032 184.618 221.032L183.502 221.149L184.432 221.776L184.661 221.437L184.703 221.841C184.716 221.841 190.013 221.283 198.861 220.448C225.4 217.938 283.757 212.918 325.854 212.921C353.913 212.921 388.914 215.15 416.892 217.38C430.881 218.496 443.117 219.612 451.854 220.448C460.592 221.283 465.817 221.841 465.83 221.841L465.873 221.437L465.644 221.097C447.905 233.017 444.233 252.153 442.206 261.206C441.697 263.478 440.379 270.162 438.678 278.926L439.08 279.004V278.596H211.453V279.004L211.855 278.926C210.154 270.162 208.833 263.478 208.323 261.206C206.3 252.153 202.628 233.017 184.889 221.097L184.661 221.437Z" fill="#3265B1"/>
<path d="M186.667 267.48L186.481 267.842C186.481 267.846 187.505 268.375 189.088 269.252C191.464 270.565 195.091 272.653 198.351 274.86C201.612 277.053 204.516 279.423 205.388 281.1C207.914 285.882 209.951 294.391 211.299 302.351C212.657 310.351 215.574 323.409 215.578 323.416L215.976 323.324V322.916L100.364 322.923C100.338 322.923 97.6912 322.943 94.9072 323.732C92.1427 324.516 89.1204 326.099 88.67 329.369L88.6211 330.12C88.6374 333.426 91.1669 337.829 94.7865 341.967C98.4159 346.093 103.161 349.915 107.734 351.847C110.218 352.885 117.451 353.606 127.2 354.187C156.385 355.904 207.523 356.002 212.993 356.002C216.482 356.002 219.543 355.884 221.792 355.271C224.025 354.687 225.585 353.446 225.572 351.328L225.529 350.705V350.692L225.526 350.679C225.526 350.675 210.346 270.294 208.309 261.207C206.286 252.153 202.614 233.017 184.875 221.098L184.61 220.922L172.949 231.275L173.265 231.578C175.468 233.713 181.65 241.784 186.265 267.552L186.301 267.751L186.481 267.842L186.667 267.48L187.068 267.408C182.433 241.549 176.222 233.318 173.833 230.994L173.549 231.288L173.817 231.591L184.917 221.741L184.646 221.437L184.418 221.777C201.85 233.484 205.489 252.313 207.513 261.387C208.525 265.897 212.829 288.274 216.88 309.502C218.903 320.116 220.865 330.449 222.321 338.129C223.049 341.967 223.649 345.143 224.067 347.359C224.488 349.575 224.723 350.832 224.723 350.832L225.124 350.757L224.72 350.806L224.756 351.328C224.749 352.18 224.478 352.784 223.956 353.293C222.399 354.853 218.192 355.209 212.993 355.186C209.35 355.186 185.407 355.144 161.215 354.605C149.119 354.337 136.958 353.942 127.245 353.371C117.552 352.81 110.228 352.033 108.051 351.096C103.644 349.236 98.9577 345.479 95.4001 341.429C91.836 337.388 89.4175 333.015 89.4371 330.12L89.4794 329.48C89.8287 326.742 92.4496 325.279 95.1292 324.516C96.4575 324.14 97.7729 323.945 98.752 323.843C99.7312 323.742 100.364 323.739 100.368 323.739L216.482 323.732L216.374 323.236C216.371 323.23 215.643 319.973 214.745 315.713C213.845 311.451 212.777 306.193 212.102 302.214C210.741 294.208 208.72 285.679 206.109 280.718C204.699 278.107 199.928 274.801 195.456 272.023C190.995 269.266 186.859 267.121 186.856 267.118L186.667 267.48Z" fill="#3265B1"/>
<path d="M606.109 197.272L606.514 197.223C605.864 191.798 603.965 184.321 601.964 177.398L601.677 176.403L601.21 177.326C594.046 191.492 580.24 217.077 575.233 226.313L575.126 226.512L575.24 226.708C577.126 230.034 577.792 234.016 577.792 237.166C577.792 238.598 577.655 239.862 577.44 240.795C577.267 241.565 576.966 242.411 576.581 243.292L576.33 243.863H576.957V243.455L576.558 243.373L576.454 243.788C576.229 244.614 575.579 246.621 574.071 249.167L573.928 249.408L574.104 249.63C575.687 251.615 577.603 253.87 579.45 255.639C581.311 257.401 583.031 258.726 584.525 258.756C586.833 258.756 597.933 258.622 607.141 258.505L607.513 258.498L607.542 258.129C608.727 242.959 609.637 229.264 609.637 229.261L609.641 229.182L608.054 224.427L607.666 224.554H608.074C608.074 224.548 608.077 210.249 606.514 197.223L606.109 197.272L605.705 197.321C606.481 203.799 606.87 210.611 607.066 215.801C607.258 220.99 607.258 224.548 607.258 224.554V224.623L608.841 229.365L609.229 229.234L608.821 229.208C608.821 229.215 608.596 232.632 608.221 237.949C607.846 243.269 607.32 250.482 606.729 258.064L607.134 258.097L607.131 257.689C597.927 257.806 586.817 257.943 584.525 257.94C583.556 257.973 581.8 256.788 580.015 255.051C578.213 253.325 576.31 251.092 574.744 249.121L574.424 249.376L574.776 249.584C576.842 246.086 577.352 243.569 577.358 243.533L577.456 243.047H576.953V243.455L577.329 243.618C577.727 242.704 578.047 241.813 578.236 240.978C578.468 239.963 578.608 238.651 578.608 237.166C578.605 233.905 577.929 229.806 575.948 226.307L575.592 226.506L575.951 226.702C580.961 217.462 594.764 191.88 601.938 177.695L601.572 177.509L601.181 177.623C603.178 184.526 605.065 191.988 605.705 197.321L606.109 197.272Z" fill="#3265B1"/>
<path d="M76.6396 250.224L76.9856 250.006C75.7649 248.09 75.011 246.422 74.5638 245.24C74.3386 244.65 74.1916 244.176 74.1002 243.857C74.0089 243.537 73.9763 243.377 73.9763 243.374L73.5782 243.458V243.866H73.5847V243.458L73.2256 243.654L73.2322 243.667L73.9632 243.302C73.5715 242.421 73.2746 241.569 73.0951 240.798C72.8797 239.865 72.7426 238.605 72.7426 237.172C72.7426 234.019 73.4116 230.028 75.3014 226.695L75.4254 226.477L75.2883 226.268C65.0823 210.951 53.5545 183.642 49.713 174.223L49.2757 173.155L48.9427 174.262C46.6287 181.974 44.2232 190.969 43.4659 197.226C41.9058 210.252 41.9091 224.551 41.9091 224.558H42.3171L41.9287 224.43L40.3457 229.186L40.349 229.264C40.349 229.267 41.2434 242.747 42.4151 257.767L42.4444 258.133L42.8132 258.142C48.7566 258.289 56.8576 258.459 62.4126 258.459C64.9323 258.459 66.9165 258.423 67.974 258.335C69.6223 258.185 71.2575 257.029 72.8078 255.528C74.3548 254.023 75.804 252.144 76.9757 250.456L77.1292 250.234L76.9856 250.006L76.6396 250.224L76.3033 249.993C75.1512 251.651 73.725 253.498 72.24 254.944C70.7549 256.396 69.2012 257.421 67.9055 257.522C66.91 257.607 64.9192 257.643 62.4126 257.643C56.8739 257.643 48.773 257.473 42.8328 257.326L42.8231 257.734L43.2277 257.702C42.6435 250.195 42.1279 243.073 41.7558 237.825C41.387 232.58 41.165 229.218 41.165 229.212L40.757 229.238L41.1454 229.368L42.7251 224.626V224.558C42.7251 224.551 42.7252 220.993 42.9177 215.804C43.1136 210.614 43.5018 203.803 44.2754 197.324C45.0195 191.172 47.4185 182.186 49.726 174.494L49.3343 174.376L48.9558 174.533C52.8137 183.975 64.3316 211.284 74.6094 226.721L74.9489 226.493L74.5932 226.294C72.6088 229.799 71.9299 233.908 71.9266 237.172C71.9266 238.657 72.0669 239.966 72.2986 240.981C72.4944 241.82 72.811 242.714 73.2158 243.635L73.5912 243.468L73.9469 243.269L73.9404 243.259L73.8229 243.05H73.5782H73.0755L73.1767 243.54C73.1865 243.576 73.7934 246.507 76.2968 250.443L76.6396 250.224Z" fill="#3265B1"/>
</svg>
