<svg width="900" height="275" viewBox="0 0 900 275" fill="none" xmlns="http://www.w3.org/2000/svg">
<g id="front">
<path d="M562.208 57.0869L617.856 91.9834L628.637 90.4142C618.636 82.0412 582.842 61.3758 566.173 52.3633L562.208 57.0869Z" fill="transparent" stroke="transparent"/>
<path d="M800.966 137.338C800.966 137.491 801.118 138.099 801.27 138.707C801.878 140.835 803.55 144.636 806.287 146.764C807.199 147.524 809.175 148.588 811.912 149.653C819.665 153.149 833.044 157.71 840.037 158.774C844.75 159.534 853.111 160.295 860.256 160.751C863.753 161.055 867.098 161.207 869.378 161.359C870.898 161.511 872.115 161.511 872.723 161.511C872.419 155.126 870.442 149.805 868.314 146.004C867.25 144.028 866.185 142.507 865.425 141.443C864.969 140.835 864.665 140.531 864.513 140.227C864.361 140.075 864.361 140.075 864.209 139.923C852.807 137.034 816.017 133.082 811.76 132.93H811.608C809.479 132.93 806.895 133.842 804.615 134.906C803.55 135.362 802.638 135.97 801.878 136.426C801.574 136.578 801.27 136.882 801.118 137.034L800.966 137.338Z" fill="transparent"/>
<path d="M885.796 141.897C885.796 143.721 887.012 146.458 887.772 148.738C888.989 152.995 892.333 166.677 892.941 169.414C893.245 170.782 893.853 171.694 894.462 172.302C894.614 172.454 894.614 172.454 894.766 172.606C894.766 172.454 894.766 172.302 894.766 172.302C894.614 169.566 894.005 163.181 892.333 157.1C891.269 153.147 890.053 149.194 889.141 146.306C888.837 145.546 888.685 144.938 888.38 144.329C888.228 143.721 887.924 143.113 887.772 142.657C887.62 142.353 887.62 142.049 887.468 141.745C887.468 141.593 887.316 141.441 887.316 141.289C887.316 141.137 887.164 140.985 887.164 140.833V140.529C887.164 140.377 887.164 140.225 887.316 140.073C887.468 139.921 887.468 139.769 887.62 139.617C887.62 139.465 887.772 139.465 887.924 139.312C887.316 139.465 887.012 139.769 886.708 140.073C886.1 140.377 885.796 140.985 885.796 141.897Z" fill="transparent"/>
<path d="M890.054 214.267C890.054 214.571 890.054 214.875 890.206 215.027H891.727V201.953C891.575 202.713 891.423 203.473 891.423 204.234C891.118 206.362 890.662 208.642 890.51 210.467C890.206 212.139 890.054 213.659 890.054 214.267Z" fill="transparent"/>
<path d="M831.216 221.709C831.824 221.709 832.584 221.709 833.496 221.709C841.554 221.709 859.341 221.861 873.327 221.861C882.601 221.861 890.354 221.861 892.331 221.709C894.459 221.557 896.131 221.405 897.348 221.101C896.588 220.493 895.827 219.884 895.067 219.428C894.763 219.276 894.459 218.972 894.155 218.82C893.091 219.124 892.027 219.428 891.115 219.428H890.963C889.746 219.428 877.584 219.276 865.726 219.124C854.476 218.972 843.378 218.82 842.314 218.82L831.216 221.709Z" fill="transparent"/>
<path d="M640.419 241.167H643.459L644.675 211.674C644.675 172.299 676.601 140.373 715.976 140.373C755.351 140.373 787.277 172.299 787.277 211.674L787.733 233.261C788.341 233.261 789.405 233.109 790.773 233.109L790.165 211.674C790.165 191.302 781.804 172.755 768.425 159.224C755.047 145.846 736.348 137.484 715.976 137.484C675.081 137.484 641.787 170.778 641.635 211.674L640.419 241.167Z" fill="transparent"/>
<path d="M508.072 240.585H616.387V219.289L508.072 218.565V240.585Z" fill="transparent" stroke="transparent"/>
<path d="M616.401 241.167H639.813L641.03 211.674C641.03 208.329 641.334 205.137 641.638 201.944C641.79 200.88 641.942 199.816 642.094 198.752C642.246 197.992 642.398 197.079 642.55 196.319C642.854 194.799 643.31 193.279 643.614 191.758C643.918 190.846 644.07 189.934 644.374 189.022C644.678 187.958 644.982 187.046 645.438 185.981C647.415 180.66 649.999 175.492 653.04 170.779C653.496 170.171 653.8 169.562 654.256 168.954C656.84 165.306 659.577 161.961 662.77 158.769C664.898 156.64 667.178 154.664 669.459 152.84C670.827 151.775 672.347 150.711 673.868 149.647C685.878 141.59 700.168 136.877 715.675 136.877C756.874 136.877 790.472 170.475 790.472 211.522L790.928 232.958C804.459 232.046 845.81 229.309 867.094 227.333C879.864 226.117 887.922 225.508 892.786 224.9C895.219 224.596 896.891 224.292 897.803 223.988C898.259 223.836 898.563 223.684 898.715 223.532L899.02 223.228C899.02 223.076 899.02 222.924 898.715 222.62C898.411 222.316 898.107 221.86 897.499 221.404C896.131 221.708 894.307 222.012 892.026 222.164C890.05 222.316 882.297 222.316 873.023 222.316C854.932 222.316 830.607 222.164 829.087 222.164H828.935H827.415L829.391 221.708L842.313 218.363C842.313 218.363 888.53 218.819 890.962 218.971H891.114C891.874 218.971 892.786 218.819 893.547 218.515C893.243 218.363 893.09 218.211 892.938 218.211C892.482 218.059 892.33 217.755 892.178 217.755C891.874 217.755 891.418 217.603 890.658 217.299C890.202 216.995 889.594 216.539 889.29 215.779H873.631L873.479 216.083H873.175C873.175 216.083 870.438 216.387 866.486 216.387C861.925 216.387 855.692 216.083 850.219 214.41C845.202 213.042 841.401 210.914 838.817 208.633C836.232 206.353 834.864 204.225 834.864 202.4V202.096C835.016 200.424 835.776 198.904 837.145 197.84C838.513 196.775 840.489 196.015 843.074 196.015H877.888V196.167L889.442 195.863C889.442 195.407 889.594 194.343 889.746 192.519C889.898 190.238 890.05 186.742 890.05 182.181C890.05 181.725 890.05 181.269 890.05 180.813C890.05 175.948 889.442 173.059 888.834 171.539C888.53 170.779 888.226 170.323 888.074 170.019L887.77 169.715C886.705 169.562 873.175 168.042 857.364 165.002C841.705 161.961 823.918 157.704 813.58 151.775C812.82 151.471 812.212 151.167 811.452 150.863C808.868 149.647 806.739 148.583 805.675 147.823C803.699 146.302 802.33 144.022 801.418 141.894C800.962 140.829 800.658 139.917 800.354 139.157C800.354 138.853 800.202 138.549 800.202 138.397C786.368 135.052 736.807 123.498 695.303 118.785C673.715 116.353 647.415 114.681 621.57 113.312C621.57 116.505 622.33 144.63 622.33 162.569C622.33 166.826 622.33 170.323 622.178 172.907C621.722 187.198 620.81 205.593 620.81 205.593L619.746 210.458L617.009 218.819H616.857L616.401 241.167Z" fill="transparent"/>
<path d="M617.468 92.1817L618.076 101.759L621.269 112.705C647.265 114.074 673.566 115.746 695.154 118.178C736.505 122.739 785.762 134.293 799.901 137.638C799.901 137.486 799.901 137.334 799.901 137.182V136.878C799.901 136.726 800.053 136.574 800.205 136.574C800.509 136.27 800.965 135.965 801.877 135.509C804.157 134.141 808.414 132.165 811.607 132.165H811.759C816.32 132.317 853.11 136.27 864.664 139.158H864.816L864.968 139.31C864.968 139.31 873.482 148.584 873.786 162.114V162.722H873.178C873.178 162.722 849.461 161.354 839.884 159.834C835.019 159.074 827.57 156.793 820.728 154.209C820.424 154.057 820.12 154.057 819.816 153.905C830.154 158.313 844.597 161.658 857.367 164.09C865.576 165.611 873.178 166.827 878.803 167.587C884.428 168.347 887.924 168.803 887.924 168.803C888.076 168.955 890.509 170.476 890.509 180.357V181.726C890.509 190.695 889.749 195.56 889.749 195.56V195.712L877.738 196.168C877.738 203.77 874.546 212.587 873.786 214.715H889.141C889.141 214.411 888.988 214.259 888.988 213.955C888.988 213.195 889.141 211.827 889.445 209.851C890.205 204.378 891.725 195.864 891.725 195.408V195.256L895.83 195.104L896.59 175.036L895.678 174.58L894.918 174.124L894.766 173.972H894.613C894.005 173.516 892.181 172.148 891.725 169.563C891.269 166.827 887.772 153.145 886.556 148.888C885.948 146.759 884.58 144.175 884.58 141.895C884.58 140.83 884.884 139.918 885.796 139.158C886.404 138.55 887.316 138.094 888.684 137.942C884.276 134.445 863.904 119.547 825.441 109.513C781.353 98.1107 722.671 90.0533 709.597 89.1412C697.282 88.381 689.073 85.9486 688.009 85.6445L673.718 87.7729C656.387 91.7256 645.745 92.7898 639.512 92.7898C633.127 92.7898 631.151 91.7256 630.999 91.5736C630.238 90.9655 629.478 90.5094 628.718 89.9013L617.468 92.1817Z" fill="transparent"/>
</g>
<path d="M836.081 202.102C836.081 203.318 837.297 205.446 839.729 207.575C842.162 209.703 845.81 211.832 850.675 213.2C855.996 214.72 862.229 215.024 866.638 215.024C868.614 215.024 870.287 215.024 871.351 214.872C872.111 214.872 872.567 214.872 872.871 214.72C873.023 214.416 873.175 213.96 873.327 213.2C874.391 210.007 876.672 202.862 876.672 196.629H843.074C840.641 196.629 838.969 197.237 837.753 198.149C836.537 199.061 836.081 200.278 835.929 201.646L836.081 202.102Z" fill="transparent"/>
<g id="front-wheels">
<circle cx="62.485" cy="62.485" r="62.485" transform="matrix(-1 0 0 1 777.979 149.402)" fill="transparent"/>
<circle cx="48.5304" cy="48.5304" r="48.5304" transform="matrix(-1 0 0 1 764.021 163.359)" fill="transparent"/>
</g>
<g id="rear-wheels">
<circle cx="62.485" cy="62.485" r="62.485" transform="matrix(-1 0 0 1 254.362 149.406)" fill="transparent"/>
<circle cx="48.5304" cy="48.5304" r="48.5304" transform="matrix(-1 0 0 1 240.405 163.363)" fill="transparent"/>
</g>
<path id="bumper" d="M115.449 209.816L115.451 209.798L115.951 203.298L115.952 203.281L115.954 203.266L116.454 199.766L117.456 193.754L117.463 193.715L117.475 193.678L117.975 192.178L119.471 187.192L119.477 187.171L119.485 187.15L121.485 182.15L121.49 182.138L121.496 182.124L124.996 174.624L125.014 174.587L125.036 174.554L131.056 165.756L5.48242 154.341L1.48926 155.228L2.44727 165.288L3.44531 173.777H3.44629V173.786L3.94434 178.764L4.44238 181.754L4.46875 181.914L4.39648 182.06L2.89648 185.06L0.973633 188.906L1.43457 191.215L3.92969 201.195L4.98926 204.374L4.39648 205.56L4.37598 205.6L4.34961 205.636L2.87598 207.601L2.44922 208.454V209.129L3.2373 209.916L7.60645 211.858L16.5576 213.848L33.0371 217.343L55.0283 220.842L114.318 228.311L114.449 225.313L114.45 225.303L114.451 225.291L115.449 214.312V209.816Z" fill="transparent" stroke="#3265B1"/>
<path id="lights" d="M27.4229 80.4102L24.5137 93.501L26.4795 125.461H79.4238L62.6406 97.8164L34.3945 79.4805L27.4229 80.4102Z" fill="transparent" stroke="#3265B1"/>
<path id="trunk" d="M86.2999 70.7781L33.4317 74.3808C32.8317 74.3808 32.0317 74.4808 31.2317 74.4808C30.5317 74.4808 29.8317 74.5808 29.8317 74.5808H29.7317C29.6317 74.5808 29.4317 74.5808 29.2317 74.6808C28.8317 74.6808 28.3317 74.7808 27.7317 74.8808C26.6317 74.9808 25.2317 75.1808 24.3317 75.2808L15.1141 76.3665L15.2317 77.9476L16.4317 81.1476V81.2476V81.3476C16.6317 82.9476 16.8317 85.4476 17.0317 87.5476C17.1317 88.5476 17.2317 89.5476 17.3317 90.2476C17.3317 90.5476 17.4317 90.8476 17.4317 91.0476C17.4317 91.1476 17.4317 91.2476 17.4317 91.2476V91.3476V93.6476H18.0317L20.8317 93.9476H21.1317L21.2317 94.2476L21.4317 94.8476V94.9476V96.1476C21.3317 99.7476 21.2317 105.248 21.1317 109.748C21.1317 112.048 21.0317 114.048 21.0317 115.548C21.0317 116.248 21.0317 116.948 21.0317 117.348C21.0317 117.548 21.0317 117.748 21.0317 117.848C21.0317 117.948 21.0317 117.948 21.0317 117.948C21.0317 118.148 20.8317 123.048 20.7317 125.948H25.3317V124.048L24.7317 119.548L24.5317 112.248L23.9317 103.448C23.9317 101.948 23.8317 99.6476 23.8317 97.6476C23.8317 96.6476 23.8317 95.8476 23.8317 95.1476C23.8317 94.8476 23.8317 94.5476 23.8317 94.3476C23.8317 94.2476 23.8317 94.1476 23.8317 94.1476C23.8317 94.1476 23.8317 94.1476 23.8317 94.0476C23.8317 93.9476 23.8317 93.9476 23.8317 93.8476V93.7476C23.8317 93.6476 23.8317 93.5476 23.8317 93.3476L23.9317 92.5476C23.9317 92.2476 24.0317 91.6476 24.1317 91.2476C24.1317 91.0476 24.1317 90.8476 24.2317 90.6476C24.2317 90.5476 24.2317 90.5476 24.2317 90.4476V90.3476V90.2476V90.1476C24.2317 90.0476 24.2317 89.9476 24.3317 89.8476C24.4317 89.5476 24.4317 89.2476 24.5317 88.9476C24.6317 88.6476 24.7317 88.3476 24.7317 88.0476L24.8317 87.6476L26.0317 82.2476L26.6317 79.5476L26.7317 79.1476H27.7317L34.7317 78.1476H34.9317L35.1317 78.2476L39.4317 81.1476L90.4707 70.5312L86.2999 70.7781ZM24.2317 90.6476C24.2317 90.7476 24.2317 90.7476 24.2317 90.6476Z" fill="transparent"/>
<path d="M24.2317 90.6476C24.1317 90.8476 24.1317 91.0476 24.1317 91.2476C24.0317 91.6476 23.9317 92.2476 23.9317 92.5476L23.8317 93.3476C23.8317 93.5476 23.8317 93.6476 23.8317 93.7476V93.8476C23.8317 93.9476 23.8317 93.9476 23.8317 94.0476C23.8317 94.1476 23.8317 94.1476 23.8317 94.1476C23.8317 94.1476 23.8317 94.2476 23.8317 94.3476C23.8317 94.5476 23.8317 94.8476 23.8317 95.1476C23.8317 95.8476 23.8317 96.6476 23.8317 97.6476C23.8317 99.6476 23.9317 101.948 23.9317 103.448L24.5317 112.248L24.7317 119.548L25.3317 124.048V125.948H20.7317C20.8317 123.048 21.0317 118.148 21.0317 117.948C21.0317 117.948 21.0317 117.948 21.0317 117.848C21.0317 117.748 21.0317 117.548 21.0317 117.348C21.0317 116.948 21.0317 116.248 21.0317 115.548C21.0317 114.048 21.1317 112.048 21.1317 109.748C21.2317 105.248 21.3317 99.7476 21.4317 96.1476V94.9476V94.8476L21.2317 94.2476L21.1317 93.9476H20.8317L18.0317 93.6476H17.4317V91.3476V91.2476C17.4317 91.2476 17.4317 91.1476 17.4317 91.0476C17.4317 90.8476 17.3317 90.5476 17.3317 90.2476C17.2317 89.5476 17.1317 88.5476 17.0317 87.5476C16.8317 85.4476 16.6317 82.9476 16.4317 81.3476V81.2476V81.1476L15.2317 77.9476L15.1141 76.3665L24.3317 75.2808C25.2317 75.1808 26.6317 74.9808 27.7317 74.8808C28.3317 74.7808 28.8317 74.6808 29.2317 74.6808C29.4317 74.5808 29.6317 74.5808 29.7317 74.5808H29.8317C29.8317 74.5808 30.5317 74.4808 31.2317 74.4808C32.0317 74.4808 32.8317 74.3808 33.4317 74.3808L86.2999 70.7781L90.4707 70.5312L39.4317 81.1476L35.1317 78.2476L34.9317 78.1476H34.7317L27.7317 79.1476H26.7317L26.6317 79.5476L26.0317 82.2476L24.8317 87.6476L24.7317 88.0476C24.7317 88.3476 24.6317 88.6476 24.5317 88.9476C24.4317 89.2476 24.4317 89.5476 24.3317 89.8476C24.2317 89.9476 24.2317 90.0476 24.2317 90.1476V90.2476V90.3476V90.4476C24.2317 90.5476 24.2317 90.5476 24.2317 90.6476ZM24.2317 90.6476C24.2317 90.7476 24.2317 90.7476 24.2317 90.6476Z" stroke="#3265B1"/>
<g id="doors">
<path d="M555.037 85.0156C555.037 88.2129 555.767 90.4967 556.496 91.9888C556.648 92.2933 556.8 92.5674 556.937 92.7957L559.127 92.9937C559.111 92.9176 559.081 92.8262 559.081 92.7501C559.035 92.4912 558.974 92.2324 558.929 91.9584C558.914 91.8518 558.883 91.73 558.868 91.6082C558.822 91.2884 558.762 90.9839 558.716 90.649C558.579 89.6746 558.473 88.6393 558.427 87.5582C558.397 87.0406 558.366 86.5229 558.351 85.9901L558.336 85.4724C558.321 85.0612 558.321 84.6502 558.321 84.2391C558.321 81.6052 558.488 78.8646 558.822 76.3067C559.309 72.7592 562 70.4602 564.646 69.0138C565.467 68.5723 566.303 68.1916 567.078 67.9023C566.835 67.9327 566.607 67.9785 566.379 68.0089C565.725 68.1155 565.117 68.2677 564.539 68.42C563.961 68.5875 563.414 68.7854 562.912 68.9833C562.669 69.0746 562.426 69.1812 562.183 69.3031C562.076 69.3488 561.97 69.3944 561.863 69.4553C561.833 69.4705 561.818 69.4705 561.802 69.4858C561.742 69.5162 561.696 69.5467 561.635 69.5771C561.544 69.6228 561.438 69.6837 561.346 69.7294C561.179 69.8359 561.027 69.9274 560.86 70.0187C560.814 70.0491 560.769 70.0796 560.723 70.1101C560.571 70.2166 560.419 70.3231 560.267 70.4297C560.084 70.5668 559.902 70.7038 559.735 70.8561C559.613 70.9627 559.491 71.0693 559.37 71.191C559.279 71.2671 559.203 71.3433 559.111 71.4194C558.838 71.6935 558.594 71.9675 558.336 72.2568V72.272C558.199 72.4395 558.062 72.6069 557.941 72.7896C557.697 73.1399 557.469 73.5053 557.257 73.8707C557.165 74.0229 557.089 74.1752 556.998 74.3427C556.952 74.4493 556.907 74.5406 556.861 74.6472C556.8 74.769 556.74 74.8907 556.694 75.0126C556.542 75.378 556.405 75.7434 556.268 76.124C556.192 76.3524 556.131 76.596 556.055 76.8244C556.055 76.8701 556.04 76.9157 556.025 76.9615C555.964 77.1594 555.903 77.3725 555.842 77.5704C555.736 77.9815 555.645 78.3926 555.584 78.8189C555.493 79.2757 555.447 79.7629 555.386 80.2348C555.28 81.0418 555.204 81.864 555.143 82.671C555.143 82.7318 555.128 82.7927 555.128 82.8537C555.128 82.9298 555.113 83.0059 555.113 83.082C555.098 83.3713 555.082 83.6758 555.067 83.9651C555.052 84.3152 555.037 84.6806 555.037 85.0156Z" fill="transparent"/>
<path d="M559.385 86.4786C559.415 86.9809 559.43 87.4986 559.461 88.0011C559.506 88.5035 559.552 88.9907 559.597 89.4627C559.628 89.8433 559.673 90.2087 559.734 90.5589C559.78 90.9091 559.826 91.2441 559.886 91.579C559.947 91.9139 560.008 92.2337 560.069 92.5382C560.114 92.7361 560.16 92.9188 560.19 93.1015L566.895 93.7257L567.047 93.741H567.093L568.203 93.7106H568.218L568.112 93.8323L582.205 95.1569H582.221C582.281 95.1265 582.342 95.0808 582.403 95.0352C582.601 94.8981 582.783 94.7459 582.966 94.5632C583.346 94.2282 583.711 93.8171 584.03 93.3908C584.197 93.1624 584.349 92.9493 584.501 92.7209C584.79 92.2642 585.064 91.7769 585.322 91.305C585.459 91.0613 585.566 90.8177 585.672 90.5893C585.778 90.3458 585.885 90.1022 585.976 89.8738C586.371 88.9451 586.645 88.0772 586.827 87.4681C586.919 87.1485 586.98 86.9048 587.04 86.7374C587.071 86.6612 587.086 86.6003 587.086 86.5699V86.4023L559.385 86.4786Z" fill="transparent"/>
<path d="M559.324 84.2371C559.324 84.6482 559.324 85.0592 559.339 85.4703L587.116 85.379L587.223 79.2584C585.748 76.1372 582.099 73.214 578.435 71.0824C576.58 70.0167 574.74 69.1488 573.19 68.555C572.323 68.22 571.532 67.9764 570.894 67.8242H570.879C570.103 67.9917 567.579 68.6006 565.132 69.9101C562.593 71.2803 560.236 73.3662 559.841 76.4417C559.506 78.9539 559.324 81.6488 559.324 84.2371Z" fill="transparent"/>
<path d="M613.223 90.7369C599.54 81.2819 542.313 42.5944 503.026 29.1656C469.884 17.8359 428.432 14.2585 395.408 13.9609L411.652 93.8123L566.745 99.5675C566.715 99.5066 566.684 99.4304 566.654 99.3696C566.624 99.3087 566.593 99.2477 566.563 99.1716C566.502 99.0503 566.457 98.929 566.411 98.8077L566.411 98.8062C566.396 98.7605 566.365 98.7149 566.35 98.654L566.348 98.6493C566.273 98.4377 566.197 98.2261 566.137 98.0145V97.9993C566.137 97.9841 566.122 97.9841 566.122 97.9841C566.092 97.8166 566.046 97.6491 566.015 97.4969V97.4816C565.985 97.3294 565.97 97.1771 565.955 97.0401C565.955 97.0097 565.939 96.9792 565.939 96.9488V96.9335L565.936 96.897C565.922 96.7436 565.909 96.6015 565.909 96.4463C565.909 96.3397 565.939 96.2027 565.955 96.0809C565.939 95.9896 565.955 95.8982 565.97 95.8069V95.7612C565.985 95.6698 566 95.5632 566.015 95.4719C566.015 95.4566 566.031 95.4566 566.015 95.4414C566.031 95.3805 566.046 95.3044 566.076 95.2435C566.076 95.2283 566.092 95.1978 566.092 95.1826C566.107 95.137 566.122 95.076 566.137 95.0304C566.168 94.939 566.198 94.8628 566.228 94.7715L564.404 94.8172L564.161 96.7356L421.473 91.4524L403.441 16.833L404.11 16.8482C430.611 17.5486 469.73 20.6698 502.144 31.7539C522.046 38.5596 546.692 51.9883 567.855 64.7319L568.144 64.8994L567.916 66.7569C568.463 66.6959 569.026 66.6656 569.619 66.6351H569.74C569.908 66.6351 570.105 66.6503 570.303 66.6808C570.668 66.7264 571.094 66.8178 571.565 66.9396C571.595 66.9548 571.626 66.9548 571.671 66.9701L573.268 67.3202L572.964 67.3811C573.146 67.4572 573.344 67.5334 573.541 67.6095C575.959 68.523 579 70.0608 581.751 72.0097C584.503 73.9585 586.966 76.3031 588.183 78.9219L588.228 79.0285L588.122 85.3775L588.107 86.626V86.6868C588.107 86.6868 588.076 86.7782 588.031 86.9457C588.015 86.9913 588 87.0523 587.985 87.1284C587.955 87.235 587.909 87.372 587.879 87.5243C587.681 88.179 587.377 89.1686 586.921 90.2496C586.738 90.6759 586.556 91.1175 586.328 91.559C586.115 92.0006 585.872 92.4573 585.598 92.8836C585.066 93.7667 584.427 94.604 583.682 95.2892L583.774 95.3044L582.998 95.8525H582.983L582.8 95.9896L582.77 96.0048L582.664 96.0961C582.588 96.1571 582.496 96.2179 582.42 96.2637C582.375 96.2941 582.344 96.3093 582.299 96.3398C582.238 96.3854 582.192 96.4159 582.132 96.4616L582.131 96.4622C582.025 96.5381 581.918 96.614 581.797 96.6899C581.721 96.7509 581.63 96.8118 581.554 96.8574C581.341 97.0097 581.113 97.1467 580.885 97.299C580.854 97.3295 580.809 97.3446 580.763 97.3751C579.684 98.0907 578.483 98.8063 577.297 99.4762L577.291 99.4796C577.034 99.6307 576.778 99.7818 576.521 99.9177L616.629 101.41L616.036 92.7009C615.641 92.4269 614.683 91.7417 613.223 90.7369Z" fill="transparent"/>
<path d="M566.927 96.4487V96.6009C566.927 96.7227 566.942 96.8597 566.972 96.9968V97.012C566.972 97.1033 566.987 97.2099 567.018 97.3013C567.033 97.3926 567.048 97.4992 567.079 97.5906C567.124 97.7885 567.185 97.9712 567.246 98.1691C567.291 98.3213 567.352 98.4584 567.413 98.5954C567.428 98.6411 567.459 98.6867 567.474 98.7325C567.52 98.8391 567.58 98.9608 567.641 99.0674C567.687 99.174 567.748 99.2958 567.808 99.3871C567.824 99.4024 567.839 99.4176 567.839 99.4328C567.93 99.5546 568.006 99.6764 568.097 99.7983L568.31 100.088C568.933 100.864 569.678 101.306 570.271 101.29H570.332C571.001 101.275 572.126 100.894 573.434 100.316L573.859 100.118L574.027 100.042L574.164 99.9809L574.331 99.9047C574.65 99.7525 574.985 99.5851 575.319 99.4024C575.517 99.2958 575.714 99.1892 575.927 99.0826C576.094 98.9913 576.262 98.8999 576.429 98.8086C576.551 98.7325 576.672 98.6715 576.794 98.5954C577.083 98.4279 577.387 98.2605 577.676 98.093C577.919 97.9559 578.147 97.8189 578.375 97.6819C579.166 97.1947 579.926 96.7227 580.625 96.2507C580.732 96.1899 580.823 96.1289 580.914 96.0528L567.383 94.7891C567.322 94.8804 567.261 94.9718 567.215 95.0783C567.185 95.1241 567.155 95.1849 567.139 95.2458C567.094 95.322 567.063 95.4134 567.048 95.5047C567.038 95.5149 567.033 95.525 567.033 95.5351V95.5961C567.003 95.6569 567.003 95.7178 566.987 95.7788C566.972 95.8396 566.957 95.9006 566.957 95.9767C566.942 96.1289 566.927 96.2812 566.927 96.4487Z" fill="transparent"/>
<path d="M411.969 94.8516L414.782 104.048C465.289 105.981 518.244 108.113 538.83 109.102C559.598 110.107 589.367 111.158 619.82 112.711L616.795 102.434L574.665 100.866H574.65C572.962 101.688 571.472 102.251 570.378 102.312H570.271C569.161 102.297 568.173 101.581 567.428 100.607L411.969 94.8516Z" fill="transparent"/>
<path d="M589.308 225.756C585.963 225.756 582.527 225.71 579.152 225.71L421.017 225.329V217.215L615.641 218.996C614.409 221.919 611.201 223.594 606.716 224.569C601.942 225.574 595.784 225.756 589.308 225.756Z" fill="transparent"/>
<path d="M538.8 109.621C559.614 110.626 589.444 111.661 619.958 113.244C619.958 113.838 620.004 115.574 620.065 118.101C620.125 121.268 620.232 125.684 620.323 130.693C620.505 140.711 620.703 153.104 620.703 162.559C620.703 166.746 620.657 170.355 620.566 172.928C620.323 180.068 619.988 188.26 619.7 194.654C619.441 200.562 619.244 204.962 619.213 205.586L618.225 210.291L615.731 217.98L421.001 216.198L420.576 159.438L414.981 104.688L414.966 104.642L414.935 104.551C465.396 106.484 518.245 108.631 538.8 109.621Z" fill="transparent"/>
<path d="M391.405 13.9141C381.508 13.9141 372.461 14.2034 364.783 14.6602C330.955 16.6394 299.012 18.1625 252.747 40.3457C236.13 48.3084 225.852 55.6924 219.755 62.1631C213.643 68.6642 211.727 74.2065 211.727 78.5762C211.727 81.9104 212.837 84.5593 214.145 86.4473H214.159L412.234 93.7861L395.706 13.9326C394.256 13.9204 392.821 13.9141 391.405 13.9141ZM388.425 16.6699L398.688 90.5586L283.307 86.2803L276.571 33.1133L276.951 32.9609C310.202 20.5828 336.155 19.0601 363.232 17.4766L364.936 17.3857C372.233 16.9442 379.972 16.7156 387.969 16.6699H388.425ZM278.639 86.1123L242.013 84.7578H241.998C238.517 84.5143 236.038 83.1892 234.487 81.2861C232.937 79.3678 232.282 76.9321 232.282 74.4961C232.297 71.436 233.286 68.3603 234.852 66.1982C235.961 64.6757 238.486 62.5743 241.785 60.123C251.668 52.7845 268.406 42.6593 272.466 40.208L273.135 39.8125L278.639 86.1123Z" fill="transparent"/>
<path d="M214.979 87.5C215.375 88.5201 216.12 90.0579 217.123 91.961C217.67 93.0116 218.309 94.1839 218.993 95.4476C219.51 96.3763 220.057 97.366 220.65 98.4013C253.825 99.0255 289.949 99.6803 311.402 100.274C328.202 100.761 370.225 102.284 414.301 103.974L411.473 94.7777L214.979 87.5Z" fill="transparent"/>
<path d="M297.43 216.169V216.062L297.445 216.063L420.578 217.189V225.482C373.272 225.371 331.07 225.203 320.546 224.954C309.75 224.695 303.944 222.944 300.868 221.041C297.807 219.138 297.43 217.113 297.43 216.169Z" fill="transparent"/>
<path d="M311.385 100.791C328.2 101.263 370.314 102.785 414.451 104.49L414.542 104.764V104.78L420.152 159.469L420.578 216.168L297.458 215.042H297.443C297.397 214.981 297.306 214.889 297.215 214.783C296.713 214.235 295.801 213.245 294.706 212.057C294.432 211.768 294.159 211.448 293.855 211.144C293.703 210.976 293.551 210.824 293.414 210.657C291.331 208.388 289.005 205.891 287.834 204.673C287.667 204.475 287.515 204.323 287.393 204.216C287.347 204.156 287.302 204.11 287.256 204.064C287.226 204.018 287.043 203.79 286.8 203.47C286.557 203.151 286.238 202.709 285.857 202.161C285.082 201.08 284.063 199.588 282.862 197.822C280.445 194.305 277.313 189.646 274.105 184.819C267.689 175.166 260.908 164.798 258.856 161.266C258.688 160.976 258.46 160.596 258.171 160.139C257.989 159.834 257.791 159.484 257.548 159.104C257.092 158.358 256.545 157.475 255.921 156.47C255.617 155.967 255.283 155.434 254.933 154.871C254.75 154.582 254.583 154.308 254.401 154.003C254.036 153.425 253.656 152.816 253.261 152.176C251.679 149.618 249.855 146.68 247.878 143.498C246.89 141.899 245.872 140.239 244.807 138.534C241.645 133.419 238.239 127.892 234.894 122.395C232.112 117.828 229.375 113.275 226.836 109.028C226.335 108.175 225.833 107.338 225.346 106.515C224.632 105.282 223.917 104.079 223.233 102.907C223.005 102.511 222.777 102.13 222.564 101.75C222.123 100.989 221.697 100.243 221.287 99.5269C221.165 99.3137 221.044 99.1158 220.937 98.918C254.036 99.5269 290.008 100.182 311.385 100.791Z" fill="transparent"/>
</g>
<path id="roof" d="M565.982 51.8734L561.422 57.2992L558.188 55.118L552.589 52.0661L545.466 48.0332L535.253 42.7171L526.794 38.4223L517.488 34.3108L508.515 30.5922L502.23 28.3662L496.312 26.4807L487.434 24.0191L475.99 21.3217L459.754 18.5982L452.029 17.3674L434.588 15.3771L422.777 14.4082L410.888 13.8059L401.696 13.5596H391.604H378.933L354.972 14.7194L335.464 16.1842L317.422 18.581L302.53 21.6659L291.056 24.6397L282.734 27.3473L274.744 30.0326L257.885 37.2237L248.319 41.6712L238.081 47.2096L221.903 32.3351L248.887 23.2968L252.458 21.7169L247.394 19.7259L240.815 17.1073L237.857 15.6769L244.83 14.108L261.216 10.2979L273.642 7.9073L292.543 4.99371L309.726 2.9268L325.365 1.78128L341.054 0.934592L359.531 0.46521H381.296L400.371 1.01195L419.696 1.9327L439.195 3.25237L457.299 5.04518L474.955 7.65829L488.377 9.97694L499.459 12.4172L507.527 14.3583L517.488 17.4469L523.106 19.2875L515.539 21.6819L506.845 24.39L509.344 25.2708L525.006 32.1702L541.197 39.7024L551.122 44.3471L565.982 51.8734Z" fill="transparent" stroke="#3265B1" stroke-width="0.1"/>
<path d="M4.22982 204.589L3.98256 204.644C3.98053 204.636 3.26895 201.437 2.46011 198.003C1.65329 194.577 0.737047 190.892 0.368103 190.04L0.358006 190.018L0.291094 189.726L0.232298 189.462L0.499849 189.42C2.15199 189.16 4.15889 189.067 6.23066 189.067C12.2108 189.067 18.7465 189.86 18.7505 189.86L18.72 190.111L18.7424 189.858L117.66 198.623L117.611 198.895C116.896 203.01 116.499 207.233 116.49 211.548V211.559L115.163 229.738L114.899 229.706C100.899 227.999 47.5403 221.425 34.2563 218.836C26.849 217.393 19.7499 216.008 13.9927 214.581C8.23351 213.148 3.82849 211.692 1.7405 210.026L1.1567 209.558L50.8284 210.677L28.7707 204.841H4.02512L3.98256 204.644L4.22982 204.589V204.336H28.8357L55.0875 211.279L1.89254 210.081L1.89858 209.827L2.05675 209.631C3.99067 211.19 8.38147 212.672 14.1163 214.088C19.8532 215.512 26.9464 216.896 34.3516 218.339C47.587 220.918 100.97 227.498 114.96 229.203L114.93 229.454L114.676 229.434L115.984 211.53L116.237 211.548H115.984C115.99 207.202 116.391 202.951 117.113 198.808L117.362 198.85L117.34 199.104L18.6937 190.362H18.6896C18.6856 190.362 17.0619 190.166 14.6881 189.967C12.3163 189.771 9.19844 189.574 6.23066 189.574C4.17308 189.574 2.18851 189.669 0.578936 189.921L0.538353 189.671L0.785711 189.614L0.848565 189.884L0.601207 189.939L0.832332 189.84C1.24385 190.804 2.13985 194.441 2.95274 197.887C3.76361 201.323 4.47718 204.532 4.47718 204.532L4.22982 204.589Z" fill="#3265B1"/>
<path d="M21.1599 185.959L21.1436 186.21L20.6815 186.18C13.9371 185.728 9.20971 185.616 6.17909 185.616C3.19713 185.616 1.87333 185.726 1.86928 185.724L1.4193 185.76L1.62202 185.359C2.6052 183.408 3.75862 181.643 3.76064 181.639L3.97346 181.777L3.72214 181.807L0.44828 153.678L0.705734 153.654C0.707762 153.654 1.70711 153.556 2.78962 153.429C3.85997 153.303 5.05805 153.127 5.30131 153.023L5.33774 153.115L5.26073 153.05L5.30131 153.023L5.33774 153.115L5.26073 153.05C5.27695 153.039 5.35808 152.849 5.41079 152.583C5.61553 151.637 5.74725 149.648 5.82226 147.919C5.89726 146.186 5.92164 144.702 5.92164 144.698L5.9257 144.448H6.17503C8.50425 144.448 10.6388 144.477 12.6781 144.489H12.887L12.9255 144.694C14.2472 151.704 18.4941 173.966 21.4071 185.898L21.4883 186.234L21.1436 186.21L21.1599 185.959L20.9146 186.017C17.9955 174.059 13.7485 151.801 12.4288 144.789L12.6781 144.742L12.6761 144.996C10.6327 144.984 8.5002 144.955 6.17503 144.955V144.702L6.42843 144.706C6.42843 144.708 6.39595 146.784 6.28243 148.896C6.22567 149.952 6.1486 151.018 6.04319 151.843C5.99048 152.257 5.93171 152.61 5.86076 152.879L5.73911 153.23L5.48978 153.494C5.08434 153.65 3.94912 153.798 2.8504 153.931C1.76181 154.061 0.756362 154.158 0.754335 154.158L0.729985 153.907L0.981402 153.877L4.23497 181.839L4.18429 181.914C4.18429 181.916 3.90055 182.35 3.49309 183.029C3.08563 183.709 2.55857 184.627 2.07407 185.586L1.84899 185.472L1.82879 185.219C1.83488 185.219 3.18496 185.109 6.17909 185.109C9.22187 185.109 13.9614 185.223 20.7159 185.673L21.1781 185.705L21.1599 185.959Z" fill="#3265B1"/>
<path d="M93.1245 227.012H93.1265C93.1204 227.012 93.1163 227.01 93.1102 227.01L93.1245 227.012ZM93.1914 226.509C79.9662 223.616 60.9411 219.355 50.8377 216.633C45.8326 215.283 41.5858 213.28 38.0058 210.9L2.71472 210.105L37.0733 210.88C40.8316 213.482 45.3421 215.676 50.706 217.121C59.5079 219.493 75.038 223.024 87.6369 225.808C89.5303 226.047 91.3852 226.282 93.1914 226.509ZM59.4775 222.637C48.4355 221.137 38.8957 219.744 34.2534 218.84C38.8977 219.746 48.4355 221.137 59.4775 222.637ZM35.7597 218.607C35.6745 218.591 35.5934 218.577 35.5123 218.562C35.5934 218.577 35.6765 218.591 35.7597 218.607ZM35.5022 218.56C35.488 218.556 35.4718 218.554 35.4576 218.552C35.4718 218.554 35.486 218.556 35.5022 218.56ZM35.0461 218.475C35.0441 218.475 35.04 218.475 35.038 218.475C35.042 218.475 35.042 218.475 35.0461 218.475ZM34.9569 218.459C34.9569 218.459 34.9569 218.459 34.9548 218.459H34.9569ZM34.4298 218.36C34.4278 218.36 34.4257 218.358 34.4237 218.358C34.4257 218.358 34.4278 218.358 34.4298 218.36Z" fill="#3265B1"/>
<path d="M93.1245 227.012H93.1265C93.1204 227.012 93.1163 227.01 93.1102 227.01L93.1245 227.012ZM93.1914 226.509C79.9662 223.616 60.9411 219.355 50.8377 216.633C45.8326 215.283 41.5858 213.28 38.0058 210.9L2.71472 210.105L37.0733 210.88C40.8316 213.482 45.3421 215.676 50.706 217.121C59.5079 219.493 75.038 223.024 87.6369 225.808C89.5303 226.047 91.3852 226.282 93.1914 226.509ZM59.4775 222.637C48.4355 221.137 38.8957 219.744 34.2534 218.84C38.8977 219.746 48.4355 221.137 59.4775 222.637ZM35.7597 218.607C35.6745 218.591 35.5934 218.577 35.5123 218.562C35.5934 218.577 35.6765 218.591 35.7597 218.607ZM35.5022 218.56C35.488 218.556 35.4718 218.554 35.4576 218.552C35.4718 218.554 35.486 218.556 35.5022 218.56ZM35.0461 218.475C35.0441 218.475 35.04 218.475 35.038 218.475C35.042 218.475 35.042 218.475 35.0461 218.475ZM34.9569 218.459C34.9569 218.459 34.9569 218.459 34.9548 218.459H34.9569ZM34.4298 218.36C34.4278 218.36 34.4257 218.358 34.4237 218.358C34.4257 218.358 34.4278 218.358 34.4298 218.36Z" fill="#3265B1"/>
<path d="M93.1247 227.012H95.4863L93.1977 226.511C93.1937 226.511 93.1917 226.509 93.1896 226.509C91.3834 226.282 89.5285 226.047 87.6351 225.808C83.5058 225.283 79.2102 224.733 74.9106 224.174C59.2507 222.136 43.5787 219.996 36.0234 218.654C36.0194 218.654 36.0153 218.652 36.0132 218.652C35.9281 218.637 35.8471 218.623 35.766 218.607C35.7619 218.607 35.7599 218.607 35.7579 218.607C35.6748 218.591 35.5916 218.577 35.5105 218.562C35.5065 218.56 35.5024 218.56 35.5004 218.56C35.4842 218.556 35.47 218.554 35.4558 218.552C35.4517 218.55 35.4477 218.55 35.4436 218.55C35.4355 218.548 35.4275 218.546 35.4194 218.546C35.4112 218.544 35.4011 218.542 35.3909 218.54C35.3909 218.54 35.3889 218.54 35.3869 218.54C35.3808 218.538 35.3747 218.538 35.3666 218.536C35.3544 218.534 35.3422 218.532 35.3301 218.528C35.2774 218.52 35.2267 218.51 35.174 218.5C35.1699 218.5 35.166 218.5 35.1619 218.498C35.1497 218.496 35.1375 218.494 35.1254 218.492C35.099 218.485 35.0707 218.481 35.0443 218.475C35.0403 218.475 35.0402 218.475 35.0362 218.475C35.0281 218.473 35.02 218.471 35.0099 218.469C35.0018 218.467 34.9916 218.467 34.9815 218.465C34.9733 218.463 34.9653 218.461 34.9551 218.459H34.953C34.8578 218.441 34.7604 218.423 34.6672 218.404C34.6652 218.404 34.6632 218.404 34.6611 218.404C34.6368 218.398 34.6104 218.394 34.5861 218.39C34.5841 218.39 34.5841 218.39 34.5841 218.39C34.5578 218.384 34.5334 218.38 34.5091 218.374C34.503 218.374 34.497 218.372 34.4909 218.372C34.4848 218.37 34.4787 218.37 34.4747 218.368C34.4706 218.368 34.4665 218.366 34.4625 218.366C34.4503 218.364 34.4402 218.362 34.428 218.36C34.426 218.358 34.4239 218.358 34.4219 218.358C34.4097 218.356 34.3997 218.354 34.3895 218.352C34.3875 218.352 34.3854 218.352 34.3834 218.352C34.3712 218.348 34.3612 218.346 34.347 218.344C26.9417 216.9 19.8486 215.516 14.1117 214.093C8.95661 212.817 4.88606 211.492 2.71293 210.105L38.004 210.9C37.7648 210.742 37.5296 210.582 37.2965 210.419L37.2336 210.375L1.90008 209.578L1.15207 209.562L1.73587 210.03C3.82386 211.696 8.22888 213.152 13.9881 214.585C19.7452 216.012 26.8444 217.397 34.2517 218.84C38.8939 219.744 48.4338 221.137 59.4758 222.637C59.4839 222.639 59.4939 222.639 59.5041 222.641C59.5223 222.643 59.5426 222.647 59.5609 222.649C70.3698 224.117 82.6078 225.688 93.1065 227.01H93.1085C93.1145 227.01 93.1186 227.012 93.1247 227.012Z" fill="#3265B1"/>
<path d="M31.3711 205.531L30.7264 205.361V205.363L31.3711 205.531ZM30.7264 205.363V205.361L28.7662 204.842L30.7264 205.363ZM30.9272 204.891C26.9863 200.642 24.43 195.987 23.0353 191.86C22.9239 191.528 22.8042 191.142 22.6765 190.719L22.1353 190.67C22.2833 191.173 22.4231 191.631 22.5549 192.022C23.909 196.03 26.3335 200.508 30.025 204.651L28.8311 204.337L30.9272 204.891Z" fill="#3265B1"/>
<path d="M31.3711 205.531L30.7264 205.361V205.363L31.3711 205.531ZM30.7264 205.363V205.361L28.7662 204.842L30.7264 205.363ZM30.9272 204.891C26.9863 200.642 24.43 195.987 23.0353 191.86C22.9239 191.528 22.8042 191.142 22.6765 190.719L22.1353 190.67C22.2833 191.173 22.4231 191.631 22.5549 192.022C23.909 196.03 26.3335 200.508 30.025 204.651L28.8311 204.337L30.9272 204.891Z" fill="#3265B1"/>
<path d="M31.582 205.586L30.9861 204.945C30.9678 204.927 30.9516 204.909 30.9354 204.891L28.8393 204.337H4.43617C4.26792 203.587 3.64764 200.82 2.95638 197.889C2.15362 194.489 1.26975 190.903 0.854178 189.881C2.41307 189.658 4.29227 189.575 6.23429 189.575C9.20207 189.575 12.3199 189.772 14.6917 189.969C17.0655 190.167 18.6892 190.364 18.6933 190.364H18.6973L22.1435 190.67L22.6848 190.719C22.6503 190.601 22.6158 190.482 22.5793 190.36L22.5307 190.196L18.7541 189.861C18.7501 189.861 12.2144 189.069 6.23429 189.069C4.16253 189.069 2.15563 189.162 0.503482 189.421L0.235931 189.464L0.294727 189.727L0.36164 190.019L0.371736 190.042C0.740681 190.893 1.65693 194.578 2.46374 198.004C3.27258 201.438 3.98417 204.637 3.9862 204.645L4.02876 204.842H28.7744L30.7346 205.361L31.3793 205.531L31.582 205.586Z" fill="#3265B1"/>
<path d="M653.161 212.081H652.654C652.654 177.553 680.648 149.557 715.178 149.555C749.711 149.557 777.707 177.553 777.707 212.081C777.707 246.616 749.711 274.609 715.178 274.609C680.648 274.609 652.654 246.616 652.654 212.081H653.161H653.668C653.668 229.071 660.552 244.447 671.683 255.58C682.817 266.712 698.191 273.596 715.178 273.596C732.166 273.596 747.542 266.712 758.676 255.58C769.809 244.447 776.693 229.071 776.693 212.081C776.693 195.096 769.809 179.72 758.676 168.586C747.542 157.455 732.166 150.571 715.178 150.569C698.191 150.571 682.817 157.455 671.683 168.586C660.552 179.72 653.668 195.096 653.668 212.081H653.161Z" fill="#3265B1"/>
<path d="M669.473 197.236L668.99 197.078C675.659 176.557 694.697 163.508 715.169 163.51C720.142 163.51 725.201 164.28 730.186 165.9C750.707 172.567 763.752 191.603 763.752 212.073C763.752 217.048 762.981 222.105 761.362 227.09C754.695 247.613 735.66 260.66 715.187 260.66C710.213 260.66 705.155 259.89 700.17 258.27C679.649 251.601 666.602 232.566 666.602 212.093C666.602 207.121 667.372 202.063 668.99 197.078L669.473 197.236L669.955 197.392C668.37 202.274 667.616 207.224 667.616 212.093C667.616 232.136 680.389 250.778 700.482 257.305C705.366 258.893 710.318 259.647 715.187 259.647C735.23 259.647 753.871 246.871 760.398 226.778C761.984 221.895 762.738 216.942 762.738 212.073C762.738 192.032 749.966 173.391 729.872 166.863C724.989 165.278 720.038 164.524 715.169 164.524C695.124 164.524 676.482 177.297 669.955 197.392L669.473 197.236Z" fill="#3265B1"/>
<path d="M129.82 212.081H129.313C129.313 177.553 157.306 149.557 191.835 149.555C226.368 149.557 254.363 177.553 254.363 212.081C254.363 246.616 226.368 274.609 191.835 274.609C157.306 274.609 129.313 246.616 129.313 212.081H129.82H130.327C130.327 229.071 137.211 244.447 148.342 255.58C159.476 266.712 174.85 273.596 191.835 273.596C208.823 273.596 224.199 266.712 235.332 255.58C246.465 244.447 253.35 229.071 253.35 212.081C253.35 195.096 246.465 179.72 235.332 168.586C224.199 157.455 208.823 150.571 191.835 150.569C174.85 150.571 159.476 157.455 148.342 168.586C137.211 179.72 130.327 195.096 130.327 212.081H129.82Z" fill="#3265B1"/>
<path d="M146.144 197.236L145.662 197.078C152.331 176.557 171.364 163.508 191.837 163.51C196.811 163.51 201.869 164.28 206.854 165.9C227.375 172.57 240.422 191.605 240.422 212.075C240.422 217.05 239.652 222.107 238.032 227.09C231.364 247.613 212.327 260.66 191.857 260.66C186.882 260.66 181.825 259.89 176.84 258.27C156.317 251.603 143.272 232.566 143.272 212.095C143.272 207.123 144.042 202.063 145.662 197.078L146.144 197.236L146.625 197.392C145.04 202.274 144.285 207.226 144.285 212.095C144.285 232.138 157.059 250.778 177.152 257.305C182.035 258.893 186.988 259.647 191.857 259.647C211.9 259.647 230.541 246.871 237.069 226.778C238.654 221.895 239.408 216.944 239.408 212.075C239.408 192.032 226.635 173.393 206.54 166.863C201.658 165.278 196.706 164.524 191.837 164.524C171.794 164.524 153.154 177.297 146.625 197.392L146.144 197.236Z" fill="#3265B1"/>
<path d="M433.716 115.573L433.729 115.067C439.368 115.212 452.537 115.559 459.212 115.839C466.425 116.139 473.273 116.944 475.363 117.205L475.3 117.708H474.793V117.706H475.807V117.787V117.826L475.801 117.864C475.772 118.042 475.764 118.229 475.764 118.424C475.764 118.616 475.772 118.817 475.772 119.024C475.77 119.334 475.756 119.668 475.628 120.013C475.438 120.54 474.955 120.982 474.209 121.231C473.457 121.491 472.401 121.635 470.81 121.673C465.231 121.801 445.334 121.801 442.433 121.801C440.968 121.799 438.874 121.744 437.033 121.45C436.111 121.304 435.255 121.099 434.552 120.793C433.858 120.487 433.264 120.074 433.029 119.397C432.837 118.819 432.731 118.184 432.731 117.548C432.731 116.771 432.887 115.989 433.279 115.318L433.431 115.06L433.729 115.067L433.716 115.573L434.154 115.831C433.879 116.297 433.743 116.909 433.745 117.548C433.743 118.069 433.834 118.604 433.99 119.074C434.061 119.311 434.373 119.614 434.957 119.865C436.696 120.639 440.289 120.795 442.433 120.787C445.328 120.787 465.239 120.787 470.785 120.66C472.835 120.619 473.891 120.353 474.323 120.068C474.542 119.924 474.619 119.808 474.68 119.656C474.736 119.504 474.759 119.293 474.759 119.024C474.759 118.845 474.75 118.644 474.75 118.424C474.75 118.203 474.759 117.961 474.799 117.708L475.3 117.787H474.793V117.706H475.807V117.708V118.282L475.237 118.211C473.163 117.951 466.336 117.15 459.17 116.85C452.51 116.573 439.34 116.224 433.704 116.08L433.716 115.573Z" fill="#3265B1"/>
<path d="M243.242 109.202L243.254 108.695C248.894 108.839 262.064 109.188 268.738 109.466C275.95 109.768 282.8 110.573 284.888 110.832L284.825 111.335H284.318V111.333H285.332V111.416V111.454L285.326 111.493C285.298 111.669 285.289 111.854 285.289 112.046C285.289 112.243 285.298 112.446 285.298 112.657C285.298 112.967 285.281 113.301 285.154 113.646C284.963 114.173 284.481 114.613 283.735 114.86C282.983 115.12 281.924 115.263 280.337 115.302C274.756 115.43 254.86 115.43 251.961 115.43C250.497 115.428 248.401 115.373 246.56 115.079C245.64 114.931 244.781 114.728 244.077 114.422C243.384 114.114 242.792 113.703 242.555 113.023C242.364 112.448 242.257 111.813 242.257 111.177C242.259 110.4 242.415 109.616 242.804 108.947L242.956 108.687L243.254 108.695L243.242 109.202L243.68 109.458C243.406 109.924 243.27 110.538 243.27 111.177C243.27 111.698 243.359 112.233 243.518 112.703H243.516C243.587 112.94 243.899 113.242 244.483 113.492C246.226 114.266 249.818 114.424 251.961 114.416C254.854 114.416 274.764 114.416 280.313 114.288C282.36 114.248 283.416 113.982 283.848 113.696C284.067 113.555 284.144 113.439 284.205 113.287C284.264 113.137 284.286 112.926 284.284 112.657C284.284 112.476 284.276 112.271 284.276 112.046C284.276 111.827 284.284 111.588 284.325 111.337L284.825 111.416H284.318V111.333H285.332V111.335V111.911L284.762 111.84C282.691 111.58 275.861 110.777 268.695 110.479C262.038 110.202 248.865 109.853 243.23 109.709L243.242 109.202Z" fill="#3265B1"/>
<path d="M641.017 211.608H640.764C640.808 170.405 674.342 136.9 715.556 136.898C756.795 136.9 790.344 170.45 790.345 211.597H790.091L790.345 211.591L790.898 233.726L790.655 233.742C788.855 233.858 787.558 233.941 786.923 233.981L786.66 233.998L786.102 211.693V211.691C786.102 192.208 778.206 174.573 765.44 161.806C752.673 149.039 735.037 141.143 715.556 141.143C696.073 141.143 678.437 149.039 665.669 161.806C652.902 174.573 645.004 192.208 645.004 211.691V211.697L643.699 241.922H639.45L640.764 211.597L641.017 211.608L641.27 211.62L639.981 241.415H643.214L644.5 211.681L644.751 211.691H644.498C644.498 172.447 676.312 140.636 715.556 140.636C754.797 140.636 786.609 172.447 786.609 211.691H786.355L786.609 211.685L787.161 233.722L786.907 233.728L786.891 233.477C787.527 233.436 788.823 233.353 790.622 233.235L790.639 233.489L790.385 233.495L789.838 211.601V211.597C789.838 191.164 781.508 172.617 768.057 159.177C754.605 145.737 736.037 137.405 715.556 137.405C674.623 137.405 641.315 170.687 641.27 211.61V211.614V211.62L641.017 211.608Z" fill="#3265B1"/>
<path d="M261.324 241.918H265.566V211.689C265.566 170.448 232.017 136.898 190.776 136.896C155.651 136.898 126.123 161.239 118.132 193.937L118.061 194.225L118.357 194.249C119.874 194.379 121.139 194.486 122.106 194.567L122.321 194.586L122.373 194.377C130.095 163.787 157.79 141.139 190.776 141.141C210.259 141.141 227.893 149.037 240.661 161.804C253.428 174.571 261.324 192.206 261.324 211.689V241.918ZM190.776 137.403C211.257 137.403 229.825 145.735 243.278 159.185C256.728 172.637 265.06 191.208 265.06 211.689V241.411H261.83V211.689C261.83 172.445 230.018 140.635 190.776 140.635C157.628 140.635 129.785 163.339 121.935 194.044C121.064 193.971 119.975 193.878 118.696 193.771C126.734 161.437 155.992 137.403 190.776 137.403Z" fill="#3265B1"/>
<path d="M261.324 241.918H265.566V211.689C265.566 170.448 232.017 136.898 190.776 136.896C155.651 136.898 126.123 161.239 118.132 193.937L118.061 194.225L118.357 194.249C119.874 194.379 121.139 194.486 122.106 194.567L122.321 194.586L122.373 194.377C130.095 163.787 157.79 141.139 190.776 141.141C210.259 141.141 227.893 149.037 240.661 161.804C253.428 174.571 261.324 192.206 261.324 211.689V241.918ZM190.776 137.403C211.257 137.403 229.825 145.735 243.278 159.185C256.728 172.637 265.06 191.208 265.06 211.689V241.411H261.83V211.689C261.83 172.445 230.018 140.635 190.776 140.635C157.628 140.635 129.785 163.339 121.935 194.044C121.064 193.971 119.975 193.878 118.696 193.771C126.734 161.437 155.992 137.403 190.776 137.403Z" fill="#3265B1"/>
<path d="M118.877 230.168L120.225 211.696V211.688C120.225 207.435 120.622 203.276 121.344 199.227L121.393 198.956L117.661 198.625L117.612 198.897C116.896 203.012 116.499 207.235 116.491 211.55C116.497 207.316 116.882 203.17 117.573 199.126L120.797 199.412C120.101 203.397 119.72 207.49 119.718 211.674L118.409 229.623L118.334 229.617C118.244 229.604 117.123 229.469 115.2 229.233L115.163 229.74L114.9 229.708C117.052 229.971 118.279 230.119 118.279 230.119L118.283 230.121H118.289L118.877 230.168Z" fill="#3265B1"/>
<path d="M118.877 230.168L120.225 211.696V211.688C120.225 207.435 120.622 203.276 121.344 199.227L121.393 198.956L117.661 198.625L117.612 198.897C116.896 203.012 116.499 207.235 116.491 211.55C116.497 207.316 116.882 203.17 117.573 199.126L120.797 199.412C120.101 203.397 119.72 207.49 119.718 211.674L118.409 229.623L118.334 229.617C118.244 229.604 117.123 229.469 115.2 229.233L115.163 229.74L114.9 229.708C117.052 229.971 118.279 230.119 118.279 230.119L118.283 230.121H118.289L118.877 230.168Z" fill="#3265B1"/>
<path d="M115.163 229.738L115.199 229.231L116.49 211.559V211.548C116.499 207.233 116.896 203.01 117.611 198.895L117.66 198.623L117.384 198.599L117.366 198.597L117.153 198.579L117.113 198.808C116.393 202.947 115.992 207.196 115.984 211.54L114.66 229.675L114.899 229.706L115.163 229.738Z" fill="#3265B1"/>
<path d="M557.572 94.3856L557.221 94.7505C557.154 94.6917 554.04 91.6347 554.044 84.9288C554.044 84.57 554.052 84.2031 554.071 83.824C554.255 80.1549 554.632 76.0275 556.755 72.6807C558.877 69.3237 562.775 66.8708 569.641 66.5769H569.745C570.108 66.5769 570.529 66.6458 571.006 66.7532L573.311 67.2681L570.998 67.7425C570.308 67.8844 567.685 68.4865 565.165 69.8487C562.635 71.2171 560.274 73.303 559.87 76.3722C559.536 78.8777 559.364 81.5637 559.364 84.1484C559.362 88.0446 559.761 91.7219 560.56 94.1646L560.768 94.8133L557.373 94.8984L557.221 94.7505L557.572 94.3856L557.559 93.8788L560.065 93.816L560.077 94.3228L559.595 94.4788C558.743 91.8557 558.352 88.1175 558.35 84.1484C558.35 81.5191 558.524 78.7926 558.865 76.2383C559.345 72.6867 562.029 70.39 564.683 68.9568C567.349 67.5195 570.047 66.9033 570.795 66.7512L570.896 67.2479L570.785 67.7405C570.349 67.6431 569.972 67.5884 569.745 67.5904H569.686C563.023 67.8986 559.558 70.1751 557.61 73.224C555.66 76.283 555.259 80.2359 555.084 83.8727C555.066 84.2355 555.058 84.5862 555.058 84.9288C555.058 88.1216 555.792 90.4042 556.517 91.8881C556.878 92.6301 557.239 93.1713 557.505 93.524L557.821 93.9112L557.904 94.0004L557.924 94.0207L557.572 94.3856Z" fill="#3265B1"/>
<path d="M560.086 94.3237L559.603 94.4798C558.878 92.2459 558.489 89.2071 558.387 85.8988L558.371 85.3798L588.158 85.2967L588.142 86.4907L588.14 86.5454L588.128 86.5961C588.124 86.6143 587.761 88.2239 586.95 90.166C586.135 92.108 584.892 94.3926 583.023 95.7548C581.266 97.0279 578.799 98.5909 576.441 99.8619C574.067 101.129 571.87 102.112 570.416 102.197L570.305 102.199C569.097 102.183 568.047 101.336 567.26 100.239C566.478 99.1301 565.949 97.7151 565.944 96.3407C565.944 95.4447 566.182 94.5507 566.766 93.829L567.159 94.1473L567.171 94.6541L559.721 94.8386L559.603 94.4798L560.086 94.3237L560.074 93.8169L568.243 93.6142L567.552 94.4656C567.145 94.9704 566.96 95.615 566.958 96.3407C566.954 97.4455 567.414 98.7064 568.087 99.6531C568.758 100.612 569.636 101.202 570.305 101.186L570.368 101.184C571.43 101.149 573.662 100.217 575.961 98.97C578.272 97.7232 580.716 96.1745 582.429 94.9339C584.033 93.7824 585.243 91.6356 586.015 89.7767C586.403 88.8462 586.684 87.9908 586.871 87.3705C587.055 86.7502 587.139 86.3731 587.141 86.3711L587.635 86.4846L587.128 86.4765L587.13 86.3143L558.896 86.3914L558.894 85.8846L559.401 85.8683C559.498 89.1138 559.887 92.0877 560.568 94.1656L560.086 94.3237Z" fill="#3265B1"/>
<path d="M887.284 140.52L887.774 140.39C887.874 140.773 888.625 142.9 889.6 145.875C890.579 148.863 891.795 152.752 892.866 156.79C895.013 164.911 895.425 173.631 895.427 173.65L895.471 174.578L894.667 174.112C894.621 174.079 892.096 172.638 891.522 169.553C891.017 166.776 887.613 153.153 886.394 148.894C885.78 146.707 884.455 144.112 884.44 141.837C884.433 140.799 884.752 139.778 885.599 139.022C886.442 138.265 887.726 137.787 889.598 137.588L891.912 137.345L889.91 138.529C889.91 138.529 889.772 138.61 889.557 138.75C889.235 138.961 888.748 139.301 888.363 139.65C888.171 139.824 888.005 140.001 887.902 140.147L887.775 140.4H887.732L887.774 140.39L887.775 140.4H887.732L887.774 140.39L887.284 140.52L886.794 140.651L886.762 140.4C886.775 139.948 887.006 139.632 887.258 139.33C888.027 138.45 889.373 137.673 889.394 137.655L889.651 138.093L889.705 138.596C887.949 138.78 886.88 139.226 886.278 139.774C885.679 140.321 885.46 140.98 885.454 141.837C885.438 143.721 886.699 146.313 887.369 148.614C888.602 152.934 891.992 166.49 892.519 169.37V169.372C892.752 170.662 893.416 171.631 894.031 172.281C894.338 172.606 894.631 172.849 894.844 173.009L895.095 173.185L895.175 173.236L894.92 173.674L894.414 173.698C894.414 173.696 894.389 173.163 894.317 172.227C894.103 169.421 893.47 163.037 891.886 157.049C890.823 153.037 889.612 149.17 888.637 146.192C887.659 143.204 886.93 141.156 886.794 140.651L887.284 140.52Z" fill="#3265B1"/>
<path d="M889.213 214.287L888.706 214.293V214.247C888.708 213.529 888.886 212.071 889.15 210.213C889.941 204.66 891.519 195.767 891.519 195.763L892.525 195.854L892.469 217.602L891.909 217.541C891.871 217.535 891.139 217.458 890.354 217.024C889.573 216.606 888.716 215.724 888.706 214.293L889.213 214.287L889.72 214.279C889.744 215.303 890.261 215.795 890.847 216.138C891.139 216.302 891.44 216.404 891.665 216.46L891.934 216.519L892.019 216.533L891.964 217.036L891.457 217.034L891.512 195.85L892.019 195.852L892.517 195.941C892.516 195.949 891.817 199.892 891.116 204.163C890.765 206.3 890.415 208.516 890.153 210.356C889.89 212.189 889.717 213.675 889.72 214.247V214.281L889.213 214.287Z" fill="#3265B1"/>
<path d="M876.96 196.252V196.759C876.955 196.759 875.138 196.759 872.325 196.759C863.889 196.759 846.547 196.759 842.793 196.759C840.376 196.761 838.67 197.383 837.531 198.318C836.393 199.252 835.791 200.511 835.637 201.892L835.625 202.115C835.603 203.374 836.778 205.516 839.233 207.608C841.68 209.71 845.365 211.805 850.247 213.185C855.636 214.714 861.744 215.074 866.242 215.072C868.192 215.072 869.84 215.005 870.999 214.939C872.158 214.872 872.82 214.805 872.822 214.805L872.872 215.31L872.4 215.125C872.4 215.123 872.651 214.482 873.032 213.372C874.175 210.047 876.457 202.563 876.453 196.252H876.96H877.467C877.46 204.967 873.351 215.464 873.344 215.494L873.232 215.784L872.922 215.814C872.911 215.814 870.187 216.086 866.242 216.086C861.689 216.086 855.51 215.727 849.97 214.16C844.958 212.743 841.148 210.588 838.573 208.377C836.007 206.157 834.633 203.919 834.611 202.115L834.629 201.78C834.804 200.177 835.531 198.644 836.889 197.533C838.246 196.42 840.205 195.745 842.793 195.745C845.296 195.745 853.838 195.745 861.753 195.745C865.712 195.745 869.513 195.745 872.325 195.745C875.138 195.745 876.955 195.745 876.96 195.745H877.467V196.252H876.96Z" fill="#3265B1"/>
<path d="M864.208 139.761L864.582 139.418C864.615 139.463 873.075 148.664 873.371 162.24L873.383 162.785L872.836 162.755C872.826 162.755 849.131 161.441 839.478 159.927C834.611 159.163 827.124 156.874 820.316 154.387C816.913 153.142 813.685 151.849 811.046 150.667C808.403 149.483 806.367 148.429 805.279 147.598C803.261 146.045 801.863 143.766 800.952 141.739C800.497 140.725 800.165 139.773 799.945 138.996C799.725 138.212 799.614 137.64 799.61 137.261L799.65 136.967C799.724 136.775 799.799 136.716 799.88 136.627C800.178 136.335 800.721 135.966 801.495 135.506C803.807 134.153 807.963 132.209 811.267 132.195L811.434 132.197C815.95 132.299 852.841 136.333 864.334 139.27L864.48 139.306L864.582 139.418L864.208 139.761L864.083 140.251C852.804 137.356 815.741 133.298 811.412 133.211H811.412L811.267 133.209C809.198 133.203 806.493 134.141 804.325 135.165C803.24 135.674 802.283 136.201 801.596 136.631C801.253 136.843 800.976 137.034 800.793 137.176L800.596 137.344L800.571 137.371L800.34 137.196L800.612 137.287L800.571 137.371L800.34 137.196L800.612 137.287L800.387 137.212L800.624 137.237L800.612 137.287L800.387 137.212L800.624 137.237L800.623 137.261C800.619 137.427 800.712 137.999 800.919 138.721C801.534 140.912 803.168 144.711 805.897 146.793C806.832 147.514 808.854 148.579 811.46 149.742C819.286 153.247 832.53 157.817 839.634 158.925C844.397 159.673 852.725 160.381 859.846 160.898C863.407 161.155 866.669 161.368 869.041 161.514C871.413 161.662 872.889 161.743 872.893 161.743L872.865 162.25L872.358 162.26C872.22 155.684 870.087 150.138 867.985 146.235C866.934 144.285 865.892 142.747 865.114 141.699C864.725 141.173 864.403 140.772 864.179 140.502C863.956 140.235 863.835 140.103 863.835 140.103L864.208 139.761Z" fill="#3265B1"/>
<path d="M3.97526 181.776L3.47055 181.835L0.168278 153.451L0.683187 153.402C0.685214 153.402 1.68258 153.305 2.76104 153.177C3.30026 153.112 3.85975 153.039 4.31586 152.968C4.76589 152.901 5.15311 152.816 5.20987 152.788L5.33954 153.114L5.06595 152.887L5.20987 152.788L5.33954 153.114L5.06595 152.887L5.18552 152.986L5.05378 152.903L5.06595 152.887L5.18552 152.986L5.05378 152.903C5.05986 152.905 5.13484 152.711 5.18146 152.443C5.37405 151.48 5.50175 149.516 5.57472 147.825C5.6477 146.131 5.67004 144.697 5.67004 144.693L5.67202 144.47L13.953 137.095L13.6956 132.585L19.546 126.345L20.4338 95.3844L15.9903 94.9911L16.0431 94.4803C16.0431 94.4783 16.0856 94.0749 16.1261 93.3593C16.1687 92.6457 16.2113 91.626 16.2113 90.4158C16.2174 86.5216 15.7551 80.6347 13.5111 76.629L13.1503 75.9824L13.8841 75.881C13.8963 75.879 51.3766 70.6914 93.2842 69.913L93.2924 70.4198L93.0836 69.9576C93.0937 69.9535 152.19 43.1239 176.615 34.9362C200.982 26.7728 233.406 15.2261 263.277 9.3797C287.161 4.70707 317.068 -1.7013e-05 367.939 -1.7013e-05C380.619 -1.7013e-05 394.601 0.291882 410.119 0.948685C487.911 4.24284 522.274 17.8857 538.988 24.7071C547.38 28.131 577.999 43.1665 606.56 57.3648C635.112 71.5591 661.577 84.9019 661.577 84.9019L661.35 85.354L661.425 84.8532L673.209 86.5986L687.746 84.3951L687.857 84.4316C687.859 84.4316 688.364 84.5918 689.343 84.8492C692.282 85.6256 699.418 87.2676 709.262 87.9224C722.497 88.8083 781.118 96.9311 825.317 108.362C869.551 119.806 889.942 137.675 889.989 137.718L890.515 138.178L889.913 138.535C889.913 138.535 889.775 138.616 889.56 138.756C889.238 138.967 888.751 139.307 888.366 139.656C888.174 139.83 888.008 140.006 887.905 140.152L887.778 140.406H887.735L887.777 140.396L887.778 140.406H887.735L887.777 140.396C887.878 140.779 888.628 142.905 889.603 145.881C890.582 148.869 891.798 152.757 892.869 156.795C895.016 164.916 895.428 173.637 895.43 173.655L894.923 173.68L895.155 173.23L897.395 174.383L896.657 196.078L892.529 196.196L892.476 217.039L891.969 217.037L892.213 216.593C892.221 216.597 894.111 217.637 896.016 218.936C896.97 219.587 897.927 220.301 898.666 220.998C899.036 221.349 899.352 221.695 899.589 222.044C899.823 222.393 899.995 222.749 900 223.161L899.989 223.327C899.941 223.71 899.714 224.065 899.389 224.318C898.816 224.766 897.95 225.058 896.593 225.35C892.534 226.21 883.974 226.897 867.124 228.432C842.813 230.641 792.276 233.893 786.944 234.235L786.419 234.27L785.853 211.697V211.691C785.853 192.277 777.987 174.708 765.265 161.985C752.542 149.263 734.973 141.397 715.56 141.397C696.146 141.397 678.577 149.263 665.852 161.985C653.13 174.708 645.264 192.277 645.262 211.691V211.701L643.947 242.176H261.071V211.691C261.071 192.277 253.204 174.708 240.483 161.985C227.761 149.263 210.189 141.397 190.777 141.397C171.363 141.397 153.793 149.263 141.071 161.985C128.348 174.708 120.481 192.277 120.481 211.691V211.709L119.112 230.445L118.271 230.376H118.261L118.251 230.374C118.241 230.372 49.5603 222.08 34.2106 219.09C26.5621 217.6 19.2318 216.173 13.3611 214.693C10.4237 213.954 7.85331 213.199 5.77952 212.413C3.70572 211.622 2.13061 210.813 1.15959 209.883L0.877787 209.613L3.78878 204.349L4.23271 204.594L3.7381 204.704C3.73607 204.695 3.02458 201.497 2.21574 198.067C1.81233 196.35 1.38258 194.578 1.00755 193.126C0.636582 191.681 0.302091 190.524 0.13789 190.144C0.0345047 189.903 7.15064e-06 189.648 7.15064e-06 189.384C0.00406149 188.687 0.243287 187.892 0.57777 187.039C1.58527 184.503 3.54355 181.515 3.54963 181.499L3.97526 181.776L4.399 182.054C4.399 182.054 4.1881 182.378 3.86578 182.905C3.38332 183.698 2.65766 184.941 2.05964 186.187C1.4596 187.424 1.00143 188.699 1.01359 189.384L1.06833 189.745C1.29335 190.274 1.60756 191.401 1.98867 192.873C3.12389 197.264 4.7253 204.481 4.72733 204.483L4.76791 204.671L1.95423 209.763L1.51029 209.518L1.86098 209.153C2.63942 209.907 4.12733 210.704 6.14031 211.466C12.1914 213.765 22.9354 215.863 34.4031 218.095C42.0151 219.579 63.0267 222.403 82.1105 224.848C91.6544 226.07 100.72 227.201 107.399 228.026C114.079 228.849 118.362 229.366 118.373 229.368L118.312 229.871L118.352 229.366L118.685 229.392L118.644 229.897L118.139 229.861L119.469 211.655L119.974 211.691H119.467C119.467 172.307 151.393 140.384 190.777 140.384C230.159 140.384 262.085 172.307 262.085 211.691V241.162H642.976L644.251 211.669L644.755 211.691H644.249C644.251 172.307 676.177 140.384 715.56 140.384C754.942 140.384 786.867 172.307 786.867 211.691H786.36L786.867 211.679L787.418 233.716L786.912 233.729L786.879 233.224C792.206 232.883 842.749 229.63 867.033 227.422C879.867 226.254 887.908 225.573 892.746 224.945C895.163 224.631 896.783 224.327 897.764 224C898.254 223.838 898.579 223.67 898.756 223.526L898.984 223.191L898.986 223.161C898.991 223.076 898.928 222.871 898.75 222.614C898.137 221.689 896.35 220.345 894.752 219.311C893.951 218.788 893.192 218.33 892.635 218.002C892.077 217.675 891.725 217.481 891.724 217.481L891.461 217.337L891.518 195.21L895.676 195.091L896.36 174.989L894.691 174.13L894.431 173.996L894.417 173.704C894.417 173.702 894.392 173.169 894.32 172.232C894.106 169.427 893.474 163.043 891.889 157.055C890.826 153.043 889.615 149.175 888.64 146.197C887.662 143.209 886.933 141.162 886.797 140.657L886.765 140.406C886.778 139.954 887.009 139.637 887.261 139.335C888.03 138.456 889.376 137.679 889.397 137.661L889.654 138.099L889.32 138.48C889.319 138.478 889.015 138.21 888.38 137.708C883.934 134.176 863.614 119.317 825.063 109.343C780.971 97.9346 722.309 89.8056 709.193 88.9339C695.962 88.0521 687.581 85.4067 687.553 85.3965L687.705 84.914L687.78 85.4147L673.211 87.6244L661.194 85.8445L661.121 85.8081C661.117 85.804 659.469 84.9728 656.541 83.5011C646.296 78.346 620.456 65.3681 595.351 52.9354C570.253 40.5028 545.864 28.6054 538.605 25.6437C521.935 18.8486 487.78 5.26047 410.076 1.96227C394.572 1.30547 380.603 1.01357 367.939 1.01357C317.126 1.01357 287.321 5.70848 263.471 10.375C233.708 16.1991 201.314 27.7296 176.937 35.8971C164.789 39.9676 143.917 48.7169 126.098 56.4445C117.189 60.3083 109.037 63.9186 103.116 66.56C100.156 67.8818 97.7521 68.9622 96.0878 69.7123C94.4256 70.4623 93.5052 70.8799 93.5032 70.8799L93.408 70.9225L93.3026 70.9266C72.3842 71.3138 52.5604 72.8038 37.9689 74.1964C30.6731 74.8938 24.6869 75.5648 20.5231 76.0634C16.3593 76.5621 14.0301 76.8844 14.024 76.8844L13.953 76.3817L14.397 76.1344C16.7931 80.4503 17.2188 86.4405 17.2249 90.4158C17.2249 92.8829 17.0526 94.5695 17.0526 94.5816L16.5478 94.531L16.5924 94.0262L21.4738 94.46L20.5494 126.759L14.7314 132.962L14.9929 137.527L6.51328 145.08L6.17684 144.701L6.68363 144.709C6.68363 144.714 6.6512 146.791 6.53565 148.91C6.47889 149.97 6.40182 151.038 6.29641 151.876C6.2437 152.295 6.18285 152.654 6.10784 152.944L5.97006 153.341C5.90316 153.459 5.84029 153.611 5.5869 153.728C5.31931 153.83 4.96046 153.891 4.47393 153.97C3.04275 154.193 0.786569 154.409 0.780487 154.409L0.731788 153.907L1.23452 153.848L4.49828 181.9L4.399 182.054L3.97526 181.776Z" fill="#3265B1"/>
<path d="M251.968 39.8865L251.749 39.4284C298.161 17.2066 330.352 15.6578 364.163 13.6833C371.862 13.2353 380.922 12.9434 390.855 12.9434C424.626 12.9454 468.5 16.2963 503.383 28.206C548.532 43.6307 616.824 91.8996 616.846 91.9098L617.043 92.0496L617.748 102.348L572.524 100.677L574.35 99.7894C577.071 98.4697 580.306 96.4648 582.429 94.9303C584.032 93.7788 585.242 91.632 586.015 89.7731C586.402 88.8426 586.684 87.9872 586.87 87.3669C587.055 86.7466 587.138 86.3695 587.14 86.3675L587.634 86.481L587.128 86.4729L587.245 79.0494L587.752 79.0575L587.292 79.2704C585.846 76.1283 582.157 73.1524 578.459 71.0198C576.613 69.9515 574.766 69.0859 573.209 68.4919C571.662 67.8959 570.369 67.5797 569.769 67.5858L569.696 67.5878C563.031 67.8959 559.566 70.1724 557.618 73.2213C555.668 76.2803 555.267 80.2333 555.092 83.87C555.074 84.2329 555.066 84.5836 555.066 84.9262C555.066 88.119 555.8 90.4016 556.525 91.8855C556.886 92.6274 557.247 93.1686 557.513 93.5214L557.829 93.9086L557.912 93.9978L557.932 94.018L557.58 94.3829L557.567 93.8761L568.243 93.6106L567.551 94.462C567.144 94.9668 566.959 95.6094 566.957 96.3351C566.953 97.4581 567.43 98.7434 568.121 99.6941L568.729 100.537L213.046 87.3831L212.9 87.1824C211.426 85.1329 210.151 82.1956 210.151 78.5325C210.149 73.8578 212.231 68.05 218.458 61.4495C224.688 54.843 235.065 47.4154 251.749 39.4284L251.968 39.8865L252.187 40.3447C235.576 48.2932 225.298 55.6701 219.196 62.1428C213.093 68.6217 211.167 74.168 211.165 78.5325C211.165 81.9564 212.353 84.6829 213.723 86.5905L213.311 86.8864L213.332 86.3796L567.73 99.4853L567.711 99.9921L567.3 100.288C566.495 99.1711 565.948 97.7318 565.944 96.3351C565.944 95.4391 566.181 94.5451 566.765 93.8254L567.158 94.1437L567.17 94.6505L557.381 94.8958L557.229 94.7478C557.162 94.689 554.048 91.632 554.052 84.9262C554.052 84.5674 554.06 84.2005 554.079 83.8214C554.263 80.1522 554.64 76.0249 556.763 72.678C558.885 69.321 562.783 66.8681 569.649 66.5742L569.769 66.5722C570.643 66.5803 571.952 66.931 573.572 67.5452C575.988 68.4676 579.029 69.9981 581.78 71.9401C584.527 73.8821 586.992 76.2235 588.212 78.8426L588.261 78.9481L588.139 86.5418L588.127 86.5925C588.123 86.6107 587.76 88.2203 586.949 90.1624C586.134 92.1044 584.892 94.389 583.023 95.7512C580.845 97.3263 577.588 99.3434 574.794 100.702L574.571 100.246L574.592 99.7387L616.659 101.294L616.047 92.3598L616.552 92.3253L616.26 92.7389C616.258 92.7369 615.196 91.9868 613.242 90.6367C599.572 81.1982 542.333 42.5705 503.055 29.1648C468.36 17.316 424.557 13.9549 390.855 13.957C380.942 13.957 371.901 14.2469 364.224 14.6969C330.395 16.6754 298.453 18.2019 252.187 40.3447L251.968 39.8865Z" fill="#3265B1"/>
<path d="M94.6964 69.782L94.4876 69.3198C103.588 65.2107 154.411 42.3787 176.61 34.9349C194.161 29.0541 215.899 21.4279 237.843 15.4315L238.009 15.3869L254.066 21.9205L252.785 22.3584C252.781 22.3604 251.37 22.8428 248.873 23.6983C231.395 29.6866 160.778 53.9072 150.235 57.9332C144.368 60.1712 132.765 63.2504 121.536 65.7844C110.3 68.3143 99.5109 70.2908 95.1586 70.2969L94.6741 70.2867L92.5395 70.1975L94.4876 69.3198L94.6964 69.782L94.7167 69.2752L95.1586 69.2833C99.2798 69.2894 110.127 67.321 121.313 64.7951C132.507 62.2713 144.115 59.1859 149.874 56.9844C161.982 52.3625 252.451 21.4016 252.457 21.3995L252.621 21.8779L252.43 22.3482L237.786 16.3904L237.977 15.9221L238.111 16.4106C216.211 22.3928 194.494 30.0109 176.933 35.8958C154.841 43.299 103.985 66.1412 94.9032 70.2421L94.6964 69.782Z" fill="#3265B1"/>
<path d="M630.815 91.0596L630.521 91.4711C602.003 71.1812 571.058 54.5543 547.245 43.0055C535.338 37.2301 525.216 32.7237 518.07 29.6627C514.496 28.1322 511.668 26.9605 509.734 26.1759C507.801 25.3874 506.765 24.986 506.761 24.984L505.411 24.461L523.454 18.8234L523.61 18.8781C529.972 21.0513 534.991 23.0723 538.98 24.7022C547.373 28.1261 577.991 43.1616 606.552 57.3599C635.105 71.5542 661.569 84.897 661.569 84.897L661.342 85.3491L661.417 84.8483L675.924 86.9971L673.317 87.6012C655.956 91.615 645.376 92.6367 639.084 92.6367C632.621 92.6367 630.675 91.5603 630.564 91.4974L630.542 91.4853L630.521 91.4711L630.815 91.0596L631.069 90.6197L631.071 90.6217C631.196 90.6866 633.128 91.6252 639.084 91.6231C645.267 91.6231 655.78 90.6156 673.088 86.612L673.201 87.1066L673.128 87.6073L661.186 85.8396L661.113 85.8031C661.109 85.7991 659.461 84.9679 656.534 83.4962C646.289 78.3411 620.448 65.3632 595.344 52.9305C570.245 40.4979 545.857 28.6005 538.597 25.6388C534.614 24.013 529.617 22.002 523.284 19.837L523.448 19.3566L523.598 19.841L507.095 24.9961L506.945 24.5116L507.128 24.0393C507.148 24.0494 573.937 49.9709 631.109 90.646L630.815 91.0596Z" fill="#3265B1"/>
<path d="M627.151 85.2454L626.87 85.6649C599.606 67.3839 571.181 52.5005 549.576 42.1882C538.773 37.0331 529.675 33.0194 523.279 30.2969C520.08 28.9346 517.558 27.8947 515.835 27.1973C514.112 26.498 513.196 26.1432 513.192 26.1412L511.842 25.6161L528.209 20.5036L528.369 20.5624C532.547 22.0929 536.05 23.5058 538.988 24.7059C546.334 27.7021 570.678 39.5833 595.787 52.018C620.891 64.4506 646.73 77.4286 656.985 82.5877L658.193 83.1959L656.882 83.5304C651.656 84.8683 644.271 86.6137 639.329 87.1428C637.968 87.2907 636.724 87.3516 635.592 87.3516C629.766 87.3516 626.959 85.7217 626.894 85.6812L626.88 85.6731L626.87 85.6649L627.151 85.2454L627.409 84.8095L627.427 84.8196C627.68 84.9575 630.31 86.336 635.592 86.338C636.687 86.338 637.895 86.2772 639.221 86.1353C644.048 85.6204 651.429 83.8811 656.63 82.5492L656.756 83.0398L656.529 83.4918C646.276 78.3347 620.437 65.3568 595.339 52.9262C570.245 40.4976 545.864 28.6042 538.605 25.6425C535.671 24.4444 532.182 23.0376 528.021 21.5131L528.195 21.0388L528.347 21.5213L513.526 26.1513L513.376 25.6688L513.559 25.1965C513.579 25.2046 572.793 48.1866 627.433 84.8237L627.151 85.2454Z" fill="#3265B1"/>
<path d="M234.716 66.4641L234.307 66.1661C235.418 64.6498 237.941 62.5456 241.242 60.0968C251.126 52.7787 267.86 42.657 271.923 40.2204L272.594 39.819L278.098 86.0547L241.467 84.7005H241.459C237.968 84.4633 235.497 83.1396 233.94 81.232C232.383 79.3265 231.744 76.8878 231.744 74.4552C231.746 71.3983 232.74 68.3271 234.307 66.1661L234.716 66.4641L235.126 66.7621C233.705 68.7122 232.754 71.6212 232.758 74.4552C232.758 76.7176 233.354 78.915 234.724 80.5894C236.099 82.2619 238.25 83.4578 241.53 83.6889L241.493 84.1937L241.513 83.6889L276.95 84.9965L271.68 40.715L272.182 40.6562L272.444 41.09C269.744 42.7077 261.408 47.7472 253.24 53.0807C249.156 55.7464 245.116 58.4892 241.846 60.9117C238.58 63.324 236.068 65.4546 235.126 66.7621L234.716 66.4641Z" fill="#3265B1"/>
<path d="M362.714 18.0229L362.686 17.5161L364.382 17.4168C371.678 16.9891 379.424 16.76 387.427 16.7052L387.871 16.7032L398.135 90.4922L282.756 86.227L276.028 33.1233L276.405 32.9834C309.661 20.6157 335.605 19.0933 362.686 17.5161L362.714 18.0229L362.744 18.5277C335.657 20.1068 309.876 21.6191 276.758 33.9342L276.582 33.4578L277.084 33.395L283.654 85.2459L396.963 89.436L386.929 17.283L387.431 17.212L387.435 17.7188C379.446 17.7736 371.717 18.0026 364.441 18.4283L362.744 18.5277L362.714 18.0229Z" fill="#3265B1"/>
<path d="M502.009 32.2215L502.173 31.7411C522.066 38.5382 546.716 51.9459 567.884 64.6745L568.168 64.8448L567.807 67.7375L567.418 67.7882C561.857 68.518 558.948 70.829 557.282 73.7907C555.62 76.7585 555.255 80.458 555.091 83.8718C555.072 84.2347 555.064 84.5853 555.064 84.9279C555.064 88.1207 555.798 90.4033 556.524 91.8872C556.885 92.6292 557.246 93.1704 557.511 93.5231L557.827 93.9103L557.91 93.9995L557.931 94.0198L557.578 94.3847L557.566 93.8779L564.545 93.7036L564.181 96.6328L421.494 91.3561L403.469 16.8414L404.129 16.8596C430.633 17.5631 469.747 20.6727 502.173 31.7411L502.009 32.2215L501.847 32.7019C469.597 21.6883 430.552 18.5726 404.103 17.8732L404.115 17.3664L404.608 17.2468L422.299 90.3729L563.291 95.5848L563.394 94.7475L557.379 94.8975L557.227 94.7496C557.16 94.6908 554.047 91.6338 554.051 84.9279C554.051 84.5691 554.059 84.2022 554.077 83.8231C554.251 80.3749 554.596 76.5273 556.396 73.296C558.192 70.0586 561.499 67.5186 567.288 66.7827L567.353 67.2855L566.85 67.2226L567.12 65.0454L567.623 65.1083L567.363 65.5441C546.226 52.8317 521.602 39.4463 501.847 32.7019L502.009 32.2215Z" fill="#3265B1"/>
<path d="M556.66 93.1753L556.709 92.6706L567.137 93.6436L567.102 94.6552L557.378 94.8984L557.226 94.7484C557.202 94.7261 556.768 94.2964 556.233 93.445L555.685 92.5753L556.709 92.6706L556.66 93.1753L557.09 92.9058C557.333 93.2909 557.55 93.5768 557.702 93.7633L557.881 93.968L557.933 94.0227L557.579 94.3856L557.566 93.8788L558.507 93.8565L556.614 93.6801L556.66 93.1753Z" fill="#3265B1"/>
<path d="M567.71 99.9932L567.299 100.289C566.494 99.1722 565.949 97.7329 565.944 96.3382C565.942 95.4443 566.178 94.5543 566.757 93.8347L566.93 93.6218L583.798 95.1989L582.683 95.9896C580.518 97.5262 577.453 99.4094 574.791 100.703L574.57 100.247L574.59 99.7398L617.585 101.329L620.98 112.795L620.982 112.862C620.982 112.864 621.738 143.44 621.738 162.361C621.738 166.543 621.702 170.158 621.611 172.752C621.112 187.026 620.244 205.453 620.244 205.455L620.242 205.495L619.235 210.283L616.488 218.727L296.463 215.813L296.313 215.651C296.309 215.647 294.083 213.225 291.677 210.622C289.272 208.023 286.678 205.234 285.988 204.544C285.853 204.405 285.688 204.192 285.433 203.853C281.705 198.846 261.348 168.305 257.421 161.613C255.366 158.108 244.908 141.5 234.681 124.777C229.566 116.413 224.508 108.017 220.578 101.203C218.613 97.7958 216.931 94.7834 215.662 92.365C214.395 89.9405 213.543 88.1343 213.225 87.0436L213.029 86.3706L567.728 99.4864L567.71 99.9932L567.69 100.5L213.691 87.4085L213.712 86.9018L214.198 86.7599C214.464 87.6883 215.305 89.5006 216.56 91.8946C225.376 108.716 254.664 154.913 258.297 161.1C260.359 164.617 267.132 174.98 273.554 184.617C276.765 189.438 279.891 194.082 282.301 197.608C283.507 199.369 284.533 200.853 285.299 201.938C285.684 202.479 286.003 202.921 286.246 203.247C286.483 203.567 286.663 203.79 286.706 203.829C288.147 205.27 297.055 214.96 297.059 214.966L296.686 215.309L296.69 214.802L615.754 217.707L618.254 210.022L619.243 205.327L619.739 205.43L619.233 205.406C619.233 205.396 619.45 200.8 619.727 194.411C620.007 188.021 620.35 179.85 620.597 172.716C620.688 170.143 620.725 166.537 620.725 162.361C620.725 152.912 620.536 140.541 620.348 130.535C620.252 125.531 620.157 121.12 620.086 117.958C620.015 114.796 619.969 112.89 619.969 112.886L620.475 112.874L619.989 113.018L616.82 102.314L572.521 100.678L574.349 99.7905C576.938 98.5337 579.981 96.6646 582.097 95.1625L582.391 95.576L582.342 96.0808L567.106 94.6557L567.153 94.1529L567.548 94.4692C567.143 94.9719 566.958 95.6145 566.958 96.3382C566.954 97.4613 567.428 98.7445 568.12 99.6952L568.728 100.539L567.69 100.5L567.71 99.9932Z" fill="#3265B1"/>
<path d="M414.511 104.632L415.015 104.579L420.621 159.244L421.062 216.949L296.46 215.816L296.31 215.654C296.306 215.65 294.081 213.227 291.674 210.624C289.27 208.026 286.675 205.236 285.986 204.547C285.85 204.407 285.686 204.194 285.431 203.856C281.703 198.849 261.346 168.307 257.419 161.616C255.364 158.111 244.905 141.502 234.678 124.78C229.564 116.416 224.506 108.019 220.575 101.206C218.611 97.7983 216.929 94.7859 215.66 92.3675C214.393 89.943 213.541 88.1368 213.223 87.0462L213.026 86.3731L411.685 93.7176L415.009 104.531L415.015 104.579L414.511 104.632L414.026 104.78L410.929 94.7048L213.689 87.4111L213.709 86.9043L214.196 86.7624C214.461 87.6908 215.303 89.5031 216.558 91.8972C225.374 108.719 254.662 154.916 258.295 161.103C260.357 164.62 267.129 174.983 273.551 184.62C276.762 189.441 279.888 194.085 282.299 197.61C283.505 199.372 284.531 200.856 285.297 201.94C285.682 202.481 286 202.923 286.244 203.25C286.481 203.57 286.661 203.793 286.704 203.831C288.145 205.273 297.052 214.963 297.056 214.969L296.683 215.311L296.688 214.804L420.041 215.925L419.607 159.299L414.008 104.683L414.511 104.632Z" fill="#3265B1"/>
<path d="M320.175 224.946L320.181 224.695C346.106 225.305 562.663 225.427 579.176 225.427C582.56 225.427 585.992 225.473 589.334 225.473C595.823 225.473 601.972 225.297 606.742 224.279C611.52 223.258 614.856 221.409 615.878 218.143L616.119 218.218L616.117 218.472L420.372 216.515L296.682 215.565L296.684 215.311L296.929 215.378L296.905 215.51L296.877 215.923C296.883 216.87 297.254 218.887 300.349 220.791C303.447 222.692 309.295 224.44 320.181 224.695L320.175 224.946L320.169 225.2C309.234 224.942 303.307 223.197 300.084 221.225C296.856 219.254 296.362 217.016 296.37 215.923C296.37 215.512 296.435 215.263 296.441 215.244L296.491 215.056L420.376 216.009L616.464 217.969L616.363 218.295C615.24 221.839 611.678 223.744 606.847 224.774C602.004 225.808 595.833 225.98 589.334 225.98C585.987 225.98 582.555 225.934 579.176 225.934C562.659 225.934 346.115 225.812 320.169 225.2L320.175 224.946ZM0.727415 153.906L0.703081 153.653C0.703081 153.653 1.70454 153.556 2.78704 153.428C3.85739 153.302 5.05551 153.126 5.29877 153.022L5.33511 153.114L5.25809 153.049L5.29877 153.022L5.33511 153.114L5.25809 153.049C5.27431 153.039 5.35547 152.848 5.40818 152.582C5.61292 151.636 5.74458 149.647 5.81959 147.918C5.89459 146.185 5.919 144.701 5.919 144.697L5.92107 144.585L14.2081 137.202L13.9507 132.68L19.793 126.448L20.6748 95.7508L20.9221 95.7528C21.9113 95.7589 22.9452 95.765 23.9892 95.7711L24.2426 95.7731V96.0245V96.1015C24.2426 99.7869 24.6643 107.375 25.088 114.032C25.2988 117.362 25.5116 120.46 25.6697 122.724C25.8278 124.991 25.9332 126.42 25.9332 126.424L25.6819 126.442L25.6799 126.189L80.4965 125.834L80.4986 126.087L80.2796 126.215C80.2776 126.211 79.3288 124.593 77.8652 122.116C75.6658 118.4 72.3067 112.765 69.2538 107.814C66.2069 102.872 63.4297 98.5787 62.4952 97.6523C62.1384 97.2935 61.6439 96.9002 61.0621 96.4867L60.4093 96.0204L61.2121 96.0265C98.6377 96.3022 142.921 96.7056 161.604 97.1536C196.757 97.9989 274.679 99.1828 310.85 100.196C347.027 101.212 500.151 107.127 538.862 108.986C577.563 110.847 647.486 112.856 694.881 118.115C736.951 122.779 787.124 134.606 800.296 137.813L800.451 137.851L800.484 138.007C800.898 139.969 802.572 144.567 805.746 146.992C806.767 147.776 808.95 148.907 811.752 150.144L811.789 150.16L811.822 150.188L811.652 150.377L811.788 150.164C821.645 156.436 840.588 161.151 857.04 164.271C865.268 165.834 872.877 167.004 878.429 167.78C883.98 168.559 887.463 168.944 887.472 168.946L887.53 168.952L887.58 168.984C887.692 169.059 890.106 170.699 890.186 180.606C890.189 181.074 890.191 181.533 890.191 181.981C890.191 190.993 889.466 195.879 889.464 195.889L889.433 196.098L876.964 196.507L876.956 196.254H877.209C877.205 204.894 873.107 215.388 873.104 215.402L872.868 215.311V215.058H892.224L892.218 217.036H891.965L892.087 216.815C892.087 216.815 893.063 217.353 894.307 218.127L894.753 218.405L894.258 218.581C893.111 218.989 891.841 219.337 890.767 219.339L890.607 219.337C889.373 219.295 877.19 219.141 865.329 218.999C853.464 218.857 841.911 218.725 841.911 218.725L841.914 218.472L841.978 218.717L828.962 222.125L828.897 221.879L828.899 221.626C828.903 221.626 830.484 221.636 833.152 221.65C841.159 221.693 858.927 221.78 872.953 221.78C882.301 221.78 889.998 221.741 892.004 221.626C894.645 221.474 896.557 221.125 897.866 220.778L897.995 220.744L898.096 220.833C899.015 221.648 899.717 222.398 899.742 223.162L899.733 223.292C899.693 223.606 899.515 223.892 899.226 224.119C898.218 224.902 895.845 225.358 890.861 225.938C885.883 226.509 878.327 227.156 867.097 228.178C845.702 230.124 803.974 232.877 790.655 233.742L790.392 233.758L789.838 211.601V211.597C789.838 191.164 781.508 172.617 768.057 159.177C754.605 145.737 736.037 137.405 715.556 137.405C674.623 137.405 641.315 170.687 641.27 211.61V211.614L639.959 241.922H265.056V211.691C265.056 191.21 256.724 172.639 243.274 159.187C229.822 145.737 211.253 137.405 190.773 137.405C155.887 137.405 126.558 161.583 118.622 194.06L118.569 194.269L118.354 194.251C97.9849 192.522 31.9722 186.933 20.6788 186.179C13.9345 185.727 9.20716 185.615 6.17654 185.615C3.19458 185.615 1.87075 185.725 1.8667 185.723L1.41668 185.759L1.61946 185.358C2.60264 183.408 3.75604 181.642 3.75807 181.638L3.97085 181.776L3.71953 181.806L0.445658 153.677L0.703081 153.653L0.727415 153.906L0.9788 153.876L4.23236 181.839L4.18168 181.914C4.18168 181.914 3.89798 182.349 3.49052 183.029C3.08306 183.708 2.55599 184.626 2.07149 185.585L1.84633 185.471L1.82621 185.218C1.83229 185.218 3.18241 185.108 6.17654 185.108C9.21932 185.108 13.9588 185.222 20.7134 185.672C32.0209 186.428 98.0234 192.017 118.396 193.746L118.374 194L118.129 193.939C126.12 161.241 155.646 136.9 190.773 136.898C232.013 136.9 265.561 170.45 265.563 211.691V241.415H639.472L640.764 211.597L641.017 211.608H640.764C640.808 170.405 674.342 136.9 715.556 136.898C756.795 136.9 790.344 170.45 790.345 211.597H790.091L790.345 211.591L790.892 233.483L790.639 233.489L790.622 233.235C803.94 232.372 845.668 229.617 867.052 227.673C879.885 226.507 887.925 225.826 892.774 225.196C895.198 224.881 896.826 224.575 897.839 224.239C898.345 224.073 898.695 223.896 898.91 223.724C899.125 223.55 899.206 223.398 899.232 223.225L899.235 223.162C899.26 222.763 898.668 221.983 897.764 221.214L897.931 221.024L897.995 221.269C896.649 221.624 894.704 221.979 892.033 222.133C889.988 222.248 882.308 222.287 872.953 222.287C854.249 222.287 828.896 222.133 828.896 222.133L826.973 222.12L841.883 218.218H841.917C841.917 218.218 888.124 218.743 890.624 218.83L890.767 218.832C891.731 218.834 892.969 218.504 894.088 218.103L894.173 218.342L894.039 218.557C892.806 217.79 891.843 217.259 891.843 217.259L891.71 217.186L891.715 215.565H872.497L872.631 215.22C872.631 215.22 872.885 214.569 873.267 213.456C874.413 210.118 876.705 202.621 876.702 196.254V196.009L889.206 195.599L889.214 195.852L888.964 195.816C888.964 195.812 889.142 194.608 889.323 192.272C889.504 189.935 889.684 186.473 889.684 181.981C889.684 181.535 889.682 181.078 889.679 180.61C889.64 175.694 889.02 172.868 888.422 171.289C888.122 170.499 887.83 170.02 887.621 169.744L887.375 169.469L887.316 169.418L887.305 169.41L887.345 169.353L887.308 169.41H887.305L887.345 169.353L887.308 169.41L887.444 169.197L887.416 169.449C887.412 169.449 873.422 167.9 856.945 164.77C840.465 161.638 821.512 156.941 811.516 150.592L811.498 150.58L811.48 150.563L811.65 150.375L811.548 150.608C808.726 149.359 806.538 148.234 805.437 147.395C802.099 144.82 800.432 140.164 799.988 138.113L800.236 138.06L800.176 138.305C787.015 135.1 736.849 123.278 694.826 118.617C647.465 113.365 577.546 111.352 538.838 109.493C500.135 107.634 347.004 101.717 310.836 100.703C274.671 99.6896 196.749 98.5057 161.591 97.6604C142.919 97.2124 98.6336 96.809 61.208 96.5333L61.2101 96.2799L61.358 96.0731C61.952 96.4968 62.4628 96.9022 62.8541 97.2935C63.5534 97.9949 64.9807 100.101 66.7808 102.915C72.169 111.342 80.7175 125.96 80.7175 125.96L80.9385 126.339L25.4467 126.698L25.4285 126.46C25.4285 126.456 23.7357 103.529 23.7357 96.1015V96.0245H23.9892L23.9872 96.2779C22.9412 96.2718 21.9093 96.2657 20.918 96.2596L20.9201 96.0062L21.1734 96.0143L20.2937 126.655L14.4676 132.868L14.7291 137.419L6.3406 144.889L6.17246 144.701L6.42585 144.705C6.42585 144.705 6.39331 146.783 6.27979 148.895C6.22303 149.951 6.14596 151.018 6.04054 151.843C5.98784 152.256 5.92908 152.609 5.85813 152.878L5.73646 153.229L5.48721 153.493C5.08178 153.649 3.94651 153.797 2.84779 153.931C1.7592 154.06 0.751748 154.158 0.751748 154.158L0.727415 153.906Z" fill="#3265B1"/>
<path d="M34.4785 79.0106L34.7543 78.5848C34.7583 78.5889 41.7906 83.1318 46.8544 86.9125C49.3337 88.7633 52.6927 90.6404 55.7659 92.3797C58.8431 94.1292 61.6142 95.7104 63.0272 97.1132C63.4083 97.4984 63.9293 98.1937 64.6063 99.1667C69.3013 105.941 80.9251 125.826 80.9291 125.832L81.373 126.59L25.2063 126.953L25.1698 126.481C25.1698 126.471 23.4771 103.566 23.4751 96.1057C23.4771 95.3313 23.4933 94.7231 23.5359 94.2974C23.9737 90.0302 26.3861 80.0404 26.3882 80.0282L26.4692 79.6957L34.5941 78.4815L34.7543 78.5848L34.4785 79.0106L34.5535 79.5133L26.9557 80.6485L26.8807 80.1457L27.3733 80.2654C27.3733 80.2715 26.7712 82.7628 26.1164 85.7833C25.4617 88.8018 24.7522 92.3534 24.5454 94.4008C24.5089 94.7576 24.4887 95.3495 24.4887 96.1057C24.4887 99.7809 24.9124 107.369 25.3361 114.022C25.5469 117.348 25.7576 120.446 25.9178 122.71C26.0759 124.975 26.1814 126.402 26.1814 126.406L25.6766 126.442L25.6725 125.935L80.4892 125.581L80.4933 126.088L80.0554 126.345C80.0534 126.341 79.1066 124.721 77.641 122.244C75.4435 118.53 72.0846 112.895 69.0317 107.946C67.5052 105.473 66.0558 103.17 64.8678 101.368C63.686 99.5722 62.7353 98.2484 62.3116 97.8308C61.0973 96.6064 58.3302 94.9928 55.2651 93.2616C52.196 91.5223 48.8126 89.637 46.2483 87.7254C43.7386 85.8502 40.7263 83.7764 38.3423 82.1729C35.9584 80.5694 34.209 79.4403 34.2049 79.4362L34.4785 79.0106Z" fill="#3265B1"/>
<path d="M20.9494 94.9203L20.9271 95.1717L16.2646 94.7581L16.2889 94.5027C16.2909 94.4987 16.4592 92.8445 16.4592 90.4139C16.4633 86.4974 16.0092 80.5862 13.7266 76.5035L13.4671 76.0392L13.9921 76.1305C14.0103 76.1386 21.7379 77.4846 26.6558 81.6261L26.7734 81.7254L26.739 81.8775C26.0376 84.9 24.6104 91.2775 24.2962 94.373C24.2577 94.748 24.2395 95.344 24.2395 96.1041C24.2395 99.7936 24.6632 107.381 25.0869 114.037C25.2977 117.365 25.5105 120.461 25.6686 122.725C25.8267 124.989 25.9322 126.418 25.9322 126.423L25.9423 126.538L25.8591 126.621C25.8551 126.623 17.1829 135.229 14.6367 137.499L14.2435 137.848L13.9495 132.678L19.7919 126.447L20.696 94.9122L20.9494 94.9203L21.2028 94.9284L20.2925 126.654L14.4665 132.867L14.7199 137.294L14.4665 137.31L14.2982 137.12C15.5571 135.999 18.3627 133.28 20.8459 130.848C23.3333 128.413 25.4963 126.266 25.5024 126.26L25.6808 126.441L25.4274 126.459C25.4274 126.455 23.7347 103.54 23.7327 96.1041C23.7347 95.3338 23.7509 94.7298 23.7935 94.3223C24.1138 91.162 25.5409 84.7966 26.2444 81.7619L26.4916 81.8207L26.3274 82.0133C23.9516 80.0044 20.8399 78.6522 18.3262 77.8089C17.0694 77.3873 15.9625 77.0934 15.1699 76.9028C14.3772 76.7123 13.905 76.6312 13.905 76.6292L13.9475 76.3798L14.1705 76.2562C16.5281 80.495 16.964 86.4589 16.966 90.4139C16.966 92.8688 16.7937 94.5473 16.7937 94.5554L16.5423 94.5291L16.5646 94.2757L21.2088 94.6892L21.2028 94.9284L20.9494 94.9203Z" fill="#3265B1"/>
<path d="M14.4612 137.311L14.2929 137.12C15.5518 135.999 18.3574 133.281 20.8407 130.848C23.328 128.414 25.491 126.267 25.4971 126.261L25.5701 126.19L59.3164 125.971L59.2313 126.291C58.4143 129.391 55.256 134.554 44.0923 139.04C30.7556 144.406 23.3139 145.002 14.2829 145C11.757 145 9.10748 144.953 6.16606 144.953H5.49911L14.2929 137.12L14.4612 137.311L14.6315 137.499L6.33423 144.888L6.16606 144.7V144.447C9.11356 144.447 11.7631 144.493 14.2829 144.493C23.2916 144.489 30.6076 143.913 43.9038 138.57C54.9802 134.112 57.9703 129.072 58.7406 126.161L58.986 126.226L58.988 126.48L25.6755 126.695V126.441L25.8539 126.622C25.8498 126.624 17.1776 135.229 14.6315 137.499L14.4612 137.311Z" fill="#3265B1"/>
</svg>
