<svg width="865" height="319" viewBox="0 0 865 319" fill="none" xmlns="http://www.w3.org/2000/svg">

    <g id="doors" class="hover-group">
        <path id="Vector"
            d="M277.453 96.2555C276.834 97.1839 276.37 98.1123 276.37 99.3502C276.37 99.6597 276.37 100.124 276.525 100.588C276.989 102.755 278.382 105.076 279.001 106.159L263.682 106.778L255.171 99.9692L279.929 84.9595L284.417 92.2322C282.715 92.8512 280.858 93.4701 279.929 94.2438C279.001 94.7081 278.227 95.327 277.453 96.2555Z"
            fill="transparent" fill-opacity="0.666667" />
        <path id="Vector_2"
            d="M321.242 98.5757C321.242 99.6588 321.242 100.587 321.087 101.206C320.933 102.135 320.468 102.754 319.695 103.373C319.54 103.527 319.385 103.682 319.076 103.682C318.766 103.837 318.611 103.992 318.302 104.146C318.147 104.301 317.838 104.301 317.683 104.456H317.528C317.993 102.135 318.147 99.3493 318.147 96.4093C318.147 94.7072 318.147 93.005 317.993 91.4576V91.1482C317.993 90.8387 317.993 90.5292 317.993 90.2197C317.993 89.7555 317.993 89.2913 317.993 88.8271C317.993 88.5176 317.993 88.2081 317.993 87.8986C317.993 87.4344 317.993 86.9702 317.993 86.6607C317.993 86.1965 317.993 85.887 317.993 85.4228C317.838 83.1017 316.909 80.9353 315.826 79.3879C317.838 79.6974 319.076 80.1616 319.54 80.4711C319.54 80.4711 319.695 80.7806 319.849 81.2448C320.159 84.3396 321.242 93.4692 321.242 98.5757Z"
            fill="transparent" fill-opacity="0.666667" />
        <path id="Vector_3"
            d="M362.248 223.607L360.701 260.28H276.522C276.368 259.352 275.749 257.031 274.975 253.627C273.273 246.663 270.642 235.367 268.321 225.464L362.248 223.607Z"
            fill="transparent" fill-opacity="0.666667" />
        <path id="Vector_4" d="M360.237 223.606L454.319 221.749L455.402 260.279H358.689" fill="transparent"
            fill-opacity="0.666667" />
        <path id="Vector_5"
            d="M317.219 90.9934H289.676C289.831 90.8387 289.831 90.6839 289.985 90.5292C291.223 88.6723 294.008 84.8038 296.33 82.9469C299.579 80.4711 303.293 79.5427 309.482 79.3879C310.101 79.3879 310.566 79.3879 311.03 79.3879C312.422 79.3879 313.66 79.3879 314.589 79.5427C315.672 81.0901 316.755 83.2564 316.91 85.7323C316.91 86.9702 317.065 88.6723 317.219 90.5292C317.219 90.5292 317.219 90.6839 317.219 90.9934Z"
            fill="transparent" fill-opacity="0.666667" />
        <path id="Vector_6"
            d="M317.377 96.4083C317.377 99.3484 317.223 102.288 316.759 104.609L316.449 104.764C314.283 105.228 311.807 105.383 310.414 105.383C308.867 105.383 300.975 105.538 293.548 105.693H293.393C290.607 105.693 288.132 105.847 285.811 105.847C285.501 105.847 285.037 105.847 284.727 105.847C284.418 105.847 284.263 105.847 284.108 105.847C283.799 105.847 283.644 105.847 283.335 105.847C281.787 105.847 280.704 105.847 280.24 105.847C280.24 105.847 280.085 105.693 280.085 105.538C279.466 104.609 278.228 102.288 277.764 100.432C277.609 100.122 277.609 99.8126 277.609 99.5031C277.609 98.5747 277.919 97.801 278.538 97.0273C279.157 96.2536 279.93 95.6346 280.704 95.1704C281.478 94.5514 283.799 93.7777 285.656 93.004C287.513 92.3851 289.215 91.9209 289.215 91.9209H289.37L289.524 91.7661H317.377C317.377 93.004 317.377 94.7062 317.377 96.4083Z"
            fill="transparent" fill-opacity="0.666667" />
        <path id="Vector_7"
            d="M375.403 25.6934L254.242 99.1947L252.85 97.9567C253.469 97.4925 254.706 96.7188 256.409 95.6356C275.287 83.7207 352.192 35.9062 367.202 27.5502C367.512 27.3955 369.059 26.6218 371.38 25.6934H375.403Z"
            fill="transparent" fill-opacity="0.666667" />
        <path id="Vector_8"
            d="M472.891 17.1824L472.736 19.194C454.322 19.3487 404.341 20.8961 392.271 21.3603C385.927 21.5151 380.975 23.2172 377.881 24.7646C376.333 24.7646 375.095 24.7646 373.857 24.7646C373.857 24.7646 374.012 24.7646 374.012 24.6099C377.726 23.0625 381.904 21.2056 384.38 20.5866C389.022 19.194 395.676 18.7298 408.983 18.575C421.517 18.1108 462.987 17.1824 472.891 17.1824Z"
            fill="transparent" fill-opacity="0.666667" />
        <path id="Vector_9"
            d="M472.578 19.6602L472.269 23.5286C471.65 23.5286 470.722 23.5286 469.174 23.5286C467.008 23.5286 463.758 23.6834 459.89 23.6834C439.309 23.9929 398.922 24.4571 379.116 24.6118H378.961C382.056 23.2192 386.388 21.9813 392.114 21.8265C404.338 21.3623 454.164 19.8149 472.578 19.6602Z"
            fill="transparent" fill-opacity="0.666667" />
        <path id="Vector_10"
            d="M472.115 24.6084L464.997 96.0981L464.378 98.5739L450.142 99.1929L460.354 24.7631C464.068 24.7631 467.163 24.6084 469.329 24.6084C470.567 24.6084 471.65 24.6084 472.115 24.6084Z"
            fill="transparent" fill-opacity="0.666667" />
        <path id="Vector_11"
            d="M464.225 99.6577L462.058 108.478C445.192 109.252 286.892 115.441 263.217 116.524C263.526 114.822 263.681 113.43 263.99 112.037C264.455 109.252 264.764 107.549 264.764 107.549L293.546 106.312H293.701C301.128 106.157 309.02 106.002 310.567 106.002C312.115 106.002 314.745 106.002 317.067 105.383L464.225 99.6577Z"
            fill="transparent" fill-opacity="0.666667" />
        <path id="Vector_12"
            d="M263.061 117.142C262.751 118.844 262.442 120.856 262.132 122.867C260.895 131.068 259.502 140.817 259.192 146.852C259.192 147.471 259.192 148.09 259.192 148.864C259.192 162.481 263.216 197.607 264.454 207.046C264.918 210.296 266.31 216.949 268.013 224.686L454.32 220.818V205.189L455.249 191.108L457.725 144.067V136.484L461.903 109.25C444.417 109.869 286.272 116.059 263.061 117.142ZM442.251 125.343C442.251 126.581 441.167 127.664 439.929 127.664L396.912 127.045C395.674 127.045 394.59 125.962 394.59 124.724V123.177C394.59 121.939 395.674 120.856 396.912 120.856L439.929 120.082C441.167 120.082 442.251 121.165 442.251 122.403V125.343Z"
            fill="transparent" fill-opacity="0.666667" />
        <path id="Vector_13"
            d="M441.165 122.25V125.345C441.165 126.119 440.546 126.583 439.927 126.583L396.91 125.964C396.136 125.964 395.672 125.345 395.672 124.726V123.179C395.672 122.405 396.291 121.941 396.91 121.941L439.927 121.012C440.701 121.012 441.165 121.631 441.165 122.25Z"
            fill="transparent" fill-opacity="0.666667" />
        <path id="Vector_14"
            d="M646.82 88.6715C646.82 94.0874 641.559 101.515 622.371 102.908C601.636 104.3 480.319 107.705 462.988 108.478L465.155 99.6581H465.464C465.464 99.6581 474.439 99.3486 488.056 98.8844C501.673 98.4201 519.933 97.8012 538.811 97.1822C576.413 95.9443 615.872 94.3969 623.454 93.6232C626.704 93.3137 629.334 92.6947 631.346 91.921C633.822 91.1473 635.524 90.0642 636.298 88.5167C636.607 87.8978 636.762 87.2788 636.762 86.5051C636.762 86.3504 636.762 86.1956 636.762 85.8862C636.762 85.7314 636.762 85.5767 636.762 85.2672C636.762 83.4103 635.988 81.5534 635.215 79.8513C632.739 74.8996 613.087 43.023 605.969 34.8218C603.648 32.1912 600.553 30.0248 596.994 28.3227C596.994 28.3227 596.994 28.3227 596.839 28.3227C596.375 28.0132 595.91 27.8584 595.292 27.549L594.982 27.3942C588.173 24.6089 580.282 23.371 574.092 23.371H473.201L473.511 19.5024C477.07 19.5024 482.64 19.5024 489.449 19.5024C517.457 19.5024 565.581 19.6572 572.235 19.6572H574.247C583.067 19.6572 598.386 20.1214 608.444 31.4175C613.86 37.6071 623.145 50.1411 631.191 61.9014C635.215 67.7815 638.928 73.5069 641.714 77.9944C644.499 82.4819 646.356 86.0409 646.511 87.2788C646.82 87.743 646.82 88.2073 646.82 88.6715Z"
            fill="transparent" fill-opacity="0.666667" />
        <path id="Vector_15"
            d="M663.997 152.116C663.997 148.867 663.842 144.225 663.842 139.273C663.687 129.215 663.378 117.3 663.068 109.718C662.449 94.7077 657.807 82.4832 650.225 71.1871C646.511 65.6165 637.845 55.0941 629.025 45.0359C620.205 35.1325 611.385 25.6934 607.207 22.4438C603.802 19.6585 597.149 18.1111 590.031 17.3374C582.913 16.5637 575.175 16.4089 569.295 16.4089C567.284 16.4089 565.427 16.4089 564.034 16.4089C554.131 16.4089 480.629 17.0279 474.285 17.0279H473.975L473.82 19.1943C477.379 19.1943 482.95 19.1943 489.759 19.1943C517.767 19.1943 565.891 19.349 572.545 19.349C573.164 19.349 573.783 19.349 574.557 19.349C583.377 19.349 599.006 19.8132 609.064 31.264C617.265 40.5485 634.132 64.2238 642.333 77.841C645.118 82.3284 646.975 85.7327 647.13 87.2801C647.285 87.7444 647.285 88.2086 647.285 88.8275C647.285 94.5529 641.559 102.135 622.371 103.528C601.481 105.075 479.701 108.325 462.989 109.099L458.811 136.488V144.07L456.335 191.111L455.406 205.192V220.821L591.268 219.893C591.578 219.119 591.887 218.191 592.197 217.417C592.352 217.107 592.352 216.798 592.506 216.489C593.125 214.632 593.899 212.93 594.673 211.227C595.601 209.216 596.53 207.359 597.458 205.502C598.387 203.645 599.47 201.788 600.553 199.931C601.636 198.074 602.719 196.372 603.957 194.67C603.957 194.515 604.112 194.515 604.112 194.361C604.731 193.587 605.35 192.813 605.814 192.04C606.433 191.266 607.052 190.492 607.671 189.564C607.826 189.254 608.135 189.099 608.29 188.79C608.754 188.171 609.218 187.707 609.683 187.088C611.075 185.54 612.468 183.993 614.015 182.446C614.789 181.672 615.563 181.053 616.336 180.279C617.11 179.506 617.884 178.887 618.658 178.113C619.431 177.494 620.05 176.875 620.824 176.256C620.979 176.101 621.133 176.101 621.133 175.946C621.907 175.328 622.681 174.709 623.455 174.09C624.228 173.471 625.157 172.852 625.93 172.233C626.085 172.078 626.24 172.078 626.24 171.923C627.014 171.459 627.787 170.995 628.406 170.376C629.335 169.757 630.108 169.293 631.037 168.674C632.894 167.591 634.596 166.507 636.607 165.579C636.607 165.579 636.762 165.579 636.762 165.424C637.691 164.96 638.464 164.496 639.393 164.186C641.25 163.258 643.261 162.484 645.273 161.71C646.82 161.091 648.213 160.627 649.76 160.163C651.308 159.699 652.855 159.235 654.403 158.77C655.486 158.461 656.414 158.306 657.497 157.997H657.652C658.581 157.842 659.509 157.687 660.438 157.378C660.592 157.378 660.747 157.378 660.747 157.378C661.211 157.223 661.675 157.223 662.14 157.068C662.604 156.913 663.068 156.913 663.532 156.913C664.151 156.294 664.151 154.592 663.997 152.116ZM646.356 118.847C646.356 120.085 645.273 121.168 644.035 121.168L601.017 120.549C599.779 120.549 598.696 119.466 598.696 118.228V116.681C598.696 115.443 599.779 114.36 601.017 114.36L644.035 113.431C645.273 113.431 646.356 114.514 646.356 115.752V118.847Z"
            fill="transparent" fill-opacity="0.666667" />
        <path id="Vector_16"
            d="M590.958 220.822C590.184 224.535 586.161 243.723 586.161 260.28H456.489L455.406 221.75L590.958 220.822Z"
            fill="transparent" fill-opacity="0.666667" />
        <path id="Vector_17"
            d="M645.427 115.75V118.845C645.427 119.464 644.808 120.083 644.189 120.083L601.171 119.464C600.398 119.464 599.934 118.845 599.934 118.226V116.679C599.934 115.905 600.553 115.441 601.171 115.441L644.189 114.667C644.808 114.512 645.427 114.977 645.427 115.75Z"
            fill="transparent" fill-opacity="0.666667" />
        <path id="Vector_18"
            d="M484.187 24.6091L483.259 98.1104C478.616 98.2651 474.748 98.4199 471.808 98.4199C467.939 98.5746 465.618 98.5746 465.618 98.5746L466.237 96.2535L473.355 24.4543H474.438H484.187V24.6091Z"
            fill="transparent" fill-opacity="0.666667" />
    </g>
    <g id="trunk" class="hover-group">
        <path id="Vector_19"
            d="M846.941 108.171H829.444C829.283 107.49 829.123 106.298 828.801 105.105C828.48 104.084 828.159 103.062 827.678 102.381C827.517 102.04 827.196 101.7 826.875 101.359C826.554 101.189 826.675 100.991 826.354 100.821L825.693 99.1453C825.854 99.1453 825.751 99.1453 826.073 99.1453C826.554 99.1453 826.875 99.1453 827.357 99.1453H828.159C828.159 99.1453 828.32 99.1453 828.48 99.1453C829.765 99.1453 831.049 99.1453 832.172 99.1453C832.654 99.1453 833.296 99.1453 833.778 99.1453H834.099C834.42 99.1453 834.741 99.1453 835.222 99.1453H835.865C836.186 99.1453 836.346 99.1453 836.667 99.1453C837.63 99.1453 838.754 99.1453 839.557 99.1453H840.359C841.643 99.1453 842.767 99.1453 843.73 99.1453H844.212C844.533 99.1453 844.693 99.1453 844.854 99.1453H845.014C845.657 100.337 846.138 101.529 846.299 102.211C846.459 102.892 846.78 105.446 846.941 108.171Z"
            fill="transparent" fill-opacity="0.666667" />
        <path id="Vector_20"
            d="M847.352 115.765L844.843 116.393H831.202C831.045 114.509 830.888 112.781 830.575 111.368C830.575 111.053 830.418 110.739 830.418 110.582C830.418 109.954 830.261 109.483 830.104 109.012H847.038C847.038 109.64 847.038 110.268 847.195 110.896C847.195 111.053 847.195 111.053 847.195 111.211C847.195 111.368 847.195 111.368 847.195 111.525C847.195 111.682 847.195 111.996 847.195 112.153C847.195 112.467 847.195 112.624 847.195 112.938C847.195 113.252 847.195 113.409 847.195 113.723C847.352 114.509 847.352 115.294 847.352 115.765Z"
            fill="transparent" fill-opacity="0.666667" />
        <path id="Vector_21"
            d="M844.833 98.6573C841.555 98.6573 834.999 98.8121 826.57 98.8121L820.482 90.9204C820.639 90.9204 820.795 90.9204 820.795 90.9204C829.224 90.9204 835.936 90.7656 839.682 90.7656C839.838 90.9204 840.15 91.3846 840.462 91.8488C841.243 93.0867 842.648 95.0983 843.74 96.9552C844.209 97.5742 844.521 98.1931 844.833 98.6573Z"
            fill="transparent" fill-opacity="0.666667" />
        <path id="Vector_22"
            d="M846.631 178.345V178.655C846.786 182.678 848.333 187.475 848.798 188.868H845.393C845.239 188.713 844.774 188.249 844.001 187.475C841.37 184.535 836.109 177.727 835.954 169.216C835.799 159.622 833.788 153.278 833.014 151.266V150.802C833.014 150.802 832.705 142.601 832.24 133.162C831.931 127.746 831.621 121.866 831.157 117.069H844.001L843.382 135.483L848.798 159.003C848.798 159.931 846.631 173.394 846.631 178.345Z"
            fill="transparent" fill-opacity="0.666667" />
        <path id="Vector 489"
            d="M823.316 90.6363L819.985 90.4974L816.079 85.8147L801.085 67.1547L785.879 48.106L773.362 32.6148L770.509 29.1126L770.162 28.2759L785.879 24.5579L789.192 28.6802L798.588 40.3398L808.964 52.7987L812.033 56.0831L813.755 58.7422L817.221 62.8507L820.341 66.4318L823.461 70.4139L826.299 73.9183L829.406 77.4613L831.281 79.7994L834.752 84.1518L837.123 86.9922L840.244 90.4974H838.936L833.776 90.6363H823.316Z"
            fill="transparent" fill-opacity="0.666667" stroke="#3265B1" stroke-width="0.0961111" />
    </g>
    <g id="lights" class="hover-group">
        <path id="lights_2"
            d="M832.117 150.829C831.344 150.829 829.642 150.829 827.939 150.674C826.702 150.674 825.464 150.519 824.38 150.365C823.297 150.21 822.524 150.055 822.214 149.9C822.214 149.9 821.905 149.436 821.595 148.972C820.357 146.806 818.346 142.163 816.334 137.521C814.322 132.879 812.311 128.082 811.073 125.761C809.68 122.976 807.05 122.047 804.419 121.738C801.788 121.428 799.003 121.738 797.146 121.428C793.278 120.964 790.183 117.715 786.624 114.156C784.922 112.453 782.756 110.287 781.053 108.43C780.125 107.502 779.506 106.573 778.887 105.8C778.423 105.026 778.113 104.407 778.113 104.252C778.268 103.633 778.887 103.324 779.506 103.014C779.815 102.86 780.125 102.86 780.434 102.705H780.744C780.744 102.705 824.226 102.705 826.392 102.705L826.856 102.86C827.475 103.324 828.094 105.026 828.404 106.419C828.558 107.192 828.713 107.811 828.868 108.275C828.868 108.74 829.023 109.049 829.023 109.049C829.177 109.513 829.177 109.978 829.332 110.597C829.332 110.906 829.487 111.216 829.487 111.525C829.487 111.834 829.642 112.144 829.642 112.453C829.642 112.763 829.796 113.072 829.796 113.537C829.951 114.775 830.106 116.012 830.261 117.405C830.725 122.202 831.034 128.082 831.344 133.498C831.653 138.14 831.808 142.628 831.963 145.877C832.117 148.353 832.117 149.9 832.117 150.829Z"
            fill="transparent" fill-opacity="0.666667" />
    </g>
    <g id="roof" class="hover-group">
        <path id="roof_2"
            d="M314.727 51.4757L318.667 56.6754L326.795 51.4875L335.75 46.0749L346.882 39.2108L355.26 34.2042L360.045 31.3627L364.855 28.4227L370.132 26.0362L371.165 25.339L372.184 25.0294L379.218 22.0368L384.871 19.9906L389.398 19.1721L395.588 18.7117L423.084 17.9188L446.743 17.4584L469.878 16.9697L494.015 16.6577L525.022 16.507L568.506 16.0611L582.771 16.4035L594.126 17.6018L600.688 19.0283L606.109 21.2537L609.19 23.8214L617.806 32.3235L627.621 43.165L637.435 54.3489L644.796 63.821L678.291 53.4359L670.39 44.4504L666.974 39.2923L665.232 36.8797V33.8847L667.437 31.7632L670.39 30.4737L674.425 29.4753H680.373L702.558 29.101L736.322 28.893L754.5 28.4964H768.632L773.037 27.4077L779.871 26.2323L785.985 24.4403L797.844 20.8035L797.422 20.1446L796.605 19.0905L795.604 18.7215L793.522 18.4053L788.594 17.8782L779.581 16.8768L767.985 15.6118L752.305 13.8988L739.708 12.3967L736.926 12.2428L734.045 10.1599L729.74 8.31993L726.026 7.03544L717.208 4.67475L709.605 3.42498L702.558 2.73066L689.678 2.31407L666.974 1.79333L637.426 1.37198L618.115 1.13005L599.684 0.998084L588.797 0.81958H569.992H552.221L540.894 0.97471H523.519L509.465 1.08476L490.088 1.34764L479.377 1.52305L460.022 1.65766L447.992 2.07329L433.85 2.31507L428.241 2.62276L420.081 4.07547L405.588 7.61317L399.68 9.01575H398.229L388.357 9.99846L380.598 10.689L373.215 11.3576L366.711 12.1529L361.085 13.2384L351.025 16.3975L342.157 19.7436L335.485 22.5892L341.216 23.4238L348.933 24.2215L359.273 24.8702L352.459 28.9536L338.381 37.2434L331.091 41.6038L314.727 51.4757Z"
            fill="transparent" fill-opacity="0.666667" stroke="#3265B1" stroke-width="0.0961111" />
    </g>
    <g id="rear-wheels" class="hover-group">
        <path id="Vector_23"
            d="M723.034 204.151C711.119 192.236 694.562 184.809 676.457 184.809C658.198 184.809 641.795 192.236 629.881 204.151C617.966 216.066 610.538 232.468 610.538 250.728C610.538 268.987 617.966 285.389 629.881 297.304C641.795 309.219 658.353 316.647 676.457 316.647C694.716 316.647 711.119 309.219 723.034 297.304C734.949 285.389 742.376 268.987 742.376 250.728C742.376 232.468 734.949 216.066 723.034 204.151ZM676.457 300.09C671.351 300.09 666.244 299.316 661.293 297.614C640.403 290.805 627.25 271.463 627.25 250.728C627.25 245.621 628.024 240.515 629.726 235.563C636.534 214.673 655.877 201.52 676.612 201.52C681.718 201.52 686.825 202.294 691.776 203.996C712.666 210.805 725.819 230.147 725.819 250.882C725.819 255.989 725.045 261.095 723.343 266.202C716.535 286.782 697.347 300.09 676.457 300.09Z"
            fill="transparent" />
        <path id="Vector_24"
            d="M724.737 250.728C724.737 255.68 723.963 260.631 722.416 265.738C715.762 286.163 696.884 299.007 676.613 299.007C671.661 299.007 666.709 298.233 661.758 296.686C641.332 290.032 628.334 271.154 628.334 250.883C628.334 245.931 629.108 240.979 630.655 236.028C637.309 215.602 656.187 202.604 676.458 202.604C681.41 202.604 686.361 203.378 691.313 204.925C711.739 211.424 724.737 230.457 724.737 250.728Z"
            fill="transparent" />
    </g>
    <g id="front-wheels" class="hover-group">
        <path id="Vector_25"
            d="M215.642 204.151C203.727 192.236 187.325 184.809 169.066 184.809C150.806 184.809 134.404 192.236 122.489 204.151C110.574 216.066 103.146 232.468 103.146 250.728C103.146 268.987 110.574 285.389 122.489 297.304C134.404 309.219 150.806 316.647 169.066 316.647C187.325 316.647 203.727 309.219 215.642 297.304C227.557 285.389 234.985 268.987 234.985 250.728C234.985 232.468 227.557 216.066 215.642 204.151ZM169.066 300.09C163.959 300.09 158.853 299.316 153.901 297.614C133.011 290.805 119.858 271.463 119.858 250.728C119.858 245.621 120.632 240.515 122.334 235.563C129.143 214.673 148.485 201.52 169.22 201.52C174.327 201.52 179.433 202.294 184.54 203.996C205.429 210.805 218.582 230.147 218.582 250.882C218.582 255.989 217.809 261.095 216.106 266.047C209.143 286.782 189.801 300.09 169.066 300.09Z"
            fill="transparent" />
        <path id="Vector_26"
            d="M217.341 250.729C217.341 255.681 216.567 260.632 215.02 265.584C208.366 286.01 189.488 298.853 169.062 298.853C164.11 298.853 159.159 298.079 154.207 296.532C133.781 289.878 120.783 271 120.783 250.729C120.783 245.777 121.557 240.826 123.104 235.874C129.758 215.448 148.636 202.45 168.907 202.45C173.859 202.45 178.811 203.224 183.762 204.771C204.343 211.425 217.341 230.458 217.341 250.729Z"
            fill="transparent" />
    </g>
    <g id="front" class="hover-group">
        <path id="Vector_27"
            d="M239.274 108.492C237.262 108.801 230.918 109.265 222.097 109.883C192.542 111.739 133.895 114.831 106.661 116.377C72.9274 118.387 49.4068 120.551 46.1572 120.86C46.4667 119.933 47.5499 118.85 48.7878 117.768C50.1805 116.531 52.0374 115.449 53.43 114.676L53.7395 114.521L53.5848 114.212C53.1206 113.748 52.6563 113.285 52.1921 112.666C63.7977 109.883 95.3647 104.163 136.99 99.9886C177.532 95.9689 188.209 96.2781 197.184 93.8044L210.337 97.8242L211.265 98.7518C211.575 100.916 213.122 102.617 215.598 104.008C218.074 105.4 221.014 106.173 224.418 106.946C224.883 106.946 225.347 107.1 225.656 107.255C225.966 107.255 226.43 107.41 226.894 107.41C227.358 107.41 227.823 107.564 228.287 107.564C228.906 107.719 229.525 107.719 230.144 107.873C230.299 107.873 230.299 107.873 230.453 107.873C230.763 107.873 231.227 108.028 231.691 108.028C232.31 108.028 232.929 108.183 233.703 108.183C234.322 108.183 235.096 108.337 235.714 108.337C236.798 108.337 238.036 108.337 239.274 108.492Z"
            fill="transparent" />
        <path id="Vector_28"
            d="M52.9661 114.366C51.4187 115.139 49.8713 116.221 48.4786 117.458C47.086 118.695 45.848 119.932 45.5386 121.169C45.3838 121.323 44.7649 121.787 43.9912 122.56C43.8364 122.715 43.6817 122.869 43.3722 123.024L43.2175 123.179C42.908 123.488 42.5985 123.797 42.289 124.106L42.1343 124.261C41.8248 124.415 41.6701 124.725 41.3606 125.034L41.2058 125.188C41.0511 125.343 40.7416 125.652 40.5869 125.807C39.9679 126.425 39.349 127.044 38.5753 127.817C38.2658 128.126 37.9563 128.59 37.4921 128.899H25.5771C26.8151 127.662 28.3625 125.961 30.0646 124.57C32.0762 122.869 34.2426 121.632 35.4805 121.787H35.6352H35.9447L36.0994 121.632L36.2542 121.323C37.3374 120.086 42.1343 115.448 49.2523 113.438C49.8713 113.284 50.645 113.129 51.5734 112.82C52.0376 113.284 52.5018 113.902 52.9661 114.366Z"
            fill="transparent" />
        <path id="Vector_29"
            d="M36.0988 129.827C36.0988 129.982 35.944 129.982 35.7893 130.137L35.6345 130.291C34.0872 131.992 32.385 134.002 30.6829 136.321C30.3734 136.63 30.0639 137.094 29.7544 137.558C29.1355 138.485 28.5165 139.413 27.8976 140.34C25.886 143.278 23.8743 146.37 21.8627 149.307C21.3985 150.08 20.9343 150.699 20.3153 151.472C19.5416 152.554 18.9227 153.482 18.149 154.564C17.6848 155.182 17.3753 155.801 16.9111 156.265L16.2921 157.038C16.2921 157.192 16.1374 157.192 16.1374 157.347C14.4352 159.666 13.0426 161.676 11.9594 163.067C11.1857 163.995 10.7215 164.768 10.5667 165.077H6.69824L23.5649 131.064C23.7196 130.91 23.8743 130.6 24.3386 130.137H36.0988V129.827Z"
            fill="transparent" />
        <path id="Vector_30"
            d="M360.589 261.396L360.28 269.9H248.093V250.11C248.093 227.847 239.118 207.749 224.727 193.216C210.336 178.683 190.374 169.561 168.401 169.561C146.428 169.561 126.467 178.528 112.076 193.216C97.6848 207.749 88.7099 227.847 88.7099 250.11V257.222C80.3539 257.222 70.4505 257.222 61.6303 257.222C51.5721 257.222 43.0614 257.222 39.9666 257.222H39.8118C30.9916 257.222 24.802 246.709 21.3977 242.38C19.5408 240.061 15.8271 239.288 12.4228 239.133C12.268 238.824 12.268 238.36 12.1133 237.897C11.3396 234.495 10.4111 230.166 9.79217 226.301C9.79217 225.992 9.63743 225.528 9.63743 225.219C9.63743 225.064 9.63743 224.91 9.63743 224.755C9.17321 222.436 8.86372 220.426 8.70898 219.344C8.70898 219.189 8.70898 219.035 8.70898 219.035C8.70898 218.88 8.70898 218.88 8.70898 218.726L10.2564 217.18C14.7439 221.508 22.9451 225.992 23.0999 225.992H23.2546L80.3539 226.147L80.5086 225.837C85.7698 206.357 97.2206 189.351 112.695 177.292C128.169 165.232 147.511 157.966 168.401 157.966C210.181 157.966 245.617 186.568 256.294 225.374L256.449 225.683L267.281 225.528C268.209 229.393 269.137 233.568 270.066 237.587C273.006 249.801 275.637 260.778 275.637 260.778L275.791 261.087H360.589V261.396Z"
            fill="transparent" />
        <path id="Vector_31"
            d="M263.569 108.184C263.414 109.266 262.795 112.513 262.022 116.996C261.712 116.996 261.403 116.996 261.248 116.996C246.857 117.769 121.208 124.262 105.27 125.499L105.579 125.19L104.186 125.345C104.032 125.345 103.877 125.345 103.722 125.345C99.3894 125.809 48.4797 129.364 37.4932 129.983C37.6479 129.828 37.8026 129.674 37.8026 129.674L38.5763 128.746H38.2669L38.4216 128.591C38.8858 128.128 39.3501 127.664 39.8143 127.2C39.969 127.045 40.1238 126.891 40.2785 126.736C40.588 126.427 40.8975 126.118 41.0522 125.963C41.5164 125.499 41.8259 125.19 42.2901 124.881C42.5996 124.572 43.0638 124.262 43.3733 123.953C44.9207 122.562 46.0039 121.634 46.1586 121.48C46.6229 121.48 48.0155 121.325 50.4914 121.17C59.0021 120.397 79.7374 118.697 106.972 116.996C125.231 115.914 157.262 114.213 185.425 112.667C199.507 111.894 212.66 111.121 222.563 110.503C232.466 109.884 239.12 109.266 240.358 108.957H240.513L240.822 108.802C240.977 108.802 240.977 108.647 241.132 108.647H241.287C241.441 108.647 241.441 108.647 241.441 108.647H241.596C243.608 108.647 245.465 108.647 247.167 108.647C252.737 108.647 256.761 108.493 256.761 108.493L263.569 108.184Z"
            fill="transparent" />
        <path id="Vector_32"
            d="M102.792 126.426L77.2596 153.327L77.1049 153.636C76.3312 154.718 72.4627 159.202 66.4278 159.511C62.8688 159.666 57.6077 159.82 53.1202 159.82C49.2517 159.82 46.1569 159.82 45.2285 159.82L41.2053 155.8H18.6133C19.5417 154.564 20.4702 153.172 21.3986 151.781C23.8744 148.225 26.505 144.514 28.9808 140.804C29.5998 139.876 30.2188 138.949 30.8377 138.021C30.9924 137.866 30.9924 137.712 31.1472 137.557C31.4567 137.093 31.9209 136.475 32.2304 136.011C32.5398 135.547 33.0041 135.084 33.3135 134.62C34.3967 133.383 35.3252 132.146 36.2536 131.064C44.3001 130.6 94.1262 127.353 102.792 126.426Z"
            fill="transparent" />
        <path id="Vector_33"
            d="M88.7105 257.997V279.332H36.2538L24.3389 255.987H20.0062C20.0062 255.987 20.0062 255.832 19.8514 255.678C19.6967 255.369 19.5419 255.059 19.2325 254.596C19.0777 254.441 19.0777 254.132 18.923 253.977C18.7682 253.668 18.6135 253.359 18.304 252.895C17.2208 250.885 15.9829 248.411 14.8998 245.783C14.5903 245.01 14.2808 244.392 13.9713 243.619C13.6618 242.846 13.5071 242.227 13.1976 241.454C13.0429 240.99 12.8881 240.372 12.7334 239.908C15.9829 240.217 19.5419 240.99 21.0893 243C24.3389 247.175 30.5285 257.997 39.8128 257.997H39.9676C43.0624 257.997 51.573 257.997 61.6311 257.997C70.4513 257.997 80.3546 257.997 88.7105 257.997Z"
            fill="transparent" />
        <path id="Vector_34"
            d="M262.175 107.1L256.449 107.255C256.449 107.255 255.521 107.255 253.819 107.409C252.116 107.409 249.795 107.564 247.01 107.564C245.772 107.564 244.534 107.564 243.142 107.564L254.283 100.761L262.175 107.1Z"
            fill="transparent" />
        <path id="Vector_35"
            d="M251.036 98.2909L253.357 100.146L241.133 107.567C240.514 107.567 239.895 107.567 239.431 107.567C239.276 107.567 239.121 107.567 238.967 107.567C237.884 107.567 236.646 107.413 235.562 107.413C234.17 107.258 232.777 107.258 231.539 107.103C230.301 106.949 228.909 106.794 227.671 106.64H227.516C227.361 106.64 227.206 106.64 227.052 106.64C237.419 100.301 284.896 69.7594 314.761 51.3616L318.684 56.607C292.379 72.8404 251.501 98.1363 251.501 98.1363L251.036 98.2909Z"
            fill="transparent" />
        <path id="Vector_36"
            d="M303.801 69.5346L254.44 99.5276L253.047 98.2908C253.666 97.827 254.904 97.054 256.606 95.9718C264.652 91.0244 282.912 79.5838 302.564 67.3701L303.801 69.5346Z"
            fill="transparent" />
        <path id="Vector_37"
            d="M263.568 207.13C262.33 197.7 258.307 162.604 258.307 148.999C258.307 148.226 258.307 147.608 258.307 146.989C258.617 139.568 260.628 126.582 262.021 117.615C261.712 117.615 261.557 117.615 261.247 117.615C246.547 118.388 117.803 125.036 104.65 126.118L78.0344 153.947C77.5702 154.565 73.3922 159.976 66.4289 160.44C59.3108 160.904 44.92 160.904 44.92 160.904H44.7652L40.742 156.884H17.8404C14.1266 162.141 11.496 165.696 11.496 165.696L11.3413 165.851H6.23481L6.08007 166.16L9.79385 167.397L7.62748 174.818H2.67578V178.992H8.40118L7.62748 192.752H2.67578V204.811L7.318 209.45L10.5676 216.098C13.8171 219.19 19.3878 222.746 22.0184 224.292C22.6373 224.601 23.1015 224.91 23.2563 225.065L66.5836 225.219H67.2026H79.2724C90.1042 185.95 125.849 157.039 168.248 157.039C210.492 157.039 246.083 185.795 257.069 224.755L266.973 224.601C265.271 217.18 263.878 210.377 263.568 207.13ZM69.369 183.012C69.0595 184.094 67.3573 189.196 65.3457 194.917C63.3341 200.637 61.1677 206.821 59.4656 210.068C56.216 216.561 51.7285 217.18 51.5738 217.18C51.5738 217.18 51.1096 217.18 50.3359 217.18C50.1811 217.18 50.0264 217.18 49.8717 217.18C49.5622 217.18 49.2527 217.18 48.7885 217.18C48.6337 217.18 48.479 217.18 48.479 217.18C48.1695 217.18 48.0148 217.18 47.7053 217.18C47.3958 217.18 47.0863 217.18 46.7768 217.18C44.92 217.18 42.9083 217.334 40.742 217.334C40.5872 217.334 40.2777 217.334 39.9683 217.334C39.3493 217.334 38.5756 217.334 37.9566 217.489C37.6472 217.489 37.3377 217.489 37.0282 217.489C35.7903 217.489 34.5523 217.489 33.3144 217.644C33.0049 217.644 32.6955 217.644 32.2312 217.644C31.767 217.644 31.4575 217.644 30.9933 217.644C30.5291 217.644 30.0649 217.644 29.6006 217.644H29.4459C27.8985 217.644 26.6606 217.644 26.1963 217.644C24.8037 217.644 23.8752 217.334 23.2563 216.871C22.6373 216.407 22.1731 215.634 21.8636 215.17C21.2447 213.933 18.3046 208.522 16.9119 204.966C16.4477 203.729 16.293 202.956 16.293 202.338C16.293 201.719 16.4477 201.255 16.7572 200.946C17.0667 200.637 17.3761 200.637 17.3761 200.637L20.4709 200.328L40.2777 198.163L41.0514 191.67H13.9718V191.206C13.9718 191.206 13.9718 186.568 14.9003 181.93C15.3645 179.456 17.0667 178.219 18.6141 177.601C20.0067 176.983 21.3994 176.983 21.5541 176.983C21.7089 176.983 22.1731 176.983 22.9468 176.983H23.1015C23.411 176.983 23.7205 176.983 24.1847 176.983C24.3395 176.983 24.4942 176.983 24.6489 176.983C24.9584 176.983 25.1132 176.983 25.4226 176.983C25.7321 176.983 26.0416 176.983 26.3511 176.983C27.2795 176.983 28.208 176.983 29.1364 176.983C29.6006 176.983 30.0649 176.983 30.5291 176.983C30.9933 176.983 31.3028 176.983 31.767 176.983C32.8502 176.983 33.7786 176.983 34.8618 176.828C35.1713 176.828 35.6355 176.828 35.945 176.828C36.4092 176.828 37.0282 176.828 37.4924 176.828H37.8019C38.5756 176.828 39.3493 176.828 40.123 176.828C40.2777 176.828 40.4325 176.828 40.5872 176.828C41.0514 176.828 41.3609 176.828 41.8251 176.828C42.7536 176.828 43.5273 176.828 44.4557 176.828C45.2294 176.828 45.8484 176.828 46.6221 176.828C47.5506 176.828 48.6337 176.828 49.5622 176.828C50.1811 176.828 50.6454 176.828 51.2643 176.828C51.7285 176.828 52.3475 176.828 52.8117 176.828C56.6802 176.673 59.9298 176.673 61.9414 176.673C62.4057 176.673 62.8699 176.673 63.1794 176.673C65.3457 176.673 66.8931 177.292 67.8216 178.219C68.75 179.147 69.2142 180.384 69.2142 181.466C69.6785 181.93 69.5237 182.548 69.369 183.012Z"
            fill="transparent" />
        <path id="Vector_38"
            d="M68.5924 181.311C68.5924 181.775 68.4377 182.239 68.2829 182.702C67.8187 183.785 66.2713 189.041 64.2597 194.762C62.4028 200.482 60.0817 206.666 58.5343 209.913C56.9869 213.005 55.1301 214.705 53.7374 215.478C53.1184 215.942 52.4995 216.097 52.0353 216.251C51.8805 216.251 51.7258 216.406 51.571 216.406H51.4163C51.2616 216.406 51.1068 216.406 50.6426 216.406C50.4879 216.406 50.3331 216.406 50.1784 216.406C50.0236 216.406 49.8689 216.406 49.7142 216.406C49.4047 216.406 49.0952 216.406 48.631 216.406C48.4763 216.406 48.3215 216.406 48.3215 216.406C48.3215 216.406 48.012 216.406 47.8573 216.406C47.3931 216.406 46.9289 216.406 46.4646 216.406C44.6078 216.406 42.2867 216.561 39.8108 216.715C39.1919 216.715 38.4182 216.715 37.7992 216.715C37.335 216.715 36.8708 216.715 36.4066 216.715C35.3234 216.715 34.2402 216.715 33.157 216.87C32.8476 216.87 32.5381 216.87 32.2286 216.87C31.4549 216.87 30.6812 216.87 30.0622 217.024H29.7528C28.6696 216.406 27.4317 215.478 26.5032 213.778C24.8011 210.531 22.7895 204.811 21.7063 201.564L40.894 199.554L41.9772 191.051H19.2305C19.2305 190.896 19.2305 190.742 19.2305 190.433C19.2305 189.041 19.3852 186.722 20.0042 184.403C20.6231 182.084 21.7063 179.765 23.4084 178.374C23.5632 178.374 23.7179 178.374 23.7179 178.374H24.0274C24.4916 178.374 24.9558 178.374 25.5748 178.374C25.8843 178.374 26.1938 178.374 26.5032 178.374H26.8127H26.9674C27.1222 178.374 27.2769 178.374 27.5864 178.374C27.8959 178.374 28.3601 178.374 28.6696 178.374C29.2885 178.374 30.0622 178.374 30.8359 178.374C30.9907 178.374 30.9907 178.374 31.1454 178.374C32.0739 178.374 32.8476 178.374 33.776 178.374C33.9307 178.374 34.0855 178.374 34.2402 178.374C34.7044 178.374 35.0139 178.374 35.4781 178.374C37.335 178.374 39.1919 178.219 41.0488 178.219C42.1319 178.219 43.0604 178.219 44.1435 178.064C44.2983 178.064 44.453 178.064 44.6078 178.064C45.5362 178.064 46.3099 178.064 47.2383 178.064C49.2499 178.064 51.1068 177.91 52.9637 177.91C53.4279 177.91 53.8921 177.91 54.3564 177.91C57.9154 177.91 60.8554 177.755 62.5576 177.755C63.0218 177.755 63.486 177.755 63.7955 177.755C65.8071 177.755 67.045 178.374 67.8187 178.992C68.2829 179.456 68.5924 180.383 68.5924 181.311Z"
            fill="transparent" />
        <path id="Vector_39"
            d="M28.2077 217.025C27.4341 217.025 26.6604 217.025 26.3509 217.025C25.113 217.025 24.3393 216.716 24.0298 216.407C23.5656 216.097 23.2561 215.634 22.9466 215.015C22.3276 213.778 19.3876 208.367 17.9949 204.966C17.5307 203.884 17.376 203.111 17.376 202.647C17.376 202.183 17.5307 202.028 17.5307 202.028L20.7802 201.719C21.8634 204.811 23.875 210.686 25.7319 214.242C26.5056 215.479 27.4341 216.407 28.2077 217.025Z"
            fill="transparent" />
        <path id="Vector_40"
            d="M19.0789 184.094C18.4599 186.568 18.3052 189.042 18.3052 190.433C18.3052 190.588 18.3052 190.897 18.3052 191.051H15.0557C15.0557 190.588 15.0557 189.815 15.2104 188.732C15.3651 187.032 15.5199 184.867 15.9841 182.548C16.4483 180.538 17.841 179.456 19.0789 178.992C19.6979 178.683 20.3168 178.529 20.9358 178.529C21.0905 178.529 21.4 178.529 21.5547 178.529H21.7095C21.7095 178.529 21.8642 178.529 22.0189 178.529C20.3168 180.075 19.5431 182.084 19.0789 184.094Z"
            fill="transparent" />
    </g>
    <g id="bumper" class="hover-group">
        <path id="Vector_41"
            d="M862.419 206.468V212.967C860.717 212.967 859.015 212.812 857.313 212.812C855.61 212.812 853.908 212.967 852.361 213.431C850.814 213.895 849.576 214.669 848.802 216.062C847.873 217.764 846.636 221.013 845.552 224.572C845.398 224.882 845.398 225.346 845.243 225.655L764.933 232.464C763.076 222.87 760.6 213.74 759.672 210.646L844.005 209.408L844.16 209.098L844.314 208.789C844.624 208.17 845.552 206.932 846.79 205.539C848.028 204.301 849.421 203.063 850.814 202.909C851.587 202.909 852.361 202.754 853.289 202.754C854.991 202.754 856.848 202.909 858.396 203.063C859.479 203.063 860.253 203.218 860.562 203.218L862.419 206.468Z"
            fill="transparent" fill-opacity="0.666667" />
        <path id="Vector_42"
            d="M862.42 214.048V218.226C860.563 218.381 858.551 218.69 856.849 218.999C854.992 219.309 853.445 219.773 852.671 220.237C852.362 220.392 852.207 220.702 851.897 221.011C851.124 222.249 850.041 224.415 848.957 226.891C847.874 229.212 846.946 231.843 846.172 233.7H845.863L843.696 234.009C844.47 231.379 845.398 227.974 846.482 224.725C847.565 221.166 848.803 217.916 849.731 216.524C850.505 215.44 851.433 214.667 852.826 214.357C854.064 214.048 855.766 213.893 857.468 213.893C859.016 214.048 860.718 214.048 862.42 214.048Z"
            fill="transparent" fill-opacity="0.666667" />
        <path id="Vector_43"
            d="M862.419 219.311V230.916L847.409 233.547C848.183 231.38 849.421 228.595 850.504 226.274C851.123 224.881 851.742 223.643 852.206 222.715C852.516 222.251 852.67 221.786 852.98 221.632C853.135 221.322 853.289 221.167 853.444 221.167C853.908 220.858 855.456 220.394 857.312 220.084C858.705 219.775 860.717 219.465 862.419 219.311Z"
            fill="transparent" fill-opacity="0.666667" />
        <path id="Vector_44"
            d="M844.933 226.275C844.005 229.215 843.231 232.155 842.612 234.476L766.79 249.022C766.79 244.379 766.016 238.654 765.088 233.083L844.933 226.275Z"
            fill="transparent" fill-opacity="0.666667" />
        <path id="Vector_45"
            d="M860.255 191.147V202.598C859.017 202.443 855.922 202.134 853.137 202.134C852.209 202.134 851.28 202.134 850.506 202.288C848.495 202.598 846.638 204.145 845.4 205.693C844.317 206.931 843.698 208.014 843.388 208.478L759.365 209.561C757.044 204.764 754.413 200.122 751.318 195.789L844.781 189.445L844.936 189.6H848.65V189.755L860.255 191.147Z"
            fill="transparent" fill-opacity="0.666667" />
    </g>
    <g id="line">
        <path id="Vector_46"
            d="M742.91 250.726H743.375C743.375 213.645 713.355 183.701 676.527 183.701C639.544 183.701 609.679 213.8 609.679 250.726C609.679 287.807 639.698 317.751 676.527 317.751C713.51 317.751 743.375 287.652 743.375 250.726H742.91H742.446C742.446 269.034 735.019 285.48 723.104 297.426C711.189 309.373 694.631 316.82 676.527 316.82C658.267 316.82 641.865 309.373 629.95 297.426C618.035 285.48 610.607 269.034 610.607 250.726C610.607 232.418 618.035 215.972 629.95 204.026C641.865 192.079 658.422 184.632 676.527 184.632C694.786 184.632 711.189 192.079 723.104 204.026C735.019 215.972 742.446 232.418 742.446 250.726H742.91Z"
            fill="#3265B1" />
        <path id="Vector_47"
            d="M691.689 204.182L691.843 203.716C686.737 202.01 681.63 201.234 676.679 201.234C655.943 201.234 636.601 214.577 629.792 235.367C628.09 240.487 627.316 245.607 627.316 250.572C627.316 271.362 640.624 290.756 661.359 297.582C666.466 299.289 671.572 300.065 676.524 300.065C697.259 300.065 716.602 286.722 723.41 265.932C725.112 260.812 725.886 255.692 725.886 250.727C725.886 229.937 712.578 210.543 691.843 203.716L691.689 204.182L691.534 204.647C711.96 211.319 724.958 230.247 724.958 250.572C724.958 255.537 724.184 260.501 722.637 265.466C715.983 285.946 697.104 298.979 676.833 298.979C671.882 298.979 666.93 298.203 661.978 296.651C641.553 289.98 628.554 271.052 628.554 250.727C628.554 245.762 629.328 240.797 630.875 235.832C637.529 215.353 656.408 202.32 676.679 202.32C681.63 202.32 686.582 203.096 691.534 204.647L691.689 204.182Z"
            fill="#3265B1" />
        <path id="Vector_48"
            d="M235.515 250.726H235.979C235.979 213.645 205.959 183.701 169.131 183.701C132.148 183.701 102.283 213.8 102.283 250.726C102.283 287.807 132.303 317.751 169.131 317.751C206.114 317.751 235.979 287.652 235.979 250.726H235.515H235.051C235.051 269.034 227.623 285.48 215.708 297.426C203.793 309.373 187.391 316.82 169.131 316.82C150.872 316.82 134.469 309.373 122.554 297.426C110.639 285.48 103.212 269.034 103.212 250.726C103.212 232.418 110.639 215.972 122.554 204.026C134.469 192.079 151.027 184.632 169.131 184.632C187.391 184.632 203.793 192.079 215.708 204.026C227.623 215.972 235.051 232.418 235.051 250.726H235.515Z"
            fill="#3265B1" />
        <path id="Vector_49"
            d="M184.142 204.182L184.296 203.716C179.19 202.01 174.083 201.234 169.132 201.234C148.397 201.234 129.054 214.577 122.245 235.367C120.543 240.487 119.77 245.607 119.77 250.572C119.77 271.362 133.077 290.756 153.812 297.582C158.919 299.289 164.025 300.065 168.977 300.065C189.712 300.065 209.055 286.722 215.863 265.932C217.566 260.812 218.339 255.692 218.339 250.727C218.339 229.937 205.032 210.543 184.296 203.716L184.142 204.182L183.987 204.647C204.413 211.319 217.411 230.247 217.411 250.572C217.411 255.537 216.637 260.501 215.09 265.466C208.436 285.946 189.558 298.979 169.287 298.979C164.335 298.979 159.383 298.203 154.431 296.651C134.006 289.98 121.007 271.052 121.007 250.727C121.007 245.762 121.781 240.797 123.329 235.832C129.982 215.353 148.861 202.32 169.132 202.32C174.083 202.32 179.035 203.096 183.987 204.647L184.142 204.182Z"
            fill="#3265B1" />
        <path id="Vector_50"
            d="M441.63 125.676H441.011C441.011 126.296 440.393 126.917 439.774 126.917L396.756 126.296C395.982 126.296 395.518 125.676 395.518 125.055V123.504C395.518 122.728 396.137 122.262 396.756 122.262L439.774 121.331C440.393 121.331 441.011 121.952 441.011 122.573V125.676H441.63H442.095V122.573C442.095 121.331 441.012 120.245 439.774 120.245L396.756 121.176C395.518 121.176 394.435 122.262 394.435 123.504V125.055C394.435 126.296 395.518 127.382 396.756 127.382L439.774 128.003C441.012 128.003 442.095 126.917 442.095 125.676H441.63Z"
            fill="#3265B1" />
        <path id="Vector_51"
            d="M645.733 119.157H645.269C645.269 119.778 644.65 120.398 644.031 120.398L601.013 119.778C600.239 119.778 599.775 119.157 599.775 118.536V116.985C599.775 116.209 600.394 115.744 601.013 115.744L644.031 114.968C644.65 114.968 645.269 115.588 645.269 116.209V119.312H645.733H646.197V116.209C646.197 114.968 645.114 113.882 643.876 113.882L600.858 114.658C599.62 114.658 598.537 115.744 598.537 116.985V118.536C598.537 119.778 599.62 120.864 600.858 120.864L643.876 121.484C645.114 121.484 646.197 120.398 646.197 119.157H645.733Z"
            fill="#3265B1" />
        <path id="Vector_52"
            d="M23.9833 129.4L23.6738 129.089C23.0548 129.865 22.5906 130.331 22.5906 130.331L4.9502 166.015H11.1398L11.2946 165.86C11.2946 165.86 20.8885 152.827 28.7803 140.881C31.7203 136.537 34.8151 132.658 37.6005 129.71L38.3742 128.779H23.9833L23.8286 128.934L23.9833 129.4V129.865H37.1362V129.4L36.8268 129.089C34.0414 132.192 30.9466 135.916 28.0066 140.415C24.138 146.311 19.6506 152.672 16.401 157.327C14.6989 159.654 13.3062 161.671 12.223 163.067C11.1398 164.464 10.6756 165.239 10.6756 165.239L11.1398 165.55V165.084H6.4976L23.3643 130.796L22.9001 130.641L23.3643 130.951C23.3643 130.951 23.8286 130.486 24.4475 129.71L23.9833 129.4Z"
            fill="#3265B1" />
        <path id="Vector_53"
            d="M35.4342 121.176V120.866H35.1247C32.8036 120.866 29.7088 123.193 27.2329 125.675C24.7571 128.002 22.7455 130.33 22.7455 130.33L5.25977 165.859H10.8304L10.9852 165.704C10.9852 165.704 20.5791 152.671 28.4709 140.725C32.3394 134.829 36.6721 129.864 40.0764 126.606C41.7785 124.899 43.1712 123.658 44.0997 122.727C45.0281 121.796 45.6471 121.331 45.6471 121.331V121.176C45.8018 120.245 46.885 118.849 48.4324 117.607C49.8251 116.366 51.6819 115.28 53.0746 114.504L53.3841 114.349L53.2294 114.039C52.7651 113.418 51.9914 112.643 51.3725 111.867L51.2177 111.712H51.063C50.1345 111.867 49.3608 112.177 48.7419 112.332C40.3859 114.66 35.1247 120.71 35.1247 120.71L35.4342 121.176L35.5889 121.331C35.5889 121.331 35.8984 121.021 36.5174 120.4C38.3743 118.538 42.8617 114.815 48.8966 113.108C49.5156 112.953 50.2893 112.798 51.2177 112.487V112.177L51.063 112.332C51.8367 113.108 52.4557 113.884 52.9199 114.504L53.0746 114.349L52.9199 114.039C51.3725 114.815 49.5156 115.901 48.1229 117.297C46.5755 118.538 45.4923 119.935 45.1828 121.021H45.4923H45.3376C45.3376 121.021 35.8984 128.468 28.0066 140.57C24.1381 146.465 19.6506 152.827 16.4011 157.481C14.6989 159.808 13.3063 161.825 12.2231 163.222C11.1399 164.618 10.6757 165.394 10.6757 165.394L10.8304 165.549V165.239H6.18821L23.2097 130.64C23.2097 130.64 23.6739 130.019 24.4476 129.244C25.6855 128.002 27.5424 125.986 29.554 124.279C31.5657 122.572 33.732 121.331 35.1247 121.331H35.2794H35.4342L35.5889 121.176H35.4342Z"
            fill="#3265B1" />
        <path id="Vector_54"
            d="M844.112 117.297H830.959C830.65 113.728 830.186 110.625 829.876 108.763C829.876 108.763 829.876 108.453 829.721 107.988H846.898C846.898 108.763 847.052 109.539 847.052 110.315C847.052 111.401 847.052 112.642 847.207 113.573C847.207 112.332 847.207 110.625 847.052 109.074H830.34C830.65 110.935 830.959 113.418 831.269 116.366H844.731L847.207 115.745C847.207 115.9 847.207 115.9 847.207 115.9L844.267 116.521L844.112 117.297ZM830.34 117.297H830.031V116.831C829.721 113.573 829.412 110.625 828.948 108.918V108.608L828.793 107.988H829.102C829.257 108.453 829.257 108.763 829.257 108.763C829.721 110.78 830.031 113.728 830.34 117.297ZM848.136 116.366C848.136 116.211 848.136 114.969 848.136 113.108C848.136 114.504 848.136 115.435 848.136 115.9V116.366Z"
            fill="#3265B1" />
        <path id="Vector_55"
            d="M844.112 117.297H830.959C830.65 113.728 830.186 110.625 829.876 108.763C829.876 108.763 829.876 108.453 829.721 107.988H846.898C846.898 108.763 847.052 109.539 847.052 110.315C847.052 111.401 847.052 112.642 847.207 113.573C847.207 112.332 847.207 110.625 847.052 109.074H830.34C830.65 110.935 830.959 113.418 831.269 116.366H844.731L847.207 115.745C847.207 115.9 847.207 115.9 847.207 115.9L844.267 116.521L844.112 117.297ZM830.34 117.297H830.031V116.831C829.721 113.573 829.412 110.625 828.948 108.918V108.608L828.793 107.988H829.102C829.257 108.453 829.257 108.763 829.257 108.763C829.721 110.78 830.031 113.728 830.34 117.297ZM848.136 116.366C848.136 116.211 848.136 114.969 848.136 113.108C848.136 114.504 848.136 115.435 848.136 115.9V116.366Z"
            fill="#3265B1" />
        <path id="Vector_56"
            d="M860.822 203.095H861.286V190.217L849.371 188.976V189.441L849.835 189.286C849.835 189.286 849.68 188.976 849.526 188.355C848.907 186.494 847.669 182.46 847.669 179.046V178.736C847.669 176.254 848.288 171.444 848.752 167.255C849.371 163.066 849.835 159.497 849.835 159.497V159.342L844.265 135.604L845.038 117.141L847.978 116.521V116.055C847.978 116.055 847.978 113.263 847.824 110.004C847.669 106.746 847.514 103.178 847.05 101.626C846.586 99.9196 844.884 97.1269 843.181 94.6445C841.634 92.1621 840.087 89.99 840.087 89.99L786.546 24.8268L798.771 21.1032L795.986 18.3104L736.72 11.7941V12.2596L737.029 11.9493C734.708 9.77717 730.53 7.91536 725.424 6.36386C720.317 4.81235 714.282 3.57115 708.402 2.7954C705.308 2.32994 696.952 2.01964 685.346 1.70934C650.375 0.77844 586.467 0.312988 555.519 0.312988C514.203 0.312988 439.773 1.39904 430.334 2.01964C420.894 2.64025 399.695 8.53596 399.695 8.53596L399.85 9.00141V8.53596C399.85 8.53596 395.517 9.00141 389.482 9.46687C383.447 10.0875 375.865 10.8632 369.211 11.4838C355.749 12.725 335.168 22.4995 335.013 22.4995C335.013 22.4995 294.936 45.7721 277.14 57.2532C259.345 68.7343 222.362 94.9548 222.362 94.9548L222.672 95.4202V94.9548L217.101 94.4893L211.53 97.9026L210.602 96.9717L210.447 96.8166L196.675 92.6275H196.52C187.855 95.1099 177.023 94.6445 136.326 98.8335C90.6779 103.488 56.9445 110.004 48.5885 112.332C40.2325 114.659 34.9713 120.865 34.8165 120.865L35.2808 121.175V120.71H34.9713C33.7334 120.71 32.3407 121.33 30.948 122.261C26.77 124.899 22.4373 130.174 22.2826 130.329L4.48739 167.1L8.3559 168.341L6.65376 174.082H1.39258V180.288H7.11798L6.49902 192.079H1.39258V205.577L6.34428 210.542L9.43909 216.903L7.27272 219.075V219.385C7.27272 219.385 9.59383 233.349 11.4507 240.331C13.3076 247.313 19.033 257.397 19.033 257.397L19.1877 257.708H23.5205L35.4355 281.135H89.5947V250.881C89.5947 228.85 98.4149 208.835 112.651 194.406C126.887 179.977 146.539 170.978 168.358 170.978C190.021 170.978 209.673 179.977 224.064 194.406C238.3 208.835 247.121 228.85 247.121 250.881V271.516H600.239V250.26C600.239 228.074 608.904 208.059 622.986 193.475C637.067 178.891 656.41 170.048 677.764 170.048C699.118 170.048 718.46 179.046 732.542 193.475C746.623 208.059 755.289 228.074 755.289 250.26V251.812V252.432L843.336 235.521L864.071 231.953V206.198L861.75 202.784L860.822 203.095L860.358 203.405L862.524 206.508V231.022L842.717 234.435L755.908 251.191V250.26C755.908 227.764 747.088 207.439 733.006 192.855C718.77 178.115 699.118 169.117 677.454 169.117C655.791 169.117 636.139 178.271 621.902 192.855C607.666 207.594 599.001 227.919 599.001 250.26V270.43H247.894V250.571C247.894 228.229 238.919 208.059 224.529 193.475C210.138 178.891 190.176 169.737 168.203 169.737C146.23 169.737 126.268 178.736 111.877 193.475C97.4865 208.059 88.5115 228.384 88.5115 250.571V279.739H36.0545L24.1394 256.311H19.4972V256.777L19.9614 256.466C19.9614 256.466 19.652 255.846 19.033 254.76C17.3309 251.657 13.7718 244.675 12.5339 239.71C11.6055 236.297 10.677 231.022 9.74857 226.678C8.97487 222.333 8.3559 218.92 8.3559 218.92L7.89168 219.075L8.20116 219.385L10.677 216.903L7.11798 209.766L2.47576 205.112V193.01H7.42746L8.20116 179.201H2.47576V175.012H7.42746L9.59383 167.565L5.88006 166.324L23.5205 130.639L23.0563 130.484L23.5205 130.795C23.5205 130.795 23.9847 130.174 24.7584 129.398C25.9963 128.157 27.8532 126.14 29.8648 124.433C31.8765 122.727 33.8881 121.486 35.2808 121.641H35.4355H35.745L35.8997 121.486L36.0545 121.175C37.1377 120.089 41.9346 115.279 49.0527 113.263C57.2539 110.935 90.9874 104.419 136.636 99.7644C177.333 95.5754 188.01 96.0408 196.985 93.5584L196.83 93.093L196.675 93.5584L209.983 97.5923L211.066 98.6784L211.376 98.9887L217.41 95.2651L222.826 95.7305L222.981 95.5754C222.981 95.5754 225.302 93.8687 229.016 91.2312C240.312 83.3185 264.452 66.4071 277.759 57.8738C286.58 52.1332 301.125 43.4448 313.35 36.3079C319.539 32.7394 324.955 29.4813 329.133 26.9989C333.156 24.6716 335.632 23.1201 335.632 23.1201L335.323 22.6547L335.478 23.1201C335.478 23.1201 336.715 22.4995 338.882 21.5686C345.226 18.7759 359.462 13.0353 369.211 12.1044C382.519 10.8632 399.85 9.15657 399.85 9.15657C399.85 9.15657 401.242 8.84626 403.254 8.22566C409.598 6.51901 423.37 3.1057 430.334 2.64025C439.618 2.01964 514.048 0.93359 555.364 0.93359C576.099 0.93359 611.38 1.08874 642.947 1.55419C658.731 1.70934 673.586 2.01964 685.346 2.32994C696.952 2.64025 705.462 2.95055 708.402 3.416C714.282 4.19175 720.317 5.43295 725.269 6.98446C730.376 8.53596 734.399 10.3978 736.565 12.4147L736.72 12.5699L795.831 19.0862L797.069 20.3274L784.999 24.051L839.468 90.4554C839.468 90.4554 839.777 90.9209 840.396 91.8518C841.17 93.093 842.562 95.1099 843.646 96.9717C844.729 98.8335 845.812 100.85 846.121 101.781C846.586 103.178 846.74 106.746 846.895 109.849C847.05 112.952 847.05 115.745 847.05 115.9H847.514L847.359 115.435L843.955 116.055L843.336 135.759L848.907 159.497L849.371 159.342L848.907 159.187C848.907 159.187 846.586 173.461 846.586 178.581V178.891C846.74 183.701 848.907 189.441 848.907 189.597L849.062 189.907L860.358 191.148V203.25L860.512 203.405L860.822 203.095Z"
            fill="#3265B1" />
        <path id="Vector_57"
            d="M241.088 107.99L240.933 107.834C240.314 108.145 240.005 108.3 240.005 108.3H239.85C238.767 108.61 231.958 109.076 222.209 109.696C192.499 111.558 134.007 114.661 106.618 116.368C70.2541 118.54 45.6504 120.867 45.6504 120.867C45.6504 120.867 41.3176 124.436 35.9017 130.331L35.4375 130.797H36.0565C43.6388 130.331 99.0359 126.608 103.678 125.987C108.63 125.366 246.039 118.074 261.204 117.454C276.369 116.678 447.667 110.007 462.522 109.231C477.377 108.455 601.479 105.197 622.523 103.645C641.866 102.249 647.437 94.6466 647.437 88.9061C647.437 88.4406 647.437 87.82 647.282 87.3546C646.972 85.8031 645.116 82.3898 642.33 77.8904C633.974 64.2372 617.262 40.4991 609.061 31.1901C598.848 19.709 583.374 19.2435 574.399 19.2435C573.625 19.2435 573.006 19.2435 572.387 19.2435C565.734 19.2435 517.609 19.0884 489.601 19.0884C482.638 19.0884 476.912 19.0884 473.353 19.0884C455.558 19.2435 404.339 20.795 392.115 21.2605C385.306 21.4156 380.2 23.2774 377.26 24.9841L241.243 107.679L241.088 107.99L241.243 108.145L377.26 25.4495C380.2 23.898 385.306 22.0362 391.96 21.8811C404.184 21.5708 455.404 19.8641 473.199 19.709C476.758 19.709 482.483 19.709 489.446 19.709C517.455 19.709 565.579 19.8641 572.233 19.8641C572.852 19.8641 573.471 19.8641 574.244 19.8641C583.065 19.8641 598.384 20.3296 608.442 31.6556C613.858 37.8616 623.142 50.4288 631.189 62.2202C635.212 68.1159 638.926 73.7013 641.711 78.3559C644.497 82.8552 646.353 86.4237 646.508 87.6649C646.663 88.1303 646.663 88.5958 646.663 89.0612C646.663 94.4915 641.402 101.939 622.214 103.335C601.169 104.887 477.067 108.145 462.367 108.92C447.512 109.696 276.214 116.368 261.049 117.143C245.885 117.919 108.475 125.056 103.523 125.677C98.8812 126.297 43.484 130.021 35.9017 130.486V130.797L36.0565 130.952C38.6871 128.004 41.1629 125.522 42.8651 123.97C44.5672 122.419 45.6504 121.488 45.6504 121.488L45.4956 121.333V121.643C45.4956 121.643 47.043 121.488 49.8284 121.177C58.4939 120.402 79.0743 118.695 106.309 116.988C124.568 115.902 156.599 114.196 184.762 112.489C198.844 111.713 211.997 110.937 221.9 110.317C231.803 109.696 238.457 109.231 239.695 108.765H239.85L240.159 108.61C240.314 108.455 240.624 108.455 241.088 108.145V107.99Z"
            fill="#3265B1" />
        <path id="Vector_58"
            d="M839.935 90.457V90.1467L819.818 90.3019H819.664L819.509 90.457L826.317 99.4558H826.472C835.447 99.3006 842.256 99.3006 845.35 99.3006H845.815L845.66 98.9903C843.648 95.4218 840.399 90.6122 840.244 90.3019V90.1467H840.089L839.935 90.457L839.78 90.6122C839.935 90.7673 843.184 95.577 845.196 99.1455L845.35 98.9903V98.68C842.256 98.68 835.447 98.8352 826.472 98.8352V99.1455L826.627 98.9903L820.128 90.3019L819.973 90.457V90.7673L840.089 90.6122L839.935 90.457Z"
            fill="#3265B1" />
        <path id="Vector_59"
            d="M796.292 18.93V18.6197C796.292 18.6197 792.269 18.7749 787.317 19.0852C782.365 19.2403 776.64 19.5506 773.081 19.5506C772.617 19.5506 772.152 19.5506 771.843 19.5506C768.748 19.5506 760.856 18.6197 753.738 17.6888C750.179 17.2234 746.775 16.7579 744.454 16.4476C741.978 16.1373 740.43 15.9822 740.43 15.9822L738.109 15.6719L740.276 16.4476C740.276 16.4476 741.823 17.0682 744.144 17.844C751.262 20.4815 765.963 26.2221 769.831 28.3942H769.986L785.924 24.8258L798.458 20.947L796.601 18.4646H796.447L796.292 18.93L796.137 19.0852L797.53 20.7918L785.769 24.3603L769.831 27.9288V28.2391L769.986 28.0839C767.355 26.5324 760.083 23.5845 753.274 20.947C746.465 18.3094 740.43 15.9822 740.43 15.9822L740.276 16.2925V16.6028C740.276 16.6028 765.498 20.0161 771.843 20.1712C772.152 20.1712 772.617 20.1712 773.081 20.1712C780.199 20.1712 796.292 19.3955 796.292 19.3955V18.93Z"
            fill="#3265B1" />
        <path id="Vector_60"
            d="M830.957 117.297H830.493C830.183 113.728 829.874 110.78 829.41 108.763C829.41 108.763 829.41 108.453 829.255 107.988H829.719C829.719 108.453 829.874 108.763 829.874 108.763C830.183 110.78 830.648 113.728 830.957 117.297Z"
            fill="#3265B1" />
        <path id="Vector_61"
            d="M830.957 117.297H830.493C830.183 113.728 829.874 110.78 829.41 108.763C829.41 108.763 829.41 108.453 829.255 107.988H829.719C829.719 108.453 829.874 108.763 829.874 108.763C830.183 110.78 830.648 113.728 830.957 117.297Z"
            fill="#3265B1" />
        <path id="Vector_62"
            d="M848.754 189.289H849.063C848.599 187.893 847.051 183.083 846.896 179.05C847.051 183.083 848.599 188.048 849.063 189.289C848.908 189.289 848.908 189.289 848.754 189.289Z"
            fill="#3265B1" />
        <path id="Vector_63"
            d="M845.04 189.597C846.743 189.442 848.136 189.287 848.755 189.287C848.909 189.287 848.909 189.287 849.064 189.287C848.6 188.046 847.052 183.081 846.897 179.047V178.737C846.897 173.927 849.064 160.429 849.219 159.498L843.647 135.76L844.421 116.522L847.362 115.901C847.362 115.125 847.362 112.798 847.207 110.16C847.052 107.057 846.897 103.334 846.433 101.937C846.278 101.317 845.814 100.386 845.195 99.2998H845.35H845.814C846.278 100.231 846.743 101.162 846.897 101.782C847.362 103.334 847.671 106.902 847.671 110.16C847.826 113.263 847.826 115.901 847.826 116.211V116.366L844.886 116.987L844.112 135.605L849.683 159.188C849.683 159.188 849.064 162.756 848.6 166.945C847.981 171.134 847.517 175.944 847.517 178.427V178.737C847.517 181.064 848.136 183.702 848.755 185.719C849.219 187.425 849.683 188.666 849.838 188.977H849.683C849.374 189.132 847.671 189.287 845.04 189.597Z"
            fill="#3265B1" />
        <path id="Vector_64"
            d="M825.699 99.6114L825.544 99.146H825.853L826.163 99.6114H826.318C828.484 99.6114 830.496 99.6114 832.508 99.6114C830.342 99.6114 828.02 99.6114 825.699 99.6114Z"
            fill="#3265B1" />
        <path id="Vector_65"
            d="M860.979 202.631C860.979 202.631 860.824 202.631 860.67 202.631V190.994L849.373 189.753H849.683L849.528 189.443C849.528 189.443 849.528 189.443 849.528 189.288L861.134 190.529V202.786L860.979 202.631Z"
            fill="#3265B1" />
        <path id="Vector_66"
            d="M849.377 189.753H845.199C845.199 189.753 845.199 189.753 845.044 189.598C847.83 189.443 849.377 189.288 849.377 189.288H849.532C849.532 189.443 849.532 189.443 849.532 189.443L849.687 189.753H849.377Z"
            fill="#3265B1" />
        <path id="Vector_67"
            d="M58.9546 210.234L59.4188 210.545C61.121 207.287 63.2873 201.081 65.299 195.185C67.3106 189.444 68.858 184.169 69.3222 183.238C69.477 182.773 69.6317 182.152 69.6317 181.532C69.6317 180.446 69.3222 179.204 68.239 178.273C67.3106 177.343 65.7632 176.722 63.5968 176.722C63.2873 176.722 62.8231 176.722 62.3589 176.722C55.0861 176.722 29.8634 177.498 23.2095 177.653H23.0548L22.9 177.808C20.7337 179.515 19.6505 181.997 19.0315 184.479C18.4126 186.962 18.2578 189.444 18.2578 190.841C18.2578 191.306 18.2578 191.772 18.2578 191.927V192.392H41.0047L40.231 198.908L20.4242 201.081L20.5789 201.701C21.6621 204.649 23.6737 211.01 25.6854 214.579C26.7685 216.596 28.1612 217.682 29.3991 218.457H29.5539H29.7086C36.8267 218.302 51.527 217.682 51.527 217.682C51.6818 217.682 56.0145 217.216 59.4188 210.545L58.9546 210.234L58.4904 210.079C56.943 213.182 55.0861 214.889 53.6934 215.665C53.0745 216.13 52.4555 216.285 51.9913 216.44C51.8365 216.44 51.6818 216.596 51.527 216.596H51.3723C51.3723 216.596 47.6585 216.751 43.171 216.906C38.5288 217.061 33.1129 217.216 29.5539 217.371V217.837L29.8634 217.371C28.7802 216.751 27.3875 215.82 26.4591 213.958C24.6022 210.39 22.5905 204.184 21.5074 201.236L21.0431 201.391V201.856L41.0047 199.684L42.0879 191.151H18.5673V191.616H19.0315C19.0315 191.461 19.0315 190.996 19.0315 190.53C19.0315 189.134 19.1863 186.807 19.8052 184.479C20.4242 182.152 21.5074 179.825 23.3643 178.429L23.0548 177.963V178.429C29.7086 178.273 55.0861 177.498 62.2042 177.498C62.6684 177.498 63.1326 177.498 63.4421 177.498C65.4537 177.498 66.6916 178.118 67.4653 178.739C68.239 179.515 68.5485 180.29 68.5485 181.221C68.5485 181.687 68.3938 182.152 68.239 182.618C67.7748 183.704 66.2274 188.979 64.2158 194.719C62.2041 200.46 60.0378 206.666 58.4904 209.924L58.9546 210.234Z"
            fill="#3265B1" />
        <path id="Vector_68"
            d="M103.521 125.829V125.364C98.8785 125.984 43.6362 129.708 35.8991 130.173H35.7444L35.4349 130.328C32.9591 133.121 30.3285 136.534 27.6979 140.258C23.9841 145.844 20.1156 151.584 16.866 156.083L16.2471 156.859H40.3866L44.4099 160.893H44.5646C44.5646 160.893 58.9555 160.893 66.0735 160.428C73.5011 159.962 77.6791 153.911 77.6791 153.756H77.3696L77.6791 154.066L105.223 125.208L103.83 125.364C103.675 125.364 103.521 125.364 103.366 125.364L103.521 125.829V126.295C103.676 126.295 103.83 126.295 103.985 126.295V125.829L103.676 125.519L77.0601 153.446L76.9054 153.756C75.9769 154.842 72.1084 159.342 66.2283 159.652C62.6692 159.807 57.4081 159.962 52.9206 159.962C48.4331 159.962 44.8741 159.962 44.8741 159.962V160.428L45.1836 160.117L41.0056 155.928H17.3303V156.394L17.7945 156.704C21.044 152.05 25.0673 146.309 28.7811 140.879C31.2569 137.155 33.8875 133.742 36.3633 130.949L36.0539 130.639V131.104C43.6362 130.639 99.0333 126.915 103.676 126.295L103.521 125.829Z"
            fill="#3265B1" />
        <path id="Vector_69"
            d="M829.565 108.763H830.029C830.029 108.763 829.875 106.901 829.256 105.195C828.946 104.264 828.637 103.333 828.327 102.712C828.172 102.402 827.863 102.092 827.553 101.781C827.244 101.471 826.934 101.316 826.47 101.316C825.387 101.316 813.936 101.316 802.795 101.316C797.224 101.316 791.654 101.316 787.63 101.316C783.452 101.316 780.822 101.316 780.822 101.316C780.822 101.316 780.048 101.471 779.274 101.626C778.501 101.937 777.572 102.402 777.263 103.488V103.798C777.263 104.419 777.727 105.195 778.191 105.97C779.893 108.453 783.452 112.021 785.928 114.504C789.487 118.072 792.737 121.485 797.069 122.106C799.236 122.416 801.866 122.106 804.342 122.416C806.818 122.727 808.985 123.502 810.222 125.985C811.46 128.467 813.936 134.363 816.257 139.793C817.341 142.431 818.578 145.068 819.507 146.93C819.971 147.861 820.435 148.792 820.745 149.413C820.9 149.723 821.054 150.033 821.209 150.188C821.364 150.343 821.519 150.499 821.673 150.654C822.292 150.964 823.066 151.119 824.149 151.274C827.399 151.585 832.505 151.585 832.505 151.585H832.969V151.119C832.969 151.119 832.66 142.896 832.196 133.432C831.731 123.968 830.958 113.418 829.875 108.608L829.565 108.763L829.101 108.918C830.029 113.573 830.803 124.123 831.267 133.587C831.577 138.242 831.731 142.741 831.886 145.999C832.041 149.257 832.041 151.274 832.041 151.274H832.505V150.809C832.505 150.809 830.184 150.809 827.863 150.654C826.625 150.654 825.387 150.499 824.304 150.343C823.221 150.188 822.447 150.033 822.137 149.878C822.137 149.878 821.828 149.413 821.519 148.792C820.281 146.62 818.269 141.965 816.257 137.311C814.246 132.656 812.234 127.847 810.996 125.675C809.603 122.882 806.973 121.951 804.342 121.641C801.712 121.33 798.926 121.641 797.069 121.33C793.201 120.865 790.106 117.607 786.547 114.038C784.845 112.332 782.679 110.159 780.977 108.298C780.203 107.367 779.429 106.436 778.81 105.66C778.346 104.884 778.036 104.264 778.036 104.109C778.191 103.643 778.81 103.178 779.429 102.867C779.739 102.712 780.048 102.712 780.358 102.557H780.667H780.822C780.822 102.557 824.304 102.557 826.47 102.557L826.934 102.712C827.553 103.178 828.172 104.884 828.482 106.281C828.637 107.056 828.791 107.677 828.946 108.298C829.101 108.763 829.101 109.073 829.101 109.073L829.565 108.763Z"
            fill="#3265B1" />
        <path id="Vector_70"
            d="M21.3548 178.116V177.65C21.3548 177.65 19.9621 177.65 18.4147 178.271C16.8673 178.891 15.1651 180.133 14.7009 182.615C13.7725 187.27 13.7725 191.769 13.7725 191.924V192.39H40.8521L40.0784 198.906L17.3315 201.388C17.3315 201.388 17.022 201.388 16.7125 201.699C16.4031 202.009 16.2483 202.474 16.2483 203.095C16.2483 203.716 16.4031 204.646 16.8673 205.732C18.2599 209.301 21.2 214.731 21.9737 215.972C22.2832 216.593 22.5927 217.214 23.3664 217.679C23.9853 218.145 24.9138 218.455 26.3064 218.455C29.0918 218.455 51.5292 217.524 51.5292 217.524C51.6839 217.524 56.0166 217.058 59.4209 210.387C61.1231 207.129 63.2895 200.923 65.3011 195.027C67.3127 189.287 68.8601 184.011 69.3243 183.081C69.4791 182.615 69.6338 181.994 69.6338 181.374C69.6338 180.288 69.3243 179.047 68.2411 178.116C67.3127 177.185 65.7653 176.564 63.5989 176.564C63.2894 176.564 62.8252 176.564 62.361 176.564C54.005 176.564 21.5095 177.495 21.5095 177.495L21.3548 178.116V178.581C21.3548 178.581 23.3664 178.581 26.6159 178.426C36.2098 178.116 56.0166 177.65 62.2063 177.65C62.6705 177.65 63.1347 177.65 63.4442 177.65C65.4558 177.65 66.6937 178.271 67.4674 178.891C68.2411 179.667 68.5506 180.443 68.5506 181.374C68.5506 181.839 68.3959 182.305 68.2411 182.77C67.7769 183.856 66.2295 189.131 64.2179 194.872C62.2063 200.613 60.0399 206.819 58.4925 210.077C56.9451 213.18 55.0882 214.886 53.6955 215.662C53.0766 216.128 52.4576 216.283 51.9934 216.438C51.8386 216.438 51.6839 216.593 51.5292 216.593H51.3744C51.3744 216.593 45.8038 216.748 39.7689 217.058C33.734 217.214 27.5444 217.524 26.1517 217.524C24.9138 217.524 24.1401 217.214 23.8306 216.903C23.3664 216.593 23.0569 216.128 22.7474 215.507C22.1285 214.266 19.1884 208.835 17.7957 205.422C17.3315 204.336 17.1768 203.56 17.1768 203.095C17.1768 202.629 17.3315 202.474 17.3315 202.474L41.0068 199.837L42.09 191.304H14.2367V191.769H14.7009C14.7009 191.769 14.7009 190.683 14.8556 188.976C15.0104 187.27 15.1651 184.942 15.6293 182.77C16.0936 180.753 17.4862 179.667 18.7242 179.202C19.3431 178.891 19.9621 178.736 20.4263 178.736C20.7358 178.736 20.8905 178.736 21.0453 178.736H21.2L21.3548 178.116Z"
            fill="#3265B1" />
        <path id="Vector_71"
            d="M555.516 0.77844V0.312988C514.201 0.312988 439.77 1.39904 430.331 2.01964C421.82 2.64025 403.716 7.44991 400.312 8.38081L390.099 12.5699L392.884 12.4147C392.884 12.4147 395.669 12.2596 400.466 12.1044C414.702 11.639 445.805 10.7081 467.469 10.2426C485.264 9.93232 535.864 9.77717 577.954 9.77717C603.95 9.77717 626.697 9.77717 636.6 10.0875C649.599 10.2426 667.549 11.0184 682.404 11.7941C689.831 12.1044 696.33 12.4147 701.127 12.725C705.924 13.0353 708.71 13.1905 708.71 13.1905L741.205 16.1383L737.182 12.1044C734.861 9.93232 730.683 8.07051 725.576 6.51901C720.47 4.9675 714.435 3.7263 708.555 2.95055C705.46 2.48509 697.104 2.17479 685.498 1.86449C650.372 0.77844 586.464 0.312988 555.516 0.312988V0.77844V1.24389C576.252 1.24389 611.532 1.39904 643.1 1.86449C658.883 2.01964 673.738 2.32994 685.498 2.64025C697.104 2.95055 705.615 3.26085 708.555 3.7263C714.435 4.50205 720.47 5.74325 725.422 7.29476C730.528 8.84626 734.551 10.7081 736.718 12.725L737.027 12.4147L736.563 12.725L738.574 14.742L708.864 12.1044C708.864 12.1044 662.597 9.62202 636.755 9.15657C626.852 9.00141 604.105 8.84626 578.108 8.84626C536.019 8.84626 485.574 9.00141 467.624 9.31172C438.687 9.77717 393.039 11.3287 393.039 11.3287V11.7941V12.4147L400.466 9.31172C404.025 8.38081 422.13 3.57115 430.331 2.95055C439.616 2.32994 514.046 1.24389 555.362 1.24389V0.77844H555.516Z"
            fill="#3265B1" />
        <path id="Vector_72"
            d="M463.448 9.93308L463.603 9.77793L460.199 4.96826H460.044C453.235 5.12341 448.129 5.27856 445.808 5.27856C439.773 5.58886 434.976 8.22642 432.036 10.5537L431.417 11.0191H432.191C442.713 10.7088 453.7 10.3985 463.448 10.2434H463.913L463.603 9.77793L463.448 9.93308V9.62277C453.854 9.77793 442.713 10.0882 432.191 10.3985V10.7088L432.345 10.864C435.286 8.69187 439.928 6.05431 445.808 5.74401C448.129 5.58886 453.235 5.58886 460.044 5.43371V5.12341L459.889 5.27856L463.139 10.0882L463.448 9.93308Z"
            fill="#3265B1" />
        <path id="Vector_73"
            d="M618.806 9.46762L618.961 9.31247L615.093 4.50281H614.938C594.512 4.1925 571.92 4.03735 557.529 4.03735C542.674 4.03735 514.666 4.34765 490.217 4.65796H490.062L487.741 10.0882H488.205C511.881 9.93307 547.162 9.77792 577.955 9.77792C593.429 9.77792 607.665 9.77792 618.806 9.93307H619.271L618.961 9.31247L618.806 9.46762V9.15732C607.665 9.15732 593.429 9.00217 577.955 9.00217C547.162 9.00217 511.881 9.15732 488.205 9.31247V9.62277L488.515 9.77792L490.681 4.81311L490.372 4.65796V4.96826C514.821 4.65796 542.829 4.34765 557.684 4.34765C572.075 4.34765 594.822 4.65796 615.093 4.81311V4.50281L614.938 4.65796L618.806 9.46762Z"
            fill="#3265B1" />
        <path id="Vector_74"
            d="M702.213 8.84702L702.367 8.69187C701.594 8.22642 700.046 7.76097 697.725 7.29552C690.762 6.05431 677.454 4.96826 661.825 4.96826C659.04 4.96826 655.636 4.96826 651.767 4.96826H651.613L648.827 10.2434H649.291C670.955 10.864 697.88 12.2603 706.236 12.7258H706.855L706.545 12.2603C705.462 10.864 704.07 9.46762 702.522 8.53672L702.213 8.84702L702.058 9.00217C703.451 9.93308 704.843 11.1743 705.926 12.5706L706.081 12.4155V12.1052C697.725 11.6397 670.8 10.2434 649.137 9.62277V9.93308L649.291 10.0882L651.767 5.27856L651.613 5.12341V5.43371C655.481 5.43371 658.885 5.43371 661.671 5.43371C672.038 5.43371 681.477 5.89916 688.596 6.51977C692.155 6.83007 695.249 7.29552 697.416 7.60582C699.737 8.07127 701.284 8.53672 701.903 8.84702H702.213Z"
            fill="#3265B1" />
        <path id="Vector_75"
            d="M80.1551 226.834L23.0558 226.679H22.9011C22.9011 226.679 14.6998 222.18 10.0576 217.836L10.2124 217.68C14.6998 222.025 22.9011 226.524 22.9011 226.524L66.5379 226.679H79.6909V226.524C90.2132 187.271 125.804 158.258 167.893 158.258C209.828 158.258 245.263 186.961 256.095 226.059V226.214L454.473 222.18L591.418 221.249V221.094C603.333 184.168 637.221 157.327 676.99 157.327C712.889 157.327 743.992 179.048 758.538 210.544V210.699L843.49 209.457V209.302C843.49 209.302 843.645 208.992 844.109 208.371C845.193 206.665 847.823 203.407 850.299 203.096C851.073 202.941 851.846 202.941 852.775 202.941C855.56 202.941 858.655 203.251 859.893 203.407V203.562L862.059 206.665L860.048 203.717C859.738 203.717 858.81 203.562 857.881 203.562C856.489 203.407 854.477 203.407 852.775 203.407C851.846 203.407 851.073 203.407 850.299 203.562C848.906 203.717 847.514 204.803 846.276 206.044C845.038 207.285 844.109 208.682 843.8 209.302L843.645 209.613L843.49 209.923L758.228 211.164L758.074 210.854C743.528 179.513 712.58 157.792 676.835 157.792C637.066 157.792 603.333 184.478 591.418 221.404L591.263 221.714L454.163 222.645L255.631 226.679L255.476 226.369C244.799 187.426 209.363 158.723 167.584 158.723C125.649 158.723 90.2132 187.581 79.5361 226.834H80.1551ZM66.5379 226.059L23.2106 225.903C22.9011 225.748 20.8895 224.507 18.4136 222.956C15.783 221.249 12.8429 219.232 10.6766 217.06L10.5218 216.594C13.7714 219.853 19.3421 223.266 21.9726 224.817C22.5916 225.128 23.0558 225.438 23.2106 225.593L66.5379 225.748C66.5379 225.903 66.5379 225.903 66.5379 226.059Z"
            fill="#3265B1" />
        <path id="Vector_76"
            d="M80.1551 226.834L23.0558 226.679H22.9011C22.9011 226.679 14.6998 222.18 10.0576 217.836L10.2124 217.68C14.6998 222.025 22.9011 226.524 22.9011 226.524L66.5379 226.679H79.6909V226.524C90.2132 187.271 125.804 158.258 167.893 158.258C209.828 158.258 245.263 186.961 256.095 226.059V226.214L454.473 222.18L591.418 221.249V221.094C603.333 184.168 637.221 157.327 676.99 157.327C712.889 157.327 743.992 179.048 758.538 210.544V210.699L843.49 209.457V209.302C843.49 209.302 843.645 208.992 844.109 208.371C845.193 206.665 847.823 203.407 850.299 203.096C851.073 202.941 851.846 202.941 852.775 202.941C855.56 202.941 858.655 203.251 859.893 203.407V203.562L862.059 206.665L860.048 203.717C859.738 203.717 858.81 203.562 857.881 203.562C856.489 203.407 854.477 203.407 852.775 203.407C851.846 203.407 851.073 203.407 850.299 203.562C848.906 203.717 847.514 204.803 846.276 206.044C845.038 207.285 844.109 208.682 843.8 209.302L843.645 209.613L843.49 209.923L758.228 211.164L758.074 210.854C743.528 179.513 712.58 157.792 676.835 157.792C637.066 157.792 603.333 184.478 591.418 221.404L591.263 221.714L454.163 222.645L255.631 226.679L255.476 226.369C244.799 187.426 209.363 158.723 167.584 158.723C125.649 158.723 90.2132 187.581 79.5361 226.834H80.1551ZM66.5379 226.059L23.2106 225.903C22.9011 225.748 20.8895 224.507 18.4136 222.956C15.783 221.249 12.8429 219.232 10.6766 217.06L10.5218 216.594C13.7714 219.853 19.3421 223.266 21.9726 224.817C22.5916 225.128 23.0558 225.438 23.2106 225.593L66.5379 225.748C66.5379 225.903 66.5379 225.903 66.5379 226.059Z"
            fill="#3265B1" />
        <path id="Vector_77"
            d="M89.5964 280.984H35.4372L23.5222 257.556H19.1894L19.0347 257.246C19.0347 257.246 13.3093 247.316 11.4524 240.179C9.59552 233.198 7.27441 219.234 7.27441 219.234V218.924L9.44078 216.752L9.59552 216.597L9.75026 217.062C9.90501 217.217 10.0597 217.372 10.0597 217.372L9.90501 217.527L8.3576 219.079C8.51234 220.01 8.97656 222.958 9.75026 226.681C10.524 231.026 11.6072 236.301 12.5356 239.714C13.9283 244.834 17.4873 251.661 19.0347 254.764C19.3442 255.384 19.6537 255.85 19.8084 256.16H24.1411L36.0562 279.588H88.5132V250.419C88.5132 228.078 97.4882 207.908 111.879 193.324C126.27 178.74 146.231 169.586 168.205 169.586C190.178 169.586 210.139 178.585 224.53 193.324C238.921 207.908 247.896 228.233 247.896 250.419V270.279H598.848V250.109C598.848 227.612 607.668 207.287 621.749 192.703C635.986 177.964 655.638 168.965 677.301 168.965C698.965 168.965 718.617 178.119 732.853 192.703C747.089 207.443 755.755 227.767 755.755 250.109V251.04L842.564 234.284L862.371 230.87V206.357L860.205 203.254H860.359C860.514 203.254 860.669 203.254 860.669 203.254H860.978V202.943V202.478L863.454 206.046V231.801L842.719 235.37L754.672 252.281V251.661V250.109C754.672 227.922 746.006 207.908 731.925 193.324C717.843 178.74 698.501 169.896 677.147 169.896C655.792 169.896 636.45 178.895 622.368 193.324C608.287 207.908 599.621 227.922 599.621 250.109V271.52H246.813V250.73C246.813 228.698 237.993 208.684 223.757 194.255C209.52 179.826 189.868 170.827 168.05 170.827C146.386 170.827 126.734 179.826 112.343 194.255C98.1072 208.684 89.2869 228.698 89.2869 250.73V280.984H89.5964ZM10.6787 217.217C10.524 217.062 10.524 217.062 10.3692 216.907L10.0597 216.441L10.3692 216.752L10.6787 217.217Z"
            fill="#3265B1" />
        <path id="Vector_78"
            d="M66.6941 226.524L23.0573 226.369C23.0573 226.369 14.856 221.869 10.3685 217.525C10.2138 217.37 10.059 217.215 10.059 217.215L9.9043 216.749L10.2138 216.439L10.5233 216.904C10.678 217.06 10.678 217.06 10.8327 217.215C12.9991 219.232 15.9392 221.404 18.5698 223.11C21.0456 224.662 23.0573 225.748 23.3667 226.058L66.6941 226.213C66.6941 226.058 66.6941 226.058 66.6941 225.903C66.6941 226.058 66.6941 226.213 66.5394 226.369V226.679H66.6941V226.524Z"
            fill="#3265B1" />
        <path id="Vector_79"
            d="M79.5384 226.059H67.1592C67.1592 225.903 67.1592 225.903 67.1592 225.748H79.3837C90.2155 186.34 125.961 157.327 168.205 157.327C210.449 157.327 246.039 186.185 257.026 225.283L454.784 221.249L591.266 220.318C603.335 183.237 637.533 156.396 677.456 156.396C713.511 156.396 744.768 178.272 759.469 209.613L843.493 208.527C843.802 208.061 844.576 206.82 845.504 205.734C846.897 204.182 848.599 202.476 850.611 202.321C851.385 202.165 852.313 202.165 853.241 202.165C856.027 202.165 859.122 202.476 860.359 202.631V202.941C859.122 202.786 856.027 202.476 853.241 202.476C852.313 202.476 851.385 202.476 850.611 202.631C848.754 202.786 846.897 204.493 845.659 206.044C844.576 207.285 843.802 208.527 843.493 208.992L759.159 210.233C744.459 178.738 713.356 157.017 677.301 157.017C637.378 157.017 603.335 183.858 591.266 220.939L454.63 221.869L256.716 225.903C245.885 186.65 210.294 157.792 168.205 157.792C125.961 157.637 90.2155 186.65 79.5384 226.059Z"
            fill="#3265B1" />
        <path id="Vector_80"
            d="M79.5384 226.059H67.1592C67.1592 225.903 67.1592 225.903 67.1592 225.748H79.3837C90.2155 186.34 125.961 157.327 168.205 157.327C210.449 157.327 246.039 186.185 257.026 225.283L454.784 221.249L591.266 220.318C603.335 183.237 637.533 156.396 677.456 156.396C713.511 156.396 744.768 178.272 759.469 209.613L843.493 208.527C843.802 208.061 844.576 206.82 845.504 205.734C846.897 204.182 848.599 202.476 850.611 202.321C851.385 202.165 852.313 202.165 853.241 202.165C856.027 202.165 859.122 202.476 860.359 202.631V202.941C859.122 202.786 856.027 202.476 853.241 202.476C852.313 202.476 851.385 202.476 850.611 202.631C848.754 202.786 846.897 204.493 845.659 206.044C844.576 207.285 843.802 208.527 843.493 208.992L759.159 210.233C744.459 178.738 713.356 157.017 677.301 157.017C637.378 157.017 603.335 183.858 591.266 220.939L454.63 221.869L256.716 225.903C245.885 186.65 210.294 157.792 168.205 157.792C125.961 157.637 90.2155 186.65 79.5384 226.059Z"
            fill="#3265B1" />
        <path id="Vector_81"
            d="M860.664 202.94C860.664 202.94 860.51 202.94 860.355 202.94V202.631C860.51 202.631 860.51 202.631 860.664 202.631V202.94Z"
            fill="#3265B1" />
        <path id="Vector_82"
            d="M79.8453 226.524H66.6924H67.0019V226.369C67.0019 226.214 67.1566 226.058 67.1566 225.748C67.1566 225.903 67.1566 225.903 67.1566 226.058H79.5359C90.213 186.65 125.958 157.637 168.202 157.637C210.292 157.637 245.882 186.495 256.714 225.748L454.627 221.714L591.263 220.783C603.333 183.702 637.376 156.861 677.299 156.861C713.353 156.861 744.611 178.738 759.157 210.078L843.49 208.992C843.8 208.526 844.574 207.285 845.657 206.044C847.049 204.493 848.752 202.941 850.608 202.631C851.382 202.476 852.311 202.476 853.239 202.476C856.024 202.476 859.119 202.786 860.357 202.941V203.406C859.274 203.251 856.024 202.941 853.239 202.941C852.311 202.941 851.382 202.941 850.763 203.096C848.287 203.406 845.657 206.665 844.574 208.371C844.264 208.992 843.955 209.302 843.955 209.302V209.457L759.002 210.699V210.543C744.456 179.203 713.353 157.327 677.454 157.327C637.685 157.327 603.797 184.168 591.882 221.094V221.249L454.937 222.18L256.559 226.214V226.058C245.882 186.961 210.446 158.258 168.357 158.258C126.268 158.258 90.6772 187.271 80.1548 226.524H79.8453Z"
            fill="#3265B1" />
        <path id="Vector_83"
            d="M79.8453 226.524H66.6924H67.0019V226.369C67.0019 226.214 67.1566 226.058 67.1566 225.748C67.1566 225.903 67.1566 225.903 67.1566 226.058H79.5359C90.213 186.65 125.958 157.637 168.202 157.637C210.292 157.637 245.882 186.495 256.714 225.748L454.627 221.714L591.263 220.783C603.333 183.702 637.376 156.861 677.299 156.861C713.353 156.861 744.611 178.738 759.157 210.078L843.49 208.992C843.8 208.526 844.574 207.285 845.657 206.044C847.049 204.493 848.752 202.941 850.608 202.631C851.382 202.476 852.311 202.476 853.239 202.476C856.024 202.476 859.119 202.786 860.357 202.941V203.406C859.274 203.251 856.024 202.941 853.239 202.941C852.311 202.941 851.382 202.941 850.763 203.096C848.287 203.406 845.657 206.665 844.574 208.371C844.264 208.992 843.955 209.302 843.955 209.302V209.457L759.002 210.699V210.543C744.456 179.203 713.353 157.327 677.454 157.327C637.685 157.327 603.797 184.168 591.882 221.094V221.249L454.937 222.18L256.559 226.214V226.058C245.882 186.961 210.446 158.258 168.357 158.258C126.268 158.258 90.6772 187.271 80.1548 226.524H79.8453Z"
            fill="#3265B1" />
        <path id="Vector_84"
            d="M860.51 203.406H860.355V202.941C860.51 202.941 860.51 202.941 860.665 202.941V202.631C860.82 202.631 860.975 202.631 860.975 202.631V203.096L860.51 203.406Z"
            fill="#3265B1" />
        <path id="Vector_85"
            d="M67.0048 226.526H66.6953H66.3857V226.215C66.3857 226.06 66.3857 225.905 66.5405 225.75H67.0048C67.0048 225.905 66.85 226.06 66.85 226.37L67.0048 226.526Z"
            fill="#3265B1" />
        <path id="Vector_86"
            d="M861.133 203.406H860.823C860.823 203.406 860.668 203.406 860.514 203.406L860.823 203.251H861.133V203.406ZM861.133 203.096H860.823V202.631H860.978V203.096H861.133Z"
            fill="#3265B1" />
        <path id="Vector_87"
            d="M862.992 213.647V213.182H862.528C860.826 213.182 859.124 213.026 857.421 213.026C855.719 213.026 854.017 213.182 852.47 213.647C850.922 214.112 849.684 214.888 848.911 216.285C847.982 217.991 846.744 221.094 845.661 224.663C844.578 228.231 843.495 232.11 842.721 234.747L842.566 235.523L863.766 231.8V213.026H863.302L862.992 213.647H862.528V231.024L843.031 234.437L843.185 234.903L843.65 235.058C844.423 232.265 845.506 228.541 846.59 224.973C847.673 221.404 848.911 218.146 849.839 216.75C850.613 215.664 851.541 214.888 852.934 214.578C854.172 214.112 855.874 214.112 857.576 214.112C859.278 214.112 860.981 214.268 862.683 214.268H863.147L862.992 213.647Z"
            fill="#3265B1" />
        <path id="Vector_88"
            d="M862.994 231.489H863.458V218.301H862.839C860.982 218.456 858.661 218.767 856.804 219.077C854.948 219.387 853.4 219.853 852.626 220.318C852.317 220.473 852.162 220.784 851.853 221.094C851.079 222.335 849.996 224.507 848.913 226.99C847.829 229.472 846.746 232.11 845.973 234.127L845.663 234.902L863.304 231.799V231.334H862.994L862.839 230.868L846.437 233.661L846.591 234.127L847.056 234.282C847.984 231.955 849.222 228.851 850.46 226.059C851.079 224.662 851.698 223.421 852.162 222.49C852.472 222.025 852.626 221.559 852.936 221.404C853.091 221.094 853.245 220.939 853.4 220.939C853.864 220.629 855.412 220.163 857.269 219.853C859.126 219.542 861.292 219.232 863.149 219.077V218.612H862.685V231.334H862.994V231.489Z"
            fill="#3265B1" />
        <path id="Vector_89"
            d="M88.9767 258.175V257.865C80.466 257.865 70.4079 257.865 61.4329 257.865C51.3748 257.865 42.864 257.865 39.924 257.865H39.7692C30.949 257.865 24.7594 247.315 21.3551 242.97C19.4982 240.643 15.3202 239.867 11.9159 239.712H11.6064L11.7612 240.178C13.6181 247.159 19.3435 257.089 19.3435 257.089V257.244H23.6762L35.5912 280.672H89.2862V257.865H88.9767V258.175H88.6673V280.206H35.9007L23.9857 256.779H19.4982V257.089L19.653 256.934C19.653 256.934 19.3435 256.313 18.7245 255.227C17.0224 252.124 13.4633 245.142 12.0707 240.022H11.7612V240.333C15.1655 240.488 19.1887 241.264 20.7361 243.436C23.9857 247.625 30.1753 258.485 39.4598 258.485H39.6145C42.7093 258.485 51.22 258.485 61.1234 258.485C70.0984 258.485 80.1565 258.485 88.6673 258.485V258.175H88.9767Z"
            fill="#3265B1" />
        <path id="Vector_90"
            d="M845.811 226.06V225.75L753.431 233.662V233.973C754.514 239.248 754.978 244.678 754.978 250.419V251.97V252.28L842.716 235.369H843.18H843.335V235.214C843.954 232.732 844.882 229.473 845.966 226.215L846.12 225.905H845.811V226.06H845.501C844.573 229.318 843.49 232.576 842.871 235.059H843.18V234.748H842.716L755.597 251.505V250.264C755.597 244.678 754.978 239.093 754.05 233.818H753.74V234.128L845.811 226.215V226.06Z"
            fill="#3265B1" />
        <path id="Vector_91"
            d="M288.747 91.3858L288.592 90.9203C288.592 90.9203 286.89 91.3858 284.878 92.1615C282.867 92.7821 280.7 93.713 279.617 94.3336C278.843 94.9542 277.915 95.5749 277.296 96.5058C276.677 97.4367 276.213 98.3676 276.213 99.6088C276.213 100.074 276.213 100.385 276.368 100.85C277.141 103.798 279.153 106.901 279.153 106.901L279.308 107.056H279.617C279.617 107.056 281.319 107.056 283.95 106.901C291.842 106.746 307.935 106.435 310.101 106.435C311.648 106.435 314.279 106.435 316.6 105.815C317.838 105.504 318.921 105.039 319.85 104.418C320.778 103.798 321.397 102.712 321.707 101.626C321.861 100.85 321.861 99.9191 321.861 98.833C321.861 95.73 321.552 91.2306 321.088 87.507C320.933 85.6452 320.623 83.9386 320.314 82.6974C320.159 82.0768 320.004 81.4562 320.004 81.1459C320.004 80.9907 319.85 80.8356 319.85 80.6804C319.695 80.5253 319.695 80.3701 319.54 80.215C318.457 79.5944 316.136 78.5083 310.875 78.5083C310.411 78.5083 309.792 78.5083 309.327 78.5083C302.983 78.6635 298.96 79.5944 295.555 82.3871C292.151 85.1798 288.283 91.2306 288.283 91.2306L288.747 91.3858L289.211 91.6961C289.211 91.6961 289.521 91.3858 289.83 90.7652C291.068 88.9034 293.853 85.0246 296.174 83.1628C299.424 80.6804 303.138 79.7495 309.327 79.4392C309.946 79.4392 310.411 79.4392 310.875 79.4392C315.981 79.4392 318.148 80.3701 318.921 80.9907C318.921 80.9907 319.076 81.301 319.231 81.7665C320.004 84.7143 321.088 93.8682 321.088 98.9882C321.088 100.074 321.088 101.005 320.933 101.626C320.778 102.557 320.314 103.177 319.54 103.798C317.219 105.504 312.577 105.66 310.256 105.66C307.316 105.66 279.617 106.28 279.617 106.28V106.746L280.081 106.435C280.081 106.435 279.927 106.28 279.772 105.97C279.153 105.039 277.915 102.712 277.451 100.85C277.296 100.54 277.296 100.229 277.296 99.9191C277.296 98.9882 277.606 98.2124 278.225 97.4367C278.843 96.6609 279.617 96.0403 280.391 95.5748C281.165 94.9542 283.331 94.1785 285.343 93.5579C287.199 92.9373 288.902 92.4718 288.902 92.4718H289.056L289.211 92.3167L288.747 91.3858Z"
            fill="#3265B1" />
        <path id="Vector_92"
            d="M321.395 101.472H321.705C321.86 100.851 321.86 99.9205 321.86 98.6793C321.86 95.5763 321.55 91.077 321.086 87.3533C320.931 85.4915 320.622 83.7849 320.312 82.5437C320.157 81.9231 320.003 81.3025 320.003 80.9922C319.848 80.5267 319.848 80.3716 319.538 80.2164C318.765 79.751 317.372 79.1304 314.587 78.8201H313.968L314.277 79.2855C315.36 80.837 316.753 83.3194 316.908 85.8018C317.063 88.2842 317.372 92.4733 317.372 96.6624C317.372 99.7654 317.217 102.868 316.598 105.351L316.444 105.816L316.908 105.661C319.229 105.04 321.395 103.954 321.705 101.627L321.395 101.472H321.086C320.776 103.489 318.919 104.575 316.753 105.04V105.351H317.063C317.682 102.868 317.836 99.7654 317.836 96.6624C317.836 92.4733 317.527 88.1291 317.372 85.8018C317.217 83.0091 315.825 80.5267 314.741 78.9752L314.587 79.1304V79.4407C317.372 79.751 318.765 80.3716 319.384 80.837C319.384 80.837 319.538 81.1473 319.693 81.4576C320.467 84.2503 321.55 93.7145 321.55 98.8345C321.55 99.9205 321.55 100.851 321.395 101.472Z"
            fill="#3265B1" />
        <path id="Vector_93"
            d="M317.375 91.3884H317.685C317.53 89.0611 317.375 87.1993 317.375 85.8029C317.221 83.0102 315.828 80.5278 314.745 78.9763V78.8212H314.59C313.662 78.666 312.424 78.666 311.031 78.666C310.567 78.666 309.948 78.666 309.484 78.666C303.139 78.8212 299.271 79.7521 295.866 82.5448C292.462 85.1823 288.594 91.3884 288.594 91.3884L288.284 91.8538H288.748C288.748 91.8538 293.7 91.8538 299.58 91.8538C305.615 91.8538 312.578 91.8538 316.911 91.8538H317.375H317.685V91.5435L317.375 91.3884V91.0781H316.911C312.578 91.0781 305.615 91.0781 299.58 91.0781C293.545 91.0781 288.748 91.0781 288.748 91.0781V91.3884L288.903 91.5435C288.903 91.5435 289.832 89.992 291.224 88.1302C292.617 86.2684 294.319 84.0963 296.021 82.8551C299.271 80.2175 302.985 79.4418 309.329 79.1315C309.948 79.1315 310.412 79.1315 310.876 79.1315C312.269 79.1315 313.352 79.1315 314.435 79.2866V78.9763L314.281 79.1315C315.364 80.683 316.756 83.1654 316.911 85.6478C316.911 87.0441 317.066 89.0611 317.221 91.2332L317.375 91.3884Z"
            fill="#3265B1" />
        <path id="Vector_94"
            d="M483.256 98.6765H483.566L484.494 23.894L459.736 24.0492L449.368 100.228L483.566 98.8317V98.5214L483.256 98.6765V98.3662L449.987 99.7626L460.2 24.6698L484.03 24.5146L483.102 98.6765H483.256Z"
            fill="#3265B1" />
        <path id="Vector_95"
            d="M372.459 25.2928V24.8274C368.126 24.8274 363.639 24.6722 359.461 24.5171H359.306H359.151C338.416 35.5328 241.703 95.8863 225.146 106.281L224.062 107.057L225.455 107.367C230.407 108.298 235.978 108.609 241.084 108.764H241.239L379.113 24.9825H377.256C375.554 24.9825 373.851 24.9825 372.613 24.9825V25.2928V25.7583C374.006 25.7583 375.554 25.7583 377.256 25.7583V25.2928L376.946 24.8274L240.929 107.523L241.239 107.988V107.523C236.287 107.367 230.716 106.902 225.765 106.126L225.61 106.592L225.919 107.057C242.322 96.8172 339.19 36.4637 359.77 25.448L359.461 24.9825V25.448C363.793 25.6031 368.126 25.7583 372.613 25.7583V25.2928H372.459Z"
            fill="#3265B1" />
        <path id="Vector_96"
            d="M768.907 28.5516V28.0862L753.123 28.2413L795.986 91.3875H796.296C804.806 91.3875 812.853 91.2324 819.816 91.2324H820.899L770.145 27.7759L768.752 28.0862L768.907 28.5516L769.061 29.0171L769.835 28.8619L819.507 90.9221L819.971 90.6118V90.1463C813.008 90.1463 804.806 90.3015 796.45 90.3015V90.7669L796.915 90.4566L755.135 29.1722L769.061 29.0171L768.907 28.5516Z"
            fill="#3265B1" />
        <path id="Vector_97"
            d="M839.933 90.4562L840.398 90.1459L786.238 24.0518L768.907 27.9305L674.825 28.8614C674.825 28.8614 672.349 29.1717 669.873 30.1026C668.636 30.5681 667.398 31.1887 666.314 31.9644C665.386 32.7402 664.612 33.8262 664.612 35.2226C664.612 35.8432 664.767 36.4638 664.922 37.0844C665.541 38.7911 667.398 41.1183 669.719 44.2213C676.837 53.22 689.835 67.0284 696.644 74.0102C705.619 83.3192 713.82 90.301 727.746 91.0768C732.389 91.3871 746.006 91.3871 762.099 91.3871C791.19 91.3871 829.102 91.0768 839.779 91.0768H840.707L840.088 90.301L839.933 90.4562V89.9907C829.256 89.9907 791.5 90.301 762.254 90.301C746.006 90.301 732.543 90.1459 727.901 89.9907C714.284 89.215 706.547 82.5435 697.417 73.2345C692.93 68.5799 685.657 60.9776 679.158 53.6855C675.908 50.117 672.968 46.5486 670.492 43.4456C668.171 40.4977 666.469 38.0153 665.85 36.6189C665.695 36.1535 665.541 35.688 665.541 35.2226C665.541 34.2917 666.005 33.3608 666.933 32.7402C668.171 31.6541 670.183 30.8784 671.885 30.5681C672.659 30.4129 673.433 30.2578 674.051 30.1026C674.67 29.9475 674.98 29.9475 674.98 29.9475L769.062 29.0166L785.774 25.293L839.624 90.7665L839.933 90.4562Z"
            fill="#3265B1" />
        <path id="Vector_98"
            d="M635.056 82.0773L635.365 81.9222C633.044 77.1125 612.309 42.9794 604.881 34.291C602.56 31.4983 599.156 29.3262 595.442 27.6195L595.133 27.4644V94.9548H595.442C610.143 94.3342 621.129 93.7136 624.843 93.4033C631.033 92.7827 635.056 91.2312 636.449 88.7488C636.758 88.1282 636.913 87.5076 636.913 86.7318C636.913 85.3355 636.449 83.784 635.52 81.9222L635.056 82.0773L634.746 82.2325C635.675 84.0943 636.139 85.4906 636.139 86.7318C636.139 87.3524 635.984 87.973 635.675 88.5936C634.592 90.7657 630.723 92.3172 624.534 92.9378C620.82 93.4033 609.833 93.8687 595.288 94.4894V94.7996H595.597V27.9298H595.288L595.133 28.2401C598.847 29.9468 602.096 32.1189 604.417 34.7564C611.69 43.2897 632.425 77.4228 634.746 82.2325L635.056 82.0773Z"
            fill="#3265B1" />
        <path id="Vector_99"
            d="M634.59 80.3698L635.055 80.2146C632.579 75.2498 612.927 43.2888 605.809 35.0658C598.691 26.6877 583.99 23.7399 573.932 23.7399C568.98 23.7399 543.603 23.7399 519.463 23.7399C507.394 23.7399 495.633 23.7399 486.968 23.7399C482.635 23.7399 478.921 23.7399 476.445 23.7399C473.97 23.7399 472.422 23.7399 472.422 23.7399C472.422 23.7399 467.471 23.7399 459.733 23.895C436.522 24.2053 387.934 24.8259 372.46 24.8259C358.378 24.8259 343.678 23.2744 335.632 22.3435H335.477H335.322C335.013 22.4987 334.858 22.4987 334.858 22.4987C334.858 22.4987 294.78 45.7712 276.985 57.2524C259.19 68.7335 222.207 94.9539 222.207 94.9539L222.516 95.4194V94.9539L216.945 94.4885L210.756 98.3672V98.6775C211.065 101.005 212.613 102.711 215.089 104.108C218.648 106.125 224.064 107.211 229.944 107.831C235.669 108.452 241.704 108.607 246.656 108.607C252.226 108.607 256.25 108.297 256.25 108.297L293.233 106.745V105.659C286.115 105.814 279.615 105.97 279.615 105.97V106.435L280.08 106.125C280.08 106.125 279.925 105.97 279.77 105.659C279.151 104.728 277.913 102.401 277.449 100.539C277.294 100.229 277.294 99.9187 277.294 99.6084C277.294 98.6775 277.604 97.9018 278.223 97.126C278.842 96.3503 279.615 95.7297 280.389 95.2642C281.163 94.6436 283.329 93.8679 285.341 93.2473C287.198 92.6266 288.9 92.1612 288.9 92.1612H289.055L289.209 92.0061C289.209 92.0061 289.519 91.6958 289.828 91.0752C291.066 89.2133 293.852 85.3346 296.173 83.4728C299.422 80.9904 303.136 80.0595 309.326 79.7492C309.945 79.7492 310.409 79.7492 310.873 79.7492C315.979 79.7492 318.146 80.6801 318.92 81.3007C318.92 81.3007 319.074 81.611 319.229 82.0764C320.003 85.0243 321.086 94.1782 321.086 99.2981C321.086 100.384 321.086 101.315 320.931 101.936C320.776 102.867 320.312 103.487 319.538 104.108C318.765 104.728 317.682 105.039 316.598 105.349L311.801 106.59L465.304 100.384C465.304 100.384 501.049 99.2981 538.651 98.0569C576.253 96.8157 615.712 95.2642 623.294 94.4885C628.401 93.8679 631.65 92.7818 633.662 91.3855C635.673 89.9891 636.602 87.9721 636.447 86.1103C636.447 84.2485 635.673 82.3867 634.9 80.6801L634.59 80.3698L634.126 80.5249C634.9 82.0764 635.519 83.7831 635.519 85.4897C635.519 87.0412 634.9 88.5927 633.043 89.8339C631.186 91.0751 628.091 92.1612 623.14 92.7818C615.712 93.5576 576.098 95.1091 538.651 96.3503C519.928 96.9709 501.513 97.5915 487.896 98.0569C481.088 98.2121 475.517 98.5224 471.494 98.5224C467.625 98.6775 465.304 98.6775 465.304 98.6775L316.598 104.728V105.194L316.753 105.659C317.991 105.349 319.074 104.884 320.003 104.263C320.931 103.642 321.55 102.556 321.86 101.47C322.014 100.694 322.014 99.7636 322.014 98.6775C322.014 95.5745 321.705 91.0752 321.241 87.3515C321.086 85.4897 320.776 83.7831 320.467 82.5419C320.312 81.9213 320.157 81.3007 320.157 80.9904C320.157 80.8352 320.003 80.6801 320.003 80.5249C319.848 80.3698 319.848 80.2146 319.693 80.0595C318.61 79.4389 316.289 78.3528 311.028 78.3528C310.564 78.3528 309.945 78.3528 309.48 78.3528C303.136 78.508 299.113 79.4389 295.708 82.2316C292.304 85.0243 288.436 91.0752 288.436 91.0752L288.9 91.3855L288.745 90.92C288.745 90.92 287.043 91.3855 285.031 92.1612C283.02 92.7818 280.853 93.7127 279.77 94.3333C278.996 94.9539 278.068 95.5745 277.449 96.5054C276.83 97.4363 276.366 98.3672 276.366 99.6084C276.366 100.074 276.366 100.384 276.521 100.85C277.294 103.797 279.306 106.9 279.306 106.9L279.461 107.056H279.77C279.77 107.056 281.472 107.056 283.948 106.9C286.424 106.9 289.828 106.745 293.387 106.745V106.28V105.814L256.404 107.366C256.404 107.366 255.476 107.366 253.774 107.521C252.072 107.521 249.751 107.676 246.965 107.676C240.466 107.676 231.955 107.366 224.837 105.97C221.278 105.349 218.183 104.418 215.862 103.177C213.541 101.936 212.303 100.384 212.149 98.5224H211.684L211.994 98.9878L217.564 95.5745L222.98 96.04L223.135 95.8848C223.135 95.8848 225.456 94.1782 229.17 91.5406C240.466 83.6279 264.606 66.7165 277.913 58.1833C286.733 52.4427 301.279 43.7543 313.504 36.6173C319.693 33.0489 325.109 29.7907 329.287 27.3083C333.31 24.9811 335.786 23.4296 335.786 23.4296L335.477 22.9641L335.632 23.4296C335.632 23.4296 335.786 23.4296 336.096 23.2744L335.941 22.809V23.2744C343.833 24.2053 358.688 25.7568 372.924 25.7568C393.659 25.7568 472.886 24.6708 472.886 24.6708C472.886 24.6708 564.493 24.6708 574.396 24.6708C584.145 24.6708 598.69 27.7738 605.499 35.6864C612.462 43.7543 632.269 75.8704 634.59 80.6801V80.3698Z"
            fill="#3265B1" />
        <path id="Vector_100"
            d="M664.455 157.947L664.919 158.103C664.919 158.103 664.455 125.211 663.836 110.161C663.217 94.9563 658.42 82.3891 650.837 71.0632C646.969 65.3226 638.303 54.7724 629.638 44.8427C620.818 34.7579 611.998 25.4489 607.665 22.0356C603.796 19.0877 597.142 17.5362 590.024 16.7605C582.752 15.9847 575.015 15.8296 569.289 15.8296C567.278 15.8296 565.421 15.8296 564.028 15.8296C554.125 15.8296 480.623 16.4502 474.278 16.4502C467.934 16.4502 422.131 17.5362 408.823 17.6914C395.515 18.0017 388.862 18.4671 383.91 19.8635C378.958 21.2599 366.734 27.1556 366.734 27.1556C349.403 36.4646 251.452 97.749 251.452 97.749L250.833 98.0593L263.522 108.299L263.831 107.834L263.367 107.679C263.367 107.679 258.415 134.83 257.951 146.932C257.951 147.552 257.951 148.173 257.951 148.949C257.951 162.757 261.974 197.976 263.212 207.285C263.831 212.25 266.926 225.748 269.711 238.005C272.651 250.262 275.282 261.278 275.282 261.278L275.437 261.743H586.93V261.278C586.93 252.124 588.167 242.039 589.405 234.126C590.024 230.248 590.643 226.834 591.108 224.507C591.572 222.18 591.881 220.783 591.881 220.783C602.558 187.891 630.412 163.223 664.455 158.103H664.764V157.792L664.455 157.947V157.482C629.947 162.602 601.785 187.581 591.108 220.783C591.108 220.783 586.156 242.97 586.156 261.433H586.62V260.967H275.901V261.433L276.365 261.278C276.365 261.278 275.746 258.485 274.663 254.296C271.568 241.418 265.224 214.732 264.295 207.44C263.058 198.131 259.034 162.757 259.034 149.104C259.034 148.328 259.034 147.707 259.034 147.087C259.344 141.191 260.582 131.417 261.82 123.194C262.439 119.005 263.058 115.281 263.522 112.488C263.986 109.696 264.295 107.989 264.295 107.989V107.679L251.916 97.749L251.607 98.2145L251.916 98.6799C251.916 98.6799 253.464 97.749 256.094 96.0424C275.127 84.0958 351.879 36.1543 367.043 27.7762L366.734 27.3107L366.888 27.7762C366.888 27.7762 369.983 26.3798 373.697 24.6732C377.411 23.1217 381.589 21.2599 384.065 20.6393C388.707 19.2429 395.361 18.7774 408.668 18.6223C421.976 18.312 467.625 17.3811 473.969 17.3811C480.313 17.3811 553.815 16.7605 563.718 16.7605C565.266 16.7605 566.968 16.7605 568.98 16.7605C574.86 16.7605 582.442 16.9156 589.715 17.6914C596.833 18.4671 603.487 20.0187 606.891 22.8114C611.069 26.0695 620.044 35.5337 628.71 45.4633C637.53 55.393 646.195 65.9432 649.909 71.6838C657.491 82.8546 662.133 95.2666 662.752 110.316C663.062 117.763 663.371 129.865 663.526 139.95C663.681 145.07 663.681 149.569 663.681 152.827C663.681 156.086 663.836 158.258 663.836 158.258L664.455 157.947Z"
            fill="#3265B1" />
        <path id="Vector_101"
            d="M650.53 71.0619L650.994 70.7516C647.125 65.011 638.46 54.4608 629.794 44.5312C620.974 34.4464 612.154 25.1374 607.821 21.7241C603.953 18.7762 597.299 17.2247 590.181 16.449C582.908 15.6732 575.171 15.5181 569.445 15.5181C567.434 15.5181 565.577 15.5181 564.184 15.5181C554.281 15.5181 480.779 16.1387 474.435 16.1387C474.28 16.1387 473.971 16.1387 473.661 16.1387H473.197L465.305 96.3514L462.21 108.919L458.032 136.691V144.293L455.556 191.459L454.628 205.577V221.868L455.711 262.052H587.55V261.587C587.55 252.433 588.788 242.348 590.026 234.435C590.645 230.557 591.264 227.143 591.728 224.816C592.192 222.489 592.502 221.092 592.502 221.092C603.179 188.2 631.032 163.532 665.075 158.412H665.385L665.539 158.101C665.539 158.101 665.075 125.209 664.456 110.16C663.837 94.9551 659.04 82.3879 651.458 71.0619H650.53L650.065 71.3722C657.648 82.543 662.29 94.9551 662.909 110.005C663.218 117.452 663.528 129.554 663.682 139.638C663.837 144.758 663.837 149.258 663.837 152.516C663.837 155.774 663.992 157.946 663.992 157.946H664.456V157.481C629.949 162.601 601.786 187.58 591.109 220.782C591.109 220.782 586.157 242.969 586.157 261.431H586.622V260.966H456.33L455.247 221.868V205.732L456.175 191.614L458.651 144.448V136.846L462.829 109.229L465.924 96.6617L473.816 16.7593H473.352V17.2247C473.661 17.2247 473.971 17.2247 474.125 17.2247C480.47 17.2247 553.971 16.6041 563.875 16.6041C565.422 16.6041 567.124 16.6041 569.136 16.6041C575.016 16.6041 582.598 16.7593 589.871 17.535C596.989 18.3108 603.643 19.8623 607.047 22.655C611.225 25.9131 620.2 35.3773 628.866 45.3069C637.686 55.2366 646.352 65.7868 650.065 71.5274L650.53 71.0619Z"
            fill="#3265B1" />
    </g>

</svg>