<svg width="900" height="331" viewBox="0 0 900 331" fill="none" xmlns="http://www.w3.org/2000/svg">
    <g id="Group 24 11" clip-path="url(#clip0_34_156)">
        <g id="doors">
            <path id="Vector"
                d="M288.68 100.148C288.036 101.114 287.553 102.08 287.553 103.368C287.553 103.69 287.553 104.173 287.714 104.656C288.197 106.91 289.646 109.325 290.29 110.452L274.351 111.096L265.496 104.012L291.256 88.3945L295.925 95.9616C294.154 96.6056 292.222 97.2496 291.256 98.0546C290.29 98.5376 289.485 99.1816 288.68 100.148Z"
                fill="transparent" />
            <path id="Vector_2"
                d="M334.24 102.562C334.24 103.689 334.24 104.655 334.079 105.299C333.918 106.265 333.435 106.909 332.63 107.553C332.469 107.714 332.308 107.875 331.986 107.875C331.664 108.036 331.503 108.197 331.181 108.358C331.02 108.519 330.698 108.519 330.537 108.68H330.376C330.859 106.265 331.02 103.367 331.02 100.308C331.02 98.5367 331.02 96.7657 330.859 95.1557V94.8337C330.859 94.5117 330.859 94.1897 330.859 93.8677C330.859 93.3847 330.859 92.9017 330.859 92.4187C330.859 92.0967 330.859 91.7747 330.859 91.4527C330.859 90.9697 330.859 90.4867 330.859 90.1647C330.859 89.6817 330.859 89.3597 330.859 88.8767C330.698 86.4617 329.732 84.2077 328.605 82.5977C330.698 82.9197 331.986 83.4027 332.469 83.7247C332.469 83.7247 332.63 84.0467 332.791 84.5297C333.113 87.7497 334.24 97.2487 334.24 102.562Z"
                fill="transparent" />
            <path id="Vector_3"
                d="M376.905 232.652L375.295 270.81H287.711C287.55 269.844 286.906 267.428 286.101 263.886C284.33 256.641 281.593 244.888 279.178 234.584L376.905 232.652Z"
                fill="transparent" />
            <path id="Vector_4" d="M374.813 232.651L472.702 230.719L473.829 270.808H373.203" fill="transparent" />
            <path id="Vector_5"
                d="M330.055 94.6727H301.396C301.557 94.5117 301.557 94.3507 301.718 94.1897C303.006 92.2577 305.904 88.2327 308.319 86.3007C311.701 83.7247 315.565 82.7587 322.005 82.5977C322.649 82.5977 323.132 82.5977 323.615 82.5977C325.064 82.5977 326.352 82.5977 327.318 82.7587C328.445 84.3687 329.572 86.6227 329.733 89.1987C329.733 90.4867 329.894 92.2577 330.055 94.1897C330.055 94.1897 330.055 94.3507 330.055 94.6727Z"
                fill="transparent" />
            <path id="Vector_6"
                d="M330.219 100.307C330.219 103.366 330.058 106.425 329.575 108.84L329.253 109.001C326.999 109.484 324.423 109.645 322.974 109.645C321.364 109.645 313.153 109.806 305.425 109.967H305.264C302.366 109.967 299.79 110.128 297.375 110.128C297.053 110.128 296.57 110.128 296.248 110.128C295.926 110.128 295.765 110.128 295.604 110.128C295.282 110.128 295.121 110.128 294.799 110.128C293.189 110.128 292.062 110.128 291.579 110.128C291.579 110.128 291.418 109.967 291.418 109.806C290.774 108.84 289.486 106.425 289.003 104.493C288.842 104.171 288.842 103.849 288.842 103.527C288.842 102.561 289.164 101.756 289.808 100.951C290.452 100.146 291.257 99.5016 292.062 99.0186C292.867 98.3746 295.282 97.5696 297.214 96.7646C299.146 96.1206 300.917 95.6376 300.917 95.6376H301.078L301.239 95.4766H330.219C330.219 96.7646 330.219 98.5356 330.219 100.307Z"
                fill="transparent" />
            <path id="Vector_7"
                d="M390.593 26.7305L264.529 103.206L263.08 101.918C263.724 101.435 265.012 100.63 266.783 99.5028C286.425 87.1057 366.443 37.3565 382.06 28.6625C382.382 28.5015 383.992 27.6965 386.407 26.7305H390.593Z"
                fill="transparent" />
            <path id="Vector_8"
                d="M492.025 17.875L491.864 19.968C472.705 20.129 420.702 21.739 408.143 22.222C401.542 22.383 396.39 24.154 393.17 25.764C391.56 25.764 390.272 25.764 388.984 25.764C388.984 25.764 389.145 25.764 389.145 25.603C393.009 23.993 397.356 22.061 399.932 21.417C404.762 19.968 411.685 19.485 425.532 19.324C438.573 18.841 481.721 17.875 492.025 17.875Z"
                fill="transparent" />
            <path id="Vector_9"
                d="M491.7 20.4531L491.378 24.4781C490.734 24.4781 489.768 24.4781 488.158 24.4781C485.904 24.4781 482.523 24.6391 478.498 24.6391C457.085 24.9611 415.064 25.4441 394.456 25.6051H394.295C397.515 24.1561 402.023 22.8681 407.98 22.7071C420.699 22.2241 472.541 20.6141 491.7 20.4531Z"
                fill="transparent" />
            <path id="Vector_10"
                d="M491.218 25.6016L483.812 99.9839L483.168 102.56L468.355 103.204L478.982 25.7626C482.846 25.7626 486.066 25.6016 488.32 25.6016C489.608 25.6016 490.735 25.6016 491.218 25.6016Z"
                fill="transparent" />
            <path id="Vector_11"
                d="M483.009 103.688L480.755 112.865C463.205 113.67 298.5 120.11 273.867 121.237C274.189 119.466 274.35 118.017 274.672 116.568C275.155 113.67 275.477 111.899 275.477 111.899L305.424 110.611H305.585C313.313 110.45 321.524 110.289 323.134 110.289C324.744 110.289 327.481 110.289 329.896 109.645L483.009 103.688Z"
                fill="transparent" />
            <path id="Vector_12"
                d="M273.705 121.879C273.383 123.65 273.061 125.743 272.739 127.836C271.451 136.369 270.002 146.512 269.68 152.791C269.68 153.435 269.68 154.079 269.68 154.884C269.68 169.053 273.866 205.6 275.154 215.421C275.637 218.802 277.086 225.725 278.857 233.775L472.703 229.75V213.489L473.669 198.838L476.245 149.893V142.004L480.592 113.668C462.399 114.312 297.855 120.752 273.705 121.879ZM460.145 130.412C460.145 131.7 459.018 132.827 457.73 132.827L412.971 132.183C411.683 132.183 410.556 131.056 410.556 129.768V128.158C410.556 126.87 411.683 125.743 412.971 125.743L457.73 124.938C459.018 124.938 460.145 126.065 460.145 127.353V130.412Z"
                fill="transparent" />
            <path id="Vector_13"
                d="M459.016 127.194V130.414C459.016 131.219 458.372 131.702 457.728 131.702L412.97 131.058C412.165 131.058 411.682 130.414 411.682 129.77V128.16C411.682 127.355 412.326 126.872 412.97 126.872L457.728 125.906C458.533 125.906 459.016 126.55 459.016 127.194Z"
                fill="transparent" />
                <path id="Vector_14"
                d="M672.991 92.2569C672.991 97.8919 667.517 105.62 647.553 107.069C625.978 108.518 499.753 112.06 481.721 112.865L483.975 103.688H484.297C484.297 103.688 493.635 103.366 507.803 102.883C521.971 102.4 540.969 101.756 560.612 101.112C599.735 99.8239 640.79 98.2139 648.68 97.4089C652.061 97.0869 654.798 96.4429 656.891 95.6379C659.467 94.8329 661.238 93.7059 662.043 92.0959C662.365 91.4519 662.526 90.8079 662.526 90.0028C662.526 89.8418 662.526 89.6808 662.526 89.3588C662.526 89.1978 662.526 89.0368 662.526 88.7148C662.526 86.7828 661.721 84.8508 660.916 83.0798C658.34 77.9277 637.892 44.7613 630.486 36.2282C628.071 33.4912 624.851 31.2372 621.148 29.4662C621.148 29.4662 621.148 29.4662 620.987 29.4662C620.504 29.1442 620.021 28.9832 619.377 28.6612L619.055 28.5002C611.971 25.6021 603.76 24.3141 597.32 24.3141H492.347L492.669 20.2891C496.372 20.2891 502.168 20.2891 509.252 20.2891C538.393 20.2891 588.465 20.4501 595.388 20.4501H597.481C606.658 20.4501 622.597 20.9331 633.062 32.6862C638.697 39.1263 648.358 52.1674 656.73 64.4036C660.916 70.5216 664.78 76.4787 667.678 81.1477C670.576 85.8168 672.508 89.5198 672.669 90.8079C672.991 91.2909 672.991 91.7739 672.991 92.2569Z"
                fill="transparent" />
            <path id="Vector_15"
                d="M690.862 158.269C690.862 154.888 690.701 150.058 690.701 144.906C690.54 134.441 690.218 122.043 689.896 114.154C689.252 98.5372 684.422 85.8181 676.533 74.0649C672.669 68.2689 663.653 57.3208 654.476 46.8556C645.299 36.5515 636.122 26.7304 631.775 23.3494C628.233 20.4513 621.31 18.8413 613.904 18.0363C606.498 17.2313 598.447 17.0703 592.329 17.0703C590.236 17.0703 588.304 17.0703 586.855 17.0703C576.551 17.0703 500.075 17.7143 493.474 17.7143H493.152L492.991 19.9683C496.694 19.9683 502.49 19.9683 509.574 19.9683C538.716 19.9683 588.787 20.1293 595.71 20.1293C596.354 20.1293 596.998 20.1293 597.803 20.1293C606.981 20.1293 623.242 20.6124 633.707 32.5265C642.24 42.1866 659.789 66.8199 668.322 80.988C671.22 85.6571 673.152 89.1991 673.313 90.8091C673.474 91.2921 673.474 91.7751 673.474 92.4191C673.474 98.3762 667.517 106.265 647.553 107.714C625.818 109.324 499.109 112.705 481.721 113.51L477.374 142.008V149.897L474.798 198.841L473.832 213.492V229.754L615.192 228.788C615.514 227.983 615.836 227.017 616.158 226.212C616.319 225.89 616.319 225.568 616.48 225.246C617.124 223.314 617.929 221.543 618.734 219.772C619.7 217.679 620.666 215.747 621.632 213.814C622.598 211.882 623.725 209.95 624.852 208.018C625.979 206.086 627.106 204.315 628.394 202.544C628.394 202.383 628.555 202.383 628.555 202.222C629.199 201.417 629.843 200.612 630.326 199.807C630.97 199.002 631.614 198.197 632.258 197.231C632.419 196.909 632.741 196.748 632.902 196.426C633.385 195.782 633.868 195.299 634.351 194.655C635.8 193.045 637.249 191.435 638.859 189.825C639.664 189.02 640.469 188.376 641.274 187.571C642.079 186.766 642.884 186.122 643.689 185.317C644.494 184.673 645.138 184.029 645.943 183.385C646.104 183.224 646.265 183.224 646.265 183.063C647.07 182.419 647.875 181.775 648.68 181.131C649.485 180.487 650.451 179.843 651.256 179.199C651.417 179.038 651.578 179.038 651.578 178.877C652.383 178.394 653.188 177.911 653.832 177.267C654.798 176.623 655.603 176.14 656.569 175.496C658.501 174.369 660.272 173.242 662.365 172.276C662.365 172.276 662.526 172.276 662.526 172.115C663.492 171.632 664.297 171.149 665.263 170.827C667.195 169.861 669.288 169.056 671.381 168.251C672.991 167.607 674.44 167.124 676.05 166.641C677.66 166.158 679.27 165.675 680.88 165.192C682.007 164.87 682.973 164.709 684.1 164.387H684.261C685.227 164.226 686.193 164.065 687.159 163.743C687.32 163.743 687.481 163.743 687.481 163.743C687.964 163.582 688.447 163.582 688.93 163.421C689.413 163.26 689.896 163.26 690.379 163.26C691.023 162.616 691.023 160.845 690.862 158.269ZM672.508 123.653C672.508 124.942 671.381 126.069 670.093 126.069L625.335 125.425C624.047 125.425 622.92 124.298 622.92 123.009V121.399C622.92 120.111 624.047 118.984 625.335 118.984L670.093 118.018C671.381 118.018 672.508 119.145 672.508 120.433V123.653Z"
                fill="transparent" />
            <path id="Vector_16"
                d="M614.869 229.754C614.064 233.618 609.878 253.582 609.878 270.809H474.959L473.832 230.72L614.869 229.754Z"
                fill="transparent" />
            <path id="Vector_17"
                d="M671.541 120.431V123.651C671.541 124.295 670.897 124.939 670.253 124.939L625.495 124.295C624.69 124.295 624.207 123.651 624.207 123.007V121.397C624.207 120.592 624.851 120.109 625.495 120.109L670.253 119.304C670.897 119.143 671.541 119.626 671.541 120.431Z"
                fill="transparent" />
            <path id="Vector_18"
                d="M503.777 25.6024L502.811 102.078C497.981 102.239 493.956 102.4 490.897 102.4C486.872 102.561 484.457 102.561 484.457 102.561L485.101 100.146L492.507 25.4414H493.634H503.777V25.6024Z"
                fill="transparent" />
        </g>
        <g id="trunk">
            <path id="Vector_19"
                d="M881.211 112.547H863.005C862.838 111.838 862.671 110.598 862.337 109.358C862.003 108.295 861.669 107.231 861.168 106.523C861.001 106.168 860.667 105.814 860.333 105.46C859.999 105.282 860.125 105.076 859.791 104.899L859.104 103.156C859.271 103.156 859.164 103.156 859.498 103.156C859.999 103.156 860.333 103.156 860.834 103.156H861.669C861.669 103.156 861.836 103.156 862.003 103.156C863.339 103.156 864.676 103.156 865.845 103.156C866.346 103.156 867.014 103.156 867.515 103.156H867.849C868.183 103.156 868.517 103.156 869.018 103.156H869.686C870.02 103.156 870.187 103.156 870.521 103.156C871.524 103.156 872.693 103.156 873.528 103.156H874.363C875.699 103.156 876.868 103.156 877.87 103.156H878.371C878.705 103.156 878.872 103.156 879.039 103.156H879.206C879.874 104.397 880.376 105.637 880.543 106.346C880.71 107.054 881.044 109.712 881.211 112.547Z"
                fill="transparent" />
            <path id="Vector_20"
                d="M881.639 120.449L879.028 121.102H864.835C864.672 119.141 864.509 117.344 864.183 115.873C864.183 115.546 864.02 115.219 864.02 115.056C864.02 114.402 863.856 113.912 863.693 113.422H881.312C881.312 114.076 881.312 114.729 881.475 115.383C881.475 115.546 881.475 115.546 881.475 115.71C881.475 115.873 881.475 115.873 881.475 116.036C881.475 116.2 881.475 116.527 881.475 116.69C881.475 117.017 881.475 117.18 881.475 117.507C881.475 117.834 881.475 117.997 881.475 118.324C881.639 119.141 881.639 119.958 881.639 120.449Z"
                fill="transparent" />
            <path id="Vector_21"
                d="M879.018 102.649C875.607 102.649 868.786 102.81 860.016 102.81L853.682 94.5985C853.844 94.5985 854.006 94.5985 854.006 94.5985C862.777 94.5985 869.76 94.4375 873.658 94.4375C873.82 94.5985 874.145 95.0815 874.47 95.5645C875.282 96.8525 876.744 98.9455 877.881 100.878C878.368 101.522 878.693 102.166 879.018 102.649Z"
                fill="transparent" />
            <path id="Vector_22"
                d="M880.889 185.561V185.883C881.05 190.069 882.66 195.06 883.143 196.509H879.601C879.44 196.348 878.957 195.865 878.152 195.06C875.415 192.001 869.941 184.917 869.78 176.062C869.619 166.08 867.526 159.479 866.721 157.386V156.903C866.721 156.903 866.399 148.37 865.916 138.549C865.594 132.914 865.272 126.796 864.789 121.805H878.152L877.508 140.964L883.143 165.436C883.143 166.402 880.889 180.409 880.889 185.561Z"
                fill="transparent" />
            <path id="Vector 489"
                d="M856.63 94.3029L853.165 94.1583L849.101 89.2862L833.5 69.8712L817.679 50.0517L804.656 33.9337L801.687 30.2898L801.326 29.4192L817.679 25.5508L821.127 29.8399L830.902 41.9713L841.698 54.9343L844.892 58.3516L846.683 61.1183L850.289 65.393L853.536 69.1191L856.782 73.2623L859.735 76.9084L862.968 80.5948L864.918 83.0275L868.53 87.5561L870.997 90.5114L874.244 94.1583H872.883L867.514 94.3029H856.63Z"
                fill="transparent" stroke="transparent" stroke-width="0.1" />
        </g>
        <path id="lights"
            d="M865.787 156.931C864.982 156.931 863.211 156.931 861.44 156.77C860.152 156.77 858.864 156.609 857.737 156.448C856.61 156.287 855.805 156.126 855.483 155.965C855.483 155.965 855.161 155.482 854.839 154.999C853.551 152.745 851.458 147.915 849.365 143.085C847.272 138.255 845.179 133.263 843.891 130.848C842.442 127.95 839.705 126.984 836.968 126.662C834.231 126.34 831.333 126.662 829.401 126.34C825.376 125.857 822.156 122.476 818.453 118.773C816.682 117.002 814.428 114.748 812.657 112.816C811.691 111.85 811.047 110.884 810.403 110.079C809.92 109.274 809.598 108.63 809.598 108.469C809.759 107.825 810.403 107.503 811.047 107.181C811.369 107.02 811.691 107.02 812.013 106.859H812.335C812.335 106.859 857.576 106.859 859.83 106.859L860.313 107.02C860.957 107.503 861.601 109.274 861.923 110.723C862.084 111.528 862.245 112.172 862.406 112.655C862.406 113.138 862.567 113.46 862.567 113.46C862.728 113.943 862.728 114.426 862.889 115.07C862.889 115.392 863.05 115.714 863.05 116.036C863.05 116.358 863.211 116.68 863.211 117.002C863.211 117.324 863.372 117.646 863.372 118.129C863.533 119.417 863.694 120.705 863.855 122.154C864.338 127.145 864.66 133.263 864.982 138.899C865.304 143.729 865.465 148.398 865.626 151.779C865.787 154.355 865.787 155.965 865.787 156.931Z"
            fill="transparent" />
        <path id="roof"
            d="M327.461 53.5573L331.561 58.9675L340.017 53.5696L349.335 47.938L360.918 40.7962L369.634 35.587L374.613 32.6305L379.617 29.5715L385.108 27.0885L386.183 26.3631L387.243 26.041L394.562 22.9273L400.443 20.7983L405.154 19.9467L411.594 19.4676L440.203 18.6426L464.819 18.1636L488.89 17.6551L514.004 17.3305L546.265 17.1737L591.509 16.7098L606.351 17.066L618.166 18.3128L624.993 19.797L630.633 22.1125L633.839 24.7841L642.804 33.6302L653.016 44.9104L663.227 56.5468L670.886 66.4022L705.736 55.5969L697.515 46.2478L693.961 40.881L692.149 38.3707V35.2545L694.442 33.0472L697.515 31.7055L701.714 30.6668H707.903L730.985 30.2773L766.115 30.0609L785.029 29.6482H799.733L804.316 28.5155L811.426 27.2926L817.787 25.428L830.126 21.6441L829.688 20.9586L828.838 19.8618L827.796 19.4779L825.629 19.1488L820.502 18.6004L811.124 17.5585L799.059 16.2423L782.745 14.46L769.638 12.8971L766.744 12.737L763.746 10.5698L759.267 8.65539L755.402 7.31893L746.227 4.86272L738.317 3.56238L730.985 2.83997L717.584 2.40652L693.961 1.86471L663.217 1.42631L643.125 1.17459L623.948 1.03729L612.621 0.851562H593.055H574.565L562.78 1.01297H544.702L530.079 1.12747L509.918 1.40099L498.774 1.5835L478.636 1.72356L466.118 2.156L451.404 2.40756L445.569 2.72771L437.079 4.2392L421.998 7.92004L415.852 9.37937H414.342L404.071 10.4018L395.998 11.1203L388.316 11.816L381.549 12.6434L375.695 13.7728L365.228 17.0598L356.001 20.5413L349.06 23.502L355.022 24.3704L363.052 25.2004L373.81 25.8754L366.72 30.124L352.072 38.7491L344.487 43.2861L327.461 53.5573Z"
            fill="transparent" stroke="transparent" stroke-width="0.1" />
        <g id="rear-wheels">
            <path id="Vector_23"
                d="M752.29 212.41C739.893 200.013 722.666 192.285 703.829 192.285C684.83 192.285 667.764 200.013 655.367 212.41C642.97 224.807 635.242 241.873 635.242 260.871C635.242 279.87 642.97 296.936 655.367 309.333C667.764 321.73 684.991 329.458 703.829 329.458C722.827 329.458 739.893 321.73 752.29 309.333C764.687 296.936 772.415 279.87 772.415 260.871C772.415 241.873 764.687 224.807 752.29 212.41ZM703.829 312.231C698.515 312.231 693.202 311.426 688.05 309.655C666.315 302.571 652.63 282.446 652.63 260.871C652.63 255.558 653.435 250.245 655.206 245.093C662.29 223.358 682.415 209.673 703.989 209.673C709.303 209.673 714.616 210.478 719.768 212.249C741.503 219.333 755.188 239.458 755.188 261.032C755.188 266.345 754.383 271.659 752.612 276.972C745.528 298.385 725.564 312.231 703.829 312.231Z"
                fill="transparent" />
            <path id="Vector_24"
                d="M754.061 260.872C754.061 266.024 753.256 271.176 751.646 276.489C744.723 297.741 725.081 311.104 703.99 311.104C698.838 311.104 693.686 310.299 688.534 308.689C667.282 301.766 653.758 282.124 653.758 261.033C653.758 255.881 654.563 250.729 656.173 245.577C663.096 224.325 682.738 210.801 703.829 210.801C708.981 210.801 714.133 211.606 719.285 213.216C740.537 219.978 754.061 239.781 754.061 260.872Z"
                fill="transparent" />
        </g>
        <g id="front-wheels">
            <path id="Vector_25"
                d="M224.368 212.41C211.971 200.013 194.905 192.285 175.907 192.285C156.909 192.285 139.842 200.013 127.445 212.41C115.048 224.807 107.32 241.873 107.32 260.871C107.32 279.87 115.048 296.936 127.445 309.333C139.842 321.73 156.909 329.458 175.907 329.458C194.905 329.458 211.971 321.73 224.368 309.333C236.765 296.936 244.493 279.87 244.493 260.871C244.493 241.873 236.765 224.807 224.368 212.41ZM175.907 312.231C170.594 312.231 165.281 311.426 160.129 309.655C138.393 302.571 124.708 282.446 124.708 260.871C124.708 255.558 125.513 250.245 127.284 245.093C134.368 223.358 154.494 209.673 176.068 209.673C181.381 209.673 186.694 210.478 192.007 212.249C213.742 219.333 227.427 239.458 227.427 261.032C227.427 266.345 226.622 271.659 224.851 276.811C217.606 298.385 197.481 312.231 175.907 312.231Z"
                fill="transparent" />
            <path id="Vector_26"
                d="M226.134 260.873C226.134 266.025 225.329 271.177 223.719 276.329C216.796 297.581 197.154 310.944 175.902 310.944C170.75 310.944 165.598 310.139 160.446 308.529C139.194 301.606 125.67 281.964 125.67 260.873C125.67 255.721 126.475 250.569 128.085 245.417C135.008 224.165 154.65 210.641 175.741 210.641C180.893 210.641 186.045 211.446 191.197 213.056C212.61 219.979 226.134 239.782 226.134 260.873Z"
                fill="transparent" />
        </g>
        <g id="front">
            <path id="Vector_27"
                d="M248.956 112.879C246.863 113.201 240.262 113.684 231.084 114.327C200.333 116.257 139.313 119.475 110.977 121.083C75.8787 123.174 51.4064 125.426 48.0254 125.748C48.3474 124.783 49.4744 123.657 50.7624 122.531C52.2114 121.244 54.1435 120.118 55.5925 119.314L55.9145 119.153L55.7535 118.831C55.2705 118.349 54.7875 117.866 54.3045 117.223C66.3796 114.327 99.224 108.375 142.533 104.032C184.716 99.8497 195.825 100.171 205.163 97.5977L218.848 101.78L219.814 102.745C220.136 104.997 221.746 106.767 224.322 108.214C226.898 109.662 229.957 110.466 233.499 111.271C233.982 111.271 234.465 111.432 234.787 111.592C235.109 111.592 235.592 111.753 236.075 111.753C236.559 111.753 237.042 111.914 237.525 111.914C238.169 112.075 238.813 112.075 239.457 112.236C239.618 112.236 239.618 112.236 239.779 112.236C240.101 112.236 240.584 112.397 241.067 112.397C241.711 112.397 242.355 112.558 243.16 112.558C243.804 112.558 244.609 112.719 245.253 112.719C246.38 112.719 247.668 112.719 248.956 112.879Z"
                fill="transparent" />
            <path id="Vector_28"
                d="M55.1104 118.991C53.5004 119.796 51.8904 120.922 50.4414 122.209C48.9924 123.495 47.7044 124.782 47.3824 126.069C47.2214 126.23 46.5774 126.713 45.7724 127.517C45.6114 127.678 45.4504 127.839 45.1284 128L44.9674 128.16C44.6454 128.482 44.3234 128.804 44.0014 129.126L43.8404 129.286C43.5184 129.447 43.3574 129.769 43.0354 130.091L42.8744 130.252C42.7134 130.412 42.3914 130.734 42.2304 130.895C41.5864 131.538 40.9423 132.182 40.1373 132.986C39.8153 133.308 39.4933 133.79 39.0103 134.112H26.6133C27.9013 132.825 29.5113 131.056 31.2823 129.608C33.3753 127.839 35.6293 126.552 36.9173 126.713H37.0783H37.4003L37.5613 126.552L37.7223 126.23C38.8493 124.943 43.8404 120.117 51.2464 118.026C51.8904 117.865 52.6954 117.705 53.6614 117.383C54.1444 117.865 54.6274 118.509 55.1104 118.991Z"
                fill="transparent" />
            <path id="Vector_29"
                d="M37.5608 135.078C37.5608 135.239 37.3998 135.239 37.2388 135.4L37.0778 135.561C35.4678 137.33 33.6968 139.421 31.9258 141.834C31.6038 142.156 31.2818 142.639 30.9598 143.121C30.3158 144.086 29.6718 145.051 29.0278 146.017C26.9348 149.073 24.8418 152.29 22.7488 155.346C22.2658 156.151 21.7828 156.794 21.1388 157.598C20.3338 158.724 19.6898 159.69 18.8848 160.816C18.4018 161.459 18.0798 162.102 17.5968 162.585L16.9527 163.389C16.9527 163.55 16.7917 163.55 16.7917 163.711C15.0207 166.124 13.5717 168.215 12.4447 169.663C11.6397 170.628 11.1567 171.432 10.9957 171.754H6.9707L24.5198 136.365C24.6808 136.204 24.8418 135.882 25.3248 135.4H37.5608V135.078Z"
                fill="transparent" />
            <path id="Vector_30"
                d="M375.181 271.971L374.859 280.818H258.132V260.228C258.132 237.064 248.794 216.152 233.821 201.032C218.848 185.911 198.079 176.42 175.216 176.42C152.354 176.42 131.585 185.75 116.612 201.032C101.639 216.152 92.3004 237.064 92.3004 260.228V267.628C83.6063 267.628 73.3022 267.628 64.1251 267.628C53.66 267.628 44.8049 267.628 41.5849 267.628H41.4239C32.2468 267.628 25.8067 256.689 22.2646 252.185C20.3326 249.772 16.4686 248.968 12.9265 248.807C12.7655 248.485 12.7655 248.003 12.6045 247.52C11.7995 243.981 10.8335 239.477 10.1895 235.456C10.1895 235.134 10.0285 234.651 10.0285 234.33C10.0285 234.169 10.0285 234.008 10.0285 233.847C9.54551 231.434 9.2235 229.343 9.0625 228.217C9.0625 228.056 9.0625 227.895 9.0625 227.895C9.0625 227.734 9.0625 227.734 9.0625 227.573L10.6725 225.965C15.3416 230.469 23.8747 235.134 24.0357 235.134H24.1967L83.6063 235.295L83.7673 234.973C89.2414 214.705 101.156 197.01 117.256 184.463C133.356 171.916 153.481 164.355 175.216 164.355C218.687 164.355 255.556 194.115 266.665 234.49L266.826 234.812L278.096 234.651C279.062 238.673 280.028 243.016 280.994 247.198C284.054 259.906 286.791 271.327 286.791 271.327L286.952 271.649H375.181V271.971Z"
                fill="transparent" />
            <path id="Vector_31"
                d="M274.235 112.559C274.074 113.685 273.43 117.063 272.625 121.728C272.303 121.728 271.981 121.728 271.82 121.728C256.847 122.532 126.114 129.288 109.531 130.575L109.853 130.253L108.403 130.414C108.242 130.414 108.081 130.414 107.92 130.414C103.412 130.897 50.4428 134.596 39.0117 135.24C39.1727 135.079 39.3337 134.918 39.3337 134.918L40.1387 133.953H39.8167L39.9777 133.792C40.4607 133.31 40.9437 132.827 41.4267 132.344C41.5877 132.184 41.7487 132.023 41.9097 131.862C42.2318 131.54 42.5538 131.218 42.7148 131.058C43.1978 130.575 43.5198 130.253 44.0028 129.931C44.3248 129.61 44.8078 129.288 45.1298 128.966C46.7398 127.519 47.8668 126.553 48.0278 126.393C48.5108 126.393 49.9598 126.232 52.5359 126.071C61.391 125.267 82.9652 123.497 111.302 121.728C130.3 120.602 163.627 118.832 192.929 117.224C207.581 116.419 221.266 115.615 231.57 114.971C241.874 114.328 248.797 113.685 250.085 113.363H250.246L250.568 113.202C250.729 113.202 250.729 113.041 250.89 113.041H251.051C251.212 113.041 251.212 113.041 251.212 113.041H251.373C253.466 113.041 255.398 113.041 257.169 113.041C262.965 113.041 267.151 112.88 267.151 112.88L274.235 112.559Z"
                fill="transparent" />
            <path id="Vector_32"
                d="M106.952 131.539L80.3865 159.529L80.2255 159.85C79.4205 160.976 75.3954 165.641 69.1164 165.963C65.4134 166.124 59.9394 166.285 55.2704 166.285C51.2453 166.285 48.0253 166.285 47.0593 166.285L42.8733 162.102H19.3672C20.3332 160.815 21.2992 159.368 22.2652 157.92C24.8412 154.22 27.5782 150.36 30.1542 146.499C30.7982 145.534 31.4422 144.569 32.0862 143.603C32.2472 143.443 32.2472 143.282 32.4082 143.121C32.7302 142.638 33.2133 141.995 33.5353 141.512C33.8573 141.03 34.3403 140.547 34.6623 140.065C35.7893 138.778 36.7553 137.491 37.7213 136.365C46.0933 135.882 97.9356 132.504 106.952 131.539Z"
                fill="transparent" />
            <path id="Vector_33"
                d="M92.3014 268.434V290.632H37.7221L25.3251 266.343H20.817C20.817 266.343 20.817 266.182 20.656 266.021C20.495 265.699 20.334 265.377 20.012 264.895C19.851 264.734 19.851 264.412 19.69 264.251C19.529 263.93 19.368 263.608 19.046 263.125C17.919 261.034 16.631 258.461 15.504 255.726C15.182 254.922 14.86 254.278 14.538 253.474C14.216 252.67 14.055 252.026 13.733 251.222C13.572 250.739 13.411 250.096 13.25 249.613C16.631 249.935 20.334 250.739 21.944 252.83C25.3251 257.174 31.7651 268.434 41.4251 268.434H41.5861C44.8061 268.434 53.6612 268.434 64.1262 268.434C73.3033 268.434 83.6073 268.434 92.3014 268.434Z"
                fill="transparent" />
            <path id="Vector_34"
                d="M272.784 111.431L266.827 111.592C266.827 111.592 265.861 111.592 264.09 111.753C262.319 111.753 259.904 111.914 257.005 111.914C255.717 111.914 254.429 111.914 252.98 111.914L264.573 104.836L272.784 111.431Z"
                fill="transparent" />
            <path id="Vector_35"
                d="M261.195 102.264L263.61 104.194L250.891 111.915C250.247 111.915 249.603 111.915 249.12 111.915C248.959 111.915 248.798 111.915 248.637 111.915C247.51 111.915 246.222 111.755 245.095 111.755C243.646 111.594 242.197 111.594 240.909 111.433C239.621 111.272 238.172 111.111 236.884 110.95H236.723C236.562 110.95 236.401 110.95 236.24 110.95C247.027 104.355 296.425 72.5779 327.498 53.4357L331.58 58.8934C304.21 75.7836 261.678 102.103 261.678 102.103L261.195 102.264Z"
                fill="transparent" />
            <path id="Vector_36"
                d="M316.095 72.3458L264.736 103.552L263.287 102.266C263.931 101.783 265.219 100.979 266.99 99.8527C275.362 94.7052 294.36 82.8016 314.807 70.0938L316.095 72.3458Z"
                fill="transparent" />
            <path id="Vector_37"
                d="M274.234 215.509C272.946 205.697 268.76 169.181 268.76 155.026C268.76 154.221 268.76 153.578 268.76 152.935C269.082 145.213 271.175 131.701 272.624 122.371C272.302 122.371 272.141 122.371 271.819 122.371C256.524 123.175 122.57 130.092 108.885 131.218L81.193 160.173C80.71 160.817 76.363 166.447 69.1179 166.929C61.7118 167.412 46.7386 167.412 46.7386 167.412H46.5776L42.3916 163.23H18.5633C14.6993 168.699 11.9623 172.399 11.9623 172.399L11.8013 172.559H6.4882L6.32719 172.881L10.1912 174.168L7.93721 181.889H2.78516V186.233H8.74222L7.93721 200.549H2.78516V213.096L7.61521 217.922L10.9962 224.839C14.3773 228.056 20.1733 231.756 22.9104 233.365C23.5544 233.686 24.0374 234.008 24.1984 234.169L69.2789 234.33H69.9229H82.481C93.7512 193.471 130.943 163.39 175.057 163.39C219.011 163.39 256.041 193.31 267.472 233.847L277.776 233.686C276.005 225.965 274.556 218.887 274.234 215.509ZM72.1769 190.415C71.8549 191.541 70.0839 196.849 67.9909 202.801C65.8978 208.753 63.6438 215.187 61.8728 218.565C58.4918 225.322 53.8227 225.965 53.6617 225.965C53.6617 225.965 53.1787 225.965 52.3737 225.965C52.2127 225.965 52.0517 225.965 51.8907 225.965C51.5687 225.965 51.2467 225.965 50.7637 225.965C50.6027 225.965 50.4417 225.965 50.4417 225.965C50.1197 225.965 49.9587 225.965 49.6367 225.965C49.3147 225.965 48.9927 225.965 48.6707 225.965C46.7386 225.965 44.6456 226.126 42.3916 226.126C42.2306 226.126 41.9086 226.126 41.5866 226.126C40.9426 226.126 40.1376 226.126 39.4936 226.287C39.1716 226.287 38.8495 226.287 38.5275 226.287C37.2395 226.287 35.9515 226.287 34.6635 226.448C34.3415 226.448 34.0195 226.448 33.5365 226.448C33.0535 226.448 32.7315 226.448 32.2485 226.448C31.7655 226.448 31.2825 226.448 30.7995 226.448H30.6385C29.0284 226.448 27.7404 226.448 27.2574 226.448C25.8084 226.448 24.8424 226.126 24.1984 225.643C23.5544 225.161 23.0714 224.356 22.7494 223.874C22.1054 222.587 19.0463 216.957 17.5973 213.257C17.1143 211.97 16.9533 211.166 16.9533 210.522C16.9533 209.879 17.1143 209.396 17.4363 209.075C17.7583 208.753 18.0803 208.753 18.0803 208.753L21.3004 208.431L41.9086 206.179L42.7136 199.423H14.5383V198.941C14.5383 198.941 14.5383 194.115 15.5043 189.289C15.9873 186.715 17.7583 185.428 19.3683 184.785C20.8174 184.141 22.2664 184.141 22.4274 184.141C22.5884 184.141 23.0714 184.141 23.8764 184.141H24.0374C24.3594 184.141 24.6814 184.141 25.1644 184.141C25.3254 184.141 25.4864 184.141 25.6474 184.141C25.9694 184.141 26.1304 184.141 26.4524 184.141C26.7744 184.141 27.0964 184.141 27.4184 184.141C28.3844 184.141 29.3504 184.141 30.3165 184.141C30.7995 184.141 31.2825 184.141 31.7655 184.141C32.2485 184.141 32.5705 184.141 33.0535 184.141C34.1805 184.141 35.1465 184.141 36.2735 183.981C36.5955 183.981 37.0785 183.981 37.4005 183.981C37.8835 183.981 38.5275 183.981 39.0106 183.981H39.3326C40.1376 183.981 40.9426 183.981 41.7476 183.981C41.9086 183.981 42.0696 183.981 42.2306 183.981C42.7136 183.981 43.0356 183.981 43.5186 183.981C44.4846 183.981 45.2896 183.981 46.2556 183.981C47.0606 183.981 47.7046 183.981 48.5097 183.981C49.4757 183.981 50.6027 183.981 51.5687 183.981C52.2127 183.981 52.6957 183.981 53.3397 183.981C53.8227 183.981 54.4667 183.981 54.9497 183.981C58.9748 183.82 62.3558 183.82 64.4488 183.82C64.9318 183.82 65.4148 183.82 65.7369 183.82C67.9909 183.82 69.6009 184.463 70.5669 185.428C71.5329 186.393 72.0159 187.68 72.0159 188.806C72.4989 189.289 72.3379 189.932 72.1769 190.415Z"
                fill="transparent" />
            <path id="Vector_38"
                d="M71.369 188.645C71.369 189.128 71.208 189.61 71.047 190.093C70.564 191.219 68.954 196.688 66.861 202.64C64.929 208.592 62.514 215.026 60.904 218.404C59.2939 221.621 57.3619 223.391 55.9129 224.195C55.2689 224.678 54.6249 224.838 54.1419 224.999C53.9809 224.999 53.8199 225.16 53.6589 225.16H53.4979C53.3369 225.16 53.1759 225.16 52.6929 225.16C52.5319 225.16 52.3709 225.16 52.2099 225.16C52.0489 225.16 51.8879 225.16 51.7269 225.16C51.4049 225.16 51.0829 225.16 50.5999 225.16C50.4389 225.16 50.2779 225.16 50.2779 225.16C50.2779 225.16 49.9559 225.16 49.7949 225.16C49.3119 225.16 48.8289 225.16 48.3459 225.16C46.4139 225.16 43.9989 225.321 41.4229 225.482C40.7789 225.482 39.9739 225.482 39.3299 225.482C38.8469 225.482 38.3638 225.482 37.8808 225.482C36.7538 225.482 35.6268 225.482 34.4998 225.643C34.1778 225.643 33.8558 225.643 33.5338 225.643C32.7288 225.643 31.9238 225.643 31.2798 225.804H30.9578C29.8308 225.16 28.5428 224.195 27.5768 222.425C25.8058 219.047 23.7128 213.096 22.5858 209.718L42.5499 207.626L43.6769 198.779H20.0098C20.0098 198.618 20.0098 198.457 20.0098 198.136C20.0098 196.688 20.1708 194.275 20.8148 191.862C21.4588 189.449 22.5858 187.036 24.3568 185.589C24.5178 185.589 24.6788 185.589 24.6788 185.589H25.0008C25.4838 185.589 25.9668 185.589 26.6108 185.589C26.9328 185.589 27.2548 185.589 27.5768 185.589H27.8988H28.0598C28.2208 185.589 28.3818 185.589 28.7038 185.589C29.0258 185.589 29.5088 185.589 29.8308 185.589C30.4748 185.589 31.2798 185.589 32.0848 185.589C32.2458 185.589 32.2458 185.589 32.4068 185.589C33.3728 185.589 34.1778 185.589 35.1438 185.589C35.3048 185.589 35.4658 185.589 35.6268 185.589C36.1098 185.589 36.4318 185.589 36.9148 185.589C38.8469 185.589 40.7789 185.428 42.7109 185.428C43.8379 185.428 44.8039 185.428 45.9309 185.267C46.0919 185.267 46.2529 185.267 46.4139 185.267C47.3799 185.267 48.1849 185.267 49.1509 185.267C51.2439 185.267 53.1759 185.106 55.1079 185.106C55.5909 185.106 56.0739 185.106 56.5569 185.106C60.26 185.106 63.319 184.945 65.09 184.945C65.573 184.945 66.056 184.945 66.378 184.945C68.471 184.945 69.759 185.589 70.564 186.232C71.047 186.715 71.369 187.68 71.369 188.645Z"
                fill="transparent" />
            <path id="Vector_39"
                d="M29.3501 225.804C28.5451 225.804 27.7401 225.804 27.4181 225.804C26.1301 225.804 25.3251 225.482 25.0031 225.161C24.5201 224.839 24.1981 224.356 23.8761 223.713C23.2321 222.426 20.1731 216.796 18.7241 213.257C18.2411 212.131 18.0801 211.327 18.0801 210.844C18.0801 210.361 18.2411 210.201 18.2411 210.201L21.6221 209.879C22.7491 213.096 24.8421 219.209 26.7741 222.908C27.5791 224.195 28.5451 225.161 29.3501 225.804Z"
                fill="transparent" />
            <path id="Vector_40"
                d="M19.852 191.541C19.208 194.115 19.047 196.688 19.047 198.136C19.047 198.297 19.047 198.619 19.047 198.78H15.666C15.666 198.297 15.666 197.493 15.827 196.367C15.988 194.597 16.149 192.345 16.632 189.932C17.115 187.841 18.564 186.715 19.852 186.233C20.496 185.911 21.14 185.75 21.784 185.75C21.945 185.75 22.267 185.75 22.428 185.75H22.589C22.589 185.75 22.75 185.75 22.911 185.75C21.14 187.359 20.335 189.45 19.852 191.541Z"
                fill="transparent" />
        </g>
        <g id="bumper">
            <path id="Vector_41"
                d="M897.315 214.821V221.583C895.544 221.583 893.773 221.422 892.002 221.422C890.231 221.422 888.46 221.583 886.85 222.066C885.24 222.549 883.952 223.354 883.147 224.803C882.181 226.574 880.893 229.955 879.766 233.658C879.605 233.98 879.605 234.463 879.444 234.785L795.884 241.869C793.952 231.887 791.376 222.388 790.41 219.168L878.156 217.88L878.317 217.558L878.478 217.236C878.8 216.592 879.766 215.304 881.054 213.855C882.342 212.567 883.791 211.279 885.24 211.118C886.045 211.118 886.85 210.957 887.816 210.957C889.587 210.957 891.519 211.118 893.129 211.279C894.256 211.279 895.061 211.44 895.383 211.44L897.315 214.821Z"
                fill="transparent" />
            <path id="Vector_42"
                d="M897.315 222.708V227.055C895.383 227.216 893.29 227.538 891.519 227.86C889.587 228.182 887.977 228.665 887.172 229.148C886.85 229.309 886.689 229.631 886.367 229.953C885.562 231.241 884.435 233.495 883.308 236.071C882.181 238.486 881.215 241.223 880.41 243.155H880.088L877.834 243.477C878.639 240.74 879.605 237.198 880.732 233.817C881.859 230.114 883.147 226.733 884.113 225.284C884.918 224.157 885.884 223.352 887.333 223.03C888.621 222.708 890.392 222.547 892.163 222.547C893.773 222.708 895.544 222.708 897.315 222.708Z"
                fill="transparent" />
            <path id="Vector_43"
                d="M897.314 228.184V240.259L881.697 242.996C882.502 240.742 883.79 237.844 884.917 235.429C885.561 233.98 886.205 232.692 886.688 231.726C887.01 231.243 887.171 230.76 887.493 230.599C887.654 230.277 887.815 230.116 887.976 230.116C888.459 229.794 890.069 229.311 892.001 228.989C893.45 228.667 895.543 228.345 897.314 228.184Z"
                fill="transparent" />
            <path id="Vector_44"
                d="M879.121 235.43C878.155 238.489 877.35 241.548 876.706 243.963L797.816 259.097C797.816 254.267 797.011 248.31 796.045 242.514L879.121 235.43Z"
                fill="transparent" />
            <path id="Vector_45"
                d="M895.063 198.88V210.794C893.775 210.633 890.555 210.311 887.657 210.311C886.691 210.311 885.725 210.311 884.92 210.472C882.827 210.794 880.895 212.404 879.607 214.014C878.48 215.302 877.836 216.429 877.514 216.912L790.091 218.039C787.676 213.048 784.939 208.218 781.719 203.71L878.963 197.109L879.124 197.27H882.988V197.431L895.063 198.88Z"
                fill="transparent" />
        </g>
        <g id="&#208;&#187;&#208;&#176;&#208;&#185;&#208;&#189;">
            <path id="Vector_46"
                d="M772.97 260.87H773.453C773.453 222.288 742.219 191.133 703.9 191.133C665.421 191.133 634.348 222.45 634.348 260.87C634.348 299.451 665.582 330.607 703.9 330.607C742.38 330.607 773.453 299.29 773.453 260.87H772.97H772.487C772.487 279.918 764.759 297.03 752.362 309.46C739.965 321.89 722.738 329.638 703.9 329.638C684.902 329.638 667.836 321.89 655.439 309.46C643.042 297.03 635.314 279.918 635.314 260.87C635.314 241.821 643.042 224.71 655.439 212.28C667.836 199.85 685.063 192.101 703.9 192.101C722.899 192.101 739.965 199.85 752.362 212.28C764.759 224.71 772.487 241.821 772.487 260.87H772.97Z"
                fill="#DEE7F4" />
            <path id="Vector_47"
                d="M719.676 212.442L719.837 211.958C714.524 210.182 709.211 209.375 704.059 209.375C682.485 209.375 662.359 223.258 655.275 244.889C653.504 250.216 652.699 255.543 652.699 260.709C652.699 282.341 666.545 302.519 688.12 309.622C693.433 311.398 698.746 312.205 703.898 312.205C725.472 312.205 745.597 298.322 752.681 276.691C754.452 271.363 755.257 266.036 755.257 260.871C755.257 239.239 741.411 219.061 719.837 211.958L719.676 212.442L719.515 212.926C740.767 219.868 754.291 239.562 754.291 260.709C754.291 265.875 753.486 271.041 751.876 276.206C744.953 297.515 725.311 311.075 704.22 311.075C699.068 311.075 693.916 310.268 688.764 308.653C667.511 301.712 653.987 282.018 653.987 260.871C653.987 255.705 654.792 250.539 656.402 245.373C663.325 224.065 682.968 210.505 704.059 210.505C709.211 210.505 714.363 211.312 719.515 212.926L719.676 212.442Z"
                fill="#DEE7F4" />
            <path id="Vector_48"
                d="M245.044 260.87H245.527C245.527 222.288 214.293 191.133 175.975 191.133C137.495 191.133 106.422 222.45 106.422 260.87C106.422 299.451 137.656 330.607 175.975 330.607C214.454 330.607 245.527 299.29 245.527 260.87H245.044H244.561C244.561 279.918 236.833 297.03 224.436 309.46C212.039 321.89 194.973 329.638 175.975 329.638C156.976 329.638 139.91 321.89 127.513 309.46C115.116 297.03 107.388 279.918 107.388 260.87C107.388 241.821 115.116 224.71 127.513 212.28C139.91 199.85 157.137 192.101 175.975 192.101C194.973 192.101 212.039 199.85 224.436 212.28C236.833 224.71 244.561 241.821 244.561 260.87H245.044Z"
                fill="#DEE7F4" />
            <path id="Vector_49"
                d="M191.592 212.442L191.753 211.958C186.44 210.182 181.127 209.375 175.975 209.375C154.401 209.375 134.275 223.258 127.191 244.889C125.42 250.216 124.615 255.543 124.615 260.709C124.615 282.341 138.461 302.519 160.036 309.622C165.349 311.398 170.662 312.205 175.814 312.205C197.388 312.205 217.513 298.322 224.597 276.691C226.368 271.363 227.173 266.036 227.173 260.871C227.173 239.239 213.327 219.061 191.753 211.958L191.592 212.442L191.431 212.926C212.683 219.868 226.207 239.562 226.207 260.709C226.207 265.875 225.402 271.041 223.792 276.206C216.869 297.515 197.227 311.075 176.136 311.075C170.984 311.075 165.832 310.268 160.68 308.653C139.427 301.712 125.903 282.018 125.903 260.871C125.903 255.705 126.708 250.539 128.318 245.373C135.241 224.065 154.884 210.505 175.975 210.505C181.127 210.505 186.279 211.312 191.431 212.926L191.592 212.442Z"
                fill="#DEE7F4" />
            <path id="Vector_50"
                d="M459.5 130.759H458.856C458.856 131.405 458.212 132.051 457.568 132.051L412.81 131.405C412.005 131.405 411.522 130.759 411.522 130.114V128.499C411.522 127.692 412.166 127.208 412.81 127.208L457.568 126.239C458.212 126.239 458.856 126.885 458.856 127.531V130.759H459.5H459.983V127.531C459.983 126.239 458.856 125.109 457.568 125.109L412.81 126.078C411.522 126.078 410.395 127.208 410.395 128.499V130.114C410.395 131.405 411.522 132.535 412.81 132.535L457.568 133.181C458.856 133.181 459.983 132.051 459.983 130.759H459.5Z"
                fill="#DEE7F4" />
            <path id="Vector_51"
                d="M671.861 123.977H671.378C671.378 124.623 670.734 125.268 670.09 125.268L625.332 124.623C624.527 124.623 624.044 123.977 624.044 123.331V121.717C624.044 120.91 624.688 120.425 625.332 120.425L670.09 119.618C670.734 119.618 671.378 120.264 671.378 120.91V124.138H671.861H672.344V120.91C672.344 119.618 671.217 118.488 669.929 118.488L625.171 119.295C623.883 119.295 622.756 120.425 622.756 121.717V123.331C622.756 124.623 623.883 125.753 625.171 125.753L669.929 126.398C671.217 126.398 672.344 125.268 672.344 123.977H671.861Z"
                fill="#DEE7F4" />
            <path id="Vector_52"
                d="M24.9536 134.634L24.6316 134.311C23.9876 135.118 23.5046 135.603 23.5046 135.603L5.15039 172.731H11.5905L11.7515 172.57C11.7515 172.57 21.7336 159.01 29.9447 146.58C33.0037 142.06 36.2237 138.024 39.1218 134.957L39.9268 133.988H24.9536L24.7926 134.15L24.9536 134.634V135.118H38.6388V134.634L38.3168 134.311C35.4187 137.54 32.1987 141.414 29.1397 146.095C25.1146 152.23 20.4456 158.848 17.0645 163.691C15.2935 166.112 13.8445 168.211 12.7175 169.664C11.5905 171.117 11.1075 171.924 11.1075 171.924L11.5905 172.247V171.762H6.76041L24.3096 136.087L23.8266 135.925L24.3096 136.248C24.3096 136.248 24.7926 135.764 25.4366 134.957L24.9536 134.634Z"
                fill="#DEE7F4" />
            <path id="Vector_53"
                d="M36.868 126.078V125.755H36.546C34.131 125.755 30.9109 128.176 28.3349 130.759C25.7589 133.18 23.6659 135.602 23.6659 135.602L5.47266 172.569H11.2687L11.4297 172.407C11.4297 172.407 21.4118 158.848 29.6229 146.418C33.648 140.283 38.156 135.118 41.6981 131.728C43.4691 129.952 44.9181 128.66 45.8841 127.692C46.8501 126.723 47.4941 126.239 47.4941 126.239V126.078C47.6551 125.109 48.7821 123.656 50.3922 122.365C51.8412 121.073 53.7732 119.943 55.2222 119.136L55.5442 118.975L55.3832 118.652C54.9002 118.006 54.0952 117.199 53.4512 116.392L53.2902 116.23H53.1292C52.1632 116.392 51.3582 116.715 50.7142 116.876C42.0201 119.298 36.546 125.593 36.546 125.593L36.868 126.078L37.029 126.239C37.029 126.239 37.351 125.916 37.995 125.27C39.927 123.333 44.5961 119.459 50.8752 117.683C51.5192 117.522 52.3242 117.36 53.2902 117.038V116.715L53.1292 116.876C53.9342 117.683 54.5782 118.49 55.0612 119.136L55.2222 118.975L55.0612 118.652C53.4512 119.459 51.5192 120.589 50.0702 122.042C48.4601 123.333 47.3331 124.786 47.0111 125.916H47.3331H47.1721C47.1721 125.916 37.351 133.665 29.1399 146.256C25.1149 152.39 20.4458 159.009 17.0648 163.852C15.2938 166.273 13.8447 168.372 12.7177 169.825C11.5907 171.277 11.1077 172.085 11.1077 172.085L11.2687 172.246V171.923H6.43867L24.1489 135.925C24.1489 135.925 24.6319 135.279 25.4369 134.472C26.7249 133.18 28.6569 131.082 30.7499 129.306C32.843 127.53 35.097 126.239 36.546 126.239H36.707H36.868L37.029 126.078H36.868Z"
                fill="#DEE7F4" />
            <path id="Vector_54"
                d="M878.267 122.041H864.582C864.26 118.328 863.777 115.1 863.455 113.163C863.455 113.163 863.455 112.84 863.294 112.355H881.165C881.165 113.163 881.326 113.97 881.326 114.777C881.326 115.907 881.326 117.198 881.487 118.167C881.487 116.875 881.487 115.1 881.326 113.485H863.938C864.26 115.423 864.582 118.005 864.904 121.073H878.911L881.487 120.427C881.487 120.588 881.487 120.588 881.487 120.588L878.428 121.234L878.267 122.041ZM863.938 122.041H863.616V121.557C863.294 118.167 862.972 115.1 862.489 113.324V113.001L862.328 112.355H862.65C862.811 112.84 862.811 113.163 862.811 113.163C863.294 115.261 863.616 118.328 863.938 122.041ZM882.453 121.073C882.453 120.911 882.453 119.62 882.453 117.683C882.453 119.135 882.453 120.104 882.453 120.588V121.073Z"
                fill="#DEE7F4" />
            <path id="Vector_55"
                d="M878.267 122.041H864.582C864.26 118.328 863.777 115.1 863.455 113.163C863.455 113.163 863.455 112.84 863.294 112.355H881.165C881.165 113.163 881.326 113.97 881.326 114.777C881.326 115.907 881.326 117.198 881.487 118.167C881.487 116.875 881.487 115.1 881.326 113.485H863.938C864.26 115.423 864.582 118.005 864.904 121.073H878.911L881.487 120.427C881.487 120.588 881.487 120.588 881.487 120.588L878.428 121.234L878.267 122.041ZM863.938 122.041H863.616V121.557C863.294 118.167 862.972 115.1 862.489 113.324V113.001L862.328 112.355H862.65C862.811 112.84 862.811 113.163 862.811 113.163C863.294 115.261 863.616 118.328 863.938 122.041ZM882.453 121.073C882.453 120.911 882.453 119.62 882.453 117.683C882.453 119.135 882.453 120.104 882.453 120.588V121.073Z"
                fill="#DEE7F4" />
            <path id="Vector_56"
                d="M895.653 211.311H896.136V197.912L883.739 196.621V197.105L884.222 196.944C884.222 196.944 884.061 196.621 883.9 195.975C883.256 194.038 881.968 189.841 881.968 186.29V185.967C881.968 183.384 882.612 178.38 883.095 174.021C883.739 169.662 884.222 165.95 884.222 165.95V165.788L878.426 141.09L879.231 121.88L882.29 121.234V120.75C882.29 120.75 882.29 117.844 882.129 114.454C881.968 111.064 881.807 107.351 881.324 105.737C880.841 103.961 879.07 101.055 877.299 98.4726C875.689 95.8897 874.079 93.6297 874.079 93.6297L818.372 25.8299L831.091 21.9556L828.193 19.0499L766.53 12.2699V12.7542L766.852 12.4313C764.437 10.1713 760.09 8.2342 754.777 6.61992C749.463 5.00564 743.184 3.71421 737.066 2.90707C733.846 2.42279 725.152 2.09993 713.077 1.77707C676.691 0.808503 610.197 0.324219 577.997 0.324219C535.009 0.324219 457.567 1.45422 447.746 2.09993C437.925 2.74564 415.868 8.87991 415.868 8.87991L416.029 9.3642V8.87991C416.029 8.87991 411.521 9.3642 405.242 9.84848C398.963 10.4942 391.074 11.3013 384.15 11.9471C370.143 13.2385 348.73 23.4085 348.569 23.4085C348.569 23.4085 306.87 47.6227 288.354 59.5684C269.839 71.5141 231.36 98.7954 231.36 98.7954L231.682 99.2797V98.7954L225.886 98.3112L220.09 101.863L219.124 100.894L218.963 100.733L204.633 96.374H204.472C195.456 98.9569 184.186 98.4726 141.843 102.831C94.3472 107.674 59.2489 114.454 50.5548 116.875C41.8607 119.297 36.3866 125.754 36.2256 125.754L36.7086 126.077V125.593H36.3866C35.0986 125.593 33.6496 126.238 32.2006 127.207C27.8535 129.951 23.3455 135.44 23.1845 135.601L4.66925 173.86L8.6943 175.151L6.92328 181.124H1.44922V187.581H7.40628L6.76228 199.85H1.44922V213.894L6.60128 219.059L9.82131 225.678L7.56729 227.938V228.261C7.56729 228.261 9.98231 242.789 11.9143 250.054C13.8464 257.318 19.8034 267.811 19.8034 267.811L19.9644 268.134H24.4725L36.8696 292.509H93.2202V261.031C93.2202 238.108 102.397 217.284 117.209 202.271C132.022 187.258 152.469 177.895 175.17 177.895C197.71 177.895 218.158 187.258 233.131 202.271C247.943 217.284 257.12 238.108 257.12 261.031V282.501H624.526V260.385C624.526 237.301 633.542 216.477 648.193 201.302C662.845 186.128 682.97 176.927 705.188 176.927C727.406 176.927 747.531 186.29 762.183 201.302C776.834 216.477 785.85 237.301 785.85 260.385V261.999V262.645L877.46 245.049L899.034 241.337V214.539L896.619 210.988L895.653 211.311L895.17 211.634L897.424 214.862V240.368L876.816 243.919L786.494 261.354V260.385C786.494 236.978 777.317 215.831 762.666 200.657C747.853 185.321 727.406 175.958 704.866 175.958C682.326 175.958 661.879 185.482 647.066 200.657C632.254 215.992 623.238 237.139 623.238 260.385V281.371H257.925V260.708C257.925 237.462 248.587 216.477 233.614 201.302C218.641 186.128 197.871 176.604 175.009 176.604C152.147 176.604 131.378 185.967 116.404 201.302C101.431 216.477 92.0932 237.624 92.0932 260.708V291.056H37.5136L25.1165 266.681H20.2864V267.165L20.7694 266.842C20.7694 266.842 20.4474 266.197 19.8034 265.067C18.0324 261.838 14.3294 254.574 13.0413 249.408C12.0753 245.857 11.1093 240.368 10.1433 235.848C9.33831 231.328 8.6943 227.777 8.6943 227.777L8.21129 227.938L8.5333 228.261L11.1093 225.678L7.40628 218.252L2.57623 213.409V200.818H7.72829L8.5333 186.451H2.57623V182.092H7.72829L9.98231 174.344L6.11827 173.052L24.4725 135.924L23.9895 135.763L24.4725 136.085C24.4725 136.085 24.9555 135.44 25.7605 134.633C27.0485 133.341 28.9805 131.243 31.0735 129.467C33.1666 127.691 35.2596 126.4 36.7086 126.561H36.8696H37.1916L37.3526 126.4L37.5136 126.077C38.6406 124.947 43.6317 119.943 51.0378 117.844C59.5709 115.423 94.6693 108.643 142.165 103.8C184.508 99.4412 195.617 99.9254 204.955 97.3426L204.794 96.8583L204.633 97.3426L218.48 101.54L219.607 102.67L219.929 102.993L226.208 99.1183L231.843 99.6026L232.004 99.4411C232.004 99.4411 234.419 97.6654 238.283 94.9212C250.036 86.6883 275.152 69.0926 288.998 60.2141C298.176 54.2412 313.31 45.2013 326.029 37.7756C332.469 34.0627 338.104 30.6727 342.451 28.0899C346.637 25.6684 349.213 24.0542 349.213 24.0542L348.891 23.5699L349.052 24.0542C349.052 24.0542 350.34 23.4085 352.594 22.4399C359.195 19.5342 374.007 13.5613 384.15 12.5928C397.997 11.3013 416.029 9.52563 416.029 9.52563C416.029 9.52563 417.478 9.20277 419.571 8.55706C426.172 6.78135 440.501 3.22993 447.746 2.74564C457.406 2.09993 534.848 0.969932 577.836 0.969932C599.41 0.969932 636.118 1.13136 668.963 1.61564C685.385 1.77707 700.841 2.09993 713.077 2.42279C725.152 2.74564 734.007 3.0685 737.066 3.55278C743.184 4.35992 749.464 5.65135 754.616 7.26563C759.929 8.87991 764.115 10.8171 766.369 12.9156L766.53 13.077L828.032 19.857L829.32 21.1485L816.762 25.0227L873.435 94.114C873.435 94.114 873.757 94.5983 874.401 95.5669C875.206 96.8583 876.655 98.9569 877.782 100.894C878.909 102.831 880.036 104.93 880.358 105.898C880.841 107.351 881.002 111.064 881.163 114.293C881.324 117.521 881.324 120.427 881.324 120.588H881.807L881.646 120.104L878.104 120.75L877.46 141.251L883.256 165.95L883.739 165.788L883.256 165.627C883.256 165.627 880.841 180.478 880.841 185.805V186.128C881.002 191.132 883.256 197.105 883.256 197.267L883.417 197.59L895.17 198.881V211.472L895.331 211.634L895.653 211.311Z"
                fill="#DEE7F4" />
            <path id="Vector_57"
                d="M250.843 112.358L250.681 112.196C250.037 112.519 249.715 112.681 249.715 112.681H249.554C248.427 113.003 241.343 113.488 231.2 114.133C200.288 116.071 139.429 119.299 110.932 121.075C73.0965 123.335 47.4972 125.756 47.4972 125.756C47.4972 125.756 42.9892 129.469 37.3541 135.603L36.8711 136.088H37.5151C45.4042 135.603 103.043 131.729 107.873 131.083C113.025 130.438 255.995 122.851 271.773 122.205C287.551 121.398 465.78 114.456 481.236 113.649C496.692 112.842 625.816 109.452 647.712 107.838C667.837 106.385 673.633 98.4749 673.633 92.5021C673.633 92.0178 673.633 91.3721 673.472 90.8878C673.15 89.2735 671.218 85.7221 668.32 81.0407C659.626 66.835 642.238 42.1365 633.705 32.4508C623.079 20.5051 606.979 20.0208 597.64 20.0208C596.835 20.0208 596.191 20.0208 595.547 20.0208C588.624 20.0208 538.553 19.8594 509.411 19.8594C502.166 19.8594 496.209 19.8594 492.506 19.8594C473.991 20.0208 420.699 21.6351 407.98 22.1194C400.896 22.2808 395.583 24.2179 392.524 25.9936L251.003 112.035L250.843 112.358L251.003 112.519L392.524 26.4779C395.583 24.8636 400.896 22.9265 407.819 22.7651C420.538 22.4422 473.83 20.6665 492.345 20.5051C496.048 20.5051 502.005 20.5051 509.25 20.5051C538.392 20.5051 588.463 20.6665 595.386 20.6665C596.03 20.6665 596.674 20.6665 597.479 20.6665C606.656 20.6665 622.596 21.1508 633.061 32.9351C638.696 39.3922 648.356 52.4679 656.728 64.7364C660.914 70.8707 664.778 76.6821 667.676 81.525C670.574 86.2064 672.506 89.9192 672.667 91.2106C672.828 91.6949 672.828 92.1792 672.828 92.6635C672.828 98.3135 667.354 106.062 647.39 107.515C625.494 109.129 496.37 112.519 481.075 113.326C465.619 114.133 287.39 121.075 271.612 121.882C255.834 122.689 112.864 130.115 107.712 130.761C102.882 131.406 45.2432 135.281 37.3541 135.765V136.088L37.5151 136.249C40.2521 133.182 42.8282 130.599 44.5992 128.985C46.3702 127.371 47.4972 126.402 47.4972 126.402L47.3362 126.241V126.563C47.3362 126.563 48.9462 126.402 51.8443 126.079C60.8604 125.272 82.2736 123.496 110.61 121.721C129.608 120.591 162.936 118.815 192.238 117.039C206.889 116.232 220.574 115.425 230.878 114.779C241.182 114.133 248.105 113.649 249.393 113.165H249.554L249.876 113.003C250.037 112.842 250.359 112.842 250.843 112.519V112.358Z"
                fill="#DEE7F4" />
            <path id="Vector_58"
                d="M873.92 94.1158V93.793L852.99 93.9544H852.829L852.668 94.1158L859.752 103.479H859.913C869.251 103.317 876.335 103.317 879.555 103.317H880.038L879.877 102.994C877.784 99.2815 874.403 94.2773 874.242 93.9544V93.793H874.081L873.92 94.1158L873.759 94.2773C873.92 94.4387 877.301 99.443 879.394 103.156L879.555 102.994V102.672C876.335 102.672 869.251 102.833 859.913 102.833V103.156L860.074 102.994L853.312 93.9544L853.151 94.1158V94.4387L874.081 94.2773L873.92 94.1158Z"
                fill="#DEE7F4" />
            <path id="Vector_59"
                d="M828.511 19.6947V19.3718C828.511 19.3718 824.325 19.5333 819.173 19.8561C814.021 20.0175 808.064 20.3404 804.361 20.3404C803.878 20.3404 803.395 20.3404 803.073 20.3404C799.853 20.3404 791.642 19.3718 784.236 18.4033C780.533 17.919 776.991 17.4347 774.576 17.1118C772 16.789 770.39 16.6275 770.39 16.6275L767.975 16.3047L770.229 17.1118C770.229 17.1118 771.839 17.7575 774.254 18.5647C781.66 21.309 796.955 27.2818 800.98 29.5418H801.141L817.724 25.829L830.765 21.7932L828.833 19.2104H828.672L828.511 19.6947L828.35 19.8561L829.799 21.6318L817.563 25.3447L800.98 29.0575V29.3804L801.141 29.2189C798.404 27.6047 790.837 24.5375 783.753 21.7932C776.669 19.049 770.39 16.6275 770.39 16.6275L770.229 16.9504V17.2733C770.229 17.2733 796.472 20.8247 803.073 20.9861C803.395 20.9861 803.878 20.9861 804.361 20.9861C811.767 20.9861 828.511 20.179 828.511 20.179V19.6947Z"
                fill="#DEE7F4" />
            <path id="Vector_60"
                d="M864.58 122.041H864.097C863.775 118.328 863.453 115.261 862.97 113.163C862.97 113.163 862.97 112.84 862.809 112.355H863.292C863.292 112.84 863.453 113.163 863.453 113.163C863.775 115.261 864.258 118.328 864.58 122.041Z"
                fill="#DEE7F4" />
            <path id="Vector_61"
                d="M864.58 122.041H864.097C863.775 118.328 863.453 115.261 862.97 113.163C862.97 113.163 862.97 112.84 862.809 112.355H863.292C863.292 112.84 863.453 113.163 863.453 113.163C863.775 115.261 864.258 118.328 864.58 122.041Z"
                fill="#DEE7F4" />
            <path id="Vector_62"
                d="M883.096 196.947H883.418C882.935 195.494 881.325 190.49 881.164 186.293C881.325 190.49 882.935 195.656 883.418 196.947C883.257 196.947 883.257 196.947 883.096 196.947Z"
                fill="#DEE7F4" />
            <path id="Vector_63"
                d="M879.232 197.268C881.004 197.106 882.453 196.945 883.097 196.945C883.258 196.945 883.258 196.945 883.419 196.945C882.936 195.653 881.326 190.488 881.165 186.291V185.968C881.165 180.963 883.419 166.919 883.58 165.951L877.783 141.252L878.588 121.235L881.648 120.589C881.648 119.782 881.648 117.361 881.487 114.616C881.326 111.388 881.165 107.514 880.682 106.061C880.521 105.415 880.038 104.446 879.393 103.316H879.554H880.037C880.521 104.285 881.004 105.254 881.165 105.899C881.648 107.514 881.97 111.226 881.97 114.616C882.131 117.845 882.131 120.589 882.131 120.912V121.074L879.071 121.719L878.266 141.091L884.063 165.628C884.063 165.628 883.419 169.341 882.936 173.699C882.292 178.058 881.809 183.062 881.809 185.645V185.968C881.809 188.389 882.453 191.133 883.097 193.232C883.58 195.008 884.063 196.299 884.224 196.622H884.063C883.741 196.783 881.97 196.945 879.232 197.268Z"
                fill="#DEE7F4" />
            <path id="Vector_64"
                d="M859.108 103.641L858.947 103.156H859.269L859.591 103.641H859.752C862.007 103.641 864.1 103.641 866.193 103.641C863.939 103.641 861.524 103.641 859.108 103.641Z"
                fill="#DEE7F4" />
            <path id="Vector_65"
                d="M895.816 210.828C895.816 210.828 895.655 210.828 895.494 210.828V198.721L883.741 197.43H884.063L883.902 197.107C883.902 197.107 883.902 197.107 883.902 196.945L895.977 198.237V210.99L895.816 210.828Z"
                fill="#DEE7F4" />
            <path id="Vector_66"
                d="M883.745 197.43H879.397C879.397 197.43 879.397 197.43 879.236 197.268C882.135 197.107 883.745 196.945 883.745 196.945H883.906C883.906 197.107 883.906 197.107 883.906 197.107L884.067 197.43H883.745Z"
                fill="#DEE7F4" />
            <path id="Vector_67"
                d="M61.3396 218.74L61.8226 219.062C63.5936 215.672 65.8476 209.215 67.9406 203.081C70.0337 197.108 71.6437 191.62 72.1267 190.651C72.2877 190.167 72.4487 189.521 72.4487 188.875C72.4487 187.745 72.1267 186.454 70.9997 185.485C70.0337 184.517 68.4236 183.871 66.1696 183.871C65.8476 183.871 65.3646 183.871 64.8816 183.871C57.3145 183.871 31.0712 184.678 24.1482 184.84H23.9871L23.8261 185.001C21.5721 186.777 20.4451 189.36 19.8011 191.943C19.1571 194.525 18.9961 197.108 18.9961 198.561C18.9961 199.045 18.9961 199.53 18.9961 199.691V200.175H42.6634L41.8583 206.955L21.2501 209.215L21.4111 209.861C22.5381 212.928 24.6312 219.547 26.7242 223.26C27.8512 225.358 29.3002 226.488 30.5882 227.295H30.7492H30.9102C38.3163 227.134 53.6115 226.488 53.6115 226.488C53.7725 226.488 58.2805 226.004 61.8226 219.062L61.3396 218.74L60.8566 218.578C59.2465 221.807 57.3145 223.582 55.8655 224.39C55.2215 224.874 54.5775 225.035 54.0945 225.197C53.9335 225.197 53.7725 225.358 53.6115 225.358H53.4505C53.4505 225.358 49.5864 225.52 44.9174 225.681C40.0873 225.842 34.4523 226.004 30.7492 226.165V226.65L31.0712 226.165C29.9442 225.52 28.4952 224.551 27.5292 222.614C25.5972 218.901 23.5041 212.444 22.3771 209.377L21.8941 209.538V210.022L42.6634 207.762L43.7904 198.884H19.3181V199.368H19.8011C19.8011 199.207 19.8011 198.722 19.8011 198.238C19.8011 196.785 19.9621 194.364 20.6061 191.943C21.2501 189.521 22.3771 187.1 24.3092 185.647L23.9871 185.163V185.647C30.9102 185.485 57.3145 184.678 64.7206 184.678C65.2036 184.678 65.6866 184.678 66.0086 184.678C68.1016 184.678 69.3897 185.324 70.1947 185.97C70.9997 186.777 71.3217 187.584 71.3217 188.553C71.3217 189.037 71.1607 189.521 70.9997 190.005C70.5167 191.135 68.9067 196.624 66.8136 202.597C64.7206 208.57 62.4666 215.027 60.8566 218.417L61.3396 218.74Z"
                fill="#DEE7F4" />
            <path id="Vector_68"
                d="M107.709 130.919V130.435C102.879 131.081 45.4016 134.955 37.3515 135.439H37.1905L36.8685 135.601C34.2925 138.506 31.5555 142.058 28.8184 145.932C24.9544 151.743 20.9293 157.716 17.5483 162.398L16.9043 163.205H42.0206L46.2066 167.402H46.3676C46.3676 167.402 61.3408 167.402 68.7469 166.918C76.475 166.433 80.822 160.138 80.822 159.976H80.5L80.822 160.299L109.48 130.273L108.031 130.435C107.87 130.435 107.709 130.435 107.548 130.435L107.709 130.919V131.403C107.87 131.403 108.031 131.403 108.192 131.403V130.919L107.87 130.596L80.178 159.653L80.017 159.976C79.051 161.106 75.0259 165.788 68.9079 166.111C65.2048 166.272 59.7308 166.433 55.0617 166.433C50.3927 166.433 46.6896 166.433 46.6896 166.433V166.918L47.0116 166.595L42.6646 162.236H18.0313V162.721L18.5143 163.043C21.8954 158.201 26.0814 152.228 29.9454 146.578C32.5215 142.703 35.2585 139.152 37.8345 136.246L37.5125 135.923V136.408C45.4016 135.923 103.04 132.049 107.87 131.403L107.709 130.919Z"
                fill="#DEE7F4" />
            <path id="Vector_69"
                d="M863.131 113.163H863.615C863.615 113.163 863.454 111.225 862.81 109.45C862.488 108.481 862.165 107.513 861.843 106.867C861.682 106.544 861.36 106.221 861.038 105.898C860.716 105.575 860.394 105.414 859.911 105.414C858.784 105.414 846.87 105.414 835.278 105.414C829.482 105.414 823.686 105.414 819.5 105.414C815.153 105.414 812.416 105.414 812.416 105.414C812.416 105.414 811.611 105.575 810.806 105.737C810.001 106.06 809.035 106.544 808.713 107.674V107.997C808.713 108.643 809.196 109.45 809.679 110.257C811.45 112.84 815.153 116.553 817.729 119.135C821.432 122.848 824.813 126.4 829.321 127.045C831.575 127.368 834.312 127.045 836.888 127.368C839.464 127.691 841.718 128.498 843.006 131.081C844.294 133.664 846.87 139.798 849.285 145.448C850.412 148.193 851.7 150.937 852.666 152.874C853.149 153.843 853.632 154.811 853.954 155.457C854.115 155.78 854.276 156.103 854.437 156.264C854.598 156.425 854.759 156.587 854.92 156.748C855.564 157.071 856.369 157.233 857.496 157.394C860.877 157.717 866.191 157.717 866.191 157.717H866.674V157.233C866.674 157.233 866.352 148.677 865.869 138.83C865.386 128.983 864.581 118.005 863.454 113.001L863.131 113.163L862.648 113.324C863.615 118.167 864.42 129.144 864.903 138.991C865.225 143.834 865.386 148.515 865.547 151.905C865.708 155.295 865.708 157.394 865.708 157.394H866.191V156.91C866.191 156.91 863.776 156.91 861.36 156.748C860.072 156.748 858.784 156.587 857.657 156.425C856.53 156.264 855.725 156.103 855.403 155.941C855.403 155.941 855.081 155.457 854.759 154.811C853.471 152.551 851.378 147.708 849.285 142.865C847.192 138.023 845.099 133.018 843.811 130.758C842.362 127.853 839.625 126.884 836.888 126.561C834.151 126.238 831.253 126.561 829.321 126.238C825.296 125.754 822.076 122.364 818.373 118.651C816.602 116.875 814.348 114.615 812.577 112.678C811.772 111.71 810.967 110.741 810.323 109.934C809.84 109.127 809.518 108.481 809.518 108.32C809.679 107.835 810.323 107.351 810.967 107.028C811.289 106.867 811.611 106.867 811.933 106.705H812.255H812.416C812.416 106.705 857.657 106.705 859.911 106.705L860.395 106.867C861.039 107.351 861.683 109.127 862.005 110.58C862.166 111.387 862.327 112.033 862.488 112.678C862.649 113.163 862.648 113.485 862.648 113.485L863.131 113.163Z"
                fill="#DEE7F4" />
            <path id="Vector_70"
                d="M22.2192 185.321V184.837C22.2192 184.837 20.7701 184.837 19.1601 185.483C17.5501 186.128 15.7791 187.42 15.2961 190.003C14.3301 194.846 14.3301 199.527 14.3301 199.688V200.173H42.5054L41.7004 206.953L18.0331 209.536C18.0331 209.536 17.7111 209.536 17.3891 209.858C17.0671 210.181 16.9061 210.666 16.9061 211.311C16.9061 211.957 17.0671 212.926 17.5501 214.056C18.9991 217.768 22.0582 223.418 22.8632 224.71C23.1852 225.355 23.5072 226.001 24.3122 226.486C24.9562 226.97 25.9222 227.293 27.3712 227.293C30.2693 227.293 53.6145 226.324 53.6145 226.324C53.7755 226.324 58.2836 225.84 61.8256 218.898C63.5966 215.508 65.8507 209.051 67.9437 202.917C70.0367 196.944 71.6467 191.456 72.1297 190.487C72.2907 190.003 72.4517 189.357 72.4517 188.711C72.4517 187.581 72.1297 186.29 71.0027 185.321C70.0367 184.353 68.4267 183.707 66.1726 183.707C65.8506 183.707 65.3676 183.707 64.8846 183.707C56.1905 183.707 22.3802 184.676 22.3802 184.676L22.2192 185.321V185.806C22.2192 185.806 24.3122 185.806 27.6932 185.644C37.6753 185.321 58.2836 184.837 64.7236 184.837C65.2066 184.837 65.6896 184.837 66.0116 184.837C68.1047 184.837 69.3927 185.483 70.1977 186.128C71.0027 186.936 71.3247 187.743 71.3247 188.711C71.3247 189.196 71.1637 189.68 71.0027 190.164C70.5197 191.294 68.9097 196.783 66.8167 202.756C64.7236 208.728 62.4696 215.186 60.8596 218.576C59.2496 221.804 57.3176 223.58 55.8685 224.387C55.2245 224.871 54.5805 225.033 54.0975 225.194C53.9365 225.194 53.7755 225.356 53.6145 225.356H53.4535C53.4535 225.356 47.6574 225.517 41.3784 225.84C35.0993 226.001 28.6592 226.324 27.2102 226.324C25.9222 226.324 25.1172 226.001 24.7952 225.678C24.3122 225.356 23.9902 224.871 23.6682 224.225C23.0242 222.934 19.9651 217.284 18.5161 213.733C18.0331 212.603 17.8721 211.796 17.8721 211.311C17.8721 210.827 18.0331 210.666 18.0331 210.666L42.6664 207.921L43.7934 199.043H14.8131V199.527H15.2961C15.2961 199.527 15.2961 198.397 15.4571 196.621C15.6181 194.846 15.7791 192.424 16.2621 190.164C16.7451 188.066 18.1941 186.936 19.4821 186.451C20.1261 186.128 20.7701 185.967 21.2532 185.967C21.5752 185.967 21.7362 185.967 21.8972 185.967H22.0582L22.2192 185.321Z"
                fill="#DEE7F4" />
            <path id="Vector_71"
                d="M577.994 0.808503V0.324219C535.006 0.324219 457.564 1.45422 447.743 2.09993C438.888 2.74564 420.051 7.74992 416.509 8.71849L405.883 13.077L408.781 12.9156C408.781 12.9156 411.679 12.7542 416.67 12.5928C431.482 12.1085 463.843 11.1399 486.384 10.6556C504.899 10.3328 557.546 10.1713 601.339 10.1713C628.387 10.1713 652.055 10.1713 662.359 10.4942C675.883 10.6556 694.559 11.4628 710.015 12.2699C717.743 12.5928 724.505 12.9156 729.496 13.2385C734.487 13.5613 737.386 13.7228 737.386 13.7228L771.196 16.7899L767.01 12.5928C764.595 10.3328 760.248 8.39563 754.935 6.78135C749.622 5.16707 743.343 3.87564 737.225 3.0685C734.004 2.58421 725.31 2.26136 713.235 1.9385C676.688 0.808503 610.194 0.324219 577.994 0.324219V0.808503V1.29279C599.568 1.29279 636.276 1.45422 669.121 1.9385C685.543 2.09993 700.999 2.42279 713.235 2.74564C725.31 3.0685 734.165 3.39136 737.225 3.87564C743.343 4.68278 749.622 5.97421 754.774 7.58849C760.087 9.20277 764.273 11.1399 766.527 13.2385L766.849 12.9156L766.366 13.2385L768.459 15.337L737.547 12.5928C737.547 12.5928 689.407 10.0099 662.52 9.52563C652.216 9.3642 628.548 9.20277 601.5 9.20277C557.708 9.20277 505.221 9.3642 486.545 9.68706C456.437 10.1713 408.942 11.7856 408.942 11.7856V12.2699V12.9156L416.67 9.68706C420.373 8.71849 439.21 3.71421 447.743 3.0685C457.403 2.42279 534.845 1.29279 577.833 1.29279V0.808503H577.994Z"
                fill="#DEE7F4" />
            <path id="Vector_72"
                d="M482.2 10.3337L482.361 10.1722L478.819 5.16797H478.658C471.574 5.3294 466.261 5.49083 463.846 5.49083C457.567 5.81368 452.576 8.55796 449.517 10.9794L448.873 11.4637H449.678C460.626 11.1408 472.057 10.818 482.2 10.6565H482.683L482.361 10.1722L482.2 10.3337V10.0108C472.218 10.1722 460.626 10.4951 449.678 10.818V11.1408L449.839 11.3022C452.898 9.04225 457.728 6.29797 463.846 5.97511C466.261 5.81368 471.574 5.81368 478.658 5.65225V5.3294L478.497 5.49083L481.878 10.4951L482.2 10.3337Z"
                fill="#DEE7F4" />
            <path id="Vector_73"
                d="M643.845 9.84921L644.006 9.68778L639.981 4.6835H639.82C618.568 4.36065 595.062 4.19922 580.088 4.19922C564.632 4.19922 535.491 4.52208 510.053 4.84493H509.892L507.477 10.4949H507.96C532.593 10.3335 569.301 10.1721 601.341 10.1721C617.441 10.1721 632.253 10.1721 643.845 10.3335H644.328L644.006 9.68778L643.845 9.84921V9.52635C632.253 9.52635 617.441 9.36492 601.341 9.36492C569.301 9.36492 532.593 9.52635 507.96 9.68778V10.0106L508.282 10.1721L510.536 5.00636L510.214 4.84493V5.16779C535.652 4.84493 564.793 4.52208 580.249 4.52208C595.223 4.52208 618.89 4.84493 639.981 5.00636V4.6835L639.82 4.84493L643.845 9.84921Z"
                fill="#DEE7F4" />
            <path id="Vector_74"
                d="M730.626 9.20367L730.787 9.04225C729.982 8.55796 728.372 8.07368 725.957 7.58939C718.712 6.29797 704.865 5.16797 688.604 5.16797C685.706 5.16797 682.164 5.16797 678.139 5.16797H677.978L675.08 10.6565H675.563C698.103 11.3022 726.118 12.7551 734.812 13.2394H735.456L735.134 12.7551C734.007 11.3022 732.558 9.84939 730.948 8.88082L730.626 9.20367L730.465 9.3651C731.914 10.3337 733.363 11.6251 734.49 13.078L734.651 12.9165V12.5937C725.957 12.1094 697.942 10.6565 675.402 10.0108V10.3337L675.563 10.4951L678.139 5.49083L677.978 5.3294V5.65225C682.003 5.65225 685.545 5.65225 688.443 5.65225C699.23 5.65225 709.051 6.13654 716.458 6.78225C720.161 7.10511 723.381 7.58939 725.635 7.91225C728.05 8.39653 729.66 8.88082 730.304 9.20367H730.626Z"
                fill="#DEE7F4" />
            <path id="Vector_75"
                d="M83.3986 236.011L23.989 235.85H23.828C23.828 235.85 15.2949 231.168 10.4648 226.648L10.6258 226.487C15.2949 231.007 23.828 235.688 23.828 235.688L69.2305 235.85H82.9156V235.688C93.8638 194.847 130.894 164.66 174.687 164.66C218.318 164.66 255.188 194.524 266.458 235.204V235.366L472.862 231.168L615.348 230.2V230.038C627.746 191.618 663.005 163.691 704.382 163.691C741.735 163.691 774.096 186.291 789.23 219.061V219.223L877.62 217.931V217.77C877.62 217.77 877.781 217.447 878.264 216.801C879.391 215.026 882.128 211.636 884.704 211.313C885.509 211.151 886.314 211.151 887.28 211.151C890.178 211.151 893.399 211.474 894.687 211.636V211.797L896.941 215.026L894.848 211.958C894.526 211.958 893.56 211.797 892.594 211.797C891.145 211.636 889.051 211.636 887.28 211.636C886.314 211.636 885.509 211.636 884.704 211.797C883.255 211.958 881.806 213.088 880.518 214.38C879.23 215.671 878.264 217.124 877.942 217.77L877.781 218.093L877.62 218.416L788.908 219.707L788.747 219.384C773.613 186.776 741.413 164.176 704.221 164.176C662.844 164.176 627.746 191.941 615.348 230.361L615.187 230.684L472.54 231.653L265.975 235.85L265.814 235.527C254.705 195.008 217.835 165.144 174.365 165.144C130.733 165.144 93.8638 195.17 82.7546 236.011H83.3986ZM69.2305 235.204L24.15 235.043C23.828 234.881 21.735 233.59 19.1589 231.976C16.4219 230.2 13.3629 228.101 11.1089 225.841L10.9478 225.357C14.3289 228.747 20.1249 232.298 22.862 233.913C23.506 234.236 23.989 234.558 24.15 234.72L69.2305 234.881C69.2305 235.043 69.2305 235.043 69.2305 235.204Z"
                fill="#DEE7F4" />
            <path id="Vector_76"
                d="M83.3986 236.011L23.989 235.85H23.828C23.828 235.85 15.2949 231.168 10.4648 226.648L10.6258 226.487C15.2949 231.007 23.828 235.688 23.828 235.688L69.2305 235.85H82.9156V235.688C93.8638 194.847 130.894 164.66 174.687 164.66C218.318 164.66 255.188 194.524 266.458 235.204V235.366L472.862 231.168L615.348 230.2V230.038C627.746 191.618 663.005 163.691 704.382 163.691C741.735 163.691 774.096 186.291 789.23 219.061V219.223L877.62 217.931V217.77C877.62 217.77 877.781 217.447 878.264 216.801C879.391 215.026 882.128 211.636 884.704 211.313C885.509 211.151 886.314 211.151 887.28 211.151C890.178 211.151 893.399 211.474 894.687 211.636V211.797L896.941 215.026L894.848 211.958C894.526 211.958 893.56 211.797 892.594 211.797C891.145 211.636 889.051 211.636 887.28 211.636C886.314 211.636 885.509 211.636 884.704 211.797C883.255 211.958 881.806 213.088 880.518 214.38C879.23 215.671 878.264 217.124 877.942 217.77L877.781 218.093L877.62 218.416L788.908 219.707L788.747 219.384C773.613 186.776 741.413 164.176 704.221 164.176C662.844 164.176 627.746 191.941 615.348 230.361L615.187 230.684L472.54 231.653L265.975 235.85L265.814 235.527C254.705 195.008 217.835 165.144 174.365 165.144C130.733 165.144 93.8638 195.17 82.7546 236.011H83.3986ZM69.2305 235.204L24.15 235.043C23.828 234.881 21.735 233.59 19.1589 231.976C16.4219 230.2 13.3629 228.101 11.1089 225.841L10.9478 225.357C14.3289 228.747 20.1249 232.298 22.862 233.913C23.506 234.236 23.989 234.558 24.15 234.72L69.2305 234.881C69.2305 235.043 69.2305 235.043 69.2305 235.204Z"
                fill="#DEE7F4" />
            <path id="Vector_77"
                d="M93.2213 292.352H36.8707L24.4735 267.976H19.9655L19.8045 267.653C19.8045 267.653 13.8474 257.322 11.9154 249.896C9.98339 242.632 7.56836 228.104 7.56836 228.104V227.781L9.82238 225.521L9.98339 225.359L10.1444 225.844C10.3054 226.005 10.4664 226.166 10.4664 226.166L10.3054 226.328L8.69537 227.942C8.85637 228.911 9.33938 231.978 10.1444 235.852C10.9494 240.372 12.0764 245.861 13.0424 249.412C14.4914 254.739 18.1945 261.842 19.8045 265.071C20.1265 265.716 20.4485 266.201 20.6095 266.523H25.1176L37.5147 290.899H92.0943V260.551C92.0943 237.305 101.432 216.319 116.406 201.145C131.379 185.971 152.148 176.446 175.01 176.446C197.872 176.446 218.642 185.809 233.615 201.145C248.588 216.319 257.926 237.466 257.926 260.551V281.213H623.078V260.228C623.078 236.821 632.255 215.674 646.906 200.499C661.719 185.164 682.166 175.801 704.706 175.801C727.246 175.801 747.694 185.325 762.506 200.499C777.318 215.835 786.334 236.982 786.334 260.228V261.196L876.656 243.762L897.264 240.211V214.705L895.01 211.476H895.171C895.332 211.476 895.493 211.476 895.493 211.476H895.815V211.154V210.669L898.391 214.382V241.179L876.817 244.892L785.207 262.488V261.842V260.228C785.207 237.143 776.191 216.319 761.54 201.145C746.889 185.971 726.763 176.769 704.545 176.769C682.327 176.769 662.202 186.132 647.551 201.145C632.899 216.319 623.883 237.143 623.883 260.228V282.505H256.799V260.873C256.799 237.951 247.622 217.126 232.81 202.114C217.998 187.101 197.55 177.738 174.849 177.738C152.309 177.738 131.862 187.101 116.889 202.114C102.076 217.126 92.8993 237.951 92.8993 260.873V292.352H93.2213ZM11.1104 226.005C10.9494 225.844 10.9494 225.844 10.7884 225.682L10.4664 225.198L10.7884 225.521L11.1104 226.005Z"
                fill="#DEE7F4" />
            <path id="Vector_78"
                d="M69.3923 235.688L23.9898 235.527C23.9898 235.527 15.4567 230.845 10.7877 226.325C10.6267 226.164 10.4657 226.002 10.4657 226.002L10.3047 225.518L10.6267 225.195L10.9487 225.68C11.1097 225.841 11.1097 225.841 11.2707 226.002C13.5247 228.101 16.5838 230.361 19.3208 232.137C21.8968 233.751 23.9898 234.881 24.3118 235.204L69.3923 235.365C69.3923 235.204 69.3923 235.204 69.3923 235.042C69.3923 235.204 69.3923 235.365 69.2313 235.527V235.85H69.3923V235.688Z"
                fill="#DEE7F4" />
            <path id="Vector_79"
                d="M82.7571 235.204H69.877C69.877 235.042 69.877 235.042 69.877 234.881H82.5961C93.8662 193.878 131.058 163.691 175.011 163.691C218.965 163.691 255.995 193.717 267.426 234.397L473.186 230.2L615.19 229.231C627.748 190.65 663.329 162.723 704.868 162.723C742.381 162.723 774.904 185.484 790.199 218.093L877.623 216.963C877.945 216.478 878.75 215.187 879.716 214.057C881.165 212.443 882.936 210.667 885.029 210.505C885.834 210.344 886.8 210.344 887.766 210.344C890.664 210.344 893.884 210.667 895.172 210.828V211.151C893.884 210.99 890.664 210.667 887.766 210.667C886.8 210.667 885.834 210.667 885.029 210.828C883.097 210.99 881.165 212.765 879.877 214.38C878.75 215.671 877.945 216.963 877.623 217.447L789.877 218.738C774.582 185.968 742.22 163.368 704.707 163.368C663.169 163.368 627.748 191.295 615.19 229.877L473.025 230.845L267.104 235.042C255.834 194.201 218.804 164.176 175.011 164.176C131.058 164.014 93.8662 194.201 82.7571 235.204Z"
                fill="#DEE7F4" />
            <path id="Vector_80"
                d="M82.7571 235.204H69.877C69.877 235.042 69.877 235.042 69.877 234.881H82.5961C93.8662 193.878 131.058 163.691 175.011 163.691C218.965 163.691 255.995 193.717 267.426 234.397L473.186 230.2L615.19 229.231C627.748 190.65 663.329 162.723 704.868 162.723C742.381 162.723 774.904 185.484 790.199 218.093L877.623 216.963C877.945 216.478 878.75 215.187 879.716 214.057C881.165 212.443 882.936 210.667 885.029 210.505C885.834 210.344 886.8 210.344 887.766 210.344C890.664 210.344 893.884 210.667 895.172 210.828V211.151C893.884 210.99 890.664 210.667 887.766 210.667C886.8 210.667 885.834 210.667 885.029 210.828C883.097 210.99 881.165 212.765 879.877 214.38C878.75 215.671 877.945 216.963 877.623 217.447L789.877 218.738C774.582 185.968 742.22 163.368 704.707 163.368C663.169 163.368 627.748 191.295 615.19 229.877L473.025 230.845L267.104 235.042C255.834 194.201 218.804 164.176 175.011 164.176C131.058 164.014 93.8662 194.201 82.7571 235.204Z"
                fill="#DEE7F4" />
            <path id="Vector_81"
                d="M895.489 211.15C895.489 211.15 895.329 211.15 895.168 211.15V210.828C895.329 210.828 895.329 210.828 895.489 210.828V211.15Z"
                fill="#DEE7F4" />
            <path id="Vector_82"
                d="M83.0758 235.688H69.3906H69.7126V235.527C69.7126 235.365 69.8736 235.204 69.8736 234.881C69.8736 235.043 69.8736 235.043 69.8736 235.204H82.7538C93.8629 194.201 131.054 164.014 175.008 164.014C218.8 164.014 255.831 194.04 267.101 234.881L473.022 230.684L615.187 229.715C627.745 191.134 663.165 163.207 704.704 163.207C742.217 163.207 774.74 185.968 789.874 218.577L877.62 217.447C877.942 216.963 878.747 215.671 879.874 214.38C881.323 212.766 883.094 211.151 885.026 210.828C885.831 210.667 886.797 210.667 887.763 210.667C890.661 210.667 893.881 210.99 895.169 211.151V211.636C894.042 211.474 890.661 211.151 887.763 211.151C886.797 211.151 885.831 211.151 885.187 211.313C882.611 211.635 879.874 215.025 878.747 216.801C878.425 217.447 878.103 217.77 878.103 217.77V217.931L789.713 219.223V219.061C774.579 186.453 742.217 163.691 704.865 163.691C663.487 163.691 628.228 191.618 615.831 230.038V230.2L473.344 231.168L266.94 235.365V235.204C255.831 194.524 218.961 164.66 175.169 164.66C131.376 164.66 94.3459 194.847 83.3978 235.688H83.0758Z"
                fill="#DEE7F4" />
            <path id="Vector_83"
                d="M83.0758 235.688H69.3906H69.7126V235.527C69.7126 235.365 69.8736 235.204 69.8736 234.881C69.8736 235.043 69.8736 235.043 69.8736 235.204H82.7538C93.8629 194.201 131.054 164.014 175.008 164.014C218.8 164.014 255.831 194.04 267.101 234.881L473.022 230.684L615.187 229.715C627.745 191.134 663.165 163.207 704.704 163.207C742.217 163.207 774.74 185.968 789.874 218.577L877.62 217.447C877.942 216.963 878.747 215.671 879.874 214.38C881.323 212.766 883.094 211.151 885.026 210.828C885.831 210.667 886.797 210.667 887.763 210.667C890.661 210.667 893.881 210.99 895.169 211.151V211.636C894.042 211.474 890.661 211.151 887.763 211.151C886.797 211.151 885.831 211.151 885.187 211.313C882.611 211.635 879.874 215.025 878.747 216.801C878.425 217.447 878.103 217.77 878.103 217.77V217.931L789.713 219.223V219.061C774.579 186.453 742.217 163.691 704.865 163.691C663.487 163.691 628.228 191.618 615.831 230.038V230.2L473.344 231.168L266.94 235.365V235.204C255.831 194.524 218.961 164.66 175.169 164.66C131.376 164.66 94.3459 194.847 83.3978 235.688H83.0758Z"
                fill="#DEE7F4" />
            <path id="Vector_84"
                d="M895.329 211.635H895.168V211.151C895.329 211.151 895.329 211.151 895.49 211.151V210.828C895.651 210.828 895.812 210.828 895.812 210.828V211.312L895.329 211.635Z"
                fill="#DEE7F4" />
            <path id="Vector_85"
                d="M69.7164 235.69H69.3943H69.0723V235.367C69.0723 235.206 69.0723 235.044 69.2333 234.883H69.7164C69.7164 235.044 69.5553 235.206 69.5553 235.529L69.7164 235.69Z"
                fill="#DEE7F4" />
            <path id="Vector_86"
                d="M895.976 211.635H895.654C895.654 211.635 895.493 211.635 895.332 211.635L895.654 211.474H895.976V211.635ZM895.976 211.312H895.654V210.828H895.815V211.312H895.976Z"
                fill="#DEE7F4" />
            <path id="Vector_87"
                d="M897.91 222.29V221.806H897.427C895.656 221.806 893.885 221.645 892.114 221.645C890.343 221.645 888.572 221.806 886.962 222.29C885.352 222.775 884.064 223.582 883.259 225.035C882.293 226.81 881.005 230.039 879.878 233.752C878.751 237.464 877.624 241.5 876.819 244.244L876.658 245.052L898.715 241.177V221.645H898.232L897.91 222.29H897.427V240.37L877.141 243.922L877.302 244.406L877.785 244.567C878.59 241.662 879.717 237.787 880.844 234.074C881.971 230.362 883.259 226.972 884.225 225.519C885.03 224.389 885.996 223.582 887.445 223.259C888.733 222.775 890.504 222.775 892.275 222.775C894.046 222.775 895.817 222.936 897.588 222.936H898.071L897.91 222.29Z"
                fill="#DEE7F4" />
            <path id="Vector_88"
                d="M897.913 240.854H898.396V227.133H897.752C895.82 227.294 893.405 227.617 891.473 227.94C889.541 228.263 887.931 228.747 887.126 229.231C886.804 229.393 886.643 229.716 886.321 230.039C885.516 231.33 884.389 233.59 883.262 236.173C882.135 238.756 881.008 241.5 880.203 243.598L879.881 244.406L898.235 241.177V240.693H897.913L897.752 240.209L880.686 243.114L880.847 243.598L881.33 243.76C882.296 241.338 883.584 238.11 884.872 235.204C885.516 233.751 886.16 232.46 886.643 231.491C886.965 231.007 887.126 230.523 887.448 230.361C887.609 230.039 887.77 229.877 887.931 229.877C888.414 229.554 890.024 229.07 891.956 228.747C893.888 228.424 896.142 228.101 898.074 227.94V227.456H897.591V240.693H897.913V240.854Z"
                fill="#DEE7F4" />
            <path id="Vector_89"
                d="M92.5771 268.62V268.297C83.722 268.297 73.2568 268.297 63.9187 268.297C53.4536 268.297 44.5985 268.297 41.5395 268.297H41.3785C32.2014 268.297 25.7613 257.32 22.2193 252.8C20.2873 250.379 15.9402 249.572 12.3982 249.41H12.0762L12.2372 249.894C14.1692 257.159 20.1263 267.49 20.1263 267.49V267.652H24.6343L37.0314 292.027H92.8991V268.297H92.5771V268.62H92.2551V291.543H37.3535L24.9563 267.167H20.2873V267.49L20.4483 267.329C20.4483 267.329 20.1263 266.683 19.4823 265.553C17.7112 262.324 14.0082 255.06 12.5592 249.733H12.2372V250.056C15.7792 250.217 19.9653 251.024 21.5753 253.284C24.9563 257.643 31.3964 268.943 41.0565 268.943H41.2175C44.4375 268.943 53.2926 268.943 63.5967 268.943C72.9348 268.943 83.4 268.943 92.2551 268.943V268.62H92.5771Z"
                fill="#DEE7F4" />
            <path id="Vector_90"
                d="M880.034 235.206V234.883L783.916 243.116V243.439C785.043 248.927 785.526 254.577 785.526 260.55V262.164V262.487L876.814 244.891H877.297H877.458V244.73C878.102 242.147 879.068 238.757 880.195 235.367L880.356 235.044H880.034V235.206H879.712C878.746 238.596 877.619 241.986 876.975 244.569H877.297V244.246H876.814L786.17 261.68V260.388C786.17 254.577 785.526 248.766 784.56 243.277H784.238V243.6L880.034 235.367V235.206Z"
                fill="#DEE7F4" />
            <path id="Vector_91"
                d="M300.43 95.0821L300.269 94.5979C300.269 94.5979 298.498 95.0821 296.405 95.8893C294.312 96.535 292.058 97.5036 290.931 98.1493C290.126 98.795 289.16 99.4407 288.516 100.409C287.872 101.378 287.389 102.346 287.389 103.638C287.389 104.122 287.389 104.445 287.55 104.929C288.355 107.996 290.448 111.225 290.448 111.225L290.609 111.386H290.931C290.931 111.386 292.702 111.386 295.439 111.225C303.65 111.064 320.394 110.741 322.648 110.741C324.258 110.741 326.995 110.741 329.41 110.095C330.698 109.772 331.825 109.288 332.791 108.642C333.757 107.996 334.401 106.866 334.723 105.736C334.884 104.929 334.884 103.961 334.884 102.831C334.884 99.6021 334.562 94.9207 334.079 91.0464C333.918 89.1093 333.596 87.3336 333.274 86.0422C333.113 85.3964 332.952 84.7507 332.952 84.4279C332.952 84.2664 332.791 84.105 332.791 83.9436C332.63 83.7822 332.63 83.6207 332.469 83.4593C331.342 82.8136 328.927 81.6836 323.453 81.6836C322.97 81.6836 322.326 81.6836 321.843 81.6836C315.242 81.845 311.056 82.8136 307.514 85.7193C303.972 88.625 299.947 94.9207 299.947 94.9207L300.43 95.0821L300.913 95.405C300.913 95.405 301.235 95.0821 301.557 94.4364C302.845 92.4993 305.743 88.4636 308.158 86.5264C311.539 83.9436 315.403 82.975 321.843 82.6522C322.487 82.6522 322.97 82.6522 323.453 82.6522C328.766 82.6522 331.02 83.6207 331.825 84.2664C331.825 84.2664 331.986 84.5893 332.147 85.0736C332.952 88.1407 334.079 97.665 334.079 102.992C334.079 104.122 334.079 105.091 333.918 105.736C333.757 106.705 333.274 107.351 332.469 107.996C330.054 109.772 325.224 109.934 322.809 109.934C319.75 109.934 290.931 110.579 290.931 110.579V111.064L291.414 110.741C291.414 110.741 291.253 110.579 291.092 110.256C290.448 109.288 289.16 106.866 288.677 104.929C288.516 104.606 288.516 104.284 288.516 103.961C288.516 102.992 288.838 102.185 289.482 101.378C290.126 100.571 290.931 99.925 291.736 99.4407C292.541 98.795 294.795 97.9878 296.888 97.3421C298.82 96.6964 300.591 96.2121 300.591 96.2121H300.752L300.913 96.0507L300.43 95.0821Z"
                fill="#DEE7F4" />
            <path id="Vector_92"
                d="M334.4 105.576H334.722C334.883 104.931 334.883 103.962 334.883 102.671C334.883 99.4421 334.561 94.7606 334.078 90.8864C333.917 88.9492 333.595 87.1735 333.273 85.8821C333.112 85.2364 332.951 84.5907 332.951 84.2678C332.79 83.7835 332.79 83.6221 332.468 83.4607C331.663 82.9764 330.214 82.3307 327.316 82.0078H326.672L326.994 82.4921C328.121 84.1064 329.57 86.6892 329.731 89.2721C329.892 91.8549 330.214 96.2135 330.214 100.572C330.214 103.801 330.053 107.029 329.409 109.612L329.248 110.096L329.731 109.935C332.146 109.289 334.4 108.159 334.722 105.738L334.4 105.576H334.078C333.756 107.675 331.824 108.805 329.57 109.289V109.612H329.892C330.536 107.029 330.697 103.801 330.697 100.572C330.697 96.2135 330.375 91.6935 330.214 89.2721C330.053 86.3664 328.604 83.7835 327.477 82.1692L327.316 82.3307V82.6535C330.214 82.9764 331.663 83.6221 332.307 84.1064C332.307 84.1064 332.468 84.4292 332.629 84.7521C333.434 87.6578 334.561 97.5049 334.561 102.832C334.561 103.962 334.561 104.931 334.4 105.576Z"
                fill="#DEE7F4" />
            <path id="Vector_93"
                d="M330.218 95.0848H330.54C330.379 92.6633 330.218 90.7262 330.218 89.2734C330.057 86.3676 328.608 83.7848 327.481 82.1705V82.0091H327.32C326.354 81.8477 325.065 81.8477 323.616 81.8477C323.133 81.8477 322.489 81.8477 322.006 81.8477C315.405 82.0091 311.38 82.9777 307.838 85.8834C304.296 88.6276 300.271 95.0848 300.271 95.0848L299.949 95.5691H300.432C300.432 95.5691 305.584 95.5691 311.702 95.5691C317.981 95.5691 325.226 95.5691 329.735 95.5691H330.218H330.54V95.2462L330.218 95.0848V94.7619H329.735C325.226 94.7619 317.981 94.7619 311.702 94.7619C305.423 94.7619 300.432 94.7619 300.432 94.7619V95.0848L300.593 95.2462C300.593 95.2462 301.559 93.6319 303.008 91.6948C304.457 89.7576 306.228 87.4976 307.999 86.2062C311.38 83.4619 315.244 82.6548 321.845 82.3319C322.489 82.3319 322.972 82.3319 323.455 82.3319C324.904 82.3319 326.031 82.3319 327.159 82.4934V82.1705L326.998 82.3319C328.125 83.9462 329.574 86.5291 329.735 89.1119C329.735 90.5648 329.896 92.6633 330.057 94.9233L330.218 95.0848Z"
                fill="#DEE7F4" />
            <path id="Vector_94"
                d="M502.81 102.668H503.132L504.098 24.8594L478.338 25.0208L467.551 104.282L503.132 102.829V102.506L502.81 102.668V102.345L468.195 103.798L478.821 25.6665L503.615 25.5051L502.649 102.668H502.81Z"
                fill="#DEE7F4" />
            <path id="Vector_95"
                d="M387.53 26.315V25.8307C383.022 25.8307 378.353 25.6692 374.005 25.5078H373.844H373.683C352.109 36.9692 251.483 99.7648 234.256 110.58L233.129 111.388L234.578 111.71C239.73 112.679 245.526 113.002 250.839 113.163H251L394.453 25.9921H392.521C390.75 25.9921 388.979 25.9921 387.691 25.9921V26.315V26.7992C389.14 26.7992 390.75 26.7992 392.521 26.7992V26.315L392.199 25.8307L250.678 111.872L251 112.356V111.872C245.848 111.71 240.052 111.226 234.9 110.419L234.739 110.903L235.061 111.388C252.127 100.733 352.914 37.9378 374.327 26.4764L374.005 25.9921V26.4764C378.514 26.6378 383.022 26.7992 387.691 26.7992V26.315H387.53Z"
                fill="#DEE7F4" />
            <path id="Vector_96"
                d="M800.018 29.7056V29.2213L783.596 29.3827L828.193 95.084H828.515C837.37 95.084 845.742 94.9226 852.987 94.9226H854.114L801.306 28.8984L799.857 29.2213L800.018 29.7056L800.179 30.1899L800.984 30.0284L852.665 94.5997L853.148 94.2768V93.7926C845.903 93.7926 837.37 93.954 828.676 93.954V94.4383L829.159 94.1154L785.689 30.3513L800.179 30.1899L800.018 29.7056Z"
                fill="#DEE7F4" />
            <path id="Vector_97"
                d="M873.919 94.1147L874.402 93.7919L818.051 25.0234L800.019 29.0591L702.13 30.0277C702.13 30.0277 699.554 30.3506 696.978 31.3191C695.69 31.8034 694.402 32.4491 693.275 33.2563C692.309 34.0634 691.504 35.1934 691.504 36.6463C691.504 37.292 691.665 37.9377 691.826 38.5834C692.47 40.3591 694.402 42.7805 696.817 46.0091C704.223 55.3719 717.747 69.7391 724.831 77.0033C734.169 86.689 742.702 93.9533 757.193 94.7604C762.023 95.0833 776.191 95.0833 792.935 95.0833C823.203 95.0833 862.649 94.7604 873.758 94.7604H874.724L874.08 93.9533L873.919 94.1147V93.6304C862.81 93.6304 823.525 93.9533 793.096 93.9533C776.191 93.9533 762.184 93.7919 757.354 93.6304C743.185 92.8233 735.135 85.8819 725.636 76.1962C720.967 71.3533 713.4 63.4434 706.638 55.8562C703.257 52.1434 700.198 48.4305 697.622 45.202C695.207 42.1348 693.436 39.552 692.792 38.0991C692.631 37.6148 692.47 37.1306 692.47 36.6463C692.47 35.6777 692.953 34.7091 693.919 34.0634C695.207 32.9334 697.3 32.1263 699.071 31.8034C699.876 31.642 700.681 31.4806 701.325 31.3191C701.969 31.1577 702.291 31.1577 702.291 31.1577L800.18 30.1891L817.568 26.3149L873.597 94.4376L873.919 94.1147Z"
                fill="#DEE7F4" />
            <path id="Vector_98"
                d="M660.751 85.397L661.073 85.2355C658.658 80.2312 637.084 44.717 629.356 35.6771C626.941 32.7714 623.399 30.5114 619.535 28.7356L619.213 28.5742V98.7955H619.535C634.83 98.1498 646.261 97.5041 650.125 97.1812C656.565 96.5355 660.751 94.9212 662.2 92.3384C662.522 91.6927 662.683 91.0469 662.683 90.2398C662.683 88.7869 662.2 87.1727 661.234 85.2355L660.751 85.397L660.429 85.5584C661.395 87.4955 661.878 88.9484 661.878 90.2398C661.878 90.8855 661.717 91.5312 661.395 92.1769C660.268 94.4369 656.243 96.0512 649.803 96.6969C645.939 97.1812 634.508 97.6655 619.374 98.3112V98.6341H619.696V29.0585H619.374L619.213 29.3814C623.077 31.1571 626.458 33.4171 628.873 36.1613C636.44 45.0399 658.014 80.5541 660.429 85.5584L660.751 85.397Z"
                fill="#DEE7F4" />
            <path id="Vector_99"
                d="M660.267 83.6202L660.75 83.4588C658.174 78.2931 637.727 45.0389 630.321 36.4832C622.915 27.7661 607.619 24.6989 597.154 24.6989C592.002 24.6989 565.598 24.6989 540.482 24.6989C527.924 24.6989 515.688 24.6989 506.671 24.6989C502.163 24.6989 498.299 24.6989 495.723 24.6989C493.147 24.6989 491.537 24.6989 491.537 24.6989C491.537 24.6989 486.385 24.6989 478.335 24.8604C454.185 25.1832 403.63 25.8289 387.53 25.8289C372.879 25.8289 357.584 24.2147 349.212 23.2461H349.051H348.89C348.568 23.4075 348.407 23.4075 348.407 23.4075C348.407 23.4075 306.707 47.6218 288.192 59.5674C269.677 71.5131 231.197 98.7945 231.197 98.7945L231.519 99.2788V98.7945L225.723 98.3102L219.283 102.346V102.669C219.605 105.09 221.215 106.866 223.791 108.319C227.494 110.417 233.129 111.547 239.247 112.193C245.205 112.839 251.484 113 256.636 113C262.432 113 266.618 112.677 266.618 112.677L305.097 111.063V109.933C297.691 110.094 290.929 110.256 290.929 110.256V110.74L291.412 110.417C291.412 110.417 291.251 110.256 291.09 109.933C290.446 108.964 289.158 106.543 288.675 104.606C288.514 104.283 288.514 103.96 288.514 103.637C288.514 102.669 288.836 101.862 289.48 101.054C290.124 100.247 290.929 99.6016 291.734 99.1173C292.539 98.4716 294.793 97.6645 296.886 97.0188C298.818 96.3731 300.589 95.8888 300.589 95.8888H300.75L300.911 95.7274C300.911 95.7274 301.233 95.4045 301.555 94.7588C302.843 92.8217 305.741 88.7859 308.156 86.8488C311.537 84.266 315.401 83.2974 321.841 82.9745C322.485 82.9745 322.968 82.9745 323.451 82.9745C328.764 82.9745 331.018 83.9431 331.823 84.5888C331.823 84.5888 331.984 84.9117 332.145 85.396C332.95 88.4631 334.077 97.9873 334.077 103.314C334.077 104.444 334.077 105.413 333.916 106.059C333.755 107.027 333.272 107.673 332.467 108.319C331.662 108.964 330.535 109.287 329.408 109.61L324.417 110.902L484.131 104.444C484.131 104.444 521.323 103.314 560.446 102.023C599.569 100.732 640.625 99.1173 648.514 98.3102C653.827 97.6645 657.208 96.5345 659.301 95.0816C661.394 93.6288 662.36 91.5302 662.199 89.5931C662.199 87.6559 661.394 85.7188 660.589 83.9431L660.267 83.6202L659.784 83.7817C660.589 85.396 661.233 87.1717 661.233 88.9474C661.233 90.5616 660.589 92.1759 658.657 93.4674C656.725 94.7588 653.505 95.8888 648.353 96.5345C640.625 97.3416 599.408 98.9559 560.446 100.247C540.965 100.893 521.806 101.539 507.637 102.023C500.553 102.184 494.757 102.507 490.571 102.507C486.546 102.669 484.131 102.669 484.131 102.669L329.408 108.964V109.449L329.569 109.933C330.857 109.61 331.984 109.126 332.95 108.48C333.916 107.834 334.56 106.704 334.882 105.574C335.043 104.767 335.043 103.799 335.043 102.669C335.043 99.4402 334.721 94.7588 334.238 90.8845C334.077 88.9474 333.755 87.1717 333.433 85.8802C333.272 85.2345 333.111 84.5888 333.111 84.266C333.111 84.1045 332.95 83.9431 332.95 83.7817C332.789 83.6202 332.789 83.4588 332.628 83.2974C331.501 82.6517 329.086 81.5217 323.612 81.5217C323.129 81.5217 322.485 81.5217 322.002 81.5217C315.401 81.6831 311.215 82.6517 307.673 85.5574C304.131 88.4631 300.106 94.7588 300.106 94.7588L300.589 95.0816L300.428 94.5974C300.428 94.5974 298.657 95.0816 296.564 95.8888C294.471 96.5345 292.217 97.5031 291.09 98.1488C290.285 98.7945 289.319 99.4402 288.675 100.409C288.031 101.377 287.548 102.346 287.548 103.637C287.548 104.122 287.548 104.444 287.709 104.929C288.514 107.996 290.607 111.224 290.607 111.224L290.768 111.386H291.09C291.09 111.386 292.861 111.386 295.437 111.224C298.013 111.224 301.555 111.063 305.258 111.063V110.579V110.094L266.779 111.709C266.779 111.709 265.813 111.709 264.042 111.87C262.271 111.87 259.856 112.032 256.958 112.032C250.196 112.032 241.34 111.709 233.934 110.256C230.231 109.61 227.011 108.642 224.596 107.35C222.181 106.059 220.893 104.444 220.732 102.507H220.249L220.571 102.992L226.367 99.4402L232.002 99.9245L232.163 99.7631C232.163 99.7631 234.578 97.9873 238.442 95.2431C250.196 87.0102 275.312 69.4146 289.158 60.536C298.335 54.5632 313.469 45.5232 326.188 38.0975C332.628 34.3846 338.264 30.9946 342.611 28.4118C346.797 25.9904 349.373 24.3761 349.373 24.3761L349.051 23.8918L349.212 24.3761C349.212 24.3761 349.373 24.3761 349.695 24.2147L349.534 23.7304V24.2147C357.745 25.1832 373.201 26.7975 388.013 26.7975C409.587 26.7975 492.02 25.6675 492.02 25.6675C492.02 25.6675 587.333 25.6675 597.637 25.6675C607.781 25.6675 622.915 28.8961 629.999 37.1289C637.244 45.5232 657.852 78.9388 660.267 83.9431V83.6202Z"
                fill="#DEE7F4" />
            <path id="Vector_100"
                d="M691.34 164.337L691.823 164.498C691.823 164.498 691.34 130.276 690.696 114.617C690.052 98.7971 685.061 85.7215 677.172 73.9372C673.147 67.9644 664.131 56.9872 655.115 46.6558C645.938 36.163 636.761 26.4773 632.253 22.9259C628.227 19.8587 621.304 18.2445 613.898 17.4373C606.331 16.6302 598.281 16.4688 592.324 16.4688C590.231 16.4688 588.299 16.4688 586.85 16.4688C576.546 16.4688 500.07 17.1145 493.469 17.1145C486.868 17.1145 439.211 18.2445 425.365 18.4059C411.519 18.7287 404.596 19.213 399.444 20.6659C394.292 22.1187 381.573 28.253 381.573 28.253C363.541 37.9387 261.626 101.703 261.626 101.703L260.982 102.026L274.185 112.68L274.507 112.196L274.024 112.034C274.024 112.034 268.871 140.284 268.388 152.876C268.388 153.521 268.388 154.167 268.388 154.974C268.388 169.341 272.575 205.986 273.863 215.671C274.507 220.837 277.727 234.881 280.625 247.634C283.684 260.387 286.421 271.848 286.421 271.848L286.582 272.332H610.678V271.848C610.678 262.324 611.966 251.831 613.254 243.598C613.898 239.563 614.542 236.011 615.025 233.59C615.508 231.168 615.83 229.715 615.83 229.715C626.939 195.493 655.92 169.826 691.34 164.498H691.662V164.176L691.34 164.337V163.853C655.437 169.18 626.134 195.17 615.025 229.715C615.025 229.715 609.873 252.8 609.873 272.01H610.356V271.525H287.065V272.01L287.548 271.848C287.548 271.848 286.904 268.942 285.777 264.584C282.557 251.185 275.956 223.42 274.99 215.833C273.702 206.147 269.515 169.341 269.515 155.136C269.515 154.328 269.515 153.683 269.515 153.037C269.837 146.903 271.126 136.733 272.414 128.177C273.058 123.819 273.702 119.944 274.185 117.039C274.668 114.133 274.99 112.357 274.99 112.357V112.034L262.109 101.703L261.787 102.187L262.109 102.671C262.109 102.671 263.719 101.703 266.456 99.9271C286.26 87.4972 366.117 37.6158 381.895 28.8987L381.573 28.4144L381.734 28.8987C381.734 28.8987 384.954 27.4459 388.818 25.6702C392.682 24.0559 397.029 22.1187 399.605 21.473C404.435 20.0202 411.358 19.5359 425.204 19.3745C439.05 19.0516 486.546 18.083 493.147 18.083C499.748 18.083 576.224 17.4373 586.528 17.4373C588.138 17.4373 589.909 17.4373 592.002 17.4373C598.12 17.4373 606.009 17.5987 613.576 18.4059C620.982 19.213 627.905 20.8273 631.448 23.733C635.795 27.123 645.133 36.9701 654.149 47.3015C663.326 57.6329 672.342 68.6101 676.206 74.5829C684.095 86.2057 688.925 99.12 689.569 114.779C689.891 122.527 690.213 135.118 690.374 145.611C690.535 150.938 690.535 155.62 690.535 159.01C690.535 162.4 690.696 164.66 690.696 164.66L691.34 164.337Z"
                fill="#DEE7F4" />
            <path id="Vector_101"
                d="M676.852 73.9358L677.335 73.613C673.31 67.6401 664.294 56.663 655.277 46.3316C646.1 35.8388 636.923 26.1531 632.415 22.6017C628.39 19.5345 621.467 17.9202 614.061 17.1131C606.494 16.306 598.444 16.1445 592.487 16.1445C590.394 16.1445 588.462 16.1445 587.013 16.1445C576.709 16.1445 500.233 16.7902 493.632 16.7902C493.471 16.7902 493.149 16.7902 492.827 16.7902H492.344L484.133 100.249L480.913 113.324L476.565 142.22V150.13L473.989 199.204L473.023 213.894V230.844L474.15 272.654H611.324V272.17C611.324 262.645 612.612 252.153 613.9 243.92C614.544 239.884 615.188 236.333 615.671 233.911C616.154 231.49 616.476 230.037 616.476 230.037C627.585 195.814 656.565 170.147 691.986 164.82H692.308L692.469 164.497C692.469 164.497 691.986 130.274 691.342 114.616C690.698 98.7958 685.707 85.7201 677.818 73.9358H676.852L676.369 74.2587C684.258 85.8815 689.088 98.7958 689.732 114.454C690.054 122.203 690.376 134.794 690.537 145.287C690.698 150.614 690.698 155.296 690.698 158.686C690.698 162.076 690.859 164.336 690.859 164.336H691.342V163.851C655.438 169.178 626.136 195.168 615.027 229.714C615.027 229.714 609.875 252.798 609.875 272.008H610.358V271.524H474.794L473.667 230.844V214.055L474.633 199.366L477.209 150.291V142.381L481.557 113.647L484.777 100.571L492.988 17.436H492.505V17.9202C492.827 17.9202 493.149 17.9202 493.31 17.9202C499.911 17.9202 576.387 17.2745 586.691 17.2745C588.301 17.2745 590.072 17.2745 592.165 17.2745C598.283 17.2745 606.172 17.436 613.739 18.2431C621.145 19.0502 628.068 20.6645 631.61 23.5702C635.957 26.9602 645.295 36.8073 654.311 47.1387C663.489 57.4701 672.505 68.4473 676.369 74.4201L676.852 73.9358Z"
                fill="#DEE7F4" />
        </g>
    </g>
    <defs>
        <clipPath id="clip0_34_156">
            <rect width="900" height="330.928" fill="white" />
        </clipPath>
    </defs>
</svg>