<svg width="900" height="331" viewBox="0 0 900 331" fill="none" xmlns="http://www.w3.org/2000/svg">
<g id="doors">
<path id="Vector" d="M611.32 100.148C611.964 101.114 612.447 102.08 612.447 103.368C612.447 103.69 612.447 104.173 612.286 104.656C611.803 106.91 610.354 109.325 609.71 110.452L625.649 111.096L634.504 104.012L608.744 88.3945L604.075 95.9616C605.846 96.6056 607.778 97.2496 608.744 98.0546C609.71 98.5376 610.515 99.1816 611.32 100.148Z" fill="transparent"/>
<path id="Vector_2" d="M565.76 102.562C565.76 103.689 565.76 104.655 565.921 105.299C566.082 106.265 566.565 106.909 567.37 107.553C567.531 107.714 567.692 107.875 568.014 107.875C568.336 108.036 568.497 108.197 568.819 108.358C568.98 108.519 569.302 108.519 569.463 108.68H569.624C569.141 106.265 568.98 103.367 568.98 100.308C568.98 98.5367 568.98 96.7657 569.141 95.1557V94.8337C569.141 94.5117 569.141 94.1897 569.141 93.8677C569.141 93.3847 569.141 92.9017 569.141 92.4187C569.141 92.0967 569.141 91.7747 569.141 91.4527C569.141 90.9697 569.141 90.4867 569.141 90.1647C569.141 89.6817 569.141 89.3597 569.141 88.8767C569.302 86.4617 570.268 84.2077 571.395 82.5977C569.302 82.9197 568.014 83.4027 567.531 83.7247C567.531 83.7247 567.37 84.0467 567.209 84.5297C566.887 87.7497 565.76 97.2487 565.76 102.562Z" fill="transparent"/>
<path id="Vector_3" d="M523.095 232.652L524.705 270.81H612.289C612.45 269.844 613.094 267.428 613.899 263.886C615.67 256.641 618.407 244.888 620.822 234.584L523.095 232.652Z" fill="transparent"/>
<path id="Vector_4" d="M525.187 232.651L427.298 230.719L426.171 270.808H526.797" fill="transparent"/>
<path id="Vector_5" d="M569.945 94.6727H598.604C598.443 94.5117 598.443 94.3507 598.282 94.1897C596.994 92.2577 594.096 88.2327 591.681 86.3007C588.299 83.7247 584.435 82.7587 577.995 82.5977C577.351 82.5977 576.868 82.5977 576.385 82.5977C574.936 82.5977 573.648 82.5977 572.682 82.7587C571.555 84.3687 570.428 86.6227 570.267 89.1987C570.267 90.4867 570.106 92.2577 569.945 94.1897C569.945 94.1897 569.945 94.3507 569.945 94.6727Z" fill="transparent"/>
<path id="Vector_6" d="M569.781 100.307C569.781 103.366 569.942 106.425 570.425 108.84L570.747 109.001C573.001 109.484 575.577 109.645 577.026 109.645C578.636 109.645 586.847 109.806 594.575 109.967H594.736C597.634 109.967 600.21 110.128 602.625 110.128C602.947 110.128 603.43 110.128 603.752 110.128C604.074 110.128 604.235 110.128 604.396 110.128C604.718 110.128 604.879 110.128 605.201 110.128C606.811 110.128 607.938 110.128 608.421 110.128C608.421 110.128 608.582 109.967 608.582 109.806C609.226 108.84 610.514 106.425 610.997 104.493C611.158 104.171 611.158 103.849 611.158 103.527C611.158 102.561 610.836 101.756 610.192 100.951C609.548 100.146 608.743 99.5016 607.938 99.0186C607.133 98.3746 604.718 97.5696 602.786 96.7646C600.854 96.1206 599.083 95.6376 599.083 95.6376H598.922L598.761 95.4766H569.781C569.781 96.7646 569.781 98.5356 569.781 100.307Z" fill="transparent"/>
<path id="Vector_7" d="M509.407 26.7305L635.471 103.206L636.92 101.918C636.276 101.435 634.988 100.63 633.217 99.5028C613.575 87.1057 533.557 37.3565 517.94 28.6625C517.618 28.5015 516.008 27.6965 513.593 26.7305H509.407Z" fill="transparent"/>
<path id="Vector_8" d="M407.975 17.875L408.136 19.968C427.295 20.129 479.298 21.739 491.857 22.222C498.458 22.383 503.61 24.154 506.83 25.764C508.44 25.764 509.728 25.764 511.016 25.764C511.016 25.764 510.855 25.764 510.855 25.603C506.991 23.993 502.644 22.061 500.068 21.417C495.238 19.968 488.315 19.485 474.468 19.324C461.427 18.841 418.279 17.875 407.975 17.875Z" fill="transparent"/>
<path id="Vector_9" d="M408.3 20.4531L408.622 24.4781C409.266 24.4781 410.232 24.4781 411.842 24.4781C414.096 24.4781 417.477 24.6391 421.502 24.6391C442.915 24.9611 484.936 25.4441 505.544 25.6051H505.705C502.485 24.1561 497.977 22.8681 492.02 22.7071C479.301 22.2241 427.459 20.6141 408.3 20.4531Z" fill="transparent"/>
<path id="Vector_10" d="M408.782 25.6016L416.188 99.9839L416.832 102.56L431.645 103.204L421.018 25.7626C417.154 25.7626 413.934 25.6016 411.68 25.6016C410.392 25.6016 409.265 25.6016 408.782 25.6016Z" fill="transparent"/>
<path id="Vector_11" d="M416.991 103.688L419.245 112.865C436.795 113.67 601.5 120.11 626.133 121.237C625.811 119.466 625.65 118.017 625.328 116.568C624.845 113.67 624.523 111.899 624.523 111.899L594.576 110.611H594.415C586.687 110.45 578.476 110.289 576.866 110.289C575.256 110.289 572.519 110.289 570.104 109.645L416.991 103.688Z" fill="transparent"/>
<path id="Vector_12" d="M626.295 121.879C626.617 123.65 626.939 125.743 627.261 127.836C628.549 136.369 629.998 146.512 630.32 152.791C630.32 153.435 630.32 154.079 630.32 154.884C630.32 169.053 626.134 205.6 624.846 215.421C624.363 218.802 622.914 225.725 621.143 233.775L427.297 229.75V213.489L426.331 198.838L423.755 149.893V142.004L419.408 113.668C437.601 114.312 602.145 120.752 626.295 121.879ZM439.855 130.412C439.855 131.7 440.982 132.827 442.27 132.827L487.029 132.183C488.317 132.183 489.444 131.056 489.444 129.768V128.158C489.444 126.87 488.317 125.743 487.029 125.743L442.27 124.938C440.982 124.938 439.855 126.065 439.855 127.353V130.412Z" fill="transparent"/>
<path id="Vector_13" d="M440.984 127.194V130.414C440.984 131.219 441.628 131.702 442.272 131.702L487.03 131.058C487.835 131.058 488.318 130.414 488.318 129.77V128.16C488.318 127.355 487.674 126.872 487.03 126.872L442.272 125.906C441.467 125.906 440.984 126.55 440.984 127.194Z" fill="transparent"/>
<path id="Vector_14" d="M227.009 92.2569C227.009 97.8919 232.483 105.62 252.447 107.069C274.022 108.518 400.247 112.06 418.279 112.865L416.025 103.688H415.703C415.703 103.688 406.365 103.366 392.197 102.883C378.029 102.4 359.031 101.756 339.388 101.112C300.265 99.8239 259.21 98.2139 251.32 97.4089C247.939 97.0869 245.202 96.4429 243.109 95.6379C240.533 94.8329 238.762 93.7059 237.957 92.0959C237.635 91.4519 237.474 90.8079 237.474 90.0028C237.474 89.8418 237.474 89.6808 237.474 89.3588C237.474 89.1978 237.474 89.0368 237.474 88.7148C237.474 86.7828 238.279 84.8508 239.084 83.0798C241.66 77.9277 262.108 44.7613 269.514 36.2282C271.929 33.4912 275.149 31.2372 278.852 29.4662C278.852 29.4662 278.852 29.4662 279.013 29.4662C279.496 29.1442 279.979 28.9832 280.623 28.6612L280.945 28.5002C288.029 25.6021 296.24 24.3141 302.68 24.3141H407.653L407.331 20.2891C403.628 20.2891 397.832 20.2891 390.748 20.2891C361.607 20.2891 311.535 20.4501 304.612 20.4501H302.519C293.342 20.4501 277.403 20.9331 266.938 32.6862C261.303 39.1263 251.642 52.1674 243.27 64.4036C239.084 70.5216 235.22 76.4787 232.322 81.1477C229.424 85.8168 227.492 89.5198 227.331 90.8079C227.009 91.2909 227.009 91.7739 227.009 92.2569Z" fill="transparent"/>
<path id="Vector_15" d="M209.138 158.269C209.138 154.888 209.299 150.058 209.299 144.906C209.46 134.441 209.782 122.043 210.104 114.154C210.748 98.5372 215.578 85.8181 223.467 74.0649C227.331 68.2689 236.347 57.3208 245.524 46.8556C254.701 36.5515 263.878 26.7304 268.225 23.3494C271.767 20.4513 278.69 18.8413 286.096 18.0363C293.502 17.2313 301.553 17.0703 307.671 17.0703C309.764 17.0703 311.696 17.0703 313.145 17.0703C323.449 17.0703 399.925 17.7143 406.526 17.7143H406.848L407.009 19.9683C403.306 19.9683 397.51 19.9683 390.426 19.9683C361.284 19.9683 311.213 20.1293 304.29 20.1293C303.646 20.1293 303.002 20.1293 302.197 20.1293C293.019 20.1293 276.758 20.6124 266.293 32.5265C257.76 42.1866 240.211 66.8199 231.678 80.988C228.78 85.6571 226.848 89.1991 226.687 90.8091C226.526 91.2921 226.526 91.7751 226.526 92.4191C226.526 98.3762 232.483 106.265 252.447 107.714C274.182 109.324 400.891 112.705 418.279 113.51L422.626 142.008V149.897L425.202 198.841L426.168 213.492V229.754L284.808 228.788C284.486 227.983 284.164 227.017 283.842 226.212C283.681 225.89 283.681 225.568 283.52 225.246C282.876 223.314 282.071 221.543 281.266 219.772C280.3 217.679 279.334 215.747 278.368 213.814C277.402 211.882 276.275 209.95 275.148 208.018C274.021 206.086 272.894 204.315 271.606 202.544C271.606 202.383 271.445 202.383 271.445 202.222C270.801 201.417 270.157 200.612 269.674 199.807C269.03 199.002 268.386 198.197 267.742 197.231C267.581 196.909 267.259 196.748 267.098 196.426C266.615 195.782 266.132 195.299 265.649 194.655C264.2 193.045 262.751 191.435 261.141 189.825C260.336 189.02 259.531 188.376 258.726 187.571C257.921 186.766 257.116 186.122 256.311 185.317C255.506 184.673 254.862 184.029 254.057 183.385C253.896 183.224 253.735 183.224 253.735 183.063C252.93 182.419 252.125 181.775 251.32 181.131C250.515 180.487 249.549 179.843 248.744 179.199C248.583 179.038 248.422 179.038 248.422 178.877C247.617 178.394 246.812 177.911 246.168 177.267C245.202 176.623 244.397 176.14 243.431 175.496C241.499 174.369 239.728 173.242 237.635 172.276C237.635 172.276 237.474 172.276 237.474 172.115C236.508 171.632 235.703 171.149 234.737 170.827C232.805 169.861 230.712 169.056 228.619 168.251C227.009 167.607 225.56 167.124 223.95 166.641C222.34 166.158 220.73 165.675 219.12 165.192C217.993 164.87 217.027 164.709 215.9 164.387H215.739C214.773 164.226 213.807 164.065 212.841 163.743C212.68 163.743 212.519 163.743 212.519 163.743C212.036 163.582 211.553 163.582 211.07 163.421C210.587 163.26 210.104 163.26 209.621 163.26C208.977 162.616 208.977 160.845 209.138 158.269ZM227.492 123.653C227.492 124.942 228.619 126.069 229.907 126.069L274.665 125.425C275.953 125.425 277.08 124.298 277.08 123.009V121.399C277.08 120.111 275.953 118.984 274.665 118.984L229.907 118.018C228.619 118.018 227.492 119.145 227.492 120.433V123.653Z" fill="transparent"/>
<path id="Vector_16" d="M285.131 229.754C285.936 233.618 290.122 253.582 290.122 270.809H425.041L426.168 230.72L285.131 229.754Z" fill="transparent"/>
<path id="Vector_17" d="M228.459 120.431V123.651C228.459 124.295 229.103 124.939 229.747 124.939L274.505 124.295C275.31 124.295 275.793 123.651 275.793 123.007V121.397C275.793 120.592 275.149 120.109 274.505 120.109L229.747 119.304C229.103 119.143 228.459 119.626 228.459 120.431Z" fill="transparent"/>
<path id="Vector_18" d="M396.223 25.6024L397.189 102.078C402.019 102.239 406.044 102.4 409.103 102.4C413.128 102.561 415.543 102.561 415.543 102.561L414.899 100.146L407.493 25.4414H406.366H396.223V25.6024Z" fill="transparent"/>
</g>
<g id="trunk">
<path id="Vector_19" d="M18.7893 112.547H36.9945C37.1615 111.838 37.3286 110.598 37.6626 109.358C37.9967 108.295 38.3307 107.231 38.8318 106.523C38.9988 106.168 39.3329 105.814 39.6669 105.46C40.0009 105.282 39.8752 105.076 40.2093 104.899L40.8965 103.156C40.7295 103.156 40.836 103.156 40.502 103.156C40.0009 103.156 39.6669 103.156 39.1659 103.156H38.3307C38.3307 103.156 38.1637 103.156 37.9967 103.156C36.6605 103.156 35.3244 103.156 34.1552 103.156C33.6542 103.156 32.9861 103.156 32.485 103.156H32.151C31.8169 103.156 31.4829 103.156 30.9818 103.156H30.3137C29.9796 103.156 29.8126 103.156 29.4786 103.156C28.4765 103.156 27.3073 103.156 26.4722 103.156H25.6371C24.301 103.156 23.1319 103.156 22.1297 103.156H21.6287C21.2947 103.156 21.1276 103.156 20.9606 103.156H20.7936C20.1255 104.397 19.6244 105.637 19.4574 106.346C19.2903 107.054 18.9564 109.712 18.7893 112.547Z" fill="transparent"/>
<path id="Vector_20" d="M18.3613 120.449L20.9716 121.102H35.1647C35.3279 119.141 35.491 117.344 35.8172 115.873C35.8172 115.546 35.9804 115.219 35.9804 115.056C35.9804 114.402 36.1435 113.912 36.3066 113.422H18.6876C18.6876 114.076 18.6877 114.729 18.5245 115.383C18.5245 115.546 18.5245 115.546 18.5245 115.71C18.5245 115.873 18.5245 115.873 18.5245 116.036C18.5245 116.2 18.5245 116.527 18.5245 116.69C18.5245 117.017 18.5245 117.18 18.5245 117.507C18.5245 117.834 18.5245 117.997 18.5245 118.324C18.3614 119.141 18.3613 119.958 18.3613 120.449Z" fill="transparent"/>
<path id="Vector_21" d="M20.9824 102.649C24.393 102.649 31.2143 102.81 39.9844 102.81L46.3184 94.5985C46.1559 94.5985 45.9935 94.5985 45.9935 94.5985C37.2234 94.5985 30.2398 94.4375 26.3419 94.4375C26.1795 94.5985 25.8547 95.0815 25.5299 95.5645C24.7178 96.8525 23.2562 98.9455 22.1193 100.878C21.6321 101.522 21.3072 102.166 20.9824 102.649Z" fill="transparent"/>
<path id="Vector_22" d="M19.1109 185.561V185.883C18.9499 190.069 17.3398 195.06 16.8568 196.509H20.3988C20.5599 196.348 21.0428 195.865 21.8478 195.06C24.5848 192.001 30.0589 184.917 30.2199 176.062C30.3809 166.08 32.4739 159.479 33.2789 157.386V156.903C33.2789 156.903 33.6009 148.37 34.0839 138.549C34.4059 132.914 34.7279 126.796 35.2109 121.805H21.8478L22.4918 140.964L16.8568 165.436C16.8568 166.402 19.1109 180.409 19.1109 185.561Z" fill="transparent"/>
<path id="Vector 489" d="M43.3697 94.3029L46.8346 94.1583L50.8986 89.2862L66.4999 69.8712L82.3205 50.0517L95.3442 33.9337L98.3127 30.2898L98.6738 29.4192L82.3205 25.5508L78.8735 29.8399L69.0975 41.9713L58.3017 54.9343L55.1085 58.3516L53.3173 61.1183L49.7108 65.393L46.4644 69.1191L43.2179 73.2623L40.2654 76.9084L37.0323 80.5948L35.0817 83.0275L31.4703 87.5561L29.0032 90.5114L25.7562 94.1583H27.1167L32.4861 94.3029H43.3697Z" fill="transparent" stroke="transparent" stroke-width="0.1"/>
</g>
<path id="lights" d="M34.213 156.931C35.018 156.931 36.7891 156.931 38.5601 156.77C39.8481 156.77 41.1361 156.609 42.2631 156.448C43.3901 156.287 44.1951 156.126 44.5171 155.965C44.5171 155.965 44.8391 155.482 45.1611 154.999C46.4491 152.745 48.5421 147.915 50.6351 143.085C52.7282 138.255 54.8212 133.263 56.1092 130.848C57.5582 127.95 60.2952 126.984 63.0322 126.662C65.7692 126.34 68.6673 126.662 70.5993 126.34C74.6243 125.857 77.8443 122.476 81.5473 118.773C83.3183 117.002 85.5723 114.748 87.3433 112.816C88.3093 111.85 88.9533 110.884 89.5973 110.079C90.0803 109.274 90.4023 108.63 90.4023 108.469C90.2413 107.825 89.5973 107.503 88.9533 107.181C88.6313 107.02 88.3093 107.02 87.9873 106.859H87.6653C87.6653 106.859 42.4241 106.859 40.1701 106.859L39.6871 107.02C39.0431 107.503 38.3991 109.274 38.0771 110.723C37.9161 111.528 37.7551 112.172 37.5941 112.655C37.5941 113.138 37.4331 113.46 37.4331 113.46C37.2721 113.943 37.272 114.426 37.111 115.07C37.111 115.392 36.9501 115.714 36.9501 116.036C36.9501 116.358 36.7891 116.68 36.7891 117.002C36.7891 117.324 36.6281 117.646 36.6281 118.129C36.4671 119.417 36.3061 120.705 36.1451 122.154C35.6621 127.145 35.3401 133.263 35.018 138.899C34.696 143.729 34.5351 148.398 34.3741 151.779C34.2131 154.355 34.213 155.965 34.213 156.931Z" fill="transparent"/>
<path id="roof" d="M572.539 53.5573L568.439 58.9675L559.983 53.5696L550.665 47.938L539.082 40.7962L530.366 35.587L525.387 32.6305L520.383 29.5715L514.892 27.0885L513.817 26.3631L512.757 26.041L505.438 22.9273L499.557 20.7983L494.846 19.9467L488.406 19.4676L459.797 18.6426L435.181 18.1636L411.11 17.6551L385.996 17.3305L353.735 17.1737L308.491 16.7098L293.649 17.066L281.834 18.3128L275.007 19.797L269.367 22.1125L266.161 24.7841L257.196 33.6302L246.984 44.9104L236.773 56.5468L229.114 66.4022L194.264 55.5969L202.485 46.2478L206.039 40.881L207.851 38.3707V35.2545L205.558 33.0472L202.485 31.7055L198.286 30.6668H192.097L169.015 30.2773L133.885 30.0609L114.971 29.6482H100.267L95.6838 28.5155L88.5741 27.2926L82.2127 25.428L69.8737 21.6441L70.3124 20.9586L71.1625 19.8618L72.2044 19.4779L74.3706 19.1488L79.4981 18.6004L88.8758 17.5585L100.941 16.2423L117.255 14.46L130.362 12.8971L133.256 12.737L136.254 10.5698L140.733 8.65539L144.598 7.31893L153.773 4.86272L161.683 3.56238L169.015 2.83997L182.416 2.40652L206.039 1.86471L236.783 1.42631L256.875 1.17459L276.052 1.03729L287.379 0.851562H306.945H325.435L337.22 1.01297H355.298L369.921 1.12747L390.082 1.40099L401.226 1.5835L421.364 1.72356L433.882 2.156L448.596 2.40756L454.431 2.72771L462.921 4.2392L478.002 7.92004L484.148 9.37937H485.658L495.929 10.4018L504.002 11.1203L511.684 11.816L518.451 12.6434L524.305 13.7728L534.772 17.0598L543.999 20.5413L550.94 23.502L544.978 24.3704L536.948 25.2004L526.19 25.8754L533.28 30.124L547.928 38.7491L555.513 43.2861L572.539 53.5573Z" fill="transparent" stroke="transparent" stroke-width="0.1"/>
<g id="wheels">
<path id="Vector_23" d="M147.71 212.41C160.107 200.013 177.334 192.285 196.171 192.285C215.17 192.285 232.236 200.013 244.633 212.41C257.03 224.807 264.758 241.873 264.758 260.871C264.758 279.87 257.03 296.936 244.633 309.333C232.236 321.73 215.009 329.458 196.171 329.458C177.173 329.458 160.107 321.73 147.71 309.333C135.313 296.936 127.585 279.87 127.585 260.871C127.585 241.873 135.313 224.807 147.71 212.41ZM196.171 312.231C201.485 312.231 206.798 311.426 211.95 309.655C233.685 302.571 247.37 282.446 247.37 260.871C247.37 255.558 246.565 250.245 244.794 245.093C237.71 223.358 217.585 209.673 196.011 209.673C190.697 209.673 185.384 210.478 180.232 212.249C158.497 219.333 144.812 239.458 144.812 261.032C144.812 266.345 145.617 271.659 147.388 276.972C154.472 298.385 174.436 312.231 196.171 312.231Z" fill="transparent"/>
<path id="Vector_24" d="M145.939 260.872C145.939 266.024 146.744 271.176 148.354 276.489C155.277 297.741 174.919 311.104 196.01 311.104C201.162 311.104 206.314 310.299 211.466 308.689C232.718 301.766 246.242 282.124 246.242 261.033C246.242 255.881 245.437 250.729 243.827 245.577C236.904 224.325 217.262 210.801 196.171 210.801C191.019 210.801 185.867 211.606 180.715 213.216C159.463 219.978 145.939 239.781 145.939 260.872Z" fill="transparent"/>
<path id="Vector_25" d="M675.632 212.41C688.029 200.013 705.095 192.285 724.093 192.285C743.091 192.285 760.158 200.013 772.555 212.41C784.952 224.807 792.68 241.873 792.68 260.871C792.68 279.87 784.952 296.936 772.555 309.333C760.158 321.73 743.091 329.458 724.093 329.458C705.095 329.458 688.029 321.73 675.632 309.333C663.235 296.936 655.507 279.87 655.507 260.871C655.507 241.873 663.235 224.807 675.632 212.41ZM724.093 312.231C729.406 312.231 734.719 311.426 739.871 309.655C761.607 302.571 775.292 282.446 775.292 260.871C775.292 255.558 774.487 250.245 772.716 245.093C765.632 223.358 745.506 209.673 723.932 209.673C718.619 209.673 713.306 210.478 707.993 212.249C686.258 219.333 672.573 239.458 672.573 261.032C672.573 266.345 673.378 271.659 675.149 276.811C682.394 298.385 702.519 312.231 724.093 312.231Z" fill="transparent"/>
<path id="Vector_26" d="M673.866 260.873C673.866 266.025 674.671 271.177 676.281 276.329C683.204 297.581 702.846 310.944 724.098 310.944C729.25 310.944 734.402 310.139 739.554 308.529C760.806 301.606 774.33 281.964 774.33 260.873C774.33 255.721 773.525 250.569 771.915 245.417C764.992 224.165 745.35 210.641 724.259 210.641C719.107 210.641 713.955 211.446 708.803 213.056C687.39 219.979 673.866 239.782 673.866 260.873Z" fill="transparent"/>
</g>
<g id="front">
<path id="Vector_27" d="M651.044 112.879C653.137 113.201 659.738 113.684 668.916 114.327C699.667 116.257 760.687 119.475 789.023 121.083C824.121 123.174 848.594 125.426 851.975 125.748C851.653 124.783 850.526 123.657 849.238 122.531C847.789 121.244 845.857 120.118 844.408 119.314L844.086 119.153L844.247 118.831C844.73 118.349 845.213 117.866 845.696 117.223C833.62 114.327 800.776 108.375 757.467 104.032C715.284 99.8497 704.175 100.171 694.837 97.5977L681.152 101.78L680.186 102.745C679.864 104.997 678.254 106.767 675.678 108.214C673.102 109.662 670.043 110.466 666.501 111.271C666.018 111.271 665.535 111.432 665.213 111.592C664.891 111.592 664.408 111.753 663.925 111.753C663.441 111.753 662.958 111.914 662.475 111.914C661.831 112.075 661.187 112.075 660.543 112.236C660.382 112.236 660.382 112.236 660.221 112.236C659.899 112.236 659.416 112.397 658.933 112.397C658.289 112.397 657.645 112.558 656.84 112.558C656.196 112.558 655.391 112.719 654.747 112.719C653.62 112.719 652.332 112.719 651.044 112.879Z" fill="transparent"/>
<path id="Vector_28" d="M844.89 118.991C846.5 119.796 848.11 120.922 849.559 122.209C851.008 123.495 852.296 124.782 852.618 126.069C852.779 126.23 853.423 126.713 854.228 127.517C854.389 127.678 854.55 127.839 854.872 128L855.033 128.16C855.355 128.482 855.677 128.804 855.999 129.126L856.16 129.286C856.482 129.447 856.643 129.769 856.965 130.091L857.126 130.252C857.287 130.412 857.609 130.734 857.77 130.895C858.414 131.538 859.058 132.182 859.863 132.986C860.185 133.308 860.507 133.79 860.99 134.112H873.387C872.099 132.825 870.489 131.056 868.718 129.608C866.625 127.839 864.371 126.552 863.083 126.713H862.922H862.6L862.439 126.552L862.278 126.23C861.151 124.943 856.16 120.117 848.754 118.026C848.11 117.865 847.305 117.705 846.339 117.383C845.856 117.865 845.373 118.509 844.89 118.991Z" fill="transparent"/>
<path id="Vector_29" d="M862.439 135.078C862.439 135.239 862.6 135.239 862.761 135.4L862.922 135.561C864.532 137.33 866.303 139.421 868.074 141.834C868.396 142.156 868.718 142.639 869.04 143.121C869.684 144.086 870.328 145.051 870.972 146.017C873.065 149.073 875.158 152.29 877.251 155.346C877.734 156.151 878.217 156.794 878.861 157.598C879.666 158.724 880.31 159.69 881.115 160.816C881.598 161.459 881.92 162.102 882.403 162.585L883.047 163.389C883.047 163.55 883.208 163.55 883.208 163.711C884.979 166.124 886.428 168.215 887.555 169.663C888.36 170.628 888.843 171.432 889.004 171.754H893.029L875.48 136.365C875.319 136.204 875.158 135.882 874.675 135.4H862.439V135.078Z" fill="transparent"/>
<path id="Vector_30" d="M524.819 271.971L525.141 280.818H641.868V260.228C641.868 237.064 651.206 216.152 666.179 201.032C681.152 185.911 701.921 176.42 724.784 176.42C747.646 176.42 768.415 185.75 783.388 201.032C798.361 216.152 807.7 237.064 807.7 260.228V267.628C816.394 267.628 826.698 267.628 835.875 267.628C846.34 267.628 855.195 267.628 858.415 267.628H858.576C867.753 267.628 874.193 256.689 877.735 252.185C879.667 249.772 883.531 248.968 887.073 248.807C887.234 248.485 887.234 248.003 887.395 247.52C888.2 243.981 889.166 239.477 889.81 235.456C889.81 235.134 889.971 234.651 889.971 234.33C889.971 234.169 889.971 234.008 889.971 233.847C890.454 231.434 890.776 229.343 890.938 228.217C890.938 228.056 890.938 227.895 890.938 227.895C890.938 227.734 890.938 227.734 890.938 227.573L889.327 225.965C884.658 230.469 876.125 235.134 875.964 235.134H875.803L816.394 235.295L816.233 234.973C810.759 214.705 798.844 197.01 782.744 184.463C766.644 171.916 746.519 164.355 724.784 164.355C681.313 164.355 644.444 194.115 633.335 234.49L633.174 234.812L621.904 234.651C620.938 238.673 619.972 243.016 619.006 247.198C615.946 259.906 613.209 271.327 613.209 271.327L613.048 271.649H524.819V271.971Z" fill="transparent"/>
<path id="Vector_31" d="M625.765 112.559C625.926 113.685 626.57 117.063 627.375 121.728C627.697 121.728 628.019 121.728 628.18 121.728C643.153 122.532 773.886 129.288 790.469 130.575L790.147 130.253L791.597 130.414C791.758 130.414 791.919 130.414 792.08 130.414C796.588 130.897 849.557 134.596 860.988 135.24C860.827 135.079 860.666 134.918 860.666 134.918L859.861 133.953H860.183L860.022 133.792C859.539 133.31 859.056 132.827 858.573 132.344C858.412 132.184 858.251 132.023 858.09 131.862C857.768 131.54 857.446 131.218 857.285 131.058C856.802 130.575 856.48 130.253 855.997 129.931C855.675 129.61 855.192 129.288 854.87 128.966C853.26 127.519 852.133 126.553 851.972 126.393C851.489 126.393 850.04 126.232 847.464 126.071C838.609 125.267 817.035 123.497 788.698 121.728C769.7 120.602 736.373 118.832 707.071 117.224C692.419 116.419 678.734 115.615 668.43 114.971C658.126 114.328 651.203 113.685 649.915 113.363H649.754L649.432 113.202C649.271 113.202 649.271 113.041 649.11 113.041H648.949C648.788 113.041 648.788 113.041 648.788 113.041H648.627C646.534 113.041 644.602 113.041 642.831 113.041C637.035 113.041 632.849 112.88 632.849 112.88L625.765 112.559Z" fill="transparent"/>
<path id="Vector_32" d="M793.048 131.539L819.614 159.529L819.775 159.85C820.58 160.976 824.605 165.641 830.884 165.963C834.587 166.124 840.061 166.285 844.73 166.285C848.755 166.285 851.975 166.285 852.941 166.285L857.127 162.102H880.633C879.667 160.815 878.701 159.368 877.735 157.92C875.159 154.22 872.422 150.36 869.846 146.499C869.202 145.534 868.558 144.569 867.914 143.603C867.753 143.443 867.753 143.282 867.592 143.121C867.27 142.638 866.787 141.995 866.465 141.512C866.143 141.03 865.66 140.547 865.338 140.065C864.211 138.778 863.245 137.491 862.279 136.365C853.907 135.882 802.064 132.504 793.048 131.539Z" fill="transparent"/>
<path id="Vector_33" d="M807.699 268.434V290.632H862.278L874.675 266.343H879.183C879.183 266.343 879.183 266.182 879.344 266.021C879.505 265.699 879.666 265.377 879.988 264.895C880.149 264.734 880.149 264.412 880.31 264.251C880.471 263.93 880.632 263.608 880.954 263.125C882.081 261.034 883.369 258.461 884.496 255.726C884.818 254.922 885.14 254.278 885.462 253.474C885.784 252.67 885.945 252.026 886.267 251.222C886.428 250.739 886.589 250.096 886.75 249.613C883.369 249.935 879.666 250.739 878.056 252.83C874.675 257.174 868.235 268.434 858.575 268.434H858.414C855.194 268.434 846.339 268.434 835.874 268.434C826.697 268.434 816.393 268.434 807.699 268.434Z" fill="transparent"/>
<path id="Vector_34" d="M627.216 111.431L633.173 111.592C633.173 111.592 634.139 111.592 635.91 111.753C637.681 111.753 640.096 111.914 642.995 111.914C644.283 111.914 645.571 111.914 647.02 111.914L635.427 104.836L627.216 111.431Z" fill="transparent"/>
<path id="Vector_35" d="M638.805 102.264L636.39 104.194L649.109 111.915C649.753 111.915 650.397 111.915 650.88 111.915C651.041 111.915 651.202 111.915 651.363 111.915C652.49 111.915 653.778 111.755 654.905 111.755C656.354 111.594 657.803 111.594 659.091 111.433C660.379 111.272 661.828 111.111 663.116 110.95H663.277C663.438 110.95 663.599 110.95 663.76 110.95C652.973 104.355 603.575 72.5779 572.502 53.4357L568.42 58.8934C595.79 75.7836 638.322 102.103 638.322 102.103L638.805 102.264Z" fill="transparent"/>
<path id="Vector_36" d="M583.905 72.3458L635.264 103.552L636.713 102.266C636.069 101.783 634.781 100.979 633.01 99.8527C624.638 94.7052 605.64 82.8016 585.193 70.0938L583.905 72.3458Z" fill="transparent"/>
<path id="Vector_37" d="M625.766 215.509C627.054 205.697 631.24 169.181 631.24 155.026C631.24 154.221 631.24 153.578 631.24 152.935C630.918 145.213 628.825 131.701 627.376 122.371C627.698 122.371 627.859 122.371 628.181 122.371C643.476 123.175 777.43 130.092 791.115 131.218L818.807 160.173C819.29 160.817 823.637 166.447 830.882 166.929C838.288 167.412 853.261 167.412 853.261 167.412H853.422L857.608 163.23H881.437C885.301 168.699 888.038 172.399 888.038 172.399L888.199 172.559H893.512L893.673 172.881L889.809 174.168L892.063 181.889H897.215V186.233H891.258L892.063 200.549H897.215V213.096L892.385 217.922L889.004 224.839C885.623 228.056 879.827 231.756 877.09 233.365C876.446 233.686 875.963 234.008 875.802 234.169L830.721 234.33H830.077H817.519C806.249 193.471 769.057 163.39 724.943 163.39C680.989 163.39 643.959 193.31 632.528 233.847L622.224 233.686C623.995 225.965 625.444 218.887 625.766 215.509ZM827.823 190.415C828.145 191.541 829.916 196.849 832.009 202.801C834.102 208.753 836.356 215.187 838.127 218.565C841.508 225.322 846.177 225.965 846.338 225.965C846.338 225.965 846.821 225.965 847.626 225.965C847.787 225.965 847.948 225.965 848.109 225.965C848.431 225.965 848.753 225.965 849.236 225.965C849.397 225.965 849.558 225.965 849.558 225.965C849.88 225.965 850.041 225.965 850.363 225.965C850.685 225.965 851.007 225.965 851.329 225.965C853.261 225.965 855.354 226.126 857.608 226.126C857.769 226.126 858.091 226.126 858.413 226.126C859.057 226.126 859.862 226.126 860.506 226.287C860.828 226.287 861.15 226.287 861.472 226.287C862.76 226.287 864.048 226.287 865.336 226.448C865.658 226.448 865.981 226.448 866.464 226.448C866.947 226.448 867.269 226.448 867.752 226.448C868.235 226.448 868.718 226.448 869.201 226.448H869.362C870.972 226.448 872.26 226.448 872.743 226.448C874.192 226.448 875.158 226.126 875.802 225.643C876.446 225.161 876.929 224.356 877.251 223.874C877.895 222.587 880.954 216.957 882.403 213.257C882.886 211.97 883.047 211.166 883.047 210.522C883.047 209.879 882.886 209.396 882.564 209.075C882.242 208.753 881.92 208.753 881.92 208.753L878.7 208.431L858.091 206.179L857.286 199.423H885.462V198.941C885.462 198.941 885.462 194.115 884.496 189.289C884.013 186.715 882.242 185.428 880.632 184.785C879.183 184.141 877.734 184.141 877.573 184.141C877.412 184.141 876.929 184.141 876.124 184.141H875.963C875.641 184.141 875.319 184.141 874.836 184.141C874.675 184.141 874.514 184.141 874.353 184.141C874.031 184.141 873.87 184.141 873.548 184.141C873.226 184.141 872.904 184.141 872.582 184.141C871.616 184.141 870.65 184.141 869.684 184.141C869.201 184.141 868.718 184.141 868.235 184.141C867.752 184.141 867.43 184.141 866.947 184.141C865.82 184.141 864.853 184.141 863.726 183.981C863.404 183.981 862.921 183.981 862.599 183.981C862.116 183.981 861.472 183.981 860.989 183.981H860.667C859.862 183.981 859.057 183.981 858.252 183.981C858.091 183.981 857.93 183.981 857.769 183.981C857.286 183.981 856.964 183.981 856.481 183.981C855.515 183.981 854.71 183.981 853.744 183.981C852.939 183.981 852.295 183.981 851.49 183.981C850.524 183.981 849.397 183.981 848.431 183.981C847.787 183.981 847.304 183.981 846.66 183.981C846.177 183.981 845.533 183.981 845.05 183.981C841.025 183.82 837.644 183.82 835.551 183.82C835.068 183.82 834.585 183.82 834.263 183.82C832.009 183.82 830.399 184.463 829.433 185.428C828.467 186.393 827.984 187.68 827.984 188.806C827.501 189.289 827.662 189.932 827.823 190.415Z" fill="transparent"/>
<path id="Vector_38" d="M828.631 188.645C828.631 189.128 828.792 189.61 828.953 190.093C829.436 191.219 831.046 196.688 833.139 202.64C835.071 208.592 837.486 215.026 839.096 218.404C840.706 221.621 842.638 223.391 844.087 224.195C844.731 224.678 845.375 224.838 845.858 224.999C846.019 224.999 846.18 225.16 846.341 225.16H846.502C846.663 225.16 846.824 225.16 847.307 225.16C847.468 225.16 847.629 225.16 847.79 225.16C847.951 225.16 848.112 225.16 848.273 225.16C848.595 225.16 848.917 225.16 849.4 225.16C849.561 225.16 849.722 225.16 849.722 225.16C849.722 225.16 850.044 225.16 850.205 225.16C850.688 225.16 851.171 225.16 851.654 225.16C853.586 225.16 856.001 225.321 858.577 225.482C859.221 225.482 860.026 225.482 860.67 225.482C861.153 225.482 861.636 225.482 862.119 225.482C863.246 225.482 864.373 225.482 865.5 225.643C865.822 225.643 866.144 225.643 866.466 225.643C867.271 225.643 868.076 225.643 868.72 225.804H869.042C870.169 225.16 871.457 224.195 872.423 222.425C874.194 219.047 876.287 213.096 877.414 209.718L857.45 207.626L856.323 198.779H879.99C879.99 198.618 879.99 198.457 879.99 198.136C879.99 196.688 879.829 194.275 879.185 191.862C878.541 189.449 877.414 187.036 875.643 185.589C875.482 185.589 875.321 185.589 875.321 185.589H874.999C874.516 185.589 874.033 185.589 873.389 185.589C873.067 185.589 872.745 185.589 872.423 185.589H872.101H871.94C871.779 185.589 871.618 185.589 871.296 185.589C870.974 185.589 870.491 185.589 870.169 185.589C869.525 185.589 868.72 185.589 867.915 185.589C867.754 185.589 867.754 185.589 867.593 185.589C866.627 185.589 865.822 185.589 864.856 185.589C864.695 185.589 864.534 185.589 864.373 185.589C863.89 185.589 863.568 185.589 863.085 185.589C861.153 185.589 859.221 185.428 857.289 185.428C856.162 185.428 855.196 185.428 854.069 185.267C853.908 185.267 853.747 185.267 853.586 185.267C852.62 185.267 851.815 185.267 850.849 185.267C848.756 185.267 846.824 185.106 844.892 185.106C844.409 185.106 843.926 185.106 843.443 185.106C839.74 185.106 836.681 184.945 834.91 184.945C834.427 184.945 833.944 184.945 833.622 184.945C831.529 184.945 830.241 185.589 829.436 186.232C828.953 186.715 828.631 187.68 828.631 188.645Z" fill="transparent"/>
<path id="Vector_39" d="M870.65 225.804C871.455 225.804 872.26 225.804 872.582 225.804C873.87 225.804 874.675 225.482 874.997 225.161C875.48 224.839 875.802 224.356 876.124 223.713C876.768 222.426 879.827 216.796 881.276 213.257C881.759 212.131 881.92 211.327 881.92 210.844C881.92 210.361 881.759 210.201 881.759 210.201L878.378 209.879C877.251 213.096 875.158 219.209 873.226 222.908C872.421 224.195 871.455 225.161 870.65 225.804Z" fill="transparent"/>
<path id="Vector_40" d="M880.148 191.541C880.792 194.115 880.953 196.688 880.953 198.136C880.953 198.297 880.953 198.619 880.953 198.78H884.334C884.334 198.297 884.334 197.493 884.173 196.367C884.012 194.597 883.851 192.345 883.368 189.932C882.885 187.841 881.436 186.715 880.148 186.233C879.504 185.911 878.86 185.75 878.216 185.75C878.055 185.75 877.733 185.75 877.572 185.75H877.411C877.411 185.75 877.25 185.75 877.089 185.75C878.86 187.359 879.665 189.45 880.148 191.541Z" fill="transparent"/>
</g>
<g id="bumper">
<path id="Vector_41" d="M2.68532 214.821V221.583C4.45633 221.583 6.22742 221.422 7.99842 221.422C9.76943 221.422 11.5404 221.583 13.1504 222.066C14.7604 222.549 16.0485 223.354 16.8535 224.803C17.8195 226.574 19.1074 229.955 20.2344 233.658C20.3954 233.98 20.3955 234.463 20.5565 234.785L104.116 241.869C106.048 231.887 108.624 222.388 109.59 219.168L21.8444 217.88L21.6835 217.558L21.5224 217.236C21.2004 216.592 20.2345 215.304 18.9465 213.855C17.6584 212.567 16.2094 211.279 14.7604 211.118C13.9554 211.118 13.1504 210.957 12.1844 210.957C10.4134 210.957 8.48141 211.118 6.8714 211.279C5.74439 211.279 4.93935 211.44 4.61735 211.44L2.68532 214.821Z" fill="transparent"/>
<path id="Vector_42" d="M2.68487 222.708V227.055C4.61687 227.216 6.70994 227.538 8.48095 227.86C10.413 228.182 12.023 228.665 12.828 229.148C13.15 229.309 13.311 229.631 13.633 229.953C14.438 231.241 15.5649 233.495 16.692 236.071C17.819 238.486 18.7849 241.223 19.5899 243.155H19.912L22.166 243.477C21.361 240.74 20.395 237.198 19.268 233.817C18.141 230.114 16.853 226.733 15.8869 225.284C15.0819 224.157 14.1159 223.352 12.6669 223.03C11.3789 222.708 9.60792 222.547 7.83691 222.547C6.2269 222.708 4.45587 222.708 2.68487 222.708Z" fill="transparent"/>
<path id="Vector_43" d="M2.68564 228.184V240.259L18.3027 242.996C17.4977 240.742 16.2097 237.844 15.0827 235.429C14.4387 233.98 13.7948 232.692 13.3118 231.726C12.9897 231.243 12.8287 230.76 12.5067 230.599C12.3457 230.277 12.1848 230.116 12.0238 230.116C11.5408 229.794 9.93075 229.311 7.99875 228.989C6.54974 228.667 4.45665 228.345 2.68564 228.184Z" fill="transparent"/>
<path id="Vector_44" d="M20.8787 235.43C21.8447 238.489 22.6497 241.548 23.2938 243.963L102.184 259.097C102.184 254.267 102.989 248.31 103.955 242.514L20.8787 235.43Z" fill="transparent"/>
<path id="Vector_45" d="M4.93674 198.88V210.794C6.22474 210.633 9.44472 210.311 12.3427 210.311C13.3087 210.311 14.2748 210.311 15.0798 210.472C17.1728 210.794 19.1048 212.404 20.3928 214.014C21.5198 215.302 22.1639 216.429 22.4859 216.912L109.909 218.039C112.324 213.048 115.061 208.218 118.281 203.71L21.0368 197.109L20.8759 197.27H17.0118V197.431L4.93674 198.88Z" fill="transparent"/>
</g>
<g id="line">
<path id="Vector_46" d="M127.03 260.87H126.547C126.547 222.288 157.781 191.133 196.1 191.133C234.579 191.133 265.652 222.45 265.652 260.87C265.652 299.451 234.418 330.607 196.1 330.607C157.62 330.607 126.547 299.29 126.547 260.87H127.03H127.513C127.513 279.918 135.241 297.03 147.638 309.46C160.035 321.89 177.262 329.638 196.1 329.638C215.098 329.638 232.164 321.89 244.561 309.46C256.958 297.03 264.686 279.918 264.686 260.87C264.686 241.821 256.958 224.71 244.561 212.28C232.164 199.85 214.937 192.101 196.1 192.101C177.101 192.101 160.035 199.85 147.638 212.28C135.241 224.71 127.513 241.821 127.513 260.87H127.03Z" fill="#3265B1"/>
<path id="Vector_47" d="M180.324 212.442L180.163 211.958C185.476 210.182 190.789 209.375 195.941 209.375C217.515 209.375 237.641 223.258 244.725 244.889C246.496 250.216 247.301 255.543 247.301 260.709C247.301 282.341 233.455 302.519 211.88 309.622C206.567 311.398 201.254 312.205 196.102 312.205C174.528 312.205 154.403 298.322 147.319 276.691C145.548 271.363 144.743 266.036 144.743 260.871C144.743 239.239 158.589 219.061 180.163 211.958L180.324 212.442L180.485 212.926C159.233 219.868 145.709 239.562 145.709 260.709C145.709 265.875 146.514 271.041 148.124 276.206C155.047 297.515 174.689 311.075 195.78 311.075C200.932 311.075 206.084 310.268 211.236 308.653C232.489 301.712 246.013 282.018 246.013 260.871C246.013 255.705 245.208 250.539 243.598 245.373C236.675 224.065 217.032 210.505 195.941 210.505C190.789 210.505 185.637 211.312 180.485 212.926L180.324 212.442Z" fill="#3265B1"/>
<path id="Vector_48" d="M654.956 260.87H654.473C654.473 222.288 685.707 191.133 724.025 191.133C762.505 191.133 793.578 222.45 793.578 260.87C793.578 299.451 762.344 330.607 724.025 330.607C685.546 330.607 654.473 299.29 654.473 260.87H654.956H655.439C655.439 279.918 663.167 297.03 675.564 309.46C687.961 321.89 705.027 329.638 724.025 329.638C743.024 329.638 760.09 321.89 772.487 309.46C784.884 297.03 792.612 279.918 792.612 260.87C792.612 241.821 784.884 224.71 772.487 212.28C760.09 199.85 742.863 192.101 724.025 192.101C705.027 192.101 687.961 199.85 675.564 212.28C663.167 224.71 655.439 241.821 655.439 260.87H654.956Z" fill="#3265B1"/>
<path id="Vector_49" d="M708.408 212.442L708.247 211.958C713.56 210.182 718.873 209.375 724.025 209.375C745.599 209.375 765.725 223.258 772.809 244.889C774.58 250.216 775.385 255.543 775.385 260.709C775.385 282.341 761.539 302.519 739.964 309.622C734.651 311.398 729.338 312.205 724.186 312.205C702.612 312.205 682.487 298.322 675.403 276.691C673.632 271.363 672.827 266.036 672.827 260.871C672.827 239.239 686.673 219.061 708.247 211.958L708.408 212.442L708.569 212.926C687.317 219.868 673.793 239.562 673.793 260.709C673.793 265.875 674.598 271.041 676.208 276.206C683.131 297.515 702.773 311.075 723.864 311.075C729.016 311.075 734.168 310.268 739.32 308.653C760.573 301.712 774.097 282.018 774.097 260.871C774.097 255.705 773.292 250.539 771.682 245.373C764.759 224.065 745.116 210.505 724.025 210.505C718.873 210.505 713.721 211.312 708.569 212.926L708.408 212.442Z" fill="#3265B1"/>
<path id="Vector_50" d="M440.5 130.759H441.144C441.144 131.405 441.788 132.051 442.432 132.051L487.19 131.405C487.995 131.405 488.478 130.759 488.478 130.114V128.499C488.478 127.692 487.834 127.208 487.19 127.208L442.432 126.239C441.788 126.239 441.144 126.885 441.144 127.531V130.759H440.5H440.017V127.531C440.017 126.239 441.144 125.109 442.432 125.109L487.19 126.078C488.478 126.078 489.605 127.208 489.605 128.499V130.114C489.605 131.405 488.478 132.535 487.19 132.535L442.432 133.181C441.144 133.181 440.017 132.051 440.017 130.759H440.5Z" fill="#3265B1"/>
<path id="Vector_51" d="M228.139 123.977H228.622C228.622 124.623 229.266 125.268 229.91 125.268L274.668 124.623C275.473 124.623 275.956 123.977 275.956 123.331V121.717C275.956 120.91 275.312 120.425 274.668 120.425L229.91 119.618C229.266 119.618 228.622 120.264 228.622 120.91V124.138H228.139H227.656V120.91C227.656 119.618 228.783 118.488 230.071 118.488L274.829 119.295C276.117 119.295 277.244 120.425 277.244 121.717V123.331C277.244 124.623 276.117 125.753 274.829 125.753L230.071 126.398C228.783 126.398 227.656 125.268 227.656 123.977H228.139Z" fill="#3265B1"/>
<path id="Vector_52" d="M875.046 134.634L875.368 134.311C876.012 135.118 876.495 135.603 876.495 135.603L894.85 172.731H888.41L888.249 172.57C888.249 172.57 878.266 159.01 870.055 146.58C866.996 142.06 863.776 138.024 860.878 134.957L860.073 133.988H875.046L875.207 134.15L875.046 134.634V135.118H861.361V134.634L861.683 134.311C864.581 137.54 867.801 141.414 870.86 146.095C874.885 152.23 879.554 158.848 882.935 163.691C884.706 166.112 886.156 168.211 887.283 169.664C888.41 171.117 888.893 171.924 888.893 171.924L888.41 172.247V171.762H893.24L875.69 136.087L876.173 135.925L875.69 136.248C875.69 136.248 875.207 135.764 874.563 134.957L875.046 134.634Z" fill="#3265B1"/>
<path id="Vector_53" d="M863.132 126.078V125.755H863.454C865.869 125.755 869.089 128.176 871.665 130.759C874.241 133.18 876.334 135.602 876.334 135.602L894.527 172.569H888.731L888.57 172.407C888.57 172.407 878.588 158.848 870.377 146.418C866.352 140.283 861.844 135.118 858.302 131.728C856.531 129.952 855.082 128.66 854.116 127.692C853.15 126.723 852.506 126.239 852.506 126.239V126.078C852.345 125.109 851.218 123.656 849.608 122.365C848.159 121.073 846.227 119.943 844.778 119.136L844.456 118.975L844.617 118.652C845.1 118.006 845.905 117.199 846.549 116.392L846.71 116.23H846.871C847.837 116.392 848.642 116.715 849.286 116.876C857.98 119.298 863.454 125.593 863.454 125.593L863.132 126.078L862.971 126.239C862.971 126.239 862.649 125.916 862.005 125.27C860.073 123.333 855.404 119.459 849.125 117.683C848.481 117.522 847.676 117.36 846.71 117.038V116.715L846.871 116.876C846.066 117.683 845.422 118.49 844.939 119.136L844.778 118.975L844.939 118.652C846.549 119.459 848.481 120.589 849.93 122.042C851.54 123.333 852.667 124.786 852.989 125.916H852.667H852.828C852.828 125.916 862.649 133.665 870.86 146.256C874.885 152.39 879.554 159.009 882.935 163.852C884.706 166.273 886.155 168.372 887.282 169.825C888.409 171.277 888.892 172.085 888.892 172.085L888.731 172.246V171.923H893.561L875.851 135.925C875.851 135.925 875.368 135.279 874.563 134.472C873.275 133.18 871.343 131.082 869.25 129.306C867.157 127.53 864.903 126.239 863.454 126.239H863.293H863.132L862.971 126.078H863.132Z" fill="#3265B1"/>
<path id="Vector_54" d="M21.7327 122.041H35.4178C35.7398 118.328 36.2228 115.1 36.5448 113.163C36.5448 113.163 36.5448 112.84 36.7058 112.355H18.8346C18.8346 113.163 18.6736 113.97 18.6736 114.777C18.6736 115.907 18.6736 117.198 18.5126 118.167C18.5126 116.875 18.5126 115.1 18.6736 113.485H36.0619C35.7399 115.423 35.4178 118.005 35.0958 121.073H21.0886L18.5126 120.427C18.5126 120.588 18.5126 120.588 18.5126 120.588L21.5717 121.234L21.7327 122.041ZM36.0619 122.041H36.3838V121.557C36.7058 118.167 37.0278 115.1 37.5108 113.324V113.001L37.6719 112.355H37.3499C37.1888 112.84 37.1888 113.163 37.1888 113.163C36.7058 115.261 36.3839 118.328 36.0619 122.041ZM17.5467 121.073C17.5467 120.911 17.5467 119.62 17.5467 117.683C17.5467 119.135 17.5467 120.104 17.5467 120.588V121.073Z" fill="#3265B1"/>
<path id="Vector_55" d="M21.7327 122.041H35.4178C35.7398 118.328 36.2228 115.1 36.5448 113.163C36.5448 113.163 36.5448 112.84 36.7058 112.355H18.8346C18.8346 113.163 18.6736 113.97 18.6736 114.777C18.6736 115.907 18.6736 117.198 18.5126 118.167C18.5126 116.875 18.5126 115.1 18.6736 113.485H36.0619C35.7399 115.423 35.4178 118.005 35.0958 121.073H21.0886L18.5126 120.427C18.5126 120.588 18.5126 120.588 18.5126 120.588L21.5717 121.234L21.7327 122.041ZM36.0619 122.041H36.3838V121.557C36.7058 118.167 37.0278 115.1 37.5108 113.324V113.001L37.6719 112.355H37.3499C37.1888 112.84 37.1888 113.163 37.1888 113.163C36.7058 115.261 36.3839 118.328 36.0619 122.041ZM17.5467 121.073C17.5467 120.911 17.5467 119.62 17.5467 117.683C17.5467 119.135 17.5467 120.104 17.5467 120.588V121.073Z" fill="#3265B1"/>
<path id="Vector_56" d="M4.34697 211.311H3.86398V197.912L16.261 196.621V197.105L15.7781 196.944C15.7781 196.944 15.9391 196.621 16.1001 195.975C16.7441 194.038 18.0321 189.841 18.0321 186.29V185.967C18.0321 183.384 17.3881 178.38 16.9051 174.021C16.2611 169.662 15.7781 165.95 15.7781 165.95V165.788L21.5742 141.09L20.7692 121.88L17.7101 121.234V120.75C17.7101 120.75 17.7101 117.844 17.8711 114.454C18.0321 111.064 18.1931 107.351 18.6761 105.737C19.1591 103.961 20.9301 101.055 22.7011 98.4726C24.3111 95.8897 25.9211 93.6297 25.9211 93.6297L81.6278 25.8299L68.9086 21.9556L71.8067 19.0499L133.47 12.2699V12.7542L133.148 12.4313C135.563 10.1713 139.91 8.2342 145.223 6.61992C150.537 5.00564 156.816 3.71421 162.934 2.90707C166.154 2.42279 174.848 2.09993 186.923 1.77707C223.309 0.808503 289.803 0.324219 322.003 0.324219C364.991 0.324219 442.433 1.45422 452.254 2.09993C462.075 2.74564 484.132 8.87991 484.132 8.87991L483.971 9.3642V8.87991C483.971 8.87991 488.479 9.3642 494.758 9.84848C501.037 10.4942 508.926 11.3013 515.85 11.9471C529.857 13.2385 551.27 23.4085 551.431 23.4085C551.431 23.4085 593.13 47.6227 611.646 59.5684C630.161 71.5141 668.64 98.7954 668.64 98.7954L668.318 99.2797V98.7954L674.114 98.3112L679.91 101.863L680.876 100.894L681.037 100.733L695.367 96.374H695.528C704.544 98.9569 715.814 98.4726 758.157 102.831C805.653 107.674 840.751 114.454 849.445 116.875C858.139 119.297 863.613 125.754 863.774 125.754L863.291 126.077V125.593H863.613C864.901 125.593 866.35 126.238 867.799 127.207C872.146 129.951 876.655 135.44 876.816 135.601L895.331 173.86L891.306 175.151L893.077 181.124H898.551V187.581H892.594L893.238 199.85H898.551V213.894L893.399 219.059L890.179 225.678L892.433 227.938V228.261C892.433 228.261 890.018 242.789 888.086 250.054C886.154 257.318 880.197 267.811 880.197 267.811L880.036 268.134H875.528L863.13 292.509H806.78V261.031C806.78 238.108 797.603 217.284 782.791 202.271C767.978 187.258 747.531 177.895 724.83 177.895C702.29 177.895 681.842 187.258 666.869 202.271C652.057 217.284 642.88 238.108 642.88 261.031V282.501H275.474V260.385C275.474 237.301 266.458 216.477 251.807 201.302C237.155 186.128 217.03 176.927 194.812 176.927C172.594 176.927 152.469 186.29 137.817 201.302C123.166 216.477 114.15 237.301 114.15 260.385V261.999V262.645L22.5401 245.049L0.965871 241.337V214.539L3.3809 210.988L4.34697 211.311L4.82995 211.634L2.57589 214.862V240.368L23.1842 243.919L113.506 261.354V260.385C113.506 236.978 122.683 215.831 137.334 200.657C152.147 185.321 172.594 175.958 195.134 175.958C217.674 175.958 238.121 185.482 252.934 200.657C267.746 215.992 276.762 237.139 276.762 260.385V281.371H642.075V260.708C642.075 237.462 651.413 216.477 666.386 201.302C681.359 186.128 702.129 176.604 724.991 176.604C747.853 176.604 768.622 185.967 783.596 201.302C798.569 216.477 807.907 237.624 807.907 260.708V291.056H862.486L874.884 266.681H879.714V267.165L879.231 266.842C879.231 266.842 879.553 266.197 880.197 265.067C881.968 261.838 885.671 254.574 886.959 249.408C887.925 245.857 888.891 240.368 889.857 235.848C890.662 231.328 891.306 227.777 891.306 227.777L891.789 227.938L891.467 228.261L888.891 225.678L892.594 218.252L897.424 213.409V200.818H892.272L891.467 186.451H897.424V182.092H892.272L890.018 174.344L893.882 173.052L875.528 135.924L876.011 135.763L875.528 136.085C875.528 136.085 875.045 135.44 874.24 134.633C872.951 133.341 871.019 131.243 868.926 129.467C866.833 127.691 864.74 126.4 863.291 126.561H863.13H862.808L862.647 126.4L862.486 126.077C861.359 124.947 856.368 119.943 848.962 117.844C840.429 115.423 805.331 108.643 757.835 103.8C715.492 99.4412 704.383 99.9254 695.045 97.3426L695.206 96.8583L695.367 97.3426L681.52 101.54L680.393 102.67L680.071 102.993L673.792 99.1183L668.157 99.6026L667.996 99.4411C667.996 99.4411 665.581 97.6654 661.717 94.9212C649.964 86.6883 624.848 69.0926 611.002 60.2141C601.824 54.2412 586.69 45.2013 573.971 37.7756C567.531 34.0627 561.896 30.6727 557.549 28.0899C553.363 25.6684 550.787 24.0542 550.787 24.0542L551.109 23.5699L550.948 24.0542C550.948 24.0542 549.66 23.4085 547.406 22.4399C540.805 19.5342 525.993 13.5613 515.85 12.5928C502.003 11.3013 483.971 9.52563 483.971 9.52563C483.971 9.52563 482.522 9.20277 480.429 8.55706C473.828 6.78135 459.499 3.22993 452.254 2.74564C442.594 2.09993 365.152 0.969932 322.164 0.969932C300.59 0.969932 263.882 1.13136 231.037 1.61564C214.615 1.77707 199.159 2.09993 186.923 2.42279C174.848 2.74564 165.993 3.0685 162.934 3.55278C156.816 4.35992 150.536 5.65135 145.384 7.26563C140.071 8.87991 135.885 10.8171 133.631 12.9156L133.47 13.077L71.9677 19.857L70.6797 21.1485L83.2378 25.0227L26.5652 94.114C26.5652 94.114 26.2432 94.5983 25.5992 95.5669C24.7942 96.8583 23.3451 98.9569 22.2181 100.894C21.0911 102.831 19.9641 104.93 19.6421 105.898C19.1591 107.351 18.9981 111.064 18.8371 114.293C18.6761 117.521 18.6761 120.427 18.6761 120.588H18.1931L18.3541 120.104L21.8961 120.75L22.5401 141.251L16.7441 165.95L16.261 165.788L16.7441 165.627C16.7441 165.627 19.1592 180.478 19.1592 185.805V186.128C18.9981 191.132 16.7441 197.105 16.7441 197.267L16.5831 197.59L4.82995 198.881V211.472L4.66899 211.634L4.34697 211.311Z" fill="#3265B1"/>
<path id="Vector_57" d="M649.157 112.358L649.319 112.196C649.963 112.519 650.285 112.681 650.285 112.681H650.446C651.573 113.003 658.657 113.488 668.8 114.133C699.712 116.071 760.571 119.299 789.068 121.075C826.904 123.335 852.503 125.756 852.503 125.756C852.503 125.756 857.011 129.469 862.646 135.603L863.129 136.088H862.485C854.596 135.603 796.957 131.729 792.127 131.083C786.975 130.438 644.005 122.851 628.227 122.205C612.449 121.398 434.22 114.456 418.764 113.649C403.308 112.842 274.184 109.452 252.288 107.838C232.163 106.385 226.367 98.4749 226.367 92.5021C226.367 92.0178 226.367 91.3721 226.528 90.8878C226.85 89.2735 228.782 85.7221 231.68 81.0407C240.374 66.835 257.762 42.1365 266.295 32.4508C276.921 20.5051 293.021 20.0208 302.36 20.0208C303.165 20.0208 303.809 20.0208 304.453 20.0208C311.376 20.0208 361.447 19.8594 390.589 19.8594C397.834 19.8594 403.791 19.8594 407.494 19.8594C426.009 20.0208 479.301 21.6351 492.02 22.1194C499.104 22.2808 504.417 24.2179 507.476 25.9936L648.997 112.035L649.157 112.358L648.997 112.519L507.476 26.4779C504.417 24.8636 499.104 22.9265 492.181 22.7651C479.462 22.4422 426.17 20.6665 407.655 20.5051C403.952 20.5051 397.995 20.5051 390.75 20.5051C361.608 20.5051 311.537 20.6665 304.614 20.6665C303.97 20.6665 303.326 20.6665 302.521 20.6665C293.344 20.6665 277.404 21.1508 266.939 32.9351C261.304 39.3922 251.644 52.4679 243.272 64.7364C239.086 70.8707 235.222 76.6821 232.324 81.525C229.426 86.2064 227.494 89.9192 227.333 91.2106C227.172 91.6949 227.172 92.1792 227.172 92.6635C227.172 98.3135 232.646 106.062 252.61 107.515C274.506 109.129 403.63 112.519 418.925 113.326C434.381 114.133 612.61 121.075 628.388 121.882C644.166 122.689 787.136 130.115 792.288 130.761C797.118 131.406 854.757 135.281 862.646 135.765V136.088L862.485 136.249C859.748 133.182 857.172 130.599 855.401 128.985C853.63 127.371 852.503 126.402 852.503 126.402L852.664 126.241V126.563C852.664 126.563 851.054 126.402 848.156 126.079C839.14 125.272 817.726 123.496 789.39 121.721C770.392 120.591 737.064 118.815 707.762 117.039C693.111 116.232 679.426 115.425 669.122 114.779C658.818 114.133 651.895 113.649 650.607 113.165H650.446L650.124 113.003C649.963 112.842 649.641 112.842 649.157 112.519V112.358Z" fill="#3265B1"/>
<path id="Vector_58" d="M26.0798 94.1158V93.793L47.01 93.9544H47.171L47.332 94.1158L40.2479 103.479H40.087C30.7488 103.317 23.6648 103.317 20.4447 103.317H19.9617L20.1227 102.994C22.2157 99.2815 25.5968 94.2773 25.7578 93.9544V93.793H25.9187L26.0798 94.1158L26.2407 94.2773C26.0797 94.4387 22.6987 99.443 20.6057 103.156L20.4447 102.994V102.672C23.6648 102.672 30.7488 102.833 40.087 102.833V103.156L39.9259 102.994L46.688 93.9544L46.8489 94.1158V94.4387L25.9187 94.2773L26.0798 94.1158Z" fill="#3265B1"/>
<path id="Vector_59" d="M71.4888 19.6947V19.3718C71.4888 19.3718 75.6748 19.5333 80.8268 19.8561C85.9789 20.0175 91.9359 20.3404 95.639 20.3404C96.122 20.3404 96.605 20.3404 96.927 20.3404C100.147 20.3404 108.358 19.3718 115.764 18.4033C119.467 17.919 123.009 17.4347 125.424 17.1118C128 16.789 129.61 16.6275 129.61 16.6275L132.025 16.3047L129.771 17.1118C129.771 17.1118 128.161 17.7575 125.746 18.5647C118.34 21.309 103.045 27.2818 99.02 29.5418H98.859L82.2759 25.829L69.2347 21.7932L71.1667 19.2104H71.3277L71.4888 19.6947L71.6497 19.8561L70.2007 21.6318L82.4369 25.3447L99.02 29.0575V29.3804L98.859 29.2189C101.596 27.6047 109.163 24.5375 116.247 21.7932C123.331 19.049 129.61 16.6275 129.61 16.6275L129.771 16.9504V17.2733C129.771 17.2733 103.528 20.8247 96.927 20.9861C96.605 20.9861 96.122 20.9861 95.639 20.9861C88.2329 20.9861 71.4888 20.179 71.4888 20.179V19.6947Z" fill="#3265B1"/>
<path id="Vector_60" d="M35.4202 122.041H35.9032C36.2253 118.328 36.5473 115.261 37.0304 113.163C37.0304 113.163 37.0304 112.84 37.1914 112.355H36.7084C36.7084 112.84 36.5474 113.163 36.5474 113.163C36.2253 115.261 35.7422 118.328 35.4202 122.041Z" fill="#3265B1"/>
<path id="Vector_61" d="M35.4202 122.041H35.9032C36.2253 118.328 36.5473 115.261 37.0304 113.163C37.0304 113.163 37.0304 112.84 37.1914 112.355H36.7084C36.7084 112.84 36.5474 113.163 36.5474 113.163C36.2253 115.261 35.7422 118.328 35.4202 122.041Z" fill="#3265B1"/>
<path id="Vector_62" d="M16.9036 196.947H16.5816C17.0646 195.494 18.6749 190.49 18.8359 186.293C18.6749 190.49 17.0646 195.656 16.5816 196.947C16.7426 196.947 16.7426 196.947 16.9036 196.947Z" fill="#3265B1"/>
<path id="Vector_63" d="M20.7676 197.268C18.9964 197.106 17.5471 196.945 16.903 196.945C16.742 196.945 16.742 196.945 16.581 196.945C17.064 195.653 18.6743 190.488 18.8353 186.291V185.968C18.8353 180.963 16.581 166.919 16.42 165.951L22.2168 141.252L21.4117 121.235L18.3523 120.589C18.3523 119.782 18.3522 117.361 18.5133 114.616C18.6743 111.388 18.8353 107.514 19.3184 106.061C19.4794 105.415 19.9625 104.446 20.6066 103.316H20.4456H19.9625C19.4794 104.285 18.9964 105.254 18.8353 105.899C18.3523 107.514 18.0302 111.226 18.0302 114.616C17.8692 117.845 17.8691 120.589 17.8691 120.912V121.074L20.9286 121.719L21.7337 141.091L15.9369 165.628C15.9369 165.628 16.5809 169.341 17.064 173.699C17.7081 178.058 18.1912 183.062 18.1912 185.645V185.968C18.1912 188.389 17.5471 191.133 16.903 193.232C16.42 195.008 15.9369 196.299 15.7758 196.622H15.9369C16.259 196.783 18.0302 196.945 20.7676 197.268Z" fill="#3265B1"/>
<path id="Vector_64" d="M40.8917 103.641L41.0527 103.156H40.7307L40.4086 103.641H40.2476C37.9933 103.641 35.9 103.641 33.8067 103.641C36.061 103.641 38.4764 103.641 40.8917 103.641Z" fill="#3265B1"/>
<path id="Vector_65" d="M4.18397 210.828C4.18397 210.828 4.34499 210.828 4.50599 210.828V198.721L16.2591 197.43H15.9372L16.0981 197.107C16.0981 197.107 16.0981 197.107 16.0981 196.945L4.02301 198.237V210.99L4.18397 210.828Z" fill="#3265B1"/>
<path id="Vector_66" d="M16.2549 197.43H20.6026C20.6026 197.43 20.6026 197.43 20.7637 197.268C17.8652 197.107 16.2549 196.945 16.2549 196.945H16.0939C16.0939 197.107 16.0939 197.107 16.0939 197.107L15.933 197.43H16.2549Z" fill="#3265B1"/>
<path id="Vector_67" d="M838.66 218.74L838.177 219.062C836.406 215.672 834.152 209.215 832.059 203.081C829.966 197.108 828.356 191.62 827.873 190.651C827.712 190.167 827.551 189.521 827.551 188.875C827.551 187.745 827.873 186.454 829 185.485C829.966 184.517 831.576 183.871 833.83 183.871C834.152 183.871 834.635 183.871 835.118 183.871C842.685 183.871 868.929 184.678 875.852 184.84H876.013L876.174 185.001C878.428 186.777 879.555 189.36 880.199 191.943C880.843 194.525 881.004 197.108 881.004 198.561C881.004 199.045 881.004 199.53 881.004 199.691V200.175H857.337L858.142 206.955L878.75 209.215L878.589 209.861C877.462 212.928 875.369 219.547 873.276 223.26C872.149 225.358 870.7 226.488 869.412 227.295H869.251H869.09C861.684 227.134 846.389 226.488 846.389 226.488C846.228 226.488 841.719 226.004 838.177 219.062L838.66 218.74L839.143 218.578C840.753 221.807 842.685 223.582 844.134 224.39C844.778 224.874 845.423 225.035 845.906 225.197C846.067 225.197 846.228 225.358 846.389 225.358H846.55C846.55 225.358 850.414 225.52 855.083 225.681C859.913 225.842 865.548 226.004 869.251 226.165V226.65L868.929 226.165C870.056 225.52 871.505 224.551 872.471 222.614C874.403 218.901 876.496 212.444 877.623 209.377L878.106 209.538V210.022L857.337 207.762L856.21 198.884H880.682V199.368H880.199C880.199 199.207 880.199 198.722 880.199 198.238C880.199 196.785 880.038 194.364 879.394 191.943C878.75 189.521 877.623 187.1 875.691 185.647L876.013 185.163V185.647C869.09 185.485 842.685 184.678 835.279 184.678C834.796 184.678 834.313 184.678 833.991 184.678C831.898 184.678 830.61 185.324 829.805 185.97C829 186.777 828.678 187.584 828.678 188.553C828.678 189.037 828.839 189.521 829 190.005C829.483 191.135 831.093 196.624 833.186 202.597C835.279 208.57 837.533 215.027 839.143 218.417L838.66 218.74Z" fill="#3265B1"/>
<path id="Vector_68" d="M792.291 130.919V130.435C797.121 131.081 854.598 134.955 862.648 135.439H862.809L863.131 135.601C865.708 138.506 868.445 142.058 871.182 145.932C875.046 151.743 879.071 157.716 882.452 162.398L883.096 163.205H857.979L853.793 167.402H853.632C853.632 167.402 838.659 167.402 831.253 166.918C823.525 166.433 819.178 160.138 819.178 159.976H819.5L819.178 160.299L790.52 130.273L791.969 130.435C792.13 130.435 792.291 130.435 792.452 130.435L792.291 130.919V131.403C792.13 131.403 791.969 131.403 791.808 131.403V130.919L792.13 130.596L819.822 159.653L819.983 159.976C820.949 161.106 824.974 165.788 831.092 166.111C834.795 166.272 840.269 166.433 844.938 166.433C849.607 166.433 853.31 166.433 853.31 166.433V166.918L852.988 166.595L857.335 162.236H881.969V162.721L881.486 163.043C878.105 158.201 873.919 152.228 870.055 146.578C867.479 142.703 864.742 139.152 862.165 136.246L862.487 135.923V136.408C854.598 135.923 796.96 132.049 792.13 131.403L792.291 130.919Z" fill="#3265B1"/>
<path id="Vector_69" d="M36.8685 113.163H36.3854C36.3854 113.163 36.5464 111.225 37.1904 109.45C37.5124 108.481 37.8345 107.513 38.1565 106.867C38.3175 106.544 38.6395 106.221 38.9615 105.898C39.2835 105.575 39.6056 105.414 40.0886 105.414C41.2156 105.414 53.1297 105.414 64.7218 105.414C70.5179 105.414 76.3139 105.414 80.5 105.414C84.847 105.414 87.584 105.414 87.584 105.414C87.584 105.414 88.389 105.575 89.1941 105.737C89.9991 106.06 90.9651 106.544 91.2871 107.674V107.997C91.2871 108.643 90.8041 109.45 90.3211 110.257C88.5501 112.84 84.847 116.553 82.271 119.135C78.568 122.848 75.1869 126.4 70.6789 127.045C68.4249 127.368 65.6878 127.045 63.1118 127.368C60.5358 127.691 58.2818 128.498 56.9937 131.081C55.7057 133.664 53.1297 139.798 50.7146 145.448C49.5876 148.193 48.2996 150.937 47.3336 152.874C46.8506 153.843 46.3675 154.811 46.0455 155.457C45.8845 155.78 45.7236 156.103 45.5626 156.264C45.4016 156.425 45.2406 156.587 45.0796 156.748C44.4356 157.071 43.6306 157.233 42.5036 157.394C39.1225 157.717 33.8094 157.717 33.8094 157.717H33.3265V157.233C33.3265 157.233 33.6485 148.677 34.1315 138.83C34.6145 128.983 35.4195 118.005 36.5465 113.001L36.8685 113.163L37.3515 113.324C36.3855 118.167 35.5804 129.144 35.0974 138.991C34.7754 143.834 34.6145 148.515 34.4535 151.905C34.2925 155.295 34.2924 157.394 34.2924 157.394H33.8094V156.91C33.8094 156.91 36.2245 156.91 38.6395 156.748C39.9275 156.748 41.2155 156.587 42.3425 156.425C43.4695 156.264 44.2746 156.103 44.5966 155.941C44.5966 155.941 44.9185 155.457 45.2405 154.811C46.5285 152.551 48.6216 147.708 50.7146 142.865C52.8077 138.023 54.9007 133.018 56.1887 130.758C57.6378 127.853 60.3748 126.884 63.1118 126.561C65.8488 126.238 68.7469 126.561 70.6789 126.238C74.7039 125.754 77.924 122.364 81.627 118.651C83.398 116.875 85.652 114.615 87.423 112.678C88.228 111.71 89.0331 110.741 89.6771 109.934C90.1601 109.127 90.4821 108.481 90.4821 108.32C90.3211 107.835 89.6771 107.351 89.033 107.028C88.711 106.867 88.3891 106.867 88.0671 106.705H87.7451H87.584C87.584 106.705 42.3426 106.705 40.0886 106.705L39.6055 106.867C38.9615 107.351 38.3175 109.127 37.9955 110.58C37.8345 111.387 37.6735 112.033 37.5125 112.678C37.3515 113.163 37.3515 113.485 37.3515 113.485L36.8685 113.163Z" fill="#3265B1"/>
<path id="Vector_70" d="M877.781 185.321V184.837C877.781 184.837 879.23 184.837 880.84 185.483C882.45 186.128 884.221 187.42 884.704 190.003C885.67 194.846 885.67 199.527 885.67 199.688V200.173H857.495L858.3 206.953L881.967 209.536C881.967 209.536 882.289 209.536 882.611 209.858C882.933 210.181 883.094 210.666 883.094 211.311C883.094 211.957 882.933 212.926 882.45 214.056C881.001 217.768 877.942 223.418 877.137 224.71C876.815 225.355 876.493 226.001 875.688 226.486C875.044 226.97 874.078 227.293 872.629 227.293C869.731 227.293 846.385 226.324 846.385 226.324C846.224 226.324 841.716 225.84 838.174 218.898C836.403 215.508 834.149 209.051 832.056 202.917C829.963 196.944 828.353 191.456 827.87 190.487C827.709 190.003 827.548 189.357 827.548 188.711C827.548 187.581 827.87 186.29 828.997 185.321C829.963 184.353 831.573 183.707 833.827 183.707C834.149 183.707 834.632 183.707 835.115 183.707C843.809 183.707 877.62 184.676 877.62 184.676L877.781 185.321V185.806C877.781 185.806 875.688 185.806 872.307 185.644C862.325 185.321 841.716 184.837 835.276 184.837C834.793 184.837 834.31 184.837 833.988 184.837C831.895 184.837 830.607 185.483 829.802 186.128C828.997 186.936 828.675 187.743 828.675 188.711C828.675 189.196 828.836 189.68 828.997 190.164C829.48 191.294 831.09 196.783 833.183 202.756C835.276 208.728 837.53 215.186 839.14 218.576C840.75 221.804 842.682 223.58 844.131 224.387C844.775 224.871 845.419 225.033 845.902 225.194C846.063 225.194 846.224 225.356 846.385 225.356H846.546C846.546 225.356 852.343 225.517 858.622 225.84C864.901 226.001 871.341 226.324 872.79 226.324C874.078 226.324 874.883 226.001 875.205 225.678C875.688 225.356 876.01 224.871 876.332 224.225C876.976 222.934 880.035 217.284 881.484 213.733C881.967 212.603 882.128 211.796 882.128 211.311C882.128 210.827 881.967 210.666 881.967 210.666L857.334 207.921L856.207 199.043H885.187V199.527H884.704C884.704 199.527 884.704 198.397 884.543 196.621C884.382 194.846 884.221 192.424 883.738 190.164C883.255 188.066 881.806 186.936 880.518 186.451C879.874 186.128 879.23 185.967 878.747 185.967C878.425 185.967 878.264 185.967 878.103 185.967H877.942L877.781 185.321Z" fill="#3265B1"/>
<path id="Vector_71" d="M322.006 0.808503V0.324219C364.994 0.324219 442.436 1.45422 452.257 2.09993C461.112 2.74564 479.949 7.74992 483.491 8.71849L494.117 13.077L491.219 12.9156C491.219 12.9156 488.321 12.7542 483.33 12.5928C468.518 12.1085 436.157 11.1399 413.616 10.6556C395.101 10.3328 342.454 10.1713 298.661 10.1713C271.613 10.1713 247.945 10.1713 237.641 10.4942C224.117 10.6556 205.441 11.4628 189.985 12.2699C182.257 12.5928 175.495 12.9156 170.504 13.2385C165.513 13.5613 162.614 13.7228 162.614 13.7228L128.804 16.7899L132.99 12.5928C135.405 10.3328 139.752 8.39563 145.065 6.78135C150.378 5.16707 156.657 3.87564 162.775 3.0685C165.996 2.58421 174.69 2.26136 186.765 1.9385C223.312 0.808503 289.806 0.324219 322.006 0.324219V0.808503V1.29279C300.432 1.29279 263.724 1.45422 230.879 1.9385C214.457 2.09993 199.001 2.42279 186.765 2.74564C174.69 3.0685 165.835 3.39136 162.775 3.87564C156.657 4.68278 150.378 5.97421 145.226 7.58849C139.913 9.20277 135.727 11.1399 133.473 13.2385L133.151 12.9156L133.634 13.2385L131.541 15.337L162.453 12.5928C162.453 12.5928 210.593 10.0099 237.48 9.52563C247.784 9.3642 271.452 9.20277 298.5 9.20277C342.292 9.20277 394.779 9.3642 413.455 9.68706C443.563 10.1713 491.058 11.7856 491.058 11.7856V12.2699V12.9156L483.33 9.68706C479.627 8.71849 460.79 3.71421 452.257 3.0685C442.597 2.42279 365.155 1.29279 322.167 1.29279V0.808503H322.006Z" fill="#3265B1"/>
<path id="Vector_72" d="M417.8 10.3337L417.639 10.1722L421.181 5.16797H421.342C428.426 5.3294 433.739 5.49083 436.154 5.49083C442.433 5.81368 447.424 8.55796 450.483 10.9794L451.127 11.4637H450.322C439.374 11.1408 427.943 10.818 417.8 10.6565H417.317L417.639 10.1722L417.8 10.3337V10.0108C427.782 10.1722 439.374 10.4951 450.322 10.818V11.1408L450.161 11.3022C447.102 9.04225 442.272 6.29797 436.154 5.97511C433.739 5.81368 428.426 5.81368 421.342 5.65225V5.3294L421.503 5.49083L418.122 10.4951L417.8 10.3337Z" fill="#3265B1"/>
<path id="Vector_73" d="M256.155 9.84921L255.994 9.68778L260.019 4.6835H260.18C281.432 4.36065 304.938 4.19922 319.912 4.19922C335.368 4.19922 364.509 4.52208 389.947 4.84493H390.108L392.523 10.4949H392.04C367.407 10.3335 330.699 10.1721 298.659 10.1721C282.559 10.1721 267.747 10.1721 256.155 10.3335H255.672L255.994 9.68778L256.155 9.84921V9.52635C267.747 9.52635 282.559 9.36492 298.659 9.36492C330.699 9.36492 367.407 9.52635 392.04 9.68778V10.0106L391.718 10.1721L389.464 5.00636L389.786 4.84493V5.16779C364.348 4.84493 335.207 4.52208 319.751 4.52208C304.777 4.52208 281.11 4.84493 260.019 5.00636V4.6835L260.18 4.84493L256.155 9.84921Z" fill="#3265B1"/>
<path id="Vector_74" d="M169.374 9.20367L169.213 9.04225C170.018 8.55796 171.628 8.07368 174.043 7.58939C181.288 6.29797 195.135 5.16797 211.396 5.16797C214.294 5.16797 217.836 5.16797 221.861 5.16797H222.022L224.92 10.6565H224.437C201.897 11.3022 173.882 12.7551 165.188 13.2394H164.544L164.866 12.7551C165.993 11.3022 167.442 9.84939 169.052 8.88082L169.374 9.20367L169.535 9.3651C168.086 10.3337 166.637 11.6251 165.51 13.078L165.349 12.9165V12.5937C174.043 12.1094 202.058 10.6565 224.598 10.0108V10.3337L224.437 10.4951L221.861 5.49083L222.022 5.3294V5.65225C217.997 5.65225 214.455 5.65225 211.557 5.65225C200.77 5.65225 190.949 6.13654 183.542 6.78225C179.839 7.10511 176.619 7.58939 174.365 7.91225C171.95 8.39653 170.34 8.88082 169.696 9.20367H169.374Z" fill="#3265B1"/>
<path id="Vector_75" d="M816.601 236.011L876.011 235.85H876.172C876.172 235.85 884.705 231.168 889.535 226.648L889.374 226.487C884.705 231.007 876.172 235.688 876.172 235.688L830.77 235.85H817.084V235.688C806.136 194.847 769.106 164.66 725.313 164.66C681.682 164.66 644.812 194.524 633.542 235.204V235.366L427.138 231.168L284.652 230.2V230.038C272.254 191.618 236.995 163.691 195.618 163.691C158.265 163.691 125.904 186.291 110.77 219.061V219.223L22.3797 217.931V217.77C22.3797 217.77 22.2186 217.447 21.7356 216.801C20.6086 215.026 17.8716 211.636 15.2956 211.313C14.4906 211.151 13.6856 211.151 12.7196 211.151C9.82155 211.151 6.60145 211.474 5.31344 211.636V211.797L3.05947 215.026L5.15248 211.958C5.47448 211.958 6.44043 211.797 7.40644 211.797C8.85546 211.636 10.9486 211.636 12.7196 211.636C13.6856 211.636 14.4906 211.636 15.2956 211.797C16.7446 211.958 18.1936 213.088 19.4816 214.38C20.7696 215.671 21.7357 217.124 22.0577 217.77L22.2186 218.093L22.3797 218.416L111.092 219.707L111.253 219.384C126.387 186.776 158.587 164.176 195.779 164.176C237.156 164.176 272.254 191.941 284.652 230.361L284.813 230.684L427.46 231.653L634.025 235.85L634.186 235.527C645.295 195.008 682.165 165.144 725.635 165.144C769.267 165.144 806.136 195.17 817.245 236.011H816.601ZM830.77 235.204L875.85 235.043C876.172 234.881 878.265 233.59 880.841 231.976C883.578 230.2 886.637 228.101 888.891 225.841L889.052 225.357C885.671 228.747 879.875 232.298 877.138 233.913C876.494 234.236 876.011 234.558 875.85 234.72L830.77 234.881C830.77 235.043 830.77 235.043 830.77 235.204Z" fill="#3265B1"/>
<path id="Vector_76" d="M816.601 236.011L876.011 235.85H876.172C876.172 235.85 884.705 231.168 889.535 226.648L889.374 226.487C884.705 231.007 876.172 235.688 876.172 235.688L830.77 235.85H817.084V235.688C806.136 194.847 769.106 164.66 725.313 164.66C681.682 164.66 644.812 194.524 633.542 235.204V235.366L427.138 231.168L284.652 230.2V230.038C272.254 191.618 236.995 163.691 195.618 163.691C158.265 163.691 125.904 186.291 110.77 219.061V219.223L22.3797 217.931V217.77C22.3797 217.77 22.2186 217.447 21.7356 216.801C20.6086 215.026 17.8716 211.636 15.2956 211.313C14.4906 211.151 13.6856 211.151 12.7196 211.151C9.82155 211.151 6.60145 211.474 5.31344 211.636V211.797L3.05947 215.026L5.15248 211.958C5.47448 211.958 6.44043 211.797 7.40644 211.797C8.85546 211.636 10.9486 211.636 12.7196 211.636C13.6856 211.636 14.4906 211.636 15.2956 211.797C16.7446 211.958 18.1936 213.088 19.4816 214.38C20.7696 215.671 21.7357 217.124 22.0577 217.77L22.2186 218.093L22.3797 218.416L111.092 219.707L111.253 219.384C126.387 186.776 158.587 164.176 195.779 164.176C237.156 164.176 272.254 191.941 284.652 230.361L284.813 230.684L427.46 231.653L634.025 235.85L634.186 235.527C645.295 195.008 682.165 165.144 725.635 165.144C769.267 165.144 806.136 195.17 817.245 236.011H816.601ZM830.77 235.204L875.85 235.043C876.172 234.881 878.265 233.59 880.841 231.976C883.578 230.2 886.637 228.101 888.891 225.841L889.052 225.357C885.671 228.747 879.875 232.298 877.138 233.913C876.494 234.236 876.011 234.558 875.85 234.72L830.77 234.881C830.77 235.043 830.77 235.043 830.77 235.204Z" fill="#3265B1"/>
<path id="Vector_77" d="M806.779 292.352H863.129L875.526 267.976H880.035L880.196 267.653C880.196 267.653 886.153 257.322 888.085 249.896C890.017 242.632 892.432 228.104 892.432 228.104V227.781L890.178 225.521L890.017 225.359L889.856 225.844C889.695 226.005 889.534 226.166 889.534 226.166L889.695 226.328L891.305 227.942C891.144 228.911 890.661 231.978 889.856 235.852C889.051 240.372 887.924 245.861 886.958 249.412C885.509 254.739 881.806 261.842 880.196 265.071C879.873 265.716 879.551 266.201 879.39 266.523H874.882L862.485 290.899H807.906V260.551C807.906 237.305 798.568 216.319 783.594 201.145C768.621 185.971 747.852 176.446 724.99 176.446C702.128 176.446 681.358 185.809 666.385 201.145C651.412 216.319 642.074 237.466 642.074 260.551V281.213H276.922V260.228C276.922 236.821 267.745 215.674 253.094 200.499C238.281 185.164 217.834 175.801 195.294 175.801C172.754 175.801 152.306 185.325 137.494 200.499C122.682 215.835 113.666 236.982 113.666 260.228V261.196L23.3439 243.762L2.73572 240.211V214.705L4.98969 211.476H4.82873C4.66773 211.476 4.50671 211.476 4.50671 211.476H4.18468V211.154V210.669L1.60869 214.382V241.179L23.183 244.892L114.793 262.488V261.842V260.228C114.793 237.143 123.809 216.319 138.46 201.145C153.111 185.971 173.237 176.769 195.455 176.769C217.673 176.769 237.798 186.132 252.449 201.145C267.101 216.319 276.117 237.143 276.117 260.228V282.505H643.201V260.873C643.201 237.951 652.378 217.126 667.19 202.114C682.002 187.101 702.45 177.738 725.151 177.738C747.691 177.738 768.138 187.101 783.111 202.114C797.924 217.126 807.101 237.951 807.101 260.873V292.352H806.779ZM888.89 226.005C889.051 225.844 889.051 225.844 889.212 225.682L889.534 225.198L889.212 225.521L888.89 226.005Z" fill="#3265B1"/>
<path id="Vector_78" d="M830.608 235.688L876.01 235.527C876.01 235.527 884.543 230.845 889.212 226.325C889.373 226.164 889.534 226.002 889.534 226.002L889.695 225.518L889.373 225.195L889.051 225.68C888.89 225.841 888.89 225.841 888.729 226.002C886.475 228.101 883.416 230.361 880.679 232.137C878.103 233.751 876.01 234.881 875.688 235.204L830.608 235.365C830.608 235.204 830.608 235.204 830.608 235.042C830.608 235.204 830.608 235.365 830.769 235.527V235.85H830.608V235.688Z" fill="#3265B1"/>
<path id="Vector_79" d="M817.243 235.204H830.123C830.123 235.042 830.123 235.042 830.123 234.881H817.404C806.134 193.878 768.942 163.691 724.989 163.691C681.035 163.691 644.005 193.717 632.574 234.397L426.814 230.2L284.81 229.231C272.252 190.65 236.671 162.723 195.132 162.723C157.619 162.723 125.096 185.484 109.801 218.093L22.3772 216.963C22.0552 216.478 21.2501 215.187 20.2841 214.057C18.835 212.443 17.064 210.667 14.971 210.505C14.166 210.344 13.2 210.344 12.234 210.344C9.33594 210.344 6.11599 210.667 4.82797 210.828V211.151C6.11599 210.99 9.33594 210.667 12.234 210.667C13.2 210.667 14.166 210.667 14.971 210.828C16.903 210.99 18.8351 212.765 20.1231 214.38C21.2501 215.671 22.0552 216.963 22.3772 217.447L110.123 218.738C125.418 185.968 157.78 163.368 195.293 163.368C236.831 163.368 272.252 191.295 284.81 229.877L426.975 230.845L632.896 235.042C644.166 194.201 681.196 164.176 724.989 164.176C768.942 164.014 806.134 194.201 817.243 235.204Z" fill="#3265B1"/>
<path id="Vector_80" d="M817.243 235.204H830.123C830.123 235.042 830.123 235.042 830.123 234.881H817.404C806.134 193.878 768.942 163.691 724.989 163.691C681.035 163.691 644.005 193.717 632.574 234.397L426.814 230.2L284.81 229.231C272.252 190.65 236.671 162.723 195.132 162.723C157.619 162.723 125.096 185.484 109.801 218.093L22.3772 216.963C22.0552 216.478 21.2501 215.187 20.2841 214.057C18.835 212.443 17.064 210.667 14.971 210.505C14.166 210.344 13.2 210.344 12.234 210.344C9.33594 210.344 6.11599 210.667 4.82797 210.828V211.151C6.11599 210.99 9.33594 210.667 12.234 210.667C13.2 210.667 14.166 210.667 14.971 210.828C16.903 210.99 18.8351 212.765 20.1231 214.38C21.2501 215.671 22.0552 216.963 22.3772 217.447L110.123 218.738C125.418 185.968 157.78 163.368 195.293 163.368C236.831 163.368 272.252 191.295 284.81 229.877L426.975 230.845L632.896 235.042C644.166 194.201 681.196 164.176 724.989 164.176C768.942 164.014 806.134 194.201 817.243 235.204Z" fill="#3265B1"/>
<path id="Vector_81" d="M4.5107 211.15C4.5107 211.15 4.67137 211.15 4.83203 211.15V210.828C4.67137 210.828 4.67135 210.828 4.5107 210.828V211.15Z" fill="#3265B1"/>
<path id="Vector_82" d="M816.924 235.688H830.609H830.287V235.527C830.287 235.365 830.126 235.204 830.126 234.881C830.126 235.043 830.126 235.043 830.126 235.204H817.246C806.137 194.201 768.946 164.014 724.992 164.014C681.2 164.014 644.169 194.04 632.899 234.881L426.978 230.684L284.813 229.715C272.255 191.134 236.835 163.207 195.296 163.207C157.783 163.207 125.26 185.968 110.126 218.577L22.3803 217.447C22.0583 216.963 21.2533 215.671 20.1263 214.38C18.6772 212.766 16.9062 211.151 14.9742 210.828C14.1692 210.667 13.2031 210.667 12.2371 210.667C9.3391 210.667 6.11905 210.99 4.83103 211.151V211.636C5.95805 211.474 9.3391 211.151 12.2371 211.151C13.2031 211.151 14.1692 211.151 14.8132 211.313C17.3892 211.635 20.1263 215.025 21.2533 216.801C21.5753 217.447 21.8972 217.77 21.8972 217.77V217.931L110.287 219.223V219.061C125.421 186.453 157.783 163.691 195.135 163.691C236.513 163.691 271.772 191.618 284.169 230.038V230.2L426.656 231.168L633.06 235.365V235.204C644.169 194.524 681.039 164.66 724.831 164.66C768.624 164.66 805.654 194.847 816.602 235.688H816.924Z" fill="#3265B1"/>
<path id="Vector_83" d="M816.924 235.688H830.609H830.287V235.527C830.287 235.365 830.126 235.204 830.126 234.881C830.126 235.043 830.126 235.043 830.126 235.204H817.246C806.137 194.201 768.946 164.014 724.992 164.014C681.2 164.014 644.169 194.04 632.899 234.881L426.978 230.684L284.813 229.715C272.255 191.134 236.835 163.207 195.296 163.207C157.783 163.207 125.26 185.968 110.126 218.577L22.3803 217.447C22.0583 216.963 21.2533 215.671 20.1263 214.38C18.6772 212.766 16.9062 211.151 14.9742 210.828C14.1692 210.667 13.2031 210.667 12.2371 210.667C9.3391 210.667 6.11905 210.99 4.83103 211.151V211.636C5.95805 211.474 9.3391 211.151 12.2371 211.151C13.2031 211.151 14.1692 211.151 14.8132 211.313C17.3892 211.635 20.1263 215.025 21.2533 216.801C21.5753 217.447 21.8972 217.77 21.8972 217.77V217.931L110.287 219.223V219.061C125.421 186.453 157.783 163.691 195.135 163.691C236.513 163.691 271.772 191.618 284.169 230.038V230.2L426.656 231.168L633.06 235.365V235.204C644.169 194.524 681.039 164.66 724.831 164.66C768.624 164.66 805.654 194.847 816.602 235.688H816.924Z" fill="#3265B1"/>
<path id="Vector_84" d="M4.67105 211.635H4.83203V211.151C4.67101 211.151 4.67099 211.151 4.50996 211.151V210.828C4.34894 210.828 4.1879 210.828 4.1879 210.828V211.312L4.67105 211.635Z" fill="#3265B1"/>
<path id="Vector_85" d="M830.284 235.69H830.606H830.928V235.367C830.928 235.206 830.928 235.044 830.767 234.883H830.284C830.284 235.044 830.445 235.206 830.445 235.529L830.284 235.69Z" fill="#3265B1"/>
<path id="Vector_86" d="M4.02383 211.635H4.3459C4.3459 211.635 4.50694 211.635 4.66797 211.635L4.3459 211.474H4.02383V211.635ZM4.02383 211.312H4.3459V210.828H4.18482V211.312H4.02383Z" fill="#3265B1"/>
<path id="Vector_87" d="M2.08954 222.29V221.806H2.57253C4.34355 221.806 6.11464 221.645 7.88566 221.645C9.65668 221.645 11.4276 221.806 13.0376 222.29C14.6477 222.775 15.9358 223.582 16.7408 225.035C17.7068 226.81 18.9947 230.039 20.1218 233.752C21.2488 237.464 22.3758 241.5 23.1808 244.244L23.3418 245.052L1.28453 241.177V221.645H1.76752L2.08954 222.29H2.57253V240.37L22.8588 243.922L22.6978 244.406L22.2148 244.567C21.4098 241.662 20.2828 237.787 19.1558 234.074C18.0288 230.362 16.7407 226.972 15.7747 225.519C14.9697 224.389 14.0037 223.582 12.5547 223.259C11.2666 222.775 9.49562 222.775 7.7246 222.775C5.95358 222.775 4.18258 222.936 2.41156 222.936H1.92858L2.08954 222.29Z" fill="#3265B1"/>
<path id="Vector_88" d="M2.08692 240.854H1.60393V227.133H2.24798C4.18 227.294 6.59497 227.617 8.52699 227.94C10.459 228.263 12.0691 228.747 12.8741 229.231C13.1961 229.393 13.3571 229.716 13.6791 230.039C14.4841 231.33 15.6111 233.59 16.7381 236.173C17.8652 238.756 18.9921 241.5 19.7971 243.598L20.1191 244.406L1.7649 241.177V240.693H2.08692L2.24798 240.209L19.3141 243.114L19.1532 243.598L18.6701 243.76C17.7041 241.338 16.4161 238.11 15.1281 235.204C14.4841 233.751 13.8401 232.46 13.357 231.491C13.035 231.007 12.874 230.523 12.552 230.361C12.391 230.039 12.2301 229.877 12.0691 229.877C11.586 229.554 9.97603 229.07 8.04401 228.747C6.11198 228.424 3.85798 228.101 1.92596 227.94V227.456H2.40894V240.693H2.08692V240.854Z" fill="#3265B1"/>
<path id="Vector_89" d="M807.423 268.62V268.297C816.278 268.297 826.743 268.297 836.081 268.297C846.546 268.297 855.401 268.297 858.461 268.297H858.622C867.799 268.297 874.239 257.32 877.781 252.8C879.713 250.379 884.06 249.572 887.602 249.41H887.924L887.763 249.894C885.831 257.159 879.874 267.49 879.874 267.49V267.652H875.366L862.969 292.027H807.101V268.297H807.423V268.62H807.745V291.543H862.647L875.044 267.167H879.713V267.49L879.552 267.329C879.552 267.329 879.874 266.683 880.518 265.553C882.289 262.324 885.992 255.06 887.441 249.733H887.763V250.056C884.221 250.217 880.035 251.024 878.425 253.284C875.044 257.643 868.604 268.943 858.944 268.943H858.783C855.562 268.943 846.707 268.943 836.403 268.943C827.065 268.943 816.6 268.943 807.745 268.943V268.62H807.423Z" fill="#3265B1"/>
<path id="Vector_90" d="M19.966 235.206V234.883L116.084 243.116V243.439C114.957 248.927 114.474 254.577 114.474 260.55V262.164V262.487L23.186 244.891H22.7029H22.5419V244.73C21.8979 242.147 20.9319 238.757 19.8049 235.367L19.6439 235.044H19.966V235.206H20.2879C21.2539 238.596 22.3809 241.986 23.0249 244.569H22.7029V244.246H23.186L113.83 261.68V260.388C113.83 254.577 114.474 248.766 115.44 243.277H115.762V243.6L19.966 235.367V235.206Z" fill="#3265B1"/>
<path id="Vector_91" d="M599.57 95.0821L599.731 94.5979C599.731 94.5979 601.502 95.0821 603.595 95.8893C605.688 96.535 607.942 97.5036 609.069 98.1493C609.874 98.795 610.84 99.4407 611.484 100.409C612.128 101.378 612.611 102.346 612.611 103.638C612.611 104.122 612.611 104.445 612.45 104.929C611.645 107.996 609.552 111.225 609.552 111.225L609.391 111.386H609.069C609.069 111.386 607.298 111.386 604.561 111.225C596.35 111.064 579.606 110.741 577.352 110.741C575.742 110.741 573.005 110.741 570.59 110.095C569.302 109.772 568.175 109.288 567.209 108.642C566.243 107.996 565.599 106.866 565.277 105.736C565.116 104.929 565.116 103.961 565.116 102.831C565.116 99.6021 565.438 94.9207 565.921 91.0464C566.082 89.1093 566.404 87.3336 566.726 86.0422C566.887 85.3964 567.048 84.7507 567.048 84.4279C567.048 84.2664 567.209 84.105 567.209 83.9436C567.37 83.7822 567.37 83.6207 567.531 83.4593C568.658 82.8136 571.073 81.6836 576.547 81.6836C577.03 81.6836 577.674 81.6836 578.157 81.6836C584.758 81.845 588.944 82.8136 592.486 85.7193C596.028 88.625 600.053 94.9207 600.053 94.9207L599.57 95.0821L599.087 95.405C599.087 95.405 598.765 95.0821 598.443 94.4364C597.155 92.4993 594.257 88.4636 591.842 86.5264C588.461 83.9436 584.597 82.975 578.157 82.6522C577.513 82.6522 577.03 82.6522 576.547 82.6522C571.234 82.6522 568.98 83.6207 568.175 84.2664C568.175 84.2664 568.014 84.5893 567.853 85.0736C567.048 88.1407 565.921 97.665 565.921 102.992C565.921 104.122 565.921 105.091 566.082 105.736C566.243 106.705 566.726 107.351 567.531 107.996C569.946 109.772 574.776 109.934 577.191 109.934C580.25 109.934 609.069 110.579 609.069 110.579V111.064L608.586 110.741C608.586 110.741 608.747 110.579 608.908 110.256C609.552 109.288 610.84 106.866 611.323 104.929C611.484 104.606 611.484 104.284 611.484 103.961C611.484 102.992 611.162 102.185 610.518 101.378C609.874 100.571 609.069 99.925 608.264 99.4407C607.459 98.795 605.205 97.9878 603.112 97.3421C601.18 96.6964 599.409 96.2121 599.409 96.2121H599.248L599.087 96.0507L599.57 95.0821Z" fill="#3265B1"/>
<path id="Vector_92" d="M565.6 105.576H565.278C565.117 104.931 565.117 103.962 565.117 102.671C565.117 99.4421 565.439 94.7606 565.922 90.8864C566.083 88.9492 566.405 87.1735 566.727 85.8821C566.888 85.2364 567.049 84.5907 567.049 84.2678C567.21 83.7835 567.21 83.6221 567.532 83.4607C568.337 82.9764 569.786 82.3307 572.684 82.0078H573.328L573.006 82.4921C571.879 84.1064 570.43 86.6892 570.269 89.2721C570.108 91.8549 569.786 96.2135 569.786 100.572C569.786 103.801 569.947 107.029 570.591 109.612L570.752 110.096L570.269 109.935C567.854 109.289 565.6 108.159 565.278 105.738L565.6 105.576H565.922C566.244 107.675 568.176 108.805 570.43 109.289V109.612H570.108C569.464 107.029 569.303 103.801 569.303 100.572C569.303 96.2135 569.625 91.6935 569.786 89.2721C569.947 86.3664 571.396 83.7835 572.523 82.1692L572.684 82.3307V82.6535C569.786 82.9764 568.337 83.6221 567.693 84.1064C567.693 84.1064 567.532 84.4292 567.371 84.7521C566.566 87.6578 565.439 97.5049 565.439 102.832C565.439 103.962 565.439 104.931 565.6 105.576Z" fill="#3265B1"/>
<path id="Vector_93" d="M569.782 95.0848H569.46C569.621 92.6633 569.782 90.7262 569.782 89.2734C569.943 86.3676 571.392 83.7848 572.519 82.1705V82.0091H572.68C573.646 81.8477 574.935 81.8477 576.384 81.8477C576.867 81.8477 577.511 81.8477 577.994 81.8477C584.595 82.0091 588.62 82.9777 592.162 85.8834C595.704 88.6276 599.729 95.0848 599.729 95.0848L600.051 95.5691H599.568C599.568 95.5691 594.416 95.5691 588.298 95.5691C582.019 95.5691 574.774 95.5691 570.265 95.5691H569.782H569.46V95.2462L569.782 95.0848V94.7619H570.265C574.774 94.7619 582.019 94.7619 588.298 94.7619C594.577 94.7619 599.568 94.7619 599.568 94.7619V95.0848L599.407 95.2462C599.407 95.2462 598.441 93.6319 596.992 91.6948C595.543 89.7576 593.772 87.4976 592.001 86.2062C588.62 83.4619 584.756 82.6548 578.155 82.3319C577.511 82.3319 577.028 82.3319 576.545 82.3319C575.096 82.3319 573.969 82.3319 572.841 82.4934V82.1705L573.002 82.3319C571.875 83.9462 570.426 86.5291 570.265 89.1119C570.265 90.5648 570.104 92.6633 569.943 94.9233L569.782 95.0848Z" fill="#3265B1"/>
<path id="Vector_94" d="M397.19 102.668H396.868L395.902 24.8594L421.662 25.0208L432.449 104.282L396.868 102.829V102.506L397.19 102.668V102.345L431.805 103.798L421.179 25.6665L396.385 25.5051L397.351 102.668H397.19Z" fill="#3265B1"/>
<path id="Vector_95" d="M512.47 26.315V25.8307C516.978 25.8307 521.647 25.6692 525.995 25.5078H526.156H526.317C547.891 36.9692 648.517 99.7648 665.744 110.58L666.871 111.388L665.422 111.71C660.27 112.679 654.474 113.002 649.161 113.163H649L505.547 25.9921H507.479C509.25 25.9921 511.021 25.9921 512.309 25.9921V26.315V26.7992C510.86 26.7992 509.25 26.7992 507.479 26.7992V26.315L507.801 25.8307L649.322 111.872L649 112.356V111.872C654.152 111.71 659.948 111.226 665.1 110.419L665.261 110.903L664.939 111.388C647.873 100.733 547.086 37.9378 525.673 26.4764L525.995 25.9921V26.4764C521.486 26.6378 516.978 26.7992 512.309 26.7992V26.315H512.47Z" fill="#3265B1"/>
<path id="Vector_96" d="M99.9821 29.7056V29.2213L116.404 29.3827L71.8068 95.084H71.4849C62.6298 95.084 54.2577 94.9226 47.0126 94.9226H45.8855L98.6941 28.8984L100.143 29.2213L99.9821 29.7056L99.8211 30.1899L99.0161 30.0284L47.3346 94.5997L46.8515 94.2768V93.7926C54.0966 93.7926 62.6297 93.954 71.3238 93.954V94.4383L70.8408 94.1154L114.311 30.3513L99.8211 30.1899L99.9821 29.7056Z" fill="#3265B1"/>
<path id="Vector_97" d="M26.0811 94.1147L25.5981 93.7919L81.9487 25.0234L99.9809 29.0591L197.87 30.0277C197.87 30.0277 200.446 30.3506 203.022 31.3191C204.31 31.8034 205.598 32.4491 206.725 33.2563C207.691 34.0634 208.496 35.1934 208.496 36.6463C208.496 37.292 208.335 37.9377 208.174 38.5834C207.53 40.3591 205.598 42.7805 203.183 46.0091C195.777 55.3719 182.253 69.7391 175.169 77.0033C165.831 86.689 157.298 93.9533 142.807 94.7604C137.977 95.0833 123.809 95.0833 107.065 95.0833C76.7966 95.0833 37.3512 94.7604 26.242 94.7604H25.2761L25.92 93.9533L26.0811 94.1147V93.6304C37.1902 93.6304 76.4746 93.9533 106.904 93.9533C123.809 93.9533 137.816 93.7919 142.646 93.6304C156.815 92.8233 164.865 85.8819 174.364 76.1962C179.033 71.3533 186.6 63.4434 193.362 55.8562C196.743 52.1434 199.802 48.4305 202.378 45.202C204.793 42.1348 206.564 39.552 207.208 38.0991C207.369 37.6148 207.53 37.1306 207.53 36.6463C207.53 35.6777 207.047 34.7091 206.081 34.0634C204.793 32.9334 202.7 32.1263 200.929 31.8034C200.124 31.642 199.319 31.4806 198.675 31.3191C198.031 31.1577 197.709 31.1577 197.709 31.1577L99.8199 30.1891L82.4317 26.3149L26.4031 94.4376L26.0811 94.1147Z" fill="#3265B1"/>
<path id="Vector_98" d="M239.249 85.397L238.927 85.2355C241.342 80.2312 262.916 44.717 270.644 35.6771C273.059 32.7714 276.601 30.5114 280.465 28.7356L280.787 28.5742V98.7955H280.465C265.17 98.1498 253.739 97.5041 249.875 97.1812C243.435 96.5355 239.249 94.9212 237.8 92.3384C237.478 91.6927 237.317 91.0469 237.317 90.2398C237.317 88.7869 237.8 87.1727 238.766 85.2355L239.249 85.397L239.571 85.5584C238.605 87.4955 238.122 88.9484 238.122 90.2398C238.122 90.8855 238.283 91.5312 238.605 92.1769C239.732 94.4369 243.757 96.0512 250.197 96.6969C254.061 97.1812 265.492 97.6655 280.626 98.3112V98.6341H280.304V29.0585H280.626L280.787 29.3814C276.923 31.1571 273.542 33.4171 271.127 36.1613C263.56 45.0399 241.986 80.5541 239.571 85.5584L239.249 85.397Z" fill="#3265B1"/>
<path id="Vector_99" d="M239.733 83.6202L239.25 83.4588C241.826 78.2931 262.273 45.0389 269.679 36.4832C277.085 27.7661 292.381 24.6989 302.846 24.6989C307.998 24.6989 334.402 24.6989 359.518 24.6989C372.076 24.6989 384.312 24.6989 393.329 24.6989C397.837 24.6989 401.701 24.6989 404.277 24.6989C406.853 24.6989 408.463 24.6989 408.463 24.6989C408.463 24.6989 413.615 24.6989 421.665 24.8604C445.815 25.1832 496.37 25.8289 512.47 25.8289C527.121 25.8289 542.416 24.2147 550.788 23.2461H550.949H551.11C551.432 23.4075 551.593 23.4075 551.593 23.4075C551.593 23.4075 593.293 47.6218 611.808 59.5674C630.323 71.5131 668.803 98.7945 668.803 98.7945L668.481 99.2788V98.7945L674.277 98.3102L680.717 102.346V102.669C680.395 105.09 678.785 106.866 676.209 108.319C672.506 110.417 666.871 111.547 660.753 112.193C654.795 112.839 648.516 113 643.364 113C637.568 113 633.382 112.677 633.382 112.677L594.903 111.063V109.933C602.309 110.094 609.071 110.256 609.071 110.256V110.74L608.588 110.417C608.588 110.417 608.749 110.256 608.91 109.933C609.554 108.964 610.842 106.543 611.325 104.606C611.486 104.283 611.486 103.96 611.486 103.637C611.486 102.669 611.164 101.862 610.52 101.054C609.876 100.247 609.071 99.6016 608.266 99.1173C607.461 98.4716 605.207 97.6645 603.114 97.0188C601.182 96.3731 599.411 95.8888 599.411 95.8888H599.25L599.089 95.7274C599.089 95.7274 598.767 95.4045 598.445 94.7588C597.157 92.8217 594.259 88.7859 591.844 86.8488C588.463 84.266 584.599 83.2974 578.159 82.9745C577.515 82.9745 577.032 82.9745 576.549 82.9745C571.236 82.9745 568.982 83.9431 568.177 84.5888C568.177 84.5888 568.016 84.9117 567.855 85.396C567.05 88.4631 565.923 97.9873 565.923 103.314C565.923 104.444 565.923 105.413 566.084 106.059C566.245 107.027 566.728 107.673 567.533 108.319C568.338 108.964 569.465 109.287 570.592 109.61L575.583 110.902L415.869 104.444C415.869 104.444 378.677 103.314 339.554 102.023C300.431 100.732 259.375 99.1173 251.486 98.3102C246.173 97.6645 242.792 96.5345 240.699 95.0816C238.606 93.6288 237.64 91.5302 237.801 89.5931C237.801 87.6559 238.606 85.7188 239.411 83.9431L239.733 83.6202L240.216 83.7817C239.411 85.396 238.767 87.1717 238.767 88.9474C238.767 90.5616 239.411 92.1759 241.343 93.4674C243.275 94.7588 246.495 95.8888 251.647 96.5345C259.375 97.3416 300.592 98.9559 339.554 100.247C359.035 100.893 378.194 101.539 392.363 102.023C399.447 102.184 405.243 102.507 409.429 102.507C413.454 102.669 415.869 102.669 415.869 102.669L570.592 108.964V109.449L570.431 109.933C569.143 109.61 568.016 109.126 567.05 108.48C566.084 107.834 565.44 106.704 565.118 105.574C564.957 104.767 564.957 103.799 564.957 102.669C564.957 99.4402 565.279 94.7588 565.762 90.8845C565.923 88.9474 566.245 87.1717 566.567 85.8802C566.728 85.2345 566.889 84.5888 566.889 84.266C566.889 84.1045 567.05 83.9431 567.05 83.7817C567.211 83.6202 567.211 83.4588 567.372 83.2974C568.499 82.6517 570.914 81.5217 576.388 81.5217C576.871 81.5217 577.515 81.5217 577.998 81.5217C584.599 81.6831 588.785 82.6517 592.327 85.5574C595.869 88.4631 599.894 94.7588 599.894 94.7588L599.411 95.0816L599.572 94.5974C599.572 94.5974 601.343 95.0816 603.436 95.8888C605.529 96.5345 607.783 97.5031 608.91 98.1488C609.715 98.7945 610.681 99.4402 611.325 100.409C611.969 101.377 612.452 102.346 612.452 103.637C612.452 104.122 612.452 104.444 612.291 104.929C611.486 107.996 609.393 111.224 609.393 111.224L609.232 111.386H608.91C608.91 111.386 607.139 111.386 604.563 111.224C601.987 111.224 598.445 111.063 594.742 111.063V110.579V110.094L633.221 111.709C633.221 111.709 634.187 111.709 635.958 111.87C637.729 111.87 640.144 112.032 643.042 112.032C649.804 112.032 658.66 111.709 666.066 110.256C669.769 109.61 672.989 108.642 675.404 107.35C677.819 106.059 679.107 104.444 679.268 102.507H679.751L679.429 102.992L673.633 99.4402L667.998 99.9245L667.837 99.7631C667.837 99.7631 665.422 97.9873 661.558 95.2431C649.804 87.0102 624.688 69.4146 610.842 60.536C601.665 54.5632 586.531 45.5232 573.812 38.0975C567.372 34.3846 561.736 30.9946 557.389 28.4118C553.203 25.9904 550.627 24.3761 550.627 24.3761L550.949 23.8918L550.788 24.3761C550.788 24.3761 550.627 24.3761 550.305 24.2147L550.466 23.7304V24.2147C542.255 25.1832 526.799 26.7975 511.987 26.7975C490.413 26.7975 407.98 25.6675 407.98 25.6675C407.98 25.6675 312.667 25.6675 302.363 25.6675C292.219 25.6675 277.085 28.8961 270.001 37.1289C262.756 45.5232 242.148 78.9388 239.733 83.9431V83.6202Z" fill="#3265B1"/>
<path id="Vector_100" d="M208.66 164.337L208.177 164.498C208.177 164.498 208.66 130.276 209.304 114.617C209.948 98.7971 214.939 85.7215 222.828 73.9372C226.853 67.9644 235.869 56.9872 244.885 46.6558C254.062 36.163 263.239 26.4773 267.747 22.9259C271.773 19.8587 278.696 18.2445 286.102 17.4373C293.669 16.6302 301.719 16.4688 307.676 16.4688C309.769 16.4688 311.701 16.4688 313.15 16.4688C323.454 16.4688 399.93 17.1145 406.531 17.1145C413.132 17.1145 460.789 18.2445 474.635 18.4059C488.481 18.7287 495.404 19.213 500.556 20.6659C505.708 22.1187 518.427 28.253 518.427 28.253C536.459 37.9387 638.374 101.703 638.374 101.703L639.018 102.026L625.815 112.68L625.493 112.196L625.976 112.034C625.976 112.034 631.129 140.284 631.612 152.876C631.612 153.521 631.612 154.167 631.612 154.974C631.612 169.341 627.425 205.986 626.137 215.671C625.493 220.837 622.273 234.881 619.375 247.634C616.316 260.387 613.579 271.848 613.579 271.848L613.418 272.332H289.322V271.848C289.322 262.324 288.034 251.831 286.746 243.598C286.102 239.563 285.458 236.011 284.975 233.59C284.492 231.168 284.17 229.715 284.17 229.715C273.061 195.493 244.08 169.826 208.66 164.498H208.338V164.176L208.66 164.337V163.853C244.563 169.18 273.866 195.17 284.975 229.715C284.975 229.715 290.127 252.8 290.127 272.01H289.644V271.525H612.935V272.01L612.452 271.848C612.452 271.848 613.096 268.942 614.223 264.584C617.443 251.185 624.044 223.42 625.01 215.833C626.298 206.147 630.485 169.341 630.485 155.136C630.485 154.328 630.485 153.683 630.485 153.037C630.163 146.903 628.874 136.733 627.586 128.177C626.942 123.819 626.298 119.944 625.815 117.039C625.332 114.133 625.01 112.357 625.01 112.357V112.034L637.891 101.703L638.213 102.187L637.891 102.671C637.891 102.671 636.281 101.703 633.544 99.9271C613.74 87.4972 533.883 37.6158 518.105 28.8987L518.427 28.4144L518.266 28.8987C518.266 28.8987 515.046 27.4459 511.182 25.6702C507.318 24.0559 502.971 22.1187 500.395 21.473C495.565 20.0202 488.642 19.5359 474.796 19.3745C460.95 19.0516 413.454 18.083 406.853 18.083C400.252 18.083 323.776 17.4373 313.472 17.4373C311.862 17.4373 310.091 17.4373 307.998 17.4373C301.88 17.4373 293.991 17.5987 286.424 18.4059C279.018 19.213 272.095 20.8273 268.552 23.733C264.205 27.123 254.867 36.9701 245.851 47.3015C236.674 57.6329 227.658 68.6101 223.794 74.5829C215.905 86.2057 211.075 99.12 210.431 114.779C210.109 122.527 209.787 135.118 209.626 145.611C209.465 150.938 209.465 155.62 209.465 159.01C209.465 162.4 209.304 164.66 209.304 164.66L208.66 164.337Z" fill="#3265B1"/>
<path id="Vector_101" d="M223.148 73.9358L222.665 73.613C226.69 67.6401 235.706 56.663 244.723 46.3316C253.9 35.8388 263.077 26.1531 267.585 22.6017C271.61 19.5345 278.533 17.9202 285.939 17.1131C293.506 16.306 301.556 16.1445 307.513 16.1445C309.606 16.1445 311.538 16.1445 312.987 16.1445C323.291 16.1445 399.767 16.7902 406.368 16.7902C406.529 16.7902 406.851 16.7902 407.173 16.7902H407.656L415.867 100.249L419.087 113.324L423.435 142.22V150.13L426.011 199.204L426.977 213.894V230.844L425.85 272.654H288.676V272.17C288.676 262.645 287.388 252.153 286.1 243.92C285.456 239.884 284.812 236.333 284.329 233.911C283.846 231.49 283.524 230.037 283.524 230.037C272.415 195.814 243.435 170.147 208.014 164.82H207.692L207.531 164.497C207.531 164.497 208.014 130.274 208.658 114.616C209.302 98.7958 214.293 85.7201 222.182 73.9358H223.148L223.631 74.2587C215.742 85.8815 210.912 98.7958 210.268 114.454C209.946 122.203 209.624 134.794 209.463 145.287C209.302 150.614 209.302 155.296 209.302 158.686C209.302 162.076 209.141 164.336 209.141 164.336H208.658V163.851C244.562 169.178 273.864 195.168 284.973 229.714C284.973 229.714 290.125 252.798 290.125 272.008H289.642V271.524H425.206L426.333 230.844V214.055L425.367 199.366L422.791 150.291V142.381L418.443 113.647L415.223 100.571L407.012 17.436H407.495V17.9202C407.173 17.9202 406.851 17.9202 406.69 17.9202C400.089 17.9202 323.613 17.2745 313.309 17.2745C311.699 17.2745 309.928 17.2745 307.835 17.2745C301.717 17.2745 293.828 17.436 286.261 18.2431C278.855 19.0502 271.932 20.6645 268.39 23.5702C264.043 26.9602 254.705 36.8073 245.689 47.1387C236.511 57.4701 227.495 68.4473 223.631 74.4201L223.148 73.9358Z" fill="#3265B1"/>
</g>
</svg>
