<svg width="101" height="74" viewBox="0 0 101 74" fill="none" xmlns="http://www.w3.org/2000/svg">
<g clip-path="url(#clip0_7554_21154)">
<path d="M100.184 20.3013L100.296 20.2638C99.9593 19.2151 98.8357 18.2414 97.7496 17.9417C96.7758 17.6796 94.1915 17.2676 93.1803 17.2676C93.1054 17.2676 93.0679 17.2676 93.0305 17.2676C92.5436 17.305 92.1316 17.6796 91.832 18.129C91.4949 18.5784 91.2702 19.1402 91.1953 19.6271C91.0829 20.2264 91.008 21.3125 90.9705 22.0241H91.0829V21.9118L89.2852 21.9492L92.0192 24.6833H92.0941C93.0679 24.6084 94.6035 24.4586 95.3151 24.4586H95.4275H95.5398C96.0642 24.4586 96.9631 24.3837 97.7496 24.2339C98.5735 24.1215 99.3226 23.9342 99.6971 23.7844C100.109 23.5972 100.296 23.0728 100.409 22.6608C100.521 22.2114 100.521 21.8369 100.521 21.8369L100.334 20.2638L100.184 20.3013H100.072L100.259 21.8743C100.259 21.8743 100.259 21.9492 100.259 22.099C100.221 22.3238 100.184 22.6608 100.109 22.9605C99.9968 23.2601 99.847 23.5223 99.6222 23.5972C99.3226 23.747 98.5361 23.8968 97.7121 24.0466C96.8882 24.159 96.0267 24.2713 95.5398 24.2713H95.4275H95.3151C94.5661 24.2713 93.0679 24.3837 92.0941 24.496V24.6084L92.1691 24.5335L89.8844 22.2489L91.1953 22.2114V22.099C91.2327 21.4249 91.3451 20.3387 91.42 19.7395C91.4949 19.3275 91.7196 18.7657 92.0192 18.3537C92.3189 17.9043 92.6934 17.6047 93.0305 17.6047C93.0679 17.6047 93.1054 17.6047 93.1803 17.6047C94.1166 17.6047 96.7383 18.0166 97.6747 18.2414C98.6484 18.5035 99.7346 19.4399 100.034 20.3762L100.184 20.3013Z" fill="black" fill-opacity="0.42"/>
<path d="M11.8696 22.1006V21.9883L10.3715 21.9508V22.0632H10.4838C10.4464 21.389 10.334 20.3029 10.2591 19.6662C10.1842 19.1793 9.95947 18.6175 9.62239 18.1681C9.28531 17.7186 8.87333 17.3441 8.42389 17.3066C8.38643 17.3066 8.31153 17.3066 8.27407 17.3066C7.26284 17.3066 4.71602 17.7186 3.70479 17.9808C2.6561 18.2804 1.49505 19.2168 1.15797 20.3029L0.970703 21.8759C0.970703 21.8759 0.970703 22.2879 1.08306 22.6999C1.19542 23.1493 1.34523 23.6362 1.79467 23.8235C2.16921 23.9733 2.91827 24.1606 3.74224 24.2729C4.56621 24.3853 5.42763 24.4977 5.95198 24.4977H6.06434H6.1767C6.88831 24.4977 8.42389 24.61 9.39767 24.7224H9.47258L12.2067 21.9883H11.907L11.8696 22.1006L11.7947 22.0257L9.32276 24.4977L9.39767 24.5726V24.4602C8.42389 24.3853 6.88831 24.2355 6.1767 24.2355H6.06434H5.95198C5.42763 24.2355 4.56621 24.1606 3.77969 24.0108C2.95572 23.8984 2.20666 23.7111 1.86958 23.5613C1.56995 23.449 1.38269 22.9995 1.30778 22.5875C1.27033 22.4377 1.23288 22.213 1.23288 22.0632C1.23288 21.9134 1.23288 21.8385 1.23288 21.8385L1.42014 20.2654H1.30778L1.42014 20.3029C1.71977 19.3666 2.80591 18.4302 3.77969 18.1681C4.71602 17.9059 7.33774 17.5314 8.27407 17.5314C8.31153 17.5314 8.38643 17.5314 8.42389 17.5314C8.76097 17.5314 9.1355 17.8684 9.43512 18.2804C9.73475 18.6924 9.95947 19.2542 10.0344 19.6662C10.1467 20.2654 10.2216 21.3516 10.2591 22.0257V22.1381L11.8696 22.1756V22.1006Z" fill="black" fill-opacity="0.42"/>
<path d="M99.9209 20.3396L99.9958 20.3021C99.6962 19.4032 98.6849 18.5043 97.7111 18.2422C96.7374 17.98 94.1905 17.6055 93.2542 17.6055C93.2168 17.6055 93.1418 17.6055 93.1044 17.6055C92.7673 17.6429 92.4302 17.9425 92.1306 18.3171C91.8684 18.7291 91.6437 19.216 91.5688 19.6654C91.4565 20.2646 91.3815 21.3882 91.3441 22.0249L91.3066 22.2871V22.3246L92.58 24.3096H92.6175C93.5538 24.2347 94.7149 24.1223 95.3516 24.1223H95.5763C96.5875 24.1223 98.9471 23.7852 99.6213 23.4856C99.846 23.3733 99.9958 23.1111 100.071 22.774C100.146 22.4744 100.22 22.0999 100.22 21.8377L100.033 20.3021L99.9209 20.3396H99.846L100.033 21.8377C100.033 22.0999 99.9958 22.4369 99.8834 22.7366C99.8085 23.0362 99.6587 23.2984 99.5089 23.3733C98.9096 23.6354 96.5126 24.01 95.5014 24.01H95.2767C94.64 24.01 93.4789 24.0849 92.5426 24.1972V24.2721L92.58 24.2347L91.3815 22.3246V22.0999C91.419 21.4631 91.5314 20.3396 91.6063 19.7778C91.6812 19.3658 91.8684 18.8414 92.1681 18.4669C92.4302 18.0924 92.7673 17.7927 93.0295 17.7927C93.0669 17.7927 93.1044 17.7927 93.1418 17.7927C94.0782 17.7927 96.625 18.1673 97.5613 18.4294C98.4977 18.6916 99.5089 19.5905 99.7711 20.4145L99.9209 20.3396Z" fill="black" fill-opacity="0.42"/>
<path d="M1.5317 20.3392L1.60661 20.3767C1.86878 19.5527 2.88002 18.6538 3.81635 18.3916C4.75268 18.1295 7.29949 17.7549 8.23582 17.7549C8.27328 17.7549 8.31073 17.7549 8.34818 17.7549C8.61035 17.7549 8.94743 18.0546 9.20961 18.4291C9.47178 18.8036 9.6965 19.2905 9.7714 19.74C9.88376 20.3392 9.95867 21.4628 9.99612 22.0621V22.2868L8.79762 24.1969L8.83507 24.2343V24.1594C7.89874 24.0845 6.7377 23.9722 6.10099 23.9722H5.87627C4.90249 23.9722 2.50549 23.6351 1.86878 23.3355C1.71897 23.2606 1.56916 23.0358 1.49425 22.6988C1.41934 22.3991 1.34444 22.0621 1.34444 21.7999L1.60661 20.3767L1.5317 20.3392H1.4568L1.26953 21.8373C1.26953 22.0995 1.30698 22.474 1.41934 22.7737C1.5317 23.0733 1.64406 23.3729 1.86878 23.4853C2.54294 23.7849 4.90249 24.122 5.91373 24.122H6.13844C6.7377 24.122 7.9362 24.1969 8.87253 24.3092H8.90998L10.1459 22.3242L10.1085 22.0621C10.071 21.4253 9.95867 20.3018 9.88376 19.7025C9.80886 19.2531 9.58414 18.7287 9.32197 18.3542C9.05979 17.9422 8.72271 17.6426 8.34818 17.6426C8.31073 17.6426 8.27328 17.6426 8.19837 17.6426C7.22459 17.6426 4.67777 18.0171 3.74144 18.2793C2.76766 18.5415 1.71897 19.4403 1.4568 20.3392H1.5317Z" fill="black" fill-opacity="0.42"/>
<path d="M33.8169 32.587V32.6619H67.4499L68.8357 23.748H32.0566L33.7795 32.6619H33.8169V32.587H33.8918L32.2065 23.8979H68.7233L67.375 32.5495H33.8169V32.587Z" fill="black" fill-opacity="0.42"/>
<path d="M25.5398 23.8233H25.4648L25.5772 24.2727V24.3102H75.8019L75.9143 23.7858V23.7109H25.4648V23.7858L25.5398 23.8233V23.8982H75.9143V23.8233H75.8394L75.727 24.2353H25.727L25.6147 23.8233H25.5398Z" fill="black" fill-opacity="0.42"/>
<path d="M73.4419 34.0103V33.9354H27.8613L28.5355 36.8193C28.5355 36.8193 28.6853 37.3811 29.2471 37.9804C29.8089 38.5422 30.7452 39.104 32.3557 39.104C35.5018 39.104 67.1123 39.104 68.8351 39.104C70.5954 39.104 72.4681 38.3174 72.7677 36.8568C72.9175 36.1826 73.2171 35.0216 73.4793 34.0103H73.4419H73.5168V33.5234L73.4044 33.9729C73.1422 34.9841 72.8426 36.1452 72.6928 36.8193C72.4306 38.1676 70.5954 38.9541 68.8726 38.9541C67.1497 38.9541 35.5392 38.9541 32.3932 38.9541C30.8201 38.9541 29.9213 38.3924 29.3969 37.868C29.1347 37.6058 28.9475 37.3062 28.8726 37.1189C28.8351 37.0066 28.7977 36.9317 28.7602 36.8568C28.7228 36.7819 28.7228 36.7819 28.7228 36.7819L28.086 34.0478H73.5168V33.9729H73.4419V34.0103Z" fill="black" fill-opacity="0.42"/>
<path d="M27.5996 32.5884V32.6633H73.8917V32.6258C74.004 32.2513 74.0415 32.0266 74.0415 32.0266L74.1164 31.727L75.9516 23.8618L76.3261 20.6034H76.2512C74.3037 20.3787 66.5883 19.5547 50.858 19.5547C34.0415 19.5547 26.3636 20.491 25.1276 20.6408H25.0527L25.4273 23.8618L27.2625 31.727L27.4872 32.6633H27.5246V32.5884H27.5996L27.4497 31.6895L25.6145 23.8244L25.24 20.6783H25.1651V20.7532C26.4011 20.6034 34.079 19.667 50.858 19.667C66.5883 19.667 74.3037 20.491 76.2512 20.7157V20.6408H76.1763L75.8018 23.8244L73.9666 31.6895L73.8917 31.9891C73.8917 31.9891 73.8168 32.2139 73.7419 32.5884H73.8168V32.5135H27.5996V32.5884Z" fill="black" fill-opacity="0.42"/>
<path d="M86.5128 53.5241C86.5128 53.5241 85.4641 53.1121 84.2656 52.7001C83.0671 52.2882 81.7188 51.8762 81.0821 51.8387H19.2094C16.1383 51.8387 14.9398 53.5241 14.9398 53.5616L14.8649 53.6739H86.8124L86.5128 53.5241ZM15.127 53.5241C15.4267 53.1496 16.6252 51.9511 19.2094 51.9511H81.0821C81.6813 51.9511 83.0297 52.3631 84.2282 52.7751C84.8274 52.9998 85.3892 53.187 85.8012 53.3368C85.951 53.3743 86.0634 53.4492 86.1757 53.4867H15.127V53.5241ZM86.5128 53.5241C86.5128 53.5241 85.4641 53.1121 84.2656 52.7001C83.0671 52.2882 81.7188 51.8762 81.0821 51.8387H19.2094C16.1383 51.8387 14.9398 53.5241 14.9398 53.5616L14.8649 53.6739H86.8124L86.5128 53.5241ZM15.127 53.5241C15.4267 53.1496 16.6252 51.9511 19.2094 51.9511H81.0821C81.6813 51.9511 83.0297 52.3631 84.2282 52.7751C84.8274 52.9998 85.3892 53.187 85.8012 53.3368C85.951 53.3743 86.0634 53.4492 86.1757 53.4867H15.127V53.5241ZM86.5128 53.5241C86.5128 53.5241 85.4641 53.1121 84.2656 52.7001C83.0671 52.2882 81.7188 51.8762 81.0821 51.8387H19.2094C16.1383 51.8387 14.9398 53.5241 14.9398 53.5616L14.8649 53.6739H86.8124L86.5128 53.5241ZM15.127 53.5241C15.4267 53.1496 16.6252 51.9511 19.2094 51.9511H81.0821C81.6813 51.9511 83.0297 52.3631 84.2282 52.7751C84.8274 52.9998 85.3892 53.187 85.8012 53.3368C85.951 53.3743 86.0634 53.4492 86.1757 53.4867H15.127V53.5241ZM86.5128 53.5241C86.5128 53.5241 85.4641 53.1121 84.2656 52.7001C83.0671 52.2882 81.7188 51.8762 81.0821 51.8387H19.2094C16.1383 51.8387 14.9398 53.5241 14.9398 53.5616L14.8649 53.6739H86.8124L86.5128 53.5241ZM15.127 53.5241C15.4267 53.1496 16.6252 51.9511 19.2094 51.9511H81.0821C81.6813 51.9511 83.0297 52.3631 84.2282 52.7751C84.8274 52.9998 85.3892 53.187 85.8012 53.3368C85.951 53.3743 86.0634 53.4492 86.1757 53.4867H15.127V53.5241ZM86.5128 53.5241C86.5128 53.5241 85.4641 53.1121 84.2656 52.7001C83.0671 52.2882 81.7188 51.8762 81.0821 51.8387H19.2094C16.1383 51.8387 14.9398 53.5241 14.9398 53.5616L14.8649 53.6739H86.8124L86.5128 53.5241ZM15.127 53.5241C15.4267 53.1496 16.6252 51.9511 19.2094 51.9511H81.0821C81.6813 51.9511 83.0297 52.3631 84.2282 52.7751C84.8274 52.9998 85.3892 53.187 85.8012 53.3368C85.951 53.3743 86.0634 53.4492 86.1757 53.4867H15.127V53.5241ZM86.5128 53.5241C86.5128 53.5241 85.4641 53.1121 84.2656 52.7001C83.0671 52.2882 81.7188 51.8762 81.0821 51.8387H19.2094C16.1383 51.8387 14.9398 53.5241 14.9398 53.5616L14.8649 53.6739H86.8124L86.5128 53.5241ZM15.127 53.5241C15.4267 53.1496 16.6252 51.9511 19.2094 51.9511H81.0821C81.6813 51.9511 83.0297 52.3631 84.2282 52.7751C84.8274 52.9998 85.3892 53.187 85.8012 53.3368C85.951 53.3743 86.0634 53.4492 86.1757 53.4867H15.127V53.5241ZM92.4304 50.6028C92.393 50.6028 92.3555 50.5653 92.318 50.5279C90.6701 49.7788 86.4379 48.1309 81.3068 48.1309H17.7488C16.9622 48.1309 12.2806 48.8799 9.09708 50.2282C9.05963 50.2282 9.02217 50.2657 8.98472 50.2657L8.94727 50.3031V50.3406C9.3218 52.1383 9.77124 53.7863 10.2581 54.8724C11.2694 57.1196 12.3181 58.1683 13.7413 58.3556C13.8911 58.3556 14.0784 58.393 14.2656 58.393H87.2619C88.9473 58.393 90.1458 57.4192 91.2694 54.9099C91.7188 53.8612 92.1682 52.3256 92.5428 50.6777V50.6402L92.4304 50.6028ZM91.1195 54.835C89.9959 57.3443 88.8724 58.2432 87.2244 58.2432H14.2282C14.0784 58.2432 13.9285 58.2432 13.7787 58.2058C12.3555 58.056 11.3443 57.0822 10.333 54.7975C9.84614 53.7114 9.3967 52.1009 9.02217 50.3406C9.02217 50.3406 9.05963 50.3406 9.09708 50.3031C9.35925 50.1908 9.62142 50.0784 9.92105 49.9661C10.0334 49.9286 10.1458 49.8912 10.2581 49.8537C10.4079 49.8162 10.5203 49.7788 10.6701 49.7039C10.8574 49.629 11.0821 49.5915 11.2694 49.5166C11.7188 49.3668 12.1682 49.2545 12.6177 49.1421C12.73 49.1046 12.8424 49.0672 12.9548 49.0672C13.0671 49.0297 13.1795 48.9923 13.2918 48.9923C13.3667 48.9548 13.4791 48.9548 13.554 48.9174C13.7787 48.8425 14.0409 48.805 14.2656 48.7676C14.378 48.7301 14.5278 48.7301 14.6401 48.6927C15.0521 48.6178 15.4267 48.5428 15.8012 48.4679C15.9885 48.4305 16.1383 48.393 16.2881 48.393C16.363 48.393 16.4379 48.3556 16.5128 48.3556C16.5128 48.3556 16.5503 48.3556 16.5877 48.3556C16.6626 48.3556 16.775 48.3181 16.8499 48.3181C16.9248 48.3181 16.9622 48.3181 17.0372 48.2807C17.1121 48.2807 17.1495 48.2807 17.2244 48.2432C17.2993 48.2432 17.3368 48.2432 17.4117 48.2058C17.4866 48.2058 17.5615 48.2058 17.599 48.2058C17.6739 48.2058 17.7488 48.2058 17.7862 48.2058H81.3068C81.569 48.2058 81.8312 48.2058 82.0933 48.2058C82.2057 48.2058 82.3555 48.2058 82.4679 48.2058C82.5802 48.2058 82.73 48.2058 82.8424 48.2432C82.9548 48.2432 83.0671 48.2432 83.1795 48.2807C83.4042 48.2807 83.6289 48.3181 83.8536 48.3556C84.0034 48.3556 84.1533 48.393 84.2656 48.393C84.3405 48.393 84.4529 48.4305 84.5278 48.4305C84.79 48.4679 85.0521 48.5054 85.3143 48.5428C85.5765 48.5803 85.8012 48.6178 86.0634 48.6927C86.1383 48.6927 86.2132 48.7301 86.2506 48.7301C86.363 48.7676 86.5128 48.7676 86.6252 48.805C86.8873 48.8425 87.1121 48.9174 87.3368 48.9548C87.5989 49.0297 87.8237 49.0672 88.0858 49.1421C88.3106 49.217 88.5353 49.2545 88.7975 49.3294C88.9098 49.3668 89.0222 49.4043 89.1345 49.4417C89.2469 49.4792 89.3593 49.5166 89.4716 49.5541C89.5465 49.5915 89.6214 49.5915 89.6963 49.629C89.7712 49.6664 89.8461 49.6664 89.9211 49.7039C90.0709 49.7413 90.1832 49.7788 90.333 49.8537C90.5203 49.9286 90.7076 49.9661 90.8574 50.041C90.9697 50.0784 91.0821 50.1159 91.157 50.1533C91.3068 50.1908 91.4192 50.2657 91.5315 50.3031C91.8312 50.4155 92.0559 50.5279 92.2806 50.6028C92.2806 50.6028 92.3181 50.6028 92.3555 50.6402C91.981 52.3256 91.569 53.8237 91.1195 54.835ZM84.3031 52.6627C83.1046 52.2507 81.7563 51.8387 81.1196 51.8013H19.2094C16.1383 51.8013 14.9398 53.4867 14.9398 53.5241L14.8649 53.6365H86.8124L86.5128 53.5241C86.5128 53.5241 85.4641 53.0747 84.3031 52.6627ZM15.127 53.5241C15.4267 53.1496 16.6252 51.9511 19.2094 51.9511H81.0821C81.6813 51.9511 83.0297 52.3631 84.2282 52.7751C84.8274 52.9998 85.3892 53.187 85.8012 53.3368C85.951 53.3743 86.0634 53.4492 86.1757 53.4867H15.127V53.5241ZM86.5128 53.5241C86.5128 53.5241 85.4641 53.1121 84.2656 52.7001C83.0671 52.2882 81.7188 51.8762 81.0821 51.8387H19.2094C16.1383 51.8387 14.9398 53.5241 14.9398 53.5616L14.8649 53.6739H86.8124L86.5128 53.5241ZM15.127 53.5241C15.4267 53.1496 16.6252 51.9511 19.2094 51.9511H81.0821C81.6813 51.9511 83.0297 52.3631 84.2282 52.7751C84.8274 52.9998 85.3892 53.187 85.8012 53.3368C85.951 53.3743 86.0634 53.4492 86.1757 53.4867H15.127V53.5241ZM86.5128 53.5241C86.5128 53.5241 85.4641 53.1121 84.2656 52.7001C83.0671 52.2882 81.7188 51.8762 81.0821 51.8387H19.2094C16.1383 51.8387 14.9398 53.5241 14.9398 53.5616L14.8649 53.6739H86.8124L86.5128 53.5241ZM15.127 53.5241C15.4267 53.1496 16.6252 51.9511 19.2094 51.9511H81.0821C81.6813 51.9511 83.0297 52.3631 84.2282 52.7751C84.8274 52.9998 85.3892 53.187 85.8012 53.3368C85.951 53.3743 86.0634 53.4492 86.1757 53.4867H15.127V53.5241ZM86.5128 53.5241C86.5128 53.5241 85.4641 53.1121 84.2656 52.7001C83.0671 52.2882 81.7188 51.8762 81.0821 51.8387H19.2094C16.1383 51.8387 14.9398 53.5241 14.9398 53.5616L14.8649 53.6739H86.8124L86.5128 53.5241ZM15.127 53.5241C15.4267 53.1496 16.6252 51.9511 19.2094 51.9511H81.0821C81.6813 51.9511 83.0297 52.3631 84.2282 52.7751C84.8274 52.9998 85.3892 53.187 85.8012 53.3368C85.951 53.3743 86.0634 53.4492 86.1757 53.4867H15.127V53.5241ZM86.5128 53.5241C86.5128 53.5241 85.4641 53.1121 84.2656 52.7001C83.0671 52.2882 81.7188 51.8762 81.0821 51.8387H19.2094C16.1383 51.8387 14.9398 53.5241 14.9398 53.5616L14.8649 53.6739H86.8124L86.5128 53.5241ZM15.127 53.5241C15.4267 53.1496 16.6252 51.9511 19.2094 51.9511H81.0821C81.6813 51.9511 83.0297 52.3631 84.2282 52.7751C84.8274 52.9998 85.3892 53.187 85.8012 53.3368C85.951 53.3743 86.0634 53.4492 86.1757 53.4867H15.127V53.5241ZM86.5128 53.5241C86.5128 53.5241 85.4641 53.1121 84.2656 52.7001C83.0671 52.2882 81.7188 51.8762 81.0821 51.8387H19.2094C16.1383 51.8387 14.9398 53.5241 14.9398 53.5616L14.8649 53.6739H86.8124L86.5128 53.5241ZM15.127 53.5241C15.4267 53.1496 16.6252 51.9511 19.2094 51.9511H81.0821C81.6813 51.9511 83.0297 52.3631 84.2282 52.7751C84.8274 52.9998 85.3892 53.187 85.8012 53.3368C85.951 53.3743 86.0634 53.4492 86.1757 53.4867H15.127V53.5241ZM86.5128 53.5241C86.5128 53.5241 85.4641 53.1121 84.2656 52.7001C83.0671 52.2882 81.7188 51.8762 81.0821 51.8387H19.2094C16.1383 51.8387 14.9398 53.5241 14.9398 53.5616L14.8649 53.6739H86.8124L86.5128 53.5241ZM15.127 53.5241C15.4267 53.1496 16.6252 51.9511 19.2094 51.9511H81.0821C81.6813 51.9511 83.0297 52.3631 84.2282 52.7751C84.8274 52.9998 85.3892 53.187 85.8012 53.3368C85.951 53.3743 86.0634 53.4492 86.1757 53.4867H15.127V53.5241ZM86.5128 53.5241C86.5128 53.5241 85.4641 53.1121 84.2656 52.7001C83.0671 52.2882 81.7188 51.8762 81.0821 51.8387H19.2094C16.1383 51.8387 14.9398 53.5241 14.9398 53.5616L14.8649 53.6739H86.8124L86.5128 53.5241ZM15.127 53.5241C15.4267 53.1496 16.6252 51.9511 19.2094 51.9511H81.0821C81.6813 51.9511 83.0297 52.3631 84.2282 52.7751C84.8274 52.9998 85.3892 53.187 85.8012 53.3368C85.951 53.3743 86.0634 53.4492 86.1757 53.4867H15.127V53.5241Z" fill="black" fill-opacity="0.42"/>
<path d="M92.2803 50.6763C92.093 50.6014 91.8308 50.489 91.5312 50.3767C91.4188 50.3392 91.3065 50.2643 91.1567 50.2269C91.0443 50.1894 90.9319 50.152 90.857 50.1145C90.6698 50.0396 90.52 50.0021 90.3327 49.9272C90.1829 49.8898 90.0705 49.8523 89.9207 49.7774C89.8458 49.74 89.7709 49.74 89.696 49.7025C89.6211 49.6651 89.5462 49.6651 89.4713 49.6276C89.3589 49.5902 89.2465 49.5527 89.1342 49.5153C89.0218 49.4778 88.9095 49.4403 88.7971 49.4029C88.5724 49.328 88.3477 49.2531 88.0855 49.2156C87.8233 49.1782 87.5986 49.1033 87.3364 49.0284C87.1117 48.9909 86.8495 48.916 86.6248 48.8786C86.5125 48.8411 86.4001 48.8411 86.2503 48.8036C86.1754 48.8036 86.1005 48.7662 86.063 48.7662C85.8383 48.7287 85.5761 48.6913 85.314 48.6164C85.0518 48.5789 84.7896 48.5415 84.5274 48.504C84.4525 48.504 84.3402 48.4666 84.2653 48.4666C84.1155 48.4666 84.0031 48.4291 83.8533 48.4291C83.6286 48.3917 83.4039 48.3917 83.1791 48.3542C83.0668 48.3542 82.9544 48.3542 82.842 48.3168C82.7297 48.3168 82.5799 48.3168 82.4675 48.2793C82.3552 48.2793 82.2053 48.2793 82.093 48.2793C81.8308 48.2793 81.5686 48.2793 81.3065 48.2793H17.7484C17.711 48.2793 17.6361 48.2793 17.5612 48.2793C17.4862 48.2793 17.4488 48.2793 17.3739 48.2793C17.299 48.2793 17.2615 48.2793 17.1866 48.3168C17.1492 48.3168 17.0743 48.3167 16.9994 48.3542C16.9619 48.3542 16.887 48.3542 16.8121 48.3917C16.7372 48.3917 16.6248 48.4291 16.5499 48.4291C16.5499 48.4291 16.5125 48.4291 16.475 48.4291C16.4001 48.4291 16.3252 48.4666 16.2503 48.4666C16.1005 48.504 15.9132 48.504 15.7634 48.5415C15.3889 48.6164 15.0143 48.6913 14.6024 48.7662C14.49 48.8036 14.3402 48.8036 14.2278 48.8411C14.0031 48.8785 13.7784 48.9535 13.5162 48.9909C13.4413 48.9909 13.3664 49.0284 13.254 49.0658C13.1417 49.1033 13.0293 49.1033 12.917 49.1407C12.8046 49.1782 12.6922 49.2156 12.5799 49.2156C12.1304 49.328 11.681 49.4403 11.2316 49.5902C11.0443 49.6651 10.8196 49.7025 10.6323 49.7774C10.4825 49.8149 10.3701 49.8523 10.2203 49.9272C10.108 49.9647 9.99561 50.0021 9.88325 50.0396C9.58363 50.152 9.32145 50.2643 9.05928 50.3767C9.02183 50.3767 9.02183 50.3767 8.98438 50.4141C9.35891 52.1744 9.80835 53.7849 10.2952 54.8711C11.3065 57.1183 12.3177 58.092 13.7409 58.2793C13.8907 58.2793 14.0406 58.3168 14.1904 58.3168H87.1866C88.8346 58.3168 89.9582 57.3804 91.0817 54.9085C91.5312 53.8973 91.9432 52.3991 92.3177 50.7512C92.3177 50.6763 92.3177 50.6763 92.2803 50.6763ZM14.9394 53.5227C14.9394 53.5227 16.1005 51.7999 19.2091 51.7999H81.0818C81.7559 51.7999 83.0668 52.2119 84.2653 52.6613C85.4638 53.0733 86.5125 53.4853 86.5125 53.4853L86.8121 53.5976H14.8645L14.9394 53.5227ZM14.2278 58.2044C14.1904 58.2044 14.1529 58.2044 14.1155 58.2044C14.6398 57.3804 15.4263 56.5565 16.2503 55.9572C17.1492 55.3205 18.0855 54.9085 18.8346 54.9085H80.7447C83.9282 54.9085 85.8383 56.9684 86.6623 58.1669H14.2278V58.2044Z" fill="#3265B1"/>
<path d="M79.9208 4.3852C79.8834 4.42266 79.8834 4.42266 79.9208 4.3852C79.9208 4.46011 79.9583 4.49756 79.9957 4.60992C79.9583 4.57247 79.9583 4.46011 79.9208 4.3852ZM92.3927 25.1343V25.0968C92.3178 24.9095 92.2804 24.7597 92.2429 24.6848C92.2429 24.6474 92.2055 24.6099 92.2055 24.6099L89.4714 21.8758C89.3216 21.6137 87.1867 17.5687 84.977 13.4489C82.9545 9.6661 80.8572 5.77097 80.2205 4.64738C80.1455 4.49756 80.0706 4.42266 80.0332 4.34775C79.9957 4.3103 79.9957 4.27285 79.9583 4.19794C79.8834 4.08558 79.771 3.93577 79.6587 3.82341L79.3965 3.48633L79.5463 3.86086C79.5838 3.93577 79.6212 4.01067 79.6212 4.08558C80.8572 7.08183 83.4414 13.2991 83.8534 14.7597C83.9283 15.0219 83.9658 15.2841 83.9658 15.5837C83.9658 17.2316 82.7298 19.2167 80.5575 21.0893C80.5201 21.1268 80.5201 21.1268 80.4826 21.1642L80.4077 21.2391L80.4826 21.2766C80.8946 21.5013 81.3815 21.9507 81.8684 22.3627C82.3553 22.7747 82.8796 23.1867 83.2916 23.3365C84.0407 23.5987 85.8759 24.0856 86.6999 24.947L86.7373 24.9095V24.947H86.8871H86.962L92.168 25.2092H92.3553C92.4302 25.2092 92.3927 25.1717 92.3927 25.1343ZM92.2429 25.0968H92.168L86.8871 24.8346H86.7748C85.9133 23.9358 84.0781 23.4863 83.3291 23.2242C82.9545 23.0743 82.4302 22.6998 81.9433 22.2878C81.4939 21.8758 81.007 21.4639 80.595 21.2391L80.6324 21.2017C82.8047 19.2916 84.0407 17.344 84.0407 15.6212C84.0407 15.3215 84.0032 15.0219 83.9283 14.7597C83.5912 13.5987 81.9433 9.47884 80.6324 6.33277C80.4077 5.77097 80.183 5.20917 79.9583 4.72228C79.9583 4.72228 79.9583 4.72228 79.9583 4.68483C79.9208 4.60992 79.8834 4.53502 79.8834 4.46011C79.8834 4.42266 79.8459 4.3852 79.8459 4.34775C79.8834 4.3852 79.8834 4.42266 79.9208 4.46011C80.0332 4.60992 80.3703 5.24663 80.8572 6.18296C81.7935 7.94326 83.3291 10.7522 84.8272 13.5612C85.9882 15.6961 87.1118 17.8309 87.9358 19.4039C88.3478 20.1904 88.7223 20.8646 88.947 21.314C89.1718 21.7635 89.3216 22.0257 89.3216 22.0257L89.359 22.0631L90.183 22.8871L92.0557 24.7597C92.0557 24.7597 92.0557 24.7597 92.0557 24.7972C92.1306 24.7597 92.168 24.9095 92.2429 25.0968Z" fill="black" fill-opacity="0.42"/>
<path d="M22.3935 3.22403C21.9066 3.59856 21.6445 3.9731 21.4572 4.27272C21.4198 4.34763 21.3074 4.49744 21.195 4.75961C20.446 6.07047 18.4984 9.74089 16.5508 13.3738C14.3411 17.4937 12.2063 21.5386 12.0565 21.8008L11.9441 21.9132L11.9066 21.9506L9.43473 24.4225L9.39728 24.4974L9.32238 24.5723C9.32238 24.5723 9.32238 24.6098 9.28492 24.6473C9.24747 24.7222 9.21002 24.872 9.13511 25.0592V25.0967C9.13511 25.1341 9.13511 25.1341 9.09766 25.1716H9.24747H9.32238L14.5284 24.9094H14.7905C15.6145 24.048 17.4497 23.5611 18.1988 23.2989C18.6482 23.1491 19.1351 22.7371 19.6595 22.2877C20.1838 21.8383 20.6707 21.3888 21.0827 21.2016C21.1201 21.1641 21.195 21.1641 21.2325 21.1267L21.3074 21.0892L21.2325 21.0143C21.195 20.9768 21.1576 20.9768 21.1576 20.9394C19.0602 19.0667 17.8617 17.1566 17.8617 15.5461C17.8617 15.2465 17.8992 14.9843 17.9741 14.7222C18.4235 13.1491 21.3823 6.03302 22.4684 3.4113C22.4684 3.37384 22.5059 3.33639 22.5059 3.29894L22.5808 3.07422L22.3935 3.22403ZM22.2063 3.63602C21.0452 6.44501 18.2362 13.1866 17.7868 14.7222C17.7119 14.9843 17.6744 15.284 17.6744 15.5836C17.6744 17.269 18.8729 19.1791 20.9703 21.0517L21.0078 21.0892C20.9703 21.0892 20.9703 21.1267 20.9329 21.1267C20.5209 21.3514 19.9965 21.8008 19.5096 22.2128C18.9853 22.6248 18.4984 23.0368 18.0864 23.1866C17.3374 23.4488 15.5396 23.8982 14.6407 24.7971H14.5284L13.2175 24.872L9.28492 25.0967H9.21002C9.28492 24.9094 9.32238 24.7596 9.35983 24.7222V24.6847L10.8205 23.224L10.9329 23.1491L11.2325 22.8495L11.7943 22.2877L11.8317 22.2502L12.0939 21.9881C12.0939 21.9881 12.2437 21.7259 12.4684 21.2765C13.3299 19.666 15.4647 15.6585 17.4497 11.9506C18.5733 9.85325 19.6595 7.83077 20.4085 6.40755C21.0078 5.32141 21.3823 4.6098 21.4947 4.45999C21.4947 4.45999 21.4947 4.45999 21.4947 4.42253C21.6445 4.16036 21.8317 3.86074 22.2063 3.56111C22.2437 3.52366 22.2437 3.56111 22.2063 3.63602Z" fill="black" fill-opacity="0.42"/>
<path d="M94.0414 34.6471C94.0414 34.4598 94.0414 32.3999 93.8167 30.4898C93.6294 28.9916 92.8055 26.4074 92.4309 25.2463C92.4309 25.2089 92.3935 25.1714 92.3935 25.1714V25.134H92.2811H92.2062L86.9253 24.8718H86.8504H86.6632L86.7755 24.9841C86.8504 25.059 86.9253 25.1714 87.0002 25.2838C87.3373 25.8081 88.0489 27.4561 88.6482 28.9542C88.9478 29.7032 89.2474 30.4149 89.4347 30.9392C89.5471 31.2763 89.6594 31.501 89.7343 31.6508C89.7343 31.6883 89.7343 31.6883 89.7718 31.7257H88.2362V31.8006C88.2362 31.8381 88.2362 31.8755 88.2362 31.913C88.2736 32.1752 88.3111 32.4748 88.3111 32.8493C88.3111 33.6733 88.1613 34.722 87.562 35.5459C86.9628 36.3699 85.9141 37.0441 84.1163 37.1564C82.2811 37.2313 80.0714 37.2688 77.974 37.2688C76.0639 37.2688 74.2662 37.2313 72.8055 37.2313H72.6557V37.2688C72.6557 37.3062 72.6182 37.3437 72.6182 37.3811C72.5808 37.4561 72.5433 37.531 72.5059 37.6059C72.5059 37.6433 72.4684 37.6808 72.431 37.7182C72.3935 37.7557 72.356 37.8306 72.3186 37.868C72.2437 37.9429 72.1688 38.0178 72.0939 38.0928C72.019 38.1302 71.9815 38.2051 71.9066 38.2426C71.8317 38.28 71.7568 38.3549 71.6819 38.3924C71.607 38.4298 71.5321 38.4673 71.4572 38.5422C71.3823 38.5796 71.3074 38.6171 71.2324 38.6546C71.2324 38.6546 71.2324 38.6546 71.195 38.6546C71.1575 38.692 71.0826 38.692 71.0452 38.7295H71.0077C71.0077 38.7295 70.9703 38.7295 70.9328 38.7669H70.8954C70.8205 38.7669 70.783 38.8044 70.7081 38.8044C70.7081 38.8044 70.6707 38.8044 70.6332 38.8044C70.5583 38.8418 70.5208 38.8418 70.4459 38.8793C70.371 38.8793 70.3336 38.9167 70.2587 38.9167C70.1838 38.9542 70.0714 38.9542 69.9965 38.9542C69.9216 38.9542 69.8841 38.9916 69.8092 38.9916C69.7343 38.9916 69.6594 39.0291 69.5471 39.0291C69.4721 39.0291 69.4347 39.0291 69.3598 39.0291C69.3223 39.0291 69.2849 39.0291 69.21 39.0291C69.0976 39.0291 69.0227 39.0291 68.9103 39.0291H32.356C32.2437 39.0291 32.1688 39.0291 32.0564 39.0291C31.9815 39.0291 31.9066 39.0291 31.8691 39.0291C31.8317 39.0291 31.7942 39.0291 31.7193 39.0291H31.6819C31.6444 39.0291 31.5695 39.0291 31.5321 38.9916H31.4946C31.4197 38.9916 31.3448 38.9542 31.3074 38.9542C31.2324 38.9542 31.195 38.9167 31.1201 38.9167C31.0826 38.9167 31.0452 38.9167 31.0077 38.8793C30.9703 38.8793 30.9328 38.8418 30.8579 38.8418C30.7081 38.8044 30.5957 38.7669 30.4834 38.692C30.4459 38.692 30.4085 38.6546 30.371 38.6546C30.3336 38.6546 30.2961 38.6171 30.2587 38.6171C30.2212 38.5796 30.1838 38.5796 30.1088 38.5422C30.0714 38.5422 30.0714 38.5047 30.0339 38.5047C29.959 38.4673 29.8841 38.4298 29.8092 38.3549C29.5845 38.2051 29.3598 38.0178 29.21 37.8306C29.1351 37.7557 29.0976 37.6808 29.0602 37.6433C29.0602 37.6433 29.0602 37.6433 29.0227 37.6059C28.9853 37.5684 28.9478 37.531 28.9478 37.456C28.9103 37.4186 28.9103 37.3811 28.8729 37.3437C28.8354 37.3062 28.798 37.2313 28.798 37.1939V37.1564H28.6482C27.1875 37.1939 25.3148 37.1939 23.4047 37.1939C21.3074 37.1939 19.0976 37.1564 17.2624 37.0815C15.4647 37.0066 14.416 36.3325 13.8167 35.471C13.2175 34.6096 13.0676 33.5984 13.0676 32.7744C13.0676 32.3999 13.1051 32.1002 13.1426 31.8381C13.1426 31.8006 13.1426 31.7632 13.1426 31.7257V31.6508H11.7568C11.7568 31.6508 11.7568 31.6134 11.7942 31.5759C11.8691 31.4261 11.9441 31.1639 12.0939 30.8643C12.7306 29.2913 14.004 25.9954 14.5283 25.2089C14.6032 25.0965 14.6781 25.0216 14.753 24.9092L14.8654 24.7969H14.7156H14.6781H14.6032L13.2175 24.8718L9.28488 25.059H9.20997H9.06016V25.0965C9.06016 25.134 9.06016 25.134 9.02271 25.1714C8.64817 26.3325 7.8242 28.9167 7.63694 30.4149C7.41222 32.2875 7.41222 34.3474 7.41222 34.5722L7.1875 35.3212C7.1875 35.3212 7.56203 40.7145 7.86166 43.7856C7.89911 44.1602 7.93656 44.5347 8.01147 44.9841C8.16128 46.2575 8.42346 47.7557 8.72308 49.2538V49.3287L8.79799 49.2913C8.83544 49.2913 8.87289 49.2538 8.91035 49.2538C12.0564 47.8306 17.0002 47.0441 17.7868 47.0441H81.3074C86.7006 47.0441 91.0826 48.8793 92.5433 49.5534C92.5808 49.5909 92.6182 49.5909 92.6557 49.5909L92.7306 49.6283V49.5534C93.1426 47.4935 93.4796 45.3587 93.6294 43.8231C93.6669 43.3362 93.7418 42.7744 93.7793 42.2126C93.8916 40.9392 94.004 39.5534 94.0789 38.3175C94.1912 36.6321 94.3036 35.3587 94.3036 35.3587L94.0414 34.6471ZM94.1163 36.2575C94.0789 36.7444 94.0414 37.456 93.9665 38.2051C93.8916 39.4411 93.7793 40.9017 93.6294 42.2126C93.592 42.7744 93.5171 43.3362 93.4796 43.8231C93.3298 45.3212 92.9927 47.456 92.5808 49.4785C92.5808 49.4785 92.5433 49.4785 92.5059 49.4411C92.4309 49.4036 92.3186 49.3662 92.2437 49.3287C92.1313 49.2913 92.019 49.2538 91.9066 49.1789C91.8692 49.1789 91.8317 49.1414 91.7942 49.1414C91.607 49.0665 91.4197 48.9916 91.2324 48.9167C91.1575 48.8793 91.1201 48.8793 91.0452 48.8418C89.959 48.4298 88.5358 47.9429 86.813 47.5684C86.5508 47.531 86.2886 47.456 86.0265 47.4186C85.7268 47.3811 85.3897 47.3062 85.0901 47.2688C84.9403 47.2313 84.7905 47.2313 84.6407 47.1939C84.4909 47.1939 84.3411 47.1564 84.1912 47.119L83.6669 47.0815C83.5545 47.0815 83.4047 47.0441 83.2924 47.0441C83.0677 47.0441 82.8055 47.0066 82.5433 47.0066C82.356 47.0066 82.1313 47.0066 81.9066 46.9692C81.6819 46.9692 81.4572 46.9692 81.2324 46.9692H17.7493C17.6369 46.9692 17.4871 46.9692 17.2624 47.0066C17.15 47.0066 17.0377 47.0441 16.8879 47.0441C16.813 47.0441 16.7381 47.0441 16.6632 47.0815C16.5882 47.0815 16.5133 47.0815 16.4384 47.119H16.401C16.2886 47.119 16.1763 47.1564 16.0639 47.1564C15.7643 47.1939 15.4272 47.2688 15.0901 47.3437C14.9029 47.3811 14.6781 47.4186 14.4909 47.4561C13.8542 47.5684 13.18 47.7557 12.5059 47.9055C12.2811 47.9804 12.0564 48.0178 11.8317 48.0928C11.7568 48.0928 11.6819 48.1302 11.6444 48.1677C11.3448 48.2426 11.0826 48.3175 10.8205 48.4298C10.6706 48.4673 10.5583 48.5047 10.4459 48.5422C10.2212 48.6171 9.99649 48.692 9.77177 48.7669C9.62196 48.8418 9.47214 48.8793 9.32233 48.9542C9.17252 49.0291 9.02271 49.0665 8.87289 49.1414C8.87289 49.1414 8.83544 49.1414 8.79799 49.1789C8.49836 47.7182 8.27364 46.2575 8.12383 45.0216C8.04892 44.6096 8.01147 44.1976 7.97402 43.8231C7.8242 42.2875 7.63694 40.1901 7.52458 38.4673C7.52458 38.4673 7.52458 38.4673 7.52458 38.4298C7.44967 37.5684 7.41222 36.7819 7.37477 36.2201C7.33731 35.7332 7.29986 35.3961 7.29986 35.3212L7.52458 34.6096C7.52458 34.6096 7.52458 34.0478 7.56203 33.2613C7.59949 32.4748 7.63694 31.4261 7.7493 30.4149C7.93656 28.9167 8.76053 26.295 9.13507 25.134H9.20997L14.416 24.8718H14.4909C14.416 24.9467 14.3785 24.9841 14.3411 25.059C14.004 25.6208 13.2924 27.2313 12.6931 28.7295C12.0939 30.2276 11.5695 31.5759 11.5695 31.5759L11.5321 31.6508H12.9553C12.9553 31.6508 12.9553 31.6883 12.9553 31.7257C12.9178 31.9879 12.8804 32.2875 12.8804 32.662C12.8804 33.5235 13.0302 34.5722 13.6669 35.4336C13.6669 35.4336 13.6669 35.4336 13.7044 35.471C14.3411 36.3325 15.3897 37.0066 17.225 37.0815C19.0602 37.1564 21.2699 37.1939 23.3673 37.1939C25.3148 37.1939 27.225 37.1564 28.6856 37.119C28.7605 37.2313 28.8354 37.3811 28.9478 37.5684C28.9478 37.6059 28.9853 37.6059 29.0227 37.6433C29.0602 37.6808 29.0976 37.7182 29.1351 37.7931C29.1725 37.8306 29.1725 37.8306 29.21 37.868C29.2474 37.9055 29.2849 37.9429 29.3223 37.9804C29.3598 38.0178 29.3972 38.0553 29.4347 38.0928C29.4347 38.0928 29.4347 38.0928 29.4721 38.1302C29.5096 38.1677 29.547 38.2051 29.5845 38.2051C29.622 38.2426 29.6594 38.28 29.6969 38.3175C29.7343 38.3549 29.8092 38.3924 29.8467 38.4298C29.8841 38.4673 29.959 38.5047 29.9965 38.5047C30.0714 38.5422 30.1088 38.5796 30.1838 38.5796C30.371 38.6546 30.5583 38.7669 30.783 38.8044C30.8579 38.8418 30.9328 38.8418 31.0077 38.8793C31.0826 38.9167 31.1575 38.9167 31.2324 38.9167C31.3073 38.9167 31.3823 38.9542 31.4946 38.9542C31.5695 38.9542 31.6819 38.9916 31.7568 38.9916C31.8317 38.9916 31.9441 38.9916 32.019 38.9916C32.0939 38.9916 32.2062 38.9916 32.3186 38.9916H68.8354C68.9478 38.9916 69.0227 38.9916 69.1351 38.9916C69.21 38.9916 69.2474 38.9916 69.3223 38.9916C69.3972 38.9916 69.4347 38.9916 69.5096 38.9916C69.622 38.9916 69.6969 38.9542 69.8092 38.9542C69.8467 38.9542 69.8467 38.9542 69.8841 38.9542C69.959 38.9542 70.0339 38.9167 70.1088 38.9167C70.1463 38.9167 70.1838 38.9167 70.2212 38.8793C70.2587 38.8793 70.2961 38.8418 70.371 38.8418C70.4459 38.8418 70.5583 38.8044 70.6332 38.7669C70.7081 38.7295 70.8205 38.7295 70.8954 38.692C70.9328 38.692 70.9328 38.692 70.9703 38.6546H71.0077C71.0826 38.6171 71.1201 38.6171 71.195 38.5796C71.2324 38.5796 71.2699 38.5422 71.3074 38.5047C71.3448 38.4673 71.3823 38.4673 71.4197 38.4298C71.4946 38.3924 71.5321 38.3549 71.607 38.3175C71.607 38.3175 71.6444 38.3175 71.6444 38.28C71.6819 38.2426 71.7193 38.2426 71.7568 38.2051C71.7942 38.1677 71.8691 38.1302 71.9066 38.0928C71.9066 38.0928 71.9066 38.0928 71.9441 38.0553C71.9815 38.0178 72.0564 37.9804 72.0939 37.9055C72.1688 37.868 72.2062 37.7931 72.2811 37.7182C72.2811 37.7182 72.2811 37.7182 72.2811 37.6808C72.3186 37.6433 72.356 37.6059 72.3935 37.5684C72.4309 37.531 72.4309 37.4935 72.4684 37.456C72.4684 37.456 72.4684 37.456 72.5059 37.4186C72.5433 37.3437 72.5808 37.2688 72.6557 37.1939C72.6557 37.1564 72.6931 37.1564 72.6931 37.119C74.1538 37.1564 75.989 37.1564 77.8991 37.1564C79.9965 37.1564 82.2062 37.119 84.0414 37.0441C85.8766 36.9692 86.9628 36.2575 87.5995 35.3961C87.5995 35.3587 87.6369 35.3587 87.6369 35.3212C88.2362 34.4598 88.386 33.4111 88.386 32.6246C88.386 32.2501 88.3485 31.9504 88.3111 31.6883C88.3111 31.6883 88.3111 31.6508 88.3111 31.6134H89.8841L89.8467 31.5384C89.8467 31.5384 89.3223 30.1901 88.7231 28.692C88.1238 27.1939 87.4122 25.5459 87.0751 25.0216C87.0377 24.9467 87.0002 24.9092 86.9253 24.8343H87.0002L92.2062 25.0965H92.2811C92.6557 26.2201 93.4796 28.8418 93.6669 30.3399C93.7793 31.3512 93.8542 32.3624 93.8916 33.1864C93.9291 33.9729 93.9291 34.5347 93.9291 34.5347L94.1538 35.2463C94.1538 35.4336 94.1163 35.7707 94.1163 36.2575Z" fill="black" fill-opacity="0.42"/>
<path d="M87.0756 25.1345C87.0381 25.0596 87.0007 25.0222 86.9258 24.9473H87.0007C87.0381 24.9847 87.0756 25.0596 87.113 25.0971C87.4876 25.6589 88.1617 27.3068 88.761 28.8049C89.3602 30.3031 89.8846 31.6514 89.8846 31.6514L89.9595 31.8012H88.3115C88.3115 31.8012 88.3115 31.7637 88.3115 31.7263H89.8846L89.8471 31.6514C89.8471 31.6514 89.3228 30.3031 88.7235 28.8049C88.1243 27.3068 87.4127 25.6963 87.0756 25.1345Z" fill="#3265B1"/>
<path d="M12.9923 31.8012H11.4941L11.569 31.6514C11.569 31.6514 12.0934 30.3031 12.6926 28.8049C13.2919 27.3068 14.0035 25.6963 14.3406 25.0971C14.378 25.0596 14.4155 24.9847 14.4529 24.9473H14.5278C14.4529 25.0222 14.4155 25.0596 14.378 25.1345C14.041 25.6963 13.3293 27.3068 12.7301 28.8049C12.1308 30.3031 11.6065 31.6514 11.6065 31.6514L11.569 31.7263H12.9923C12.9923 31.7637 12.9923 31.8012 12.9923 31.8012Z" fill="#3265B1"/>
<path d="M94.1528 35.3575C94.1528 35.4324 94.1153 35.7321 94.0779 36.2564C94.0404 36.7433 94.003 37.4549 93.928 38.204C93.8531 39.4399 93.7408 40.9006 93.591 42.2115C93.5535 42.7733 93.4786 43.3351 93.4411 43.822C93.2913 45.3201 92.9543 47.4549 92.5423 49.4774C92.5423 49.4774 92.5048 49.4774 92.4674 49.4399C92.3925 49.4025 92.2801 49.365 92.2052 49.3276C92.0928 49.2901 91.9805 49.2527 91.8681 49.1778C91.8307 49.1778 91.7932 49.1403 91.7558 49.1403C91.5685 49.0654 91.3812 48.9905 91.194 48.9156C91.119 48.8781 91.0816 48.8781 91.0067 48.8407C89.9205 48.4287 88.4973 47.9418 86.7745 47.5673C86.5123 47.5298 86.2501 47.4549 85.988 47.4175C85.6883 47.38 85.3513 47.3051 85.0516 47.2676C84.9018 47.2302 84.752 47.2302 84.6022 47.1927C84.4524 47.1927 84.3026 47.1553 84.1528 47.1178L83.6284 47.0804C83.5161 47.0804 83.3662 47.0429 83.2539 47.0429C83.0292 47.0429 82.767 47.0055 82.5048 47.0055C82.3176 47.0055 82.0928 47.0055 81.8681 46.968C81.6434 46.968 81.4187 46.968 81.194 46.968H17.7483C17.6359 46.968 17.4861 46.968 17.2614 47.0055C17.149 47.0055 17.0367 47.0429 16.8868 47.0429C16.8119 47.0429 16.737 47.0429 16.6621 47.0804C16.5872 47.0804 16.5123 47.0804 16.4374 47.1178H16.4C16.2876 47.1178 16.1752 47.1553 16.0629 47.1553C15.7632 47.1927 15.4262 47.2676 15.0891 47.3426C14.9018 47.38 14.6771 47.4175 14.4898 47.4549C13.8531 47.5673 13.179 47.7545 12.5048 47.9043C12.2801 47.9793 12.0554 48.0167 11.8307 48.0916C11.7558 48.0916 11.6809 48.1291 11.6434 48.1665C11.3438 48.2414 11.0816 48.3163 10.8194 48.4287C10.6696 48.4661 10.5573 48.5036 10.4449 48.5411C10.2202 48.616 9.99546 48.6909 9.77074 48.7658C9.62092 48.8407 9.47111 48.8781 9.3213 48.953C9.17149 49.0279 9.02167 49.0654 8.87186 49.1403C8.87186 49.1403 8.83441 49.1403 8.79696 49.1778C8.49733 47.7171 8.27261 46.2564 8.1228 45.0205C8.04789 44.6085 8.01044 44.1965 7.97299 43.822C7.82317 42.2864 7.63591 40.189 7.52355 38.4661C7.52355 38.4661 7.52355 38.4661 7.52355 38.4287C7.44864 37.5673 7.41119 36.7808 7.37373 36.219C7.33628 35.7321 7.29883 35.395 7.29883 35.3201L7.52355 34.6085C7.52355 34.6085 7.52355 34.0467 7.561 33.2602C7.59845 32.4736 7.63591 31.4249 7.74827 30.4137C7.93553 28.9156 8.7595 26.2939 9.13403 25.1328H9.20894C9.20894 25.1703 9.17149 25.2077 9.17149 25.2077C9.02167 25.5823 8.87186 26.144 8.6846 26.7433C8.31006 27.9418 7.93553 29.4025 7.78572 30.3763C7.67336 31.35 7.59845 32.3987 7.59845 33.1852C7.59845 34.1216 7.59845 34.6459 7.59845 34.6459L7.37373 35.3575C7.37373 35.4324 7.41119 35.7695 7.44864 36.219C7.48609 36.7808 7.52355 37.5298 7.59845 38.3912C8.94677 37.0429 13.1041 35.7321 13.7408 35.5448C14.3775 36.4062 15.4262 37.0804 17.2614 37.1553C19.0966 37.2302 21.3063 37.2676 23.4037 37.2676C25.3513 37.2676 27.2614 37.2302 28.722 37.1927C28.797 37.3051 28.8719 37.4549 28.9842 37.6422C28.9842 37.6796 29.0217 37.6796 29.0591 37.7171C29.0966 37.7545 29.134 37.792 29.1715 37.8669C29.2089 37.9043 29.2089 37.9043 29.2464 37.9418C29.2838 37.9793 29.3213 38.0167 29.3588 38.0542C29.3962 38.0916 29.4337 38.1291 29.4711 38.1665C29.4711 38.1665 29.4711 38.1665 29.5086 38.204C29.546 38.2414 29.5835 38.2789 29.6209 38.2789C29.6584 38.3163 29.6958 38.3538 29.7333 38.3538C29.7707 38.3912 29.8456 38.4287 29.8831 38.4661C29.9206 38.5036 29.9955 38.5411 30.0329 38.5411C30.1078 38.5785 30.1453 38.616 30.2202 38.616C30.4074 38.6909 30.5947 38.8032 30.8194 38.8407C30.8943 38.8781 30.9692 38.8781 31.0441 38.9156C31.1191 38.953 31.194 38.953 31.2689 38.953C31.3438 38.953 31.4187 38.9905 31.531 38.9905C31.6059 38.9905 31.7183 39.0279 31.7932 39.0279C31.8681 39.0279 31.9805 39.0279 32.0554 39.0279C32.1303 39.0279 32.2426 39.0279 32.355 39.0279H68.8719C68.9842 39.0279 69.0591 39.0279 69.1715 39.0279C69.2464 39.0279 69.2838 39.0279 69.3588 39.0279C69.4337 39.0279 69.4711 39.0279 69.546 39.0279C69.6584 39.0279 69.7333 38.9905 69.8456 38.9905C69.8831 38.9905 69.8831 38.9905 69.9206 38.9905C69.9955 38.9905 70.0704 38.953 70.1453 38.953C70.1827 38.953 70.2202 38.953 70.2576 38.9156C70.2951 38.9156 70.3325 38.8781 70.4074 38.8781C70.4823 38.8781 70.5947 38.8407 70.6696 38.8032C70.7445 38.7658 70.8569 38.7658 70.9318 38.7283C70.9692 38.7283 70.9692 38.7283 71.0067 38.6909H71.0441C71.1191 38.6534 71.1565 38.6534 71.2314 38.616C71.2689 38.616 71.3063 38.5785 71.3438 38.5411C71.3812 38.5411 71.4187 38.5036 71.4561 38.4661C71.531 38.4287 71.5685 38.3912 71.6434 38.3538C71.6809 38.3163 71.7558 38.2789 71.7932 38.2414C71.8307 38.204 71.9056 38.1665 71.943 38.1291C71.943 38.1291 71.943 38.1291 71.9805 38.0916C72.0179 38.0542 72.0928 38.0167 72.1303 37.9418C72.2052 37.9043 72.2427 37.8294 72.3176 37.7545C72.3176 37.7545 72.3176 37.7545 72.3176 37.7171C72.355 37.6796 72.3925 37.6422 72.4299 37.6047C72.4674 37.5673 72.4674 37.5298 72.5048 37.4924C72.5048 37.4924 72.5048 37.4924 72.5423 37.4549C72.5797 37.38 72.6172 37.3051 72.6921 37.2302C72.6921 37.1927 72.7295 37.1927 72.7295 37.1553C74.1902 37.1927 76.0254 37.1927 77.9355 37.1927C80.0329 37.1927 82.2426 37.1553 84.0779 37.0804C85.9131 37.0055 86.9992 36.2939 87.6359 35.4324C87.6359 35.395 87.6734 35.395 87.6734 35.3575C88.2726 35.5448 92.4674 36.7433 93.928 38.0542C93.9655 37.3051 94.0404 36.6309 94.0779 36.144C94.1153 35.6572 94.1153 35.3575 94.1153 35.2826L93.8906 34.6085V34.571C93.8906 34.571 93.8906 34.0092 93.8531 33.2227C93.8157 32.4362 93.7782 31.3875 93.6659 30.4137C93.4786 28.953 92.6921 26.4062 92.2801 25.2452C92.2801 25.2077 92.2801 25.1703 92.2427 25.1703H92.3176C92.6921 26.2939 93.5161 28.9156 93.7033 30.4137C93.8157 31.4249 93.8906 32.4362 93.928 33.2602C93.9655 34.0467 93.9655 34.6085 93.9655 34.6085L94.1528 35.3575Z" fill="#3265B1"/>
<path d="M87.0759 58.3911L87.001 58.2788L86.9635 58.2413C86.177 57.0054 84.192 54.7207 80.7463 54.7207H18.7987C17.9747 54.7207 17.001 55.1327 16.1021 55.8068C15.2032 56.4436 14.3792 57.305 13.8549 58.2413C13.8549 58.2413 13.8174 58.2788 13.8174 58.3162L13.7425 58.4286L13.7051 58.5035H13.8174C13.8923 58.5035 13.9298 58.5035 14.0047 58.5035C14.0796 58.5035 14.1545 58.5035 14.2294 58.5035H87.0759V58.3911ZM16.2519 55.9567C17.1508 55.32 18.0871 54.908 18.8362 54.908H80.7463C83.9298 54.908 85.8399 56.9679 86.6639 58.1664H14.2294C14.192 58.1664 14.1545 58.1664 14.1171 58.1664C14.6414 57.3799 15.4279 56.5559 16.2519 55.9567Z" fill="black" fill-opacity="0.42"/>
<path d="M79.9962 4.34777L80.1086 4.27286C80.0711 4.23541 80.0337 4.19795 79.9962 4.12305L79.7715 4.23541L87.9363 22.1755L90.6704 23.1867V22.9995L89.4719 21.8009L89.397 21.8759L89.5093 21.8009C89.5093 21.8009 87.2996 17.6436 85.0149 13.3365C83.8539 11.2017 82.7303 9.02941 81.794 7.34402C81.3445 6.52005 80.9325 5.77099 80.6329 5.24664C80.3333 4.7223 80.146 4.34777 80.0711 4.23541L79.9962 4.34777L79.8838 4.42267C79.9588 4.53503 80.146 4.87211 80.4456 5.39645C81.4943 7.26911 83.7041 11.4264 85.6516 15.0594C86.6254 16.8946 87.5243 18.6174 88.1985 19.8534C88.8726 21.1268 89.2846 21.9133 89.2846 21.9133L90.4831 23.1118L90.558 23.0369L90.5955 22.9245L88.1235 21.9882L79.9962 4.12305L79.8838 4.1605L79.7715 4.23541C79.8089 4.27286 79.8464 4.34777 79.8838 4.38522L79.9962 4.34777Z" fill="black" fill-opacity="0.42"/>
<path d="M10.8951 23.0375L10.9325 23.1498L13.4794 22.2135L21.6067 4.3858L21.382 4.27344V4.31089C21.3071 4.42325 21.1198 4.76033 20.8202 5.32213C18.7603 9.06745 11.9438 21.8764 11.9438 21.8764L12.0561 21.9513L11.9812 21.8764L10.4082 23.3746L10.9325 23.1873L10.8951 23.0375L10.97 23.1124L12.131 21.9513C12.131 21.9513 12.2809 21.6892 12.5056 21.2397C13.367 19.6292 15.5018 15.6218 17.4869 11.9139C18.4981 10.0412 19.4344 8.28093 20.1835 6.93261C20.558 6.25846 20.8576 5.65921 21.1198 5.24722C21.3445 4.83524 21.5318 4.53561 21.5693 4.4607L21.6067 4.42325L21.4943 4.34834L21.382 4.27344L13.2921 22.0262L10.8576 22.9251L10.8951 23.0375Z" fill="black" fill-opacity="0.42"/>
<path d="M19.7344 58.2051V61.1639H82.0565V58.2051H19.7344ZM81.7943 60.9017H19.9591V58.4298H81.7943V60.9017Z" fill="black" fill-opacity="0.42"/>
<path d="M94.1151 34.6476C94.1151 34.4229 94.1151 32.363 93.8904 30.4903C93.6656 28.6551 92.5046 25.2844 92.3173 24.6851C92.2799 24.6476 92.2799 24.6102 92.2799 24.6102V24.5727L92.205 24.4978L92.1675 24.4604L90.3698 22.6626L89.9203 22.2132L89.6956 21.951L89.5458 21.8387V21.8012C89.5458 21.7638 89.5083 21.7263 89.4709 21.6888C89.4334 21.6139 89.396 21.539 89.3585 21.4641C89.3211 21.4267 89.3211 21.3892 89.2836 21.3143C89.2462 21.2769 89.2087 21.202 89.1713 21.127C89.1338 21.0147 89.0589 20.9398 88.984 20.8274C88.9091 20.6776 88.7967 20.4903 88.7218 20.3405C88.6844 20.2656 88.6469 20.1907 88.6095 20.0784C88.572 20.0409 88.5346 19.966 88.5346 19.9285C88.4222 19.7038 88.2724 19.4791 88.16 19.2169C88.0851 19.0671 87.9727 18.8799 87.8978 18.73C87.748 18.4304 87.5982 18.1682 87.4484 17.8312C87.3735 17.6439 87.2611 17.4566 87.1488 17.2694C87.1113 17.2319 87.1113 17.1945 87.0739 17.1196C86.9615 16.9323 86.8492 16.745 86.7368 16.5203C86.6244 16.2581 86.4746 16.0334 86.3248 15.7712C86.2499 15.6589 86.2124 15.5465 86.1375 15.3967C85.8005 14.7226 85.4259 14.0484 85.0514 13.3742C83.9278 11.2394 82.7293 9.06712 81.8304 7.38173C81.381 6.55776 80.969 5.8087 80.7068 5.28435C80.4072 4.76001 80.2199 4.38548 80.145 4.27312C80.1076 4.23566 80.1076 4.19821 80.0701 4.16076C79.808 3.74877 79.4334 3.22443 78.4971 2.73753C77.4484 2.17574 75.7256 1.65139 72.617 1.31431C66.4372 0.640157 54.939 0.265625 50.7817 0.265625C46.6244 0.265625 35.1263 0.640157 28.9465 1.31431C25.8005 1.65139 24.0776 2.17574 23.0289 2.73753C22.0177 3.26188 21.6432 3.86113 21.381 4.27312C21.381 4.31057 21.3435 4.34802 21.3061 4.38548C21.3061 4.42293 21.2686 4.46038 21.2312 4.46038C21.1937 4.53529 21.1563 4.61019 21.0814 4.72255C21.0065 4.87237 20.8941 5.05963 20.7817 5.2469C20.7068 5.35926 20.6319 5.47162 20.5945 5.62143C20.5196 5.77124 20.4447 5.8836 20.3698 6.03342C20.3323 6.10832 20.2948 6.14577 20.2948 6.22068C20.2199 6.33304 20.1825 6.4454 20.1076 6.55776C20.0701 6.63267 20.0327 6.70757 19.9952 6.78248C19.9203 6.96975 19.808 7.11956 19.6956 7.30682C19.5832 7.49409 19.5083 7.68136 19.396 7.86862C18.9091 8.73005 18.3847 9.70383 17.8604 10.7525C17.7855 10.9398 17.6731 11.127 17.5608 11.3143C17.4859 11.4267 17.4484 11.539 17.3735 11.6514C17.2986 11.7638 17.2611 11.8761 17.1862 11.9885C17.0739 12.2132 16.9241 12.4379 16.8117 12.6626C16.7368 12.8499 16.6244 12.9997 16.5121 13.187C16.3623 13.4866 16.2125 13.7488 16.0626 14.0484C15.9128 14.348 15.7256 14.6476 15.5757 14.9473C15.5008 15.0596 15.4634 15.2094 15.3885 15.3218C15.3136 15.4716 15.2387 15.584 15.1638 15.7338C15.0514 15.9211 14.9765 16.1083 14.8641 16.2956C14.6769 16.6327 14.4896 17.0072 14.3023 17.3443C14.19 17.5315 14.1151 17.7188 14.0027 17.8686C13.8904 18.0559 13.8154 18.2806 13.7031 18.4679C13.366 19.142 13.0289 19.7038 12.7668 20.2282C12.6919 20.3405 12.6169 20.4529 12.5795 20.6027C12.4671 20.8274 12.3922 20.9772 12.2799 21.1645C12.2799 21.202 12.2424 21.2394 12.205 21.2769C12.0551 21.5765 11.9428 21.8012 11.9053 21.8387L11.7555 21.951L11.7181 21.9885L11.5308 22.1757L9.28361 24.4978L9.20871 24.5727V24.6102C9.20871 24.6102 9.20871 24.6476 9.17125 24.6851C8.98399 25.2469 7.82294 28.6177 7.59822 30.4529C7.3735 32.3256 7.3735 34.3855 7.3735 34.6102L7.11133 35.3593C7.11133 35.3593 7.48586 40.7525 7.78549 43.8237C7.82294 44.1982 7.86039 44.5727 7.9353 45.0222C7.9353 45.1345 7.97275 45.2094 7.97275 45.3218C7.97275 45.4342 8.0102 45.5091 8.0102 45.6214C8.0102 45.7338 8.04766 45.8461 8.04766 45.9211C8.08511 46.1083 8.08511 46.2956 8.12256 46.4829C8.12256 46.5578 8.16002 46.6327 8.16002 46.7076C8.23492 47.1196 8.30983 47.569 8.38474 47.981C8.42219 48.2432 8.45964 48.5053 8.53455 48.7675C8.53455 48.805 8.53455 48.8799 8.572 48.9173C8.68436 49.4791 8.79672 50.0409 8.90908 50.6027C8.94653 50.8274 9.02144 51.0521 9.05889 51.2769C9.09635 51.3892 9.09635 51.5016 9.1338 51.6139C9.35852 52.5503 9.62069 53.4117 9.84541 54.1233C9.88286 54.1982 9.88286 54.2731 9.92032 54.348C9.99522 54.5353 10.0701 54.7226 10.145 54.9098C10.7068 56.1832 11.2686 57.0446 11.9428 57.6064C12.4671 58.0559 13.0289 58.3181 13.6656 58.393C13.7031 58.393 13.7405 58.393 13.778 58.393C13.8529 58.393 13.8904 58.393 13.9653 58.393C14.0402 58.393 14.1151 58.393 14.19 58.393H87.1862C88.0477 58.393 88.7967 58.1308 89.4334 57.569C90.1076 57.0072 90.6694 56.1083 91.2312 54.8724C92.2799 52.5503 93.1413 47.7563 93.5158 44.6102C93.5533 44.3106 93.5907 44.0484 93.5907 43.7862C93.5907 43.599 93.6282 43.4117 93.6656 43.187C93.7031 42.8873 93.7405 42.5503 93.7405 42.2132V42.1757C94.0027 39.142 94.2649 35.3218 94.2649 35.3218V35.2844L94.1151 34.6476ZM92.5046 49.6664C92.4297 49.966 92.3922 50.2656 92.3173 50.5653C92.3173 50.6027 92.3173 50.6402 92.2799 50.6776V50.7151C91.9053 52.363 91.4934 53.8611 91.0439 54.8349C90.4821 56.0709 89.9203 56.9323 89.3211 57.4566C89.2462 57.5315 89.1713 57.569 89.0964 57.6439C89.0214 57.6814 88.984 57.7188 88.9091 57.7563C88.8716 57.7563 88.8716 57.7937 88.8342 57.7937C88.8342 57.7937 88.7967 57.7937 88.7967 57.8312C88.7218 57.8686 88.6844 57.9061 88.6095 57.9435C88.5346 57.981 88.4596 58.0184 88.3473 58.0559C88.2724 58.0933 88.16 58.1308 88.0851 58.1308C87.8229 58.2057 87.5233 58.2432 87.2237 58.2432H14.2274C14.19 58.2432 14.1525 58.2432 14.1151 58.2432C14.0402 58.2432 13.9278 58.2432 13.8529 58.2432C13.7031 58.2432 13.5533 58.2057 13.4035 58.1682C13.3286 58.1308 13.2162 58.1308 13.1413 58.0933C13.0664 58.0559 12.9915 58.0559 12.9166 58.0184H12.8791C12.8042 57.981 12.7293 57.9435 12.6544 57.9061C12.5795 57.8686 12.4671 57.7937 12.3922 57.7188C12.3173 57.6814 12.2424 57.6064 12.1675 57.5315C11.8679 57.2694 11.5683 56.9323 11.2686 56.4828C11.1937 56.3705 11.1188 56.2581 11.0439 56.1458C10.8192 55.7712 10.6319 55.3593 10.4072 54.9098C10.3698 54.8349 10.3323 54.76 10.3323 54.6851C10.2574 54.4604 10.145 54.2357 10.0701 53.9735C10.0701 53.936 10.0327 53.8986 10.0327 53.8237C9.99522 53.6739 9.92032 53.5241 9.88286 53.3742C9.84541 53.2244 9.7705 53.0372 9.73305 52.8873C9.65814 52.6626 9.62069 52.4379 9.54578 52.2132C9.43343 51.8387 9.35852 51.4267 9.24616 51.0147C9.20871 50.8274 9.17125 50.6402 9.1338 50.4529C9.1338 50.4154 9.09635 50.378 9.09635 50.3405C9.02144 50.0784 8.98399 49.8162 8.94653 49.554L8.90908 49.3667C8.90908 49.3293 8.90908 49.2918 8.87163 49.2544C8.87163 49.1795 8.83417 49.1046 8.83417 49.0297C8.83417 48.9922 8.83417 48.9173 8.79672 48.8799C8.75927 48.6177 8.72181 48.393 8.68436 48.1308C8.64691 47.8686 8.60946 47.6439 8.572 47.4192C8.42219 46.6327 8.30983 45.8461 8.23492 45.1345C8.19747 44.7226 8.12256 44.3106 8.08511 43.936C7.9353 42.4005 7.74803 40.3031 7.63567 38.5428V38.5053C7.56077 37.6439 7.52331 36.8948 7.48586 36.333C7.44841 35.8461 7.44841 35.5465 7.41095 35.4716L7.63567 34.76C7.63567 34.76 7.63567 34.1982 7.67313 33.4117C7.71058 32.6252 7.74803 31.5765 7.86039 30.6027C7.97275 29.6289 8.38474 28.1682 8.75927 26.9697C8.94653 26.3705 9.1338 25.8087 9.24616 25.4342C9.24616 25.3967 9.28361 25.3593 9.28361 25.3593C9.28361 25.3218 9.32107 25.2844 9.32107 25.2469C9.39597 25.0596 9.43343 24.9098 9.43343 24.8724L10.969 23.3368L11.0065 23.2993L11.4184 22.8873L12.1675 22.1383C12.1675 22.1383 12.2424 22.0259 12.3173 21.8387C12.3548 21.7638 12.3922 21.6888 12.4671 21.5765C12.5046 21.539 12.542 21.4641 12.542 21.4267C12.6169 21.3143 12.6544 21.202 12.7293 21.0521C12.7668 20.9772 12.8417 20.8649 12.8791 20.7525C12.954 20.6402 12.9915 20.5278 13.0664 20.378C13.1038 20.3031 13.1413 20.2282 13.2162 20.1158C13.2536 20.0409 13.2911 19.966 13.3286 19.8911C13.4409 19.7038 13.5158 19.5166 13.6282 19.3293C14.3023 18.0559 15.1263 16.5203 16.0252 14.8724C16.1375 14.6476 16.2874 14.4229 16.3997 14.1608C16.7742 13.4491 17.1488 12.7375 17.5233 12.0634C18.0102 11.127 18.4971 10.2282 18.9465 9.36675C19.0589 9.14203 19.1713 8.91731 19.3211 8.69259C19.396 8.54278 19.4709 8.43042 19.5458 8.28061C19.7331 7.94353 19.9203 7.60645 20.0701 7.30682C20.1076 7.23192 20.145 7.11956 20.2199 7.04465C20.5945 6.37049 20.8941 5.77124 21.1563 5.35926C21.381 4.94727 21.5683 4.64765 21.6057 4.57274C21.6057 4.57274 21.6057 4.57274 21.6057 4.53529C21.7555 4.31057 21.9053 4.0484 22.205 3.78622C22.2799 3.71132 22.3548 3.67386 22.4297 3.59896C22.6169 3.44915 22.8417 3.29933 23.1413 3.11207C24.1525 2.58772 25.8379 2.06338 28.9091 1.7263C35.0889 0.902329 46.587 0.527797 50.7443 0.527797C54.8641 0.527797 66.3997 0.902329 72.542 1.57649C75.6132 1.91357 77.3361 2.43791 78.3098 2.96225C79.0214 3.33679 79.396 3.71132 79.6207 4.08585C79.6581 4.16076 79.733 4.23566 79.7705 4.27312C79.808 4.31057 79.8454 4.38548 79.8454 4.42293C79.8829 4.46038 79.9203 4.53529 79.9578 4.64765C79.9578 4.64765 79.9578 4.64765 79.9578 4.6851C80.0701 4.87237 80.2199 5.09709 80.3698 5.43416C80.4447 5.58398 80.557 5.73379 80.6319 5.92106C80.6694 5.99596 80.7068 6.03341 80.7443 6.10832C80.8941 6.37049 81.0439 6.63267 81.1937 6.93229C81.5683 7.60645 82.0177 8.43042 82.4671 9.29184C82.542 9.44166 82.617 9.59147 82.7293 9.74128C83.2911 10.79 83.8904 11.9136 84.4896 13.0372C84.8641 13.7488 85.2387 14.4604 85.6132 15.1345C86.1001 16.0709 86.587 16.9323 86.999 17.7563C87.4484 18.5802 87.8229 19.3293 88.16 19.9285C88.8342 21.1645 89.2462 21.9885 89.2462 21.9885L91.9802 24.7226C91.9802 24.76 92.0551 24.9098 92.1301 25.0971C92.1301 25.1345 92.1675 25.172 92.1675 25.2094C92.1675 25.2469 92.1675 25.2843 92.205 25.2843C92.5795 26.4454 93.4035 28.9922 93.5907 30.4529C93.7031 31.4267 93.778 32.4754 93.778 33.2619C93.8155 34.0484 93.8154 34.6102 93.8154 34.6102V34.6476L94.0402 35.3218C94.0402 35.3967 94.0027 35.7338 94.0027 36.1832C93.9653 36.6701 93.9278 37.3443 93.8529 38.0933C93.778 39.3293 93.6656 40.79 93.5158 42.1383C93.5158 42.1757 93.5158 42.2506 93.5158 42.2881C93.4784 42.8124 93.4409 43.2993 93.366 43.7488C93.366 43.936 93.3286 44.1233 93.2911 44.348C93.2911 44.4604 93.2536 44.5353 93.2536 44.6476C93.2536 44.76 93.2162 44.8724 93.2162 44.9847C93.2162 45.0971 93.1787 45.2094 93.1787 45.3218C93.1787 45.4342 93.1413 45.5465 93.1413 45.6589C93.1038 45.8461 93.0664 46.0709 93.0664 46.2581C92.954 47.0072 92.8042 47.8312 92.6544 48.6177C92.617 48.8799 92.542 49.142 92.5046 49.3667C92.5046 49.4042 92.5046 49.4417 92.4671 49.4791C92.5046 49.5915 92.5046 49.6289 92.5046 49.6664Z" fill="black" fill-opacity="0.42"/>
<path d="M86.6621 58.2041H14.2276C14.1901 58.2041 14.1527 58.2041 14.1152 58.2041C14.6396 57.3801 15.4261 56.5561 16.2501 55.9569C17.1489 55.3202 18.0853 54.9082 18.8343 54.9082H80.7444C83.928 54.9457 85.8006 57.0056 86.6621 58.2041Z" fill="#3265B1"/>
<path d="M86.1756 53.5242H15.127C15.4266 53.1497 16.6251 51.9512 19.2094 51.9512H81.082C81.6813 51.9512 83.0296 52.3632 84.2281 52.7751C84.8273 52.9999 85.3891 53.1871 85.8011 53.3369C85.9509 53.4118 86.0633 53.4493 86.1756 53.5242Z" fill="#3265B1"/>
<path d="M50.708 17.905V18.0174H79.1724L79.2098 17.9799C79.2098 17.9799 79.9964 17.1934 79.9964 15.9949C79.9964 15.92 79.9964 15.8451 79.9964 15.7702C79.9589 15.4331 79.8091 14.6466 79.5844 13.6728C78.9102 10.714 77.6368 5.88255 77.6368 5.88255L77.5993 5.80764H77.5244C68.9851 4.53423 58.7979 4.42188 52.9177 4.42188C52.0937 4.42188 51.3821 4.42188 50.7454 4.42188C50.1087 4.42188 49.3971 4.42188 48.5731 4.42188C42.6555 4.42188 32.5057 4.49678 23.9664 5.80764H23.8915L23.854 5.88255C23.854 5.88255 23.2922 8.01738 22.693 10.3395C22.3934 11.5005 22.0937 12.699 21.869 13.6728C21.6443 14.6466 21.4945 15.4331 21.457 15.7702C21.457 15.8451 21.457 15.92 21.457 15.9949C21.457 17.1934 22.2435 17.9425 22.2435 17.9799L22.281 18.0174H50.7454V17.905V17.7552H22.281V17.8676L22.3559 17.7927V17.7552C22.2061 17.6054 21.6817 16.9312 21.6817 15.9949C21.6817 15.92 21.6817 15.8451 21.6817 15.8076C21.7192 15.508 21.869 14.7215 22.0937 13.7477C22.4308 12.287 22.9177 10.3395 23.3297 8.76644C23.517 7.97993 23.7042 7.26832 23.854 6.78143C23.9664 6.29453 24.0788 5.99491 24.0788 5.99491L23.9664 5.95746V6.06982C32.5057 4.79641 42.6555 4.7215 48.5357 4.7215C49.3597 4.7215 50.0713 4.7215 50.708 4.7215C51.3447 4.7215 52.0563 4.7215 52.8802 4.7215C58.7979 4.7215 68.9477 4.79641 77.4495 6.06982V5.95746L77.3372 5.99491C77.3372 5.99491 77.487 6.51925 77.7117 7.34322C78.0488 8.57918 78.5357 10.4518 78.9477 12.1747C79.3597 13.8601 79.6967 15.3957 79.7342 15.8451C79.7342 15.92 79.7342 15.9949 79.7342 16.0324C79.7342 16.5942 79.5469 17.0436 79.3971 17.3432C79.3222 17.493 79.2098 17.6054 79.1349 17.7178L79.06 17.8301L79.0226 17.8676L79.0975 17.9425V17.7552H50.6705V17.905H50.708Z" fill="black" fill-opacity="0.42"/>
<path d="M22.581 17.2317L22.6933 17.1568C22.5435 16.9321 22.3188 16.5201 22.3188 15.9957C22.3188 15.9583 22.3188 15.8834 22.3188 15.8459C22.3563 15.434 22.6559 14.198 23.0679 12.625C23.4799 11.0519 24.0042 9.17927 24.4536 7.45642L24.3413 7.41897V7.53133C32.2065 6.37028 41.8694 6.22047 48.948 6.22047H53.2926C60.3712 6.22047 69.1353 6.37028 77.0005 7.53133V7.41897L76.8881 7.45642C77.3375 9.17927 77.8619 11.0894 78.2739 12.625C78.6859 14.198 79.0229 15.434 79.0229 15.8459C79.0229 15.8834 79.0229 15.9583 79.0229 15.9957C79.0229 16.5201 78.7982 16.9321 78.6484 17.1568L78.7608 17.2317V17.1193H22.581V17.2317V17.3815H78.8731L78.9106 17.3441C79.0978 17.0819 79.3226 16.6325 79.3226 16.0332C79.3226 15.9958 79.3226 15.9208 79.3226 15.8459C79.2851 15.3965 78.9855 14.1605 78.536 12.5875C78.1241 11.0145 77.5997 9.10436 77.1503 7.41897L77.1128 7.34406H77.0379C69.1353 6.18302 60.3712 6.0332 53.2926 6.0332H48.948C41.8694 6.0332 32.2065 6.18302 24.3038 7.34406H24.2289L24.1915 7.41897C23.742 9.14182 23.2177 11.0145 22.8057 12.5875C22.3937 14.1605 22.0941 15.3965 22.0566 15.8459C22.0566 15.9208 22.0566 15.9583 22.0566 16.0332C22.0566 16.6325 22.3188 17.1193 22.4686 17.3441L22.5061 17.3815H22.581V17.2317Z" fill="black" fill-opacity="0.42"/>
<path d="M25.8013 24.3465L25.7638 24.2342L25.6889 23.8971V23.8222V23.7847L25.3144 20.751V20.6387V20.5638L24.5653 20.002H24.5278C24.5278 20.002 23.8537 20.1518 23.0672 20.3765C22.3556 20.5638 21.6065 20.7885 21.1196 20.9757C21.0822 20.9757 21.0447 21.0132 21.0072 21.0132C21.0072 21.0132 20.9698 21.0132 20.9698 21.0506C20.5204 21.2754 20.0335 21.7248 19.5091 22.1742C18.9848 22.5862 18.4604 22.9982 18.0859 23.1106C17.6739 23.2604 16.9249 23.4476 16.1758 23.7847C15.5765 24.0469 14.9773 24.384 14.5653 24.796C14.5278 24.8334 14.4904 24.8709 14.4529 24.9083C14.4155 24.9458 14.378 25.0207 14.3406 25.0581C13.9661 25.6199 13.2919 27.2679 12.6926 28.766C12.0934 30.2641 11.569 31.6124 11.569 31.6124L11.4941 31.7623H27.5241L25.8013 24.3465ZM11.8687 31.575C11.9436 31.4252 12.0185 31.2005 12.1308 30.8634C12.4305 30.0769 12.9174 28.8784 13.3668 27.7548C13.8162 26.6312 14.3031 25.6199 14.5278 25.2454C14.8275 24.7211 15.5391 24.3465 16.2507 24.0469C16.9623 23.7473 17.7114 23.5226 18.1234 23.4102C18.5728 23.2604 19.0971 22.8484 19.584 22.399C20.1084 21.9495 20.5953 21.5001 21.0072 21.3128C21.3818 21.1255 22.2807 20.8634 23.0672 20.6387C23.7039 20.4514 24.3031 20.339 24.4904 20.3016L25.0522 20.6761L25.4267 23.8596L27.2245 31.6124H11.8687V31.575Z" fill="black" fill-opacity="0.42"/>
<path d="M41.1202 4.98414V5.05905C41.1202 5.05905 41.4947 5.05905 42.1689 5.05905C44.1539 5.02159 48.6857 4.94669 52.9554 4.94669C55.8018 4.94669 58.5734 4.98414 60.4086 5.05905V4.98414L60.3711 4.94669V4.98414C60.2962 5.0965 59.8468 5.58339 58.9104 5.58339C57.8243 5.58339 42.6183 5.58339 41.8692 5.58339V5.6583L41.9067 5.62085C41.9067 5.62085 41.7569 5.54594 41.6071 5.43358C41.4573 5.32122 41.27 5.13395 41.2325 5.02159L41.1202 4.98414H41.0453C41.1202 5.17141 41.3074 5.35867 41.4573 5.47103C41.6445 5.58339 41.7943 5.69575 41.7943 5.69575C42.5434 5.69575 57.7494 5.69575 58.8355 5.69575C59.9591 5.69575 60.4086 5.02159 60.4086 4.98414L60.4835 4.90923H60.3711C58.5359 4.83433 55.8018 4.79688 52.9179 4.79688C47.1876 4.79688 41.0827 4.90923 41.0827 4.90923H41.0078L41.0453 4.98414H41.1202Z" fill="black" fill-opacity="0.42"/>
<path d="M89.8831 31.6499C89.8831 31.6499 89.3588 30.3016 88.7595 28.8035C88.1603 27.3053 87.4487 25.6948 87.1116 25.0956C87.0741 25.0581 87.0367 24.9832 86.9992 24.9458C86.9618 24.9083 86.9243 24.8709 86.8869 24.8334C86.4749 24.384 85.8756 24.0844 85.2764 23.8222C84.5273 23.5226 83.7783 23.2978 83.3663 23.148C82.9917 23.0357 82.4674 22.6237 81.9805 22.1742C81.5311 21.7997 81.0816 21.3877 80.6697 21.163C80.6322 21.1255 80.5947 21.1255 80.5573 21.0881C80.5573 21.0881 80.5198 21.0881 80.5198 21.0506C80.0704 20.8259 79.209 20.5638 78.4225 20.3765C77.6359 20.1518 76.9618 20.002 76.9618 20.002H76.9243L76.8869 20.0394L76.2127 20.5263V20.5638V20.6761L75.8382 23.7473V23.7847V23.8596L75.7633 24.1967L75.7258 24.3091L73.8906 31.7997H89.958L89.8831 31.6499ZM76.0255 23.8222L76.4 20.6387L76.9618 20.2641C77.1491 20.3016 77.7108 20.4514 78.385 20.6012C79.1715 20.8259 80.0704 21.0506 80.4449 21.2754C80.8195 21.4626 81.3438 21.9121 81.8682 22.3615C82.3925 22.8109 82.8794 23.2229 83.3288 23.3727C83.7408 23.5226 84.4899 23.7098 85.2015 24.0094C85.9131 24.3091 86.6247 24.7211 86.9243 25.2079C87.2614 25.7323 87.9356 27.3802 88.5723 28.8784C88.8719 29.6274 89.1715 30.339 89.3588 30.8634C89.4712 31.163 89.5835 31.4252 89.621 31.575H74.2652L76.0255 23.8222Z" fill="black" fill-opacity="0.42"/>
<path d="M93.7405 42.2129H93.6282H93.5533C93.5533 42.2503 93.5533 42.3252 93.5533 42.3627C93.5158 42.887 93.4784 43.3739 93.4035 43.8234C93.4035 44.0106 93.366 44.1979 93.3285 44.4226C93.3285 44.535 93.2911 44.6099 93.2911 44.7223C93.2911 44.8346 93.2536 44.947 93.2536 45.0593C93.2536 45.1717 93.2162 45.2841 93.2162 45.3964C93.2162 45.5088 93.1787 45.6211 93.1787 45.7335C93.1413 45.9208 93.1038 46.1455 93.1038 46.3327C92.9915 47.0818 92.8417 47.9058 92.6918 48.6923C92.6544 48.9545 92.5795 49.2166 92.542 49.4414C92.542 49.4788 92.542 49.5163 92.5046 49.5537C92.5046 49.5912 92.5046 49.5912 92.5046 49.6286C92.4297 49.9282 92.3922 50.2279 92.3173 50.5275C92.3173 50.5649 92.3173 50.6024 92.2799 50.6399V50.6773C91.9053 52.3252 91.4933 53.8234 91.0439 54.7972C90.4821 56.0331 89.9203 56.8945 89.3211 57.4189C89.2461 57.4938 89.1712 57.5312 89.0963 57.6061C89.0214 57.6436 88.984 57.6811 88.9091 57.7185C88.8716 57.756 88.8716 57.756 88.8342 57.756C88.8342 57.756 88.7967 57.756 88.7967 57.7934C88.7218 57.8309 88.6844 57.8683 88.6094 57.9058C88.5345 57.9432 88.4596 57.9807 88.3473 58.0181C88.2724 58.0556 88.16 58.093 88.0851 58.093C87.8229 58.1679 87.5233 58.2054 87.2237 58.2054H81.793V67.7185C81.793 68.1679 81.9053 68.5799 82.13 68.917C82.3548 69.2541 82.6544 69.4414 82.9915 69.4414H92.6169C92.954 69.4414 93.2911 69.2166 93.4784 68.917C93.7031 68.6174 93.8154 68.1679 93.8154 67.7185V42.2129H93.7405ZM93.5533 67.7185C93.5533 68.1305 93.4409 68.505 93.2536 68.7672C93.0664 69.0294 92.8417 69.1792 92.5795 69.1792H82.9915C82.7293 69.1792 82.5046 69.0294 82.3173 68.7672C82.13 68.505 82.0177 68.1305 82.0177 67.7185V58.4676H87.1862C88.0476 58.4676 88.7967 58.2054 89.4334 57.6436C90.1076 57.0818 90.6694 56.1829 91.2312 54.947C92.2799 52.6249 93.1413 47.8309 93.5158 44.6848V67.7185H93.5533Z" fill="black" fill-opacity="0.42"/>
<path d="M14.2289 58.205C14.1915 58.205 14.154 58.205 14.1166 58.205C14.0417 58.205 13.9293 58.205 13.8544 58.205C13.7046 58.205 13.5548 58.1676 13.405 58.1301C13.3301 58.0926 13.2177 58.0926 13.1428 58.0552C13.0679 58.0177 12.993 58.0177 12.9181 57.9803H12.8806C12.8057 57.9428 12.7308 57.9054 12.6559 57.8679C12.581 57.8305 12.4686 57.7556 12.3937 57.6807C12.3188 57.6432 12.2439 57.5683 12.169 57.4934C11.8694 57.2312 11.5698 56.8941 11.2701 56.4447C11.1952 56.3323 11.1203 56.22 11.0454 56.1076C10.8207 55.7331 10.6334 55.3211 10.4087 54.8717C10.3713 54.7968 10.3338 54.7219 10.3338 54.647C10.2589 54.4222 10.1466 54.1975 10.0716 53.9353C10.0716 53.8979 10.0342 53.8604 10.0342 53.7855C9.99674 53.6357 9.92183 53.4859 9.88438 53.3361C9.84692 53.1863 9.77202 52.999 9.73457 52.8492C9.65966 52.6245 9.62221 52.3998 9.5473 52.175C9.43494 51.8005 9.36003 51.3885 9.24767 50.9765C9.21022 50.7893 9.17277 50.602 9.13531 50.4147C9.13531 50.3773 9.13531 50.3398 9.09786 50.3024C9.06041 50.0402 8.9855 49.778 8.94805 49.5159L8.91059 49.3286V49.2162C8.91059 49.2162 8.91059 49.2162 8.91059 49.1788C8.91059 49.1039 8.87314 49.029 8.87314 48.9541C8.87314 48.9166 8.87314 48.8417 8.83569 48.8043C8.79824 48.5421 8.76078 48.3174 8.72333 48.0552C8.68588 47.793 8.64842 47.5683 8.61097 47.3436C8.49861 46.5571 8.3488 45.7705 8.27389 45.0589V45.0215H8.19898H8.08662H8.01172V67.6807C8.01172 68.1301 8.12408 68.5421 8.3488 68.8792C8.57352 69.1788 8.87314 69.4035 9.21022 69.4035H18.7982C19.1728 69.4035 19.4724 69.1788 19.6597 68.8792C19.8844 68.5795 19.9967 68.1301 19.9967 67.6807V58.205H14.2289ZM19.7346 67.7181C19.7346 68.1301 19.6222 68.5046 19.4349 68.7668C19.2477 69.029 19.023 69.1788 18.7608 69.1788H9.17277C8.9106 69.1788 8.68588 69.029 8.49861 68.7668C8.31134 68.5046 8.19898 68.1301 8.19898 67.7181V46.7443C8.27389 47.1563 8.3488 47.6058 8.4237 48.0177C8.46116 48.2799 8.49861 48.5421 8.57352 48.8043C8.57352 48.8417 8.57352 48.9166 8.61097 48.9541C8.72333 49.5159 8.83569 50.0777 8.94805 50.6395C8.9855 50.8642 9.06041 51.0889 9.09786 51.3136C9.13531 51.426 9.13531 51.5383 9.17277 51.6507C9.39749 52.587 9.65966 53.4484 9.88438 54.1601C9.92183 54.235 9.92183 54.3099 9.95928 54.3848C10.0342 54.572 10.1091 54.7593 10.184 54.9466C10.7458 56.22 11.3076 57.0814 11.9818 57.6432C12.5061 58.0926 13.0679 58.3548 13.7046 58.4297C13.7421 58.4297 13.7795 58.4297 13.817 58.4297C13.8919 58.4297 13.9293 58.4297 14.0042 58.4297C14.0791 58.4297 14.154 58.4297 14.2289 58.4297H19.6971V67.7181H19.7346Z" fill="black" fill-opacity="0.42"/>
<path d="M92.5435 49.441L92.2813 50.6395C90.6708 49.8904 86.4011 48.2425 81.2701 48.2425H17.7495C17.0004 48.2425 12.2813 48.9916 9.13522 50.3399L8.87305 49.1414C12.0566 47.7182 16.9629 46.9316 17.7495 46.9316H81.2701C86.6633 46.9691 91.0453 48.7668 92.5435 49.441Z" fill="#3265B1" stroke="black" stroke-opacity="0.42" stroke-width="0.0749064" stroke-miterlimit="10"/>
</g>
<defs>
<clipPath id="clip0_7554_21154">
<rect width="100" height="73" fill="white" transform="translate(0.5 0.222656)"/>
</clipPath>
</defs>
</svg>
