<svg width="182" height="113" viewBox="0 0 182 113" fill="none" xmlns="http://www.w3.org/2000/svg">
<path d="M180.782 64.9353L180.831 64.9463C180.832 64.9446 180.975 64.3022 181.137 63.6125C181.299 62.9244 181.483 62.1842 181.557 62.0132L181.559 62.0087L181.573 61.9501L181.585 61.8972L181.531 61.8886C181.199 61.8365 180.796 61.8178 180.38 61.8178C179.179 61.8178 177.866 61.977 177.865 61.977L177.872 62.0274L177.867 61.9765L158 63.737L158.01 63.7916C158.154 64.6181 158.233 65.4662 158.235 66.333V66.335L158.502 69.9863L158.555 69.9798C161.366 69.637 172.083 68.3166 174.751 67.7967C176.239 67.5068 177.665 67.2287 178.821 66.9421C179.978 66.6542 180.862 66.3619 181.282 66.0272L181.399 65.9332L171.423 66.1579L175.853 64.9858H180.823L180.831 64.9463L180.782 64.9353V64.8844H175.84L170.567 66.2789L181.251 66.0382L181.25 65.9873L181.218 65.9478C180.83 66.2609 179.948 66.5586 178.796 66.8432C177.644 67.129 176.219 67.4071 174.732 67.6969C172.074 68.2148 161.352 69.5364 158.542 69.8788L158.548 69.9293L158.599 69.9253L158.337 66.3293L158.286 66.333H158.337C158.335 65.4601 158.255 64.6063 158.11 63.7741L158.06 63.7826L158.064 63.8335L177.877 62.0779H177.878C177.878 62.0779 178.205 62.0384 178.681 61.9985C179.158 61.959 179.784 61.9195 180.38 61.9195C180.793 61.9195 181.192 61.9387 181.515 61.9892L181.523 61.9391L181.474 61.9277L181.461 61.9818L181.511 61.9928L181.464 61.9729C181.382 62.1667 181.202 62.8971 181.038 63.5893C180.875 64.2794 180.732 64.9239 180.732 64.9239L180.782 64.9353Z" fill="#3265B1"/>
<path d="M177.386 61.1927L177.39 61.2432L177.482 61.2371C178.837 61.1463 179.786 61.1239 180.395 61.1239C180.994 61.1239 181.26 61.1459 181.261 61.1454L181.351 61.1528L181.31 61.0722C181.113 60.6805 180.881 60.3259 180.881 60.3251L180.838 60.3527L180.889 60.3588L181.546 54.7093L181.494 54.7044C181.494 54.7044 181.293 54.6849 181.076 54.6592C180.861 54.634 180.62 54.5985 180.571 54.5778L180.564 54.5961L180.58 54.5831L180.571 54.5778L180.564 54.5961L180.58 54.5831C180.576 54.581 180.56 54.5428 180.549 54.4894C180.508 54.2993 180.482 53.8999 180.467 53.5526C180.452 53.2045 180.447 52.9065 180.447 52.9056L180.446 52.8556H180.396C179.928 52.8556 179.499 52.8613 179.09 52.8637H179.048L179.04 52.9048C178.775 54.3127 177.922 58.784 177.337 61.1805L177.32 61.248L177.39 61.2432L177.386 61.1927L177.436 61.2045C178.022 58.8027 178.875 54.3323 179.14 52.924L179.09 52.9146L179.09 52.9655C179.501 52.963 179.929 52.9573 180.396 52.9573V52.9065L180.345 52.9073C180.345 52.9077 180.352 53.3246 180.374 53.7488C180.386 53.961 180.401 54.1751 180.422 54.3408C180.433 54.4239 180.445 54.4947 180.459 54.5489L180.483 54.6193L180.534 54.6722C180.615 54.7036 180.843 54.7333 181.064 54.7602C181.282 54.7862 181.484 54.8058 181.485 54.8058L181.489 54.7553L181.439 54.7492L180.786 60.3654L180.796 60.3804C180.796 60.3808 180.853 60.468 180.935 60.6043C181.016 60.7407 181.122 60.9252 181.22 61.1178L181.265 61.095L181.269 61.0441C181.268 61.0441 180.996 61.0221 180.395 61.0221C179.784 61.0221 178.832 61.0449 177.475 61.1353L177.383 61.1418L177.386 61.1927Z" fill="#3265B1"/>
<path d="M162.931 69.4375H162.931C162.932 69.4375 162.933 69.4371 162.934 69.4371L162.931 69.4375ZM162.918 69.3365C165.574 68.7555 169.395 67.8997 171.424 67.3529C172.43 67.0818 173.283 66.6795 174.002 66.2015L181.09 66.0419L174.189 66.1974C173.434 66.7202 172.528 67.1608 171.451 67.451C169.683 67.9274 166.564 68.6366 164.034 69.1957C163.653 69.2437 163.281 69.2909 162.918 69.3365ZM169.689 68.5589C171.907 68.2576 173.823 67.9779 174.755 67.7963C173.823 67.9783 171.907 68.2576 169.689 68.5589ZM174.453 67.7495C174.47 67.7462 174.486 67.7434 174.502 67.7405C174.486 67.7434 174.47 67.7462 174.453 67.7495ZM174.505 67.7401C174.507 67.7393 174.511 67.7389 174.513 67.7385C174.511 67.7389 174.508 67.7393 174.505 67.7401ZM174.596 67.723C174.597 67.723 174.597 67.723 174.598 67.723C174.597 67.723 174.597 67.723 174.596 67.723ZM174.614 67.7198C174.614 67.7198 174.614 67.7198 174.614 67.7198H174.614ZM174.72 67.6998C174.72 67.6998 174.721 67.6994 174.721 67.6994C174.721 67.6994 174.72 67.6994 174.72 67.6998Z" fill="#E5E5E5"/>
<path d="M162.931 69.4375H162.931C162.932 69.4375 162.933 69.4371 162.934 69.4371L162.931 69.4375ZM162.918 69.3365C165.574 68.7555 169.395 67.8997 171.424 67.3529C172.43 67.0818 173.283 66.6795 174.002 66.2015L181.09 66.0419L174.189 66.1974C173.434 66.7202 172.528 67.1608 171.451 67.451C169.683 67.9274 166.564 68.6366 164.034 69.1957C163.653 69.2437 163.281 69.2909 162.918 69.3365ZM169.689 68.5589C171.907 68.2576 173.823 67.9779 174.755 67.7963C173.823 67.9783 171.907 68.2576 169.689 68.5589ZM174.453 67.7495C174.47 67.7462 174.486 67.7434 174.502 67.7405C174.486 67.7434 174.47 67.7462 174.453 67.7495ZM174.505 67.7401C174.507 67.7393 174.511 67.7389 174.513 67.7385C174.511 67.7389 174.508 67.7393 174.505 67.7401ZM174.596 67.723C174.597 67.723 174.597 67.723 174.598 67.723C174.597 67.723 174.597 67.723 174.596 67.723ZM174.614 67.7198C174.614 67.7198 174.614 67.7198 174.614 67.7198H174.614ZM174.72 67.6998C174.72 67.6998 174.721 67.6994 174.721 67.6994C174.721 67.6994 174.72 67.6994 174.72 67.6998Z" fill="#E5E5E5"/>
<path d="M162.935 69.4375H162.461L162.921 69.3369C162.921 69.3369 162.922 69.3365 162.922 69.3365C163.285 69.2909 163.658 69.2437 164.038 69.1957C164.867 69.0902 165.73 68.9799 166.593 68.8675C169.739 68.4583 172.886 68.0284 174.404 67.7588C174.405 67.7588 174.405 67.7584 174.406 67.7584C174.423 67.7556 174.439 67.7527 174.455 67.7495C174.456 67.7495 174.457 67.7495 174.457 67.7495C174.474 67.7462 174.49 67.7434 174.507 67.7405C174.508 67.7401 174.508 67.7401 174.509 67.7401C174.512 67.7393 174.515 67.7389 174.518 67.7385C174.519 67.7381 174.519 67.7381 174.52 67.7381C174.522 67.7377 174.523 67.7373 174.525 67.7373C174.527 67.7369 174.529 67.7365 174.531 67.736C174.531 67.736 174.531 67.736 174.532 67.736C174.533 67.7356 174.534 67.7356 174.536 67.7352C174.538 67.7348 174.541 67.7344 174.543 67.7336C174.554 67.732 174.564 67.7299 174.574 67.7279C174.575 67.7279 174.576 67.7279 174.577 67.7275C174.579 67.7271 174.582 67.7267 174.584 67.7263C174.589 67.7251 174.595 67.7242 174.6 67.723C174.601 67.723 174.601 67.723 174.602 67.723C174.604 67.7226 174.605 67.7222 174.607 67.7218C174.609 67.7214 174.611 67.7214 174.613 67.721C174.615 67.7206 174.616 67.7202 174.618 67.7198H174.619C174.638 67.7161 174.657 67.7124 174.676 67.7088C174.677 67.7088 174.677 67.7088 174.677 67.7088C174.682 67.7075 174.688 67.7067 174.692 67.7059C174.693 67.7059 174.693 67.7059 174.693 67.7059C174.698 67.7047 174.703 67.7039 174.708 67.7027C174.709 67.7027 174.71 67.7023 174.712 67.7023C174.713 67.7018 174.714 67.7018 174.715 67.7014C174.716 67.7014 174.716 67.701 174.717 67.701C174.72 67.7006 174.722 67.7002 174.724 67.6998C174.725 67.6994 174.725 67.6994 174.725 67.6994C174.728 67.699 174.73 67.6986 174.732 67.6982C174.732 67.6982 174.733 67.6982 174.733 67.6982C174.736 67.6974 174.738 67.697 174.74 67.6965C176.228 67.4067 177.652 67.1286 178.805 66.8428C179.84 66.5867 180.657 66.3204 181.094 66.0419L174.006 66.2015C174.054 66.1698 174.101 66.1376 174.148 66.105L174.161 66.0961L181.257 65.936L181.407 65.9328L181.29 66.0268C180.871 66.3615 179.986 66.6539 178.829 66.9417C177.673 67.2283 176.247 67.5064 174.76 67.7963C173.827 67.9779 171.911 68.2576 169.693 68.5589C169.692 68.5593 169.69 68.5593 169.688 68.5597C169.684 68.5601 169.68 68.5609 169.676 68.5613C167.505 68.8561 165.048 69.1716 162.939 69.4371H162.939C162.937 69.4371 162.936 69.4375 162.935 69.4375Z" fill="#3265B1"/>
<path d="M175.336 65.123L175.465 65.0889V65.0893L175.336 65.123ZM175.465 65.0893V65.0889L175.859 64.9846L175.465 65.0893ZM175.425 64.9944C176.217 64.141 176.73 63.2062 177.01 62.3773C177.033 62.3105 177.057 62.2331 177.082 62.148L177.191 62.1383C177.161 62.2392 177.133 62.3313 177.107 62.4098C176.835 63.2148 176.348 64.1141 175.606 64.9464L175.846 64.8832L175.425 64.9944Z" fill="#E5E5E5"/>
<path d="M175.336 65.123L175.465 65.0889V65.0893L175.336 65.123ZM175.465 65.0893V65.0889L175.859 64.9846L175.465 65.0893ZM175.425 64.9944C176.217 64.141 176.73 63.2062 177.01 62.3773C177.033 62.3105 177.057 62.2331 177.082 62.148L177.191 62.1383C177.161 62.2392 177.133 62.3313 177.107 62.4098C176.835 63.2148 176.348 64.1141 175.606 64.9464L175.846 64.8832L175.425 64.9944Z" fill="#E5E5E5"/>
<path d="M175.293 65.1348L175.413 65.0061C175.416 65.0024 175.42 64.9988 175.423 64.9951L175.844 64.884H180.745C180.779 64.7333 180.903 64.1776 181.042 63.5888C181.203 62.9061 181.381 62.1858 181.464 61.9806C181.151 61.9358 180.774 61.9191 180.384 61.9191C179.788 61.9191 179.162 61.9586 178.685 61.9981C178.209 62.038 177.882 62.0775 177.882 62.0775H177.881L177.189 62.139L177.08 62.1488C177.087 62.1251 177.094 62.1011 177.101 62.0767L177.111 62.0437L177.869 61.9765C177.87 61.9765 179.183 61.8173 180.384 61.8173C180.8 61.8173 181.203 61.8361 181.535 61.8882L181.589 61.8967L181.577 61.9497L181.563 62.0083L181.561 62.0128C181.487 62.1838 181.303 62.924 181.141 63.612C180.979 64.3018 180.836 64.9442 180.835 64.9459L180.827 64.9853H175.857L175.463 65.0896L175.334 65.1238L175.293 65.1348Z" fill="#3265B1"/>
<circle cx="12.56" cy="12.56" r="12.56" transform="matrix(-1 0 0 1 50.5566 53.8789)" fill="#3265B1"/>
<path d="M50.4518 66.4396H50.5536C50.5536 59.5047 44.9313 53.8821 37.996 53.8817C31.0603 53.8821 25.4375 59.5047 25.4375 66.4396C25.4375 73.3758 31.0603 78.998 37.996 78.998C44.9313 78.998 50.5536 73.3758 50.5536 66.4396H50.4518H50.35C50.35 69.8519 48.9674 72.9401 46.7317 75.1762C44.4957 77.4118 41.4079 78.7945 37.996 78.7945C34.5841 78.7945 31.4959 77.4118 29.2597 75.1762C27.0238 72.9401 25.6411 69.8519 25.6411 66.4396C25.6411 63.0282 27.0238 59.94 29.2597 57.7039C31.4959 55.4683 34.5841 54.0856 37.996 54.0852C41.4079 54.0856 44.4957 55.4683 46.7317 57.7039C48.9674 59.94 50.35 63.0282 50.35 66.4396H50.4518Z" fill="#3265B1"/>
<circle cx="9.755" cy="9.755" r="9.755" transform="matrix(-1 0 0 1 47.752 56.6836)" fill="#1C427C"/>
<circle cx="12.56" cy="12.56" r="12.56" transform="matrix(-1 0 0 1 155.664 53.8809)" fill="#3265B1"/>
<circle cx="9.755" cy="9.755" r="9.755" transform="matrix(-1 0 0 1 152.674 56.6836)" fill="#1C427C"/>
<path d="M47.1738 63.457L47.2707 63.4252C45.9312 59.3037 42.1077 56.6829 37.9959 56.6833C36.9972 56.6833 35.9809 56.838 34.9798 57.1633C30.8583 58.5024 28.2383 62.3255 28.2383 66.4369C28.2383 67.436 28.393 68.4518 28.7183 69.453C30.0574 73.5749 33.8805 76.1953 37.9922 76.1953C38.9914 76.1953 40.0072 76.0406 41.0084 75.7153C45.1299 74.3758 47.7503 70.5527 47.7503 66.4409C47.7503 65.4422 47.5956 64.4264 47.2707 63.4252L47.1738 63.457L47.0769 63.4883C47.3953 64.4687 47.5467 65.463 47.5467 66.4409C47.5467 70.4664 44.9813 74.2105 40.9457 75.5215C39.9648 75.8403 38.9702 75.9917 37.9922 75.9917C33.9668 75.9917 30.2228 73.4259 28.912 69.3903C28.5933 68.4095 28.4419 67.4148 28.4419 66.4369C28.442 62.4118 31.0072 58.6677 35.0429 57.3567C36.0237 57.0383 37.0179 56.8868 37.9959 56.8868C42.0217 56.8868 45.7659 59.4523 47.0769 63.4883L47.1738 63.457Z" fill="#3265B1"/>
<path d="M155.565 66.4396H155.666C155.666 59.5047 150.044 53.8821 143.109 53.8817C136.173 53.8821 130.551 59.5047 130.551 66.4396C130.551 73.3758 136.173 78.998 143.109 78.998C150.044 78.998 155.666 73.3758 155.666 66.4396H155.565H155.463C155.463 69.8519 154.08 72.9401 151.844 75.1762C149.608 77.4118 146.521 78.7945 143.109 78.7945C139.697 78.7945 136.609 77.4118 134.373 75.1762C132.137 72.9401 130.754 69.8519 130.754 66.4396C130.754 63.0282 132.137 59.94 134.373 57.7039C136.609 55.4683 139.697 54.0856 143.109 54.0852C146.521 54.0856 149.608 55.4683 151.844 57.7039C154.08 59.94 155.463 63.0282 155.463 66.4396H155.565Z" fill="#3265B1"/>
<path d="M152.099 63.457L152.196 63.4252C150.857 59.3037 147.034 56.6829 142.922 56.6833C141.923 56.6833 140.907 56.838 139.906 57.1633C135.784 58.5028 133.164 62.3259 133.164 66.4373C133.164 67.4364 133.319 68.4522 133.644 69.453C134.983 73.5749 138.807 76.1953 142.918 76.1953C143.917 76.1953 144.933 76.0406 145.934 75.7153C150.056 74.3762 152.676 70.5527 152.676 66.4413C152.676 65.4426 152.521 64.4264 152.196 63.4252L152.099 63.457L152.003 63.4883C152.321 64.4687 152.473 65.4634 152.473 66.4413C152.473 70.4668 149.907 74.2105 145.871 75.5215C144.891 75.8403 143.896 75.9917 142.918 75.9917C138.893 75.9917 135.148 73.4259 133.837 69.3903C133.519 68.4095 133.368 67.4152 133.368 66.4373C133.368 62.4118 135.933 58.6681 139.969 57.3567C140.949 57.0383 141.944 56.8868 142.922 56.8868C146.948 56.8868 150.691 59.4523 152.003 63.4883L152.099 63.457Z" fill="#3265B1"/>
<path d="M94.5239 47.0559L94.5214 46.9541C93.3888 46.9834 90.7439 47.053 89.4032 47.1092C87.9546 47.1695 86.5793 47.3311 86.1595 47.3836L86.1721 47.4846H86.2739V47.4842H86.0703V47.5005V47.5082L86.0715 47.516C86.0772 47.5518 86.0789 47.5893 86.0789 47.6283C86.0789 47.667 86.0772 47.7073 86.0772 47.7489C86.0776 47.8111 86.0805 47.8783 86.1061 47.9475C86.1444 48.0534 86.2413 48.1422 86.3911 48.1922C86.5422 48.2444 86.7543 48.2733 87.0739 48.281C88.1944 48.3066 92.1905 48.3066 92.7732 48.3066C93.0675 48.3062 93.4881 48.2952 93.8578 48.2362C94.043 48.2069 94.2149 48.1658 94.3561 48.1043C94.4954 48.0428 94.6147 47.9598 94.6619 47.8238C94.7006 47.7077 94.7217 47.5803 94.7217 47.4525C94.7217 47.2965 94.6904 47.1394 94.6118 47.0046L94.5813 46.9529L94.5214 46.9541L94.5239 47.0559L94.4359 47.1076C94.4913 47.2012 94.5186 47.3242 94.5182 47.4525C94.5186 47.5571 94.5003 47.6646 94.4689 47.759C94.4547 47.8067 94.392 47.8673 94.2747 47.9178C93.9254 48.0734 93.2039 48.1047 92.7732 48.1031C92.1917 48.1031 88.1928 48.1031 87.0788 48.0774C86.6672 48.0693 86.4551 48.0159 86.3683 47.9585C86.3244 47.9296 86.3089 47.9064 86.2967 47.8759C86.2853 47.8454 86.2808 47.803 86.2808 47.7489C86.2808 47.713 86.2824 47.6727 86.2824 47.6283C86.2824 47.584 86.2808 47.5355 86.2727 47.4846L86.1721 47.5005H86.2739V47.4842H86.0703V47.4846V47.5998L86.1847 47.5856C86.6012 47.5335 87.9725 47.3727 89.4118 47.3124C90.7492 47.2566 93.3945 47.1866 94.5263 47.1577L94.5239 47.0559Z" fill="#3265B1"/>
<path d="M132.782 45.7766L132.779 45.6748C131.647 45.7037 129.001 45.7737 127.661 45.8295C126.212 45.8902 124.837 46.0518 124.417 46.1039L124.43 46.2049H124.532V46.2045H124.328V46.2212V46.2289L124.329 46.2367C124.335 46.2721 124.337 46.3091 124.337 46.3478C124.337 46.3873 124.335 46.428 124.335 46.4704C124.335 46.5327 124.338 46.5998 124.364 46.6691C124.402 46.7749 124.499 46.8633 124.649 46.9129C124.8 46.965 125.013 46.994 125.331 47.0017C126.452 47.0273 130.448 47.0273 131.031 47.0273C131.325 47.0269 131.746 47.0159 132.115 46.9569C132.3 46.9272 132.473 46.8865 132.614 46.825C132.753 46.7631 132.872 46.6805 132.92 46.5441C132.958 46.4284 132.98 46.301 132.98 46.1732C132.979 46.0172 132.948 45.8597 132.87 45.7253L132.839 45.6732L132.779 45.6748L132.782 45.7766L132.694 45.8279C132.749 45.9215 132.776 46.0449 132.776 46.1732C132.776 46.2778 132.758 46.3853 132.726 46.4797H132.727C132.712 46.5274 132.65 46.588 132.533 46.6381C132.182 46.7936 131.461 46.8254 131.031 46.8238C130.45 46.8238 126.451 46.8238 125.336 46.7981C124.925 46.79 124.713 46.7366 124.626 46.6792C124.582 46.6507 124.567 46.6275 124.555 46.597C124.543 46.5669 124.538 46.5245 124.539 46.4704C124.539 46.4341 124.54 46.393 124.54 46.3478C124.54 46.3038 124.539 46.2558 124.53 46.2053L124.43 46.2212H124.532V46.2045H124.328V46.2049V46.3205L124.443 46.3063C124.859 46.2542 126.23 46.0929 127.67 46.0331C129.007 45.9773 131.652 45.9073 132.784 45.8784L132.782 45.7766Z" fill="#3265B1"/>
<path d="M52.888 66.3432H52.9389C52.9299 58.068 46.1949 51.3387 37.9172 51.3383C29.6346 51.3387 22.8965 58.0769 22.8963 66.3412H22.9472L22.8963 66.3399L22.7852 70.7856L22.834 70.7888C23.1955 70.812 23.456 70.8287 23.5836 70.8369L23.6364 70.8401L23.7485 66.3603V66.3599C23.7485 62.4468 25.3343 58.905 27.8983 56.3408C30.4626 53.7766 34.0046 52.1908 37.9172 52.1908C41.8303 52.1908 45.3725 53.7766 47.9367 56.3408C50.5009 58.905 52.0871 62.4468 52.0871 66.3599V66.3611L52.3493 72.4316H53.2027L52.9389 66.3412L52.888 66.3432L52.8371 66.3456L53.096 72.3299H52.4466L52.1885 66.3578L52.138 66.3599H52.1889C52.1889 58.478 45.7992 52.089 37.9172 52.089C30.0358 52.089 23.6467 58.478 23.6467 66.3599H23.6976L23.6467 66.3587L23.5359 70.7847L23.5867 70.786L23.5901 70.7355C23.4624 70.7273 23.202 70.7106 22.8407 70.687L22.8374 70.7379L22.8882 70.7391L22.9981 66.342V66.3412C22.9981 62.2371 24.6713 58.5122 27.3727 55.8128C30.0745 53.1134 33.8039 51.44 37.9172 51.44C46.1383 51.44 52.8281 58.1245 52.8371 66.3436V66.3444V66.3456L52.888 66.3432Z" fill="#3265B1"/>
<path d="M129.149 72.4316H128.297V66.3603C128.297 58.0773 135.035 51.3391 143.318 51.3387C150.373 51.3391 156.303 56.2277 157.908 62.7949L157.922 62.8527L157.863 62.8576C157.558 62.8837 157.304 62.9053 157.11 62.9215L157.067 62.9252L157.056 62.8833C155.506 56.7394 149.943 52.1908 143.318 52.1912C139.405 52.1912 135.863 53.7771 133.299 56.3413C130.735 58.9055 129.149 62.4472 129.149 66.3603V72.4316ZM143.318 51.4404C139.205 51.4404 135.475 53.1138 132.773 55.8152C130.072 58.517 128.399 62.2469 128.399 66.3603V72.3299H129.047V66.3603C129.047 58.4784 135.437 52.0894 143.318 52.0894C149.976 52.0894 155.568 56.6495 157.144 62.8165C157.319 62.8018 157.538 62.7831 157.795 62.7615C156.181 56.2676 150.304 51.4404 143.318 51.4404Z" fill="#D9D9D9"/>
<path d="M129.149 72.4316H128.297V66.3603C128.297 58.0773 135.035 51.3391 143.318 51.3387C150.373 51.3391 156.303 56.2277 157.908 62.7949L157.922 62.8527L157.863 62.8576C157.558 62.8837 157.304 62.9053 157.11 62.9215L157.067 62.9252L157.056 62.8833C155.506 56.7394 149.943 52.1908 143.318 52.1912C139.405 52.1912 135.863 53.7771 133.299 56.3413C130.735 58.9055 129.149 62.4472 129.149 66.3603V72.4316ZM143.318 51.4404C139.205 51.4404 135.475 53.1138 132.773 55.8152C130.072 58.517 128.399 62.2469 128.399 66.3603V72.3299H129.047V66.3603C129.047 58.4784 135.437 52.0894 143.318 52.0894C149.976 52.0894 155.568 56.6495 157.144 62.8165C157.319 62.8018 157.538 62.7831 157.795 62.7615C156.181 56.2676 150.304 51.4404 143.318 51.4404Z" fill="#D9D9D9"/>
<path d="M157.759 70.0723L157.488 66.3624V66.3607C157.488 65.5065 157.409 64.6711 157.264 63.858L157.254 63.8034L158.003 63.7371L158.013 63.7916C158.157 64.6181 158.237 65.4662 158.238 66.333C158.237 65.4825 158.16 64.6499 158.021 63.8377L157.374 63.8951C157.513 64.6955 157.59 65.5175 157.59 66.3579L157.853 69.9627L157.868 69.9615C157.886 69.9591 158.111 69.9318 158.498 69.8846L158.505 69.9864L158.558 69.9798C158.126 70.0328 157.879 70.0625 157.879 70.0625L157.878 70.0629H157.877L157.759 70.0723Z" fill="#D9D9D9"/>
<path d="M157.759 70.0723L157.488 66.3624V66.3607C157.488 65.5065 157.409 64.6711 157.264 63.858L157.254 63.8034L158.003 63.7371L158.013 63.7916C158.157 64.6181 158.237 65.4662 158.238 66.333C158.237 65.4825 158.16 64.6499 158.021 63.8377L157.374 63.8951C157.513 64.6955 157.59 65.5175 157.59 66.3579L157.853 69.9627L157.868 69.9615C157.886 69.9591 158.111 69.9318 158.498 69.8846L158.505 69.9864L158.558 69.9798C158.126 70.0328 157.879 70.0625 157.879 70.0625L157.878 70.0629H157.877L157.759 70.0723Z" fill="#D9D9D9"/>
<path d="M158.502 69.9863L158.494 69.8845L158.235 66.335V66.333C158.233 65.4662 158.154 64.6181 158.01 63.7916L158 63.737L158.055 63.7322L158.059 63.7318L158.102 63.7281L158.11 63.7741C158.254 64.6055 158.335 65.4589 158.337 66.3314L158.603 69.9737L158.555 69.9798L158.502 69.9863Z" fill="#3265B1"/>
<path d="M69.6494 42.7993L69.7198 42.8726C69.7332 42.8608 70.3586 42.2468 70.3578 40.9C70.3578 40.8279 70.3562 40.7542 70.3525 40.6781C70.3155 39.9412 70.2397 39.1122 69.8134 38.44C69.3872 37.7658 68.6042 37.2732 67.2252 37.2141H67.2044C67.1316 37.2141 67.0469 37.228 66.9512 37.2495L66.4883 37.3529L66.9528 37.4482C67.0913 37.4767 67.6181 37.5977 68.1242 37.8713C68.6323 38.1461 69.1066 38.565 69.1877 39.1814C69.2548 39.6847 69.2894 40.2241 69.2894 40.7432C69.2899 41.5258 69.2096 42.2644 69.0492 42.755L69.0073 42.8852L69.6893 42.9023L69.7198 42.8726L69.6494 42.7993L69.6518 42.6975L69.1486 42.6849L69.1461 42.7867L69.243 42.8181C69.414 42.2912 69.4926 41.5404 69.493 40.7432C69.493 40.2152 69.458 39.6676 69.3896 39.1546C69.2931 38.4412 68.754 37.98 68.2211 37.6921C67.6857 37.4034 67.1438 37.2797 66.9936 37.2491L66.9732 37.3489L66.9956 37.4478C67.0831 37.4283 67.1588 37.4173 67.2044 37.4177H67.2163C68.5545 37.4796 69.2504 37.9368 69.6416 38.5491C70.0333 39.1635 70.1139 39.9575 70.1489 40.6879C70.1526 40.7608 70.1542 40.8312 70.1542 40.9C70.1542 41.5413 70.0068 41.9997 69.8611 42.2977C69.7886 42.4468 69.7161 42.5555 69.6628 42.6263L69.5993 42.7041L69.5826 42.722L69.5785 42.7261L69.6494 42.7993Z" fill="#3265B1"/>
<path d="M69.146 42.7874L69.2429 42.8187C69.3886 42.3701 69.4668 41.7597 69.4872 41.0953L69.4904 40.9911L63.5078 40.9744L63.5111 41.2142L63.5115 41.2252L63.5139 41.2353C63.5147 41.239 63.5876 41.5623 63.7505 41.9523C63.9141 42.3424 64.1637 42.8012 64.5391 43.0748C64.8921 43.3305 65.3876 43.6444 65.8611 43.8997C66.3379 44.1542 66.7792 44.3516 67.0712 44.3687L67.0935 44.3691C67.3362 44.3659 67.5471 44.1957 67.7051 43.9754C67.8622 43.7527 67.9685 43.4685 67.9693 43.1925C67.9693 43.0125 67.9217 42.833 67.8044 42.688L67.7254 42.752L67.723 42.8537L69.2192 42.8908L69.2429 42.8187L69.146 42.7874L69.1484 42.6856L67.5076 42.6449L67.6464 42.8159C67.7283 42.9173 67.7653 43.0467 67.7657 43.1925C67.7666 43.4144 67.6741 43.6676 67.539 43.8578C67.4042 44.0503 67.2279 44.1688 67.0935 44.1656L67.0809 44.1652C66.8676 44.1582 66.4193 43.971 65.9576 43.7206C65.4935 43.4702 65.0024 43.1591 64.6584 42.9099C64.3364 42.6787 64.0933 42.2475 63.9382 41.8742C63.8604 41.6873 63.8038 41.5155 63.7663 41.3909C63.7293 41.2663 63.7126 41.1906 63.7122 41.1902L63.6129 41.2129L63.7146 41.2113L63.7142 41.1788L69.385 41.1942L69.3854 41.0924L69.2836 41.0892C69.264 41.741 69.1859 42.3383 69.0491 42.7556L69.146 42.7874Z" fill="#3265B1"/>
<path d="M3.42945 52.0678L3.33101 52.0417C3.31081 52.1186 3.16005 52.5457 2.96429 53.1434C2.76772 53.7436 2.52343 54.5245 2.30838 55.3355C1.87709 56.9665 1.79436 58.7181 1.79403 58.7217L1.78516 58.9082L1.94659 58.8146C1.95579 58.808 2.46297 58.5186 2.57828 57.8989C2.67957 57.3411 3.36329 54.6051 3.60823 53.7497C3.73147 53.3104 3.99759 52.7892 4.0006 52.3324C4.00202 52.1239 3.93794 51.9187 3.76791 51.7669C3.59854 51.615 3.34057 51.5189 2.96458 51.479L2.49986 51.4302L2.90208 51.6679C2.90208 51.6679 2.92976 51.6842 2.97288 51.7123C3.03758 51.7547 3.13541 51.8231 3.21269 51.8931C3.25133 51.9281 3.28459 51.9635 3.30527 51.9928L3.33072 52.0437H3.33943L3.33101 52.0417L3.33072 52.0437H3.33943L3.33101 52.0417L3.42945 52.0678L3.52774 52.0942L3.53429 52.0437C3.53157 51.9529 3.48515 51.8894 3.43471 51.8288C3.28028 51.6521 3.00977 51.4961 3.00562 51.4924L2.95395 51.5804L2.94312 51.6814C3.29587 51.7184 3.5106 51.808 3.63144 51.9179C3.75167 52.0279 3.79576 52.1602 3.79703 52.3324C3.8002 52.7106 3.54683 53.2314 3.41244 53.6935C3.16469 54.5611 2.48382 57.2837 2.37804 57.8622V57.8627C2.33114 58.1216 2.19784 58.3162 2.07427 58.4469C2.01275 58.512 1.95388 58.5609 1.91109 58.5931L1.86068 58.6285L1.84464 58.6387L1.8957 58.7266L1.99732 58.7315C1.99732 58.7311 2.00241 58.624 2.01686 58.4359C2.05982 57.8724 2.18689 56.5903 2.50511 55.3876C2.71854 54.5819 2.96189 53.805 3.15768 53.2069C3.35409 52.6068 3.50042 52.1956 3.52774 52.0942L3.42945 52.0678Z" fill="#3265B1"/>
<path d="M3.04028 66.8812L3.14206 66.8824V66.873C3.14174 66.7289 3.10595 66.4362 3.05302 66.0628C2.89411 64.9477 2.57715 63.1615 2.57715 63.1607L2.375 63.179L2.38632 67.5469L2.49873 67.5347C2.50639 67.5334 2.65349 67.518 2.81109 67.4308C2.96793 67.347 3.14015 67.1699 3.14206 66.8824L3.04028 66.8812L2.93849 66.8796C2.93373 67.0852 2.82986 67.1841 2.71203 67.2529C2.65349 67.2859 2.5929 67.3063 2.54771 67.3177L2.49381 67.3295L2.47679 67.3323L2.48778 67.4333L2.58957 67.4329L2.57857 63.1782L2.47679 63.1786L2.37659 63.1965C2.37691 63.1982 2.51734 63.9901 2.65809 64.8479C2.72857 65.277 2.79884 65.722 2.85148 66.0917C2.90429 66.4598 2.93898 66.7582 2.93849 66.873V66.88L3.04028 66.8812Z" fill="#3265B1"/>
<path d="M5.50413 63.2606V63.3624C5.50507 63.3624 5.87007 63.3624 6.43499 63.3624C8.1294 63.3624 11.6124 63.3624 12.3663 63.3624C12.8518 63.3628 13.1944 63.4878 13.4233 63.6755C13.6518 63.8632 13.7727 64.116 13.8037 64.3933L13.8061 64.4381C13.8104 64.6909 13.5745 65.1213 13.0813 65.5415C12.5899 65.9637 11.8499 66.3842 10.8694 66.6615C9.78693 66.9685 8.56025 67.041 7.65675 67.0406C7.2652 67.0406 6.93423 67.0271 6.70138 67.0137C6.46854 67.0003 6.3356 66.9868 6.33528 66.9868L6.3251 67.0882L6.42004 67.0512C6.41988 67.0507 6.36964 66.9221 6.29314 66.699C6.06347 66.0313 5.6051 64.5281 5.60592 63.2606H5.50413H5.40234C5.40377 65.0109 6.22905 67.1192 6.23031 67.1253L6.25287 67.1835L6.31508 67.1896C6.31744 67.1896 6.8644 67.2441 7.65675 67.2441C8.57124 67.2441 9.81222 67.1721 10.9249 66.8574C11.9315 66.5728 12.6968 66.14 13.214 65.6958C13.7292 65.2499 14.0052 64.8005 14.0096 64.4381L14.006 64.3709C13.9708 64.0489 13.825 63.7411 13.5523 63.5179C13.2796 63.2944 12.8862 63.1588 12.3663 63.1588C11.8637 63.1588 10.1481 63.1588 8.55833 63.1588C7.7633 63.1588 6.99974 63.1588 6.43499 63.1588C5.87007 63.1588 5.50507 63.1588 5.50413 63.1588H5.40234V63.2606H5.50413Z" fill="#3265B1"/>
<path d="M8.06141 51.9127L7.98633 51.8439C7.97965 51.8529 6.28064 53.7009 6.22115 56.4276L6.21875 56.5371L6.32852 56.531C6.33055 56.531 11.0896 56.2672 13.0284 55.963C14.0059 55.8095 15.5095 55.3499 16.8769 54.8503C17.5603 54.6003 18.2087 54.3406 18.7388 54.1032C19.2695 53.8654 19.6786 53.6537 19.8969 53.4868C20.3023 53.1749 20.583 52.7173 20.7661 52.3101C20.8575 52.1065 20.9242 51.9152 20.9684 51.7593C21.0125 51.6017 21.0349 51.4869 21.0357 51.4107L21.0276 51.3517C21.0128 51.313 20.9976 51.3012 20.9813 51.2833C20.9215 51.2247 20.8124 51.1506 20.657 51.0581C20.1928 50.7866 19.3579 50.3961 18.6944 50.3933L18.6609 50.3937C17.7539 50.414 10.3444 51.2243 8.03613 51.8142L8.00685 51.8215L7.98633 51.8439L8.06141 51.9127L8.08653 52.0113C10.3519 51.4299 17.7957 50.6148 18.6651 50.5973H18.6653L18.6944 50.5969C19.1098 50.5956 19.6531 50.7841 20.0886 50.9898C20.3066 51.0919 20.4988 51.1978 20.6368 51.2841C20.7057 51.3269 20.7612 51.3651 20.7981 51.3936L20.8375 51.4274L20.8426 51.4327L20.8889 51.3977L20.8343 51.416L20.8426 51.4327L20.8889 51.3977L20.8343 51.416L20.8795 51.401L20.8319 51.4059L20.8343 51.416L20.8795 51.401L20.8319 51.4059L20.8321 51.4107C20.8329 51.4441 20.8143 51.5589 20.7726 51.7039C20.6492 52.144 20.3211 52.907 19.7729 53.3251C19.5851 53.4701 19.179 53.6838 18.6556 53.9175C17.0838 54.6215 14.4237 55.5392 12.9969 55.7619C12.0403 55.9121 10.3678 56.0542 8.93759 56.1581C8.22235 56.2098 7.56709 56.2525 7.09077 56.2818C6.61445 56.3115 6.31801 56.3278 6.3172 56.3278L6.32278 56.4296L6.42456 56.4317C6.45237 55.1109 6.88069 53.9969 7.30294 53.2132C7.514 52.8215 7.72327 52.5125 7.87946 52.302C7.95755 52.1965 8.02228 52.1159 8.06731 52.0618C8.11214 52.008 8.13632 51.9816 8.13632 51.9816L8.06141 51.9127Z" fill="#3265B1"/>
<path d="M180.836 60.3515L180.938 60.3633L181.601 54.6625L181.498 54.6527C181.497 54.6527 181.297 54.6332 181.08 54.6075C180.972 54.5945 180.86 54.5798 180.768 54.5656C180.678 54.5521 180.6 54.535 180.589 54.5293L180.562 54.5949L180.617 54.5493L180.589 54.5293L180.562 54.5949L180.617 54.5493L180.593 54.5692L180.62 54.5526L180.617 54.5493L180.593 54.5692L180.62 54.5526C180.619 54.553 180.604 54.5139 180.594 54.4601C180.556 54.2667 180.53 53.8722 180.515 53.5326C180.501 53.1923 180.496 52.9044 180.496 52.9036L180.496 52.8588L178.833 51.3776L178.884 50.4717L177.709 49.2185L177.531 43.0002L178.423 42.9212L178.413 42.8186C178.413 42.8182 178.404 42.7372 178.396 42.5935C178.387 42.4502 178.379 42.2454 178.379 42.0023C178.378 41.2202 178.471 40.0378 178.921 39.2333L178.994 39.1034L178.846 39.0831C178.844 39.0826 171.316 38.0408 162.899 37.8844L162.898 37.9862L162.94 37.8934C162.938 37.8926 151.068 32.504 146.163 30.8595C141.269 29.2199 134.757 26.9009 128.757 25.7266C123.96 24.7882 117.954 23.8428 107.736 23.8428C105.19 23.8428 102.382 23.9014 99.2649 24.0333C83.6407 24.6949 76.7391 27.435 73.3822 28.8051C71.6966 29.4927 65.5471 32.5125 59.8109 35.3642C54.0762 38.215 48.7609 40.8949 48.7609 40.8949L48.8065 40.9856L48.7915 40.8851L46.4247 41.2356L43.5051 40.7931L43.4827 40.8004C43.4823 40.8004 43.3809 40.8326 43.1843 40.8843C42.5939 41.0402 41.1607 41.37 39.1836 41.5015C36.5254 41.6794 24.7517 43.3109 15.8746 45.6068C6.99045 47.9051 2.89513 51.4941 2.88557 51.5026L2.77999 51.595L2.901 51.6667C2.901 51.6667 2.92868 51.683 2.9718 51.7111C3.03649 51.7534 3.13433 51.8218 3.21161 51.8919C3.25025 51.9269 3.28351 51.9623 3.30419 51.9916L3.32964 52.0425H3.33835L3.32992 52.0405L3.32964 52.0425H3.33835L3.32992 52.0405C3.30973 52.1174 3.15896 52.5445 2.96321 53.1422C2.76664 53.7423 2.52235 54.5232 2.3073 55.3343C1.87601 56.9653 1.79328 58.7168 1.79295 58.7205L1.89461 58.7254L1.848 58.635L1.39822 58.8667L1.54646 63.2239L2.37553 63.2475L2.3862 67.4338L2.48799 67.4334L2.43901 67.3442C2.43742 67.3451 2.05776 67.5539 1.67512 67.8149C1.48364 67.9456 1.29135 68.0889 1.14298 68.229C1.06868 68.2994 1.00525 68.369 0.957528 68.4391C0.910625 68.5091 0.875936 68.5807 0.875 68.6634L0.877199 68.6968C0.886767 68.7737 0.932407 68.845 0.997754 68.8959C1.1129 68.9859 1.28675 69.0445 1.55933 69.1031C2.37444 69.2757 4.09365 69.4138 7.47788 69.722C12.3606 70.1658 22.5108 70.8188 23.5816 70.8876L23.6872 70.8946L23.8008 66.361V66.3598C23.8008 62.4605 25.3807 58.9318 27.9358 56.3766C30.491 53.8213 34.0198 52.2416 37.9186 52.2416C41.8179 52.2416 45.3466 53.8213 47.9023 56.3766C50.4575 58.9318 52.0372 62.4605 52.0376 66.3598V66.3618L52.3019 72.4824H129.2V66.3598C129.2 62.4605 130.78 58.9318 133.335 56.3766C135.89 53.8213 139.42 52.2416 143.318 52.2416C147.218 52.2416 150.746 53.8213 153.302 56.3766C155.857 58.9318 157.437 62.4605 157.437 66.3598V66.3634L157.712 70.1263L157.881 70.1124H157.883L157.885 70.112C157.887 70.1116 171.681 68.4464 174.764 67.8459C176.3 67.5466 177.772 67.26 178.951 66.9627C179.541 66.8141 180.058 66.6627 180.474 66.5047C180.891 66.3459 181.207 66.1835 181.402 65.9966L181.459 65.9424L180.874 64.8851L180.785 64.9344L180.884 64.9563C180.885 64.9547 181.027 64.3122 181.19 63.6233C181.271 63.2785 181.357 62.9226 181.433 62.6311C181.507 62.3408 181.574 62.1084 181.607 62.0322C181.628 61.9838 181.635 61.9325 181.635 61.8795C181.634 61.7395 181.586 61.5799 181.519 61.4085C181.316 60.8991 180.923 60.299 180.922 60.2957L180.836 60.3515L180.751 60.4073C180.751 60.4073 180.794 60.4724 180.858 60.5783C180.955 60.7375 181.101 60.9871 181.221 61.2375C181.342 61.4858 181.434 61.7419 181.431 61.8795L181.42 61.952C181.375 62.0583 181.312 62.2846 181.235 62.5802C181.007 63.4621 180.686 64.9116 180.685 64.912L180.677 64.9498L181.242 65.9726L181.332 65.9233L181.261 65.85C181.105 66.0015 180.806 66.1615 180.402 66.3146C179.186 66.7763 177.028 67.1977 174.725 67.6459C173.196 67.944 168.976 68.5111 165.143 69.0021C163.227 69.2477 161.406 69.4748 160.064 69.6405C158.723 69.8058 157.862 69.9097 157.86 69.9101L157.873 70.0111L157.865 69.9097L157.798 69.915L157.806 70.0163L157.907 70.009L157.64 66.3524L157.539 66.3598H157.641C157.641 58.4497 151.228 52.038 143.318 52.038C135.409 52.038 128.997 58.4497 128.997 66.3598V72.2788H52.4969L52.2408 66.3553L52.1394 66.3598H52.2412C52.2408 58.4497 45.8287 52.038 37.9186 52.038C30.0091 52.038 23.5972 58.4497 23.5972 66.3598H23.699L23.5972 66.3573L23.4865 70.7834L23.5881 70.7858L23.5947 70.6845C22.5248 70.6161 12.3735 69.9626 7.4962 69.5192C4.91861 69.2847 3.3037 69.1479 2.33197 69.0217C1.84657 68.9586 1.52118 68.8975 1.32412 68.832C1.22567 68.7994 1.16045 68.7656 1.12482 68.7367L1.07902 68.6695L1.07857 68.6634C1.07759 68.6463 1.09034 68.6052 1.12596 68.5535C1.24921 68.3678 1.60798 68.0979 1.92894 67.8902C2.08988 67.7852 2.24228 67.6932 2.35424 67.6272C2.46621 67.5617 2.53697 67.5226 2.53713 67.5226L2.58994 67.4937L2.57862 63.0497L1.74336 63.0257L1.60611 58.9884L1.94119 58.8158L1.99351 58.7889L1.99624 58.7303C1.99624 58.7299 2.00133 58.6228 2.01578 58.4347C2.05873 57.8712 2.1858 56.5891 2.50403 55.3864C2.71746 54.5806 2.96081 53.8038 3.1566 53.2057C3.35301 52.6056 3.49934 52.1944 3.52666 52.093L3.53321 52.0425C3.53048 51.9517 3.48407 51.8882 3.43362 51.8275C3.27919 51.6508 3.00869 51.4949 3.00453 51.4912L2.95287 51.5792L3.01996 51.6557C3.02013 51.6553 3.0812 51.6016 3.20876 51.5006C4.10175 50.7913 8.18294 47.807 15.9257 45.8038C24.7813 43.5124 36.5633 41.8797 39.1975 41.7047C41.8549 41.5276 43.5381 40.9962 43.5438 40.9942L43.5132 40.8973L43.4982 40.9979L46.4243 41.4417L48.8379 41.0842L48.8525 41.0768C48.8533 41.076 49.1844 40.9091 49.7723 40.6135C51.83 39.5781 57.0199 36.9716 62.062 34.4746C67.1028 31.9775 72.0012 29.588 73.4592 28.9932C76.8071 27.6284 83.6671 24.8993 99.2734 24.2369C102.387 24.105 105.193 24.0464 107.736 24.0464C117.942 24.0464 123.928 24.9893 128.718 25.9266C134.696 27.0963 141.202 29.4121 146.098 31.0525C148.538 31.8701 152.73 33.6273 156.309 35.1793C158.098 35.9554 159.735 36.6805 160.925 37.211C161.519 37.4765 162.002 37.6935 162.336 37.8441C162.67 37.9948 162.855 38.0786 162.855 38.0786L162.874 38.0872L162.896 38.088C167.097 38.1658 171.078 38.465 174.009 38.7447C175.474 38.8848 176.677 39.0195 177.513 39.1197C178.349 39.2199 178.817 39.2846 178.818 39.2846L178.833 39.1836L178.743 39.134C178.262 40.0008 178.177 41.2039 178.175 42.0023C178.175 42.4978 178.21 42.8365 178.21 42.839L178.311 42.8288L178.302 42.7274L177.322 42.8145L177.508 49.3016L178.676 50.5475L178.624 51.4643L180.327 52.9814L180.394 52.9052L180.293 52.9069C180.293 52.9077 180.299 53.325 180.322 53.7505C180.334 53.9634 180.349 54.178 180.37 54.3461C180.381 54.4304 180.393 54.5025 180.408 54.5607L180.436 54.6405C180.449 54.6641 180.462 54.6946 180.513 54.7183C180.567 54.7386 180.639 54.7508 180.736 54.7667C181.024 54.8115 181.477 54.8551 181.478 54.8551L181.488 54.7541L181.387 54.7423L180.731 60.3764L180.751 60.4073L180.836 60.3515Z" fill="#3265B1"/>
<path d="M131.027 31.8554L131.071 31.7634C121.75 27.3003 115.284 26.9892 108.494 26.5927C106.947 26.5027 105.128 26.4441 103.133 26.4441C96.35 26.4445 87.5382 27.1175 80.532 29.5095C71.4641 32.6074 57.7482 42.302 57.7437 42.304L57.7042 42.3321L57.5625 44.4004L66.6455 44.0649L66.2787 43.8866C65.7323 43.6215 65.0825 43.2189 64.6562 42.9107C64.3341 42.6794 64.0911 42.2482 63.936 41.8749C63.8582 41.688 63.8016 41.5162 63.7641 41.3916C63.7271 41.267 63.7104 41.1913 63.71 41.1909L63.6106 41.2137L63.7124 41.212L63.6888 39.7211L63.587 39.7227L63.6795 39.7655C63.9698 39.1344 64.7108 38.5367 65.4534 38.1084C65.8243 37.8938 66.1952 37.7199 66.5079 37.6007C66.8185 37.481 67.0783 37.4174 67.1988 37.4187L67.2135 37.4191C68.5522 37.481 69.248 37.9382 69.6393 38.5505C70.0309 39.1649 70.1115 39.9588 70.1466 40.6893C70.1502 40.7621 70.1518 40.8326 70.1518 40.9014C70.1518 41.5426 70.0045 42.0011 69.8587 42.2991C69.7862 42.4481 69.7138 42.5568 69.6604 42.6277L69.5969 42.7054L69.5802 42.7234L69.5761 42.7274L69.647 42.8007L69.6494 42.6989L67.5054 42.6456L67.6442 42.8166C67.7261 42.918 67.7631 43.047 67.7635 43.1928C67.7643 43.4184 67.6687 43.6765 67.5298 43.8674L67.4077 44.0368L138.845 41.3948L138.874 41.3545C139.17 40.9429 139.426 40.353 139.426 39.6172C139.426 38.6784 139.008 37.5119 137.758 36.1862C136.506 34.8593 134.422 33.3676 131.071 31.7634L131.027 31.8554L130.983 31.9474C134.32 33.5439 136.384 35.0255 137.609 36.3255C138.835 37.6267 139.222 38.7407 139.222 39.6172C139.222 40.3049 138.984 40.8525 138.709 41.2356L138.791 41.2951L138.787 41.1933L67.6084 43.8255L67.6121 43.9273L67.6947 43.9867C67.8564 43.7624 67.9663 43.4733 67.9671 43.1928C67.9671 43.0128 67.9195 42.8333 67.8022 42.6887L67.7232 42.7527L67.7208 42.8545L69.6869 42.9037L69.7174 42.874C69.7309 42.8622 70.3562 42.2482 70.3554 40.9014C70.3554 40.8293 70.3538 40.7556 70.3501 40.6795C70.3131 39.9426 70.2374 39.1136 69.8111 38.4414C69.3848 37.7672 68.6018 37.2745 67.2228 37.2155L67.1988 37.2151C67.0233 37.2167 66.7603 37.2872 66.435 37.4105C65.9497 37.5958 65.339 37.9032 64.7865 38.2932C64.2348 38.6833 63.7397 39.1535 63.4946 39.6795L63.4848 39.7007L63.5093 41.2259L63.5117 41.2361C63.5125 41.2397 63.5854 41.563 63.7483 41.953C63.9119 42.3431 64.1615 42.8019 64.5369 43.0755C64.9742 43.3919 65.6285 43.797 66.1895 44.0698L66.2343 43.9782L66.2302 43.8764L57.7811 44.1887L57.9041 42.3944L57.8027 42.3875L57.8613 42.4705C57.8618 42.4701 58.0751 42.3195 58.4676 42.0483C61.213 40.1526 72.7091 32.3945 80.598 29.702C87.5663 27.3223 96.3639 26.6472 103.133 26.6476C105.124 26.6476 106.939 26.7059 108.481 26.7962C115.276 27.1936 121.691 27.5002 130.983 31.9474L131.027 31.8554Z" fill="#3265B1"/>
<path d="M162.614 37.8575L162.656 37.7647C160.828 36.9394 150.621 32.3537 146.162 30.8587C142.637 29.6776 138.271 28.1459 133.864 26.9415L133.83 26.9326L130.605 28.2448L130.863 28.3328C130.864 28.3332 131.147 28.4301 131.649 28.6019C135.159 29.8046 149.342 34.6692 151.459 35.4778C152.638 35.9272 154.968 36.5457 157.223 37.0546C159.48 37.5627 161.647 37.9597 162.521 37.9609L162.619 37.9589L163.047 37.941L162.656 37.7647L162.614 37.8575L162.61 37.7557L162.521 37.7574C161.693 37.7586 159.515 37.3632 157.268 36.8559C155.02 36.349 152.689 35.7294 151.532 35.2872C149.1 34.3589 130.93 28.1406 130.929 28.1402L130.896 28.2363L130.934 28.3307L133.875 27.1341L133.837 27.0401L133.81 27.1382C138.209 28.3397 142.57 29.8697 146.097 31.0517C150.534 32.5386 160.748 37.1263 162.572 37.9499L162.614 37.8575Z" fill="#3265B1"/>
<path d="M54.9387 42.1325L54.9977 42.2151C60.7255 38.14 66.9405 34.8006 71.7233 32.4811C74.1149 31.3211 76.1477 30.416 77.5829 29.8012C78.3007 29.4938 78.8687 29.2585 79.2571 29.1009C79.6455 28.9426 79.8536 28.862 79.8544 28.8616L80.1255 28.7565L76.5015 27.6242L76.4702 27.6352C75.1926 28.0717 74.1845 28.4776 73.3832 28.805C71.6976 29.4926 65.5481 32.5124 59.8118 35.3641C54.0772 38.2149 48.7619 40.8947 48.7619 40.8947L48.8075 40.9855L48.7924 40.885L45.8789 41.3165L46.4025 41.4379C49.8893 42.244 52.0142 42.4492 53.278 42.4492C54.5759 42.4492 54.9668 42.233 54.9892 42.2204L54.9937 42.218L54.9977 42.2151L54.9387 42.1325L54.8878 42.0441L54.8874 42.0445C54.8622 42.0575 54.4742 42.2461 53.278 42.2456C52.0362 42.2456 49.9247 42.0433 46.4485 41.2392L46.4257 41.3385L46.4404 41.4391L48.8389 41.0841L48.8535 41.0767C48.8543 41.0759 49.1853 40.909 49.7732 40.6134C51.831 39.578 57.0209 36.9715 62.0629 34.4745C67.1038 31.9774 72.0022 29.5879 73.4602 28.9931C74.2602 28.6665 75.2638 28.2626 76.5357 27.8278L76.5028 27.7313L76.4726 27.8286L79.7872 28.864L79.8173 28.7667L79.7807 28.6718C79.7766 28.6739 66.3624 33.88 54.8797 42.0494L54.9387 42.1325Z" fill="#3265B1"/>
<path d="M55.6721 40.9637L55.7287 41.048C61.2044 37.3763 66.9134 34.3871 71.2528 32.3159C73.4224 31.2806 75.2497 30.4744 76.5343 29.9276C77.1767 29.654 77.6832 29.4451 78.0293 29.3051C78.3754 29.1646 78.5594 29.0934 78.5602 29.093L78.8314 28.9875L75.5441 27.9607L75.5119 27.9725C74.6728 28.2799 73.9692 28.5637 73.3793 28.8047C71.9038 29.4065 67.0144 31.7927 61.9715 34.2902C56.9294 36.7872 51.7399 39.3937 49.6802 40.4299L49.4375 40.5521L49.7009 40.6193C50.7505 40.888 52.2338 41.2385 53.2264 41.3448C53.4996 41.3745 53.7496 41.3867 53.9768 41.3867C55.1469 41.3867 55.7108 41.0594 55.7238 41.0512L55.7267 41.0496L55.7287 41.048L55.6721 40.9637L55.6204 40.8762L55.6167 40.8782C55.5659 40.9059 55.0378 41.1827 53.9768 41.1831C53.7569 41.1831 53.5142 41.1709 53.248 41.1424C52.2786 41.039 50.7961 40.6897 49.7514 40.4222L49.7262 40.5207L49.7718 40.6115C51.8311 39.5757 57.0206 36.9692 62.0615 34.4726C67.1015 31.9764 71.9982 29.5876 73.4562 28.9928C74.0454 28.7522 74.7461 28.4696 75.5819 28.1634L75.5469 28.0682L75.5164 28.1651L78.493 29.095L78.5232 28.9981L78.4865 28.9032C78.4824 28.9049 66.5897 33.5207 55.6155 40.879L55.6721 40.9637Z" fill="#3265B1"/>
<path d="M134.498 37.1923L134.58 37.1324C134.357 36.8279 133.85 36.4053 133.187 35.9135C131.202 34.4437 127.841 32.4108 127.025 31.9214L126.891 31.8408L125.785 41.127L133.142 40.855H133.144C133.845 40.8073 134.341 40.5415 134.654 40.1584C134.967 39.7756 135.095 39.2858 135.095 38.7973C135.095 38.1833 134.895 37.5665 134.58 37.1324L134.498 37.1923L134.416 37.2521C134.701 37.6438 134.892 38.2281 134.891 38.7973C134.891 39.2516 134.772 39.693 134.496 40.0293C134.22 40.3652 133.788 40.6054 133.13 40.6518L133.137 40.7532L133.133 40.6518L126.016 40.9144L127.074 32.0207L126.973 32.0089L126.921 32.0961C127.463 32.421 129.137 33.4331 130.778 34.5043C131.598 35.0397 132.409 35.5906 133.066 36.0771C133.722 36.5616 134.227 36.9895 134.416 37.2521L134.498 37.1923Z" fill="#3265B1"/>
<path d="M108.786 27.4625L108.792 27.3607L108.451 27.3408C106.986 27.2549 105.43 27.2089 103.822 27.1979L103.733 27.1975L101.672 42.0176L124.845 41.1609L126.196 30.4954L126.121 30.4673C119.441 27.9833 114.231 27.6775 108.792 27.3607L108.786 27.4625L108.78 27.5639C114.22 27.8811 119.398 28.1848 126.05 30.6582L126.085 30.5625L125.984 30.5499L124.665 40.9639L101.907 41.8055L103.923 27.3139L103.822 27.2997L103.821 27.4015C105.425 27.4125 106.978 27.4585 108.439 27.544L108.78 27.5639L108.786 27.4625Z" fill="#3265B1"/>
<path d="M80.8071 30.3153L80.7742 30.2188C76.7788 31.584 71.8279 34.2768 67.5765 36.8333L67.5195 36.8675L67.592 37.4485L67.6702 37.4587C68.787 37.6053 69.3712 38.0694 69.7059 38.6642C70.0398 39.2603 70.113 40.0033 70.146 40.689C70.1497 40.7619 70.1513 40.8323 70.1513 40.9011C70.1513 41.5423 70.0039 42.0008 69.8582 42.2988C69.7857 42.4478 69.7132 42.5565 69.6599 42.6274L69.5964 42.7052L69.5797 42.7231L69.5756 42.7271L69.6465 42.8004L69.6489 42.6986L68.2471 42.6636L68.3204 43.252L96.9781 42.1922L100.598 27.2263L100.466 27.23C95.1427 27.3712 87.2869 27.9958 80.7742 30.2188L80.8071 30.3153L80.8397 30.4118C87.317 28.1998 95.159 27.574 100.471 27.4335L100.469 27.3317L100.37 27.3077L96.8165 41.9947L68.4991 43.0415L68.4784 42.8733L69.6864 42.9034L69.7169 42.8737C69.7303 42.8619 70.3557 42.2479 70.3549 40.9011C70.3549 40.829 70.3533 40.7553 70.3496 40.6792C70.3146 39.9866 70.2454 39.2139 69.8838 38.5649C69.5231 37.9147 68.859 37.4045 67.6962 37.2567L67.6832 37.3577L67.7842 37.3451L67.73 36.9078L67.6291 36.9204L67.6812 37.008C71.9265 34.4548 76.8721 31.7664 80.8397 30.4118L80.8071 30.3153Z" fill="#3265B1"/>
<path d="M69.8346 42.5563L69.8248 42.4549L67.7305 42.6503L67.7374 42.8535L69.6905 42.9023L69.721 42.8722C69.7259 42.8677 69.813 42.7814 69.9205 42.6104L70.0304 42.4358L69.8248 42.4549L69.8346 42.5563L69.7483 42.5021C69.6994 42.5795 69.6559 42.6369 69.6253 42.6743L69.5895 42.7155L69.5789 42.7265L69.6502 42.7993L69.6526 42.6975L69.4637 42.6931L69.844 42.6576L69.8346 42.5563Z" fill="#3265B1"/>
<path d="M67.613 43.9265L67.6956 43.986C67.8573 43.7616 67.9668 43.4726 67.9676 43.1924C67.968 43.0129 67.9208 42.8341 67.8043 42.6896L67.7697 42.6469L64.3819 42.9636L64.6058 43.1224C65.0406 43.431 65.6562 43.8093 66.1908 44.069L66.2352 43.9774L66.2311 43.8756L57.596 44.1948L56.914 46.4976L56.9136 46.5111C56.9136 46.5115 56.7617 52.6525 56.7617 56.4528C56.7617 57.2927 56.769 58.0186 56.7874 58.5398C56.8875 61.4065 57.0618 65.1075 57.0618 65.1079L57.0622 65.116L57.2645 66.0777L57.8162 67.7734L122.091 67.1884L122.122 67.1558C122.122 67.155 122.569 66.6684 123.053 66.1457C123.536 65.6237 124.057 65.0635 124.195 64.925C124.222 64.897 124.255 64.8542 124.307 64.7862C125.055 63.7806 129.144 57.6465 129.933 56.3025C130.346 55.5986 132.446 52.2628 134.5 48.9043C135.527 47.2244 136.543 45.538 137.333 44.1696C137.727 43.4852 138.065 42.8801 138.32 42.3944C138.574 41.9075 138.745 41.5447 138.809 41.3257L138.849 41.1905L67.6093 43.8247L67.613 43.9265L67.617 44.0283L138.716 41.399L138.712 41.2972L138.614 41.2687C138.561 41.4551 138.392 41.8191 138.14 42.3C136.369 45.6785 130.486 54.9569 129.757 56.1995C129.343 56.9059 127.982 58.9872 126.693 60.9228C126.048 61.891 125.42 62.8238 124.936 63.5318C124.694 63.8856 124.488 64.1836 124.334 64.4015C124.256 64.5102 124.192 64.5989 124.143 64.6645C124.096 64.7288 124.06 64.7736 124.051 64.7813C123.762 65.0708 121.973 67.017 121.972 67.0182L122.047 67.087L122.046 66.9852L57.9636 67.5686L57.4616 66.0252L57.2629 65.0822L57.1632 65.103L57.2649 65.0981C57.2649 65.0961 57.2214 64.1731 57.1656 62.8897C57.1094 61.6064 57.0406 59.9652 56.9909 58.5325C56.9726 58.0158 56.9653 57.2915 56.9653 56.4528C56.9653 54.555 57.0032 52.0702 57.041 50.0606C57.0602 49.0557 57.0793 48.1698 57.0935 47.5346C57.1078 46.8995 57.1172 46.5168 57.1172 46.516L57.0154 46.5135L57.1131 46.5424L57.7495 44.3927L66.6468 44.0641L66.2796 43.8858C65.7596 43.6334 65.1485 43.258 64.7235 42.9563L64.6644 43.0393L64.6742 43.1407L67.7343 42.8545L67.7249 42.7535L67.6455 42.817C67.727 42.918 67.764 43.0471 67.764 43.1924C67.7648 43.418 67.6696 43.6757 67.5307 43.8667L67.4086 44.036L67.617 44.0283L67.613 43.9265Z" fill="#3265B1"/>
<path d="M98.3862 44.8577L98.2848 44.8471L97.1591 55.8262L97.0703 67.416L122.096 67.1884L122.126 67.1559C122.127 67.155 122.574 66.6685 123.057 66.1457C123.54 65.6238 124.061 65.0635 124.2 64.9251C124.227 64.897 124.26 64.8543 124.311 64.7863C125.06 63.7806 129.148 57.6466 129.937 56.3026C130.35 55.5986 132.45 52.2629 134.504 48.9043C135.532 47.2245 136.548 45.5381 137.337 44.1696C137.732 43.4852 138.069 42.8802 138.324 42.3945C138.579 41.9075 138.75 41.5448 138.814 41.3257L138.853 41.1905L98.9538 42.6656L98.2861 44.8374L98.2848 44.8471L98.3862 44.8577L98.4835 44.8874L99.1056 42.8639L138.72 41.399L138.716 41.2972L138.618 41.2687C138.565 41.4552 138.396 41.8192 138.144 42.3C136.373 45.6785 130.491 54.957 129.761 56.1996C129.347 56.906 127.987 58.9873 126.697 60.9229C126.052 61.8911 125.424 62.8238 124.94 63.5319C124.698 63.8857 124.492 64.1837 124.338 64.4015C124.261 64.5102 124.197 64.599 124.148 64.6645C124.1 64.7289 124.064 64.7736 124.056 64.7814C123.766 65.0709 121.977 67.017 121.976 67.0182L122.051 67.087L122.05 66.9853L97.2755 67.2104L97.3627 55.8372L98.4872 44.8679L98.3862 44.8577Z" fill="#3265B1"/>
<path d="M132.825 46.5115L132.777 46.4953C132.754 46.5653 132.677 46.6312 132.555 46.6846C132.187 46.8462 131.466 46.8751 131.033 46.8743C130.953 46.8743 130.807 46.8743 130.614 46.8743H130.572L130.564 46.915C130.506 47.2253 130.068 47.5941 129.542 47.8282C129.242 47.9642 128.622 48.0428 127.99 48.0424C127.391 48.0424 126.775 47.9724 126.403 47.8274C125.999 47.6703 125.786 47.3055 125.684 46.8926L125.675 46.8544L125.635 46.8539C125.522 46.8523 125.42 46.8507 125.337 46.8487C124.923 46.8397 124.704 46.7884 124.601 46.722C124.501 46.6561 124.492 46.5848 124.49 46.47C124.49 46.4321 124.491 46.391 124.491 46.3475C124.491 46.3047 124.49 46.2595 124.482 46.2127L124.48 46.1891C124.481 46.1378 124.507 46.0979 124.57 46.0572C124.757 45.935 125.227 45.9061 125.58 45.9045L125.625 45.9041L125.631 45.8597C125.664 45.5576 125.924 45.3174 126.247 45.1521C126.568 44.9872 126.947 44.9001 127.19 44.8927H127.193L127.196 44.8923C127.196 44.8923 127.261 44.8838 127.38 44.8744C127.498 44.8655 127.667 44.8565 127.872 44.8565C128.26 44.8565 128.775 44.8891 129.306 45.0145C129.725 45.1138 129.996 45.3455 130.18 45.6158L130.196 45.6394L130.224 45.6382C131.038 45.5975 131.752 45.569 132.144 45.569C132.292 45.569 132.397 45.5739 132.431 45.5816C132.717 45.6407 132.827 45.891 132.829 46.1699C132.829 46.2815 132.81 46.3951 132.777 46.4953L132.825 46.5115L132.873 46.5274C132.91 46.4163 132.931 46.2929 132.931 46.1699C132.933 45.8687 132.799 45.5535 132.452 45.4819C132.398 45.4709 132.295 45.4676 132.144 45.4672C131.748 45.4672 131.034 45.4961 130.219 45.5364L130.222 45.5873L130.264 45.5588C130.07 45.2718 129.775 45.0202 129.329 44.9151C128.788 44.7873 128.266 44.7547 127.872 44.7547C127.457 44.7547 127.183 44.7914 127.182 44.7918L127.189 44.8418L127.187 44.7909C126.925 44.7995 126.538 44.8891 126.201 45.0617C125.865 45.2339 125.572 45.4916 125.53 45.8479L125.58 45.8536L125.58 45.8027C125.34 45.8051 125.05 45.8157 124.816 45.8638C124.699 45.8882 124.594 45.9212 124.515 45.9713C124.436 46.0201 124.378 46.0946 124.379 46.1891L124.382 46.2286C124.388 46.2677 124.39 46.3076 124.39 46.3475C124.39 46.3882 124.388 46.4293 124.388 46.47C124.386 46.5881 124.407 46.7216 124.546 46.8079C124.683 46.893 124.913 46.9403 125.335 46.9504C125.418 46.9521 125.52 46.9541 125.634 46.9557L125.635 46.9048L125.585 46.9171C125.69 47.3462 125.92 47.7489 126.366 47.9223C126.762 48.0754 127.382 48.1438 127.99 48.1442C128.632 48.1434 129.254 48.0685 129.583 47.9211C130.123 47.676 130.584 47.3116 130.664 46.935L130.614 46.9252V46.9761C130.807 46.9761 130.953 46.9761 131.033 46.9761C131.325 46.9757 131.744 46.9647 132.109 46.9065C132.292 46.8772 132.46 46.8364 132.596 46.7778C132.729 46.7192 132.834 46.6418 132.873 46.5278L132.825 46.5115ZM117.332 69.0222L117.331 68.9717C112.124 69.0943 68.6302 69.1187 65.3136 69.1187C64.634 69.1187 63.9447 69.1281 63.2733 69.1281C61.9701 69.1281 60.7352 69.0926 59.7772 68.8883C58.8175 68.6831 58.1474 68.3117 57.9422 67.6558L57.8937 67.6709L57.8941 67.7218L97.2085 67.3289L122.051 67.1379L122.05 67.087L122.001 67.1005L122.006 67.1269L122.012 67.21C122.011 67.4001 121.936 67.8052 121.314 68.1876C120.692 68.5695 119.518 68.9204 117.331 68.9717L117.332 69.0222L117.334 69.0731C119.53 69.0214 120.72 68.6708 121.368 68.2747C122.016 67.8789 122.115 67.4295 122.114 67.21C122.114 67.1273 122.101 67.0773 122.099 67.0736L122.089 67.0357L97.2077 67.2271L57.8245 67.6208L57.8449 67.6864C58.0704 68.398 58.7858 68.7808 59.756 68.9876C60.7287 69.1952 61.968 69.2299 63.2733 69.2299C63.9455 69.2299 64.6348 69.2205 65.3136 69.2205C68.631 69.2205 112.123 69.1961 117.334 69.0731L117.332 69.0222ZM87.3259 47.1333L87.3764 47.1394C87.4102 46.8373 87.6691 46.597 87.9924 46.4322C88.3136 46.2668 88.6931 46.1797 88.9361 46.1728H88.9386L88.9414 46.1724C88.9414 46.1724 89.0074 46.1634 89.1255 46.1545C89.2439 46.1455 89.4137 46.1366 89.6185 46.1366C90.0065 46.1362 90.5208 46.1687 91.0517 46.2941C91.471 46.3935 91.741 46.6251 91.9254 46.8955L91.9413 46.9191L91.9698 46.9179C92.7837 46.8776 93.4986 46.8487 93.8899 46.8487C94.0381 46.8487 94.1427 46.8535 94.1773 46.8613C94.4627 46.9203 94.5727 47.1707 94.5751 47.4492C94.5751 47.5612 94.5556 47.6748 94.5222 47.7753C94.4998 47.8449 94.4232 47.9113 94.3003 47.9642C93.9334 48.1263 93.2124 48.1548 92.7784 48.154C92.699 48.154 92.5524 48.154 92.3602 48.154H92.3187L92.3102 48.1947C92.2523 48.5049 91.8134 48.8738 91.2874 49.1079C90.9877 49.2439 90.3681 49.3225 89.7362 49.3221C89.1365 49.3221 88.5209 49.252 88.1487 49.1071C87.7444 48.9503 87.5315 48.5855 87.4297 48.1727L87.4203 48.1344L87.3808 48.1336C87.2676 48.132 87.1659 48.1304 87.0828 48.1283C86.6675 48.1194 86.4493 48.0681 86.3463 48.0013C86.2461 47.9357 86.2372 47.8637 86.2351 47.7489C86.2351 47.7114 86.2368 47.6711 86.2368 47.6283C86.2368 47.5852 86.2351 47.5396 86.2278 47.4924L86.2258 47.4687C86.2262 47.4174 86.2526 47.3775 86.3149 47.3368C86.5026 47.2147 86.9725 47.1858 87.3263 47.1841L87.3711 47.1837L87.3764 47.1394L87.3259 47.1333L87.3255 47.0824C87.0857 47.0848 86.7962 47.0954 86.5617 47.1434C86.444 47.1679 86.3402 47.2008 86.2604 47.2509C86.1818 47.2998 86.1236 47.3743 86.124 47.4687L86.1272 47.5082C86.1333 47.5477 86.135 47.588 86.135 47.6283C86.135 47.6686 86.1333 47.7085 86.1333 47.7489C86.1313 47.8669 86.1525 48.0009 86.2917 48.0872C86.4277 48.1727 86.6582 48.2199 87.0804 48.2301C87.1642 48.2321 87.266 48.2338 87.3796 48.2354L87.38 48.1845L87.3308 48.1967C87.4358 48.6263 87.6658 49.0289 88.1117 49.202C88.5074 49.355 89.1279 49.4234 89.7362 49.4239C90.3778 49.423 90.9995 49.3481 91.3289 49.2007C91.8684 48.9556 92.3305 48.5912 92.4103 48.2146L92.3602 48.2049V48.2557C92.5524 48.2557 92.699 48.2557 92.7784 48.2557C93.0711 48.2553 93.4905 48.2444 93.8549 48.1861C94.0377 48.1568 94.2062 48.1165 94.341 48.0579C94.4749 47.9988 94.58 47.9215 94.6187 47.8075C94.6557 47.6963 94.6765 47.5726 94.6769 47.4492C94.6789 47.1479 94.545 46.8332 94.1981 46.7615C94.1435 46.7505 94.0417 46.7473 93.8899 46.7469C93.4941 46.7469 92.7796 46.7758 91.9649 46.8161L91.9673 46.867L92.0093 46.8385C91.8151 46.5519 91.5207 46.2998 91.0749 46.1952C90.5338 46.0673 90.0122 46.0348 89.6185 46.0348C89.2024 46.0348 88.9292 46.071 88.9276 46.0714L88.9345 46.1219L88.9329 46.071C88.6707 46.0792 88.2835 46.1687 87.946 46.3413C87.6101 46.5136 87.3177 46.7717 87.2754 47.1276L87.3259 47.1333ZM181.492 54.7542L181.497 54.7033C181.497 54.7033 181.295 54.6838 181.078 54.6581C180.863 54.6329 180.622 54.5974 180.574 54.5767L180.566 54.595L180.582 54.582L180.574 54.5767L180.566 54.595L180.582 54.582C180.578 54.5799 180.562 54.5417 180.552 54.4883C180.51 54.2982 180.484 53.8988 180.469 53.5515C180.454 53.2034 180.449 52.9054 180.449 52.9045L180.449 52.8821L178.784 51.3993L178.836 50.491L177.662 49.2394L177.485 43.074L177.436 43.0744C177.237 43.0756 177.029 43.0769 176.82 43.0781L176.769 43.0785V43.129V43.1445C176.769 43.8846 176.684 45.4086 176.599 46.7457C176.557 47.4146 176.514 48.0367 176.482 48.4915C176.45 48.9467 176.429 49.2337 176.429 49.2345L176.48 49.2382L176.48 49.1873L165.471 49.1161L165.47 49.1669L165.514 49.1926C165.515 49.1918 165.705 48.8669 165.999 48.3693C166.441 47.623 167.115 46.4912 167.729 45.4969C168.341 44.5043 168.898 43.642 169.086 43.4559C169.158 43.3838 169.257 43.3049 169.374 43.2218L169.505 43.1282L169.344 43.1294C161.827 43.1848 152.933 43.2658 149.181 43.3558C142.12 43.5255 126.47 43.7633 119.205 43.9669C111.939 44.1709 81.1853 45.3589 73.4105 45.7323C65.6376 46.106 51.594 46.5095 42.0749 47.5656C33.6254 48.5025 23.5485 50.8778 20.9029 51.5219L20.8718 51.5296L20.8652 51.561C20.782 51.9551 20.4458 52.8785 19.8083 53.3654C19.6032 53.523 19.1648 53.7502 18.602 53.9985L18.5946 54.0018L18.588 54.0075L18.6222 54.0454L18.5948 54.0026C16.6151 55.2623 12.8105 56.2093 9.50613 56.8359C7.85368 57.1498 6.32546 57.3848 5.21041 57.5407C4.09537 57.697 3.39593 57.7744 3.39418 57.7748L3.38241 57.776L3.3724 57.7825C3.34996 57.7976 2.86505 58.127 2.84897 60.1167C2.84836 60.2108 2.84803 60.3028 2.84803 60.3928C2.84803 62.2029 2.99355 63.1842 2.99404 63.1862L3.00023 63.2281L5.5045 63.3104L5.50625 63.2595H5.45535C5.45613 64.9947 6.27917 67.1025 6.27982 67.1054L6.32722 67.087V67.0361H2.43975L2.44089 67.4335H2.49178L2.46727 67.3891C2.46727 67.3891 2.27119 67.497 2.02133 67.6526L1.93179 67.7083L2.03118 67.7438C2.26162 67.8256 2.51658 67.8956 2.73224 67.896L2.76453 67.8956C3.01232 67.8871 5.45918 67.8561 7.84143 67.8276C10.2244 67.7991 12.5448 67.7727 12.5448 67.7727L12.5441 67.7218L12.5313 67.771L15.1456 68.4555L15.1584 68.4062L15.1581 68.3553C15.1573 68.3553 14.8399 68.3573 14.3039 68.3602C12.6957 68.3687 9.12711 68.3862 6.3102 68.3862C4.43273 68.3862 2.88684 68.3785 2.4838 68.3553C1.95341 68.3248 1.56948 68.2547 1.30658 68.1851L1.28069 68.1782L1.26033 68.1961C1.07569 68.3598 0.934777 68.5104 0.929688 68.6639L0.931438 68.69C0.93954 68.7531 0.975329 68.8105 1.03335 68.8561C1.23582 69.0132 1.71247 69.1049 2.71347 69.2213C3.71322 69.3361 5.23077 69.466 7.48632 69.6712C11.7835 70.0621 20.1641 70.615 22.8392 70.7888L22.892 70.7921L23.0033 66.342V66.3412C23.0033 62.2371 24.6764 58.5122 27.3779 55.8128C30.0797 53.1134 33.809 51.44 37.9224 51.44C46.1435 51.44 52.8333 58.1245 52.8423 66.3436V66.3444L53.1057 72.4316H128.403V66.3599C128.403 62.2465 130.076 58.5166 132.778 55.8148C135.479 53.1134 139.209 51.44 143.322 51.44C150.329 51.44 156.219 56.2961 157.813 62.8189L157.824 62.8609L157.867 62.8572C161.958 62.5099 175.216 61.3874 177.485 61.236C178.839 61.1452 179.789 61.1228 180.397 61.1228C180.996 61.1228 181.262 61.1448 181.263 61.1443L181.353 61.1517L181.313 61.0711C181.115 60.6794 180.883 60.3248 180.883 60.324L180.84 60.3516L180.891 60.3577L181.548 54.7082L181.497 54.7033L181.492 54.7542L181.441 54.7481L180.788 60.3643L180.798 60.3793C180.798 60.3793 180.855 60.4669 180.937 60.6032C181.019 60.7396 181.124 60.9241 181.222 61.1167L181.267 61.0939L181.271 61.043C181.27 61.043 180.999 61.021 180.397 61.021C179.786 61.021 178.834 61.0438 177.478 61.1342C175.207 61.286 161.95 62.4085 157.859 62.7558L157.863 62.8067L157.912 62.7945C156.307 56.2273 150.377 51.3387 143.322 51.3383C135.039 51.3387 128.301 58.0769 128.301 66.3599V72.3299H53.2034L52.9441 66.3412L52.8932 66.3432H52.9441C52.9351 58.068 46.2001 51.3387 37.9224 51.3383C29.6398 51.3387 22.9017 58.0769 22.9015 66.3412H22.9524L22.9015 66.3399L22.7917 70.7367L22.8425 70.7379L22.8459 70.687C20.1711 70.5136 11.7901 69.9603 7.49536 69.5698C4.9178 69.3357 3.30318 69.1989 2.32925 69.0723C1.84243 69.0092 1.51541 68.9477 1.312 68.8801C1.21021 68.8467 1.13994 68.8113 1.09682 68.7767C1.05358 68.7417 1.03734 68.7111 1.03225 68.6765L1.03147 68.6639C1.02651 68.5837 1.14547 68.427 1.32694 68.2727L1.29355 68.2344L1.28069 68.2836C1.55087 68.3549 1.94148 68.4261 2.47794 68.4571C2.88875 68.4803 4.43126 68.488 6.3102 68.488C10.0668 68.488 15.1588 68.4571 15.1588 68.4571L15.5449 68.4546L12.5505 67.6709H12.5436C12.5436 67.6709 3.26312 67.7763 2.76103 67.7938L2.73224 67.7943C2.53869 67.7947 2.28996 67.7283 2.06538 67.6477L2.0482 67.6957L2.07523 67.7389C2.3227 67.585 2.51625 67.4783 2.51625 67.4783L2.54284 67.4637L2.54186 67.1379H6.4018L6.37477 67.0687C6.37477 67.0687 6.32388 66.938 6.24705 66.7145C6.01693 66.0439 5.55665 64.5383 5.55714 63.2595V63.2102L3.04587 63.128L3.04428 63.1789L3.09452 63.1715C3.09452 63.1707 3.05861 62.9289 3.02233 62.4598C2.98606 61.9904 2.94982 61.295 2.94982 60.3928C2.94982 60.3032 2.95015 60.2116 2.95076 60.1175C2.95874 59.1302 3.08324 58.5626 3.20331 58.2455C3.26345 58.0867 3.32212 57.9906 3.36425 57.9352L3.41356 57.8799L3.42533 57.8697L3.42757 57.868L3.41963 57.8566L3.42708 57.868H3.42757L3.41963 57.8566L3.42708 57.868L3.39976 57.8253L3.40529 57.8758C3.40611 57.8758 6.2159 57.5647 9.52522 56.9361C12.8352 56.3071 16.6418 55.3637 18.6494 54.0885L18.6531 54.0861L18.6566 54.0828L18.6225 54.045L18.643 54.0918C19.2099 53.841 19.6493 53.615 19.8704 53.4464C20.5407 52.9294 20.8757 51.9942 20.9647 51.5821L20.915 51.5715L20.927 51.6208C23.5703 50.9771 33.6458 48.6026 42.0859 47.6666C51.598 46.6117 65.6409 46.2074 73.4153 45.834C81.1886 45.4607 111.944 44.2722 119.208 44.0687C126.472 43.8651 142.122 43.6273 149.183 43.4575C152.933 43.3676 161.828 43.2865 169.345 43.2312L169.344 43.1803L169.314 43.1387C169.195 43.2238 169.092 43.3053 169.014 43.3838C168.873 43.5247 168.587 43.9477 168.225 44.5129C167.143 46.2054 165.426 49.1413 165.426 49.1413L165.382 49.2174L176.527 49.2895L176.531 49.2419C176.531 49.241 176.871 44.6362 176.871 43.1445V43.129H176.82L176.82 43.1799C177.03 43.1786 177.237 43.1774 177.437 43.1762L177.436 43.1253L177.385 43.1269L177.562 49.2809L178.732 50.5288L178.68 51.4429L180.364 52.9432L180.398 52.9054L180.347 52.9062C180.347 52.9062 180.354 53.3235 180.377 53.7477C180.388 53.9599 180.403 54.174 180.425 54.3397C180.435 54.4228 180.447 54.4936 180.461 54.5478L180.486 54.6182L180.536 54.6711C180.617 54.7025 180.845 54.7322 181.066 54.7591C181.284 54.7851 181.487 54.8047 181.487 54.8047L181.492 54.7542Z" fill="#3265B1"/>
<path d="M174.711 39.7128L174.656 39.6273C174.655 39.6281 173.243 40.5405 172.226 41.2999C171.728 41.6716 171.053 42.0486 170.436 42.3979C169.818 42.7493 169.261 43.0669 168.978 43.3486C168.901 43.426 168.796 43.5656 168.66 43.7611C167.718 45.1217 165.383 49.1154 165.382 49.1166L165.293 49.2689L176.574 49.3418L176.581 49.2469C176.581 49.2449 176.921 44.6446 176.921 43.1463C176.921 42.9907 176.918 42.8686 176.909 42.7831C176.821 41.926 176.337 39.9196 176.336 39.9172L176.32 39.8504L174.688 39.6065L174.656 39.6273L174.711 39.7128L174.696 39.8138L176.222 40.0418L176.237 39.9408L176.139 39.9648C176.139 39.966 176.259 40.4664 176.391 41.0731C176.522 41.6793 176.665 42.3926 176.706 42.8039C176.714 42.8755 176.718 42.9944 176.718 43.1463C176.718 43.8844 176.633 45.4084 176.548 46.7446C176.505 47.4127 176.463 48.0349 176.431 48.4896C176.399 48.9444 176.378 49.2311 176.378 49.2319L176.479 49.2392L176.48 49.1374L165.47 49.0662L165.47 49.1679L165.558 49.2197C165.558 49.2188 165.748 48.8935 166.043 48.396C166.484 47.6501 167.159 46.5182 167.772 45.5244C168.078 45.0277 168.369 44.5652 168.608 44.2032C168.845 43.8425 169.036 43.5766 169.121 43.4927C169.365 43.2468 169.921 42.9227 170.537 42.575C171.153 42.2257 171.833 41.8471 172.348 41.4631C172.852 41.0865 173.457 40.67 173.935 40.3479C174.414 40.0259 174.766 39.7991 174.766 39.7983L174.711 39.7128Z" fill="#3265B1"/>
<path d="M177.428 42.9076L177.432 42.9581L178.368 42.875L178.364 42.8237C178.363 42.8229 178.329 42.4907 178.329 42.0025C178.329 41.2159 178.42 40.0287 178.878 39.2087L178.93 39.1154L178.825 39.1338C178.821 39.1354 177.269 39.4057 176.281 40.2375L176.258 40.2575L176.265 40.288C176.406 40.8951 176.692 42.1759 176.755 42.7977C176.763 42.873 176.767 42.9927 176.767 43.1454C176.767 43.8864 176.682 45.4103 176.597 46.747C176.554 47.4155 176.511 48.0372 176.48 48.492C176.448 48.9468 176.427 49.2338 176.427 49.2346L176.425 49.2578L176.441 49.2745C176.442 49.2749 178.184 51.0033 178.695 51.4593L178.774 51.5293L178.833 50.4911L177.66 49.2395L177.478 42.906L177.428 42.9076L177.377 42.9092L177.559 49.281L178.73 50.5289L178.679 51.4181L178.73 51.4214L178.763 51.3831C178.511 51.158 177.947 50.612 177.448 50.1234C176.949 49.6344 176.514 49.2033 176.513 49.202L176.477 49.2383L176.528 49.2419C176.528 49.2411 176.868 44.6388 176.869 43.1454C176.868 42.9906 176.865 42.8693 176.856 42.7875C176.792 42.1527 176.505 40.8743 176.364 40.2648L176.314 40.2766L176.347 40.3153C176.825 39.9118 177.45 39.6402 177.954 39.4709C178.207 39.3862 178.429 39.3271 178.588 39.2889C178.748 39.2506 178.842 39.2343 178.842 39.2339L178.834 39.1838L178.789 39.159C178.316 40.0103 178.228 41.2082 178.228 42.0025C178.228 42.4956 178.262 42.8327 178.262 42.8343L178.313 42.829L178.308 42.7781L177.375 42.8612L177.377 42.9092L177.428 42.9076Z" fill="#3265B1"/>
<path d="M178.728 51.4225L178.761 51.3842C178.509 51.1591 177.945 50.6131 177.446 50.1245C176.947 49.6355 176.512 49.2044 176.511 49.2031L176.497 49.1889L169.719 49.1449L169.736 49.2092C169.9 49.8318 170.534 50.8688 172.776 51.7698C175.455 52.8475 176.95 52.9672 178.763 52.9668C179.271 52.9668 179.803 52.9574 180.394 52.9574H180.528L178.761 51.3842L178.728 51.4225L178.693 51.4604L180.36 52.9444L180.394 52.9065V52.8556C179.802 52.8556 179.27 52.865 178.763 52.865C176.954 52.8642 175.485 52.7486 172.814 51.6753C170.59 50.78 169.989 49.7678 169.834 49.1832L169.785 49.1962L169.785 49.2471L176.475 49.2903V49.2394L176.44 49.2756C176.44 49.276 178.182 51.0044 178.693 51.4604L178.728 51.4225Z" fill="#3265B1"/>
</svg>
