<svg width="139" height="51" viewBox="0 0 139 51" fill="none" xmlns="http://www.w3.org/2000/svg">
<g clip-path="url(#clip0_7560_4835)">
<path d="M137.791 16.1267L137.945 16.0726C137.483 14.5583 135.943 13.1522 134.455 12.7196C133.12 12.341 129.578 11.7461 128.192 11.7461C128.089 11.7461 128.038 11.7461 127.987 11.7461C127.319 11.8002 126.755 12.341 126.344 12.99C125.882 13.639 125.574 14.4502 125.471 15.1532C125.317 16.0186 125.215 17.5869 125.163 18.6145H125.317V18.4522L122.854 18.5063L126.601 22.4543H126.703C128.038 22.3461 130.143 22.1298 131.118 22.1298H131.272H131.426C132.145 22.1298 133.377 22.0216 134.455 21.8053C135.584 21.6431 136.611 21.3727 137.124 21.1563C137.688 20.8859 137.945 20.1288 138.099 19.5339C138.253 18.8849 138.253 18.3441 138.253 18.3441L137.996 16.0726L137.791 16.1267H137.637L137.894 18.3982C137.894 18.3982 137.894 18.5063 137.894 18.7226C137.842 19.0471 137.791 19.5339 137.688 19.9665C137.534 20.3992 137.329 20.7778 137.021 20.8859C136.611 21.1022 135.533 21.3186 134.403 21.5349C133.274 21.6971 132.093 21.8594 131.426 21.8594H131.272H131.118C130.091 21.8594 128.038 22.0216 126.703 22.1839V22.3461L126.806 22.238L123.675 18.939L125.471 18.8849V18.7226C125.523 17.7492 125.677 16.1808 125.779 15.3155C125.882 14.7206 126.19 13.9094 126.601 13.3145C127.011 12.6655 127.525 12.2328 127.987 12.2328C128.038 12.2328 128.089 12.2328 128.192 12.2328C129.475 12.2328 133.069 12.8277 134.352 13.1522C135.687 13.5308 137.175 14.8828 137.586 16.2349L137.791 16.1267Z" fill="black" fill-opacity="0.3"/>
<path d="M16.7501 18.7272V18.5649L14.6968 18.5108V18.6731H14.8508C14.7995 17.6996 14.6455 16.1312 14.5429 15.2118C14.4402 14.5088 14.1322 13.6975 13.6702 13.0486C13.2082 12.3996 12.6436 11.8588 12.0276 11.8047C11.9762 11.8047 11.8736 11.8047 11.8223 11.8047C10.4363 11.8047 6.94571 12.3996 5.55974 12.7782C4.12244 13.2108 2.53115 14.5629 2.06916 16.1312L1.8125 18.4027C1.8125 18.4027 1.8125 18.9976 1.9665 19.5925C2.12049 20.2414 2.32582 20.9445 2.94181 21.2149C3.45513 21.4312 4.48177 21.7017 5.61107 21.8639C6.74038 22.0261 7.92101 22.1884 8.63966 22.1884H8.79366H8.94766C9.92297 22.1884 12.0276 22.3506 13.3622 22.5129H13.4649L17.2121 18.5649H16.8015L16.7501 18.7272L16.6475 18.619L13.2595 22.1884L13.3622 22.2966V22.1343C12.0276 22.0261 9.92297 21.8098 8.94766 21.8098H8.79366H8.63966C7.92101 21.8098 6.74038 21.7017 5.6624 21.4853C4.5331 21.3231 3.50646 21.0527 3.04447 20.8363C2.63381 20.6741 2.37715 20.0251 2.27449 19.4302C2.22316 19.2139 2.17182 18.8894 2.17182 18.6731C2.17182 18.4567 2.17182 18.3486 2.17182 18.3486L2.42848 16.0771H2.27449L2.42848 16.1312C2.83914 14.7792 4.32777 13.4271 5.6624 13.0486C6.94571 12.67 10.5389 12.1292 11.8223 12.1292C11.8736 12.1292 11.9762 12.1292 12.0276 12.1292C12.4896 12.1292 13.0029 12.6159 13.4135 13.2108C13.8242 13.8057 14.1322 14.6169 14.2349 15.2118C14.3889 16.0771 14.4915 17.6455 14.5429 18.619V18.7812L16.7501 18.8353V18.7272Z" fill="black" fill-opacity="0.3"/>
<path d="M137.429 16.1823L137.532 16.1283C137.121 14.8303 135.735 13.5323 134.401 13.1538C133.066 12.7752 129.576 12.2344 128.292 12.2344C128.241 12.2344 128.138 12.2344 128.087 12.2344C127.625 12.2885 127.163 12.7211 126.752 13.2619C126.393 13.8568 126.085 14.5599 125.982 15.2089C125.828 16.0742 125.726 17.6966 125.674 18.616L125.623 18.9946V19.0487L127.368 21.915H127.42C128.703 21.8069 130.294 21.6446 131.167 21.6446H131.475C132.861 21.6446 136.095 21.1579 137.019 20.7252C137.327 20.563 137.532 20.1844 137.635 19.6977C137.737 19.265 137.84 18.7242 137.84 18.3456L137.583 16.1283L137.429 16.1823H137.327L137.583 18.3456C137.583 18.7242 137.532 19.2109 137.378 19.6436C137.275 20.0762 137.07 20.4548 136.865 20.563C136.043 20.9415 132.758 21.4824 131.372 21.4824H131.064C130.192 21.4824 128.6 21.5905 127.317 21.7528V21.8609L127.368 21.8069L125.726 19.0487V18.7242C125.777 17.8048 125.931 16.1823 126.034 15.3711C126.136 14.7762 126.393 14.0191 126.804 13.4783C127.163 12.9374 127.625 12.5048 127.984 12.5048C128.036 12.5048 128.087 12.5048 128.138 12.5048C129.422 12.5048 132.912 13.0456 134.196 13.4242C135.479 13.8027 136.865 15.1007 137.224 16.2905L137.429 16.1823Z" fill="black" fill-opacity="0.3"/>
<path d="M2.58198 16.179L2.68464 16.2331C3.04397 15.0433 4.42993 13.7454 5.71324 13.3668C6.99654 12.9882 10.4871 12.4474 11.7704 12.4474C11.8218 12.4474 11.8731 12.4474 11.9244 12.4474C12.2837 12.4474 12.7457 12.8801 13.1051 13.4209C13.4644 13.9617 13.7724 14.6648 13.875 15.3137C14.029 16.179 14.1317 17.8015 14.183 18.6668V18.9913L12.5404 21.7495L12.5917 21.8036V21.6954C11.3084 21.5872 9.71714 21.425 8.84449 21.425H8.5365C7.20187 21.425 3.91661 20.9382 3.04397 20.5056C2.83864 20.3974 2.63331 20.0729 2.53065 19.5862C2.42798 19.1535 2.32532 18.6668 2.32532 18.2882L2.68464 16.2331L2.58198 16.179H2.47932L2.22266 18.3423C2.22266 18.7209 2.27399 19.2617 2.42798 19.6944C2.58198 20.127 2.73598 20.5597 3.04397 20.7219C3.96795 21.1546 7.20187 21.6413 8.58783 21.6413H8.89582C9.71714 21.6413 11.3598 21.7495 12.6431 21.9117H12.6944L14.3884 19.0454L14.337 18.6668C14.2857 17.7474 14.1317 16.125 14.029 15.2597C13.9264 14.6107 13.6184 13.8535 13.259 13.3127C12.8997 12.7178 12.4377 12.2852 11.9244 12.2852C11.8731 12.2852 11.8218 12.2852 11.7191 12.2852C10.3845 12.2852 6.89387 12.826 5.61057 13.2045C4.27594 13.5831 2.83864 14.8811 2.47932 16.179H2.58198Z" fill="black" fill-opacity="0.3"/>
<path d="M46.8306 33.8688V33.9769H92.9268L94.8261 21.1055H44.418L46.7792 33.9769H46.8306V33.8688H46.9332L44.6233 21.3218H94.6721L92.8241 33.8147H46.8306V33.8688Z" fill="black" fill-opacity="0.3"/>
<path d="M35.4855 21.213H35.3828L35.5368 21.862V21.9161H104.373L104.527 21.1589V21.0508H35.3828V21.1589L35.4855 21.213V21.3212H104.527V21.213H104.424L104.27 21.8079H35.7421L35.5881 21.213H35.4855Z" fill="black" fill-opacity="0.3"/>
<path d="M101.139 35.9257V35.8176H38.668L39.5919 39.9819C39.5919 39.9819 39.7973 40.7931 40.5673 41.6584C41.3372 42.4696 42.6205 43.2808 44.8278 43.2808C49.1397 43.2808 92.464 43.2808 94.8252 43.2808C97.2378 43.2808 99.8044 42.1451 100.215 40.0359C100.42 39.0625 100.831 37.3859 101.19 35.9257H101.139H101.242V35.2227L101.088 35.8716C100.728 37.3318 100.318 39.0084 100.112 39.9819C99.7531 41.9288 97.2379 43.0645 94.8766 43.0645C92.5153 43.0645 49.191 43.0645 44.8791 43.0645C42.7232 43.0645 41.4912 42.2533 40.7726 41.4961C40.4133 41.1176 40.1566 40.6849 40.0539 40.4145C40.0026 40.2523 39.9513 40.1441 39.8999 40.0359C39.8486 39.9278 39.8486 39.9278 39.8486 39.9278L38.976 35.9798H101.242V35.8716H101.139V35.9257Z" fill="black" fill-opacity="0.3"/>
<path d="M38.3089 33.8712V33.9794H101.755V33.9253C101.909 33.3845 101.961 33.06 101.961 33.06L102.063 32.6274L104.579 21.2702L105.092 16.5651H104.989C102.32 16.2406 91.7456 15.0508 70.1861 15.0508C47.1381 15.0508 36.615 16.4028 34.921 16.6192H34.8184L35.3317 21.2702L37.847 32.6274L38.1549 33.9794H38.2063V33.8712H38.3089L38.1036 32.5733L35.5883 21.2161L35.075 16.6732H34.9724V16.7814C36.6663 16.5651 47.1894 15.213 70.1861 15.213C91.7456 15.213 102.32 16.4028 104.989 16.7273V16.6192H104.887L104.373 21.2161L101.858 32.5733L101.755 33.0059C101.755 33.0059 101.653 33.3304 101.55 33.8712H101.653V33.7631H38.3089V33.8712Z" fill="black" fill-opacity="0.3"/>
<path d="M110.841 17.4271L110.79 17.4812C111.355 17.8057 112.022 18.4547 112.689 19.0496C113.357 19.6445 114.075 20.2394 114.64 20.4557C115.667 20.8343 118.182 21.5373 119.311 22.7812L119.465 22.6731L119.414 22.7271V22.8353L127.165 23.268L127.114 23.1598C126.96 22.6731 126.857 22.4027 126.857 22.4027L123.058 18.4006C123.058 18.4006 120.03 12.3975 116.898 6.17812C113.767 0.0127954 110.533 -6.31477 110.174 -6.96376C110.02 -7.18008 109.866 -7.50457 109.609 -7.77498L109.25 -8.26172L109.455 -7.7209C111.098 -3.5566 114.845 5.85363 115.41 8.07098C115.513 8.44955 115.564 8.82812 115.564 9.26078C115.564 11.6404 113.87 14.5608 110.79 17.319L110.687 17.4271L110.79 17.4812L110.841 17.4271L110.893 17.4812C113.973 14.723 115.718 11.8026 115.718 9.31486C115.718 8.88221 115.667 8.44955 115.564 8.07098C114.999 5.85363 111.252 -3.5566 109.609 -7.7209L109.507 -7.66682L109.455 -7.61274C109.661 -7.34233 109.815 -7.07192 109.969 -6.80151C110.328 -6.20661 113.562 0.120957 116.693 6.28628C118.284 9.36894 119.824 12.4516 120.954 14.723C121.518 15.8588 122.032 16.8322 122.34 17.4812C122.648 18.1302 122.853 18.5088 122.853 18.5088L126.6 22.4567L126.652 22.4027L126.549 22.4567C126.549 22.4567 126.652 22.7271 126.806 23.2139L126.908 23.1598V23.0516L119.106 22.619L119.208 22.7812L119.26 22.7271L119.311 22.6731C118.13 21.3751 115.615 20.672 114.589 20.2935C114.075 20.0771 113.357 19.5363 112.689 18.9414C112.022 18.3465 111.303 17.6975 110.739 17.373L110.841 17.4271Z" fill="black" fill-opacity="0.3"/>
<path d="M25.3227 20.4001L25.3741 20.5082C25.9901 20.2919 26.6574 19.697 27.376 19.048C28.0947 18.3991 28.762 17.8042 29.3266 17.4797C29.378 17.4256 29.4806 17.4256 29.532 17.3715L29.6346 17.3174L29.532 17.2093C26.5547 14.5052 24.9121 11.6929 24.9121 9.31332C24.9121 8.88066 24.9634 8.50209 25.0661 8.12352C25.6821 5.798 29.84 -4.74795 31.3286 -8.42551L31.4313 -8.75L31.1746 -8.53367C30.456 -7.93877 30.148 -7.39796 29.8913 -6.9653C29.4806 -6.3704 26.2981 -0.0428314 23.1668 6.17657C20.0355 12.3419 17.007 18.3991 17.007 18.3991L13.2084 22.4011C13.2084 22.4011 13.1057 22.6715 12.9517 23.1583L12.9004 23.2664L20.6515 22.7797C21.7808 21.5358 24.2961 20.8327 25.3227 20.4542V20.4001L25.2714 20.2919C24.2448 20.6705 21.7295 21.3195 20.5489 22.6715L20.6515 22.7256V22.6174L13.0031 23.0501V23.1583L13.1057 23.2123C13.2597 22.7256 13.3624 22.4552 13.3624 22.4552L13.2597 22.4011L13.311 22.4552L17.0583 18.5072C17.0583 18.5072 17.2636 18.1286 17.5716 17.4797C18.7522 15.1542 21.6782 9.3674 24.3988 4.0133C27.1194 -1.3408 29.6346 -6.26224 29.9426 -6.80306C30.1993 -7.23571 30.5073 -7.77653 31.2259 -8.37143L31.1746 -8.42551L31.0719 -8.47959C29.6346 -4.85611 25.4254 5.74392 24.8094 8.06944C24.7068 8.44801 24.6554 8.88066 24.6554 9.31332C24.6554 11.747 26.3494 14.6133 29.3266 17.3715L29.378 17.3174L29.3266 17.2093C29.224 17.2633 29.1727 17.2633 29.1213 17.3174C28.5567 17.6419 27.838 18.2909 27.1194 18.8858C26.4007 19.5348 25.7334 20.0756 25.1688 20.2919L25.3227 20.4001Z" fill="black" fill-opacity="0.3"/>
<path d="M129.268 36.8446H129.371C129.371 36.8446 129.371 33.7079 129.063 30.7874C128.806 28.5701 127.626 24.7303 127.112 23.1078V23.0537L119.207 22.6211L119.361 22.7833C119.464 22.8915 119.567 23.0537 119.669 23.216C120.131 23.9731 121.107 26.3527 121.928 28.516C122.339 29.5976 122.749 30.6252 123.006 31.3823C123.314 32.1395 123.468 32.6262 123.468 32.6262L123.571 32.5721V32.464H121.363V32.5721C121.415 32.9507 121.466 33.4915 121.466 34.0864C121.466 35.2762 121.261 36.7905 120.439 37.9803C119.618 39.2242 118.181 40.1436 115.717 40.3058C113.201 40.414 110.173 40.4681 107.298 40.4681C104.629 40.4681 102.114 40.414 100.112 40.414H100.06V40.4681C99.4445 42.1446 97.1345 43.1181 94.9273 43.1181C92.566 43.1181 49.2417 43.1181 44.9298 43.1181C41.7473 43.1181 40.5153 41.3875 40.1046 40.4681V40.414H40.0533C38.0513 40.4681 35.4334 40.4681 32.7128 40.4681C29.8382 40.4681 26.8096 40.414 24.2943 40.3058C21.8304 40.1977 20.3931 39.2242 19.5718 37.9803C18.7505 36.7364 18.5452 35.2762 18.5452 34.0864C18.5452 33.4915 18.5965 32.9507 18.6478 32.5721V32.464H16.6459V32.5721L16.7485 32.6262C16.7485 32.6262 16.9025 32.1395 17.2105 31.3823C18.0318 29.1109 19.8285 24.3517 20.5471 23.216C20.6498 23.0537 20.7524 22.9456 20.8551 22.7833L21.0091 22.6211L12.95 23.0537V23.1078C12.4366 24.7303 11.256 28.5701 10.9993 30.7874C10.6914 33.6538 10.6914 36.8446 10.6914 36.8446H10.794L10.6914 36.7905L10.332 37.8722C10.332 37.8722 10.8454 45.6599 11.256 50.0946C11.4613 52.2038 11.872 55.1242 12.3853 57.9365V58.0447L12.488 57.9906C16.7999 55.9355 23.6784 54.7457 24.7563 54.7457C25.937 54.7457 102.73 54.7457 111.816 54.7457C119.413 54.7457 125.572 57.5038 127.369 58.4232L127.472 58.4773V58.3691C128.036 55.3946 128.498 52.2579 128.704 50.0406C129.114 45.6059 129.628 37.8181 129.628 37.8181L129.32 36.7905L129.268 36.8446L129.166 36.8987L129.474 37.9262L129.576 37.8722H129.474C129.474 37.8722 129.422 38.3589 129.371 39.1701C129.217 41.5497 128.858 46.7956 128.55 50.0946C128.344 52.312 127.882 55.3946 127.318 58.3691H127.42L127.472 58.261C125.675 57.3416 119.464 54.5293 111.867 54.5293C102.781 54.5293 25.937 54.5293 24.8077 54.5293C23.6784 54.5293 16.7999 55.6651 12.4366 57.7743L12.488 57.8824H12.5906C12.0773 55.0161 11.6667 52.1497 11.4613 50.0406C11.256 47.8232 10.9993 44.7946 10.8454 42.2528C10.7427 41.0089 10.6914 39.8732 10.64 39.062C10.5887 38.2507 10.5374 37.764 10.5374 37.764H10.4347L10.5374 37.8181L10.8454 36.7905C10.8454 36.7905 10.8454 35.9793 10.8967 34.8436C10.948 33.7079 10.9993 32.1936 11.2047 30.7334C11.4613 28.516 12.642 24.6762 13.1553 23.0537L13.0526 22.9997V23.1078L20.6498 22.7833V22.6752L20.5984 22.6211C20.4958 22.7833 20.3418 22.8915 20.2391 23.0537C19.7771 23.865 18.8018 26.1905 17.9805 28.3538C17.1592 30.517 16.4405 32.464 16.4405 32.464L16.3892 32.5721H18.4425V32.464H18.3398C18.2885 32.8425 18.2372 33.3834 18.2372 33.9783C18.2372 35.2221 18.4425 36.7364 19.3151 37.9803C20.1878 39.2242 21.6764 40.2518 24.1917 40.3599C26.707 40.4681 29.7355 40.5222 32.6101 40.5222C35.3307 40.5222 37.9487 40.4681 39.9506 40.4681V40.3599L39.8993 40.414C40.3613 41.3334 41.6446 43.1722 44.8785 43.1722C49.1904 43.1722 92.5147 43.1722 94.8759 43.1722C97.0832 43.1722 99.4445 42.1987 100.163 40.414L100.06 40.3599V40.4681C102.062 40.5222 104.629 40.5222 107.247 40.5222C110.122 40.5222 113.15 40.4681 115.665 40.3599C118.181 40.2518 119.669 39.2242 120.542 37.9803C121.415 36.7364 121.62 35.1681 121.62 33.9783C121.62 33.3834 121.569 32.8425 121.517 32.464H121.415V32.5721H123.673L123.622 32.464C123.622 32.464 122.903 30.517 122.082 28.3538C121.261 26.1905 120.285 23.8109 119.823 23.0537C119.721 22.8915 119.618 22.7833 119.515 22.6211L119.464 22.6752V22.7833L127.061 23.216V23.1078L126.958 23.1619C127.472 24.7844 128.652 28.6242 128.909 30.8415C129.063 32.2477 129.166 33.7619 129.217 34.9517C129.268 36.0875 129.268 36.8987 129.268 36.8987V36.8446Z" fill="black" fill-opacity="0.3"/>
<path d="M110.122 -6.90988L110.276 -7.01805C110.225 -7.07213 110.174 -7.12621 110.122 -7.23438L109.814 -7.07213L121.005 18.833L124.752 20.2933V20.0228L123.109 18.2922L123.007 18.4004L123.161 18.2922C123.161 18.2922 120.132 12.2892 117.001 6.06975C115.41 2.98708 113.87 -0.14966 112.586 -2.58334C111.97 -3.77314 111.406 -4.85478 110.995 -5.61192C110.584 -6.36907 110.328 -6.90988 110.225 -7.07213L110.122 -6.90988L109.968 -6.80172C110.071 -6.63948 110.328 -6.15274 110.738 -5.39559C112.176 -2.6915 115.204 3.31157 117.874 8.55751C119.208 11.2075 120.44 13.6953 121.364 15.48C122.288 17.3188 122.853 18.4545 122.853 18.4545L124.495 20.1851L124.598 20.0769L124.649 19.9147L121.262 18.5626L110.122 -7.23438L109.968 -7.18029L109.814 -7.07213C109.866 -7.01805 109.917 -6.90988 109.968 -6.8558L110.122 -6.90988Z" fill="black" fill-opacity="0.3"/>
<path d="M15.4134 20.0754L15.4647 20.2377L18.9553 18.8856L30.0944 -6.85729L29.7864 -7.01953V-6.96545C29.6837 -6.8032 29.4271 -6.31647 29.0164 -5.50524C26.1931 -0.0970616 16.8507 18.3989 16.8507 18.3989L17.0047 18.5071L16.902 18.3989L14.7461 20.5622L15.4647 20.2918L15.4134 20.0754L15.5161 20.1836L17.1074 18.5071C17.1074 18.5071 17.3127 18.1285 17.6207 17.4795C18.8013 15.154 21.7273 9.36725 24.4479 4.01315C25.8338 1.30906 27.1171 -1.23278 28.1438 -3.17972C28.6571 -4.1532 29.0677 -5.0185 29.4271 -5.6134C29.7351 -6.2083 29.9917 -6.64096 30.043 -6.74912L30.0944 -6.8032L29.9404 -6.91137L29.7864 -7.01953L18.6987 18.6152L15.3621 19.9132L15.4134 20.0754Z" fill="black" fill-opacity="0.3"/>
<path d="M129.268 36.8412H129.422C129.422 36.8412 129.422 33.6504 129.114 30.784C128.754 27.8636 126.906 22.2932 126.906 22.2932V22.2391L123.108 18.2371L123.005 18.3452L123.159 18.2371C123.159 18.2371 120.13 12.234 116.999 6.01456C115.408 2.9319 113.817 -0.204842 112.585 -2.63852C111.969 -3.82832 111.404 -4.90996 110.993 -5.6671C110.583 -6.42425 110.326 -6.96507 110.223 -7.12731C109.864 -7.72221 109.351 -8.58752 107.965 -9.34466C106.527 -10.1559 104.166 -10.859 99.9056 -11.3998C91.4358 -12.3732 75.6769 -12.9141 69.979 -12.9141C64.2812 -12.9141 48.5222 -12.3732 40.0524 -11.3998C35.8432 -10.8049 33.4819 -10.0477 32.0446 -9.2365C30.6073 -8.42527 30.1454 -7.61405 29.786 -7.01915C29.6834 -6.8569 29.4267 -6.37017 29.016 -5.55894C26.1928 -0.15076 16.8504 18.3452 16.8504 18.3452L17.0043 18.4534L16.9017 18.3452L13.1031 22.3473V22.4013C13.1031 22.4013 11.2552 27.9718 10.8958 30.8922C10.5878 33.7585 10.5878 36.9494 10.5878 36.9494H10.7418L10.5878 36.7871L10.2285 37.8687V37.9228C10.2285 37.9228 10.7418 45.7106 11.1525 50.1453C11.6145 54.58 12.8978 62.476 14.4377 66.1535C15.2077 67.9923 15.9777 69.2362 16.9017 70.0474C17.8257 70.8586 18.801 71.2372 19.9816 71.2372H120.028C121.208 71.2372 122.235 70.8586 123.108 70.0474C124.032 69.2362 124.802 67.9382 125.572 66.1535C127.112 62.476 128.395 54.58 128.857 50.1453C129.319 45.7106 129.781 37.9228 129.781 37.9228V37.8687L129.422 36.7871L129.268 36.8412L129.114 36.8953L129.422 37.9228L129.576 37.8687H129.422C129.422 37.8687 129.37 38.3555 129.319 39.1667C129.165 41.5463 128.806 46.7922 128.498 50.0912C128.087 54.4718 126.752 62.4219 125.264 65.9913C124.494 67.776 123.724 69.0199 122.902 69.777C122.081 70.5341 121.157 70.8586 120.028 70.8586H19.9816C18.8523 70.8586 17.9283 70.5341 17.107 69.777C16.2857 69.0199 15.5157 67.776 14.7457 65.9913C13.2571 62.4219 11.9225 54.5259 11.5118 50.0912C11.3065 47.8739 11.0498 44.8453 10.8958 42.3034C10.7932 41.0596 10.7418 39.9239 10.6905 39.1126C10.6392 38.3014 10.5878 37.8147 10.5878 37.8147H10.4338L10.5878 37.8687L10.9472 36.7871V36.733C10.9472 36.733 10.9472 35.9218 10.9985 34.7861C11.0498 33.6504 11.1012 32.1361 11.3065 30.7299C11.4605 29.3238 12.0251 27.2146 12.5385 25.484C12.7951 24.6187 13.0518 23.8075 13.2058 23.2667C13.3598 22.7258 13.5138 22.3473 13.5138 22.3473L13.3598 22.2932L13.4624 22.4013L17.261 18.3993C17.261 18.3993 17.4663 18.0207 17.7743 17.3717C18.955 15.0462 21.8809 9.25947 24.6015 3.90537C25.9875 1.20129 27.2708 -1.34056 28.2974 -3.2875C28.8107 -4.26098 29.2214 -5.12629 29.5807 -5.72118C29.8887 -6.31608 30.1454 -6.74874 30.1967 -6.8569C30.6073 -7.4518 30.9667 -8.20895 32.3526 -8.96609C33.7386 -9.72324 36.0485 -10.4804 40.2578 -10.9671C48.5736 -11.8865 64.3325 -12.4273 70.0304 -12.4273C75.7282 -12.4273 91.4872 -11.8865 99.9056 -10.913C104.115 -10.4263 106.476 -9.66915 107.811 -8.91201C109.197 -8.15486 109.556 -7.39772 109.967 -6.80282C110.069 -6.64057 110.326 -6.15384 110.737 -5.39669C112.174 -2.6926 115.203 3.31048 117.872 8.55641C119.206 11.2064 120.49 13.6942 121.362 15.4789C122.286 17.3177 122.851 18.4534 122.851 18.4534L126.65 22.4554L126.752 22.3473L126.598 22.4013C126.598 22.4013 126.701 22.7258 126.906 23.3207C127.42 24.9973 128.549 28.6748 128.806 30.784C128.96 32.1902 129.062 33.7044 129.114 34.8402C129.165 35.9759 129.165 36.7871 129.165 36.7871V36.8412V36.8953L129.268 36.8412Z" fill="black" fill-opacity="0.3"/>
<path d="M69.981 12.6687V12.8309H108.993L109.045 12.7768C109.045 12.7768 110.123 11.6411 110.123 9.91049C110.123 9.80233 110.123 9.69417 110.123 9.586C110.071 9.09927 109.866 7.96355 109.558 6.55742C108.634 2.28496 106.889 -4.69159 106.889 -4.69159L106.837 -4.79975H106.735C95.031 -6.63854 81.0687 -6.80078 73.0096 -6.80078C71.8802 -6.80078 70.9049 -6.80078 70.0323 -6.80078C69.1596 -6.80078 68.1843 -6.80078 67.055 -6.80078C58.9446 -6.80078 45.0336 -6.69262 33.3299 -4.79975H33.2272L33.1759 -4.69159C33.1759 -4.69159 32.4059 -1.60893 31.5846 1.74414C31.1739 3.42068 30.7633 5.15129 30.4553 6.55742C30.1473 7.96355 29.942 9.09927 29.8906 9.586C29.8906 9.69417 29.8906 9.80233 29.8906 9.91049C29.8906 11.6411 30.9686 12.7227 30.9686 12.7768L31.0199 12.8309H70.0323V12.6687V12.4523H31.0199V12.6146L31.1226 12.5064V12.4523C30.9173 12.236 30.1986 11.2625 30.1986 9.91049C30.1986 9.80233 30.1986 9.69416 30.1986 9.64008C30.2499 9.20743 30.4553 8.07171 30.7633 6.66558C31.2253 4.55639 31.8926 1.74414 32.4572 -0.527293C32.7139 -1.66301 32.9705 -2.69056 33.1759 -3.39363C33.3299 -4.09669 33.4839 -4.52935 33.4839 -4.52935L33.3299 -4.58343V-4.42118C45.0336 -6.25996 58.9446 -6.36813 67.0037 -6.36813C68.133 -6.36813 69.1083 -6.36813 69.981 -6.36813C70.8536 -6.36813 71.8289 -6.36813 72.9582 -6.36813C81.0687 -6.36813 94.9797 -6.25996 106.632 -4.42118V-4.58343L106.478 -4.52935C106.478 -4.52935 106.683 -3.7722 106.991 -2.5824C107.453 -0.797702 108.121 1.90639 108.685 4.39415C109.25 6.82783 109.712 9.04519 109.763 9.69417C109.763 9.80233 109.763 9.91049 109.763 9.96457C109.763 10.7758 109.507 11.4248 109.301 11.8574C109.199 12.0738 109.045 12.236 108.942 12.3983L108.839 12.5605L108.788 12.6146L108.891 12.7227V12.4523H69.9296V12.6687H69.981Z" fill="black" fill-opacity="0.3"/>
<path d="M31.4315 11.6939L31.5855 11.5857C31.3802 11.2612 31.0722 10.6663 31.0722 9.90919C31.0722 9.85511 31.0722 9.74695 31.0722 9.69287C31.1235 9.09797 31.5342 7.31327 32.0989 5.04183C32.6635 2.7704 33.3822 0.066308 33.9981 -2.42145L33.8441 -2.47554V-2.31329C44.6239 -3.98983 57.8675 -4.20615 67.5693 -4.20615H73.5238C83.2256 -4.20615 95.2373 -3.98983 106.017 -2.31329V-2.47554L105.863 -2.42145C106.479 0.066308 107.198 2.82448 107.762 5.04183C108.327 7.31327 108.789 9.09797 108.789 9.69287C108.789 9.74695 108.789 9.85511 108.789 9.90919C108.789 10.6663 108.481 11.2612 108.276 11.5857L108.43 11.6939V11.5316H31.4315V11.6939V11.9102H108.584L108.635 11.8561C108.892 11.4776 109.2 10.8286 109.2 9.96328C109.2 9.90919 109.2 9.80103 109.2 9.69287C109.148 9.04389 108.738 7.25919 108.122 4.98775C107.557 2.71632 106.838 -0.0418558 106.222 -2.47554L106.171 -2.5837H106.068C95.2373 -4.26023 83.2256 -4.47656 73.5238 -4.47656H67.5693C57.8675 -4.47656 44.6239 -4.26023 33.7928 -2.5837H33.6902L33.6388 -2.47554C33.0228 0.0122261 32.3042 2.71632 31.7395 4.98775C31.1749 7.25919 30.7642 9.04389 30.7129 9.69287C30.7129 9.80103 30.7129 9.85511 30.7129 9.96328C30.7129 10.8286 31.0722 11.5316 31.2775 11.8561L31.3289 11.9102H31.4315V11.6939Z" fill="black" fill-opacity="0.3"/>
<path d="M35.8432 21.9688L35.7919 21.8066L35.6892 21.3198V21.2117V21.1576L35.1759 16.7769V16.6147V16.5065L34.1493 15.6953H34.0979C34.0979 15.6953 33.174 15.9116 32.096 16.2361C31.1207 16.5065 30.094 16.831 29.4267 17.1014C29.3754 17.1014 29.324 17.1555 29.2727 17.1555C29.2727 17.1555 29.2214 17.1555 29.2214 17.2096C28.6054 17.5341 27.9381 18.1831 27.2194 18.8321C26.5008 19.427 25.7821 20.0219 25.2688 20.1841C24.7042 20.4004 23.6775 20.6708 22.6509 21.1576C21.8296 21.5361 21.0083 22.0229 20.4436 22.6178C20.3923 22.6719 20.3409 22.7259 20.2896 22.78C20.2383 22.8341 20.1869 22.9423 20.1356 22.9964C19.6223 23.8076 18.6983 26.1872 17.877 28.3505C17.0557 30.5137 16.337 32.4607 16.337 32.4607L16.2344 32.677H38.2045L35.8432 21.9688ZM16.7477 32.4066C16.8504 32.1903 16.953 31.8658 17.107 31.379C17.5177 30.2433 18.185 28.5127 18.801 26.8902C19.417 25.2678 20.0843 23.8076 20.3923 23.2668C20.8029 22.5096 21.7782 21.9688 22.7535 21.5361C23.7289 21.1035 24.7555 20.779 25.3201 20.6168C25.9361 20.4004 26.6548 19.8055 27.3221 19.1565C28.0407 18.5076 28.7081 17.8586 29.2727 17.5882C29.786 17.3178 31.018 16.9392 32.096 16.6147C32.9686 16.3443 33.7899 16.182 34.0466 16.128L34.8166 16.6688L35.3299 21.2657L37.7938 32.4607H16.7477V32.4066Z" fill="black" fill-opacity="0.3"/>
<path d="M37.8469 32.4114H16.8008C16.9034 32.1951 17.0061 31.8706 17.1601 31.3839C17.5708 30.2482 18.2381 28.5175 18.8541 26.8951C19.47 25.2726 20.1374 23.8124 20.4454 23.2716C20.856 22.5145 21.8313 21.9736 22.8066 21.541C23.7819 21.1083 24.8086 20.7838 25.3732 20.6216C25.9892 20.4053 26.7079 19.8104 27.3752 19.1614C28.0938 18.5124 28.7612 17.8634 29.3258 17.593C29.8391 17.3226 31.0711 16.944 32.1491 16.6195C33.0217 16.3491 33.843 16.1869 34.0997 16.1328L34.8697 16.6736L35.383 21.2706L37.8469 32.4114Z" fill="#3265B1"/>
<path d="M123.263 32.4108H102.217L104.681 21.2159L105.194 16.6189L105.964 16.0781C106.221 16.1322 106.991 16.3485 107.915 16.5649C108.993 16.8894 110.225 17.2138 110.738 17.5383C111.251 17.8087 111.97 18.4577 112.689 19.1067C113.407 19.7557 114.075 20.3506 114.69 20.5669C115.255 20.7832 116.282 21.0536 117.257 21.4863C118.232 21.919 119.208 22.5139 119.618 23.2169C120.08 23.9741 121.004 26.3537 121.877 28.5169C122.288 29.5986 122.698 30.6261 122.955 31.3833C123.058 31.8159 123.212 32.1945 123.263 32.4108Z" fill="#3265B1"/>
<path d="M123.673 32.5147C123.673 32.5147 122.954 30.5678 122.133 28.4045C121.311 26.2413 120.336 23.9157 119.874 23.0504C119.823 22.9964 119.771 22.8882 119.72 22.8341C119.669 22.78 119.617 22.7259 119.566 22.6719C119.001 22.0229 118.18 21.5902 117.359 21.2117C116.332 20.779 115.306 20.4545 114.741 20.2382C114.228 20.0759 113.509 19.481 112.842 18.8321C112.226 18.2912 111.61 17.6963 111.045 17.3718C110.994 17.3178 110.942 17.3178 110.891 17.2637C110.891 17.2637 110.84 17.2637 110.84 17.2096C110.224 16.8851 109.043 16.5065 107.965 16.2361C106.887 15.9116 105.963 15.6953 105.963 15.6953H105.912L105.86 15.7494L104.936 16.4525V16.5065V16.6688L104.423 21.1035V21.1576V21.2657L104.321 21.7525L104.269 21.9147L101.754 32.7311H123.775L123.673 32.5147ZM104.68 21.2117L105.193 16.6147L105.963 16.0739C106.22 16.128 106.99 16.3443 107.914 16.5606C108.992 16.8851 110.224 17.2096 110.737 17.5341C111.25 17.8045 111.969 18.4535 112.688 19.1025C113.406 19.7514 114.074 20.3463 114.69 20.5627C115.254 20.779 116.281 21.0494 117.256 21.4821C118.231 21.9147 119.207 22.5096 119.617 23.2127C120.079 23.9698 121.003 26.3494 121.876 28.5127C122.287 29.5943 122.697 30.6219 122.954 31.379C123.108 31.8117 123.262 32.1903 123.313 32.4066H102.267L104.68 21.2117Z" fill="black" fill-opacity="0.3"/>
<path d="M128.702 50.0911H128.548C128.137 54.4718 126.802 62.4218 125.314 65.9912C124.544 67.7759 123.774 69.0198 122.953 69.7769C122.131 70.5341 121.207 70.8585 120.078 70.8585H112.635V84.5953C112.635 85.2443 112.789 85.8392 113.097 86.3259C113.405 86.7586 113.815 87.0831 114.329 87.0831H127.47C127.932 87.0831 128.394 86.7586 128.65 86.3259C128.958 85.8933 129.112 85.2443 129.112 84.5953V47.7656H128.753C128.702 48.5769 128.599 49.3881 128.548 50.0911H128.702H128.856C128.907 49.3881 129.01 48.5769 129.061 47.7656H128.907H128.753V84.5953C128.753 85.1902 128.599 85.731 128.342 86.1096C128.086 86.4882 127.778 86.7045 127.418 86.7045H114.277C113.918 86.7045 113.61 86.4882 113.353 86.1096C113.097 85.731 112.943 85.1902 112.943 84.5953V71.2371H120.027C121.207 71.2371 122.234 70.8585 123.107 70.0473C124.03 69.2361 124.8 67.9381 125.57 66.1534C127.11 62.4759 128.394 54.5799 128.856 50.1452L128.702 50.0911Z" fill="black" fill-opacity="0.3"/>
</g>
<defs>
<clipPath id="clip0_7560_4835">
<rect width="137.057" height="50.7109" fill="white" transform="translate(0.972656 0.144531)"/>
</clipPath>
</defs>
</svg>
