<svg width="140" height="81" viewBox="0 0 140 81" fill="none" xmlns="http://www.w3.org/2000/svg">
<circle cx="65.5738" cy="58.0406" r="22.3472" fill="#3265B1"/>
<circle cx="65.5733" cy="58.042" r="17.3565" fill="#1C427C"/>
<path d="M120.457 2.59171L100.555 15.0721L96.6992 14.5109C100.276 11.5164 113.077 4.12559 119.039 0.902344L120.457 2.59171Z" fill="#3265B1" stroke="#3265B1" stroke-width="0.357642"/>
<path d="M35.0694 31.2916C35.0694 31.346 35.0151 31.5635 34.9607 31.781C34.7432 32.5421 34.1451 33.9014 33.1665 34.6626C32.8402 34.9345 32.1334 35.3151 31.1547 35.6957C28.3818 36.9462 23.5971 38.5773 21.0961 38.9579C19.4105 39.2298 16.4201 39.5017 13.8647 39.6648C12.6141 39.7735 11.418 39.8279 10.6024 39.8823C10.0587 39.9366 9.62373 39.9366 9.40625 39.9366C9.51499 37.653 10.2218 35.75 10.983 34.3908C11.3636 33.6839 11.7442 33.1402 12.0161 32.7596C12.1792 32.5421 12.2879 32.4334 12.3423 32.3247C12.3967 32.2703 12.3967 32.2703 12.451 32.2159C16.5289 31.1829 29.6867 29.7692 31.2091 29.7148H31.2635C32.0247 29.7148 32.949 30.0411 33.7645 30.4217C34.1451 30.5848 34.4714 30.8023 34.7432 30.9654C34.852 31.0198 34.9607 31.1285 35.0151 31.1829L35.0694 31.2916Z" fill="#1C427C"/>
<path d="M4.72938 32.9224C4.72938 33.5748 4.29441 34.5535 4.02256 35.3691C3.58759 36.8915 2.39142 41.7849 2.17394 42.7635C2.0652 43.2529 1.84771 43.5791 1.63023 43.7966C1.57586 43.851 1.57586 43.851 1.52148 43.9053C1.52148 43.851 1.52148 43.7966 1.52148 43.7966C1.57586 42.8179 1.79334 40.5343 2.39142 38.3595C2.77202 36.9458 3.20699 35.5322 3.53322 34.4991C3.64196 34.2273 3.69633 34.0098 3.80507 33.7923C3.85945 33.5748 3.96819 33.3573 4.02256 33.1942C4.07693 33.0855 4.07693 32.9767 4.1313 32.868C4.1313 32.8136 4.18567 32.7592 4.18567 32.7049C4.18567 32.6505 4.24004 32.5961 4.24004 32.5418V32.433C4.24004 32.3786 4.24004 32.3243 4.18567 32.2699C4.1313 32.2155 4.1313 32.1612 4.07693 32.1068C4.07693 32.0524 4.02256 32.0524 3.96819 31.998C4.18567 32.0524 4.29441 32.1612 4.40316 32.2699C4.62064 32.3786 4.72938 32.5961 4.72938 32.9224Z" fill="#3265B1"/>
<path d="M3.20746 58.8045C3.20746 58.9132 3.20746 59.0219 3.15309 59.0763H2.60938V54.4004C2.66375 54.6722 2.71812 54.9441 2.71812 55.216C2.82686 55.9772 2.98997 56.7927 3.04434 57.4452C3.15309 58.0433 3.20746 58.587 3.20746 58.8045Z" fill="#3265B1"/>
<path d="M24.2491 61.4666C24.0316 61.4666 23.7598 61.4666 23.4336 61.4666C20.5519 61.4666 14.1905 61.521 9.1883 61.521C5.87166 61.521 3.09873 61.521 2.39191 61.4666C1.63071 61.4123 1.03263 61.3579 0.597656 61.2492C0.869512 61.0317 1.14137 60.8142 1.41322 60.6511C1.52197 60.5967 1.63071 60.488 1.73945 60.4336C2.12005 60.5423 2.50065 60.6511 2.82687 60.6511H2.88125C3.31622 60.6511 7.66591 60.5967 11.9069 60.5423C15.9303 60.488 19.8994 60.4336 20.28 60.4336L24.2491 61.4666Z" fill="#3265B1"/>
<path d="M92.4879 68.4249H91.4005L90.9655 57.8769C90.9655 43.7948 79.5476 32.3768 65.4655 32.3768C51.3833 32.3768 39.9654 43.7948 39.9654 57.8769L39.8023 65.5976C39.5848 65.5976 39.2042 65.5432 38.7148 65.5432L38.9323 57.8769C38.9323 50.5911 41.9227 43.9579 46.7074 39.1188C51.4921 34.3342 58.1797 31.3438 65.4655 31.3438C80.0913 31.3438 91.9986 43.251 92.053 57.8769L92.4879 68.4249Z" fill="#3265B1"/>
<path d="M139.821 68.2168H101.083V60.6006L139.821 60.3418V68.2168Z" fill="#3265B1" stroke="#3265B1" stroke-width="0.357642"/>
<path d="M22.5093 54.4535C22.5093 54.8884 22.0743 55.6496 21.2044 56.4108C20.3344 57.172 19.0295 57.9332 17.2897 58.4226C15.3867 58.9663 13.1574 59.075 11.5807 59.075C10.8739 59.075 10.2758 59.075 9.89518 59.0206C9.62332 59.0206 9.46021 59.0206 9.35147 58.9663C9.2971 58.8575 9.24272 58.6944 9.18835 58.4226C8.80775 57.2808 7.99219 54.7253 7.99219 52.4961H20.0082C20.8782 52.4961 21.4762 52.7136 21.9112 53.0398C22.3462 53.366 22.5093 53.801 22.5637 54.2903L22.5093 54.4535Z" fill="#1C427C"/>
<path d="M101.076 68.4254H92.7029L92.2679 57.8774C92.2679 56.6812 92.1591 55.5394 92.0504 54.3976C91.996 54.017 91.9417 53.6364 91.8873 53.2558C91.8329 52.984 91.7786 52.6577 91.7242 52.3859C91.6154 51.8422 91.4523 51.2985 91.3436 50.7547C91.2348 50.4285 91.1805 50.1023 91.0717 49.7761C90.963 49.3955 90.8542 49.0692 90.6911 48.6886C89.9843 46.7857 89.06 44.937 87.9726 43.2515C87.8095 43.034 87.7007 42.8166 87.5376 42.5991C86.6133 41.2942 85.6346 40.098 84.4928 38.9562C83.7316 38.195 82.916 37.4882 82.1005 36.8357C81.6111 36.4551 81.0674 36.0745 80.5237 35.6939C76.2284 32.8123 71.1175 31.1268 65.5716 31.1268C50.8371 31.1268 38.821 43.1428 38.821 57.823L38.6579 65.4893C33.8189 65.1631 19.0299 64.1844 11.4179 63.4776C6.85077 63.0426 3.9691 62.8251 2.22922 62.6077C1.35928 62.4989 0.761197 62.3902 0.434969 62.2814C0.271856 62.2271 0.163114 62.1727 0.108742 62.1183L0 62.0096C0 61.9552 2.43058e-08 61.9008 0.108742 61.7921C0.217485 61.6834 0.326227 61.5202 0.543712 61.3571C1.03305 61.4659 1.68551 61.5746 2.50107 61.629C3.2079 61.6834 5.98083 61.6834 9.29747 61.6834C15.7676 61.6834 24.467 61.629 25.0107 61.629H25.0651H25.6088L24.902 61.4659L20.2804 60.2697C20.2804 60.2697 3.75161 60.4328 2.88167 60.4872H2.8273C2.55545 60.4872 2.22922 60.4328 1.95736 60.3241C2.0661 60.2697 2.12048 60.2153 2.17485 60.2153C2.33796 60.161 2.39233 60.0522 2.4467 60.0522C2.55545 60.0522 2.71856 59.9978 2.99041 59.8891C3.15353 59.7804 3.37101 59.6172 3.47976 59.3454H9.07999L9.13436 59.4541H9.2431C9.2431 59.4541 10.2218 59.5629 11.6354 59.5629C13.2666 59.5629 15.4958 59.4541 17.4531 58.8561C19.2474 58.3667 20.6067 57.6055 21.531 56.79C22.4553 55.9744 22.9446 55.2132 22.9446 54.5607V54.452C22.8903 53.8539 22.6184 53.3102 22.1291 52.9296C21.6397 52.549 20.9329 52.2771 20.0086 52.2771H7.55759V52.3315L3.42538 52.2228C3.42538 52.0597 3.37101 51.6791 3.31664 51.0266C3.26227 50.211 3.2079 48.9605 3.2079 47.3294C3.2079 47.1663 3.2079 47.0031 3.2079 46.84C3.2079 45.1001 3.42538 44.0671 3.64287 43.5234C3.75161 43.2515 3.86035 43.0884 3.91473 42.9797L4.02347 42.8709C4.40407 42.8166 9.2431 42.2728 14.8977 41.1854C20.4979 40.098 26.8594 38.5756 30.5566 36.4551C30.8285 36.3464 31.0459 36.2376 31.3178 36.1289C32.2421 35.6939 33.0033 35.3133 33.3839 35.0415C34.0907 34.4978 34.5801 33.6822 34.9063 32.921C35.0694 32.5404 35.1782 32.2142 35.2869 31.9423C35.2869 31.8336 35.3413 31.7248 35.3413 31.6705C40.289 30.4743 58.014 26.3421 72.8574 24.6566C80.5781 23.7866 89.9843 23.1886 99.2274 22.6992C99.2274 23.841 98.9555 33.8997 98.9555 40.3155C98.9555 41.8379 98.9556 43.0884 99.0099 44.0127C99.173 49.1236 99.4993 55.7025 99.4993 55.7025L99.8799 57.4424L100.859 60.4328H100.913L101.076 68.4254Z" fill="#3265B1"/>
<path d="M100.695 15.1426L100.477 18.568L99.3354 22.4828C90.0379 22.9721 80.6317 23.5702 72.911 24.4401C58.122 26.0713 40.5057 30.2035 35.4492 31.3996C35.4492 31.3453 35.4492 31.2909 35.4492 31.2365V31.1278C35.4492 31.0734 35.3948 31.019 35.3405 31.019C35.2317 30.9103 35.0686 30.8015 34.7424 30.6384C33.9268 30.1491 32.4044 29.4423 31.2626 29.4423H31.2083C29.5771 29.4966 16.4193 30.9103 12.2871 31.9433H12.2327L12.1783 31.9977C12.1783 31.9977 9.13356 35.3144 9.02482 40.1534V40.3709H9.2423C9.2423 40.3709 17.7242 39.8815 21.1496 39.3378C22.8895 39.066 25.5537 38.2504 28.0004 37.3261C28.1091 37.2717 28.2178 37.2717 28.3266 37.2173C24.6293 38.7941 19.4641 39.9903 14.8969 40.8602C11.9609 41.4039 9.2423 41.8389 7.23057 42.1108C5.21884 42.3826 3.9683 42.5457 3.9683 42.5457C3.91393 42.6001 3.04399 43.1438 3.04399 46.6779V47.1673C3.04399 50.3752 3.31584 52.115 3.31584 52.115V52.1694L7.61117 52.3325C7.61117 55.0511 8.75296 58.2046 9.02482 58.9658H3.53333C3.53333 58.8571 3.5877 58.8027 3.5877 58.694C3.5877 58.4221 3.53333 57.9328 3.42459 57.2259C3.15273 55.2686 2.60902 52.2238 2.60902 52.0607V52.0063L1.141 51.9519L0.869141 44.7749L1.19537 44.6118L1.46722 44.4487L1.52159 44.3943H1.57597C1.79345 44.2312 2.4459 43.7419 2.60902 42.8176C2.77213 41.8389 4.02267 36.9455 4.45764 35.4231C4.67512 34.6619 5.16446 33.7376 5.16446 32.922C5.16446 32.5414 5.05572 32.2152 4.72949 31.9433C4.51201 31.7259 4.18578 31.5627 3.69644 31.5084C5.27321 30.2578 12.5589 24.9295 26.3149 21.341C42.0825 17.2631 63.0698 14.3815 67.7457 14.0552C72.1498 13.7834 75.0858 12.9134 75.4664 12.8047L80.5773 13.5659C86.7756 14.9795 90.5816 15.3601 92.8108 15.3601C95.0944 15.3601 95.8012 14.9795 95.8556 14.9252C96.1275 14.7077 96.3993 14.5446 96.6712 14.3271L100.695 15.1426Z" fill="#3265B1"/>
</svg>
