<svg width="101" height="74" viewBox="0 0 101 74" fill="none" xmlns="http://www.w3.org/2000/svg">
<g clip-path="url(#clip0_7554_21125)">
<path d="M99.4262 21.4521L99.5386 21.4126C99.2015 20.3078 98.0779 19.2818 96.9918 18.9661C96.018 18.6899 93.4337 18.2559 92.4225 18.2559C92.3476 18.2559 92.3101 18.2559 92.2727 18.2559C91.7858 18.2953 91.3738 18.6899 91.0742 19.1634C90.7371 19.6369 90.5124 20.2288 90.4375 20.7418C90.3251 21.3732 90.2502 22.5175 90.2127 23.2672H90.3251V23.1488L88.5273 23.1883L91.2614 26.0688H91.3363C92.3101 25.9899 93.8457 25.8321 94.5573 25.8321H94.6697H94.782C95.3064 25.8321 96.2052 25.7532 96.9918 25.5953C97.8157 25.4769 98.5648 25.2796 98.9393 25.1218C99.3513 24.9245 99.5386 24.3721 99.6509 23.938C99.7633 23.4645 99.7633 23.0699 99.7633 23.0699L99.576 21.4126L99.4262 21.4521H99.3139L99.5011 23.1094C99.5011 23.1094 99.5011 23.1883 99.5011 23.3461C99.4637 23.5829 99.4262 23.938 99.3513 24.2537C99.239 24.5694 99.0891 24.8456 98.8644 24.9245C98.5648 25.0823 97.7783 25.2402 96.9543 25.398C96.1303 25.5164 95.2689 25.6348 94.782 25.6348H94.6697H94.5573C93.8082 25.6348 92.3101 25.7532 91.3363 25.8715V25.9899L91.4112 25.911L89.1266 23.504L90.4375 23.4645V23.3461C90.4749 22.6359 90.5873 21.4915 90.6622 20.8602C90.7371 20.4261 90.9618 19.8342 91.2614 19.4002C91.561 18.9267 91.9356 18.611 92.2727 18.611C92.3101 18.611 92.3476 18.611 92.4225 18.611C93.3588 18.611 95.9805 19.045 96.9169 19.2818C97.8906 19.558 98.9768 20.5445 99.2764 21.531L99.4262 21.4521Z" fill="black" fill-opacity="0.42"/>
<path d="M11.1118 23.3457V23.2274L9.61364 23.1879V23.3063H9.726C9.68855 22.596 9.57619 21.4517 9.50128 20.7809C9.42637 20.2679 9.20165 19.676 8.86458 19.2025C8.5275 18.729 8.11551 18.3344 7.66607 18.2949C7.62862 18.2949 7.55371 18.2949 7.51626 18.2949C6.50503 18.2949 3.95821 18.729 2.94697 19.0052C1.89828 19.3209 0.737235 20.3074 0.400157 21.4517L0.212891 23.109C0.212891 23.109 0.212891 23.543 0.32525 23.9771C0.43761 24.4506 0.587422 24.9636 1.03686 25.1609C1.41139 25.3187 2.16046 25.516 2.98443 25.6344C3.8084 25.7528 4.66982 25.8711 5.19416 25.8711H5.30652H5.41888C6.13049 25.8711 7.66607 25.9895 8.63986 26.1079H8.71476L11.4488 23.2274H11.1492L11.1118 23.3457L11.0369 23.2668L8.56495 25.8711L8.63986 25.9501V25.8317C7.66607 25.7528 6.13049 25.5949 5.41888 25.5949H5.30652H5.19416C4.66982 25.5949 3.8084 25.516 3.02188 25.3582C2.19791 25.2398 1.44885 25.0425 1.11177 24.8847C0.812142 24.7663 0.624876 24.2928 0.549969 23.8587C0.512516 23.7009 0.475063 23.4641 0.475063 23.3063C0.475063 23.1484 0.475063 23.0695 0.475063 23.0695L0.662329 21.4122H0.549969L0.662329 21.4517C0.961954 20.4652 2.0481 19.4787 3.02188 19.2025C3.95821 18.9263 6.57993 18.5317 7.51626 18.5317C7.55371 18.5317 7.62862 18.5317 7.66607 18.5317C8.00315 18.5317 8.37768 18.8868 8.67731 19.3209C8.97694 19.7549 9.20166 20.3468 9.27656 20.7809C9.38892 21.4122 9.46383 22.5565 9.50128 23.2668V23.3852L11.1118 23.4247V23.3457Z" fill="black" fill-opacity="0.42"/>
<path d="M99.1631 21.4919L99.238 21.4524C98.9383 20.5054 97.9271 19.5584 96.9533 19.2821C95.9795 19.0059 93.4327 18.6113 92.4964 18.6113C92.4589 18.6113 92.384 18.6113 92.3466 18.6113C92.0095 18.6508 91.6724 18.9665 91.3728 19.3611C91.1106 19.7951 90.8859 20.3081 90.811 20.7816C90.6986 21.4129 90.6237 22.5967 90.5863 23.2675L90.5488 23.5438V23.5832L91.8222 25.6746H91.8597C92.796 25.5957 93.9571 25.4773 94.5938 25.4773H94.8185C95.8297 25.4773 98.1893 25.1221 98.8634 24.8065C99.0882 24.6881 99.238 24.4119 99.3129 24.0567C99.3878 23.7411 99.4627 23.3465 99.4627 23.0702L99.2754 21.4524L99.1631 21.4919H99.0881L99.2754 23.0702C99.2754 23.3465 99.238 23.7016 99.1256 24.0173C99.0507 24.333 98.9009 24.6092 98.7511 24.6881C98.1518 24.9643 95.7548 25.3589 94.7436 25.3589H94.5189C93.8822 25.3589 92.7211 25.4378 91.7848 25.5562V25.6351L91.8222 25.5957L90.6237 23.5832V23.3465C90.6612 22.6757 90.7735 21.4919 90.8485 20.9C90.9234 20.4659 91.1106 19.9135 91.4103 19.5189C91.6724 19.1243 92.0095 18.8086 92.2717 18.8086C92.3091 18.8086 92.3466 18.8086 92.384 18.8086C93.3204 18.8086 95.8672 19.2032 96.8035 19.4794C97.7398 19.7557 98.7511 20.7027 99.0132 21.5708L99.1631 21.4919Z" fill="black" fill-opacity="0.42"/>
<path d="M0.773891 21.4915L0.848797 21.5309C1.11097 20.6628 2.12221 19.7158 3.05854 19.4396C3.99486 19.1634 6.54168 18.7688 7.47801 18.7688C7.51546 18.7688 7.55292 18.7688 7.59037 18.7688C7.85254 18.7688 8.18962 19.0844 8.45179 19.479C8.71397 19.8736 8.93868 20.3866 9.01359 20.8601C9.12595 21.4915 9.20086 22.6753 9.23831 23.3066V23.5434L8.03981 25.5558L8.07726 25.5953V25.5163C7.14093 25.4374 5.97988 25.319 5.34318 25.319H5.11846C4.14468 25.319 1.74767 24.9639 1.11097 24.6482C0.961157 24.5693 0.811344 24.3326 0.736438 23.9774C0.661531 23.6617 0.586625 23.3066 0.586625 23.0304L0.848797 21.5309L0.773891 21.4915H0.698985L0.511719 23.0699C0.511719 23.3461 0.549172 23.7407 0.661531 24.0563C0.773891 24.372 0.886251 24.6877 1.11097 24.8061C1.78513 25.1217 4.14468 25.4769 5.15591 25.4769H5.38063C5.97988 25.4769 7.17839 25.5558 8.11471 25.6742H8.15217L9.38812 23.5828L9.35067 23.3066C9.31322 22.6358 9.20086 21.452 9.12595 20.8207C9.05104 20.3471 8.82633 19.7947 8.56415 19.4001C8.30198 18.9661 7.9649 18.6504 7.59037 18.6504C7.55292 18.6504 7.51546 18.6504 7.44056 18.6504C6.46677 18.6504 3.91996 19.045 2.98363 19.3212C2.00985 19.5974 0.961157 20.5444 0.698985 21.4915H0.773891Z" fill="black" fill-opacity="0.42"/>
<path d="M33.0591 34.3945V34.4734H66.6921L68.0779 25.082H31.2988L33.0217 34.4734H33.0591V34.3945H33.134L31.4486 25.2399H67.9655L66.6172 34.355H33.0591V34.3945Z" fill="black" fill-opacity="0.42"/>
<path d="M24.7819 25.1613H24.707L24.8194 25.6349V25.6743H75.0441L75.1565 25.1219V25.043H24.707V25.1219L24.7819 25.1613V25.2403H75.1565V25.1613H75.0816L74.9692 25.5954H24.9692L24.8568 25.1613H24.7819Z" fill="black" fill-opacity="0.42"/>
<path d="M72.684 35.8938V35.8149H27.1035L27.7777 38.8533C27.7777 38.8533 27.9275 39.4452 28.4893 40.0765C29.0511 40.6684 29.9874 41.2603 31.5979 41.2603C34.744 41.2603 66.3545 41.2603 68.0773 41.2603C69.8376 41.2603 71.7103 40.4317 72.0099 38.8928C72.1597 38.1825 72.4593 36.9592 72.7215 35.8938H72.684H72.7589V35.3809L72.6466 35.8544C72.3844 36.9198 72.0848 38.143 71.935 38.8533C71.6728 40.2738 69.8376 41.1025 68.1148 41.1025C66.3919 41.1025 34.7814 41.1025 31.6354 41.1025C30.0623 41.1025 29.1634 40.5106 28.6391 39.9582C28.3769 39.6819 28.1897 39.3663 28.1148 39.169C28.0773 39.0506 28.0398 38.9717 28.0024 38.8928C27.9649 38.8138 27.9649 38.8138 27.9649 38.8138L27.3282 35.9333H72.7589V35.8544H72.684V35.8938Z" fill="black" fill-opacity="0.42"/>
<path d="M26.8417 34.396V34.4749H73.1339V34.4354C73.2462 34.0408 73.2837 33.8041 73.2837 33.8041L73.3586 33.4884L75.1938 25.2019L75.5683 21.7689H75.4934C73.5459 21.5322 65.8305 20.6641 50.1002 20.6641C33.2837 20.6641 25.6058 21.6505 24.3698 21.8084H24.2949L24.6695 25.2019L26.5047 33.4884L26.7294 34.4749H26.7668V34.396H26.8417L26.6919 33.4489L24.8567 25.1624L24.4822 21.8478H24.4073V21.9268C25.6432 21.7689 33.3211 20.7824 50.1002 20.7824C65.8305 20.7824 73.5459 21.6505 75.4934 21.8873V21.8084H75.4185L75.044 25.1624L73.2088 33.4489L73.1339 33.7646C73.1339 33.7646 73.059 34.0014 72.9841 34.396H73.059V34.317H26.8417V34.396Z" fill="black" fill-opacity="0.42"/>
<path d="M14.2572 56.4916L14.2947 56.531L14.3321 56.4521C14.5943 56.1364 15.7928 54.7948 18.452 54.7948C21.5231 54.7948 79.0887 54.7948 80.3246 54.7948C80.9239 54.7948 82.2722 55.2288 83.4707 55.6629C84.0699 55.8997 84.6317 56.097 85.0437 56.2548C85.4557 56.4126 85.7179 56.531 85.7179 56.531L85.7553 56.4521V56.3732H14.2572V56.4916V56.5705H86.055L85.7553 56.4521C85.7553 56.4521 84.7066 56.018 83.5456 55.5445C82.3471 55.1105 80.9988 54.637 80.3621 54.637C79.0887 54.637 21.5231 54.637 18.4894 54.637C15.4183 54.637 14.2198 56.4126 14.2198 56.4521L14.1449 56.5705H14.2572V56.4916ZM80.5119 50.8488V50.7699C73.8827 50.7699 17.8153 50.7699 16.9913 50.7699C16.2048 50.7699 11.3733 51.5986 8.1898 53.0191L8.15234 53.0586V53.098C8.52688 54.9526 8.97631 56.7283 9.50066 57.8726C10.6243 60.5164 11.7853 61.5424 13.5081 61.5424H86.5044C88.1898 61.5424 89.3883 60.5164 90.5119 57.8726C90.9613 56.7678 91.4108 55.1499 91.7853 53.4137V53.3743L91.7478 53.3348C90.1748 52.5851 85.8677 50.7305 80.5868 50.7305V50.8488V50.9278C85.8302 50.9278 90.1374 52.7429 91.6729 53.4926L91.7104 53.4137H91.6355C91.261 55.1499 90.849 56.7678 90.3995 57.8332C89.2759 60.477 88.1523 61.424 86.5044 61.424H13.4707C11.8228 61.424 10.6992 60.4375 9.57556 57.8332C9.08867 56.6888 8.63923 54.9526 8.2647 53.098H8.1898L8.22725 53.177C11.3733 51.717 16.2048 50.9278 16.9913 50.9278C17.8527 50.9278 73.8827 50.9278 80.5119 50.9278V50.8488Z" fill="black" fill-opacity="0.42"/>
<path d="M79.7626 22.3995L79.7252 22.439C80.1371 22.6757 80.624 23.1492 81.1109 23.5833C81.5978 24.0173 82.1222 24.4514 82.5341 24.6092C83.2832 24.8854 85.1184 25.3984 85.9424 26.306L86.0547 26.2271L86.0173 26.2665V26.3454L91.6727 26.6611L91.6353 26.5822C91.5229 26.2271 91.448 26.0298 91.448 26.0298L88.6765 23.1098C88.6765 23.1098 86.4667 18.7298 84.1821 14.1919C81.8974 9.69355 79.5379 5.07679 79.2757 4.60328C79.1634 4.44544 79.051 4.20868 78.8637 4.01139L78.6016 3.65625L78.7514 4.05084C79.9499 7.08922 82.684 13.9552 83.0959 15.573C83.1709 15.8492 83.2083 16.1254 83.2083 16.4411C83.2083 18.1773 81.9723 20.3081 79.7252 22.3206L79.6502 22.3995L79.7252 22.439L79.7626 22.3995L79.8001 22.439C82.0473 20.4265 83.3207 18.2957 83.3207 16.4806C83.3207 16.1649 83.2832 15.8492 83.2083 15.573C82.7963 13.9552 80.0622 7.08922 78.8637 4.05084L78.7888 4.0903L78.7514 4.12976C78.9012 4.32706 79.0135 4.52436 79.1259 4.72166C79.3881 5.15571 81.7476 9.77247 84.0323 14.2708C85.1933 16.52 86.3169 18.7692 87.1409 20.4265C87.5529 21.2552 87.9274 21.9654 88.1521 22.439C88.3768 22.9125 88.5267 23.1887 88.5267 23.1887L91.2607 26.0692L91.2982 26.0298L91.2233 26.0692C91.2233 26.0692 91.2982 26.2665 91.4106 26.6217L91.4855 26.5822V26.5033L85.7926 26.1876L85.8675 26.306L85.9049 26.2665L85.9424 26.2271C85.081 25.28 83.2458 24.7671 82.4967 24.4908C82.1222 24.333 81.5978 23.9384 81.1109 23.5044C80.624 23.0703 80.0997 22.5968 79.6877 22.36L79.7626 22.3995Z" fill="black" fill-opacity="0.42"/>
<path d="M17.3664 24.5694L17.4039 24.6483C17.8533 24.4905 18.3402 24.0565 18.8645 23.5829C19.3889 23.1094 19.8758 22.6754 20.2878 22.4386C20.3252 22.3992 20.4001 22.3992 20.4376 22.3597L20.5125 22.3202L20.4376 22.2413C18.2653 20.2683 17.0668 18.2165 17.0668 16.4802C17.0668 16.1646 17.1042 15.8883 17.1791 15.6121C17.6286 13.9154 20.6623 6.22078 21.7484 3.53754L21.8233 3.30078L21.6361 3.45862C21.1117 3.89267 20.887 4.28727 20.6997 4.60294C20.4001 5.037 18.078 9.65376 15.7934 14.1916C13.5087 18.69 11.299 23.1094 11.299 23.1094L8.52745 26.0294C8.52745 26.0294 8.45255 26.2267 8.34019 26.5819L8.30273 26.6608L13.9582 26.3056C14.7821 25.3981 16.6173 24.8851 17.3664 24.6089V24.5694L17.329 24.4905C16.5799 24.7667 14.7447 25.2402 13.8833 26.2267L13.9582 26.2662V26.1873L8.37764 26.5029V26.5819L8.45255 26.6213C8.56491 26.2662 8.63981 26.0689 8.63981 26.0689L8.56491 26.0294L8.60236 26.0689L11.3364 23.1884C11.3364 23.1884 11.4863 22.9121 11.711 22.4386C12.5724 20.7419 14.7072 16.5197 16.6922 12.6132C18.6773 8.70673 20.5125 5.11592 20.7372 4.72132C20.9245 4.40565 21.1492 4.01105 21.6735 3.577L21.6361 3.53754L21.5612 3.49808C20.5125 6.14186 17.4413 13.8759 16.9919 15.5727C16.917 15.8489 16.8795 16.1646 16.8795 16.4802C16.8795 18.2559 18.1155 20.3473 20.2878 22.3597L20.3252 22.3202L20.2878 22.2413C20.2128 22.2808 20.1754 22.2808 20.1379 22.3202C19.726 22.557 19.2016 23.0305 18.6773 23.4646C18.1529 23.9381 17.666 24.3327 17.254 24.4905L17.3664 24.5694Z" fill="black" fill-opacity="0.42"/>
<path d="M93.2087 36.5653H93.2836C93.2836 36.5653 93.2836 34.2767 93.0589 32.1459C92.8716 30.528 92.0102 27.7264 91.6357 26.5426V26.5032L85.8679 26.1875L85.9803 26.3059C86.0552 26.3848 86.1301 26.5032 86.205 26.6216C86.542 27.174 87.2537 28.9102 87.8529 30.4886C88.1525 31.2778 88.4522 32.0275 88.6394 32.5799C88.8641 33.1324 88.9765 33.4875 88.9765 33.4875L89.0514 33.448V33.3691H87.4409V33.448C87.4784 33.7243 87.5158 34.1188 87.5158 34.5529C87.5158 35.421 87.366 36.5259 86.7668 37.394C86.1675 38.3016 85.1188 38.9724 83.3211 39.0907C81.4859 39.1697 79.2761 39.2091 77.1788 39.2091C75.2312 39.2091 73.396 39.1697 71.9353 39.1697H71.8979V39.2091C71.4484 40.4324 69.763 41.1426 68.1525 41.1426C66.4297 41.1426 34.8192 41.1426 31.6731 41.1426C29.351 41.1426 28.4522 39.8799 28.1525 39.2091V39.1697H28.1151C26.6544 39.2091 24.7443 39.2091 22.7593 39.2091C20.6619 39.2091 18.4522 39.1697 16.617 39.0907C14.8192 39.0118 13.7705 38.3016 13.1713 37.394C12.572 36.4864 12.4222 35.421 12.4222 34.5529C12.4222 34.1188 12.4596 33.7243 12.4971 33.448V33.3691H11.0364V33.448L11.1113 33.4875C11.1113 33.4875 11.2237 33.1324 11.4484 32.5799C12.0477 30.9226 13.3585 27.4502 13.8829 26.6216C13.9578 26.5032 14.0327 26.4243 14.1076 26.3059L14.22 26.1875L8.3398 26.5032V26.5426C7.96527 27.7264 7.10385 30.528 6.91658 32.1459C6.69186 34.2372 6.69186 36.5653 6.69186 36.5653H6.76677L6.69186 36.5259L6.42969 37.3151C6.42969 37.3151 6.80422 42.9972 7.10385 46.2329C7.25366 47.7718 7.55328 49.9026 7.92781 51.9545V52.0334L8.00272 51.994C11.1488 50.4945 16.1675 49.6264 16.954 49.6264C17.8155 49.6264 73.8454 49.6264 80.4746 49.6264C86.0177 49.6264 90.5121 51.6388 91.8229 52.3097L91.8979 52.3491V52.2702C92.3098 50.0999 92.6469 47.8113 92.7967 46.1934C93.0964 42.9578 93.4709 37.2756 93.4709 37.2756L93.2462 36.5259L93.2087 36.5653L93.1338 36.6048L93.3585 37.3545L93.4334 37.3151H93.3585C93.3585 37.3151 93.3211 37.6702 93.2836 38.2621C93.1713 39.9983 92.9091 43.8259 92.6844 46.2329C92.5346 47.8507 92.1975 50.0999 91.7855 52.2702H91.8604L91.8979 52.1913C90.587 51.5205 86.0552 49.4686 80.5121 49.4686C73.8829 49.4686 17.8155 49.4686 16.9915 49.4686C16.1675 49.4686 11.1488 50.2972 7.96527 51.8361L8.00272 51.9151H8.07763C7.7031 49.8237 7.40347 47.7324 7.25366 46.1934C7.10385 44.5756 6.91658 42.3659 6.80422 40.5113C6.72931 39.6037 6.69186 38.7751 6.65441 38.1832C6.61695 37.5913 6.5795 37.2361 6.5795 37.2361H6.50459L6.5795 37.2756L6.80422 36.5259C6.80422 36.5259 6.80422 35.934 6.84167 35.1053C6.87913 34.2767 6.91658 33.1718 7.06639 32.1064C7.25366 30.4886 8.11508 27.687 8.48961 26.5032L8.41471 26.4637V26.5426L13.9578 26.3059V26.227L13.9203 26.1875C13.8454 26.3059 13.7331 26.3848 13.6582 26.5032C13.3211 27.0951 12.6095 28.7918 12.0102 30.3702C11.411 31.9486 10.8866 33.3691 10.8866 33.3691L10.8492 33.448H12.3473V33.3691H12.2724C12.2349 33.6453 12.1975 34.0399 12.1975 34.474C12.1975 35.3816 12.3473 36.4864 12.984 37.394C13.6207 38.3016 14.7068 39.0513 16.542 39.1302C18.3773 39.2091 20.587 39.2486 22.6844 39.2486C24.6694 39.2486 26.5795 39.2091 28.0402 39.2091V39.1302L28.0027 39.1697C28.3398 39.8405 29.2761 41.1821 31.6357 41.1821C34.7817 41.1821 66.3922 41.1821 68.1151 41.1821C69.7256 41.1821 71.4484 40.4718 71.9728 39.1697L71.8979 39.1302V39.2091C73.3585 39.2486 75.2312 39.2486 77.1413 39.2486C79.2387 39.2486 81.4484 39.2091 83.2836 39.1302C85.1188 39.0513 86.205 38.3016 86.8417 37.394C87.4784 36.4864 87.6282 35.3421 87.6282 34.474C87.6282 34.0399 87.5907 33.6453 87.5533 33.3691H87.4784V33.448H89.1263L89.0889 33.3691C89.0889 33.3691 88.5645 31.9486 87.9653 30.3702C87.366 28.7918 86.6544 27.0556 86.3173 26.5032C86.2424 26.3848 86.1675 26.3059 86.0926 26.1875L86.0552 26.227V26.3059L91.5982 26.6216V26.5426L91.5233 26.5821C91.8979 27.7659 92.7593 30.5675 92.9465 32.1853C93.0589 33.2113 93.1338 34.3161 93.1713 35.1843C93.2087 36.0129 93.2087 36.6048 93.2087 36.6048V36.5653Z" fill="black" fill-opacity="0.42"/>
<path d="M13.4716 61.5428V61.6612H86.3555L86.2431 61.4639C85.4566 60.2012 83.4716 57.6758 79.9885 57.6758C75.3817 57.6758 19.951 57.6758 18.0784 57.6758C17.2544 57.6758 16.2806 58.1098 15.3443 58.8201C14.4454 59.4909 13.584 60.4379 13.0596 61.4244L12.9473 61.6217H13.1345C13.2469 61.6217 13.3593 61.6217 13.4716 61.6217V61.5428V61.385C13.3593 61.385 13.2469 61.385 13.1345 61.385V61.5033L13.2469 61.5823C13.7712 60.6352 14.5952 59.7277 15.4941 59.0569C16.393 58.3861 17.3293 57.952 18.0784 57.952C19.951 57.952 75.3817 57.952 79.9885 57.952C83.3593 57.952 85.2694 60.359 86.0184 61.5823L86.1308 61.5033V61.385H13.4716V61.5428Z" fill="black" fill-opacity="0.42"/>
<path d="M79.2384 4.64301L79.3508 4.56409C79.3133 4.52463 79.2758 4.48517 79.2384 4.40625L79.0137 4.52463L87.1785 23.4257L89.9126 24.4911V24.2938L88.7141 23.0311L88.6391 23.11L88.7515 23.0311C88.7515 23.0311 86.5418 18.6511 84.2571 14.1133C83.0961 11.8641 81.9725 9.57544 81.0361 7.79976C80.5867 6.93166 80.1747 6.14247 79.8751 5.59003C79.5755 5.0376 79.3882 4.64301 79.3133 4.52463L79.2384 4.64301L79.126 4.72193C79.2009 4.8403 79.3882 5.19544 79.6878 5.74787C80.7365 7.72084 82.9463 12.1008 84.8938 15.9284C85.8676 17.8619 86.7665 19.6771 87.4406 20.9792C88.1148 22.3208 88.5268 23.1495 88.5268 23.1495L89.7253 24.4122L89.8002 24.3333L89.8376 24.2149L87.3657 23.2284L79.2384 4.40625L79.126 4.44571L79.0137 4.52463C79.0511 4.56409 79.0886 4.64301 79.126 4.68247L79.2384 4.64301Z" fill="black" fill-opacity="0.42"/>
<path d="M10.1373 24.3336L10.1747 24.452L12.7216 23.4655L20.8489 4.68283L20.6242 4.56445V4.60391C20.5493 4.72229 20.362 5.07743 20.0624 5.66932C18.0024 9.61526 11.186 23.1104 11.186 23.1104L11.2983 23.1893L11.2234 23.1104L9.65039 24.6888L10.1747 24.4915L10.1373 24.3336L10.2122 24.4126L11.3732 23.1893C11.3732 23.1893 11.523 22.9131 11.7478 22.4396C12.6092 20.7428 14.744 16.5207 16.729 12.6142C17.7403 10.6412 18.6766 8.78662 19.4257 7.36608C19.8002 6.6558 20.0998 6.02445 20.362 5.5904C20.5867 5.15635 20.774 4.84067 20.8114 4.76175L20.8489 4.72229L20.7365 4.64337L20.6242 4.56445L12.5343 23.2682L10.0998 24.2153L10.1373 24.3336Z" fill="black" fill-opacity="0.42"/>
<path d="M81.1488 61.5426V61.3848H18.9766V64.5021H81.2987V61.3848H81.1863V61.5426H81.0739V64.2653H19.2013V61.661H81.1488V61.5426Z" fill="black" fill-opacity="0.42"/>
<path d="M93.2075 36.5644H93.3198C93.3198 36.5644 93.3198 34.2363 93.0951 32.145C92.8329 30.0142 91.4846 25.9498 91.4846 25.9498V25.9104L88.7131 22.9904L88.6382 23.0693L88.7505 22.9904C88.7505 22.9904 86.5408 18.6104 84.2561 14.0725C83.0951 11.8233 81.934 9.53469 81.0352 7.75902C80.5857 6.89091 80.1737 6.10172 79.8741 5.54929C79.5745 4.99685 79.3872 4.60226 79.3123 4.48388C79.0501 4.04983 78.6756 3.41848 77.6644 2.86604C76.6157 2.27415 74.8928 1.76118 71.7842 1.36658C65.6045 0.656313 54.1063 0.261719 49.949 0.261719C45.7917 0.261719 34.2936 0.656313 28.1138 1.36658C25.0427 1.80064 23.3198 2.35307 22.2711 2.94496C21.2224 3.53685 20.8854 4.12875 20.6232 4.5628C20.5483 4.68118 20.361 5.03631 20.0614 5.6282C18.0015 9.57415 11.185 23.0693 11.185 23.0693L11.2973 23.1482L11.2224 23.0693L8.45089 25.9893V26.0287C8.45089 26.0287 7.10258 30.0931 6.84041 32.2239C6.61569 34.3152 6.61569 36.6433 6.61569 36.6433H6.72805L6.61569 36.525L6.35352 37.3142V37.3536C6.35352 37.3536 6.72805 43.0358 7.02767 46.2714C7.36475 49.5071 8.30108 55.2682 9.42468 57.9514C9.98647 59.2931 10.5483 60.2006 11.2224 60.7925C11.8966 61.3844 12.6082 61.6606 13.4696 61.6606H86.4659C87.3273 61.6606 88.0764 61.3844 88.7131 60.7925C89.3872 60.2006 89.949 59.2536 90.5108 57.9514C91.6344 55.2682 92.5707 49.5071 92.9078 46.2714C93.2449 43.0358 93.582 37.3536 93.582 37.3536V37.3142L93.3198 36.525L93.2075 36.5644L93.0951 36.6039L93.3198 37.3536L93.4322 37.3142H93.3198C93.3198 37.3142 93.2824 37.6693 93.2449 38.2612C93.1325 39.9974 92.8704 43.825 92.6457 46.232C92.346 49.4282 91.3722 55.2287 90.2861 57.8331C89.7243 59.1352 89.1625 60.0428 88.5633 60.5952C87.964 61.1477 87.2898 61.3844 86.4659 61.3844H13.4696C12.6457 61.3844 11.9715 61.1477 11.3722 60.5952C10.773 60.0428 10.2112 59.1352 9.6494 57.8331C8.56325 55.2287 7.58947 49.4677 7.28985 46.232C7.14003 44.6142 6.95277 42.4044 6.84041 40.5498C6.7655 39.6423 6.72805 38.8136 6.69059 38.2217C6.65314 37.6298 6.61569 37.2747 6.61569 37.2747H6.50333L6.61569 37.3142L6.87786 36.525V36.4855C6.87786 36.4855 6.87786 35.8936 6.91531 35.065C6.95277 34.2363 6.99022 33.1315 7.14003 32.1055C7.25239 31.0796 7.66438 29.5406 8.03891 28.2779C8.22617 27.6466 8.41344 27.0547 8.5258 26.6601C8.63816 26.2655 8.75052 25.9893 8.75052 25.9893L8.63816 25.9498L8.71307 26.0287L11.4846 23.1087C11.4846 23.1087 11.6344 22.8325 11.8591 22.359C12.7206 20.6623 14.8554 16.4401 16.8404 12.5336C17.8516 10.5606 18.788 8.70604 19.537 7.2855C19.9116 6.57523 20.2112 5.94388 20.4734 5.50983C20.6981 5.07577 20.8854 4.7601 20.9228 4.68118C21.2224 4.24712 21.4846 3.69469 22.4958 3.14226C23.5071 2.58983 25.1925 2.03739 28.2636 1.68226C34.331 1.01145 45.8292 0.616854 49.9865 0.616854C54.1438 0.616854 65.6419 1.01145 71.7842 1.72172C74.8554 2.07685 76.5782 2.62929 77.552 3.18172C78.5633 3.73415 78.8254 4.28658 79.1251 4.72064C79.2 4.83902 79.3872 5.19415 79.6869 5.74658C80.7355 7.71956 82.9453 12.0996 84.8928 15.9271C85.8666 17.8606 86.803 19.6758 87.4397 20.9779C88.1138 22.3196 88.5258 23.1482 88.5258 23.1482L91.2973 26.0682L91.3722 25.9893L91.2599 26.0287C91.2599 26.0287 91.3348 26.2655 91.4846 26.6996C91.8591 27.9228 92.6831 30.606 92.8704 32.145C92.9827 33.1709 93.0576 34.2758 93.0951 35.1044C93.1325 35.9331 93.1325 36.525 93.1325 36.525V36.5644V36.6039L93.2075 36.5644Z" fill="black" fill-opacity="0.42"/>
<path d="M49.9502 18.9261V19.0445H78.4146L78.452 19.005C78.452 19.005 79.2385 18.1764 79.2385 16.9137C79.2385 16.8348 79.2385 16.7558 79.2385 16.6769C79.2011 16.3218 79.0513 15.4931 78.8266 14.4672C78.1524 11.3499 76.879 6.25962 76.879 6.25962L76.8415 6.1807H76.7666C68.2273 4.83908 58.04 4.7207 52.1599 4.7207C51.3359 4.7207 50.6243 4.7207 49.9876 4.7207C49.3509 4.7207 48.6393 4.7207 47.8153 4.7207C41.8977 4.7207 31.7479 4.79962 23.2086 6.1807H23.1337L23.0962 6.25962C23.0962 6.25962 22.5344 8.50881 21.9352 10.9553C21.6355 12.1785 21.3359 13.4412 21.1112 14.4672C20.8865 15.4931 20.7367 16.3218 20.6992 16.6769C20.6992 16.7558 20.6992 16.8348 20.6992 16.9137C20.6992 18.1764 21.4857 18.9656 21.4857 19.005L21.5232 19.0445H49.9876V18.9261V18.7683H21.5232V18.8866L21.5981 18.8077V18.7683C21.4483 18.6104 20.9239 17.9002 20.9239 16.9137C20.9239 16.8348 20.9239 16.7558 20.9239 16.7164C20.9614 16.4007 21.1112 15.5721 21.3359 14.5461C21.673 13.0072 22.1599 10.9553 22.5719 9.298C22.7591 8.46935 22.9464 7.71962 23.0962 7.20665C23.2086 6.69368 23.3209 6.378 23.3209 6.378L23.2086 6.33854V6.45692C31.7479 5.1153 41.8977 5.03638 47.7779 5.03638C48.6018 5.03638 49.3135 5.03638 49.9502 5.03638C50.5869 5.03638 51.2985 5.03638 52.1224 5.03638C58.04 5.03638 68.1899 5.1153 76.6917 6.45692V6.33854L76.5794 6.378C76.5794 6.378 76.7292 6.93043 76.9539 7.79854C77.291 9.1007 77.7779 11.0737 78.1899 12.8888C78.6018 14.6645 78.9389 16.2823 78.9764 16.7558C78.9764 16.8348 78.9764 16.9137 78.9764 16.9531C78.9764 17.545 78.7891 18.0185 78.6393 18.3342C78.5644 18.4921 78.452 18.6104 78.3771 18.7288L78.3022 18.8472L78.2648 18.8866L78.3397 18.9656V18.7683H49.9127V18.9261H49.9502Z" fill="black" fill-opacity="0.42"/>
<path d="M21.8232 18.2163L21.9355 18.1374C21.7857 17.9007 21.561 17.4666 21.561 16.9142C21.561 16.8747 21.561 16.7958 21.561 16.7563C21.5985 16.3223 21.8981 15.0201 22.3101 13.3628C22.722 11.7055 23.2464 9.73256 23.6958 7.91743L23.5835 7.87797V7.99635C31.4486 6.7731 41.1116 6.61527 48.1902 6.61527H52.5348C59.6134 6.61527 68.3775 6.7731 76.2427 7.99635V7.87797L76.1303 7.91743C76.5797 9.73256 77.1041 11.745 77.5161 13.3628C77.928 15.0201 78.2651 16.3223 78.2651 16.7563C78.2651 16.7958 78.2651 16.8747 78.2651 16.9142C78.2651 17.4666 78.0404 17.9007 77.8906 18.1374L78.0029 18.2163V18.098H21.8232V18.2163V18.3742H78.1153L78.1528 18.3347C78.34 18.0585 78.5647 17.585 78.5647 16.9536C78.5647 16.9142 78.5647 16.8353 78.5647 16.7563C78.5273 16.2828 78.2277 14.9807 77.7782 13.3234C77.3662 11.6661 76.8419 9.65364 76.3925 7.87797L76.355 7.79905H76.2801C68.3775 6.57581 59.6134 6.41797 52.5348 6.41797H48.1902C41.1116 6.41797 31.4486 6.57581 23.546 7.79905H23.4711L23.4337 7.87797C22.9842 9.6931 22.4599 11.6661 22.0479 13.3234C21.6359 14.9807 21.3363 16.2828 21.2988 16.7563C21.2988 16.8353 21.2988 16.8747 21.2988 16.9536C21.2988 17.585 21.561 18.098 21.7108 18.3347L21.7483 18.3742H21.8232V18.2163Z" fill="black" fill-opacity="0.42"/>
<path d="M25.0434 25.714L25.006 25.5956L24.9311 25.2405V25.1616V25.1221L24.5566 21.9259V21.8075V21.7286L23.8075 21.1367H23.77C23.77 21.1367 23.0959 21.2946 22.3094 21.5313C21.5978 21.7286 20.8487 21.9654 20.3618 22.1627C20.3243 22.1627 20.2869 22.2021 20.2494 22.2021C20.2494 22.2021 20.212 22.2021 20.212 22.2416C19.7625 22.4783 19.2757 22.9519 18.7513 23.4254C18.227 23.8594 17.7026 24.2935 17.3281 24.4119C16.9161 24.5697 16.167 24.767 15.418 25.1221C14.8187 25.3983 14.2195 25.7535 13.8075 26.1875C13.77 26.227 13.7326 26.2664 13.6951 26.3059C13.6577 26.3454 13.6202 26.4243 13.5828 26.4637C13.2082 27.0556 12.5341 28.7919 11.9348 30.3702C11.3356 31.9486 10.8112 33.3692 10.8112 33.3692L10.7363 33.527H26.7663L25.0434 25.714ZM11.1109 33.3297C11.1858 33.1719 11.2607 32.9351 11.373 32.58C11.6727 31.7513 12.1595 30.4886 12.609 29.3048C13.0584 28.121 13.5453 27.0556 13.77 26.661C14.0697 26.1086 14.7813 25.714 15.4929 25.3983C16.2045 25.0827 16.9536 24.8459 17.3655 24.7275C17.815 24.5697 18.3393 24.1356 18.8262 23.6621C19.3506 23.1886 19.8375 22.7151 20.2494 22.5178C20.624 22.3205 21.5228 22.0443 22.3094 21.8075C22.9461 21.6102 23.5453 21.4919 23.7326 21.4524L24.2944 21.847L24.6689 25.201L26.4667 33.3692H11.1109V33.3297Z" fill="black" fill-opacity="0.42"/>
<path d="M26.5042 33.3304H11.1484C11.2233 33.1726 11.2983 32.9358 11.4106 32.5807C11.7102 31.752 12.1971 30.4893 12.6466 29.3056C13.096 28.1218 13.5829 27.0564 13.8076 26.6618C14.1072 26.1093 14.8188 25.7147 15.5305 25.3991C16.2421 25.0834 16.9911 24.8466 17.4031 24.7283C17.8526 24.5704 18.3769 24.1364 18.8638 23.6629C19.3881 23.1893 19.875 22.7158 20.287 22.5185C20.6615 22.3212 21.5604 22.045 22.3469 21.8083C22.9836 21.611 23.5829 21.4926 23.7702 21.4531L24.332 21.8477L24.7065 25.2018L26.5042 33.3304Z" fill="#3265B1"/>
<path d="M40.3624 5.31253V5.39145C40.3624 5.39145 40.7369 5.39145 41.4111 5.39145C43.3961 5.35199 47.9279 5.27307 52.1976 5.27307C55.044 5.27307 57.8155 5.31253 59.6507 5.39145V5.31253L59.6133 5.27307V5.31253C59.5384 5.43091 59.089 5.94388 58.1526 5.94388C57.0665 5.94388 41.8605 5.94388 41.1114 5.94388V6.0228L41.1489 5.98334C41.1489 5.98334 40.9991 5.90442 40.8493 5.78605C40.6994 5.66767 40.5122 5.47037 40.4747 5.35199L40.3624 5.31253H40.2875C40.3624 5.50983 40.5496 5.70713 40.6994 5.8255C40.8867 5.94388 41.0365 6.06226 41.0365 6.06226C41.7856 6.06226 56.9916 6.06226 58.0777 6.06226C59.2013 6.06226 59.6507 5.35199 59.6507 5.31253L59.7257 5.23361H59.6133C57.7781 5.15469 55.044 5.11523 52.1601 5.11523C46.4298 5.11523 40.3249 5.23361 40.3249 5.23361H40.25L40.2875 5.31253H40.3624Z" fill="black" fill-opacity="0.42"/>
<path d="M88.8265 33.3289H73.4707L75.2685 25.1608L75.643 21.8067L76.2048 21.4121C76.3921 21.4516 76.9539 21.6094 77.628 21.7672C78.4145 22.004 79.3134 22.2408 79.6879 22.4775C80.0625 22.6748 80.5868 23.1483 81.1112 23.6218C81.6355 24.0954 82.1224 24.5294 82.5718 24.6872C82.9838 24.8451 83.7329 25.0424 84.4445 25.3581C85.1561 25.6737 85.8677 26.1078 86.1673 26.6208C86.5044 27.1732 87.1786 28.9094 87.8153 30.4878C88.1149 31.277 88.4145 32.0267 88.6018 32.5791C88.6767 32.8948 88.7891 33.171 88.8265 33.3289Z" fill="#3265B1"/>
<path d="M89.1253 33.4086C89.1253 33.4086 88.601 31.9881 88.0017 30.4097C87.4025 28.8313 86.6909 27.1346 86.3538 26.5032C86.3163 26.4637 86.2789 26.3848 86.2414 26.3454C86.204 26.3059 86.1665 26.2664 86.1291 26.227C85.7171 25.7535 85.1178 25.4378 84.5186 25.1616C83.7695 24.8459 83.0205 24.6092 82.6085 24.4513C82.2339 24.3329 81.7096 23.8989 81.2227 23.4254C80.7733 23.0308 80.3238 22.5967 79.9118 22.36C79.8744 22.3205 79.8369 22.3205 79.7995 22.281C79.7995 22.281 79.762 22.281 79.762 22.2416C79.3126 22.0048 78.4512 21.7286 77.6646 21.5313C76.8781 21.2946 76.204 21.1367 76.204 21.1367H76.1665L76.1291 21.1762L75.4549 21.6892V21.7286V21.847L75.0804 25.0827V25.1221V25.201L75.0055 25.5562L74.968 25.6746L73.1328 33.5664H89.2002L89.1253 33.4086ZM75.2676 25.1616L75.6422 21.8075L76.204 21.4129C76.3912 21.4524 76.953 21.6102 77.6272 21.7681C78.4137 22.0048 79.3126 22.2416 79.6871 22.4783C80.0617 22.6756 80.586 23.1492 81.1103 23.6227C81.6347 24.0962 82.1216 24.5302 82.571 24.6881C82.983 24.8459 83.7321 25.0432 84.4437 25.3589C85.1553 25.6746 85.8669 26.1086 86.1665 26.6216C86.5036 27.174 87.1778 28.9102 87.8145 30.4886C88.1141 31.2778 88.4137 32.0275 88.601 32.58C88.7133 32.8956 88.8257 33.1719 88.8631 33.3297H73.5073L75.2676 25.1616Z" fill="black" fill-opacity="0.42"/>
<path d="M92.7951 46.2339H92.6828C92.3831 49.4301 91.4093 55.2306 90.3232 57.8349C89.7614 59.1371 89.1996 60.0447 88.6004 60.5971C88.0011 61.1495 87.3269 61.3863 86.503 61.3863H81.0723V71.409C81.0723 71.8825 81.1846 72.3166 81.4093 72.6717C81.6341 72.9874 81.9337 73.2241 82.3082 73.2241H91.8962C92.2333 73.2241 92.5704 72.9874 92.7577 72.6717C92.9824 72.356 93.0947 71.8825 93.0947 71.409V44.5371H92.8326C92.7951 45.129 92.7202 45.7209 92.6828 46.2339H92.7951H92.9075C92.9449 45.7209 93.0198 45.129 93.0573 44.5371H92.9449H92.8326V71.409C92.8326 71.8431 92.7202 72.2376 92.5329 72.5139C92.3457 72.7901 92.121 72.9479 91.8588 72.9479H82.2708C82.0086 72.9479 81.7839 72.7901 81.5966 72.5139C81.4093 72.2376 81.297 71.8431 81.297 71.409V61.6625H86.4655C87.327 61.6625 88.076 61.3863 88.7127 60.7944C89.3869 60.2025 89.9487 59.2555 90.5105 57.9533C91.6341 55.2701 92.5704 49.509 92.9075 46.2733L92.7951 46.2339Z" fill="black" fill-opacity="0.42"/>
<path d="M13.4702 61.5437V61.3858C12.6462 61.3858 11.9721 61.1491 11.3728 60.5966C10.7736 60.0442 10.2118 59.1366 9.64999 57.8345C8.67621 55.5458 7.81478 50.7712 7.4028 47.4961H7.14062V71.4085C7.14062 71.882 7.25299 72.3161 7.4777 72.6712C7.70242 72.9869 8.00205 73.2237 8.37658 73.2237H17.9646C18.3017 73.2237 18.6388 72.9869 18.826 72.6712C19.0507 72.3556 19.1631 71.882 19.1631 71.4085V61.3858H13.4702V61.5437V61.662H18.9384V71.4085C18.9384 71.8426 18.826 72.2372 18.6388 72.5134C18.4515 72.7896 18.2268 72.9474 17.9646 72.9474H8.41403C8.15186 72.9474 7.92714 72.7896 7.73988 72.5134C7.55261 72.2372 7.44025 71.8426 7.44025 71.4085V47.4961H7.32789H7.21553C7.62752 50.8107 8.48894 55.5458 9.46272 57.9134C10.0245 59.255 10.5863 60.1626 11.2605 60.7545C11.9346 61.3464 12.6462 61.6226 13.5077 61.6226V61.5437H13.4702Z" fill="black" fill-opacity="0.42"/>
</g>
<defs>
<clipPath id="clip0_7554_21125">
<rect width="100" height="73" fill="white" transform="translate(0.0996094 0.222656)"/>
</clipPath>
</defs>
</svg>
