<svg width="101" height="74" viewBox="0 0 101 74" fill="none" xmlns="http://www.w3.org/2000/svg">
<g clip-path="url(#clip0_7554_21093)">
<path d="M26.0195 21.1855C33.573 20.2624 44.728 20.0587 54.7051 20.1943C64.3532 20.3255 72.8362 20.7727 75.8613 21.1748L75.5684 23.7578L73.5898 32.0469L28.208 32.0107L26.334 23.7393L26.0195 21.1855Z" fill="#3265B1" stroke="#3265B1"/>
<path d="M100.383 20.3013L100.496 20.2638C100.159 19.2151 99.0349 18.2414 97.9488 17.9417C96.975 17.6796 94.3907 17.2676 93.3795 17.2676C93.3046 17.2676 93.2671 17.2676 93.2297 17.2676C92.7428 17.305 92.3308 17.6796 92.0312 18.129C91.6941 18.5784 91.4694 19.1402 91.3945 19.6271C91.2821 20.2264 91.2072 21.3125 91.1698 22.0241H91.2821V21.9118L89.4844 21.9492L92.2185 24.6833H92.2934C93.2671 24.6084 94.8027 24.4586 95.5143 24.4586H95.6267H95.7391C96.2634 24.4586 97.1623 24.3837 97.9488 24.2339C98.7728 24.1215 99.5218 23.9342 99.8964 23.7844C100.308 23.5972 100.496 23.0728 100.608 22.6608C100.72 22.2114 100.72 21.8369 100.72 21.8369L100.533 20.2638L100.383 20.3013H100.271L100.458 21.8743C100.458 21.8743 100.458 21.9492 100.458 22.099C100.421 22.3238 100.383 22.6608 100.308 22.9605C100.196 23.2601 100.046 23.5223 99.8215 23.5972C99.5218 23.747 98.7353 23.8968 97.9113 24.0466C97.0874 24.159 96.2259 24.2713 95.7391 24.2713H95.6267H95.5143C94.7653 24.2713 93.2671 24.3837 92.2934 24.496V24.6084L92.3683 24.5335L90.0836 22.2489L91.3945 22.2114V22.099C91.4319 21.4249 91.5443 20.3387 91.6192 19.7395C91.6941 19.3275 91.9188 18.7657 92.2185 18.3537C92.5181 17.9043 92.8926 17.6047 93.2297 17.6047C93.2671 17.6047 93.3046 17.6047 93.3795 17.6047C94.3158 17.6047 96.9376 18.0166 97.8739 18.2414C98.8477 18.5035 99.9338 19.4399 100.233 20.3762L100.383 20.3013Z" fill="black" fill-opacity="0.42"/>
<path d="M12.0688 22.1006V21.9883L10.5707 21.9508V22.0632H10.683C10.6456 21.389 10.5332 20.3029 10.4583 19.6662C10.3834 19.1793 10.1587 18.6175 9.82161 18.1681C9.48453 17.7186 9.07254 17.3441 8.62311 17.3066C8.58565 17.3066 8.51075 17.3066 8.47329 17.3066C7.46206 17.3066 4.91524 17.7186 3.904 17.9808C2.85532 18.2804 1.69427 19.2168 1.35719 20.3029L1.16992 21.8759C1.16992 21.8759 1.16992 22.2879 1.28228 22.6999C1.39464 23.1493 1.54445 23.6362 1.99389 23.8235C2.36842 23.9733 3.11749 24.1606 3.94146 24.2729C4.76543 24.3853 5.62685 24.4977 6.1512 24.4977H6.26355H6.37591C7.08752 24.4977 8.62311 24.61 9.59689 24.7224H9.67179L12.4059 21.9883H12.1063L12.0688 22.1006L11.9939 22.0257L9.52198 24.4977L9.59689 24.5726V24.4602C8.62311 24.3853 7.08752 24.2355 6.37591 24.2355H6.26355H6.1512C5.62685 24.2355 4.76543 24.1606 3.97891 24.0108C3.15494 23.8984 2.40588 23.7111 2.0688 23.5613C1.76917 23.449 1.58191 22.9995 1.507 22.5875C1.46955 22.4377 1.43209 22.213 1.43209 22.0632C1.43209 21.9134 1.43209 21.8385 1.43209 21.8385L1.61936 20.2654H1.507L1.61936 20.3029C1.91899 19.3666 3.00513 18.4302 3.97891 18.1681C4.91524 17.9059 7.53696 17.5314 8.47329 17.5314C8.51075 17.5314 8.58565 17.5314 8.62311 17.5314C8.96018 17.5314 9.33472 17.8684 9.63434 18.2804C9.93397 18.6924 10.1587 19.2542 10.2336 19.6662C10.346 20.2654 10.4209 21.3516 10.4583 22.0257V22.1381L12.0688 22.1756V22.1006Z" fill="black" fill-opacity="0.42"/>
<path d="M100.12 20.3396L100.195 20.3021C99.8954 19.4032 98.8841 18.5043 97.9104 18.2422C96.9366 17.98 94.3898 17.6055 93.4534 17.6055C93.416 17.6055 93.3411 17.6055 93.3036 17.6055C92.9665 17.6429 92.6295 17.9425 92.3298 18.3171C92.0677 18.7291 91.8429 19.216 91.768 19.6654C91.6557 20.2646 91.5808 21.3882 91.5433 22.0249L91.5059 22.2871V22.3246L92.7793 24.3096H92.8167C93.7531 24.2347 94.9141 24.1223 95.5508 24.1223H95.7755C96.7868 24.1223 99.1463 23.7852 99.8205 23.4856C100.045 23.3733 100.195 23.1111 100.27 22.774C100.345 22.4744 100.42 22.0999 100.42 21.8377L100.232 20.3021L100.12 20.3396H100.045L100.232 21.8377C100.232 22.0999 100.195 22.4369 100.083 22.7366C100.008 23.0362 99.8579 23.2984 99.7081 23.3733C99.1089 23.6354 96.7119 24.01 95.7006 24.01H95.4759C94.8392 24.01 93.6781 24.0849 92.7418 24.1972V24.2721L92.7793 24.2347L91.5808 22.3246V22.0999C91.6182 21.4631 91.7306 20.3396 91.8055 19.7778C91.8804 19.3658 92.0677 18.8414 92.3673 18.4669C92.6295 18.0924 92.9665 17.7927 93.2287 17.7927C93.2662 17.7927 93.3036 17.7927 93.3411 17.7927C94.2774 17.7927 96.8242 18.1673 97.7605 18.4294C98.6969 18.6916 99.7081 19.5905 99.9703 20.4145L100.12 20.3396Z" fill="black" fill-opacity="0.42"/>
<path d="M1.73092 20.3392L1.80583 20.3767C2.068 19.5527 3.07924 18.6538 4.01557 18.3916C4.9519 18.1295 7.49871 17.7549 8.43504 17.7549C8.4725 17.7549 8.50995 17.7549 8.5474 17.7549C8.80957 17.7549 9.14665 18.0546 9.40882 18.4291C9.671 18.8036 9.89572 19.2905 9.97062 19.74C10.083 20.3392 10.1579 21.4628 10.1953 22.0621V22.2868L8.99684 24.1969L9.03429 24.2343V24.1594C8.09796 24.0845 6.93691 23.9722 6.30021 23.9722H6.07549C5.10171 23.9722 2.70471 23.6351 2.068 23.3355C1.91819 23.2606 1.76838 23.0358 1.69347 22.6988C1.61856 22.3991 1.54366 22.0621 1.54366 21.7999L1.80583 20.3767L1.73092 20.3392H1.65602L1.46875 21.8373C1.46875 22.0995 1.5062 22.474 1.61856 22.7737C1.73092 23.0733 1.84328 23.3729 2.068 23.4853C2.74216 23.7849 5.10171 24.122 6.11294 24.122H6.33766C6.93691 24.122 8.13542 24.1969 9.07175 24.3092H9.1092L10.3452 22.3242L10.3077 22.0621C10.2702 21.4253 10.1579 20.3018 10.083 19.7025C10.0081 19.2531 9.78336 18.7287 9.52118 18.3542C9.25901 17.9422 8.92193 17.6426 8.5474 17.6426C8.50995 17.6426 8.4725 17.6426 8.39759 17.6426C7.42381 17.6426 4.87699 18.0171 3.94066 18.2793C2.96688 18.5415 1.91819 19.4403 1.65602 20.3392H1.73092Z" fill="black" fill-opacity="0.42"/>
<path d="M34.0162 32.587V32.6619H67.6491L69.0349 23.748H32.2559L33.9787 32.6619H34.0162V32.587H34.0911L32.4057 23.8979H68.9225L67.5742 32.5495H34.0162V32.587Z" fill="black" fill-opacity="0.42"/>
<path d="M25.739 23.8233H25.6641L25.7764 24.2727V24.3102H76.0011L76.1135 23.7858V23.7109H25.6641V23.7858L25.739 23.8233V23.8982H76.1135V23.8233H76.0386L75.9262 24.2353H25.9262L25.8139 23.8233H25.739Z" fill="black" fill-opacity="0.42"/>
<path d="M73.6411 34.0103V33.9354H28.0605L28.7347 36.8193C28.7347 36.8193 28.8845 37.3811 29.4463 37.9804C30.0081 38.5422 30.9444 39.104 32.5549 39.104C35.701 39.104 67.3115 39.104 69.0343 39.104C70.7946 39.104 72.6673 38.3174 72.9669 36.8568C73.1167 36.1826 73.4164 35.0216 73.6785 34.0103H73.6411H73.716V33.5234L73.6036 33.9729C73.3414 34.9841 73.0418 36.1452 72.892 36.8193C72.6298 38.1676 70.7946 38.9541 69.0718 38.9541C67.3489 38.9541 35.7384 38.9541 32.5924 38.9541C31.0193 38.9541 30.1205 38.3924 29.5961 37.868C29.334 37.6058 29.1467 37.3062 29.0718 37.1189C29.0343 37.0066 28.9969 36.9317 28.9594 36.8568C28.922 36.7819 28.922 36.7819 28.922 36.7819L28.2853 34.0478H73.716V33.9729H73.6411V34.0103Z" fill="black" fill-opacity="0.42"/>
<path d="M27.7988 32.5884V32.6633H74.0909V32.6258C74.2033 32.2513 74.2407 32.0266 74.2407 32.0266L74.3156 31.727L76.1508 23.8618L76.5254 20.6034H76.4505C74.5029 20.3787 66.7875 19.5547 51.0572 19.5547C34.2407 19.5547 26.5628 20.491 25.3269 20.6408H25.252L25.6265 23.8618L27.4617 31.727L27.6864 32.6633H27.7239V32.5884H27.7988L27.649 31.6895L25.8138 23.8244L25.4392 20.6783H25.3643V20.7532C26.6003 20.6034 34.2782 19.667 51.0572 19.667C66.7875 19.667 74.5029 20.491 76.4505 20.7157V20.6408H76.3755L76.001 23.8244L74.1658 31.6895L74.0909 31.9891C74.0909 31.9891 74.016 32.2139 73.9411 32.5884H74.016V32.5135H27.7988V32.5884Z" fill="black" fill-opacity="0.42"/>
<path d="M86.712 53.5241C86.712 53.5241 85.6633 53.1121 84.4648 52.7001C83.2663 52.2882 81.918 51.8762 81.2813 51.8387H19.4087C16.3375 51.8387 15.139 53.5241 15.139 53.5616L15.0641 53.6739H87.0117L86.712 53.5241ZM15.3263 53.5241C15.6259 53.1496 16.8244 51.9511 19.4087 51.9511H81.2813C81.8806 51.9511 83.2289 52.3631 84.4274 52.7751C85.0266 52.9998 85.5884 53.187 86.0004 53.3368C86.1502 53.3743 86.2626 53.4492 86.3749 53.4867H15.3263V53.5241ZM86.712 53.5241C86.712 53.5241 85.6633 53.1121 84.4648 52.7001C83.2663 52.2882 81.918 51.8762 81.2813 51.8387H19.4087C16.3375 51.8387 15.139 53.5241 15.139 53.5616L15.0641 53.6739H87.0117L86.712 53.5241ZM15.3263 53.5241C15.6259 53.1496 16.8244 51.9511 19.4087 51.9511H81.2813C81.8806 51.9511 83.2289 52.3631 84.4274 52.7751C85.0266 52.9998 85.5884 53.187 86.0004 53.3368C86.1502 53.3743 86.2626 53.4492 86.3749 53.4867H15.3263V53.5241ZM86.712 53.5241C86.712 53.5241 85.6633 53.1121 84.4648 52.7001C83.2663 52.2882 81.918 51.8762 81.2813 51.8387H19.4087C16.3375 51.8387 15.139 53.5241 15.139 53.5616L15.0641 53.6739H87.0117L86.712 53.5241ZM15.3263 53.5241C15.6259 53.1496 16.8244 51.9511 19.4087 51.9511H81.2813C81.8806 51.9511 83.2289 52.3631 84.4274 52.7751C85.0266 52.9998 85.5884 53.187 86.0004 53.3368C86.1502 53.3743 86.2626 53.4492 86.3749 53.4867H15.3263V53.5241ZM86.712 53.5241C86.712 53.5241 85.6633 53.1121 84.4648 52.7001C83.2663 52.2882 81.918 51.8762 81.2813 51.8387H19.4087C16.3375 51.8387 15.139 53.5241 15.139 53.5616L15.0641 53.6739H87.0117L86.712 53.5241ZM15.3263 53.5241C15.6259 53.1496 16.8244 51.9511 19.4087 51.9511H81.2813C81.8806 51.9511 83.2289 52.3631 84.4274 52.7751C85.0266 52.9998 85.5884 53.187 86.0004 53.3368C86.1502 53.3743 86.2626 53.4492 86.3749 53.4867H15.3263V53.5241ZM86.712 53.5241C86.712 53.5241 85.6633 53.1121 84.4648 52.7001C83.2663 52.2882 81.918 51.8762 81.2813 51.8387H19.4087C16.3375 51.8387 15.139 53.5241 15.139 53.5616L15.0641 53.6739H87.0117L86.712 53.5241ZM15.3263 53.5241C15.6259 53.1496 16.8244 51.9511 19.4087 51.9511H81.2813C81.8806 51.9511 83.2289 52.3631 84.4274 52.7751C85.0266 52.9998 85.5884 53.187 86.0004 53.3368C86.1502 53.3743 86.2626 53.4492 86.3749 53.4867H15.3263V53.5241ZM86.712 53.5241C86.712 53.5241 85.6633 53.1121 84.4648 52.7001C83.2663 52.2882 81.918 51.8762 81.2813 51.8387H19.4087C16.3375 51.8387 15.139 53.5241 15.139 53.5616L15.0641 53.6739H87.0117L86.712 53.5241ZM15.3263 53.5241C15.6259 53.1496 16.8244 51.9511 19.4087 51.9511H81.2813C81.8806 51.9511 83.2289 52.3631 84.4274 52.7751C85.0266 52.9998 85.5884 53.187 86.0004 53.3368C86.1502 53.3743 86.2626 53.4492 86.3749 53.4867H15.3263V53.5241ZM92.6296 50.6028C92.5922 50.6028 92.5547 50.5653 92.5173 50.5279C90.8693 49.7788 86.6371 48.1309 81.506 48.1309H17.948C17.1615 48.1309 12.4798 48.8799 9.2963 50.2282C9.25884 50.2282 9.22139 50.2657 9.18394 50.2657L9.14648 50.3031V50.3406C9.52102 52.1383 9.97045 53.7863 10.4573 54.8724C11.4686 57.1196 12.5173 58.1683 13.9405 58.3556C14.0903 58.3556 14.2776 58.393 14.4648 58.393H87.4611C89.1465 58.393 90.345 57.4192 91.4686 54.9099C91.918 53.8612 92.3675 52.3256 92.742 50.6777V50.6402L92.6296 50.6028ZM91.3188 54.835C90.1952 57.3443 89.0716 58.2432 87.4236 58.2432H14.4274C14.2776 58.2432 14.1278 58.2432 13.9779 58.2058C12.5547 58.056 11.5435 57.0822 10.5323 54.7975C10.0454 53.7114 9.59592 52.1009 9.22139 50.3406C9.22139 50.3406 9.25884 50.3406 9.2963 50.3031C9.55847 50.1908 9.82064 50.0784 10.1203 49.9661C10.2326 49.9286 10.345 49.8912 10.4573 49.8537C10.6072 49.8162 10.7195 49.7788 10.8693 49.7039C11.0566 49.629 11.2813 49.5915 11.4686 49.5166C11.918 49.3668 12.3675 49.2545 12.8169 49.1421C12.9293 49.1046 13.0416 49.0672 13.154 49.0672C13.2663 49.0297 13.3787 48.9923 13.4911 48.9923C13.566 48.9548 13.6783 48.9548 13.7532 48.9174C13.9779 48.8425 14.2401 48.805 14.4648 48.7676C14.5772 48.7301 14.727 48.7301 14.8394 48.6927C15.2514 48.6178 15.6259 48.5428 16.0004 48.4679C16.1877 48.4305 16.3375 48.393 16.4873 48.393C16.5622 48.393 16.6371 48.3556 16.712 48.3556C16.712 48.3556 16.7495 48.3556 16.7869 48.3556C16.8618 48.3556 16.9742 48.3181 17.0491 48.3181C17.124 48.3181 17.1615 48.3181 17.2364 48.2807C17.3113 48.2807 17.3487 48.2807 17.4236 48.2432C17.4985 48.2432 17.536 48.2432 17.6109 48.2058C17.6858 48.2058 17.7607 48.2058 17.7982 48.2058C17.8731 48.2058 17.948 48.2058 17.9854 48.2058H81.506C81.7682 48.2058 82.0304 48.2058 82.2925 48.2058C82.4049 48.2058 82.5547 48.2058 82.6671 48.2058C82.7794 48.2058 82.9293 48.2058 83.0416 48.2432C83.154 48.2432 83.2663 48.2432 83.3787 48.2807C83.6034 48.2807 83.8281 48.3181 84.0528 48.3556C84.2027 48.3556 84.3525 48.393 84.4648 48.393C84.5397 48.393 84.6521 48.4305 84.727 48.4305C84.9892 48.4679 85.2514 48.5054 85.5135 48.5428C85.7757 48.5803 86.0004 48.6178 86.2626 48.6927C86.3375 48.6927 86.4124 48.7301 86.4499 48.7301C86.5622 48.7676 86.712 48.7676 86.8244 48.805C87.0866 48.8425 87.3113 48.9174 87.536 48.9548C87.7982 49.0297 88.0229 49.0672 88.2851 49.1421C88.5098 49.217 88.7345 49.2545 88.9967 49.3294C89.109 49.3668 89.2214 49.4043 89.3337 49.4417C89.4461 49.4792 89.5585 49.5166 89.6708 49.5541C89.7457 49.5915 89.8206 49.5915 89.8955 49.629C89.9705 49.6664 90.0454 49.6664 90.1203 49.7039C90.2701 49.7413 90.3824 49.7788 90.5322 49.8537C90.7195 49.9286 90.9068 49.9661 91.0566 50.041C91.169 50.0784 91.2813 50.1159 91.3562 50.1533C91.506 50.1908 91.6184 50.2657 91.7308 50.3031C92.0304 50.4155 92.2551 50.5279 92.4798 50.6028C92.4798 50.6028 92.5173 50.6028 92.5547 50.6402C92.1802 52.3256 91.7682 53.8237 91.3188 54.835ZM84.5023 52.6627C83.3038 52.2507 81.9555 51.8387 81.3188 51.8013H19.4087C16.3375 51.8013 15.139 53.4867 15.139 53.5241L15.0641 53.6365H87.0117L86.712 53.5241C86.712 53.5241 85.6633 53.0747 84.5023 52.6627ZM15.3263 53.5241C15.6259 53.1496 16.8244 51.9511 19.4087 51.9511H81.2813C81.8806 51.9511 83.2289 52.3631 84.4274 52.7751C85.0266 52.9998 85.5884 53.187 86.0004 53.3368C86.1502 53.3743 86.2626 53.4492 86.3749 53.4867H15.3263V53.5241ZM86.712 53.5241C86.712 53.5241 85.6633 53.1121 84.4648 52.7001C83.2663 52.2882 81.918 51.8762 81.2813 51.8387H19.4087C16.3375 51.8387 15.139 53.5241 15.139 53.5616L15.0641 53.6739H87.0117L86.712 53.5241ZM15.3263 53.5241C15.6259 53.1496 16.8244 51.9511 19.4087 51.9511H81.2813C81.8806 51.9511 83.2289 52.3631 84.4274 52.7751C85.0266 52.9998 85.5884 53.187 86.0004 53.3368C86.1502 53.3743 86.2626 53.4492 86.3749 53.4867H15.3263V53.5241ZM86.712 53.5241C86.712 53.5241 85.6633 53.1121 84.4648 52.7001C83.2663 52.2882 81.918 51.8762 81.2813 51.8387H19.4087C16.3375 51.8387 15.139 53.5241 15.139 53.5616L15.0641 53.6739H87.0117L86.712 53.5241ZM15.3263 53.5241C15.6259 53.1496 16.8244 51.9511 19.4087 51.9511H81.2813C81.8806 51.9511 83.2289 52.3631 84.4274 52.7751C85.0266 52.9998 85.5884 53.187 86.0004 53.3368C86.1502 53.3743 86.2626 53.4492 86.3749 53.4867H15.3263V53.5241ZM86.712 53.5241C86.712 53.5241 85.6633 53.1121 84.4648 52.7001C83.2663 52.2882 81.918 51.8762 81.2813 51.8387H19.4087C16.3375 51.8387 15.139 53.5241 15.139 53.5616L15.0641 53.6739H87.0117L86.712 53.5241ZM15.3263 53.5241C15.6259 53.1496 16.8244 51.9511 19.4087 51.9511H81.2813C81.8806 51.9511 83.2289 52.3631 84.4274 52.7751C85.0266 52.9998 85.5884 53.187 86.0004 53.3368C86.1502 53.3743 86.2626 53.4492 86.3749 53.4867H15.3263V53.5241ZM86.712 53.5241C86.712 53.5241 85.6633 53.1121 84.4648 52.7001C83.2663 52.2882 81.918 51.8762 81.2813 51.8387H19.4087C16.3375 51.8387 15.139 53.5241 15.139 53.5616L15.0641 53.6739H87.0117L86.712 53.5241ZM15.3263 53.5241C15.6259 53.1496 16.8244 51.9511 19.4087 51.9511H81.2813C81.8806 51.9511 83.2289 52.3631 84.4274 52.7751C85.0266 52.9998 85.5884 53.187 86.0004 53.3368C86.1502 53.3743 86.2626 53.4492 86.3749 53.4867H15.3263V53.5241ZM86.712 53.5241C86.712 53.5241 85.6633 53.1121 84.4648 52.7001C83.2663 52.2882 81.918 51.8762 81.2813 51.8387H19.4087C16.3375 51.8387 15.139 53.5241 15.139 53.5616L15.0641 53.6739H87.0117L86.712 53.5241ZM15.3263 53.5241C15.6259 53.1496 16.8244 51.9511 19.4087 51.9511H81.2813C81.8806 51.9511 83.2289 52.3631 84.4274 52.7751C85.0266 52.9998 85.5884 53.187 86.0004 53.3368C86.1502 53.3743 86.2626 53.4492 86.3749 53.4867H15.3263V53.5241ZM86.712 53.5241C86.712 53.5241 85.6633 53.1121 84.4648 52.7001C83.2663 52.2882 81.918 51.8762 81.2813 51.8387H19.4087C16.3375 51.8387 15.139 53.5241 15.139 53.5616L15.0641 53.6739H87.0117L86.712 53.5241ZM15.3263 53.5241C15.6259 53.1496 16.8244 51.9511 19.4087 51.9511H81.2813C81.8806 51.9511 83.2289 52.3631 84.4274 52.7751C85.0266 52.9998 85.5884 53.187 86.0004 53.3368C86.1502 53.3743 86.2626 53.4492 86.3749 53.4867H15.3263V53.5241ZM86.712 53.5241C86.712 53.5241 85.6633 53.1121 84.4648 52.7001C83.2663 52.2882 81.918 51.8762 81.2813 51.8387H19.4087C16.3375 51.8387 15.139 53.5241 15.139 53.5616L15.0641 53.6739H87.0117L86.712 53.5241ZM15.3263 53.5241C15.6259 53.1496 16.8244 51.9511 19.4087 51.9511H81.2813C81.8806 51.9511 83.2289 52.3631 84.4274 52.7751C85.0266 52.9998 85.5884 53.187 86.0004 53.3368C86.1502 53.3743 86.2626 53.4492 86.3749 53.4867H15.3263V53.5241Z" fill="black" fill-opacity="0.42"/>
<path d="M80.1201 4.3852C80.0826 4.42266 80.0826 4.42266 80.1201 4.3852C80.1201 4.46011 80.1575 4.49756 80.195 4.60992C80.1575 4.57247 80.1575 4.46011 80.1201 4.3852ZM92.592 25.1343V25.0968C92.5171 24.9095 92.4796 24.7597 92.4421 24.6848C92.4421 24.6474 92.4047 24.6099 92.4047 24.6099L89.6706 21.8758C89.5208 21.6137 87.386 17.5687 85.1762 13.4489C83.1538 9.6661 81.0564 5.77097 80.4197 4.64738C80.3448 4.49756 80.2699 4.42266 80.2324 4.34775C80.195 4.3103 80.195 4.27285 80.1575 4.19794C80.0826 4.08558 79.9702 3.93577 79.8579 3.82341L79.5957 3.48633L79.7455 3.86086C79.783 3.93577 79.8204 4.01067 79.8204 4.08558C81.0564 7.08183 83.6407 13.2991 84.0526 14.7597C84.1275 15.0219 84.165 15.2841 84.165 15.5837C84.165 17.2316 82.929 19.2167 80.7568 21.0893C80.7193 21.1268 80.7193 21.1268 80.6818 21.1642L80.6069 21.2391L80.6818 21.2766C81.0938 21.5013 81.5807 21.9507 82.0676 22.3627C82.5545 22.7747 83.0789 23.1867 83.4908 23.3365C84.2399 23.5987 86.0751 24.0856 86.8991 24.947L86.9365 24.9095V24.947H87.0863H87.1612L92.3672 25.2092H92.5545C92.6294 25.2092 92.592 25.1717 92.592 25.1343ZM92.4421 25.0968H92.3672L87.0863 24.8346H86.974C86.1126 23.9358 84.2774 23.4863 83.5283 23.2242C83.1538 23.0743 82.6294 22.6998 82.1425 22.2878C81.6931 21.8758 81.2062 21.4639 80.7942 21.2391L80.8317 21.2017C83.0039 19.2916 84.2399 17.344 84.2399 15.6212C84.2399 15.3215 84.2024 15.0219 84.1275 14.7597C83.7905 13.5987 82.1425 9.47884 80.8317 6.33277C80.6069 5.77097 80.3822 5.20917 80.1575 4.72228C80.1575 4.72228 80.1575 4.72228 80.1575 4.68483C80.12 4.60992 80.0826 4.53502 80.0826 4.46011C80.0826 4.42266 80.0451 4.3852 80.0451 4.34775C80.0826 4.3852 80.0826 4.42266 80.1201 4.46011C80.2324 4.60992 80.5695 5.24663 81.0564 6.18296C81.9927 7.94326 83.5283 10.7522 85.0264 13.5612C86.1875 15.6961 87.3111 17.8309 88.135 19.4039C88.547 20.1904 88.9215 20.8646 89.1463 21.314C89.371 21.7635 89.5208 22.0257 89.5208 22.0257L89.5583 22.0631L90.3822 22.8871L92.2549 24.7597C92.2549 24.7597 92.2549 24.7597 92.2549 24.7972C92.3298 24.7597 92.3672 24.9095 92.4421 25.0968Z" fill="black" fill-opacity="0.42"/>
<path d="M22.5928 3.22403C22.1059 3.59856 21.8437 3.9731 21.6564 4.27272C21.619 4.34763 21.5066 4.49744 21.3943 4.75961C20.6452 6.07047 18.6976 9.74089 16.7501 13.3738C14.5403 17.4937 12.4055 21.5386 12.2557 21.8008L12.1433 21.9132L12.1059 21.9506L9.63395 24.4225L9.5965 24.4974L9.52159 24.5723C9.52159 24.5723 9.52159 24.6098 9.48414 24.6473C9.44669 24.7222 9.40923 24.872 9.33433 25.0592V25.0967C9.33433 25.1341 9.33433 25.1341 9.29688 25.1716H9.44669H9.52159L14.7276 24.9094H14.9898C15.8137 24.048 17.6489 23.5611 18.398 23.2989C18.8474 23.1491 19.3343 22.7371 19.8587 22.2877C20.383 21.8383 20.8699 21.3888 21.2819 21.2016C21.3193 21.1641 21.3943 21.1641 21.4317 21.1267L21.5066 21.0892L21.4317 21.0143C21.3943 20.9768 21.3568 20.9768 21.3568 20.9394C19.2594 19.0667 18.0609 17.1566 18.0609 15.5461C18.0609 15.2465 18.0984 14.9843 18.1733 14.7222C18.6227 13.1491 21.5815 6.03302 22.6677 3.4113C22.6677 3.37384 22.7051 3.33639 22.7051 3.29894L22.78 3.07422L22.5928 3.22403ZM22.4055 3.63602C21.2444 6.44501 18.4355 13.1866 17.986 14.7222C17.9111 14.9843 17.8737 15.284 17.8737 15.5836C17.8737 17.269 19.0722 19.1791 21.1695 21.0517L21.207 21.0892C21.1695 21.0892 21.1695 21.1267 21.1321 21.1267C20.7201 21.3514 20.1958 21.8008 19.7089 22.2128C19.1845 22.6248 18.6976 23.0368 18.2856 23.1866C17.5366 23.4488 15.7388 23.8982 14.8399 24.7971H14.7276L13.4167 24.872L9.48414 25.0967H9.40923C9.48414 24.9094 9.52159 24.7596 9.55905 24.7222V24.6847L11.0197 23.224L11.1321 23.1491L11.4317 22.8495L11.9935 22.2877L12.031 22.2502L12.2931 21.9881C12.2931 21.9881 12.4429 21.7259 12.6677 21.2765C13.5291 19.666 15.6639 15.6585 17.6489 11.9506C18.7725 9.85325 19.8587 7.83077 20.6077 6.40755C21.207 5.32141 21.5815 4.6098 21.6939 4.45999C21.6939 4.45999 21.6939 4.45999 21.6939 4.42253C21.8437 4.16036 22.031 3.86074 22.4055 3.56111C22.4429 3.52366 22.4429 3.56111 22.4055 3.63602Z" fill="black" fill-opacity="0.42"/>
<path d="M94.2407 34.6471C94.2407 34.4598 94.2407 32.3999 94.0159 30.4898C93.8287 28.9916 93.0047 26.4074 92.6302 25.2463C92.6302 25.2089 92.5927 25.1714 92.5927 25.1714V25.134H92.4804H92.4054L87.1245 24.8718H87.0496H86.8624L86.9747 24.9841C87.0496 25.059 87.1245 25.1714 87.1995 25.2838C87.5365 25.8081 88.2481 27.4561 88.8474 28.9542C89.147 29.7032 89.4466 30.4149 89.6339 30.9392C89.7463 31.2763 89.8586 31.501 89.9335 31.6508C89.9335 31.6883 89.9335 31.6883 89.971 31.7257H88.4354V31.8006C88.4354 31.8381 88.4354 31.8755 88.4354 31.913C88.4729 32.1752 88.5103 32.4748 88.5103 32.8493C88.5103 33.6733 88.3605 34.722 87.7613 35.5459C87.162 36.3699 86.1133 37.0441 84.3156 37.1564C82.4804 37.2313 80.2706 37.2688 78.1732 37.2688C76.2631 37.2688 74.4654 37.2313 73.0047 37.2313H72.8549V37.2688C72.8549 37.3062 72.8174 37.3437 72.8174 37.3811C72.78 37.4561 72.7425 37.531 72.7051 37.6059C72.7051 37.6433 72.6676 37.6808 72.6302 37.7182C72.5927 37.7557 72.5553 37.8306 72.5178 37.868C72.4429 37.9429 72.368 38.0178 72.2931 38.0928C72.2182 38.1302 72.1807 38.2051 72.1058 38.2426C72.0309 38.28 71.956 38.3549 71.8811 38.3924C71.8062 38.4298 71.7313 38.4673 71.6564 38.5422C71.5815 38.5796 71.5066 38.6171 71.4317 38.6546C71.4317 38.6546 71.4317 38.6546 71.3942 38.6546C71.3568 38.692 71.2818 38.692 71.2444 38.7295H71.2069C71.2069 38.7295 71.1695 38.7295 71.132 38.7669H71.0946C71.0197 38.7669 70.9822 38.8044 70.9073 38.8044C70.9073 38.8044 70.8699 38.8044 70.8324 38.8044C70.7575 38.8418 70.7201 38.8418 70.6451 38.8793C70.5702 38.8793 70.5328 38.9167 70.4579 38.9167C70.383 38.9542 70.2706 38.9542 70.1957 38.9542C70.1208 38.9542 70.0834 38.9916 70.0084 38.9916C69.9335 38.9916 69.8586 39.0291 69.7463 39.0291C69.6714 39.0291 69.6339 39.0291 69.559 39.0291C69.5215 39.0291 69.4841 39.0291 69.4092 39.0291C69.2968 39.0291 69.2219 39.0291 69.1096 39.0291H32.5553C32.4429 39.0291 32.368 39.0291 32.2556 39.0291C32.1807 39.0291 32.1058 39.0291 32.0684 39.0291C32.0309 39.0291 31.9935 39.0291 31.9186 39.0291H31.8811C31.8436 39.0291 31.7687 39.0291 31.7313 38.9916H31.6938C31.6189 38.9916 31.544 38.9542 31.5066 38.9542C31.4317 38.9542 31.3942 38.9167 31.3193 38.9167C31.2819 38.9167 31.2444 38.9167 31.2069 38.8793C31.1695 38.8793 31.132 38.8418 31.0571 38.8418C30.9073 38.8044 30.795 38.7669 30.6826 38.692C30.6451 38.692 30.6077 38.6546 30.5702 38.6546C30.5328 38.6546 30.4953 38.6171 30.4579 38.6171C30.4204 38.5796 30.383 38.5796 30.3081 38.5422C30.2706 38.5422 30.2706 38.5047 30.2332 38.5047C30.1583 38.4673 30.0833 38.4298 30.0084 38.3549C29.7837 38.2051 29.559 38.0178 29.4092 37.8306C29.3343 37.7557 29.2968 37.6808 29.2594 37.6433C29.2594 37.6433 29.2594 37.6433 29.2219 37.6059C29.1845 37.5684 29.147 37.531 29.147 37.456C29.1096 37.4186 29.1096 37.3811 29.0721 37.3437C29.0347 37.3062 28.9972 37.2313 28.9972 37.1939V37.1564H28.8474C27.3867 37.1939 25.5141 37.1939 23.6039 37.1939C21.5066 37.1939 19.2968 37.1564 17.4616 37.0815C15.6639 37.0066 14.6152 36.3325 14.0159 35.471C13.4167 34.6096 13.2669 33.5984 13.2669 32.7744C13.2669 32.3999 13.3043 32.1002 13.3418 31.8381C13.3418 31.8006 13.3418 31.7632 13.3418 31.7257V31.6508H11.956C11.956 31.6508 11.956 31.6134 11.9935 31.5759C12.0684 31.4261 12.1433 31.1639 12.2931 30.8643C12.9298 29.2913 14.2032 25.9954 14.7275 25.2089C14.8024 25.0965 14.8774 25.0216 14.9523 24.9092L15.0646 24.7969H14.9148H14.8774H14.8024L13.4167 24.8718L9.4841 25.059H9.40919H9.25938V25.0965C9.25938 25.134 9.25938 25.134 9.22192 25.1714C8.84739 26.3325 8.02342 28.9167 7.83616 30.4149C7.61144 32.2875 7.61144 34.3474 7.61144 34.5722L7.38672 35.3212C7.38672 35.3212 7.76125 40.7145 8.06088 43.7856C8.09833 44.1602 8.13578 44.5347 8.21069 44.9841C8.3605 46.2575 8.62267 47.7557 8.9223 49.2538V49.3287L8.99721 49.2913C9.03466 49.2913 9.07211 49.2538 9.10957 49.2538C12.2556 47.8306 17.1995 47.0441 17.986 47.0441H81.5066C86.8998 47.0441 91.2819 48.8793 92.7425 49.5534C92.78 49.5909 92.8174 49.5909 92.8549 49.5909L92.9298 49.6283V49.5534C93.3418 47.4935 93.6789 45.3587 93.8287 43.8231C93.8661 43.3362 93.941 42.7744 93.9785 42.2126C94.0908 40.9392 94.2032 39.5534 94.2781 38.3175C94.3905 36.6321 94.5028 35.3587 94.5028 35.3587L94.2407 34.6471ZM94.3156 36.2575C94.2781 36.7444 94.2407 37.456 94.1657 38.2051C94.0908 39.4411 93.9785 40.9017 93.8287 42.2126C93.7912 42.7744 93.7163 43.3362 93.6789 43.8231C93.529 45.3212 93.192 47.456 92.78 49.4785C92.78 49.4785 92.7425 49.4785 92.7051 49.4411C92.6302 49.4036 92.5178 49.3662 92.4429 49.3287C92.3305 49.2913 92.2182 49.2538 92.1058 49.1789C92.0684 49.1789 92.0309 49.1414 91.9935 49.1414C91.8062 49.0665 91.6189 48.9916 91.4317 48.9167C91.3568 48.8793 91.3193 48.8793 91.2444 48.8418C90.1583 48.4298 88.735 47.9429 87.0122 47.5684C86.75 47.531 86.4878 47.456 86.2257 47.4186C85.926 47.3811 85.589 47.3062 85.2893 47.2688C85.1395 47.2313 84.9897 47.2313 84.8399 47.1939C84.6901 47.1939 84.5403 47.1564 84.3905 47.119L83.8661 47.0815C83.7538 47.0815 83.604 47.0441 83.4916 47.0441C83.2669 47.0441 83.0047 47.0066 82.7425 47.0066C82.5553 47.0066 82.3305 47.0066 82.1058 46.9692C81.8811 46.9692 81.6564 46.9692 81.4317 46.9692H17.9485C17.8362 46.9692 17.6863 46.9692 17.4616 47.0066C17.3493 47.0066 17.2369 47.0441 17.0871 47.0441C17.0122 47.0441 16.9373 47.0441 16.8624 47.0815C16.7875 47.0815 16.7126 47.0815 16.6377 47.119H16.6002C16.4878 47.119 16.3755 47.1564 16.2631 47.1564C15.9635 47.1939 15.6264 47.2688 15.2893 47.3437C15.1021 47.3811 14.8774 47.4186 14.6901 47.4561C14.0534 47.5684 13.3792 47.7557 12.7051 47.9055C12.4804 47.9804 12.2556 48.0178 12.0309 48.0928C11.956 48.0928 11.8811 48.1302 11.8436 48.1677C11.544 48.2426 11.2819 48.3175 11.0197 48.4298C10.8699 48.4673 10.7575 48.5047 10.6451 48.5422C10.4204 48.6171 10.1957 48.692 9.97099 48.7669C9.82118 48.8418 9.67136 48.8793 9.52155 48.9542C9.37174 49.0291 9.22192 49.0665 9.07211 49.1414C9.07211 49.1414 9.03466 49.1414 8.99721 49.1789C8.69758 47.7182 8.47286 46.2575 8.32305 45.0216C8.24814 44.6096 8.21069 44.1976 8.17324 43.8231C8.02342 42.2875 7.83616 40.1901 7.7238 38.4673C7.7238 38.4673 7.7238 38.4673 7.7238 38.4298C7.64889 37.5684 7.61144 36.7819 7.57398 36.2201C7.53653 35.7332 7.49908 35.3961 7.49908 35.3212L7.7238 34.6096C7.7238 34.6096 7.7238 34.0478 7.76125 33.2613C7.7987 32.4748 7.83616 31.4261 7.94852 30.4149C8.13578 28.9167 8.95975 26.295 9.33428 25.134H9.40919L14.6152 24.8718H14.6901C14.6152 24.9467 14.5777 24.9841 14.5403 25.059C14.2032 25.6208 13.4916 27.2313 12.8923 28.7295C12.2931 30.2276 11.7687 31.5759 11.7687 31.5759L11.7313 31.6508H13.1545C13.1545 31.6508 13.1545 31.6883 13.1545 31.7257C13.1171 31.9879 13.0796 32.2875 13.0796 32.662C13.0796 33.5235 13.2294 34.5722 13.8661 35.4336C13.8661 35.4336 13.8661 35.4336 13.9036 35.471C14.5403 36.3325 15.589 37.0066 17.4242 37.0815C19.2594 37.1564 21.4691 37.1939 23.5665 37.1939C25.5141 37.1939 27.4242 37.1564 28.8848 37.119C28.9598 37.2313 29.0347 37.3811 29.147 37.5684C29.147 37.6059 29.1845 37.6059 29.2219 37.6433C29.2594 37.6808 29.2968 37.7182 29.3343 37.7931C29.3717 37.8306 29.3717 37.8306 29.4092 37.868C29.4466 37.9055 29.4841 37.9429 29.5215 37.9804C29.559 38.0178 29.5965 38.0553 29.6339 38.0928C29.6339 38.0928 29.6339 38.0928 29.6714 38.1302C29.7088 38.1677 29.7463 38.2051 29.7837 38.2051C29.8212 38.2426 29.8586 38.28 29.8961 38.3175C29.9335 38.3549 30.0084 38.3924 30.0459 38.4298C30.0833 38.4673 30.1583 38.5047 30.1957 38.5047C30.2706 38.5422 30.3081 38.5796 30.383 38.5796C30.5702 38.6546 30.7575 38.7669 30.9822 38.8044C31.0571 38.8418 31.132 38.8418 31.2069 38.8793C31.2818 38.9167 31.3568 38.9167 31.4317 38.9167C31.5066 38.9167 31.5815 38.9542 31.6938 38.9542C31.7687 38.9542 31.8811 38.9916 31.956 38.9916C32.0309 38.9916 32.1433 38.9916 32.2182 38.9916C32.2931 38.9916 32.4054 38.9916 32.5178 38.9916H69.0347C69.147 38.9916 69.2219 38.9916 69.3343 38.9916C69.4092 38.9916 69.4466 38.9916 69.5216 38.9916C69.5965 38.9916 69.6339 38.9916 69.7088 38.9916C69.8212 38.9916 69.8961 38.9542 70.0084 38.9542C70.0459 38.9542 70.0459 38.9542 70.0834 38.9542C70.1583 38.9542 70.2332 38.9167 70.3081 38.9167C70.3455 38.9167 70.383 38.9167 70.4204 38.8793C70.4579 38.8793 70.4953 38.8418 70.5702 38.8418C70.6451 38.8418 70.7575 38.8044 70.8324 38.7669C70.9073 38.7295 71.0197 38.7295 71.0946 38.692C71.132 38.692 71.132 38.692 71.1695 38.6546H71.2069C71.2819 38.6171 71.3193 38.6171 71.3942 38.5796C71.4317 38.5796 71.4691 38.5422 71.5066 38.5047C71.544 38.4673 71.5815 38.4673 71.6189 38.4298C71.6938 38.3924 71.7313 38.3549 71.8062 38.3175C71.8062 38.3175 71.8437 38.3175 71.8437 38.28C71.8811 38.2426 71.9186 38.2426 71.956 38.2051C71.9935 38.1677 72.0684 38.1302 72.1058 38.0928C72.1058 38.0928 72.1058 38.0928 72.1433 38.0553C72.1807 38.0178 72.2556 37.9804 72.2931 37.9055C72.368 37.868 72.4054 37.7931 72.4804 37.7182C72.4804 37.7182 72.4804 37.7182 72.4804 37.6808C72.5178 37.6433 72.5553 37.6059 72.5927 37.5684C72.6302 37.531 72.6302 37.4935 72.6676 37.456C72.6676 37.456 72.6676 37.456 72.7051 37.4186C72.7425 37.3437 72.78 37.2688 72.8549 37.1939C72.8549 37.1564 72.8923 37.1564 72.8923 37.119C74.353 37.1564 76.1882 37.1564 78.0983 37.1564C80.1957 37.1564 82.4054 37.119 84.2407 37.0441C86.0759 36.9692 87.162 36.2575 87.7987 35.3961C87.7987 35.3587 87.8362 35.3587 87.8362 35.3212C88.4354 34.4598 88.5852 33.4111 88.5852 32.6246C88.5852 32.2501 88.5478 31.9504 88.5103 31.6883C88.5103 31.6883 88.5103 31.6508 88.5103 31.6134H90.0834L90.0459 31.5384C90.0459 31.5384 89.5216 30.1901 88.9223 28.692C88.3231 27.1939 87.6114 25.5459 87.2744 25.0216C87.2369 24.9467 87.1995 24.9092 87.1245 24.8343H87.1995L92.4054 25.0965H92.4804C92.8549 26.2201 93.6789 28.8418 93.8661 30.3399C93.9785 31.3512 94.0534 32.3624 94.0908 33.1864C94.1283 33.9729 94.1283 34.5347 94.1283 34.5347L94.353 35.2463C94.353 35.4336 94.3156 35.7707 94.3156 36.2575Z" fill="black" fill-opacity="0.42"/>
<path d="M87.2748 25.1345C87.2374 25.0596 87.1999 25.0222 87.125 24.9473H87.1999C87.2374 24.9847 87.2748 25.0596 87.3123 25.0971C87.6868 25.6589 88.361 27.3068 88.9602 28.8049C89.5595 30.3031 90.0838 31.6514 90.0838 31.6514L90.1587 31.8012H88.5108C88.5108 31.8012 88.5108 31.7637 88.5108 31.7263H90.0838L90.0463 31.6514C90.0463 31.6514 89.522 30.3031 88.9228 28.8049C88.3235 27.3068 87.6119 25.6963 87.2748 25.1345Z" fill="#3265B1"/>
<path d="M13.1915 31.8012H11.6934L11.7683 31.6514C11.7683 31.6514 12.2926 30.3031 12.8919 28.8049C13.4911 27.3068 14.2027 25.6963 14.5398 25.0971C14.5773 25.0596 14.6147 24.9847 14.6522 24.9473H14.7271C14.6522 25.0222 14.6147 25.0596 14.5773 25.1345C14.2402 25.6963 13.5286 27.3068 12.9293 28.8049C12.3301 30.3031 11.8057 31.6514 11.8057 31.6514L11.7683 31.7263H13.1915C13.1915 31.7637 13.1915 31.8012 13.1915 31.8012Z" fill="#3265B1"/>
<path d="M87.2751 58.3911L87.2002 58.2788L87.1627 58.2413C86.3762 57.0054 84.3912 54.7207 80.9455 54.7207H18.9979C18.174 54.7207 17.2002 55.1327 16.3013 55.8068C15.4024 56.4436 14.5785 57.305 14.0541 58.2413C14.0541 58.2413 14.0167 58.2788 14.0167 58.3162L13.9418 58.4286L13.9043 58.5035H14.0167C14.0916 58.5035 14.129 58.5035 14.2039 58.5035C14.2788 58.5035 14.3537 58.5035 14.4286 58.5035H87.2751V58.3911ZM16.4511 55.9567C17.35 55.32 18.2863 54.908 19.0354 54.908H80.9455C84.129 54.908 86.0391 56.9679 86.8631 58.1664H14.4286C14.3912 58.1664 14.3537 58.1664 14.3163 58.1664C14.8406 57.3799 15.6271 56.5559 16.4511 55.9567Z" fill="black" fill-opacity="0.42"/>
<path d="M80.1954 4.34777L80.3078 4.27286C80.2703 4.23541 80.2329 4.19795 80.1954 4.12305L79.9707 4.23541L88.1355 22.1755L90.8696 23.1867V22.9995L89.6711 21.8009L89.5962 21.8759L89.7085 21.8009C89.7085 21.8009 87.4988 17.6436 85.2141 13.3365C84.0531 11.2017 82.9295 9.02941 81.9932 7.34402C81.5437 6.52005 81.1318 5.77099 80.8321 5.24664C80.5325 4.7223 80.3452 4.34777 80.2703 4.23541L80.1954 4.34777L80.0831 4.42267C80.158 4.53503 80.3452 4.87211 80.6449 5.39645C81.6936 7.26911 83.9033 11.4264 85.8509 15.0594C86.8246 16.8946 87.7235 18.6174 88.3977 19.8534C89.0718 21.1268 89.4838 21.9133 89.4838 21.9133L90.6823 23.1118L90.7572 23.0369L90.7947 22.9245L88.3228 21.9882L80.1954 4.12305L80.0831 4.1605L79.9707 4.23541C80.0082 4.27286 80.0456 4.34777 80.0831 4.38522L80.1954 4.34777Z" fill="black" fill-opacity="0.42"/>
<path d="M11.0943 23.0375L11.1318 23.1498L13.6786 22.2135L21.8059 4.3858L21.5812 4.27344V4.31089C21.5063 4.42325 21.319 4.76033 21.0194 5.32213C18.9595 9.06745 12.143 21.8764 12.143 21.8764L12.2554 21.9513L12.1805 21.8764L10.6074 23.3746L11.1318 23.1873L11.0943 23.0375L11.1692 23.1124L12.3303 21.9513C12.3303 21.9513 12.4801 21.6892 12.7048 21.2397C13.5662 19.6292 15.7011 15.6218 17.6861 11.9139C18.6973 10.0412 19.6336 8.28093 20.3827 6.93261C20.7572 6.25846 21.0569 5.65921 21.319 5.24722C21.5438 4.83524 21.731 4.53561 21.7685 4.4607L21.8059 4.42325L21.6936 4.34834L21.5812 4.27344L13.4913 22.0262L11.0569 22.9251L11.0943 23.0375Z" fill="black" fill-opacity="0.42"/>
<path d="M19.9336 58.2051V61.1639H82.2557V58.2051H19.9336ZM81.9935 60.9017H20.1583V58.4298H81.9935V60.9017Z" fill="black" fill-opacity="0.42"/>
<path d="M94.3143 34.6476C94.3143 34.4229 94.3143 32.363 94.0896 30.4903C93.8649 28.6551 92.7038 25.2844 92.5165 24.6851C92.4791 24.6476 92.4791 24.6102 92.4791 24.6102V24.5727L92.4042 24.4978L92.3667 24.4604L90.569 22.6626L90.1195 22.2132L89.8948 21.951L89.745 21.8387V21.8012C89.745 21.7638 89.7076 21.7263 89.6701 21.6888C89.6326 21.6139 89.5952 21.539 89.5577 21.4641C89.5203 21.4267 89.5203 21.3892 89.4828 21.3143C89.4454 21.2769 89.4079 21.202 89.3705 21.127C89.333 21.0147 89.2581 20.9398 89.1832 20.8274C89.1083 20.6776 88.9959 20.4903 88.921 20.3405C88.8836 20.2656 88.8461 20.1907 88.8087 20.0784C88.7712 20.0409 88.7338 19.966 88.7338 19.9285C88.6214 19.7038 88.4716 19.4791 88.3592 19.2169C88.2843 19.0671 88.172 18.8799 88.0971 18.73C87.9473 18.4304 87.7974 18.1682 87.6476 17.8312C87.5727 17.6439 87.4604 17.4566 87.348 17.2694C87.3105 17.2319 87.3105 17.1945 87.2731 17.1196C87.1607 16.9323 87.0484 16.745 86.936 16.5203C86.8237 16.2581 86.6738 16.0334 86.524 15.7712C86.4491 15.6589 86.4117 15.5465 86.3368 15.3967C85.9997 14.7226 85.6252 14.0484 85.2506 13.3742C84.127 11.2394 82.9285 9.06712 82.0296 7.38173C81.5802 6.55776 81.1682 5.8087 80.9061 5.28435C80.6064 4.76001 80.4192 4.38548 80.3443 4.27312C80.3068 4.23566 80.3068 4.19821 80.2693 4.16076C80.0072 3.74877 79.6326 3.22443 78.6963 2.73753C77.6476 2.17574 75.9248 1.65139 72.8162 1.31431C66.6364 0.640157 55.1383 0.265625 50.981 0.265625C46.8237 0.265625 35.3255 0.640157 29.1458 1.31431C25.9997 1.65139 24.2768 2.17574 23.2281 2.73753C22.2169 3.26188 21.8424 3.86113 21.5802 4.27312C21.5802 4.31057 21.5428 4.34802 21.5053 4.38548C21.5053 4.42293 21.4679 4.46038 21.4304 4.46038C21.3929 4.53529 21.3555 4.61019 21.2806 4.72255C21.2057 4.87237 21.0933 5.05963 20.981 5.2469C20.9061 5.35926 20.8311 5.47162 20.7937 5.62143C20.7188 5.77124 20.6439 5.8836 20.569 6.03342C20.5315 6.10832 20.4941 6.14577 20.4941 6.22068C20.4192 6.33304 20.3817 6.4454 20.3068 6.55776C20.2693 6.63267 20.2319 6.70757 20.1944 6.78248C20.1195 6.96975 20.0072 7.11956 19.8948 7.30682C19.7825 7.49409 19.7076 7.68136 19.5952 7.86862C19.1083 8.73005 18.584 9.70383 18.0596 10.7525C17.9847 10.9398 17.8723 11.127 17.76 11.3143C17.6851 11.4267 17.6476 11.539 17.5727 11.6514C17.4978 11.7638 17.4604 11.8761 17.3855 11.9885C17.2731 12.2132 17.1233 12.4379 17.0109 12.6626C16.936 12.8499 16.8237 12.9997 16.7113 13.187C16.5615 13.4866 16.4117 13.7488 16.2619 14.0484C16.112 14.348 15.9248 14.6476 15.775 14.9473C15.7001 15.0596 15.6626 15.2094 15.5877 15.3218C15.5128 15.4716 15.4379 15.584 15.363 15.7338C15.2506 15.9211 15.1757 16.1083 15.0634 16.2956C14.8761 16.6327 14.6888 17.0072 14.5016 17.3443C14.3892 17.5315 14.3143 17.7188 14.2019 17.8686C14.0896 18.0559 14.0147 18.2806 13.9023 18.4679C13.5652 19.142 13.2281 19.7038 12.966 20.2282C12.8911 20.3405 12.8162 20.4529 12.7787 20.6027C12.6664 20.8274 12.5914 20.9772 12.4791 21.1645C12.4791 21.202 12.4416 21.2394 12.4042 21.2769C12.2544 21.5765 12.142 21.8012 12.1046 21.8387L11.9547 21.951L11.9173 21.9885L11.73 22.1757L9.48283 24.4978L9.40792 24.5727V24.6102C9.40792 24.6102 9.40793 24.6476 9.37047 24.6851C9.18321 25.2469 8.02216 28.6177 7.79744 30.4529C7.57272 32.3256 7.57272 34.3855 7.57272 34.6102L7.31055 35.3593C7.31055 35.3593 7.68508 40.7525 7.9847 43.8237C8.02216 44.1982 8.05961 44.5727 8.13452 45.0222C8.13452 45.1345 8.17197 45.2094 8.17197 45.3218C8.17197 45.4342 8.20942 45.5091 8.20942 45.6214C8.20942 45.7338 8.24688 45.8461 8.24688 45.9211C8.28433 46.1083 8.28433 46.2956 8.32178 46.4829C8.32178 46.5578 8.35924 46.6327 8.35924 46.7076C8.43414 47.1196 8.50905 47.569 8.58395 47.981C8.62141 48.2432 8.65886 48.5053 8.73377 48.7675C8.73377 48.805 8.73377 48.8799 8.77122 48.9173C8.88358 49.4791 8.99594 50.0409 9.1083 50.6027C9.14575 50.8274 9.22066 51.0521 9.25811 51.2769C9.29557 51.3892 9.29557 51.5016 9.33302 51.6139C9.55774 52.5503 9.81991 53.4117 10.0446 54.1233C10.0821 54.1982 10.0821 54.2731 10.1195 54.348C10.1944 54.5353 10.2693 54.7226 10.3443 54.9098C10.9061 56.1832 11.4679 57.0446 12.142 57.6064C12.6664 58.0559 13.2281 58.3181 13.8649 58.393C13.9023 58.393 13.9398 58.393 13.9772 58.393C14.0521 58.393 14.0896 58.393 14.1645 58.393C14.2394 58.393 14.3143 58.393 14.3892 58.393H87.3855C88.2469 58.393 88.9959 58.1308 89.6326 57.569C90.3068 57.0072 90.8686 56.1083 91.4304 54.8724C92.4791 52.5503 93.3405 47.7563 93.715 44.6102C93.7525 44.3106 93.7899 44.0484 93.7899 43.7862C93.7899 43.599 93.8274 43.4117 93.8649 43.187C93.9023 42.8873 93.9398 42.5503 93.9398 42.2132V42.1757C94.2019 39.142 94.4641 35.3218 94.4641 35.3218V35.2844L94.3143 34.6476ZM92.7038 49.6664C92.6289 49.966 92.5914 50.2656 92.5165 50.5653C92.5165 50.6027 92.5165 50.6402 92.4791 50.6776V50.7151C92.1046 52.363 91.6926 53.8611 91.2431 54.8349C90.6813 56.0709 90.1195 56.9323 89.5203 57.4566C89.4454 57.5315 89.3705 57.569 89.2956 57.6439C89.2207 57.6814 89.1832 57.7188 89.1083 57.7563C89.0708 57.7563 89.0708 57.7937 89.0334 57.7937C89.0334 57.7937 88.9959 57.7937 88.9959 57.8312C88.921 57.8686 88.8836 57.9061 88.8087 57.9435C88.7338 57.981 88.6589 58.0184 88.5465 58.0559C88.4716 58.0933 88.3592 58.1308 88.2843 58.1308C88.0222 58.2057 87.7225 58.2432 87.4229 58.2432H14.4267C14.3892 58.2432 14.3517 58.2432 14.3143 58.2432C14.2394 58.2432 14.127 58.2432 14.0521 58.2432C13.9023 58.2432 13.7525 58.2057 13.6027 58.1682C13.5278 58.1308 13.4154 58.1308 13.3405 58.0933C13.2656 58.0559 13.1907 58.0559 13.1158 58.0184H13.0783C13.0034 57.981 12.9285 57.9435 12.8536 57.9061C12.7787 57.8686 12.6664 57.7937 12.5914 57.7188C12.5165 57.6814 12.4416 57.6064 12.3667 57.5315C12.0671 57.2694 11.7675 56.9323 11.4678 56.4828C11.3929 56.3705 11.318 56.2581 11.2431 56.1458C11.0184 55.7712 10.8311 55.3593 10.6064 54.9098C10.569 54.8349 10.5315 54.76 10.5315 54.6851C10.4566 54.4604 10.3443 54.2357 10.2693 53.9735C10.2693 53.936 10.2319 53.8986 10.2319 53.8237C10.1944 53.6739 10.1195 53.5241 10.0821 53.3742C10.0446 53.2244 9.96972 53.0372 9.93227 52.8873C9.85736 52.6626 9.81991 52.4379 9.745 52.2132C9.63264 51.8387 9.55774 51.4267 9.44538 51.0147C9.40792 50.8274 9.37047 50.6402 9.33302 50.4529C9.33302 50.4154 9.29557 50.378 9.29557 50.3405C9.22066 50.0784 9.18321 49.8162 9.14575 49.554L9.1083 49.3667C9.1083 49.3293 9.1083 49.2918 9.07085 49.2544C9.07085 49.1795 9.03339 49.1046 9.03339 49.0297C9.03339 48.9922 9.03339 48.9173 8.99594 48.8799C8.95849 48.6177 8.92103 48.393 8.88358 48.1308C8.84613 47.8686 8.80867 47.6439 8.77122 47.4192C8.62141 46.6327 8.50905 45.8461 8.43414 45.1345C8.39669 44.7226 8.32178 44.3106 8.28433 43.936C8.13452 42.4005 7.94725 40.3031 7.83489 38.5428V38.5053C7.75998 37.6439 7.72253 36.8948 7.68508 36.333C7.64763 35.8461 7.64763 35.5465 7.61017 35.4716L7.83489 34.76C7.83489 34.76 7.83489 34.1982 7.87234 33.4117C7.9098 32.6252 7.94725 31.5765 8.05961 30.6027C8.17197 29.6289 8.58395 28.1682 8.95849 26.9697C9.14575 26.3705 9.33302 25.8087 9.44538 25.4342C9.44538 25.3967 9.48283 25.3593 9.48283 25.3593C9.48283 25.3218 9.52028 25.2844 9.52028 25.2469C9.59519 25.0596 9.63264 24.9098 9.63264 24.8724L11.1682 23.3368L11.2057 23.2993L11.6177 22.8873L12.3667 22.1383C12.3667 22.1383 12.4416 22.0259 12.5165 21.8387C12.554 21.7638 12.5914 21.6888 12.6664 21.5765C12.7038 21.539 12.7413 21.4641 12.7413 21.4267C12.8162 21.3143 12.8536 21.202 12.9285 21.0521C12.966 20.9772 13.0409 20.8649 13.0783 20.7525C13.1532 20.6402 13.1907 20.5278 13.2656 20.378C13.3031 20.3031 13.3405 20.2282 13.4154 20.1158C13.4529 20.0409 13.4903 19.966 13.5278 19.8911C13.6401 19.7038 13.715 19.5166 13.8274 19.3293C14.5016 18.0559 15.3255 16.5203 16.2244 14.8724C16.3368 14.6476 16.4866 14.4229 16.5989 14.1608C16.9735 13.4491 17.348 12.7375 17.7225 12.0634C18.2094 11.127 18.6963 10.2282 19.1458 9.36675C19.2581 9.14203 19.3705 8.91731 19.5203 8.69259C19.5952 8.54278 19.6701 8.43042 19.745 8.28061C19.9323 7.94353 20.1195 7.60645 20.2693 7.30682C20.3068 7.23192 20.3443 7.11956 20.4192 7.04465C20.7937 6.37049 21.0933 5.77124 21.3555 5.35926C21.5802 4.94727 21.7675 4.64765 21.8049 4.57274C21.8049 4.57274 21.8049 4.57274 21.8049 4.53529C21.9547 4.31057 22.1046 4.0484 22.4042 3.78622C22.4791 3.71132 22.554 3.67386 22.6289 3.59896C22.8162 3.44915 23.0409 3.29933 23.3405 3.11207C24.3517 2.58772 26.0371 2.06338 29.1083 1.7263C35.2881 0.902329 46.7862 0.527797 50.9435 0.527797C55.0634 0.527797 66.5989 0.902329 72.7413 1.57649C75.8124 1.91357 77.5353 2.43791 78.509 2.96225C79.2207 3.33679 79.5952 3.71132 79.8199 4.08585C79.8574 4.16076 79.9323 4.23566 79.9697 4.27312C80.0072 4.31057 80.0446 4.38548 80.0446 4.42293C80.0821 4.46038 80.1195 4.53529 80.157 4.64765C80.157 4.64765 80.157 4.64765 80.157 4.6851C80.2693 4.87237 80.4192 5.09709 80.569 5.43416C80.6439 5.58398 80.7562 5.73379 80.8311 5.92106C80.8686 5.99596 80.9061 6.03341 80.9435 6.10832C81.0933 6.37049 81.2431 6.63267 81.3929 6.93229C81.7675 7.60645 82.2169 8.43042 82.6664 9.29184C82.7413 9.44166 82.8162 9.59147 82.9285 9.74128C83.4903 10.79 84.0896 11.9136 84.6888 13.0372C85.0634 13.7488 85.4379 14.4604 85.8124 15.1345C86.2993 16.0709 86.7862 16.9323 87.1982 17.7563C87.6476 18.5802 88.0222 19.3293 88.3592 19.9285C89.0334 21.1645 89.4454 21.9885 89.4454 21.9885L92.1795 24.7226C92.1795 24.76 92.2544 24.9098 92.3293 25.0971C92.3293 25.1345 92.3667 25.172 92.3667 25.2094C92.3667 25.2469 92.3667 25.2843 92.4042 25.2843C92.7787 26.4454 93.6027 28.9922 93.7899 30.4529C93.9023 31.4267 93.9772 32.4754 93.9772 33.2619C94.0147 34.0484 94.0147 34.6102 94.0147 34.6102V34.6476L94.2394 35.3218C94.2394 35.3967 94.2019 35.7338 94.2019 36.1832C94.1645 36.6701 94.127 37.3443 94.0521 38.0933C93.9772 39.3293 93.8649 40.79 93.715 42.1383C93.715 42.1757 93.715 42.2506 93.715 42.2881C93.6776 42.8124 93.6401 43.2993 93.5652 43.7488C93.5652 43.936 93.5278 44.1233 93.4903 44.348C93.4903 44.4604 93.4529 44.5353 93.4529 44.6476C93.4529 44.76 93.4154 44.8724 93.4154 44.9847C93.4154 45.0971 93.378 45.2094 93.378 45.3218C93.378 45.4342 93.3405 45.5465 93.3405 45.6589C93.3031 45.8461 93.2656 46.0709 93.2656 46.2581C93.1532 47.0072 93.0034 47.8312 92.8536 48.6177C92.8162 48.8799 92.7413 49.142 92.7038 49.3667C92.7038 49.4042 92.7038 49.4417 92.6664 49.4791C92.7038 49.5915 92.7038 49.6289 92.7038 49.6664Z" fill="black" fill-opacity="0.42"/>
<path d="M50.9072 17.905V18.0174H79.3716L79.4091 17.9799C79.4091 17.9799 80.1956 17.1934 80.1956 15.9949C80.1956 15.92 80.1956 15.8451 80.1956 15.7702C80.1581 15.4331 80.0083 14.6466 79.7836 13.6728C79.1094 10.714 77.836 5.88255 77.836 5.88255L77.7986 5.80764H77.7237C69.1843 4.53423 58.9971 4.42188 53.1169 4.42188C52.293 4.42188 51.5813 4.42188 50.9446 4.42188C50.3079 4.42188 49.5963 4.42188 48.7724 4.42188C42.8548 4.42188 32.7049 4.49678 24.1656 5.80764H24.0907L24.0533 5.88255C24.0533 5.88255 23.4915 8.01738 22.8922 10.3395C22.5926 11.5005 22.293 12.699 22.0682 13.6728C21.8435 14.6466 21.6937 15.4331 21.6562 15.7702C21.6562 15.8451 21.6562 15.92 21.6562 15.9949C21.6562 17.1934 22.4428 17.9425 22.4428 17.9799L22.4802 18.0174H50.9446V17.905V17.7552H22.4802V17.8676L22.5551 17.7927V17.7552C22.4053 17.6054 21.881 16.9312 21.881 15.9949C21.881 15.92 21.881 15.8451 21.881 15.8076C21.9184 15.508 22.0682 14.7215 22.293 13.7477C22.63 12.287 23.1169 10.3395 23.5289 8.76644C23.7162 7.97993 23.9034 7.26832 24.0533 6.78143C24.1656 6.29453 24.278 5.99491 24.278 5.99491L24.1656 5.95746V6.06982C32.7049 4.79641 42.8548 4.7215 48.7349 4.7215C49.5589 4.7215 50.2705 4.7215 50.9072 4.7215C51.5439 4.7215 52.2555 4.7215 53.0795 4.7215C58.9971 4.7215 69.1469 4.79641 77.6488 6.06982V5.95746L77.5364 5.99491C77.5364 5.99491 77.6862 6.51925 77.9109 7.34322C78.248 8.57918 78.7349 10.4518 79.1469 12.1747C79.5589 13.8601 79.896 15.3957 79.9334 15.8451C79.9334 15.92 79.9334 15.9949 79.9334 16.0324C79.9334 16.5942 79.7461 17.0436 79.5963 17.3432C79.5214 17.493 79.4091 17.6054 79.3342 17.7178L79.2592 17.8301L79.2218 17.8676L79.2967 17.9425V17.7552H50.8697V17.905H50.9072Z" fill="black" fill-opacity="0.42"/>
<path d="M22.7802 17.2317L22.8926 17.1568C22.7428 16.9321 22.518 16.5201 22.518 15.9957C22.518 15.9583 22.518 15.8834 22.518 15.8459C22.5555 15.434 22.8551 14.198 23.2671 12.625C23.6791 11.0519 24.2034 9.17927 24.6529 7.45642L24.5405 7.41897V7.53133C32.4057 6.37028 42.0686 6.22047 49.1472 6.22047H53.4918C60.5705 6.22047 69.3345 6.37028 77.1997 7.53133V7.41897L77.0873 7.45642C77.5368 9.17927 78.0611 11.0894 78.4731 12.625C78.8851 14.198 79.2222 15.434 79.2222 15.8459C79.2222 15.8834 79.2222 15.9583 79.2222 15.9957C79.2222 16.5201 78.9974 16.9321 78.8476 17.1568L78.96 17.2317V17.1193H22.7802V17.2317V17.3815H79.0723L79.1098 17.3441C79.2971 17.0819 79.5218 16.6325 79.5218 16.0332C79.5218 15.9958 79.5218 15.9208 79.5218 15.8459C79.4843 15.3965 79.1847 14.1605 78.7353 12.5875C78.3233 11.0145 77.7989 9.10436 77.3495 7.41897L77.312 7.34406H77.2371C69.3345 6.18302 60.5705 6.0332 53.4918 6.0332H49.1472C42.0686 6.0332 32.4057 6.18302 24.5031 7.34406H24.4281L24.3907 7.41897C23.9413 9.14182 23.4169 11.0145 23.0049 12.5875C22.5929 14.1605 22.2933 15.3965 22.2559 15.8459C22.2559 15.9208 22.2559 15.9583 22.2559 16.0332C22.2559 16.6325 22.518 17.1193 22.6678 17.3441L22.7053 17.3815H22.7802V17.2317Z" fill="black" fill-opacity="0.42"/>
<path d="M26.0005 24.3465L25.963 24.2342L25.8881 23.8971V23.8222V23.7847L25.5136 20.751V20.6387V20.5638L24.7645 20.002H24.7271C24.7271 20.002 24.0529 20.1518 23.2664 20.3765C22.5548 20.5638 21.8057 20.7885 21.3188 20.9757C21.2814 20.9757 21.2439 21.0132 21.2065 21.0132C21.2065 21.0132 21.169 21.0132 21.169 21.0506C20.7196 21.2754 20.2327 21.7248 19.7083 22.1742C19.184 22.5862 18.6597 22.9982 18.2851 23.1106C17.8731 23.2604 17.1241 23.4476 16.375 23.7847C15.7758 24.0469 15.1765 24.384 14.7645 24.796C14.7271 24.8334 14.6896 24.8709 14.6522 24.9083C14.6147 24.9458 14.5773 25.0207 14.5398 25.0581C14.1653 25.6199 13.4911 27.2679 12.8919 28.766C12.2926 30.2641 11.7683 31.6124 11.7683 31.6124L11.6934 31.7623H27.7233L26.0005 24.3465ZM12.0679 31.575C12.1428 31.4252 12.2177 31.2005 12.3301 30.8634C12.6297 30.0769 13.1166 28.8784 13.566 27.7548C14.0155 26.6312 14.5023 25.6199 14.7271 25.2454C15.0267 24.7211 15.7383 24.3465 16.4499 24.0469C17.1615 23.7473 17.9106 23.5226 18.3226 23.4102C18.772 23.2604 19.2964 22.8484 19.7832 22.399C20.3076 21.9495 20.7945 21.5001 21.2065 21.3128C21.581 21.1255 22.4799 20.8634 23.2664 20.6387C23.9031 20.4514 24.5023 20.339 24.6896 20.3016L25.2514 20.6761L25.6259 23.8596L27.4237 31.6124H12.0679V31.575Z" fill="black" fill-opacity="0.42"/>
<path d="M41.3194 4.98414V5.05905C41.3194 5.05905 41.6939 5.05905 42.3681 5.05905C44.3531 5.02159 48.8849 4.94669 53.1546 4.94669C56.001 4.94669 58.7726 4.98414 60.6078 5.05905V4.98414L60.5703 4.94669V4.98414C60.4954 5.0965 60.046 5.58339 59.1097 5.58339C58.0235 5.58339 42.8175 5.58339 42.0685 5.58339V5.6583L42.1059 5.62085C42.1059 5.62085 41.9561 5.54594 41.8063 5.43358C41.6565 5.32122 41.4692 5.13395 41.4318 5.02159L41.3194 4.98414H41.2445C41.3194 5.17141 41.5067 5.35867 41.6565 5.47103C41.8437 5.58339 41.9936 5.69575 41.9936 5.69575C42.7426 5.69575 57.9486 5.69575 59.0347 5.69575C60.1583 5.69575 60.6078 5.02159 60.6078 4.98414L60.6827 4.90923H60.5703C58.7351 4.83433 56.001 4.79688 53.1171 4.79688C47.3868 4.79688 41.2819 4.90923 41.2819 4.90923H41.207L41.2445 4.98414H41.3194Z" fill="black" fill-opacity="0.42"/>
<path d="M90.0824 31.6499C90.0824 31.6499 89.558 30.3016 88.9588 28.8035C88.3595 27.3053 87.6479 25.6948 87.3108 25.0956C87.2734 25.0581 87.2359 24.9832 87.1985 24.9458C87.161 24.9083 87.1236 24.8709 87.0861 24.8334C86.6741 24.384 86.0749 24.0844 85.4756 23.8222C84.7265 23.5226 83.9775 23.2978 83.5655 23.148C83.191 23.0357 82.6666 22.6237 82.1797 22.1742C81.7303 21.7997 81.2809 21.3877 80.8689 21.163C80.8314 21.1255 80.794 21.1255 80.7565 21.0881C80.7565 21.0881 80.7191 21.0881 80.7191 21.0506C80.2696 20.8259 79.4082 20.5638 78.6217 20.3765C77.8352 20.1518 77.161 20.002 77.161 20.002H77.1236L77.0861 20.0394L76.4119 20.5263V20.5638V20.6761L76.0374 23.7473V23.7847V23.8596L75.9625 24.1967L75.925 24.3091L74.0898 31.7997H90.1573L90.0824 31.6499ZM76.2247 23.8222L76.5992 20.6387L77.161 20.2641C77.3483 20.3016 77.9101 20.4514 78.5842 20.6012C79.3707 20.8259 80.2696 21.0506 80.6442 21.2754C81.0187 21.4626 81.543 21.9121 82.0674 22.3615C82.5917 22.8109 83.0786 23.2229 83.528 23.3727C83.94 23.5226 84.6891 23.7098 85.4007 24.0094C86.1123 24.3091 86.8239 24.7211 87.1236 25.2079C87.4606 25.7323 88.1348 27.3802 88.7715 28.8784C89.0711 29.6274 89.3707 30.339 89.558 30.8634C89.6704 31.163 89.7827 31.4252 89.8202 31.575H74.4644L76.2247 23.8222Z" fill="black" fill-opacity="0.42"/>
<path d="M93.9398 42.2129H93.8274H93.7525C93.7525 42.2503 93.7525 42.3252 93.7525 42.3627C93.715 42.887 93.6776 43.3739 93.6027 43.8234C93.6027 44.0106 93.5652 44.1979 93.5278 44.4226C93.5278 44.535 93.4903 44.6099 93.4903 44.7223C93.4903 44.8346 93.4529 44.947 93.4529 45.0593C93.4529 45.1717 93.4154 45.2841 93.4154 45.3964C93.4154 45.5088 93.378 45.6211 93.378 45.7335C93.3405 45.9208 93.303 46.1455 93.303 46.3327C93.1907 47.0818 93.0409 47.9058 92.8911 48.6923C92.8536 48.9545 92.7787 49.2166 92.7413 49.4414C92.7413 49.4788 92.7412 49.5163 92.7038 49.5537C92.7038 49.5912 92.7038 49.5912 92.7038 49.6286C92.6289 49.9282 92.5914 50.2279 92.5165 50.5275C92.5165 50.5649 92.5165 50.6024 92.4791 50.6399V50.6773C92.1045 52.3252 91.6926 53.8234 91.2431 54.7972C90.6813 56.0331 90.1195 56.8945 89.5203 57.4189C89.4454 57.4938 89.3705 57.5312 89.2956 57.6061C89.2207 57.6436 89.1832 57.6811 89.1083 57.7185C89.0708 57.756 89.0708 57.756 89.0334 57.756C89.0334 57.756 88.9959 57.756 88.9959 57.7934C88.921 57.8309 88.8836 57.8683 88.8087 57.9058C88.7338 57.9432 88.6589 57.9807 88.5465 58.0181C88.4716 58.0556 88.3592 58.093 88.2843 58.093C88.0221 58.1679 87.7225 58.2054 87.4229 58.2054H81.9922V67.7185C81.9922 68.1679 82.1045 68.5799 82.3293 68.917C82.554 69.2541 82.8536 69.4414 83.1907 69.4414H92.8162C93.1532 69.4414 93.4903 69.2166 93.6776 68.917C93.9023 68.6174 94.0147 68.1679 94.0147 67.7185V42.2129H93.9398ZM93.7525 67.7185C93.7525 68.1305 93.6401 68.505 93.4529 68.7672C93.2656 69.0294 93.0409 69.1792 92.7787 69.1792H83.1907C82.9285 69.1792 82.7038 69.0294 82.5165 68.7672C82.3293 68.505 82.2169 68.1305 82.2169 67.7185V58.4676H87.3854C88.2469 58.4676 88.9959 58.2054 89.6326 57.6436C90.3068 57.0818 90.8686 56.1829 91.4304 54.947C92.4791 52.6249 93.3405 47.8309 93.715 44.6848V67.7185H93.7525Z" fill="black" fill-opacity="0.42"/>
<path d="M14.4282 58.205C14.3907 58.205 14.3533 58.205 14.3158 58.205C14.2409 58.205 14.1285 58.205 14.0536 58.205C13.9038 58.205 13.754 58.1676 13.6042 58.1301C13.5293 58.0926 13.4169 58.0926 13.342 58.0552C13.2671 58.0177 13.1922 58.0177 13.1173 57.9803H13.0799C13.0049 57.9428 12.93 57.9054 12.8551 57.8679C12.7802 57.8305 12.6679 57.7556 12.593 57.6807C12.5181 57.6432 12.4431 57.5683 12.3682 57.4934C12.0686 57.2312 11.769 56.8941 11.4694 56.4447C11.3945 56.3323 11.3196 56.22 11.2446 56.1076C11.0199 55.7331 10.8327 55.3211 10.6079 54.8717C10.5705 54.7968 10.533 54.7219 10.533 54.647C10.4581 54.4222 10.3458 54.1975 10.2709 53.9353C10.2709 53.8979 10.2334 53.8604 10.2334 53.7855C10.196 53.6357 10.121 53.4859 10.0836 53.3361C10.0461 53.1863 9.97124 52.999 9.93378 52.8492C9.85888 52.6245 9.82142 52.3998 9.74652 52.175C9.63416 51.8005 9.55925 51.3885 9.44689 50.9765C9.40944 50.7893 9.37199 50.602 9.33453 50.4147C9.33453 50.3773 9.33453 50.3398 9.29708 50.3024C9.25963 50.0402 9.18472 49.778 9.14727 49.5159L9.10981 49.3286V49.2162C9.10981 49.2162 9.10981 49.2162 9.10981 49.1788C9.10981 49.1039 9.07236 49.029 9.07236 48.9541C9.07236 48.9166 9.07236 48.8417 9.03491 48.8043C8.99745 48.5421 8.96 48.3174 8.92255 48.0552C8.88509 47.793 8.84764 47.5683 8.81019 47.3436C8.69783 46.5571 8.54802 45.7705 8.47311 45.0589V45.0215H8.3982H8.28584H8.21094V67.6807C8.21094 68.1301 8.3233 68.5421 8.54802 68.8792C8.77274 69.1788 9.07236 69.4035 9.40944 69.4035H18.9975C19.372 69.4035 19.6716 69.1788 19.8589 68.8792C20.0836 68.5795 20.196 68.1301 20.196 67.6807V58.205H14.4282ZM19.9338 67.7181C19.9338 68.1301 19.8214 68.5046 19.6342 68.7668C19.4469 69.029 19.2222 69.1788 18.96 69.1788H9.37199C9.10981 69.1788 8.88509 69.029 8.69783 68.7668C8.51056 68.5046 8.3982 68.1301 8.3982 67.7181V46.7443C8.47311 47.1563 8.54802 47.6058 8.62292 48.0177C8.66038 48.2799 8.69783 48.5421 8.77274 48.8043C8.77274 48.8417 8.77274 48.9166 8.81019 48.9541C8.92255 49.5159 9.03491 50.0777 9.14727 50.6395C9.18472 50.8642 9.25963 51.0889 9.29708 51.3136C9.33453 51.426 9.33453 51.5383 9.37199 51.6507C9.59671 52.587 9.85888 53.4484 10.0836 54.1601C10.121 54.235 10.121 54.3099 10.1585 54.3848C10.2334 54.572 10.3083 54.7593 10.3832 54.9466C10.945 56.22 11.5068 57.0814 12.181 57.6432C12.7053 58.0926 13.2671 58.3548 13.9038 58.4297C13.9413 58.4297 13.9787 58.4297 14.0162 58.4297C14.0911 58.4297 14.1285 58.4297 14.2034 58.4297C14.2784 58.4297 14.3533 58.4297 14.4282 58.4297H19.8963V67.7181H19.9338Z" fill="black" fill-opacity="0.42"/>
</g>
<defs>
<clipPath id="clip0_7554_21093">
<rect width="100" height="73" fill="white" transform="translate(0.699219 0.222656)"/>
</clipPath>
</defs>
</svg>
