<svg width="131" height="63" viewBox="0 0 131 63" fill="none" xmlns="http://www.w3.org/2000/svg">
<g clip-path="url(#clip0_7549_20715)">
<path d="M43.7572 9.32495V9.42258H87.5928L89.3989 -2.19531H41.4629L43.7084 9.42258H43.7572V9.32495H43.8548L41.6581 -2.00005H89.2525L87.4951 9.27614H43.7572V9.32495Z" fill="black" fill-opacity="0.3"/>
<path d="M95.4016 11.1815V11.0838H35.9941L36.8728 14.8426C36.8728 14.8426 37.0681 15.5748 37.8003 16.3558C38.5325 17.088 39.7529 17.8203 41.8519 17.8203C45.9523 17.8203 87.1519 17.8203 89.3974 17.8203C91.6917 17.8203 94.1324 16.7952 94.5229 14.8914C94.7182 14.0127 95.1087 12.4995 95.4504 11.1815H95.4016H95.4992V10.5469L95.3528 11.1327C95.0111 12.4506 94.6206 13.9639 94.4253 14.8426C94.0836 16.5999 91.6917 17.625 89.4462 17.625C87.2007 17.625 46.0011 17.625 41.9007 17.625C39.8505 17.625 38.6789 16.8928 37.9955 16.2094C37.6538 15.8677 37.4098 15.4772 37.3121 15.2331C37.2633 15.0866 37.2145 14.989 37.1657 14.8914C37.1169 14.7938 37.1169 14.7938 37.1169 14.7938L36.287 11.2303H95.4992V11.1327H95.4016V11.1815Z" fill="black" fill-opacity="0.3"/>
<path d="M35.6514 9.32735V9.42498H95.9864V9.37617C96.1328 8.88802 96.1816 8.59513 96.1816 8.59513L96.2793 8.20462L98.6712 -2.04647L99.1593 -6.29335H99.0617C96.5233 -6.58623 86.4675 -7.66016 65.9653 -7.66016C44.0476 -7.66016 34.0405 -6.43979 32.4297 -6.24453H32.332L32.8202 -2.04647L35.2121 8.20462L35.505 9.42498H35.5538V9.32735H35.6514L35.4562 8.1558L33.0643 -2.09528L32.5761 -6.19572H32.4785V-6.09809C34.0894 -6.29334 44.0964 -7.51371 65.9653 -7.51371C86.4675 -7.51371 96.5233 -6.43979 99.0617 -6.1469V-6.24453H98.9641L98.4759 -2.09528L96.084 8.1558L95.9864 8.54632C95.9864 8.54632 95.8887 8.8392 95.7911 9.32735H95.8887V9.22972H35.6514V9.32735Z" fill="black" fill-opacity="0.3"/>
<path d="M112.437 36.6152C112.437 36.6152 111.07 36.0783 109.508 35.5413C107.946 35.0044 106.189 34.4674 105.359 34.4186H24.717C20.7142 34.4186 19.1521 36.6153 19.1521 36.6641L19.0545 36.8105H112.828L112.437 36.6152ZM19.3962 36.6152C19.7867 36.1271 21.3488 34.565 24.717 34.565H105.359C106.14 34.565 107.897 35.102 109.459 35.639C110.24 35.9318 110.973 36.1759 111.51 36.3712C111.705 36.42 111.851 36.5176 111.998 36.5664H19.3962V36.6152ZM112.437 36.6152C112.437 36.6152 111.07 36.0783 109.508 35.5413C107.946 35.0044 106.189 34.4674 105.359 34.4186H24.717C20.7142 34.4186 19.1521 36.6153 19.1521 36.6641L19.0545 36.8105H112.828L112.437 36.6152ZM19.3962 36.6152C19.7867 36.1271 21.3488 34.565 24.717 34.565H105.359C106.14 34.565 107.897 35.102 109.459 35.639C110.24 35.9318 110.973 36.1759 111.51 36.3712C111.705 36.42 111.851 36.5176 111.998 36.5664H19.3962V36.6152ZM112.437 36.6152C112.437 36.6152 111.07 36.0783 109.508 35.5413C107.946 35.0044 106.189 34.4674 105.359 34.4186H24.717C20.7142 34.4186 19.1521 36.6153 19.1521 36.6641L19.0545 36.8105H112.828L112.437 36.6152ZM19.3962 36.6152C19.7867 36.1271 21.3488 34.565 24.717 34.565H105.359C106.14 34.565 107.897 35.102 109.459 35.639C110.24 35.9318 110.973 36.1759 111.51 36.3712C111.705 36.42 111.851 36.5176 111.998 36.5664H19.3962V36.6152ZM112.437 36.6152C112.437 36.6152 111.07 36.0783 109.508 35.5413C107.946 35.0044 106.189 34.4674 105.359 34.4186H24.717C20.7142 34.4186 19.1521 36.6153 19.1521 36.6641L19.0545 36.8105H112.828L112.437 36.6152ZM19.3962 36.6152C19.7867 36.1271 21.3488 34.565 24.717 34.565H105.359C106.14 34.565 107.897 35.102 109.459 35.639C110.24 35.9318 110.973 36.1759 111.51 36.3712C111.705 36.42 111.851 36.5176 111.998 36.5664H19.3962V36.6152ZM112.437 36.6152C112.437 36.6152 111.07 36.0783 109.508 35.5413C107.946 35.0044 106.189 34.4674 105.359 34.4186H24.717C20.7142 34.4186 19.1521 36.6153 19.1521 36.6641L19.0545 36.8105H112.828L112.437 36.6152ZM19.3962 36.6152C19.7867 36.1271 21.3488 34.565 24.717 34.565H105.359C106.14 34.565 107.897 35.102 109.459 35.639C110.24 35.9318 110.973 36.1759 111.51 36.3712C111.705 36.42 111.851 36.5176 111.998 36.5664H19.3962V36.6152ZM112.437 36.6152C112.437 36.6152 111.07 36.0783 109.508 35.5413C107.946 35.0044 106.189 34.4674 105.359 34.4186H24.717C20.7142 34.4186 19.1521 36.6153 19.1521 36.6641L19.0545 36.8105H112.828L112.437 36.6152ZM19.3962 36.6152C19.7867 36.1271 21.3488 34.565 24.717 34.565H105.359C106.14 34.565 107.897 35.102 109.459 35.639C110.24 35.9318 110.973 36.1759 111.51 36.3712C111.705 36.42 111.851 36.5176 111.998 36.5664H19.3962V36.6152ZM120.15 32.8077C120.101 32.8077 120.052 32.7589 120.003 32.7101C117.855 31.7338 112.339 29.5859 105.652 29.5859H22.8132C21.7881 29.5859 15.6863 30.5622 11.5371 32.3196C11.4882 32.3196 11.4394 32.3684 11.3906 32.3684L11.3418 32.4172V32.466C11.8299 34.8091 12.4157 36.957 13.0503 38.3726C14.3683 41.3015 15.7351 42.6683 17.5901 42.9123C17.7853 42.9123 18.0294 42.9612 18.2735 42.9612H113.413C115.61 42.9612 117.172 41.692 118.636 38.4214C119.222 37.0546 119.808 35.0532 120.296 32.9053V32.8565L120.15 32.8077ZM118.441 38.3238C116.977 41.5943 115.512 42.7659 113.364 42.7659H18.2247C18.0294 42.7659 17.8341 42.7659 17.6389 42.7171C15.7839 42.5218 14.4659 41.2526 13.1479 38.2749C12.5133 36.8593 11.9276 34.7603 11.4394 32.466C11.4394 32.466 11.4882 32.466 11.5371 32.4172C11.8788 32.2707 12.2205 32.1243 12.611 31.9779C12.7574 31.929 12.9039 31.8802 13.0503 31.8314C13.2456 31.7826 13.392 31.7338 13.5873 31.6362C13.8313 31.5385 14.1242 31.4897 14.3683 31.3921C14.9541 31.1968 15.5399 31.0504 16.1256 30.9039C16.2721 30.8551 16.4185 30.8063 16.565 30.8063C16.7114 30.7575 16.8579 30.7087 17.0043 30.7087C17.1019 30.6599 17.2484 30.6599 17.346 30.611C17.6389 30.5134 17.9806 30.4646 18.2735 30.4158C18.4199 30.367 18.6152 30.367 18.7616 30.3182C19.2986 30.2205 19.7867 30.1229 20.2749 30.0253C20.519 29.9765 20.7142 29.9276 20.9095 29.9276C21.0071 29.9276 21.1047 29.8788 21.2024 29.8788C21.2024 29.8788 21.2512 29.8788 21.3 29.8788C21.3976 29.8788 21.5441 29.83 21.6417 29.83C21.7393 29.83 21.7881 29.83 21.8858 29.7812C21.9834 29.7812 22.0322 29.7812 22.1298 29.7324C22.2275 29.7324 22.2763 29.7324 22.3739 29.6836C22.4715 29.6836 22.5692 29.6836 22.618 29.6836C22.7156 29.6836 22.8132 29.6836 22.8621 29.6836H105.652C105.993 29.6836 106.335 29.6836 106.677 29.6836C106.823 29.6836 107.019 29.6836 107.165 29.6836C107.311 29.6836 107.507 29.6836 107.653 29.7324C107.8 29.7324 107.946 29.7324 108.092 29.7812C108.385 29.7812 108.678 29.83 108.971 29.8788C109.166 29.8788 109.362 29.9276 109.508 29.9276C109.606 29.9276 109.752 29.9764 109.85 29.9764C110.192 30.0253 110.533 30.0741 110.875 30.1229C111.217 30.1717 111.51 30.2205 111.851 30.3182C111.949 30.3182 112.046 30.367 112.095 30.367C112.242 30.4158 112.437 30.4158 112.583 30.4646C112.925 30.5134 113.218 30.611 113.511 30.6599C113.853 30.7575 114.146 30.8063 114.487 30.9039C114.78 31.0016 115.073 31.0504 115.415 31.148C115.561 31.1968 115.708 31.2456 115.854 31.2945C116 31.3433 116.147 31.3921 116.293 31.4409C116.391 31.4897 116.489 31.4897 116.586 31.5385C116.684 31.5873 116.782 31.5873 116.879 31.6362C117.074 31.685 117.221 31.7338 117.416 31.8314C117.66 31.929 117.904 31.9779 118.099 32.0755C118.246 32.1243 118.392 32.1731 118.49 32.2219C118.685 32.2707 118.832 32.3684 118.978 32.4172C119.369 32.5636 119.662 32.7101 119.954 32.8077C119.954 32.8077 120.003 32.8077 120.052 32.8565C119.564 35.0532 119.027 37.0058 118.441 38.3238ZM109.557 35.4925C107.995 34.9555 106.238 34.4186 105.408 34.3698H24.717C20.7142 34.3698 19.1521 36.5664 19.1521 36.6152L19.0545 36.7617H112.828L112.437 36.6152C112.437 36.6152 111.07 36.0295 109.557 35.4925ZM19.3962 36.6152C19.7867 36.1271 21.3488 34.565 24.717 34.565H105.359C106.14 34.565 107.897 35.102 109.459 35.639C110.24 35.9318 110.973 36.1759 111.51 36.3712C111.705 36.42 111.851 36.5176 111.998 36.5664H19.3962V36.6152ZM112.437 36.6152C112.437 36.6152 111.07 36.0783 109.508 35.5413C107.946 35.0044 106.189 34.4674 105.359 34.4186H24.717C20.7142 34.4186 19.1521 36.6153 19.1521 36.6641L19.0545 36.8105H112.828L112.437 36.6152ZM19.3962 36.6152C19.7867 36.1271 21.3488 34.565 24.717 34.565H105.359C106.14 34.565 107.897 35.102 109.459 35.639C110.24 35.9318 110.973 36.1759 111.51 36.3712C111.705 36.42 111.851 36.5176 111.998 36.5664H19.3962V36.6152ZM112.437 36.6152C112.437 36.6152 111.07 36.0783 109.508 35.5413C107.946 35.0044 106.189 34.4674 105.359 34.4186H24.717C20.7142 34.4186 19.1521 36.6153 19.1521 36.6641L19.0545 36.8105H112.828L112.437 36.6152ZM19.3962 36.6152C19.7867 36.1271 21.3488 34.565 24.717 34.565H105.359C106.14 34.565 107.897 35.102 109.459 35.639C110.24 35.9318 110.973 36.1759 111.51 36.3712C111.705 36.42 111.851 36.5176 111.998 36.5664H19.3962V36.6152ZM112.437 36.6152C112.437 36.6152 111.07 36.0783 109.508 35.5413C107.946 35.0044 106.189 34.4674 105.359 34.4186H24.717C20.7142 34.4186 19.1521 36.6153 19.1521 36.6641L19.0545 36.8105H112.828L112.437 36.6152ZM19.3962 36.6152C19.7867 36.1271 21.3488 34.565 24.717 34.565H105.359C106.14 34.565 107.897 35.102 109.459 35.639C110.24 35.9318 110.973 36.1759 111.51 36.3712C111.705 36.42 111.851 36.5176 111.998 36.5664H19.3962V36.6152ZM112.437 36.6152C112.437 36.6152 111.07 36.0783 109.508 35.5413C107.946 35.0044 106.189 34.4674 105.359 34.4186H24.717C20.7142 34.4186 19.1521 36.6153 19.1521 36.6641L19.0545 36.8105H112.828L112.437 36.6152ZM19.3962 36.6152C19.7867 36.1271 21.3488 34.565 24.717 34.565H105.359C106.14 34.565 107.897 35.102 109.459 35.639C110.24 35.9318 110.973 36.1759 111.51 36.3712C111.705 36.42 111.851 36.5176 111.998 36.5664H19.3962V36.6152ZM112.437 36.6152C112.437 36.6152 111.07 36.0783 109.508 35.5413C107.946 35.0044 106.189 34.4674 105.359 34.4186H24.717C20.7142 34.4186 19.1521 36.6153 19.1521 36.6641L19.0545 36.8105H112.828L112.437 36.6152ZM19.3962 36.6152C19.7867 36.1271 21.3488 34.565 24.717 34.565H105.359C106.14 34.565 107.897 35.102 109.459 35.639C110.24 35.9318 110.973 36.1759 111.51 36.3712C111.705 36.42 111.851 36.5176 111.998 36.5664H19.3962V36.6152ZM112.437 36.6152C112.437 36.6152 111.07 36.0783 109.508 35.5413C107.946 35.0044 106.189 34.4674 105.359 34.4186H24.717C20.7142 34.4186 19.1521 36.6153 19.1521 36.6641L19.0545 36.8105H112.828L112.437 36.6152ZM19.3962 36.6152C19.7867 36.1271 21.3488 34.565 24.717 34.565H105.359C106.14 34.565 107.897 35.102 109.459 35.639C110.24 35.9318 110.973 36.1759 111.51 36.3712C111.705 36.42 111.851 36.5176 111.998 36.5664H19.3962V36.6152ZM112.437 36.6152C112.437 36.6152 111.07 36.0783 109.508 35.5413C107.946 35.0044 106.189 34.4674 105.359 34.4186H24.717C20.7142 34.4186 19.1521 36.6153 19.1521 36.6641L19.0545 36.8105H112.828L112.437 36.6152ZM19.3962 36.6152C19.7867 36.1271 21.3488 34.565 24.717 34.565H105.359C106.14 34.565 107.897 35.102 109.459 35.639C110.24 35.9318 110.973 36.1759 111.51 36.3712C111.705 36.42 111.851 36.5176 111.998 36.5664H19.3962V36.6152Z" fill="black" fill-opacity="0.3"/>
<path d="M119.954 32.9054C119.71 32.8078 119.369 32.6613 118.978 32.5149C118.832 32.4661 118.685 32.3684 118.49 32.3196C118.344 32.2708 118.197 32.222 118.1 32.1732C117.855 32.0755 117.66 32.0267 117.416 31.9291C117.221 31.8803 117.074 31.8315 116.879 31.7338C116.782 31.685 116.684 31.685 116.586 31.6362C116.489 31.5874 116.391 31.5874 116.293 31.5386C116.147 31.4898 116 31.441 115.854 31.3921C115.708 31.3433 115.561 31.2945 115.415 31.2457C115.122 31.1481 114.829 31.0504 114.487 31.0016C114.146 30.9528 113.853 30.8552 113.511 30.7575C113.218 30.7087 112.876 30.6111 112.583 30.5623C112.437 30.5135 112.291 30.5135 112.095 30.4647C111.998 30.4647 111.9 30.4158 111.851 30.4158C111.558 30.367 111.217 30.3182 110.875 30.2206C110.533 30.1718 110.192 30.123 109.85 30.0741C109.752 30.0741 109.606 30.0253 109.508 30.0253C109.313 30.0253 109.166 29.9765 108.971 29.9765C108.678 29.9277 108.385 29.9277 108.093 29.8789C107.946 29.8789 107.8 29.8789 107.653 29.8301C107.507 29.8301 107.311 29.8301 107.165 29.7812C107.019 29.7812 106.823 29.7812 106.677 29.7812C106.335 29.7812 105.993 29.7812 105.652 29.7812H22.8133C22.7644 29.7812 22.6668 29.7812 22.5692 29.7812C22.4716 29.7812 22.4227 29.7812 22.3251 29.7812C22.2275 29.7812 22.1787 29.7813 22.081 29.8301C22.0322 29.8301 21.9346 29.8301 21.837 29.8789C21.7882 29.8789 21.6905 29.8789 21.5929 29.9277C21.4953 29.9277 21.3488 29.9765 21.2512 29.9765C21.2512 29.9765 21.2024 29.9765 21.1536 29.9765C21.0559 29.9765 20.9583 30.0253 20.8607 30.0253C20.6654 30.0741 20.4213 30.0741 20.2261 30.123C19.7379 30.2206 19.2498 30.3182 18.7128 30.4158C18.5664 30.4647 18.3711 30.4647 18.2247 30.5135C17.9318 30.5623 17.6389 30.6599 17.2972 30.7087C17.1996 30.7087 17.1019 30.7575 16.9555 30.8064C16.8091 30.8552 16.6626 30.8552 16.5162 30.904C16.3697 30.9528 16.2233 31.0016 16.0768 31.0016C15.4911 31.1481 14.9053 31.2945 14.3195 31.4898C14.0754 31.5874 13.7825 31.6362 13.5385 31.7338C13.3432 31.7827 13.1968 31.8315 13.0015 31.9291C12.8551 31.9779 12.7086 32.0267 12.5622 32.0755C12.1717 32.222 11.83 32.3684 11.4883 32.5149C11.4394 32.5149 11.4394 32.5149 11.3906 32.5637C11.8788 34.858 12.4645 36.957 13.0991 38.3726C14.4171 41.3015 15.7351 42.5707 17.5901 42.8148C17.7853 42.8148 17.9806 42.8636 18.1759 42.8636H113.316C115.464 42.8636 116.928 41.6432 118.392 38.4214C118.978 37.1035 119.515 35.1509 120.003 33.003C120.003 32.9054 120.003 32.9054 119.954 32.9054ZM19.1522 36.6153C19.1522 36.6153 20.6654 34.3698 24.717 34.3698H105.359C106.238 34.3698 107.946 34.9068 109.508 35.4926C111.07 36.0295 112.437 36.5665 112.437 36.5665L112.828 36.7129H19.0545L19.1522 36.6153ZM18.2247 42.7171C18.1759 42.7171 18.1271 42.7171 18.0782 42.7171C18.7616 41.6432 19.7867 40.5693 20.8607 39.7883C22.0322 38.9584 23.2526 38.4214 24.2289 38.4214H104.92C109.069 38.4214 111.558 41.1063 112.632 42.6683H18.2247V42.7171Z" fill="#3265B1"/>
<path d="M122.25 12.0101C122.25 11.7661 122.25 9.08125 121.957 6.5917C121.713 4.63912 120.639 1.2709 120.151 -0.24235C120.151 -0.291165 120.102 -0.339978 120.102 -0.339978V-0.388796H119.956H119.858L112.975 -0.730497H112.878H112.634L112.78 -0.584052C112.878 -0.486422 112.975 -0.33998 113.073 -0.193536C113.512 0.489869 114.44 2.63772 115.221 4.5903C115.611 5.5666 116.002 6.49407 116.246 7.17748C116.392 7.61681 116.539 7.9097 116.636 8.10496C116.636 8.15377 116.636 8.15378 116.685 8.20259H114.684V8.30022C114.684 8.34903 114.684 8.39785 114.684 8.44666C114.733 8.78837 114.781 9.17888 114.781 9.66703C114.781 10.741 114.586 12.1078 113.805 13.1817C113.024 14.2556 111.657 15.1343 109.314 15.2807C106.922 15.3783 104.042 15.4272 101.309 15.4272C98.819 15.4272 96.4759 15.3783 94.5721 15.3783H94.3769V15.4272C94.3769 15.476 94.3281 15.5248 94.3281 15.5736C94.2793 15.6712 94.2304 15.7689 94.1816 15.8665C94.1816 15.9153 94.1328 15.9641 94.084 16.0129C94.0352 16.0618 93.9864 16.1594 93.9376 16.2082C93.8399 16.3058 93.7423 16.4035 93.6447 16.5011C93.547 16.5499 93.4982 16.6475 93.4006 16.6963C93.303 16.7452 93.2053 16.8428 93.1077 16.8916C93.0101 16.9404 92.9124 16.9892 92.8148 17.0869C92.7172 17.1357 92.6196 17.1845 92.5219 17.2333C92.5219 17.2333 92.5219 17.2333 92.4731 17.2333C92.4243 17.2821 92.3267 17.2821 92.2778 17.3309H92.229C92.229 17.3309 92.1802 17.3309 92.1314 17.3797H92.0826C91.985 17.3797 91.9361 17.4286 91.8385 17.4286C91.8385 17.4286 91.7897 17.4286 91.7409 17.4286C91.6433 17.4774 91.5945 17.4774 91.4968 17.5262C91.3992 17.5262 91.3504 17.575 91.2527 17.575C91.1551 17.6238 91.0087 17.6238 90.911 17.6238C90.8134 17.6238 90.7646 17.6726 90.667 17.6726C90.5693 17.6726 90.4717 17.7215 90.3253 17.7215C90.2276 17.7215 90.1788 17.7215 90.0812 17.7215C90.0324 17.7215 89.9836 17.7215 89.8859 17.7215C89.7395 17.7215 89.6419 17.7215 89.4954 17.7215H41.8523C41.7058 17.7215 41.6082 17.7215 41.4618 17.7215C41.3641 17.7215 41.2665 17.7215 41.2177 17.7215C41.1689 17.7215 41.1201 17.7215 41.0224 17.7215H40.9736C40.9248 17.7215 40.8272 17.7214 40.7784 17.6726H40.7296C40.6319 17.6726 40.5343 17.6238 40.4855 17.6238C40.3878 17.6238 40.339 17.575 40.2414 17.575C40.1926 17.575 40.1438 17.575 40.095 17.5262C40.0461 17.5262 39.9973 17.4774 39.8997 17.4774C39.7044 17.4286 39.558 17.3797 39.4116 17.2821C39.3627 17.2821 39.3139 17.2333 39.2651 17.2333C39.2163 17.2333 39.1675 17.1845 39.1187 17.1845C39.0699 17.1357 39.021 17.1357 38.9234 17.0869C38.8746 17.0869 38.8746 17.038 38.8258 17.038C38.7282 16.9892 38.6305 16.9404 38.5329 16.8428C38.24 16.6475 37.9471 16.4035 37.7519 16.1594C37.6542 16.0618 37.6054 15.9641 37.5566 15.9153C37.5566 15.9153 37.5566 15.9153 37.5078 15.8665C37.459 15.8177 37.4102 15.7689 37.4102 15.6712C37.3613 15.6224 37.3613 15.5736 37.3125 15.5248C37.2637 15.476 37.2149 15.3783 37.2149 15.3295V15.2807H37.0196C35.1159 15.3295 32.6751 15.3295 30.1856 15.3295C27.452 15.3295 24.5719 15.2807 22.18 15.1831C19.8369 15.0855 18.4701 14.2068 17.689 13.0841C16.908 11.9613 16.7127 10.6433 16.7127 9.5694C16.7127 9.08125 16.7615 8.69073 16.8104 8.34903C16.8104 8.30022 16.8104 8.2514 16.8104 8.20259V8.10496H15.0042C15.0042 8.10496 15.0042 8.05614 15.053 8.00733C15.1507 7.81207 15.2483 7.47037 15.4436 7.07985C16.2734 5.02963 17.9331 0.733944 18.6165 -0.291164C18.7141 -0.437608 18.8118 -0.535239 18.9094 -0.681683L19.0558 -0.828125H18.8606H18.8118H18.7141L16.908 -0.730497L11.7825 -0.486424H11.6848H11.4896V-0.43761C11.4896 -0.388795 11.4896 -0.388793 11.4407 -0.339978C10.9526 1.17328 9.87868 4.54149 9.6346 6.49408C9.34172 8.93481 9.34172 11.6196 9.34172 11.9125L9.04883 12.8888C9.04883 12.8888 9.53698 19.9181 9.92749 23.9209C9.97631 24.4091 10.0251 24.8972 10.1228 25.483C10.318 27.1427 10.6597 29.0953 11.0502 31.0479V31.1455L11.1479 31.0967C11.1967 31.0967 11.2455 31.0479 11.2943 31.0479C15.3947 29.1929 21.8383 28.1678 22.8634 28.1678H105.653C112.682 28.1678 118.394 30.5597 120.297 31.4384C120.346 31.4872 120.395 31.4872 120.444 31.4872L120.542 31.536V31.4384C121.079 28.7536 121.518 25.9711 121.713 23.9697C121.762 23.3351 121.86 22.6029 121.908 21.8707C122.055 20.211 122.201 18.4049 122.299 16.794C122.445 14.5973 122.592 12.9376 122.592 12.9376L122.25 12.0101ZM122.348 14.1092C122.299 14.7438 122.25 15.6712 122.152 16.6475C122.055 18.2584 121.908 20.1622 121.713 21.8707C121.664 22.6029 121.567 23.3351 121.518 23.9697C121.323 25.9223 120.883 28.7048 120.346 31.3407C120.346 31.3407 120.297 31.3407 120.249 31.2919C120.151 31.2431 120.005 31.1943 119.907 31.1455C119.761 31.0967 119.614 31.0479 119.468 30.9502C119.419 30.9502 119.37 30.9014 119.321 30.9014C119.077 30.8038 118.833 30.7062 118.589 30.6085C118.491 30.5597 118.443 30.5597 118.345 30.5109C116.929 29.9739 115.074 29.3393 112.829 28.8512C112.487 28.8024 112.145 28.7048 111.804 28.6559C111.413 28.6071 110.974 28.5095 110.583 28.4607C110.388 28.4119 110.193 28.4119 109.998 28.363C109.802 28.363 109.607 28.3142 109.412 28.2654L108.728 28.2166C108.582 28.2166 108.387 28.1678 108.24 28.1678C107.947 28.1678 107.606 28.119 107.264 28.119C107.02 28.119 106.727 28.119 106.434 28.0702C106.141 28.0702 105.848 28.0702 105.555 28.0702H22.8146C22.6681 28.0702 22.4729 28.0702 22.18 28.119C22.0335 28.119 21.8871 28.1678 21.6918 28.1678C21.5942 28.1678 21.4966 28.1678 21.3989 28.2166C21.3013 28.2166 21.2037 28.2166 21.1061 28.2654H21.0572C20.9108 28.2654 20.7643 28.3142 20.6179 28.3142C20.2274 28.363 19.7881 28.4607 19.3487 28.5583C19.1047 28.6071 18.8118 28.6559 18.5677 28.7048C17.7378 28.8512 16.8592 29.0953 15.9805 29.2905C15.6876 29.3882 15.3947 29.437 15.1018 29.5346C15.0042 29.5346 14.9066 29.5834 14.8578 29.6322C14.4673 29.7299 14.1256 29.8275 13.7839 29.9739C13.5886 30.0227 13.4421 30.0716 13.2957 30.1204C13.0028 30.218 12.7099 30.3156 12.417 30.4133C12.2218 30.5109 12.0265 30.5597 11.8313 30.6573C11.636 30.755 11.4407 30.8038 11.2455 30.9014C11.2455 30.9014 11.1967 30.9014 11.1479 30.9502C10.7573 29.0465 10.4645 27.1427 10.2692 25.5318C10.1716 24.9948 10.1228 24.4579 10.0739 23.9697C9.87868 21.9683 9.6346 19.2347 9.48816 16.9892C9.48816 16.9892 9.48816 16.9892 9.48816 16.9404C9.39053 15.8177 9.34172 14.7926 9.2929 14.0604C9.24409 13.4258 9.19527 12.9864 9.19527 12.8888L9.48816 11.9613C9.48816 11.9613 9.48816 11.2291 9.53697 10.204C9.58579 9.17888 9.6346 7.81207 9.78105 6.49408C10.0251 4.54149 11.099 1.12446 11.5872 -0.388796H11.6848L18.4701 -0.730497H18.5677C18.4701 -0.632868 18.4212 -0.584053 18.3724 -0.486424C17.9331 0.245796 17.0056 2.34483 16.2246 4.29742C15.4436 6.25 14.7601 8.00733 14.7601 8.00733L14.7113 8.10496H16.5663C16.5663 8.10496 16.5663 8.15378 16.5663 8.20259C16.5175 8.54429 16.4687 8.93481 16.4687 9.42296C16.4687 10.5457 16.6639 11.9125 17.4938 13.0352C17.4938 13.0352 17.4938 13.0352 17.5426 13.0841C18.3724 14.2068 19.7392 15.0855 22.1312 15.1831C24.5231 15.2807 27.4031 15.3295 30.1368 15.3295C32.6751 15.3295 35.1647 15.2807 37.0685 15.2319C37.1661 15.3783 37.2637 15.5736 37.4102 15.8177C37.4102 15.8665 37.459 15.8665 37.5078 15.9153C37.5566 15.9641 37.6054 16.0129 37.6542 16.1106C37.703 16.1594 37.703 16.1594 37.7519 16.2082C37.8007 16.257 37.8495 16.3058 37.8983 16.3546C37.9471 16.4035 37.9959 16.4523 38.0447 16.5011C38.0447 16.5011 38.0447 16.5011 38.0936 16.5499C38.1424 16.5987 38.1912 16.6475 38.24 16.6475C38.2888 16.6963 38.3376 16.7452 38.3864 16.794C38.4353 16.8428 38.5329 16.8916 38.5817 16.9404C38.6305 16.9892 38.7282 17.038 38.777 17.038C38.8746 17.0869 38.9234 17.1357 39.021 17.1357C39.2651 17.2333 39.5092 17.3797 39.8021 17.4286C39.8997 17.4774 39.9973 17.4774 40.095 17.5262C40.1926 17.575 40.2902 17.575 40.3878 17.575C40.4855 17.575 40.5831 17.6238 40.7296 17.6238C40.8272 17.6238 40.9736 17.6726 41.0713 17.6726C41.1689 17.6726 41.3153 17.6726 41.413 17.6726C41.5106 17.6726 41.657 17.6726 41.8035 17.6726H89.3978C89.5442 17.6726 89.6419 17.6726 89.7883 17.6726C89.8859 17.6726 89.9347 17.6726 90.0324 17.6726C90.13 17.6726 90.1788 17.6726 90.2765 17.6726C90.4229 17.6726 90.5205 17.6238 90.667 17.6238C90.7158 17.6238 90.7158 17.6238 90.7646 17.6238C90.8622 17.6238 90.9599 17.575 91.0575 17.575C91.1063 17.575 91.1551 17.575 91.2039 17.5262C91.2527 17.5262 91.3016 17.4774 91.3992 17.4774C91.4968 17.4774 91.6433 17.4286 91.7409 17.3797C91.8385 17.3309 91.985 17.3309 92.0826 17.2821C92.1314 17.2821 92.1314 17.2821 92.1802 17.2333H92.229C92.3267 17.1845 92.3755 17.1845 92.4731 17.1357C92.5219 17.1357 92.5707 17.0869 92.6196 17.038C92.6684 16.9892 92.7172 16.9892 92.766 16.9404C92.8636 16.8916 92.9124 16.8428 93.0101 16.794C93.0101 16.794 93.0589 16.794 93.0589 16.7452C93.1077 16.6963 93.1565 16.6963 93.2053 16.6475C93.2542 16.5987 93.3518 16.5499 93.4006 16.5011C93.4006 16.5011 93.4006 16.5011 93.4494 16.4523C93.4982 16.4035 93.5958 16.3546 93.6447 16.257C93.7423 16.2082 93.7911 16.1106 93.8887 16.0129C93.8887 16.0129 93.8887 16.0129 93.8887 15.9641C93.9376 15.9153 93.9864 15.8665 94.0352 15.8177C94.084 15.7689 94.084 15.72 94.1328 15.6712C94.1328 15.6712 94.1328 15.6712 94.1816 15.6224C94.2304 15.5248 94.2793 15.4272 94.3769 15.3295C94.3769 15.2807 94.4257 15.2807 94.4257 15.2319C96.3295 15.2807 98.7214 15.2807 101.211 15.2807C103.945 15.2807 106.825 15.2319 109.217 15.1343C111.608 15.0366 113.024 14.1092 113.854 12.9864C113.854 12.9376 113.903 12.9376 113.903 12.8888C114.684 11.7661 114.879 10.3992 114.879 9.37414C114.879 8.88599 114.83 8.49547 114.781 8.15377C114.781 8.15377 114.781 8.10496 114.781 8.05614H116.832L116.783 7.95852C116.783 7.95852 116.099 6.20119 115.318 4.2486C114.537 2.29601 113.61 0.148168 113.171 -0.535238C113.122 -0.632867 113.073 -0.681682 112.975 -0.779311H113.073L119.858 -0.43761H119.956C120.444 1.02683 121.518 4.44386 121.762 6.39644C121.908 7.71444 122.006 9.03244 122.055 10.1064C122.104 11.1315 122.104 11.8637 122.104 11.8637L122.397 12.7912C122.397 13.0352 122.348 13.4746 122.348 14.1092Z" fill="black" fill-opacity="0.3"/>
<path d="M113.17 -0.388739C113.121 -0.486368 113.072 -0.535183 112.975 -0.632812H113.072C113.121 -0.583998 113.17 -0.486368 113.219 -0.437553C113.707 0.294667 114.585 2.44251 115.367 4.3951C116.148 6.34769 116.831 8.10502 116.831 8.10502L116.929 8.30027H114.781C114.781 8.30027 114.781 8.25146 114.781 8.20265H116.831L116.782 8.10502C116.782 8.10502 116.099 6.34769 115.318 4.3951C114.537 2.44251 113.609 0.343481 113.17 -0.388739Z" fill="#3265B1"/>
<path d="M16.6147 8.30027H14.6621L14.7597 8.10502C14.7597 8.10502 15.4431 6.34769 16.2242 4.3951C17.0052 2.44251 17.9327 0.343482 18.372 -0.437553C18.4208 -0.486368 18.4697 -0.583998 18.5185 -0.632812H18.6161C18.5185 -0.535183 18.4697 -0.486368 18.4208 -0.388739C17.9815 0.343481 17.054 2.44251 16.273 4.3951C15.492 6.34769 14.8086 8.10502 14.8086 8.10502L14.7597 8.20265H16.6147C16.6147 8.25146 16.6147 8.30027 16.6147 8.30027Z" fill="#3265B1"/>
<path d="M122.395 12.9358C122.395 13.0334 122.346 13.4239 122.297 14.1073C122.248 14.7419 122.199 15.6694 122.102 16.6457C122.004 18.2566 121.858 20.1604 121.662 21.8689C121.614 22.6011 121.516 23.3333 121.467 23.9679C121.272 25.9205 120.833 28.7029 120.296 31.3389C120.296 31.3389 120.247 31.3389 120.198 31.2901C120.1 31.2413 119.954 31.1925 119.856 31.1437C119.71 31.0948 119.563 31.046 119.417 30.9484C119.368 30.9484 119.319 30.8996 119.27 30.8996C119.026 30.802 118.782 30.7043 118.538 30.6067C118.441 30.5579 118.392 30.5579 118.294 30.5091C116.879 29.9721 115.024 29.3375 112.778 28.8494C112.436 28.8006 112.095 28.7029 111.753 28.6541C111.362 28.6053 110.923 28.5077 110.533 28.4589C110.337 28.41 110.142 28.41 109.947 28.3612C109.752 28.3612 109.556 28.3124 109.361 28.2636L108.678 28.2148C108.531 28.2148 108.336 28.166 108.19 28.166C107.897 28.166 107.555 28.1171 107.213 28.1171C106.969 28.1171 106.676 28.1171 106.383 28.0683C106.09 28.0683 105.798 28.0683 105.505 28.0683H22.8127C22.6662 28.0683 22.471 28.0683 22.1781 28.1171C22.0316 28.1171 21.8852 28.166 21.6899 28.166C21.5923 28.166 21.4947 28.166 21.397 28.2148C21.2994 28.2148 21.2018 28.2148 21.1041 28.2636H21.0553C20.9089 28.2636 20.7624 28.3124 20.616 28.3124C20.2255 28.3612 19.7861 28.4589 19.3468 28.5565C19.1027 28.6053 18.8099 28.6541 18.5658 28.7029C17.7359 28.8494 16.8573 29.0934 15.9786 29.2887C15.6857 29.3863 15.3928 29.4351 15.0999 29.5328C15.0023 29.5328 14.9047 29.5816 14.8559 29.6304C14.4653 29.728 14.1236 29.8257 13.7819 29.9721C13.5867 30.0209 13.4402 30.0697 13.2938 30.1185C13.0009 30.2162 12.708 30.3138 12.4151 30.4114C12.2199 30.5091 12.0246 30.5579 11.8294 30.6555C11.6341 30.7531 11.4388 30.802 11.2436 30.8996C11.2436 30.8996 11.1948 30.8996 11.1459 30.9484C10.7554 29.0446 10.4625 27.1409 10.2673 25.53C10.1697 24.993 10.1208 24.456 10.072 23.9679C9.87676 21.9665 9.63269 19.2329 9.48625 16.9874C9.48625 16.9874 9.48625 16.9874 9.48625 16.9386C9.38862 15.8158 9.3398 14.7907 9.29099 14.0585C9.24217 13.4239 9.19336 12.9846 9.19336 12.887L9.48625 11.9595C9.48625 11.9595 9.48625 11.2273 9.53506 10.2022C9.58388 9.17705 9.63269 7.81024 9.77913 6.49225C10.0232 4.53966 11.0971 1.12263 11.5853 -0.390625H11.6829C11.6829 -0.34181 11.6341 -0.292993 11.6341 -0.292993C11.4388 0.195153 11.2436 0.927373 10.9995 1.70841C10.5114 3.27048 10.0232 5.17425 9.82795 6.44343C9.68151 7.71261 9.58388 9.07942 9.58388 10.1045C9.58388 11.3249 9.58388 12.0083 9.58388 12.0083L9.29099 12.9358C9.29099 13.0334 9.3398 13.4727 9.38862 14.0585C9.43743 14.7907 9.48625 15.767 9.58388 16.8898C11.3412 15.1324 16.7596 13.4239 17.5895 13.1799C18.4193 14.3026 19.7861 15.1813 22.1781 15.2789C24.57 15.3765 27.45 15.4253 30.1837 15.4253C32.722 15.4253 35.2116 15.3765 37.1154 15.3277C37.213 15.4741 37.3106 15.6694 37.4571 15.9135C37.4571 15.9623 37.5059 15.9623 37.5547 16.0111C37.6035 16.0599 37.6523 16.1087 37.7011 16.2064C37.7499 16.2552 37.7499 16.2552 37.7988 16.304C37.8476 16.3528 37.8964 16.4016 37.9452 16.4504C37.994 16.4993 38.0428 16.5481 38.0917 16.5969C38.0917 16.5969 38.0916 16.5969 38.1405 16.6457C38.1893 16.6945 38.2381 16.7433 38.2869 16.7433C38.3357 16.7921 38.3845 16.841 38.4333 16.841C38.4822 16.8898 38.5798 16.9386 38.6286 16.9874C38.6774 17.0362 38.7751 17.085 38.8239 17.085C38.9215 17.1338 38.9703 17.1827 39.0679 17.1827C39.312 17.2803 39.5561 17.4267 39.849 17.4755C39.9466 17.5244 40.0442 17.5244 40.1419 17.5732C40.2395 17.622 40.3371 17.622 40.4348 17.622C40.5324 17.622 40.63 17.6708 40.7765 17.6708C40.8741 17.6708 41.0205 17.7196 41.1182 17.7196C41.2158 17.7196 41.3622 17.7196 41.4599 17.7196C41.5575 17.7196 41.7039 17.7196 41.8504 17.7196H89.4447C89.5911 17.7196 89.6888 17.7196 89.8352 17.7196C89.9328 17.7196 89.9817 17.7196 90.0793 17.7196C90.1769 17.7196 90.2257 17.7196 90.3234 17.7196C90.4698 17.7196 90.5674 17.6708 90.7139 17.6708C90.7627 17.6708 90.7627 17.6708 90.8115 17.6708C90.9091 17.6708 91.0068 17.622 91.1044 17.622C91.1532 17.622 91.202 17.622 91.2508 17.5732C91.2997 17.5732 91.3485 17.5244 91.4461 17.5244C91.5437 17.5244 91.6902 17.4755 91.7878 17.4267C91.8854 17.3779 92.0319 17.3779 92.1295 17.3291C92.1783 17.3291 92.1783 17.3291 92.2271 17.2803H92.2759C92.3736 17.2315 92.4224 17.2315 92.52 17.1827C92.5688 17.1827 92.6176 17.1338 92.6665 17.085C92.7153 17.085 92.7641 17.0362 92.8129 16.9874C92.9105 16.9386 92.9594 16.8898 93.057 16.841C93.1058 16.7921 93.2034 16.7433 93.2522 16.6945C93.301 16.6457 93.3987 16.5969 93.4475 16.5481C93.4475 16.5481 93.4475 16.5481 93.4963 16.4993C93.5451 16.4504 93.6428 16.4016 93.6916 16.304C93.7892 16.2552 93.838 16.1576 93.9356 16.0599C93.9356 16.0599 93.9356 16.0599 93.9356 16.0111C93.9845 15.9623 94.0333 15.9135 94.0821 15.8647C94.1309 15.8158 94.1309 15.767 94.1797 15.7182C94.1797 15.7182 94.1797 15.7182 94.2285 15.6694C94.2773 15.5718 94.3262 15.4741 94.4238 15.3765C94.4238 15.3277 94.4726 15.3277 94.4726 15.2789C96.3764 15.3277 98.7683 15.3277 101.258 15.3277C103.991 15.3277 106.872 15.2789 109.263 15.1813C111.655 15.0836 113.071 14.1561 113.901 13.0334C113.901 12.9846 113.95 12.9846 113.95 12.9358C114.731 13.1799 120.198 14.7419 122.102 16.4504C122.151 15.4741 122.248 14.5955 122.297 13.9609C122.346 13.3263 122.346 12.9358 122.346 12.8382L122.053 11.9595V11.9107C122.053 11.9107 122.053 11.1785 122.004 10.1533C121.955 9.12824 121.906 7.76143 121.76 6.49225C121.516 4.58848 120.491 1.26908 119.954 -0.244179C119.954 -0.292994 119.954 -0.341807 119.905 -0.341807H120.003C120.491 1.12263 121.565 4.53966 121.809 6.49225C121.955 7.81024 122.053 9.12824 122.102 10.2022C122.151 11.2273 122.151 11.9595 122.151 11.9595L122.395 12.9358Z" fill="#3265B1"/>
<path d="M113.171 42.9557L113.073 42.8093L113.024 42.7605C111.999 41.1496 109.412 38.1719 104.921 38.1719H24.1818C23.1078 38.1719 21.8387 38.7088 20.6671 39.5875C19.4956 40.4174 18.4216 41.5401 17.7382 42.7605C17.7382 42.7605 17.6894 42.8093 17.6894 42.8581L17.5918 43.0045L17.543 43.1022H17.6894C17.787 43.1022 17.8359 43.1022 17.9335 43.1022C18.0311 43.1022 18.1287 43.1022 18.2264 43.1022H113.171V42.9557ZM20.8624 39.7828C22.0339 38.9529 23.2543 38.4159 24.2306 38.4159H104.921C109.07 38.4159 111.56 41.1008 112.634 42.6628H18.2264C18.1776 42.6628 18.1287 42.6628 18.0799 42.6628C18.7633 41.6377 19.7884 40.5638 20.8624 39.7828Z" fill="black" fill-opacity="0.3"/>
<path d="M25.4023 42.7188V46.5751H106.63V42.7188H25.4023ZM106.288 46.2334H25.6952V43.0116H106.288V46.2334Z" fill="black" fill-opacity="0.3"/>
<path d="M122.346 12.0111C122.346 11.7182 122.346 9.03339 122.053 6.59266C121.76 4.20074 120.247 -0.192581 120.003 -0.973614C119.954 -1.02243 119.954 -1.07124 119.954 -1.07124V-1.12006L119.856 -1.21769L119.807 -1.2665L117.464 -3.60961L116.878 -4.19538L116.586 -4.53708L116.39 -4.68353V-4.73234C116.39 -4.78116 116.342 -4.82997 116.293 -4.87879C116.244 -4.97642 116.195 -5.07405 116.146 -5.17167C116.097 -5.22049 116.097 -5.2693 116.049 -5.36693C116 -5.41575 115.951 -5.51338 115.902 -5.61101C115.853 -5.75745 115.756 -5.85508 115.658 -6.00152C115.56 -6.19678 115.414 -6.44086 115.316 -6.63611C115.268 -6.73374 115.219 -6.83137 115.17 -6.97782C115.121 -7.02663 115.072 -7.12426 115.072 -7.17308C114.926 -7.46597 114.731 -7.75885 114.584 -8.10056C114.487 -8.29581 114.34 -8.53989 114.242 -8.73515C114.047 -9.12566 113.852 -9.46737 113.657 -9.9067C113.559 -10.1508 113.413 -10.3948 113.266 -10.6389C113.217 -10.6877 113.217 -10.7365 113.169 -10.8342C113.022 -11.0783 112.876 -11.3223 112.729 -11.6152C112.583 -11.9569 112.388 -12.2498 112.192 -12.5915C112.095 -12.7379 112.046 -12.8844 111.948 -13.0797C111.509 -13.9583 111.021 -14.837 110.533 -15.7156C109.068 -18.4981 107.506 -21.3293 106.334 -23.526C105.749 -24.5999 105.212 -25.5762 104.87 -26.2596C104.48 -26.943 104.235 -27.4312 104.138 -27.5776C104.089 -27.6264 104.089 -27.6752 104.04 -27.7241C103.699 -28.261 103.21 -28.9444 101.99 -29.579C100.623 -30.3112 98.3777 -30.9946 94.3261 -31.434C86.2717 -32.3126 71.2856 -32.8008 65.8671 -32.8008C60.4487 -32.8008 45.4626 -32.3126 37.4082 -31.434C33.3077 -30.9946 31.0623 -30.3112 29.6955 -29.579C28.3775 -28.8956 27.8893 -28.1146 27.5476 -27.5776C27.5476 -27.5288 27.4988 -27.48 27.45 -27.4312C27.45 -27.3824 27.4012 -27.3335 27.3524 -27.3335C27.3035 -27.2359 27.2547 -27.1383 27.1571 -26.9918C27.0595 -26.7966 26.913 -26.5525 26.7666 -26.3084C26.6689 -26.162 26.5713 -26.0155 26.5225 -25.8203C26.4249 -25.625 26.3272 -25.4786 26.2296 -25.2833C26.1808 -25.1857 26.132 -25.1369 26.132 -25.0392C26.0344 -24.8928 25.9855 -24.7464 25.8879 -24.5999C25.8391 -24.5023 25.7903 -24.4047 25.7415 -24.307C25.6438 -24.063 25.4974 -23.8677 25.3509 -23.6236C25.2045 -23.3795 25.1069 -23.1355 24.9604 -22.8914C24.3258 -21.7687 23.6424 -20.4995 22.959 -19.1327C22.8614 -18.8886 22.715 -18.6445 22.5685 -18.4005C22.4709 -18.254 22.4221 -18.1076 22.3244 -17.9611C22.2268 -17.8147 22.178 -17.6682 22.0804 -17.5218C21.9339 -17.2289 21.7387 -16.936 21.5922 -16.6431C21.4946 -16.399 21.3481 -16.2038 21.2017 -15.9597C21.0064 -15.5692 20.8112 -15.2275 20.6159 -14.837C20.4207 -14.4465 20.1766 -14.0559 19.9813 -13.6654C19.8837 -13.519 19.8349 -13.3237 19.7373 -13.1773C19.6396 -12.982 19.542 -12.8356 19.4444 -12.6403C19.2979 -12.3962 19.2003 -12.1522 19.0539 -11.9081C18.8098 -11.4688 18.5657 -10.9806 18.3216 -10.5413C18.1752 -10.2972 18.0776 -10.0531 17.9311 -9.85788C17.7847 -9.61381 17.687 -9.32092 17.5406 -9.07685C17.1013 -8.19818 16.6619 -7.46597 16.3202 -6.78256C16.2226 -6.63612 16.125 -6.48967 16.0762 -6.29441C15.9297 -6.00152 15.8321 -5.80627 15.6856 -5.56219C15.6856 -5.51338 15.6368 -5.46456 15.588 -5.41575C15.3928 -5.02523 15.2463 -4.73234 15.1975 -4.68353L15.0022 -4.53708L14.9534 -4.48827L14.7094 -4.2442L11.7805 -1.21769L11.6828 -1.12006V-1.07124C11.6828 -1.07124 11.6828 -1.02243 11.634 -0.973614C11.39 -0.241394 9.8767 4.15193 9.58381 6.54385C9.29092 8.98458 9.29092 11.6694 9.29092 11.9623L8.94922 12.9386C8.94922 12.9386 9.43737 19.9679 9.82788 23.9707C9.8767 24.4588 9.92551 24.947 10.0231 25.5328C10.0231 25.6792 10.072 25.7768 10.072 25.9233C10.072 26.0697 10.1208 26.1673 10.1208 26.3138C10.1208 26.4602 10.1696 26.6067 10.1696 26.7043C10.2184 26.9484 10.2184 27.1925 10.2672 27.4365C10.2672 27.5342 10.316 27.6318 10.316 27.7294C10.4137 28.2664 10.5113 28.8521 10.6089 29.3891C10.6577 29.7308 10.7065 30.0725 10.8042 30.4142C10.8042 30.463 10.8042 30.5607 10.853 30.6095C10.9994 31.3417 11.1459 32.0739 11.2923 32.8061C11.3411 33.099 11.4388 33.3919 11.4876 33.6848C11.5364 33.8312 11.5364 33.9777 11.5852 34.1241C11.8781 35.3445 12.2198 36.4672 12.5127 37.3947C12.5615 37.4924 12.5615 37.59 12.6103 37.6876C12.7079 37.9317 12.8056 38.1758 12.9032 38.4198C13.6354 40.0795 14.3676 41.2023 15.2463 41.9345C15.9297 42.5203 16.6619 42.862 17.4918 42.9596C17.5406 42.9596 17.5894 42.9596 17.6382 42.9596C17.7359 42.9596 17.7847 42.9596 17.8823 42.9596C17.9799 42.9596 18.0776 42.9596 18.1752 42.9596H113.315C114.438 42.9596 115.414 42.6179 116.244 41.8857C117.123 41.1535 117.855 39.9819 118.587 38.371C119.954 35.3445 121.077 29.0962 121.565 24.9958C121.613 24.6053 121.662 24.2636 121.662 23.9219C121.662 23.6778 121.711 23.4337 121.76 23.1408C121.809 22.7503 121.858 22.311 121.858 21.8717V21.8228C122.199 17.8688 122.541 12.8898 122.541 12.8898V12.8409L122.346 12.0111ZM120.247 31.5858C120.149 31.9763 120.1 32.3668 120.003 32.7573C120.003 32.8061 120.003 32.8549 119.954 32.9038V32.9526C119.466 35.1004 118.929 37.053 118.343 38.3222C117.611 39.9331 116.878 41.0558 116.097 41.7392C116 41.8369 115.902 41.8857 115.805 41.9833C115.707 42.0321 115.658 42.0809 115.56 42.1297C115.512 42.1297 115.512 42.1786 115.463 42.1786C115.463 42.1786 115.414 42.1786 115.414 42.2274C115.316 42.2762 115.268 42.325 115.17 42.3738C115.072 42.4226 114.975 42.4715 114.828 42.5203C114.731 42.5691 114.584 42.6179 114.487 42.6179C114.145 42.7155 113.754 42.7643 113.364 42.7643H18.224C18.1752 42.7643 18.1264 42.7643 18.0776 42.7643C17.9799 42.7643 17.8335 42.7643 17.7359 42.7643C17.5406 42.7643 17.3453 42.7155 17.1501 42.6667C17.0525 42.6179 16.906 42.6179 16.8084 42.5691C16.7108 42.5203 16.6131 42.5203 16.5155 42.4714H16.4667C16.369 42.4226 16.2714 42.3738 16.1738 42.325C16.0762 42.2762 15.9297 42.1786 15.8321 42.0809C15.7345 42.0321 15.6368 41.9345 15.5392 41.8369C15.1487 41.4951 14.7582 41.0558 14.3676 40.47C14.27 40.3236 14.1724 40.1772 14.0748 40.0307C13.7819 39.5426 13.5378 39.0056 13.2449 38.4198C13.1961 38.3222 13.1473 38.2246 13.1473 38.1269C13.0497 37.8341 12.9032 37.5412 12.8056 37.1995C12.8056 37.1506 12.7568 37.1018 12.7568 37.0042C12.7079 36.8089 12.6103 36.6137 12.5615 36.4184C12.5127 36.2232 12.4151 35.9791 12.3662 35.7838C12.2686 35.491 12.2198 35.1981 12.1222 34.9052C11.9757 34.417 11.8781 33.8801 11.7317 33.3431C11.6828 33.099 11.634 32.855 11.5852 32.6109C11.5852 32.5621 11.5364 32.5133 11.5364 32.4644C11.4388 32.1227 11.39 31.781 11.3411 31.4393L11.2923 31.1953C11.2923 31.1464 11.2923 31.0976 11.2435 31.0488C11.2435 30.9512 11.1947 30.8536 11.1947 30.7559C11.1947 30.7071 11.1947 30.6095 11.1459 30.5607C11.0971 30.219 11.0482 29.9261 10.9994 29.5844C10.9506 29.2427 10.9018 28.9498 10.853 28.6569C10.6577 27.6318 10.5113 26.6067 10.4137 25.6792C10.3648 25.1422 10.2672 24.6053 10.2184 24.1171C10.0231 22.1157 9.77907 19.3821 9.63262 17.0878V17.039C9.53499 15.9163 9.48618 14.94 9.43737 14.2077C9.38855 13.5732 9.38855 13.1826 9.33974 13.085L9.63262 12.1575C9.63262 12.1575 9.63262 11.4253 9.68144 10.4002C9.73025 9.3751 9.77907 8.00829 9.92551 6.73911C10.072 5.46992 10.6089 3.56615 11.0971 2.00408C11.3411 1.22305 11.5852 0.490826 11.7317 0.00267792C11.7317 -0.0461349 11.7805 -0.0949478 11.7805 -0.0949478C11.7805 -0.143764 11.8293 -0.192581 11.8293 -0.241394C11.9269 -0.485466 11.9757 -0.680725 11.9757 -0.729542L13.9771 -2.73094L14.0259 -2.77976L14.5629 -3.31672L15.5392 -4.29301C15.5392 -4.29301 15.6368 -4.43945 15.7345 -4.68353C15.7833 -4.78116 15.8321 -4.87879 15.9297 -5.02523C15.9785 -5.07405 16.0273 -5.17167 16.0273 -5.22049C16.125 -5.36693 16.1738 -5.51338 16.2714 -5.70864C16.3202 -5.80627 16.4179 -5.95271 16.4667 -6.09915C16.5643 -6.2456 16.6131 -6.39204 16.7108 -6.5873C16.7596 -6.68493 16.8084 -6.78256 16.906 -6.929C16.9548 -7.02663 17.0036 -7.12426 17.0525 -7.22189C17.1989 -7.46596 17.2965 -7.71004 17.443 -7.95411C18.3216 -9.61381 19.3956 -11.6152 20.5671 -13.7631C20.7136 -14.0559 20.9088 -14.3488 21.0553 -14.6905C21.5434 -15.618 22.0316 -16.5455 22.5197 -17.4242C23.1543 -18.6445 23.7889 -19.8161 24.3747 -20.9388C24.5211 -21.2317 24.6675 -21.5246 24.8628 -21.8175C24.9604 -22.0127 25.0581 -22.1592 25.1557 -22.3544C25.3998 -22.7938 25.6438 -23.2331 25.8391 -23.6236C25.8879 -23.7213 25.9367 -23.8677 26.0344 -23.9653C26.5225 -24.844 26.913 -25.625 27.2547 -26.162C27.5476 -26.6989 27.7917 -27.0895 27.8405 -27.1871C27.8405 -27.1871 27.8405 -27.1871 27.8405 -27.2359C28.0358 -27.5288 28.231 -27.8705 28.6215 -28.2122C28.7192 -28.3098 28.8168 -28.3586 28.9144 -28.4563C29.1585 -28.6515 29.4514 -28.8468 29.8419 -29.0909C31.1599 -29.7743 33.3566 -30.4577 37.3594 -30.897C45.4138 -31.9709 60.3999 -32.4591 65.8183 -32.4591C71.1879 -32.4591 86.2228 -31.9709 94.2285 -31.0923C98.2313 -30.6529 100.477 -29.9695 101.746 -29.2861C102.673 -28.798 103.162 -28.3098 103.454 -27.8217C103.503 -27.7241 103.601 -27.6264 103.65 -27.5776C103.699 -27.5288 103.747 -27.4312 103.747 -27.3824C103.796 -27.3335 103.845 -27.2359 103.894 -27.0895C103.894 -27.0895 103.894 -27.0895 103.894 -27.0406C104.04 -26.7966 104.235 -26.5037 104.431 -26.0644C104.528 -25.8691 104.675 -25.6738 104.772 -25.4298C104.821 -25.3321 104.87 -25.2833 104.919 -25.1857C105.114 -24.844 105.309 -24.5023 105.505 -24.1118C105.993 -23.2331 106.579 -22.1592 107.164 -21.0364C107.262 -20.8412 107.36 -20.6459 107.506 -20.4507C108.238 -19.0839 109.019 -17.6194 109.8 -16.155C110.288 -15.2275 110.777 -14.3 111.265 -13.4214C111.899 -12.201 112.534 -11.0783 113.071 -10.0043C113.657 -8.9304 114.145 -7.95411 114.584 -7.17308C115.463 -5.56219 116 -4.48827 116 -4.48827L119.563 -0.924801C119.563 -0.875986 119.661 -0.680729 119.759 -0.436653C119.759 -0.38784 119.807 -0.339024 119.807 -0.290207C119.807 -0.241394 119.807 -0.192581 119.856 -0.192581C120.344 1.32067 121.418 4.64008 121.662 6.54385C121.809 7.81303 121.906 9.17984 121.906 10.2049C121.955 11.2301 121.955 11.9623 121.955 11.9623V12.0111L122.248 12.8898C122.248 12.9874 122.199 13.4267 122.199 14.0125C122.15 14.6471 122.102 15.5257 122.004 16.502C121.906 18.1129 121.76 20.0167 121.565 21.774C121.565 21.8228 121.565 21.9205 121.565 21.9693C121.516 22.6527 121.467 23.2873 121.369 23.8731C121.369 24.1171 121.321 24.3612 121.272 24.6541C121.272 24.8005 121.223 24.8982 121.223 25.0446C121.223 25.1911 121.174 25.3375 121.174 25.4839C121.174 25.6304 121.125 25.7768 121.125 25.9233C121.125 26.0697 121.077 26.2162 121.077 26.3626C121.028 26.6067 120.979 26.8996 120.979 27.1436C120.832 28.1199 120.637 29.1939 120.442 30.219C120.393 30.5607 120.295 30.9024 120.247 31.1953C120.247 31.2441 120.247 31.2929 120.198 31.3417C120.247 31.4881 120.247 31.537 120.247 31.5858Z" fill="black" fill-opacity="0.3"/>
<path d="M112.63 42.7176H18.2226C18.1738 42.7176 18.125 42.7176 18.0762 42.7176C18.7596 41.6436 19.7847 40.5697 20.8586 39.7887C22.0302 38.9588 23.2505 38.4219 24.2268 38.4219H104.917C109.067 38.4707 111.507 41.1555 112.63 42.7176Z" fill="#3265B1"/>
<path d="M111.998 36.6127H19.3965C19.787 36.1246 21.3491 34.5625 24.7173 34.5625H105.359C106.14 34.5625 107.897 35.0995 109.46 35.6364C110.241 35.9293 110.973 36.1734 111.51 36.3686C111.705 36.4663 111.851 36.5151 111.998 36.6127Z" fill="#3265B1"/>
<path d="M33.3093 -1.41562L33.2605 -1.56206L33.1629 -2.0014V-2.09903V-2.14784L32.6747 -6.10183V-6.24828V-6.3459L31.6984 -7.07812H31.6496C31.6496 -7.07812 30.771 -6.88287 29.7458 -6.58998C28.8184 -6.3459 27.8421 -6.05302 27.2075 -5.80894C27.1587 -5.80894 27.1099 -5.76013 27.061 -5.76013C27.061 -5.76013 27.0122 -5.76013 27.0122 -5.71131C26.4264 -5.41843 25.7919 -4.83265 25.1084 -4.24687C24.425 -3.70991 23.7416 -3.17295 23.2535 -3.02651C22.7165 -2.83125 21.7402 -2.58717 20.7639 -2.14784C19.9829 -1.80614 19.2019 -1.36681 18.6649 -0.829844C18.6161 -0.78103 18.5673 -0.732217 18.5185 -0.683403C18.4697 -0.634588 18.4208 -0.536958 18.372 -0.488143C17.8839 0.244077 17.0052 2.39192 16.2242 4.34451C15.4431 6.2971 14.7597 8.05443 14.7597 8.05443L14.6621 8.24969H35.5548L33.3093 -1.41562ZM15.1503 8.00561C15.2479 7.81035 15.3455 7.51746 15.492 7.07813C15.8825 6.05302 16.5171 4.49095 17.1028 3.02651C17.6886 1.56207 18.3232 0.244077 18.6161 -0.24407C19.0066 -0.927475 19.9341 -1.41562 20.8616 -1.80614C21.7891 -2.19666 22.7653 -2.48955 23.3023 -2.63599C23.8881 -2.83125 24.5715 -3.36821 25.2061 -3.95398C25.8895 -4.53976 26.5241 -5.12554 27.061 -5.36961C27.5492 -5.61368 28.7207 -5.95539 29.7458 -6.24828C30.5757 -6.49235 31.3567 -6.63879 31.6008 -6.68761L32.333 -6.19946L32.8212 -2.05021L35.1643 8.05443H15.1503V8.00561Z" fill="black" fill-opacity="0.3"/>
<path d="M116.83 8.10324C116.83 8.10324 116.147 6.34591 115.366 4.39332C114.585 2.44074 113.657 0.341704 113.218 -0.43933C113.169 -0.488145 113.12 -0.585775 113.071 -0.63459C113.023 -0.683404 112.974 -0.732217 112.925 -0.781032C112.388 -1.36681 111.607 -1.75733 110.826 -2.09903C109.85 -2.48955 108.873 -2.78243 108.336 -2.97769C107.848 -3.12414 107.165 -3.6611 106.53 -4.24687C105.945 -4.73502 105.359 -5.27198 104.822 -5.56487C104.773 -5.61369 104.724 -5.61368 104.675 -5.6625C104.675 -5.6625 104.627 -5.6625 104.627 -5.71131C104.041 -6.0042 102.918 -6.3459 101.893 -6.58998C100.868 -6.88287 99.9891 -7.07812 99.9891 -7.07812H99.9403L99.8915 -7.02931L99.0128 -6.39472V-6.3459V-6.19946L98.5247 -2.19666V-2.14784V-2.05021L98.4271 -1.61088L98.3782 -1.46444L95.9863 8.2985H116.928L116.83 8.10324ZM98.7688 -2.09903L99.2569 -6.24828L99.9891 -6.73642C100.233 -6.68761 100.965 -6.49235 101.844 -6.29709C102.869 -6.0042 104.041 -5.71131 104.529 -5.41843C105.017 -5.17435 105.7 -4.58858 106.384 -4.0028C107.067 -3.41702 107.702 -2.88006 108.288 -2.6848C108.825 -2.48955 109.801 -2.24547 110.728 -1.85495C111.656 -1.46444 112.583 -0.927475 112.974 -0.292885C113.413 0.390521 114.292 2.53836 115.122 4.49095C115.512 5.46724 115.903 6.39472 116.147 7.07813C116.293 7.46865 116.44 7.81035 116.488 8.00561H96.4745L98.7688 -2.09903Z" fill="black" fill-opacity="0.3"/>
<path d="M121.857 21.875H121.711H121.613C121.613 21.9238 121.613 22.0214 121.613 22.0703C121.564 22.7537 121.515 23.3883 121.418 23.974C121.418 24.2181 121.369 24.4622 121.32 24.7551C121.32 24.9015 121.271 24.9991 121.271 25.1456C121.271 25.292 121.222 25.4385 121.222 25.5849C121.222 25.7314 121.174 25.8778 121.174 26.0242C121.174 26.1707 121.125 26.3171 121.125 26.4636C121.076 26.7077 121.027 27.0005 121.027 27.2446C120.881 28.2209 120.685 29.2948 120.49 30.3199C120.441 30.6616 120.344 31.0033 120.295 31.2962C120.295 31.345 120.295 31.3939 120.246 31.4427C120.246 31.4915 120.246 31.4915 120.246 31.5403C120.149 31.9308 120.1 32.3213 120.002 32.7119C120.002 32.7607 120.002 32.8095 119.953 32.8583V32.9071C119.465 35.055 118.928 37.0075 118.342 38.2767C117.61 39.8876 116.878 41.0103 116.097 41.6938C115.999 41.7914 115.902 41.8402 115.804 41.9378C115.706 41.9866 115.658 42.0355 115.56 42.0843C115.511 42.1331 115.511 42.1331 115.462 42.1331C115.462 42.1331 115.413 42.1331 115.413 42.1819C115.316 42.2307 115.267 42.2795 115.169 42.3283C115.072 42.3772 114.974 42.426 114.828 42.4748C114.73 42.5236 114.584 42.5724 114.486 42.5724C114.144 42.67 113.754 42.7189 113.363 42.7189H106.285V55.1178C106.285 55.7036 106.432 56.2405 106.724 56.6799C107.017 57.1192 107.408 57.3633 107.847 57.3633H120.393C120.832 57.3633 121.271 57.0704 121.515 56.6799C121.808 56.2893 121.955 55.7036 121.955 55.1178V21.875H121.857ZM121.613 55.1178C121.613 55.6548 121.467 56.1429 121.222 56.4846C120.978 56.8263 120.685 57.0216 120.344 57.0216H107.847C107.506 57.0216 107.213 56.8263 106.969 56.4846C106.724 56.1429 106.578 55.6548 106.578 55.1178V43.0606H113.314C114.437 43.0606 115.413 42.7189 116.243 41.9866C117.122 41.2544 117.854 40.0829 118.586 38.472C119.953 35.4455 121.076 29.1972 121.564 25.0968V55.1178H121.613Z" fill="black" fill-opacity="0.3"/>
<path d="M18.2263 42.714C18.1775 42.714 18.1287 42.714 18.0798 42.714C17.9822 42.714 17.8358 42.714 17.7381 42.714C17.5429 42.714 17.3476 42.6652 17.1524 42.6164C17.0547 42.5676 16.9083 42.5676 16.8107 42.5188C16.713 42.4699 16.6154 42.4699 16.5178 42.4211H16.469C16.3713 42.3723 16.2737 42.3235 16.1761 42.2747C16.0784 42.2259 15.932 42.1282 15.8344 42.0306C15.7367 41.9818 15.6391 41.8842 15.5415 41.7865C15.151 41.4448 14.7604 41.0055 14.3699 40.4197C14.2723 40.2733 14.1747 40.1268 14.077 39.9804C13.7841 39.4922 13.5401 38.9553 13.2472 38.3695C13.1984 38.2719 13.1496 38.1743 13.1496 38.0766C13.0519 37.7837 12.9055 37.4908 12.8079 37.1491C12.8079 37.1003 12.759 37.0515 12.759 36.9539C12.7102 36.7586 12.6126 36.5634 12.5638 36.3681C12.515 36.1728 12.4173 35.9288 12.3685 35.7335C12.2709 35.4406 12.2221 35.1477 12.1244 34.8548C11.978 34.3667 11.8804 33.8297 11.7339 33.2928C11.6851 33.0487 11.6363 32.8046 11.5875 32.5606C11.5875 32.5117 11.5875 32.4629 11.5387 32.4141C11.4899 32.0724 11.3922 31.7307 11.3434 31.389L11.2946 31.1449V30.9985C11.2946 30.9985 11.2946 30.9985 11.2946 30.9497C11.2946 30.852 11.2458 30.7544 11.2458 30.6568C11.2458 30.608 11.2458 30.5103 11.197 30.4615C11.1482 30.1198 11.0993 29.8269 11.0505 29.4852C11.0017 29.1435 10.9529 28.8506 10.9041 28.5578C10.7576 27.5327 10.5624 26.5075 10.4647 25.5801V25.5312H10.3671H10.2207H10.123V55.0641C10.123 55.6499 10.2695 56.1869 10.5624 56.6262C10.8553 57.0167 11.2458 57.3096 11.6851 57.3096H24.1817C24.6698 57.3096 25.0603 57.0167 25.3044 56.6262C25.5973 56.2357 25.7437 55.6499 25.7437 55.0641V42.714H18.2263ZM25.402 55.1129C25.402 55.6499 25.2556 56.1381 25.0115 56.4798C24.7674 56.8215 24.4746 57.0167 24.1329 57.0167H11.6363C11.2946 57.0167 11.0017 56.8215 10.7576 56.4798C10.5136 56.1381 10.3671 55.6499 10.3671 55.1129V27.7767C10.4647 28.3137 10.5624 28.8995 10.66 29.4364C10.7088 29.7781 10.7576 30.1198 10.8553 30.4615C10.8553 30.5103 10.8553 30.608 10.9041 30.6568C11.0505 31.389 11.197 32.1212 11.3434 32.8535C11.3922 33.1463 11.4899 33.4392 11.5387 33.7321C11.5875 33.8786 11.5875 34.025 11.6363 34.1714C11.9292 35.3918 12.2709 36.5145 12.5638 37.442C12.6126 37.5397 12.6126 37.6373 12.6614 37.7349C12.759 37.979 12.8567 38.2231 12.9543 38.4671C13.6865 40.1268 14.4187 41.2496 15.2974 41.9818C15.9808 42.5676 16.713 42.9093 17.5429 43.0069C17.5917 43.0069 17.6405 43.0069 17.6893 43.0069C17.787 43.0069 17.8358 43.0069 17.9334 43.0069C18.031 43.0069 18.1287 43.0069 18.2263 43.0069H25.3532V55.1129H25.402Z" fill="black" fill-opacity="0.3"/>
<path d="M120.298 31.294L119.956 32.8561C117.857 31.8798 112.292 29.7319 105.605 29.7319H22.8152C21.8389 29.7319 15.6882 30.7082 11.5878 32.4656L11.2461 30.9035C15.3953 29.0485 21.7901 28.0234 22.8152 28.0234H105.605C112.634 28.0723 118.346 30.4154 120.298 31.294Z" fill="#3265B1" stroke="black" stroke-opacity="0.3" stroke-width="0.0976294" stroke-miterlimit="10"/>
</g>
<defs>
<clipPath id="clip0_7549_20715">
<rect width="131" height="62" fill="white" transform="translate(0 0.144531)"/>
</clipPath>
</defs>
</svg>
