<svg width="101" height="74" viewBox="0 0 101 74" fill="none" xmlns="http://www.w3.org/2000/svg">
<g clip-path="url(#clip0_7554_21125)">
<path d="M99.4262 21.3739L99.5386 21.3345C99.2015 20.2296 98.0779 19.2037 96.9918 18.888C96.018 18.6118 93.4337 18.1777 92.4225 18.1777C92.3476 18.1777 92.3101 18.1777 92.2727 18.1777C91.7858 18.2172 91.3738 18.6118 91.0742 19.0853C90.7371 19.5588 90.5124 20.1507 90.4375 20.6637C90.3251 21.295 90.2502 22.4394 90.2127 23.1891H90.3251V23.0707L88.5273 23.1102L91.2614 25.9907H91.3363C92.3101 25.9118 93.8457 25.754 94.5573 25.754H94.6697H94.782C95.3064 25.754 96.2052 25.675 96.9918 25.5172C97.8157 25.3988 98.5648 25.2015 98.9393 25.0437C99.3513 24.8464 99.5386 24.2939 99.6509 23.8599C99.7633 23.3864 99.7633 22.9918 99.7633 22.9918L99.576 21.3345L99.4262 21.3739H99.3139L99.5011 23.0312C99.5011 23.0312 99.5011 23.1102 99.5011 23.268C99.4637 23.5048 99.4262 23.8599 99.3513 24.1756C99.239 24.4912 99.0891 24.7675 98.8644 24.8464C98.5648 25.0042 97.7783 25.1621 96.9543 25.3199C96.1303 25.4383 95.2689 25.5567 94.782 25.5567H94.6697H94.5573C93.8082 25.5567 92.3101 25.675 91.3363 25.7934V25.9118L91.4112 25.8329L89.1266 23.4258L90.4375 23.3864V23.268C90.4749 22.5577 90.5873 21.4134 90.6622 20.7821C90.7371 20.348 90.9618 19.7561 91.2614 19.3221C91.561 18.8485 91.9356 18.5329 92.2727 18.5329C92.3101 18.5329 92.3476 18.5329 92.4225 18.5329C93.3588 18.5329 95.9805 18.9669 96.9169 19.2037C97.8906 19.4799 98.9768 20.4664 99.2764 21.4529L99.4262 21.3739Z" fill="black" fill-opacity="0.42"/>
<path d="M11.1118 23.2676V23.1492L9.61364 23.1098V23.2281H9.726C9.68855 22.5179 9.57619 21.3736 9.50128 20.7027C9.42637 20.1898 9.20165 19.5979 8.86458 19.1244C8.5275 18.6509 8.11551 18.2563 7.66607 18.2168C7.62862 18.2168 7.55371 18.2168 7.51626 18.2168C6.50503 18.2168 3.95821 18.6509 2.94697 18.9271C1.89828 19.2427 0.737235 20.2292 0.400157 21.3736L0.212891 23.0309C0.212891 23.0309 0.212891 23.4649 0.32525 23.899C0.43761 24.3725 0.587422 24.8854 1.03686 25.0827C1.41139 25.2406 2.16046 25.4379 2.98443 25.5563C3.8084 25.6746 4.66982 25.793 5.19416 25.793H5.30652H5.41888C6.13049 25.793 7.66607 25.9114 8.63986 26.0298H8.71476L11.4488 23.1492H11.1492L11.1118 23.2676L11.0369 23.1887L8.56495 25.793L8.63986 25.8719V25.7536C7.66607 25.6746 6.13049 25.5168 5.41888 25.5168H5.30652H5.19416C4.66982 25.5168 3.8084 25.4379 3.02188 25.28C2.19791 25.1617 1.44885 24.9644 1.11177 24.8065C0.812142 24.6881 0.624876 24.2146 0.549969 23.7806C0.512516 23.6227 0.475063 23.386 0.475063 23.2281C0.475063 23.0703 0.475063 22.9914 0.475063 22.9914L0.662329 21.3341H0.549969L0.662329 21.3736C0.961954 20.3871 2.0481 19.4006 3.02188 19.1244C3.95821 18.8481 6.57993 18.4536 7.51626 18.4536C7.55371 18.4536 7.62862 18.4536 7.66607 18.4536C8.00315 18.4536 8.37768 18.8087 8.67731 19.2427C8.97694 19.6768 9.20166 20.2687 9.27656 20.7027C9.38892 21.3341 9.46383 22.4784 9.50128 23.1887V23.3071L11.1118 23.3465V23.2676Z" fill="black" fill-opacity="0.42"/>
<path d="M99.1631 21.4137L99.238 21.3743C98.9383 20.4273 97.9271 19.4802 96.9533 19.204C95.9795 18.9278 93.4327 18.5332 92.4964 18.5332C92.4589 18.5332 92.384 18.5332 92.3466 18.5332C92.0095 18.5727 91.6724 18.8883 91.3728 19.2829C91.1106 19.717 90.8859 20.23 90.811 20.7035C90.6986 21.3348 90.6237 22.5186 90.5863 23.1894L90.5488 23.4656V23.5051L91.8222 25.5964H91.8597C92.796 25.5175 93.9571 25.3991 94.5938 25.3991H94.8185C95.8297 25.3991 98.1893 25.044 98.8634 24.7283C99.0882 24.61 99.238 24.3337 99.3129 23.9786C99.3878 23.6629 99.4627 23.2683 99.4627 22.9921L99.2754 21.3743L99.1631 21.4137H99.0881L99.2754 22.9921C99.2754 23.2683 99.238 23.6235 99.1256 23.9391C99.0507 24.2548 98.9009 24.531 98.7511 24.61C98.1518 24.8862 95.7548 25.2808 94.7436 25.2808H94.5189C93.8822 25.2808 92.7211 25.3597 91.7848 25.4781V25.557L91.8222 25.5175L90.6237 23.5051V23.2683C90.6612 22.5975 90.7735 21.4137 90.8485 20.8219C90.9234 20.3878 91.1106 19.8354 91.4103 19.4408C91.6724 19.0462 92.0095 18.7305 92.2717 18.7305C92.3091 18.7305 92.3466 18.7305 92.384 18.7305C93.3204 18.7305 95.8672 19.1251 96.8035 19.4013C97.7398 19.6775 98.7511 20.6246 99.0132 21.4927L99.1631 21.4137Z" fill="black" fill-opacity="0.42"/>
<path d="M0.773891 21.4133L0.848797 21.4528C1.11097 20.5847 2.12221 19.6377 3.05854 19.3615C3.99486 19.0852 6.54168 18.6906 7.47801 18.6906C7.51546 18.6906 7.55292 18.6906 7.59037 18.6906C7.85254 18.6906 8.18962 19.0063 8.45179 19.4009C8.71397 19.7955 8.93868 20.3085 9.01359 20.782C9.12595 21.4133 9.20086 22.5971 9.23831 23.2285V23.4652L8.03981 25.4777L8.07726 25.5171V25.4382C7.14093 25.3593 5.97988 25.2409 5.34318 25.2409H5.11846C4.14468 25.2409 1.74767 24.8858 1.11097 24.5701C0.961157 24.4912 0.811344 24.2544 0.736438 23.8993C0.661531 23.5836 0.586625 23.2285 0.586625 22.9523L0.848797 21.4528L0.773891 21.4133H0.698985L0.511719 22.9917C0.511719 23.2679 0.549172 23.6625 0.661531 23.9782C0.773891 24.2939 0.886251 24.6096 1.11097 24.7279C1.78513 25.0436 4.14468 25.3988 5.15591 25.3988H5.38063C5.97988 25.3988 7.17839 25.4777 8.11471 25.596H8.15217L9.38812 23.5047L9.35067 23.2285C9.31322 22.5577 9.20086 21.3739 9.12595 20.7425C9.05104 20.269 8.82633 19.7166 8.56415 19.322C8.30198 18.8879 7.9649 18.5723 7.59037 18.5723C7.55292 18.5723 7.51546 18.5723 7.44056 18.5723C6.46677 18.5723 3.91996 18.9669 2.98363 19.2431C2.00985 19.5193 0.961157 20.4663 0.698985 21.4133H0.773891Z" fill="black" fill-opacity="0.42"/>
<path d="M33.0591 34.3163V34.3953H66.6921L68.0779 25.0039H31.2988L33.0217 34.3953H33.0591V34.3163H33.134L31.4486 25.1617H67.9655L66.6172 34.2769H33.0591V34.3163Z" fill="black" fill-opacity="0.42"/>
<path d="M24.7819 25.0832H24.707L24.8194 25.5567V25.5962H75.0441L75.1565 25.0438V24.9648H24.707V25.0438L24.7819 25.0832V25.1621H75.1565V25.0832H75.0816L74.9692 25.5173H24.9692L24.8568 25.0832H24.7819Z" fill="black" fill-opacity="0.42"/>
<path d="M72.684 35.8157V35.7368H27.1035L27.7777 38.7752C27.7777 38.7752 27.9275 39.3671 28.4893 39.9984C29.0511 40.5903 29.9874 41.1822 31.5979 41.1822C34.744 41.1822 66.3545 41.1822 68.0773 41.1822C69.8376 41.1822 71.7103 40.3535 72.0099 38.8146C72.1597 38.1044 72.4593 36.8811 72.7215 35.8157H72.684H72.7589V35.3027L72.6466 35.7762C72.3844 36.8417 72.0848 38.0649 71.935 38.7752C71.6728 40.1957 69.8376 41.0244 68.1148 41.0244C66.3919 41.0244 34.7814 41.0244 31.6354 41.0244C30.0623 41.0244 29.1634 40.4325 28.6391 39.88C28.3769 39.6038 28.1897 39.2881 28.1148 39.0908C28.0773 38.9725 28.0398 38.8935 28.0024 38.8146C27.9649 38.7357 27.9649 38.7357 27.9649 38.7357L27.3282 35.8552H72.7589V35.7762H72.684V35.8157Z" fill="black" fill-opacity="0.42"/>
<path d="M26.8417 34.3178V34.3967H73.1339V34.3573C73.2462 33.9627 73.2837 33.7259 73.2837 33.7259L73.3586 33.4103L75.1938 25.1238L75.5683 21.6908H75.4934C73.5459 21.454 65.8305 20.5859 50.1002 20.5859C33.2837 20.5859 25.6058 21.5724 24.3698 21.7303H24.2949L24.6695 25.1238L26.5047 33.4103L26.7294 34.3967H26.7668V34.3178H26.8417L26.6919 33.3708L24.8567 25.0843L24.4822 21.7697H24.4073V21.8486C25.6432 21.6908 33.3211 20.7043 50.1002 20.7043C65.8305 20.7043 73.5459 21.5724 75.4934 21.8092V21.7303H75.4185L75.044 25.0843L73.2088 33.3708L73.1339 33.6865C73.1339 33.6865 73.059 33.9232 72.9841 34.3178H73.059V34.2389H26.8417V34.3178Z" fill="black" fill-opacity="0.42"/>
<path d="M14.2572 56.4134L14.2947 56.4529L14.3321 56.374C14.5943 56.0583 15.7928 54.7167 18.452 54.7167C21.5231 54.7167 79.0887 54.7167 80.3246 54.7167C80.9239 54.7167 82.2722 55.1507 83.4707 55.5848C84.0699 55.8215 84.6317 56.0188 85.0437 56.1767C85.4557 56.3345 85.7179 56.4529 85.7179 56.4529L85.7553 56.374V56.295H14.2572V56.4134V56.4923H86.055L85.7553 56.374C85.7553 56.374 84.7066 55.9399 83.5456 55.4664C82.3471 55.0323 80.9988 54.5588 80.3621 54.5588C79.0887 54.5588 21.5231 54.5588 18.4894 54.5588C15.4183 54.5588 14.2198 56.3345 14.2198 56.374L14.1449 56.4923H14.2572V56.4134ZM80.5119 50.7707V50.6918C73.8827 50.6918 17.8153 50.6918 16.9913 50.6918C16.2048 50.6918 11.3733 51.5205 8.1898 52.941L8.15234 52.9804V53.0199C8.52688 54.8745 8.97631 56.6502 9.50066 57.7945C10.6243 60.4383 11.7853 61.4642 13.5081 61.4642H86.5044C88.1898 61.4642 89.3883 60.4383 90.5119 57.7945C90.9613 56.6896 91.4108 55.0718 91.7853 53.3356V53.2961L91.7478 53.2567C90.1748 52.5069 85.8677 50.6523 80.5868 50.6523V50.7707V50.8496C85.8302 50.8496 90.1374 52.6648 91.6729 53.4145L91.7104 53.3356H91.6355C91.261 55.0718 90.849 56.6896 90.3995 57.755C89.2759 60.3988 88.1523 61.3459 86.5044 61.3459H13.4707C11.8228 61.3459 10.6992 60.3594 9.57556 57.755C9.08867 56.6107 8.63923 54.8745 8.2647 53.0199H8.1898L8.22725 53.0988C11.3733 51.6388 16.2048 50.8496 16.9913 50.8496C17.8527 50.8496 73.8827 50.8496 80.5119 50.8496V50.7707Z" fill="black" fill-opacity="0.42"/>
<path d="M79.7626 22.3214L79.7252 22.3608C80.1371 22.5976 80.624 23.0711 81.1109 23.5052C81.5978 23.9392 82.1222 24.3733 82.5341 24.5311C83.2832 24.8073 85.1184 25.3203 85.9424 26.2279L86.0547 26.1489L86.0173 26.1884V26.2673L91.6727 26.583L91.6353 26.5041C91.5229 26.1489 91.448 25.9516 91.448 25.9516L88.6765 23.0316C88.6765 23.0316 86.4667 18.6516 84.1821 14.1138C81.8974 9.61542 79.5379 4.99867 79.2757 4.52515C79.1634 4.36731 79.051 4.13056 78.8637 3.93326L78.6016 3.57812L78.7514 3.97272C79.9499 7.0111 82.684 13.877 83.0959 15.4949C83.1709 15.7711 83.2083 16.0473 83.2083 16.363C83.2083 18.0992 81.9723 20.23 79.7252 22.2424L79.6502 22.3214L79.7252 22.3608L79.7626 22.3214L79.8001 22.3608C82.0473 20.3484 83.3207 18.2176 83.3207 16.4024C83.3207 16.0868 83.2832 15.7711 83.2083 15.4949C82.7963 13.877 80.0622 7.0111 78.8637 3.97272L78.7888 4.01218L78.7514 4.05164C78.9012 4.24894 79.0135 4.44623 79.1259 4.64353C79.3881 5.07758 81.7476 9.69434 84.0323 14.1927C85.1933 16.4419 86.3169 18.6911 87.1409 20.3484C87.5529 21.177 87.9274 21.8873 88.1521 22.3608C88.3768 22.8343 88.5267 23.1106 88.5267 23.1106L91.2607 25.9911L91.2982 25.9516L91.2233 25.9911C91.2233 25.9911 91.2982 26.1884 91.4106 26.5435L91.4855 26.5041V26.4251L85.7926 26.1095L85.8675 26.2279L85.9049 26.1884L85.9424 26.1489C85.081 25.2019 83.2458 24.6889 82.4967 24.4127C82.1222 24.2549 81.5978 23.8603 81.1109 23.4262C80.624 22.9922 80.0997 22.5187 79.6877 22.2819L79.7626 22.3214Z" fill="black" fill-opacity="0.42"/>
<path d="M17.3664 24.4913L17.4039 24.5702C17.8533 24.4124 18.3402 23.9783 18.8645 23.5048C19.3889 23.0313 19.8758 22.5973 20.2878 22.3605C20.3252 22.321 20.4001 22.321 20.4376 22.2816L20.5125 22.2421L20.4376 22.1632C18.2653 20.1902 17.0668 18.1383 17.0668 16.4021C17.0668 16.0864 17.1042 15.8102 17.1791 15.534C17.6286 13.8373 20.6623 6.14266 21.7484 3.45941L21.8233 3.22266L21.6361 3.38049C21.1117 3.81455 20.887 4.20914 20.6997 4.52482C20.4001 4.95887 18.078 9.57563 15.7934 14.1135C13.5087 18.6118 11.299 23.0313 11.299 23.0313L8.52745 25.9513C8.52745 25.9513 8.45255 26.1486 8.34019 26.5037L8.30273 26.5827L13.9582 26.2275C14.7821 25.32 16.6173 24.807 17.3664 24.5308V24.4913L17.329 24.4124C16.5799 24.6886 14.7447 25.1621 13.8833 26.1486L13.9582 26.1881V26.1091L8.37764 26.4248V26.5037L8.45255 26.5432C8.56491 26.1881 8.63981 25.9908 8.63981 25.9908L8.56491 25.9513L8.60236 25.9908L11.3364 23.1102C11.3364 23.1102 11.4863 22.834 11.711 22.3605C12.5724 20.6637 14.7072 16.4416 16.6922 12.5351C18.6773 8.6286 20.5125 5.03779 20.7372 4.6432C20.9245 4.32752 21.1492 3.93293 21.6735 3.49887L21.6361 3.45941L21.5612 3.41995C20.5125 6.06374 17.4413 13.7978 16.9919 15.4945C16.917 15.7708 16.8795 16.0864 16.8795 16.4021C16.8795 18.1778 18.1155 20.2691 20.2878 22.2816L20.3252 22.2421L20.2878 22.1632C20.2128 22.2027 20.1754 22.2027 20.1379 22.2421C19.726 22.4789 19.2016 22.9524 18.6773 23.3864C18.1529 23.86 17.666 24.2545 17.254 24.4124L17.3664 24.4913Z" fill="black" fill-opacity="0.42"/>
<path d="M93.2087 36.4872H93.2836C93.2836 36.4872 93.2836 34.1986 93.0589 32.0678C92.8716 30.4499 92.0102 27.6483 91.6357 26.4645V26.425L85.8679 26.1094L85.9803 26.2278C86.0552 26.3067 86.1301 26.4251 86.205 26.5434C86.542 27.0959 87.2537 28.8321 87.8529 30.4105C88.1525 31.1996 88.4522 31.9494 88.6394 32.5018C88.8641 33.0542 88.9765 33.4094 88.9765 33.4094L89.0514 33.3699V33.291H87.4409V33.3699C87.4784 33.6461 87.5158 34.0407 87.5158 34.4748C87.5158 35.3429 87.366 36.4478 86.7668 37.3159C86.1675 38.2234 85.1188 38.8942 83.3211 39.0126C81.4859 39.0915 79.2761 39.131 77.1788 39.131C75.2312 39.131 73.396 39.0915 71.9353 39.0915H71.8979V39.131C71.4484 40.3542 69.763 41.0645 68.1525 41.0645C66.4297 41.0645 34.8192 41.0645 31.6731 41.0645C29.351 41.0645 28.4522 39.8018 28.1525 39.131V39.0915H28.1151C26.6544 39.131 24.7443 39.131 22.7593 39.131C20.6619 39.131 18.4522 39.0915 16.617 39.0126C14.8192 38.9337 13.7705 38.2234 13.1713 37.3159C12.572 36.4083 12.4222 35.3429 12.4222 34.4748C12.4222 34.0407 12.4596 33.6461 12.4971 33.3699V33.291H11.0364V33.3699L11.1113 33.4094C11.1113 33.4094 11.2237 33.0542 11.4484 32.5018C12.0477 30.8445 13.3585 27.3721 13.8829 26.5434C13.9578 26.4251 14.0327 26.3461 14.1076 26.2278L14.22 26.1094L8.3398 26.425V26.4645C7.96527 27.6483 7.10385 30.4499 6.91658 32.0678C6.69186 34.1591 6.69186 36.4872 6.69186 36.4872H6.76677L6.69186 36.4478L6.42969 37.2369C6.42969 37.2369 6.80422 42.9191 7.10385 46.1548C7.25366 47.6937 7.55328 49.8245 7.92781 51.8764V51.9553L8.00272 51.9159C11.1488 50.4164 16.1675 49.5483 16.954 49.5483C17.8155 49.5483 73.8454 49.5483 80.4746 49.5483C86.0177 49.5483 90.5121 51.5607 91.8229 52.2315L91.8979 52.271V52.1921C92.3098 50.0218 92.6469 47.7332 92.7967 46.1153C93.0964 42.8796 93.4709 37.1975 93.4709 37.1975L93.2462 36.4478L93.2087 36.4872L93.1338 36.5267L93.3585 37.2764L93.4334 37.2369H93.3585C93.3585 37.2369 93.3211 37.5921 93.2836 38.184C93.1713 39.9202 92.9091 43.7478 92.6844 46.1548C92.5346 47.7726 92.1975 50.0218 91.7855 52.1921H91.8604L91.8979 52.1132C90.587 51.4423 86.0552 49.3905 80.5121 49.3905C73.8829 49.3905 17.8155 49.3905 16.9915 49.3905C16.1675 49.3905 11.1488 50.2191 7.96527 51.758L8.00272 51.8369H8.07763C7.7031 49.7456 7.40347 47.6542 7.25366 46.1153C7.10385 44.4975 6.91658 42.2878 6.80422 40.4332C6.72931 39.5256 6.69186 38.6969 6.65441 38.105C6.61695 37.5132 6.5795 37.158 6.5795 37.158H6.50459L6.5795 37.1975L6.80422 36.4478C6.80422 36.4478 6.80422 35.8559 6.84167 35.0272C6.87913 34.1986 6.91658 33.0937 7.06639 32.0283C7.25366 30.4105 8.11508 27.6088 8.48961 26.425L8.41471 26.3856V26.4645L13.9578 26.2278V26.1488L13.9203 26.1094C13.8454 26.2278 13.7331 26.3067 13.6582 26.425C13.3211 27.0169 12.6095 28.7137 12.0102 30.2921C11.411 31.8705 10.8866 33.291 10.8866 33.291L10.8492 33.3699H12.3473V33.291H12.2724C12.2349 33.5672 12.1975 33.9618 12.1975 34.3959C12.1975 35.3034 12.3473 36.4083 12.984 37.3159C13.6207 38.2234 14.7068 38.9732 16.542 39.0521C18.3773 39.131 20.587 39.1705 22.6844 39.1705C24.6694 39.1705 26.5795 39.131 28.0402 39.131V39.0521L28.0027 39.0915C28.3398 39.7623 29.2761 41.104 31.6357 41.104C34.7817 41.104 66.3922 41.104 68.1151 41.104C69.7256 41.104 71.4484 40.3937 71.9728 39.0915L71.8979 39.0521V39.131C73.3585 39.1705 75.2312 39.1705 77.1413 39.1705C79.2387 39.1705 81.4484 39.131 83.2836 39.0521C85.1188 38.9732 86.205 38.2234 86.8417 37.3159C87.4784 36.4083 87.6282 35.264 87.6282 34.3959C87.6282 33.9618 87.5907 33.5672 87.5533 33.291H87.4784V33.3699H89.1263L89.0889 33.291C89.0889 33.291 88.5645 31.8705 87.9653 30.2921C87.366 28.7137 86.6544 26.9775 86.3173 26.425C86.2424 26.3067 86.1675 26.2278 86.0926 26.1094L86.0552 26.1488V26.2278L91.5982 26.5434V26.4645L91.5233 26.504C91.8979 27.6878 92.7593 30.4894 92.9465 32.1072C93.0589 33.1332 93.1338 34.238 93.1713 35.1061C93.2087 35.9348 93.2087 36.5267 93.2087 36.5267V36.4872Z" fill="black" fill-opacity="0.42"/>
<path d="M13.4716 61.4647V61.5831H86.3555L86.2431 61.3858C85.4566 60.1231 83.4716 57.5977 79.9885 57.5977C75.3817 57.5977 19.951 57.5977 18.0784 57.5977C17.2544 57.5977 16.2806 58.0317 15.3443 58.742C14.4454 59.4128 13.584 60.3598 13.0596 61.3463L12.9473 61.5436H13.1345C13.2469 61.5436 13.3593 61.5436 13.4716 61.5436V61.4647V61.3068C13.3593 61.3068 13.2469 61.3068 13.1345 61.3068V61.4252L13.2469 61.5041C13.7712 60.5571 14.5952 59.6495 15.4941 58.9787C16.393 58.3079 17.3293 57.8739 18.0784 57.8739C19.951 57.8739 75.3817 57.8739 79.9885 57.8739C83.3593 57.8739 85.2694 60.2809 86.0184 61.5041L86.1308 61.4252V61.3068H13.4716V61.4647Z" fill="black" fill-opacity="0.42"/>
<path d="M79.2384 4.56488L79.3508 4.48596C79.3133 4.4465 79.2758 4.40704 79.2384 4.32812L79.0137 4.4465L87.1785 23.3476L89.9126 24.413V24.2157L88.7141 22.953L88.6391 23.0319L88.7515 22.953C88.7515 22.953 86.5418 18.573 84.2571 14.0352C83.0961 11.786 81.9725 9.49731 81.0361 7.72164C80.5867 6.85353 80.1747 6.06434 79.8751 5.51191C79.5755 4.95948 79.3882 4.56488 79.3133 4.4465L79.2384 4.56488L79.126 4.6438C79.2009 4.76218 79.3882 5.11731 79.6878 5.66975C80.7365 7.64272 82.9463 12.0227 84.8938 15.8503C85.8676 17.7838 86.7665 19.5989 87.4406 20.9011C88.1148 22.2427 88.5268 23.0714 88.5268 23.0714L89.7253 24.3341L89.8002 24.2552L89.8376 24.1368L87.3657 23.1503L79.2384 4.32812L79.126 4.36758L79.0137 4.4465C79.0511 4.48596 79.0886 4.56488 79.126 4.60434L79.2384 4.56488Z" fill="black" fill-opacity="0.42"/>
<path d="M10.1373 24.2555L10.1747 24.3739L12.7216 23.3874L20.8489 4.60471L20.6242 4.48633V4.52579C20.5493 4.64417 20.362 4.9993 20.0624 5.59119C18.0024 9.53714 11.186 23.0323 11.186 23.0323L11.2983 23.1112L11.2234 23.0323L9.65039 24.6107L10.1747 24.4134L10.1373 24.2555L10.2122 24.3344L11.3732 23.1112C11.3732 23.1112 11.523 22.835 11.7478 22.3615C12.6092 20.6647 14.744 16.4425 16.729 12.5361C17.7403 10.5631 18.6766 8.70849 19.4257 7.28795C19.8002 6.57768 20.0998 5.94633 20.362 5.51227C20.5867 5.07822 20.774 4.76254 20.8114 4.68363L20.8489 4.64417L20.7365 4.56525L20.6242 4.48633L12.5343 23.1901L10.0998 24.1371L10.1373 24.2555Z" fill="black" fill-opacity="0.42"/>
<path d="M81.1488 61.4645V61.3066H18.9766V64.4239H81.2987V61.3066H81.1863V61.4645H81.0739V64.1872H19.2013V61.5829H81.1488V61.4645Z" fill="black" fill-opacity="0.42"/>
<path d="M93.2075 36.4863H93.3198C93.3198 36.4863 93.3198 34.1582 93.0951 32.0668C92.8329 29.936 91.4846 25.8717 91.4846 25.8717V25.8322L88.7131 22.9122L88.6382 22.9912L88.7505 22.9122C88.7505 22.9122 86.5408 18.5322 84.2561 13.9944C83.0951 11.7452 81.934 9.45657 81.0352 7.68089C80.5857 6.81278 80.1737 6.02359 79.8741 5.47116C79.5745 4.91873 79.3872 4.52413 79.3123 4.40576C79.0501 3.9717 78.6756 3.34035 77.6644 2.78792C76.6157 2.19603 74.8928 1.68305 71.7842 1.28846C65.6045 0.578188 54.1063 0.183594 49.949 0.183594C45.7917 0.183594 34.2936 0.578188 28.1138 1.28846C25.0427 1.72251 23.3198 2.27495 22.2711 2.86684C21.2224 3.45873 20.8854 4.05062 20.6232 4.48467C20.5483 4.60305 20.361 4.95819 20.0614 5.55008C18.0015 9.49603 11.185 22.9912 11.185 22.9912L11.2973 23.0701L11.2224 22.9912L8.45089 25.9112V25.9506C8.45089 25.9506 7.10258 30.0149 6.84041 32.1458C6.61569 34.2371 6.61569 36.5652 6.61569 36.5652H6.72805L6.61569 36.4468L6.35352 37.236V37.2755C6.35352 37.2755 6.72805 42.9576 7.02767 46.1933C7.36475 49.429 8.30108 55.1901 9.42468 57.8733C9.98647 59.2149 10.5483 60.1225 11.2224 60.7144C11.8966 61.3063 12.6082 61.5825 13.4696 61.5825H86.4659C87.3273 61.5825 88.0764 61.3063 88.7131 60.7144C89.3872 60.1225 89.949 59.1755 90.5108 57.8733C91.6344 55.1901 92.5707 49.429 92.9078 46.1933C93.2449 42.9576 93.582 37.2755 93.582 37.2755V37.236L93.3198 36.4468L93.2075 36.4863L93.0951 36.5258L93.3198 37.2755L93.4322 37.236H93.3198C93.3198 37.236 93.2824 37.5912 93.2449 38.1831C93.1325 39.9193 92.8704 43.7468 92.6457 46.1539C92.346 49.3501 91.3722 55.1506 90.2861 57.7549C89.7243 59.0571 89.1625 59.9647 88.5633 60.5171C87.964 61.0695 87.2898 61.3063 86.4659 61.3063H13.4696C12.6457 61.3063 11.9715 61.0695 11.3722 60.5171C10.773 59.9647 10.2112 59.0571 9.6494 57.7549C8.56325 55.1506 7.58947 49.3895 7.28985 46.1539C7.14003 44.536 6.95277 42.3263 6.84041 40.4717C6.7655 39.5641 6.72805 38.7355 6.69059 38.1436C6.65314 37.5517 6.61569 37.1966 6.61569 37.1966H6.50333L6.61569 37.236L6.87786 36.4468V36.4074C6.87786 36.4074 6.87786 35.8155 6.91531 34.9868C6.95277 34.1582 6.99022 33.0533 7.14003 32.0274C7.25239 31.0014 7.66438 29.4625 8.03891 28.1998C8.22617 27.5685 8.41344 26.9766 8.5258 26.582C8.63816 26.1874 8.75052 25.9112 8.75052 25.9112L8.63816 25.8717L8.71307 25.9506L11.4846 23.0306C11.4846 23.0306 11.6344 22.7544 11.8591 22.2809C12.7206 20.5841 14.8554 16.362 16.8404 12.4555C17.8516 10.4825 18.788 8.62792 19.537 7.20738C19.9116 6.49711 20.2112 5.86576 20.4734 5.4317C20.6981 4.99765 20.8854 4.68197 20.9228 4.60305C21.2224 4.169 21.4846 3.61657 22.4958 3.06413C23.5071 2.5117 25.1925 1.95927 28.2636 1.60413C34.331 0.933324 45.8292 0.538729 49.9865 0.538729C54.1438 0.538729 65.6419 0.933324 71.7842 1.64359C74.8554 1.99873 76.5782 2.55116 77.552 3.10359C78.5633 3.65603 78.8254 4.20846 79.1251 4.64251C79.2 4.76089 79.3872 5.11603 79.6869 5.66846C80.7355 7.64143 82.9453 12.0214 84.8928 15.849C85.8666 17.7825 86.803 19.5976 87.4397 20.8998C88.1138 22.2414 88.5258 23.0701 88.5258 23.0701L91.2973 25.9901L91.3722 25.9112L91.2599 25.9506C91.2599 25.9506 91.3348 26.1874 91.4846 26.6214C91.8591 27.8447 92.6831 30.5279 92.8704 32.0668C92.9827 33.0928 93.0576 34.1976 93.0951 35.0263C93.1325 35.8549 93.1325 36.4468 93.1325 36.4468V36.4863V36.5258L93.2075 36.4863Z" fill="black" fill-opacity="0.42"/>
<path d="M49.9502 18.848V18.9664H78.4146L78.452 18.9269C78.452 18.9269 79.2385 18.0983 79.2385 16.8356C79.2385 16.7566 79.2385 16.6777 79.2385 16.5988C79.2011 16.2437 79.0513 15.415 78.8266 14.3891C78.1524 11.2718 76.879 6.1815 76.879 6.1815L76.8415 6.10258H76.7666C68.2273 4.76096 58.04 4.64258 52.1599 4.64258C51.3359 4.64258 50.6243 4.64258 49.9876 4.64258C49.3509 4.64258 48.6393 4.64258 47.8153 4.64258C41.8977 4.64258 31.7479 4.7215 23.2086 6.10258H23.1337L23.0962 6.1815C23.0962 6.1815 22.5344 8.43069 21.9352 10.8772C21.6355 12.1004 21.3359 13.3631 21.1112 14.3891C20.8865 15.415 20.7367 16.2437 20.6992 16.5988C20.6992 16.6777 20.6992 16.7566 20.6992 16.8356C20.6992 18.0983 21.4857 18.8874 21.4857 18.9269L21.5232 18.9664H49.9876V18.848V18.6901H21.5232V18.8085L21.5981 18.7296V18.6901C21.4483 18.5323 20.9239 17.822 20.9239 16.8356C20.9239 16.7566 20.9239 16.6777 20.9239 16.6383C20.9614 16.3226 21.1112 15.4939 21.3359 14.468C21.673 12.9291 22.1599 10.8772 22.5719 9.21988C22.7591 8.39123 22.9464 7.6415 23.0962 7.12852C23.2086 6.61555 23.3209 6.29988 23.3209 6.29988L23.2086 6.26042V6.37879C31.7479 5.03717 41.8977 4.95825 47.7779 4.95825C48.6018 4.95825 49.3135 4.95825 49.9502 4.95825C50.5869 4.95825 51.2985 4.95825 52.1224 4.95825C58.04 4.95825 68.1899 5.03717 76.6917 6.37879V6.26042L76.5794 6.29988C76.5794 6.29988 76.7292 6.85231 76.9539 7.72042C77.291 9.02258 77.7779 10.9956 78.1899 12.8107C78.6018 14.5864 78.9389 16.2042 78.9764 16.6777C78.9764 16.7566 78.9764 16.8356 78.9764 16.875C78.9764 17.4669 78.7891 17.9404 78.6393 18.2561C78.5644 18.4139 78.452 18.5323 78.3771 18.6507L78.3022 18.7691L78.2648 18.8085L78.3397 18.8874V18.6901H49.9127V18.848H49.9502Z" fill="black" fill-opacity="0.42"/>
<path d="M21.8232 18.1382L21.9355 18.0593C21.7857 17.8225 21.561 17.3885 21.561 16.8361C21.561 16.7966 21.561 16.7177 21.561 16.6782C21.5985 16.2442 21.8981 14.942 22.3101 13.2847C22.722 11.6274 23.2464 9.65444 23.6958 7.8393L23.5835 7.79984V7.91822C31.4486 6.69498 41.1116 6.53714 48.1902 6.53714H52.5348C59.6134 6.53714 68.3775 6.69498 76.2427 7.91822V7.79984L76.1303 7.8393C76.5797 9.65444 77.1041 11.6669 77.5161 13.2847C77.928 14.942 78.2651 16.2442 78.2651 16.6782C78.2651 16.7177 78.2651 16.7966 78.2651 16.8361C78.2651 17.3885 78.0404 17.8225 77.8906 18.0593L78.0029 18.1382V18.0198H21.8232V18.1382V18.2961H78.1153L78.1528 18.2566C78.34 17.9804 78.5647 17.5069 78.5647 16.8755C78.5647 16.8361 78.5647 16.7571 78.5647 16.6782C78.5273 16.2047 78.2277 14.9025 77.7782 13.2452C77.3662 11.588 76.8419 9.57552 76.3925 7.79984L76.355 7.72093H76.2801C68.3775 6.49768 59.6134 6.33984 52.5348 6.33984H48.1902C41.1116 6.33984 31.4486 6.49768 23.546 7.72093H23.4711L23.4337 7.79984C22.9842 9.61498 22.4599 11.588 22.0479 13.2452C21.6359 14.9025 21.3363 16.2047 21.2988 16.6782C21.2988 16.7571 21.2988 16.7966 21.2988 16.8755C21.2988 17.5069 21.561 18.0198 21.7108 18.2566L21.7483 18.2961H21.8232V18.1382Z" fill="black" fill-opacity="0.42"/>
<path d="M25.0434 25.6359L25.006 25.5175L24.9311 25.1624V25.0835V25.044L24.5566 21.8478V21.7294V21.6505L23.8075 21.0586H23.77C23.77 21.0586 23.0959 21.2164 22.3094 21.4532C21.5978 21.6505 20.8487 21.8872 20.3618 22.0845C20.3243 22.0845 20.2869 22.124 20.2494 22.124C20.2494 22.124 20.212 22.124 20.212 22.1635C19.7625 22.4002 19.2757 22.8737 18.7513 23.3472C18.227 23.7813 17.7026 24.2154 17.3281 24.3337C16.9161 24.4916 16.167 24.6889 15.418 25.044C14.8187 25.3202 14.2195 25.6754 13.8075 26.1094C13.77 26.1489 13.7326 26.1883 13.6951 26.2278C13.6577 26.2672 13.6202 26.3462 13.5828 26.3856C13.2082 26.9775 12.5341 28.7137 11.9348 30.2921C11.3356 31.8705 10.8112 33.291 10.8112 33.291L10.7363 33.4489H26.7663L25.0434 25.6359ZM11.1109 33.2516C11.1858 33.0937 11.2607 32.857 11.373 32.5018C11.6727 31.6732 12.1595 30.4105 12.609 29.2267C13.0584 28.0429 13.5453 26.9775 13.77 26.5829C14.0697 26.0305 14.7813 25.6359 15.4929 25.3202C16.2045 25.0045 16.9536 24.7678 17.3655 24.6494C17.815 24.4916 18.3393 24.0575 18.8262 23.584C19.3506 23.1105 19.8375 22.637 20.2494 22.4397C20.624 22.2424 21.5228 21.9662 22.3094 21.7294C22.9461 21.5321 23.5453 21.4137 23.7326 21.3743L24.2944 21.7689L24.6689 25.1229L26.4667 33.291H11.1109V33.2516Z" fill="black" fill-opacity="0.42"/>
<path d="M26.5042 33.2523H11.1484C11.2233 33.0945 11.2983 32.8577 11.4106 32.5026C11.7102 31.6739 12.1971 30.4112 12.6466 29.2274C13.096 28.0436 13.5829 26.9782 13.8076 26.5836C14.1072 26.0312 14.8188 25.6366 15.5305 25.3209C16.2421 25.0053 16.9911 24.7685 17.4031 24.6501C17.8526 24.4923 18.3769 24.0582 18.8638 23.5847C19.3881 23.1112 19.875 22.6377 20.287 22.4404C20.6615 22.2431 21.5604 21.9669 22.3469 21.7301C22.9836 21.5328 23.5829 21.4145 23.7702 21.375L24.332 21.7696L24.7065 25.1236L26.5042 33.2523Z" fill="#3265B1"/>
<path d="M40.3624 5.23441V5.31333C40.3624 5.31333 40.7369 5.31333 41.4111 5.31333C43.3961 5.27387 47.9279 5.19495 52.1976 5.19495C55.044 5.19495 57.8155 5.23441 59.6507 5.31333V5.23441L59.6133 5.19495V5.23441C59.5384 5.35279 59.089 5.86576 58.1526 5.86576C57.0665 5.86576 41.8605 5.86576 41.1114 5.86576V5.94468L41.1489 5.90522C41.1489 5.90522 40.9991 5.8263 40.8493 5.70792C40.6994 5.58954 40.5122 5.39224 40.4747 5.27387L40.3624 5.23441H40.2875C40.3624 5.4317 40.5496 5.629 40.6994 5.74738C40.8867 5.86576 41.0365 5.98414 41.0365 5.98414C41.7856 5.98414 56.9916 5.98414 58.0777 5.98414C59.2013 5.98414 59.6507 5.27387 59.6507 5.23441L59.7257 5.15549H59.6133C57.7781 5.07657 55.044 5.03711 52.1601 5.03711C46.4298 5.03711 40.3249 5.15549 40.3249 5.15549H40.25L40.2875 5.23441H40.3624Z" fill="black" fill-opacity="0.42"/>
<path d="M88.8265 33.2507H73.4707L75.2685 25.0826L75.643 21.7286L76.2048 21.334C76.3921 21.3734 76.9539 21.5313 77.628 21.6891C78.4145 21.9259 79.3134 22.1626 79.6879 22.3994C80.0625 22.5967 80.5868 23.0702 81.1112 23.5437C81.6355 24.0172 82.1224 24.4513 82.5718 24.6091C82.9838 24.767 83.7329 24.9643 84.4445 25.2799C85.1561 25.5956 85.8677 26.0297 86.1673 26.5426C86.5044 27.0951 87.1786 28.8313 87.8153 30.4097C88.1149 31.1988 88.4145 31.9486 88.6018 32.501C88.6767 32.8167 88.7891 33.0929 88.8265 33.2507Z" fill="#3265B1"/>
<path d="M89.1253 33.3305C89.1253 33.3305 88.601 31.9099 88.0017 30.3316C87.4025 28.7532 86.6909 27.0564 86.3538 26.4251C86.3163 26.3856 86.2789 26.3067 86.2414 26.2672C86.204 26.2278 86.1665 26.1883 86.1291 26.1489C85.7171 25.6754 85.1178 25.3597 84.5186 25.0835C83.7695 24.7678 83.0205 24.531 82.6085 24.3732C82.2339 24.2548 81.7096 23.8208 81.2227 23.3472C80.7733 22.9526 80.3238 22.5186 79.9118 22.2818C79.8744 22.2424 79.8369 22.2424 79.7995 22.2029C79.7995 22.2029 79.762 22.2029 79.762 22.1635C79.3126 21.9267 78.4512 21.6505 77.6646 21.4532C76.8781 21.2164 76.204 21.0586 76.204 21.0586H76.1665L76.1291 21.0981L75.4549 21.611V21.6505V21.7689L75.0804 25.0045V25.044V25.1229L75.0055 25.4781L74.968 25.5964L73.1328 33.4883H89.2002L89.1253 33.3305ZM75.2676 25.0835L75.6422 21.7294L76.204 21.3348C76.3912 21.3743 76.953 21.5321 77.6272 21.6899C78.4137 21.9267 79.3126 22.1635 79.6871 22.4002C80.0617 22.5975 80.586 23.071 81.1103 23.5445C81.6347 24.0181 82.1216 24.4521 82.571 24.6099C82.983 24.7678 83.7321 24.9651 84.4437 25.2808C85.1553 25.5964 85.8669 26.0305 86.1665 26.5435C86.5036 27.0959 87.1778 28.8321 87.8145 30.4105C88.1141 31.1997 88.4137 31.9494 88.601 32.5018C88.7133 32.8175 88.8257 33.0937 88.8631 33.2516H73.5073L75.2676 25.0835Z" fill="black" fill-opacity="0.42"/>
<path d="M92.7951 46.1557H92.6828C92.3831 49.352 91.4093 55.1525 90.3232 57.7568C89.7614 59.059 89.1996 59.9666 88.6004 60.519C88.0011 61.0714 87.3269 61.3082 86.503 61.3082H81.0723V71.3309C81.0723 71.8044 81.1846 72.2384 81.4093 72.5936C81.6341 72.9093 81.9337 73.146 82.3082 73.146H91.8962C92.2333 73.146 92.5704 72.9093 92.7577 72.5936C92.9824 72.2779 93.0947 71.8044 93.0947 71.3309V44.459H92.8326C92.7951 45.0509 92.7202 45.6428 92.6828 46.1557H92.7951H92.9075C92.9449 45.6428 93.0198 45.0509 93.0573 44.459H92.9449H92.8326V71.3309C92.8326 71.7649 92.7202 72.1595 92.5329 72.4357C92.3457 72.712 92.121 72.8698 91.8588 72.8698H82.2708C82.0086 72.8698 81.7839 72.712 81.5966 72.4357C81.4093 72.1595 81.297 71.7649 81.297 71.3309V61.5844H86.4655C87.327 61.5844 88.076 61.3082 88.7127 60.7163C89.3869 60.1244 89.9487 59.1774 90.5105 57.8752C91.6341 55.192 92.5704 49.4309 92.9075 46.1952L92.7951 46.1557Z" fill="black" fill-opacity="0.42"/>
<path d="M13.4702 61.4655V61.3077C12.6462 61.3077 11.9721 61.0709 11.3728 60.5185C10.7736 59.9661 10.2118 59.0585 9.64999 57.7563C8.67621 55.4677 7.81478 50.6931 7.4028 47.418H7.14062V71.3304C7.14062 71.8039 7.25299 72.238 7.4777 72.5931C7.70242 72.9088 8.00205 73.1455 8.37658 73.1455H17.9646C18.3017 73.1455 18.6388 72.9088 18.826 72.5931C19.0507 72.2774 19.1631 71.8039 19.1631 71.3304V61.3077H13.4702V61.4655V61.5839H18.9384V71.3304C18.9384 71.7645 18.826 72.159 18.6388 72.4353C18.4515 72.7115 18.2268 72.8693 17.9646 72.8693H8.41403C8.15186 72.8693 7.92714 72.7115 7.73988 72.4353C7.55261 72.159 7.44025 71.7645 7.44025 71.3304V47.418H7.32789H7.21553C7.62752 50.7326 8.48894 55.4677 9.46272 57.8353C10.0245 59.1769 10.5863 60.0845 11.2605 60.6763C11.9346 61.2682 12.6462 61.5445 13.5077 61.5445V61.4655H13.4702Z" fill="black" fill-opacity="0.42"/>
</g>
<defs>
<clipPath id="clip0_7554_21125">
<rect width="100" height="73" fill="white" transform="translate(0.0996094 0.144531)"/>
</clipPath>
</defs>
</svg>
