<svg width="101" height="74" viewBox="0 0 101 74" fill="none" xmlns="http://www.w3.org/2000/svg">
<g clip-path="url(#clip0_7554_21154)">
<path d="M100.184 20.2232L100.296 20.1857C99.9593 19.137 98.8357 18.1632 97.7496 17.8636C96.7758 17.6014 94.1915 17.1895 93.1803 17.1895C93.1054 17.1895 93.0679 17.1895 93.0305 17.1895C92.5436 17.2269 92.1316 17.6014 91.832 18.0509C91.4949 18.5003 91.2702 19.0621 91.1953 19.549C91.0829 20.1483 91.008 21.2344 90.9705 21.946H91.0829V21.8336L89.2852 21.8711L92.0192 24.6052H92.0941C93.0679 24.5303 94.6035 24.3805 95.3151 24.3805H95.4275H95.5398C96.0642 24.3805 96.9631 24.3056 97.7496 24.1557C98.5735 24.0434 99.3226 23.8561 99.6971 23.7063C100.109 23.519 100.296 22.9947 100.409 22.5827C100.521 22.1333 100.521 21.7587 100.521 21.7587L100.334 20.1857L100.184 20.2232H100.072L100.259 21.7962C100.259 21.7962 100.259 21.8711 100.259 22.0209C100.221 22.2456 100.184 22.5827 100.109 22.8823C99.9968 23.182 99.847 23.4441 99.6222 23.519C99.3226 23.6689 98.5361 23.8187 97.7121 23.9685C96.8882 24.0808 96.0267 24.1932 95.5398 24.1932H95.4275H95.3151C94.5661 24.1932 93.0679 24.3056 92.0941 24.4179V24.5303L92.1691 24.4554L89.8844 22.1707L91.1953 22.1333V22.0209C91.2327 21.3468 91.3451 20.2606 91.42 19.6614C91.4949 19.2494 91.7196 18.6876 92.0192 18.2756C92.3189 17.8262 92.6934 17.5265 93.0305 17.5265C93.0679 17.5265 93.1054 17.5265 93.1803 17.5265C94.1166 17.5265 96.7383 17.9385 97.6747 18.1632C98.6484 18.4254 99.7346 19.3617 100.034 20.2981L100.184 20.2232Z" fill="black" fill-opacity="0.42"/>
<path d="M11.8696 22.0225V21.9102L10.3715 21.8727V21.9851H10.4838C10.4464 21.3109 10.334 20.2248 10.2591 19.5881C10.1842 19.1012 9.95947 18.5394 9.62239 18.0899C9.28531 17.6405 8.87333 17.266 8.42389 17.2285C8.38643 17.2285 8.31153 17.2285 8.27407 17.2285C7.26284 17.2285 4.71602 17.6405 3.70479 17.9027C2.6561 18.2023 1.49505 19.1386 1.15797 20.2248L0.970703 21.7978C0.970703 21.7978 0.970703 22.2098 1.08306 22.6218C1.19542 23.0712 1.34523 23.5581 1.79467 23.7454C2.16921 23.8952 2.91827 24.0824 3.74224 24.1948C4.56621 24.3072 5.42763 24.4195 5.95198 24.4195H6.06434H6.1767C6.88831 24.4195 8.42389 24.5319 9.39767 24.6442H9.47258L12.2067 21.9102H11.907L11.8696 22.0225L11.7947 21.9476L9.32276 24.4195L9.39767 24.4944V24.3821C8.42389 24.3072 6.88831 24.1574 6.1767 24.1574H6.06434H5.95198C5.42763 24.1574 4.56621 24.0824 3.77969 23.9326C2.95572 23.8203 2.20666 23.633 1.86958 23.4832C1.56995 23.3708 1.38269 22.9214 1.30778 22.5094C1.27033 22.3596 1.23288 22.1349 1.23288 21.9851C1.23288 21.8353 1.23288 21.7604 1.23288 21.7604L1.42014 20.1873H1.30778L1.42014 20.2248C1.71977 19.2884 2.80591 18.3521 3.77969 18.0899C4.71602 17.8278 7.33774 17.4532 8.27407 17.4532C8.31153 17.4532 8.38643 17.4532 8.42389 17.4532C8.76097 17.4532 9.1355 17.7903 9.43512 18.2023C9.73475 18.6143 9.95947 19.1761 10.0344 19.5881C10.1467 20.1873 10.2216 21.2735 10.2591 21.9476V22.06L11.8696 22.0974V22.0225Z" fill="black" fill-opacity="0.42"/>
<path d="M99.9209 20.2614L99.9958 20.224C99.6962 19.3251 98.6849 18.4262 97.7111 18.164C96.7374 17.9019 94.1905 17.5273 93.2542 17.5273C93.2168 17.5273 93.1418 17.5273 93.1044 17.5273C92.7673 17.5648 92.4302 17.8644 92.1306 18.239C91.8684 18.6509 91.6437 19.1378 91.5688 19.5873C91.4565 20.1865 91.3815 21.3101 91.3441 21.9468L91.3066 22.209V22.2464L92.58 24.2315H92.6175C93.5538 24.1566 94.7149 24.0442 95.3516 24.0442H95.5763C96.5875 24.0442 98.9471 23.7071 99.6213 23.4075C99.846 23.2951 99.9958 23.033 100.071 22.6959C100.146 22.3963 100.22 22.0217 100.22 21.7596L100.033 20.224L99.9209 20.2614H99.846L100.033 21.7596C100.033 22.0217 99.9958 22.3588 99.8834 22.6584C99.8085 22.9581 99.6587 23.2202 99.5089 23.2951C98.9096 23.5573 96.5126 23.9318 95.5014 23.9318H95.2767C94.64 23.9318 93.4789 24.0067 92.5426 24.1191V24.194L92.58 24.1566L91.3815 22.2464V22.0217C91.419 21.385 91.5314 20.2614 91.6063 19.6996C91.6812 19.2876 91.8684 18.7633 92.1681 18.3888C92.4302 18.0142 92.7673 17.7146 93.0295 17.7146C93.0669 17.7146 93.1044 17.7146 93.1418 17.7146C94.0782 17.7146 96.625 18.0891 97.5613 18.3513C98.4977 18.6135 99.5089 19.5124 99.7711 20.3363L99.9209 20.2614Z" fill="black" fill-opacity="0.42"/>
<path d="M1.5317 20.2611L1.60661 20.2985C1.86878 19.4746 2.88002 18.5757 3.81635 18.3135C4.75268 18.0513 7.29949 17.6768 8.23582 17.6768C8.27328 17.6768 8.31073 17.6768 8.34818 17.6768C8.61035 17.6768 8.94743 17.9764 9.20961 18.351C9.47178 18.7255 9.6965 19.2124 9.7714 19.6618C9.88376 20.2611 9.95867 21.3847 9.99612 21.9839V22.2086L8.79762 24.1188L8.83507 24.1562V24.0813C7.89874 24.0064 6.7377 23.894 6.10099 23.894H5.87627C4.90249 23.894 2.50549 23.557 1.86878 23.2573C1.71897 23.1824 1.56916 22.9577 1.49425 22.6206C1.41934 22.321 1.34444 21.9839 1.34444 21.7218L1.60661 20.2985L1.5317 20.2611H1.4568L1.26953 21.7592C1.26953 22.0214 1.30698 22.3959 1.41934 22.6955C1.5317 22.9952 1.64406 23.2948 1.86878 23.4071C2.54294 23.7068 4.90249 24.0439 5.91373 24.0439H6.13844C6.7377 24.0439 7.9362 24.1188 8.87253 24.2311H8.90998L10.1459 22.2461L10.1085 21.9839C10.071 21.3472 9.95867 20.2236 9.88376 19.6244C9.80886 19.1749 9.58414 18.6506 9.32197 18.2761C9.05979 17.8641 8.72271 17.5645 8.34818 17.5645C8.31073 17.5645 8.27328 17.5645 8.19837 17.5645C7.22459 17.5645 4.67777 17.939 3.74144 18.2012C2.76766 18.4633 1.71897 19.3622 1.4568 20.2611H1.5317Z" fill="black" fill-opacity="0.42"/>
<path d="M33.8169 32.5089V32.5838H67.4499L68.8357 23.6699H32.0566L33.7795 32.5838H33.8169V32.5089H33.8918L32.2065 23.8197H68.7233L67.375 32.4714H33.8169V32.5089Z" fill="black" fill-opacity="0.42"/>
<path d="M25.5398 23.7452H25.4648L25.5772 24.1946V24.2321H75.8019L75.9143 23.7077V23.6328H25.4648V23.7077L25.5398 23.7452V23.8201H75.9143V23.7452H75.8394L75.727 24.1572H25.727L25.6147 23.7452H25.5398Z" fill="black" fill-opacity="0.42"/>
<path d="M73.4419 33.9322V33.8573H27.8613L28.5355 36.7412C28.5355 36.7412 28.6853 37.303 29.2471 37.9022C29.8089 38.464 30.7452 39.0258 32.3557 39.0258C35.5018 39.0258 67.1123 39.0258 68.8351 39.0258C70.5954 39.0258 72.4681 38.2393 72.7677 36.7786C72.9175 36.1045 73.2171 34.9434 73.4793 33.9322H73.4419H73.5168V33.4453L73.4044 33.8948C73.1422 34.906 72.8426 36.067 72.6928 36.7412C72.4306 38.0895 70.5954 38.876 68.8726 38.876C67.1497 38.876 35.5392 38.876 32.3932 38.876C30.8201 38.876 29.9213 38.3142 29.3969 37.7899C29.1347 37.5277 28.9475 37.2281 28.8726 37.0408C28.8351 36.9285 28.7977 36.8536 28.7602 36.7786C28.7228 36.7037 28.7228 36.7037 28.7228 36.7037L28.086 33.9697H73.5168V33.8948H73.4419V33.9322Z" fill="black" fill-opacity="0.42"/>
<path d="M27.5996 32.5103V32.5852H73.8917V32.5477C74.004 32.1732 74.0415 31.9485 74.0415 31.9485L74.1164 31.6488L75.9516 23.7837L76.3261 20.5253H76.2512C74.3037 20.3005 66.5883 19.4766 50.858 19.4766C34.0415 19.4766 26.3636 20.4129 25.1276 20.5627H25.0527L25.4273 23.7837L27.2625 31.6488L27.4872 32.5852H27.5246V32.5103H27.5996L27.4497 31.6114L25.6145 23.7462L25.24 20.6002H25.1651V20.6751C26.4011 20.5253 34.079 19.5889 50.858 19.5889C66.5883 19.5889 74.3037 20.4129 76.2512 20.6376V20.5627H76.1763L75.8018 23.7462L73.9666 31.6114L73.8917 31.911C73.8917 31.911 73.8168 32.1357 73.7419 32.5103H73.8168V32.4354H27.5996V32.5103Z" fill="black" fill-opacity="0.42"/>
<path d="M86.5128 53.446C86.5128 53.446 85.4641 53.034 84.2656 52.622C83.0671 52.21 81.7188 51.7981 81.0821 51.7606H19.2094C16.1383 51.7606 14.9398 53.446 14.9398 53.4834L14.8649 53.5958H86.8124L86.5128 53.446ZM15.127 53.446C15.4267 53.0715 16.6252 51.873 19.2094 51.873H81.0821C81.6813 51.873 83.0297 52.2849 84.2282 52.6969C84.8274 52.9216 85.3892 53.1089 85.8012 53.2587C85.951 53.2962 86.0634 53.3711 86.1757 53.4085H15.127V53.446ZM86.5128 53.446C86.5128 53.446 85.4641 53.034 84.2656 52.622C83.0671 52.21 81.7188 51.7981 81.0821 51.7606H19.2094C16.1383 51.7606 14.9398 53.446 14.9398 53.4834L14.8649 53.5958H86.8124L86.5128 53.446ZM15.127 53.446C15.4267 53.0715 16.6252 51.873 19.2094 51.873H81.0821C81.6813 51.873 83.0297 52.2849 84.2282 52.6969C84.8274 52.9216 85.3892 53.1089 85.8012 53.2587C85.951 53.2962 86.0634 53.3711 86.1757 53.4085H15.127V53.446ZM86.5128 53.446C86.5128 53.446 85.4641 53.034 84.2656 52.622C83.0671 52.21 81.7188 51.7981 81.0821 51.7606H19.2094C16.1383 51.7606 14.9398 53.446 14.9398 53.4834L14.8649 53.5958H86.8124L86.5128 53.446ZM15.127 53.446C15.4267 53.0715 16.6252 51.873 19.2094 51.873H81.0821C81.6813 51.873 83.0297 52.2849 84.2282 52.6969C84.8274 52.9216 85.3892 53.1089 85.8012 53.2587C85.951 53.2962 86.0634 53.3711 86.1757 53.4085H15.127V53.446ZM86.5128 53.446C86.5128 53.446 85.4641 53.034 84.2656 52.622C83.0671 52.21 81.7188 51.7981 81.0821 51.7606H19.2094C16.1383 51.7606 14.9398 53.446 14.9398 53.4834L14.8649 53.5958H86.8124L86.5128 53.446ZM15.127 53.446C15.4267 53.0715 16.6252 51.873 19.2094 51.873H81.0821C81.6813 51.873 83.0297 52.2849 84.2282 52.6969C84.8274 52.9216 85.3892 53.1089 85.8012 53.2587C85.951 53.2962 86.0634 53.3711 86.1757 53.4085H15.127V53.446ZM86.5128 53.446C86.5128 53.446 85.4641 53.034 84.2656 52.622C83.0671 52.21 81.7188 51.7981 81.0821 51.7606H19.2094C16.1383 51.7606 14.9398 53.446 14.9398 53.4834L14.8649 53.5958H86.8124L86.5128 53.446ZM15.127 53.446C15.4267 53.0715 16.6252 51.873 19.2094 51.873H81.0821C81.6813 51.873 83.0297 52.2849 84.2282 52.6969C84.8274 52.9216 85.3892 53.1089 85.8012 53.2587C85.951 53.2962 86.0634 53.3711 86.1757 53.4085H15.127V53.446ZM86.5128 53.446C86.5128 53.446 85.4641 53.034 84.2656 52.622C83.0671 52.21 81.7188 51.7981 81.0821 51.7606H19.2094C16.1383 51.7606 14.9398 53.446 14.9398 53.4834L14.8649 53.5958H86.8124L86.5128 53.446ZM15.127 53.446C15.4267 53.0715 16.6252 51.873 19.2094 51.873H81.0821C81.6813 51.873 83.0297 52.2849 84.2282 52.6969C84.8274 52.9216 85.3892 53.1089 85.8012 53.2587C85.951 53.2962 86.0634 53.3711 86.1757 53.4085H15.127V53.446ZM92.4304 50.5246C92.393 50.5246 92.3555 50.4872 92.318 50.4497C90.6701 49.7007 86.4379 48.0527 81.3068 48.0527H17.7488C16.9622 48.0527 12.2806 48.8018 9.09708 50.1501C9.05963 50.1501 9.02217 50.1876 8.98472 50.1876L8.94727 50.225V50.2625C9.3218 52.0602 9.77124 53.7082 10.2581 54.7943C11.2694 57.0415 12.3181 58.0902 13.7413 58.2774C13.8911 58.2774 14.0784 58.3149 14.2656 58.3149H87.2619C88.9473 58.3149 90.1458 57.3411 91.2694 54.8318C91.7188 53.7831 92.1682 52.2475 92.5428 50.5995V50.5621L92.4304 50.5246ZM91.1195 54.7569C89.9959 57.2662 88.8724 58.1651 87.2244 58.1651H14.2282C14.0784 58.1651 13.9285 58.1651 13.7787 58.1276C12.3555 57.9778 11.3443 57.004 10.333 54.7194C9.84614 53.6333 9.3967 52.0228 9.02217 50.2625C9.02217 50.2625 9.05963 50.2625 9.09708 50.225C9.35925 50.1127 9.62142 50.0003 9.92105 49.8879C10.0334 49.8505 10.1458 49.813 10.2581 49.7756C10.4079 49.7381 10.5203 49.7007 10.6701 49.6258C10.8574 49.5509 11.0821 49.5134 11.2694 49.4385C11.7188 49.2887 12.1682 49.1763 12.6177 49.064C12.73 49.0265 12.8424 48.9891 12.9548 48.9891C13.0671 48.9516 13.1795 48.9142 13.2918 48.9142C13.3667 48.8767 13.4791 48.8767 13.554 48.8392C13.7787 48.7643 14.0409 48.7269 14.2656 48.6894C14.378 48.652 14.5278 48.652 14.6401 48.6145C15.0521 48.5396 15.4267 48.4647 15.8012 48.3898C15.9885 48.3524 16.1383 48.3149 16.2881 48.3149C16.363 48.3149 16.4379 48.2775 16.5128 48.2775C16.5128 48.2775 16.5503 48.2775 16.5877 48.2775C16.6626 48.2775 16.775 48.24 16.8499 48.24C16.9248 48.24 16.9622 48.24 17.0372 48.2025C17.1121 48.2025 17.1495 48.2025 17.2244 48.1651C17.2993 48.1651 17.3368 48.1651 17.4117 48.1276C17.4866 48.1276 17.5615 48.1276 17.599 48.1276C17.6739 48.1276 17.7488 48.1276 17.7862 48.1276H81.3068C81.569 48.1276 81.8312 48.1276 82.0933 48.1276C82.2057 48.1276 82.3555 48.1276 82.4679 48.1276C82.5802 48.1276 82.73 48.1276 82.8424 48.1651C82.9548 48.1651 83.0671 48.1651 83.1795 48.2025C83.4042 48.2025 83.6289 48.24 83.8536 48.2775C84.0034 48.2775 84.1533 48.3149 84.2656 48.3149C84.3405 48.3149 84.4529 48.3524 84.5278 48.3524C84.79 48.3898 85.0521 48.4273 85.3143 48.4647C85.5765 48.5022 85.8012 48.5396 86.0634 48.6145C86.1383 48.6145 86.2132 48.652 86.2506 48.652C86.363 48.6894 86.5128 48.6894 86.6252 48.7269C86.8873 48.7643 87.1121 48.8393 87.3368 48.8767C87.5989 48.9516 87.8237 48.9891 88.0858 49.064C88.3106 49.1389 88.5353 49.1763 88.7975 49.2512C88.9098 49.2887 89.0222 49.3261 89.1345 49.3636C89.2469 49.401 89.3593 49.4385 89.4716 49.476C89.5465 49.5134 89.6214 49.5134 89.6963 49.5509C89.7712 49.5883 89.8461 49.5883 89.9211 49.6258C90.0709 49.6632 90.1832 49.7007 90.333 49.7756C90.5203 49.8505 90.7076 49.8879 90.8574 49.9628C90.9697 50.0003 91.0821 50.0378 91.157 50.0752C91.3068 50.1127 91.4192 50.1876 91.5315 50.225C91.8312 50.3374 92.0559 50.4497 92.2806 50.5246C92.2806 50.5246 92.3181 50.5246 92.3555 50.5621C91.981 52.2475 91.569 53.7456 91.1195 54.7569ZM84.3031 52.5846C83.1046 52.1726 81.7563 51.7606 81.1196 51.7231H19.2094C16.1383 51.7231 14.9398 53.4085 14.9398 53.446L14.8649 53.5584H86.8124L86.5128 53.446C86.5128 53.446 85.4641 52.9966 84.3031 52.5846ZM15.127 53.446C15.4267 53.0715 16.6252 51.873 19.2094 51.873H81.0821C81.6813 51.873 83.0297 52.2849 84.2282 52.6969C84.8274 52.9216 85.3892 53.1089 85.8012 53.2587C85.951 53.2962 86.0634 53.3711 86.1757 53.4085H15.127V53.446ZM86.5128 53.446C86.5128 53.446 85.4641 53.034 84.2656 52.622C83.0671 52.21 81.7188 51.7981 81.0821 51.7606H19.2094C16.1383 51.7606 14.9398 53.446 14.9398 53.4834L14.8649 53.5958H86.8124L86.5128 53.446ZM15.127 53.446C15.4267 53.0715 16.6252 51.873 19.2094 51.873H81.0821C81.6813 51.873 83.0297 52.2849 84.2282 52.6969C84.8274 52.9216 85.3892 53.1089 85.8012 53.2587C85.951 53.2962 86.0634 53.3711 86.1757 53.4085H15.127V53.446ZM86.5128 53.446C86.5128 53.446 85.4641 53.034 84.2656 52.622C83.0671 52.21 81.7188 51.7981 81.0821 51.7606H19.2094C16.1383 51.7606 14.9398 53.446 14.9398 53.4834L14.8649 53.5958H86.8124L86.5128 53.446ZM15.127 53.446C15.4267 53.0715 16.6252 51.873 19.2094 51.873H81.0821C81.6813 51.873 83.0297 52.2849 84.2282 52.6969C84.8274 52.9216 85.3892 53.1089 85.8012 53.2587C85.951 53.2962 86.0634 53.3711 86.1757 53.4085H15.127V53.446ZM86.5128 53.446C86.5128 53.446 85.4641 53.034 84.2656 52.622C83.0671 52.21 81.7188 51.7981 81.0821 51.7606H19.2094C16.1383 51.7606 14.9398 53.446 14.9398 53.4834L14.8649 53.5958H86.8124L86.5128 53.446ZM15.127 53.446C15.4267 53.0715 16.6252 51.873 19.2094 51.873H81.0821C81.6813 51.873 83.0297 52.2849 84.2282 52.6969C84.8274 52.9216 85.3892 53.1089 85.8012 53.2587C85.951 53.2962 86.0634 53.3711 86.1757 53.4085H15.127V53.446ZM86.5128 53.446C86.5128 53.446 85.4641 53.034 84.2656 52.622C83.0671 52.21 81.7188 51.7981 81.0821 51.7606H19.2094C16.1383 51.7606 14.9398 53.446 14.9398 53.4834L14.8649 53.5958H86.8124L86.5128 53.446ZM15.127 53.446C15.4267 53.0715 16.6252 51.873 19.2094 51.873H81.0821C81.6813 51.873 83.0297 52.2849 84.2282 52.6969C84.8274 52.9216 85.3892 53.1089 85.8012 53.2587C85.951 53.2962 86.0634 53.3711 86.1757 53.4085H15.127V53.446ZM86.5128 53.446C86.5128 53.446 85.4641 53.034 84.2656 52.622C83.0671 52.21 81.7188 51.7981 81.0821 51.7606H19.2094C16.1383 51.7606 14.9398 53.446 14.9398 53.4834L14.8649 53.5958H86.8124L86.5128 53.446ZM15.127 53.446C15.4267 53.0715 16.6252 51.873 19.2094 51.873H81.0821C81.6813 51.873 83.0297 52.2849 84.2282 52.6969C84.8274 52.9216 85.3892 53.1089 85.8012 53.2587C85.951 53.2962 86.0634 53.3711 86.1757 53.4085H15.127V53.446ZM86.5128 53.446C86.5128 53.446 85.4641 53.034 84.2656 52.622C83.0671 52.21 81.7188 51.7981 81.0821 51.7606H19.2094C16.1383 51.7606 14.9398 53.446 14.9398 53.4834L14.8649 53.5958H86.8124L86.5128 53.446ZM15.127 53.446C15.4267 53.0715 16.6252 51.873 19.2094 51.873H81.0821C81.6813 51.873 83.0297 52.2849 84.2282 52.6969C84.8274 52.9216 85.3892 53.1089 85.8012 53.2587C85.951 53.2962 86.0634 53.3711 86.1757 53.4085H15.127V53.446ZM86.5128 53.446C86.5128 53.446 85.4641 53.034 84.2656 52.622C83.0671 52.21 81.7188 51.7981 81.0821 51.7606H19.2094C16.1383 51.7606 14.9398 53.446 14.9398 53.4834L14.8649 53.5958H86.8124L86.5128 53.446ZM15.127 53.446C15.4267 53.0715 16.6252 51.873 19.2094 51.873H81.0821C81.6813 51.873 83.0297 52.2849 84.2282 52.6969C84.8274 52.9216 85.3892 53.1089 85.8012 53.2587C85.951 53.2962 86.0634 53.3711 86.1757 53.4085H15.127V53.446Z" fill="black" fill-opacity="0.42"/>
<path d="M92.2803 50.5982C92.093 50.5233 91.8308 50.4109 91.5312 50.2986C91.4188 50.2611 91.3065 50.1862 91.1567 50.1487C91.0443 50.1113 90.9319 50.0738 90.857 50.0364C90.6698 49.9615 90.52 49.924 90.3327 49.8491C90.1829 49.8117 90.0705 49.7742 89.9207 49.6993C89.8458 49.6618 89.7709 49.6618 89.696 49.6244C89.6211 49.5869 89.5462 49.5869 89.4713 49.5495C89.3589 49.512 89.2465 49.4746 89.1342 49.4371C89.0218 49.3997 88.9095 49.3622 88.7971 49.3248C88.5724 49.2499 88.3477 49.175 88.0855 49.1375C87.8233 49.1 87.5986 49.0251 87.3364 48.9502C87.1117 48.9128 86.8495 48.8379 86.6248 48.8004C86.5125 48.763 86.4001 48.763 86.2503 48.7255C86.1754 48.7255 86.1005 48.6881 86.063 48.6881C85.8383 48.6506 85.5761 48.6132 85.314 48.5382C85.0518 48.5008 84.7896 48.4633 84.5274 48.4259C84.4525 48.4259 84.3402 48.3884 84.2653 48.3884C84.1155 48.3884 84.0031 48.351 83.8533 48.351C83.6286 48.3135 83.4039 48.3135 83.1791 48.2761C83.0668 48.2761 82.9544 48.2761 82.842 48.2386C82.7297 48.2386 82.5799 48.2386 82.4675 48.2012C82.3552 48.2012 82.2053 48.2012 82.093 48.2012C81.8308 48.2012 81.5686 48.2012 81.3065 48.2012H17.7484C17.711 48.2012 17.6361 48.2012 17.5612 48.2012C17.4862 48.2012 17.4488 48.2012 17.3739 48.2012C17.299 48.2012 17.2615 48.2012 17.1866 48.2386C17.1492 48.2386 17.0743 48.2386 16.9994 48.2761C16.9619 48.2761 16.887 48.2761 16.8121 48.3135C16.7372 48.3135 16.6248 48.351 16.5499 48.351C16.5499 48.351 16.5125 48.351 16.475 48.351C16.4001 48.351 16.3252 48.3884 16.2503 48.3884C16.1005 48.4259 15.9132 48.4259 15.7634 48.4633C15.3889 48.5382 15.0143 48.6132 14.6024 48.6881C14.49 48.7255 14.3402 48.7255 14.2278 48.763C14.0031 48.8004 13.7784 48.8753 13.5162 48.9128C13.4413 48.9128 13.3664 48.9502 13.254 48.9877C13.1417 49.0251 13.0293 49.0251 12.917 49.0626C12.8046 49.1 12.6922 49.1375 12.5799 49.1375C12.1304 49.2499 11.681 49.3622 11.2316 49.512C11.0443 49.5869 10.8196 49.6244 10.6323 49.6993C10.4825 49.7368 10.3701 49.7742 10.2203 49.8491C10.108 49.8866 9.99561 49.924 9.88325 49.9615C9.58363 50.0738 9.32145 50.1862 9.05928 50.2986C9.02183 50.2986 9.02183 50.2985 8.98438 50.336C9.35891 52.0963 9.80835 53.7068 10.2952 54.7929C11.3065 57.0401 12.3177 58.0139 13.7409 58.2012C13.8907 58.2012 14.0406 58.2386 14.1904 58.2386H87.1866C88.8346 58.2386 89.9582 57.3023 91.0817 54.8304C91.5312 53.8191 91.9432 52.321 92.3177 50.6731C92.3177 50.5982 92.3177 50.5982 92.2803 50.5982ZM14.9394 53.4446C14.9394 53.4446 16.1005 51.7218 19.2091 51.7218H81.0818C81.7559 51.7218 83.0668 52.1338 84.2653 52.5832C85.4638 52.9952 86.5125 53.4072 86.5125 53.4072L86.8121 53.5195H14.8645L14.9394 53.4446ZM14.2278 58.1263C14.1904 58.1263 14.1529 58.1263 14.1155 58.1263C14.6398 57.3023 15.4263 56.4783 16.2503 55.8791C17.1492 55.2424 18.0855 54.8304 18.8346 54.8304H80.7447C83.9282 54.8304 85.8383 56.8903 86.6623 58.0888H14.2278V58.1263Z" fill="#3265B1"/>
<path d="M79.9208 4.30708C79.8834 4.34453 79.8834 4.34453 79.9208 4.30708C79.9208 4.38199 79.9583 4.41944 79.9957 4.5318C79.9583 4.49435 79.9583 4.38199 79.9208 4.30708ZM92.3927 25.0561V25.0187C92.3178 24.8314 92.2804 24.6816 92.2429 24.6067C92.2429 24.5693 92.2055 24.5318 92.2055 24.5318L89.4714 21.7977C89.3216 21.5355 87.1867 17.4906 84.977 13.3708C82.9545 9.58798 80.8572 5.69285 80.2205 4.56925C80.1455 4.41944 80.0706 4.34453 80.0332 4.26963C79.9957 4.23217 79.9957 4.19472 79.9583 4.11981C79.8834 4.00745 79.771 3.85764 79.6587 3.74528L79.3965 3.4082L79.5463 3.78273C79.5838 3.85764 79.6212 3.93255 79.6212 4.00745C80.8572 7.00371 83.4414 13.2209 83.8534 14.6816C83.9283 14.9438 83.9658 15.206 83.9658 15.5056C83.9658 17.1535 82.7298 19.1385 80.5575 21.0112C80.5201 21.0487 80.5201 21.0487 80.4826 21.0861L80.4077 21.161L80.4826 21.1985C80.8946 21.4232 81.3815 21.8726 81.8684 22.2846C82.3553 22.6966 82.8796 23.1086 83.2916 23.2584C84.0407 23.5206 85.8759 24.0075 86.6999 24.8689L86.7373 24.8314V24.8689H86.8871H86.962L92.168 25.1311H92.3553C92.4302 25.1311 92.3927 25.0936 92.3927 25.0561ZM92.2429 25.0187H92.168L86.8871 24.7565H86.7748C85.9133 23.8576 84.0781 23.4082 83.3291 23.146C82.9545 22.9962 82.4302 22.6217 81.9433 22.2097C81.4939 21.7977 81.007 21.3857 80.595 21.161L80.6324 21.1236C82.8047 19.2134 84.0407 17.2659 84.0407 15.543C84.0407 15.2434 84.0032 14.9438 83.9283 14.6816C83.5912 13.5206 81.9433 9.40071 80.6324 6.25465C80.4077 5.69285 80.183 5.13105 79.9583 4.64416C79.9583 4.64416 79.9583 4.64416 79.9583 4.60671C79.9208 4.5318 79.8834 4.45689 79.8834 4.38199C79.8834 4.34453 79.8459 4.30708 79.8459 4.26963C79.8834 4.30708 79.8834 4.34453 79.9208 4.38199C80.0332 4.5318 80.3703 5.1685 80.8572 6.10483C81.7935 7.86513 83.3291 10.6741 84.8272 13.4831C85.9882 15.6179 87.1118 17.7528 87.9358 19.3258C88.3478 20.1123 88.7223 20.7865 88.947 21.2359C89.1718 21.6854 89.3216 21.9475 89.3216 21.9475L89.359 21.985L90.183 22.809L92.0557 24.6816C92.0557 24.6816 92.0557 24.6816 92.0557 24.7191C92.1306 24.6816 92.168 24.8314 92.2429 25.0187Z" fill="black" fill-opacity="0.42"/>
<path d="M22.3935 3.14591C21.9066 3.52044 21.6445 3.89497 21.4572 4.1946C21.4198 4.2695 21.3074 4.41931 21.195 4.68149C20.446 5.99235 18.4984 9.66276 16.5508 13.2957C14.3411 17.4156 12.2063 21.4605 12.0565 21.7227L11.9441 21.835L11.9066 21.8725L9.43473 24.3444L9.39728 24.4193L9.32238 24.4942C9.32238 24.4942 9.32238 24.5317 9.28492 24.5691C9.24747 24.644 9.21002 24.7938 9.13511 24.9811V25.0186C9.13511 25.056 9.13511 25.056 9.09766 25.0935H9.24747H9.32238L14.5284 24.8313H14.7905C15.6145 23.9699 17.4497 23.483 18.1988 23.2208C18.6482 23.071 19.1351 22.659 19.6595 22.2096C20.1838 21.7601 20.6707 21.3107 21.0827 21.1234C21.1201 21.086 21.195 21.086 21.2325 21.0485L21.3074 21.0111L21.2325 20.9362C21.195 20.8987 21.1576 20.8987 21.1576 20.8613C19.0602 18.9886 17.8617 17.0785 17.8617 15.468C17.8617 15.1684 17.8992 14.9062 17.9741 14.644C18.4235 13.071 21.3823 5.9549 22.4684 3.33317C22.4684 3.29572 22.5059 3.25827 22.5059 3.22081L22.5808 2.99609L22.3935 3.14591ZM22.2063 3.55789C21.0452 6.36688 18.2362 13.1085 17.7868 14.644C17.7119 14.9062 17.6744 15.2058 17.6744 15.5055C17.6744 17.1909 18.8729 19.101 20.9703 20.9736L21.0078 21.0111C20.9703 21.0111 20.9703 21.0485 20.9329 21.0485C20.5209 21.2732 19.9965 21.7227 19.5096 22.1347C18.9853 22.5467 18.4984 22.9586 18.0864 23.1085C17.3374 23.3706 15.5396 23.8201 14.6407 24.7189H14.5284L13.2175 24.7938L9.28492 25.0186H9.21002C9.28492 24.8313 9.32238 24.6815 9.35983 24.644V24.6066L10.8205 23.1459L10.9329 23.071L11.2325 22.7714L11.7943 22.2096L11.8317 22.1721L12.0939 21.91C12.0939 21.91 12.2437 21.6478 12.4684 21.1983C13.3299 19.5879 15.4647 15.5804 17.4497 11.8725C18.5733 9.77512 19.6595 7.75265 20.4085 6.32943C21.0078 5.24328 21.3823 4.53167 21.4947 4.38186C21.4947 4.38186 21.4947 4.38186 21.4947 4.34441C21.6445 4.08224 21.8317 3.78261 22.2063 3.48299C22.2437 3.44553 22.2437 3.48299 22.2063 3.55789Z" fill="black" fill-opacity="0.42"/>
<path d="M94.0414 34.5689C94.0414 34.3817 94.0414 32.3217 93.8167 30.4116C93.6294 28.9135 92.8055 26.3292 92.4309 25.1682C92.4309 25.1307 92.3935 25.0933 92.3935 25.0933V25.0558H92.2811H92.2062L86.9253 24.7937H86.8504H86.6632L86.7755 24.906C86.8504 24.9809 86.9253 25.0933 87.0002 25.2056C87.3373 25.73 88.0489 27.3779 88.6482 28.8761C88.9478 29.6251 89.2474 30.3367 89.4347 30.8611C89.5471 31.1981 89.6594 31.4229 89.7343 31.5727C89.7343 31.6101 89.7343 31.6101 89.7718 31.6476H88.2362V31.7225C88.2362 31.7599 88.2362 31.7974 88.2362 31.8349C88.2736 32.097 88.3111 32.3967 88.3111 32.7712C88.3111 33.5952 88.1613 34.6438 87.562 35.4678C86.9628 36.2918 85.9141 36.9659 84.1163 37.0783C82.2811 37.1532 80.0714 37.1907 77.974 37.1907C76.0639 37.1907 74.2662 37.1532 72.8055 37.1532H72.6557V37.1907C72.6557 37.2281 72.6182 37.2656 72.6182 37.303C72.5808 37.3779 72.5433 37.4528 72.5059 37.5277C72.5059 37.5652 72.4684 37.6026 72.431 37.6401C72.3935 37.6776 72.356 37.7525 72.3186 37.7899C72.2437 37.8648 72.1688 37.9397 72.0939 38.0146C72.019 38.0521 71.9815 38.127 71.9066 38.1644C71.8317 38.2019 71.7568 38.2768 71.6819 38.3143C71.607 38.3517 71.5321 38.3892 71.4572 38.4641C71.3823 38.5015 71.3074 38.539 71.2324 38.5764C71.2324 38.5764 71.2324 38.5764 71.195 38.5764C71.1575 38.6139 71.0826 38.6139 71.0452 38.6513H71.0077C71.0077 38.6513 70.9703 38.6513 70.9328 38.6888H70.8954C70.8205 38.6888 70.783 38.7262 70.7081 38.7262C70.7081 38.7262 70.6707 38.7262 70.6332 38.7262C70.5583 38.7637 70.5208 38.7637 70.4459 38.8011C70.371 38.8011 70.3336 38.8386 70.2587 38.8386C70.1838 38.8761 70.0714 38.8761 69.9965 38.8761C69.9216 38.8761 69.8841 38.9135 69.8092 38.9135C69.7343 38.9135 69.6594 38.951 69.5471 38.951C69.4721 38.951 69.4347 38.951 69.3598 38.951C69.3223 38.951 69.2849 38.951 69.21 38.951C69.0976 38.951 69.0227 38.951 68.9103 38.951H32.356C32.2437 38.951 32.1688 38.951 32.0564 38.951C31.9815 38.951 31.9066 38.951 31.8691 38.951C31.8317 38.951 31.7942 38.951 31.7193 38.951H31.6819C31.6444 38.951 31.5695 38.951 31.5321 38.9135H31.4946C31.4197 38.9135 31.3448 38.8761 31.3074 38.8761C31.2324 38.8761 31.195 38.8386 31.1201 38.8386C31.0826 38.8386 31.0452 38.8386 31.0077 38.8011C30.9703 38.8011 30.9328 38.7637 30.8579 38.7637C30.7081 38.7262 30.5957 38.6888 30.4834 38.6139C30.4459 38.6139 30.4085 38.5764 30.371 38.5764C30.3336 38.5764 30.2961 38.539 30.2587 38.539C30.2212 38.5015 30.1838 38.5015 30.1088 38.4641C30.0714 38.4641 30.0714 38.4266 30.0339 38.4266C29.959 38.3892 29.8841 38.3517 29.8092 38.2768C29.5845 38.127 29.3598 37.9397 29.21 37.7525C29.1351 37.6775 29.0976 37.6026 29.0602 37.5652C29.0602 37.5652 29.0602 37.5652 29.0227 37.5277C28.9853 37.4903 28.9478 37.4528 28.9478 37.3779C28.9103 37.3405 28.9103 37.303 28.8729 37.2656C28.8354 37.2281 28.798 37.1532 28.798 37.1158V37.0783H28.6482C27.1875 37.1158 25.3148 37.1158 23.4047 37.1158C21.3074 37.1158 19.0976 37.0783 17.2624 37.0034C15.4647 36.9285 14.416 36.2543 13.8167 35.3929C13.2175 34.5315 13.0676 33.5202 13.0676 32.6963C13.0676 32.3217 13.1051 32.0221 13.1426 31.7599C13.1426 31.7225 13.1426 31.685 13.1426 31.6476V31.5727H11.7568C11.7568 31.5727 11.7568 31.5352 11.7942 31.4978C11.8691 31.348 11.9441 31.0858 12.0939 30.7862C12.7306 29.2131 14.004 25.9173 14.5283 25.1307C14.6032 25.0184 14.6781 24.9435 14.753 24.8311L14.8654 24.7188H14.7156H14.6781H14.6032L13.2175 24.7937L9.28488 24.9809H9.20997H9.06016V25.0184C9.06016 25.0558 9.06016 25.0558 9.02271 25.0933C8.64817 26.2543 7.8242 28.8386 7.63694 30.3367C7.41222 32.2094 7.41222 34.2693 7.41222 34.494L7.1875 35.2431C7.1875 35.2431 7.56203 40.6364 7.86166 43.7075C7.89911 44.082 7.93656 44.4566 8.01147 44.906C8.16128 46.1794 8.42346 47.6776 8.72308 49.1757V49.2506L8.79799 49.2131C8.83544 49.2131 8.87289 49.1757 8.91035 49.1757C12.0564 47.7525 17.0002 46.9659 17.7868 46.9659H81.3074C86.7006 46.9659 91.0826 48.8011 92.5433 49.4753C92.5808 49.5128 92.6182 49.5128 92.6557 49.5128L92.7306 49.5502V49.4753C93.1426 47.4154 93.4796 45.2805 93.6294 43.745C93.6669 43.2581 93.7418 42.6963 93.7793 42.1345C93.8916 40.8611 94.004 39.4753 94.0789 38.2393C94.1912 36.554 94.3036 35.2805 94.3036 35.2805L94.0414 34.5689ZM94.1163 36.1794C94.0789 36.6663 94.0414 37.3779 93.9665 38.127C93.8916 39.3629 93.7793 40.8236 93.6294 42.1345C93.592 42.6963 93.5171 43.2581 93.4796 43.745C93.3298 45.2431 92.9927 47.3779 92.5808 49.4004C92.5808 49.4004 92.5433 49.4004 92.5059 49.3629C92.4309 49.3255 92.3186 49.288 92.2437 49.2506C92.1313 49.2131 92.019 49.1757 91.9066 49.1008C91.8692 49.1008 91.8317 49.0633 91.7942 49.0633C91.607 48.9884 91.4197 48.9135 91.2324 48.8386C91.1575 48.8011 91.1201 48.8011 91.0452 48.7637C89.959 48.3517 88.5358 47.8648 86.813 47.4903C86.5508 47.4528 86.2886 47.3779 86.0265 47.3405C85.7268 47.303 85.3897 47.2281 85.0901 47.1907C84.9403 47.1532 84.7905 47.1532 84.6407 47.1158C84.4909 47.1158 84.3411 47.0783 84.1912 47.0408L83.6669 47.0034C83.5545 47.0034 83.4047 46.9659 83.2924 46.9659C83.0677 46.9659 82.8055 46.9285 82.5433 46.9285C82.356 46.9285 82.1313 46.9285 81.9066 46.891C81.6819 46.891 81.4572 46.891 81.2324 46.891H17.7493C17.6369 46.891 17.4871 46.891 17.2624 46.9285C17.15 46.9285 17.0377 46.9659 16.8879 46.9659C16.813 46.9659 16.7381 46.9659 16.6632 47.0034C16.5882 47.0034 16.5133 47.0034 16.4384 47.0408H16.401C16.2886 47.0408 16.1763 47.0783 16.0639 47.0783C15.7643 47.1158 15.4272 47.1907 15.0901 47.2656C14.9029 47.303 14.6781 47.3405 14.4909 47.3779C13.8542 47.4903 13.18 47.6776 12.5059 47.8274C12.2811 47.9023 12.0564 47.9397 11.8317 48.0146C11.7568 48.0146 11.6819 48.0521 11.6444 48.0895C11.3448 48.1644 11.0826 48.2393 10.8205 48.3517C10.6706 48.3892 10.5583 48.4266 10.4459 48.4641C10.2212 48.539 9.99649 48.6139 9.77177 48.6888C9.62196 48.7637 9.47214 48.8011 9.32233 48.8761C9.17252 48.951 9.02271 48.9884 8.87289 49.0633C8.87289 49.0633 8.83544 49.0633 8.79799 49.1008C8.49836 47.6401 8.27364 46.1794 8.12383 44.9435C8.04892 44.5315 8.01147 44.1195 7.97402 43.745C7.8242 42.2094 7.63694 40.112 7.52458 38.3892C7.52458 38.3892 7.52458 38.3892 7.52458 38.3517C7.44967 37.4903 7.41222 36.7038 7.37477 36.142C7.33731 35.6551 7.29986 35.318 7.29986 35.2431L7.52458 34.5315C7.52458 34.5315 7.52458 33.9697 7.56203 33.1832C7.59949 32.3967 7.63694 31.348 7.7493 30.3367C7.93656 28.8386 8.76053 26.2169 9.13507 25.0558H9.20997L14.416 24.7937H14.4909C14.416 24.8686 14.3785 24.906 14.3411 24.9809C14.004 25.5427 13.2924 27.1532 12.6931 28.6513C12.0939 30.1495 11.5695 31.4978 11.5695 31.4978L11.5321 31.5727H12.9553C12.9553 31.5727 12.9553 31.6101 12.9553 31.6476C12.9178 31.9098 12.8804 32.2094 12.8804 32.5839C12.8804 33.4453 13.0302 34.494 13.6669 35.3555C13.6669 35.3555 13.6669 35.3555 13.7044 35.3929C14.3411 36.2543 15.3897 36.9285 17.225 37.0034C19.0602 37.0783 21.2699 37.1158 23.3673 37.1158C25.3148 37.1158 27.225 37.0783 28.6856 37.0408C28.7605 37.1532 28.8354 37.303 28.9478 37.4903C28.9478 37.5277 28.9853 37.5277 29.0227 37.5652C29.0602 37.6026 29.0976 37.6401 29.1351 37.715C29.1725 37.7525 29.1725 37.7525 29.21 37.7899C29.2474 37.8274 29.2849 37.8648 29.3223 37.9023C29.3598 37.9397 29.3972 37.9772 29.4347 38.0146C29.4347 38.0146 29.4347 38.0146 29.4721 38.0521C29.5096 38.0895 29.547 38.127 29.5845 38.127C29.622 38.1644 29.6594 38.2019 29.6969 38.2393C29.7343 38.2768 29.8092 38.3143 29.8467 38.3517C29.8841 38.3892 29.959 38.4266 29.9965 38.4266C30.0714 38.4641 30.1088 38.5015 30.1838 38.5015C30.371 38.5764 30.5583 38.6888 30.783 38.7262C30.8579 38.7637 30.9328 38.7637 31.0077 38.8011C31.0826 38.8386 31.1575 38.8386 31.2324 38.8386C31.3073 38.8386 31.3823 38.8761 31.4946 38.8761C31.5695 38.8761 31.6819 38.9135 31.7568 38.9135C31.8317 38.9135 31.9441 38.9135 32.019 38.9135C32.0939 38.9135 32.2062 38.9135 32.3186 38.9135H68.8354C68.9478 38.9135 69.0227 38.9135 69.1351 38.9135C69.21 38.9135 69.2474 38.9135 69.3223 38.9135C69.3972 38.9135 69.4347 38.9135 69.5096 38.9135C69.622 38.9135 69.6969 38.8761 69.8092 38.8761C69.8467 38.8761 69.8467 38.8761 69.8841 38.8761C69.959 38.8761 70.0339 38.8386 70.1088 38.8386C70.1463 38.8386 70.1838 38.8386 70.2212 38.8011C70.2587 38.8011 70.2961 38.7637 70.371 38.7637C70.4459 38.7637 70.5583 38.7262 70.6332 38.6888C70.7081 38.6513 70.8205 38.6513 70.8954 38.6139C70.9328 38.6139 70.9328 38.6139 70.9703 38.5764H71.0077C71.0826 38.539 71.1201 38.539 71.195 38.5015C71.2324 38.5015 71.2699 38.4641 71.3074 38.4266C71.3448 38.3892 71.3823 38.3892 71.4197 38.3517C71.4946 38.3143 71.5321 38.2768 71.607 38.2393C71.607 38.2393 71.6444 38.2393 71.6444 38.2019C71.6819 38.1644 71.7193 38.1644 71.7568 38.127C71.7942 38.0895 71.8691 38.0521 71.9066 38.0146C71.9066 38.0146 71.9066 38.0146 71.9441 37.9772C71.9815 37.9397 72.0564 37.9023 72.0939 37.8274C72.1688 37.7899 72.2062 37.715 72.2811 37.6401C72.2811 37.6401 72.2811 37.6401 72.2811 37.6026C72.3186 37.5652 72.356 37.5277 72.3935 37.4903C72.4309 37.4528 72.4309 37.4154 72.4684 37.3779C72.4684 37.3779 72.4684 37.3779 72.5059 37.3405C72.5433 37.2656 72.5808 37.1907 72.6557 37.1158C72.6557 37.0783 72.6931 37.0783 72.6931 37.0408C74.1538 37.0783 75.989 37.0783 77.8991 37.0783C79.9965 37.0783 82.2062 37.0408 84.0414 36.9659C85.8766 36.891 86.9628 36.1794 87.5995 35.318C87.5995 35.2805 87.6369 35.2805 87.6369 35.2431C88.2362 34.3817 88.386 33.333 88.386 32.5465C88.386 32.1719 88.3485 31.8723 88.3111 31.6101C88.3111 31.6101 88.3111 31.5727 88.3111 31.5352H89.8841L89.8467 31.4603C89.8467 31.4603 89.3223 30.112 88.7231 28.6139C88.1238 27.1158 87.4122 25.4678 87.0751 24.9435C87.0377 24.8686 87.0002 24.8311 86.9253 24.7562H87.0002L92.2062 25.0184H92.2811C92.6557 26.142 93.4796 28.7637 93.6669 30.2618C93.7793 31.2731 93.8542 32.2843 93.8916 33.1083C93.9291 33.8948 93.9291 34.4566 93.9291 34.4566L94.1538 35.1682C94.1538 35.3555 94.1163 35.6925 94.1163 36.1794Z" fill="black" fill-opacity="0.42"/>
<path d="M87.0756 25.0564C87.0381 24.9815 87.0007 24.944 86.9258 24.8691H87.0007C87.0381 24.9066 87.0756 24.9815 87.113 25.019C87.4876 25.5808 88.1617 27.2287 88.761 28.7268C89.3602 30.2249 89.8846 31.5733 89.8846 31.5733L89.9595 31.7231H88.3115C88.3115 31.7231 88.3115 31.6856 88.3115 31.6482H89.8846L89.8471 31.5733C89.8471 31.5733 89.3228 30.2249 88.7235 28.7268C88.1243 27.2287 87.4127 25.6182 87.0756 25.0564Z" fill="#3265B1"/>
<path d="M12.9923 31.7231H11.4941L11.569 31.5733C11.569 31.5733 12.0934 30.2249 12.6926 28.7268C13.2919 27.2287 14.0035 25.6182 14.3406 25.019C14.378 24.9815 14.4155 24.9066 14.4529 24.8691H14.5278C14.4529 24.944 14.4155 24.9815 14.378 25.0564C14.041 25.6182 13.3293 27.2287 12.7301 28.7268C12.1308 30.2249 11.6065 31.5733 11.6065 31.5733L11.569 31.6482H12.9923C12.9923 31.6856 12.9923 31.7231 12.9923 31.7231Z" fill="#3265B1"/>
<path d="M94.1528 35.2794C94.1528 35.3543 94.1153 35.6539 94.0779 36.1783C94.0404 36.6652 94.003 37.3768 93.928 38.1258C93.8531 39.3618 93.7408 40.8225 93.591 42.1333C93.5535 42.6951 93.4786 43.2569 93.4411 43.7438C93.2913 45.242 92.9543 47.3768 92.5423 49.3993C92.5423 49.3993 92.5048 49.3993 92.4674 49.3618C92.3925 49.3244 92.2801 49.2869 92.2052 49.2494C92.0928 49.212 91.9805 49.1745 91.8681 49.0996C91.8307 49.0996 91.7932 49.0622 91.7558 49.0622C91.5685 48.9873 91.3812 48.9124 91.194 48.8375C91.119 48.8 91.0816 48.8 91.0067 48.7626C89.9205 48.3506 88.4973 47.8637 86.7745 47.4891C86.5123 47.4517 86.2501 47.3768 85.988 47.3393C85.6883 47.3019 85.3513 47.227 85.0516 47.1895C84.9018 47.1521 84.752 47.1521 84.6022 47.1146C84.4524 47.1146 84.3026 47.0772 84.1528 47.0397L83.6284 47.0023C83.5161 47.0023 83.3662 46.9648 83.2539 46.9648C83.0292 46.9648 82.767 46.9273 82.5048 46.9273C82.3176 46.9273 82.0928 46.9273 81.8681 46.8899C81.6434 46.8899 81.4187 46.8899 81.194 46.8899H17.7483C17.6359 46.8899 17.4861 46.8899 17.2614 46.9273C17.149 46.9273 17.0367 46.9648 16.8868 46.9648C16.8119 46.9648 16.737 46.9648 16.6621 47.0023C16.5872 47.0023 16.5123 47.0023 16.4374 47.0397H16.4C16.2876 47.0397 16.1752 47.0772 16.0629 47.0772C15.7632 47.1146 15.4262 47.1895 15.0891 47.2644C14.9018 47.3019 14.6771 47.3393 14.4898 47.3768C13.8531 47.4891 13.179 47.6764 12.5048 47.8262C12.2801 47.9011 12.0554 47.9386 11.8307 48.0135C11.7558 48.0135 11.6809 48.0509 11.6434 48.0884C11.3438 48.1633 11.0816 48.2382 10.8194 48.3506C10.6696 48.388 10.5573 48.4255 10.4449 48.4629C10.2202 48.5378 9.99546 48.6127 9.77074 48.6876C9.62092 48.7626 9.47111 48.8 9.3213 48.8749C9.17149 48.9498 9.02167 48.9873 8.87186 49.0622C8.87186 49.0622 8.83441 49.0622 8.79696 49.0996C8.49733 47.639 8.27261 46.1783 8.1228 44.9423C8.04789 44.5303 8.01044 44.1184 7.97299 43.7438C7.82317 42.2082 7.63591 40.1109 7.52355 38.388C7.52355 38.388 7.52355 38.388 7.52355 38.3506C7.44864 37.4891 7.41119 36.7026 7.37373 36.1408C7.33628 35.6539 7.29883 35.3169 7.29883 35.242L7.52355 34.5303C7.52355 34.5303 7.52355 33.9685 7.561 33.182C7.59845 32.3955 7.63591 31.3468 7.74827 30.3356C7.93553 28.8375 8.7595 26.2157 9.13403 25.0547H9.20894C9.20894 25.0921 9.17149 25.1296 9.17149 25.1296C9.02167 25.5041 8.87186 26.0659 8.6846 26.6652C8.31006 27.8637 7.93553 29.3244 7.78572 30.2981C7.67336 31.2719 7.59845 32.3206 7.59845 33.1071C7.59845 34.0435 7.59845 34.5678 7.59845 34.5678L7.37373 35.2794C7.37373 35.3543 7.41119 35.6914 7.44864 36.1408C7.48609 36.7026 7.52355 37.4517 7.59845 38.3131C8.94677 36.9648 13.1041 35.6539 13.7408 35.4667C14.3775 36.3281 15.4262 37.0023 17.2614 37.0772C19.0966 37.1521 21.3063 37.1895 23.4037 37.1895C25.3513 37.1895 27.2614 37.1521 28.722 37.1146C28.797 37.227 28.8719 37.3768 28.9842 37.5641C28.9842 37.6015 29.0217 37.6015 29.0591 37.639C29.0966 37.6764 29.134 37.7139 29.1715 37.7888C29.2089 37.8262 29.2089 37.8262 29.2464 37.8637C29.2838 37.9011 29.3213 37.9386 29.3588 37.976C29.3962 38.0135 29.4337 38.0509 29.4711 38.0884C29.4711 38.0884 29.4711 38.0884 29.5086 38.1258C29.546 38.1633 29.5835 38.2008 29.6209 38.2008C29.6584 38.2382 29.6958 38.2757 29.7333 38.2757C29.7707 38.3131 29.8456 38.3506 29.8831 38.388C29.9206 38.4255 29.9955 38.4629 30.0329 38.4629C30.1078 38.5004 30.1453 38.5378 30.2202 38.5378C30.4074 38.6127 30.5947 38.7251 30.8194 38.7626C30.8943 38.8 30.9692 38.8 31.0441 38.8375C31.1191 38.8749 31.194 38.8749 31.2689 38.8749C31.3438 38.8749 31.4187 38.9124 31.531 38.9124C31.6059 38.9124 31.7183 38.9498 31.7932 38.9498C31.8681 38.9498 31.9805 38.9498 32.0554 38.9498C32.1303 38.9498 32.2426 38.9498 32.355 38.9498H68.8719C68.9842 38.9498 69.0591 38.9498 69.1715 38.9498C69.2464 38.9498 69.2838 38.9498 69.3588 38.9498C69.4337 38.9498 69.4711 38.9498 69.546 38.9498C69.6584 38.9498 69.7333 38.9124 69.8456 38.9124C69.8831 38.9124 69.8831 38.9124 69.9206 38.9124C69.9955 38.9124 70.0704 38.8749 70.1453 38.8749C70.1827 38.8749 70.2202 38.8749 70.2576 38.8375C70.2951 38.8375 70.3325 38.8 70.4074 38.8C70.4823 38.8 70.5947 38.7626 70.6696 38.7251C70.7445 38.6876 70.8569 38.6876 70.9318 38.6502C70.9692 38.6502 70.9692 38.6502 71.0067 38.6127H71.0441C71.1191 38.5753 71.1565 38.5753 71.2314 38.5378C71.2689 38.5378 71.3063 38.5004 71.3438 38.4629C71.3812 38.4629 71.4187 38.4255 71.4561 38.388C71.531 38.3506 71.5685 38.3131 71.6434 38.2757C71.6809 38.2382 71.7558 38.2008 71.7932 38.1633C71.8307 38.1258 71.9056 38.0884 71.943 38.0509C71.943 38.0509 71.943 38.0509 71.9805 38.0135C72.0179 37.976 72.0928 37.9386 72.1303 37.8637C72.2052 37.8262 72.2427 37.7513 72.3176 37.6764C72.3176 37.6764 72.3176 37.6764 72.3176 37.639C72.355 37.6015 72.3925 37.5641 72.4299 37.5266C72.4674 37.4891 72.4674 37.4517 72.5048 37.4142C72.5048 37.4142 72.5048 37.4142 72.5423 37.3768C72.5797 37.3019 72.6172 37.227 72.6921 37.1521C72.6921 37.1146 72.7295 37.1146 72.7295 37.0772C74.1902 37.1146 76.0254 37.1146 77.9355 37.1146C80.0329 37.1146 82.2426 37.0772 84.0779 37.0023C85.9131 36.9273 86.9992 36.2157 87.6359 35.3543C87.6359 35.3169 87.6734 35.3169 87.6734 35.2794C88.2726 35.4667 92.4674 36.6652 93.928 37.976C93.9655 37.227 94.0404 36.5528 94.0779 36.0659C94.1153 35.579 94.1153 35.2794 94.1153 35.2045L93.8906 34.5303V34.4929C93.8906 34.4929 93.8906 33.9311 93.8531 33.1446C93.8157 32.3581 93.7782 31.3094 93.6659 30.3356C93.4786 28.8749 92.6921 26.3281 92.2801 25.167C92.2801 25.1296 92.2801 25.0921 92.2427 25.0921H92.3176C92.6921 26.2157 93.5161 28.8375 93.7033 30.3356C93.8157 31.3468 93.8906 32.3581 93.928 33.182C93.9655 33.9685 93.9655 34.5303 93.9655 34.5303L94.1528 35.2794Z" fill="#3265B1"/>
<path d="M87.0759 58.313L87.001 58.2006L86.9635 58.1632C86.177 56.9272 84.192 54.6426 80.7463 54.6426H18.7987C17.9747 54.6426 17.001 55.0546 16.1021 55.7287C15.2032 56.3654 14.3792 57.2269 13.8549 58.1632C13.8549 58.1632 13.8174 58.2006 13.8174 58.2381L13.7425 58.3504L13.7051 58.4254H13.8174C13.8923 58.4254 13.9298 58.4254 14.0047 58.4254C14.0796 58.4254 14.1545 58.4254 14.2294 58.4254H87.0759V58.313ZM16.2519 55.8785C17.1508 55.2418 18.0871 54.8298 18.8362 54.8298H80.7463C83.9298 54.8298 85.8399 56.8898 86.6639 58.0883H14.2294C14.192 58.0883 14.1545 58.0883 14.1171 58.0883C14.6414 57.3018 15.4279 56.4778 16.2519 55.8785Z" fill="black" fill-opacity="0.42"/>
<path d="M79.9962 4.26964L80.1086 4.19473C80.0711 4.15728 80.0337 4.11983 79.9962 4.04492L79.7715 4.15728L87.9363 22.0974L90.6704 23.1086V22.9213L89.4719 21.7228L89.397 21.7977L89.5093 21.7228C89.5093 21.7228 87.2996 17.5655 85.0149 13.2584C83.8539 11.1236 82.7303 8.95129 81.794 7.2659C81.3445 6.44193 80.9325 5.69286 80.6329 5.16852C80.3333 4.64417 80.146 4.26964 80.0711 4.15728L79.9962 4.26964L79.8838 4.34455C79.9588 4.45691 80.146 4.79399 80.4456 5.31833C81.4943 7.19099 83.7041 11.3483 85.6516 14.9813C86.6254 16.8165 87.5243 18.5393 88.1985 19.7753C88.8726 21.0487 89.2846 21.8352 89.2846 21.8352L90.4831 23.0337L90.558 22.9588L90.5955 22.8464L88.1235 21.9101L79.9962 4.04492L79.8838 4.08237L79.7715 4.15728C79.8089 4.19473 79.8464 4.26964 79.8838 4.30709L79.9962 4.26964Z" fill="black" fill-opacity="0.42"/>
<path d="M10.8951 22.9594L10.9325 23.0717L13.4794 22.1354L21.6067 4.30767L21.382 4.19531V4.23277C21.3071 4.34513 21.1198 4.6822 20.8202 5.244C18.7603 8.98932 11.9438 21.7983 11.9438 21.7983L12.0561 21.8732L11.9812 21.7983L10.4082 23.2964L10.9325 23.1092L10.8951 22.9594L10.97 23.0343L12.131 21.8732C12.131 21.8732 12.2809 21.611 12.5056 21.1616C13.367 19.5511 15.5018 15.5436 17.4869 11.8358C18.4981 9.9631 19.4344 8.2028 20.1835 6.85449C20.558 6.18033 20.8576 5.58108 21.1198 5.1691C21.3445 4.75711 21.5318 4.45748 21.5693 4.38258L21.6067 4.34513L21.4943 4.27022L21.382 4.19531L13.2921 21.9481L10.8576 22.847L10.8951 22.9594Z" fill="black" fill-opacity="0.42"/>
<path d="M19.7344 58.127V61.0858H82.0565V58.127H19.7344ZM81.7943 60.8236H19.9591V58.3517H81.7943V60.8236Z" fill="black" fill-opacity="0.42"/>
<path d="M94.1151 34.5695C94.1151 34.3448 94.1151 32.2849 93.8904 30.4122C93.6656 28.577 92.5046 25.2062 92.3173 24.607C92.2799 24.5695 92.2799 24.5321 92.2799 24.5321V24.4946L92.205 24.4197L92.1675 24.3823L90.3698 22.5845L89.9203 22.1351L89.6956 21.8729L89.5458 21.7605V21.7231C89.5458 21.6856 89.5083 21.6482 89.4709 21.6107C89.4334 21.5358 89.396 21.4609 89.3585 21.386C89.3211 21.3485 89.3211 21.3111 89.2836 21.2362C89.2462 21.1987 89.2087 21.1238 89.1713 21.0489C89.1338 20.9366 89.0589 20.8617 88.984 20.7493C88.9091 20.5995 88.7967 20.4122 88.7218 20.2624C88.6844 20.1875 88.6469 20.1126 88.6095 20.0002C88.572 19.9628 88.5346 19.8879 88.5346 19.8504C88.4222 19.6257 88.2724 19.401 88.16 19.1388C88.0851 18.989 87.9727 18.8017 87.8978 18.6519C87.748 18.3523 87.5982 18.0901 87.4484 17.753C87.3735 17.5658 87.2611 17.3785 87.1488 17.1912C87.1113 17.1538 87.1113 17.1163 87.0739 17.0414C86.9615 16.8542 86.8492 16.6669 86.7368 16.4422C86.6244 16.18 86.4746 15.9553 86.3248 15.6931C86.2499 15.5808 86.2124 15.4684 86.1375 15.3186C85.8005 14.6444 85.4259 13.9703 85.0514 13.2961C83.9278 11.1613 82.7293 8.989 81.8304 7.30361C81.381 6.47963 80.969 5.73057 80.7068 5.20623C80.4072 4.68188 80.2199 4.30735 80.145 4.19499C80.1076 4.15754 80.1076 4.12008 80.0701 4.08263C79.808 3.67065 79.4334 3.1463 78.4971 2.65941C77.4484 2.09761 75.7256 1.57327 72.617 1.23619C66.4372 0.562032 54.939 0.1875 50.7817 0.1875C46.6244 0.1875 35.1263 0.562032 28.9465 1.23619C25.8005 1.57327 24.0776 2.09761 23.0289 2.65941C22.0177 3.18375 21.6432 3.78301 21.381 4.19499C21.381 4.23244 21.3435 4.2699 21.3061 4.30735C21.3061 4.3448 21.2686 4.38226 21.2312 4.38226C21.1937 4.45716 21.1563 4.53207 21.0814 4.64443C21.0065 4.79424 20.8941 4.98151 20.7817 5.16877C20.7068 5.28113 20.6319 5.39349 20.5945 5.54331C20.5196 5.69312 20.4447 5.80548 20.3698 5.95529C20.3323 6.0302 20.2948 6.06765 20.2948 6.14256C20.2199 6.25492 20.1825 6.36728 20.1076 6.47964C20.0701 6.55454 20.0327 6.62945 19.9952 6.70435C19.9203 6.89162 19.808 7.04143 19.6956 7.2287C19.5832 7.41597 19.5083 7.60323 19.396 7.7905C18.9091 8.65192 18.3847 9.6257 17.8604 10.6744C17.7855 10.8617 17.6731 11.0489 17.5608 11.2362C17.4859 11.3485 17.4484 11.4609 17.3735 11.5733C17.2986 11.6856 17.2611 11.798 17.1862 11.9103C17.0739 12.1351 16.9241 12.3598 16.8117 12.5845C16.7368 12.7718 16.6244 12.9216 16.5121 13.1088C16.3623 13.4085 16.2125 13.6706 16.0626 13.9703C15.9128 14.2699 15.7256 14.5695 15.5757 14.8691C15.5008 14.9815 15.4634 15.1313 15.3885 15.2437C15.3136 15.3935 15.2387 15.5059 15.1638 15.6557C15.0514 15.8429 14.9765 16.0302 14.8641 16.2175C14.6769 16.5545 14.4896 16.9291 14.3023 17.2662C14.19 17.4534 14.1151 17.6407 14.0027 17.7905C13.8904 17.9778 13.8154 18.2025 13.7031 18.3897C13.366 19.0639 13.0289 19.6257 12.7668 20.15C12.6919 20.2624 12.6169 20.3748 12.5795 20.5246C12.4671 20.7493 12.3922 20.8991 12.2799 21.0864C12.2799 21.1238 12.2424 21.1613 12.205 21.1987C12.0551 21.4984 11.9428 21.7231 11.9053 21.7605L11.7555 21.8729L11.7181 21.9103L11.5308 22.0976L9.28361 24.4197L9.20871 24.4946V24.5321C9.20871 24.5321 9.20871 24.5695 9.17125 24.607C8.98399 25.1688 7.82294 28.5396 7.59822 30.3748C7.3735 32.2474 7.3735 34.3074 7.3735 34.5321L7.11133 35.2811C7.11133 35.2811 7.48586 40.6744 7.78549 43.7456C7.82294 44.1201 7.86039 44.4946 7.9353 44.9441C7.9353 45.0564 7.97275 45.1313 7.97275 45.2437C7.97275 45.356 8.0102 45.4309 8.0102 45.5433C8.0102 45.6557 8.04766 45.768 8.04766 45.8429C8.08511 46.0302 8.08511 46.2175 8.12256 46.4047C8.12256 46.4796 8.16002 46.5545 8.16002 46.6294C8.23492 47.0414 8.30983 47.4909 8.38474 47.9029C8.42219 48.165 8.45964 48.4272 8.53455 48.6894C8.53455 48.7268 8.53455 48.8017 8.572 48.8392C8.68436 49.401 8.79672 49.9628 8.90908 50.5246C8.94653 50.7493 9.02144 50.974 9.05889 51.1987C9.09635 51.3111 9.09635 51.4235 9.1338 51.5358C9.35852 52.4721 9.62069 53.3336 9.84541 54.0452C9.88286 54.1201 9.88286 54.195 9.92032 54.2699C9.99522 54.4572 10.0701 54.6444 10.145 54.8317C10.7068 56.1051 11.2686 56.9665 11.9428 57.5283C12.4671 57.9778 13.0289 58.2399 13.6656 58.3148C13.7031 58.3148 13.7405 58.3148 13.778 58.3148C13.8529 58.3148 13.8904 58.3148 13.9653 58.3148C14.0402 58.3148 14.1151 58.3148 14.19 58.3148H87.1862C88.0477 58.3148 88.7967 58.0527 89.4334 57.4909C90.1076 56.9291 90.6694 56.0302 91.2312 54.7942C92.2799 52.4721 93.1413 47.6781 93.5158 44.5321C93.5533 44.2324 93.5907 43.9703 93.5907 43.7081C93.5907 43.5208 93.6282 43.3336 93.6656 43.1088C93.7031 42.8092 93.7405 42.4721 93.7405 42.1351V42.0976C94.0027 39.0639 94.2649 35.2437 94.2649 35.2437V35.2062L94.1151 34.5695ZM92.5046 49.5882C92.4297 49.8879 92.3922 50.1875 92.3173 50.4871C92.3173 50.5246 92.3173 50.562 92.2799 50.5995V50.6369C91.9053 52.2849 91.4934 53.783 91.0439 54.7568C90.4821 55.9927 89.9203 56.8542 89.3211 57.3785C89.2462 57.4534 89.1713 57.4909 89.0964 57.5658C89.0214 57.6032 88.984 57.6407 88.9091 57.6781C88.8716 57.6781 88.8716 57.7156 88.8342 57.7156C88.8342 57.7156 88.7967 57.7156 88.7967 57.753C88.7218 57.7905 88.6844 57.8279 88.6095 57.8654C88.5346 57.9029 88.4596 57.9403 88.3473 57.9778C88.2724 58.0152 88.16 58.0527 88.0851 58.0527C87.8229 58.1276 87.5233 58.165 87.2237 58.165H14.2274C14.19 58.165 14.1525 58.165 14.1151 58.165C14.0402 58.165 13.9278 58.165 13.8529 58.165C13.7031 58.165 13.5533 58.1276 13.4035 58.0901C13.3286 58.0527 13.2162 58.0527 13.1413 58.0152C13.0664 57.9778 12.9915 57.9778 12.9166 57.9403H12.8791C12.8042 57.9029 12.7293 57.8654 12.6544 57.8279C12.5795 57.7905 12.4671 57.7156 12.3922 57.6407C12.3173 57.6032 12.2424 57.5283 12.1675 57.4534C11.8679 57.1912 11.5683 56.8542 11.2686 56.4047C11.1937 56.2924 11.1188 56.18 11.0439 56.0676C10.8192 55.6931 10.6319 55.2811 10.4072 54.8317C10.3698 54.7568 10.3323 54.6819 10.3323 54.607C10.2574 54.3823 10.145 54.1575 10.0701 53.8954C10.0701 53.8579 10.0327 53.8205 10.0327 53.7456C9.99522 53.5957 9.92032 53.4459 9.88286 53.2961C9.84541 53.1463 9.7705 52.959 9.73305 52.8092C9.65814 52.5845 9.62069 52.3598 9.54578 52.1351C9.43343 51.7605 9.35852 51.3485 9.24616 50.9366C9.20871 50.7493 9.17125 50.562 9.1338 50.3748C9.1338 50.3373 9.09635 50.2999 9.09635 50.2624C9.02144 50.0002 8.98399 49.7381 8.94653 49.4759L8.90908 49.2886C8.90908 49.2512 8.90908 49.2137 8.87163 49.1763C8.87163 49.1014 8.83417 49.0265 8.83417 48.9515C8.83417 48.9141 8.83417 48.8392 8.79672 48.8017C8.75927 48.5396 8.72181 48.3148 8.68436 48.0527C8.64691 47.7905 8.60946 47.5658 8.572 47.3411C8.42219 46.5545 8.30983 45.768 8.23492 45.0564C8.19747 44.6444 8.12256 44.2324 8.08511 43.8579C7.9353 42.3223 7.74803 40.225 7.63567 38.4647V38.4272C7.56077 37.5658 7.52331 36.8167 7.48586 36.2549C7.44841 35.768 7.44841 35.4684 7.41095 35.3935L7.63567 34.6819C7.63567 34.6819 7.63567 34.1201 7.67313 33.3336C7.71058 32.5471 7.74803 31.4984 7.86039 30.5246C7.97275 29.5508 8.38474 28.0901 8.75927 26.8916C8.94653 26.2924 9.1338 25.7306 9.24616 25.356C9.24616 25.3186 9.28361 25.2811 9.28361 25.2811C9.28361 25.2437 9.32107 25.2062 9.32107 25.1688C9.39597 24.9815 9.43343 24.8317 9.43343 24.7942L10.969 23.2587L11.0065 23.2212L11.4184 22.8092L12.1675 22.0602C12.1675 22.0602 12.2424 21.9478 12.3173 21.7605C12.3548 21.6856 12.3922 21.6107 12.4671 21.4984C12.5046 21.4609 12.542 21.386 12.542 21.3485C12.6169 21.2362 12.6544 21.1238 12.7293 20.974C12.7668 20.8991 12.8417 20.7868 12.8791 20.6744C12.954 20.562 12.9915 20.4497 13.0664 20.2999C13.1038 20.225 13.1413 20.15 13.2162 20.0377C13.2536 19.9628 13.2911 19.8879 13.3286 19.813C13.4409 19.6257 13.5158 19.4384 13.6282 19.2512C14.3023 17.9778 15.1263 16.4422 16.0252 14.7942C16.1375 14.5695 16.2874 14.3448 16.3997 14.0826C16.7742 13.371 17.1488 12.6594 17.5233 11.9853C18.0102 11.0489 18.4971 10.15 18.9465 9.28862C19.0589 9.0639 19.1713 8.83919 19.3211 8.61447C19.396 8.46465 19.4709 8.35229 19.5458 8.20248C19.7331 7.8654 19.9203 7.52832 20.0701 7.2287C20.1076 7.15379 20.145 7.04143 20.2199 6.96653C20.5945 6.29237 20.8941 5.69312 21.1563 5.28113C21.381 4.86915 21.5683 4.56952 21.6057 4.49462C21.6057 4.49462 21.6057 4.49462 21.6057 4.45716C21.7555 4.23244 21.9053 3.97027 22.205 3.7081C22.2799 3.63319 22.3548 3.59574 22.4297 3.52083C22.6169 3.37102 22.8417 3.22121 23.1413 3.03394C24.1525 2.5096 25.8379 1.98525 28.9091 1.64817C35.0889 0.824204 46.587 0.449672 50.7443 0.449672C54.8641 0.449672 66.3997 0.824204 72.542 1.49836C75.6132 1.83544 77.3361 2.35978 78.3098 2.88413C79.0214 3.25866 79.396 3.63319 79.6207 4.00772C79.6581 4.08263 79.733 4.15754 79.7705 4.19499C79.808 4.23244 79.8454 4.30735 79.8454 4.3448C79.8829 4.38226 79.9203 4.45716 79.9578 4.56952C79.9578 4.56952 79.9578 4.56952 79.9578 4.60698C80.0701 4.79424 80.2199 5.01896 80.3698 5.35604C80.4447 5.50585 80.557 5.65566 80.6319 5.84293C80.6694 5.91784 80.7068 5.95529 80.7443 6.0302C80.8941 6.29237 81.0439 6.55454 81.1937 6.85417C81.5683 7.52832 82.0177 8.35229 82.4671 9.21372C82.542 9.36353 82.617 9.51334 82.7293 9.66316C83.2911 10.7118 83.8904 11.8354 84.4896 12.959C84.8641 13.6706 85.2387 14.3823 85.6132 15.0564C86.1001 15.9927 86.587 16.8542 86.999 17.6781C87.4484 18.5021 87.8229 19.2512 88.16 19.8504C88.8342 21.0864 89.2462 21.9103 89.2462 21.9103L91.9802 24.6444C91.9802 24.6819 92.0551 24.8317 92.1301 25.019C92.1301 25.0564 92.1675 25.0939 92.1675 25.1313C92.1675 25.1688 92.1675 25.2062 92.205 25.2062C92.5795 26.3673 93.4035 28.9141 93.5907 30.3748C93.7031 31.3485 93.778 32.3972 93.778 33.1838C93.8155 33.9703 93.8154 34.5321 93.8154 34.5321V34.5695L94.0402 35.2437C94.0402 35.3186 94.0027 35.6557 94.0027 36.1051C93.9653 36.592 93.9278 37.2662 93.8529 38.0152C93.778 39.2512 93.6656 40.7118 93.5158 42.0602C93.5158 42.0976 93.5158 42.1725 93.5158 42.21C93.4784 42.7343 93.4409 43.2212 93.366 43.6706C93.366 43.8579 93.3286 44.0452 93.2911 44.2699C93.2911 44.3823 93.2536 44.4572 93.2536 44.5695C93.2536 44.6819 93.2162 44.7942 93.2162 44.9066C93.2162 45.019 93.1787 45.1313 93.1787 45.2437C93.1787 45.356 93.1413 45.4684 93.1413 45.5808C93.1038 45.768 93.0664 45.9927 93.0664 46.18C92.954 46.9291 92.8042 47.753 92.6544 48.5396C92.617 48.8017 92.542 49.0639 92.5046 49.2886C92.5046 49.3261 92.5046 49.3635 92.4671 49.401C92.5046 49.5133 92.5046 49.5508 92.5046 49.5882Z" fill="black" fill-opacity="0.42"/>
<path d="M86.6621 58.126H14.2276C14.1901 58.126 14.1527 58.126 14.1152 58.126C14.6396 57.302 15.4261 56.478 16.2501 55.8788C17.1489 55.2421 18.0853 54.8301 18.8343 54.8301H80.7444C83.928 54.8675 85.8006 56.9275 86.6621 58.126Z" fill="#3265B1"/>
<path d="M86.1756 53.4461H15.127C15.4266 53.0715 16.6251 51.873 19.2094 51.873H81.082C81.6813 51.873 83.0296 52.285 84.2281 52.697C84.8273 52.9217 85.3891 53.109 85.8011 53.2588C85.9509 53.3337 86.0633 53.3712 86.1756 53.4461Z" fill="#3265B1"/>
<path d="M50.708 17.8269V17.9393H79.1724L79.2098 17.9018C79.2098 17.9018 79.9964 17.1153 79.9964 15.9168C79.9964 15.8419 79.9964 15.767 79.9964 15.6921C79.9589 15.355 79.8091 14.5685 79.5844 13.5947C78.9102 10.6359 77.6368 5.80442 77.6368 5.80442L77.5993 5.72952H77.5244C68.9851 4.45611 58.7979 4.34375 52.9177 4.34375C52.0937 4.34375 51.3821 4.34375 50.7454 4.34375C50.1087 4.34375 49.3971 4.34375 48.5731 4.34375C42.6555 4.34375 32.5057 4.41866 23.9664 5.72952H23.8915L23.854 5.80442C23.854 5.80442 23.2922 7.93926 22.693 10.2614C22.3934 11.4224 22.0937 12.6209 21.869 13.5947C21.6443 14.5685 21.4945 15.355 21.457 15.6921C21.457 15.767 21.457 15.8419 21.457 15.9168C21.457 17.1153 22.2435 17.8643 22.2435 17.9018L22.281 17.9393H50.7454V17.8269V17.6771H22.281V17.7894L22.3559 17.7145V17.6771C22.2061 17.5273 21.6817 16.8531 21.6817 15.9168C21.6817 15.8419 21.6817 15.767 21.6817 15.7295C21.7192 15.4299 21.869 14.6434 22.0937 13.6696C22.4308 12.2089 22.9177 10.2614 23.3297 8.68832C23.517 7.9018 23.7042 7.19019 23.854 6.7033C23.9664 6.21641 24.0788 5.91678 24.0788 5.91678L23.9664 5.87933V5.99169C32.5057 4.71828 42.6555 4.64338 48.5357 4.64338C49.3597 4.64338 50.0713 4.64338 50.708 4.64338C51.3447 4.64338 52.0563 4.64338 52.8802 4.64338C58.7979 4.64338 68.9477 4.71828 77.4495 5.99169V5.87933L77.3372 5.91678C77.3372 5.91678 77.487 6.44113 77.7117 7.2651C78.0488 8.50105 78.5357 10.3737 78.9477 12.0966C79.3597 13.782 79.6967 15.3175 79.7342 15.767C79.7342 15.8419 79.7342 15.9168 79.7342 15.9542C79.7342 16.516 79.5469 16.9655 79.3971 17.2651C79.3222 17.4149 79.2098 17.5273 79.1349 17.6396L79.06 17.752L79.0226 17.7894L79.0975 17.8643V17.6771H50.6705V17.8269H50.708Z" fill="black" fill-opacity="0.42"/>
<path d="M22.581 17.1536L22.6933 17.0787C22.5435 16.854 22.3188 16.442 22.3188 15.9176C22.3188 15.8802 22.3188 15.8053 22.3188 15.7678C22.3563 15.3558 22.6559 14.1199 23.0679 12.5468C23.4799 10.9738 24.0042 9.10115 24.4536 7.3783L24.3413 7.34085V7.45321C32.2065 6.29216 41.8694 6.14234 48.948 6.14234H53.2926C60.3712 6.14234 69.1353 6.29216 77.0005 7.45321V7.34085L76.8881 7.3783C77.3375 9.10115 77.8619 11.0113 78.2739 12.5468C78.6859 14.1199 79.0229 15.3558 79.0229 15.7678C79.0229 15.8053 79.0229 15.8802 79.0229 15.9176C79.0229 16.442 78.7982 16.854 78.6484 17.0787L78.7608 17.1536V17.0412H22.581V17.1536V17.3034H78.8731L78.9106 17.2659C79.0978 17.0038 79.3226 16.5543 79.3226 15.9551C79.3226 15.9176 79.3226 15.8427 79.3226 15.7678C79.2851 15.3184 78.9855 14.0824 78.536 12.5094C78.1241 10.9364 77.5997 9.02624 77.1503 7.34085L77.1128 7.26594H77.0379C69.1353 6.10489 60.3712 5.95508 53.2926 5.95508H48.948C41.8694 5.95508 32.2065 6.10489 24.3038 7.26594H24.2289L24.1915 7.34085C23.742 9.06369 23.2177 10.9364 22.8057 12.5094C22.3937 14.0824 22.0941 15.3184 22.0566 15.7678C22.0566 15.8427 22.0566 15.8802 22.0566 15.9551C22.0566 16.5543 22.3188 17.0412 22.4686 17.2659L22.5061 17.3034H22.581V17.1536Z" fill="black" fill-opacity="0.42"/>
<path d="M25.8013 24.2684L25.7638 24.156L25.6889 23.819V23.7441V23.7066L25.3144 20.6729V20.5605V20.4856L24.5653 19.9238H24.5278C24.5278 19.9238 23.8537 20.0736 23.0672 20.2984C22.3556 20.4856 21.6065 20.7103 21.1196 20.8976C21.0822 20.8976 21.0447 20.9351 21.0072 20.9351C21.0072 20.9351 20.9698 20.9351 20.9698 20.9725C20.5204 21.1972 20.0335 21.6467 19.5091 22.0961C18.9848 22.5081 18.4604 22.9201 18.0859 23.0324C17.6739 23.1823 16.9249 23.3695 16.1758 23.7066C15.5765 23.9688 14.9773 24.3059 14.5653 24.7178C14.5278 24.7553 14.4904 24.7927 14.4529 24.8302C14.4155 24.8676 14.378 24.9426 14.3406 24.98C13.9661 25.5418 13.2919 27.1897 12.6926 28.6879C12.0934 30.186 11.569 31.5343 11.569 31.5343L11.4941 31.6841H27.5241L25.8013 24.2684ZM11.8687 31.4969C11.9436 31.347 12.0185 31.1223 12.1308 30.7853C12.4305 29.9987 12.9174 28.8002 13.3668 27.6766C13.8162 26.553 14.3031 25.5418 14.5278 25.1673C14.8275 24.6429 15.5391 24.2684 16.2507 23.9688C16.9623 23.6691 17.7114 23.4444 18.1234 23.3321C18.5728 23.1823 19.0971 22.7703 19.584 22.3208C20.1084 21.8714 20.5953 21.422 21.0072 21.2347C21.3818 21.0474 22.2807 20.7853 23.0672 20.5605C23.7039 20.3733 24.3031 20.2609 24.4904 20.2235L25.0522 20.598L25.4267 23.7815L27.2245 31.5343H11.8687V31.4969Z" fill="black" fill-opacity="0.42"/>
<path d="M41.1202 4.90602V4.98092C41.1202 4.98092 41.4947 4.98092 42.1689 4.98092C44.1539 4.94347 48.6857 4.86856 52.9554 4.86856C55.8018 4.86856 58.5734 4.90602 60.4086 4.98092V4.90602L60.3711 4.86856V4.90602C60.2962 5.01838 59.8468 5.50527 58.9104 5.50527C57.8243 5.50527 42.6183 5.50527 41.8692 5.50527V5.58017L41.9067 5.54272C41.9067 5.54272 41.7569 5.46781 41.6071 5.35545C41.4573 5.24309 41.27 5.05583 41.2325 4.94347L41.1202 4.90602H41.0453C41.1202 5.09328 41.3074 5.28055 41.4573 5.39291C41.6445 5.50527 41.7943 5.61763 41.7943 5.61763C42.5434 5.61763 57.7494 5.61763 58.8355 5.61763C59.9591 5.61763 60.4086 4.94347 60.4086 4.90602L60.4835 4.83111H60.3711C58.5359 4.7562 55.8018 4.71875 52.9179 4.71875C47.1876 4.71875 41.0827 4.83111 41.0827 4.83111H41.0078L41.0453 4.90602H41.1202Z" fill="black" fill-opacity="0.42"/>
<path d="M89.8831 31.5718C89.8831 31.5718 89.3588 30.2235 88.7595 28.7253C88.1603 27.2272 87.4487 25.6167 87.1116 25.0175C87.0741 24.98 87.0367 24.9051 86.9992 24.8676C86.9618 24.8302 86.9243 24.7927 86.8869 24.7553C86.4749 24.3059 85.8756 24.0062 85.2764 23.7441C84.5273 23.4444 83.7783 23.2197 83.3663 23.0699C82.9917 22.9575 82.4674 22.5456 81.9805 22.0961C81.5311 21.7216 81.0816 21.3096 80.6697 21.0849C80.6322 21.0474 80.5947 21.0474 80.5573 21.01C80.5573 21.01 80.5198 21.01 80.5198 20.9725C80.0704 20.7478 79.209 20.4856 78.4225 20.2984C77.6359 20.0736 76.9618 19.9238 76.9618 19.9238H76.9243L76.8869 19.9613L76.2127 20.4482V20.4856V20.598L75.8382 23.6691V23.7066V23.7815L75.7633 24.1186L75.7258 24.2309L73.8906 31.7216H89.958L89.8831 31.5718ZM76.0255 23.7441L76.4 20.5605L76.9618 20.186C77.1491 20.2235 77.7108 20.3733 78.385 20.5231C79.1715 20.7478 80.0704 20.9725 80.4449 21.1972C80.8195 21.3845 81.3438 21.8339 81.8682 22.2834C82.3925 22.7328 82.8794 23.1448 83.3288 23.2946C83.7408 23.4444 84.4899 23.6317 85.2015 23.9313C85.9131 24.2309 86.6247 24.6429 86.9243 25.1298C87.2614 25.6542 87.9356 27.3021 88.5723 28.8002C88.8719 29.5493 89.1715 30.2609 89.3588 30.7853C89.4712 31.0849 89.5835 31.347 89.621 31.4969H74.2652L76.0255 23.7441Z" fill="black" fill-opacity="0.42"/>
<path d="M93.7405 42.1348H93.6282H93.5533C93.5533 42.1722 93.5533 42.2471 93.5533 42.2846C93.5158 42.8089 93.4784 43.2958 93.4035 43.7453C93.4035 43.9325 93.366 44.1198 93.3285 44.3445C93.3285 44.4569 93.2911 44.5318 93.2911 44.6441C93.2911 44.7565 93.2536 44.8688 93.2536 44.9812C93.2536 45.0936 93.2162 45.2059 93.2162 45.3183C93.2162 45.4306 93.1787 45.543 93.1787 45.6554C93.1413 45.8426 93.1038 46.0673 93.1038 46.2546C92.9915 47.0037 92.8417 47.8277 92.6918 48.6142C92.6544 48.8763 92.5795 49.1385 92.542 49.3632C92.542 49.4007 92.542 49.4381 92.5046 49.4756C92.5046 49.513 92.5046 49.513 92.5046 49.5505C92.4297 49.8501 92.3922 50.1497 92.3173 50.4494C92.3173 50.4868 92.3173 50.5243 92.2799 50.5617V50.5992C91.9053 52.2471 91.4933 53.7452 91.0439 54.719C90.4821 55.955 89.9203 56.8164 89.3211 57.3408C89.2461 57.4157 89.1712 57.4531 89.0963 57.528C89.0214 57.5655 88.984 57.6029 88.9091 57.6404C88.8716 57.6778 88.8716 57.6778 88.8342 57.6778C88.8342 57.6778 88.7967 57.6778 88.7967 57.7153C88.7218 57.7527 88.6844 57.7902 88.6094 57.8276C88.5345 57.8651 88.4596 57.9026 88.3473 57.94C88.2724 57.9775 88.16 58.0149 88.0851 58.0149C87.8229 58.0898 87.5233 58.1273 87.2237 58.1273H81.793V67.6404C81.793 68.0898 81.9053 68.5018 82.13 68.8389C82.3548 69.176 82.6544 69.3632 82.9915 69.3632H92.6169C92.954 69.3632 93.2911 69.1385 93.4784 68.8389C93.7031 68.5393 93.8154 68.0898 93.8154 67.6404V42.1348H93.7405ZM93.5533 67.6404C93.5533 68.0524 93.4409 68.4269 93.2536 68.6891C93.0664 68.9512 92.8417 69.1011 92.5795 69.1011H82.9915C82.7293 69.1011 82.5046 68.9512 82.3173 68.6891C82.13 68.4269 82.0177 68.0524 82.0177 67.6404V58.3894H87.1862C88.0476 58.3894 88.7967 58.1273 89.4334 57.5655C90.1076 57.0037 90.6694 56.1048 91.2312 54.8688C92.2799 52.5468 93.1413 47.7527 93.5158 44.6067V67.6404H93.5533Z" fill="black" fill-opacity="0.42"/>
<path d="M14.2289 58.1269C14.1915 58.1269 14.154 58.1269 14.1166 58.1269C14.0417 58.1269 13.9293 58.1269 13.8544 58.1269C13.7046 58.1269 13.5548 58.0894 13.405 58.052C13.3301 58.0145 13.2177 58.0145 13.1428 57.9771C13.0679 57.9396 12.993 57.9396 12.9181 57.9022H12.8806C12.8057 57.8647 12.7308 57.8273 12.6559 57.7898C12.581 57.7523 12.4686 57.6774 12.3937 57.6025C12.3188 57.5651 12.2439 57.4902 12.169 57.4153C11.8694 57.1531 11.5698 56.816 11.2701 56.3666C11.1952 56.2542 11.1203 56.1419 11.0454 56.0295C10.8207 55.655 10.6334 55.243 10.4087 54.7935C10.3713 54.7186 10.3338 54.6437 10.3338 54.5688C10.2589 54.3441 10.1466 54.1194 10.0716 53.8572C10.0716 53.8198 10.0342 53.7823 10.0342 53.7074C9.99674 53.5576 9.92183 53.4078 9.88438 53.258C9.84692 53.1082 9.77202 52.9209 9.73457 52.7711C9.65966 52.5464 9.62221 52.3216 9.5473 52.0969C9.43494 51.7224 9.36003 51.3104 9.24767 50.8984C9.21022 50.7111 9.17277 50.5239 9.13531 50.3366C9.13531 50.2992 9.13531 50.2617 9.09786 50.2243C9.06041 49.9621 8.9855 49.6999 8.94805 49.4377L8.91059 49.2505V49.1381C8.91059 49.1381 8.91059 49.1381 8.91059 49.1007C8.91059 49.0258 8.87314 48.9509 8.87314 48.8759C8.87314 48.8385 8.87314 48.7636 8.83569 48.7261C8.79824 48.464 8.76078 48.2392 8.72333 47.9771C8.68588 47.7149 8.64842 47.4902 8.61097 47.2655C8.49861 46.4789 8.3488 45.6924 8.27389 44.9808V44.9434H8.19898H8.08662H8.01172V67.6025C8.01172 68.052 8.12408 68.464 8.3488 68.801C8.57352 69.1007 8.87314 69.3254 9.21022 69.3254H18.7982C19.1728 69.3254 19.4724 69.1007 19.6597 68.801C19.8844 68.5014 19.9967 68.052 19.9967 67.6025V58.1269H14.2289ZM19.7346 67.64C19.7346 68.052 19.6222 68.4265 19.4349 68.6887C19.2477 68.9508 19.023 69.1007 18.7608 69.1007H9.17277C8.9106 69.1007 8.68588 68.9508 8.49861 68.6887C8.31134 68.4265 8.19898 68.052 8.19898 67.64V46.6662C8.27389 47.0782 8.3488 47.5276 8.4237 47.9396C8.46116 48.2018 8.49861 48.464 8.57352 48.7261C8.57352 48.7636 8.57352 48.8385 8.61097 48.8759C8.72333 49.4377 8.83569 49.9995 8.94805 50.5613C8.9855 50.7861 9.06041 51.0108 9.09786 51.2355C9.13531 51.3479 9.13531 51.4602 9.17277 51.5726C9.39749 52.5089 9.65966 53.3703 9.88438 54.0819C9.92183 54.1568 9.92183 54.2317 9.95928 54.3067C10.0342 54.4939 10.1091 54.6812 10.184 54.8685C10.7458 56.1419 11.3076 57.0033 11.9818 57.5651C12.5061 58.0145 13.0679 58.2767 13.7046 58.3516C13.7421 58.3516 13.7795 58.3516 13.817 58.3516C13.8919 58.3516 13.9293 58.3516 14.0042 58.3516C14.0791 58.3516 14.154 58.3516 14.2289 58.3516H19.6971V67.64H19.7346Z" fill="black" fill-opacity="0.42"/>
<path d="M92.5435 49.3629L92.2813 50.5614C90.6708 49.8123 86.4011 48.1644 81.2701 48.1644H17.7495C17.0004 48.1644 12.2813 48.9134 9.13522 50.2618L8.87305 49.0633C12.0566 47.64 16.9629 46.8535 17.7495 46.8535H81.2701C86.6633 46.891 91.0453 48.6887 92.5435 49.3629Z" fill="#3265B1" stroke="black" stroke-opacity="0.42" stroke-width="0.0749064" stroke-miterlimit="10"/>
</g>
<defs>
<clipPath id="clip0_7554_21154">
<rect width="100" height="73" fill="white" transform="translate(0.5 0.144531)"/>
</clipPath>
</defs>
</svg>
