<svg width="135" height="50" viewBox="0 0 135 50" fill="none" xmlns="http://www.w3.org/2000/svg">
<g clip-path="url(#clip0_7549_20831)">
<path d="M34.623 17.7969C44.6854 16.5673 59.5454 16.2978 72.8359 16.4785C85.6886 16.6533 96.9887 17.2486 101.019 17.7842L100.628 21.2217L97.9932 32.2676L37.5381 32.2188L35.04 21.1992L34.623 17.7969Z" fill="#3265B1" stroke="#3265B1" stroke-width="1.33214"/>
<path d="M133.687 16.6194L133.836 16.5695C133.387 15.1725 131.891 13.8753 130.444 13.4762C129.147 13.1269 125.704 12.5781 124.357 12.5781C124.257 12.5781 124.207 12.5781 124.157 12.5781C123.509 12.628 122.96 13.1269 122.561 13.7257C122.112 14.3244 121.812 15.0728 121.712 15.7214C121.563 16.5197 121.463 17.9665 121.413 18.9145H121.563V18.7648L119.168 18.8147L122.81 22.4569H122.91C124.207 22.3571 126.253 22.1575 127.201 22.1575H127.35H127.5C128.199 22.1575 129.396 22.0578 130.444 21.8582C131.541 21.7085 132.539 21.459 133.038 21.2595C133.587 21.01 133.836 20.3115 133.986 19.7627C134.136 19.164 134.136 18.665 134.136 18.665L133.886 16.5695L133.687 16.6194H133.537L133.787 18.7149C133.787 18.7149 133.787 18.8147 133.787 19.0143C133.737 19.3136 133.687 19.7627 133.587 20.1618C133.437 20.561 133.238 20.9102 132.938 21.01C132.539 21.2096 131.491 21.4091 130.394 21.6087C129.296 21.7584 128.149 21.9081 127.5 21.9081H127.35H127.201C126.203 21.9081 124.207 22.0577 122.91 22.2074V22.3571L123.01 22.2573L119.966 19.2139L121.712 19.164V19.0143C121.762 18.1162 121.912 16.6693 122.012 15.871C122.112 15.3222 122.411 14.5738 122.81 14.025C123.209 13.4263 123.708 13.0272 124.157 13.0272C124.207 13.0272 124.257 13.0272 124.357 13.0272C125.604 13.0272 129.097 13.576 130.344 13.8753C131.641 14.2246 133.088 15.4719 133.487 16.7192L133.687 16.6194Z" fill="black" fill-opacity="0.3"/>
<path d="M16.0383 19.0152V18.8655L14.0426 18.8156V18.9653H14.1923C14.1424 18.0672 13.9927 16.6203 13.8929 15.7722C13.7932 15.1235 13.4938 14.3752 13.0448 13.7764C12.5957 13.1777 12.0469 12.6788 11.4482 12.6289C11.3983 12.6289 11.2985 12.6289 11.2486 12.6289C9.90152 12.6289 6.50881 13.1777 5.1617 13.527C3.76471 13.9261 2.21803 15.1734 1.769 16.6203L1.51953 18.7158C1.51953 18.7158 1.51953 19.2646 1.66921 19.8135C1.81889 20.4122 2.01846 21.0608 2.61717 21.3102C3.1161 21.5098 4.11395 21.7593 5.2116 21.909C6.30924 22.0586 7.45677 22.2083 8.15527 22.2083H8.30495H8.45463C9.40259 22.2083 11.4482 22.358 12.7454 22.5077H12.8452L16.4874 18.8655H16.0882L16.0383 19.0152L15.9385 18.9154L12.6456 22.2083L12.7454 22.3081V22.1584C11.4482 22.0586 9.40259 21.8591 8.45463 21.8591H8.30495H8.15527C7.45677 21.8591 6.30924 21.7593 5.26149 21.5597C4.16385 21.41 3.16599 21.1606 2.71696 20.961C2.31782 20.8113 2.06835 20.2126 1.96857 19.6638C1.91867 19.4642 1.86878 19.1649 1.86878 18.9653C1.86878 18.7657 1.86878 18.6659 1.86878 18.6659L2.11824 16.5704H1.96857L2.11824 16.6203C2.51739 15.373 3.96428 14.1257 5.26149 13.7764C6.50881 13.4272 10.0013 12.9283 11.2486 12.9283C11.2985 12.9283 11.3983 12.9283 11.4482 12.9283C11.8972 12.9283 12.3962 13.3773 12.7953 13.9261C13.1944 14.4749 13.4938 15.2233 13.5936 15.7722C13.7433 16.5704 13.843 18.0173 13.8929 18.9154V19.0651L16.0383 19.115V19.0152Z" fill="black" fill-opacity="0.3"/>
<path d="M133.335 16.6695L133.435 16.6196C133.035 15.4222 131.688 14.2248 130.391 13.8755C129.094 13.5263 125.701 13.0273 124.454 13.0273C124.404 13.0273 124.304 13.0273 124.254 13.0273C123.805 13.0772 123.356 13.4764 122.957 13.9753C122.608 14.5241 122.308 15.1727 122.209 15.7714C122.059 16.5697 121.959 18.0665 121.909 18.9147L121.859 19.2639V19.3138L123.556 21.9581H123.606C124.853 21.8584 126.4 21.7087 127.248 21.7087H127.547C128.894 21.7087 132.038 21.2597 132.936 20.8605C133.235 20.7108 133.434 20.3616 133.534 19.9125C133.634 19.5134 133.734 19.0145 133.734 18.6652L133.484 16.6196L133.335 16.6695H133.235L133.484 18.6652C133.484 19.0145 133.434 19.4635 133.285 19.8627C133.185 20.2618 132.985 20.611 132.786 20.7108C131.988 21.0601 128.794 21.559 127.447 21.559H127.148C126.3 21.559 124.753 21.6588 123.506 21.8085V21.9083L123.556 21.8584L121.959 19.3138V19.0145C122.009 18.1663 122.159 16.6695 122.259 15.9211C122.358 15.3723 122.608 14.6738 123.007 14.1749C123.356 13.676 123.805 13.2768 124.154 13.2768C124.204 13.2768 124.254 13.2768 124.304 13.2768C125.551 13.2768 128.944 13.7757 130.191 14.125C131.439 14.4742 132.786 15.6717 133.135 16.7693L133.335 16.6695Z" fill="black" fill-opacity="0.3"/>
<path d="M2.26722 16.6704L2.367 16.7203C2.71625 15.6227 4.06336 14.4252 5.31068 14.076C6.558 13.7267 9.9507 13.2278 11.198 13.2278C11.2479 13.2278 11.2978 13.2278 11.3477 13.2278C11.697 13.2278 12.146 13.6269 12.4952 14.1259C12.8445 14.6248 13.1438 15.2734 13.2436 15.8721C13.3933 16.6704 13.4931 18.1672 13.543 18.9655V19.2648L11.9464 21.8094L11.9963 21.8593V21.7595C10.749 21.6597 9.20231 21.51 8.35414 21.51H8.05478C6.75757 21.51 3.56443 21.061 2.71625 20.6618C2.51668 20.562 2.31711 20.2627 2.21733 19.8136C2.11754 19.4145 2.01775 18.9655 2.01775 18.6162L2.367 16.7203L2.26722 16.6704H2.16743L1.91797 18.6661C1.91797 19.0154 1.96786 19.5143 2.11754 19.9134C2.26722 20.3126 2.4169 20.7117 2.71625 20.8614C3.61432 21.2605 6.75757 21.7096 8.10467 21.7096H8.40403C9.20231 21.7096 10.7989 21.8094 12.0462 21.959H12.0961L13.7426 19.3147L13.6927 18.9655C13.6428 18.1173 13.4931 16.6205 13.3933 15.8222C13.2935 15.2235 12.9942 14.525 12.6449 14.0261C12.2957 13.4773 11.8466 13.0781 11.3477 13.0781C11.2978 13.0781 11.2479 13.0781 11.1481 13.0781C9.85092 13.0781 6.45821 13.5771 5.21089 13.9263C3.91368 14.2756 2.51668 15.473 2.16743 16.6704H2.26722Z" fill="black" fill-opacity="0.3"/>
<path d="M45.2766 32.9856V33.0854H90.0803L91.9263 21.2109H42.9316L45.2267 33.0854H45.2766V32.9856H45.3764L43.1312 21.4105H91.7767L89.9805 32.9357H45.2766V32.9856Z" fill="black" fill-opacity="0.3"/>
<path d="M34.2502 21.3137H34.1504L34.3001 21.9125V21.9623H101.206L101.356 21.2638V21.1641H34.1504V21.2638L34.2502 21.3137V21.4135H101.356V21.3137H101.256L101.106 21.8626H34.4996L34.35 21.3137H34.2502Z" fill="black" fill-opacity="0.3"/>
<path d="M98.0613 34.883V34.7832H37.3418L38.2399 38.6249C38.2399 38.6249 38.4394 39.3733 39.1878 40.1716C39.9362 40.92 41.1835 41.6684 43.3289 41.6684C47.5199 41.6684 89.6294 41.6684 91.9245 41.6684C94.2694 41.6684 96.7641 40.6206 97.1632 38.6748C97.3628 37.7768 97.7619 36.2301 98.1112 34.883H98.0613H98.1611V34.2344L98.0114 34.8331C97.6621 36.1802 97.263 37.7269 97.0634 38.6249C96.7142 40.4211 94.2694 41.4688 91.9744 41.4688C89.6793 41.4688 47.5698 41.4688 43.3788 41.4688C41.2833 41.4688 40.0859 40.7204 39.3874 40.0219C39.0382 39.6727 38.7887 39.2735 38.6889 39.0241C38.639 38.8744 38.5891 38.7746 38.5392 38.6748C38.4893 38.575 38.4893 38.575 38.4893 38.575L37.6412 34.9329H98.1611V34.8331H98.0613V34.883Z" fill="black" fill-opacity="0.3"/>
<path d="M36.9943 32.9877V33.0875H98.6617V33.0376C98.8114 32.5386 98.8613 32.2393 98.8613 32.2393L98.9611 31.8401L101.406 21.3627L101.905 17.022H101.805C99.2106 16.7226 88.9326 15.625 67.9777 15.625C45.5758 15.625 35.3478 16.8723 33.7014 17.0719H33.6016L34.1005 21.3627L36.5452 31.8401L36.8446 33.0875H36.8945V32.9877H36.9943L36.7947 31.7903L34.35 21.3128L33.851 17.1218H33.7512V17.2216C35.3977 17.022 45.6257 15.7747 67.9777 15.7747C88.9326 15.7747 99.2106 16.8723 101.805 17.1717V17.0719H101.705L101.206 21.3128L98.7615 31.7903L98.6617 32.1894C98.6617 32.1894 98.5619 32.4888 98.4622 32.9877H98.562V32.8879H36.9943V32.9877Z" fill="black" fill-opacity="0.3"/>
<path d="M106.693 -4.58382C106.643 -4.53393 106.643 -4.53393 106.693 -4.58382C106.693 -4.48404 106.743 -4.43415 106.792 -4.28447C106.743 -4.33436 106.743 -4.48404 106.693 -4.58382ZM123.307 23.0568V23.0069C123.207 22.7574 123.157 22.5578 123.107 22.4581C123.107 22.4082 123.057 22.3583 123.057 22.3583L119.415 18.7161C119.216 18.3668 116.372 12.9784 113.428 7.49023C110.734 2.45106 107.94 -2.73779 107.092 -4.23457C106.992 -4.43415 106.892 -4.53393 106.842 -4.63372C106.792 -4.68361 106.792 -4.7335 106.743 -4.83329C106.643 -4.98297 106.493 -5.18254 106.343 -5.33221L105.994 -5.78125L106.194 -5.28232C106.244 -5.18254 106.294 -5.08275 106.294 -4.98297C107.94 -0.991544 111.383 7.29066 111.931 9.23647C112.031 9.58572 112.081 9.93497 112.081 10.3341C112.081 12.5294 110.435 15.1737 107.541 17.6684C107.491 17.7182 107.491 17.7182 107.441 17.7681L107.341 17.8679L107.441 17.9178C107.99 18.2172 108.638 18.8159 109.287 19.3647C109.936 19.9135 110.634 20.4623 111.183 20.6619C112.181 21.0112 114.626 21.6598 115.723 22.8073L115.773 22.7574V22.8073H115.973H116.072L123.008 23.1566H123.257C123.357 23.1566 123.307 23.1067 123.307 23.0568ZM123.107 23.0069H123.008L115.973 22.6576H115.823C114.675 21.4602 112.231 20.8615 111.233 20.5122C110.734 20.3127 110.035 19.8137 109.387 19.2649C108.788 18.7161 108.14 18.1673 107.591 17.8679L107.641 17.818C110.534 15.2735 112.181 12.6791 112.181 10.384C112.181 9.98487 112.131 9.58572 112.031 9.23647C111.582 7.6898 109.387 2.20159 107.641 -1.9894C107.341 -2.73779 107.042 -3.48618 106.743 -4.13479C106.743 -4.13479 106.743 -4.13479 106.743 -4.18468C106.693 -4.28447 106.643 -4.38425 106.643 -4.48404C106.643 -4.53393 106.593 -4.58382 106.593 -4.63372C106.643 -4.58382 106.643 -4.53393 106.693 -4.48404C106.842 -4.28447 107.291 -3.43629 107.94 -2.18897C109.187 0.15599 111.233 3.89795 113.229 7.6399C114.775 10.4838 116.272 13.3277 117.37 15.4232C117.919 16.4709 118.417 17.369 118.717 17.9677C119.016 18.5664 119.216 18.9157 119.216 18.9157L119.266 18.9656L120.363 20.0632L122.858 22.5578C122.858 22.5578 122.858 22.5578 122.858 22.6077C122.958 22.5578 123.008 22.7574 123.107 23.0069Z" fill="black" fill-opacity="0.3"/>
<path d="M30.0576 -6.12855C29.409 -5.62963 29.0598 -5.1307 28.8103 -4.73156C28.7604 -4.63177 28.6107 -4.4322 28.4611 -4.08295C27.4632 -2.3367 24.8688 2.55279 22.2744 7.39239C19.3307 12.8806 16.4868 18.269 16.2872 18.6183L16.1376 18.7679L16.0877 18.8178L12.7947 22.1108L12.7448 22.2105L12.6451 22.3103C12.6451 22.3103 12.6451 22.3602 12.5952 22.4101C12.5453 22.5099 12.4954 22.7095 12.3956 22.9589V23.0088C12.3956 23.0587 12.3956 23.0587 12.3457 23.1086H12.5453H12.6451L19.5802 22.7594H19.9294C21.027 21.6118 23.4718 20.9632 24.4696 20.614C25.0684 20.4144 25.717 19.8656 26.4155 19.2669C27.114 18.6681 27.7626 18.0694 28.3114 17.82C28.3613 17.7701 28.4611 17.7701 28.511 17.7202L28.6107 17.6703L28.511 17.5705C28.4611 17.5206 28.4112 17.5206 28.4112 17.4707C25.6172 14.9761 24.0206 12.4316 24.0206 10.2862C24.0206 9.88702 24.0705 9.53778 24.1703 9.18853C24.769 7.09303 28.7105 -2.3866 30.1574 -5.87909C30.1574 -5.92898 30.2073 -5.97888 30.2073 -6.02877L30.3071 -6.32812L30.0576 -6.12855ZM29.8082 -5.57973C28.2615 -1.83778 24.5195 7.14292 23.9208 9.18853C23.821 9.53778 23.7711 9.93692 23.7711 10.3361C23.7711 12.5812 25.3677 15.1258 28.1617 17.6204L28.2116 17.6703C28.1617 17.6703 28.1617 17.7202 28.1118 17.7202C27.563 18.0195 26.8645 18.6183 26.2159 19.1671C25.5174 19.7159 24.8688 20.2647 24.32 20.4643C23.3221 20.8135 20.9273 21.4123 19.7298 22.6097H19.5802L17.8339 22.7095L12.5952 23.0088H12.4954C12.5952 22.7594 12.6451 22.5598 12.695 22.5099V22.46L14.6408 20.5142L14.7904 20.4144L15.1896 20.0153L15.938 19.2669L15.9879 19.217L16.3371 18.8677C16.3371 18.8677 16.5367 18.5185 16.8361 17.9198C17.9836 15.7744 20.8275 10.4358 23.4718 5.49646C24.9686 2.70247 26.4155 0.00825644 27.4133 -1.88767C28.2116 -3.33456 28.7105 -4.28252 28.8602 -4.48209C28.8602 -4.48209 28.8602 -4.48209 28.8602 -4.53199C29.0598 -4.88124 29.3092 -5.28038 29.8082 -5.67952C29.8581 -5.72941 29.8581 -5.67952 29.8082 -5.57973Z" fill="black" fill-opacity="0.3"/>
<path d="M125.504 35.7312C125.504 35.4817 125.504 32.7376 125.205 30.1931C124.955 28.1974 123.858 24.7548 123.359 23.2081C123.359 23.1582 123.309 23.1083 123.309 23.1083V23.0584H123.159H123.059L116.024 22.7092H115.925H115.675L115.825 22.8588C115.925 22.9586 116.024 23.1083 116.124 23.258C116.573 23.9565 117.521 26.1518 118.319 28.1475C118.719 29.1453 119.118 30.0933 119.367 30.7918C119.517 31.2408 119.667 31.5402 119.766 31.7397C119.766 31.7896 119.766 31.7896 119.816 31.8395H117.771V31.9393C117.771 31.9892 117.771 32.0391 117.771 32.089C117.821 32.4382 117.87 32.8374 117.87 33.3363C117.87 34.434 117.671 35.831 116.873 36.9286C116.074 38.0262 114.677 38.9243 112.282 39.074C109.838 39.1738 106.894 39.2237 104.1 39.2237C101.556 39.2237 99.1607 39.1738 97.2149 39.1738H97.0153V39.2237C97.0153 39.2736 96.9654 39.3235 96.9654 39.3733C96.9155 39.4731 96.8656 39.5729 96.8157 39.6727C96.8157 39.7226 96.7658 39.7725 96.7159 39.8224C96.666 39.8723 96.6161 39.9721 96.5663 40.0219C96.4665 40.1217 96.3667 40.2215 96.2669 40.3213C96.1671 40.3712 96.1172 40.471 96.0174 40.5209C95.9176 40.5708 95.8179 40.6706 95.7181 40.7204C95.6183 40.7703 95.5185 40.8202 95.4187 40.92C95.3189 40.9699 95.2191 41.0198 95.1194 41.0697C95.1194 41.0697 95.1194 41.0697 95.0695 41.0697C95.0196 41.1196 94.9198 41.1196 94.8699 41.1695H94.82C94.82 41.1695 94.7701 41.1695 94.7202 41.2194H94.6703C94.5705 41.2194 94.5207 41.2693 94.4209 41.2693C94.4209 41.2693 94.371 41.2693 94.3211 41.2693C94.2213 41.3192 94.1714 41.3192 94.0716 41.3691C93.9718 41.3691 93.9219 41.4189 93.8222 41.4189C93.7224 41.4688 93.5727 41.4688 93.4729 41.4688C93.3731 41.4688 93.3232 41.5187 93.2234 41.5187C93.1237 41.5187 93.0239 41.5686 92.8742 41.5686C92.7744 41.5686 92.7245 41.5686 92.6247 41.5686C92.5748 41.5686 92.5249 41.5686 92.4252 41.5686C92.2755 41.5686 92.1757 41.5686 92.026 41.5686H43.3307C43.181 41.5686 43.0812 41.5686 42.9315 41.5686C42.8317 41.5686 42.732 41.5686 42.6821 41.5686C42.6322 41.5686 42.5823 41.5686 42.4825 41.5686H42.4326C42.3827 41.5686 42.2829 41.5686 42.233 41.5187H42.1831C42.0834 41.5187 41.9836 41.4688 41.9337 41.4688C41.8339 41.4688 41.784 41.4189 41.6842 41.4189C41.6343 41.4189 41.5844 41.4189 41.5345 41.3691C41.4846 41.3691 41.4347 41.3192 41.335 41.3192C41.1354 41.2693 40.9857 41.2194 40.836 41.1196C40.7861 41.1196 40.7362 41.0697 40.6864 41.0697C40.6365 41.0697 40.5866 41.0198 40.5367 41.0198C40.4868 40.9699 40.4369 40.9699 40.3371 40.92C40.2872 40.92 40.2872 40.8701 40.2373 40.8701C40.1375 40.8202 40.0378 40.7703 39.938 40.6706C39.6386 40.471 39.3392 40.2215 39.1397 39.9721C39.0399 39.8723 38.99 39.7725 38.9401 39.7226C38.9401 39.7226 38.9401 39.7226 38.8902 39.6727C38.8403 39.6228 38.7904 39.5729 38.7904 39.4731C38.7405 39.4232 38.7405 39.3733 38.6906 39.3235C38.6408 39.2736 38.5909 39.1738 38.5909 39.1239V39.074H38.3913C36.4455 39.1239 33.9508 39.1239 31.4063 39.1239C28.6123 39.1239 25.6686 39.074 23.2239 38.9742C20.829 38.8744 19.432 37.9763 18.6338 36.8288C17.8355 35.6813 17.6359 34.3342 17.6359 33.2365C17.6359 32.7376 17.6858 32.3385 17.7357 31.9892C17.7357 31.9393 17.7357 31.8894 17.7357 31.8395V31.7397H15.8897C15.8897 31.7397 15.8897 31.6899 15.9395 31.64C16.0393 31.4404 16.1391 31.0911 16.3387 30.692C17.1869 28.5965 18.8832 24.2059 19.5817 23.1582C19.6815 23.0085 19.7813 22.9087 19.8811 22.7591L20.0308 22.6094H19.8312H19.7813H19.6815L17.8355 22.7092L12.5967 22.9586H12.4969H12.2974V23.0085C12.2974 23.0584 12.2974 23.0584 12.2475 23.1083C11.7486 24.655 10.6509 28.0976 10.4014 30.0933C10.1021 32.5879 10.1021 35.332 10.1021 35.6314L9.80273 36.6292C9.80273 36.6292 10.3017 43.8138 10.7008 47.905C10.7507 48.4039 10.8006 48.9029 10.9004 49.5016C11.0999 51.1979 11.4492 53.1936 11.8483 55.1894V55.2891L11.9481 55.2392C11.998 55.2392 12.0479 55.1894 12.0978 55.1894C16.2888 53.2934 22.8746 52.2457 23.9224 52.2457H108.541C115.725 52.2457 121.563 54.6904 123.508 55.5885C123.558 55.6384 123.608 55.6384 123.658 55.6384L123.758 55.6883V55.5885C124.307 52.8444 124.756 50.0005 124.955 47.9549C125.005 47.3063 125.105 46.5579 125.155 45.8095C125.304 44.1132 125.454 42.2671 125.554 40.6207C125.704 38.3755 125.853 36.6791 125.853 36.6791L125.504 35.7312ZM125.604 37.8766C125.554 38.5252 125.504 39.4731 125.404 40.471C125.304 42.1174 125.155 44.0633 124.955 45.8095C124.905 46.5579 124.806 47.3063 124.756 47.9549C124.556 49.9506 124.107 52.7945 123.558 55.4887C123.558 55.4887 123.508 55.4887 123.458 55.4388C123.359 55.3889 123.209 55.339 123.109 55.2891C122.96 55.2392 122.81 55.1893 122.66 55.0896C122.61 55.0896 122.56 55.0397 122.51 55.0397C122.261 54.9399 122.012 54.8401 121.762 54.7403C121.662 54.6904 121.612 54.6904 121.513 54.6405C120.066 54.0917 118.17 53.4431 115.875 52.9442C115.526 52.8943 115.176 52.7945 114.827 52.7446C114.428 52.6947 113.979 52.5949 113.58 52.545C113.38 52.4951 113.181 52.4951 112.981 52.4452C112.781 52.4452 112.582 52.3954 112.382 52.3455L111.684 52.2956C111.534 52.2956 111.335 52.2457 111.185 52.2457C110.885 52.2457 110.536 52.1958 110.187 52.1958C109.938 52.1958 109.638 52.1958 109.339 52.1459C109.039 52.1459 108.74 52.1459 108.441 52.1459H23.8725C23.7228 52.1459 23.5232 52.1459 23.2239 52.1958C23.0742 52.1958 22.9245 52.2457 22.725 52.2457C22.6252 52.2457 22.5254 52.2457 22.4256 52.2956C22.3258 52.2956 22.226 52.2956 22.1262 52.3455H22.0764C21.9267 52.3455 21.777 52.3954 21.6273 52.3954C21.2282 52.4452 20.7791 52.545 20.3301 52.6448C20.0806 52.6947 19.7813 52.7446 19.5318 52.7945C18.6836 52.9442 17.7856 53.1936 16.8875 53.3932C16.5882 53.493 16.2888 53.5429 15.9894 53.6427C15.8897 53.6427 15.7899 53.6926 15.74 53.7425C15.3408 53.8422 14.9916 53.942 14.6423 54.0917C14.4428 54.1416 14.2931 54.1915 14.1434 54.2414C13.844 54.3412 13.5447 54.441 13.2453 54.5407C13.0458 54.6405 12.8462 54.6904 12.6466 54.7902C12.4471 54.89 12.2475 54.9399 12.0479 55.0397C12.0479 55.0397 11.998 55.0397 11.9481 55.0896C11.549 53.1437 11.2496 51.1979 11.0501 49.5515C10.9503 49.0026 10.9004 48.4538 10.8505 47.9549C10.6509 45.9093 10.4014 43.1153 10.2518 40.8202C10.2518 40.8202 10.2518 40.8202 10.2518 40.7703C10.152 39.6228 10.1021 38.5751 10.0522 37.8267C10.0023 37.1781 9.95241 36.729 9.95241 36.6292L10.2518 35.6813C10.2518 35.6813 10.2518 34.9329 10.3017 33.8851C10.3516 32.8374 10.4014 31.4404 10.5511 30.0933C10.8006 28.0976 11.8982 24.6051 12.3972 23.0584H12.4969L19.432 22.7092H19.5318C19.432 22.8089 19.3821 22.8588 19.3323 22.9586C18.8832 23.707 17.9353 25.8524 17.137 27.8481C16.3387 29.8438 15.6402 31.64 15.6402 31.64L15.5903 31.7397H17.4862C17.4862 31.7397 17.4862 31.7896 17.4862 31.8395C17.4363 32.1888 17.3864 32.5879 17.3864 33.0869C17.3864 34.2344 17.586 35.6314 18.4342 36.7789C18.4342 36.7789 18.4342 36.7789 18.4841 36.8288C19.3323 37.9763 20.7293 38.8744 23.174 38.9742C25.6187 39.074 28.5624 39.1239 31.3564 39.1239C33.9508 39.1239 36.4954 39.074 38.4412 39.0241C38.541 39.1738 38.6408 39.3733 38.7904 39.6228C38.7904 39.6727 38.8403 39.6727 38.8902 39.7226C38.9401 39.7725 38.99 39.8224 39.0399 39.9222C39.0898 39.9721 39.0898 39.9721 39.1397 40.0219C39.1896 40.0718 39.2395 40.1217 39.2894 40.1716C39.3393 40.2215 39.3891 40.2714 39.439 40.3213C39.439 40.3213 39.439 40.3213 39.4889 40.3712C39.5388 40.4211 39.5887 40.471 39.6386 40.471C39.6885 40.5209 39.7384 40.5708 39.7883 40.6207C39.8382 40.6706 39.938 40.7204 39.9879 40.7703C40.0378 40.8202 40.1375 40.8701 40.1874 40.8701C40.2872 40.92 40.3371 40.9699 40.4369 40.9699C40.6864 41.0697 40.9358 41.2194 41.2352 41.2693C41.335 41.3192 41.4347 41.3192 41.5345 41.3691C41.6343 41.4189 41.7341 41.4189 41.8339 41.4189C41.9337 41.4189 42.0335 41.4688 42.1831 41.4688C42.2829 41.4688 42.4326 41.5187 42.5324 41.5187C42.6322 41.5187 42.7818 41.5187 42.8816 41.5187C42.9814 41.5187 43.1311 41.5187 43.2808 41.5187H91.9262C92.0759 41.5187 92.1757 41.5187 92.3254 41.5187C92.4252 41.5187 92.4751 41.5187 92.5748 41.5187C92.6746 41.5187 92.7245 41.5187 92.8243 41.5187C92.974 41.5187 93.0738 41.4688 93.2234 41.4688C93.2733 41.4688 93.2733 41.4688 93.3232 41.4688C93.423 41.4688 93.5228 41.4189 93.6226 41.4189C93.6725 41.4189 93.7224 41.4189 93.7723 41.3691C93.8222 41.3691 93.872 41.3192 93.9718 41.3192C94.0716 41.3192 94.2213 41.2693 94.3211 41.2194C94.4209 41.1695 94.5705 41.1695 94.6703 41.1196C94.7202 41.1196 94.7202 41.1196 94.7701 41.0697H94.82C94.9198 41.0198 94.9697 41.0198 95.0695 40.9699C95.1194 40.9699 95.1693 40.92 95.2192 40.8701C95.2691 40.8202 95.3189 40.8202 95.3688 40.7703C95.4686 40.7204 95.5185 40.6706 95.6183 40.6207C95.6183 40.6207 95.6682 40.6207 95.6682 40.5708C95.7181 40.5209 95.768 40.5209 95.8179 40.471C95.8678 40.4211 95.9675 40.3712 96.0174 40.3213C96.0174 40.3213 96.0174 40.3213 96.0673 40.2714C96.1172 40.2215 96.217 40.1716 96.2669 40.0718C96.3667 40.0219 96.4166 39.9222 96.5164 39.8224C96.5164 39.8224 96.5164 39.8224 96.5164 39.7725C96.5663 39.7226 96.6161 39.6727 96.666 39.6228C96.7159 39.5729 96.7159 39.523 96.7658 39.4731C96.7658 39.4731 96.7658 39.4731 96.8157 39.4232C96.8656 39.3234 96.9155 39.2237 97.0153 39.1239C97.0153 39.074 97.0652 39.074 97.0652 39.0241C99.011 39.074 101.456 39.074 104 39.074C106.794 39.074 109.738 39.0241 112.183 38.9243C114.627 38.8245 116.074 37.8766 116.923 36.729C116.923 36.6791 116.972 36.6791 116.972 36.6292C117.771 35.4817 117.97 34.0847 117.97 33.037C117.97 32.538 117.92 32.1389 117.87 31.7896C117.87 31.7896 117.87 31.7397 117.87 31.6899H119.966L119.916 31.5901C119.916 31.5901 119.218 29.7939 118.419 27.7982C117.621 25.8025 116.673 23.6072 116.224 22.9087C116.174 22.8089 116.124 22.7591 116.024 22.6593H116.124L123.059 23.0085H123.159C123.658 24.5053 124.756 27.9978 125.005 29.9935C125.155 31.3406 125.255 32.6877 125.304 33.7854C125.354 34.8331 125.354 35.5815 125.354 35.5815L125.654 36.5295C125.654 36.7789 125.604 37.228 125.604 37.8766Z" fill="black" fill-opacity="0.3"/>
<path d="M116.223 23.0581C116.173 22.9583 116.123 22.9084 116.023 22.8086H116.123C116.173 22.8585 116.223 22.9583 116.273 23.0082C116.772 23.7566 117.67 25.9518 118.468 27.9476C119.266 29.9433 119.965 31.7394 119.965 31.7394L120.065 31.939H117.869C117.869 31.939 117.869 31.8891 117.869 31.8392H119.965L119.915 31.7394C119.915 31.7394 119.217 29.9433 118.418 27.9476C117.62 25.9518 116.672 23.8064 116.223 23.0581Z" fill="#3265B1"/>
<path d="M17.5348 31.939H15.5391L15.6388 31.7394C15.6388 31.7394 16.3373 29.9433 17.1356 27.9476C17.9339 25.9518 18.8819 23.8064 19.3309 23.0082C19.3808 22.9583 19.4307 22.8585 19.4806 22.8086H19.5804C19.4806 22.9084 19.4307 22.9583 19.3808 23.0581C18.9318 23.8064 17.9838 25.9518 17.1855 27.9476C16.3872 29.9433 15.6887 31.7394 15.6887 31.7394L15.6388 31.8392H17.5348C17.5348 31.8891 17.5348 31.939 17.5348 31.939Z" fill="#3265B1"/>
<path d="M106.794 -4.63033L106.943 -4.73012C106.893 -4.78001 106.843 -4.8299 106.794 -4.92969L106.494 -4.78001L117.371 19.1186L121.013 20.4657V20.2163L119.416 18.6197L119.317 18.7195L119.466 18.6197C119.466 18.6197 116.523 13.0816 113.479 7.34393C111.932 4.50005 110.436 1.60627 109.188 -0.638909C108.59 -1.73655 108.041 -2.73441 107.642 -3.4329C107.243 -4.1314 106.993 -4.63033 106.893 -4.78001L106.794 -4.63033L106.644 -4.53055C106.744 -4.38087 106.993 -3.93183 107.392 -3.23333C108.789 -0.738696 111.733 4.7994 114.327 9.639C115.625 12.0837 116.822 14.3788 117.72 16.0253C118.618 17.7216 119.167 18.7694 119.167 18.7694L120.763 20.3659L120.863 20.2662L120.913 20.1165L117.62 18.8692L106.794 -4.92969L106.644 -4.8798L106.494 -4.78001C106.544 -4.73012 106.594 -4.63033 106.644 -4.58044L106.794 -4.63033Z" fill="black" fill-opacity="0.3"/>
<path d="M14.7404 20.2658L14.7903 20.4155L18.183 19.1682L29.0097 -4.58079L28.7104 -4.73047V-4.68058C28.6106 -4.5309 28.3611 -4.08186 27.962 -3.33347C25.2179 1.65581 16.1374 18.7191 16.1374 18.7191L16.2871 18.8189L16.1873 18.7191L14.0918 20.7148L14.7903 20.4654L14.7404 20.2658L14.8402 20.3656L16.3869 18.8189C16.3869 18.8189 16.5864 18.4697 16.8858 17.871C18.0333 15.7256 20.8772 10.387 23.5215 5.44765C24.8686 2.95302 26.116 0.608057 27.1138 -1.18808C27.6127 -2.08615 28.0119 -2.88444 28.3611 -3.43326C28.6605 -3.98208 28.9099 -4.38122 28.9598 -4.481L29.0097 -4.5309L28.8601 -4.63068L28.7104 -4.73047L17.9335 18.9187L14.6905 20.1161L14.7404 20.2658Z" fill="black" fill-opacity="0.3"/>
<path d="M125.602 35.7312C125.602 35.4319 125.602 32.6878 125.303 30.1931C125.003 27.7484 123.457 23.2581 123.207 22.4598C123.157 22.4099 123.157 22.36 123.157 22.36V22.3101L123.058 22.2103L123.008 22.1604L120.613 19.7656L120.014 19.1668L119.715 18.8176L119.515 18.6679V18.618C119.515 18.5681 119.465 18.5182 119.415 18.4683C119.365 18.3686 119.316 18.2688 119.266 18.169C119.216 18.1191 119.216 18.0692 119.166 17.9694C119.116 17.9195 119.066 17.8197 119.016 17.72C118.966 17.5703 118.867 17.4705 118.767 17.3208C118.667 17.1212 118.517 16.8718 118.418 16.6722C118.368 16.5724 118.318 16.4726 118.268 16.323C118.218 16.2731 118.168 16.1733 118.168 16.1234C118.018 15.824 117.819 15.5247 117.669 15.1754C117.569 14.9759 117.42 14.7264 117.32 14.5268C117.12 14.1277 116.921 13.7784 116.721 13.3294C116.621 13.0799 116.472 12.8305 116.322 12.581C116.272 12.5311 116.272 12.4812 116.222 12.3814C116.073 12.132 115.923 11.8825 115.773 11.5831C115.624 11.2339 115.424 10.9345 115.224 10.5853C115.125 10.4356 115.075 10.2859 114.975 10.0864C114.526 9.1883 114.027 8.29023 113.528 7.39215C112.031 4.54827 110.435 1.65449 109.237 -0.590687C108.639 -1.68833 108.09 -2.68618 107.74 -3.38468C107.341 -4.08318 107.092 -4.58211 106.992 -4.73179C106.942 -4.78168 106.942 -4.83157 106.892 -4.88146C106.543 -5.43029 106.044 -6.12878 104.797 -6.77739C103.4 -7.52578 101.105 -8.22428 96.9636 -8.67332C88.7313 -9.57138 73.4142 -10.0703 67.8761 -10.0703C62.338 -10.0703 47.021 -9.57138 38.7887 -8.67332C34.5977 -8.22428 32.3026 -7.52578 30.9056 -6.77739C29.5585 -6.07889 29.0596 -5.28061 28.7103 -4.73179C28.7103 -4.68189 28.6604 -4.632 28.6105 -4.58211C28.6105 -4.53222 28.5606 -4.48232 28.5107 -4.48232C28.4609 -4.38254 28.411 -4.28275 28.3112 -4.13307C28.2114 -3.9335 28.0617 -3.68404 27.912 -3.43457C27.8122 -3.2849 27.7125 -3.13522 27.6626 -2.93565C27.5628 -2.73608 27.463 -2.5864 27.3632 -2.38683C27.3133 -2.28704 27.2634 -2.23715 27.2634 -2.13736C27.1636 -1.98768 27.1137 -1.83801 27.014 -1.68833C26.9641 -1.58854 26.9142 -1.48876 26.8643 -1.38897C26.7645 -1.13951 26.6148 -0.939936 26.4651 -0.690472C26.3155 -0.441009 26.2157 -0.191545 26.066 0.0579195C25.4174 1.20545 24.7189 2.50266 24.0204 3.89966C23.9206 4.14913 23.7709 4.39859 23.6213 4.64805C23.5215 4.79773 23.4716 4.94741 23.3718 5.09709C23.272 5.24677 23.2221 5.39645 23.1223 5.54612C22.9726 5.84548 22.7731 6.14484 22.6234 6.44419C22.5236 6.69366 22.3739 6.89323 22.2243 7.14269C22.0247 7.54183 21.8251 7.89108 21.6255 8.29022C21.426 8.68937 21.1765 9.08851 20.9769 9.48765C20.8772 9.63733 20.8273 9.8369 20.7275 9.98658C20.6277 10.1862 20.5279 10.3358 20.4281 10.5354C20.2784 10.7849 20.1787 11.0343 20.029 11.2838C19.7795 11.7328 19.53 12.2318 19.2806 12.6808C19.1309 12.9303 19.0311 13.1797 18.8814 13.3793C18.7318 13.6288 18.632 13.9281 18.4823 14.1776C18.0333 15.0756 17.5842 15.824 17.235 16.5225C17.1352 16.6722 17.0354 16.8219 16.9855 17.0215C16.8358 17.3208 16.7361 17.5204 16.5864 17.7698C16.5864 17.8197 16.5365 17.8696 16.4866 17.9195C16.287 18.3187 16.1373 18.618 16.0874 18.6679L15.8879 18.8176L15.838 18.8675L15.5885 19.117L12.595 22.2103L12.4952 22.3101V22.36C12.4952 22.36 12.4952 22.4099 12.4453 22.4598C12.1958 23.2082 10.6491 27.6985 10.3498 30.1433C10.0504 32.6379 10.0504 35.382 10.0504 35.6814L9.70117 36.6792C9.70117 36.6792 10.2001 43.8638 10.5992 47.955C10.6491 48.4539 10.699 48.9528 10.7988 49.5515C10.7988 49.7012 10.8487 49.801 10.8487 49.9507C10.8487 50.1004 10.8986 50.2001 10.8986 50.3498C10.8986 50.4995 10.9485 50.6492 10.9485 50.749C10.9984 50.9984 10.9984 51.2479 11.0483 51.4974C11.0483 51.5971 11.0982 51.6969 11.0982 51.7967C11.198 52.3455 11.2977 52.9442 11.3975 53.4931C11.4474 53.8423 11.4973 54.1916 11.5971 54.5408C11.5971 54.5907 11.5971 54.6905 11.647 54.7404C11.7967 55.4888 11.9463 56.2372 12.096 56.9856C12.1459 57.2849 12.2457 57.5843 12.2956 57.8836C12.3455 58.0333 12.3455 58.183 12.3954 58.3327C12.6947 59.58 13.044 60.7275 13.3433 61.6755C13.3932 61.7753 13.3932 61.8751 13.4431 61.9748C13.5429 62.2243 13.6427 62.4738 13.7425 62.7232C14.4909 64.4196 15.2393 65.5671 16.1373 66.3155C16.8358 66.9142 17.5842 67.2635 18.4324 67.3633C18.4823 67.3633 18.5322 67.3633 18.5821 67.3633C18.6819 67.3633 18.7318 67.3633 18.8315 67.3633C18.9313 67.3633 19.0311 67.3633 19.1309 67.3633H116.372C117.519 67.3633 118.517 67.014 119.365 66.2656C120.264 65.5172 121.012 64.3198 121.76 62.6733C123.157 59.58 124.305 53.1937 124.804 49.0027C124.854 48.6036 124.904 48.2543 124.904 47.9051C124.904 47.6556 124.953 47.4062 125.003 47.1068C125.053 46.7077 125.103 46.2586 125.103 45.8096V45.7597C125.452 41.7184 125.802 36.6293 125.802 36.6293V36.5794L125.602 35.7312ZM123.457 55.7382C123.357 56.1374 123.307 56.5365 123.207 56.9357C123.207 56.9856 123.207 57.0355 123.157 57.0853V57.1352C122.658 59.3305 122.11 61.3262 121.511 62.6234C120.762 64.2699 120.014 65.4174 119.216 66.1159C119.116 66.2157 119.016 66.2656 118.916 66.3654C118.817 66.4153 118.767 66.4652 118.667 66.5151C118.617 66.5151 118.617 66.565 118.567 66.565C118.567 66.565 118.517 66.565 118.517 66.6149C118.418 66.6648 118.368 66.7147 118.268 66.7645C118.168 66.8144 118.068 66.8643 117.919 66.9142C117.819 66.9641 117.669 67.014 117.569 67.014C117.22 67.1138 116.821 67.1637 116.422 67.1637H19.1808C19.1309 67.1637 19.081 67.1637 19.0311 67.1637C18.9313 67.1637 18.7817 67.1637 18.6819 67.1637C18.4823 67.1637 18.2827 67.1138 18.0832 67.0639C17.9834 67.014 17.8337 67.014 17.7339 66.9641C17.6341 66.9142 17.5343 66.9142 17.4346 66.8643H17.3847C17.2849 66.8144 17.1851 66.7645 17.0853 66.7147C16.9855 66.6648 16.8358 66.565 16.7361 66.4652C16.6363 66.4153 16.5365 66.3155 16.4367 66.2157C16.0376 65.8665 15.6384 65.4174 15.2393 64.8187C15.1395 64.669 15.0397 64.5194 14.9399 64.3697C14.6406 63.8708 14.3911 63.3219 14.0917 62.7232C14.0418 62.6234 13.9919 62.5237 13.9919 62.4239C13.8922 62.1245 13.7425 61.8252 13.6427 61.4759C13.6427 61.426 13.5928 61.3761 13.5928 61.2763C13.5429 61.0768 13.4431 60.8772 13.3932 60.6776C13.3433 60.4781 13.2436 60.2286 13.1937 60.029C13.0939 59.7297 13.044 59.4303 12.9442 59.131C12.7945 58.632 12.6947 58.0832 12.5451 57.5344C12.4952 57.2849 12.4453 57.0355 12.3954 56.786C12.3954 56.7361 12.3455 56.6862 12.3455 56.6363C12.2457 56.2871 12.1958 55.9378 12.1459 55.5886L12.096 55.3391C12.096 55.2892 12.096 55.2393 12.0461 55.1894C12.0461 55.0896 11.9962 54.9899 11.9962 54.8901C11.9962 54.8402 11.9962 54.7404 11.9463 54.6905C11.8965 54.3412 11.8466 54.0419 11.7967 53.6926C11.7468 53.3434 11.6969 53.044 11.647 52.7447C11.4474 51.6969 11.2977 50.6492 11.198 49.7012C11.1481 49.1524 11.0483 48.6036 10.9984 48.1047C10.7988 46.059 10.5493 43.2651 10.3997 40.9201V40.8702C10.2999 39.7227 10.25 38.7248 10.2001 37.9764C10.1502 37.3278 10.1502 36.9287 10.1003 36.8289L10.3997 35.8809C10.3997 35.8809 10.3997 35.1325 10.4496 34.0848C10.4995 33.037 10.5493 31.64 10.699 30.3428C10.8487 29.0456 11.3975 27.0998 11.8965 25.5032C12.1459 24.7049 12.3954 23.9566 12.5451 23.4576C12.5451 23.4077 12.595 23.3578 12.595 23.3578C12.595 23.3079 12.6448 23.2581 12.6448 23.2082C12.7446 22.9587 12.7945 22.7591 12.7945 22.7092L14.8401 20.6636L14.89 20.6137L15.4388 20.0649L16.4367 19.0671C16.4367 19.0671 16.5365 18.9174 16.6363 18.6679C16.6862 18.5681 16.7361 18.4683 16.8358 18.3187C16.8857 18.2688 16.9356 18.169 16.9356 18.1191C17.0354 17.9694 17.0853 17.8197 17.1851 17.6202C17.235 17.5204 17.3348 17.3707 17.3847 17.221C17.4844 17.0714 17.5343 16.9217 17.6341 16.7221C17.684 16.6223 17.7339 16.5225 17.8337 16.3729C17.8836 16.2731 17.9335 16.1733 17.9834 16.0735C18.133 15.824 18.2328 15.5746 18.3825 15.3251C19.2806 13.6288 20.3782 11.5831 21.5756 9.38787C21.7253 9.08851 21.9249 8.78915 22.0746 8.43991C22.5735 7.49194 23.0724 6.54398 23.5714 5.64591C24.22 4.39859 24.8686 3.20116 25.4673 2.05363C25.617 1.75427 25.7666 1.45492 25.9662 1.15556C26.066 0.955989 26.1658 0.806311 26.2656 0.60674C26.515 0.157705 26.7645 -0.29133 26.9641 -0.690472C27.014 -0.790257 27.0639 -0.939937 27.1636 -1.03972C27.6626 -1.93779 28.0617 -2.73608 28.411 -3.2849C28.7103 -3.83372 28.9598 -4.23286 29.0097 -4.33264C29.0097 -4.33264 29.0097 -4.33264 29.0097 -4.38254C29.2092 -4.68189 29.4088 -5.03114 29.808 -5.38039C29.9077 -5.48018 30.0075 -5.53007 30.1073 -5.62986C30.3568 -5.82943 30.6561 -6.029 31.0553 -6.27846C32.4024 -6.97696 34.6476 -7.67546 38.7388 -8.12449C46.9711 -9.22214 62.2881 -9.72106 67.8262 -9.72106C73.3144 -9.72106 88.6814 -9.22214 96.8638 -8.32407C100.955 -7.87503 103.25 -7.17653 104.547 -6.47803C105.495 -5.97911 105.994 -5.48018 106.294 -4.98125C106.343 -4.88146 106.443 -4.78168 106.493 -4.73179C106.543 -4.68189 106.593 -4.58211 106.593 -4.53222C106.643 -4.48232 106.693 -4.38254 106.743 -4.23286C106.743 -4.23286 106.743 -4.23286 106.743 -4.18297C106.892 -3.9335 107.092 -3.63415 107.291 -3.18511C107.391 -2.98554 107.541 -2.78597 107.641 -2.53651C107.691 -2.43672 107.74 -2.38683 107.79 -2.28704C107.99 -1.93779 108.189 -1.58854 108.389 -1.1894C108.888 -0.29133 109.487 0.806311 110.085 1.95384C110.185 2.15341 110.285 2.35299 110.435 2.55256C111.183 3.94956 111.981 5.44634 112.78 6.94312C113.279 7.89108 113.777 8.83905 114.276 9.73712C114.925 10.9844 115.574 12.132 116.122 13.2296C116.721 14.3272 117.22 15.3251 117.669 16.1234C118.567 17.7698 119.116 18.8675 119.116 18.8675L122.758 22.5097C122.758 22.5596 122.858 22.7591 122.958 23.0086C122.958 23.0585 123.008 23.1084 123.008 23.1583C123.008 23.2082 123.008 23.2581 123.058 23.2581C123.556 24.8047 124.654 28.1974 124.904 30.1433C125.053 31.4405 125.153 32.8375 125.153 33.8852C125.203 34.933 125.203 35.6814 125.203 35.6814V35.7312L125.502 36.6293C125.502 36.7291 125.452 37.1781 125.452 37.7768C125.402 38.4255 125.353 39.3235 125.253 40.3214C125.153 41.9678 125.003 43.9137 124.804 45.7098C124.804 45.7597 124.804 45.8595 124.804 45.9094C124.754 46.6079 124.704 47.2565 124.604 47.8552C124.604 48.1047 124.554 48.3541 124.504 48.6535C124.504 48.8032 124.455 48.9029 124.455 49.0526C124.455 49.2023 124.405 49.352 124.405 49.5016C124.405 49.6513 124.355 49.801 124.355 49.9507C124.355 50.1004 124.305 50.25 124.305 50.3997C124.255 50.6492 124.205 50.9485 124.205 51.198C124.055 52.1959 123.856 53.2935 123.656 54.3412C123.606 54.6905 123.507 55.0397 123.457 55.3391C123.457 55.389 123.457 55.4389 123.407 55.4888C123.457 55.6385 123.457 55.6883 123.457 55.7382Z" fill="black" fill-opacity="0.3"/>
<path d="M67.7768 13.4262V13.5759H105.695L105.745 13.526C105.745 13.526 106.793 12.4783 106.793 10.8817C106.793 10.7819 106.793 10.6821 106.793 10.5824C106.743 10.1333 106.543 9.08557 106.244 7.78836C105.346 3.84683 103.65 -2.58934 103.65 -2.58934L103.6 -2.68912H103.5C92.1245 -4.38548 78.5536 -4.53516 70.7205 -4.53516C69.6228 -4.53516 68.6749 -4.53516 67.8267 -4.53516C66.9785 -4.53516 66.0306 -4.53516 64.9329 -4.53516C57.0499 -4.53516 43.5289 -4.43537 32.1534 -2.68912H32.0536L32.0037 -2.58934C32.0037 -2.58934 31.2553 0.25455 30.457 3.3479C30.0579 4.89458 29.6587 6.49114 29.3594 7.78836C29.06 9.08557 28.8604 10.1333 28.8105 10.5824C28.8105 10.6821 28.8105 10.7819 28.8105 10.8817C28.8105 12.4783 29.8583 13.4761 29.8583 13.526L29.9082 13.5759H67.8267V13.4262V13.2267H29.9082V13.3763L30.008 13.2766V13.2267C29.8084 13.0271 29.1099 12.129 29.1099 10.8817C29.1099 10.7819 29.1099 10.6821 29.1099 10.6322C29.1598 10.2331 29.3594 9.18535 29.6587 7.88814C30.1078 5.94232 30.7564 3.3479 31.3052 1.2524C31.5546 0.204657 31.8041 -0.743306 32.0037 -1.39191C32.1534 -2.04052 32.303 -2.43966 32.303 -2.43966L32.1534 -2.48955V-2.33987C43.5289 -4.03623 57.0499 -4.13601 64.883 -4.13601C65.9807 -4.13601 66.9286 -4.13601 67.7768 -4.13601C68.625 -4.13601 69.5729 -4.13601 70.6706 -4.13601C78.5536 -4.13601 92.0746 -4.03623 103.4 -2.33987V-2.48955L103.251 -2.43966C103.251 -2.43966 103.45 -1.74116 103.749 -0.64352C104.199 1.00294 104.847 3.49758 105.396 5.79264C105.945 8.03782 106.394 10.0834 106.444 10.6821C106.444 10.7819 106.444 10.8817 106.444 10.9316C106.444 11.68 106.194 12.2787 105.995 12.6778C105.895 12.8774 105.745 13.0271 105.645 13.1768L105.546 13.3265L105.496 13.3763L105.596 13.4761V13.2267H67.7269V13.4262H67.7768Z" fill="black" fill-opacity="0.3"/>
<path d="M30.3079 12.5312L30.4576 12.4314C30.258 12.1321 29.9586 11.5833 29.9586 10.8848C29.9586 10.8349 29.9586 10.7351 29.9586 10.6852C30.0085 10.1364 30.4077 8.4899 30.9565 6.39441C31.5053 4.29891 32.2038 1.80427 32.8025 -0.490794L32.6528 -0.540687V-0.391008C43.1303 -1.93768 56.0026 -2.13725 65.4324 -2.13725H71.2199C80.6497 -2.13725 92.3246 -1.93768 102.802 -0.391008V-0.540687L102.652 -0.490794C103.251 1.80427 103.95 4.3488 104.498 6.39441C105.047 8.4899 105.496 10.1364 105.496 10.6852C105.496 10.7351 105.496 10.8349 105.496 10.8848C105.496 11.5833 105.197 12.1321 104.997 12.4314L105.147 12.5312V12.3815H30.3079V12.5312V12.7308H105.297L105.347 12.6809C105.596 12.3316 105.895 11.7329 105.895 10.9346C105.895 10.8848 105.895 10.785 105.895 10.6852C105.846 10.0865 105.446 8.44001 104.848 6.34451C104.299 4.24902 103.6 1.70449 103.002 -0.540687L102.952 -0.640472H102.852C92.3246 -2.18715 80.6497 -2.38672 71.2199 -2.38672H65.4324C56.0026 -2.38672 43.1303 -2.18715 32.6029 -0.640472H32.5032L32.4533 -0.540687C31.8545 1.75438 31.1561 4.24902 30.6072 6.34451C30.0584 8.44001 29.6593 10.0865 29.6094 10.6852C29.6094 10.785 29.6094 10.8349 29.6094 10.9346C29.6094 11.7329 29.9586 12.3815 30.1582 12.6809L30.2081 12.7308H30.3079V12.5312Z" fill="black" fill-opacity="0.3"/>
<path d="M34.5981 22.0102L34.5482 21.8605L34.4484 21.4115V21.3117V21.2618L33.9495 17.2205V17.0708V16.971L32.9516 16.2227H32.9017C32.9017 16.2227 32.0037 16.4222 30.9559 16.7216C30.008 16.971 29.0101 17.2704 28.3615 17.5199C28.3116 17.5199 28.2617 17.5698 28.2118 17.5698C28.2118 17.5698 28.1619 17.5698 28.1619 17.6197C27.5632 17.919 26.9146 18.5177 26.2161 19.1164C25.5176 19.6653 24.8191 20.2141 24.3202 20.3638C23.7714 20.5633 22.7735 20.8128 21.7757 21.2618C20.9774 21.6111 20.1791 22.0601 19.6303 22.6089C19.5804 22.6588 19.5305 22.7087 19.4806 22.7586C19.4307 22.8085 19.3808 22.9083 19.3309 22.9582C18.832 23.7066 17.9339 25.9019 17.1356 27.8976C16.3373 29.8933 15.6388 31.6894 15.6388 31.6894L15.5391 31.889H36.8932L34.5981 22.0102ZM16.038 31.6395C16.1378 31.4399 16.2376 31.1406 16.3872 30.6916C16.7864 29.6438 17.435 28.0472 18.0337 26.5505C18.6324 25.0537 19.281 23.7066 19.5804 23.2076C19.9795 22.5091 20.9275 22.0102 21.8754 21.6111C22.8234 21.2119 23.8213 20.9126 24.3701 20.7629C24.9688 20.5633 25.6673 20.0145 26.3159 19.4158C27.0144 18.8171 27.663 18.2184 28.2118 17.9689C28.7108 17.7194 29.9082 17.3702 30.9559 17.0708C31.8041 16.8214 32.6024 16.6717 32.8519 16.6218L33.6002 17.1207L34.0992 21.3616L36.494 31.6894H16.038V31.6395Z" fill="black" fill-opacity="0.3"/>
<path d="M119.964 31.7393C119.964 31.7393 119.266 29.9432 118.468 27.9475C117.669 25.9517 116.721 23.8064 116.272 23.0081C116.222 22.9582 116.173 22.8584 116.123 22.8085C116.073 22.7586 116.023 22.7087 115.973 22.6588C115.424 22.0601 114.626 21.661 113.828 21.3117C112.83 20.9126 111.832 20.6132 111.283 20.4136C110.784 20.264 110.086 19.7151 109.437 19.1164C108.838 18.6175 108.24 18.0687 107.691 17.7693C107.641 17.7194 107.591 17.7194 107.541 17.6695C107.541 17.6695 107.491 17.6695 107.491 17.6197C106.892 17.3203 105.745 16.971 104.697 16.7216C103.649 16.4222 102.751 16.2227 102.751 16.2227H102.701L102.652 16.2725L101.754 16.9212V16.971V17.1207L101.255 21.2119V21.2618V21.3616L101.155 21.8106L101.105 21.9603L98.6602 31.9389H120.064L119.964 31.7393ZM101.504 21.3117L102.003 17.0708L102.751 16.5719C103.001 16.6218 103.749 16.8214 104.647 17.0209C105.695 17.3203 106.892 17.6197 107.391 17.919C107.89 18.1685 108.589 18.7672 109.287 19.3659C109.986 19.9646 110.634 20.5134 111.233 20.713C111.782 20.9126 112.78 21.162 113.728 21.5612C114.676 21.9603 115.624 22.5091 116.023 23.1578C116.472 23.8563 117.37 26.0515 118.218 28.0472C118.617 29.0451 119.016 29.9931 119.266 30.6916C119.416 31.0907 119.565 31.4399 119.615 31.6395H99.1591L101.504 21.3117Z" fill="black" fill-opacity="0.3"/>
<path d="M125.101 45.8086H124.952H124.852C124.852 45.8585 124.852 45.9583 124.852 46.0082C124.802 46.7067 124.752 47.3553 124.652 47.954C124.652 48.2034 124.602 48.4529 124.553 48.7523C124.553 48.9019 124.503 49.0017 124.503 49.1514C124.503 49.3011 124.453 49.4508 124.453 49.6004C124.453 49.7501 124.403 49.8998 124.403 50.0495C124.403 50.1992 124.353 50.3488 124.353 50.4985C124.303 50.748 124.253 51.0473 124.253 51.2968C124.103 52.2947 123.904 53.3923 123.704 54.44C123.654 54.7893 123.555 55.1385 123.505 55.4379C123.505 55.4878 123.505 55.5377 123.455 55.5876C123.455 55.6375 123.455 55.6375 123.455 55.6874C123.355 56.0865 123.305 56.4856 123.205 56.8848C123.205 56.9347 123.205 56.9846 123.156 57.0345V57.0844C122.657 59.2796 122.108 61.2753 121.509 62.5726C120.761 64.219 120.012 65.3666 119.214 66.0651C119.114 66.1648 119.014 66.2147 118.915 66.3145C118.815 66.3644 118.765 66.4143 118.665 66.4642C118.615 66.5141 118.615 66.5141 118.565 66.5141C118.565 66.5141 118.515 66.5141 118.515 66.564C118.416 66.6139 118.366 66.6638 118.266 66.7137C118.166 66.7636 118.066 66.8134 117.917 66.8633C117.817 66.9132 117.667 66.9631 117.568 66.9631C117.218 67.0629 116.819 67.1128 116.42 67.1128H109.186V79.7856C109.186 80.3843 109.335 80.9331 109.635 81.3821C109.934 81.8312 110.333 82.0806 110.782 82.0806H123.605C124.054 82.0806 124.503 81.7813 124.752 81.3821C125.051 80.983 125.201 80.3843 125.201 79.7856V45.8086H125.101ZM124.852 79.7856C124.852 80.3344 124.702 80.8333 124.453 81.1826C124.203 81.5318 123.904 81.7314 123.555 81.7314H110.782C110.433 81.7314 110.134 81.5318 109.884 81.1826C109.635 80.8333 109.485 80.3344 109.485 79.7856V67.4621H116.37C117.518 67.4621 118.515 67.1128 119.364 66.3644C120.262 65.616 121.01 64.4186 121.759 62.7721C123.156 59.6788 124.303 53.2925 124.802 49.1015V79.7856H124.852Z" fill="black" fill-opacity="0.3"/>
</g>
<defs>
<clipPath id="clip0_7549_20831">
<rect width="133.214" height="49.2891" fill="white" transform="translate(0.892578 0.144531)"/>
</clipPath>
</defs>
</svg>
