<svg width="125" height="73" viewBox="0 0 125 73" fill="none" xmlns="http://www.w3.org/2000/svg">
<path fill-rule="evenodd" clip-rule="evenodd" d="M17.3626 0.144505C8.13703 0.144505 0.65625 7.66757 0.65625 16.9484C0.65625 26.2285 8.13703 33.752 17.3626 33.752C26.5883 33.752 34.069 26.2285 34.069 16.9484C34.069 7.66757 26.5883 0.144505 17.3626 0.144505Z" fill="#3265B1"/>
<path fill-rule="evenodd" clip-rule="evenodd" d="M17.367 4.4236C10.4886 4.4236 4.91211 10.0316 4.91211 16.9491C4.91211 23.8666 10.4886 29.4746 17.367 29.4746C24.2415 29.4746 29.8179 23.8666 29.8179 16.9491C29.8179 10.0316 24.2415 4.4236 17.367 4.4236Z" fill="white"/>
<path fill-rule="evenodd" clip-rule="evenodd" d="M16.8181 6.27178C16.4349 6.29099 16.0595 6.33062 15.692 6.38984L16.1807 12.3111L12.8455 7.26996C12.5484 7.41077 12.2591 7.56529 11.9736 7.73277L12.2004 7.80298L14.781 13.0116L10.7068 8.61603C10.4096 8.85607 10.1281 9.11179 9.85836 9.38163L13.5963 13.834L8.06757 11.7616C7.91899 12.0361 7.77826 12.3177 7.64923 12.6064L13.1114 15.2958L7.07835 14.2463C6.98452 14.6059 6.91022 14.9734 6.85548 15.3468C6.87112 15.3503 12.7791 16.6356 12.6266 16.6356C12.4741 16.6356 6.82031 18.3158 6.82031 18.3158V18.3155C6.87114 18.7151 6.94542 19.1081 7.03925 19.4921L13.2014 18.0982L7.48501 20.8986C7.61012 21.2233 7.75479 21.5406 7.9151 21.8493L13.6275 19.5909C13.6275 19.5909 9.87791 24.001 9.74106 24.1292C9.71369 24.1563 9.63158 24.1677 9.52601 24.1688C9.81144 24.4838 10.1164 24.7815 10.437 25.06L14.8748 20.5958C14.8748 20.5958 11.8094 26.0687 11.8993 25.926L11.6139 25.9436C11.9854 26.1852 12.3763 26.4041 12.7791 26.5978L15.907 21.3571L15.6333 27.3191L15.3636 27.4528C15.7898 27.534 16.2199 27.5901 16.6617 27.6191L17.4867 21.2963L18.3039 27.6019C18.6714 27.5693 19.035 27.5183 19.3908 27.4489L19.035 21.2657L22.3976 26.3711C22.6517 26.2338 22.8981 26.0868 23.1366 25.9303L20.3409 20.4742L24.5246 24.8513C24.7357 24.6591 24.9391 24.4587 25.1306 24.2504L21.3106 19.6219L26.8823 21.7206C27.0309 21.4214 27.1638 21.1143 27.285 20.7993L21.7955 18.0076L27.7503 19.2309C27.8285 18.8834 27.8872 18.5304 27.9263 18.1715C27.0152 17.9091 22.5071 16.698 22.3428 16.698C22.163 16.698 27.8754 15.3405 27.8754 15.3405C27.8207 14.9848 27.7503 14.6341 27.6643 14.291L21.7993 15.3578L27.1599 12.7911C27.0153 12.4495 26.8549 12.1169 26.679 11.7945L21.4631 13.9564L24.9625 9.47302C24.7279 9.23063 24.4777 8.99922 24.2235 8.78037L20.251 12.9214L22.9919 7.87906C22.7143 7.70296 22.425 7.53901 22.1278 7.3888L19.0976 12.3425L19.297 6.43494C18.9529 6.3714 18.601 6.32356 18.2413 6.29414L17.5492 12.2514L16.8181 6.27178Z" fill="#3265B1"/>
<path fill-rule="evenodd" clip-rule="evenodd" d="M60.7982 0.144505C51.5726 0.144505 44.0918 7.66757 44.0918 16.9484C44.0918 26.2285 51.5726 33.752 60.7982 33.752C70.0238 33.752 77.5046 26.2285 77.5046 16.9484C77.5046 7.66757 70.0238 0.144505 60.7982 0.144505Z" fill="#3265B1"/>
<path fill-rule="evenodd" clip-rule="evenodd" d="M60.8025 4.4236C53.9241 4.4236 48.3477 10.0316 48.3477 16.9491C48.3477 23.8666 53.9241 29.4746 60.8025 29.4746C67.677 29.4746 73.2535 23.8666 73.2535 16.9491C73.2535 10.0316 67.677 4.4236 60.8025 4.4236Z" fill="white"/>
<path fill-rule="evenodd" clip-rule="evenodd" d="M60.2556 6.27178C59.8724 6.29099 59.497 6.33062 59.1295 6.38984L59.6182 12.3111L56.283 7.26996C55.9859 7.41077 55.6966 7.56529 55.4111 7.73277L55.6379 7.80298L58.2185 13.0116L54.1443 8.61603C53.8471 8.85607 53.5656 9.11179 53.2959 9.38163L57.0338 13.834L51.5051 11.7616C51.3565 12.0361 51.2158 12.3177 51.0867 12.6064L56.5489 15.2958L50.5159 14.2463C50.422 14.6059 50.3477 14.9734 50.293 15.3468C50.3086 15.3503 56.2166 16.6356 56.0641 16.6356C55.9116 16.6356 50.2578 18.3158 50.2578 18.3158V18.3155C50.3086 18.7151 50.3829 19.1081 50.4768 19.4921L56.6389 18.0982L50.9225 20.8986C51.0476 21.2233 51.1923 21.5406 51.3526 21.8493L57.065 19.5909C57.065 19.5909 53.3154 24.001 53.1786 24.1292C53.1512 24.1563 53.0691 24.1677 52.9635 24.1688C53.2489 24.4838 53.5539 24.7815 53.8745 25.06L58.3123 20.5958C58.3123 20.5958 55.2469 26.0687 55.3368 25.926L55.0514 25.9436C55.4229 26.1852 55.8138 26.4041 56.2166 26.5978L59.3445 21.3571L59.0708 27.3191L58.8011 27.4528C59.2273 27.534 59.6574 27.5901 60.0992 27.6191L60.9242 21.2963L61.7414 27.6019C62.1089 27.5693 62.4725 27.5183 62.8283 27.4489L62.4725 21.2657L65.8351 26.3711C66.0892 26.2338 66.3356 26.0868 66.5741 25.9303L63.7784 20.4742L67.9621 24.8513C68.1732 24.6591 68.3766 24.4587 68.5681 24.2504L64.7481 19.6219L70.3198 21.7206C70.4684 21.4214 70.6013 21.1143 70.7225 20.7993L65.233 18.0076L71.1878 19.2309C71.266 18.8834 71.3247 18.5304 71.3638 18.1715C70.4527 17.9091 65.9446 16.698 65.7803 16.698C65.6005 16.698 71.3129 15.3405 71.3129 15.3405C71.2582 14.9848 71.1878 14.6341 71.1018 14.291L65.2368 15.3578L70.5974 12.7911C70.4528 12.4495 70.2924 12.1169 70.1165 11.7945L64.9006 13.9564L68.4 9.47302C68.1654 9.23063 67.9152 8.99922 67.661 8.78037L63.6885 12.9214L66.4294 7.87906C66.1518 7.70296 65.8625 7.53901 65.5653 7.3888L62.5351 12.3425L62.7345 6.43494C62.3904 6.3714 62.0385 6.32356 61.6788 6.29414L60.9867 12.2514L60.2556 6.27178Z" fill="#3265B1"/>
<path fill-rule="evenodd" clip-rule="evenodd" d="M17.2416 38.5371C8.01593 38.5371 0.535156 46.0601 0.535156 55.341C0.535156 64.6211 8.01593 72.1445 17.2416 72.1445C26.4672 72.1445 33.948 64.6211 33.948 55.341C33.948 46.0601 26.4672 38.5371 17.2416 38.5371Z" fill="#3265B1"/>
<path fill-rule="evenodd" clip-rule="evenodd" d="M17.2459 42.8162C10.3675 42.8162 4.79102 48.4241 4.79102 55.3417C4.79102 62.2592 10.3675 67.8672 17.2459 67.8672C24.1204 67.8672 29.6968 62.2592 29.6968 55.3417C29.6968 48.4241 24.1204 42.8162 17.2459 42.8162Z" fill="white"/>
<path fill-rule="evenodd" clip-rule="evenodd" d="M16.697 44.6644C16.3138 44.6836 15.9384 44.7232 15.5709 44.7824L16.0596 50.7036L12.7244 45.6625C12.4273 45.8033 12.138 45.9579 11.8525 46.1253L12.0793 46.1956L14.6599 51.4042L10.5857 47.0086C10.2885 47.2486 10.0071 47.5044 9.73726 47.7742L13.4752 52.2266L7.94647 50.1542C7.79789 50.4287 7.65717 50.7103 7.52814 50.999L12.9903 53.6884L6.95726 52.6388C6.86342 52.9985 6.78912 53.366 6.73439 53.7394C6.75003 53.7429 12.658 55.0282 12.5055 55.0282C12.353 55.0282 6.69922 56.7084 6.69922 56.7084V56.708C6.75005 57.1077 6.82432 57.5007 6.91816 57.8847L13.0803 56.4908L7.36391 59.2912C7.48903 59.6159 7.6337 59.9332 7.79401 60.2419L13.5064 57.9835C13.5064 57.9835 9.75681 62.3936 9.61997 62.5218C9.5926 62.5489 9.51049 62.5602 9.40492 62.5614C9.69034 62.8764 9.99531 63.1741 10.3159 63.4525L14.7537 58.9884C14.7537 58.9884 11.6883 64.4613 11.7782 64.3185L11.4928 64.3362C11.8643 64.5778 12.2552 64.7966 12.658 64.9904L15.7859 59.7496L15.5122 65.7117L15.2425 65.8454C15.6687 65.9266 16.0988 65.9827 16.5406 66.0117L17.3656 59.6889L18.1828 65.9945C18.5503 65.9619 18.9139 65.9109 19.2697 65.8415L18.9139 59.6583L22.2765 64.7637C22.5306 64.6264 22.777 64.4793 23.0155 64.3228L20.2198 58.8668L24.4035 63.2439C24.6146 63.0517 24.818 62.8513 25.0095 62.643L21.1895 58.0145L26.7612 60.1132C26.9098 59.814 27.0427 59.5069 27.1639 59.1919L21.6744 56.4002L27.6292 57.6235C27.7074 57.276 27.7661 56.923 27.8052 56.5641C26.8941 56.3017 22.386 55.0905 22.2218 55.0905C22.0419 55.0905 27.7543 53.7331 27.7543 53.7331C27.6996 53.3774 27.6292 53.0267 27.5432 52.6835L21.6783 53.7504L27.0388 51.1837C26.8942 50.8421 26.7338 50.5095 26.5579 50.1871L21.342 52.349L24.8414 47.8656C24.6068 47.6232 24.3566 47.3918 24.1024 47.1729L20.1299 51.3139L22.8708 46.2716C22.5932 46.0955 22.3039 45.9316 22.0067 45.7814L18.9765 50.735L19.1759 44.8275C18.8318 44.764 18.4799 44.7161 18.1202 44.6867L17.4281 50.644L16.697 44.6644Z" fill="#3265B1"/>
<path fill-rule="evenodd" clip-rule="evenodd" d="M60.6771 38.5371C51.4515 38.5371 43.9707 46.0601 43.9707 55.341C43.9707 64.6211 51.4515 72.1445 60.6771 72.1445C69.9027 72.1445 77.3835 64.6211 77.3835 55.341C77.3835 46.0601 69.9027 38.5371 60.6771 38.5371Z" fill="#3265B1"/>
<path fill-rule="evenodd" clip-rule="evenodd" d="M60.6814 42.8162C53.803 42.8162 48.2266 48.4241 48.2266 55.3417C48.2266 62.2592 53.803 67.8672 60.6814 67.8672C67.5559 67.8672 73.1324 62.2592 73.1324 55.3417C73.1324 48.4241 67.5559 42.8162 60.6814 42.8162Z" fill="white"/>
<path fill-rule="evenodd" clip-rule="evenodd" d="M60.1345 44.6644C59.7513 44.6836 59.3759 44.7232 59.0084 44.7824L59.4971 50.7036L56.1619 45.6625C55.8648 45.8033 55.5755 45.9579 55.29 46.1253L55.5168 46.1956L58.0974 51.4042L54.0232 47.0086C53.726 47.2486 53.4446 47.5044 53.1748 47.7742L56.9127 52.2266L51.384 50.1542C51.2354 50.4287 51.0947 50.7103 50.9656 50.999L56.4278 53.6884L50.3948 52.6388C50.3009 52.9985 50.2266 53.366 50.1719 53.7394C50.1875 53.7429 56.0955 55.0282 55.943 55.0282C55.7905 55.0282 50.1367 56.7084 50.1367 56.7084V56.708C50.1875 57.1077 50.2618 57.5007 50.3557 57.8847L56.5178 56.4908L50.8014 59.2912C50.9265 59.6159 51.0712 59.9332 51.2315 60.2419L56.9439 57.9835C56.9439 57.9835 53.1943 62.3936 53.0575 62.5218C53.0301 62.5489 52.948 62.5602 52.8424 62.5614C53.1278 62.8764 53.4328 63.1741 53.7534 63.4525L58.1912 58.9884C58.1912 58.9884 55.1258 64.4613 55.2157 64.3185L54.9303 64.3362C55.3018 64.5778 55.6927 64.7966 56.0955 64.9904L59.2234 59.7496L58.9497 65.7117L58.68 65.8454C59.1062 65.9266 59.5363 65.9827 59.9781 66.0117L60.8031 59.6889L61.6203 65.9945C61.9878 65.9619 62.3514 65.9109 62.7072 65.8415L62.3514 59.6583L65.714 64.7637C65.9681 64.6264 66.2145 64.4793 66.453 64.3228L63.6573 58.8668L67.841 63.2439C68.0521 63.0517 68.2555 62.8513 68.447 62.643L64.627 58.0145L70.1987 60.1132C70.3473 59.814 70.4802 59.5069 70.6014 59.1919L65.1119 56.4002L71.0667 57.6235C71.1449 57.276 71.2036 56.923 71.2427 56.5641C70.3316 56.3017 65.8235 55.0905 65.6593 55.0905C65.4794 55.0905 71.1918 53.7331 71.1918 53.7331C71.1371 53.3774 71.0667 53.0267 70.9807 52.6835L65.1158 53.7504L70.4763 51.1837C70.3317 50.8421 70.1713 50.5095 69.9954 50.1871L64.7795 52.349L68.2789 47.8656C68.0443 47.6232 67.7941 47.3918 67.5399 47.1729L63.5674 51.3139L66.3083 46.2716C66.0307 46.0955 65.7414 45.9316 65.4442 45.7814L62.414 50.735L62.6134 44.8275C62.2693 44.764 61.9174 44.7161 61.5577 44.6867L60.8656 50.644L60.1345 44.6644Z" fill="#3265B1"/>
<g opacity="0.6">
<path fill-rule="evenodd" clip-rule="evenodd" d="M107.603 19.2871C98.3773 19.2871 90.8965 26.8101 90.8965 36.091C90.8965 45.3711 98.3773 52.8945 107.603 52.8945C116.829 52.8945 124.309 45.3711 124.309 36.091C124.309 26.8101 116.829 19.2871 107.603 19.2871Z" fill="#3265B1"/>
<path fill-rule="evenodd" clip-rule="evenodd" d="M107.609 23.5623C100.731 23.5623 95.1543 29.1702 95.1543 36.0878C95.1543 43.0053 100.731 48.6133 107.609 48.6133C114.484 48.6133 120.06 43.0053 120.06 36.0878C120.06 29.1702 114.484 23.5623 107.609 23.5623Z" fill="white"/>
<path fill-rule="evenodd" clip-rule="evenodd" d="M107.06 25.4124C106.677 25.4316 106.302 25.4712 105.934 25.5305L106.423 31.4517L103.088 26.4106C102.791 26.5514 102.501 26.7059 102.216 26.8734L102.443 26.9436L105.023 32.1522L100.949 27.7567C100.652 27.9967 100.37 28.2524 100.101 28.5223L103.838 32.9747L98.3098 30.9022C98.1612 31.1768 98.0204 31.4584 97.8914 31.747L103.354 34.4364L97.3205 33.3869C97.2267 33.7465 97.1524 34.114 97.0977 34.4874C97.1133 34.491 103.021 35.7762 102.869 35.7762C102.716 35.7762 97.0625 37.4565 97.0625 37.4565V37.4561C97.1133 37.8558 97.1876 38.2488 97.2814 38.6327L103.444 37.2388L97.7272 40.0392C97.8523 40.3639 97.997 40.6812 98.1573 40.9899L103.87 38.7316C103.87 38.7316 100.12 43.1416 99.9832 43.2699C99.9559 43.2969 99.8738 43.3083 99.7682 43.3095C100.054 43.6244 100.359 43.9221 100.679 44.2006L105.117 39.7364C105.117 39.7364 102.052 45.2094 102.142 45.0666L101.856 45.0842C102.228 45.3258 102.619 45.5447 103.021 45.7384L106.149 40.4977L105.876 46.4597L105.606 46.5935C106.032 46.6746 106.462 46.7307 106.904 46.7598L107.729 40.4369L108.546 46.7425C108.914 46.71 109.277 46.659 109.633 46.5895L109.277 40.4063L112.64 45.5117C112.894 45.3745 113.14 45.2274 113.379 45.0709L110.583 39.6148L114.767 43.9919C114.978 43.7997 115.181 43.5993 115.373 43.391L111.553 38.7626L117.124 40.8613C117.273 40.562 117.406 40.2549 117.527 39.94L112.038 37.1482L117.993 38.3715C118.071 38.024 118.129 37.671 118.168 37.3121C117.257 37.0497 112.749 35.8386 112.585 35.8386C112.405 35.8386 118.118 34.4812 118.118 34.4812C118.063 34.1254 117.992 33.7748 117.906 33.4316L112.042 34.4984L117.402 31.9318C117.257 31.5902 117.097 31.2575 116.921 30.9352L111.705 33.097L115.205 28.6136C114.97 28.3713 114.72 28.1398 114.466 27.921L110.493 32.062L113.234 27.0197C112.956 26.8436 112.667 26.6796 112.37 26.5294L109.34 31.4831L109.539 25.5756C109.195 25.512 108.843 25.4642 108.483 25.4348L107.791 31.3921L107.06 25.4124Z" fill="#3265B1"/>
</g>
<path d="M98.6548 39.083C98.3062 39.083 97.9642 39.037 97.6287 38.9449C97.2933 38.8495 96.9875 38.7065 96.7112 38.5157C96.4383 38.325 96.2196 38.0866 96.0551 37.8005C95.894 37.5111 95.8134 37.1707 95.8134 36.7794H97.1305C97.1305 37.0063 97.1683 37.2003 97.244 37.3614C97.3229 37.5193 97.4314 37.6492 97.5695 37.7511C97.7077 37.8531 97.8688 37.9271 98.053 37.9731C98.2371 38.0192 98.4377 38.0422 98.6548 38.0422C98.9376 38.0422 99.1711 38.0027 99.3552 37.9238C99.5394 37.8449 99.6775 37.7364 99.7696 37.5982C99.865 37.4601 99.9127 37.3006 99.9127 37.1197C99.9127 36.9323 99.8732 36.7728 99.7943 36.6412C99.7153 36.5064 99.5674 36.3814 99.3503 36.2663C99.1366 36.148 98.8241 36.0263 98.4131 35.9013C98.0776 35.7994 97.7652 35.6826 97.4758 35.5511C97.1897 35.4195 96.9381 35.2666 96.7211 35.0923C96.504 34.918 96.3347 34.7174 96.213 34.4905C96.0946 34.2603 96.0354 33.9939 96.0354 33.6914C96.0354 33.3 96.1439 32.9547 96.361 32.6555C96.5813 32.3562 96.8855 32.1227 97.2736 31.955C97.6616 31.7873 98.1089 31.7034 98.6153 31.7034C99.1546 31.7034 99.6183 31.8021 100.006 31.9994C100.398 32.1934 100.699 32.4565 100.909 32.7886C101.12 33.1208 101.225 33.4924 101.225 33.9035H99.9077C99.9077 33.6799 99.86 33.4809 99.7647 33.3066C99.6726 33.1323 99.5295 32.9975 99.3355 32.9021C99.1448 32.8034 98.8998 32.7541 98.6005 32.7541C98.321 32.7541 98.0875 32.7952 97.9 32.8774C97.7159 32.9597 97.5778 33.0715 97.4857 33.2129C97.3969 33.3543 97.3525 33.5138 97.3525 33.6914C97.3525 33.8657 97.4067 34.0186 97.5153 34.1501C97.6271 34.2817 97.7948 34.4017 98.0184 34.5102C98.2421 34.6155 98.5199 34.7191 98.8521 34.821C99.3848 34.9756 99.8272 35.1581 100.179 35.3686C100.531 35.5757 100.794 35.8224 100.968 36.1085C101.143 36.3913 101.23 36.7251 101.23 37.1099C101.23 37.5177 101.123 37.8695 100.909 38.1655C100.699 38.4615 100.401 38.6884 100.016 38.8463C99.6315 39.0041 99.1777 39.083 98.6548 39.083ZM104.836 39.083C104.5 39.083 104.209 39.0205 103.963 38.8956C103.716 38.7673 103.507 38.5881 103.336 38.3579C103.168 38.1277 103.034 37.858 102.932 37.5489C102.83 37.2365 102.756 36.8961 102.71 36.5278V36.1825C102.769 35.6629 102.881 35.2058 103.045 34.8111C103.209 34.4165 103.436 34.1074 103.726 33.8838C104.018 33.6601 104.385 33.5483 104.826 33.5483C105.276 33.5483 105.656 33.6618 105.965 33.8887C106.274 34.1156 106.508 34.4329 106.666 34.8407C106.827 35.2452 106.908 35.7188 106.908 36.2614V36.365C106.908 36.8846 106.827 37.3499 106.666 37.761C106.508 38.1688 106.274 38.4911 105.965 38.7279C105.659 38.9646 105.283 39.083 104.836 39.083ZM102.197 41.0365V33.647H103.361L103.459 34.673V41.0365H102.197ZM104.49 38.0669C104.767 38.0669 104.989 37.9896 105.156 37.835C105.327 37.6804 105.451 37.4749 105.526 37.2184C105.605 36.9586 105.645 36.6741 105.645 36.365V36.2614C105.645 35.9457 105.605 35.6612 105.526 35.408C105.447 35.1548 105.322 34.9542 105.151 34.8062C104.98 34.6549 104.757 34.5793 104.481 34.5793C104.277 34.5793 104.102 34.6122 103.958 34.6779C103.813 34.7437 103.691 34.8374 103.593 34.9591C103.497 35.0775 103.422 35.2206 103.366 35.3883C103.313 35.5527 103.277 35.7352 103.257 35.9358V36.7744C103.293 37.0145 103.356 37.2332 103.445 37.4305C103.533 37.6245 103.662 37.7791 103.829 37.8942C104 38.0093 104.221 38.0669 104.49 38.0669ZM110.849 35.3834C110.849 35.1137 110.775 34.8999 110.627 34.7421C110.482 34.5809 110.259 34.5004 109.956 34.5004C109.775 34.5004 109.617 34.5316 109.482 34.5941C109.351 34.6533 109.249 34.7355 109.177 34.8407C109.104 34.946 109.068 35.0676 109.068 35.2058H107.805C107.805 34.9131 107.896 34.6418 108.077 34.3918C108.261 34.1386 108.519 33.9347 108.851 33.7802C109.183 33.6256 109.575 33.5483 110.025 33.5483C110.43 33.5483 110.788 33.6174 111.1 33.7555C111.416 33.8903 111.664 34.0942 111.845 34.3672C112.026 34.6401 112.117 34.9821 112.117 35.3932V37.7314C112.117 37.9912 112.135 38.2165 112.171 38.4072C112.207 38.5947 112.258 38.7591 112.324 38.9005V38.9844H111.036C110.974 38.8528 110.926 38.6835 110.893 38.4763C110.864 38.2691 110.849 38.0652 110.849 37.8646V35.3834ZM111.031 36.5031H110.213C109.792 36.5031 109.476 36.5837 109.265 36.7448C109.055 36.9027 108.95 37.1132 108.95 37.3762C108.95 37.5801 109.019 37.7495 109.157 37.8843C109.298 38.0192 109.496 38.0866 109.749 38.0866C109.986 38.0866 110.191 38.0389 110.365 37.9435C110.54 37.8482 110.676 37.7331 110.775 37.5982C110.874 37.4601 110.925 37.3302 110.928 37.2085L111.318 37.7709C111.275 37.9024 111.207 38.0438 111.115 38.1951C111.023 38.3464 110.902 38.4894 110.75 38.6243C110.602 38.7591 110.425 38.8693 110.218 38.9548C110.01 39.0403 109.77 39.083 109.497 39.083C109.152 39.083 108.841 39.014 108.565 38.8759C108.292 38.7377 108.077 38.5486 107.919 38.3086C107.764 38.0652 107.687 37.7923 107.687 37.4897C107.687 36.9241 107.897 36.49 108.318 36.1874C108.743 35.8816 109.348 35.7287 110.134 35.7287H111.031V36.5031ZM114.588 38.9844H113.325V33.647H114.524L114.588 34.7223V38.9844ZM116.191 34.8161C116.116 34.8029 116.033 34.793 115.945 34.7865C115.859 34.7799 115.775 34.7766 115.693 34.7766C115.427 34.7766 115.205 34.8243 115.027 34.9197C114.85 35.0117 114.715 35.1466 114.623 35.3242C114.534 35.4985 114.481 35.7073 114.465 35.9506L114.184 35.9309C114.184 35.4804 114.243 35.0759 114.361 34.7174C114.48 34.3557 114.655 34.0712 114.889 33.864C115.126 33.6535 115.42 33.5483 115.772 33.5483C115.841 33.5483 115.918 33.5549 116.004 33.568C116.089 33.5779 116.155 33.5927 116.201 33.6124L116.191 34.8161ZM119.309 39.083C118.773 39.083 118.311 38.9696 117.923 38.7427C117.538 38.5125 117.24 38.2017 117.03 37.8103C116.823 37.419 116.719 36.9833 116.719 36.5031V36.3009C116.719 35.7484 116.824 35.2666 117.035 34.8555C117.245 34.4412 117.535 34.1205 117.903 33.8936C118.271 33.6634 118.691 33.5483 119.161 33.5483C119.674 33.5483 120.1 33.6601 120.438 33.8838C120.78 34.1041 121.037 34.4116 121.208 34.8062C121.379 35.1975 121.465 35.6514 121.465 36.1677V36.7103H117.316V35.8125H120.217V35.7139C120.21 35.51 120.17 35.3209 120.098 35.1466C120.026 34.9723 119.912 34.8325 119.758 34.7273C119.606 34.6188 119.406 34.5645 119.156 34.5645C118.896 34.5645 118.679 34.6368 118.505 34.7815C118.334 34.9262 118.204 35.1285 118.115 35.3883C118.03 35.6481 117.987 35.9523 117.987 36.3009V36.5031C117.987 36.7991 118.041 37.0655 118.15 37.3023C118.261 37.539 118.421 37.7265 118.628 37.8646C118.839 37.9994 119.09 38.0669 119.383 38.0669C119.662 38.0669 119.912 38.0126 120.133 37.9041C120.356 37.7923 120.549 37.6328 120.71 37.4256L121.366 38.0915C121.198 38.3415 120.943 38.57 120.601 38.7772C120.263 38.9811 119.832 39.083 119.309 39.083Z" fill="black"/>
</svg>
