<svg width="182" height="57" viewBox="0 0 182 57" fill="none" xmlns="http://www.w3.org/2000/svg">
<path d="M180.782 42.0134L180.831 42.0244C180.832 42.0228 180.975 41.3803 181.137 40.6906C181.299 40.0025 181.483 39.2623 181.557 39.0913L181.559 39.0868L181.573 39.0282L181.585 38.9753L181.531 38.9667C181.199 38.9146 180.796 38.8959 180.38 38.8959C179.179 38.8959 177.866 39.0551 177.865 39.0551L177.872 39.1056L177.867 39.0547L158 40.8152L158.01 40.8697C158.154 41.6962 158.233 42.5443 158.235 43.4111V43.4132L158.502 47.0645L158.555 47.0579C161.366 46.7151 172.083 45.3947 174.751 44.8748C176.239 44.5849 177.665 44.3069 178.821 44.0202C179.978 43.7324 180.862 43.44 181.282 43.1054L181.399 43.0113L171.423 43.2361L175.853 42.0639H180.823L180.831 42.0244L180.782 42.0134V41.9625H175.84L170.567 43.357L181.251 43.1164L181.25 43.0655L181.218 43.026C180.83 43.3391 179.948 43.6367 178.796 43.9213C177.644 44.2071 176.219 44.4852 174.732 44.7751C172.074 45.293 161.352 46.6146 158.542 46.957L158.548 47.0074L158.599 47.0034L158.337 43.4075L158.286 43.4111H158.337C158.335 42.5382 158.255 41.6844 158.11 40.8522L158.06 40.8608L158.064 40.9117L177.877 39.156H177.878C177.878 39.156 178.205 39.1166 178.681 39.0767C179.158 39.0372 179.784 38.9977 180.38 38.9977C180.793 38.9977 181.192 39.0168 181.515 39.0673L181.523 39.0172L181.474 39.0058L181.461 39.06L181.511 39.071L181.464 39.051C181.382 39.2448 181.202 39.9752 181.038 40.6674C180.875 41.3575 180.732 42.002 180.732 42.002L180.782 42.0134Z" fill="#3265B1"/>
<path d="M177.386 38.2708L177.39 38.3213L177.482 38.3152C178.837 38.2244 179.786 38.202 180.395 38.202C180.994 38.202 181.26 38.224 181.261 38.2236L181.351 38.2309L181.31 38.1503C181.113 37.7586 180.881 37.404 180.881 37.4032L180.838 37.4309L180.889 37.437L181.546 31.7874L181.494 31.7825C181.494 31.7825 181.293 31.763 181.076 31.7373C180.861 31.7121 180.62 31.6767 180.571 31.6559L180.564 31.6742L180.58 31.6612L180.571 31.6559L180.564 31.6742L180.58 31.6612C180.576 31.6592 180.56 31.6209 180.549 31.5676C180.508 31.3774 180.482 30.978 180.467 30.6307C180.452 30.2826 180.447 29.9846 180.447 29.9838L180.446 29.9337H180.396C179.928 29.9337 179.499 29.9394 179.09 29.9418H179.048L179.04 29.983C178.775 31.3909 177.922 35.8621 177.337 38.2586L177.32 38.3262L177.39 38.3213L177.386 38.2708L177.436 38.2826C178.022 35.8809 178.875 31.4104 179.14 30.0021L179.09 29.9927L179.09 30.0436C179.501 30.0412 179.929 30.0355 180.396 30.0355V29.9846L180.345 29.9854C180.345 29.9858 180.352 30.4027 180.374 30.827C180.386 31.0391 180.401 31.2532 180.422 31.419C180.433 31.502 180.445 31.5728 180.459 31.627L180.483 31.6974L180.534 31.7504C180.615 31.7817 180.843 31.8114 181.064 31.8383C181.282 31.8644 181.484 31.8839 181.485 31.8839L181.489 31.8334L181.439 31.8273L180.786 37.4435L180.796 37.4585C180.796 37.4589 180.853 37.5461 180.935 37.6825C181.016 37.8189 181.122 38.0033 181.22 38.1959L181.265 38.1731L181.269 38.1222C181.268 38.1222 180.996 38.1002 180.395 38.1002C179.784 38.1002 178.832 38.123 177.475 38.2134L177.383 38.2199L177.386 38.2708Z" fill="#3265B1"/>
<path d="M162.931 46.5156H162.931C162.932 46.5156 162.933 46.5152 162.934 46.5152L162.931 46.5156ZM162.918 46.4147C165.574 45.8337 169.395 44.9778 171.424 44.431C172.43 44.1599 173.283 43.7576 174.002 43.2796L181.09 43.12L174.189 43.2756C173.434 43.7983 172.528 44.2389 171.451 44.5292C169.683 45.0055 166.564 45.7148 164.034 46.2738C163.653 46.3218 163.281 46.3691 162.918 46.4147ZM169.689 45.637C171.907 45.3357 173.823 45.056 174.755 44.8744C173.823 45.0564 171.907 45.3357 169.689 45.637ZM174.453 44.8276C174.47 44.8243 174.486 44.8215 174.502 44.8186C174.486 44.8215 174.47 44.8243 174.453 44.8276ZM174.505 44.8182C174.507 44.8174 174.511 44.817 174.513 44.8166C174.511 44.817 174.508 44.8174 174.505 44.8182ZM174.596 44.8011C174.597 44.8011 174.597 44.8011 174.598 44.8011C174.597 44.8011 174.597 44.8011 174.596 44.8011ZM174.614 44.7979C174.614 44.7979 174.614 44.7979 174.614 44.7979H174.614ZM174.72 44.7779C174.72 44.7779 174.721 44.7775 174.721 44.7775C174.721 44.7775 174.72 44.7775 174.72 44.7779Z" fill="#E5E5E5"/>
<path d="M162.931 46.5156H162.931C162.932 46.5156 162.933 46.5152 162.934 46.5152L162.931 46.5156ZM162.918 46.4147C165.574 45.8337 169.395 44.9778 171.424 44.431C172.43 44.1599 173.283 43.7576 174.002 43.2796L181.09 43.12L174.189 43.2756C173.434 43.7983 172.528 44.2389 171.451 44.5292C169.683 45.0055 166.564 45.7148 164.034 46.2738C163.653 46.3218 163.281 46.3691 162.918 46.4147ZM169.689 45.637C171.907 45.3357 173.823 45.056 174.755 44.8744C173.823 45.0564 171.907 45.3357 169.689 45.637ZM174.453 44.8276C174.47 44.8243 174.486 44.8215 174.502 44.8186C174.486 44.8215 174.47 44.8243 174.453 44.8276ZM174.505 44.8182C174.507 44.8174 174.511 44.817 174.513 44.8166C174.511 44.817 174.508 44.8174 174.505 44.8182ZM174.596 44.8011C174.597 44.8011 174.597 44.8011 174.598 44.8011C174.597 44.8011 174.597 44.8011 174.596 44.8011ZM174.614 44.7979C174.614 44.7979 174.614 44.7979 174.614 44.7979H174.614ZM174.72 44.7779C174.72 44.7779 174.721 44.7775 174.721 44.7775C174.721 44.7775 174.72 44.7775 174.72 44.7779Z" fill="#E5E5E5"/>
<path d="M162.935 46.5156H162.461L162.921 46.4151C162.921 46.4151 162.922 46.4147 162.922 46.4147C163.285 46.3691 163.658 46.3218 164.038 46.2738C164.867 46.1683 165.73 46.058 166.593 45.9456C169.739 45.5364 172.886 45.1065 174.404 44.837C174.405 44.837 174.405 44.8366 174.406 44.8366C174.423 44.8337 174.439 44.8309 174.455 44.8276C174.456 44.8276 174.457 44.8276 174.457 44.8276C174.474 44.8243 174.49 44.8215 174.507 44.8186C174.508 44.8182 174.508 44.8182 174.509 44.8182C174.512 44.8174 174.515 44.817 174.518 44.8166C174.519 44.8162 174.519 44.8162 174.52 44.8162C174.522 44.8158 174.523 44.8154 174.525 44.8154C174.527 44.815 174.529 44.8146 174.531 44.8142C174.531 44.8142 174.531 44.8142 174.532 44.8142C174.533 44.8138 174.534 44.8138 174.536 44.8134C174.538 44.8129 174.541 44.8125 174.543 44.8117C174.554 44.8101 174.564 44.8081 174.574 44.806C174.575 44.806 174.576 44.806 174.577 44.8056C174.579 44.8052 174.582 44.8048 174.584 44.8044C174.589 44.8032 174.595 44.8024 174.6 44.8011C174.601 44.8011 174.601 44.8011 174.602 44.8011C174.604 44.8007 174.605 44.8003 174.607 44.7999C174.609 44.7995 174.611 44.7995 174.613 44.7991C174.615 44.7987 174.616 44.7983 174.618 44.7979H174.619C174.638 44.7942 174.657 44.7906 174.676 44.7869C174.677 44.7869 174.677 44.7869 174.677 44.7869C174.682 44.7857 174.688 44.7849 174.692 44.784C174.693 44.784 174.693 44.784 174.693 44.784C174.698 44.7828 174.703 44.782 174.708 44.7808C174.709 44.7808 174.71 44.7804 174.712 44.7804C174.713 44.78 174.714 44.78 174.715 44.7796C174.716 44.7796 174.716 44.7792 174.717 44.7792C174.72 44.7787 174.722 44.7783 174.724 44.7779C174.725 44.7775 174.725 44.7775 174.725 44.7775C174.728 44.7771 174.73 44.7767 174.732 44.7763C174.732 44.7763 174.733 44.7763 174.733 44.7763C174.736 44.7755 174.738 44.7751 174.74 44.7747C176.228 44.4848 177.652 44.2067 178.805 43.9209C179.84 43.6648 180.657 43.3985 181.094 43.12L174.006 43.2796C174.054 43.2479 174.101 43.2157 174.148 43.1831L174.161 43.1742L181.257 43.0142L181.407 43.0109L181.29 43.105C180.871 43.4396 179.986 43.732 178.829 44.0198C177.673 44.3065 176.247 44.5845 174.76 44.8744C173.827 45.056 171.911 45.3357 169.693 45.637C169.692 45.6374 169.69 45.6374 169.688 45.6378C169.684 45.6382 169.68 45.639 169.676 45.6394C167.505 45.9342 165.048 46.2498 162.939 46.5152H162.939C162.937 46.5152 162.936 46.5156 162.935 46.5156Z" fill="#3265B1"/>
<path d="M175.336 42.2012L175.465 42.167V42.1674L175.336 42.2012ZM175.465 42.1674V42.167L175.859 42.0627L175.465 42.1674ZM175.425 42.0725C176.217 41.2191 176.73 40.2843 177.01 39.4554C177.033 39.3886 177.057 39.3113 177.082 39.2262L177.191 39.2164C177.161 39.3174 177.133 39.4094 177.107 39.488C176.835 40.2929 176.348 41.1923 175.606 42.0245L175.846 41.9614L175.425 42.0725Z" fill="#E5E5E5"/>
<path d="M175.336 42.2012L175.465 42.167V42.1674L175.336 42.2012ZM175.465 42.1674V42.167L175.859 42.0627L175.465 42.1674ZM175.425 42.0725C176.217 41.2191 176.73 40.2843 177.01 39.4554C177.033 39.3886 177.057 39.3113 177.082 39.2262L177.191 39.2164C177.161 39.3174 177.133 39.4094 177.107 39.488C176.835 40.2929 176.348 41.1923 175.606 42.0245L175.846 41.9614L175.425 42.0725Z" fill="#E5E5E5"/>
<path d="M175.293 42.2129L175.413 42.0842C175.416 42.0806 175.42 42.0769 175.423 42.0732L175.844 41.9621H180.745C180.779 41.8114 180.903 41.2557 181.042 40.667C181.203 39.9842 181.381 39.2639 181.464 39.0587C181.151 39.0139 180.774 38.9973 180.384 38.9973C179.788 38.9973 179.162 39.0367 178.685 39.0762C178.209 39.1161 177.882 39.1556 177.882 39.1556H177.881L177.189 39.2171L177.08 39.2269C177.087 39.2033 177.094 39.1793 177.101 39.1548L177.111 39.1218L177.869 39.0547C177.87 39.0547 179.183 38.8955 180.384 38.8955C180.8 38.8955 181.203 38.9142 181.535 38.9663L181.589 38.9749L181.577 39.0278L181.563 39.0864L181.561 39.0909C181.487 39.2619 181.303 40.0021 181.141 40.6902C180.979 41.3799 180.836 42.0224 180.835 42.024L180.827 42.0635H175.857L175.463 42.1677L175.334 42.2019L175.293 42.2129Z" fill="#3265B1"/>
<circle cx="12.56" cy="12.56" r="12.56" transform="matrix(-1 0 0 1 50.5566 30.957)" fill="#3265B1"/>
<path d="M50.4518 43.5178H50.5536C50.5536 36.5829 44.9313 30.9602 37.996 30.9598C31.0603 30.9602 25.4375 36.5829 25.4375 43.5178C25.4375 50.4539 31.0603 56.0762 37.996 56.0762C44.9313 56.0762 50.5536 50.4539 50.5536 43.5178H50.4518H50.35C50.35 46.9301 48.9674 50.0183 46.7317 52.2543C44.4957 54.4899 41.4079 55.8726 37.996 55.8726C34.5841 55.8726 31.4959 54.4899 29.2597 52.2543C27.0238 50.0183 25.6411 46.9301 25.6411 43.5178C25.6411 40.1063 27.0238 37.0181 29.2597 34.7821C31.4959 32.5464 34.5841 31.1638 37.996 31.1634C41.4079 31.1638 44.4957 32.5464 46.7317 34.7821C48.9674 37.0181 50.35 40.1063 50.35 43.5178H50.4518Z" fill="#3265B1"/>
<circle cx="9.755" cy="9.755" r="9.755" transform="matrix(-1 0 0 1 47.752 33.7617)" fill="#1C427C"/>
<circle cx="12.56" cy="12.56" r="12.56" transform="matrix(-1 0 0 1 155.664 30.959)" fill="#3265B1"/>
<circle cx="9.755" cy="9.755" r="9.755" transform="matrix(-1 0 0 1 152.674 33.7617)" fill="#1C427C"/>
<path d="M47.1738 40.5351L47.2707 40.5033C45.9312 36.3818 42.1077 33.761 37.9959 33.7614C36.9972 33.7614 35.9809 33.9161 34.9798 34.2414C30.8583 35.5805 28.2383 39.4036 28.2383 43.515C28.2383 44.5141 28.393 45.5299 28.7183 46.5311C30.0574 50.6531 33.8805 53.2734 37.9922 53.2734C38.9914 53.2734 40.0072 53.1187 41.0084 52.7934C45.1299 51.4539 47.7503 47.6308 47.7503 43.5191C47.7503 42.5203 47.5956 41.5045 47.2707 40.5033L47.1738 40.5351L47.0769 40.5664C47.3953 41.5468 47.5467 42.5411 47.5467 43.5191C47.5467 47.5445 44.9813 51.2886 40.9457 52.5996C39.9648 52.9184 38.9702 53.0699 37.9922 53.0699C33.9668 53.0699 30.2228 50.504 28.912 46.4684C28.5933 45.4876 28.4419 44.4929 28.4419 43.515C28.442 39.4899 31.0072 35.7458 35.0429 34.4348C36.0237 34.1164 37.0179 33.965 37.9959 33.965C42.0217 33.965 45.7659 36.5304 47.0769 40.5664L47.1738 40.5351Z" fill="#3265B1"/>
<path d="M155.565 43.5178H155.666C155.666 36.5829 150.044 30.9602 143.109 30.9598C136.173 30.9602 130.551 36.5829 130.551 43.5178C130.551 50.4539 136.173 56.0762 143.109 56.0762C150.044 56.0762 155.666 50.4539 155.666 43.5178H155.565H155.463C155.463 46.9301 154.08 50.0183 151.844 52.2543C149.608 54.4899 146.521 55.8726 143.109 55.8726C139.697 55.8726 136.609 54.4899 134.373 52.2543C132.137 50.0183 130.754 46.9301 130.754 43.5178C130.754 40.1063 132.137 37.0181 134.373 34.7821C136.609 32.5464 139.697 31.1638 143.109 31.1634C146.521 31.1638 149.608 32.5464 151.844 34.7821C154.08 37.0181 155.463 40.1063 155.463 43.5178H155.565Z" fill="#3265B1"/>
<path d="M152.099 40.5351L152.196 40.5033C150.857 36.3818 147.034 33.761 142.922 33.7614C141.923 33.7614 140.907 33.9161 139.906 34.2414C135.784 35.5809 133.164 39.404 133.164 43.5154C133.164 44.5145 133.319 45.5304 133.644 46.5311C134.983 50.6531 138.807 53.2734 142.918 53.2734C143.917 53.2734 144.933 53.1187 145.934 52.7934C150.056 51.4543 152.676 47.6308 152.676 43.5195C152.676 42.5207 152.521 41.5045 152.196 40.5033L152.099 40.5351L152.003 40.5664C152.321 41.5468 152.473 42.5415 152.473 43.5195C152.473 47.5449 149.907 51.2886 145.871 52.5996C144.891 52.9184 143.896 53.0699 142.918 53.0699C138.893 53.0699 135.148 50.504 133.837 46.4684C133.519 45.4876 133.368 44.4933 133.368 43.5154C133.368 39.4899 135.933 35.7462 139.969 34.4348C140.949 34.1164 141.944 33.965 142.922 33.965C146.948 33.965 150.691 36.5304 152.003 40.5664L152.099 40.5351Z" fill="#3265B1"/>
<path d="M94.5239 24.134L94.5214 24.0322C93.3888 24.0615 90.7439 24.1312 89.4032 24.1874C87.9546 24.2476 86.5793 24.4092 86.1595 24.4618L86.1721 24.5627H86.2739V24.5623H86.0703V24.5786V24.5864L86.0715 24.5941C86.0772 24.6299 86.0789 24.6674 86.0789 24.7065C86.0789 24.7451 86.0772 24.7854 86.0772 24.827C86.0776 24.8893 86.0805 24.9565 86.1061 25.0257C86.1444 25.1315 86.2413 25.2203 86.3911 25.2704C86.5422 25.3225 86.7543 25.3514 87.0739 25.3591C88.1944 25.3848 92.1905 25.3848 92.7732 25.3848C93.0675 25.3844 93.4881 25.3734 93.8578 25.3143C94.043 25.285 94.2149 25.2439 94.3561 25.1824C94.4954 25.1209 94.6147 25.0379 94.6619 24.9019C94.7006 24.7859 94.7217 24.6584 94.7217 24.5306C94.7217 24.3746 94.6904 24.2175 94.6118 24.0827L94.5813 24.031L94.5214 24.0322L94.5239 24.134L94.4359 24.1857C94.4913 24.2794 94.5186 24.4023 94.5182 24.5306C94.5186 24.6352 94.5003 24.7427 94.4689 24.8372C94.4547 24.8848 94.392 24.9455 94.2747 24.9959C93.9254 25.1515 93.2039 25.1828 92.7732 25.1812C92.1917 25.1812 88.1928 25.1812 87.0788 25.1555C86.6672 25.1474 86.4551 25.0941 86.3683 25.0367C86.3244 25.0078 86.3089 24.9845 86.2967 24.954C86.2853 24.9235 86.2808 24.8811 86.2808 24.827C86.2808 24.7911 86.2824 24.7508 86.2824 24.7065C86.2824 24.6621 86.2808 24.6136 86.2727 24.5627L86.1721 24.5786H86.2739V24.5623H86.0703V24.5627V24.678L86.1847 24.6637C86.6012 24.6116 87.9725 24.4508 89.4118 24.3905C90.7492 24.3347 93.3945 24.2647 94.5263 24.2358L94.5239 24.134Z" fill="#3265B1"/>
<path d="M132.782 22.8547L132.779 22.7529C131.647 22.7818 129.001 22.8519 127.661 22.9076C126.212 22.9683 124.837 23.13 124.417 23.1821L124.43 23.283H124.532V23.2826H124.328V23.2993V23.3071L124.329 23.3148C124.335 23.3502 124.337 23.3873 124.337 23.4259C124.337 23.4654 124.335 23.5062 124.335 23.5485C124.335 23.6108 124.338 23.678 124.364 23.7472C124.402 23.853 124.499 23.9414 124.649 23.9911C124.8 24.0432 125.013 24.0721 125.331 24.0798C126.452 24.1055 130.448 24.1055 131.031 24.1055C131.325 24.1051 131.746 24.0941 132.115 24.035C132.3 24.0053 132.473 23.9646 132.614 23.9031C132.753 23.8412 132.872 23.7586 132.92 23.6222C132.958 23.5066 132.98 23.3791 132.98 23.2513C132.979 23.0953 132.948 22.9378 132.87 22.8034L132.839 22.7513L132.779 22.7529L132.782 22.8547L132.694 22.906C132.749 22.9997 132.776 23.123 132.776 23.2513C132.776 23.3559 132.758 23.4634 132.726 23.5579H132.727C132.712 23.6055 132.65 23.6662 132.533 23.7162C132.182 23.8718 131.461 23.9035 131.031 23.9019C130.45 23.9019 126.451 23.9019 125.336 23.8763C124.925 23.8681 124.713 23.8148 124.626 23.7574C124.582 23.7289 124.567 23.7056 124.555 23.6751C124.543 23.645 124.538 23.6026 124.539 23.5485C124.539 23.5123 124.54 23.4711 124.54 23.4259C124.54 23.382 124.539 23.3339 124.53 23.2834L124.43 23.2993H124.532V23.2826H124.328V23.283V23.3987L124.443 23.3844C124.859 23.3323 126.23 23.1711 127.67 23.1112C129.007 23.0554 131.652 22.9854 132.784 22.9565L132.782 22.8547Z" fill="#3265B1"/>
<path d="M52.888 43.4213H52.9389C52.9299 35.1461 46.1949 28.4168 37.9172 28.4164C29.6346 28.4168 22.8965 35.155 22.8963 43.4193H22.9472L22.8963 43.4181L22.7852 47.8637L22.834 47.8669C23.1955 47.8901 23.456 47.9068 23.5836 47.915L23.6364 47.9182L23.7485 43.4384V43.438C23.7485 39.5249 25.3343 35.9832 27.8983 33.419C30.4626 30.8548 34.0046 29.2689 37.9172 29.2689C41.8303 29.2689 45.3725 30.8548 47.9367 33.419C50.5009 35.9832 52.0871 39.5249 52.0871 43.438V43.4392L52.3493 49.5098H53.2027L52.9389 43.4193L52.888 43.4213L52.8371 43.4238L53.096 49.408H52.4466L52.1885 43.436L52.138 43.438H52.1889C52.1889 35.5561 45.7992 29.1672 37.9172 29.1672C30.0358 29.1672 23.6467 35.5561 23.6467 43.438H23.6976L23.6467 43.4368L23.5359 47.8629L23.5867 47.8641L23.5901 47.8136C23.4624 47.8055 23.202 47.7888 22.8407 47.7652L22.8374 47.816L22.8882 47.8173L22.9981 43.4201V43.4193C22.9981 39.3153 24.6713 35.5903 27.3727 32.8909C30.0745 30.1915 33.8039 28.5182 37.9172 28.5182C46.1383 28.5182 52.8281 35.2027 52.8371 43.4217V43.4225V43.4238L52.888 43.4213Z" fill="#3265B1"/>
<path d="M129.149 49.5098H128.297V43.4384C128.297 35.1554 135.035 28.4172 143.318 28.4168C150.373 28.4172 156.303 33.3058 157.908 39.873L157.922 39.9309L157.863 39.9357C157.558 39.9618 157.304 39.9834 157.11 39.9997L157.067 40.0033L157.056 39.9614C155.506 33.8176 149.943 29.2689 143.318 29.2693C139.405 29.2693 135.863 30.8552 133.299 33.4194C130.735 35.9836 129.149 39.5253 129.149 43.4384V49.5098ZM143.318 28.5186C139.205 28.5186 135.475 30.1919 132.773 32.8933C130.072 35.5952 128.399 39.325 128.399 43.4384V49.408H129.047V43.4384C129.047 35.5565 135.437 29.1676 143.318 29.1676C149.976 29.1676 155.568 33.7276 157.144 39.8946C157.319 39.88 157.538 39.8612 157.795 39.8397C156.181 33.3457 150.304 28.5186 143.318 28.5186Z" fill="#D9D9D9"/>
<path d="M129.149 49.5098H128.297V43.4384C128.297 35.1554 135.035 28.4172 143.318 28.4168C150.373 28.4172 156.303 33.3058 157.908 39.873L157.922 39.9309L157.863 39.9357C157.558 39.9618 157.304 39.9834 157.11 39.9997L157.067 40.0033L157.056 39.9614C155.506 33.8176 149.943 29.2689 143.318 29.2693C139.405 29.2693 135.863 30.8552 133.299 33.4194C130.735 35.9836 129.149 39.5253 129.149 43.4384V49.5098ZM143.318 28.5186C139.205 28.5186 135.475 30.1919 132.773 32.8933C130.072 35.5952 128.399 39.325 128.399 43.4384V49.408H129.047V43.4384C129.047 35.5565 135.437 29.1676 143.318 29.1676C149.976 29.1676 155.568 33.7276 157.144 39.8946C157.319 39.88 157.538 39.8612 157.795 39.8397C156.181 33.3457 150.304 28.5186 143.318 28.5186Z" fill="#D9D9D9"/>
<path d="M157.759 47.1504L157.488 43.4405V43.4389C157.488 42.5847 157.409 41.7492 157.264 40.9361L157.254 40.8816L158.003 40.8152L158.013 40.8698C158.157 41.6963 158.237 42.5443 158.238 43.4112C158.237 42.5606 158.16 41.728 158.021 40.9158L157.374 40.9732C157.513 41.7736 157.59 42.5957 157.59 43.436L157.853 47.0409L157.868 47.0396C157.886 47.0372 158.111 47.0099 158.498 46.9627L158.505 47.0645L158.558 47.058C158.126 47.1109 157.879 47.1406 157.879 47.1406L157.878 47.141H157.877L157.759 47.1504Z" fill="#D9D9D9"/>
<path d="M157.759 47.1504L157.488 43.4405V43.4389C157.488 42.5847 157.409 41.7492 157.264 40.9361L157.254 40.8816L158.003 40.8152L158.013 40.8698C158.157 41.6963 158.237 42.5443 158.238 43.4112C158.237 42.5606 158.16 41.728 158.021 40.9158L157.374 40.9732C157.513 41.7736 157.59 42.5957 157.59 43.436L157.853 47.0409L157.868 47.0396C157.886 47.0372 158.111 47.0099 158.498 46.9627L158.505 47.0645L158.558 47.058C158.126 47.1109 157.879 47.1406 157.879 47.1406L157.878 47.141H157.877L157.759 47.1504Z" fill="#D9D9D9"/>
<path d="M158.502 47.0645L158.494 46.9627L158.235 43.4132V43.4111C158.233 42.5443 158.154 41.6962 158.01 40.8697L158 40.8152L158.055 40.8103L158.059 40.8099L158.102 40.8062L158.11 40.8522C158.254 41.6836 158.335 42.537 158.337 43.4095L158.603 47.0518L158.555 47.0579L158.502 47.0645Z" fill="#3265B1"/>
<path d="M69.6494 19.8775L69.7198 19.9507C69.7332 19.9389 70.3586 19.325 70.3578 17.9781C70.3578 17.9061 70.3562 17.8324 70.3525 17.7562C70.3155 17.0193 70.2397 16.1904 69.8134 15.5182C69.3872 14.8439 68.6042 14.3513 67.2252 14.2922H67.2044C67.1316 14.2922 67.0469 14.3061 66.9512 14.3277L66.4883 14.4311L66.9528 14.5263C67.0913 14.5548 67.6181 14.6758 68.1242 14.9494C68.6323 15.2242 69.1066 15.6432 69.1877 16.2596C69.2548 16.7628 69.2894 17.3023 69.2894 17.8214C69.2899 18.6039 69.2096 19.3425 69.0492 19.8331L69.0073 19.9634L69.6893 19.9805L69.7198 19.9507L69.6494 19.8775L69.6518 19.7757L69.1486 19.7631L69.1461 19.8648L69.243 19.8962C69.414 19.3694 69.4926 18.6186 69.493 17.8214C69.493 17.2933 69.458 16.7457 69.3896 16.2327C69.2931 15.5194 68.754 15.0581 68.2211 14.7702C67.6857 14.4816 67.1438 14.3578 66.9936 14.3273L66.9732 14.427L66.9956 14.5259C67.0831 14.5064 67.1588 14.4954 67.2044 14.4958H67.2163C68.5545 14.5577 69.2504 15.0149 69.6416 15.6273C70.0333 16.2417 70.1139 17.0356 70.1489 17.766C70.1526 17.8389 70.1542 17.9093 70.1542 17.9781C70.1542 18.6194 70.0068 19.0778 69.8611 19.3759C69.7886 19.5249 69.7161 19.6336 69.6628 19.7044L69.5993 19.7822L69.5826 19.8001L69.5785 19.8042L69.6494 19.8775Z" fill="#3265B1"/>
<path d="M69.146 19.8655L69.2429 19.8969C69.3886 19.4482 69.4668 18.8379 69.4872 18.1734L69.4904 18.0692L63.5078 18.0525L63.5111 18.2923L63.5115 18.3033L63.5139 18.3135C63.5147 18.3171 63.5876 18.6404 63.7505 19.0305C63.9141 19.4205 64.1637 19.8793 64.5391 20.1529C64.8921 20.4086 65.3876 20.7225 65.8611 20.9778C66.3379 21.2323 66.7792 21.4298 67.0712 21.4469L67.0935 21.4473C67.3362 21.444 67.5471 21.2738 67.7051 21.0536C67.8622 20.8309 67.9685 20.5467 67.9693 20.2706C67.9693 20.0907 67.9217 19.9111 67.8044 19.7662L67.7254 19.8301L67.723 19.9319L69.2192 19.9689L69.2429 19.8969L69.146 19.8655L69.1484 19.7637L67.5076 19.723L67.6464 19.894C67.7283 19.9954 67.7653 20.1249 67.7657 20.2706C67.7666 20.4925 67.6741 20.7458 67.539 20.9359C67.4042 21.1285 67.2279 21.247 67.0935 21.2437L67.0809 21.2433C66.8676 21.2364 66.4193 21.0491 65.9576 20.7987C65.4935 20.5483 65.0024 20.2372 64.6584 19.9881C64.3364 19.7568 64.0933 19.3256 63.9382 18.9523C63.8604 18.7654 63.8038 18.5936 63.7663 18.469C63.7293 18.3444 63.7126 18.2687 63.7122 18.2683L63.6129 18.2911L63.7146 18.2894L63.7142 18.2569L69.385 18.2723L69.3854 18.1706L69.2836 18.1673C69.264 18.8191 69.1859 19.4164 69.0491 19.8338L69.146 19.8655Z" fill="#3265B1"/>
<path d="M3.42945 29.1459L3.33101 29.1198C3.31081 29.1968 3.16005 29.6239 2.96429 30.2216C2.76772 30.8217 2.52343 31.6026 2.30838 32.4136C1.87709 34.0447 1.79436 35.7962 1.79403 35.7999L1.78516 35.9863L1.94659 35.8927C1.95579 35.8862 2.46297 35.5967 2.57828 34.977C2.67957 34.4192 3.36329 31.6832 3.60823 30.8278C3.73147 30.3885 3.99759 29.8673 4.0006 29.4105C4.00202 29.2021 3.93794 28.9969 3.76791 28.845C3.59854 28.6931 3.34057 28.597 2.96458 28.5571L2.49986 28.5083L2.90208 28.7461C2.90208 28.7461 2.92976 28.7623 2.97288 28.7904C3.03758 28.8328 3.13541 28.9012 3.21269 28.9712C3.25133 29.0062 3.28459 29.0416 3.30527 29.071L3.33072 29.1219H3.33943L3.33101 29.1198L3.33072 29.1219H3.33943L3.33101 29.1198L3.42945 29.1459L3.52774 29.1723L3.53429 29.1219C3.53157 29.0311 3.48515 28.9675 3.43471 28.9069C3.28028 28.7302 3.00977 28.5742 3.00562 28.5706L2.95395 28.6585L2.94312 28.7595C3.29587 28.7965 3.5106 28.8861 3.63144 28.996C3.75167 29.106 3.79576 29.2383 3.79703 29.4105C3.8002 29.7888 3.54683 30.3095 3.41244 30.7716C3.16469 31.6392 2.48382 34.3618 2.37804 34.9404V34.9408C2.33114 35.1997 2.19784 35.3943 2.07427 35.525C2.01275 35.5902 1.95388 35.639 1.91109 35.6712L1.86068 35.7066L1.84464 35.7168L1.8957 35.8047L1.99732 35.8096C1.99732 35.8092 2.00241 35.7021 2.01686 35.514C2.05982 34.9505 2.18689 33.6684 2.50511 32.4657C2.71854 31.66 2.96189 30.8832 3.15768 30.2851C3.35409 29.6849 3.50042 29.2737 3.52774 29.1723L3.42945 29.1459Z" fill="#3265B1"/>
<path d="M3.04028 43.9593L3.14206 43.9605V43.9512C3.14174 43.807 3.10595 43.5143 3.05302 43.141C2.89411 42.0258 2.57715 40.2396 2.57715 40.2388L2.375 40.2571L2.38632 44.625L2.49873 44.6128C2.50639 44.6116 2.65349 44.5961 2.81109 44.509C2.96793 44.4251 3.14015 44.248 3.14206 43.9605L3.04028 43.9593L2.93849 43.9577C2.93373 44.1633 2.82986 44.2622 2.71203 44.331C2.65349 44.364 2.5929 44.3844 2.54771 44.3958L2.49381 44.4076L2.47679 44.4104L2.48778 44.5114L2.58957 44.511L2.57857 40.2563L2.47679 40.2567L2.37659 40.2746C2.37691 40.2763 2.51734 41.0682 2.65809 41.926C2.72857 42.3552 2.79884 42.8002 2.85148 43.1699C2.90429 43.5379 2.93898 43.8364 2.93849 43.9512V43.9581L3.04028 43.9593Z" fill="#3265B1"/>
<path d="M5.50413 40.3388V40.4405C5.50507 40.4405 5.87007 40.4405 6.43499 40.4405C8.1294 40.4405 11.6124 40.4405 12.3663 40.4405C12.8518 40.4409 13.1944 40.5659 13.4233 40.7536C13.6518 40.9413 13.7727 41.1942 13.8037 41.4714L13.8061 41.5162C13.8104 41.7691 13.5745 42.1994 13.0813 42.6196C12.5899 43.0418 11.8499 43.4624 10.8694 43.7396C9.78693 44.0466 8.56025 44.1191 7.65675 44.1187C7.2652 44.1187 6.93423 44.1053 6.70138 44.0918C6.46854 44.0784 6.3356 44.0649 6.33528 44.0649L6.3251 44.1663L6.42004 44.1293C6.41988 44.1289 6.36964 44.0002 6.29314 43.7771C6.06347 43.1094 5.6051 41.6062 5.60592 40.3388H5.50413H5.40234C5.40377 42.0891 6.22905 44.1973 6.23031 44.2034L6.25287 44.2616L6.31508 44.2677C6.31744 44.2677 6.8644 44.3223 7.65675 44.3223C8.57124 44.3223 9.81222 44.2502 10.9249 43.9355C11.9315 43.6509 12.6968 43.2181 13.214 42.7739C13.7292 42.3281 14.0052 41.8786 14.0096 41.5162L14.006 41.449C13.9708 41.127 13.825 40.8192 13.5523 40.5961C13.2796 40.3725 12.8862 40.237 12.3663 40.237C11.8637 40.237 10.1481 40.237 8.55833 40.237C7.7633 40.237 6.99974 40.237 6.43499 40.237C5.87007 40.237 5.50507 40.237 5.50413 40.237H5.40234V40.3388H5.50413Z" fill="#3265B1"/>
<path d="M8.06141 28.9909L7.98633 28.9221C7.97965 28.931 6.28064 30.7791 6.22115 33.5057L6.21875 33.6152L6.32852 33.6091C6.33055 33.6091 11.0896 33.3453 13.0284 33.0412C14.0059 32.8877 15.5095 32.428 16.8769 31.9284C17.5603 31.6784 18.2087 31.4187 18.7388 31.1813C19.2695 30.9435 19.6786 30.7318 19.8969 30.5649C20.3023 30.253 20.583 29.7954 20.7661 29.3882C20.8575 29.1847 20.9242 28.9933 20.9684 28.8374C21.0125 28.6798 21.0349 28.565 21.0357 28.4889L21.0276 28.4298C21.0128 28.3911 20.9976 28.3793 20.9813 28.3614C20.9215 28.3028 20.8124 28.2287 20.657 28.1363C20.1928 27.8647 19.3579 27.4743 18.6944 27.4714L18.6609 27.4718C17.7539 27.4922 10.3444 28.3024 8.03613 28.8923L8.00685 28.8997L7.98633 28.9221L8.06141 28.9909L8.08653 29.0894C10.3519 28.508 17.7957 27.6929 18.6651 27.6754H18.6653L18.6944 27.675C19.1098 27.6738 19.6531 27.8623 20.0886 28.0679C20.3066 28.1701 20.4988 28.2759 20.6368 28.3622C20.7057 28.405 20.7612 28.4433 20.7981 28.4718L20.8375 28.5056L20.8426 28.5108L20.8889 28.4758L20.8343 28.4942L20.8426 28.5108L20.8889 28.4758L20.8343 28.4942L20.8795 28.4791L20.8319 28.484L20.8343 28.4942L20.8795 28.4791L20.8319 28.484L20.8321 28.4889C20.8329 28.5222 20.8143 28.6371 20.7726 28.782C20.6492 29.2221 20.3211 29.9851 19.7729 30.4033C19.5851 30.5482 19.179 30.762 18.6556 30.9957C17.0838 31.6996 14.4237 32.6173 12.9969 32.84C12.0403 32.9903 10.3678 33.1324 8.93759 33.2362C8.22235 33.2879 7.56709 33.3306 7.09077 33.36C6.61445 33.3897 6.31801 33.406 6.3172 33.406L6.32278 33.5077L6.42456 33.5098C6.45237 32.189 6.88069 31.075 7.30294 30.2913C7.514 29.8996 7.72327 29.5906 7.87946 29.3801C7.95755 29.2747 8.02228 29.194 8.06731 29.1399C8.11214 29.0861 8.13632 29.0597 8.13632 29.0597L8.06141 28.9909Z" fill="#3265B1"/>
<path d="M180.836 37.4296L180.938 37.4415L181.601 31.7406L181.498 31.7308C181.497 31.7308 181.297 31.7113 181.08 31.6856C180.972 31.6726 180.86 31.6579 180.768 31.6437C180.678 31.6303 180.6 31.6132 180.589 31.6075L180.562 31.673L180.617 31.6274L180.589 31.6075L180.562 31.673L180.617 31.6274L180.593 31.6474L180.62 31.6307L180.617 31.6274L180.593 31.6474L180.62 31.6307C180.619 31.6311 180.604 31.592 180.594 31.5383C180.556 31.3449 180.53 30.9503 180.515 30.6108C180.501 30.2704 180.496 29.9826 180.496 29.9817L180.496 29.9369L178.833 28.4558L178.884 27.5499L177.709 26.2967L177.531 20.0783L178.423 19.9993L178.413 19.8967C178.413 19.8963 178.404 19.8153 178.396 19.6716C178.387 19.5283 178.379 19.3235 178.379 19.0804C178.378 18.2983 178.471 17.1159 178.921 16.3114L178.994 16.1815L178.846 16.1612C178.844 16.1608 171.316 15.1189 162.899 14.9625L162.898 15.0643L162.94 14.9715C162.938 14.9707 151.068 9.58211 146.163 7.93765C141.269 6.29807 134.757 3.97898 128.757 2.80477C123.96 1.8663 117.954 0.92091 107.736 0.92091C105.19 0.92091 102.382 0.979534 99.2649 1.11145C83.6407 1.77306 76.7391 4.51315 73.3822 5.88319C71.6966 6.57086 65.5471 9.59066 59.8109 12.4423C54.0762 15.2931 48.7609 17.973 48.7609 17.973L48.8065 18.0638L48.7915 17.9632L46.4247 18.3138L43.5051 17.8712L43.4827 17.8785C43.4823 17.8785 43.3809 17.9107 43.1843 17.9624C42.5939 18.1183 41.1607 18.4481 39.1836 18.5796C36.5254 18.7575 24.7517 20.389 15.8746 22.6849C6.99045 24.9832 2.89513 28.5722 2.88557 28.5807L2.77999 28.6732L2.901 28.7448C2.901 28.7448 2.92868 28.7611 2.9718 28.7892C3.03649 28.8315 3.13433 28.8999 3.21161 28.97C3.25025 29.005 3.28351 29.0404 3.30419 29.0697L3.32964 29.1206H3.33835L3.32992 29.1186L3.32964 29.1206H3.33835L3.32992 29.1186C3.30973 29.1955 3.15896 29.6226 2.96321 30.2203C2.76664 30.8205 2.52235 31.6014 2.3073 32.4124C1.87601 34.0434 1.79328 35.795 1.79295 35.7986L1.89461 35.8035L1.848 35.7131L1.39822 35.9448L1.54646 40.3021L2.37553 40.3257L2.3862 44.5119L2.48799 44.5115L2.43901 44.4224C2.43742 44.4232 2.05776 44.6321 1.67512 44.893C1.48364 45.0237 1.29135 45.167 1.14298 45.3071C1.06868 45.3775 1.00525 45.4472 0.957528 45.5172C0.910625 45.5872 0.875936 45.6589 0.875 45.7415L0.877199 45.7749C0.886767 45.8519 0.932407 45.9231 0.997754 45.974C1.1129 46.064 1.28675 46.1226 1.55933 46.1812C2.37444 46.3539 4.09365 46.4919 7.47788 46.8001C12.3606 47.2439 22.5108 47.897 23.5816 47.9658L23.6872 47.9727L23.8008 43.4391V43.4379C23.8008 39.5387 25.3807 36.0099 27.9358 33.4547C30.491 30.8994 34.0198 29.3197 37.9186 29.3197C41.8179 29.3197 45.3466 30.8994 47.9023 33.4547C50.4575 36.0099 52.0372 39.5387 52.0376 43.4379V43.4399L52.3019 49.5605H129.2V43.4379C129.2 39.5387 130.78 36.0099 133.335 33.4547C135.89 30.8994 139.42 29.3197 143.318 29.3197C147.218 29.3197 150.746 30.8994 153.302 33.4547C155.857 36.0099 157.437 39.5387 157.437 43.4379V43.4416L157.712 47.2044L157.881 47.1906H157.883L157.885 47.1901C157.887 47.1897 171.681 45.5245 174.764 44.924C176.3 44.6247 177.772 44.3381 178.951 44.0409C179.541 43.8923 180.058 43.7408 180.474 43.5828C180.891 43.424 181.207 43.2616 181.402 43.0747L181.459 43.0206L180.874 41.9632L180.785 42.0125L180.884 42.0345C180.885 42.0328 181.027 41.3904 181.19 40.7015C181.271 40.3566 181.357 40.0008 181.433 39.7093C181.507 39.419 181.574 39.1865 181.607 39.1103C181.628 39.0619 181.635 39.0106 181.635 38.9577C181.634 38.8176 181.586 38.658 181.519 38.4866C181.316 37.9773 180.923 37.3771 180.922 37.3739L180.836 37.4296L180.751 37.4854C180.751 37.4854 180.794 37.5506 180.858 37.6564C180.955 37.8156 181.101 38.0652 181.221 38.3156C181.342 38.564 181.434 38.8201 181.431 38.9577L181.42 39.0301C181.375 39.1364 181.312 39.3628 181.235 39.6584C181.007 40.5402 180.686 41.9897 180.685 41.9901L180.677 42.0279L181.242 43.0507L181.332 43.0014L181.261 42.9281C181.105 43.0796 180.806 43.2396 180.402 43.3927C179.186 43.8544 177.028 44.2758 174.725 44.7241C173.196 45.0221 168.976 45.5893 165.143 46.0803C163.227 46.3258 161.406 46.553 160.064 46.7187C158.723 46.884 157.862 46.9878 157.86 46.9882L157.873 47.0892L157.865 46.9878L157.798 46.9931L157.806 47.0945L157.907 47.0871L157.64 43.4306L157.539 43.4379H157.641C157.641 35.5279 151.228 29.1161 143.318 29.1161C135.409 29.1161 128.997 35.5279 128.997 43.4379V49.357H52.4969L52.2408 43.4334L52.1394 43.4379H52.2412C52.2408 35.5279 45.8287 29.1161 37.9186 29.1161C30.0091 29.1161 23.5972 35.5279 23.5972 43.4379H23.699L23.5972 43.4355L23.4865 47.8615L23.5881 47.864L23.5947 47.7626C22.5248 47.6942 12.3735 47.0407 7.4962 46.5973C4.91861 46.3628 3.3037 46.226 2.33197 46.0998C1.84657 46.0367 1.52118 45.9756 1.32412 45.9101C1.22567 45.8775 1.16045 45.8437 1.12482 45.8148L1.07902 45.7476L1.07857 45.7415C1.07759 45.7244 1.09034 45.6833 1.12596 45.6316C1.24921 45.4459 1.60798 45.176 1.92894 44.9684C2.08988 44.8633 2.24228 44.7713 2.35424 44.7053C2.46621 44.6398 2.53697 44.6007 2.53713 44.6007L2.58994 44.5718L2.57862 40.1278L1.74336 40.1038L1.60611 36.0665L1.94119 35.8939L1.99351 35.867L1.99624 35.8084C1.99624 35.808 2.00133 35.7009 2.01578 35.5128C2.05873 34.9493 2.1858 33.6672 2.50403 32.4645C2.71746 31.6588 2.96081 30.8819 3.1566 30.2838C3.35301 29.6837 3.49934 29.2725 3.52666 29.1711L3.53321 29.1206C3.53048 29.0298 3.48407 28.9663 3.43362 28.9056C3.27919 28.7289 3.00869 28.573 3.00453 28.5693L2.95287 28.6573L3.01996 28.7338C3.02013 28.7334 3.0812 28.6797 3.20876 28.5787C4.10175 27.8695 8.18294 24.8851 15.9257 22.8819C24.7813 20.5905 36.5633 18.9579 39.1975 18.7828C41.8549 18.6057 43.5381 18.0744 43.5438 18.0723L43.5132 17.9754L43.4982 18.076L46.4243 18.5198L48.8379 18.1623L48.8525 18.155C48.8533 18.1542 49.1844 17.9872 49.7723 17.6916C51.83 16.6563 57.0199 14.0497 62.062 11.5527C67.1028 9.05567 72.0012 6.66614 73.4592 6.0713C76.8071 4.70655 83.6671 1.97745 99.2734 1.31502C102.387 1.18311 105.193 1.12448 107.736 1.12448C117.942 1.12448 123.928 2.06743 128.718 3.00468C134.696 4.1744 141.202 6.49025 146.098 8.13063C148.538 8.94818 152.73 10.7054 156.309 12.2575C158.098 13.0335 159.735 13.7586 160.925 14.2891C161.519 14.5546 162.002 14.7716 162.336 14.9222C162.67 15.0729 162.855 15.1567 162.855 15.1567L162.874 15.1653L162.896 15.1661C167.097 15.2439 171.078 15.5431 174.009 15.8228C175.474 15.9629 176.677 16.0977 177.513 16.1978C178.349 16.298 178.817 16.3627 178.818 16.3627L178.833 16.2617L178.743 16.2121C178.262 17.0789 178.177 18.282 178.175 19.0804C178.175 19.5759 178.21 19.9147 178.21 19.9171L178.311 19.9069L178.302 19.8055L177.322 19.8927L177.508 26.3797L178.676 27.6256L178.624 28.5425L180.327 30.0595L180.394 29.9834L180.293 29.985C180.293 29.9858 180.299 30.4031 180.322 30.8286C180.334 31.0415 180.349 31.2561 180.37 31.4242C180.381 31.5085 180.393 31.5806 180.408 31.6388L180.436 31.7186C180.449 31.7422 180.462 31.7728 180.513 31.7964C180.567 31.8167 180.639 31.829 180.736 31.8448C181.024 31.8896 181.477 31.9332 181.478 31.9332L181.488 31.8322L181.387 31.8204L180.731 37.4545L180.751 37.4854L180.836 37.4296Z" fill="#3265B1"/>
<path d="M131.027 8.93355L131.071 8.84154C121.75 4.37841 115.284 4.06735 108.494 3.67079C106.947 3.58081 105.128 3.52218 103.133 3.52218C96.35 3.52258 87.5382 4.1956 80.532 6.58758C71.4641 9.68555 57.7482 19.3801 57.7437 19.3821L57.7042 19.4102L57.5625 21.4785L66.6455 21.143L66.2787 20.9647C65.7323 20.6997 65.0825 20.297 64.6562 19.9888C64.3341 19.7575 64.0911 19.3263 63.936 18.953C63.8582 18.7661 63.8016 18.5943 63.7641 18.4697C63.7271 18.3451 63.7104 18.2694 63.71 18.269L63.6106 18.2918L63.7124 18.2902L63.6888 16.7992L63.587 16.8008L63.6795 16.8436C63.9698 16.2125 64.7108 15.6148 65.4534 15.1865C65.8243 14.9719 66.1952 14.7981 66.5079 14.6788C66.8185 14.5591 67.0783 14.4956 67.1988 14.4968L67.2135 14.4972C68.5522 14.5591 69.248 15.0163 69.6393 15.6287C70.0309 16.243 70.1115 17.037 70.1466 17.7674C70.1502 17.8403 70.1518 17.9107 70.1518 17.9795C70.1518 18.6208 70.0045 19.0792 69.8587 19.3772C69.7862 19.5263 69.7138 19.635 69.6604 19.7058L69.5969 19.7836L69.5802 19.8015L69.5761 19.8056L69.647 19.8788L69.6494 19.7771L67.5054 19.7237L67.6442 19.8947C67.7261 19.9961 67.7631 20.1252 67.7635 20.2709C67.7643 20.4965 67.6687 20.7546 67.5298 20.9456L67.4077 21.1149L138.845 18.473L138.874 18.4327C139.17 18.021 139.426 17.4311 139.426 16.6954C139.426 15.7565 139.008 14.59 137.758 13.2644C136.506 11.9375 134.422 10.4457 131.071 8.84154L131.027 8.93355L130.983 9.02557C134.32 10.622 136.384 12.1036 137.609 13.4036C138.835 14.7048 139.222 15.8188 139.222 16.6954C139.222 17.383 138.984 17.9307 138.709 18.3138L138.791 18.3732L138.787 18.2714L67.6084 20.9036L67.6121 21.0054L67.6947 21.0649C67.8564 20.8405 67.9663 20.5514 67.9671 20.2709C67.9671 20.091 67.9195 19.9114 67.8022 19.7669L67.7232 19.8308L67.7208 19.9326L69.6869 19.9818L69.7174 19.9521C69.7309 19.9403 70.3562 19.3263 70.3554 17.9795C70.3554 17.9074 70.3538 17.8338 70.3501 17.7576C70.3131 17.0207 70.2374 16.1917 69.8111 15.5195C69.3848 14.8453 68.6018 14.3527 67.2228 14.2936L67.1988 14.2932C67.0233 14.2948 66.7603 14.3653 66.435 14.4886C65.9497 14.6739 65.339 14.9813 64.7865 15.3713C64.2348 15.7614 63.7397 16.2316 63.4946 16.7577L63.4848 16.7788L63.5093 18.304L63.5117 18.3142C63.5125 18.3178 63.5854 18.6411 63.7483 19.0312C63.9119 19.4212 64.1615 19.8801 64.5369 20.1537C64.9742 20.47 65.6285 20.8751 66.1895 21.1479L66.2343 21.0563L66.2302 20.9545L57.7811 21.2668L57.9041 19.4725L57.8027 19.4656L57.8613 19.5486C57.8618 19.5482 58.0751 19.3976 58.4676 19.1264C61.213 17.2308 72.7091 9.47261 80.598 6.78016C87.5663 4.40039 96.3639 3.72534 103.133 3.72575C105.124 3.72575 106.939 3.78398 108.481 3.87436C115.276 4.27174 121.691 4.57832 130.983 9.02557L131.027 8.93355Z" fill="#3265B1"/>
<path d="M162.614 14.9356L162.656 14.8428C160.828 14.0175 150.621 9.43185 146.162 7.93681C142.637 6.75568 138.271 5.224 133.864 4.01966L133.83 4.01071L130.605 5.32294L130.863 5.41089C130.864 5.41129 131.147 5.50819 131.649 5.68001C135.159 6.88271 149.342 11.7473 151.459 12.5559C152.638 13.0054 154.968 13.6238 157.223 14.1328C159.48 14.6409 161.647 15.0378 162.521 15.0391L162.619 15.037L163.047 15.0191L162.656 14.8428L162.614 14.9356L162.61 14.8339L162.521 14.8355C161.693 14.8367 159.515 14.4414 157.268 13.9341C155.02 13.4272 152.689 12.8075 151.532 12.3653C149.1 11.437 130.93 5.21872 130.929 5.21831L130.896 5.31439L130.934 5.40885L133.875 4.21224L133.837 4.1182L133.81 4.21632C138.209 5.4178 142.57 6.94785 146.097 8.1298C150.534 9.61669 160.748 14.2044 162.572 15.0281L162.614 14.9356Z" fill="#3265B1"/>
<path d="M54.9387 19.2106L54.9977 19.2932C60.7255 15.2181 66.9405 11.8787 71.7233 9.5592C74.1149 8.39924 76.1477 7.49415 77.5829 6.87936C78.3007 6.57197 78.8687 6.33664 79.2571 6.17907C79.6455 6.02069 79.8536 5.94008 79.8544 5.93968L80.1255 5.83463L76.5015 4.70236L76.4702 4.71335C75.1926 5.14981 74.1845 5.55573 73.3832 5.88308C71.6976 6.57075 65.5481 9.59055 59.8118 12.4422C54.0772 15.293 48.7619 17.9729 48.7619 17.9729L48.8075 18.0637L48.7924 17.9631L45.8789 18.3947L46.4025 18.516C49.8893 19.3221 52.0142 19.5273 53.278 19.5273C54.5759 19.5273 54.9668 19.3111 54.9892 19.2985L54.9937 19.2961L54.9977 19.2932L54.9387 19.2106L54.8878 19.1222L54.8874 19.1226C54.8622 19.1357 54.4742 19.3242 53.278 19.3238C52.0362 19.3238 49.9247 19.1214 46.4485 18.3173L46.4257 18.4166L46.4404 18.5172L48.8389 18.1622L48.8535 18.1549C48.8543 18.154 49.1853 17.9871 49.7732 17.6915C51.831 16.6562 57.0209 14.0496 62.0629 11.5526C67.1038 9.05556 72.0022 6.66602 73.4602 6.07119C74.2602 5.74465 75.2638 5.34076 76.5357 4.90593L76.5028 4.80944L76.4726 4.90674L79.7872 5.94211L79.8173 5.84481L79.7807 5.74994C79.7766 5.75198 66.3624 10.9581 54.8797 19.1275L54.9387 19.2106Z" fill="#3265B1"/>
<path d="M55.6721 18.0418L55.7287 18.1261C61.2044 14.4545 66.9134 11.4652 71.2528 9.39405C73.4224 8.35868 75.2497 7.55253 76.5343 7.00574C77.1767 6.73213 77.6832 6.52327 78.0293 6.38321C78.3754 6.24274 78.5594 6.17149 78.5602 6.17109L78.8314 6.06563L75.5441 5.03881L75.5119 5.05062C74.6728 5.35802 73.9692 5.6418 73.3793 5.88282C71.9038 6.48459 67.0144 8.87086 61.9715 11.3683C56.9294 13.8653 51.7399 16.4719 49.6802 17.5081L49.4375 17.6302L49.7009 17.6974C50.7505 17.9661 52.2338 18.3166 53.2264 18.4229C53.4996 18.4526 53.7496 18.4648 53.9768 18.4648C55.1469 18.4648 55.7108 18.1375 55.7238 18.1294L55.7267 18.1277L55.7287 18.1261L55.6721 18.0418L55.6204 17.9543L55.6167 17.9563C55.5659 17.984 55.0378 18.2609 53.9768 18.2613C53.7569 18.2613 53.5142 18.2491 53.248 18.2206C52.2786 18.1171 50.7961 17.7678 49.7514 17.5003L49.7262 17.5988L49.7718 17.6896C51.8311 16.6539 57.0206 14.0473 62.0615 11.5507C67.1015 9.05449 71.9982 6.66577 73.4562 6.07093C74.0454 5.83031 74.7461 5.54774 75.5819 5.24157L75.5469 5.14631L75.5164 5.2432L78.493 6.17313L78.5232 6.07622L78.4865 5.98136C78.4824 5.98299 66.5897 10.5988 55.6155 17.9571L55.6721 18.0418Z" fill="#3265B1"/>
<path d="M134.498 14.2704L134.58 14.2106C134.357 13.906 133.85 13.4834 133.187 12.9916C131.202 11.5218 127.841 9.4889 127.025 8.99951L126.891 8.9189L125.785 18.2051L133.142 17.9331H133.144C133.845 17.8855 134.341 17.6196 134.654 17.2365C134.967 16.8538 135.095 16.364 135.095 15.8754C135.095 15.2614 134.895 14.6446 134.58 14.2106L134.498 14.2704L134.416 14.3303C134.701 14.7219 134.892 15.3062 134.891 15.8754C134.891 16.3298 134.772 16.7711 134.496 17.1074C134.22 17.4433 133.788 17.6835 133.13 17.7299L133.137 17.8313L133.133 17.7299L126.016 17.9925L127.074 9.09886L126.973 9.08706L126.921 9.17418C127.463 9.49908 129.137 10.5112 130.778 11.5824C131.598 12.1178 132.409 12.6687 133.066 13.1553C133.722 13.6398 134.227 14.0677 134.416 14.3303L134.498 14.2704Z" fill="#3265B1"/>
<path d="M108.786 4.54066L108.792 4.43887L108.451 4.41892C106.986 4.33301 105.43 4.28701 103.822 4.27601L103.733 4.27561L101.672 19.0957L124.845 18.2391L126.196 7.57349L126.121 7.54539C119.441 5.0614 114.231 4.75563 108.792 4.43887L108.786 4.54066L108.78 4.64204C114.22 4.9592 119.398 5.26293 126.05 7.73634L126.085 7.64067L125.984 7.62805L124.665 18.042L101.907 18.8836L103.923 4.39205L103.822 4.3778L103.821 4.47959C105.425 4.49058 106.978 4.53659 108.439 4.62209L108.78 4.64204L108.786 4.54066Z" fill="#3265B1"/>
<path d="M80.8071 7.39344L80.7742 7.29694C76.7788 8.6621 71.8279 11.355 67.5765 13.9114L67.5195 13.9456L67.592 14.5266L67.6702 14.5368C68.787 14.6834 69.3712 15.1475 69.7059 15.7424C70.0398 16.3384 70.113 17.0815 70.146 17.7671C70.1497 17.84 70.1513 17.9104 70.1513 17.9792C70.1513 18.6205 70.0039 19.0789 69.8582 19.377C69.7857 19.526 69.7132 19.6347 69.6599 19.7055L69.5964 19.7833L69.5797 19.8012L69.5756 19.8053L69.6465 19.8786L69.6489 19.7768L68.2471 19.7418L68.3204 20.3301L96.9781 19.2703L100.598 4.30442L100.466 4.30809C95.1427 4.44937 87.2869 5.07393 80.7742 7.29694L80.8071 7.39344L80.8397 7.48993C87.317 5.27791 95.159 4.65213 100.471 4.51166L100.469 4.40987L100.37 4.38585L96.8165 19.0728L68.4991 20.1196L68.4784 19.9514L69.6864 19.9816L69.7169 19.9518C69.7303 19.94 70.3557 19.3261 70.3549 17.9792C70.3549 17.9072 70.3533 17.8335 70.3496 17.7573C70.3146 17.0648 70.2454 16.292 69.8838 15.643C69.5231 14.9928 68.859 14.4827 67.6962 14.3349L67.6832 14.4358L67.7842 14.4232L67.73 13.9859L67.6291 13.9986L67.6812 14.0861C71.9265 11.5329 76.8721 8.8445 80.8397 7.48993L80.8071 7.39344Z" fill="#3265B1"/>
<path d="M69.8346 19.6344L69.8248 19.533L67.7305 19.7284L67.7374 19.9316L69.6905 19.9805L69.721 19.9503C69.7259 19.9459 69.813 19.8595 69.9205 19.6885L70.0304 19.5139L69.8248 19.533L69.8346 19.6344L69.7483 19.5803C69.6994 19.6576 69.6559 19.715 69.6253 19.7525L69.5895 19.7936L69.5789 19.8046L69.6502 19.8775L69.6526 19.7757L69.4637 19.7712L69.844 19.7358L69.8346 19.6344Z" fill="#3265B1"/>
<path d="M67.613 21.0046L67.6956 21.0641C67.8573 20.8397 67.9668 20.5507 67.9676 20.2706C67.968 20.091 67.9208 19.9123 67.8043 19.7677L67.7697 19.725L64.3819 20.0417L64.6058 20.2005C65.0406 20.5091 65.6562 20.8874 66.1908 21.1471L66.2352 21.0555L66.2311 20.9538L57.596 21.2729L56.914 23.5758L56.9136 23.5892C56.9136 23.5896 56.7617 29.7306 56.7617 33.5309C56.7617 34.3708 56.769 35.0968 56.7874 35.6179C56.8875 38.4846 57.0618 42.1856 57.0618 42.186L57.0622 42.1941L57.2645 43.1558L57.8162 44.8516L122.091 44.2665L122.122 44.2339C122.122 44.2331 122.569 43.7466 123.053 43.2238C123.536 42.7018 124.057 42.1416 124.195 42.0032C124.222 41.9751 124.255 41.9323 124.307 41.8643C125.055 40.8587 129.144 34.7246 129.933 33.3806C130.346 32.6767 132.446 29.3409 134.5 25.9824C135.527 24.3025 136.543 22.6161 137.333 21.2477C137.727 20.5633 138.065 19.9583 138.32 19.4726C138.574 18.9856 138.745 18.6228 138.809 18.4038L138.849 18.2686L67.6093 20.9029L67.613 21.0046L67.617 21.1064L138.716 18.4771L138.712 18.3753L138.614 18.3468C138.561 18.5333 138.392 18.8973 138.14 19.3781C136.369 22.7566 130.486 32.035 129.757 33.2776C129.343 33.984 127.982 36.0654 126.693 38.0009C126.048 38.9691 125.42 39.9019 124.936 40.6099C124.694 40.9637 124.488 41.2618 124.334 41.4796C124.256 41.5883 124.192 41.677 124.143 41.7426C124.096 41.8069 124.06 41.8517 124.051 41.8595C123.762 42.1489 121.973 44.0951 121.972 44.0963L122.047 44.1651L122.046 44.0633L57.9636 44.6468L57.4616 43.1033L57.2629 42.1603L57.1632 42.1811L57.2649 42.1762C57.2649 42.1742 57.2214 41.2512 57.1656 39.9679C57.1094 38.6845 57.0406 37.0433 56.9909 35.6106C56.9726 35.0939 56.9653 34.3696 56.9653 33.5309C56.9653 31.6332 57.0032 29.1484 57.041 27.1387C57.0602 26.1339 57.0793 25.2479 57.0935 24.6128C57.1078 23.9776 57.1172 23.5949 57.1172 23.5941L57.0154 23.5916L57.1131 23.6206L57.7495 21.4708L66.6468 21.1423L66.2796 20.9639C65.7596 20.7115 65.1485 20.3361 64.7235 20.0344L64.6644 20.1175L64.6742 20.2189L67.7343 19.9326L67.7249 19.8317L67.6455 19.8952C67.727 19.9961 67.764 20.1252 67.764 20.2706C67.7648 20.4961 67.6696 20.7538 67.5307 20.9448L67.4086 21.1142L67.617 21.1064L67.613 21.0046Z" fill="#3265B1"/>
<path d="M98.3862 21.9358L98.2848 21.9252L97.1591 32.9043L97.0703 44.4941L122.096 44.2665L122.126 44.234C122.127 44.2332 122.574 43.7466 123.057 43.2238C123.54 42.7019 124.061 42.1417 124.2 42.0032C124.227 41.9751 124.26 41.9324 124.311 41.8644C125.06 40.8587 129.148 34.7247 129.937 33.3807C130.35 32.6767 132.45 29.341 134.504 25.9825C135.532 24.3026 136.548 22.6162 137.337 21.2478C137.732 20.5634 138.069 19.9583 138.324 19.4726C138.579 18.9857 138.75 18.6229 138.814 18.4038L138.853 18.2687L98.9538 19.7438L98.2861 21.9155L98.2848 21.9252L98.3862 21.9358L98.4835 21.9656L99.1056 19.942L138.72 18.4771L138.716 18.3753L138.618 18.3469C138.565 18.5333 138.396 18.8973 138.144 19.3781C136.373 22.7566 130.491 32.0351 129.761 33.2777C129.347 33.9841 127.987 36.0654 126.697 38.001C126.052 38.9692 125.424 39.902 124.94 40.61C124.698 40.9638 124.492 41.2618 124.338 41.4796C124.261 41.5883 124.197 41.6771 124.148 41.7426C124.1 41.807 124.064 41.8518 124.056 41.8595C123.766 42.149 121.977 44.0951 121.976 44.0964L122.051 44.1652L122.05 44.0634L97.2755 44.2885L97.3627 32.9153L98.4872 21.946L98.3862 21.9358Z" fill="#3265B1"/>
<path d="M132.825 23.5897L132.777 23.5734C132.754 23.6434 132.677 23.7094 132.555 23.7627C132.187 23.9243 131.466 23.9532 131.033 23.9524C130.953 23.9524 130.807 23.9524 130.614 23.9524H130.572L130.564 23.9931C130.506 24.3034 130.068 24.6723 129.542 24.9064C129.242 25.0424 128.622 25.1209 127.99 25.1205C127.391 25.1205 126.775 25.0505 126.403 24.9056C125.999 24.7484 125.786 24.3836 125.684 23.9708L125.675 23.9325L125.635 23.9321C125.522 23.9304 125.42 23.9288 125.337 23.9268C124.923 23.9178 124.704 23.8665 124.601 23.8002C124.501 23.7342 124.492 23.663 124.49 23.5481C124.49 23.5103 124.491 23.4692 124.491 23.4256C124.491 23.3828 124.49 23.3376 124.482 23.2908L124.48 23.2672C124.481 23.2159 124.507 23.176 124.57 23.1353C124.757 23.0131 125.227 22.9842 125.58 22.9826L125.625 22.9822L125.631 22.9378C125.664 22.6357 125.924 22.3955 126.247 22.2302C126.568 22.0653 126.947 21.9782 127.19 21.9709H127.193L127.196 21.9705C127.196 21.9705 127.261 21.9619 127.38 21.9525C127.498 21.9436 127.667 21.9346 127.872 21.9346C128.26 21.9346 128.775 21.9672 129.306 22.0926C129.725 22.1919 129.996 22.4236 130.18 22.6939L130.196 22.7176L130.224 22.7163C131.038 22.6756 131.752 22.6471 132.144 22.6471C132.292 22.6471 132.397 22.652 132.431 22.6597C132.717 22.7188 132.827 22.9692 132.829 23.2481C132.829 23.3596 132.81 23.4732 132.777 23.5734L132.825 23.5897L132.873 23.6055C132.91 23.4944 132.931 23.371 132.931 23.2481C132.933 22.9468 132.799 22.6317 132.452 22.56C132.398 22.549 132.295 22.5457 132.144 22.5453C131.748 22.5453 131.034 22.5742 130.219 22.6146L130.222 22.6655L130.264 22.6369C130.07 22.3499 129.775 22.0983 129.329 21.9933C128.788 21.8654 128.266 21.8328 127.872 21.8328C127.457 21.8328 127.183 21.8695 127.182 21.8699L127.189 21.92L127.187 21.8691C126.925 21.8776 126.538 21.9672 126.201 22.1398C125.865 22.312 125.572 22.5698 125.53 22.926L125.58 22.9317L125.58 22.8808C125.34 22.8833 125.05 22.8939 124.816 22.9419C124.699 22.9663 124.594 22.9993 124.515 23.0494C124.436 23.0982 124.378 23.1727 124.379 23.2672L124.382 23.3067C124.388 23.3458 124.39 23.3857 124.39 23.4256C124.39 23.4663 124.388 23.5074 124.388 23.5481C124.386 23.6662 124.407 23.7998 124.546 23.8861C124.683 23.9712 124.913 24.0184 125.335 24.0286C125.418 24.0302 125.52 24.0322 125.634 24.0339L125.635 23.983L125.585 23.9952C125.69 24.4243 125.92 24.827 126.366 25.0004C126.762 25.1535 127.382 25.2219 127.99 25.2223C128.632 25.2215 129.254 25.1466 129.583 24.9992C130.123 24.7541 130.584 24.3897 130.664 24.0131L130.614 24.0033V24.0542C130.807 24.0542 130.953 24.0542 131.033 24.0542C131.325 24.0538 131.744 24.0428 132.109 23.9846C132.292 23.9553 132.46 23.9146 132.596 23.8559C132.729 23.7973 132.834 23.72 132.873 23.6059L132.825 23.5897ZM117.332 46.1003L117.331 46.0498C112.124 46.1724 68.6302 46.1968 65.3136 46.1968C64.634 46.1968 63.9447 46.2062 63.2733 46.2062C61.9701 46.2062 60.7352 46.1708 59.7772 45.9664C58.8175 45.7612 58.1474 45.3899 57.9422 44.7339L57.8937 44.749L57.8941 44.7999L97.2085 44.407L122.051 44.2161L122.05 44.1652L122.001 44.1786L122.006 44.2051L122.012 44.2881C122.011 44.4783 121.936 44.8834 121.314 45.2657C120.692 45.6476 119.518 45.9985 117.331 46.0498L117.332 46.1003L117.334 46.1512C119.53 46.0995 120.72 45.749 121.368 45.3528C122.016 44.9571 122.115 44.5076 122.114 44.2881C122.114 44.2055 122.101 44.1554 122.099 44.1517L122.089 44.1139L97.2077 44.3052L57.8245 44.6989L57.8449 44.7645C58.0704 45.4762 58.7858 45.8589 59.756 46.0657C60.7287 46.2734 61.968 46.308 63.2733 46.308C63.9455 46.308 64.6348 46.2986 65.3136 46.2986C68.631 46.2986 112.123 46.2742 117.334 46.1512L117.332 46.1003ZM87.3259 24.2114L87.3764 24.2175C87.4102 23.9154 87.6691 23.6752 87.9924 23.5103C88.3136 23.345 88.6931 23.2578 88.9361 23.2509H88.9386L88.9414 23.2505C88.9414 23.2505 89.0074 23.2416 89.1255 23.2326C89.2439 23.2236 89.4137 23.2147 89.6185 23.2147C90.0065 23.2143 90.5208 23.2468 91.0517 23.3722C91.471 23.4716 91.741 23.7033 91.9254 23.9736L91.9413 23.9972L91.9698 23.996C92.7837 23.9557 93.4986 23.9268 93.8899 23.9268C94.0381 23.9268 94.1427 23.9317 94.1773 23.9394C94.4627 23.9984 94.5727 24.2488 94.5751 24.5273C94.5751 24.6393 94.5556 24.7529 94.5222 24.8534C94.4998 24.9231 94.4232 24.9894 94.3003 25.0424C93.9334 25.2044 93.2124 25.2329 92.7784 25.2321C92.699 25.2321 92.5524 25.2321 92.3602 25.2321H92.3187L92.3102 25.2728C92.2523 25.583 91.8134 25.9519 91.2874 26.186C90.9877 26.322 90.3681 26.4006 89.7362 26.4002C89.1365 26.4002 88.5209 26.3302 88.1487 26.1852C87.7444 26.0285 87.5315 25.6637 87.4297 25.2508L87.4203 25.2125L87.3808 25.2117C87.2676 25.2101 87.1659 25.2085 87.0828 25.2064C86.6675 25.1975 86.4493 25.1462 86.3463 25.0794C86.2461 25.0139 86.2372 24.9418 86.2351 24.827C86.2351 24.7895 86.2368 24.7492 86.2368 24.7065C86.2368 24.6633 86.2351 24.6177 86.2278 24.5705L86.2258 24.5469C86.2262 24.4956 86.2526 24.4557 86.3149 24.415C86.5026 24.2928 86.9725 24.2639 87.3263 24.2623L87.3711 24.2619L87.3764 24.2175L87.3259 24.2114L87.3255 24.1605C87.0857 24.1629 86.7962 24.1735 86.5617 24.2216C86.444 24.246 86.3402 24.279 86.2604 24.329C86.1818 24.3779 86.1236 24.4524 86.124 24.5469L86.1272 24.5864C86.1333 24.6259 86.135 24.6662 86.135 24.7065C86.135 24.7468 86.1333 24.7867 86.1333 24.827C86.1313 24.9451 86.1525 25.079 86.2917 25.1653C86.4277 25.2508 86.6582 25.298 87.0804 25.3082C87.1642 25.3103 87.266 25.3119 87.3796 25.3135L87.38 25.2626L87.3308 25.2748C87.4358 25.7044 87.6658 26.107 88.1117 26.2801C88.5074 26.4332 89.1279 26.5016 89.7362 26.502C90.3778 26.5012 90.9995 26.4263 91.3289 26.2789C91.8684 26.0338 92.3305 25.6694 92.4103 25.2927L92.3602 25.283V25.3339C92.5524 25.3339 92.699 25.3339 92.7784 25.3339C93.0711 25.3335 93.4905 25.3225 93.8549 25.2643C94.0377 25.2349 94.2062 25.1946 94.341 25.136C94.4749 25.077 94.58 24.9996 94.6187 24.8856C94.6557 24.7745 94.6765 24.6507 94.6769 24.5273C94.6789 24.226 94.545 23.9113 94.1981 23.8396C94.1435 23.8287 94.0417 23.8254 93.8899 23.825C93.4941 23.825 92.7796 23.8539 91.9649 23.8942L91.9673 23.9451L92.0093 23.9166C91.8151 23.63 91.5207 23.378 91.0749 23.2733C90.5338 23.1455 90.0122 23.1129 89.6185 23.1129C89.2024 23.1129 88.9292 23.1491 88.9276 23.1495L88.9345 23.2L88.9329 23.1491C88.6707 23.1573 88.2835 23.2468 87.946 23.4195C87.6101 23.5917 87.3177 23.8498 87.2754 24.2057L87.3259 24.2114ZM181.492 31.8323L181.497 31.7814C181.497 31.7814 181.295 31.7619 181.078 31.7362C180.863 31.711 180.622 31.6756 180.574 31.6548L180.566 31.6731L180.582 31.6601L180.574 31.6548L180.566 31.6731L180.582 31.6601C180.578 31.6581 180.562 31.6198 180.552 31.5665C180.51 31.3763 180.484 30.9769 180.469 30.6296C180.454 30.2815 180.449 29.9835 180.449 29.9827L180.449 29.9603L178.784 28.4775L178.836 27.5691L177.662 26.3175L177.485 20.1521L177.436 20.1525C177.237 20.1538 177.029 20.155 176.82 20.1562L176.769 20.1566V20.2071V20.2226C176.769 20.9628 176.684 22.4867 176.599 23.8238C176.557 24.4927 176.514 25.1148 176.482 25.5696C176.45 26.0248 176.429 26.3118 176.429 26.3127L176.48 26.3163L176.48 26.2654L165.471 26.1942L165.47 26.2451L165.514 26.2707C165.515 26.2699 165.705 25.945 165.999 25.4475C166.441 24.7012 167.115 23.5693 167.729 22.5751C168.341 21.5824 168.898 20.7201 169.086 20.534C169.158 20.462 169.257 20.383 169.374 20.2999L169.505 20.2063L169.344 20.2075C161.827 20.2629 152.933 20.3439 149.181 20.4339C142.12 20.6037 126.47 20.8414 119.205 21.045C111.939 21.249 81.1853 22.437 73.4105 22.8104C65.6376 23.1841 51.594 23.5876 42.0749 24.6438C33.6254 25.5806 23.5485 27.9559 20.9029 28.6L20.8718 28.6077L20.8652 28.6391C20.782 29.0332 20.4458 29.9566 19.8083 30.4435C19.6032 30.6011 19.1648 30.8283 18.602 31.0767L18.5946 31.0799L18.588 31.0856L18.6222 31.1235L18.5948 31.0807C16.6151 32.3404 12.8105 33.2875 9.50613 33.9141C7.85368 34.228 6.32546 34.4629 5.21041 34.6188C4.09537 34.7752 3.39593 34.8525 3.39418 34.8529L3.38241 34.8542L3.3724 34.8607C3.34996 34.8757 2.86505 35.2051 2.84897 37.1948C2.84836 37.2889 2.84803 37.3809 2.84803 37.4709C2.84803 39.2811 2.99355 40.2623 2.99404 40.2643L3.00023 40.3062L5.5045 40.3885L5.50625 40.3376H5.45535C5.45613 42.0728 6.27917 44.1806 6.27982 44.1835L6.32722 44.1652V44.1143H2.43975L2.44089 44.5116H2.49178L2.46727 44.4673C2.46727 44.4673 2.27119 44.5752 2.02133 44.7307L1.93179 44.7865L2.03118 44.8219C2.26162 44.9037 2.51658 44.9738 2.73224 44.9742L2.76453 44.9738C3.01232 44.9652 5.45918 44.9343 7.84143 44.9058C10.2244 44.8773 12.5448 44.8508 12.5448 44.8508L12.5441 44.7999L12.5313 44.8492L15.1456 45.5336L15.1584 45.4843L15.1581 45.4334C15.1573 45.4334 14.8399 45.4355 14.3039 45.4383C12.6957 45.4469 9.12711 45.4644 6.3102 45.4644C4.43273 45.4644 2.88684 45.4566 2.4838 45.4334C1.95341 45.4029 1.56948 45.3329 1.30658 45.2632L1.28069 45.2563L1.26033 45.2742C1.07569 45.4379 0.934777 45.5885 0.929688 45.742L0.931438 45.7681C0.93954 45.8312 0.975329 45.8886 1.03335 45.9342C1.23582 46.0914 1.71247 46.183 2.71347 46.2994C3.71322 46.4142 5.23077 46.5441 7.48632 46.7493C11.7835 47.1402 20.1641 47.6931 22.8392 47.8669L22.892 47.8702L23.0033 43.4201V43.4193C23.0033 39.3153 24.6764 35.5903 27.3779 32.8909C30.0797 30.1915 33.809 28.5182 37.9224 28.5182C46.1435 28.5182 52.8333 35.2027 52.8423 43.4217V43.4225L53.1057 49.5098H128.403V43.438C128.403 39.3246 130.076 35.5948 132.778 32.8929C135.479 30.1915 139.209 28.5182 143.322 28.5182C150.329 28.5182 156.219 33.3742 157.813 39.8971L157.824 39.939L157.867 39.9353C161.958 39.588 175.216 38.4655 177.485 38.3141C178.839 38.2233 179.789 38.2009 180.397 38.2009C180.996 38.2009 181.262 38.2229 181.263 38.2225L181.353 38.2298L181.313 38.1492C181.115 37.7575 180.883 37.4029 180.883 37.4021L180.84 37.4298L180.891 37.4359L181.548 31.7863L181.497 31.7814L181.492 31.8323L181.441 31.8262L180.788 37.4424L180.798 37.4574C180.798 37.4574 180.855 37.545 180.937 37.6814C181.019 37.8178 181.124 38.0022 181.222 38.1948L181.267 38.172L181.271 38.1211C181.27 38.1211 180.999 38.0991 180.397 38.0991C179.786 38.0991 178.834 38.1219 177.478 38.2123C175.207 38.3642 161.95 39.4867 157.859 39.834L157.863 39.8849L157.912 39.8726C156.307 33.3054 150.377 28.4168 143.322 28.4164C135.039 28.4168 128.301 35.155 128.301 43.438V49.408H53.2034L52.9441 43.4193L52.8932 43.4213H52.9441C52.9351 35.1461 46.2001 28.4168 37.9224 28.4164C29.6398 28.4168 22.9017 35.155 22.9015 43.4193H22.9524L22.9015 43.4181L22.7917 47.8148L22.8425 47.816L22.8459 47.7652C20.1711 47.5917 11.7901 47.0384 7.49536 46.6479C4.9178 46.4138 3.30318 46.277 2.32925 46.1504C1.84243 46.0873 1.51541 46.0258 1.312 45.9582C1.21021 45.9249 1.13994 45.8894 1.09682 45.8548C1.05358 45.8198 1.03734 45.7893 1.03225 45.7547L1.03147 45.742C1.02651 45.6618 1.14547 45.5051 1.32694 45.3508L1.29355 45.3125L1.28069 45.3618C1.55087 45.433 1.94148 45.5043 2.47794 45.5352C2.88875 45.5584 4.43126 45.5662 6.3102 45.5662C10.0668 45.5662 15.1588 45.5352 15.1588 45.5352L15.5449 45.5328L12.5505 44.749H12.5436C12.5436 44.749 3.26312 44.8545 2.76103 44.872L2.73224 44.8724C2.53869 44.8728 2.28996 44.8064 2.06538 44.7258L2.0482 44.7738L2.07523 44.817C2.3227 44.6631 2.51625 44.5564 2.51625 44.5564L2.54284 44.5418L2.54186 44.2161H6.4018L6.37477 44.1468C6.37477 44.1468 6.32388 44.0162 6.24705 43.7926C6.01693 43.1221 5.55665 41.6164 5.55714 40.3376V40.2883L3.04587 40.2061L3.04428 40.257L3.09452 40.2497C3.09452 40.2488 3.05861 40.007 3.02233 39.538C2.98606 39.0685 2.94982 38.3731 2.94982 37.4709C2.94982 37.3813 2.95015 37.2897 2.95076 37.1957C2.95874 36.2083 3.08324 35.6408 3.20331 35.3236C3.26345 35.1648 3.32212 35.0687 3.36425 35.0133L3.41356 34.958L3.42533 34.9478L3.42757 34.9462L3.41963 34.9348L3.42708 34.9462H3.42757L3.41963 34.9348L3.42708 34.9462L3.39976 34.9034L3.40529 34.9539C3.40611 34.9539 6.2159 34.6429 9.52522 34.0142C12.8352 33.3852 16.6418 32.4418 18.6494 31.1666L18.6531 31.1642L18.6566 31.1609L18.6225 31.1231L18.643 31.1699C19.2099 30.9191 19.6493 30.6931 19.8704 30.5246C20.5407 30.0075 20.8757 29.0723 20.9647 28.6603L20.915 28.6497L20.927 28.6989C23.5703 28.0552 33.6458 25.6808 42.0859 24.7447C51.598 23.6898 65.6409 23.2855 73.4153 22.9122C81.1886 22.5388 111.944 21.3504 119.208 21.1468C126.472 20.9432 142.122 20.7054 149.183 20.5357C152.933 20.4457 161.828 20.3647 169.345 20.3093L169.344 20.2584L169.314 20.2169C169.195 20.302 169.092 20.3834 169.014 20.462C168.873 20.6028 168.587 21.0259 168.225 21.591C167.143 23.2835 165.426 26.2194 165.426 26.2194L165.382 26.2956L176.527 26.3676L176.531 26.32C176.531 26.3192 176.871 21.7144 176.871 20.2226V20.2071H176.82L176.82 20.258C177.03 20.2568 177.237 20.2555 177.437 20.2543L177.436 20.2034L177.385 20.2051L177.562 26.3591L178.732 27.607L178.68 28.521L180.364 30.0213L180.398 29.9835L180.347 29.9843C180.347 29.9843 180.354 30.4016 180.377 30.8259C180.388 31.038 180.403 31.2521 180.425 31.4179C180.435 31.5009 180.447 31.5718 180.461 31.6259L180.486 31.6963L180.536 31.7493C180.617 31.7806 180.845 31.8103 181.066 31.8372C181.284 31.8633 181.487 31.8828 181.487 31.8828L181.492 31.8323Z" fill="#3265B1"/>
<path d="M174.711 16.7909L174.656 16.7054C174.655 16.7062 173.243 17.6187 172.226 18.378C171.728 18.7497 171.053 19.1267 170.436 19.4761C169.818 19.8274 169.261 20.145 168.978 20.4267C168.901 20.5041 168.796 20.6437 168.66 20.8392C167.718 22.1999 165.383 26.1935 165.382 26.1948L165.293 26.347L176.574 26.4199L176.581 26.3251C176.581 26.323 176.921 21.7227 176.921 20.2244C176.921 20.0689 176.918 19.9467 176.909 19.8612C176.821 19.0042 176.337 16.9978 176.336 16.9953L176.32 16.9285L174.688 16.6847L174.656 16.7054L174.711 16.7909L174.696 16.8919L176.222 17.1199L176.237 17.0189L176.139 17.043C176.139 17.0442 176.259 17.5446 176.391 18.1512C176.522 18.7574 176.665 19.4708 176.706 19.882C176.714 19.9536 176.718 20.0725 176.718 20.2244C176.718 20.9625 176.633 22.4865 176.548 23.8227C176.505 24.4909 176.463 25.113 176.431 25.5678C176.399 26.0225 176.378 26.3092 176.378 26.31L176.479 26.3173L176.48 26.2155L165.47 26.1443L165.47 26.2461L165.558 26.2978C165.558 26.297 165.748 25.9717 166.043 25.4741C166.484 24.7282 167.159 23.5964 167.772 22.6025C168.078 22.1058 168.369 21.6433 168.608 21.2813C168.845 20.9206 169.036 20.6547 169.121 20.5709C169.365 20.3249 169.921 20.0009 170.537 19.6532C171.153 19.3038 171.833 18.9252 172.348 18.5412C172.852 18.1646 173.457 17.7481 173.935 17.4261C174.414 17.104 174.766 16.8772 174.766 16.8764L174.711 16.7909Z" fill="#3265B1"/>
<path d="M177.428 19.9857L177.432 20.0362L178.368 19.9531L178.364 19.9018C178.363 19.901 178.329 19.5688 178.329 19.0806C178.329 18.294 178.42 17.1068 178.878 16.2868L178.93 16.1936L178.825 16.2119C178.821 16.2135 177.269 16.4838 176.281 17.3156L176.258 17.3356L176.265 17.3661C176.406 17.9732 176.692 19.2541 176.755 19.8758C176.763 19.9511 176.767 20.0708 176.767 20.2235C176.767 20.9645 176.682 22.4884 176.597 23.8251C176.554 24.4936 176.511 25.1153 176.48 25.5701C176.448 26.0249 176.427 26.3119 176.427 26.3127L176.425 26.336L176.441 26.3526C176.442 26.3531 178.184 28.0814 178.695 28.5374L178.774 28.6074L178.833 27.5692L177.66 26.3176L177.478 19.9841L177.428 19.9857L177.377 19.9873L177.559 26.3592L178.73 27.6071L178.679 28.4963L178.73 28.4995L178.763 28.4613C178.511 28.2361 177.947 27.6901 177.448 27.2015C176.949 26.7126 176.514 26.2814 176.513 26.2802L176.477 26.3164L176.528 26.3201C176.528 26.3193 176.868 21.7169 176.869 20.2235C176.868 20.0688 176.865 19.9474 176.856 19.8656C176.792 19.2309 176.505 17.9524 176.364 17.3429L176.314 17.3547L176.347 17.3934C176.825 16.9899 177.45 16.7184 177.954 16.549C178.207 16.4643 178.429 16.4053 178.588 16.367C178.748 16.3287 178.842 16.3124 178.842 16.312L178.834 16.262L178.789 16.2371C178.316 17.0885 178.228 18.2863 178.228 19.0806C178.228 19.5737 178.262 19.9108 178.262 19.9124L178.313 19.9071L178.308 19.8562L177.375 19.9393L177.377 19.9873L177.428 19.9857Z" fill="#3265B1"/>
<path d="M178.728 28.5006L178.761 28.4623C178.509 28.2372 177.945 27.6912 177.446 27.2026C176.947 26.7137 176.512 26.2825 176.511 26.2813L176.497 26.267L169.719 26.223L169.736 26.2874C169.9 26.9099 170.534 27.9469 172.776 28.8479C175.455 29.9256 176.95 30.0453 178.763 30.0449C179.271 30.0449 179.803 30.0356 180.394 30.0356H180.528L178.761 28.4623L178.728 28.5006L178.693 28.5385L180.36 30.0225L180.394 29.9847V29.9338C179.802 29.9338 179.27 29.9431 178.763 29.9431C176.954 29.9423 175.485 29.8267 172.814 28.7535C170.59 27.8581 169.989 26.846 169.834 26.2613L169.785 26.2743L169.785 26.3252L176.475 26.3684V26.3175L176.44 26.3537C176.44 26.3541 178.182 28.0825 178.693 28.5385L178.728 28.5006Z" fill="#3265B1"/>
</svg>
