<svg width="101" height="74" viewBox="0 0 101 74" fill="none" xmlns="http://www.w3.org/2000/svg">
<g clip-path="url(#clip0_7554_21093)">
<path d="M26.0195 21.1074C33.573 20.1843 44.728 19.9805 54.7051 20.1162C64.3532 20.2474 72.8362 20.6946 75.8613 21.0967L75.5684 23.6797L73.5898 31.9688L28.208 31.9326L26.334 23.6611L26.0195 21.1074Z" fill="#3265B1" stroke="#3265B1"/>
<path d="M100.383 20.2232L100.496 20.1857C100.159 19.137 99.0349 18.1632 97.9488 17.8636C96.975 17.6014 94.3907 17.1895 93.3795 17.1895C93.3046 17.1895 93.2671 17.1895 93.2297 17.1895C92.7428 17.2269 92.3308 17.6014 92.0312 18.0509C91.6941 18.5003 91.4694 19.0621 91.3945 19.549C91.2821 20.1483 91.2072 21.2344 91.1698 21.946H91.2821V21.8336L89.4844 21.8711L92.2185 24.6052H92.2934C93.2671 24.5303 94.8027 24.3805 95.5143 24.3805H95.6267H95.7391C96.2634 24.3805 97.1623 24.3056 97.9488 24.1557C98.7728 24.0434 99.5218 23.8561 99.8964 23.7063C100.308 23.519 100.496 22.9947 100.608 22.5827C100.72 22.1333 100.72 21.7587 100.72 21.7587L100.533 20.1857L100.383 20.2232H100.271L100.458 21.7962C100.458 21.7962 100.458 21.8711 100.458 22.0209C100.421 22.2456 100.383 22.5827 100.308 22.8823C100.196 23.182 100.046 23.4441 99.8215 23.519C99.5218 23.6689 98.7353 23.8187 97.9113 23.9685C97.0874 24.0808 96.2259 24.1932 95.7391 24.1932H95.6267H95.5143C94.7653 24.1932 93.2671 24.3056 92.2934 24.4179V24.5303L92.3683 24.4554L90.0836 22.1707L91.3945 22.1333V22.0209C91.4319 21.3468 91.5443 20.2606 91.6192 19.6614C91.6941 19.2494 91.9188 18.6876 92.2185 18.2756C92.5181 17.8262 92.8926 17.5265 93.2297 17.5265C93.2671 17.5265 93.3046 17.5265 93.3795 17.5265C94.3158 17.5265 96.9376 17.9385 97.8739 18.1632C98.8477 18.4254 99.9338 19.3617 100.233 20.2981L100.383 20.2232Z" fill="black" fill-opacity="0.42"/>
<path d="M12.0688 22.0225V21.9102L10.5707 21.8727V21.9851H10.683C10.6456 21.3109 10.5332 20.2248 10.4583 19.5881C10.3834 19.1012 10.1587 18.5394 9.82161 18.0899C9.48453 17.6405 9.07254 17.266 8.62311 17.2285C8.58565 17.2285 8.51075 17.2285 8.47329 17.2285C7.46206 17.2285 4.91524 17.6405 3.904 17.9027C2.85532 18.2023 1.69427 19.1386 1.35719 20.2248L1.16992 21.7978C1.16992 21.7978 1.16992 22.2098 1.28228 22.6218C1.39464 23.0712 1.54445 23.5581 1.99389 23.7454C2.36842 23.8952 3.11749 24.0824 3.94146 24.1948C4.76543 24.3072 5.62685 24.4195 6.1512 24.4195H6.26355H6.37591C7.08752 24.4195 8.62311 24.5319 9.59689 24.6442H9.67179L12.4059 21.9102H12.1063L12.0688 22.0225L11.9939 21.9476L9.52198 24.4195L9.59689 24.4944V24.3821C8.62311 24.3072 7.08752 24.1574 6.37591 24.1574H6.26355H6.1512C5.62685 24.1574 4.76543 24.0824 3.97891 23.9326C3.15494 23.8203 2.40588 23.633 2.0688 23.4832C1.76917 23.3708 1.58191 22.9214 1.507 22.5094C1.46955 22.3596 1.43209 22.1349 1.43209 21.9851C1.43209 21.8353 1.43209 21.7604 1.43209 21.7604L1.61936 20.1873H1.507L1.61936 20.2248C1.91899 19.2884 3.00513 18.3521 3.97891 18.0899C4.91524 17.8278 7.53696 17.4532 8.47329 17.4532C8.51075 17.4532 8.58565 17.4532 8.62311 17.4532C8.96018 17.4532 9.33472 17.7903 9.63434 18.2023C9.93397 18.6143 10.1587 19.1761 10.2336 19.5881C10.346 20.1873 10.4209 21.2735 10.4583 21.9476V22.06L12.0688 22.0974V22.0225Z" fill="black" fill-opacity="0.42"/>
<path d="M100.12 20.2614L100.195 20.224C99.8954 19.3251 98.8841 18.4262 97.9104 18.164C96.9366 17.9019 94.3898 17.5273 93.4534 17.5273C93.416 17.5273 93.3411 17.5273 93.3036 17.5273C92.9665 17.5648 92.6295 17.8644 92.3298 18.239C92.0677 18.6509 91.8429 19.1378 91.768 19.5873C91.6557 20.1865 91.5808 21.3101 91.5433 21.9468L91.5059 22.209V22.2464L92.7793 24.2315H92.8167C93.7531 24.1566 94.9141 24.0442 95.5508 24.0442H95.7755C96.7868 24.0442 99.1463 23.7071 99.8205 23.4075C100.045 23.2951 100.195 23.033 100.27 22.6959C100.345 22.3963 100.42 22.0217 100.42 21.7596L100.232 20.224L100.12 20.2614H100.045L100.232 21.7596C100.232 22.0217 100.195 22.3588 100.083 22.6584C100.008 22.9581 99.8579 23.2202 99.7081 23.2951C99.1089 23.5573 96.7119 23.9318 95.7006 23.9318H95.4759C94.8392 23.9318 93.6781 24.0067 92.7418 24.1191V24.194L92.7793 24.1566L91.5808 22.2464V22.0217C91.6182 21.385 91.7306 20.2614 91.8055 19.6996C91.8804 19.2876 92.0677 18.7633 92.3673 18.3888C92.6295 18.0142 92.9665 17.7146 93.2287 17.7146C93.2662 17.7146 93.3036 17.7146 93.3411 17.7146C94.2774 17.7146 96.8242 18.0891 97.7605 18.3513C98.6969 18.6135 99.7081 19.5124 99.9703 20.3363L100.12 20.2614Z" fill="black" fill-opacity="0.42"/>
<path d="M1.73092 20.2611L1.80583 20.2985C2.068 19.4746 3.07924 18.5757 4.01557 18.3135C4.9519 18.0513 7.49871 17.6768 8.43504 17.6768C8.4725 17.6768 8.50995 17.6768 8.5474 17.6768C8.80957 17.6768 9.14665 17.9764 9.40882 18.351C9.671 18.7255 9.89572 19.2124 9.97062 19.6618C10.083 20.2611 10.1579 21.3847 10.1953 21.9839V22.2086L8.99684 24.1188L9.03429 24.1562V24.0813C8.09796 24.0064 6.93691 23.894 6.30021 23.894H6.07549C5.10171 23.894 2.70471 23.557 2.068 23.2573C1.91819 23.1824 1.76838 22.9577 1.69347 22.6206C1.61856 22.321 1.54366 21.9839 1.54366 21.7218L1.80583 20.2985L1.73092 20.2611H1.65602L1.46875 21.7592C1.46875 22.0214 1.5062 22.3959 1.61856 22.6955C1.73092 22.9952 1.84328 23.2948 2.068 23.4071C2.74216 23.7068 5.10171 24.0439 6.11294 24.0439H6.33766C6.93691 24.0439 8.13542 24.1188 9.07175 24.2311H9.1092L10.3452 22.2461L10.3077 21.9839C10.2702 21.3472 10.1579 20.2236 10.083 19.6244C10.0081 19.1749 9.78336 18.6506 9.52118 18.2761C9.25901 17.8641 8.92193 17.5645 8.5474 17.5645C8.50995 17.5645 8.4725 17.5645 8.39759 17.5645C7.42381 17.5645 4.87699 17.939 3.94066 18.2012C2.96688 18.4633 1.91819 19.3622 1.65602 20.2611H1.73092Z" fill="black" fill-opacity="0.42"/>
<path d="M34.0162 32.5089V32.5838H67.6491L69.0349 23.6699H32.2559L33.9787 32.5838H34.0162V32.5089H34.0911L32.4057 23.8197H68.9225L67.5742 32.4714H34.0162V32.5089Z" fill="black" fill-opacity="0.42"/>
<path d="M25.739 23.7452H25.6641L25.7764 24.1946V24.2321H76.0011L76.1135 23.7077V23.6328H25.6641V23.7077L25.739 23.7452V23.8201H76.1135V23.7452H76.0386L75.9262 24.1572H25.9262L25.8139 23.7452H25.739Z" fill="black" fill-opacity="0.42"/>
<path d="M73.6411 33.9322V33.8573H28.0605L28.7347 36.7412C28.7347 36.7412 28.8845 37.303 29.4463 37.9022C30.0081 38.464 30.9444 39.0258 32.5549 39.0258C35.701 39.0258 67.3115 39.0258 69.0343 39.0258C70.7946 39.0258 72.6673 38.2393 72.9669 36.7786C73.1167 36.1045 73.4164 34.9434 73.6785 33.9322H73.6411H73.716V33.4453L73.6036 33.8948C73.3414 34.906 73.0418 36.067 72.892 36.7412C72.6298 38.0895 70.7946 38.876 69.0718 38.876C67.3489 38.876 35.7384 38.876 32.5924 38.876C31.0193 38.876 30.1205 38.3142 29.5961 37.7899C29.334 37.5277 29.1467 37.2281 29.0718 37.0408C29.0343 36.9285 28.9969 36.8536 28.9594 36.7786C28.922 36.7037 28.922 36.7037 28.922 36.7037L28.2853 33.9697H73.716V33.8948H73.6411V33.9322Z" fill="black" fill-opacity="0.42"/>
<path d="M27.7988 32.5103V32.5852H74.0909V32.5477C74.2033 32.1732 74.2407 31.9485 74.2407 31.9485L74.3156 31.6488L76.1508 23.7837L76.5254 20.5253H76.4505C74.5029 20.3005 66.7875 19.4766 51.0572 19.4766C34.2407 19.4766 26.5628 20.4129 25.3269 20.5627H25.252L25.6265 23.7837L27.4617 31.6488L27.6864 32.5852H27.7239V32.5103H27.7988L27.649 31.6114L25.8138 23.7462L25.4392 20.6002H25.3643V20.6751C26.6003 20.5253 34.2782 19.5889 51.0572 19.5889C66.7875 19.5889 74.5029 20.4129 76.4505 20.6376V20.5627H76.3755L76.001 23.7462L74.1658 31.6114L74.0909 31.911C74.0909 31.911 74.016 32.1357 73.9411 32.5103H74.016V32.4354H27.7988V32.5103Z" fill="black" fill-opacity="0.42"/>
<path d="M86.712 53.446C86.712 53.446 85.6633 53.034 84.4648 52.622C83.2663 52.21 81.918 51.7981 81.2813 51.7606H19.4087C16.3375 51.7606 15.139 53.446 15.139 53.4834L15.0641 53.5958H87.0117L86.712 53.446ZM15.3263 53.446C15.6259 53.0715 16.8244 51.873 19.4087 51.873H81.2813C81.8806 51.873 83.2289 52.2849 84.4274 52.6969C85.0266 52.9216 85.5884 53.1089 86.0004 53.2587C86.1502 53.2962 86.2626 53.3711 86.3749 53.4085H15.3263V53.446ZM86.712 53.446C86.712 53.446 85.6633 53.034 84.4648 52.622C83.2663 52.21 81.918 51.7981 81.2813 51.7606H19.4087C16.3375 51.7606 15.139 53.446 15.139 53.4834L15.0641 53.5958H87.0117L86.712 53.446ZM15.3263 53.446C15.6259 53.0715 16.8244 51.873 19.4087 51.873H81.2813C81.8806 51.873 83.2289 52.2849 84.4274 52.6969C85.0266 52.9216 85.5884 53.1089 86.0004 53.2587C86.1502 53.2962 86.2626 53.3711 86.3749 53.4085H15.3263V53.446ZM86.712 53.446C86.712 53.446 85.6633 53.034 84.4648 52.622C83.2663 52.21 81.918 51.7981 81.2813 51.7606H19.4087C16.3375 51.7606 15.139 53.446 15.139 53.4834L15.0641 53.5958H87.0117L86.712 53.446ZM15.3263 53.446C15.6259 53.0715 16.8244 51.873 19.4087 51.873H81.2813C81.8806 51.873 83.2289 52.2849 84.4274 52.6969C85.0266 52.9216 85.5884 53.1089 86.0004 53.2587C86.1502 53.2962 86.2626 53.3711 86.3749 53.4085H15.3263V53.446ZM86.712 53.446C86.712 53.446 85.6633 53.034 84.4648 52.622C83.2663 52.21 81.918 51.7981 81.2813 51.7606H19.4087C16.3375 51.7606 15.139 53.446 15.139 53.4834L15.0641 53.5958H87.0117L86.712 53.446ZM15.3263 53.446C15.6259 53.0715 16.8244 51.873 19.4087 51.873H81.2813C81.8806 51.873 83.2289 52.2849 84.4274 52.6969C85.0266 52.9216 85.5884 53.1089 86.0004 53.2587C86.1502 53.2962 86.2626 53.3711 86.3749 53.4085H15.3263V53.446ZM86.712 53.446C86.712 53.446 85.6633 53.034 84.4648 52.622C83.2663 52.21 81.918 51.7981 81.2813 51.7606H19.4087C16.3375 51.7606 15.139 53.446 15.139 53.4834L15.0641 53.5958H87.0117L86.712 53.446ZM15.3263 53.446C15.6259 53.0715 16.8244 51.873 19.4087 51.873H81.2813C81.8806 51.873 83.2289 52.2849 84.4274 52.6969C85.0266 52.9216 85.5884 53.1089 86.0004 53.2587C86.1502 53.2962 86.2626 53.3711 86.3749 53.4085H15.3263V53.446ZM86.712 53.446C86.712 53.446 85.6633 53.034 84.4648 52.622C83.2663 52.21 81.918 51.7981 81.2813 51.7606H19.4087C16.3375 51.7606 15.139 53.446 15.139 53.4834L15.0641 53.5958H87.0117L86.712 53.446ZM15.3263 53.446C15.6259 53.0715 16.8244 51.873 19.4087 51.873H81.2813C81.8806 51.873 83.2289 52.2849 84.4274 52.6969C85.0266 52.9216 85.5884 53.1089 86.0004 53.2587C86.1502 53.2962 86.2626 53.3711 86.3749 53.4085H15.3263V53.446ZM92.6296 50.5246C92.5922 50.5246 92.5547 50.4872 92.5173 50.4497C90.8693 49.7007 86.6371 48.0527 81.506 48.0527H17.948C17.1615 48.0527 12.4798 48.8018 9.2963 50.1501C9.25884 50.1501 9.22139 50.1876 9.18394 50.1876L9.14648 50.225V50.2625C9.52102 52.0602 9.97045 53.7082 10.4573 54.7943C11.4686 57.0415 12.5173 58.0902 13.9405 58.2774C14.0903 58.2774 14.2776 58.3149 14.4648 58.3149H87.4611C89.1465 58.3149 90.345 57.3411 91.4686 54.8318C91.918 53.7831 92.3675 52.2475 92.742 50.5995V50.5621L92.6296 50.5246ZM91.3188 54.7569C90.1952 57.2662 89.0716 58.1651 87.4236 58.1651H14.4274C14.2776 58.1651 14.1278 58.1651 13.9779 58.1276C12.5547 57.9778 11.5435 57.004 10.5323 54.7194C10.0454 53.6333 9.59592 52.0228 9.22139 50.2625C9.22139 50.2625 9.25884 50.2625 9.2963 50.225C9.55847 50.1127 9.82064 50.0003 10.1203 49.8879C10.2326 49.8505 10.345 49.813 10.4573 49.7756C10.6072 49.7381 10.7195 49.7007 10.8693 49.6258C11.0566 49.5509 11.2813 49.5134 11.4686 49.4385C11.918 49.2887 12.3675 49.1763 12.8169 49.064C12.9293 49.0265 13.0416 48.9891 13.154 48.9891C13.2663 48.9516 13.3787 48.9142 13.4911 48.9142C13.566 48.8767 13.6783 48.8767 13.7532 48.8392C13.9779 48.7643 14.2401 48.7269 14.4648 48.6894C14.5772 48.652 14.727 48.652 14.8394 48.6145C15.2514 48.5396 15.6259 48.4647 16.0004 48.3898C16.1877 48.3524 16.3375 48.3149 16.4873 48.3149C16.5622 48.3149 16.6371 48.2775 16.712 48.2775C16.712 48.2775 16.7495 48.2775 16.7869 48.2775C16.8618 48.2775 16.9742 48.24 17.0491 48.24C17.124 48.24 17.1615 48.24 17.2364 48.2025C17.3113 48.2025 17.3487 48.2025 17.4236 48.1651C17.4985 48.1651 17.536 48.1651 17.6109 48.1276C17.6858 48.1276 17.7607 48.1276 17.7982 48.1276C17.8731 48.1276 17.948 48.1276 17.9854 48.1276H81.506C81.7682 48.1276 82.0304 48.1276 82.2925 48.1276C82.4049 48.1276 82.5547 48.1276 82.6671 48.1276C82.7794 48.1276 82.9293 48.1276 83.0416 48.1651C83.154 48.1651 83.2663 48.1651 83.3787 48.2025C83.6034 48.2025 83.8281 48.24 84.0528 48.2775C84.2027 48.2775 84.3525 48.3149 84.4648 48.3149C84.5397 48.3149 84.6521 48.3524 84.727 48.3524C84.9892 48.3898 85.2514 48.4273 85.5135 48.4647C85.7757 48.5022 86.0004 48.5396 86.2626 48.6145C86.3375 48.6145 86.4124 48.652 86.4499 48.652C86.5622 48.6894 86.712 48.6894 86.8244 48.7269C87.0866 48.7643 87.3113 48.8393 87.536 48.8767C87.7982 48.9516 88.0229 48.9891 88.2851 49.064C88.5098 49.1389 88.7345 49.1763 88.9967 49.2512C89.109 49.2887 89.2214 49.3261 89.3337 49.3636C89.4461 49.401 89.5585 49.4385 89.6708 49.476C89.7457 49.5134 89.8206 49.5134 89.8955 49.5509C89.9705 49.5883 90.0454 49.5883 90.1203 49.6258C90.2701 49.6632 90.3824 49.7007 90.5322 49.7756C90.7195 49.8505 90.9068 49.8879 91.0566 49.9628C91.169 50.0003 91.2813 50.0378 91.3562 50.0752C91.506 50.1127 91.6184 50.1876 91.7308 50.225C92.0304 50.3374 92.2551 50.4497 92.4798 50.5246C92.4798 50.5246 92.5173 50.5246 92.5547 50.5621C92.1802 52.2475 91.7682 53.7456 91.3188 54.7569ZM84.5023 52.5846C83.3038 52.1726 81.9555 51.7606 81.3188 51.7231H19.4087C16.3375 51.7231 15.139 53.4085 15.139 53.446L15.0641 53.5584H87.0117L86.712 53.446C86.712 53.446 85.6633 52.9966 84.5023 52.5846ZM15.3263 53.446C15.6259 53.0715 16.8244 51.873 19.4087 51.873H81.2813C81.8806 51.873 83.2289 52.2849 84.4274 52.6969C85.0266 52.9216 85.5884 53.1089 86.0004 53.2587C86.1502 53.2962 86.2626 53.3711 86.3749 53.4085H15.3263V53.446ZM86.712 53.446C86.712 53.446 85.6633 53.034 84.4648 52.622C83.2663 52.21 81.918 51.7981 81.2813 51.7606H19.4087C16.3375 51.7606 15.139 53.446 15.139 53.4834L15.0641 53.5958H87.0117L86.712 53.446ZM15.3263 53.446C15.6259 53.0715 16.8244 51.873 19.4087 51.873H81.2813C81.8806 51.873 83.2289 52.2849 84.4274 52.6969C85.0266 52.9216 85.5884 53.1089 86.0004 53.2587C86.1502 53.2962 86.2626 53.3711 86.3749 53.4085H15.3263V53.446ZM86.712 53.446C86.712 53.446 85.6633 53.034 84.4648 52.622C83.2663 52.21 81.918 51.7981 81.2813 51.7606H19.4087C16.3375 51.7606 15.139 53.446 15.139 53.4834L15.0641 53.5958H87.0117L86.712 53.446ZM15.3263 53.446C15.6259 53.0715 16.8244 51.873 19.4087 51.873H81.2813C81.8806 51.873 83.2289 52.2849 84.4274 52.6969C85.0266 52.9216 85.5884 53.1089 86.0004 53.2587C86.1502 53.2962 86.2626 53.3711 86.3749 53.4085H15.3263V53.446ZM86.712 53.446C86.712 53.446 85.6633 53.034 84.4648 52.622C83.2663 52.21 81.918 51.7981 81.2813 51.7606H19.4087C16.3375 51.7606 15.139 53.446 15.139 53.4834L15.0641 53.5958H87.0117L86.712 53.446ZM15.3263 53.446C15.6259 53.0715 16.8244 51.873 19.4087 51.873H81.2813C81.8806 51.873 83.2289 52.2849 84.4274 52.6969C85.0266 52.9216 85.5884 53.1089 86.0004 53.2587C86.1502 53.2962 86.2626 53.3711 86.3749 53.4085H15.3263V53.446ZM86.712 53.446C86.712 53.446 85.6633 53.034 84.4648 52.622C83.2663 52.21 81.918 51.7981 81.2813 51.7606H19.4087C16.3375 51.7606 15.139 53.446 15.139 53.4834L15.0641 53.5958H87.0117L86.712 53.446ZM15.3263 53.446C15.6259 53.0715 16.8244 51.873 19.4087 51.873H81.2813C81.8806 51.873 83.2289 52.2849 84.4274 52.6969C85.0266 52.9216 85.5884 53.1089 86.0004 53.2587C86.1502 53.2962 86.2626 53.3711 86.3749 53.4085H15.3263V53.446ZM86.712 53.446C86.712 53.446 85.6633 53.034 84.4648 52.622C83.2663 52.21 81.918 51.7981 81.2813 51.7606H19.4087C16.3375 51.7606 15.139 53.446 15.139 53.4834L15.0641 53.5958H87.0117L86.712 53.446ZM15.3263 53.446C15.6259 53.0715 16.8244 51.873 19.4087 51.873H81.2813C81.8806 51.873 83.2289 52.2849 84.4274 52.6969C85.0266 52.9216 85.5884 53.1089 86.0004 53.2587C86.1502 53.2962 86.2626 53.3711 86.3749 53.4085H15.3263V53.446ZM86.712 53.446C86.712 53.446 85.6633 53.034 84.4648 52.622C83.2663 52.21 81.918 51.7981 81.2813 51.7606H19.4087C16.3375 51.7606 15.139 53.446 15.139 53.4834L15.0641 53.5958H87.0117L86.712 53.446ZM15.3263 53.446C15.6259 53.0715 16.8244 51.873 19.4087 51.873H81.2813C81.8806 51.873 83.2289 52.2849 84.4274 52.6969C85.0266 52.9216 85.5884 53.1089 86.0004 53.2587C86.1502 53.2962 86.2626 53.3711 86.3749 53.4085H15.3263V53.446ZM86.712 53.446C86.712 53.446 85.6633 53.034 84.4648 52.622C83.2663 52.21 81.918 51.7981 81.2813 51.7606H19.4087C16.3375 51.7606 15.139 53.446 15.139 53.4834L15.0641 53.5958H87.0117L86.712 53.446ZM15.3263 53.446C15.6259 53.0715 16.8244 51.873 19.4087 51.873H81.2813C81.8806 51.873 83.2289 52.2849 84.4274 52.6969C85.0266 52.9216 85.5884 53.1089 86.0004 53.2587C86.1502 53.2962 86.2626 53.3711 86.3749 53.4085H15.3263V53.446Z" fill="black" fill-opacity="0.42"/>
<path d="M80.1201 4.30708C80.0826 4.34453 80.0826 4.34453 80.1201 4.30708C80.1201 4.38199 80.1575 4.41944 80.195 4.5318C80.1575 4.49435 80.1575 4.38199 80.1201 4.30708ZM92.592 25.0561V25.0187C92.5171 24.8314 92.4796 24.6816 92.4421 24.6067C92.4421 24.5693 92.4047 24.5318 92.4047 24.5318L89.6706 21.7977C89.5208 21.5355 87.386 17.4906 85.1762 13.3708C83.1538 9.58798 81.0564 5.69285 80.4197 4.56925C80.3448 4.41944 80.2699 4.34453 80.2324 4.26963C80.195 4.23217 80.195 4.19472 80.1575 4.11981C80.0826 4.00745 79.9702 3.85764 79.8579 3.74528L79.5957 3.4082L79.7455 3.78273C79.783 3.85764 79.8204 3.93255 79.8204 4.00745C81.0564 7.00371 83.6407 13.2209 84.0526 14.6816C84.1275 14.9438 84.165 15.206 84.165 15.5056C84.165 17.1535 82.929 19.1385 80.7568 21.0112C80.7193 21.0487 80.7193 21.0487 80.6818 21.0861L80.6069 21.161L80.6818 21.1985C81.0938 21.4232 81.5807 21.8726 82.0676 22.2846C82.5545 22.6966 83.0789 23.1086 83.4908 23.2584C84.2399 23.5206 86.0751 24.0075 86.8991 24.8689L86.9365 24.8314V24.8689H87.0863H87.1612L92.3672 25.1311H92.5545C92.6294 25.1311 92.592 25.0936 92.592 25.0561ZM92.4421 25.0187H92.3672L87.0863 24.7565H86.974C86.1126 23.8576 84.2774 23.4082 83.5283 23.146C83.1538 22.9962 82.6294 22.6217 82.1425 22.2097C81.6931 21.7977 81.2062 21.3857 80.7942 21.161L80.8317 21.1236C83.0039 19.2134 84.2399 17.2659 84.2399 15.543C84.2399 15.2434 84.2024 14.9438 84.1275 14.6816C83.7905 13.5206 82.1425 9.40071 80.8317 6.25465C80.6069 5.69285 80.3822 5.13105 80.1575 4.64416C80.1575 4.64416 80.1575 4.64416 80.1575 4.60671C80.12 4.5318 80.0826 4.45689 80.0826 4.38199C80.0826 4.34453 80.0451 4.30708 80.0451 4.26963C80.0826 4.30708 80.0826 4.34453 80.1201 4.38199C80.2324 4.5318 80.5695 5.1685 81.0564 6.10483C81.9927 7.86513 83.5283 10.6741 85.0264 13.4831C86.1875 15.6179 87.3111 17.7528 88.135 19.3258C88.547 20.1123 88.9215 20.7865 89.1463 21.2359C89.371 21.6854 89.5208 21.9475 89.5208 21.9475L89.5583 21.985L90.3822 22.809L92.2549 24.6816C92.2549 24.6816 92.2549 24.6816 92.2549 24.7191C92.3298 24.6816 92.3672 24.8314 92.4421 25.0187Z" fill="black" fill-opacity="0.42"/>
<path d="M22.5928 3.14591C22.1059 3.52044 21.8437 3.89497 21.6564 4.1946C21.619 4.2695 21.5066 4.41931 21.3943 4.68149C20.6452 5.99235 18.6976 9.66276 16.7501 13.2957C14.5403 17.4156 12.4055 21.4605 12.2557 21.7227L12.1433 21.835L12.1059 21.8725L9.63395 24.3444L9.5965 24.4193L9.52159 24.4942C9.52159 24.4942 9.52159 24.5317 9.48414 24.5691C9.44669 24.644 9.40923 24.7938 9.33433 24.9811V25.0186C9.33433 25.056 9.33433 25.056 9.29688 25.0935H9.44669H9.52159L14.7276 24.8313H14.9898C15.8137 23.9699 17.6489 23.483 18.398 23.2208C18.8474 23.071 19.3343 22.659 19.8587 22.2096C20.383 21.7601 20.8699 21.3107 21.2819 21.1234C21.3193 21.086 21.3943 21.086 21.4317 21.0485L21.5066 21.0111L21.4317 20.9362C21.3943 20.8987 21.3568 20.8987 21.3568 20.8613C19.2594 18.9886 18.0609 17.0785 18.0609 15.468C18.0609 15.1684 18.0984 14.9062 18.1733 14.644C18.6227 13.071 21.5815 5.9549 22.6677 3.33317C22.6677 3.29572 22.7051 3.25827 22.7051 3.22081L22.78 2.99609L22.5928 3.14591ZM22.4055 3.55789C21.2444 6.36688 18.4355 13.1085 17.986 14.644C17.9111 14.9062 17.8737 15.2058 17.8737 15.5055C17.8737 17.1909 19.0722 19.101 21.1695 20.9736L21.207 21.0111C21.1695 21.0111 21.1695 21.0485 21.1321 21.0485C20.7201 21.2732 20.1958 21.7227 19.7089 22.1347C19.1845 22.5467 18.6976 22.9586 18.2856 23.1085C17.5366 23.3706 15.7388 23.8201 14.8399 24.7189H14.7276L13.4167 24.7938L9.48414 25.0186H9.40923C9.48414 24.8313 9.52159 24.6815 9.55905 24.644V24.6066L11.0197 23.1459L11.1321 23.071L11.4317 22.7714L11.9935 22.2096L12.031 22.1721L12.2931 21.91C12.2931 21.91 12.4429 21.6478 12.6677 21.1983C13.5291 19.5879 15.6639 15.5804 17.6489 11.8725C18.7725 9.77512 19.8587 7.75265 20.6077 6.32943C21.207 5.24328 21.5815 4.53167 21.6939 4.38186C21.6939 4.38186 21.6939 4.38186 21.6939 4.34441C21.8437 4.08224 22.031 3.78261 22.4055 3.48299C22.4429 3.44553 22.4429 3.48299 22.4055 3.55789Z" fill="black" fill-opacity="0.42"/>
<path d="M94.2407 34.5689C94.2407 34.3817 94.2407 32.3217 94.0159 30.4116C93.8287 28.9135 93.0047 26.3292 92.6302 25.1682C92.6302 25.1307 92.5927 25.0933 92.5927 25.0933V25.0558H92.4804H92.4054L87.1245 24.7937H87.0496H86.8624L86.9747 24.906C87.0496 24.9809 87.1245 25.0933 87.1995 25.2056C87.5365 25.73 88.2481 27.3779 88.8474 28.8761C89.147 29.6251 89.4466 30.3367 89.6339 30.8611C89.7463 31.1981 89.8586 31.4229 89.9335 31.5727C89.9335 31.6101 89.9335 31.6101 89.971 31.6476H88.4354V31.7225C88.4354 31.7599 88.4354 31.7974 88.4354 31.8349C88.4729 32.097 88.5103 32.3967 88.5103 32.7712C88.5103 33.5952 88.3605 34.6438 87.7613 35.4678C87.162 36.2918 86.1133 36.9659 84.3156 37.0783C82.4804 37.1532 80.2706 37.1907 78.1732 37.1907C76.2631 37.1907 74.4654 37.1532 73.0047 37.1532H72.8549V37.1907C72.8549 37.2281 72.8174 37.2656 72.8174 37.303C72.78 37.3779 72.7425 37.4528 72.7051 37.5277C72.7051 37.5652 72.6676 37.6026 72.6302 37.6401C72.5927 37.6776 72.5553 37.7525 72.5178 37.7899C72.4429 37.8648 72.368 37.9397 72.2931 38.0146C72.2182 38.0521 72.1807 38.127 72.1058 38.1644C72.0309 38.2019 71.956 38.2768 71.8811 38.3143C71.8062 38.3517 71.7313 38.3892 71.6564 38.4641C71.5815 38.5015 71.5066 38.539 71.4317 38.5764C71.4317 38.5764 71.4317 38.5764 71.3942 38.5764C71.3568 38.6139 71.2818 38.6139 71.2444 38.6513H71.2069C71.2069 38.6513 71.1695 38.6513 71.132 38.6888H71.0946C71.0197 38.6888 70.9822 38.7262 70.9073 38.7262C70.9073 38.7262 70.8699 38.7262 70.8324 38.7262C70.7575 38.7637 70.7201 38.7637 70.6451 38.8011C70.5702 38.8011 70.5328 38.8386 70.4579 38.8386C70.383 38.8761 70.2706 38.8761 70.1957 38.8761C70.1208 38.8761 70.0834 38.9135 70.0084 38.9135C69.9335 38.9135 69.8586 38.951 69.7463 38.951C69.6714 38.951 69.6339 38.951 69.559 38.951C69.5215 38.951 69.4841 38.951 69.4092 38.951C69.2968 38.951 69.2219 38.951 69.1096 38.951H32.5553C32.4429 38.951 32.368 38.951 32.2556 38.951C32.1807 38.951 32.1058 38.951 32.0684 38.951C32.0309 38.951 31.9935 38.951 31.9186 38.951H31.8811C31.8436 38.951 31.7687 38.951 31.7313 38.9135H31.6938C31.6189 38.9135 31.544 38.8761 31.5066 38.8761C31.4317 38.8761 31.3942 38.8386 31.3193 38.8386C31.2819 38.8386 31.2444 38.8386 31.2069 38.8011C31.1695 38.8011 31.132 38.7637 31.0571 38.7637C30.9073 38.7262 30.795 38.6888 30.6826 38.6139C30.6451 38.6139 30.6077 38.5764 30.5702 38.5764C30.5328 38.5764 30.4953 38.539 30.4579 38.539C30.4204 38.5015 30.383 38.5015 30.3081 38.4641C30.2706 38.4641 30.2706 38.4266 30.2332 38.4266C30.1583 38.3892 30.0833 38.3517 30.0084 38.2768C29.7837 38.127 29.559 37.9397 29.4092 37.7525C29.3343 37.6775 29.2968 37.6026 29.2594 37.5652C29.2594 37.5652 29.2594 37.5652 29.2219 37.5277C29.1845 37.4903 29.147 37.4528 29.147 37.3779C29.1096 37.3405 29.1096 37.303 29.0721 37.2656C29.0347 37.2281 28.9972 37.1532 28.9972 37.1158V37.0783H28.8474C27.3867 37.1158 25.5141 37.1158 23.6039 37.1158C21.5066 37.1158 19.2968 37.0783 17.4616 37.0034C15.6639 36.9285 14.6152 36.2543 14.0159 35.3929C13.4167 34.5315 13.2669 33.5202 13.2669 32.6963C13.2669 32.3217 13.3043 32.0221 13.3418 31.7599C13.3418 31.7225 13.3418 31.685 13.3418 31.6476V31.5727H11.956C11.956 31.5727 11.956 31.5352 11.9935 31.4978C12.0684 31.348 12.1433 31.0858 12.2931 30.7862C12.9298 29.2131 14.2032 25.9173 14.7275 25.1307C14.8024 25.0184 14.8774 24.9435 14.9523 24.8311L15.0646 24.7188H14.9148H14.8774H14.8024L13.4167 24.7937L9.4841 24.9809H9.40919H9.25938V25.0184C9.25938 25.0558 9.25938 25.0558 9.22192 25.0933C8.84739 26.2543 8.02342 28.8386 7.83616 30.3367C7.61144 32.2094 7.61144 34.2693 7.61144 34.494L7.38672 35.2431C7.38672 35.2431 7.76125 40.6364 8.06088 43.7075C8.09833 44.082 8.13578 44.4566 8.21069 44.906C8.3605 46.1794 8.62267 47.6776 8.9223 49.1757V49.2506L8.99721 49.2131C9.03466 49.2131 9.07211 49.1757 9.10957 49.1757C12.2556 47.7525 17.1995 46.9659 17.986 46.9659H81.5066C86.8998 46.9659 91.2819 48.8011 92.7425 49.4753C92.78 49.5128 92.8174 49.5128 92.8549 49.5128L92.9298 49.5502V49.4753C93.3418 47.4154 93.6789 45.2805 93.8287 43.745C93.8661 43.2581 93.941 42.6963 93.9785 42.1345C94.0908 40.8611 94.2032 39.4753 94.2781 38.2393C94.3905 36.554 94.5028 35.2805 94.5028 35.2805L94.2407 34.5689ZM94.3156 36.1794C94.2781 36.6663 94.2407 37.3779 94.1657 38.127C94.0908 39.3629 93.9785 40.8236 93.8287 42.1345C93.7912 42.6963 93.7163 43.2581 93.6789 43.745C93.529 45.2431 93.192 47.3779 92.78 49.4004C92.78 49.4004 92.7425 49.4004 92.7051 49.3629C92.6302 49.3255 92.5178 49.288 92.4429 49.2506C92.3305 49.2131 92.2182 49.1757 92.1058 49.1008C92.0684 49.1008 92.0309 49.0633 91.9935 49.0633C91.8062 48.9884 91.6189 48.9135 91.4317 48.8386C91.3568 48.8011 91.3193 48.8011 91.2444 48.7637C90.1583 48.3517 88.735 47.8648 87.0122 47.4903C86.75 47.4528 86.4878 47.3779 86.2257 47.3405C85.926 47.303 85.589 47.2281 85.2893 47.1907C85.1395 47.1532 84.9897 47.1532 84.8399 47.1158C84.6901 47.1158 84.5403 47.0783 84.3905 47.0408L83.8661 47.0034C83.7538 47.0034 83.604 46.9659 83.4916 46.9659C83.2669 46.9659 83.0047 46.9285 82.7425 46.9285C82.5553 46.9285 82.3305 46.9285 82.1058 46.891C81.8811 46.891 81.6564 46.891 81.4317 46.891H17.9485C17.8362 46.891 17.6863 46.891 17.4616 46.9285C17.3493 46.9285 17.2369 46.9659 17.0871 46.9659C17.0122 46.9659 16.9373 46.9659 16.8624 47.0034C16.7875 47.0034 16.7126 47.0034 16.6377 47.0408H16.6002C16.4878 47.0408 16.3755 47.0783 16.2631 47.0783C15.9635 47.1158 15.6264 47.1907 15.2893 47.2656C15.1021 47.303 14.8774 47.3405 14.6901 47.3779C14.0534 47.4903 13.3792 47.6776 12.7051 47.8274C12.4804 47.9023 12.2556 47.9397 12.0309 48.0146C11.956 48.0146 11.8811 48.0521 11.8436 48.0895C11.544 48.1644 11.2819 48.2393 11.0197 48.3517C10.8699 48.3892 10.7575 48.4266 10.6451 48.4641C10.4204 48.539 10.1957 48.6139 9.97099 48.6888C9.82118 48.7637 9.67136 48.8011 9.52155 48.8761C9.37174 48.951 9.22192 48.9884 9.07211 49.0633C9.07211 49.0633 9.03466 49.0633 8.99721 49.1008C8.69758 47.6401 8.47286 46.1794 8.32305 44.9435C8.24814 44.5315 8.21069 44.1195 8.17324 43.745C8.02342 42.2094 7.83616 40.112 7.7238 38.3892C7.7238 38.3892 7.7238 38.3892 7.7238 38.3517C7.64889 37.4903 7.61144 36.7038 7.57398 36.142C7.53653 35.6551 7.49908 35.318 7.49908 35.2431L7.7238 34.5315C7.7238 34.5315 7.7238 33.9697 7.76125 33.1832C7.7987 32.3967 7.83616 31.348 7.94852 30.3367C8.13578 28.8386 8.95975 26.2169 9.33428 25.0558H9.40919L14.6152 24.7937H14.6901C14.6152 24.8686 14.5777 24.906 14.5403 24.9809C14.2032 25.5427 13.4916 27.1532 12.8923 28.6513C12.2931 30.1495 11.7687 31.4978 11.7687 31.4978L11.7313 31.5727H13.1545C13.1545 31.5727 13.1545 31.6101 13.1545 31.6476C13.1171 31.9098 13.0796 32.2094 13.0796 32.5839C13.0796 33.4453 13.2294 34.494 13.8661 35.3555C13.8661 35.3555 13.8661 35.3555 13.9036 35.3929C14.5403 36.2543 15.589 36.9285 17.4242 37.0034C19.2594 37.0783 21.4691 37.1158 23.5665 37.1158C25.5141 37.1158 27.4242 37.0783 28.8848 37.0408C28.9598 37.1532 29.0347 37.303 29.147 37.4903C29.147 37.5277 29.1845 37.5277 29.2219 37.5652C29.2594 37.6026 29.2968 37.6401 29.3343 37.715C29.3717 37.7525 29.3717 37.7525 29.4092 37.7899C29.4466 37.8274 29.4841 37.8648 29.5215 37.9023C29.559 37.9397 29.5965 37.9772 29.6339 38.0146C29.6339 38.0146 29.6339 38.0146 29.6714 38.0521C29.7088 38.0895 29.7463 38.127 29.7837 38.127C29.8212 38.1644 29.8586 38.2019 29.8961 38.2393C29.9335 38.2768 30.0084 38.3143 30.0459 38.3517C30.0833 38.3892 30.1583 38.4266 30.1957 38.4266C30.2706 38.4641 30.3081 38.5015 30.383 38.5015C30.5702 38.5764 30.7575 38.6888 30.9822 38.7262C31.0571 38.7637 31.132 38.7637 31.2069 38.8011C31.2818 38.8386 31.3568 38.8386 31.4317 38.8386C31.5066 38.8386 31.5815 38.8761 31.6938 38.8761C31.7687 38.8761 31.8811 38.9135 31.956 38.9135C32.0309 38.9135 32.1433 38.9135 32.2182 38.9135C32.2931 38.9135 32.4054 38.9135 32.5178 38.9135H69.0347C69.147 38.9135 69.2219 38.9135 69.3343 38.9135C69.4092 38.9135 69.4466 38.9135 69.5216 38.9135C69.5965 38.9135 69.6339 38.9135 69.7088 38.9135C69.8212 38.9135 69.8961 38.8761 70.0084 38.8761C70.0459 38.8761 70.0459 38.8761 70.0834 38.8761C70.1583 38.8761 70.2332 38.8386 70.3081 38.8386C70.3455 38.8386 70.383 38.8386 70.4204 38.8011C70.4579 38.8011 70.4953 38.7637 70.5702 38.7637C70.6451 38.7637 70.7575 38.7262 70.8324 38.6888C70.9073 38.6513 71.0197 38.6513 71.0946 38.6139C71.132 38.6139 71.132 38.6139 71.1695 38.5764H71.2069C71.2819 38.539 71.3193 38.539 71.3942 38.5015C71.4317 38.5015 71.4691 38.4641 71.5066 38.4266C71.544 38.3892 71.5815 38.3892 71.6189 38.3517C71.6938 38.3143 71.7313 38.2768 71.8062 38.2393C71.8062 38.2393 71.8437 38.2393 71.8437 38.2019C71.8811 38.1644 71.9186 38.1644 71.956 38.127C71.9935 38.0895 72.0684 38.0521 72.1058 38.0146C72.1058 38.0146 72.1058 38.0146 72.1433 37.9772C72.1807 37.9397 72.2556 37.9023 72.2931 37.8274C72.368 37.7899 72.4054 37.715 72.4804 37.6401C72.4804 37.6401 72.4804 37.6401 72.4804 37.6026C72.5178 37.5652 72.5553 37.5277 72.5927 37.4903C72.6302 37.4528 72.6302 37.4154 72.6676 37.3779C72.6676 37.3779 72.6676 37.3779 72.7051 37.3405C72.7425 37.2656 72.78 37.1907 72.8549 37.1158C72.8549 37.0783 72.8923 37.0783 72.8923 37.0408C74.353 37.0783 76.1882 37.0783 78.0983 37.0783C80.1957 37.0783 82.4054 37.0408 84.2407 36.9659C86.0759 36.891 87.162 36.1794 87.7987 35.318C87.7987 35.2805 87.8362 35.2805 87.8362 35.2431C88.4354 34.3817 88.5852 33.333 88.5852 32.5465C88.5852 32.1719 88.5478 31.8723 88.5103 31.6101C88.5103 31.6101 88.5103 31.5727 88.5103 31.5352H90.0834L90.0459 31.4603C90.0459 31.4603 89.5216 30.112 88.9223 28.6139C88.3231 27.1158 87.6114 25.4678 87.2744 24.9435C87.2369 24.8686 87.1995 24.8311 87.1245 24.7562H87.1995L92.4054 25.0184H92.4804C92.8549 26.142 93.6789 28.7637 93.8661 30.2618C93.9785 31.2731 94.0534 32.2843 94.0908 33.1083C94.1283 33.8948 94.1283 34.4566 94.1283 34.4566L94.353 35.1682C94.353 35.3555 94.3156 35.6925 94.3156 36.1794Z" fill="black" fill-opacity="0.42"/>
<path d="M87.2748 25.0564C87.2374 24.9815 87.1999 24.944 87.125 24.8691H87.1999C87.2374 24.9066 87.2748 24.9815 87.3123 25.019C87.6868 25.5808 88.361 27.2287 88.9602 28.7268C89.5595 30.2249 90.0838 31.5733 90.0838 31.5733L90.1587 31.7231H88.5108C88.5108 31.7231 88.5108 31.6856 88.5108 31.6482H90.0838L90.0463 31.5733C90.0463 31.5733 89.522 30.2249 88.9228 28.7268C88.3235 27.2287 87.6119 25.6182 87.2748 25.0564Z" fill="#3265B1"/>
<path d="M13.1915 31.7231H11.6934L11.7683 31.5733C11.7683 31.5733 12.2926 30.2249 12.8919 28.7268C13.4911 27.2287 14.2027 25.6182 14.5398 25.019C14.5773 24.9815 14.6147 24.9066 14.6522 24.8691H14.7271C14.6522 24.944 14.6147 24.9815 14.5773 25.0564C14.2402 25.6182 13.5286 27.2287 12.9293 28.7268C12.3301 30.2249 11.8057 31.5733 11.8057 31.5733L11.7683 31.6482H13.1915C13.1915 31.6856 13.1915 31.7231 13.1915 31.7231Z" fill="#3265B1"/>
<path d="M87.2751 58.313L87.2002 58.2006L87.1627 58.1632C86.3762 56.9272 84.3912 54.6426 80.9455 54.6426H18.9979C18.174 54.6426 17.2002 55.0546 16.3013 55.7287C15.4024 56.3654 14.5785 57.2269 14.0541 58.1632C14.0541 58.1632 14.0167 58.2006 14.0167 58.2381L13.9418 58.3504L13.9043 58.4254H14.0167C14.0916 58.4254 14.129 58.4254 14.2039 58.4254C14.2788 58.4254 14.3537 58.4254 14.4286 58.4254H87.2751V58.313ZM16.4511 55.8785C17.35 55.2418 18.2863 54.8298 19.0354 54.8298H80.9455C84.129 54.8298 86.0391 56.8898 86.8631 58.0883H14.4286C14.3912 58.0883 14.3537 58.0883 14.3163 58.0883C14.8406 57.3018 15.6271 56.4778 16.4511 55.8785Z" fill="black" fill-opacity="0.42"/>
<path d="M80.1954 4.26964L80.3078 4.19473C80.2703 4.15728 80.2329 4.11983 80.1954 4.04492L79.9707 4.15728L88.1355 22.0974L90.8696 23.1086V22.9213L89.6711 21.7228L89.5962 21.7977L89.7085 21.7228C89.7085 21.7228 87.4988 17.5655 85.2141 13.2584C84.0531 11.1236 82.9295 8.95129 81.9932 7.2659C81.5437 6.44193 81.1318 5.69286 80.8321 5.16852C80.5325 4.64417 80.3452 4.26964 80.2703 4.15728L80.1954 4.26964L80.0831 4.34455C80.158 4.45691 80.3452 4.79399 80.6449 5.31833C81.6936 7.19099 83.9033 11.3483 85.8509 14.9813C86.8246 16.8165 87.7235 18.5393 88.3977 19.7753C89.0718 21.0487 89.4838 21.8352 89.4838 21.8352L90.6823 23.0337L90.7572 22.9588L90.7947 22.8464L88.3228 21.9101L80.1954 4.04492L80.0831 4.08237L79.9707 4.15728C80.0082 4.19473 80.0456 4.26964 80.0831 4.30709L80.1954 4.26964Z" fill="black" fill-opacity="0.42"/>
<path d="M11.0943 22.9594L11.1318 23.0717L13.6786 22.1354L21.8059 4.30767L21.5812 4.19531V4.23277C21.5063 4.34513 21.319 4.6822 21.0194 5.244C18.9595 8.98932 12.143 21.7983 12.143 21.7983L12.2554 21.8732L12.1805 21.7983L10.6074 23.2964L11.1318 23.1092L11.0943 22.9594L11.1692 23.0343L12.3303 21.8732C12.3303 21.8732 12.4801 21.611 12.7048 21.1616C13.5662 19.5511 15.7011 15.5436 17.6861 11.8358C18.6973 9.9631 19.6336 8.2028 20.3827 6.85449C20.7572 6.18033 21.0569 5.58108 21.319 5.1691C21.5438 4.75711 21.731 4.45748 21.7685 4.38258L21.8059 4.34513L21.6936 4.27022L21.5812 4.19531L13.4913 21.9481L11.0569 22.847L11.0943 22.9594Z" fill="black" fill-opacity="0.42"/>
<path d="M19.9336 58.127V61.0858H82.2557V58.127H19.9336ZM81.9935 60.8236H20.1583V58.3517H81.9935V60.8236Z" fill="black" fill-opacity="0.42"/>
<path d="M94.3143 34.5695C94.3143 34.3448 94.3143 32.2849 94.0896 30.4122C93.8649 28.577 92.7038 25.2062 92.5165 24.607C92.4791 24.5695 92.4791 24.5321 92.4791 24.5321V24.4946L92.4042 24.4197L92.3667 24.3823L90.569 22.5845L90.1195 22.1351L89.8948 21.8729L89.745 21.7605V21.7231C89.745 21.6856 89.7076 21.6482 89.6701 21.6107C89.6326 21.5358 89.5952 21.4609 89.5577 21.386C89.5203 21.3485 89.5203 21.3111 89.4828 21.2362C89.4454 21.1987 89.4079 21.1238 89.3705 21.0489C89.333 20.9366 89.2581 20.8617 89.1832 20.7493C89.1083 20.5995 88.9959 20.4122 88.921 20.2624C88.8836 20.1875 88.8461 20.1126 88.8087 20.0002C88.7712 19.9628 88.7338 19.8879 88.7338 19.8504C88.6214 19.6257 88.4716 19.401 88.3592 19.1388C88.2843 18.989 88.172 18.8017 88.0971 18.6519C87.9473 18.3523 87.7974 18.0901 87.6476 17.753C87.5727 17.5658 87.4604 17.3785 87.348 17.1912C87.3105 17.1538 87.3105 17.1163 87.2731 17.0414C87.1607 16.8542 87.0484 16.6669 86.936 16.4422C86.8237 16.18 86.6738 15.9553 86.524 15.6931C86.4491 15.5808 86.4117 15.4684 86.3368 15.3186C85.9997 14.6444 85.6252 13.9703 85.2506 13.2961C84.127 11.1613 82.9285 8.989 82.0296 7.30361C81.5802 6.47963 81.1682 5.73057 80.9061 5.20623C80.6064 4.68188 80.4192 4.30735 80.3443 4.19499C80.3068 4.15754 80.3068 4.12008 80.2693 4.08263C80.0072 3.67065 79.6326 3.1463 78.6963 2.65941C77.6476 2.09761 75.9248 1.57327 72.8162 1.23619C66.6364 0.562032 55.1383 0.1875 50.981 0.1875C46.8237 0.1875 35.3255 0.562032 29.1458 1.23619C25.9997 1.57327 24.2768 2.09761 23.2281 2.65941C22.2169 3.18375 21.8424 3.78301 21.5802 4.19499C21.5802 4.23244 21.5428 4.2699 21.5053 4.30735C21.5053 4.3448 21.4679 4.38226 21.4304 4.38226C21.3929 4.45716 21.3555 4.53207 21.2806 4.64443C21.2057 4.79424 21.0933 4.98151 20.981 5.16877C20.9061 5.28113 20.8311 5.39349 20.7937 5.54331C20.7188 5.69312 20.6439 5.80548 20.569 5.95529C20.5315 6.0302 20.4941 6.06765 20.4941 6.14256C20.4192 6.25492 20.3817 6.36728 20.3068 6.47964C20.2693 6.55454 20.2319 6.62945 20.1944 6.70435C20.1195 6.89162 20.0072 7.04143 19.8948 7.2287C19.7825 7.41597 19.7076 7.60323 19.5952 7.7905C19.1083 8.65192 18.584 9.6257 18.0596 10.6744C17.9847 10.8617 17.8723 11.0489 17.76 11.2362C17.6851 11.3485 17.6476 11.4609 17.5727 11.5733C17.4978 11.6856 17.4604 11.798 17.3855 11.9103C17.2731 12.1351 17.1233 12.3598 17.0109 12.5845C16.936 12.7718 16.8237 12.9216 16.7113 13.1088C16.5615 13.4085 16.4117 13.6706 16.2619 13.9703C16.112 14.2699 15.9248 14.5695 15.775 14.8691C15.7001 14.9815 15.6626 15.1313 15.5877 15.2437C15.5128 15.3935 15.4379 15.5059 15.363 15.6557C15.2506 15.8429 15.1757 16.0302 15.0634 16.2175C14.8761 16.5545 14.6888 16.9291 14.5016 17.2662C14.3892 17.4534 14.3143 17.6407 14.2019 17.7905C14.0896 17.9778 14.0147 18.2025 13.9023 18.3897C13.5652 19.0639 13.2281 19.6257 12.966 20.15C12.8911 20.2624 12.8162 20.3748 12.7787 20.5246C12.6664 20.7493 12.5914 20.8991 12.4791 21.0864C12.4791 21.1238 12.4416 21.1613 12.4042 21.1987C12.2544 21.4984 12.142 21.7231 12.1046 21.7605L11.9547 21.8729L11.9173 21.9103L11.73 22.0976L9.48283 24.4197L9.40792 24.4946V24.5321C9.40792 24.5321 9.40793 24.5695 9.37047 24.607C9.18321 25.1688 8.02216 28.5396 7.79744 30.3748C7.57272 32.2474 7.57272 34.3074 7.57272 34.5321L7.31055 35.2811C7.31055 35.2811 7.68508 40.6744 7.9847 43.7456C8.02216 44.1201 8.05961 44.4946 8.13452 44.9441C8.13452 45.0564 8.17197 45.1313 8.17197 45.2437C8.17197 45.356 8.20942 45.4309 8.20942 45.5433C8.20942 45.6557 8.24688 45.768 8.24688 45.8429C8.28433 46.0302 8.28433 46.2175 8.32178 46.4047C8.32178 46.4796 8.35924 46.5545 8.35924 46.6294C8.43414 47.0414 8.50905 47.4909 8.58395 47.9029C8.62141 48.165 8.65886 48.4272 8.73377 48.6894C8.73377 48.7268 8.73377 48.8017 8.77122 48.8392C8.88358 49.401 8.99594 49.9628 9.1083 50.5246C9.14575 50.7493 9.22066 50.974 9.25811 51.1987C9.29557 51.3111 9.29557 51.4235 9.33302 51.5358C9.55774 52.4721 9.81991 53.3336 10.0446 54.0452C10.0821 54.1201 10.0821 54.195 10.1195 54.2699C10.1944 54.4572 10.2693 54.6444 10.3443 54.8317C10.9061 56.1051 11.4679 56.9665 12.142 57.5283C12.6664 57.9778 13.2281 58.2399 13.8649 58.3148C13.9023 58.3148 13.9398 58.3148 13.9772 58.3148C14.0521 58.3148 14.0896 58.3148 14.1645 58.3148C14.2394 58.3148 14.3143 58.3148 14.3892 58.3148H87.3855C88.2469 58.3148 88.9959 58.0527 89.6326 57.4909C90.3068 56.9291 90.8686 56.0302 91.4304 54.7942C92.4791 52.4721 93.3405 47.6781 93.715 44.5321C93.7525 44.2324 93.7899 43.9703 93.7899 43.7081C93.7899 43.5208 93.8274 43.3336 93.8649 43.1088C93.9023 42.8092 93.9398 42.4721 93.9398 42.1351V42.0976C94.2019 39.0639 94.4641 35.2437 94.4641 35.2437V35.2062L94.3143 34.5695ZM92.7038 49.5882C92.6289 49.8879 92.5914 50.1875 92.5165 50.4871C92.5165 50.5246 92.5165 50.562 92.4791 50.5995V50.6369C92.1046 52.2849 91.6926 53.783 91.2431 54.7568C90.6813 55.9927 90.1195 56.8542 89.5203 57.3785C89.4454 57.4534 89.3705 57.4909 89.2956 57.5658C89.2207 57.6032 89.1832 57.6407 89.1083 57.6781C89.0708 57.6781 89.0708 57.7156 89.0334 57.7156C89.0334 57.7156 88.9959 57.7156 88.9959 57.753C88.921 57.7905 88.8836 57.8279 88.8087 57.8654C88.7338 57.9029 88.6589 57.9403 88.5465 57.9778C88.4716 58.0152 88.3592 58.0527 88.2843 58.0527C88.0222 58.1276 87.7225 58.165 87.4229 58.165H14.4267C14.3892 58.165 14.3517 58.165 14.3143 58.165C14.2394 58.165 14.127 58.165 14.0521 58.165C13.9023 58.165 13.7525 58.1276 13.6027 58.0901C13.5278 58.0527 13.4154 58.0527 13.3405 58.0152C13.2656 57.9778 13.1907 57.9778 13.1158 57.9403H13.0783C13.0034 57.9029 12.9285 57.8654 12.8536 57.8279C12.7787 57.7905 12.6664 57.7156 12.5914 57.6407C12.5165 57.6032 12.4416 57.5283 12.3667 57.4534C12.0671 57.1912 11.7675 56.8542 11.4678 56.4047C11.3929 56.2924 11.318 56.18 11.2431 56.0676C11.0184 55.6931 10.8311 55.2811 10.6064 54.8317C10.569 54.7568 10.5315 54.6819 10.5315 54.607C10.4566 54.3823 10.3443 54.1575 10.2693 53.8954C10.2693 53.8579 10.2319 53.8205 10.2319 53.7456C10.1944 53.5957 10.1195 53.4459 10.0821 53.2961C10.0446 53.1463 9.96972 52.959 9.93227 52.8092C9.85736 52.5845 9.81991 52.3598 9.745 52.1351C9.63264 51.7605 9.55774 51.3485 9.44538 50.9366C9.40792 50.7493 9.37047 50.562 9.33302 50.3748C9.33302 50.3373 9.29557 50.2999 9.29557 50.2624C9.22066 50.0002 9.18321 49.7381 9.14575 49.4759L9.1083 49.2886C9.1083 49.2512 9.1083 49.2137 9.07085 49.1763C9.07085 49.1014 9.03339 49.0265 9.03339 48.9515C9.03339 48.9141 9.03339 48.8392 8.99594 48.8017C8.95849 48.5396 8.92103 48.3148 8.88358 48.0527C8.84613 47.7905 8.80867 47.5658 8.77122 47.3411C8.62141 46.5545 8.50905 45.768 8.43414 45.0564C8.39669 44.6444 8.32178 44.2324 8.28433 43.8579C8.13452 42.3223 7.94725 40.225 7.83489 38.4647V38.4272C7.75998 37.5658 7.72253 36.8167 7.68508 36.2549C7.64763 35.768 7.64763 35.4684 7.61017 35.3935L7.83489 34.6819C7.83489 34.6819 7.83489 34.1201 7.87234 33.3336C7.9098 32.5471 7.94725 31.4984 8.05961 30.5246C8.17197 29.5508 8.58395 28.0901 8.95849 26.8916C9.14575 26.2924 9.33302 25.7306 9.44538 25.356C9.44538 25.3186 9.48283 25.2811 9.48283 25.2811C9.48283 25.2437 9.52028 25.2062 9.52028 25.1688C9.59519 24.9815 9.63264 24.8317 9.63264 24.7942L11.1682 23.2587L11.2057 23.2212L11.6177 22.8092L12.3667 22.0602C12.3667 22.0602 12.4416 21.9478 12.5165 21.7605C12.554 21.6856 12.5914 21.6107 12.6664 21.4984C12.7038 21.4609 12.7413 21.386 12.7413 21.3485C12.8162 21.2362 12.8536 21.1238 12.9285 20.974C12.966 20.8991 13.0409 20.7868 13.0783 20.6744C13.1532 20.562 13.1907 20.4497 13.2656 20.2999C13.3031 20.225 13.3405 20.15 13.4154 20.0377C13.4529 19.9628 13.4903 19.8879 13.5278 19.813C13.6401 19.6257 13.715 19.4384 13.8274 19.2512C14.5016 17.9778 15.3255 16.4422 16.2244 14.7942C16.3368 14.5695 16.4866 14.3448 16.5989 14.0826C16.9735 13.371 17.348 12.6594 17.7225 11.9853C18.2094 11.0489 18.6963 10.15 19.1458 9.28862C19.2581 9.0639 19.3705 8.83919 19.5203 8.61447C19.5952 8.46465 19.6701 8.35229 19.745 8.20248C19.9323 7.8654 20.1195 7.52832 20.2693 7.2287C20.3068 7.15379 20.3443 7.04143 20.4192 6.96653C20.7937 6.29237 21.0933 5.69312 21.3555 5.28113C21.5802 4.86915 21.7675 4.56952 21.8049 4.49462C21.8049 4.49462 21.8049 4.49462 21.8049 4.45716C21.9547 4.23244 22.1046 3.97027 22.4042 3.7081C22.4791 3.63319 22.554 3.59574 22.6289 3.52083C22.8162 3.37102 23.0409 3.22121 23.3405 3.03394C24.3517 2.5096 26.0371 1.98525 29.1083 1.64817C35.2881 0.824204 46.7862 0.449672 50.9435 0.449672C55.0634 0.449672 66.5989 0.824204 72.7413 1.49836C75.8124 1.83544 77.5353 2.35978 78.509 2.88413C79.2207 3.25866 79.5952 3.63319 79.8199 4.00772C79.8574 4.08263 79.9323 4.15754 79.9697 4.19499C80.0072 4.23244 80.0446 4.30735 80.0446 4.3448C80.0821 4.38226 80.1195 4.45716 80.157 4.56952C80.157 4.56952 80.157 4.56952 80.157 4.60698C80.2693 4.79424 80.4192 5.01896 80.569 5.35604C80.6439 5.50585 80.7562 5.65566 80.8311 5.84293C80.8686 5.91784 80.9061 5.95529 80.9435 6.0302C81.0933 6.29237 81.2431 6.55454 81.3929 6.85417C81.7675 7.52832 82.2169 8.35229 82.6664 9.21372C82.7413 9.36353 82.8162 9.51334 82.9285 9.66316C83.4903 10.7118 84.0896 11.8354 84.6888 12.959C85.0634 13.6706 85.4379 14.3823 85.8124 15.0564C86.2993 15.9927 86.7862 16.8542 87.1982 17.6781C87.6476 18.5021 88.0222 19.2512 88.3592 19.8504C89.0334 21.0864 89.4454 21.9103 89.4454 21.9103L92.1795 24.6444C92.1795 24.6819 92.2544 24.8317 92.3293 25.019C92.3293 25.0564 92.3667 25.0939 92.3667 25.1313C92.3667 25.1688 92.3667 25.2062 92.4042 25.2062C92.7787 26.3673 93.6027 28.9141 93.7899 30.3748C93.9023 31.3485 93.9772 32.3972 93.9772 33.1838C94.0147 33.9703 94.0147 34.5321 94.0147 34.5321V34.5695L94.2394 35.2437C94.2394 35.3186 94.2019 35.6557 94.2019 36.1051C94.1645 36.592 94.127 37.2662 94.0521 38.0152C93.9772 39.2512 93.8649 40.7118 93.715 42.0602C93.715 42.0976 93.715 42.1725 93.715 42.21C93.6776 42.7343 93.6401 43.2212 93.5652 43.6706C93.5652 43.8579 93.5278 44.0452 93.4903 44.2699C93.4903 44.3823 93.4529 44.4572 93.4529 44.5695C93.4529 44.6819 93.4154 44.7942 93.4154 44.9066C93.4154 45.019 93.378 45.1313 93.378 45.2437C93.378 45.356 93.3405 45.4684 93.3405 45.5808C93.3031 45.768 93.2656 45.9927 93.2656 46.18C93.1532 46.9291 93.0034 47.753 92.8536 48.5396C92.8162 48.8017 92.7413 49.0639 92.7038 49.2886C92.7038 49.3261 92.7038 49.3635 92.6664 49.401C92.7038 49.5133 92.7038 49.5508 92.7038 49.5882Z" fill="black" fill-opacity="0.42"/>
<path d="M50.9072 17.8269V17.9393H79.3716L79.4091 17.9018C79.4091 17.9018 80.1956 17.1153 80.1956 15.9168C80.1956 15.8419 80.1956 15.767 80.1956 15.6921C80.1581 15.355 80.0083 14.5685 79.7836 13.5947C79.1094 10.6359 77.836 5.80442 77.836 5.80442L77.7986 5.72952H77.7237C69.1843 4.45611 58.9971 4.34375 53.1169 4.34375C52.293 4.34375 51.5813 4.34375 50.9446 4.34375C50.3079 4.34375 49.5963 4.34375 48.7724 4.34375C42.8548 4.34375 32.7049 4.41866 24.1656 5.72952H24.0907L24.0533 5.80442C24.0533 5.80442 23.4915 7.93926 22.8922 10.2614C22.5926 11.4224 22.293 12.6209 22.0682 13.5947C21.8435 14.5685 21.6937 15.355 21.6562 15.6921C21.6562 15.767 21.6562 15.8419 21.6562 15.9168C21.6562 17.1153 22.4428 17.8643 22.4428 17.9018L22.4802 17.9393H50.9446V17.8269V17.6771H22.4802V17.7894L22.5551 17.7145V17.6771C22.4053 17.5273 21.881 16.8531 21.881 15.9168C21.881 15.8419 21.881 15.767 21.881 15.7295C21.9184 15.4299 22.0682 14.6434 22.293 13.6696C22.63 12.2089 23.1169 10.2614 23.5289 8.68832C23.7162 7.9018 23.9034 7.19019 24.0533 6.7033C24.1656 6.21641 24.278 5.91678 24.278 5.91678L24.1656 5.87933V5.99169C32.7049 4.71828 42.8548 4.64338 48.7349 4.64338C49.5589 4.64338 50.2705 4.64338 50.9072 4.64338C51.5439 4.64338 52.2555 4.64338 53.0795 4.64338C58.9971 4.64338 69.1469 4.71828 77.6488 5.99169V5.87933L77.5364 5.91678C77.5364 5.91678 77.6862 6.44113 77.9109 7.2651C78.248 8.50105 78.7349 10.3737 79.1469 12.0966C79.5589 13.782 79.896 15.3175 79.9334 15.767C79.9334 15.8419 79.9334 15.9168 79.9334 15.9542C79.9334 16.516 79.7461 16.9655 79.5963 17.2651C79.5214 17.4149 79.4091 17.5273 79.3342 17.6396L79.2592 17.752L79.2218 17.7894L79.2967 17.8643V17.6771H50.8697V17.8269H50.9072Z" fill="black" fill-opacity="0.42"/>
<path d="M22.7802 17.1536L22.8926 17.0787C22.7428 16.854 22.518 16.442 22.518 15.9176C22.518 15.8802 22.518 15.8053 22.518 15.7678C22.5555 15.3558 22.8551 14.1199 23.2671 12.5468C23.6791 10.9738 24.2034 9.10115 24.6529 7.3783L24.5405 7.34085V7.45321C32.4057 6.29216 42.0686 6.14234 49.1472 6.14234H53.4918C60.5705 6.14234 69.3345 6.29216 77.1997 7.45321V7.34085L77.0873 7.3783C77.5368 9.10115 78.0611 11.0113 78.4731 12.5468C78.8851 14.1199 79.2222 15.3558 79.2222 15.7678C79.2222 15.8053 79.2222 15.8802 79.2222 15.9176C79.2222 16.442 78.9974 16.854 78.8476 17.0787L78.96 17.1536V17.0412H22.7802V17.1536V17.3034H79.0723L79.1098 17.2659C79.2971 17.0038 79.5218 16.5543 79.5218 15.9551C79.5218 15.9176 79.5218 15.8427 79.5218 15.7678C79.4843 15.3184 79.1847 14.0824 78.7353 12.5094C78.3233 10.9364 77.7989 9.02624 77.3495 7.34085L77.312 7.26594H77.2371C69.3345 6.10489 60.5705 5.95508 53.4918 5.95508H49.1472C42.0686 5.95508 32.4057 6.10489 24.5031 7.26594H24.4281L24.3907 7.34085C23.9413 9.06369 23.4169 10.9364 23.0049 12.5094C22.5929 14.0824 22.2933 15.3184 22.2559 15.7678C22.2559 15.8427 22.2559 15.8802 22.2559 15.9551C22.2559 16.5543 22.518 17.0412 22.6678 17.2659L22.7053 17.3034H22.7802V17.1536Z" fill="black" fill-opacity="0.42"/>
<path d="M26.0005 24.2684L25.963 24.156L25.8881 23.819V23.7441V23.7066L25.5136 20.6729V20.5605V20.4856L24.7645 19.9238H24.7271C24.7271 19.9238 24.0529 20.0736 23.2664 20.2984C22.5548 20.4856 21.8057 20.7103 21.3188 20.8976C21.2814 20.8976 21.2439 20.9351 21.2065 20.9351C21.2065 20.9351 21.169 20.9351 21.169 20.9725C20.7196 21.1972 20.2327 21.6467 19.7083 22.0961C19.184 22.5081 18.6597 22.9201 18.2851 23.0324C17.8731 23.1823 17.1241 23.3695 16.375 23.7066C15.7758 23.9688 15.1765 24.3059 14.7645 24.7178C14.7271 24.7553 14.6896 24.7927 14.6522 24.8302C14.6147 24.8676 14.5773 24.9426 14.5398 24.98C14.1653 25.5418 13.4911 27.1897 12.8919 28.6879C12.2926 30.186 11.7683 31.5343 11.7683 31.5343L11.6934 31.6841H27.7233L26.0005 24.2684ZM12.0679 31.4969C12.1428 31.347 12.2177 31.1223 12.3301 30.7853C12.6297 29.9987 13.1166 28.8002 13.566 27.6766C14.0155 26.553 14.5023 25.5418 14.7271 25.1673C15.0267 24.6429 15.7383 24.2684 16.4499 23.9688C17.1615 23.6691 17.9106 23.4444 18.3226 23.3321C18.772 23.1823 19.2964 22.7703 19.7832 22.3208C20.3076 21.8714 20.7945 21.422 21.2065 21.2347C21.581 21.0474 22.4799 20.7853 23.2664 20.5605C23.9031 20.3733 24.5023 20.2609 24.6896 20.2235L25.2514 20.598L25.6259 23.7815L27.4237 31.5343H12.0679V31.4969Z" fill="black" fill-opacity="0.42"/>
<path d="M41.3194 4.90602V4.98092C41.3194 4.98092 41.6939 4.98092 42.3681 4.98092C44.3531 4.94347 48.8849 4.86856 53.1546 4.86856C56.001 4.86856 58.7726 4.90602 60.6078 4.98092V4.90602L60.5703 4.86856V4.90602C60.4954 5.01838 60.046 5.50527 59.1097 5.50527C58.0235 5.50527 42.8175 5.50527 42.0685 5.50527V5.58017L42.1059 5.54272C42.1059 5.54272 41.9561 5.46781 41.8063 5.35545C41.6565 5.24309 41.4692 5.05583 41.4318 4.94347L41.3194 4.90602H41.2445C41.3194 5.09328 41.5067 5.28055 41.6565 5.39291C41.8437 5.50527 41.9936 5.61763 41.9936 5.61763C42.7426 5.61763 57.9486 5.61763 59.0347 5.61763C60.1583 5.61763 60.6078 4.94347 60.6078 4.90602L60.6827 4.83111H60.5703C58.7351 4.7562 56.001 4.71875 53.1171 4.71875C47.3868 4.71875 41.2819 4.83111 41.2819 4.83111H41.207L41.2445 4.90602H41.3194Z" fill="black" fill-opacity="0.42"/>
<path d="M90.0824 31.5718C90.0824 31.5718 89.558 30.2235 88.9588 28.7253C88.3595 27.2272 87.6479 25.6167 87.3108 25.0175C87.2734 24.98 87.2359 24.9051 87.1985 24.8676C87.161 24.8302 87.1236 24.7927 87.0861 24.7553C86.6741 24.3059 86.0749 24.0062 85.4756 23.7441C84.7265 23.4444 83.9775 23.2197 83.5655 23.0699C83.191 22.9575 82.6666 22.5456 82.1797 22.0961C81.7303 21.7216 81.2809 21.3096 80.8689 21.0849C80.8314 21.0474 80.794 21.0474 80.7565 21.01C80.7565 21.01 80.7191 21.01 80.7191 20.9725C80.2696 20.7478 79.4082 20.4856 78.6217 20.2984C77.8352 20.0736 77.161 19.9238 77.161 19.9238H77.1236L77.0861 19.9613L76.4119 20.4482V20.4856V20.598L76.0374 23.6691V23.7066V23.7815L75.9625 24.1186L75.925 24.2309L74.0898 31.7216H90.1573L90.0824 31.5718ZM76.2247 23.7441L76.5992 20.5605L77.161 20.186C77.3483 20.2235 77.9101 20.3733 78.5842 20.5231C79.3707 20.7478 80.2696 20.9725 80.6442 21.1972C81.0187 21.3845 81.543 21.8339 82.0674 22.2834C82.5917 22.7328 83.0786 23.1448 83.528 23.2946C83.94 23.4444 84.6891 23.6317 85.4007 23.9313C86.1123 24.2309 86.8239 24.6429 87.1236 25.1298C87.4606 25.6542 88.1348 27.3021 88.7715 28.8002C89.0711 29.5493 89.3707 30.2609 89.558 30.7853C89.6704 31.0849 89.7827 31.347 89.8202 31.4969H74.4644L76.2247 23.7441Z" fill="black" fill-opacity="0.42"/>
<path d="M93.9398 42.1348H93.8274H93.7525C93.7525 42.1722 93.7525 42.2471 93.7525 42.2846C93.715 42.8089 93.6776 43.2958 93.6027 43.7453C93.6027 43.9325 93.5652 44.1198 93.5278 44.3445C93.5278 44.4569 93.4903 44.5318 93.4903 44.6441C93.4903 44.7565 93.4529 44.8688 93.4529 44.9812C93.4529 45.0936 93.4154 45.2059 93.4154 45.3183C93.4154 45.4306 93.378 45.543 93.378 45.6554C93.3405 45.8426 93.303 46.0673 93.303 46.2546C93.1907 47.0037 93.0409 47.8277 92.8911 48.6142C92.8536 48.8763 92.7787 49.1385 92.7413 49.3632C92.7413 49.4007 92.7412 49.4381 92.7038 49.4756C92.7038 49.513 92.7038 49.513 92.7038 49.5505C92.6289 49.8501 92.5914 50.1497 92.5165 50.4494C92.5165 50.4868 92.5165 50.5243 92.4791 50.5617V50.5992C92.1045 52.2471 91.6926 53.7452 91.2431 54.719C90.6813 55.955 90.1195 56.8164 89.5203 57.3408C89.4454 57.4157 89.3705 57.4531 89.2956 57.528C89.2207 57.5655 89.1832 57.6029 89.1083 57.6404C89.0708 57.6778 89.0708 57.6778 89.0334 57.6778C89.0334 57.6778 88.9959 57.6778 88.9959 57.7153C88.921 57.7527 88.8836 57.7902 88.8087 57.8276C88.7338 57.8651 88.6589 57.9026 88.5465 57.94C88.4716 57.9775 88.3592 58.0149 88.2843 58.0149C88.0221 58.0898 87.7225 58.1273 87.4229 58.1273H81.9922V67.6404C81.9922 68.0898 82.1045 68.5018 82.3293 68.8389C82.554 69.176 82.8536 69.3632 83.1907 69.3632H92.8162C93.1532 69.3632 93.4903 69.1385 93.6776 68.8389C93.9023 68.5393 94.0147 68.0898 94.0147 67.6404V42.1348H93.9398ZM93.7525 67.6404C93.7525 68.0524 93.6401 68.4269 93.4529 68.6891C93.2656 68.9512 93.0409 69.1011 92.7787 69.1011H83.1907C82.9285 69.1011 82.7038 68.9512 82.5165 68.6891C82.3293 68.4269 82.2169 68.0524 82.2169 67.6404V58.3894H87.3854C88.2469 58.3894 88.9959 58.1273 89.6326 57.5655C90.3068 57.0037 90.8686 56.1048 91.4304 54.8688C92.4791 52.5468 93.3405 47.7527 93.715 44.6067V67.6404H93.7525Z" fill="black" fill-opacity="0.42"/>
<path d="M14.4282 58.1269C14.3907 58.1269 14.3533 58.1269 14.3158 58.1269C14.2409 58.1269 14.1285 58.1269 14.0536 58.1269C13.9038 58.1269 13.754 58.0894 13.6042 58.052C13.5293 58.0145 13.4169 58.0145 13.342 57.9771C13.2671 57.9396 13.1922 57.9396 13.1173 57.9022H13.0799C13.0049 57.8647 12.93 57.8273 12.8551 57.7898C12.7802 57.7523 12.6679 57.6774 12.593 57.6025C12.5181 57.5651 12.4431 57.4902 12.3682 57.4153C12.0686 57.1531 11.769 56.816 11.4694 56.3666C11.3945 56.2542 11.3196 56.1419 11.2446 56.0295C11.0199 55.655 10.8327 55.243 10.6079 54.7935C10.5705 54.7186 10.533 54.6437 10.533 54.5688C10.4581 54.3441 10.3458 54.1194 10.2709 53.8572C10.2709 53.8198 10.2334 53.7823 10.2334 53.7074C10.196 53.5576 10.121 53.4078 10.0836 53.258C10.0461 53.1082 9.97124 52.9209 9.93378 52.7711C9.85888 52.5464 9.82142 52.3216 9.74652 52.0969C9.63416 51.7224 9.55925 51.3104 9.44689 50.8984C9.40944 50.7111 9.37199 50.5239 9.33453 50.3366C9.33453 50.2992 9.33453 50.2617 9.29708 50.2243C9.25963 49.9621 9.18472 49.6999 9.14727 49.4377L9.10981 49.2505V49.1381C9.10981 49.1381 9.10981 49.1381 9.10981 49.1007C9.10981 49.0258 9.07236 48.9509 9.07236 48.8759C9.07236 48.8385 9.07236 48.7636 9.03491 48.7261C8.99745 48.464 8.96 48.2392 8.92255 47.9771C8.88509 47.7149 8.84764 47.4902 8.81019 47.2655C8.69783 46.4789 8.54802 45.6924 8.47311 44.9808V44.9434H8.3982H8.28584H8.21094V67.6025C8.21094 68.052 8.3233 68.464 8.54802 68.801C8.77274 69.1007 9.07236 69.3254 9.40944 69.3254H18.9975C19.372 69.3254 19.6716 69.1007 19.8589 68.801C20.0836 68.5014 20.196 68.052 20.196 67.6025V58.1269H14.4282ZM19.9338 67.64C19.9338 68.052 19.8214 68.4265 19.6342 68.6887C19.4469 68.9508 19.2222 69.1007 18.96 69.1007H9.37199C9.10981 69.1007 8.88509 68.9508 8.69783 68.6887C8.51056 68.4265 8.3982 68.052 8.3982 67.64V46.6662C8.47311 47.0782 8.54802 47.5276 8.62292 47.9396C8.66038 48.2018 8.69783 48.464 8.77274 48.7261C8.77274 48.7636 8.77274 48.8385 8.81019 48.8759C8.92255 49.4377 9.03491 49.9995 9.14727 50.5613C9.18472 50.7861 9.25963 51.0108 9.29708 51.2355C9.33453 51.3479 9.33453 51.4602 9.37199 51.5726C9.59671 52.5089 9.85888 53.3703 10.0836 54.0819C10.121 54.1568 10.121 54.2317 10.1585 54.3067C10.2334 54.4939 10.3083 54.6812 10.3832 54.8685C10.945 56.1419 11.5068 57.0033 12.181 57.5651C12.7053 58.0145 13.2671 58.2767 13.9038 58.3516C13.9413 58.3516 13.9787 58.3516 14.0162 58.3516C14.0911 58.3516 14.1285 58.3516 14.2034 58.3516C14.2784 58.3516 14.3533 58.3516 14.4282 58.3516H19.8963V67.64H19.9338Z" fill="black" fill-opacity="0.42"/>
</g>
<defs>
<clipPath id="clip0_7554_21093">
<rect width="100" height="73" fill="white" transform="translate(0.699219 0.144531)"/>
</clipPath>
</defs>
</svg>
