<svg width="151" height="53" viewBox="0 0 151 53" fill="none" xmlns="http://www.w3.org/2000/svg">
<g clip-path="url(#clip0_7675_5741)">
<path d="M149.664 12.7676L149.57 12.7938L149.478 12.82C149.095 11.4494 148.204 10.3168 147.291 10.3276C146.489 10.3276 140.999 10.0541 138.436 10.0541C137.799 10.0533 137.331 10.0741 137.204 10.1111C137.082 10.1319 136.917 10.3946 136.807 10.796C136.693 11.1943 136.611 11.7137 136.554 12.2268C136.438 13.253 136.42 14.2531 136.42 14.2554L136.419 14.3401L135.183 14.4704L135.156 14.4048C133.519 10.531 127.412 -2.56904 125.721 -5.97449C124.89 -7.64832 123.954 -9.60461 123.153 -11.2764L122.98 -11.6373C122.218 -13.2282 121.598 -14.5159 121.359 -14.9482L121.447 -15.0281L121.382 -15.0998L121.3 -15.0489C121.316 -15.0236 121.336 -14.9899 121.359 -14.9482L120.031 -13.7422L120.015 -13.7353C120.015 -13.7353 119.965 -13.7153 119.885 -13.6705C119.804 -13.6251 119.696 -13.5558 119.589 -13.461C119.375 -13.2715 119.17 -12.991 119.17 -12.595C119.17 -12.4625 119.193 -12.3161 119.248 -12.1528C119.452 -11.5533 119.748 -10.7721 119.992 -10.1419C120.186 -9.64367 120.347 -9.23982 120.406 -9.09171H120.341V-8.99545L120.43 -9.03087C120.43 -9.03122 120.422 -9.05248 120.406 -9.09171C120.347 -9.23982 120.186 -9.64367 119.992 -10.1419C119.748 -10.7721 119.452 -11.5533 119.248 -12.1528C119.193 -12.3161 119.17 -12.4625 119.17 -12.595C119.17 -12.991 119.375 -13.2715 119.589 -13.461C119.696 -13.5558 119.804 -13.6251 119.885 -13.6705C119.965 -13.7153 120.015 -13.7353 120.015 -13.7353L120.031 -13.7422L121.359 -14.9482C121.598 -14.5159 122.218 -13.2282 122.98 -11.6373L123.153 -11.2764C123.954 -9.60461 124.89 -7.64832 125.721 -5.97449C127.412 -2.56904 133.519 10.531 135.156 14.4048L135.183 14.4704L136.419 14.3401L136.42 14.2554C136.42 14.2531 136.438 13.253 136.554 12.2268C136.611 11.7137 136.693 11.1943 136.807 10.796C136.917 10.3946 137.082 10.1319 137.204 10.1111C137.331 10.0741 137.799 10.0533 138.436 10.0541C140.999 10.0541 146.489 10.3276 147.291 10.3276C148.204 10.3168 149.095 11.4494 149.478 12.82C149.867 14.1953 150.366 17.16 150.4 17.8187L150.406 18.0114C150.406 18.3365 150.351 18.7017 150.089 19.0137C149.827 19.3265 149.346 19.6 148.455 19.7117C147.463 19.835 145.423 19.996 143.634 20.1247C141.913 20.2492 140.425 20.3446 140.313 20.3516C140.265 20.3459 140.054 20.3195 139.824 20.2734C139.563 20.2249 139.269 20.1324 139.205 20.0592C139.079 19.9352 138.864 19.8212 138.674 19.7295C138.58 19.684 138.492 19.6455 138.427 19.6185L138.351 19.5862L138.328 19.5777L138.321 19.5754L138.317 19.5739L138.314 19.5723L138.286 19.5684L138.271 19.5692C138.256 19.5716 137.828 19.6501 137.237 19.758L137.129 19.778L137.163 19.8828C137.719 21.564 138.199 23.2243 138.408 24.4477C138.825 26.8934 141.431 33.5576 141.579 33.9381C141.583 34.0894 141.612 35.2927 141.64 37.1094C141.671 39.0525 141.702 41.692 141.702 44.4813C141.702 47.2699 141.671 50.2088 141.579 52.7473C141.441 56.5535 141.062 59.9189 140.717 62.3308C140.546 63.5373 140.381 64.5052 140.261 65.1715C140.154 65.7655 140.081 66.1186 140.066 66.1896C140.028 66.2624 139.802 66.7022 139.458 67.3436C138.892 68.3999 138.009 70.004 137.137 71.4145C136.27 72.8238 135.389 74.0494 134.9 74.3141C134.58 74.4955 133.648 74.6741 132.449 74.8226C128.836 75.2727 122.714 75.5235 121.929 75.6431C121.619 75.6969 121.274 75.9997 120.757 76.4198C119.219 77.6789 116.282 80.0509 110.28 80.0532H40.7215C36.719 80.0521 34.0799 78.9958 32.3094 77.9204C31.4238 77.383 30.7556 76.8404 30.2423 76.4198C29.7251 75.9997 29.3805 75.6969 29.0715 75.6431C28.5435 75.5617 25.657 75.4253 22.7104 75.2092C21.2383 75.1005 19.7546 74.9728 18.5515 74.8226C17.3521 74.6741 16.4202 74.4955 16.1004 74.3141C15.779 74.139 15.2695 73.5323 14.72 72.7337C13.8914 71.5341 12.9426 69.8942 12.2019 68.5548C11.5048 67.2945 10.9927 66.3041 10.9342 66.1897C10.9192 66.1191 10.8463 65.7661 10.739 65.1715C10.3775 63.1722 9.62838 58.457 9.42102 52.7473C9.32928 50.2088 9.29842 47.2699 9.29842 44.4813C9.29842 41.692 9.32928 39.0525 9.36015 37.1094C9.38883 35.3011 9.41686 34.1004 9.42062 33.9403C9.55959 33.5835 12.1748 26.8981 12.5934 24.4477C12.8023 23.2243 13.2818 21.564 13.8367 19.8828L13.8714 19.778L13.7619 19.758C13.4659 19.7041 13.2093 19.6571 13.0259 19.6232C12.9341 19.607 12.8609 19.5931 12.8108 19.5839L12.753 19.5739L12.7376 19.5707L12.733 19.57H12.7314L12.7298 19.5692L12.7152 19.5684L12.6844 19.5739C12.6458 19.5892 12.0416 19.8204 11.7957 20.0593C11.7317 20.1324 11.4365 20.2249 11.1768 20.2734C10.9459 20.3195 10.7352 20.3459 10.6875 20.3516C10.5744 20.3445 9.0865 20.2493 7.36535 20.1247C5.57721 19.996 3.5378 19.8351 2.54429 19.7118C1.65561 19.6 1.17387 19.3273 0.911809 19.0153C0.649753 18.7032 0.595039 18.3388 0.595039 18.0137L0.600455 17.8187C0.633602 17.1608 1.13459 14.1953 1.52228 12.8201C1.90612 11.4494 2.79556 10.3168 3.70814 10.3276C4.51205 10.3276 10.0014 10.0541 12.5642 10.0541C13.2008 10.0534 13.6687 10.0742 13.7966 10.1111C13.9184 10.1319 14.0833 10.3946 14.1928 10.7961C14.3646 11.3939 14.4633 12.2622 14.5172 12.9772C14.5712 13.6922 14.5812 14.2539 14.5812 14.2554L14.5828 14.3401L15.8168 14.4711L15.8445 14.4048C17.4816 10.531 23.5891 -2.56903 25.2786 -5.97448C26.1865 -7.80277 27.2209 -9.97002 28.0672 -11.7367C28.4904 -12.6204 28.8665 -13.4032 29.1563 -13.9934C29.4384 -14.5693 29.6429 -14.9682 29.7158 -15.0768L29.7305 -15.092L31.2166 -13.7422L31.232 -13.7352C31.232 -13.7352 31.282 -13.7152 31.3622 -13.6705C31.6073 -13.5318 32.0805 -13.1851 32.0775 -12.595C32.0775 -12.4625 32.0543 -12.3161 31.9988 -12.1528C31.7946 -11.5533 31.4986 -10.7721 31.2551 -10.1419C31.0619 -9.64366 30.901 -9.2398 30.8417 -9.0917H30.63C30.6246 -9.0902 29.1563 -9.06166 28.4719 -8.81203L27.5593 -7.30583L27.92 -7.89522C28.1713 -8.31358 28.4102 -8.59095 28.5389 -8.63099C28.8457 -8.745 29.3752 -8.81515 29.8214 -8.85288C30.2685 -8.89061 30.6346 -8.89911 30.6346 -8.89911H30.9722L30.9961 -8.95921C30.9961 -8.95921 31.7692 -10.8823 32.1815 -12.0911C32.2432 -12.2714 32.2701 -12.4401 32.2701 -12.595C32.2709 -13.0626 32.0235 -13.3963 31.7853 -13.6058C31.5809 -13.7852 31.3799 -13.8811 31.3213 -13.9069L29.7228 -15.3594L29.5725 -15.2061L29.5663 -15.1999L29.5617 -15.193C29.4747 -15.0643 29.275 -14.6714 28.9836 -14.0781C28.1127 -12.3045 26.4664 -8.79972 25.106 -6.06075C23.4228 -2.66674 17.3764 10.3001 15.6952 14.2641L14.7719 14.1665C14.7646 13.9026 14.7354 13.0645 14.639 12.2052C14.5805 11.6859 14.498 11.1597 14.3785 10.7429C14.2537 10.3307 14.1157 10.0109 13.8467 9.92467C13.6617 9.87613 13.2108 9.86307 12.5642 9.86151C9.99447 9.86151 4.4974 10.135 3.70814 10.135C2.63217 10.1466 1.73808 11.3631 1.33652 12.7676C0.942661 14.1699 0.444764 17.1146 0.407768 17.8087C0.404686 17.8727 0.402351 17.942 0.402351 18.0137C0.401582 18.3581 0.460944 18.778 0.764627 19.1385C1.06754 19.4999 1.6032 19.7888 2.5204 19.9028C4.5236 20.1517 10.6804 20.5446 10.682 20.5446H10.6905L10.6989 20.5438C10.7005 20.5438 10.9425 20.5169 11.2146 20.4622C11.489 20.4037 11.7818 20.3366 11.9321 20.1956C12.0192 20.1062 12.2281 19.9891 12.41 19.9028C12.501 19.8589 12.5857 19.8219 12.6482 19.7958L12.7222 19.7649L12.7235 19.7644C12.814 19.7806 13.1627 19.8443 13.6187 19.9277C13.0776 21.5774 12.6114 23.1992 12.4031 24.4154C12.1942 25.6458 11.4011 28.0204 10.6619 30.0782C10.292 31.1076 9.93511 32.0591 9.67076 32.754C9.40716 33.4482 9.23605 33.8835 9.23524 33.8851L9.22911 33.9005V33.9174C9.22911 33.9174 9.10575 38.8999 9.10575 44.4813C9.10575 47.2717 9.13662 50.2117 9.22911 52.7542C9.50323 60.3344 10.7313 66.1625 10.7481 66.2416L10.7483 66.2428L10.7506 66.2549L10.7567 66.2665C10.7567 66.2665 11.7056 68.1156 12.8324 70.0635C13.3966 71.0372 14.004 72.0363 14.562 72.8429C15.1223 73.6513 15.6187 74.2638 16.0064 74.4828C16.3956 74.6949 17.3166 74.8607 18.5275 75.0139C22.1486 75.4652 28.2923 75.7177 29.0422 75.8333C29.2457 75.8581 29.6103 76.1459 30.1205 76.5683C31.6628 77.8349 34.6672 80.248 40.7215 80.2457H110.28C114.315 80.2457 116.996 79.1761 118.791 78.0851C119.689 77.5396 120.366 76.9895 120.88 76.5683C121.39 76.1459 121.754 75.8581 121.958 75.8333C122.454 75.7564 125.36 75.6177 128.304 75.401C129.777 75.2924 131.264 75.1647 132.472 75.0139C133.683 74.8607 134.605 74.6949 134.994 74.4828C135.382 74.2638 135.878 73.6513 136.438 72.8429C138.11 70.4241 140.242 66.2682 140.243 66.2665L140.25 66.2549L140.252 66.2428V66.2416C140.269 66.1602 141.497 60.3332 141.771 52.7542C141.864 50.2117 141.894 47.2717 141.894 44.4813C141.894 38.8999 141.771 33.9174 141.771 33.9174V33.9005L141.765 33.8851C141.764 33.8836 141.593 33.4482 141.329 32.754C140.537 30.6731 138.912 26.2645 138.597 24.4154C138.389 23.1992 137.923 21.5774 137.382 19.9276C137.632 19.882 137.849 19.8423 138.01 19.8127C138.101 19.7965 138.175 19.7827 138.225 19.7734L138.278 19.7642C138.397 19.8113 138.912 20.0333 139.069 20.1956C139.218 20.3366 139.511 20.4037 139.785 20.4622C140.057 20.5169 140.3 20.5438 140.301 20.5438L140.31 20.5447H140.318C140.318 20.5447 146.477 20.1517 148.479 19.9028C149.398 19.7888 149.933 19.4991 150.237 19.1378C150.54 18.7757 150.599 18.3558 150.599 18.0114C150.599 17.9397 150.596 17.8719 150.592 17.8087C150.555 17.1146 150.058 14.1699 149.664 12.7676C149.262 11.3631 148.367 10.1466 147.291 10.135C146.504 10.135 141.006 9.86152 138.436 9.86152C137.789 9.86308 137.338 9.87613 137.153 9.92467C136.883 10.0109 136.746 10.3307 136.622 10.7429C136.307 11.8454 136.241 13.7436 136.23 14.1664L135.306 14.264C133.624 10.3 127.578 -2.66673 125.893 -6.06075C125.075 -7.71048 124.152 -9.63585 123.358 -11.2933L123.153 -11.7205C122.316 -13.4694 121.659 -14.8362 121.464 -15.1506L121.403 -15.2484L119.926 -13.9069C119.867 -13.8812 119.666 -13.7853 119.462 -13.6058C119.223 -13.3963 118.976 -13.0626 118.977 -12.595C118.977 -12.4401 119.004 -12.2714 119.065 -12.0904C119.478 -10.8823 120.252 -8.9592 120.252 -8.9592L120.276 -8.8991H120.692V-8.99543L120.689 -8.8991H120.276L120.252 -8.9592C120.252 -8.9592 119.478 -10.8823 119.065 -12.0904C119.004 -12.2714 118.977 -12.4401 118.977 -12.595C118.976 -13.0626 119.223 -13.3963 119.462 -13.6058C119.666 -13.7853 119.867 -13.8812 119.926 -13.9069L119.914 -13.8963L119.979 -13.8246L119.943 -13.914C119.941 -13.9137 119.936 -13.9113 119.926 -13.9069L121.403 -15.2484L121.464 -15.1506C121.659 -14.8362 122.316 -13.4694 123.153 -11.7205L123.358 -11.2933C124.152 -9.63585 125.075 -7.71048 125.893 -6.06075C127.578 -2.66673 133.624 10.3 135.306 14.264L135.234 14.2716L135.245 14.3671L135.334 14.3301C135.324 14.3084 135.315 14.2863 135.306 14.264L136.23 14.1664C136.229 14.2211 136.228 14.2511 136.228 14.2516L136.324 14.2531L136.314 14.1575L136.23 14.1664C136.241 13.7436 136.307 11.8454 136.622 10.7429C136.746 10.3307 136.883 10.0109 137.153 9.92467C137.338 9.87613 137.789 9.86308 138.436 9.86152C141.006 9.86152 146.504 10.135 147.291 10.135C148.367 10.1466 149.262 11.3631 149.664 12.7676Z" fill="black" fill-opacity="0.4"/>
<path d="M150.495 17.8162L150.688 17.8062C150.649 17.0943 150.153 14.1596 149.755 12.7443C149.552 12.0277 149.222 11.3651 148.803 10.8705C148.385 10.3782 147.867 10.043 147.29 10.0415C146.509 10.0423 141.008 9.76797 138.434 9.76797C138.112 9.76797 137.834 9.7726 137.615 9.78265C137.393 9.7934 137.24 9.80495 137.126 9.835C136.952 9.8851 136.84 10.0161 136.75 10.1663C136.594 10.4329 136.491 10.8089 136.407 11.2365C136.16 12.5139 136.131 14.2474 136.13 14.2528L136.323 14.2559L136.303 14.0648L135.223 14.1789L135.244 14.3699L135.421 14.2952C133.777 10.4067 127.674 -2.68412 125.979 -6.10032C125.073 -7.92555 124.039 -10.092 123.192 -11.8587C122.769 -12.7424 122.393 -13.526 122.102 -14.1177C121.957 -14.4143 121.833 -14.6624 121.736 -14.8519C121.636 -15.043 121.568 -15.1694 121.517 -15.2449C121.38 -15.4298 121.158 -15.5292 120.881 -15.6432C120.056 -15.9652 118.734 -16.2018 118.728 -16.2033L118.694 -16.0138L118.878 -16.0723C118.878 -16.0731 118.864 -16.1132 118.841 -16.1933C118.773 -16.4344 118.621 -17.0208 118.517 -17.7951C118.443 -18.3652 118.155 -18.8475 117.637 -19.1934C117.119 -19.5409 116.385 -19.7705 115.378 -19.9154C114.893 -19.984 114.474 -20.0117 114.112 -20.0117C112.971 -20.0155 112.374 -19.7243 112.108 -19.6211C111.983 -19.5671 111.928 -19.4762 111.878 -19.3838C111.715 -19.0586 111.629 -18.49 111.564 -17.973C111.502 -17.4607 111.474 -17.0192 111.474 -17.0169L111.667 -17.0046L111.678 -17.1972C109.632 -17.3105 86.8307 -18.3259 75.4994 -18.3267C64.1681 -18.3259 41.3661 -17.3105 39.3205 -17.1972L39.3313 -17.0046L39.524 -17.0169C39.5232 -17.0192 39.4878 -17.5955 39.4053 -18.1957C39.3637 -18.497 39.3105 -18.8021 39.2419 -19.0525C39.2072 -19.1773 39.1687 -19.2882 39.1201 -19.3838C39.0692 -19.4762 39.0161 -19.5671 38.8904 -19.6211C38.623 -19.7243 38.0264 -20.0155 36.8864 -20.0117C36.5242 -20.0117 36.1057 -19.984 35.6209 -19.9154C34.6135 -19.7705 33.8789 -19.5409 33.361 -19.1934C32.8423 -18.8475 32.5548 -18.3652 32.4808 -17.7951C32.4114 -17.2789 32.3205 -16.8467 32.2473 -16.5439C32.211 -16.3928 32.1786 -16.2742 32.1555 -16.1933C32.1332 -16.1132 32.1201 -16.0731 32.1201 -16.0723L32.3035 -16.0138L32.2696 -16.2033C32.2665 -16.2025 31.6754 -16.0962 31.0403 -15.9313C30.7219 -15.8481 30.3936 -15.7518 30.1177 -15.6432C29.8402 -15.5292 29.6182 -15.4298 29.481 -15.2449C29.3847 -15.1016 29.1889 -14.714 28.8952 -14.1177C28.0242 -12.3426 26.378 -8.83854 25.0183 -6.10032C23.3242 -2.68412 17.2205 10.4067 15.5773 14.2952L15.7545 14.3699L15.7754 14.1789L14.6963 14.0648L14.6763 14.2559L14.8689 14.2528C14.8689 14.2497 14.8504 13.2405 14.7333 12.1972C14.6747 11.6749 14.5915 11.1448 14.4697 10.7195C14.408 10.5061 14.3379 10.3189 14.2477 10.1663C14.1583 10.0161 14.0458 9.8851 13.8708 9.835C13.7575 9.80495 13.6034 9.7934 13.3821 9.78265C13.1632 9.7726 12.8858 9.76797 12.5628 9.76797C9.98929 9.76797 4.48915 10.0423 3.70683 10.0415C3.1303 10.043 2.61236 10.3782 2.19539 10.8705C1.77609 11.3651 1.44618 12.0277 1.2427 12.7443C0.845762 14.1596 0.348645 17.0943 0.310111 17.8062C0.30703 17.8716 0.304695 17.9425 0.304695 18.0165C0.303926 18.3709 0.3656 18.8185 0.689319 19.2038C1.01304 19.589 1.57645 19.8856 2.50753 20.0012C4.51767 20.2508 10.6722 20.643 10.6745 20.6438L10.6915 20.6445L10.7084 20.6422C10.7115 20.6422 10.9558 20.6152 11.2325 20.5597C11.3705 20.532 11.5169 20.4973 11.6495 20.4534C11.7821 20.4072 11.8992 20.361 11.9987 20.267C12.0665 20.1945 12.2731 20.0752 12.4503 19.9927C12.539 19.9495 12.623 19.9134 12.6838 19.8871L12.7563 19.8579L12.7748 19.8502L12.7771 19.8494L12.7325 19.7253L12.7741 19.8502L12.7771 19.8494L12.7325 19.7253L12.7741 19.8502L12.7163 19.6776L12.7663 19.8525L12.7741 19.8502L12.7163 19.6776L12.7663 19.8525L12.7139 19.6684V19.8602L12.7663 19.8525L12.7139 19.6684L12.6854 19.8579L12.7139 19.8602V19.6684L12.6854 19.8579L12.6862 19.8586C12.7416 19.8679 13.1579 19.9442 13.709 20.0451L13.7436 19.8556L13.561 19.7955C13.0037 21.4835 12.5212 23.1508 12.307 24.402C12.1011 25.617 11.3088 27.9931 10.5697 30.0479C10.2005 31.0773 9.84361 32.028 9.58001 32.7222C9.3156 33.4164 9.1445 33.8509 9.1445 33.8524L9.13224 33.884L9.13143 33.9179C9.13143 33.9187 9.00807 38.9019 9.00807 44.4839C9.00807 47.2754 9.03894 50.2161 9.13143 52.7603C9.40815 60.3994 10.6514 66.2581 10.6529 66.2651L10.6583 66.2899L10.6698 66.313C10.6707 66.3148 11.6194 68.1639 12.7478 70.1146C13.312 71.09 13.9209 72.0903 14.4813 72.9004C15.047 73.7134 15.538 74.3283 15.9588 74.5692C16.1746 74.6883 16.5022 74.7773 16.9377 74.868C18.4538 75.1742 21.2485 75.4048 23.7866 75.577C25.0553 75.6642 26.2577 75.7359 27.198 75.7943C28.136 75.852 28.8243 75.8994 29.0263 75.9312C29.0964 75.9393 29.2351 76.0063 29.4101 76.1329C30.0321 76.5726 31.0973 77.6387 32.8785 78.5789C34.662 79.5219 37.1732 80.3448 40.7202 80.3448H110.278C114.331 80.3453 117.032 79.2694 118.84 78.1703C119.744 77.6214 120.425 77.0672 120.939 76.646C121.196 76.4351 121.412 76.2577 121.588 76.1329C121.762 76.0063 121.901 75.9393 121.972 75.9312C122.203 75.8948 123.065 75.8393 124.218 75.7682C125.952 75.6608 128.373 75.5157 130.495 75.3222C131.557 75.2251 132.543 75.1165 133.335 74.9945C134.132 74.8691 134.717 74.7437 135.039 74.5692C135.46 74.3283 135.95 73.7134 136.516 72.9004C138.193 70.4723 140.325 66.3165 140.328 66.313L140.339 66.2899L140.345 66.2656C140.346 66.2581 141.59 60.3994 141.866 52.7603C141.959 50.2161 141.99 47.2755 141.99 44.4839C141.99 38.9019 141.866 33.9187 141.866 33.9179L141.865 33.884L141.853 33.8524C141.853 33.8509 141.682 33.4164 141.418 32.7222C140.627 30.645 139 26.2303 138.692 24.402C138.477 23.1508 137.995 21.4835 137.437 19.7955L137.254 19.8556L137.289 20.0451C137.585 19.9911 137.842 19.9442 138.026 19.9102C138.117 19.8933 138.19 19.8802 138.24 19.871L138.298 19.861L138.313 19.8579H138.316L138.303 19.7816L138.315 19.8579H138.316L138.303 19.7816L138.315 19.8579L138.287 19.6869L138.313 19.8579H138.315L138.287 19.6869L138.313 19.8579L138.285 19.6684V19.8602L138.313 19.8579L138.285 19.6684V19.6676L138.238 19.8548L138.285 19.8602V19.6676L138.238 19.8548L138.282 19.676L138.221 19.8494L138.238 19.8548L138.282 19.676L138.221 19.8494L138.225 19.8386L138.221 19.8494H138.221L138.225 19.8386L138.221 19.8494C138.244 19.8586 138.404 19.9218 138.575 20.0058C138.745 20.0867 138.935 20.1984 139 20.2662C139.099 20.361 139.215 20.4064 139.348 20.4534C139.741 20.5829 140.282 20.6414 140.289 20.6422L140.306 20.6445L140.323 20.6438C140.325 20.643 146.48 20.2508 148.49 20.0012C149.422 19.8856 149.985 19.5882 150.309 19.2022C150.633 18.8162 150.695 18.3686 150.694 18.0142C150.694 17.941 150.691 17.8709 150.688 17.8069L150.495 17.8162L150.303 17.8262L150.309 18.0142C150.307 18.3293 150.256 18.6667 150.014 18.9549C149.773 19.2431 149.319 19.5089 148.443 19.619C147.454 19.7423 145.414 19.9026 143.626 20.032C141.837 20.1607 140.302 20.2585 140.299 20.2593L140.311 20.4511L140.332 20.2601C140.332 20.2601 140.099 20.2338 139.841 20.1822C139.713 20.1561 139.578 20.1237 139.471 20.0875C139.363 20.0544 139.28 20.0058 139.272 19.9943C139.126 19.8517 138.909 19.74 138.715 19.6452C138.618 19.599 138.529 19.5597 138.463 19.532L138.385 19.4996L138.362 19.4904L138.353 19.4873L138.348 19.4858L138.341 19.4835L138.331 19.4803L138.285 19.475L138.256 19.4773C138.234 19.4803 137.811 19.5582 137.219 19.6661L137.001 19.7061L137.071 19.9157C137.626 21.5945 138.104 23.2525 138.311 24.4668C138.53 25.7441 139.324 28.1125 140.066 30.1782C140.806 32.2422 141.494 33.9919 141.495 33.9934L141.673 33.9226L141.481 33.9272C141.481 33.931 141.511 35.1722 141.543 37.1138C141.573 39.0562 141.604 41.6958 141.604 44.4839C141.604 47.272 141.573 50.2097 141.481 52.7465C141.343 56.5487 140.965 59.91 140.621 62.3201C140.449 63.5249 140.285 64.4928 140.165 65.1573C140.045 65.823 139.968 66.1836 139.968 66.1853L140.156 66.2252L139.985 66.1368C139.984 66.1385 139.749 66.5979 139.372 67.3011C138.806 68.3563 137.925 69.9592 137.053 71.3668C136.618 72.0706 136.186 72.7265 135.799 73.2379C135.416 73.7499 135.064 74.1185 134.852 74.2329C134.713 74.3109 134.401 74.4063 133.983 74.4901C132.513 74.7882 129.716 75.0211 127.185 75.1939C125.919 75.28 124.717 75.3511 123.776 75.41C122.832 75.4695 122.159 75.5134 121.913 75.5504C121.726 75.5822 121.559 75.6822 121.364 75.8191C120.692 76.2987 119.675 77.3209 117.939 78.2385C116.205 79.1538 113.765 79.9588 110.278 79.9599H40.7202C36.7346 79.9588 34.1163 78.9077 32.3574 77.841C31.4788 77.3071 30.8152 76.7685 30.3026 76.3473C30.046 76.1375 29.8271 75.9572 29.6329 75.8191C29.4378 75.6822 29.2714 75.5822 29.0848 75.5504C28.805 75.5077 27.9626 75.4556 26.8034 75.384C25.0692 75.2765 22.6513 75.1309 20.5379 74.9385C19.4804 74.842 18.5 74.7333 17.7207 74.6132C16.9454 74.4964 16.3565 74.3549 16.1453 74.2329C15.8571 74.0798 15.3422 73.4771 14.7981 72.682C13.9726 71.4876 13.0246 69.8489 12.2846 68.5117C11.9147 67.8426 11.5963 67.2486 11.3713 66.8227C11.1454 66.3957 11.0129 66.1374 11.0129 66.1368L10.841 66.2252L11.0298 66.1853C11.0298 66.1836 10.9527 65.823 10.8325 65.1574C10.4717 63.1615 9.72262 58.4498 9.51608 52.7465C9.42434 50.2092 9.39347 47.272 9.39347 44.4839C9.39347 41.6958 9.42434 39.0562 9.45515 37.1138C9.48602 35.1722 9.51608 33.931 9.51608 33.9272L9.32335 33.9226L9.5029 33.9934C9.50371 33.9919 10.1912 32.2422 10.9327 30.1782C11.6742 28.1125 12.468 25.7441 12.6869 24.4668C12.8943 23.2525 13.3721 21.5945 13.9263 19.9157L13.9957 19.7061L13.7784 19.6661C13.4824 19.6121 13.2249 19.5651 13.0415 19.5312C12.9506 19.515 12.8773 19.5011 12.8264 19.4919L12.7686 19.4819L12.7533 19.4788L12.7486 19.478L12.7455 19.4773H12.7425L12.7139 19.475L12.6607 19.4827L12.6353 19.4911C12.589 19.5089 12.4257 19.5751 12.243 19.6645C12.0588 19.757 11.8615 19.8617 11.7258 19.9943C11.7189 20.0058 11.6348 20.0544 11.5277 20.0875C11.3643 20.1422 11.1454 20.1869 10.9704 20.2162C10.7955 20.2454 10.666 20.2593 10.6652 20.2601L10.6868 20.4511L10.6992 20.2593C10.696 20.2585 9.15993 20.1607 7.37104 20.032C5.58363 19.9026 3.54344 19.7423 2.55533 19.619C1.67974 19.5089 1.22577 19.2431 0.984527 18.9557C0.742507 18.6683 0.69007 18.3316 0.69007 18.0165L0.695493 17.8262C0.726321 17.186 1.22883 14.2104 1.61344 12.849C1.80304 12.178 2.11519 11.5593 2.48901 11.1194C2.86437 10.6771 3.28985 10.4252 3.70683 10.4267C4.51844 10.4267 10.0032 10.1532 12.5628 10.1532C12.8819 10.1532 13.1548 10.1578 13.3652 10.1671C13.5726 10.1756 13.7267 10.1933 13.7699 10.2064C13.7907 10.2094 13.8515 10.251 13.9155 10.362C14.0296 10.5515 14.1352 10.9029 14.2131 11.3097C14.3317 11.9207 14.4004 12.6618 14.4381 13.2466C14.4759 13.8314 14.4835 14.259 14.4835 14.2598L14.4867 14.43L15.8763 14.5772L15.9326 14.4454C17.5666 10.5762 23.6764 -2.52769 25.3636 -5.92928C26.2716 -7.75832 27.3067 -9.92563 28.153 -11.6923C28.5761 -12.5752 28.9523 -13.3588 29.2413 -13.9482C29.528 -14.5337 29.7392 -14.9428 29.7986 -15.0268C29.8178 -15.0684 30.0067 -15.1917 30.258 -15.2849C30.6372 -15.4336 31.1612 -15.5708 31.586 -15.6678C32.0114 -15.7657 32.3367 -15.8242 32.3374 -15.8242L32.4515 -15.845L32.487 -15.9552C32.4893 -15.9629 32.7197 -16.6802 32.8623 -17.7434C32.9309 -18.2211 33.1391 -18.5748 33.5768 -18.8745C34.0154 -19.1711 34.6983 -19.3953 35.6748 -19.534C36.1435 -19.6002 36.5435 -19.6265 36.8864 -19.6265C37.9725 -19.6234 38.4588 -19.373 38.7524 -19.2613L38.7718 -19.3136L38.737 -19.269L38.7517 -19.262L38.7718 -19.3136L38.737 -19.269L38.7556 -19.2458C38.8033 -19.1773 38.8696 -18.9823 38.9189 -18.752C38.9953 -18.4037 39.0507 -17.9607 39.087 -17.6078C39.1232 -17.255 39.1386 -16.9938 39.1394 -16.993L39.1509 -16.8019L39.3421 -16.8127C41.3769 -16.9252 64.1878 -17.9415 75.4995 -17.9415C86.8117 -17.9415 109.622 -16.9252 111.657 -16.8127L111.847 -16.8019L111.859 -16.993C111.859 -16.9938 111.895 -17.5609 111.974 -18.1433C112.015 -18.4346 112.066 -18.7289 112.127 -18.9492C112.158 -19.0594 112.191 -19.1503 112.221 -19.2081L112.257 -19.2643L112.261 -19.269L112.227 -19.3136L112.247 -19.262L112.261 -19.269L112.227 -19.3136L112.247 -19.262C112.539 -19.373 113.025 -19.6234 114.112 -19.6265C114.454 -19.6265 114.855 -19.6002 115.324 -19.534C116.3 -19.3953 116.982 -19.1711 117.421 -18.8745C117.859 -18.5748 118.067 -18.2211 118.136 -17.7434C118.278 -16.6802 118.508 -15.9629 118.511 -15.9552L118.546 -15.845L118.659 -15.8242C118.661 -15.8242 119.242 -15.7195 119.861 -15.5584C120.17 -15.4783 120.488 -15.3835 120.74 -15.2849C120.992 -15.1917 121.18 -15.0684 121.199 -15.0268C121.225 -14.9883 121.298 -14.8589 121.392 -14.6747C122.066 -13.3711 124.046 -9.12821 125.633 -5.92928C127.322 -2.52769 133.431 10.5762 135.066 14.4454L135.122 14.5772L136.512 14.43L136.516 14.2598C136.516 14.259 136.52 14.0116 136.539 13.6341C136.567 13.0679 136.628 12.2119 136.753 11.4876C136.815 11.1256 136.894 10.7965 136.986 10.5616C137.077 10.3204 137.196 10.2041 137.228 10.2064C137.271 10.1933 137.425 10.1756 137.633 10.1671C137.842 10.1578 138.115 10.1532 138.434 10.1532C140.994 10.1532 146.48 10.4267 147.29 10.4267C147.708 10.4252 148.133 10.6771 148.508 11.1194C148.883 11.5593 149.195 12.178 149.384 12.849C149.77 14.2104 150.271 17.186 150.303 17.8262L150.495 17.8162Z" fill="black" fill-opacity="0.4"/>
<path d="M138.283 19.2645L138.225 19.3424C138.327 19.4148 138.545 19.4957 138.781 19.5982C139.014 19.6968 139.255 19.8162 139.336 19.9009L139.342 19.9071L139.349 19.9117C139.428 19.9641 139.556 19.9995 139.73 20.042C139.902 20.082 140.11 20.1182 140.308 20.1413L140.316 20.1428L140.325 20.1421C140.836 20.1097 146.538 19.7414 148.426 19.5057C149.197 19.4094 149.643 19.1914 149.896 18.9148C150.151 18.6382 150.196 18.3146 150.196 18.0534C150.196 17.9733 150.191 17.8985 150.188 17.8315C150.153 17.1743 149.667 14.2797 149.274 12.8798C149.084 12.2102 148.788 11.6324 148.441 11.2163C148.094 10.8011 147.695 10.5414 147.288 10.5399C147.001 10.5399 146.147 10.506 144.968 10.459C142.905 10.3773 140.077 10.2656 138.432 10.2656C138.008 10.2656 137.735 10.2733 137.565 10.2818C137.398 10.2895 137.319 10.298 137.319 10.2972V10.3935L137.341 10.2995L137.338 10.2987L137.293 10.288L137.256 10.3172C137.149 10.4082 137.087 10.57 137.016 10.8065C136.813 11.513 136.651 12.8752 136.626 14.2612L136.62 14.6172V14.6187C136.62 14.695 136.619 14.7859 136.619 14.8891C136.621 15.9262 136.678 18.1812 138.225 19.3424L138.283 19.2645L138.341 19.1875C136.889 18.1127 136.809 15.92 136.812 14.8891C136.812 14.7867 136.813 14.6958 136.813 14.6187H136.716L136.813 14.6202L136.818 14.2643C136.835 13.3497 136.912 12.4422 137.021 11.7372C137.075 11.3851 137.137 11.0838 137.201 10.8604C137.262 10.6378 137.342 10.4891 137.376 10.4683L137.316 10.3928L137.294 10.4868H137.297L137.308 10.4898H137.319C137.351 10.4891 137.405 10.4821 137.574 10.4736C137.741 10.466 138.01 10.4582 138.432 10.4582C140.069 10.4582 142.898 10.57 144.961 10.6516C146.141 10.6986 146.991 10.7325 147.288 10.7325C147.607 10.731 147.967 10.9475 148.293 11.3397C148.619 11.7295 148.905 12.2858 149.088 12.9322C149.475 14.3051 149.964 17.2205 149.995 17.8407C149.999 17.9086 150.003 17.9802 150.003 18.0534C150.002 18.2961 149.963 18.5565 149.755 18.7845C149.546 19.0133 149.149 19.2214 148.402 19.3146C146.528 19.5488 140.821 19.9179 140.314 19.9494L140.319 20.0458L140.33 19.9503C140.14 19.9279 139.938 19.8925 139.774 19.8539C139.612 19.8185 139.477 19.77 139.46 19.7545L139.405 19.8331L139.474 19.7653C139.341 19.6351 139.096 19.5257 138.857 19.4217C138.623 19.3223 138.387 19.226 138.341 19.1875L138.283 19.2645Z" fill="black" fill-opacity="0.4"/>
<path d="M12.6383 19.2645L12.5812 19.1875C12.5327 19.226 12.2968 19.3216 12.0625 19.4217C11.8243 19.5257 11.58 19.6351 11.4474 19.7653L11.5152 19.8331L11.4605 19.7545C11.4428 19.77 11.3071 19.8185 11.146 19.8539C10.9819 19.8925 10.7799 19.9279 10.5896 19.9503L10.6011 20.0458L10.6073 19.9494C10.1001 19.9179 4.3919 19.5488 2.51741 19.3146C1.77132 19.2214 1.37437 19.0134 1.1655 18.7853C0.956623 18.5565 0.918066 18.2961 0.917297 18.0542C0.917297 17.9802 0.921159 17.9086 0.925014 17.8415C0.955074 17.2205 1.44373 14.3051 1.8322 12.9322C2.01487 12.2858 2.30159 11.7295 2.62686 11.3397C2.95289 10.9475 3.31359 10.731 3.63114 10.7325C3.92942 10.7325 4.77881 10.6986 5.95885 10.6516C8.02371 10.57 10.8509 10.4582 12.4872 10.4582C12.9096 10.4582 13.1785 10.466 13.345 10.4736C13.5154 10.4821 13.5686 10.4891 13.6002 10.4898H13.6079L13.6202 10.4875L13.6048 10.3928L13.5447 10.4683C13.5794 10.4891 13.658 10.6378 13.7189 10.8604C13.9131 11.533 14.0765 12.8936 14.1011 14.265L14.1081 14.6202L14.2044 14.6187H14.1081V14.8876C14.1112 15.9169 14.0318 18.1119 12.5805 19.1875L12.6383 19.2645L12.6961 19.3424C14.243 18.1805 14.2985 15.9231 14.3008 14.8876V14.6156L14.2939 14.2612C14.2769 13.3382 14.199 12.4229 14.0896 11.7079C14.0348 11.3504 13.9725 11.043 13.9038 10.8072C13.8329 10.57 13.7713 10.4089 13.6649 10.3172L13.6317 10.2911L13.5855 10.298L13.6002 10.3935V10.2972C13.6002 10.298 13.5216 10.2895 13.3543 10.2818C13.184 10.2733 12.9119 10.2656 12.4872 10.2656C10.8432 10.2656 8.01678 10.3773 5.9511 10.459C4.77264 10.506 3.9194 10.5399 3.63114 10.5399C3.22494 10.5414 2.82572 10.8011 2.47888 11.2163C2.1328 11.6324 1.83604 12.2102 1.64643 12.8798C1.25257 14.2805 0.767005 17.1743 0.732321 17.8315C0.72924 17.8985 0.724609 17.9733 0.724609 18.0542C0.724609 18.3154 0.76934 18.6382 1.02369 18.9148C1.27727 19.1914 1.72276 19.4094 2.49351 19.5057C4.38264 19.7414 10.0855 20.1097 10.595 20.1421L10.6034 20.1428L10.6119 20.1413C10.81 20.1182 11.0173 20.082 11.1892 20.042C11.3641 19.9995 11.4921 19.9641 11.5707 19.9125L11.5777 19.9071L11.5839 19.9009C11.6648 19.8162 11.9068 19.6967 12.1388 19.5982C12.3747 19.4957 12.5935 19.4148 12.6961 19.3424L12.6383 19.2645Z" fill="black" fill-opacity="0.4"/>
<path d="M132.803 12.7158L132.98 12.6396C132.464 11.4361 127.251 -0.562979 126.08 -3.04076C125.499 -4.27272 124.89 -5.65336 124.342 -6.76126C124.068 -7.31523 123.809 -7.80062 123.573 -8.17044C123.455 -8.3546 123.344 -8.51096 123.233 -8.63427C123.122 -8.75597 123.018 -8.85073 122.885 -8.90158C122.521 -9.03414 121.985 -9.09961 121.526 -9.13965C121.069 -9.17895 120.698 -9.18744 120.695 -9.18744H115.647V-8.99485L115.702 -9.17895C115.697 -9.18051 111.237 -10.5203 107.98 -10.8331C104.728 -11.1436 86.5382 -11.3594 75.6612 -11.3594C64.7843 -11.3594 46.5941 -11.1436 43.343 -10.8331C40.0858 -10.5203 35.6262 -9.18051 35.6201 -9.17895L35.6755 -8.99485V-9.18744H30.627C30.6247 -9.18744 30.2532 -9.17895 29.7962 -9.13965C29.3375 -9.09961 28.8019 -9.03414 28.4381 -8.90158C28.3048 -8.85073 28.2 -8.75597 28.089 -8.63427C27.7098 -8.20586 27.2665 -7.35915 26.7725 -6.33365C26.2807 -5.31053 25.7513 -4.11861 25.2417 -3.04076C24.0717 -0.562979 18.8575 11.4361 18.3419 12.6404C18.0529 13.3237 17.7816 13.8885 17.7754 14.3592C17.7746 14.5387 17.824 14.7206 17.9527 14.857C18.0814 14.9933 18.2656 15.0688 18.4906 15.102C18.6733 15.1281 19.0942 15.142 19.707 15.152C20.3166 15.1613 21.1035 15.1651 21.9729 15.1651C25.4522 15.1651 30.2563 15.1043 30.2563 15.1043L30.254 14.9116V15.1043H121.069V14.9116L121.066 15.1043C121.066 15.1043 125.871 15.1651 129.349 15.1651C130.219 15.1651 131.006 15.1613 131.615 15.152C132.228 15.142 132.648 15.1281 132.831 15.102C133.057 15.0688 133.24 14.9933 133.369 14.857C133.499 14.7206 133.548 14.5387 133.547 14.3592C133.54 13.8885 133.269 13.3237 132.98 12.6396L132.803 12.7158L132.627 12.7914C132.921 13.4709 133.168 14.0472 133.162 14.3592C133.16 14.4786 133.135 14.5426 133.089 14.5935C133.042 14.6435 132.95 14.6952 132.775 14.7213C132.648 14.7406 132.213 14.7576 131.61 14.7668C131.004 14.7761 130.218 14.7799 129.349 14.7799C127.612 14.7799 125.542 14.7645 123.906 14.7491C122.272 14.7345 121.074 14.719 121.071 14.719H30.2517C30.2486 14.719 29.0508 14.7345 27.4153 14.7491C25.7805 14.7645 23.7103 14.7799 21.9729 14.7799C21.1043 14.7799 20.3189 14.7761 19.7131 14.7668C19.1104 14.7576 18.6734 14.7406 18.5477 14.7213C18.372 14.6952 18.2802 14.6435 18.234 14.5935C18.1877 14.5426 18.1623 14.4786 18.1608 14.3592C18.1546 14.0472 18.4012 13.4709 18.6964 12.7914C19.209 11.5941 24.4278 -0.415803 25.5909 -2.87666C26.1752 -4.11399 26.784 -5.49463 27.3259 -6.59022C27.5965 -7.13801 27.8507 -7.61496 28.0735 -7.96317C28.1845 -8.13652 28.287 -8.27832 28.3764 -8.3769C28.4643 -8.4771 28.5414 -8.53101 28.5714 -8.54026C28.8589 -8.64814 29.3869 -8.71899 29.8293 -8.75597C30.2733 -8.79376 30.6363 -8.80219 30.6363 -8.80219L30.6317 -8.99485V-8.80219H35.7041L35.731 -8.80994C35.731 -8.80994 36.0077 -8.89315 36.474 -9.02333C37.8745 -9.4124 40.9845 -10.2214 43.38 -10.4494C46.5786 -10.7569 64.7982 -10.9749 75.6613 -10.9741C86.5243 -10.9749 104.744 -10.7569 107.943 -10.4494C109.539 -10.2969 111.455 -9.88703 112.968 -9.51566C113.725 -9.32919 114.381 -9.15277 114.848 -9.02333C115.315 -8.89315 115.591 -8.80994 115.591 -8.80994L115.619 -8.80219H120.691V-8.99485L120.686 -8.80219C120.686 -8.80219 121.05 -8.79376 121.493 -8.75597C121.936 -8.71899 122.464 -8.64814 122.751 -8.54026C122.781 -8.53101 122.858 -8.4771 122.946 -8.3769C123.263 -8.02638 123.718 -7.18042 124.203 -6.16723C124.691 -5.15104 125.221 -3.95913 125.732 -2.87666C126.895 -0.415803 132.113 11.5941 132.627 12.7914L132.803 12.7158Z" fill="black" fill-opacity="0.4"/>
<path d="M111.106 -4.841L111.199 -4.86643C110.959 -5.7563 110.857 -6.46358 110.6 -7.05835C110.344 -7.65469 109.921 -8.12776 109.079 -8.51226C108.837 -8.61933 108.238 -8.70023 107.318 -8.78263C100.91 -9.34354 79.5147 -9.55469 75.6596 -9.55469C73.4571 -9.55469 65.526 -9.48529 57.9383 -9.32199C54.1436 -9.24028 50.4355 -9.13477 47.5706 -9.00227C46.1384 -8.93599 44.9176 -8.86278 44.0011 -8.78263C43.0816 -8.70023 42.482 -8.61933 42.2408 -8.51226C41.3983 -8.12776 40.9751 -7.65469 40.7192 -7.05835C40.4626 -6.46358 40.3608 -5.7563 40.1203 -4.86643C39.634 -3.06281 36.7406 12.0898 36.7398 12.0928L36.7383 12.1013V12.1106C36.7383 12.1213 36.739 12.5374 37.0404 12.9588C37.3425 13.3826 37.9507 13.7932 39.1099 13.7917H112.21C113.367 13.7932 113.976 13.3826 114.277 12.9596C114.58 12.5382 114.58 12.1229 114.58 12.1106V12.1013L114.579 12.0928C114.578 12.0898 111.685 -3.06281 111.199 -4.86643L111.106 -4.841L111.013 -4.81638C111.252 -3.93032 112.098 0.312598 112.881 4.32513C113.274 6.33215 113.651 8.28294 113.93 9.73217C114.208 11.1814 114.389 12.1267 114.389 12.1291L114.484 12.1106H114.388L114.384 12.1699C114.369 12.3093 114.304 12.6668 114.008 12.9858C113.713 13.3047 113.186 13.5983 112.21 13.5991H39.1099C37.9939 13.5968 37.4643 13.2162 37.1969 12.8471C37.0636 12.6614 36.9973 12.475 36.9641 12.3363C36.9471 12.2662 36.9387 12.2084 36.9348 12.1691L36.931 12.1106H36.8347L36.9295 12.1291C36.9295 12.1267 37.1098 11.1814 37.3888 9.73217C38.2258 5.3868 39.947 -3.48348 40.3061 -4.81638C40.5489 -5.71782 40.653 -6.42354 40.8958 -6.98208C41.1401 -7.54068 41.5093 -7.96291 42.3209 -8.3366C42.4936 -8.419 43.1102 -8.51301 44.0181 -8.59079C50.4062 -9.1502 71.8108 -9.36203 75.6596 -9.36203C77.8591 -9.36203 85.7902 -9.29269 93.3774 -9.12934C97.1707 -9.04769 100.878 -8.94218 103.74 -8.80962C105.17 -8.7434 106.39 -8.67018 107.301 -8.59079C108.21 -8.51301 108.826 -8.419 108.998 -8.3366C109.81 -7.96291 110.18 -7.54068 110.423 -6.98208C110.666 -6.42354 110.77 -5.71782 111.013 -4.81638L111.106 -4.841Z" fill="black" fill-opacity="0.4"/>
<path d="M121.068 14.9116L121.066 15.1042C121.066 15.1042 125.889 15.1651 129.369 15.1651H129.648L120.473 -9.1875H115.408L120.534 15.1042H121.068V14.719H120.846L115.884 -8.80225H120.206L129.189 15.0403L129.369 14.9725V14.7798C127.631 14.7798 125.556 14.7645 123.916 14.7498C122.276 14.7344 121.073 14.719 121.07 14.719H121.068V14.9116Z" fill="black" fill-opacity="0.4"/>
<path d="M29.8992 14.9116L29.8969 14.719C29.8938 14.719 28.6915 14.7344 27.0505 14.7498C25.4103 14.7645 23.3355 14.7798 21.5966 14.7798V14.9725L21.777 15.0403L30.7609 -8.80225H35.0826L30.1204 14.719H29.8969L29.8992 14.9116V15.1042H30.4334L35.5574 -9.1875H30.4943L21.3184 15.1651H21.5966C25.0782 15.1651 29.9008 15.1042 29.9016 15.1042L29.8992 14.9116Z" fill="black" fill-opacity="0.4"/>
<path d="M134.451 23.9887C134.335 22.8908 134.081 21.6889 133.809 20.3079C133.682 19.6722 133.399 19.2967 133.104 19.0944C132.809 18.8979 132.52 18.8748 132.393 18.8748H132.318C132 18.8748 128.688 18.8633 125.953 18.8633C124.52 18.8633 123.242 18.8633 122.653 18.8748C121.751 18.8864 121.311 18.9846 121.005 19.1637C120.693 19.3487 120.583 19.5624 120.288 19.7705C119.722 20.1923 119.652 20.747 119.652 20.9608L119.658 21.0475V21.0591L119.693 21.764L119.826 24.7746L119.832 24.867L119.837 25.0635L119.843 25.156L120.103 30.8939C120.132 31.518 120.334 32.0727 120.595 32.535C120.722 32.7604 121.485 34.1183 122.219 35.4242C122.78 36.4181 123.317 37.3773 123.537 37.7818H123.543C123.606 37.8916 123.641 37.961 123.653 37.9725V37.9783L123.699 38.065L123.705 38.0765H128.647C129.329 38.0765 129.78 37.8338 130.04 37.5738C130.3 37.3195 130.381 37.071 130.387 37.0537V37.048L130.393 37.0422C130.393 37.0422 132.306 29.6053 132.613 28.4092C132.763 27.8198 132.879 27.5598 133.012 27.4038C133.145 27.2477 133.347 27.1437 133.717 26.9184C134.035 26.7219 134.231 26.4041 134.347 26.0516C134.457 25.6933 134.497 25.2831 134.497 24.867C134.497 24.5723 134.48 24.2719 134.451 23.9887ZM133.977 25.9303C133.879 26.2365 133.734 26.4561 133.52 26.589C133.168 26.8086 132.925 26.9126 132.717 27.1495C132.514 27.3922 132.393 27.71 132.237 28.3168C132.087 28.9119 131.532 31.0673 131.011 33.0782C130.514 35.0139 130.052 36.8168 130.017 36.9382V36.9439C130.006 36.9844 129.93 37.1635 129.734 37.3369C129.532 37.5102 129.208 37.6894 128.647 37.6894H123.936C123.543 36.9959 121.161 32.7604 120.936 32.3501C120.693 31.9225 120.508 31.4198 120.485 30.8766L120.225 25.156L120.074 21.764L120.04 21.0186V20.9608C120.04 20.8106 120.074 20.4119 120.519 20.0825C120.866 19.8225 120.988 19.6145 121.202 19.4989C121.41 19.3717 121.78 19.2735 122.658 19.262C123.248 19.2504 124.52 19.2446 125.953 19.2446C127.387 19.2446 128.988 19.2504 130.225 19.2562C131.462 19.2562 132.335 19.262 132.341 19.262H132.353L132.364 19.2562H132.393C132.474 19.2562 132.682 19.2735 132.884 19.4122C133.092 19.5567 133.312 19.8225 133.428 20.383C133.705 21.7698 133.954 22.9544 134.064 24.0234C134.093 24.3065 134.11 24.5897 134.11 24.867C134.116 25.26 134.075 25.6298 133.977 25.9303Z" fill="black" fill-opacity="0.4"/>
<path d="M30.873 19.7705C30.5782 19.5624 30.4626 19.3487 30.1562 19.1637C29.844 18.9846 29.4105 18.8864 28.5087 18.8748C27.9133 18.8633 26.6416 18.8633 25.2079 18.8633C22.4621 18.8633 19.1267 18.8748 18.8376 18.8748H18.7682C18.6353 18.8748 18.352 18.898 18.0572 19.0944C17.7624 19.2967 17.4791 19.6722 17.352 20.3079C17.0745 21.6889 16.8259 22.8908 16.7103 23.9887C16.6814 24.2777 16.6641 24.5723 16.6641 24.8728C16.6641 25.2889 16.6987 25.6933 16.8144 26.0516C16.93 26.4041 17.1265 26.7219 17.4387 26.9184C17.8144 27.1437 18.0167 27.2477 18.1497 27.4038C18.2827 27.5598 18.3983 27.8198 18.5486 28.4092C18.8549 29.6054 20.7683 37.0422 20.7683 37.0422V37.048L20.7741 37.0537C20.7799 37.0711 20.8609 37.3195 21.121 37.5738C21.3811 37.8338 21.8262 38.0765 22.5083 38.0765H27.4508L27.4624 38.0534L27.5087 37.9783C27.5087 37.9783 27.5491 37.9032 27.6127 37.7818C27.8381 37.3889 28.3815 36.4239 28.9423 35.4242C29.6764 34.1183 30.4394 32.7604 30.5608 32.535C30.821 32.0727 31.0291 31.518 31.058 30.8939L31.3181 25.156L31.3239 25.0635L31.3297 24.867L31.3355 24.7746L31.4684 21.764L31.5031 21.0591V21.0475L31.5089 20.9608C31.5089 20.747 31.4395 20.1923 30.873 19.7705ZM21.3869 37.2964C21.2886 37.204 21.225 37.1115 21.1903 37.0422L21.1499 36.9555L21.1441 36.9439C21.1441 36.9439 20.6643 35.0833 20.144 33.0782C19.6296 31.0673 19.0746 28.9119 18.9243 28.3168C18.7682 27.71 18.6468 27.3922 18.4387 27.1495C18.2306 26.9126 17.9936 26.8086 17.641 26.589C17.4271 26.4561 17.2768 26.2365 17.1843 25.9303C17.086 25.6298 17.0456 25.26 17.0456 24.8728C17.0456 24.5955 17.0687 24.3066 17.0976 24.0234C17.2075 22.9544 17.4502 21.7698 17.7335 20.383C17.8433 19.8225 18.0688 19.5567 18.2769 19.4122C18.4792 19.2735 18.6873 19.2562 18.7683 19.2562H18.7971L18.8087 19.262H18.8203C18.8203 19.262 19.6989 19.2562 20.936 19.2562C22.1731 19.2504 23.7685 19.2447 25.2079 19.2447C26.6416 19.2447 27.9133 19.2504 28.5029 19.262C29.3816 19.2735 29.7516 19.3718 29.9597 19.4989C30.1735 19.6145 30.2949 19.8225 30.6418 20.0825C31.0811 20.4119 31.1216 20.8106 31.1216 20.9608V21.0128L31.1158 21.0186L30.9481 24.7457L30.9308 25.156L30.6765 30.8766C30.6476 31.4198 30.4684 31.9225 30.2256 32.3501C30.0001 32.7604 27.6185 36.9959 27.2254 37.6894H22.5083C21.9187 37.6894 21.5892 37.4871 21.3869 37.2964Z" fill="black" fill-opacity="0.4"/>
<path d="M31.1209 20.9584V21.0104L31.1151 21.0162L30.9475 24.7432L30.9302 25.1535L30.6758 30.8741C30.6469 31.4173 30.4677 31.92 30.2249 32.3476C29.9995 32.7579 27.6178 36.9935 27.2247 37.6869H22.5077C21.918 37.6869 21.5885 37.4847 21.3862 37.294C21.288 37.2015 21.2244 37.109 21.1897 37.0397L21.1492 36.9531L21.1435 36.9415C21.1435 36.9415 20.6636 35.0808 20.1434 33.0757C19.6289 31.0648 19.074 28.9095 18.9236 28.3143C18.7676 27.7076 18.6462 27.3897 18.4381 27.1471C18.23 26.9102 17.993 26.8062 17.6404 26.5866C17.4265 26.4536 17.2762 26.2341 17.1837 25.9278C17.0854 25.6273 17.0449 25.2575 17.0449 24.8704C17.0449 24.593 17.0681 24.3041 17.097 24.021C17.2068 22.9519 17.4496 21.7674 17.7328 20.3805C17.8427 19.82 18.0681 19.5542 18.2762 19.4098C18.4786 19.2711 18.6867 19.2538 18.7676 19.2538H18.7965L18.808 19.2595H18.8196C18.8196 19.2595 19.6983 19.2538 20.9354 19.2538C22.1724 19.248 23.7679 19.2422 25.2073 19.2422C26.6409 19.2422 27.9126 19.248 28.5023 19.2595C29.3809 19.2711 29.7509 19.3693 29.959 19.4964C30.1729 19.612 30.2943 19.82 30.6411 20.0801C31.0805 20.4094 31.1209 20.8081 31.1209 20.9584Z" fill="#3265B1"/>
<path d="M120.074 21.7617H31.0858L30.947 24.7434L30.9297 25.1537H120.23L120.074 21.7617ZM31.4557 22.1431H119.704L119.825 24.7723H31.3343L31.4557 22.1431Z" fill="black" fill-opacity="0.4"/>
<path d="M134.109 24.8646C134.115 25.2575 134.075 25.6273 133.976 25.9278C133.878 26.2341 133.734 26.4536 133.52 26.5866C133.167 26.8062 132.924 26.9102 132.716 27.1471C132.514 27.3897 132.392 27.7076 132.236 28.3143C132.086 28.9095 131.531 31.0648 131.011 33.0757C130.514 35.0115 130.051 36.8143 130.017 36.9357V36.9415C130.005 36.9819 129.93 37.1611 129.733 37.3344C129.531 37.5078 129.207 37.6869 128.647 37.6869H123.935C123.542 36.9935 121.161 32.7579 120.935 32.3476C120.692 31.92 120.507 31.4173 120.484 30.8741L120.224 25.1535H120.23L120.074 21.7616L120.039 21.0162V20.9584C120.039 20.8082 120.074 20.4094 120.519 20.0801C120.866 19.82 120.987 19.612 121.201 19.4964C121.409 19.3693 121.779 19.2711 122.658 19.2595C123.247 19.248 124.519 19.2422 125.953 19.2422C127.386 19.2422 128.988 19.248 130.225 19.2538C131.462 19.2538 132.335 19.2595 132.34 19.2595H132.352L132.364 19.2538H132.392C132.473 19.2538 132.681 19.2711 132.884 19.4097C133.092 19.5542 133.312 19.82 133.427 20.3805C133.705 21.7674 133.953 22.9519 134.063 24.021C134.092 24.3041 134.109 24.5872 134.109 24.8646Z" fill="#3265B1"/>
<path d="M120.765 32.4439L120.849 32.3969C120.604 31.9624 120.415 31.4477 120.389 30.8853L120.119 24.8711H31.0409L30.7703 30.8853C30.7448 31.4477 30.5553 31.9624 30.3102 32.3969C30.0597 32.8414 27.2564 37.8362 27.2556 37.8362L27.2402 37.8646L27.2449 37.8969C27.2449 37.8981 27.6048 40.3903 28.058 43.0854C28.5135 45.7833 29.0523 48.6673 29.4338 49.5035C29.7945 50.2922 29.9818 51.1474 31.198 51.7651C32.4104 52.3823 34.6195 52.7821 39.0598 52.7833H115.645V52.6868L115.641 52.7833L115.72 52.7844C116.06 52.7839 117.43 52.7405 118.86 52.0633C120.29 51.3872 121.777 50.0651 122.313 47.5365C123.457 42.1602 123.914 37.8963 123.915 37.894L123.918 37.8634L123.902 37.8362C123.902 37.8362 121.099 32.8414 120.849 32.3969L120.765 32.4439L120.681 32.4917C120.806 32.7136 121.569 34.0734 122.302 35.3778C123.034 36.6822 123.735 37.931 123.735 37.931L123.819 37.8842L123.723 37.8732C123.723 37.8761 123.609 38.9365 123.353 40.6717C123.095 42.4076 122.696 44.8137 122.125 47.496C121.598 49.9646 120.167 51.2283 118.778 51.8894C117.389 52.5481 116.042 52.592 115.72 52.592L115.648 52.5903H39.0598C34.6318 52.592 32.4413 52.1852 31.2859 51.5935C30.1344 51.0035 29.9865 50.246 29.6088 49.4231C29.2504 48.6482 28.6993 45.7411 28.2484 43.053C28.0218 41.7072 27.8182 40.4111 27.6718 39.4519C27.5254 38.4927 27.436 37.8715 27.4352 37.8703L27.3404 37.8842L27.4244 37.931C27.4252 37.9281 28.1251 36.6822 28.8573 35.3778C29.5895 34.0734 30.3533 32.7136 30.4782 32.4917C30.7333 32.0379 30.9353 31.4947 30.963 30.8938L31.225 25.0637H119.935L120.197 30.8938C120.225 31.4947 120.426 32.0379 120.681 32.4917L120.765 32.4439Z" fill="black" fill-opacity="0.4"/>
<path d="M140.156 66.2229L140.25 66.2431C140.25 66.239 141.493 60.3844 141.769 52.7545C141.861 50.2068 141.892 47.2598 141.892 44.4637C141.892 39.6468 141.8 35.2799 141.775 34.1843L141.582 34.1797C141.582 34.182 141.508 35.1905 141.39 36.7314C141.214 39.0429 140.939 42.5475 140.67 45.6222C140.401 48.694 140.134 51.3521 139.983 51.9265C139.804 52.6159 139.61 53.155 139.347 53.5109C139.082 53.8663 138.764 54.0466 138.28 54.0495C138.139 54.0495 137.983 54.0333 137.813 53.9986C137.102 53.8576 133.803 53.6196 129.902 53.4138C126.005 53.2093 121.521 53.0388 118.477 53.0388C112.393 53.0388 80.9937 52.9678 75.4783 52.9678C69.9618 52.9678 38.5627 53.0388 32.4799 53.0388C29.4346 53.0388 24.9503 53.2093 21.0534 53.4138C17.1533 53.6196 13.8537 53.8576 13.1423 53.9986C12.972 54.0333 12.817 54.0495 12.676 54.0495C12.192 54.0466 11.8736 53.8663 11.6093 53.5109C11.3464 53.155 11.153 52.6159 10.9734 51.9265C10.7907 51.2313 10.4416 47.5164 10.1194 43.6807C9.7972 39.8415 9.49816 35.8647 9.40417 34.5957L9.21144 34.6011C9.17832 36.1458 9.10352 40.1345 9.10352 44.4873C9.10352 47.276 9.13433 50.2126 9.22682 52.7545C9.50279 60.3844 10.7452 66.239 10.746 66.2431L10.7484 66.2552L10.7545 66.2668C10.7552 66.2679 11.7033 68.1159 12.8302 70.0638C13.3944 71.0374 14.0017 72.0365 14.5597 72.8432C15.1201 73.6516 15.6164 74.2641 16.0042 74.4831C16.3934 74.6952 17.3144 74.861 18.5253 75.0142C22.1463 75.4655 28.29 75.718 29.04 75.8335C29.2435 75.8584 29.608 76.1461 30.1183 76.5686C31.6606 77.8352 34.665 80.2482 40.7193 80.2459H110.277C114.313 80.2459 116.993 79.1763 118.789 78.0854C119.687 77.5399 120.364 76.9898 120.878 76.5686C121.388 76.1461 121.752 75.8584 121.956 75.8335C122.451 75.7567 125.358 75.618 128.302 75.4013C129.775 75.2927 131.262 75.165 132.47 75.0142C133.681 74.861 134.603 74.6952 134.992 74.4831C135.38 74.2641 135.876 73.6516 136.436 72.8432C138.107 70.4244 140.24 66.2685 140.241 66.2668L140.247 66.2552L140.25 66.2431L140.156 66.2229L140.069 66.179C140.069 66.1801 139.833 66.6395 139.456 67.3439C138.89 68.4002 138.007 70.0043 137.134 71.4148C136.267 72.8241 135.386 74.0497 134.897 74.3144C134.578 74.4958 133.646 74.6744 132.446 74.8229C128.834 75.273 122.712 75.5238 121.926 75.6434C121.616 75.6972 121.272 76 120.755 76.42C119.217 77.6792 116.28 80.0512 110.277 80.0535H40.7193C36.7167 80.0523 34.0777 78.9961 32.3072 77.9207C31.4216 77.3833 30.7534 76.8407 30.2401 76.42C29.7229 75.9999 29.3783 75.6972 29.0693 75.6434C28.5413 75.5619 25.6548 75.4256 22.7082 75.2095C21.236 75.1008 19.7524 74.9731 18.5492 74.8229C17.3499 74.6744 16.418 74.4958 16.0982 74.3144C15.7768 74.1393 15.2673 73.5326 14.7177 72.734C13.8892 71.5344 12.9403 69.8945 12.1997 68.555C11.459 67.2162 10.9272 66.1813 10.9264 66.179L10.84 66.2229L10.9349 66.2032C10.9341 66.2015 10.857 65.8386 10.7367 65.1718C10.3753 63.1724 9.6261 58.4573 9.41881 52.7476C9.32707 50.2097 9.2962 47.2743 9.2962 44.4873C9.2962 40.1368 9.371 36.149 9.40418 34.605L9.30782 34.6034L9.21145 34.6104C9.3055 35.8793 9.60529 39.8565 9.92745 43.6969C10.2512 47.5418 10.5942 51.2313 10.7869 51.975C10.9695 52.6719 11.1646 53.2307 11.4536 53.6253C11.7418 54.0212 12.1403 54.2448 12.676 54.2425C12.8317 54.2425 12.999 54.224 13.1801 54.1882C13.8538 54.0518 17.1718 53.8108 21.0634 53.6068C24.9581 53.4017 29.4408 53.2312 32.4799 53.2312C38.5627 53.2312 69.963 53.1608 75.4783 53.1608C80.9931 53.1608 112.393 53.2312 118.477 53.2312C121.515 53.2312 125.998 53.4017 129.893 53.6068C133.785 53.8108 137.102 54.0518 137.775 54.1876C137.956 54.224 138.123 54.2425 138.28 54.2425C138.815 54.2448 139.214 54.0212 139.502 53.6253C139.792 53.2307 139.987 52.6719 140.169 51.975C140.382 51.1545 140.779 46.7271 141.129 42.4799C141.478 38.2374 141.775 34.1936 141.775 34.1936L141.679 34.1866L141.582 34.1889C141.608 35.283 141.7 39.6491 141.7 44.4637C141.7 47.2581 141.668 50.2028 141.576 52.7476C141.439 56.5538 141.06 59.9192 140.715 62.3311C140.543 63.5376 140.379 64.5055 140.259 65.1718C140.139 65.8386 140.062 66.2015 140.061 66.2032L140.156 66.2229Z" fill="black" fill-opacity="0.4"/>
<path d="M121.941 75.7399L121.956 75.8353C122.451 75.7584 125.358 75.6197 128.302 75.403C129.775 75.2944 131.262 75.1667 132.47 75.0159C133.681 74.8628 134.603 74.6969 134.992 74.4848C135.38 74.2658 135.876 73.6533 136.436 72.8449C138.107 70.4261 140.24 66.2703 140.241 66.2685L140.247 66.257L140.25 66.2448C140.25 66.2408 141.493 60.3861 141.769 52.7563C141.861 50.2138 141.892 47.2737 141.892 44.4833C141.892 38.9019 141.769 33.9202 141.769 33.9194V33.9025L141.763 33.8871C141.762 33.8856 141.552 33.3493 141.237 32.518C140.922 31.6875 140.504 30.5633 140.092 29.393L140.076 29.3483L140.031 29.3337C138.936 28.9654 137.699 28.5609 137.007 28.3745C136.356 28.2003 135.711 27.8891 135.122 27.8868C134.786 27.8844 134.463 27.9985 134.204 28.3028C133.945 28.6056 133.744 29.084 133.603 29.8199C133.082 32.5349 131.588 38.4344 131.256 39.4688C131.097 39.9588 130.701 40.3743 129.915 40.6771C129.13 40.9781 127.961 41.1561 126.295 41.1561H24.343C22.6774 41.1561 21.5081 40.9781 20.7235 40.6771C19.9373 40.3743 19.5411 39.9588 19.3824 39.4688C19.0502 38.4344 17.5557 32.5349 17.0354 29.8199C16.8936 29.084 16.6932 28.6056 16.4342 28.3028C16.1753 27.9985 15.8515 27.8853 15.5155 27.8868C14.9274 27.8891 14.2823 28.2003 13.6317 28.3745C13.0236 28.5386 11.9954 28.8691 11.012 29.1973L10.9672 29.212L10.9518 29.2566C10.5318 30.4532 10.1017 31.6112 9.7772 32.4694C9.45267 33.3277 9.23381 33.8856 9.233 33.8871L9.22682 33.9025V33.9194C9.22607 33.9202 9.10352 38.9019 9.10352 44.4833C9.10352 47.2737 9.13433 50.2138 9.22682 52.7563C9.50279 60.3861 10.7452 66.2408 10.746 66.2448L10.7484 66.257L10.7545 66.2685C10.7552 66.2697 11.7033 68.1176 12.8302 70.0655C13.3944 71.0392 14.0017 72.0383 14.5597 72.8449C15.1201 73.6533 15.6164 74.2659 16.0042 74.4849C16.3934 74.6969 17.3144 74.8628 18.5253 75.0159C22.1463 75.4672 28.29 75.7197 29.04 75.8353C29.2435 75.8601 29.608 76.1479 30.1183 76.5703C31.6606 77.8369 34.665 80.25 40.7193 80.2477H110.277C114.313 80.2477 116.994 79.1781 118.789 78.0871C119.687 77.5416 120.364 76.9915 120.878 76.5703C121.388 76.1479 121.752 75.8601 121.956 75.8353L121.941 75.7399L121.926 75.6452C121.616 75.6989 121.272 76.0017 120.755 76.4218C119.217 77.6809 116.28 80.0529 110.277 80.0552H40.7193C36.7167 80.0541 34.0777 78.9978 32.3072 77.9224C31.4216 77.3851 30.7534 76.8424 30.24 76.4218C29.7228 76.0017 29.3783 75.6989 29.0693 75.6452C28.5413 75.5637 25.6548 75.4273 22.7082 75.2112C21.236 75.1026 19.7524 74.9749 18.5492 74.8246C17.3499 74.6761 16.418 74.4976 16.0982 74.3161C15.7767 74.141 15.2673 73.5343 14.7177 72.7357C13.8892 71.5361 12.9403 69.8962 12.1997 68.5568C11.459 67.2179 10.9272 66.183 10.9264 66.1807L10.84 66.2246L10.9348 66.205C10.9341 66.2032 10.857 65.8403 10.7367 65.1735C10.3753 63.1742 9.62609 58.459 9.41879 52.7493C9.32705 50.2109 9.29619 47.272 9.29619 44.4833C9.29619 41.6941 9.32705 39.0545 9.35787 37.1114C9.38873 35.1691 9.41879 33.9279 9.41879 33.9241L9.32243 33.9217L9.41261 33.9572C9.41261 33.9564 10.2913 31.7183 11.1337 29.3206L11.0428 29.289L11.0736 29.3799C12.0547 29.0525 13.083 28.722 13.6819 28.5602C14.3524 28.3776 14.9968 28.0771 15.5155 28.0794C15.8122 28.0809 16.0619 28.168 16.2878 28.4284C16.5136 28.6896 16.7086 29.138 16.8466 29.856C17.3699 32.5866 18.8613 38.4726 19.1989 39.5283C19.377 40.083 19.8348 40.5436 20.6542 40.8568C21.475 41.1711 22.6635 41.3479 24.343 41.3491H126.295C127.975 41.3479 129.163 41.1711 129.984 40.8568C130.804 40.5436 131.262 40.083 131.439 39.5283C131.776 38.4726 133.268 32.5866 133.792 29.856C133.929 29.138 134.125 28.6896 134.35 28.4284C134.576 28.168 134.826 28.0809 135.122 28.0794C135.641 28.0771 136.286 28.3776 136.957 28.5602C137.639 28.7443 138.877 29.1488 139.971 29.5163L140.001 29.4246L139.91 29.457C140.737 31.8022 141.583 33.9564 141.583 33.9572L141.672 33.9217L141.576 33.9241C141.576 33.9279 141.607 35.1691 141.638 37.1114C141.669 39.0545 141.7 41.6941 141.7 44.4833C141.7 47.272 141.668 50.2109 141.576 52.7493C141.439 56.5556 141.06 59.9209 140.715 62.3328C140.543 63.5394 140.379 64.5073 140.259 65.1735C140.139 65.8404 140.062 66.2032 140.061 66.205L140.156 66.2246L140.069 66.1807C140.069 66.1819 139.833 66.6412 139.456 67.3456C138.89 68.4019 138.007 70.006 137.134 71.4165C136.267 72.8259 135.386 74.0515 134.897 74.3161C134.578 74.4976 133.646 74.6761 132.446 74.8246C128.834 75.2748 122.712 75.5256 121.926 75.6452L121.941 75.7399Z" fill="black" fill-opacity="0.4"/>
<path d="M47.4075 36.3493L47.4938 36.3909L53.0795 24.8711H31.0427L30.7722 30.8853C30.7467 31.4477 30.5571 31.9624 30.312 32.3969C30.0616 32.8414 27.2583 37.8361 27.2575 37.8361L27.1758 37.9828L27.3431 37.9805C27.3461 37.9794 28.3651 37.9655 29.9228 37.9436C34.5944 37.8788 44.0909 37.7477 45.2832 37.7477C46.9373 37.7453 47.4938 36.3963 47.4961 36.3855L47.4075 36.3493L47.318 36.3131L47.295 36.3624C47.1762 36.599 46.6244 37.5559 45.2832 37.5551C43.6878 37.5551 27.3408 37.7875 27.3408 37.7875L27.3423 37.884L27.4263 37.9308C27.4271 37.9279 28.1269 36.6822 28.8592 35.3778C29.5914 34.0734 30.3552 32.7136 30.48 32.4917C30.7352 32.0378 30.9371 31.4947 30.9649 30.8937L31.2269 25.0637H52.7719L47.3196 36.31L47.318 36.3131L47.4075 36.3493Z" fill="black" fill-opacity="0.4"/>
<path d="M103.755 36.3493L103.841 36.3069L98.3896 25.0637H119.937L120.198 30.8937C120.226 31.4947 120.427 32.0378 120.682 32.4917C120.807 32.7136 121.571 34.0734 122.303 35.3778C123.036 36.6822 123.736 37.9308 123.736 37.9308L123.82 37.884L123.822 37.7875C123.821 37.7875 107.475 37.5551 105.879 37.5551C105.11 37.5543 104.607 37.2438 104.288 36.9318C104.128 36.7754 104.017 36.619 103.945 36.5027L103.867 36.3624L103.844 36.3131L103.844 36.3108L103.841 36.3069L103.755 36.3493L103.666 36.3855C103.669 36.3963 104.225 37.7453 105.879 37.7477C106.674 37.7477 111.16 37.806 115.446 37.8638C117.588 37.8933 119.682 37.9216 121.239 37.9436C122.797 37.9655 123.819 37.9805 123.819 37.9805L123.986 37.9828L123.904 37.8361C123.904 37.8361 121.101 32.8414 120.85 32.3969C120.606 31.9624 120.416 31.4477 120.391 30.8853L120.12 24.8711H98.082L103.668 36.3909L103.755 36.3493Z" fill="black" fill-opacity="0.4"/>
<path d="M83.509 47.521L83.5917 47.4707C83.5911 47.4701 83.3165 47.0217 82.9876 46.4254C82.6581 45.8302 82.2754 45.0877 82.0615 44.5116C81.7326 43.624 80.9539 43.4888 80.5533 43.4923C80.3909 43.4923 80.2845 43.5119 80.2799 43.5131L80.2972 43.6078V43.5113H70.5672V43.6078L70.5857 43.5131C70.5811 43.5119 70.4747 43.4923 70.3122 43.4923C69.9116 43.4888 69.1324 43.624 68.8041 44.5116C68.5902 45.0877 68.2075 45.8302 67.878 46.4254C67.5491 47.0217 67.2745 47.4701 67.2739 47.4707L67.2687 47.4794L67.2652 47.4886C67.2629 47.4944 67.1797 47.7267 67.1797 48.0202C67.1797 48.2525 67.2329 48.531 67.4375 48.7529C67.6416 48.9737 67.9861 49.1227 68.5266 49.1216H82.3384C82.8789 49.1227 83.2234 48.9737 83.4275 48.7518C83.6315 48.531 83.6859 48.2525 83.6859 48.0202C83.6847 47.7267 83.6026 47.4944 83.6003 47.4886L83.5969 47.4794L83.5917 47.4707L83.509 47.521L83.4188 47.5533C83.4188 47.5533 83.4367 47.6024 83.4552 47.688C83.4737 47.7735 83.4928 47.8914 83.4928 48.0202C83.4928 48.2248 83.4454 48.4501 83.2864 48.6218C83.1269 48.7934 82.8465 48.9286 82.3384 48.9292H68.5266C68.0185 48.9286 67.7381 48.7934 67.5791 48.6218C67.4202 48.4501 67.3728 48.2248 67.3728 48.0202C67.3728 47.8914 67.3913 47.7735 67.4103 47.688C67.4288 47.6024 67.4473 47.5533 67.4468 47.5533L67.3554 47.521L67.4381 47.5707C67.4398 47.5683 68.5439 45.7655 68.985 44.5786C69.2781 43.7927 69.9406 43.6887 70.3122 43.6847C70.4585 43.6847 70.5498 43.7032 70.5498 43.7026L70.5591 43.7038H80.3065L80.3157 43.7026L80.3776 43.6939C80.4192 43.6893 80.4799 43.6847 80.5533 43.6847C80.925 43.6887 81.5875 43.7927 81.8806 44.5786C82.3216 45.7655 83.4257 47.5684 83.4275 47.5707L83.509 47.521Z" fill="black" fill-opacity="0.4"/>
<path d="M68.5279 48.3569V48.2604C68.2163 48.265 68.0718 48.1801 68.0712 48.1662L68.044 48.0223C68.044 47.9507 68.0556 47.8703 68.0683 47.8207L67.9747 47.7975L68.0567 47.8467C68.2764 47.4797 69.2025 45.9196 69.6146 44.8118C69.6407 44.7419 69.6834 44.631 69.7817 44.535C69.8811 44.4414 70.0349 44.3571 70.313 44.3565L70.4424 44.364L70.4517 44.2687L70.4372 44.3634L70.4904 44.3721L70.4979 44.3727L80.3714 44.375L80.4425 44.3611L80.4245 44.2669V44.3634L80.5546 44.3565C80.8332 44.3571 80.987 44.4414 81.0859 44.535C81.1847 44.631 81.2269 44.7419 81.2529 44.8118C81.6662 45.9196 82.5923 47.4792 82.812 47.8449L82.8941 47.7958L82.8004 47.8183L82.8241 48.0177C82.8253 48.0894 82.8097 48.1523 82.7969 48.1656C82.7969 48.1801 82.6484 48.265 82.3397 48.2604L68.5279 48.2604V48.4528H82.3397C82.6767 48.4476 82.8605 48.3945 82.9542 48.2771C83.0068 48.1986 83.0149 48.1096 83.0166 48.0177C83.0166 47.9328 83.005 47.8461 82.9871 47.7727L82.9842 47.7582L82.9767 47.7455C82.7594 47.385 81.835 45.8242 81.4339 44.7448C81.4067 44.6726 81.3535 44.5252 81.22 44.3964C81.087 44.2669 80.8725 44.1629 80.5546 44.1641L80.4592 44.1675L80.4303 44.1699L80.4222 44.171L80.4246 44.1987V44.171H80.4222L80.4246 44.1987V44.171H80.4153L80.3535 44.1826L70.5124 44.1803L70.4667 44.1733L70.4633 44.1722H70.461C70.4477 44.171 70.3899 44.1641 70.313 44.1641C69.9956 44.1629 69.7811 44.2669 69.6488 44.3964C69.5152 44.5252 69.4615 44.6726 69.4343 44.7448C69.0337 45.8242 68.1094 47.385 67.892 47.7478L67.8845 47.7606L67.8816 47.7744C67.8654 47.8403 67.8516 47.9305 67.8516 48.0223C67.8527 48.1096 67.8602 48.198 67.9128 48.2766C68.0059 48.3945 68.1886 48.4476 68.5279 48.4528V48.3569Z" fill="black" fill-opacity="0.4"/>
</g>
<defs>
<clipPath id="clip0_7675_5741">
<rect width="150.389" height="52.2891" fill="white" transform="translate(0.304688 0.578125)"/>
</clipPath>
</defs>
</svg>
