<svg width="125" height="73" viewBox="0 0 125 73" fill="none" xmlns="http://www.w3.org/2000/svg">
<path fill-rule="evenodd" clip-rule="evenodd" d="M17.1361 0.724095C7.91046 0.724095 0.429688 8.24716 0.429688 17.528C0.429688 26.8081 7.91046 34.3315 17.1361 34.3315C26.3617 34.3315 33.8425 26.8081 33.8425 17.528C33.8425 8.24716 26.3617 0.724095 17.1361 0.724095Z" fill="#3265B1"/>
<path fill-rule="evenodd" clip-rule="evenodd" d="M17.1404 5.00014C10.262 5.00014 4.68555 10.6081 4.68555 17.5256C4.68555 24.4432 10.262 30.0511 17.1404 30.0511C24.0149 30.0511 29.5914 24.4432 29.5914 17.5256C29.5914 10.6081 24.0149 5.00014 17.1404 5.00014Z" fill="white"/>
<path fill-rule="evenodd" clip-rule="evenodd" d="M16.5915 6.84844C16.2083 6.86765 15.833 6.90728 15.4654 6.9665L15.9542 12.8877L12.619 7.84663C12.3218 7.98743 12.0325 8.14195 11.7471 8.30943L11.9738 8.37964L14.5544 13.5882L10.4802 9.19269C10.1831 9.43273 9.90158 9.68845 9.6318 9.95829L13.3697 14.4107L7.841 12.3382C7.69243 12.6128 7.5517 12.8944 7.42267 13.1831L12.8849 15.8725L6.85179 14.8229C6.75795 15.1826 6.68366 15.5501 6.62892 15.9235C6.64456 15.927 12.5525 17.2123 12.4 17.2123C12.2476 17.2123 6.59375 18.8925 6.59375 18.8925V18.8921C6.64458 19.2918 6.71885 19.6848 6.81269 20.0688L12.9748 18.6748L7.25844 21.4752C7.38356 21.8 7.52823 22.1173 7.68854 22.4259L13.401 20.1676C13.401 20.1676 9.65135 24.5776 9.5145 24.7059C9.48713 24.733 9.40502 24.7443 9.29945 24.7455C9.58488 25.0604 9.88985 25.3581 10.2105 25.6366L14.6483 21.1724C14.6483 21.1724 11.5828 26.6454 11.6728 26.5026L11.3873 26.5203C11.7588 26.7619 12.1498 26.9807 12.5525 27.1745L15.6805 21.9337L15.4068 27.8958L15.137 28.0295C15.5632 28.1107 15.9933 28.1668 16.4351 28.1958L17.2601 21.8729L18.0773 28.1785C18.4448 28.146 18.8085 28.095 19.1643 28.0256L18.8084 21.8423L22.171 26.9478C22.4251 26.8105 22.6715 26.6634 22.91 26.5069L20.1144 21.0509L24.298 25.4279C24.5092 25.2358 24.7125 25.0353 24.9041 24.8271L21.084 20.1986L26.6557 22.2973C26.8043 21.9981 26.9372 21.6909 27.0585 21.376L21.5689 18.5842L27.5238 19.8075C27.6019 19.46 27.6606 19.107 27.6997 18.7482C26.7887 18.4858 22.2805 17.2746 22.1163 17.2746C21.9364 17.2746 27.6489 15.9172 27.6489 15.9172C27.5941 15.5615 27.5237 15.2108 27.4377 14.8676L21.5728 15.9344L26.9334 13.3678C26.7887 13.0262 26.6284 12.6936 26.4524 12.3712L21.2365 14.5331L24.736 10.0497C24.5014 9.80729 24.2511 9.57588 23.997 9.35703L20.0245 13.498L22.7653 8.45572C22.4877 8.27962 22.1984 8.11567 21.9012 7.96546L18.871 12.9191L19.0704 7.0116C18.7263 6.94806 18.3744 6.90022 18.0147 6.8708L17.3227 12.8281L16.5915 6.84844Z" fill="#3265B1"/>
<path fill-rule="evenodd" clip-rule="evenodd" d="M60.5716 0.724095C51.346 0.724095 43.8652 8.24716 43.8652 17.528C43.8652 26.8081 51.346 34.3315 60.5716 34.3315C69.7973 34.3315 77.278 26.8081 77.278 17.528C77.278 8.24716 69.7973 0.724095 60.5716 0.724095Z" fill="#3265B1"/>
<path fill-rule="evenodd" clip-rule="evenodd" d="M60.576 5.00014C53.6975 5.00014 48.1211 10.6081 48.1211 17.5256C48.1211 24.4432 53.6975 30.0511 60.576 30.0511C67.4505 30.0511 73.0269 24.4432 73.0269 17.5256C73.0269 10.6081 67.4505 5.00014 60.576 5.00014Z" fill="white"/>
<path fill-rule="evenodd" clip-rule="evenodd" d="M60.029 6.84844C59.6458 6.86765 59.2705 6.90728 58.9029 6.9665L59.3917 12.8877L56.0565 7.84663C55.7593 7.98743 55.47 8.14195 55.1846 8.30943L55.4113 8.37964L57.9919 13.5882L53.9177 9.19269C53.6206 9.43273 53.3391 9.68845 53.0693 9.95829L56.8072 14.4107L51.2785 12.3382C51.1299 12.6128 50.9892 12.8944 50.8602 13.1831L56.3224 15.8725L50.2893 14.8229C50.1955 15.1826 50.1212 15.5501 50.0664 15.9235C50.0821 15.927 55.99 17.2123 55.8375 17.2123C55.6851 17.2123 50.0312 18.8925 50.0312 18.8925V18.8921C50.0821 19.2918 50.1564 19.6848 50.2502 20.0688L56.4123 18.6748L50.6959 21.4752C50.8211 21.8 50.9657 22.1173 51.126 22.4259L56.8385 20.1676C56.8385 20.1676 53.0888 24.5776 52.952 24.7059C52.9246 24.733 52.8425 24.7443 52.7369 24.7455C53.0224 25.0604 53.3273 25.3581 53.648 25.6366L58.0858 21.1724C58.0858 21.1724 55.0203 26.6454 55.1103 26.5026L54.8248 26.5203C55.1963 26.7619 55.5873 26.9807 55.99 27.1745L59.118 21.9337L58.8443 27.8958L58.5745 28.0295C59.0007 28.1107 59.4308 28.1668 59.8726 28.1958L60.6976 21.8729L61.5148 28.1785C61.8823 28.146 62.246 28.095 62.6018 28.0256L62.2459 21.8423L65.6085 26.9478C65.8626 26.8105 66.109 26.6634 66.3475 26.5069L63.5519 21.0509L67.7355 25.4279C67.9467 25.2358 68.15 25.0353 68.3416 24.8271L64.5215 20.1986L70.0932 22.2973C70.2418 21.9981 70.3747 21.6909 70.496 21.376L65.0064 18.5842L70.9613 19.8075C71.0394 19.46 71.0981 19.107 71.1372 18.7482C70.2262 18.4858 65.718 17.2746 65.5538 17.2746C65.3739 17.2746 71.0864 15.9172 71.0864 15.9172C71.0316 15.5615 70.9612 15.2108 70.8752 14.8676L65.0103 15.9344L70.3709 13.3678C70.2262 13.0262 70.0659 12.6936 69.8899 12.3712L64.674 14.5331L68.1735 10.0497C67.9389 9.80729 67.6886 9.57588 67.4345 9.35703L63.462 13.498L66.2028 8.45572C65.9252 8.27962 65.6359 8.11567 65.3387 7.96546L62.3085 12.9191L62.5079 7.0116C62.1638 6.94806 61.8119 6.90022 61.4522 6.8708L60.7602 12.8281L60.029 6.84844Z" fill="#3265B1"/>
<path fill-rule="evenodd" clip-rule="evenodd" d="M17.015 39.1167C7.78937 39.1167 0.308594 46.6397 0.308594 55.9206C0.308594 65.2007 7.78937 72.7241 17.015 72.7241C26.2406 72.7241 33.7214 65.2007 33.7214 55.9206C33.7214 46.6397 26.2406 39.1167 17.015 39.1167Z" fill="#3265B1"/>
<path fill-rule="evenodd" clip-rule="evenodd" d="M17.0193 43.3926C10.1409 43.3926 4.56445 49.0006 4.56445 55.9181C4.56445 62.8356 10.1409 68.4436 17.0193 68.4436C23.8938 68.4436 29.4703 62.8356 29.4703 55.9181C29.4703 49.0006 23.8938 43.3926 17.0193 43.3926Z" fill="white"/>
<path fill-rule="evenodd" clip-rule="evenodd" d="M16.4704 45.241C16.0873 45.2602 15.7119 45.2999 15.3443 45.3591L15.8331 51.2803L12.4979 46.2392C12.2007 46.38 11.9114 46.5345 11.626 46.702L11.8527 46.7722L14.4333 51.9808L10.3591 47.5853C10.062 47.8253 9.78049 48.081 9.5107 48.3509L13.2486 52.8033L7.71991 50.7308C7.57133 51.0054 7.4306 51.287 7.30158 51.5757L12.7638 54.265L6.7307 53.2155C6.63686 53.5752 6.56256 53.9427 6.50782 54.316C6.52346 54.3196 12.4314 55.6049 12.2789 55.6049C12.1265 55.6049 6.47266 57.2851 6.47266 57.2851V57.2847C6.52349 57.6844 6.59776 58.0774 6.6916 58.4613L12.8537 57.0674L7.13735 59.8678C7.26247 60.1926 7.40714 60.5099 7.56744 60.8185L13.2799 58.5602C13.2799 58.5602 9.53025 62.9702 9.3934 63.0985C9.36603 63.1255 9.28392 63.1369 9.17836 63.1381C9.46378 63.453 9.76875 63.7507 10.0894 64.0292L14.5272 59.565C14.5272 59.565 11.4617 65.038 11.5517 64.8952L11.2663 64.9128C11.6377 65.1544 12.0287 65.3733 12.4314 65.5671L15.5594 60.3263L15.2857 66.2883L15.0159 66.4221C15.4421 66.5033 15.8722 66.5594 16.314 66.5884L17.139 60.2655L17.9562 66.5711C18.3237 66.5386 18.6874 66.4876 19.0432 66.4181L18.6873 60.2349L22.0499 65.3403C22.3041 65.2031 22.5504 65.056 22.7889 64.8995L19.9933 59.4434L24.1769 63.8205C24.3881 63.6283 24.5914 63.4279 24.783 63.2197L20.9629 58.5912L26.5346 60.6899C26.6832 60.3906 26.8161 60.0835 26.9374 59.7686L21.4478 56.9768L27.4027 58.2001C27.4809 57.8526 27.5395 57.4996 27.5786 57.1407C26.6676 56.8784 22.1594 55.6672 21.9952 55.6672C21.8153 55.6672 27.5278 54.3098 27.5278 54.3098C27.473 53.954 27.4026 53.6034 27.3166 53.2602L21.4517 54.327L26.8123 51.7604C26.6676 51.4188 26.5073 51.0862 26.3313 50.7638L21.1155 52.9256L24.6149 48.4423C24.3803 48.1999 24.13 47.9685 23.8759 47.7496L19.9034 51.8906L22.6442 46.8483C22.3666 46.6722 22.0773 46.5083 21.7801 46.358L18.7499 51.3117L18.9493 45.4042C18.6052 45.3406 18.2533 45.2928 17.8936 45.2634L17.2016 51.2207L16.4704 45.241Z" fill="#3265B1"/>
<path fill-rule="evenodd" clip-rule="evenodd" d="M60.4505 39.1167C51.2249 39.1167 43.7441 46.6397 43.7441 55.9206C43.7441 65.2007 51.2249 72.7241 60.4505 72.7241C69.6762 72.7241 77.1569 65.2007 77.1569 55.9206C77.1569 46.6397 69.6762 39.1167 60.4505 39.1167Z" fill="#3265B1"/>
<path fill-rule="evenodd" clip-rule="evenodd" d="M60.4549 43.3926C53.5764 43.3926 48 49.0006 48 55.9181C48 62.8356 53.5764 68.4436 60.4549 68.4436C67.3294 68.4436 72.9058 62.8356 72.9058 55.9181C72.9058 49.0006 67.3294 43.3926 60.4549 43.3926Z" fill="white"/>
<path fill-rule="evenodd" clip-rule="evenodd" d="M59.9079 45.241C59.5248 45.2602 59.1494 45.2999 58.7818 45.3591L59.2706 51.2803L55.9354 46.2392C55.6382 46.38 55.3489 46.5345 55.0635 46.702L55.2902 46.7722L57.8708 51.9808L53.7966 47.5853C53.4995 47.8253 53.218 48.081 52.9482 48.3509L56.6861 52.8033L51.1574 50.7308C51.0088 51.0054 50.8681 51.287 50.7391 51.5757L56.2013 54.265L50.1682 53.2155C50.0744 53.5752 50.0001 53.9427 49.9453 54.316C49.961 54.3196 55.8689 55.6049 55.7164 55.6049C55.564 55.6049 49.9102 57.2851 49.9102 57.2851V57.2847C49.961 57.6844 50.0353 58.0774 50.1291 58.4613L56.2912 57.0674L50.5748 59.8678C50.7 60.1926 50.8446 60.5099 51.0049 60.8185L56.7174 58.5602C56.7174 58.5602 52.9678 62.9702 52.8309 63.0985C52.8035 63.1255 52.7214 63.1369 52.6159 63.1381C52.9013 63.453 53.2063 63.7507 53.5269 64.0292L57.9647 59.565C57.9647 59.565 54.8992 65.038 54.9892 64.8952L54.7038 64.9128C55.0752 65.1544 55.4662 65.3733 55.8689 65.5671L58.9969 60.3263L58.7232 66.2883L58.4534 66.4221C58.8796 66.5033 59.3097 66.5594 59.7515 66.5884L60.5765 60.2655L61.3937 66.5711C61.7612 66.5386 62.1249 66.4876 62.4807 66.4181L62.1248 60.2349L65.4874 65.3403C65.7416 65.2031 65.9879 65.056 66.2264 64.8995L63.4308 59.4434L67.6144 63.8205C67.8256 63.6283 68.0289 63.4279 68.2205 63.2197L64.4004 58.5912L69.9721 60.6899C70.1207 60.3906 70.2536 60.0835 70.3749 59.7686L64.8853 56.9768L70.8402 58.2001C70.9184 57.8526 70.977 57.4996 71.0161 57.1407C70.1051 56.8784 65.5969 55.6672 65.4327 55.6672C65.2528 55.6672 70.9653 54.3098 70.9653 54.3098C70.9105 53.954 70.8401 53.6034 70.7541 53.2602L64.8892 54.327L70.2498 51.7604C70.1051 51.4188 69.9448 51.0862 69.7688 50.7638L64.553 52.9256L68.0524 48.4423C67.8178 48.1999 67.5675 47.9685 67.3134 47.7496L63.3409 51.8906L66.0817 46.8483C65.8041 46.6722 65.5148 46.5083 65.2176 46.358L62.1874 51.3117L62.3868 45.4042C62.0427 45.3406 61.6908 45.2928 61.3311 45.2634L60.6391 51.2207L59.9079 45.241Z" fill="#3265B1"/>
<g opacity="0.6">
<path fill-rule="evenodd" clip-rule="evenodd" d="M107.984 19.9179C98.7581 19.9179 91.2773 27.4409 91.2773 36.7218C91.2773 46.0019 98.7581 53.5253 107.984 53.5253C117.209 53.5253 124.69 46.0019 124.69 36.7218C124.69 27.4409 117.209 19.9179 107.984 19.9179Z" fill="#3265B1"/>
<path fill-rule="evenodd" clip-rule="evenodd" d="M107.99 24.1939C101.112 24.1939 95.5352 29.8019 95.5352 36.7194C95.5352 43.637 101.112 49.2449 107.99 49.2449C114.865 49.2449 120.441 43.637 120.441 36.7194C120.441 29.8019 114.865 24.1939 107.99 24.1939Z" fill="white"/>
<path fill-rule="evenodd" clip-rule="evenodd" d="M107.441 26.0442C107.058 26.0635 106.683 26.1031 106.315 26.1623L106.804 32.0835L103.469 27.0424C103.171 27.1832 102.882 27.3378 102.597 27.5052L102.823 27.5754L105.404 32.784L101.33 28.3885C101.033 28.6285 100.751 28.8843 100.481 29.1541L104.219 33.6065L98.6906 31.534C98.542 31.8086 98.4013 32.0902 98.2723 32.3789L103.734 35.0683L97.7014 34.0187C97.6076 34.3784 97.5333 34.7459 97.4785 35.1193C97.4942 35.1228 103.402 36.4081 103.25 36.4081C103.097 36.4081 97.4434 38.0883 97.4434 38.0883V38.0879C97.4942 38.4876 97.5685 38.8806 97.6623 39.2646L103.824 37.8706L98.1081 40.671C98.2332 40.9958 98.3778 41.3131 98.5381 41.6217L104.251 39.3634C104.251 39.3634 100.501 43.7734 100.364 43.9017C100.337 43.9288 100.255 43.9401 100.149 43.9413C100.434 44.2562 100.739 44.5539 101.06 44.8324L105.498 40.3682C105.498 40.3682 102.432 45.8412 102.522 45.6984L102.237 45.7161C102.608 45.9577 102.999 46.1765 103.402 46.3703L106.53 41.1295L106.256 47.0916L105.987 47.2253C106.413 47.3065 106.843 47.3626 107.285 47.3916L108.11 41.0687L108.927 47.3743C109.294 47.3418 109.658 47.2908 110.014 47.2214L109.658 41.0381L113.021 46.1436C113.275 46.0063 113.521 45.8592 113.76 45.7027L110.964 40.2467L115.148 44.6237C115.359 44.4316 115.562 44.2311 115.754 44.0229L111.934 39.3944L117.505 41.4931C117.654 41.1939 117.787 40.8867 117.908 40.5718L112.419 37.78L118.373 39.0033C118.452 38.6558 118.51 38.3028 118.549 37.944C117.638 37.6816 113.13 36.4704 112.966 36.4704C112.786 36.4704 118.498 35.113 118.498 35.113C118.444 34.7573 118.373 34.4066 118.287 34.0634L112.422 35.1302L117.783 32.5636C117.638 32.222 117.478 31.8894 117.302 31.567L112.086 33.7289L115.586 29.2455C115.351 29.0031 115.101 28.7717 114.847 28.5528L110.874 32.6938L113.615 27.6515C113.337 27.4754 113.048 27.3115 112.751 27.1613L109.721 32.1149L109.92 26.2074C109.576 26.1439 109.224 26.096 108.864 26.0666L108.172 32.0239L107.441 26.0442Z" fill="#3265B1"/>
</g>
<path d="M99.0356 39.713C98.687 39.713 98.345 39.667 98.0096 39.5749C97.6742 39.4795 97.3683 39.3365 97.0921 39.1458C96.8191 38.955 96.6004 38.7166 96.436 38.4305C96.2748 38.1411 96.1943 37.8007 96.1943 37.4094H97.5114C97.5114 37.6363 97.5492 37.8303 97.6248 37.9915C97.7037 38.1493 97.8123 38.2792 97.9504 38.3812C98.0885 38.4831 98.2497 38.5571 98.4338 38.6031C98.618 38.6492 98.8186 38.6722 99.0356 38.6722C99.3185 38.6722 99.5519 38.6327 99.7361 38.5538C99.9203 38.4749 100.058 38.3664 100.15 38.2282C100.246 38.0901 100.294 37.9306 100.294 37.7497C100.294 37.5623 100.254 37.4028 100.175 37.2712C100.096 37.1364 99.9482 37.0115 99.7312 36.8963C99.5174 36.778 99.205 36.6563 98.7939 36.5313C98.4585 36.4294 98.1461 36.3126 97.8567 36.1811C97.5706 36.0495 97.319 35.8966 97.1019 35.7223C96.8849 35.548 96.7155 35.3474 96.5938 35.1205C96.4755 34.8903 96.4163 34.6239 96.4163 34.3214C96.4163 33.93 96.5248 33.5847 96.7418 33.2855C96.9622 32.9862 97.2664 32.7527 97.6544 32.585C98.0425 32.4173 98.4897 32.3334 98.9962 32.3334C99.5355 32.3334 99.9992 32.4321 100.387 32.6294C100.779 32.8234 101.079 33.0865 101.29 33.4187C101.5 33.7508 101.606 34.1224 101.606 34.5335H100.289C100.289 34.3099 100.241 34.1109 100.146 33.9366C100.053 33.7623 99.9104 33.6275 99.7164 33.5321C99.5256 33.4334 99.2806 33.3841 98.9814 33.3841C98.7018 33.3841 98.4683 33.4252 98.2809 33.5074C98.0967 33.5897 97.9586 33.7015 97.8665 33.8429C97.7777 33.9843 97.7333 34.1438 97.7333 34.3214C97.7333 34.4957 97.7876 34.6486 97.8961 34.7801C98.0079 34.9117 98.1757 35.0317 98.3993 35.1402C98.6229 35.2455 98.9008 35.3491 99.2329 35.451C99.7657 35.6056 100.208 35.7881 100.56 35.9986C100.912 36.2057 101.175 36.4524 101.349 36.7385C101.523 37.0213 101.611 37.3551 101.611 37.7399C101.611 38.1477 101.504 38.4995 101.29 38.7955C101.079 39.0915 100.782 39.3184 100.397 39.4763C100.012 39.6341 99.5585 39.713 99.0356 39.713ZM105.217 39.713C104.881 39.713 104.59 39.6506 104.343 39.5256C104.097 39.3973 103.888 39.2181 103.717 38.9879C103.549 38.7577 103.414 38.488 103.312 38.1789C103.211 37.8665 103.137 37.5261 103.09 37.1578V36.8125C103.15 36.2929 103.261 35.8358 103.426 35.4411C103.59 35.0465 103.817 34.7374 104.107 34.5138C104.399 34.2901 104.766 34.1783 105.207 34.1783C105.657 34.1783 106.037 34.2918 106.346 34.5187C106.655 34.7456 106.889 35.063 107.047 35.4707C107.208 35.8752 107.288 36.3488 107.288 36.8914V36.995C107.288 37.5146 107.208 37.9799 107.047 38.391C106.889 38.7988 106.655 39.1211 106.346 39.3579C106.04 39.5946 105.664 39.713 105.217 39.713ZM102.577 41.6665V34.277H103.742L103.84 35.303V41.6665H102.577ZM104.871 38.6969C105.148 38.6969 105.369 38.6196 105.537 38.465C105.708 38.3104 105.832 38.1049 105.907 37.8484C105.986 37.5886 106.026 37.3041 106.026 36.995V36.8914C106.026 36.5757 105.986 36.2912 105.907 36.038C105.828 35.7848 105.703 35.5842 105.532 35.4362C105.361 35.2849 105.138 35.2093 104.861 35.2093C104.657 35.2093 104.483 35.2422 104.339 35.308C104.194 35.3737 104.072 35.4675 103.973 35.5891C103.878 35.7075 103.802 35.8506 103.747 36.0183C103.694 36.1827 103.658 36.3652 103.638 36.5658V37.4044C103.674 37.6445 103.737 37.8632 103.825 38.0605C103.914 38.2545 104.043 38.4091 104.21 38.5242C104.381 38.6393 104.602 38.6969 104.871 38.6969ZM111.23 36.0134C111.23 35.7437 111.156 35.5299 111.008 35.3721C110.863 35.2109 110.639 35.1304 110.337 35.1304C110.156 35.1304 109.998 35.1616 109.863 35.2241C109.732 35.2833 109.63 35.3655 109.558 35.4707C109.485 35.576 109.449 35.6977 109.449 35.8358H108.186C108.186 35.5431 108.277 35.2718 108.457 35.0218C108.642 34.7686 108.9 34.5647 109.232 34.4102C109.564 34.2556 109.955 34.1783 110.406 34.1783C110.81 34.1783 111.169 34.2474 111.481 34.3855C111.797 34.5203 112.045 34.7242 112.226 34.9972C112.407 35.2701 112.498 35.6121 112.498 36.0232V38.3614C112.498 38.6212 112.516 38.8465 112.552 39.0372C112.588 39.2247 112.639 39.3891 112.705 39.5305V39.6144H111.417C111.355 39.4828 111.307 39.3135 111.274 39.1063C111.245 38.8991 111.23 38.6952 111.23 38.4946V36.0134ZM111.412 37.1331H110.593C110.172 37.1331 109.857 37.2137 109.646 37.3748C109.436 37.5327 109.331 37.7432 109.331 38.0063C109.331 38.2101 109.4 38.3795 109.538 38.5143C109.679 38.6492 109.877 38.7166 110.13 38.7166C110.367 38.7166 110.572 38.6689 110.746 38.5735C110.921 38.4782 111.057 38.3631 111.156 38.2282C111.254 38.0901 111.305 37.9602 111.309 37.8385L111.698 38.4009C111.656 38.5324 111.588 38.6738 111.496 38.8251C111.404 38.9764 111.282 39.1194 111.131 39.2543C110.983 39.3891 110.806 39.4993 110.598 39.5848C110.391 39.6703 110.151 39.713 109.878 39.713C109.533 39.713 109.222 39.644 108.946 39.5059C108.673 39.3677 108.457 39.1786 108.3 38.9386C108.145 38.6952 108.068 38.4223 108.068 38.1197C108.068 37.5541 108.278 37.12 108.699 36.8174C109.123 36.5116 109.729 36.3587 110.515 36.3587H111.412V37.1331ZM114.969 39.6144H113.706V34.277H114.905L114.969 35.3523V39.6144ZM116.572 35.4461C116.496 35.4329 116.414 35.4231 116.325 35.4165C116.24 35.4099 116.156 35.4066 116.074 35.4066C115.808 35.4066 115.586 35.4543 115.408 35.5497C115.23 35.6417 115.096 35.7766 115.003 35.9542C114.915 36.1285 114.862 36.3373 114.846 36.5806L114.564 36.5609C114.564 36.1104 114.624 35.7059 114.742 35.3474C114.86 34.9857 115.036 34.7012 115.27 34.494C115.507 34.2836 115.801 34.1783 116.153 34.1783C116.222 34.1783 116.299 34.1849 116.385 34.1981C116.47 34.2079 116.536 34.2227 116.582 34.2424L116.572 35.4461ZM119.69 39.713C119.154 39.713 118.692 39.5996 118.304 39.3727C117.919 39.1425 117.621 38.8317 117.411 38.4403C117.204 38.049 117.1 37.6133 117.1 37.1331V36.9309C117.1 36.3784 117.205 35.8966 117.416 35.4855C117.626 35.0712 117.916 34.7505 118.284 34.5236C118.652 34.2934 119.071 34.1783 119.542 34.1783C120.055 34.1783 120.481 34.2901 120.819 34.5138C121.161 34.7341 121.418 35.0416 121.589 35.4362C121.76 35.8276 121.845 36.2814 121.845 36.7977V37.3403H117.697V36.4425H120.597V36.3439C120.591 36.14 120.551 35.9509 120.479 35.7766C120.407 35.6023 120.293 35.4625 120.139 35.3573C119.987 35.2488 119.787 35.1945 119.537 35.1945C119.277 35.1945 119.06 35.2668 118.886 35.4115C118.715 35.5562 118.585 35.7585 118.496 36.0183C118.41 36.2781 118.368 36.5823 118.368 36.9309V37.1331C118.368 37.4291 118.422 37.6955 118.53 37.9323C118.642 38.169 118.802 38.3565 119.009 38.4946C119.219 38.6294 119.471 38.6969 119.764 38.6969C120.043 38.6969 120.293 38.6426 120.514 38.5341C120.737 38.4223 120.93 38.2628 121.091 38.0556L121.747 38.7215C121.579 38.9715 121.324 39.2 120.982 39.4072C120.643 39.6111 120.213 39.713 119.69 39.713Z" fill="black"/>
</svg>
