<svg width="171" height="47" viewBox="0 0 171 47" fill="none" xmlns="http://www.w3.org/2000/svg">
<path d="M3.30727 13.839C3.30727 14.8761 4.31474 16.2985 7.98906 16.5652C11.9597 16.8318 35.1909 17.4837 38.5097 17.6319L38.0948 15.9429H38.0356C38.0356 15.9429 36.3169 15.8836 33.7094 15.7947C31.1018 15.7058 27.6052 15.5873 23.9902 15.4688C16.7897 15.2317 9.2336 14.9354 7.78165 14.7873C7.15938 14.728 6.65564 14.6095 6.27043 14.4613C5.79633 14.3131 5.47037 14.1057 5.32222 13.8094C5.26295 13.6909 5.23332 13.5724 5.23332 13.4242C5.23332 13.3946 5.23332 13.3649 5.23332 13.3057C5.23332 13.276 5.23332 13.2464 5.23332 13.1871C5.23332 12.8316 5.38148 12.476 5.52964 12.15C6.00375 11.2018 9.76697 5.0977 11.13 3.52722C11.5745 3.02348 12.1671 2.60864 12.8487 2.28269C12.8487 2.28269 12.8487 2.28269 12.8783 2.28269C12.9672 2.22343 13.0561 2.1938 13.1746 2.13453L13.2339 2.1049C14.5377 1.57153 16.0489 1.33448 17.2341 1.33448H36.554L36.4947 0.593689C35.8132 0.593689 34.7465 0.593689 33.4427 0.593689C28.0793 0.593689 18.8639 0.62332 17.5897 0.62332H17.2045C15.5155 0.62332 12.582 0.712215 10.6559 2.87533C9.61881 4.06059 7.84091 6.46076 6.30007 8.71276C5.52964 9.83877 4.81848 10.9351 4.28511 11.7945C3.75174 12.6538 3.39616 13.3353 3.36652 13.5724C3.30726 13.6613 3.30727 13.7501 3.30727 13.839Z" fill="#3265B1"/>
<path d="M0.0179485 25.9882C0.0179485 25.3659 0.047582 24.477 0.047582 23.5288C0.0772137 21.6027 0.136477 19.3211 0.19574 17.8691C0.314267 14.9948 1.20321 12.6539 2.65516 10.4908C3.36632 9.42409 5.0257 7.40913 6.71471 5.48308C8.40371 3.58665 10.0927 1.77912 10.8928 1.15686C11.5447 0.623485 12.8188 0.327169 14.1819 0.17901C15.5449 0.0308522 17.0265 0.0012207 18.1525 0.0012207C18.5377 0.0012207 18.8933 0.0012207 19.16 0.0012207C21.0564 0.0012207 35.1315 0.119747 36.3464 0.119747H36.4056L36.4353 0.53459C35.7537 0.53459 34.687 0.53459 33.3832 0.53459C28.0199 0.53459 18.8044 0.564222 17.5303 0.564222C17.4117 0.564222 17.2932 0.564222 17.145 0.564222C15.456 0.564222 12.4632 0.653117 10.5372 2.84586C8.96671 4.62376 5.73686 9.1574 4.16638 11.765C3.63301 12.6243 3.27743 13.2762 3.2478 13.5725C3.21817 13.6614 3.21816 13.7503 3.21816 13.8688C3.21816 14.9652 4.31454 16.4172 7.98886 16.6838C11.9891 16.9802 35.3093 17.6024 38.5095 17.7506L39.3095 22.9954V24.4473L39.7836 33.4554L39.9614 36.1518V39.1446L13.9448 38.9668C13.8856 38.8187 13.8263 38.6409 13.767 38.4927C13.7374 38.4335 13.7374 38.3742 13.7078 38.3149C13.5893 37.9594 13.4411 37.6334 13.2929 37.3075C13.1151 36.9223 12.9374 36.5667 12.7596 36.2111C12.5818 35.8555 12.3744 35.4999 12.1669 35.1444C11.9595 34.7888 11.7521 34.4628 11.515 34.1369C11.515 34.1073 11.4854 34.1073 11.4854 34.0776C11.3669 33.9295 11.2484 33.7813 11.1595 33.6332C11.0409 33.485 10.9224 33.3368 10.8039 33.159C10.7742 33.0998 10.715 33.0701 10.6853 33.0109C10.5965 32.8924 10.5076 32.8035 10.4187 32.6849C10.152 32.3886 9.88529 32.0923 9.58897 31.796C9.44081 31.6478 9.29266 31.5293 9.1445 31.3811C8.99634 31.233 8.84818 31.1145 8.70002 30.9663C8.55186 30.8478 8.43334 30.7292 8.28518 30.6107C8.25555 30.5811 8.22592 30.5811 8.22592 30.5515C8.07776 30.4329 7.92961 30.3144 7.78145 30.1959C7.63329 30.0774 7.4555 29.9588 7.30734 29.8403C7.27771 29.8107 7.24807 29.8107 7.24807 29.781C7.09991 29.6921 6.95176 29.6032 6.83323 29.4847C6.65544 29.3662 6.50728 29.2773 6.32949 29.1588C5.97391 28.9513 5.64797 28.7439 5.26276 28.5661C5.26276 28.5661 5.23312 28.5661 5.23312 28.5365C5.05533 28.4476 4.90717 28.3587 4.72938 28.2995C4.3738 28.1217 3.98859 27.9735 3.60338 27.8253C3.30706 27.7068 3.04038 27.6179 2.74407 27.529C2.44775 27.4401 2.15143 27.3512 1.85512 27.2623C1.64769 27.2031 1.4699 27.1734 1.26248 27.1142H1.23285C1.05506 27.0846 0.877263 27.0549 0.699473 26.9957C0.669841 26.9957 0.640215 26.9957 0.640215 26.9957C0.55132 26.966 0.462427 26.966 0.373532 26.9364C0.284637 26.9068 0.195735 26.9068 0.10684 26.9068C-0.0116868 26.7882 -0.0116831 26.4623 0.0179485 25.9882ZM3.39596 19.6174C3.39596 19.8544 3.60338 20.0619 3.84043 20.0619L12.078 19.9433C12.3151 19.9433 12.5225 19.7359 12.5225 19.4989V19.2025C12.5225 18.9655 12.3151 18.7581 12.078 18.7581L3.84043 18.5803C3.60338 18.5803 3.39596 18.7877 3.39596 19.0247V19.6174Z" fill="#3265B1"/>
<path d="M14.0043 39.1446C14.1524 39.8557 14.9228 43.53 14.9228 46.7006H39.754L39.9614 39.3224L14.0043 39.1446Z" fill="#3265B1"/>
<path d="M3.57436 19.024V19.6167C3.57436 19.7352 3.69288 19.8537 3.81141 19.8537L12.049 19.7352C12.1971 19.7352 12.286 19.6167 12.286 19.4981V19.2018C12.286 19.0537 12.1675 18.9648 12.049 18.9648L3.81141 18.8166C3.69288 18.787 3.57436 18.8759 3.57436 19.024Z" fill="#3265B1"/>
<path d="M34.4504 1.57156L34.6282 15.6465C35.5171 15.6761 36.2579 15.7058 36.8209 15.7058C37.5617 15.7354 38.0062 15.7354 38.0062 15.7354L37.8877 15.2909L36.5246 1.54193H36.3172H34.4504V1.57156Z" fill="#3265B1"/>
<path d="M75.7398 15.1427C75.8584 15.3205 75.9473 15.4983 75.9473 15.7354C75.9473 15.7946 75.9473 15.8835 75.9176 15.9724C75.8287 16.3873 75.5621 16.8317 75.4435 17.0392L78.377 17.1577L80.0068 15.8539L75.2657 12.9796L74.4064 14.3723C74.7324 14.4908 75.088 14.6094 75.2657 14.7575C75.4435 14.8464 75.5917 14.965 75.7398 15.1427Z" fill="#3265B1"/>
<path d="M67.3549 15.5874C67.3549 15.7948 67.3549 15.9726 67.3845 16.0911C67.4142 16.2689 67.5031 16.3874 67.6512 16.5059C67.6808 16.5356 67.7105 16.5652 67.7697 16.5652C67.829 16.5948 67.8586 16.6245 67.9179 16.6541C67.9475 16.6837 68.0068 16.6837 68.0364 16.7134H68.0661C67.9772 16.2689 67.9475 15.7355 67.9475 15.1725C67.9475 14.8466 67.9475 14.5206 67.9772 14.2243V14.165C67.9772 14.1058 67.9772 14.0465 67.9772 13.9873C67.9772 13.8984 67.9772 13.8095 67.9772 13.7206C67.9772 13.6613 67.9772 13.602 67.9772 13.5428C67.9772 13.4539 67.9772 13.365 67.9772 13.3057C67.9772 13.2168 67.9772 13.1576 67.9772 13.0687C68.0068 12.6242 68.1846 12.2094 68.392 11.9131C68.0068 11.9723 67.7697 12.0612 67.6808 12.1205C67.6808 12.1205 67.6512 12.1797 67.6216 12.2686C67.5623 12.8613 67.3549 14.6095 67.3549 15.5874Z" fill="#3265B1"/>
<path d="M59.503 39.5297L59.7993 46.5524H75.9189C75.9485 46.3746 76.067 45.9301 76.2152 45.2782C76.5411 43.9448 77.0448 41.7817 77.4893 39.8853L59.503 39.5297Z" fill="#3265B1"/>
<path d="M59.8879 39.5295L41.872 39.1739L41.6645 46.5522H60.1842" fill="#3265B1"/>
<path d="M68.1257 14.1354H73.4001C73.3705 14.1058 73.3705 14.0762 73.3408 14.0465C73.1038 13.6909 72.5704 12.9502 72.1259 12.5946C71.5037 12.1205 70.7925 11.9427 69.6073 11.9131C69.4887 11.9131 69.3998 11.9131 69.3109 11.9131C69.0443 11.9131 68.8072 11.9131 68.6294 11.9427C68.422 12.239 68.2146 12.6538 68.185 13.1279C68.185 13.365 68.1553 13.6909 68.1257 14.0465C68.1257 14.0465 68.1257 14.0762 68.1257 14.1354Z" fill="#3265B1"/>
<path d="M68.095 15.1726C68.095 15.7356 68.1246 16.2986 68.2135 16.7431L68.2728 16.7727C68.6876 16.8616 69.1617 16.8913 69.4284 16.8913C69.7247 16.8913 71.2359 16.9209 72.6583 16.9505H72.6879C73.2213 16.9505 73.6954 16.9802 74.1398 16.9802C74.1991 16.9802 74.288 16.9802 74.3473 16.9802C74.4065 16.9802 74.4361 16.9802 74.4658 16.9802C74.525 16.9802 74.5547 16.9802 74.6139 16.9802C74.9102 16.9802 75.1177 16.9802 75.2066 16.9802C75.2066 16.9802 75.2362 16.9505 75.2362 16.9209C75.3547 16.7431 75.5918 16.2986 75.6807 15.9431C75.7103 15.8838 75.7103 15.8245 75.7103 15.7653C75.7103 15.5875 75.651 15.4393 75.5325 15.2912C75.414 15.143 75.2658 15.0245 75.1177 14.9356C74.9695 14.8171 74.525 14.6689 74.1695 14.5207C73.8139 14.4022 73.4879 14.3133 73.4879 14.3133H73.4583L73.4287 14.2837H68.095C68.095 14.5207 68.095 14.8467 68.095 15.1726Z" fill="#3265B1"/>
<path d="M56.9834 1.63086L80.1849 15.7058L80.4515 15.4688C80.333 15.3799 80.096 15.2317 79.77 15.0243C76.155 12.7427 61.4281 3.58654 58.5539 1.98644C58.4946 1.95681 58.1983 1.80865 57.7538 1.63086H56.9834Z" fill="#3265B1"/>
<path d="M38.3157 0.0012207L38.3454 0.386429C41.8715 0.416061 51.4425 0.712376 53.7537 0.80127C54.9686 0.830902 55.9168 1.15685 56.5095 1.45316C56.8058 1.45316 57.0428 1.45316 57.2799 1.45316C57.2799 1.45316 57.2502 1.45316 57.2502 1.42353C56.5391 1.12722 55.739 0.771639 55.2649 0.653113C54.376 0.38643 53.1018 0.297535 50.5535 0.267904C48.1534 0.179009 40.2122 0.0012207 38.3157 0.0012207Z" fill="#3265B1"/>
<path d="M38.3752 0.475342L38.4345 1.21613C38.553 1.21613 38.7308 1.21613 39.0271 1.21613C39.442 1.21613 40.0642 1.24576 40.805 1.24576C44.746 1.30502 52.4798 1.39392 56.2726 1.42355H56.3023C55.7096 1.15687 54.88 0.919814 53.7836 0.890182C51.4427 0.801288 41.9014 0.504973 38.3752 0.475342Z" fill="#3265B1"/>
<path d="M38.4642 1.42276L39.8272 15.1125L39.9457 15.5866L42.6718 15.7051L40.7162 1.45239C40.005 1.45239 39.4124 1.42276 38.9975 1.42276C38.7605 1.42276 38.5531 1.42276 38.4642 1.42276Z" fill="#3265B1"/>
<path d="M39.9746 15.7942L40.3894 17.4832C43.6193 17.6313 73.9325 18.8166 78.4661 19.024C78.4068 18.6981 78.3772 18.4314 78.3179 18.1647C78.229 17.6313 78.1698 17.3054 78.1698 17.3054L72.6583 17.0683H72.6287C71.2063 17.0387 69.6951 17.0091 69.3988 17.0091C69.1025 17.0091 68.5988 17.0091 68.1543 16.8905L39.9746 15.7942Z" fill="#3265B1"/>
<path d="M78.4965 19.1423C78.5557 19.4682 78.615 19.8534 78.6743 20.2387C78.9113 21.8091 79.178 23.6759 79.2373 24.8316C79.2373 24.9501 79.2373 25.0686 79.2373 25.2168C79.2373 27.8244 78.4668 34.5508 78.2298 36.3583C78.1409 36.9805 77.8742 38.2547 77.5483 39.7363L41.8717 38.9955V36.0027L41.694 33.3062L41.2198 24.2982V22.8462L40.4198 17.6311C43.7682 17.7496 74.0517 18.9349 78.4965 19.1423ZM44.183 20.7128C44.183 20.9498 44.3904 21.1572 44.6275 21.1572L52.8651 21.0387C53.1022 21.0387 53.3096 20.8313 53.3096 20.5942V20.2979C53.3096 20.0609 53.1022 19.8534 52.8651 19.8534L44.6275 19.7053C44.3904 19.7053 44.183 19.9127 44.183 20.1498V20.7128Z" fill="#3265B1"/>
<path d="M44.3909 20.1204V20.7131C44.3909 20.8612 44.5094 20.9501 44.628 20.9501L52.8655 20.8316C53.0137 20.8316 53.1026 20.7131 53.1026 20.5945V20.2982C53.1026 20.1501 52.984 20.0612 52.8655 20.0612L44.628 19.8834C44.4798 19.8834 44.3909 20.0019 44.3909 20.1204Z" fill="#3265B1"/>
<path d="M167.593 13.839C167.593 14.8761 166.585 16.2985 162.911 16.5652C158.94 16.8318 135.709 17.4837 132.39 17.6319L132.805 15.9429H132.865C132.865 15.9429 134.583 15.8836 137.191 15.7947C139.798 15.7058 143.295 15.5873 146.91 15.4688C154.11 15.2317 161.667 14.9354 163.118 14.7873C163.741 14.728 164.245 14.6095 164.63 14.4613C165.104 14.3131 165.43 14.1057 165.578 13.8094C165.637 13.6909 165.667 13.5724 165.667 13.4242C165.667 13.3946 165.667 13.3649 165.667 13.3057C165.667 13.276 165.667 13.2464 165.667 13.1871C165.667 12.8316 165.519 12.476 165.371 12.15C164.896 11.2018 161.133 5.0977 159.77 3.52722C159.326 3.02348 158.733 2.60864 158.051 2.28269C158.051 2.28269 158.051 2.28269 158.022 2.28269C157.933 2.22343 157.844 2.1938 157.726 2.13453L157.666 2.1049C156.362 1.57153 154.851 1.33448 153.666 1.33448H134.346L134.405 0.593689C135.087 0.593689 136.154 0.593689 137.457 0.593689C142.821 0.593689 152.036 0.62332 153.31 0.62332H153.696C155.385 0.62332 158.318 0.712215 160.244 2.87533C161.281 4.06059 163.059 6.46076 164.6 8.71276C165.371 9.83877 166.082 10.9351 166.615 11.7945C167.148 12.6538 167.504 13.3353 167.534 13.5724C167.593 13.6613 167.593 13.7501 167.593 13.839Z" fill="#3265B1"/>
<path d="M170.882 25.9882C170.882 25.3659 170.853 24.477 170.853 23.5288C170.823 21.6027 170.764 19.3211 170.704 17.8691C170.586 14.9948 169.697 12.6539 168.245 10.4908C167.534 9.42409 165.874 7.40913 164.185 5.48308C162.496 3.58665 160.807 1.77912 160.007 1.15686C159.355 0.623485 158.081 0.327169 156.718 0.17901C155.355 0.0308522 153.874 0.0012207 152.748 0.0012207C152.362 0.0012207 152.007 0.0012207 151.74 0.0012207C149.844 0.0012207 135.769 0.119747 134.554 0.119747H134.495L134.465 0.53459C135.146 0.53459 136.213 0.53459 137.517 0.53459C142.88 0.53459 152.096 0.564222 153.37 0.564222C153.488 0.564222 153.607 0.564222 153.755 0.564222C155.444 0.564222 158.437 0.653117 160.363 2.84586C161.933 4.62376 165.163 9.1574 166.734 11.765C167.267 12.6243 167.623 13.2762 167.652 13.5725C167.682 13.6614 167.682 13.7503 167.682 13.8688C167.682 14.9652 166.586 16.4172 162.911 16.6838C158.911 16.9802 135.591 17.6024 132.391 17.7506L131.591 22.9954V24.4473L131.117 33.4554L130.939 36.1518V39.1446L156.955 38.9668C157.015 38.8187 157.074 38.6409 157.133 38.4927C157.163 38.4335 157.163 38.3742 157.192 38.3149C157.311 37.9594 157.459 37.6334 157.607 37.3075C157.785 36.9223 157.963 36.5667 158.141 36.2111C158.318 35.8555 158.526 35.4999 158.733 35.1444C158.941 34.7888 159.148 34.4628 159.385 34.1369C159.385 34.1073 159.415 34.1073 159.415 34.0776C159.533 33.9295 159.652 33.7813 159.741 33.6332C159.859 33.485 159.978 33.3368 160.096 33.159C160.126 33.0998 160.185 33.0701 160.215 33.0109C160.304 32.8924 160.393 32.8035 160.481 32.6849C160.748 32.3886 161.015 32.0923 161.311 31.796C161.459 31.6478 161.607 31.5293 161.756 31.3811C161.904 31.233 162.052 31.1145 162.2 30.9663C162.348 30.8478 162.467 30.7292 162.615 30.6107C162.645 30.5811 162.674 30.5811 162.674 30.5515C162.822 30.4329 162.971 30.3144 163.119 30.1959C163.267 30.0774 163.445 29.9588 163.593 29.8403C163.622 29.8107 163.652 29.8107 163.652 29.781C163.8 29.6921 163.948 29.6032 164.067 29.4847C164.245 29.3662 164.393 29.2773 164.571 29.1588C164.926 28.9513 165.252 28.7439 165.637 28.5661C165.637 28.5661 165.667 28.5661 165.667 28.5365C165.845 28.4476 165.993 28.3587 166.171 28.2995C166.526 28.1217 166.912 27.9735 167.297 27.8253C167.593 27.7068 167.86 27.6179 168.156 27.529C168.452 27.4401 168.749 27.3512 169.045 27.2623C169.252 27.2031 169.43 27.1734 169.638 27.1142H169.667C169.845 27.0846 170.023 27.0549 170.201 26.9957C170.23 26.9957 170.26 26.9957 170.26 26.9957C170.349 26.966 170.438 26.966 170.527 26.9364C170.616 26.9068 170.704 26.9068 170.793 26.9068C170.912 26.7882 170.912 26.4623 170.882 25.9882ZM167.504 19.6174C167.504 19.8544 167.297 20.0619 167.06 20.0619L158.822 19.9433C158.585 19.9433 158.378 19.7359 158.378 19.4989V19.2025C158.378 18.9655 158.585 18.7581 158.822 18.7581L167.06 18.5803C167.297 18.5803 167.504 18.7877 167.504 19.0247V19.6174Z" fill="#3265B1"/>
<path d="M156.896 39.1446C156.748 39.8557 155.977 43.53 155.977 46.7006H131.146L130.939 39.3224L156.896 39.1446Z" fill="#3265B1"/>
<path d="M167.327 19.024V19.6167C167.327 19.7352 167.208 19.8537 167.09 19.8537L158.852 19.7352C158.704 19.7352 158.615 19.6167 158.615 19.4981V19.2018C158.615 19.0537 158.733 18.9648 158.852 18.9648L167.09 18.8166C167.208 18.787 167.327 18.8759 167.327 19.024Z" fill="#3265B1"/>
<path d="M136.45 1.57156L136.272 15.6465C135.383 15.6761 134.642 15.7058 134.079 15.7058C133.338 15.7354 132.894 15.7354 132.894 15.7354L133.012 15.2909L134.376 1.54193H134.583H136.45V1.57156Z" fill="#3265B1"/>
<path d="M95.1603 15.1427C95.0418 15.3205 94.9529 15.4983 94.9529 15.7354C94.9529 15.7946 94.9529 15.8835 94.9825 15.9724C95.0714 16.3873 95.3381 16.8317 95.4566 17.0392L92.5231 17.1577L90.8934 15.8539L95.6344 12.9796L96.4937 14.3723C96.1678 14.4908 95.8122 14.6094 95.6344 14.7575C95.4566 14.8464 95.3085 14.965 95.1603 15.1427Z" fill="#3265B1"/>
<path d="M103.545 15.5874C103.545 15.7948 103.545 15.9726 103.516 16.0911C103.486 16.2689 103.397 16.3874 103.249 16.5059C103.219 16.5356 103.19 16.5652 103.13 16.5652C103.071 16.5948 103.042 16.6245 102.982 16.6541C102.953 16.6837 102.893 16.6837 102.864 16.7134H102.834C102.923 16.2689 102.953 15.7355 102.953 15.1725C102.953 14.8466 102.953 14.5206 102.923 14.2243V14.165C102.923 14.1058 102.923 14.0465 102.923 13.9873C102.923 13.8984 102.923 13.8095 102.923 13.7206C102.923 13.6613 102.923 13.602 102.923 13.5428C102.923 13.4539 102.923 13.365 102.923 13.3057C102.923 13.2168 102.923 13.1576 102.923 13.0687C102.893 12.6242 102.716 12.2094 102.508 11.9131C102.893 11.9723 103.13 12.0612 103.219 12.1205C103.219 12.1205 103.249 12.1797 103.279 12.2686C103.338 12.8613 103.545 14.6095 103.545 15.5874Z" fill="#3265B1"/>
<path d="M111.398 39.5297L111.102 46.5524H94.9822C94.9525 46.3746 94.834 45.9301 94.6858 45.2782C94.3599 43.9448 93.8562 41.7817 93.4117 39.8853L111.398 39.5297Z" fill="#3265B1"/>
<path d="M111.013 39.5295L129.029 39.1739L129.236 46.5522H110.717" fill="#3265B1"/>
<path d="M102.775 14.1354H97.5009C97.5305 14.1058 97.5305 14.0762 97.5601 14.0465C97.7972 13.6909 98.3306 12.9502 98.775 12.5946C99.3973 12.1205 100.108 11.9427 101.294 11.9131C101.412 11.9131 101.501 11.9131 101.59 11.9131C101.857 11.9131 102.094 11.9131 102.272 11.9427C102.479 12.239 102.686 12.6538 102.716 13.1279C102.716 13.365 102.746 13.6909 102.775 14.0465C102.775 14.0465 102.775 14.0762 102.775 14.1354Z" fill="#3265B1"/>
<path d="M102.805 15.1726C102.805 15.7356 102.776 16.2986 102.687 16.7431L102.627 16.7727C102.213 16.8616 101.738 16.8913 101.472 16.8913C101.175 16.8913 99.6642 16.9209 98.2419 16.9505H98.2123C97.6789 16.9505 97.2048 16.9802 96.7603 16.9802C96.7011 16.9802 96.6122 16.9802 96.5529 16.9802C96.4936 16.9802 96.464 16.9802 96.4344 16.9802C96.3751 16.9802 96.3455 16.9802 96.2862 16.9802C95.9899 16.9802 95.7825 16.9802 95.6936 16.9802C95.6936 16.9802 95.664 16.9505 95.664 16.9209C95.5454 16.7431 95.3084 16.2986 95.2195 15.9431C95.1898 15.8838 95.1898 15.8245 95.1898 15.7653C95.1898 15.5875 95.2491 15.4393 95.3676 15.2912C95.4862 15.143 95.6343 15.0245 95.7825 14.9356C95.9306 14.8171 96.3751 14.6689 96.7307 14.5207C97.0863 14.4022 97.4122 14.3133 97.4122 14.3133H97.4418L97.4715 14.2837H102.805C102.805 14.5207 102.805 14.8467 102.805 15.1726Z" fill="#3265B1"/>
<path d="M113.917 1.63086L90.7153 15.7058L90.4486 15.4688C90.5671 15.3799 90.8042 15.2317 91.1301 15.0243C94.7452 12.7427 109.472 3.58654 112.346 1.98644C112.406 1.95681 112.702 1.80865 113.146 1.63086H113.917Z" fill="#3265B1"/>
<path d="M132.585 0.0012207L132.556 0.386429C129.029 0.416061 119.458 0.712376 117.147 0.80127C115.932 0.830902 114.984 1.15685 114.392 1.45316C114.095 1.45316 113.858 1.45316 113.621 1.45316C113.621 1.45316 113.651 1.45316 113.651 1.42353C114.362 1.12722 115.162 0.771639 115.636 0.653113C116.525 0.38643 117.799 0.297535 120.347 0.267904C122.748 0.179009 130.689 0.0012207 132.585 0.0012207Z" fill="#3265B1"/>
<path d="M132.526 0.475342L132.466 1.21613C132.348 1.21613 132.17 1.21613 131.874 1.21613C131.459 1.21613 130.837 1.24576 130.096 1.24576C126.155 1.30502 118.421 1.39392 114.628 1.42355H114.599C115.191 1.15687 116.021 0.919814 117.117 0.890182C119.458 0.801288 129 0.504973 132.526 0.475342Z" fill="#3265B1"/>
<path d="M132.437 1.42276L131.074 15.1125L130.955 15.5866L128.229 15.7051L130.185 1.45239C130.896 1.45239 131.489 1.42276 131.903 1.42276C132.141 1.42276 132.348 1.42276 132.437 1.42276Z" fill="#3265B1"/>
<path d="M130.926 15.7942L130.511 17.4832C127.281 17.6313 96.9677 18.8166 92.4341 19.024C92.4933 18.6981 92.5229 18.4314 92.5822 18.1647C92.6711 17.6313 92.7304 17.3054 92.7304 17.3054L98.2419 17.0683H98.2715C99.6938 17.0387 101.205 17.0091 101.501 17.0091C101.798 17.0091 102.301 17.0091 102.746 16.8905L130.926 15.7942Z" fill="#3265B1"/>
<path d="M92.4045 19.1423C92.3452 19.4682 92.286 19.8534 92.2267 20.2387C91.9896 21.8091 91.723 23.6759 91.6637 24.8316C91.6637 24.9501 91.6637 25.0686 91.6637 25.2168C91.6637 27.8244 92.4341 34.5508 92.6712 36.3583C92.7601 36.9805 93.0268 38.2547 93.3527 39.7363L129.029 38.9955V36.0027L129.207 33.3062L129.681 24.2982V22.8462L130.481 17.6311C127.133 17.7496 96.8492 18.9349 92.4045 19.1423ZM126.718 20.7128C126.718 20.9498 126.511 21.1572 126.273 21.1572L118.036 21.0387C117.799 21.0387 117.591 20.8313 117.591 20.5942V20.2979C117.591 20.0609 117.799 19.8534 118.036 19.8534L126.273 19.7053C126.511 19.7053 126.718 19.9127 126.718 20.1498V20.7128Z" fill="#3265B1"/>
<path d="M126.51 20.1204V20.7131C126.51 20.8612 126.392 20.9501 126.273 20.9501L118.035 20.8316C117.887 20.8316 117.798 20.7131 117.798 20.5945V20.2982C117.798 20.1501 117.917 20.0612 118.035 20.0612L126.273 19.8834C126.421 19.8834 126.51 20.0019 126.51 20.1204Z" fill="#3265B1"/>
</svg>
