<svg width="90" height="73" viewBox="0 0 90 73" fill="none" xmlns="http://www.w3.org/2000/svg">
<g clip-path="url(#clip0_7675_5301)">
<path d="M89.2518 19.7138L89.196 19.7294L89.141 19.745C88.9128 18.9288 88.3825 18.2543 87.8391 18.2607C87.3615 18.2607 84.0936 18.0978 82.5677 18.0978C82.1881 18.0973 81.9101 18.1097 81.834 18.1318C81.7614 18.1441 81.6633 18.3006 81.598 18.5397C81.5302 18.7769 81.4809 19.0861 81.4472 19.3917C81.3784 20.0029 81.3677 20.5985 81.3677 20.5999L81.3667 20.6503L80.6313 20.7279L80.6148 20.6889C79.6402 18.3818 76.0048 10.5801 74.9982 8.55203C74.5037 7.55518 73.9462 6.39012 73.4696 5.39451L73.3663 5.17954C72.9128 4.23211 72.5439 3.46522 72.4014 3.20778L72.4537 3.16019L72.4151 3.11751L72.3666 3.1478C72.3759 3.16286 72.3876 3.18295 72.4014 3.20778L71.6109 3.926L71.6013 3.93013C71.6013 3.93013 71.5713 3.94204 71.5238 3.96867C71.4757 3.99572 71.4113 4.03702 71.348 4.09346C71.2203 4.20633 71.0982 4.37337 71.0982 4.60921C71.0982 4.68812 71.1119 4.77532 71.145 4.87257C71.2664 5.22957 71.4426 5.69484 71.5879 6.07015C71.7031 6.36686 71.7988 6.60737 71.8343 6.69557H71.7954V6.7529L71.8487 6.73181C71.8487 6.7316 71.8435 6.71894 71.8343 6.69557C71.7988 6.60737 71.7031 6.36686 71.5879 6.07015C71.4426 5.69484 71.2664 5.22957 71.145 4.87257C71.1119 4.77532 71.0982 4.68812 71.0982 4.60921C71.0982 4.37337 71.2203 4.20633 71.348 4.09346C71.4113 4.03702 71.4757 3.99572 71.5238 3.96867C71.5713 3.94204 71.6013 3.93013 71.6013 3.93013L71.6109 3.926L72.4014 3.20778C72.5439 3.46522 72.9128 4.23211 73.3663 5.17954L73.4696 5.39451C73.9462 6.39012 74.5037 7.55518 74.9982 8.55203C76.0048 10.5801 79.6402 18.3818 80.6148 20.6889L80.6313 20.7279L81.3667 20.6503L81.3677 20.5999C81.3677 20.5985 81.3784 20.0029 81.4472 19.3917C81.4809 19.0861 81.5302 18.7769 81.598 18.5397C81.6633 18.3006 81.7614 18.1441 81.834 18.1318C81.9101 18.1097 82.1881 18.0973 82.5677 18.0978C84.0936 18.0978 87.3615 18.2607 87.8391 18.2607C88.3825 18.2543 88.9128 18.9288 89.141 19.745C89.3726 20.5641 89.6699 22.3297 89.6902 22.722L89.6936 22.8367C89.6936 23.0303 89.6609 23.2478 89.5051 23.4337C89.3488 23.62 89.0625 23.7828 88.5322 23.8494C87.9413 23.9228 86.7272 24.0187 85.6621 24.0953C84.6373 24.1695 83.7519 24.2263 83.6848 24.2304C83.6565 24.227 83.5306 24.2113 83.3936 24.1839C83.2388 24.155 83.0636 24.0999 83.0254 24.0563C82.9504 23.9824 82.8224 23.9145 82.7095 23.8599C82.6531 23.8328 82.6008 23.8099 82.5625 23.7939L82.5168 23.7746L82.5034 23.7695L82.4992 23.7681L82.4968 23.7673L82.4948 23.7663L82.4782 23.764L82.4696 23.7645C82.4607 23.7659 82.2057 23.8127 81.854 23.8769L81.7893 23.8888L81.8099 23.9512C82.141 24.9524 82.4263 25.9412 82.5509 26.6699C82.7993 28.1264 84.3503 32.0952 84.4384 32.3218C84.4408 32.4119 84.458 33.1286 84.4752 34.2105C84.4935 35.3677 84.5117 36.9396 84.5117 38.6008C84.5117 40.2616 84.4935 42.0118 84.4384 43.5236C84.3565 45.7904 84.1308 47.7946 83.9257 49.231C83.8235 49.9495 83.7257 50.526 83.6541 50.9227C83.5905 51.2765 83.5471 51.4868 83.5382 51.5291C83.5155 51.5725 83.3806 51.8344 83.1761 52.2163C82.8389 52.8454 82.3134 53.8007 81.7941 54.6407C81.2779 55.4801 80.7535 56.21 80.4623 56.3676C80.272 56.4757 79.7173 56.582 79.0035 56.6704C76.8524 56.9385 73.208 57.0879 72.7407 57.1591C72.5562 57.1911 72.3511 57.3714 72.0431 57.6216C71.1274 58.3715 69.3792 59.7841 65.8058 59.7855H24.397C22.0142 59.7848 20.4432 59.1558 19.3892 58.5153C18.862 58.1953 18.4642 57.8721 18.1586 57.6216C17.8507 57.3714 17.6456 57.1911 17.4616 57.1591C17.1473 57.1106 15.4289 57.0294 13.6748 56.9007C12.7984 56.836 11.9152 56.7599 11.1989 56.6704C10.4849 56.582 9.93017 56.4757 9.73976 56.3676C9.54843 56.2633 9.24514 55.902 8.91801 55.4264C8.42473 54.712 7.85988 53.7353 7.41894 52.9376C7.00395 52.1871 6.69912 51.5973 6.66429 51.5291C6.65535 51.4871 6.61192 51.2769 6.54805 50.9228C6.33286 49.7321 5.8869 46.9239 5.76346 43.5236C5.70885 42.0118 5.69047 40.2616 5.69047 38.6008C5.69047 36.9397 5.70885 35.3677 5.72722 34.2105C5.74429 33.1335 5.76098 32.4185 5.76322 32.3232C5.84595 32.1106 7.4028 28.1292 7.65202 26.6699C7.77639 25.9412 8.06181 24.9524 8.39218 23.9512L8.41279 23.8888L8.34765 23.8769C8.17145 23.8448 8.01866 23.8168 7.90946 23.7966C7.85485 23.787 7.81128 23.7787 7.78145 23.7732L7.74703 23.7673L7.73785 23.7654L7.73509 23.7649H7.73416L7.73323 23.7645L7.72453 23.764L7.70619 23.7673C7.68323 23.7764 7.32351 23.9141 7.17715 24.0563C7.13906 24.0999 6.96331 24.155 6.80869 24.1839C6.67121 24.2113 6.54581 24.227 6.51738 24.2304C6.45007 24.2262 5.56431 24.1695 4.53969 24.0953C3.47519 24.0187 2.26111 23.9228 1.66966 23.8494C1.14061 23.7828 0.853827 23.6204 0.697822 23.4346C0.541817 23.2488 0.509245 23.0317 0.509245 22.8381L0.51247 22.722C0.532202 22.3302 0.830447 20.5641 1.06124 19.745C1.28975 18.9288 1.81924 18.2543 2.36251 18.2607C2.84109 18.2607 6.10897 18.0978 7.63461 18.0978C8.0136 18.0973 8.29214 18.1097 8.3683 18.1318C8.4408 18.1441 8.53898 18.3006 8.60413 18.5397C8.70644 18.8957 8.76518 19.4128 8.79729 19.8387C8.82943 20.2644 8.83539 20.5989 8.83539 20.5999L8.83631 20.6503L9.57093 20.7283L9.58745 20.6889C10.562 18.3818 14.1979 10.5801 15.2037 8.55203C15.7442 7.4632 16.36 6.1725 16.8638 5.12035C17.1157 4.59407 17.3396 4.12788 17.5121 3.77641C17.68 3.43341 17.8018 3.19583 17.8452 3.13117L17.8539 3.12211L18.7386 3.92601L18.7478 3.93014C18.7478 3.93014 18.7776 3.94204 18.8253 3.96868C18.9712 4.05127 19.2529 4.25775 19.2511 4.60921C19.2511 4.68812 19.2373 4.77533 19.2043 4.87258C19.0827 5.22958 18.9065 5.69484 18.7615 6.07015C18.6465 6.36686 18.5508 6.60738 18.5155 6.69558H18.3894C18.3862 6.69647 17.5121 6.71347 17.1047 6.86214L16.5614 7.75915L16.7761 7.40814C16.9257 7.15899 17.0679 6.9938 17.1446 6.96996C17.3272 6.90206 17.6424 6.86028 17.9081 6.83781C18.1742 6.81534 18.3922 6.81028 18.3922 6.81028H18.5931L18.6073 6.77449C18.6073 6.77449 19.0676 5.62922 19.3131 4.9093C19.3498 4.80193 19.3658 4.70144 19.3658 4.60921C19.3663 4.33071 19.219 4.13201 19.0772 4.00722C18.9555 3.90037 18.8358 3.84328 18.801 3.82793L17.8494 2.96289L17.7599 3.0542L17.7562 3.05786L17.7535 3.06199C17.7016 3.13862 17.5828 3.37263 17.4093 3.72593C16.8909 4.78221 15.9108 6.86947 15.1009 8.50065C14.0989 10.5219 10.4994 18.2443 9.49856 20.605L8.94888 20.5469C8.94458 20.3898 8.92717 19.8906 8.8698 19.3789C8.83494 19.0696 8.78583 18.7562 8.71473 18.508C8.6404 18.2625 8.55826 18.0721 8.39813 18.0207C8.28801 17.9918 8.01959 17.984 7.63461 17.9831C6.10484 17.9831 2.83237 18.146 2.36251 18.146C1.72197 18.1529 1.18971 18.8774 0.950656 19.7138C0.716189 20.5489 0.419785 22.3026 0.39776 22.716C0.395926 22.7541 0.394536 22.7954 0.394536 22.8381C0.394078 23.0432 0.429417 23.2933 0.610203 23.508C0.790528 23.7232 1.10941 23.8953 1.65543 23.9632C2.84797 24.1114 6.51319 24.3454 6.51412 24.3454H6.51918L6.5242 24.3449C6.52513 24.3449 6.66922 24.3289 6.8312 24.2963C6.99453 24.2614 7.16886 24.2215 7.25834 24.1375C7.3102 24.0843 7.43457 24.0146 7.54283 23.9632C7.597 23.937 7.64745 23.915 7.68461 23.8994L7.72866 23.881L7.72949 23.8807C7.78334 23.8904 7.99092 23.9283 8.26241 23.978C7.94027 24.9605 7.66273 25.9263 7.5387 26.6506C7.41437 27.3834 6.94222 28.7975 6.50218 30.0231C6.28193 30.6361 6.0695 31.2028 5.91213 31.6167C5.7552 32.0301 5.65334 32.2893 5.65286 32.2902L5.64921 32.2994V32.3095C5.64921 32.3095 5.57577 35.2768 5.57577 38.6008C5.57577 40.2626 5.59415 42.0135 5.64921 43.5277C5.8124 48.042 6.54351 51.5129 6.55349 51.5601L6.55359 51.5608L6.55497 51.568L6.55861 51.5749C6.55861 51.5749 7.12347 52.6761 7.79429 53.8362C8.13016 54.416 8.49174 55.011 8.82393 55.4914C9.1575 55.9729 9.453 56.3377 9.68381 56.4681C9.91551 56.5944 10.4638 56.6932 11.1847 56.7844C13.3403 57.0531 16.9977 57.2035 17.4442 57.2723C17.5653 57.2871 17.7824 57.4585 18.0861 57.7101C19.0043 58.4644 20.7928 59.9015 24.397 59.9001H65.8057C68.2081 59.9001 69.8039 59.2631 70.8727 58.6134C71.4072 58.2886 71.8102 57.9609 72.1161 57.7101C72.42 57.4585 72.6368 57.2871 72.7579 57.2723C73.0532 57.2266 74.7835 57.144 76.5361 57.0149C77.413 56.9502 78.2981 56.8742 79.017 56.7844C79.7383 56.6932 80.2868 56.5944 80.5184 56.4681C80.7493 56.3377 81.0446 55.9729 81.3784 55.4914C82.3736 54.0509 83.6428 51.5759 83.6435 51.5749L83.6473 51.568L83.6486 51.5608V51.5601C83.659 51.5116 84.3899 48.0413 84.553 43.5277C84.6081 42.0135 84.6263 40.2626 84.6263 38.6008C84.6263 35.2768 84.553 32.3095 84.553 32.3095V32.2994L84.5496 32.2902C84.5489 32.2893 84.447 32.0301 84.2898 31.6167C83.8183 30.3773 82.8509 27.7518 82.6637 26.6506C82.5398 25.9263 82.2625 24.9605 81.94 23.9779C82.089 23.9508 82.2184 23.9271 82.3137 23.9095C82.3685 23.8999 82.4122 23.8916 82.4418 23.8861L82.4734 23.8806C82.5447 23.9087 82.8509 24.0408 82.9442 24.1376C83.0333 24.2215 83.2078 24.2614 83.3709 24.2963C83.5327 24.3289 83.6772 24.3449 83.6779 24.3449L83.6831 24.3454H83.6882C83.6882 24.3454 87.3542 24.1114 88.5463 23.9632C89.0931 23.8953 89.4121 23.7227 89.5932 23.5075C89.7731 23.2919 89.8082 23.0418 89.8082 22.8367C89.8082 22.7941 89.8069 22.7537 89.8045 22.716C89.7824 22.3026 89.4865 20.5489 89.2518 19.7138C89.0126 18.8773 88.4799 18.1529 87.8391 18.146C87.3704 18.146 84.0977 17.9831 82.5677 17.9831C82.1823 17.984 81.9142 17.9918 81.8037 18.0207C81.6434 18.0721 81.5618 18.2625 81.4878 18.508C81.3003 19.1646 81.261 20.2951 81.2545 20.5469L80.7042 20.605C79.7028 18.2442 76.1039 10.5219 75.1007 8.50066C74.6135 7.51816 74.0642 6.37151 73.5917 5.38444L73.4696 5.12999C72.9709 4.08844 72.58 3.27445 72.464 3.08724L72.4279 3.02896L71.5483 3.8279C71.5135 3.84321 71.3938 3.90034 71.2723 4.00723C71.1302 4.13201 70.9829 4.33071 70.9832 4.60922C70.9832 4.70144 70.9994 4.80193 71.0359 4.90975C71.2816 5.62922 71.7424 6.77449 71.7424 6.77449L71.7565 6.81028H72.0042V6.75292L72.0029 6.81028H71.7565L71.7424 6.77449C71.7424 6.77449 71.2816 5.62922 71.0359 4.90975C70.9994 4.80193 70.9832 4.70144 70.9832 4.60922C70.9829 4.33071 71.1302 4.13201 71.2723 4.00723C71.3938 3.90034 71.5135 3.84321 71.5483 3.8279L71.5414 3.83423L71.5799 3.8769L71.5583 3.82367C71.5576 3.82387 71.5541 3.82528 71.5483 3.8279L72.4279 3.02896L72.464 3.08724C72.58 3.27445 72.9709 4.08844 73.4696 5.12999L73.5917 5.38444C74.0642 6.37151 74.6135 7.51816 75.1007 8.50066C76.1039 10.5219 79.7028 18.2442 80.7042 20.605L80.6616 20.6095L80.6681 20.6664L80.7208 20.6444C80.7152 20.6314 80.7097 20.6183 80.7042 20.605L81.2545 20.5469C81.2535 20.5794 81.2531 20.5973 81.2531 20.5976L81.3103 20.5985L81.3044 20.5416L81.2545 20.5469C81.261 20.2951 81.3003 19.1646 81.4878 18.508C81.5618 18.2625 81.6434 18.0721 81.8037 18.0207C81.9142 17.9918 82.1823 17.984 82.5677 17.9831C84.0977 17.9831 87.3704 18.146 87.8391 18.146C88.4799 18.1529 89.0126 18.8773 89.2518 19.7138Z" fill="#3265B1"/>
<path d="M89.7481 22.7197L89.8627 22.7137C89.8397 22.2897 89.5444 20.542 89.3073 19.6991C89.1869 19.2724 88.99 18.8778 88.7409 18.5832C88.4921 18.29 88.1837 18.0904 87.8399 18.0895C87.3754 18.0899 84.1003 17.9266 82.5682 17.9266C82.3761 17.9266 82.211 17.9293 82.0805 17.9353C81.9484 17.9417 81.8572 17.9486 81.7894 17.9665C81.6855 17.9963 81.6187 18.0744 81.5654 18.1638C81.4728 18.3226 81.4112 18.5465 81.3613 18.8012C81.2144 19.5619 81.1968 20.5943 81.1965 20.5975L81.3111 20.5994L81.2994 20.4856L80.6565 20.5535L80.6689 20.6673L80.7742 20.6228C79.7955 18.307 76.1625 10.5108 75.1532 8.47629C74.6139 7.38928 73.9983 6.09903 73.4945 5.04688C73.2426 4.5206 73.0185 4.05396 72.8454 3.70157C72.7587 3.52492 72.6854 3.37718 72.6272 3.2643C72.5681 3.15051 72.5271 3.07525 72.4968 3.03029C72.4156 2.92016 72.2835 2.86098 72.1183 2.79307C71.6272 2.60128 70.8405 2.46041 70.8367 2.45949L70.8164 2.57237L70.9259 2.53749C70.9259 2.53704 70.9179 2.51317 70.9042 2.46545C70.8632 2.32184 70.7731 1.97265 70.7111 1.51152C70.6671 1.17198 70.4954 0.884747 70.187 0.678726C69.8787 0.471789 69.442 0.335049 68.8421 0.248782C68.5534 0.207944 68.3043 0.191429 68.0888 0.191429C67.4095 0.189133 67.0544 0.362576 66.8957 0.424065C66.8211 0.45618 66.7887 0.510329 66.7591 0.56539C66.6621 0.759022 66.6108 1.09765 66.5719 1.40553C66.5351 1.71066 66.5186 1.97358 66.5186 1.97495L66.6332 1.98229L66.6397 1.86758C65.4218 1.80013 51.8479 1.19538 45.1022 1.19492C38.3566 1.19538 24.7823 1.80013 23.5645 1.86758L23.5709 1.98229L23.6856 1.97495C23.6851 1.97358 23.6641 1.63036 23.615 1.27292C23.5902 1.09351 23.5585 0.911817 23.5177 0.762694C23.497 0.688358 23.4741 0.622285 23.4452 0.56539C23.4149 0.510329 23.3832 0.45618 23.3084 0.424065C23.1492 0.362576 22.7941 0.189133 22.1154 0.191429C21.8998 0.191429 21.6507 0.207944 21.362 0.248782C20.7623 0.335045 20.325 0.471789 20.0167 0.678726C19.7079 0.884747 19.5368 1.17198 19.4927 1.51152C19.4514 1.81894 19.3973 2.07635 19.3537 2.25668C19.3321 2.34661 19.3128 2.41728 19.2991 2.46545C19.2858 2.51317 19.278 2.53704 19.278 2.53749L19.3872 2.57237L19.367 2.45949C19.3651 2.45995 19.0132 2.52327 18.6351 2.62147C18.4456 2.67102 18.2502 2.72838 18.0859 2.79307C17.9207 2.86098 17.7886 2.92016 17.7069 3.03029C17.6495 3.11564 17.533 3.34643 17.3582 3.70157C16.8397 4.75874 15.8596 6.84555 15.0502 8.47629C14.0417 10.5108 10.4081 18.307 9.42983 20.6228L9.53537 20.6673L9.5478 20.5535L8.90541 20.4856L8.89347 20.5994L9.00817 20.5975C9.00817 20.5957 8.99715 19.9946 8.92743 19.3733C8.89254 19.0622 8.84302 18.7466 8.77051 18.4933C8.73379 18.3662 8.69201 18.2547 8.63833 18.1638C8.58512 18.0744 8.51816 17.9963 8.41399 17.9665C8.34654 17.9486 8.25476 17.9417 8.12306 17.9353C7.99274 17.9293 7.82759 17.9266 7.63532 17.9266C6.10325 17.9266 2.82895 18.0899 2.36323 18.0895C2.02001 18.0904 1.71168 18.29 1.46345 18.5832C1.21384 18.8778 1.01743 19.2724 0.8963 19.6991C0.659999 20.542 0.364059 22.2897 0.341119 22.7137C0.339285 22.7527 0.337895 22.7949 0.337895 22.839C0.337437 23.05 0.374153 23.3166 0.566866 23.5461C0.75958 23.7754 1.09499 23.9521 1.64927 24.021C2.84593 24.1696 6.50977 24.4031 6.51115 24.4036L6.52126 24.4041L6.53135 24.4027C6.53317 24.4027 6.67864 24.3866 6.84337 24.3536C6.92552 24.3371 7.01265 24.3164 7.09159 24.2903C7.1705 24.2627 7.24026 24.2352 7.29945 24.1793C7.33985 24.1361 7.46281 24.065 7.56832 24.0159C7.62111 23.9902 7.67111 23.9686 7.70735 23.953L7.7505 23.9356L7.76151 23.931L7.76289 23.9305L7.73629 23.8567L7.76107 23.931L7.76289 23.9305L7.73629 23.8567L7.76107 23.931L7.72665 23.8282L7.75646 23.9324L7.76107 23.931L7.72665 23.8282L7.75646 23.9324L7.72524 23.8227V23.937L7.75646 23.9324L7.72524 23.8227L7.70828 23.9356L7.72524 23.937V23.8227L7.70828 23.9356L7.70872 23.9361C7.74176 23.9416 7.98954 23.987 8.31763 24.0471L8.33824 23.9342L8.22953 23.8984C7.89779 24.9037 7.61054 25.8967 7.48301 26.6419C7.36046 27.3654 6.8888 28.7805 6.44876 30.0042C6.22896 30.6173 6.01653 31.1835 5.8596 31.5969C5.7022 32.0103 5.60033 32.2691 5.60033 32.27L5.59304 32.2888L5.59256 32.309C5.59256 32.3095 5.51912 35.2772 5.51912 38.6015C5.51912 40.264 5.5375 42.0153 5.59256 43.5305C5.75729 48.0799 6.49742 51.5691 6.49831 51.5732L6.50151 51.588L6.50839 51.6018C6.50888 51.6028 7.0737 52.704 7.74544 53.8658C8.08132 54.4467 8.44379 55.0424 8.77739 55.5249C9.11416 56.0091 9.40646 56.3752 9.65699 56.5187C9.78546 56.5896 9.98047 56.6426 10.2397 56.6967C11.1423 56.879 12.806 57.0163 14.317 57.1189C15.0722 57.1709 15.788 57.2135 16.3478 57.2483C16.9062 57.2827 17.316 57.3109 17.4362 57.3299C17.4779 57.3347 17.5605 57.3746 17.6647 57.45C18.035 57.7118 18.6691 58.3468 19.7295 58.9067C20.7912 59.4683 22.2861 59.9583 24.3977 59.9583H65.8066C68.2189 59.9587 69.827 59.3179 70.9032 58.6634C71.4414 58.3364 71.8471 58.0064 72.153 57.7555C72.3058 57.6299 72.4345 57.5243 72.5392 57.45C72.6431 57.3746 72.7257 57.3347 72.7677 57.3299C72.9056 57.3082 73.4188 57.2751 74.1049 57.2328C75.1373 57.1688 76.5782 57.0824 77.8419 56.9671C78.4737 56.9093 79.0611 56.8446 79.5326 56.772C80.0068 56.6973 80.3554 56.6227 80.5467 56.5187C80.7973 56.3752 81.0894 56.0091 81.4263 55.5249C82.4247 54.0788 83.6938 51.6038 83.6952 51.6018L83.7021 51.588L83.7055 51.5736C83.7062 51.5691 84.4468 48.0799 84.6113 43.5305C84.6663 42.0153 84.6846 40.264 84.6846 38.6015C84.6846 35.2772 84.6113 32.3095 84.6113 32.309L84.6106 32.2888L84.6034 32.27C84.603 32.2691 84.5015 32.0103 84.3442 31.5969C83.8735 30.3599 82.9051 27.7307 82.7213 26.6419C82.5936 25.8967 82.3063 24.9037 81.9742 23.8984L81.8655 23.9342L81.8861 24.0471C82.0626 24.015 82.2154 23.987 82.3249 23.9668C82.3792 23.9567 82.4229 23.9489 82.4525 23.9434L82.487 23.9374L82.4959 23.9356H82.4976L82.4897 23.8902L82.4973 23.9356H82.4976L82.4897 23.8902L82.4973 23.9356L82.4804 23.8337L82.4959 23.9356H82.4973L82.4804 23.8337L82.4959 23.9356L82.479 23.8227V23.937L82.4959 23.9356L82.479 23.8227V23.8222L82.4515 23.9337L82.479 23.937V23.8222L82.4515 23.9337L82.4777 23.8273L82.4412 23.9305L82.4515 23.9337L82.4777 23.8273L82.4412 23.9305L82.4436 23.9241L82.4408 23.9305H82.4412L82.4436 23.9241L82.4408 23.9305C82.4549 23.9361 82.5499 23.9737 82.6518 24.0237C82.753 24.0719 82.8662 24.1384 82.9047 24.1788C82.9636 24.2352 83.0331 24.2623 83.1122 24.2903C83.3462 24.3674 83.6684 24.4022 83.6725 24.4027L83.6825 24.4041L83.6924 24.4036C83.6938 24.4031 87.3578 24.1696 88.5543 24.021C89.1091 23.9521 89.4446 23.775 89.6373 23.5451C89.8304 23.3152 89.8669 23.0486 89.8662 22.8376C89.8662 22.794 89.8648 22.7522 89.8627 22.7141L89.7481 22.7197L89.6335 22.7256L89.637 22.8376C89.6363 23.0252 89.6057 23.2262 89.4615 23.3978C89.318 23.5694 89.0478 23.7277 88.5261 23.7933C87.9377 23.8668 86.7232 23.9622 85.6588 24.0393C84.5941 24.1159 83.6797 24.1742 83.678 24.1746L83.6852 24.2889L83.6976 24.1751C83.6976 24.1751 83.5589 24.1595 83.4058 24.1288C83.329 24.1132 83.2492 24.0939 83.1852 24.0723C83.1208 24.0526 83.0713 24.0237 83.0668 24.0168C82.9801 23.9319 82.8507 23.8654 82.7351 23.809C82.6773 23.7814 82.6243 23.758 82.5854 23.7415L82.5386 23.7222L82.5248 23.7167L82.5196 23.7149L82.5165 23.714L82.5124 23.7126L82.5066 23.7107L82.479 23.7075L82.4618 23.7089C82.4491 23.7107 82.1972 23.7571 81.8448 23.8214L81.7151 23.8452L81.7567 23.97C82.0867 24.9698 82.3717 25.9572 82.4949 26.6804C82.625 27.4411 83.0978 28.8516 83.5393 30.0818C83.9801 31.311 84.3896 32.3531 84.39 32.354L84.4963 32.3118L84.3817 32.3145C84.3817 32.3168 84.4 33.056 84.4186 34.2123C84.4368 35.3691 84.455 36.9411 84.455 38.6015C84.455 40.262 84.4368 42.0115 84.3817 43.5223C84.2998 45.7866 84.0748 47.7885 83.8697 49.2238C83.7675 49.9414 83.6701 50.5178 83.5985 50.9135C83.5269 51.31 83.4811 51.5247 83.4811 51.5257L83.5933 51.5495L83.4911 51.4968C83.4908 51.4979 83.3507 51.7714 83.1264 52.1903C82.7894 52.8186 82.2646 53.7733 81.746 54.6116C81.4869 55.0307 81.2295 55.4213 80.9993 55.7259C80.7715 56.0308 80.5619 56.2503 80.4352 56.3185C80.353 56.3649 80.1668 56.4217 79.918 56.4716C79.0432 56.6492 77.378 56.7878 75.871 56.8907C75.1174 56.942 74.4019 56.9843 73.8417 57.0194C73.2797 57.0549 72.8791 57.081 72.7325 57.1031C72.6217 57.122 72.5223 57.1815 72.406 57.2631C72.0057 57.5487 71.4007 58.1575 70.367 58.704C69.3349 59.2491 67.8823 59.7285 65.8065 59.7291H24.3977C22.025 59.7285 20.4664 59.1025 19.4193 58.4672C18.8962 58.1492 18.5012 57.8285 18.196 57.5776C18.0432 57.4527 17.9129 57.3453 17.7973 57.2631C17.6812 57.1815 17.5821 57.122 17.471 57.1031C17.3045 57.0776 16.803 57.0466 16.1129 57.004C15.0805 56.94 13.6411 56.8532 12.383 56.7386C11.7534 56.6812 11.1698 56.6165 10.7059 56.5449C10.2443 56.4754 9.89375 56.3911 9.76801 56.3185C9.59642 56.2273 9.28991 55.8683 8.96597 55.3948C8.47456 54.6835 7.91018 53.7075 7.46969 52.9112C7.24945 52.5127 7.05993 52.1589 6.92596 51.9053C6.79151 51.651 6.7126 51.4972 6.7126 51.4968L6.61026 51.5495L6.72268 51.5257C6.72268 51.5247 6.67678 51.31 6.6052 50.9135C6.39046 49.7249 5.9445 46.9188 5.82154 43.5223C5.76693 42.0112 5.74855 40.262 5.74855 38.6015C5.74855 36.9411 5.76693 35.3691 5.78527 34.2123C5.80365 33.056 5.82154 32.3168 5.82154 32.3145L5.70681 32.3118L5.8137 32.354C5.81418 32.3531 6.22345 31.311 6.66487 30.0818C7.10629 28.8516 7.57888 27.4411 7.70917 26.6804C7.83261 25.9572 8.11711 24.9698 8.44702 23.97L8.48829 23.8452L8.35893 23.8214C8.18273 23.7892 8.02946 23.7612 7.92026 23.741C7.86613 23.7314 7.82253 23.7231 7.79225 23.7176L7.75783 23.7117L7.74868 23.7099L7.74589 23.7094L7.74407 23.7089H7.74224L7.72524 23.7076L7.69358 23.7121L7.67844 23.7172C7.65091 23.7278 7.55366 23.7672 7.44491 23.8204C7.33524 23.8755 7.21779 23.9379 7.13702 24.0168C7.13289 24.0237 7.08285 24.0526 7.01908 24.0723C6.9218 24.1049 6.79151 24.1315 6.68734 24.149C6.58317 24.1664 6.50609 24.1746 6.50564 24.1751L6.51851 24.2889L6.52584 24.1746C6.52398 24.1742 5.60952 24.1159 4.54457 24.0393C3.48051 23.9622 2.26596 23.8668 1.67772 23.7933C1.15648 23.7277 0.886224 23.5695 0.742607 23.3983C0.59853 23.2271 0.567314 23.0266 0.567314 22.839L0.570542 22.7256C0.588894 22.3443 0.888044 20.5723 1.11701 19.7615C1.22988 19.3619 1.4157 18.9934 1.63824 18.7314C1.8617 18.468 2.11499 18.318 2.36323 18.3189C2.84639 18.3189 6.11151 18.156 7.63532 18.156C7.82528 18.156 7.98771 18.1588 8.11298 18.1643C8.23642 18.1693 8.32816 18.1799 8.35387 18.1877C8.36626 18.1895 8.40249 18.2143 8.44059 18.2804C8.50849 18.3932 8.57136 18.6025 8.61771 18.8447C8.68836 19.2086 8.72921 19.65 8.75168 19.9983C8.77416 20.3465 8.77873 20.6012 8.77873 20.6017L8.78059 20.703L9.60788 20.7907L9.6414 20.7122C10.6141 18.4079 14.2514 10.604 15.2558 8.57815C15.7963 7.48887 16.4125 6.19814 16.9163 5.14603C17.1682 4.62019 17.3921 4.15355 17.5642 3.8025C17.7349 3.4538 17.8606 3.21016 17.8959 3.16015C17.9074 3.13537 18.0198 3.06195 18.1694 3.00643C18.3952 2.91787 18.7072 2.8362 18.96 2.77839C19.2133 2.72011 19.4069 2.68524 19.4074 2.68524L19.4753 2.67285L19.4964 2.60724C19.4978 2.60265 19.6349 2.17547 19.7198 1.54227C19.7607 1.25779 19.8846 1.04717 20.1452 0.868683C20.4063 0.692027 20.8128 0.558511 21.3941 0.475922C21.6731 0.436461 21.9113 0.420848 22.1154 0.420848C22.762 0.422685 23.0515 0.571811 23.2263 0.638342L23.2378 0.607147L23.2171 0.633758L23.2259 0.637881L23.2378 0.607147L23.2171 0.633758L23.2282 0.647527C23.2566 0.688362 23.2961 0.804448 23.3254 0.941643C23.3709 1.14904 23.4039 1.41287 23.4255 1.62303C23.447 1.83318 23.4562 1.98872 23.4567 1.98918L23.4635 2.10298L23.5773 2.09654C24.7887 2.02955 38.3683 1.42434 45.1022 1.42434C51.8365 1.42434 65.4156 2.02955 66.627 2.09654L66.7405 2.10298L66.7474 1.98918C66.7474 1.98872 66.7688 1.65101 66.8162 1.30412C66.8403 1.13068 66.871 0.955404 66.9071 0.824177C66.9257 0.758558 66.9453 0.704419 66.9628 0.670009L66.9842 0.636515L66.9866 0.633758L66.9663 0.607147L66.9783 0.637881L66.9866 0.633758L66.9663 0.607147L66.9783 0.637881C67.1521 0.571811 67.4419 0.422685 68.0888 0.420848C68.2926 0.420848 68.5311 0.436461 68.8102 0.475922C69.391 0.558511 69.7975 0.692027 70.0587 0.868683C70.3192 1.04717 70.443 1.25779 70.484 1.54227C70.5687 2.17547 70.706 2.60265 70.7073 2.60724L70.7283 2.67285L70.7958 2.68524C70.7968 2.68524 71.1427 2.74764 71.5112 2.84354C71.6953 2.89126 71.8843 2.9477 72.0347 3.00643C72.1844 3.06195 72.2962 3.13537 72.3079 3.16015C72.3234 3.18309 72.3664 3.26017 72.4228 3.36983C72.8241 4.14618 74.0024 6.67304 74.9474 8.57815C75.9529 10.604 79.5897 18.4079 80.5629 20.7122L80.596 20.7907L81.424 20.703L81.426 20.6017C81.426 20.6012 81.4288 20.4539 81.4398 20.2291C81.4563 19.8918 81.4928 19.3821 81.5671 18.9507C81.6039 18.7351 81.6511 18.5391 81.7061 18.3992C81.7598 18.2556 81.8307 18.1863 81.85 18.1877C81.8755 18.1799 81.9673 18.1693 82.0909 18.1643C82.2155 18.1588 82.3782 18.156 82.5682 18.156C84.092 18.156 87.3578 18.3189 87.8399 18.3189C88.0888 18.318 88.342 18.468 88.5654 18.7314C88.7884 18.9934 88.9739 19.3619 89.0867 19.7615C89.3166 20.5723 89.6146 22.3443 89.6335 22.7256L89.7481 22.7197Z" fill="#3265B1"/>
<path d="M82.4787 23.5819L82.4443 23.6283C82.5048 23.6714 82.6346 23.7196 82.7753 23.7806C82.9137 23.8393 83.0575 23.9105 83.1057 23.9609L83.1095 23.9646L83.1136 23.9673C83.1604 23.9986 83.2365 24.0197 83.3404 24.0449C83.4426 24.0688 83.5661 24.0903 83.6845 24.1041L83.6894 24.105L83.6945 24.1046C83.9987 24.0853 87.3929 23.8659 88.5168 23.7255C88.9759 23.6682 89.2416 23.5384 89.3923 23.3736C89.5437 23.2089 89.5709 23.0162 89.5706 22.8606C89.5706 22.8129 89.5678 22.7684 89.5657 22.7285C89.5451 22.3371 89.2557 20.6132 89.0217 19.7795C88.9088 19.3808 88.7323 19.0366 88.5258 18.7889C88.3196 18.5416 88.0818 18.3869 87.8396 18.386C87.6685 18.386 87.1603 18.3658 86.4586 18.3378C85.2304 18.2892 83.5469 18.2227 82.5675 18.2227C82.3149 18.2227 82.1528 18.2272 82.0513 18.2323C81.9522 18.2369 81.905 18.2419 81.905 18.2415V18.2988L81.9178 18.2429L81.916 18.2424L81.8895 18.236L81.8675 18.2534C81.8035 18.3076 81.767 18.4039 81.7247 18.5448C81.6036 18.9655 81.5072 19.7768 81.4921 20.6022L81.489 20.8142V20.8151C81.489 20.8605 81.4883 20.9147 81.4883 20.9762C81.4897 21.5938 81.5234 22.9368 82.4443 23.6283L82.4787 23.5819L82.5131 23.536C81.649 22.896 81.6012 21.5901 81.6032 20.9762C81.6032 20.9151 81.6036 20.861 81.6036 20.8151H81.5461L81.6036 20.816L81.6067 20.604C81.617 20.0594 81.6628 19.5189 81.7275 19.0991C81.7595 18.8893 81.7963 18.7099 81.8348 18.5769C81.871 18.4443 81.9185 18.3557 81.9391 18.3433L81.9033 18.2984L81.8899 18.3544H81.8916L81.8982 18.3562H81.905C81.924 18.3557 81.956 18.3516 82.0568 18.3465C82.1559 18.342 82.3163 18.3374 82.5675 18.3374C83.5421 18.3374 85.2262 18.4039 86.4541 18.4525C87.1565 18.4805 87.6627 18.5007 87.8396 18.5007C88.0292 18.4998 88.2439 18.6287 88.4377 18.8623C88.6318 19.0944 88.8025 19.4257 88.9112 19.8107C89.1418 20.6284 89.4329 22.3646 89.4511 22.734C89.4536 22.7744 89.4556 22.8171 89.4556 22.8606C89.4553 23.0052 89.4322 23.1603 89.308 23.296C89.1838 23.4323 88.9473 23.5562 88.5027 23.6118C87.3874 23.7512 83.9894 23.971 83.6876 23.9898L83.6907 24.0472L83.6976 23.9903C83.5844 23.977 83.4643 23.9559 83.3666 23.9329C83.2702 23.9118 83.1897 23.8829 83.1797 23.8737L83.1467 23.9205L83.1876 23.8802C83.1085 23.8026 82.9625 23.7375 82.8208 23.6755C82.6814 23.6163 82.541 23.559 82.5131 23.536L82.4787 23.5819Z" fill="#3265B1"/>
<path d="M7.68023 23.5819L7.64627 23.536C7.61736 23.559 7.47695 23.6159 7.33748 23.6755C7.19569 23.7375 7.05023 23.8026 6.97132 23.8802L7.01169 23.9205L6.9791 23.8737C6.96853 23.8829 6.8878 23.9118 6.79189 23.9329C6.69416 23.9559 6.57395 23.977 6.46063 23.9903L6.46751 24.0472L6.47116 23.9898C6.16925 23.971 2.77107 23.7512 1.65517 23.6118C1.21101 23.5562 0.974701 23.4324 0.850356 23.2965C0.726011 23.1603 0.703058 23.0052 0.7026 22.8611C0.7026 22.8171 0.704899 22.7744 0.707194 22.7345C0.725089 22.3646 1.01599 20.6284 1.24725 19.8107C1.356 19.4257 1.52669 19.0944 1.72032 18.8623C1.91441 18.6287 2.12914 18.4998 2.31818 18.5007C2.49575 18.5007 3.00141 18.4805 3.7039 18.4525C4.93313 18.4039 6.61618 18.3374 7.59031 18.3374C7.84173 18.3374 8.00186 18.342 8.10097 18.3465C8.20238 18.3516 8.23404 18.3557 8.25287 18.3562H8.25744L8.26477 18.3548L8.25562 18.2984L8.21983 18.3433C8.24048 18.3557 8.28728 18.4443 8.32352 18.5769C8.43915 18.9774 8.53643 19.7878 8.55109 20.6045L8.55522 20.816L8.61259 20.8151H8.55522V20.9753C8.55708 21.5883 8.5098 22.8955 7.64582 23.536L7.68023 23.5819L7.71465 23.6283C8.63554 22.9363 8.66858 21.5919 8.66995 20.9753V20.8133L8.66582 20.6022C8.65571 20.0525 8.60935 19.5074 8.54421 19.0816C8.51162 18.8687 8.47449 18.6856 8.43364 18.5452C8.39141 18.4039 8.35473 18.308 8.29141 18.2534L8.27166 18.2378L8.24416 18.2419L8.25287 18.2988V18.2415C8.25287 18.2419 8.20606 18.2369 8.10651 18.2323C8.00509 18.2272 7.84311 18.2227 7.59031 18.2227C6.6116 18.2227 4.929 18.2892 3.69928 18.3378C2.99773 18.3658 2.48979 18.386 2.31818 18.386C2.07637 18.3869 1.83871 18.5416 1.63223 18.7889C1.42621 19.0366 1.24954 19.3808 1.13666 19.7795C0.902193 20.6137 0.613129 22.3371 0.592481 22.7285C0.590647 22.7684 0.587891 22.8129 0.587891 22.8611C0.587891 23.0166 0.61452 23.2089 0.765937 23.3736C0.916898 23.5384 1.1821 23.6682 1.64094 23.7255C2.76556 23.8659 6.16051 24.0853 6.46383 24.1046L6.46885 24.105L6.47391 24.1041C6.59185 24.0903 6.71525 24.0688 6.8176 24.0449C6.92173 24.0197 6.99792 23.9986 7.04472 23.9678L7.04885 23.9646L7.05254 23.9609C7.10071 23.9105 7.2448 23.8393 7.3829 23.7806C7.52331 23.7196 7.6536 23.6714 7.71465 23.6283L7.68023 23.5819Z" fill="#3265B1"/>
<path d="M79.2158 19.6836L79.3208 19.6382C79.0138 18.9215 75.9104 11.7755 75.2132 10.2998C74.8674 9.56613 74.505 8.7439 74.1788 8.0841C74.0153 7.75418 73.8615 7.46511 73.7211 7.24486C73.6509 7.13519 73.5845 7.04206 73.5187 6.96863C73.4527 6.89615 73.3904 6.83972 73.3112 6.80943C73.0944 6.73049 72.7754 6.6915 72.5025 6.66765C72.2303 6.64425 72.0094 6.63919 72.0073 6.63919H69.0027V6.75389L69.0354 6.64425C69.0319 6.64332 66.377 5.84538 64.4381 5.6591C62.502 5.4742 51.6736 5.3457 45.1984 5.3457C38.7232 5.3457 27.8944 5.4742 25.959 5.6591C24.0199 5.84538 21.3651 6.64332 21.3614 6.64425L21.3944 6.75389V6.63919H18.389C18.3876 6.63919 18.1665 6.64425 17.8944 6.66765C17.6214 6.6915 17.3025 6.73049 17.0859 6.80943C17.0065 6.83972 16.9441 6.89615 16.8781 6.96863C16.6523 7.22377 16.3885 7.72802 16.0944 8.33875C15.8016 8.94807 15.4864 9.65791 15.1831 10.2998C14.4866 11.7755 11.3825 18.9215 11.0755 19.6387C10.9035 20.0456 10.742 20.382 10.7383 20.6623C10.7378 20.7692 10.7672 20.8775 10.8438 20.9587C10.9204 21.04 11.0301 21.0849 11.1641 21.1047C11.2728 21.1202 11.5234 21.1285 11.8882 21.1345C12.2511 21.14 12.7196 21.1423 13.2371 21.1423C15.3084 21.1423 18.1683 21.106 18.1683 21.106L18.167 20.9913V21.106H72.2299V20.9913L72.2286 21.106C72.2286 21.106 75.0886 21.1423 77.1596 21.1423C77.6772 21.1423 78.1459 21.14 78.5086 21.1345C78.8731 21.1285 79.1236 21.1202 79.2323 21.1047C79.3669 21.0849 79.476 21.04 79.5527 20.9587C79.6298 20.8775 79.6591 20.7692 79.6587 20.6623C79.6546 20.382 79.4929 20.0456 79.3208 19.6382L79.2158 19.6836L79.1105 19.7286C79.286 20.1333 79.433 20.4765 79.4292 20.6623C79.4281 20.7334 79.4134 20.7715 79.3858 20.8018C79.3576 20.8316 79.3029 20.8624 79.199 20.878C79.1236 20.8894 78.8641 20.8996 78.5052 20.9051C78.1445 20.9106 77.6769 20.9128 77.1596 20.9128C76.1255 20.9128 74.8932 20.9037 73.9193 20.8945C72.9461 20.8858 72.233 20.8766 72.2313 20.8766H18.1656C18.1638 20.8766 17.4507 20.8858 16.477 20.8945C15.5038 20.9037 14.2714 20.9128 13.2371 20.9128C12.72 20.9128 12.2525 20.9106 11.8918 20.9051C11.533 20.8996 11.2729 20.8894 11.198 20.878C11.0934 20.8624 11.0388 20.8316 11.0113 20.8018C10.9838 20.7715 10.9686 20.7334 10.9677 20.6623C10.964 20.4765 11.1108 20.1333 11.2866 19.7286C11.5917 19.0155 14.6986 11.8631 15.3909 10.3976C15.7388 9.66067 16.1012 8.83843 16.4238 8.18596C16.5849 7.85972 16.7363 7.57568 16.8689 7.3683C16.935 7.26506 16.996 7.18061 17.0492 7.1219C17.1015 7.06223 17.1474 7.03012 17.1653 7.02462C17.3364 6.96037 17.6508 6.91818 17.9141 6.89615C18.1784 6.87365 18.3945 6.86862 18.3945 6.86862L18.3918 6.75389V6.86862H21.4114L21.4275 6.86401C21.4275 6.86401 21.5922 6.81446 21.8698 6.73692C22.7035 6.50522 24.5549 6.02344 25.981 5.88761C27.8852 5.70453 38.7315 5.57469 45.1984 5.57514C51.6653 5.57469 62.5117 5.70453 64.4161 5.88761C65.3662 5.97846 66.5067 6.22255 67.4076 6.44372C67.8581 6.55477 68.2487 6.65984 68.5268 6.73692C68.8048 6.81446 68.9693 6.86401 68.9693 6.86401L68.9855 6.86862H72.0052V6.75389L72.0025 6.86862C72.0025 6.86862 72.2186 6.87365 72.4829 6.89615C72.7461 6.91818 73.0607 6.96037 73.2317 7.02462C73.2496 7.03012 73.2954 7.06223 73.3477 7.1219C73.5363 7.33065 73.8071 7.83446 74.0958 8.43786C74.3863 9.04305 74.7018 9.75289 75.0061 10.3976C75.6985 11.8631 78.8049 19.0155 79.1105 19.7286L79.2158 19.6836Z" fill="#3265B1"/>
<path d="M66.2991 9.22714L66.3549 9.212C66.2117 8.68204 66.1511 8.26082 65.9984 7.9066C65.8459 7.55146 65.594 7.26972 65.0926 7.04074C64.9487 6.97697 64.5919 6.92879 64.0444 6.87972C60.2293 6.54567 47.4927 6.41992 45.1977 6.41992C43.8865 6.41992 39.165 6.46125 34.648 6.5585C32.3889 6.60716 30.1814 6.67 28.4759 6.74891C27.6234 6.78838 26.8966 6.83198 26.351 6.87972C25.8036 6.92879 25.4466 6.97697 25.303 7.04074C24.8015 7.26972 24.5496 7.55146 24.3972 7.9066C24.2444 8.26082 24.1839 8.68204 24.0407 9.212C23.7512 10.2861 22.0287 19.3102 22.0283 19.312L22.0273 19.3171V19.3226C22.0273 19.329 22.0278 19.5768 22.2072 19.8278C22.3871 20.0801 22.7491 20.3247 23.4392 20.3238H66.9564C67.6454 20.3247 68.0081 20.0801 68.1874 19.8282C68.3673 19.5772 68.3673 19.3299 68.3677 19.3226V19.3171L68.3667 19.312C68.3663 19.3102 66.6443 10.2861 66.3549 9.212L66.2991 9.22714L66.2437 9.2418C66.3865 9.76949 66.8896 12.2963 67.3563 14.686C67.59 15.8813 67.8143 17.0431 67.9805 17.9061C68.1461 18.7692 68.2538 19.3322 68.2538 19.3336L68.3102 19.3226H68.2531L68.2507 19.3579C68.2421 19.441 68.2028 19.6538 68.0267 19.8438C67.8511 20.0338 67.5373 20.2086 66.9564 20.2091H23.4392C22.7748 20.2077 22.4596 19.981 22.3004 19.7612C22.221 19.6506 22.1815 19.5396 22.1618 19.457C22.1517 19.4153 22.1467 19.3808 22.1444 19.3574L22.142 19.3226H22.0847L22.1412 19.3336C22.1412 19.3322 22.2485 18.7692 22.4146 17.9061C22.9129 15.3183 23.9375 10.0356 24.1513 9.2418C24.2959 8.70496 24.3578 8.28467 24.5023 7.95203C24.6478 7.61936 24.8676 7.3679 25.3507 7.14535C25.4535 7.09628 25.8206 7.04029 26.3611 6.99397C30.164 6.66081 42.9064 6.53466 45.1977 6.53466C46.5071 6.53466 51.2286 6.57595 55.7453 6.67324C58.0035 6.72186 60.2104 6.7847 61.9142 6.86365C62.7656 6.90308 63.4917 6.94668 64.0344 6.99397C64.575 7.04029 64.9419 7.09628 65.0444 7.14535C65.5279 7.3679 65.7478 7.61936 65.8927 7.95203C66.0372 8.28467 66.0995 8.70496 66.2437 9.2418L66.2991 9.22714Z" fill="#3265B1"/>
<path d="M72.2288 20.9908L72.2274 21.1055C72.2274 21.1055 75.0988 21.1418 77.1705 21.1418H77.3364L71.8743 6.63867H68.8594L71.9108 21.1055H72.2288V20.8761H72.0966L69.1426 6.8681H71.7157L77.0631 21.0674L77.1705 21.0271V20.9123C76.1357 20.9123 74.9006 20.9032 73.924 20.8944C72.9477 20.8853 72.2319 20.8761 72.2301 20.8761H72.2288V20.9908Z" fill="#3265B1"/>
<path d="M17.9559 20.9908L17.9546 20.8761C17.9527 20.8761 17.237 20.8853 16.2601 20.8944C15.2837 20.9032 14.0485 20.9123 13.0133 20.9123V21.0271L13.1207 21.0674L18.4689 6.8681H21.0417L18.0876 20.8761H17.9546L17.9559 20.9908V21.1055H18.2739L21.3243 6.63867H18.3102L12.8477 21.1418H13.0133C15.0859 21.1418 17.9569 21.1055 17.9574 21.1055L17.9559 20.9908Z" fill="#3265B1"/>
<path d="M80.1965 26.3942C80.1277 25.7404 79.9763 25.0246 79.8145 24.2021C79.7388 23.8236 79.5702 23.5999 79.3947 23.4794C79.2192 23.3624 79.0471 23.3487 78.9714 23.3487H78.9267C78.7374 23.3487 76.7655 23.3418 75.1378 23.3418C74.2843 23.3418 73.5238 23.3418 73.1728 23.3487C72.6359 23.3556 72.3744 23.4141 72.192 23.5207C72.0062 23.6309 71.9408 23.7582 71.7653 23.8821C71.428 24.1333 71.3867 24.4636 71.3867 24.591L71.3902 24.6426V24.6495L71.4108 25.0693L71.49 26.8623L71.4934 26.9173L71.4968 27.0343L71.5003 27.0894L71.6552 30.5066C71.6724 30.8783 71.7928 31.2086 71.9477 31.4839C72.0234 31.6182 72.4776 32.4269 72.9147 33.2046C73.2485 33.7965 73.5685 34.3678 73.6993 34.6087H73.7027C73.7406 34.674 73.7612 34.7153 73.7681 34.7222V34.7257L73.7956 34.7773L73.7991 34.7842H76.7414C77.1475 34.7842 77.4159 34.6396 77.5708 34.4848C77.7256 34.3333 77.7738 34.1854 77.7773 34.1751V34.1716L77.7807 34.1682C77.7807 34.1682 78.9198 29.7392 79.1021 29.0268C79.1916 28.6758 79.2605 28.521 79.3396 28.4281C79.4188 28.3351 79.5392 28.2732 79.7595 28.139C79.9487 28.022 80.0657 27.8327 80.1345 27.6228C80.1999 27.4094 80.224 27.1651 80.224 26.9173C80.224 26.7418 80.2137 26.5629 80.1965 26.3942ZM79.9143 27.5505C79.8558 27.7329 79.7698 27.8637 79.6424 27.9428C79.4325 28.0736 79.288 28.1356 79.1641 28.2766C79.0436 28.4212 78.9714 28.6105 78.8785 28.9718C78.789 29.3262 78.4586 30.6099 78.1489 31.8074C77.853 32.9603 77.5776 34.0339 77.557 34.1062V34.1097C77.5501 34.1338 77.5054 34.2404 77.3884 34.3437C77.2679 34.4469 77.0752 34.5536 76.7414 34.5536H73.9367C73.7027 34.1406 72.2849 31.6182 72.1507 31.3738C72.0062 31.1192 71.896 30.8198 71.8823 30.4963L71.7274 27.0894L71.6379 25.0693L71.6173 24.6254V24.591C71.6173 24.5015 71.6379 24.2641 71.9029 24.0679C72.1094 23.913 72.1817 23.7892 72.309 23.7203C72.4329 23.6446 72.6531 23.5861 73.1762 23.5792C73.5272 23.5724 74.2843 23.5689 75.1378 23.5689C75.9912 23.5689 76.9445 23.5724 77.6809 23.5758C78.4173 23.5758 78.937 23.5792 78.9404 23.5792H78.9473L78.9542 23.5758H78.9714C79.0196 23.5758 79.1435 23.5861 79.2639 23.6687C79.3878 23.7547 79.5186 23.913 79.5874 24.2468C79.7526 25.0728 79.9005 25.7782 79.9659 26.4149C79.9831 26.5835 79.9935 26.7521 79.9935 26.9173C79.9969 27.1513 79.9728 27.3716 79.9143 27.5505Z" fill="#3265B1"/>
<path d="M18.5349 23.8821C18.3594 23.7582 18.2906 23.6309 18.1082 23.5207C17.9224 23.4141 17.6643 23.3556 17.1274 23.3487C16.773 23.3418 16.0159 23.3418 15.1624 23.3418C13.5278 23.3418 11.5422 23.3487 11.3701 23.3487H11.3288C11.2497 23.3487 11.081 23.3624 10.9055 23.4794C10.73 23.5999 10.5614 23.8236 10.4857 24.2021C10.3205 25.0246 10.1725 25.7404 10.1037 26.3942C10.0865 26.5663 10.0762 26.7418 10.0762 26.9208C10.0762 27.1685 10.0968 27.4094 10.1656 27.6228C10.2345 27.8327 10.3515 28.022 10.5373 28.139C10.761 28.2732 10.8814 28.3351 10.9606 28.4281C11.0397 28.521 11.1086 28.6758 11.198 29.0268C11.3804 29.7392 12.5195 34.1682 12.5195 34.1682V34.1716L12.5229 34.1751C12.5264 34.1854 12.5746 34.3333 12.7294 34.4848C12.8843 34.6396 13.1493 34.7842 13.5553 34.7842H16.4977L16.5045 34.7704L16.5321 34.7257C16.5321 34.7257 16.5562 34.6809 16.594 34.6087C16.7282 34.3747 17.0517 33.7999 17.3855 33.2046C17.8226 32.4269 18.2768 31.6182 18.3491 31.4839C18.504 31.2086 18.6278 30.8783 18.645 30.5066L18.7999 27.0894L18.8033 27.0343L18.8068 26.9173L18.8102 26.8623L18.8894 25.0693L18.91 24.6495V24.6426L18.9135 24.591C18.9135 24.4637 18.8722 24.1333 18.5349 23.8821ZM12.8877 34.3196C12.8292 34.2645 12.7914 34.2095 12.7707 34.1682L12.7466 34.1166L12.7432 34.1097C12.7432 34.1097 12.4576 33.0016 12.1478 31.8074C11.8416 30.6099 11.5112 29.3262 11.4217 28.9718C11.3288 28.6105 11.2565 28.4212 11.1327 28.2766C11.0088 28.1356 10.8677 28.0736 10.6578 27.9428C10.5304 27.8637 10.441 27.7329 10.3859 27.5505C10.3274 27.3716 10.3033 27.1513 10.3033 26.9208C10.3033 26.7556 10.3171 26.5835 10.3343 26.4149C10.3997 25.7782 10.5442 25.0728 10.7128 24.2469C10.7782 23.9131 10.9124 23.7547 11.0363 23.6687C11.1568 23.5861 11.2806 23.5758 11.3288 23.5758H11.346L11.3529 23.5792H11.3598C11.3598 23.5792 11.8829 23.5758 12.6193 23.5758C13.3557 23.5724 14.3055 23.5689 15.1624 23.5689C16.0159 23.5689 16.773 23.5724 17.124 23.5792C17.6471 23.5861 17.8673 23.6446 17.9912 23.7203C18.1185 23.7892 18.1908 23.9131 18.3973 24.0679C18.6588 24.2641 18.6829 24.5015 18.6829 24.591V24.622L18.6795 24.6254L18.5797 26.8451L18.5693 27.0894L18.4179 30.4963C18.4007 30.8198 18.294 31.1192 18.1495 31.3738C18.0153 31.6182 16.5975 34.1406 16.3634 34.5536H13.5553C13.2043 34.5536 13.0082 34.4331 12.8877 34.3196Z" fill="#3265B1"/>
<path d="M18.6824 24.5924V24.6234L18.6789 24.6268L18.5791 26.8464L18.5688 27.0908L18.4174 30.4977C18.4002 30.8212 18.2935 31.1206 18.1489 31.3752C18.0147 31.6196 16.5969 34.142 16.3629 34.555H13.5548C13.2038 34.555 13.0076 34.4345 12.8872 34.321C12.8287 34.2659 12.7908 34.2109 12.7702 34.1696L12.7461 34.118L12.7426 34.1111C12.7426 34.1111 12.457 33.0029 12.1473 31.8088C11.841 30.6113 11.5106 29.3276 11.4212 28.9732C11.3283 28.6118 11.256 28.4226 11.1321 28.278C11.0082 28.1369 10.8671 28.075 10.6572 27.9442C10.5299 27.8651 10.4404 27.7343 10.3853 27.5519C10.3268 27.373 10.3027 27.1527 10.3027 26.9222C10.3027 26.757 10.3165 26.5849 10.3337 26.4163C10.3991 25.7796 10.5436 25.0742 10.7123 24.2482C10.7776 23.9144 10.9119 23.7561 11.0357 23.6701C11.1562 23.5875 11.2801 23.5772 11.3283 23.5772H11.3455L11.3523 23.5806H11.3592C11.3592 23.5806 11.8823 23.5772 12.6188 23.5772C13.3552 23.5738 14.305 23.5703 15.1619 23.5703C16.0153 23.5703 16.7724 23.5738 17.1234 23.5806C17.6465 23.5875 17.8668 23.646 17.9906 23.7217C18.118 23.7906 18.1902 23.9144 18.3967 24.0693C18.6583 24.2655 18.6824 24.5029 18.6824 24.5924Z" fill="#3265B1"/>
<path d="M71.6388 25.0703H18.6632L18.5806 26.8453L18.5703 27.0896H71.7317L71.6388 25.0703ZM18.8835 25.2974H71.4186L71.4908 26.8625H18.8112L18.8835 25.2974Z" fill="#3265B1"/>
<path d="M79.9934 26.9187C79.9968 27.1527 79.9727 27.373 79.9142 27.5519C79.8557 27.7343 79.7697 27.8651 79.6423 27.9442C79.4324 28.075 79.2879 28.1369 79.164 28.278C79.0436 28.4226 78.9713 28.6119 78.8784 28.9732C78.7889 29.3276 78.4585 30.6113 78.1488 31.8088C77.8529 32.9617 77.5775 34.0353 77.5569 34.1076V34.1111C77.55 34.1352 77.5053 34.2418 77.3883 34.3451C77.2678 34.4483 77.0751 34.555 76.7413 34.555H73.9367C73.7026 34.142 72.2848 31.6196 72.1506 31.3752C72.0061 31.1206 71.896 30.8212 71.8822 30.4977L71.7273 27.0908H71.7308L71.6379 25.0707L71.6172 24.6268V24.5924C71.6172 24.5029 71.6379 24.2655 71.9028 24.0693C72.1093 23.9144 72.1816 23.7906 72.3089 23.7217C72.4328 23.646 72.653 23.5875 73.1761 23.5806C73.5271 23.5738 74.2842 23.5703 75.1377 23.5703C75.9911 23.5703 76.9444 23.5738 77.6808 23.5772C78.4172 23.5772 78.9369 23.5806 78.9403 23.5806H78.9472L78.9541 23.5772H78.9713C79.0195 23.5772 79.1434 23.5875 79.2638 23.6701C79.3877 23.7561 79.5185 23.9144 79.5873 24.2482C79.7525 25.0742 79.9004 25.7796 79.9658 26.4163C79.983 26.5849 79.9934 26.7535 79.9934 26.9187Z" fill="#3265B1"/>
<path d="M72.4862 47.3167L72.585 47.2585C72.5671 47.2224 71.9508 46.2485 69.3901 46.252H21.0437C18.4829 46.2485 17.8666 47.2224 17.8487 47.2585L17.9474 47.3167L17.9465 47.2021C10.9556 47.2544 7.43946 47.9238 6.0767 48.2717L5.97852 48.2968L5.99135 48.3973C6.23727 50.3437 6.49791 51.5709 6.49836 51.5736L6.5016 51.5881L6.50844 51.6018C6.50893 51.6029 7.07375 52.7041 7.74549 53.8659C8.08137 54.4468 8.44387 55.0425 8.77744 55.5249C9.11424 56.0091 9.40651 56.3753 9.65704 56.5188C9.78551 56.5897 9.98052 56.6427 10.2398 56.6967C11.1423 56.8791 12.8061 57.0164 14.317 57.1189C15.0723 57.1709 15.7881 57.2136 16.3479 57.2483C16.9063 57.2828 17.316 57.311 17.4362 57.3299C17.478 57.3347 17.5606 57.3746 17.6647 57.45C18.035 57.7119 18.6692 58.3468 19.7295 58.9067C20.7913 59.4683 22.2862 59.9584 24.3978 59.9584H65.8063C68.219 59.9587 69.8271 59.318 70.9032 58.6634C71.4415 58.3365 71.8472 58.0065 72.1531 57.7556C72.3059 57.63 72.4343 57.5243 72.5389 57.45C72.6432 57.3746 72.7258 57.3347 72.7674 57.3299C72.9057 57.3082 73.4185 57.2752 74.105 57.2329C75.1374 57.1688 76.5783 57.0825 77.842 56.9672C78.4738 56.9094 79.0609 56.8447 79.5327 56.7721C80.0065 56.6974 80.3555 56.6227 80.5468 56.5188C80.7974 56.3753 81.0895 56.0091 81.4264 55.5249C82.4248 54.0789 83.6939 51.6039 83.6953 51.6018L83.7022 51.5881L83.7053 51.5736C83.706 51.5709 83.9716 50.3199 84.2197 48.3419L84.2325 48.24L84.1327 48.2163C82.6285 47.8584 79.1228 47.2513 72.4866 47.2021L72.4862 47.3167L72.4852 47.4316C79.1077 47.4805 82.5965 48.0862 84.0793 48.4393L84.1058 48.3278L83.9923 48.3133C83.8684 49.2982 83.7407 50.1021 83.6433 50.6589C83.5466 51.2161 83.4809 51.5247 83.4809 51.5258L83.5934 51.5495L83.4912 51.4969C83.4905 51.4979 83.3508 51.7715 83.1264 52.1903C82.7895 52.8187 82.2647 53.7733 81.7461 54.6116C81.487 55.0308 81.2296 55.4213 80.999 55.7259C80.7715 56.0308 80.562 56.2504 80.4353 56.3185C80.3531 56.3649 80.1669 56.4217 79.9181 56.4716C79.043 56.6492 77.3781 56.7879 75.8711 56.8908C75.1171 56.9421 74.402 56.9844 73.8418 57.0195C73.2795 57.0549 72.8789 57.0811 72.7326 57.1031C72.6215 57.122 72.5224 57.1816 72.406 57.2631C72.0058 57.5488 71.4005 58.1575 70.3667 58.704C69.335 59.2491 67.8821 59.7285 65.8063 59.7292H24.3978C22.0251 59.7285 20.4664 59.1025 19.4194 58.4673C18.8963 58.1493 18.5012 57.8285 18.1961 57.5777C18.0433 57.4528 17.913 57.3454 17.7974 57.2631C17.6813 57.1816 17.5822 57.122 17.4711 57.1031C17.3045 57.0777 16.803 57.0467 16.1129 57.004C15.0806 56.94 13.6412 56.8533 12.383 56.7387C11.7535 56.6812 11.1698 56.6165 10.706 56.5449C10.2443 56.4754 9.8938 56.3911 9.76806 56.3185C9.59647 56.2273 9.28996 55.8684 8.96603 55.3949C8.47461 54.6835 7.91023 53.7076 7.46974 52.9113C7.2495 52.5128 7.05998 52.159 6.92601 51.9054C6.79156 51.651 6.71265 51.4972 6.71265 51.4969L6.61034 51.5495L6.72274 51.5258C6.72229 51.5247 6.65804 51.2219 6.56261 50.6751C6.46763 50.1276 6.34144 49.3374 6.21893 48.3684L6.10512 48.3828L6.13358 48.4936C7.47294 48.1519 10.9716 47.4833 17.9483 47.4316L18.013 47.431L18.046 47.3752C18.0621 47.3546 18.6159 46.4846 21.0437 46.4812H69.3901C70.6427 46.4812 71.3971 46.7162 71.8351 46.9433C72.054 47.0572 72.1944 47.1694 72.2787 47.2506C72.3211 47.2916 72.3496 47.3246 72.3665 47.3466L72.3844 47.3711L72.3875 47.3756L72.3981 47.369L72.3871 47.3752L72.3875 47.3756L72.3981 47.369L72.3871 47.3752L72.4202 47.431L72.4852 47.4316L72.4862 47.3167Z" fill="#3265B1"/>
<path d="M73.8236 53.6849V53.5703H15.7313C12.6258 53.571 10.1852 54.7417 8.91654 55.5102L8.81055 55.5742L8.88261 55.6747C9.17718 56.0838 9.43184 56.3912 9.65714 56.5188C9.78561 56.5897 9.98063 56.6427 10.2399 56.6967C11.1424 56.8791 12.8062 57.0164 14.3171 57.119C15.0724 57.171 15.7882 57.2136 16.348 57.2484C16.9064 57.2828 17.3161 57.311 17.4363 57.3299C17.4781 57.3348 17.5607 57.3747 17.6648 57.4501C18.0351 57.7119 18.6693 58.3469 19.7296 58.9068C20.7914 59.4684 22.2863 59.9584 24.3979 59.9584H65.8067C68.219 59.9588 69.8275 59.318 70.9033 58.6635C71.4415 58.3365 71.8472 58.0065 72.1531 57.7556C72.3059 57.63 72.4346 57.5244 72.5393 57.4501C72.6432 57.3747 72.7258 57.3348 72.7678 57.3299C72.9058 57.3083 73.4189 57.2752 74.1051 57.2329C75.1375 57.1689 76.5783 57.0825 77.842 56.9672C78.4738 56.9094 79.0612 56.8447 79.5327 56.7721C80.0069 56.6974 80.3555 56.6228 80.5469 56.5188C80.7186 56.4218 80.9003 56.2239 81.1095 55.9579L81.1856 55.8605L81.0827 55.7917C80.01 55.0755 77.344 53.5713 73.8236 53.5703V53.7998C77.2773 53.7995 79.9051 55.2806 80.9553 55.9827L81.019 55.887L80.9285 55.8165C80.7299 56.0732 80.5482 56.2583 80.4357 56.3185C80.3531 56.365 80.1669 56.4218 79.9181 56.4717C79.0434 56.6493 77.3781 56.7879 75.8711 56.8908C75.1175 56.9421 74.402 56.9844 73.8418 57.0195C73.2798 57.055 72.8793 57.0811 72.7327 57.1032C72.6219 57.1221 72.5227 57.1816 72.4061 57.2632C72.0059 57.5488 71.4009 58.1576 70.3671 58.7041C69.3351 59.2492 67.8825 59.7285 65.8067 59.7292H24.3979C22.0252 59.7285 20.4665 59.1026 19.4194 58.4673C18.8964 58.1493 18.5013 57.8286 18.1962 57.5777C18.0434 57.4528 17.9131 57.3454 17.7974 57.2632C17.6814 57.1816 17.5823 57.1221 17.4712 57.1032C17.3046 57.0777 16.8031 57.0467 16.1131 57.0041C15.0807 56.94 13.6413 56.8533 12.3831 56.7387C11.7536 56.6813 11.1699 56.6166 10.706 56.545C10.2444 56.4755 9.89391 56.3912 9.76816 56.3185C9.6163 56.238 9.352 55.9403 9.06937 55.5415L8.97621 55.6079L9.0354 55.7063C10.2816 54.9517 12.6846 53.7998 15.7313 53.7998H73.8236V53.6849Z" fill="#3265B1"/>
<path d="M18.9494 47.9945L18.9833 48.0403C19.1233 47.9377 19.6671 47.6204 21.0427 47.6204H69.3891C70.8964 47.6204 71.4044 48.0003 71.478 48.0633L71.5152 48.0196L71.4677 48.0513C71.6195 48.2805 73.3618 51.4754 74.2789 53.7243L74.2927 53.758L74.3295 53.7597C74.6729 53.7756 75.0095 53.7997 75.3344 53.8403L75.4128 53.8499L75.3977 53.7721C74.7817 50.5923 72.5338 47.2873 72.5324 47.2842L72.4853 47.3162L72.5345 47.287C72.5256 47.2691 71.9361 46.3072 69.3891 46.3086H21.0426C18.4956 46.3072 17.906 47.2691 17.8973 47.287L17.8959 47.2894L17.895 47.2914C17.8945 47.2925 15.844 51.5425 15.113 53.6802L15.0859 53.7597L15.1704 53.7563C15.3544 53.747 15.5411 53.7418 15.7302 53.7418H16.4382L16.4528 53.7074C17.2907 51.7572 18.7507 48.542 19.0013 48.0193L18.9494 47.9945L18.8976 47.9697C18.6452 48.4959 17.1865 51.7097 16.3473 53.662L16.4001 53.6844V53.6272H15.7302C15.5393 53.6272 15.3507 53.6324 15.1649 53.6417L15.1676 53.6988L15.2218 53.7171C15.5842 52.6558 16.2789 51.0604 16.8823 49.732C17.1838 49.0678 17.4632 48.4697 17.6665 48.0385C17.8702 47.6067 17.9978 47.342 17.9982 47.341L17.9464 47.3162L17.9959 47.3458L18.001 47.3379C18.062 47.2501 18.6805 46.4249 21.0426 46.4235H69.3891C70.6487 46.4235 71.413 46.6596 71.8604 46.8922C72.0844 47.0085 72.2293 47.1242 72.3177 47.2088C72.3618 47.2515 72.392 47.287 72.411 47.3107L72.4306 47.3379L72.4357 47.3458L72.4368 47.3472L72.4375 47.3486C72.4375 47.3486 72.5772 47.5537 72.7964 47.9119C73.4547 48.9866 74.8292 51.4355 75.2848 53.7938L75.3412 53.7835L75.3481 53.7263C75.0195 53.6857 74.6805 53.6606 74.335 53.6451L74.3322 53.7026L74.3852 53.6809C73.4613 51.4186 71.7258 48.2343 71.563 47.988L71.5589 47.9818L71.5524 47.9762C71.4539 47.8916 70.9147 47.5055 69.3891 47.5058H21.0426C19.6501 47.5055 19.0792 47.8269 18.9154 47.948L18.904 47.9563L18.8976 47.9697L18.9494 47.9945Z" fill="#3265B1"/>
<path d="M58.7841 51.3688L58.7882 51.4837C58.8254 51.4823 58.9056 51.482 59.0199 51.482C60.6328 51.4813 69.1002 51.6089 70.4505 51.6299L70.6536 51.633L70.5517 51.4576C70.3717 51.1487 70.2275 50.9092 70.1449 50.8054C70.0441 50.6843 69.8772 50.6079 69.6576 50.5319C69.0031 50.3128 67.8668 50.1786 67.0281 50.1779C66.0191 50.1779 59.5849 50.1029 58.5515 50.0902L58.4899 50.0898L58.4555 50.1397C58.3601 50.2777 58.2514 50.438 58.1606 50.579C58.0687 50.7228 57.9981 50.837 57.9678 50.9189C57.9527 50.9612 57.9434 51.0063 57.9434 51.0537C57.9413 51.1707 58.0091 51.2973 58.1371 51.3702C58.2648 51.4455 58.4438 51.4844 58.7001 51.4847L58.7879 51.4837L58.7841 51.3688L58.7803 51.2543L58.7001 51.2556C58.4675 51.256 58.3257 51.2168 58.2545 51.1734C58.184 51.128 58.1757 51.096 58.1729 51.0537L58.1839 50.9956C58.1939 50.9629 58.2655 50.8384 58.3533 50.7035C58.4417 50.5659 58.5498 50.407 58.6441 50.2701L58.5498 50.2047L58.5484 50.3196C59.5835 50.3324 66.0147 50.407 67.0281 50.407C67.5705 50.407 68.2543 50.4669 68.8314 50.5687C69.1201 50.6196 69.382 50.6808 69.5843 50.7493C69.7867 50.815 69.9295 50.8975 69.9656 50.9485C70.0266 51.0231 70.1773 51.2691 70.3535 51.5725L70.4526 51.515L70.4543 51.4005C69.1025 51.3795 60.6383 51.2525 59.0198 51.2525C58.9042 51.2525 58.824 51.2529 58.7803 51.2543L58.7841 51.3688Z" fill="#3265B1"/>
<path d="M44.7757 53.6838V53.7409H71.7501L71.7044 53.6566C71.5788 53.424 71.2401 52.7987 70.9019 52.1923C70.5629 51.585 70.2291 51.0037 70.0997 50.8413C70.015 50.738 69.8543 50.6599 69.6392 50.5863C68.9957 50.3702 67.8601 50.2356 67.028 50.2353C66.4787 50.2353 64.3224 50.2132 62.3044 50.1912C61.2954 50.1802 60.3208 50.1689 59.5982 50.1603C58.8762 50.152 58.4071 50.1465 58.4057 50.1465H58.3975L58.3896 50.1489C58.3855 50.1523 57.2037 50.4738 56.7329 51.0474C56.2739 51.6156 55.7047 53.0479 54.0941 53.0468H36.1683C34.5574 53.0479 33.988 51.6156 33.5297 51.0474C33.0584 50.4738 31.8764 50.1523 31.8723 50.1489L31.8645 50.1465H31.8562C31.8553 50.1465 31.3864 50.152 30.6637 50.1603C28.4971 50.1854 24.0587 50.2353 23.2342 50.2353C22.6794 50.2353 21.9898 50.2958 21.4011 50.3994C21.1065 50.4514 20.8376 50.514 20.6229 50.5863C20.4077 50.6599 20.2466 50.7381 20.1618 50.8413C20.0328 51.0037 19.6992 51.585 19.3601 52.1924C19.022 52.7987 18.6833 53.424 18.5576 53.6566L18.5117 53.7409L44.7757 53.7409V53.6263H18.6081V53.6838L18.6586 53.7114C18.7838 53.4791 19.1225 52.8538 19.4602 52.2484C19.7965 51.6448 20.137 51.055 20.2517 50.9129C20.304 50.8444 20.4531 50.7632 20.6591 50.695C21.2799 50.4858 22.4151 50.3495 23.2342 50.3499C24.3363 50.3499 31.8576 50.2614 31.8576 50.2614L31.8572 50.204L31.8415 50.2594C31.8425 50.2594 32.1334 50.3406 32.4807 50.4903C32.8281 50.6389 33.2296 50.8582 33.4406 51.1193C33.8761 51.651 34.4772 53.1611 36.1683 53.1614H54.0941C55.7852 53.1611 56.3854 51.651 56.8217 51.1193C57.033 50.8582 57.4339 50.6389 57.7818 50.4903C57.9553 50.4156 58.1153 50.3578 58.232 50.3186C58.3483 50.2797 58.4205 50.2594 58.4205 50.2594L58.4054 50.204L58.4044 50.2614C58.4047 50.2614 65.9267 50.3499 67.028 50.3499C67.5744 50.3499 68.2603 50.4101 68.8412 50.5123C69.1316 50.5636 69.3959 50.6255 69.6024 50.695C69.8089 50.7632 69.9576 50.8444 70.0102 50.9129C70.1252 51.055 70.4652 51.6448 70.8017 52.2484C71.1397 52.8538 71.4783 53.4791 71.6035 53.7114L71.6538 53.6838V53.6263H44.7757V53.6838Z" fill="#3265B1"/>
<path d="M31.4778 51.3688L31.4819 51.2543C31.4378 51.2529 31.358 51.2526 31.2424 51.2526C29.6241 51.2526 21.1593 51.3795 19.8085 51.4005L19.8103 51.515L19.9095 51.5725C20.0852 51.2691 20.2357 51.0231 20.2962 50.9488C20.3329 50.8975 20.4757 50.815 20.6775 50.7493C21.2869 50.5429 22.4216 50.4063 23.2342 50.407C24.2482 50.407 30.6789 50.3324 31.7136 50.3196L31.7122 50.2047L31.6182 50.2704C31.7127 50.407 31.8205 50.5659 31.909 50.7035C31.9971 50.8384 32.0687 50.9629 32.0788 50.9956L32.0894 51.0534C32.0866 51.096 32.0784 51.128 32.0077 51.1734C31.9366 51.2168 31.7944 51.256 31.5622 51.2556L31.4819 51.2543L31.4778 51.3688L31.4741 51.4837L31.5622 51.4847C31.8187 51.4844 31.9976 51.4455 32.1252 51.3702C32.2532 51.2969 32.3216 51.1707 32.3188 51.0534C32.3188 51.0063 32.3096 50.9612 32.295 50.9196C32.2642 50.837 32.1936 50.7228 32.1022 50.579C32.0114 50.438 31.9022 50.2777 31.8067 50.1397L31.7719 50.0898L31.7108 50.0902C30.6771 50.1029 24.2437 50.1779 23.2342 50.1779C22.6758 50.1779 21.9834 50.2384 21.391 50.343C21.0946 50.3953 20.8234 50.4579 20.6046 50.5319C20.3853 50.6079 20.2182 50.6843 20.1173 50.8054C20.0342 50.9092 19.8902 51.1487 19.7108 51.4579L19.6094 51.633L19.8122 51.6299C21.1616 51.6089 29.6296 51.4813 31.2424 51.482C31.3566 51.482 31.4369 51.4823 31.4741 51.4837L31.4778 51.3688Z" fill="#3265B1"/>
<path d="M72.0492 31.4299L72.0995 31.4019C71.9539 31.1431 71.841 30.8366 71.8259 30.5016L71.6648 26.9199H18.6356L18.4745 30.5016C18.4594 30.8366 18.3465 31.1431 18.2006 31.4019C18.0515 31.6666 16.3827 34.6413 16.3822 34.6413L16.373 34.6581L16.3758 34.6774C16.3758 34.6781 16.5901 36.1623 16.8599 37.7674C17.131 39.3741 17.4518 41.0917 17.6789 41.5896C17.8937 42.0594 18.0051 42.5687 18.7292 42.9366C19.4509 43.3041 20.766 43.5422 23.4094 43.5429H69.0013V43.4854L68.9988 43.5429L69.0463 43.5436C69.2483 43.5433 70.0643 43.5175 70.9157 43.1141C71.7667 42.7115 72.6518 41.9241 72.9712 40.4182C73.6519 37.2164 73.9241 34.6771 73.9248 34.6757L73.9265 34.6574L73.9172 34.6413C73.9172 34.6413 72.2485 31.6666 72.0995 31.4019L72.0492 31.4299L71.9993 31.4583C72.0737 31.5905 72.5283 32.4003 72.9643 33.1772C73.4003 33.954 73.8174 34.6977 73.8174 34.6977L73.8673 34.6698L73.8105 34.6633C73.8105 34.665 73.7427 35.2965 73.5899 36.3299C73.4364 37.3637 73.199 38.7967 72.8593 40.3941C72.5455 41.8642 71.6934 42.6169 70.8665 43.0105C70.0395 43.4029 69.238 43.429 69.0463 43.429L69.0033 43.428H23.4094C20.7733 43.429 19.4693 43.1867 18.7815 42.8343C18.096 42.483 18.0079 42.0318 17.7831 41.5418C17.5697 41.0803 17.2416 39.349 16.9732 37.7481C16.8383 36.9466 16.7171 36.1747 16.63 35.6035C16.5428 35.0322 16.4896 34.6623 16.4891 34.6616L16.4327 34.6698L16.4827 34.6977C16.4832 34.696 16.8998 33.954 17.3357 33.1772C17.7716 32.4003 18.2263 31.5905 18.3006 31.4583C18.4525 31.1881 18.5727 30.8646 18.5893 30.5067L18.7452 27.0346H71.5551L71.7113 30.5067C71.7278 30.8646 71.8476 31.1881 71.9993 31.4583L72.0492 31.4299Z" fill="#3265B1"/>
<path d="M83.593 51.55L83.6491 51.562C83.6495 51.5596 84.389 48.0729 84.5535 43.529C84.6086 42.0117 84.6268 40.2566 84.6268 38.5914C84.6268 35.7227 84.5721 33.122 84.557 32.4696L84.4424 32.4668C84.4424 32.4682 84.3983 33.0688 84.3281 33.9865C84.2232 35.3631 84.0593 37.4502 83.8993 39.2814C83.739 41.1108 83.5803 42.6938 83.4902 43.0358C83.3835 43.4464 83.2682 43.7675 83.1116 43.9794C82.954 44.1911 82.7644 44.2985 82.4763 44.3002C82.3924 44.3002 82.2998 44.2905 82.1983 44.2699C81.7753 44.1859 79.8114 44.0441 77.4892 43.9216C75.169 43.7998 72.4996 43.6983 70.6874 43.6983C67.0658 43.6983 48.3732 43.656 45.0899 43.656C41.8058 43.656 23.1136 43.6983 19.4924 43.6983C17.6795 43.6983 15.01 43.7998 12.6901 43.9216C10.3683 44.0441 8.40404 44.1859 7.98052 44.2699C7.87913 44.2905 7.78687 44.3002 7.7029 44.3002C7.41476 44.2985 7.22525 44.1911 7.06788 43.9794C6.9114 43.7675 6.79626 43.4464 6.68933 43.0358C6.58059 42.6218 6.37273 40.4094 6.18095 38.1251C5.98913 35.8387 5.81111 33.4703 5.75515 32.7146L5.64042 32.7178C5.6207 33.6377 5.57617 36.0131 5.57617 38.6055C5.57617 40.2663 5.59451 42.0151 5.64958 43.529C5.81386 48.0729 6.55351 51.5596 6.55395 51.562L6.55536 51.5693L6.55901 51.5761C6.55946 51.5768 7.12383 52.6774 7.79469 53.8374C8.13056 54.4173 8.4921 55.0123 8.82433 55.4927C9.15789 55.9741 9.4534 56.3389 9.68421 56.4694C9.91591 56.5956 10.4642 56.6944 11.1851 56.7856C13.3407 57.0544 16.9981 57.2048 17.4446 57.2736C17.5657 57.2884 17.7828 57.4598 18.0865 57.7113C19.0047 58.4657 20.7932 59.9028 24.3974 59.9014H65.8063C68.2086 59.9014 69.8044 59.2644 70.8732 58.6147C71.4077 58.2898 71.8107 57.9622 72.1166 57.7113C72.4205 57.4598 72.6373 57.2884 72.7584 57.2736C73.0533 57.2278 74.784 57.1452 76.5366 57.0162C77.4135 56.9515 78.2986 56.8754 79.0175 56.7856C79.7388 56.6944 80.2873 56.5956 80.5189 56.4694C80.7498 56.3389 81.0451 55.9741 81.3785 55.4927C82.3738 54.0522 83.6433 51.5772 83.644 51.5761L83.6478 51.5693L83.6491 51.562L83.593 51.55L83.5418 51.5238C83.5418 51.5245 83.401 51.7981 83.1766 52.2176C82.8394 52.8467 82.3139 53.802 81.7943 54.642C81.2781 55.4814 80.7536 56.2113 80.4628 56.3689C80.2725 56.4769 79.7178 56.5833 79.0037 56.6717C76.8529 56.9398 73.2085 57.0891 72.7408 57.1604C72.5564 57.1924 72.3516 57.3727 72.0436 57.6229C71.1279 58.3727 69.3797 59.7854 65.8062 59.7868H24.3974C22.0147 59.7861 20.4436 59.157 19.3896 58.5166C18.8624 58.1966 18.4646 57.8734 18.159 57.6229C17.8511 57.3727 17.646 57.1924 17.462 57.1604C17.1477 57.1118 15.4294 57.0306 13.6752 56.9019C12.7988 56.8372 11.9156 56.7612 11.1993 56.6717C10.4854 56.5833 9.93058 56.4769 9.74017 56.3689C9.54883 56.2646 9.24555 55.9033 8.91838 55.4277C8.42514 54.7132 7.86028 53.7366 7.41935 52.9389C6.97841 52.1416 6.66181 51.5252 6.66136 51.5238L6.60995 51.55L6.66639 51.5383C6.66594 51.5373 6.62003 51.3211 6.54845 50.924C6.33327 49.7333 5.88727 46.9252 5.76387 43.5248C5.70925 42.0134 5.69088 40.2652 5.69088 38.6055C5.69088 36.0145 5.73541 33.6396 5.75516 32.7201L5.69779 32.7191L5.64043 32.7233C5.69642 33.479 5.87489 35.8476 6.06667 38.1347C6.25938 40.4246 6.46359 42.6218 6.57829 43.0647C6.68704 43.4798 6.80315 43.8125 6.97521 44.0476C7.1468 44.2833 7.38401 44.4165 7.70291 44.4151C7.79559 44.4151 7.89518 44.4041 8.00299 44.3828C8.40405 44.3015 10.3793 44.158 12.696 44.0366C15.0146 43.9144 17.6832 43.8129 19.4924 43.8129C23.1136 43.8129 41.8065 43.7709 45.0899 43.7709C48.3729 43.7709 67.0658 43.8129 70.6874 43.8129C72.4962 43.8129 75.1646 43.9144 77.4833 44.0366C79.8004 44.158 81.7753 44.3015 82.1759 44.3824C82.2836 44.4041 82.3831 44.4151 82.4763 44.4151C82.795 44.4165 83.0325 44.2833 83.2042 44.0476C83.3766 43.8125 83.4926 43.4798 83.6013 43.0647C83.7276 42.5761 83.9644 39.9393 84.1726 37.41C84.3801 34.8834 84.557 32.4751 84.557 32.4751L84.4998 32.4709L84.4424 32.4723C84.4575 33.1238 84.5122 35.7241 84.5122 38.5914C84.5122 40.2556 84.4936 42.0093 84.4386 43.5248C84.357 45.7916 84.1313 47.7959 83.9262 49.2323C83.824 49.9508 83.7262 50.5272 83.6546 50.924C83.5831 51.3212 83.5373 51.5373 83.5366 51.5383L83.593 51.55Z" fill="#3265B1"/>
<path d="M72.7498 57.2156L72.7584 57.2724C73.0533 57.2266 74.784 57.144 76.5366 57.015C77.4135 56.9503 78.2986 56.8742 79.0175 56.7844C79.7388 56.6932 80.2873 56.5944 80.5189 56.4681C80.7498 56.3377 81.0451 55.9729 81.3786 55.4915C82.3738 54.051 83.6433 51.576 83.644 51.5749L83.6478 51.568L83.6491 51.5608C83.6495 51.5584 84.389 48.0717 84.5535 43.5278C84.6086 42.0136 84.6268 40.2626 84.6268 38.6008C84.6268 35.2769 84.5535 32.31 84.5535 32.3096V32.2995L84.5497 32.2903C84.5494 32.2894 84.4241 31.97 84.2369 31.4749C84.049 30.9803 83.8005 30.3108 83.5552 29.6139L83.5459 29.5873L83.5191 29.5785C82.8673 29.3592 82.1308 29.1183 81.7189 29.0073C81.3311 28.9036 80.947 28.7182 80.5967 28.7168C80.3968 28.7154 80.204 28.7834 80.0499 28.9646C79.8957 29.1449 79.7759 29.4299 79.692 29.8681C79.3822 31.485 78.4927 34.9985 78.2948 35.6145C78.2002 35.9063 77.9648 36.1537 77.4967 36.334C77.0294 36.5133 76.3332 36.6193 75.3418 36.6193H14.6484C13.6569 36.6193 12.9608 36.5133 12.4937 36.334C12.0257 36.1537 11.7898 35.9063 11.6953 35.6145C11.4975 34.9985 10.6079 31.485 10.2981 29.8681C10.2137 29.4299 10.0944 29.1449 9.94024 28.9646C9.78607 28.7834 9.59332 28.7159 9.39328 28.7168C9.04319 28.7182 8.65914 28.9036 8.27186 29.0073C7.90983 29.105 7.29776 29.3018 6.71229 29.4973L6.68565 29.506L6.67646 29.5327C6.42642 30.2452 6.17038 30.9349 5.97722 31.446C5.78403 31.9572 5.65374 32.2894 5.65326 32.2903L5.64958 32.2995V32.3096C5.64913 32.31 5.57617 35.2769 5.57617 38.6008C5.57617 40.2626 5.59451 42.0136 5.64958 43.5278C5.81386 48.0717 6.55351 51.5584 6.55395 51.5608L6.55536 51.568L6.55901 51.5749C6.55946 51.5756 7.12383 52.6762 7.79468 53.8362C8.13056 54.4161 8.4921 55.0111 8.82433 55.4915C9.15789 55.9729 9.4534 56.3377 9.68421 56.4681C9.91591 56.5944 10.4642 56.6932 11.1851 56.7844C13.3407 57.0532 16.9981 57.2036 17.4446 57.2724C17.5657 57.2872 17.7828 57.4586 18.0865 57.7101C19.0047 58.4645 20.7932 59.9015 24.3974 59.9002H65.8063C68.2086 59.9002 69.8044 59.2632 70.8733 58.6135C71.4077 58.2886 71.8107 57.961 72.1166 57.7101C72.4205 57.4586 72.6373 57.2872 72.7584 57.2724L72.7498 57.2156L72.7408 57.1592C72.5564 57.1912 72.3516 57.3715 72.0436 57.6217C71.1279 58.3715 69.3797 59.7842 65.8063 59.7856H24.3974C22.0146 59.7849 20.4436 59.1558 19.3896 58.5154C18.8624 58.1953 18.4646 57.8722 18.159 57.6217C17.8511 57.3715 17.646 57.1912 17.462 57.1592C17.1477 57.1106 15.4293 57.0294 13.6752 56.9007C12.7988 56.836 11.9156 56.76 11.1993 56.6705C10.4853 56.5821 9.93057 56.4757 9.74016 56.3677C9.54883 56.2634 9.24554 55.902 8.91838 55.4265C8.42513 54.712 7.86028 53.7354 7.41934 52.9377C6.9784 52.1404 6.6618 51.524 6.66136 51.5226L6.60994 51.5488L6.66638 51.5371C6.66593 51.5361 6.62003 51.3199 6.54845 50.9228C6.33326 49.7321 5.88727 46.924 5.76386 43.5236C5.70925 42.0119 5.69087 40.2616 5.69087 38.6008C5.69087 36.9397 5.70925 35.3677 5.72759 34.2105C5.74597 33.0538 5.76386 32.3146 5.76386 32.3123L5.70649 32.3109L5.76018 32.3321C5.76018 32.3316 6.28326 30.9987 6.78476 29.5708L6.73063 29.5519L6.74897 29.6061C7.33307 29.4111 7.94521 29.2142 8.30173 29.1179C8.70092 29.0091 9.08449 28.8302 9.39328 28.8316C9.56992 28.8325 9.71859 28.8843 9.85304 29.0394C9.98749 29.195 10.1036 29.462 10.1857 29.8896C10.4973 31.5158 11.3851 35.0212 11.5861 35.6499C11.6921 35.9803 11.9646 36.2545 12.4524 36.4411C12.9411 36.6283 13.6486 36.7336 14.6484 36.7343H75.3418C76.3415 36.7336 77.049 36.6283 77.5377 36.4411C78.026 36.2545 78.2986 35.9803 78.4039 35.6499C78.6049 35.0212 79.4927 31.5158 79.8045 29.8896C79.8864 29.462 80.0027 29.195 80.1369 29.0394C80.2715 28.8843 80.4201 28.8325 80.5967 28.8316C80.9057 28.8302 81.2894 29.0091 81.689 29.1179C82.095 29.2275 82.8318 29.4684 83.4829 29.6873L83.5008 29.6327L83.4471 29.652C83.9392 31.0487 84.443 32.3316 84.443 32.3321L84.496 32.3109L84.4386 32.3123C84.4386 32.3146 84.4572 33.0538 84.4754 34.2105C84.494 35.3677 84.5122 36.9397 84.5122 38.6008C84.5122 40.2616 84.4936 42.0119 84.4386 43.5236C84.357 45.7904 84.1313 47.7947 83.9262 49.2311C83.824 49.9496 83.7262 50.526 83.6546 50.9228C83.5831 51.3199 83.5373 51.5361 83.5366 51.5371L83.593 51.5488L83.5418 51.5226C83.5418 51.5233 83.401 51.7969 83.1766 52.2164C82.8394 52.8455 82.3139 53.8008 81.7943 54.6408C81.2781 55.4802 80.7536 56.21 80.4628 56.3677C80.2725 56.4757 79.7178 56.5821 79.0037 56.6705C76.8529 56.9386 73.2085 57.0879 72.7408 57.1592L72.7498 57.2156Z" fill="#3265B1"/>
<path d="M28.3781 33.7558L28.4296 33.7805L31.7548 26.9199H18.636L18.475 30.5016C18.4598 30.8366 18.3469 31.1431 18.201 31.4019C18.0519 31.6666 16.3831 34.6412 16.3826 34.6412L16.334 34.7286L16.4336 34.7272C16.4354 34.7265 17.042 34.7183 17.9693 34.7052C20.7504 34.6666 26.4038 34.5885 27.1136 34.5885C28.0983 34.5871 28.4295 33.7837 28.4309 33.7773L28.3781 33.7558L28.3249 33.7342L28.3112 33.7635C28.2405 33.9044 27.912 34.4743 27.1136 34.4739C26.1638 34.4739 16.4322 34.6123 16.4322 34.6123L16.4331 34.6697L16.4831 34.6976C16.4836 34.6959 16.9002 33.954 17.3361 33.1772C17.772 32.4003 18.2267 31.5905 18.301 31.4583C18.4529 31.188 18.5731 30.8646 18.5897 30.5067L18.7457 27.0346H31.5717L28.3258 33.7323L28.3249 33.7342L28.3781 33.7558Z" fill="#3265B1"/>
<path d="M61.9222 33.7558L61.9735 33.7305L58.728 27.0346H71.5552L71.7111 30.5067C71.7276 30.8646 71.8473 31.188 71.9991 31.4583C72.0734 31.5905 72.5284 32.4003 72.964 33.1772C73.4001 33.954 73.8171 34.6976 73.8171 34.6976L73.867 34.6697L73.8681 34.6123C73.8677 34.6123 64.1364 34.4739 63.1866 34.4739C62.7289 34.4734 62.4291 34.2885 62.2392 34.1026C62.1442 34.0095 62.0778 33.9164 62.0355 33.8471L61.989 33.7635L61.9752 33.7342L61.9749 33.7328L61.9735 33.7305L61.9222 33.7558L61.8689 33.7773C61.8706 33.7837 62.2017 34.5871 63.1866 34.5885C63.6598 34.5885 66.3302 34.6233 68.8819 34.6577C70.1573 34.6752 71.4037 34.6921 72.3308 34.7052C73.2583 34.7183 73.8663 34.7272 73.8663 34.7272L73.9658 34.7286L73.9173 34.6412C73.9173 34.6412 72.2482 31.6666 72.0992 31.4019C71.9537 31.1431 71.8408 30.8366 71.8257 30.5016L71.6646 26.9199H58.5449L61.8706 33.7805L61.9222 33.7558Z" fill="#3265B1"/>
<path d="M49.8695 40.411L49.9187 40.3811C49.9183 40.3808 49.7549 40.1137 49.5591 39.7586C49.3629 39.4041 49.1351 38.9619 49.0078 38.6188C48.8119 38.0902 48.3484 38.0097 48.1099 38.0118C48.0132 38.0118 47.9499 38.0235 47.9471 38.0241L47.9575 38.0806V38.0231H42.165V38.0806L42.1761 38.0241C42.1733 38.0235 42.11 38.0118 42.0133 38.0118C41.7748 38.0097 41.3109 38.0902 41.1154 38.6188C40.9881 38.9619 40.7603 39.4041 40.5641 39.7586C40.3683 40.1137 40.2049 40.3808 40.2045 40.3811L40.2014 40.3863L40.1994 40.3918C40.198 40.3952 40.1484 40.5336 40.1484 40.7084C40.1484 40.8467 40.1801 41.0126 40.3019 41.1447C40.4234 41.2762 40.6285 41.365 40.9503 41.3643H49.1726C49.4944 41.365 49.6995 41.2762 49.8209 41.144C49.9424 41.0126 49.9748 40.8467 49.9748 40.7084C49.9741 40.5336 49.9252 40.3952 49.9238 40.3918L49.9218 40.3863L49.9187 40.3811L49.8695 40.411L49.8158 40.4303C49.8158 40.4303 49.8264 40.4596 49.8375 40.5105C49.8485 40.5614 49.8598 40.6316 49.8598 40.7084C49.8598 40.8302 49.8316 40.9644 49.737 41.0666C49.642 41.1688 49.4751 41.2493 49.1726 41.2497H40.9503C40.6478 41.2493 40.4809 41.1688 40.3862 41.0666C40.2916 40.9644 40.2634 40.8302 40.2634 40.7084C40.2634 40.6316 40.2744 40.5614 40.2857 40.5105C40.2968 40.4596 40.3078 40.4303 40.3074 40.4303L40.2531 40.411L40.3023 40.4406C40.3033 40.4393 40.9606 39.3656 41.2232 38.6587C41.3976 38.1907 41.792 38.1288 42.0133 38.1264C42.1004 38.1264 42.1547 38.1374 42.1547 38.137L42.1602 38.1377H47.963L47.9685 38.137L48.0053 38.1319C48.0301 38.1291 48.0662 38.1264 48.1099 38.1264C48.3312 38.1288 48.7256 38.1907 48.9 38.6587C49.1626 39.3656 49.8199 40.4393 49.8209 40.4406L49.8695 40.411Z" fill="#3265B1"/>
<path d="M40.9514 40.9091V40.8517C40.766 40.8544 40.6799 40.8038 40.6796 40.7956L40.6634 40.7099C40.6634 40.6672 40.6703 40.6194 40.6779 40.5898L40.6221 40.576L40.671 40.6053C40.8017 40.3867 41.353 39.4576 41.5984 38.7979C41.6139 38.7562 41.6394 38.6902 41.6979 38.633C41.7571 38.5773 41.8486 38.5271 42.0141 38.5267L42.0912 38.5312L42.0967 38.4744L42.0881 38.5308L42.1198 38.536L42.1242 38.5363L48.002 38.5377L48.0443 38.5295L48.0337 38.4734V38.5308L48.1111 38.5267C48.277 38.5271 48.3685 38.5773 48.4274 38.633C48.4862 38.6902 48.5113 38.7562 48.5268 38.7979C48.7729 39.4576 49.3242 40.3864 49.4549 40.6042L49.5038 40.575L49.4481 40.5884L49.4622 40.7071C49.4629 40.7498 49.4536 40.7873 49.446 40.7952C49.446 40.8038 49.3575 40.8544 49.1738 40.8517L40.9514 40.8517V40.9663H49.1738C49.3744 40.9632 49.4838 40.9315 49.5396 40.8616C49.5709 40.8148 49.5757 40.7618 49.5768 40.7071C49.5768 40.6565 49.5699 40.6049 49.5592 40.5612L49.5575 40.5526L49.553 40.545C49.4236 40.3303 48.8734 39.4008 48.6345 38.758C48.6184 38.7149 48.5867 38.6272 48.5072 38.5505C48.428 38.4734 48.3004 38.4114 48.1111 38.4121L48.0543 38.4142L48.0371 38.4156L48.0323 38.4162L48.0337 38.4328V38.4162H48.0323L48.0337 38.4328V38.4162H48.0282L47.9914 38.4231L42.1329 38.4218L42.1057 38.4176L42.1036 38.4169H42.1022C42.0943 38.4162 42.0599 38.4121 42.0141 38.4121C41.8252 38.4114 41.6975 38.4734 41.6187 38.5505C41.5392 38.6272 41.5072 38.715 41.4911 38.758C41.2526 39.4008 40.7023 40.3303 40.5729 40.5464L40.5684 40.554L40.5667 40.5623C40.5571 40.6015 40.5488 40.6552 40.5488 40.7099C40.5495 40.7618 40.554 40.8145 40.5853 40.8613C40.6407 40.9315 40.7494 40.9632 40.9514 40.9663V40.9091Z" fill="#3265B1"/>
<path d="M69.8075 2.43563L69.7841 2.54805C70.3715 2.66872 70.8065 2.68662 70.811 2.68707L70.9748 2.69349L70.9249 2.53749C70.9249 2.53703 70.917 2.51317 70.9032 2.46545C70.8626 2.32183 70.7721 1.97265 70.7101 1.51152C70.6661 1.17197 70.4944 0.884744 70.186 0.678723C69.8777 0.471786 69.441 0.335045 68.8412 0.248782C68.5528 0.207944 68.3036 0.191429 68.0879 0.191429C67.4089 0.189133 67.0537 0.362579 66.8947 0.424065C66.8201 0.456186 66.7881 0.510332 66.7581 0.565393C66.6614 0.759026 66.6098 1.09765 66.5709 1.40554C66.5341 1.71067 66.5176 1.97358 66.5176 1.97496V4.10628L68.5555 4.26227L68.5872 4.18474C68.5875 4.18474 68.6299 4.08057 68.7035 3.92227C68.8143 3.68506 68.9936 3.32807 69.1942 3.03625C69.294 2.8908 69.3997 2.76187 69.4991 2.67377C69.5993 2.58475 69.6901 2.54346 69.7521 2.54483L69.7841 2.54805L69.8075 2.43563L69.8305 2.32322L69.7521 2.31541C69.5494 2.31908 69.3835 2.45215 69.2286 2.62009C68.7682 3.1294 68.3786 4.09251 68.3752 4.09757L68.4812 4.14114L68.4898 4.02689L66.7471 3.89381V1.98229H66.6325L66.7468 1.98918C66.7468 1.98872 66.7678 1.651 66.8156 1.30412C66.8393 1.13068 66.87 0.955401 66.9064 0.824173C66.9247 0.758558 66.9443 0.704422 66.9618 0.670006L66.9835 0.636511L66.9856 0.633758L66.9656 0.60714L66.9773 0.637881L66.9856 0.633758L66.9656 0.60714L66.9773 0.637881C67.1515 0.571808 67.4409 0.422682 68.0878 0.420848C68.2916 0.420848 68.5301 0.436457 68.8091 0.475919C69.39 0.558511 69.7965 0.692023 70.0577 0.86868C70.3182 1.04717 70.442 1.25779 70.483 1.54227C70.568 2.17547 70.705 2.60265 70.7063 2.60724L70.8158 2.57237L70.8202 2.45766C70.8202 2.45766 70.7174 2.45353 70.5408 2.43471C70.3636 2.41544 70.1155 2.38195 69.8305 2.32322L69.8075 2.43563Z" fill="#3265B1"/>
<path d="M69.8072 2.43569L69.7952 2.49167C70.3785 2.61188 70.8107 2.62978 70.8131 2.62978L70.895 2.633L70.8699 2.55498C70.8699 2.55452 70.8368 2.45175 70.7928 2.27004C70.7487 2.08834 70.6947 1.8291 70.6527 1.51938C70.5956 1.08027 70.3206 0.755862 69.7986 0.547549L69.7883 0.543426H69.7773L69.7508 0.542969C69.1943 0.542969 68.8739 0.651707 68.685 0.78936C68.4957 0.927013 68.4458 1.09495 68.4252 1.18029C68.4138 1.22893 68.4097 1.32896 68.4056 1.48222C68.4021 1.63364 68.4004 1.83047 68.4004 2.04888C68.4004 2.92297 68.4234 4.14213 68.4234 4.14258L68.4283 4.41971L68.5339 4.16323C68.5339 4.16278 68.5769 4.05768 68.6513 3.89801C68.7624 3.65897 68.9431 3.30014 69.1465 3.00419C69.3478 2.70548 69.5825 2.48111 69.7518 2.48754L69.7952 2.49167L69.8072 2.43569L69.8186 2.37971L69.7518 2.37282C69.579 2.37466 69.4207 2.49488 69.2703 2.65868C68.8216 3.15423 68.4293 4.11687 68.4276 4.11963L68.4806 4.1412L68.538 4.14028C68.538 4.138 68.515 2.92114 68.515 2.04888C68.515 1.83093 68.517 1.63455 68.5201 1.48451C68.5232 1.33677 68.5308 1.22756 68.5363 1.20829C68.557 1.12937 68.5921 1.00089 68.7528 0.882048C68.9138 0.764125 69.2081 0.657678 69.7508 0.657678L69.7766 0.658136L69.7769 0.600783L69.7552 0.653545C70.2542 0.857729 70.4841 1.13716 70.5392 1.53452C70.6235 2.16313 70.7598 2.58756 70.7608 2.58986L70.8152 2.57243L70.8176 2.51507C70.8172 2.51507 70.7126 2.51094 70.534 2.49167C70.3561 2.4724 70.1056 2.43845 69.8186 2.37971L69.8072 2.43569Z" fill="#3265B1"/>
<path d="M20.4002 2.43563L20.3772 2.32322C20.0923 2.38195 19.8441 2.41544 19.6669 2.43472C19.4903 2.45353 19.3875 2.45766 19.387 2.45766L19.3921 2.57237L19.5013 2.60724C19.5027 2.60265 19.6399 2.17547 19.7248 1.54227C19.7651 1.25779 19.889 1.04717 20.1501 0.86868C20.4112 0.692027 20.8177 0.558511 21.3991 0.475919C21.678 0.436461 21.9162 0.420851 22.1199 0.420851C22.7669 0.422685 23.0559 0.571808 23.2308 0.638342L23.2427 0.607143L23.222 0.633758L23.2308 0.637881L23.2427 0.607143L23.222 0.633758L23.2331 0.647527C23.2615 0.688365 23.301 0.804448 23.3299 0.941639C23.3758 1.14904 23.4088 1.41288 23.4303 1.62303C23.4515 1.83317 23.4611 1.98872 23.4611 1.98918L23.5758 1.98229H23.4611V3.89383L21.7175 4.0269L21.7267 4.14115L21.8327 4.09755C21.8313 4.09525 21.6551 3.66439 21.4037 3.22851C21.2779 3.0101 21.1339 2.79078 20.9792 2.62009C20.8237 2.45215 20.658 2.31908 20.4557 2.31541L20.3768 2.32322L20.4002 2.43563L20.4236 2.54805L20.4557 2.54483C20.5378 2.5407 20.6732 2.62192 20.8094 2.77471C21.015 3 21.2215 3.3556 21.3724 3.65201C21.4477 3.80022 21.5101 3.93375 21.5532 4.0301C21.5964 4.12694 21.6202 4.18476 21.6202 4.18476L21.6519 4.26181L23.6905 4.10626V1.97863L23.6901 1.97495C23.6901 1.97358 23.6689 1.63036 23.6199 1.27292C23.5951 1.09351 23.5634 0.91182 23.5226 0.762698C23.5015 0.688365 23.479 0.622288 23.4501 0.565393C23.4198 0.510332 23.3882 0.456183 23.3134 0.424065C23.1541 0.362579 22.799 0.189133 22.1199 0.191429C21.9043 0.191429 21.6551 0.207947 21.3665 0.248785C20.7668 0.335049 20.33 0.471786 20.0216 0.678726C19.7128 0.884744 19.5417 1.17198 19.4972 1.51152C19.4559 1.81894 19.4022 2.07635 19.3586 2.25668C19.3366 2.34661 19.3177 2.41728 19.304 2.46545C19.2902 2.51317 19.2829 2.53704 19.2829 2.53749L19.2324 2.6935L19.3967 2.68708C19.4008 2.68662 19.8362 2.66872 20.4231 2.54805L20.4002 2.43563Z" fill="#3265B1"/>
<path d="M20.3985 2.43569L20.387 2.37971C20.1002 2.43845 19.8497 2.4724 19.6716 2.49167C19.4931 2.51094 19.3881 2.51507 19.3876 2.51507L19.3904 2.57243L19.445 2.58986C19.4454 2.58756 19.5817 2.16313 19.6661 1.53452C19.7221 1.13716 19.9511 0.857729 20.4503 0.653545L20.4287 0.600783L20.4292 0.658139L20.4554 0.657678C20.9977 0.657678 21.2918 0.764125 21.4529 0.882048C21.6135 1.00089 21.6488 1.12937 21.669 1.20829C21.6749 1.22756 21.6823 1.33677 21.6851 1.48451C21.6887 1.63455 21.6901 1.83093 21.6901 2.04888C21.6901 2.92114 21.6676 4.13799 21.6676 4.1403L21.725 4.14119L21.7777 4.11965C21.7773 4.11828 21.6011 3.6888 21.3524 3.25701C21.228 3.0409 21.0853 2.82432 20.9348 2.65868C20.7843 2.49488 20.626 2.37466 20.454 2.37283L20.387 2.37971L20.3985 2.43569L20.4099 2.49167L20.454 2.48754C20.5659 2.48524 20.7091 2.57931 20.85 2.73624C21.0624 2.96933 21.2698 3.32722 21.4217 3.62593C21.574 3.92463 21.6713 4.16277 21.6717 4.16322L21.7768 4.42018L21.7819 4.14257C21.7819 4.14212 21.8048 2.92297 21.8048 2.04888C21.8048 1.83047 21.8034 1.63364 21.7998 1.48222C21.7956 1.32896 21.7915 1.22893 21.7805 1.18029C21.7598 1.09495 21.7098 0.927013 21.5203 0.78936C21.3313 0.651707 21.0115 0.542969 20.4554 0.542969L20.4287 0.543426H20.4177L20.4076 0.547549C19.885 0.755866 19.6101 1.08073 19.5523 1.51938C19.511 1.82911 19.4565 2.08834 19.4124 2.27004C19.3688 2.45175 19.3358 2.55452 19.3358 2.55498L19.3105 2.633L19.3927 2.62978C19.3945 2.62978 19.8276 2.61188 20.4099 2.49167L20.3985 2.43569Z" fill="#3265B1"/>
<path d="M17.4528 57.2152L17.4702 57.1019C17.3037 57.0765 16.8022 57.0455 16.1121 57.0028C15.0797 56.9388 13.6403 56.8521 12.3822 56.7375C11.7526 56.68 11.169 56.6153 10.7051 56.5438C10.2435 56.4742 9.89291 56.3899 9.7672 56.3173C9.60247 56.2296 9.3102 55.8923 9.00003 55.4443C8.05849 54.0956 6.83152 51.7294 6.7205 51.5136L6.50391 51.0938V71.0506C6.50435 71.7127 7.04443 72.2537 7.70699 72.2544H17.1816C17.8442 72.2537 18.3843 71.7127 18.3847 71.0506V57.7314L18.3425 57.6969C18.1502 57.5411 17.9901 57.4051 17.8515 57.3015C17.7121 57.1993 17.5978 57.124 17.4707 57.1019L17.4528 57.2152L17.4354 57.3287C17.4845 57.3339 17.5859 57.3879 17.7144 57.4853C17.8438 57.582 18.0039 57.7176 18.198 57.8749L18.27 57.7861H18.1553V71.0506C18.1544 71.5851 17.7166 72.0235 17.1816 72.0249H7.70699C7.172 72.0235 6.73423 71.5851 6.73334 71.0506V51.5659H6.61861L6.51678 51.6185C6.592 51.7651 7.16237 52.8657 7.81711 53.9893C8.14428 54.5505 8.49254 55.1177 8.81189 55.5754C9.13448 56.0338 9.41388 56.3793 9.65615 56.5176C9.78465 56.5885 9.97967 56.6415 10.2389 56.6955C11.1415 56.8779 12.8052 57.0152 14.3162 57.1178C15.0714 57.1697 15.7872 57.2124 16.347 57.2472C16.9054 57.2816 17.3151 57.3098 17.4354 57.3287L17.4528 57.2152Z" fill="#3265B1"/>
<path d="M80.4908 56.4172L80.4351 56.3174C80.3528 56.3642 80.1667 56.4206 79.9178 56.4705C79.0427 56.6481 77.3778 56.7868 75.8709 56.8897C75.1169 56.941 74.4018 56.9836 73.8415 57.0184C73.2792 57.0538 72.8786 57.08 72.7324 57.102C72.6057 57.1241 72.4925 57.1984 72.3538 57.2996C72.2165 57.4025 72.0575 57.537 71.8669 57.6912L71.8242 57.7256V71.0507C71.8249 71.7128 72.3648 72.2538 73.028 72.2545H82.5026C83.1654 72.2538 83.7057 71.7128 83.706 71.0507V51.0742L83.4889 51.4999C83.4665 51.544 82.9008 52.6438 82.2376 53.7877C81.9066 54.3596 81.5504 54.9426 81.2269 55.4092C80.9072 55.8745 80.6044 56.2272 80.4351 56.3174L80.4908 56.4172L80.5466 56.5177C80.7947 56.3759 81.0827 56.0159 81.4155 55.54C82.4014 54.1163 83.6568 51.6758 83.6933 51.6042L83.5914 51.5522H83.4765V71.0507C83.4758 71.5851 83.0374 72.0236 82.5026 72.0249H73.028C72.4929 72.0236 72.0548 71.5851 72.0538 71.0507V57.7807H71.9392L72.0114 57.8698C72.2038 57.7135 72.3624 57.579 72.4911 57.4837C72.6181 57.3873 72.719 57.334 72.7678 57.3288C72.9055 57.3071 73.4182 57.2741 74.1048 57.2318C75.1372 57.1681 76.5781 57.0814 77.8417 56.9661C78.4735 56.9083 79.0606 56.8436 79.5324 56.771C80.0063 56.6963 80.3552 56.6216 80.5466 56.5177L80.4908 56.4172Z" fill="#3265B1"/>
</g>
<defs>
<clipPath id="clip0_7675_5301">
<rect width="89.5283" height="72.0642" fill="white" transform="translate(0.335938 0.191406)"/>
</clipPath>
</defs>
</svg>
