<svg width="110" height="78" viewBox="0 0 110 78" fill="none" xmlns="http://www.w3.org/2000/svg">
<g clip-path="url(#clip0_7675_5389)">
<path d="M68.43 17.7341C67.8592 17.8219 66.0589 17.9535 63.5561 18.129C55.1693 18.6554 38.5276 19.5329 30.7995 19.9716C21.2272 20.5419 14.553 21.1561 13.6309 21.2438C13.7187 20.9806 14.026 20.6735 14.3773 20.3664C14.7725 20.0154 15.2994 19.7083 15.6946 19.489L15.7824 19.4451L15.7385 19.3574C15.6068 19.2258 15.4751 19.0941 15.3433 18.9187C18.6366 18.129 27.5941 16.5058 39.4058 15.3212C50.9101 14.1806 53.9399 14.2683 56.4866 13.5664L60.2189 14.7071L60.4824 14.9703C60.5702 15.5845 61.0093 16.067 61.7119 16.4619C62.4144 16.8567 63.2487 17.0761 64.2147 17.2954C64.3464 17.2954 64.4782 17.3393 64.566 17.3832C64.6538 17.3832 64.7855 17.427 64.9173 17.427C65.049 17.427 65.1807 17.4709 65.3124 17.4709C65.4881 17.5148 65.6637 17.5148 65.8394 17.5587C65.8833 17.5587 65.8833 17.5587 65.9272 17.5587C66.015 17.5587 66.1467 17.6025 66.2785 17.6025C66.4541 17.6025 66.6297 17.6464 66.8493 17.6464C67.0249 17.6464 67.2445 17.6903 67.4201 17.6903C67.7275 17.6903 68.0787 17.6903 68.43 17.7341Z" fill="#3265B1"/>
<path d="M15.563 19.3996C15.1239 19.619 14.6848 19.9261 14.2896 20.2771C13.8944 20.628 13.5431 20.979 13.4553 21.33C13.4114 21.3738 13.2358 21.5054 13.0162 21.7248C12.9723 21.7687 12.9284 21.8125 12.8406 21.8564L12.7967 21.9003C12.7089 21.988 12.621 22.0758 12.5332 22.1635L12.4893 22.2074C12.4015 22.2512 12.3576 22.339 12.2698 22.4267L12.2259 22.4706C12.1819 22.5145 12.0941 22.6022 12.0502 22.6461C11.8746 22.8216 11.6989 22.997 11.4794 23.2164C11.3916 23.3041 11.3038 23.4357 11.172 23.5235H7.79102C8.14229 23.1725 8.58138 22.6899 9.06438 22.2951C9.63521 21.8125 10.2499 21.4616 10.6012 21.5054H10.6451H10.7329L10.7768 21.4616L10.8208 21.3738C11.1281 21.0229 12.4893 19.7067 14.5091 19.1364C14.6848 19.0926 14.9043 19.0487 15.1678 18.9609C15.2995 19.0925 15.4312 19.268 15.563 19.3996Z" fill="#3265B1"/>
<path d="M10.7783 23.7871C10.7783 23.831 10.7344 23.831 10.6905 23.8749L10.6466 23.9187C10.2075 24.4013 9.72449 24.9716 9.24149 25.6297C9.15367 25.7174 9.06585 25.849 8.97803 25.9806C8.80239 26.2439 8.62676 26.5071 8.45112 26.7703C7.8803 27.6039 7.30948 28.4813 6.73866 29.3148C6.60693 29.5342 6.4752 29.7096 6.29956 29.929C6.08002 30.2361 5.90438 30.4993 5.68483 30.8064C5.55311 30.9819 5.46529 31.1574 5.33356 31.289L5.15792 31.5083C5.15792 31.5522 5.11401 31.5522 5.11401 31.5961C4.63101 32.2541 4.23583 32.8245 3.92846 33.2193C3.70892 33.4825 3.57719 33.7019 3.53328 33.7896H2.43555L7.22166 24.1381C7.26557 24.0942 7.30948 24.0065 7.44121 23.8749H10.7783V23.7871Z" fill="#3265B1"/>
<path d="M102.856 61.1231L102.768 63.536H70.934V57.9205C70.934 51.6031 68.3872 45.8999 64.3036 41.776C60.22 37.6521 54.5557 35.0638 48.3205 35.0638C42.0854 35.0638 36.4211 37.6083 32.3375 41.776C28.2539 45.8999 25.7071 51.6031 25.7071 57.9205V59.9386C23.336 59.9386 20.5258 59.9386 18.0229 59.9386C15.1688 59.9386 12.7538 59.9386 11.8756 59.9386H11.8317C9.32884 59.9386 7.57246 56.9554 6.60644 55.727C6.07953 55.0689 5.0257 54.8495 4.05969 54.8057C4.01578 54.7179 4.01578 54.5863 3.97187 54.4547C3.75232 53.4896 3.48886 52.2612 3.31323 51.1644C3.31323 51.0767 3.26932 50.945 3.26932 50.8573C3.26932 50.8134 3.26932 50.7696 3.26932 50.7257C3.13759 50.0676 3.04977 49.4973 3.00586 49.1902C3.00586 49.1463 3.00586 49.1025 3.00586 49.1025C3.00586 49.0586 3.00586 49.0586 3.00586 49.0147L3.44496 48.576C4.71833 49.8044 7.04554 51.0766 7.08945 51.0766H7.13336L23.336 51.1205L23.3799 51.0328C24.8728 45.505 28.1221 40.6792 32.5131 37.2573C36.9041 33.8354 42.3927 31.7734 48.3205 31.7734C60.1761 31.7734 70.2314 39.8896 73.2612 50.9012L73.3051 50.9889L76.3788 50.945C76.6422 52.0418 76.9057 53.2263 77.1691 54.367C78.0034 57.8328 78.7499 60.9476 78.7499 60.9476L78.7938 61.0354H102.856V61.1231Z" fill="#3265B1"/>
<path d="M75.3257 17.6465C75.2818 17.9536 75.1062 18.8749 74.8866 20.1471C74.7988 20.1471 74.711 20.1471 74.6671 20.1471C70.5835 20.3665 34.9289 22.2091 30.4062 22.56L30.494 22.4723L30.0989 22.5162C30.0549 22.5162 30.011 22.5162 29.9671 22.5162C28.7377 22.6478 14.2914 23.6568 11.1738 23.8323C11.2177 23.7884 11.2616 23.7445 11.2616 23.7445L11.4812 23.4813H11.3934L11.4373 23.4375C11.569 23.3058 11.7007 23.1742 11.8325 23.0426C11.8764 22.9987 11.9203 22.9549 11.9642 22.911C12.052 22.8233 12.1398 22.7355 12.1837 22.6916C12.3155 22.56 12.4033 22.4723 12.535 22.3845C12.6228 22.2968 12.7546 22.2091 12.8424 22.1213C13.2815 21.7265 13.5889 21.4633 13.6328 21.4194C13.7645 21.4194 14.1597 21.3755 14.8622 21.3316C17.2773 21.1123 23.1611 20.6297 30.8892 20.1471C36.0706 19.84 45.1598 19.3575 53.1514 18.9187C57.1472 18.6994 60.8795 18.48 63.6897 18.3045C66.4999 18.1291 68.388 17.9536 68.7393 17.8658H68.7832L68.871 17.822C68.9149 17.822 68.9149 17.7781 68.9588 17.7781H69.0027C69.0467 17.7781 69.0466 17.7781 69.0466 17.7781H69.0906C69.6614 17.7781 70.1883 17.7781 70.6713 17.7781C72.2521 17.7781 73.3937 17.7342 73.3937 17.7342L75.3257 17.6465Z" fill="#3265B1"/>
<path d="M29.7031 22.8223L22.458 30.4558L22.4141 30.5435C22.1946 30.8506 21.0968 32.1228 19.3844 32.2106C18.3745 32.2545 16.8815 32.2983 15.6082 32.2983C14.5104 32.2983 13.6323 32.2983 13.3688 32.2983L12.2272 31.1577H5.81641C6.07986 30.8067 6.34332 30.4119 6.60677 30.0171C7.30932 29.008 8.05578 27.9551 8.75833 26.9022C8.93397 26.639 9.1096 26.3758 9.28524 26.1126C9.32915 26.0687 9.32915 26.0248 9.37306 25.981C9.46088 25.8493 9.59261 25.6739 9.68042 25.5422C9.76824 25.4106 9.89997 25.279 9.98779 25.1474C10.2952 24.7964 10.5586 24.4455 10.8221 24.1384C13.1053 24.0068 27.2441 23.0855 29.7031 22.8223Z" fill="#1C427C"/>
<path d="M25.7079 60.1583V66.2124H10.8226L7.44163 59.5879H6.21217C6.21217 59.5879 6.21217 59.5441 6.16826 59.5002C6.12436 59.4125 6.08045 59.3247 5.99263 59.1931C5.94872 59.1492 5.94872 59.0615 5.90481 59.0176C5.8609 58.9299 5.81699 58.8421 5.72917 58.7105C5.42181 58.1402 5.07053 57.4383 4.76317 56.6925C4.67535 56.4731 4.58753 56.2976 4.49971 56.0783C4.41189 55.8589 4.36798 55.6835 4.28017 55.4641C4.23626 55.3325 4.19235 55.157 4.14844 55.0254C5.07053 55.1131 6.08045 55.3325 6.51954 55.9028C7.44163 57.0873 9.19801 60.1583 11.8326 60.1583H11.8765C12.7547 60.1583 15.1697 60.1583 18.0238 60.1583C20.5266 60.1583 23.3368 60.1583 25.7079 60.1583Z" fill="#3265B1"/>
<path d="M74.9301 17.3397L73.3055 17.3836C73.3055 17.3836 73.042 17.3836 72.559 17.4275C72.076 17.4275 71.4174 17.4713 70.627 17.4713C70.2758 17.4713 69.9245 17.4713 69.5293 17.4713L72.6908 15.541L74.9301 17.3397Z" fill="#3265B1"/>
<path d="M71.7688 14.8372L72.4275 15.3637L68.9586 17.4695C68.783 17.4695 68.6074 17.4695 68.4756 17.4695C68.4317 17.4695 68.3878 17.4695 68.3439 17.4695C68.0365 17.4695 67.6853 17.4256 67.3779 17.4256C66.9827 17.3817 66.5875 17.3817 66.2363 17.3379C65.885 17.294 65.4898 17.2501 65.1385 17.2063H65.0946C65.0507 17.2063 65.0068 17.2063 64.9629 17.2063C67.9048 15.4076 76.6867 9.92373 85.1612 4.70312L86.1272 5.9315C78.6626 10.5379 71.9006 14.7934 71.9006 14.7934L71.7688 14.8372Z" fill="#3265B1"/>
<path d="M86.7421 6.67864L72.735 15.1895L72.3398 14.8386C72.5155 14.707 72.8668 14.4876 73.3498 14.1805C75.633 12.7767 80.8143 9.53023 86.3908 6.06445L86.7421 6.67864Z" fill="#3265B1"/>
<path d="M103.338 50.4629L102.899 60.8602H79.0127C78.9688 60.597 78.7932 59.9389 78.5736 58.9738C78.0906 56.9996 77.3442 53.7971 76.6855 50.9893L103.338 50.4629Z" fill="#3265B1"/>
<path d="M75.3245 45.7235C74.9732 43.0474 73.8316 33.0887 73.8316 29.2281C73.8316 29.0087 73.8316 28.8332 73.8316 28.6577C73.9194 26.5519 74.4902 22.8668 74.8854 20.3223C74.7976 20.3223 74.7537 20.3223 74.6659 20.3223C70.4944 20.5416 33.9617 22.4281 30.2294 22.7352L22.6769 30.6319C22.5452 30.8074 21.3596 32.3429 19.3837 32.4745C17.3639 32.6061 13.2803 32.6061 13.2803 32.6061H13.2364L12.0947 31.4655H5.59611C4.54228 32.9571 3.79581 33.9661 3.79581 33.9661L3.7519 34.01H2.30289L2.25898 34.0977L3.31281 34.4487L2.69808 36.5545H1.29297V37.739H2.91762L2.69808 41.6435H1.29297V45.0655L2.61026 46.3816L3.53236 48.2681C4.45446 49.1455 6.0352 50.1545 6.78166 50.5932C6.9573 50.681 7.08903 50.7687 7.13294 50.8126L19.4276 50.8564H19.6033H23.0282C26.1019 39.7132 36.245 31.5094 48.2762 31.5094C60.2635 31.5094 70.3627 39.6694 73.4803 50.7248L76.2905 50.681C75.8075 48.5751 75.4123 46.6448 75.3245 45.7235ZM20.218 38.8797C20.1302 39.1868 19.6472 40.6345 19.0763 42.2577C18.5055 43.881 17.8908 45.6358 17.4078 46.5571C16.4857 48.3997 15.2123 48.5751 15.1684 48.5751C15.1684 48.5751 15.0367 48.5751 14.8171 48.5751C14.7732 48.5751 14.7293 48.5751 14.6854 48.5751C14.5976 48.5751 14.5097 48.5751 14.378 48.5751C14.3341 48.5751 14.2902 48.5751 14.2902 48.5751C14.2024 48.5751 14.1585 48.5751 14.0707 48.5751C13.9828 48.5751 13.895 48.5751 13.8072 48.5751C13.2803 48.5751 12.7095 48.619 12.0947 48.619C12.0508 48.619 11.963 48.619 11.8752 48.619C11.6995 48.619 11.48 48.619 11.3044 48.6629C11.2165 48.6629 11.1287 48.6629 11.0409 48.6629C10.6896 48.6629 10.3383 48.6629 9.98706 48.7068C9.89924 48.7068 9.81143 48.7068 9.6797 48.7068C9.54797 48.7068 9.46015 48.7068 9.32842 48.7068C9.19669 48.7068 9.06496 48.7068 8.93323 48.7068H8.88932C8.45023 48.7068 8.09895 48.7068 7.96722 48.7068C7.57204 48.7068 7.30858 48.619 7.13294 48.4874C6.9573 48.3558 6.82557 48.1364 6.73776 48.0048C6.56212 47.6539 5.72784 46.1184 5.33265 45.1093C5.20092 44.7584 5.15701 44.539 5.15701 44.3635C5.15701 44.1881 5.20092 44.0564 5.28874 43.9687C5.37656 43.881 5.46438 43.881 5.46438 43.881L6.34257 43.7932L11.963 43.179L12.1825 41.3364H4.49837V41.2048C4.49837 41.2048 4.49837 39.8887 4.76182 38.5726C4.89355 37.8706 5.37656 37.5197 5.81565 37.3442C6.21084 37.1687 6.60603 37.1687 6.64994 37.1687C6.69385 37.1687 6.82557 37.1687 7.04512 37.1687H7.08903C7.17685 37.1687 7.26467 37.1687 7.3964 37.1687C7.44031 37.1687 7.48422 37.1687 7.52813 37.1687C7.61595 37.1687 7.65986 37.1687 7.74767 37.1687C7.83549 37.1687 7.92331 37.1687 8.01113 37.1687C8.27459 37.1687 8.53805 37.1687 8.80151 37.1687C8.93323 37.1687 9.06496 37.1687 9.19669 37.1687C9.32842 37.1687 9.41624 37.1687 9.54797 37.1687C9.85533 37.1687 10.1188 37.1687 10.4262 37.1248C10.514 37.1248 10.6457 37.1248 10.7335 37.1248C10.8653 37.1248 11.0409 37.1248 11.1726 37.1248H11.2604C11.48 37.1248 11.6995 37.1248 11.9191 37.1248C11.963 37.1248 12.0069 37.1248 12.0508 37.1248C12.1825 37.1248 12.2704 37.1248 12.4021 37.1248C12.6655 37.1248 12.8851 37.1248 13.1486 37.1248C13.3681 37.1248 13.5437 37.1248 13.7633 37.1248C14.0267 37.1248 14.3341 37.1248 14.5976 37.1248C14.7732 37.1248 14.9049 37.1248 15.0806 37.1248C15.2123 37.1248 15.3879 37.1248 15.5197 37.1248C16.6174 37.081 17.5395 37.081 18.1103 37.081C18.2421 37.081 18.3738 37.081 18.4616 37.081C19.0763 37.081 19.5154 37.2564 19.7789 37.5197C20.0424 37.7829 20.1741 38.1339 20.1741 38.441C20.3058 38.5726 20.2619 38.7481 20.218 38.8797Z" fill="#3265B1"/>
<path d="M19.9993 38.3977C19.9993 38.5293 19.9553 38.6609 19.9114 38.7925C19.7797 39.0996 19.3406 40.5912 18.7698 42.2144C18.2429 43.8377 17.5842 45.5925 17.1451 46.5138C16.7061 47.3912 16.1791 47.8738 15.784 48.0931C15.6083 48.2247 15.4327 48.2686 15.301 48.3125C15.257 48.3125 15.2131 48.3563 15.1692 48.3563H15.1253C15.0814 48.3563 15.0375 48.3563 14.9058 48.3563C14.8619 48.3563 14.818 48.3563 14.774 48.3563C14.7301 48.3563 14.6862 48.3563 14.6423 48.3563C14.5545 48.3563 14.4667 48.3563 14.335 48.3563C14.291 48.3563 14.2471 48.3563 14.2471 48.3563C14.2471 48.3563 14.1593 48.3563 14.1154 48.3563C13.9837 48.3563 13.852 48.3563 13.7202 48.3563C13.1933 48.3563 12.5347 48.4002 11.8321 48.4441C11.6565 48.4441 11.4369 48.4441 11.2613 48.4441C11.1296 48.4441 10.9978 48.4441 10.8661 48.4441C10.5588 48.4441 10.2514 48.4441 9.94402 48.4879C9.8562 48.4879 9.76839 48.4879 9.68057 48.4879C9.46102 48.4879 9.24147 48.488 9.06584 48.5318H8.97802C8.67065 48.3563 8.31938 48.0931 8.05592 47.6105C7.57292 46.6893 7.0021 45.066 6.69474 44.1448L12.1395 43.5744L12.4469 41.1616H5.99219C5.99219 41.1177 5.99219 41.0738 5.99219 40.9861C5.99219 40.5912 6.0361 39.9332 6.21173 39.2751C6.38737 38.6171 6.69474 37.959 7.17774 37.5642C7.22165 37.5642 7.26556 37.5642 7.26556 37.5642H7.35338C7.4851 37.5642 7.61683 37.5642 7.79247 37.5642C7.88029 37.5642 7.96811 37.5642 8.05592 37.5642H8.14374H8.18765C8.23156 37.5642 8.27547 37.5642 8.36329 37.5642C8.45111 37.5642 8.58284 37.5642 8.67065 37.5642C8.84629 37.5642 9.06584 37.5642 9.28538 37.5642C9.32929 37.5642 9.32929 37.5642 9.3732 37.5642C9.63666 37.5642 9.85621 37.5642 10.1197 37.5642C10.1636 37.5642 10.2075 37.5642 10.2514 37.5642C10.3831 37.5642 10.4709 37.5642 10.6027 37.5642C11.1296 37.5642 11.6565 37.5203 12.1834 37.5203C12.4908 37.5203 12.7542 37.5203 13.0616 37.4764C13.1055 37.4764 13.1494 37.4764 13.1933 37.4764C13.4568 37.4764 13.6763 37.4764 13.9398 37.4764C14.5106 37.4764 15.0375 37.4325 15.5644 37.4325C15.6961 37.4325 15.8279 37.4325 15.9596 37.4325C16.9695 37.4325 17.8038 37.3887 18.2868 37.3887C18.4185 37.3887 18.5502 37.3887 18.6381 37.3887C19.2089 37.3887 19.5602 37.5642 19.7797 37.7396C19.9114 37.8713 19.9993 38.1345 19.9993 38.3977Z" fill="#1C427C"/>
<path d="M8.53849 48.5307C8.31895 48.5307 8.0994 48.5307 8.01158 48.5307C7.66031 48.5307 7.44076 48.443 7.35294 48.3552C7.22122 48.2675 7.1334 48.1359 7.04558 47.9604C6.86994 47.6094 6.03566 46.0739 5.64048 45.1088C5.50875 44.8017 5.46484 44.5823 5.46484 44.4507C5.46484 44.3191 5.50875 44.2752 5.50875 44.2752L6.43085 44.1875C6.73821 45.0649 7.30903 46.732 7.83595 47.741C8.05549 48.092 8.31895 48.3552 8.53849 48.5307Z" fill="#3265B1"/>
<path d="M5.94828 39.1868C5.77264 39.8887 5.72874 40.5906 5.72874 40.9855C5.72874 41.0293 5.72874 41.1171 5.72874 41.1609H4.80664C4.80664 41.0293 4.80664 40.81 4.85055 40.5029C4.89446 40.0203 4.93837 39.4061 5.0701 38.7481C5.20182 38.1777 5.59701 37.8706 5.94828 37.739C6.12392 37.6513 6.29956 37.6074 6.47519 37.6074C6.5191 37.6074 6.60692 37.6074 6.65083 37.6074H6.69474C6.69474 37.6074 6.73865 37.6074 6.78256 37.6074C6.29956 38.0461 6.08001 38.6164 5.94828 39.1868Z" fill="#3265B1"/>
<path d="M61.8088 44.7699C58.4278 41.3889 53.7734 39.2812 48.5921 39.2812C43.4108 39.2812 38.7564 41.3889 35.3754 44.7699C31.9944 48.1509 29.8867 52.8053 29.8867 57.9866C29.8867 63.1679 31.9944 67.8223 35.3754 71.2033C38.7564 74.5843 43.4108 76.692 48.5921 76.692C53.7734 76.692 58.4278 74.5843 61.8088 71.2033C65.1898 67.8223 67.2974 63.1679 67.2974 57.9866C67.2974 52.8053 65.1898 48.1509 61.8088 44.7699ZM48.5921 71.9937C47.1431 71.9937 45.6941 71.7741 44.289 71.2911C38.3612 69.3591 34.6289 63.8705 34.6289 57.9866C34.6289 56.5376 34.8485 55.0886 35.3315 53.6835C37.2635 47.7557 42.7521 44.0235 48.636 44.0235C50.085 44.0235 51.534 44.243 52.983 44.726C58.9108 46.658 62.6431 52.1467 62.6431 58.0305C62.6431 59.4795 62.4235 60.9285 61.9405 62.3336C59.9646 68.2175 54.4759 71.9937 48.5921 71.9937Z" fill="#3265B1"/>
<path d="M62.29 57.9868C62.29 59.3919 62.0705 60.797 61.6314 62.2021C59.7433 67.9981 54.3864 71.6426 48.5903 71.6426C47.1852 71.6426 45.7801 71.4231 44.375 70.984C38.579 69.0959 34.8906 63.7389 34.8906 57.9868C34.8906 56.5817 35.1102 55.1766 35.5493 53.7715C37.4374 47.9755 42.7943 44.2871 48.5464 44.2871C49.9515 44.2871 51.3566 44.5067 52.7617 44.9457C58.6016 46.8338 62.29 52.2347 62.29 57.9868Z" fill="#1C427C"/>
</g>
<defs>
<clipPath id="clip0_7675_5389">
<rect width="110" height="76.875" fill="white" transform="translate(0 0.285156)"/>
</clipPath>
</defs>
</svg>
