<svg width="181" height="67" viewBox="0 0 181 67" fill="none" xmlns="http://www.w3.org/2000/svg">
<g clip-path="url(#clip0_7675_5190)">
<path d="M141.08 38.3418C133.385 38.3418 127.17 44.5886 127.17 52.2523C127.17 59.9481 133.417 66.1627 141.08 66.1627C148.776 66.1627 154.991 59.9159 154.991 52.2523C155.023 44.5564 148.776 38.3418 141.08 38.3418ZM150.773 61.9445C148.293 64.4239 144.848 65.9695 141.08 65.9695C137.281 65.9695 133.868 64.4239 131.388 61.9445C128.909 59.4651 127.363 56.0519 127.363 52.2523C127.363 48.4526 128.909 45.0394 131.388 42.56C133.868 40.0806 137.313 38.535 141.08 38.535C144.88 38.535 148.293 40.0806 150.773 42.56C153.252 45.0394 154.798 48.4526 154.798 52.2523C154.798 56.0519 153.252 59.4651 150.773 61.9445Z" fill="#3265B1"/>
<path d="M150.773 42.5602C148.293 40.0808 144.848 38.5352 141.081 38.5352C137.281 38.5352 133.868 40.0808 131.388 42.5602C128.909 45.0396 127.363 48.4528 127.363 52.2524C127.363 56.052 128.909 59.4653 131.388 61.9447C133.868 64.4241 137.313 65.9697 141.081 65.9697C144.88 65.9697 148.293 64.4241 150.773 61.9447C153.252 59.4653 154.798 56.052 154.798 52.2524C154.798 48.4528 153.252 45.0396 150.773 42.5602ZM141.081 62.5243C140.018 62.5243 138.955 62.3633 137.925 62.0091C133.578 60.5923 130.841 56.5672 130.841 52.2524C130.841 51.1898 131.002 50.1272 131.356 49.0968C132.773 44.7498 136.798 42.0128 141.113 42.0128C142.175 42.0128 143.238 42.1738 144.268 42.528C148.615 43.9448 151.352 47.9698 151.352 52.2846C151.352 53.3472 151.191 54.4098 150.837 55.4724C149.42 59.7551 145.428 62.5243 141.081 62.5243Z" fill="#3265B1"/>
<path d="M144.269 42.4957C143.207 42.1415 142.144 41.9805 141.114 41.9805C136.799 41.9805 132.774 44.7175 131.357 49.0645C131.003 50.1271 130.842 51.1897 130.842 52.2201C130.842 56.5349 133.579 60.56 137.926 61.9768C138.988 62.331 140.051 62.492 141.081 62.492C145.396 62.492 149.421 59.7227 150.838 55.4079C151.192 54.3453 151.353 53.2827 151.353 52.2201C151.353 47.9375 148.584 43.9125 144.269 42.4957ZM150.645 55.3435C149.26 59.5939 145.332 62.2666 141.114 62.2666C140.083 62.2666 139.053 62.1056 138.022 61.7836C133.772 60.399 131.067 56.4705 131.067 52.2523C131.067 51.2219 131.228 50.1915 131.55 49.1611C132.935 44.9107 136.863 42.2059 141.081 42.2059C142.112 42.2059 143.142 42.3669 144.173 42.6889C148.423 44.0735 151.128 48.0019 151.128 52.2201C151.128 53.2827 150.967 54.3131 150.645 55.3435Z" fill="#3265B1"/>
<path d="M151.127 52.2525C151.127 53.2829 150.966 54.3133 150.644 55.3759C149.259 59.6264 145.331 62.299 141.113 62.299C140.082 62.299 139.052 62.138 138.022 61.816C133.771 60.4314 131.066 56.5029 131.066 52.2847C131.066 51.2543 131.227 50.2239 131.549 49.1935C132.934 44.9431 136.862 42.2383 141.081 42.2383C142.111 42.2383 143.141 42.3993 144.172 42.7213C148.422 44.0737 151.127 48.0343 151.127 52.2525Z" fill="#1C427C"/>
<path d="M35.4964 38.3418C27.8006 38.3418 21.5859 44.5886 21.5859 52.2523C21.5859 59.9481 27.8328 66.1627 35.4964 66.1627C43.16 66.1627 49.4069 59.9159 49.4069 52.2523C49.4069 44.5564 43.1922 38.3418 35.4964 38.3418ZM45.1886 61.9445C42.7092 64.4239 39.296 65.9695 35.4964 65.9695C31.6968 65.9695 28.2836 64.4239 25.8042 61.9445C23.3247 59.4651 21.7791 56.0519 21.7791 52.2523C21.7791 48.4526 23.3247 45.0394 25.8042 42.56C28.2836 40.0806 31.6968 38.535 35.4964 38.535C39.296 38.535 42.7092 40.0806 45.1886 42.56C47.6681 45.0394 49.2137 48.4526 49.2137 52.2523C49.2137 56.0519 47.6681 59.4651 45.1886 61.9445Z" fill="#3265B1"/>
<path d="M45.1888 42.5602C42.7094 40.0808 39.2962 38.5352 35.4966 38.5352C31.6969 38.5352 28.2837 40.0808 25.8043 42.5602C23.3249 45.0396 21.7793 48.4528 21.7793 52.2524C21.7793 56.052 23.3249 59.4653 25.8043 61.9447C28.2837 64.4241 31.6969 65.9697 35.4966 65.9697C39.2962 65.9697 42.7094 64.4241 45.1888 61.9447C47.6682 59.4653 49.2138 56.052 49.2138 52.2524C49.2138 48.4528 47.6682 45.0396 45.1888 42.5602ZM35.4966 62.5243C34.434 62.5243 33.3714 62.3633 32.3409 62.0091C27.9939 60.5923 25.2569 56.5672 25.2569 52.2524C25.2569 51.1898 25.4179 50.1272 25.7721 49.0968C27.1889 44.7498 31.2139 42.0128 35.5288 42.0128C36.5914 42.0128 37.654 42.1738 38.7166 42.528C43.0636 43.9448 45.8006 47.9698 45.8006 52.2846C45.8006 53.3472 45.6396 54.4098 45.2854 55.4402C43.8364 59.7551 39.8114 62.5243 35.4966 62.5243Z" fill="#3265B1"/>
<path d="M38.653 42.4957C37.5904 42.1415 36.5278 41.9805 35.4652 41.9805C31.1504 41.9805 27.1254 44.7175 25.7086 49.0645C25.3544 50.1271 25.1934 51.1897 25.1934 52.2201C25.1934 56.5349 27.9304 60.56 32.2774 61.9768C33.34 62.331 34.4026 62.492 35.433 62.492C39.7478 62.492 43.7728 59.7227 45.1896 55.4079C45.5438 54.3453 45.7049 53.2827 45.7049 52.2523C45.7693 47.9375 43 43.9125 38.653 42.4957ZM45.0609 55.3435C43.6762 59.5939 39.7478 62.2666 35.4974 62.2666C34.467 62.2666 33.4366 62.1056 32.4062 61.7836C28.1558 60.399 25.451 56.4705 25.451 52.2523C25.451 51.2219 25.612 50.1915 25.934 49.1611C27.3186 44.9107 31.247 42.2059 35.4652 42.2059C36.4956 42.2059 37.526 42.3669 38.5564 42.6889C42.8068 44.0735 45.5117 48.0019 45.5117 52.2201C45.5438 53.2827 45.3829 54.3131 45.0609 55.3435Z" fill="#3265B1"/>
<path d="M45.5421 52.2535C45.5421 53.2839 45.3811 54.3143 45.0591 55.3447C43.6745 59.5951 39.7461 62.2677 35.4957 62.2677C34.4653 62.2677 33.4349 62.1067 32.4045 61.7847C28.154 60.4001 25.4492 56.4717 25.4492 52.2535C25.4492 51.2231 25.6102 50.1927 25.9322 49.1623C27.3168 44.9118 31.2452 42.207 35.4635 42.207C36.4939 42.207 37.5243 42.368 38.5547 42.69C42.8373 44.0746 45.5421 48.0353 45.5421 52.2535Z" fill="#1C427C"/>
<path d="M92.2 26.2989H92.0712C92.0712 26.4277 91.9424 26.5565 91.8136 26.5565L82.8619 26.4277C82.7009 26.4277 82.6043 26.2989 82.6043 26.1701V25.8481C82.6043 25.6871 82.7331 25.5905 82.8619 25.5905L91.8136 25.3973C91.9424 25.3973 92.0712 25.5261 92.0712 25.6549V26.2989H92.2H92.2966V25.6549C92.2966 25.3973 92.0712 25.1719 91.8136 25.1719L82.8619 25.3651C82.6043 25.3651 82.3789 25.5905 82.3789 25.8481V26.1701C82.3789 26.4277 82.6043 26.6531 82.8619 26.6531L91.8136 26.7819C92.0712 26.7819 92.2966 26.5565 92.2966 26.2989H92.2Z" fill="#3265B1"/>
<path d="M134.673 24.9464H134.576C134.576 25.0752 134.447 25.204 134.318 25.204L125.367 25.0752C125.206 25.0752 125.109 24.9464 125.109 24.8176V24.4956C125.109 24.3346 125.238 24.238 125.367 24.238L134.318 24.077C134.447 24.077 134.576 24.2058 134.576 24.3346V24.9786H134.673H134.769V24.3346C134.769 24.077 134.544 23.8516 134.286 23.8516L125.335 24.0126C125.077 24.0126 124.852 24.238 124.852 24.4956V24.8176C124.852 25.0752 125.077 25.3006 125.335 25.3006L134.286 25.4294C134.544 25.4294 134.769 25.204 134.769 24.9464H134.673Z" fill="#3265B1"/>
<path d="M5.2907 27.0722L5.2263 27.0078C5.0975 27.1688 5.0009 27.2654 5.0009 27.2654L1.33008 34.6714H2.61808L2.65028 34.6392C2.65028 34.6392 4.64669 31.9344 6.2889 29.455C6.9007 28.5534 7.54471 27.7484 8.12431 27.1366L8.28531 26.9434H5.2907L5.2585 26.9756L5.2907 27.0722V27.1688H8.02771V27.0722L7.96331 27.0078C7.38371 27.6518 6.7397 28.4246 6.1279 29.3584C5.3229 30.582 4.38909 31.9022 3.71289 32.8682C3.35869 33.3512 3.06889 33.7698 2.84348 34.0596C2.61808 34.3494 2.52148 34.5104 2.52148 34.5104L2.61808 34.5748V34.4782H1.65208L5.1619 27.362L5.0653 27.3298L5.1619 27.3942C5.1619 27.3942 5.2585 27.2976 5.3873 27.1366L5.2907 27.0722Z" fill="#3265B1"/>
<path d="M7.67551 25.3646V25.3002H7.61111C7.12811 25.3002 6.48411 25.7832 5.96891 26.2984C5.4537 26.7814 5.0351 27.2644 5.0351 27.2644L1.39648 34.6382H2.55569L2.58789 34.606C2.58789 34.606 4.5843 31.9012 6.22651 29.4218C7.03151 28.1982 7.93312 27.1678 8.64152 26.4916C8.99572 26.1374 9.28552 25.8798 9.47872 25.6866C9.67192 25.4934 9.80072 25.3968 9.80072 25.3968V25.3646C9.83292 25.1714 10.0583 24.8816 10.3803 24.624C10.6701 24.3664 11.0565 24.141 11.3463 23.98L11.4107 23.9478L11.3785 23.8834C11.2819 23.7546 11.1209 23.5936 10.9921 23.4326L10.9599 23.4004H10.9277C10.7345 23.4326 10.5735 23.497 10.4447 23.5292C8.70592 24.0122 7.61111 25.268 7.61111 25.268L7.67551 25.3646L7.70771 25.3968C7.70771 25.3968 7.77211 25.3324 7.90092 25.2036C8.28732 24.8172 9.22112 24.0444 10.4769 23.6902C10.6057 23.658 10.7667 23.6258 10.9599 23.5614V23.497L10.9277 23.5292C11.0887 23.6902 11.2175 23.8512 11.3141 23.98L11.3463 23.9478L11.3141 23.8834C10.9921 24.0444 10.6057 24.2698 10.3159 24.5596C9.99393 24.8172 9.76852 25.107 9.70412 25.3324H9.76852H9.73632C9.73632 25.3324 7.77211 26.878 6.12991 29.3896C5.3249 30.6132 4.3911 31.9334 3.7149 32.8994C3.36069 33.3824 3.07089 33.801 2.84549 34.0908C2.62009 34.3806 2.52349 34.5416 2.52349 34.5416L2.55569 34.5738V34.5094H1.58969L5.1317 27.3288C5.1317 27.3288 5.2283 27.2 5.3893 27.039C5.6469 26.7814 6.03331 26.3628 6.45191 26.0086C6.87051 25.6544 7.32131 25.3968 7.61111 25.3968H7.64331H7.67551L7.70771 25.3646H7.67551Z" fill="#3265B1"/>
<path d="M175.953 24.5609H173.216C173.152 23.8203 173.055 23.1763 172.991 22.7899C172.991 22.7899 172.991 22.7255 172.959 22.6289H176.533C176.533 22.7899 176.565 22.9509 176.565 23.1119C176.565 23.3373 176.565 23.5949 176.597 23.7881C176.597 23.5305 176.597 23.1763 176.565 22.8543H173.088C173.152 23.2407 173.216 23.7559 173.281 24.3677H176.082L176.597 24.2389C176.597 24.2711 176.597 24.2711 176.597 24.2711L175.986 24.3999L175.953 24.5609ZM173.088 24.5609H173.023V24.4643C172.959 23.7881 172.894 23.1763 172.798 22.8221V22.7577L172.766 22.6289H172.83C172.862 22.7255 172.862 22.7899 172.862 22.7899C172.959 23.2085 173.023 23.8203 173.088 24.5609ZM176.791 24.3677C176.791 24.3355 176.791 24.0779 176.791 23.6915C176.791 23.9813 176.791 24.1745 176.791 24.2711V24.3677Z" fill="#3265B1"/>
<path d="M175.953 24.5609H173.216C173.152 23.8203 173.055 23.1763 172.991 22.7899C172.991 22.7899 172.991 22.7255 172.959 22.6289H176.533C176.533 22.7899 176.565 22.9509 176.565 23.1119C176.565 23.3373 176.565 23.5949 176.597 23.7881C176.597 23.5305 176.597 23.1763 176.565 22.8543H173.088C173.152 23.2407 173.216 23.7559 173.281 24.3677H176.082L176.597 24.2389C176.597 24.2711 176.597 24.2711 176.597 24.2711L175.986 24.3999L175.953 24.5609ZM173.088 24.5609H173.023V24.4643C172.959 23.7881 172.894 23.1763 172.798 22.8221V22.7577L172.766 22.6289H172.83C172.862 22.7255 172.862 22.7899 172.862 22.7899C172.959 23.2085 173.023 23.8203 173.088 24.5609ZM176.791 24.3677C176.791 24.3355 176.791 24.0779 176.791 23.6915C176.791 23.9813 176.791 24.1745 176.791 24.2711V24.3677Z" fill="#3265B1"/>
<path d="M179.431 42.3671H179.527V39.6945L177.048 39.4369V39.5335L177.144 39.5013C177.144 39.5013 177.112 39.4369 177.08 39.3081C176.951 38.9217 176.694 38.0845 176.694 37.3761V37.3117C176.694 36.7965 176.822 35.7982 176.919 34.9288C177.048 34.0594 177.144 33.3188 177.144 33.3188V33.2866L175.985 28.36L176.146 24.5281L176.758 24.3993V24.3027C176.758 24.3027 176.758 23.7231 176.726 23.0469C176.694 22.3707 176.661 21.6301 176.565 21.3081C176.468 20.9539 176.114 20.3743 175.76 19.8591C175.438 19.3439 175.116 18.8931 175.116 18.8931L163.974 5.36891L166.518 4.5961L165.939 4.01649L153.606 2.66408V2.76068L153.67 2.69628C153.187 2.24547 152.318 1.85907 151.255 1.53706C150.193 1.21506 148.937 0.957457 147.713 0.796456C147.069 0.699855 145.33 0.635454 142.915 0.571053C135.638 0.377851 122.339 0.28125 115.899 0.28125C107.302 0.28125 91.8135 0.506652 89.8492 0.635454C87.885 0.764255 83.4736 1.98787 83.4736 1.98787L83.5058 2.08447V1.98787C83.5058 1.98787 82.6042 2.08447 81.3483 2.18107C80.0925 2.30987 78.5147 2.47087 77.1301 2.59968C74.3287 2.85728 70.046 4.8859 70.0138 4.8859C70.0138 4.8859 61.6739 9.71595 57.9709 12.0988C54.2678 14.4816 46.572 19.9235 46.572 19.9235L46.6364 20.0201V19.9235L45.4771 19.8269L44.3179 20.5353L44.1247 20.3421L44.0925 20.3099L41.2267 19.4405H41.1945C39.3913 19.9557 37.1372 19.8591 28.6686 20.7285C19.1694 21.6945 12.1498 23.0469 10.411 23.5299C8.67213 24.0129 7.57732 25.3009 7.54512 25.3009L7.64172 25.3653V25.2687H7.57732C7.31972 25.2687 7.02992 25.3975 6.74011 25.5907C5.8707 26.1381 4.96909 27.233 4.93689 27.2652L1.23385 34.8966L2.03886 35.1542L1.68466 36.3456H0.589844V37.6337H1.78126L1.65246 40.0809H0.589844V42.8823L1.62026 43.9127L2.26426 45.233L1.81346 45.6838V45.7482C1.81346 45.7482 2.29646 48.6462 2.68287 50.0952C3.06927 51.5442 4.26068 53.6372 4.26068 53.6372L4.29288 53.7016H5.19449L7.67392 58.5639H18.944V52.2848C18.944 47.7124 20.7795 43.5585 23.7419 40.5639C26.7043 37.5693 30.7938 35.7016 35.334 35.7016C39.8421 35.7016 43.9315 37.5693 46.9262 40.5639C49.8886 43.5585 51.724 47.7124 51.724 52.2848V56.5675H125.205V52.156C125.205 47.5514 127.008 43.3975 129.939 40.3707C132.869 37.3439 136.894 35.5084 141.338 35.5084C145.781 35.5084 149.806 37.3761 152.737 40.3707C155.667 43.3975 157.47 47.5514 157.47 52.156V52.478V52.6068L175.792 49.097L180.107 48.3564V43.0111L179.624 42.3027L179.431 42.3671L179.334 42.4315L179.785 43.0755V48.1632L175.663 48.8716L157.599 52.3492V52.156C157.599 47.487 155.763 43.2687 152.833 40.2419C149.871 37.1829 145.781 35.3152 141.273 35.3152C136.765 35.3152 132.676 37.2151 129.713 40.2419C126.751 43.3009 124.948 47.5192 124.948 52.156V56.3421H51.885V52.2204C51.885 47.5836 50.0174 43.3975 47.0228 40.3707C44.0281 37.3439 39.8743 35.444 35.3018 35.444C30.7294 35.444 26.5755 37.3117 23.5809 40.3707C20.5863 43.3975 18.7186 47.6158 18.7186 52.2204V58.2741H7.80272L5.3233 53.4118H4.35729V53.5084L4.45389 53.444C4.45389 53.444 4.38949 53.3152 4.26068 53.0898C3.90648 52.4458 3.16587 50.9968 2.90827 49.9664C2.71507 49.258 2.52187 48.1632 2.32866 47.2616C2.16766 46.36 2.03886 45.6516 2.03886 45.6516L1.94226 45.6838L2.00666 45.7482L2.52187 45.233L1.78126 43.7517L0.815246 42.7857V40.2741H1.84566L2.00666 37.4083H0.815246V36.5389H1.84566L2.29646 34.9932L1.52365 34.7356L5.19449 27.3295L5.09789 27.2973L5.19449 27.3618C5.19449 27.3618 5.2911 27.233 5.4521 27.0719C5.7097 26.8143 6.0961 26.3957 6.51471 26.0415C6.93331 25.6873 7.35192 25.4297 7.64172 25.4619H7.67392H7.73832L7.77052 25.4297L7.80272 25.3653C8.02813 25.1399 9.02634 24.1417 10.5076 23.7231C12.2142 23.2401 19.2339 21.8877 28.733 20.9217C37.2016 20.0523 39.4235 20.1489 41.2911 19.6337L41.2589 19.5371L41.2267 19.6337L43.9959 20.4709L44.2213 20.6963L44.2857 20.7607L45.5415 19.9879L46.6686 20.0845L46.7008 20.0523C46.7008 20.0523 47.1838 19.6981 47.9566 19.1507C50.3072 17.5084 55.3305 13.9986 58.0997 12.2276C59.9351 11.0362 62.9619 9.23295 65.5058 7.75173C66.7938 7.01112 67.9208 6.33492 68.7902 5.81971C69.6274 5.33671 70.1426 5.0147 70.1426 5.0147L70.0782 4.9181L70.1104 5.0147C70.1104 5.0147 70.368 4.8859 70.8188 4.6927C72.139 4.11309 75.1015 2.92168 77.1301 2.72848C79.8993 2.47087 83.5058 2.11667 83.5058 2.11667C83.5058 2.11667 83.7956 2.05227 84.2142 1.92347C85.5344 1.56926 88.4002 0.860856 89.8492 0.764255C91.7813 0.635454 107.27 0.410051 115.867 0.410051C120.182 0.410051 127.524 0.442252 134.093 0.538853C137.377 0.571053 140.468 0.635454 142.915 0.699855C145.33 0.764255 147.101 0.828656 147.713 0.925257C148.937 1.08626 150.193 1.34386 151.223 1.66587C152.286 1.98787 153.123 2.37427 153.574 2.79288L153.606 2.82508L165.906 4.17749L166.164 4.4351L163.652 5.2079L174.987 18.9897C174.987 18.9897 175.051 19.0863 175.18 19.2795C175.341 19.5371 175.631 19.9557 175.856 20.3421C176.082 20.7285 176.307 21.1471 176.372 21.3403C176.468 21.6301 176.5 22.3707 176.533 23.0147C176.565 23.6587 176.565 24.2383 176.565 24.2705H176.661L176.629 24.1739L175.921 24.3027L175.792 28.3922L176.951 33.3188L177.048 33.2866L176.951 33.2544C176.951 33.2544 176.468 36.2169 176.468 37.2795V37.3439C176.5 38.3421 176.951 39.5335 176.951 39.5657L176.983 39.6301L179.334 39.8877V42.3993L179.366 42.4315L179.431 42.3671Z" fill="#3265B1"/>
<path d="M50.4701 22.6285L50.4379 22.5963C50.3091 22.6607 50.2447 22.6929 50.2447 22.6929H50.2125C49.9871 22.7573 48.5702 22.8539 46.5416 22.9827C40.3591 23.3691 28.1874 24.0132 22.4879 24.3674C14.9209 24.8182 9.801 25.3012 9.801 25.3012C9.801 25.3012 8.8994 26.0418 7.77238 27.2654L7.67578 27.362H7.80458C9.3824 27.2654 20.9101 26.4926 21.8761 26.3638C22.9065 26.235 51.5005 24.7216 54.6561 24.5928C57.8117 24.4318 93.4575 23.0471 96.5488 22.8861C99.64 22.7251 125.465 22.0489 129.844 21.7269C133.869 21.4371 135.028 19.8593 135.028 18.6679C135.028 18.5713 135.028 18.4425 134.996 18.3459C134.932 18.0239 134.545 17.3155 133.966 16.3817C132.227 13.548 128.749 8.62138 127.043 6.68936C124.917 4.30654 121.697 4.20993 119.83 4.20993C119.669 4.20993 119.54 4.20993 119.411 4.20993C118.026 4.20993 108.012 4.17773 102.184 4.17773C100.735 4.17773 99.5434 4.17773 98.8028 4.17773C95.0998 4.20993 84.4414 4.53194 81.8976 4.62854C80.4808 4.66074 79.4182 5.04714 78.8064 5.40135L50.5023 22.5641L50.4701 22.6285L50.5023 22.6607L78.8064 5.49795C79.4182 5.17595 80.4808 4.78954 81.8654 4.75734C84.4092 4.69294 95.0676 4.33874 98.7706 4.30654C99.5112 4.30654 100.703 4.30654 102.152 4.30654C107.98 4.30654 117.994 4.33874 119.379 4.33874C119.508 4.33874 119.636 4.33874 119.797 4.33874C121.633 4.33874 124.821 4.43534 126.914 6.78596C128.041 8.07398 129.973 10.6822 131.647 13.1294C132.484 14.353 133.257 15.5123 133.837 16.4783C134.416 17.4121 134.803 18.1527 134.835 18.4103C134.867 18.5069 134.867 18.6035 134.867 18.7001C134.867 19.8271 133.772 21.3727 129.78 21.6625C125.4 21.9845 99.5756 22.6607 96.5166 22.8217C93.4253 22.9827 57.7795 24.3674 54.6239 24.5284C51.4683 24.6894 22.8743 26.1706 21.8439 26.2994C20.8779 26.4282 9.3502 27.201 7.77238 27.2976V27.362L7.80458 27.3942C8.35199 26.7824 8.86719 26.2672 9.2214 25.9452C9.5756 25.6232 9.801 25.43 9.801 25.43L9.7688 25.3978V25.4622C9.7688 25.4622 10.0908 25.43 10.6704 25.3656C12.4736 25.2046 16.7563 24.8504 22.4235 24.4962C26.2232 24.2708 32.8887 23.9166 38.7491 23.5623C41.6794 23.4013 44.4164 23.2403 46.4772 23.1115C48.538 22.9827 49.9226 22.8861 50.1803 22.7895H50.2125L50.2769 22.7573C50.3091 22.7251 50.3735 22.7251 50.4701 22.6607V22.6285Z" fill="#3265B1"/>
<path d="M175.084 18.9902V18.9258L170.898 18.958H170.866L170.834 18.9902L172.251 20.8578H172.283C174.151 20.8256 175.567 20.8256 176.211 20.8256H176.308L176.276 20.7612C175.857 20.0206 175.181 19.0224 175.149 18.958V18.9258H175.117L175.084 18.9902L175.052 19.0224C175.084 19.0546 175.761 20.0528 176.179 20.7934L176.211 20.7612V20.6968C175.567 20.6968 174.151 20.729 172.283 20.729V20.7934L172.315 20.7612L170.963 18.958L170.931 18.9902V19.0546L175.117 19.0224L175.084 18.9902Z" fill="#3265B1"/>
<path d="M166.004 4.14691V4.08251C166.004 4.08251 165.167 4.11471 164.136 4.17911C163.106 4.21131 161.914 4.27571 161.174 4.27571C161.077 4.27571 160.981 4.27571 160.916 4.27571C160.272 4.27571 158.63 4.08251 157.149 3.8893C156.408 3.7927 155.7 3.6961 155.217 3.6317C154.701 3.5673 154.379 3.5351 154.379 3.5351L153.896 3.4707L154.347 3.6317C154.347 3.6317 154.669 3.7605 155.152 3.92151C156.633 4.46891 159.693 5.66031 160.498 6.11111H160.53L163.846 5.37051L166.455 4.56551L166.068 4.05031H166.036L166.004 4.14691L165.972 4.17911L166.261 4.53331L163.814 5.27391L160.498 6.01451V6.07892L160.53 6.04671C159.982 5.72471 158.469 5.11291 157.052 4.56551C155.635 4.01811 154.379 3.5351 154.379 3.5351L154.347 3.5995V3.6639C154.347 3.6639 159.596 4.37231 160.916 4.40451C160.981 4.40451 161.077 4.40451 161.174 4.40451C162.655 4.40451 166.004 4.24351 166.004 4.24351V4.14691Z" fill="#3265B1"/>
<path d="M176.148 39.5667C175.923 39.3413 174.216 37.6669 174.184 35.4129C174.152 33.6419 173.797 32.3861 173.636 31.8709C173.572 31.7099 173.54 31.6133 173.54 31.6133C173.54 31.6133 173.54 31.1947 173.508 30.5185C173.475 29.8423 173.443 28.9407 173.379 27.9425C173.314 26.8155 173.25 25.5918 173.153 24.5936H173.25C173.508 27.2663 173.636 31.3879 173.669 31.6133C173.733 31.7421 174.28 33.1589 174.313 35.4451C174.345 37.2161 175.44 38.6329 175.987 39.2447C176.116 39.4057 176.245 39.5023 176.277 39.5345H176.985C176.76 39.5023 176.502 39.5345 176.148 39.5667ZM172.96 22.6294H172.864C172.864 22.565 172.831 22.4684 172.799 22.3396C172.735 22.082 172.67 21.7922 172.542 21.599C172.477 21.4702 172.381 21.4058 172.316 21.4058H172.252L172.123 20.9228C172.638 20.9228 173.121 20.9228 173.572 20.9228C174.699 20.9228 175.568 20.8906 176.084 20.8906C175.375 20.8906 173.991 20.9228 172.252 20.9228L172.381 21.3092C172.509 21.3414 172.606 21.438 172.67 21.5668C172.767 21.6956 172.831 21.8888 172.864 22.082C172.896 22.2752 172.928 22.4684 172.96 22.6294Z" fill="#3265B1"/>
<path d="M173.217 24.5609H173.121C173.056 23.8203 172.992 23.2085 172.895 22.7899C172.895 22.7899 172.895 22.7255 172.863 22.6289H172.96C172.96 22.7255 172.992 22.7899 172.992 22.7899C173.056 23.2085 173.153 23.8203 173.217 24.5609Z" fill="#3265B1"/>
<path d="M173.217 24.5609H173.121C173.056 23.8203 172.992 23.2085 172.895 22.7899C172.895 22.7899 172.895 22.7255 172.863 22.6289H172.96C172.96 22.7255 172.992 22.7899 172.992 22.7899C173.056 23.2085 173.153 23.8203 173.217 24.5609Z" fill="#3265B1"/>
<path d="M176.92 39.5022H176.984C176.887 39.2124 176.565 38.2142 176.533 37.377C176.565 38.2142 176.887 39.2446 176.984 39.5022C176.952 39.5022 176.952 39.5022 176.92 39.5022Z" fill="#3265B1"/>
<path d="M176.147 39.5667C176.501 39.5345 176.791 39.5023 176.92 39.5023C176.952 39.5023 176.952 39.5023 176.984 39.5023C176.888 39.2447 176.566 38.2142 176.534 37.377V37.3126C176.534 36.3144 176.984 33.513 177.017 33.3198L175.857 28.3932L176.018 24.4004L176.63 24.2716C176.63 24.1106 176.63 23.6276 176.598 23.0802C176.566 22.4362 176.534 21.6634 176.437 21.3736C176.405 21.2448 176.308 21.0516 176.179 20.8262H176.212H176.308C176.405 21.0194 176.501 21.2126 176.534 21.3414C176.63 21.6634 176.695 22.404 176.695 23.0802C176.727 23.7242 176.727 24.2716 176.727 24.336V24.3682L176.115 24.497L175.954 28.361L177.113 33.2554C177.113 33.2554 176.984 33.996 176.888 34.8654C176.759 35.7348 176.662 36.733 176.662 37.2482V37.3126C176.662 37.7956 176.791 38.343 176.92 38.7617C177.017 39.1159 177.113 39.3735 177.145 39.4379H177.113C177.049 39.4701 176.695 39.5023 176.147 39.5667Z" fill="#3265B1"/>
<path d="M172.122 20.8896L172.09 20.793H172.154L172.219 20.8896H172.251C172.702 20.8896 173.12 20.8896 173.539 20.8896C173.088 20.8896 172.605 20.8896 172.122 20.8896Z" fill="#3265B1"/>
<path d="M179.463 42.2712C179.463 42.2712 179.431 42.2712 179.398 42.2712V39.8562L177.048 39.5986H177.112L177.08 39.5342C177.08 39.5342 177.08 39.5342 177.08 39.502L179.495 39.7596V42.3034L179.463 42.2712Z" fill="#3265B1"/>
<path d="M177.048 39.5986H176.179C176.179 39.5986 176.179 39.5986 176.146 39.5664C176.726 39.5342 177.048 39.502 177.048 39.502H177.08C177.08 39.5342 177.08 39.5342 177.08 39.5342L177.112 39.5986H177.048Z" fill="#3265B1"/>
<path d="M12.5682 43.8498L12.6648 43.9142C13.0191 43.238 13.4699 41.95 13.8885 40.7263C14.3071 39.5349 14.6291 38.4401 14.7257 38.2469C14.7579 38.1503 14.7901 38.0215 14.7901 37.8927C14.7901 37.6673 14.7257 37.4097 14.5003 37.2165C14.3071 37.0233 13.9851 36.8945 13.5343 36.8945C13.4699 36.8945 13.3733 36.8945 13.2767 36.8945C11.7632 36.8945 6.51462 37.0555 5.13001 37.0877H5.09781L5.06561 37.1199C4.61481 37.4741 4.38941 37.9893 4.26061 38.5045C4.13181 39.0197 4.09961 39.5349 4.09961 39.8247C4.09961 39.9213 4.09961 40.0179 4.09961 40.0501V40.1467H8.83303L8.67203 41.4992L4.55041 41.95L4.58261 42.0788C4.80801 42.6906 5.22661 44.0108 5.64522 44.7514C5.87062 45.17 6.16042 45.3954 6.41802 45.5564H6.45022H6.48242C7.96363 45.5242 11.0226 45.3954 11.0226 45.3954C11.0548 45.3954 11.9564 45.2988 12.6648 43.9142L12.5682 43.8498L12.4716 43.8176C12.1496 44.4616 11.7632 44.8158 11.4734 44.9768C11.3446 45.0734 11.2158 45.1056 11.1192 45.1378C11.087 45.1378 11.0548 45.17 11.0226 45.17H10.9904C10.9904 45.17 10.2176 45.2022 9.28383 45.2344C8.31783 45.2666 7.19082 45.2988 6.45022 45.331V45.4276L6.51462 45.331C6.28922 45.2022 5.99942 45.009 5.80622 44.6226C5.41982 43.882 5.00121 42.594 4.77581 41.9822L4.67921 42.0144V42.111L8.83303 41.6602L9.05843 39.8891H4.16401V39.9857H4.26061C4.26061 39.9535 4.26061 39.8569 4.26061 39.7603C4.26061 39.4705 4.29281 38.9875 4.42161 38.5045C4.55041 38.0215 4.77581 37.5385 5.16221 37.2487L5.09781 37.1521V37.2487C6.48242 37.2165 11.7632 37.0555 13.2445 37.0555C13.3411 37.0555 13.4377 37.0555 13.5021 37.0555C13.9207 37.0555 14.1783 37.1843 14.3393 37.3131C14.5003 37.4741 14.5647 37.6351 14.5647 37.8283C14.5647 37.9249 14.5325 38.0215 14.5003 38.1181C14.4037 38.3435 14.0817 39.4383 13.6631 40.6297C13.2445 41.8212 12.7936 43.1092 12.4716 43.7854L12.5682 43.8498Z" fill="#3265B1"/>
<path d="M21.8425 26.3319V26.2353C20.8765 26.3641 9.38107 27.1369 7.77106 27.2335H7.73886L7.67446 27.2657C7.15926 27.8453 6.61185 28.5537 6.06445 29.3265C5.29165 30.4857 4.48664 31.6772 3.81044 32.611L3.68164 32.772H8.70486L9.54207 33.6092H9.57427C9.57427 33.6092 12.5689 33.6092 14.0501 33.5126C15.5957 33.416 16.4651 32.1602 16.4651 32.128H16.4007L16.4651 32.1924L22.1967 26.2031L21.9069 26.2353C21.8747 26.2353 21.8425 26.2353 21.8103 26.2353L21.8425 26.3319V26.4285C21.8747 26.4285 21.9069 26.4285 21.9391 26.4285V26.3319L21.8747 26.2675L16.3363 32.0636L16.3041 32.128C16.1109 32.3534 15.3059 33.2872 14.0823 33.3516C13.3417 33.3838 12.2469 33.416 11.3131 33.416C10.3793 33.416 9.63867 33.416 9.63867 33.416V33.5126L9.70307 33.4482L8.83366 32.5788H3.90704V32.6754L4.00364 32.7398C4.67985 31.7738 5.51705 30.5823 6.28985 29.4553C6.80506 28.6825 7.35246 27.9741 7.86766 27.3945L7.80326 27.3301V27.4267C9.38107 27.3301 20.9087 26.5573 21.8747 26.4285L21.8425 26.3319Z" fill="#3265B1"/>
<path d="M172.927 22.7897H173.023C173.023 22.7897 172.991 22.4033 172.862 22.0491C172.798 21.8559 172.733 21.6627 172.669 21.5339C172.637 21.4695 172.572 21.4051 172.508 21.3407C172.444 21.2763 172.379 21.2441 172.283 21.2441C172.057 21.2441 169.674 21.2441 167.356 21.2441C166.197 21.2441 165.038 21.2441 164.2 21.2441C163.331 21.2441 162.784 21.2441 162.784 21.2441C162.784 21.2441 162.623 21.2763 162.462 21.3085C162.301 21.3729 162.107 21.4695 162.043 21.6949V21.7593C162.043 21.8881 162.14 22.0491 162.236 22.2101C162.59 22.7253 163.331 23.466 163.846 23.9812C164.587 24.7218 165.263 25.4302 166.165 25.559C166.615 25.6234 167.163 25.559 167.678 25.6234C168.193 25.6878 168.644 25.8488 168.902 26.364C169.159 26.8792 169.674 28.1028 170.157 29.2298C170.383 29.7772 170.64 30.3246 170.834 30.711C170.93 30.9042 171.027 31.0974 171.091 31.2262C171.123 31.2906 171.156 31.355 171.188 31.3872C171.22 31.4194 171.252 31.4516 171.284 31.4838C171.413 31.5482 171.574 31.5804 171.8 31.6126C172.476 31.677 173.538 31.677 173.538 31.677H173.635V31.5804C173.635 31.5804 173.571 29.8738 173.474 27.9096C173.377 25.9454 173.216 23.7558 172.991 22.7575L172.927 22.7897L172.83 22.8219C173.023 23.788 173.184 25.9776 173.281 27.9418C173.345 28.9078 173.377 29.8416 173.41 30.5178C173.442 31.194 173.442 31.6126 173.442 31.6126H173.538V31.516C173.538 31.516 173.055 31.516 172.572 31.4838C172.315 31.4838 172.057 31.4516 171.832 31.4194C171.606 31.3872 171.445 31.355 171.381 31.3228C171.381 31.3228 171.317 31.2262 171.252 31.0974C170.995 30.6466 170.576 29.6806 170.157 28.7146C169.739 27.7486 169.32 26.7504 169.063 26.2996C168.773 25.72 168.225 25.5268 167.678 25.4624C167.131 25.398 166.551 25.4624 166.165 25.398C165.36 25.3014 164.716 24.6252 163.975 23.8846C163.621 23.5303 163.17 23.0795 162.816 22.6931C162.655 22.4999 162.494 22.3067 162.365 22.1457C162.268 21.9847 162.204 21.8559 162.204 21.8237C162.236 21.7271 162.365 21.6305 162.494 21.5661C162.558 21.5339 162.623 21.5339 162.687 21.5017H162.751H162.784C162.784 21.5017 171.832 21.5017 172.283 21.5017L172.379 21.5339C172.508 21.6305 172.637 21.9847 172.701 22.2745C172.733 22.4355 172.766 22.5643 172.798 22.6931C172.83 22.7897 172.83 22.8541 172.83 22.8541L172.927 22.7897Z" fill="#3265B1"/>
<path d="M4.74382 37.1833V37.0867C4.74382 37.0867 4.45402 37.0867 4.13202 37.2155C3.81002 37.3443 3.45582 37.6019 3.35922 38.1171C3.16602 39.0831 3.16602 40.0169 3.16602 40.0491V40.1457H8.80104L8.64004 41.4981L3.90662 42.0134C3.90662 42.0134 3.84222 42.0134 3.77782 42.0778C3.71342 42.1422 3.68122 42.2387 3.68122 42.3675C3.68122 42.4964 3.71342 42.6896 3.81002 42.915C4.09982 43.6556 4.71162 44.7826 4.87262 45.0402C4.93702 45.169 5.00142 45.2978 5.16243 45.3944C5.29123 45.491 5.48443 45.5554 5.77423 45.5554C6.35383 45.5554 11.0229 45.3622 11.0229 45.3622C11.0551 45.3622 11.9567 45.2656 12.6651 43.881C13.0193 43.2048 13.4701 41.9167 13.8887 40.6931C14.3073 39.5017 14.6293 38.4069 14.7259 38.2137C14.7581 38.1171 14.7903 37.9883 14.7903 37.8595C14.7903 37.6341 14.7259 37.3765 14.5005 37.1833C14.3073 36.9901 13.9853 36.8613 13.5345 36.8613C13.4701 36.8613 13.3735 36.8613 13.2769 36.8613C11.5381 36.8613 4.77602 37.0545 4.77602 37.0545L4.74382 37.1833V37.2799C4.74382 37.2799 5.16243 37.2799 5.83863 37.2477C7.83504 37.1833 11.9567 37.0867 13.2447 37.0867C13.3413 37.0867 13.4379 37.0867 13.5023 37.0867C13.9209 37.0867 14.1785 37.2155 14.3395 37.3443C14.5005 37.5053 14.5649 37.6663 14.5649 37.8595C14.5649 37.9561 14.5327 38.0527 14.5005 38.1493C14.4039 38.3747 14.0819 39.4695 13.6633 40.6609C13.2447 41.8523 12.7939 43.1404 12.4719 43.8166C12.1499 44.4606 11.7635 44.8148 11.4737 44.9758C11.3449 45.0724 11.2161 45.1046 11.1195 45.1368C11.0873 45.1368 11.0551 45.169 11.0229 45.169H10.9907C10.9907 45.169 9.83145 45.2012 8.57564 45.2656C7.31984 45.2978 6.03183 45.3622 5.74203 45.3622C5.48443 45.3622 5.32343 45.2978 5.25903 45.2334C5.16243 45.169 5.09802 45.0724 5.03362 44.9436C4.90482 44.686 4.29302 43.559 4.00322 42.8506C3.90662 42.6252 3.87442 42.4642 3.87442 42.3675C3.87442 42.2709 3.90662 42.2388 3.90662 42.2388L8.83324 41.6913L9.05864 39.9203H3.26262V40.0169H3.35922C3.35922 40.0169 3.35922 39.7915 3.39142 39.4373C3.42362 39.0831 3.45582 38.6001 3.55242 38.1493C3.64902 37.7307 3.93882 37.5053 4.19642 37.4087C4.32522 37.3443 4.45402 37.3121 4.55062 37.3121C4.61502 37.3121 4.64722 37.3121 4.67942 37.3121H4.71162L4.74382 37.1833Z" fill="#3265B1"/>
<path d="M115.901 0.377851V0.28125C107.303 0.28125 91.8148 0.506652 89.8506 0.635454C88.0796 0.764255 84.3121 1.76247 83.6037 1.95567L81.4785 2.82508L82.0581 2.79288C82.0581 2.79288 82.6377 2.76068 83.6359 2.72848C86.5984 2.63188 93.0706 2.43867 97.5787 2.34207C101.282 2.27767 111.811 2.24547 120.57 2.24547C125.979 2.24547 130.713 2.24547 132.774 2.30987C135.479 2.34207 139.214 2.50307 142.305 2.66408C143.851 2.72848 145.203 2.79288 146.201 2.85728C147.199 2.92168 147.779 2.95388 147.779 2.95388L154.541 3.56569L153.704 2.72848C153.221 2.27767 152.352 1.89127 151.289 1.56926C150.226 1.24726 148.97 0.989658 147.747 0.828656C147.103 0.732055 145.364 0.667654 142.949 0.603254C135.64 0.377851 122.341 0.28125 115.901 0.28125V0.377851V0.474452C120.216 0.474452 127.557 0.506652 134.126 0.603254C137.411 0.635454 140.502 0.699855 142.949 0.764255C145.364 0.828656 147.135 0.893057 147.747 0.989658C148.97 1.15066 150.226 1.40826 151.257 1.73027C152.319 2.05227 153.157 2.43867 153.607 2.85728L153.672 2.79288L153.575 2.85728L153.994 3.27588L147.811 2.72848C147.811 2.72848 138.183 2.21327 132.806 2.11667C130.745 2.08447 126.012 2.05227 120.602 2.05227C111.843 2.05227 101.346 2.08447 97.6109 2.14887C91.5894 2.24547 82.0903 2.56748 82.0903 2.56748V2.66408V2.79288L83.6359 2.14887C84.3765 1.95567 88.144 0.957457 89.8506 0.828656C91.7826 0.699855 107.271 0.474452 115.868 0.474452V0.377851H115.901Z" fill="#3265B1"/>
<path d="M96.7416 2.27845L96.7738 2.24625L96.0654 1.24805H96.0332C94.6164 1.28025 93.5538 1.31245 93.0708 1.31245C91.815 1.37685 90.8168 1.92425 90.205 2.40725L90.0762 2.50385H90.2372C92.4268 2.43945 94.713 2.37505 96.7416 2.34285H96.8382L96.7738 2.24625L96.7416 2.27845V2.21405C94.7452 2.24625 92.4268 2.31065 90.2372 2.37505V2.43945L90.2694 2.47165C90.8812 2.02085 91.8472 1.47345 93.0708 1.40905C93.5538 1.37685 94.6164 1.37685 96.0332 1.34465V1.28025L96.001 1.31245L96.6772 2.31065L96.7416 2.27845Z" fill="#3265B1"/>
<path d="M129.07 2.18169L129.103 2.14949L128.298 1.15129H128.265C124.015 1.08689 119.314 1.05469 116.319 1.05469C113.228 1.05469 107.4 1.11909 102.312 1.18349H102.28L101.797 2.31049H101.893C106.82 2.27829 114.162 2.24609 120.57 2.24609C123.79 2.24609 126.752 2.24609 129.07 2.27829H129.167L129.103 2.14949L129.07 2.18169V2.11729C126.752 2.11729 123.79 2.08509 120.57 2.08509C114.162 2.08509 106.82 2.11729 101.893 2.14949V2.21389L101.958 2.24609L102.409 1.21569L102.344 1.18349V1.24789C107.432 1.18349 113.26 1.11909 116.351 1.11909C119.346 1.11909 124.079 1.18349 128.298 1.21569V1.15129L128.265 1.18349L129.07 2.18169Z" fill="#3265B1"/>
<path d="M146.425 2.05305L146.458 2.02085C146.297 1.92425 145.975 1.82765 145.492 1.73105C144.043 1.47345 141.273 1.24805 138.021 1.24805C137.442 1.24805 136.733 1.24805 135.928 1.24805H135.896L135.316 2.34285H135.413C139.921 2.47165 145.524 2.76145 147.263 2.85805H147.391L147.327 2.76145C147.102 2.47165 146.812 2.18185 146.49 1.98865L146.425 2.05305L146.393 2.08525C146.683 2.27845 146.973 2.53605 147.198 2.82585L147.23 2.79365V2.72925C145.492 2.63265 139.889 2.34285 135.381 2.21405V2.27845L135.413 2.31065L135.928 1.31245L135.896 1.28025V1.34465C136.701 1.34465 137.409 1.34465 137.989 1.34465C140.146 1.34465 142.111 1.44125 143.592 1.57005C144.332 1.63445 144.976 1.73105 145.427 1.79545C145.91 1.89205 146.232 1.98865 146.361 2.05305H146.425Z" fill="#3265B1"/>
<path d="M16.9813 47.2949L5.09936 47.2627H5.06716C5.06716 47.2627 3.36054 46.3289 2.39453 45.4273L2.42673 45.3951C3.36054 46.2967 5.06716 47.2305 5.06716 47.2305L14.1477 47.2627H16.8847V47.2305C19.0743 39.0838 26.4804 33.0623 35.2389 33.0623C43.9652 33.0623 51.3391 39.0194 53.5931 47.1339V47.1661L94.874 46.3289L123.371 46.1357V46.1035C125.851 38.4398 132.903 32.8691 141.178 32.8691C148.649 32.8691 155.121 37.3772 158.148 43.9139V43.9461L175.826 43.6885V43.6563C175.826 43.6563 175.858 43.5919 175.954 43.4631C176.18 43.1089 176.727 42.4326 177.242 42.3682C177.403 42.336 177.564 42.336 177.758 42.336C178.337 42.336 178.981 42.4004 179.239 42.4326V42.4648L179.69 43.1089L179.271 42.497C179.207 42.497 179.014 42.4648 178.82 42.4648C178.53 42.4326 178.112 42.4326 177.758 42.4326C177.564 42.4326 177.403 42.4326 177.242 42.4648C176.953 42.497 176.663 42.7225 176.405 42.9801C176.148 43.2377 175.954 43.5275 175.89 43.6563L175.858 43.7207L175.826 43.7851L158.083 44.0427L158.051 43.9783C155.024 37.4738 148.584 32.9657 141.146 32.9657C132.87 32.9657 125.851 38.5042 123.371 46.1679L123.339 46.2323L94.8096 46.4255L53.4965 47.2627L53.4643 47.1983C51.2425 39.116 43.8686 33.1589 35.1745 33.1589C26.4482 33.1589 19.0743 39.1482 16.8525 47.2949H16.9813ZM14.1477 47.1339L5.13156 47.1017C5.06716 47.0695 4.64856 46.8119 4.13335 46.4899C3.58594 46.1357 2.97414 45.7171 2.52333 45.2663L2.49113 45.1697C3.16734 45.8459 4.32655 46.5543 4.87396 46.8763C5.00276 46.9407 5.09936 47.0051 5.13156 47.0373L14.1477 47.0695C14.1477 47.1017 14.1477 47.1017 14.1477 47.1339Z" fill="#3265B1"/>
<path d="M16.9813 47.2949L5.09936 47.2627H5.06716C5.06716 47.2627 3.36054 46.3289 2.39453 45.4273L2.42673 45.3951C3.36054 46.2967 5.06716 47.2305 5.06716 47.2305L14.1477 47.2627H16.8847V47.2305C19.0743 39.0838 26.4804 33.0623 35.2389 33.0623C43.9652 33.0623 51.3391 39.0194 53.5931 47.1339V47.1661L94.874 46.3289L123.371 46.1357V46.1035C125.851 38.4398 132.903 32.8691 141.178 32.8691C148.649 32.8691 155.121 37.3772 158.148 43.9139V43.9461L175.826 43.6885V43.6563C175.826 43.6563 175.858 43.5919 175.954 43.4631C176.18 43.1089 176.727 42.4326 177.242 42.3682C177.403 42.336 177.564 42.336 177.758 42.336C178.337 42.336 178.981 42.4004 179.239 42.4326V42.4648L179.69 43.1089L179.271 42.497C179.207 42.497 179.014 42.4648 178.82 42.4648C178.53 42.4326 178.112 42.4326 177.758 42.4326C177.564 42.4326 177.403 42.4326 177.242 42.4648C176.953 42.497 176.663 42.7225 176.405 42.9801C176.148 43.2377 175.954 43.5275 175.89 43.6563L175.858 43.7207L175.826 43.7851L158.083 44.0427L158.051 43.9783C155.024 37.4738 148.584 32.9657 141.146 32.9657C132.87 32.9657 125.851 38.5042 123.371 46.1679L123.339 46.2323L94.8096 46.4255L53.4965 47.2627L53.4643 47.1983C51.2425 39.116 43.8686 33.1589 35.1745 33.1589C26.4482 33.1589 19.0743 39.1482 16.8525 47.2949H16.9813ZM14.1477 47.1339L5.13156 47.1017C5.06716 47.0695 4.64856 46.8119 4.13335 46.4899C3.58594 46.1357 2.97414 45.7171 2.52333 45.2663L2.49113 45.1697C3.16734 45.8459 4.32655 46.5543 4.87396 46.8763C5.00276 46.9407 5.09936 47.0051 5.13156 47.0373L14.1477 47.0695C14.1477 47.1017 14.1477 47.1017 14.1477 47.1339Z" fill="#3265B1"/>
<path d="M18.945 58.5319H7.67492L5.19549 53.6696H4.29388L4.26168 53.6052C4.26168 53.6052 3.07027 51.5444 2.68386 50.0632C2.29746 48.6142 1.81445 45.7161 1.81445 45.7161V45.6517L2.26526 45.2009L2.29746 45.1687L2.32966 45.2653C2.36186 45.2975 2.39406 45.3297 2.39406 45.3297L2.36186 45.3619L2.03986 45.6839C2.07206 45.8771 2.16866 46.4889 2.32966 47.2617C2.49066 48.1633 2.71606 49.2582 2.90927 49.9666C3.19907 51.0292 3.93968 52.446 4.26168 53.09C4.32608 53.2188 4.39048 53.3154 4.42268 53.3798H5.32429L7.80372 58.2421H18.7196V52.1884C18.7196 47.5515 20.5873 43.3655 23.5819 40.3387C26.5765 37.3118 30.7304 35.412 35.3028 35.412C39.8753 35.412 44.0291 37.2796 47.0238 40.3387C50.0184 43.3655 51.886 47.5837 51.886 52.1884V56.31H124.916V52.124C124.916 47.4549 126.752 43.2367 129.682 40.2099C132.645 37.1508 136.734 35.2832 141.242 35.2832C145.75 35.2832 149.839 37.183 152.802 40.2099C155.764 43.2689 157.568 47.4871 157.568 52.124V52.3172L175.632 48.8396L179.754 48.1311V43.0435L179.303 42.3995H179.335C179.367 42.3995 179.399 42.3995 179.399 42.3995H179.464V42.3351V42.2385L179.979 42.9791V48.3243L175.664 49.065L157.342 52.5748V52.446V52.124C157.342 47.5193 155.539 43.3655 152.609 40.3387C149.678 37.3118 145.653 35.4764 141.21 35.4764C136.766 35.4764 132.741 37.344 129.811 40.3387C126.881 43.3655 125.077 47.5193 125.077 52.124V56.5676H51.6606V52.2528C51.6606 47.6803 49.8252 43.5265 46.8628 40.5319C43.9003 37.5372 39.8109 35.6696 35.2706 35.6696C30.7626 35.6696 26.6731 37.5372 23.6785 40.5319C20.7161 43.5265 18.8806 47.6803 18.8806 52.2528V58.5319H18.945ZM2.52286 45.2975C2.49066 45.2653 2.49066 45.2653 2.45846 45.2331L2.39406 45.1365L2.45846 45.2009L2.52286 45.2975Z" fill="#3265B1"/>
<path d="M14.1788 47.2297L5.09834 47.1975C5.09834 47.1975 3.39173 46.2637 2.45793 45.3621C2.42573 45.3299 2.39353 45.2977 2.39353 45.2977L2.36133 45.2011L2.42573 45.1367L2.49013 45.2333C2.52233 45.2655 2.52233 45.2655 2.55453 45.2977C3.00533 45.7163 3.61713 46.1671 4.16454 46.5213C4.67974 46.8433 5.09834 47.0687 5.16274 47.1331L14.1788 47.1653C14.1788 47.1331 14.1788 47.1331 14.1788 47.1009C14.1788 47.1331 14.1788 47.1653 14.1466 47.1975V47.2619H14.1788V47.2297Z" fill="#3265B1"/>
<path d="M16.8514 47.1337H14.2754C14.2754 47.1015 14.2754 47.1015 14.2754 47.0693H16.8192C19.0732 38.8904 26.5115 32.869 35.3022 32.869C44.0929 32.869 51.499 38.8582 53.7852 46.9727L94.9373 46.1355L123.338 45.9423C125.85 38.2464 132.966 32.6758 141.274 32.6758C148.776 32.6758 155.281 37.216 158.34 43.7205L175.825 43.4951C175.889 43.3985 176.05 43.1409 176.243 42.9155C176.533 42.5935 176.887 42.2393 177.306 42.2071C177.467 42.1749 177.66 42.1749 177.853 42.1749C178.433 42.1749 179.077 42.2393 179.334 42.2715V42.3359C179.077 42.3037 178.433 42.2393 177.853 42.2393C177.66 42.2393 177.467 42.2393 177.306 42.2715C176.919 42.3037 176.533 42.6579 176.275 42.9799C176.05 43.2375 175.889 43.4951 175.825 43.5917L158.275 43.8493C155.216 37.3126 148.744 32.8046 141.241 32.8046C132.934 32.8046 125.85 38.3752 123.338 46.0711L94.9051 46.2643L53.7208 47.1015C51.4668 38.9549 44.0607 32.9656 35.3022 32.9656C26.5115 32.9334 19.0732 38.9548 16.8514 47.1337Z" fill="#3265B1"/>
<path d="M16.8514 47.1337H14.2754C14.2754 47.1015 14.2754 47.1015 14.2754 47.0693H16.8192C19.0732 38.8904 26.5115 32.869 35.3022 32.869C44.0929 32.869 51.499 38.8582 53.7852 46.9727L94.9373 46.1355L123.338 45.9423C125.85 38.2464 132.966 32.6758 141.274 32.6758C148.776 32.6758 155.281 37.216 158.34 43.7205L175.825 43.4951C175.889 43.3985 176.05 43.1409 176.243 42.9155C176.533 42.5935 176.887 42.2393 177.306 42.2071C177.467 42.1749 177.66 42.1749 177.853 42.1749C178.433 42.1749 179.077 42.2393 179.334 42.2715V42.3359C179.077 42.3037 178.433 42.2393 177.853 42.2393C177.66 42.2393 177.467 42.2393 177.306 42.2715C176.919 42.3037 176.533 42.6579 176.275 42.9799C176.05 43.2375 175.889 43.4951 175.825 43.5917L158.275 43.8493C155.216 37.3126 148.744 32.8046 141.241 32.8046C132.934 32.8046 125.85 38.3752 123.338 46.0711L94.9051 46.2643L53.7208 47.1015C51.4668 38.9549 44.0607 32.9656 35.3022 32.9656C26.5115 32.9334 19.0732 38.9548 16.8514 47.1337Z" fill="#3265B1"/>
<path d="M179.4 42.3361C179.4 42.3361 179.368 42.3361 179.336 42.3361V42.2715C179.368 42.2715 179.368 42.2715 179.4 42.2715V42.3361Z" fill="#3265B1"/>
<path d="M16.9167 47.2294H14.1797H14.2441V47.1972C14.2441 47.165 14.2763 47.1328 14.2763 47.0684C14.2763 47.1006 14.2763 47.1006 14.2763 47.1328H16.8523C19.0741 38.954 26.5124 32.9325 35.3031 32.9325C44.0616 32.9325 51.4677 38.9218 53.7217 47.0684L94.906 46.2312L123.339 46.038C125.851 38.3421 132.935 32.7715 141.242 32.7715C148.745 32.7715 155.249 37.3117 158.276 43.8162L175.826 43.5908C175.89 43.4942 176.051 43.2366 176.276 42.979C176.566 42.657 176.92 42.335 177.307 42.2706C177.468 42.2384 177.661 42.2384 177.854 42.2384C178.434 42.2384 179.078 42.3028 179.335 42.335V42.4316C179.11 42.3994 178.434 42.335 177.854 42.335C177.661 42.335 177.468 42.335 177.339 42.3672C176.824 42.4316 176.276 43.1078 176.051 43.462C175.987 43.5908 175.922 43.6552 175.922 43.6552V43.6874L158.244 43.945V43.9128C155.217 37.4083 148.745 32.8681 141.275 32.8681C132.999 32.8681 125.947 38.4387 123.468 46.1024V46.1346L94.9704 46.3278L53.6895 47.165V47.1328C51.4677 39.0184 44.0938 33.0613 35.3353 33.0613C26.5768 33.0613 19.1707 39.0828 16.9811 47.2294H16.9167Z" fill="#3265B1"/>
<path d="M16.9167 47.2294H14.1797H14.2441V47.1972C14.2441 47.165 14.2763 47.1328 14.2763 47.0684C14.2763 47.1006 14.2763 47.1006 14.2763 47.1328H16.8523C19.0741 38.954 26.5124 32.9325 35.3031 32.9325C44.0616 32.9325 51.4677 38.9218 53.7217 47.0684L94.906 46.2312L123.339 46.038C125.851 38.3421 132.935 32.7715 141.242 32.7715C148.745 32.7715 155.249 37.3117 158.276 43.8162L175.826 43.5908C175.89 43.4942 176.051 43.2366 176.276 42.979C176.566 42.657 176.92 42.335 177.307 42.2706C177.468 42.2384 177.661 42.2384 177.854 42.2384C178.434 42.2384 179.078 42.3028 179.335 42.335V42.4316C179.11 42.3994 178.434 42.335 177.854 42.335C177.661 42.335 177.468 42.335 177.339 42.3672C176.824 42.4316 176.276 43.1078 176.051 43.462C175.987 43.5908 175.922 43.6552 175.922 43.6552V43.6874L158.244 43.945V43.9128C155.217 37.4083 148.745 32.8681 141.275 32.8681C132.999 32.8681 125.947 38.4387 123.468 46.1024V46.1346L94.9704 46.3278L53.6895 47.165V47.1328C51.4677 39.0184 44.0938 33.0613 35.3353 33.0613C26.5768 33.0613 19.1707 39.0828 16.9811 47.2294H16.9167Z" fill="#3265B1"/>
<path d="M179.368 42.4325H179.336V42.3359C179.368 42.3359 179.368 42.3359 179.4 42.3359V42.2715C179.433 42.2715 179.465 42.2715 179.465 42.2715V42.3681L179.368 42.4325Z" fill="#3265B1"/>
<path d="M14.244 47.2294H14.1796H14.1152V47.165C14.1152 47.1328 14.1152 47.1006 14.1474 47.0684H14.244C14.244 47.1006 14.2118 47.1328 14.2118 47.1972L14.244 47.2294Z" fill="#3265B1"/>
<path d="M179.496 42.4325H179.432C179.432 42.4325 179.399 42.4325 179.367 42.4325L179.432 42.4003H179.496V42.4325ZM179.496 42.3681H179.432V42.2715H179.464V42.3681H179.496Z" fill="#3265B1"/>
<path d="M179.883 44.5565V44.4599H179.787C179.432 44.4599 179.078 44.4277 178.724 44.4277C178.37 44.4277 178.016 44.4599 177.694 44.5565C177.372 44.6531 177.114 44.8141 176.953 45.1039C176.76 45.4581 176.502 46.1021 176.277 46.8427C176.051 47.5833 175.826 48.3884 175.665 48.9358L175.633 49.0968L180.044 48.3239V44.4277H179.948L179.883 44.5565H179.787V48.1629L175.729 48.8714L175.762 48.968L175.858 49.0002C176.019 48.4206 176.245 47.6477 176.47 46.9071C176.695 46.1665 176.953 45.4903 177.146 45.2005C177.307 44.9751 177.5 44.8141 177.79 44.7497C178.048 44.6531 178.402 44.6531 178.756 44.6531C179.11 44.6531 179.465 44.6853 179.819 44.6853H179.915L179.883 44.5565Z" fill="#3265B1"/>
<path d="M179.882 48.2605H179.978V45.5234H179.85C179.463 45.5556 178.98 45.62 178.594 45.6844C178.207 45.7488 177.885 45.8454 177.724 45.942C177.66 45.9742 177.628 46.0386 177.563 46.103C177.402 46.3606 177.177 46.8114 176.952 47.3266C176.726 47.8419 176.501 48.3892 176.34 48.8079L176.275 48.9689L179.946 48.3248V48.2283H179.882L179.85 48.1317L176.436 48.7113L176.469 48.8079L176.565 48.8401C176.758 48.3571 177.016 47.713 177.274 47.1334C177.402 46.8436 177.531 46.586 177.628 46.3928C177.692 46.2962 177.724 46.1996 177.789 46.1674C177.821 46.103 177.853 46.0708 177.885 46.0708C177.982 46.0064 178.304 45.9098 178.69 45.8454C179.077 45.781 179.528 45.7166 179.914 45.6844V45.5878H179.817V48.2283H179.882V48.2605Z" fill="#3265B1"/>
<path d="M18.8149 53.7986V53.7342C17.0439 53.7342 14.9509 53.7342 13.0833 53.7342C10.9903 53.7342 9.21927 53.7342 8.60747 53.7342H8.57527C6.73986 53.7342 5.45186 51.5446 4.74345 50.643C4.35705 50.16 3.48765 49.999 2.77924 49.9668H2.71484L2.74704 50.0634C3.13345 51.5124 4.32485 53.5732 4.32485 53.5732V53.6054H5.22645L7.70587 58.4676H18.8793V53.7342H18.8149V53.7986H18.7505V58.371H7.77027L5.29086 53.5088H4.35705V53.5732L4.38925 53.541C4.38925 53.541 4.32485 53.4122 4.19605 53.1868C3.84185 52.5428 3.10125 51.0938 2.81144 50.0312H2.74704V50.0956C3.45545 50.1278 4.29265 50.2888 4.61465 50.7396C5.29085 51.609 6.57886 53.863 8.51087 53.863H8.54307C9.18707 53.863 10.9581 53.863 13.0189 53.863C14.8865 53.863 16.9795 53.863 18.7505 53.863V53.7986H18.8149Z" fill="#3265B1"/>
<path d="M176.307 47.1328V47.0684L157.084 48.7106V48.775C157.309 49.8698 157.406 50.9968 157.406 52.1882V52.5102V52.5746L175.663 49.0648H175.76H175.792V49.0326C175.921 48.5174 176.114 47.8412 176.34 47.165L176.372 47.1006H176.307V47.1328H176.243C176.05 47.809 175.824 48.4852 175.696 49.0004H175.76V48.936H175.663L157.535 52.4136V52.156C157.535 50.9968 157.406 49.8376 157.213 48.7428H157.148V48.8072L176.307 47.165V47.1328Z" fill="#3265B1"/>
<path d="M60.3875 19.1824L60.3553 19.0858C60.3553 19.0858 60.0011 19.1824 59.5825 19.3434C59.1639 19.4722 58.7131 19.6654 58.4877 19.7942C58.3267 19.923 58.1335 20.0518 58.0047 20.245C57.8759 20.4382 57.7793 20.6314 57.7793 20.889C57.7793 20.9856 57.7793 21.05 57.8115 21.1466C57.9725 21.7584 58.3911 22.4024 58.3911 22.4024L58.4233 22.4346H58.4877C58.4877 22.4346 58.8419 22.4346 59.3893 22.4024C61.0315 22.3702 64.3803 22.3058 64.8311 22.3058C65.1531 22.3058 65.7005 22.3058 66.1835 22.177C66.4411 22.1126 66.6665 22.016 66.8597 21.8872C67.0529 21.7584 67.1817 21.533 67.2461 21.3076C67.2783 21.1466 67.2783 20.9534 67.2783 20.728C67.2783 20.084 67.2139 19.1502 67.1173 18.3774C67.0851 17.991 67.0207 17.6368 66.9563 17.3792C66.9241 17.2504 66.8919 17.1216 66.8919 17.0572C66.8919 17.025 66.8597 16.9928 66.8597 16.9606C66.8275 16.9284 66.8275 16.8962 66.7953 16.864C66.5699 16.7352 66.0869 16.5098 64.9921 16.5098C64.8955 16.5098 64.7667 16.5098 64.6701 16.5098C63.3499 16.542 62.5127 16.7352 61.8043 17.3148C61.0959 17.8944 60.2909 19.1502 60.2909 19.1502L60.3875 19.1824L60.4841 19.2468C60.4841 19.2468 60.5485 19.1824 60.6129 19.0536C60.8705 18.6672 61.4501 17.8622 61.9331 17.4758C62.6093 16.9606 63.3821 16.7674 64.6701 16.703C64.7989 16.703 64.8955 16.703 64.9921 16.703C66.0547 16.703 66.5055 16.8962 66.6665 17.025C66.6665 17.025 66.6987 17.0894 66.7309 17.186C66.8919 17.7978 67.1173 19.6976 67.1173 20.7602C67.1173 20.9856 67.1173 21.1788 67.0851 21.3076C67.0529 21.5008 66.9563 21.6296 66.7953 21.7584C66.3123 22.1126 65.3463 22.1448 64.8633 22.1448C64.2515 22.1448 58.4877 22.2736 58.4877 22.2736V22.3702L58.5843 22.3058C58.5843 22.3058 58.5521 22.2736 58.5199 22.2092C58.3911 22.016 58.1335 21.533 58.0369 21.1466C58.0047 21.0822 58.0047 21.0178 58.0047 20.9534C58.0047 20.7602 58.0691 20.5992 58.1979 20.4382C58.3267 20.2772 58.4877 20.1484 58.6487 20.0518C58.8097 19.923 59.2605 19.762 59.6791 19.6332C60.0655 19.5044 60.4197 19.4078 60.4197 19.4078H60.4519L60.4841 19.3756L60.3875 19.1824Z" fill="#3265B1"/>
<path d="M67.1804 21.2774H67.2448C67.277 21.1486 67.277 20.9554 67.277 20.6978C67.277 20.0538 67.2126 19.12 67.116 18.3472C67.0838 17.9608 67.0194 17.6066 66.955 17.349C66.9228 17.2202 66.8906 17.0914 66.8906 17.027C66.8584 16.9304 66.8584 16.8982 66.794 16.866C66.633 16.7694 66.3432 16.6406 65.7636 16.5762H65.6348L65.6992 16.6728C65.9246 16.9948 66.2144 17.51 66.2466 18.0252C66.2788 18.5404 66.3432 19.4098 66.3432 20.2792C66.3432 20.9232 66.311 21.5672 66.1822 22.0824L66.15 22.179L66.2466 22.1468C66.7296 22.018 67.1804 21.7926 67.2448 21.3096L67.1804 21.2774H67.116C67.0516 21.696 66.6652 21.9214 66.2144 22.018V22.0824H66.2788C66.4076 21.5672 66.4398 20.9232 66.4398 20.2792C66.4398 19.4098 66.3754 18.5082 66.3432 18.0252C66.311 17.4456 66.0212 16.9304 65.7958 16.6084L65.7636 16.6406V16.705C66.3432 16.7694 66.633 16.8982 66.7618 16.9948C66.7618 16.9948 66.794 17.0592 66.8262 17.1236C66.9872 17.7032 67.2126 19.6674 67.2126 20.73C67.2126 20.9554 67.2126 21.1486 67.1804 21.2774Z" fill="#3265B1"/>
<path d="M66.3446 19.1834H66.409C66.3768 18.7004 66.3446 18.314 66.3446 18.0242C66.3124 17.4446 66.0226 16.9294 65.7972 16.6074V16.5752H65.765C65.5718 16.543 65.3142 16.543 65.0244 16.543C64.9278 16.543 64.799 16.543 64.7024 16.543C63.3822 16.5752 62.5772 16.7684 61.8688 17.348C61.1604 17.8954 60.3554 19.1834 60.3554 19.1834L60.291 19.28H60.3876C60.3876 19.28 61.418 19.28 62.6416 19.28C63.8974 19.28 65.3464 19.28 66.248 19.28H66.3446H66.409V19.2156L66.3446 19.1834V19.119H66.248C65.3464 19.119 63.8974 19.119 62.6416 19.119C61.3858 19.119 60.3876 19.119 60.3876 19.119V19.1834L60.4198 19.2156C60.4198 19.2156 60.613 18.8936 60.9028 18.5072C61.1926 18.1208 61.5468 17.67 61.901 17.4124C62.5772 16.865 63.35 16.704 64.6702 16.6396C64.799 16.6396 64.8956 16.6396 64.9922 16.6396C65.282 16.6396 65.5074 16.6396 65.7328 16.6718V16.6074L65.7006 16.6396C65.926 16.9616 66.2158 17.4768 66.248 17.992C66.248 18.2818 66.2802 18.7004 66.3124 19.1512L66.3446 19.1834Z" fill="#3265B1"/>
<path d="M100.862 20.6963H100.927L101.12 5.17578L95.968 5.20798L93.8105 21.0183L100.927 20.7285V20.6641L100.862 20.6963V20.6319L93.9393 20.9217L96.0646 5.33678L101.023 5.30458L100.83 20.6963H100.862Z" fill="#3265B1"/>
<path d="M77.8079 5.46569V5.36909C76.9063 5.36909 75.9725 5.33689 75.1031 5.30469H75.0708H75.0387C70.7238 7.59091 50.5986 20.1169 47.1531 22.2743L46.9277 22.4353L47.2175 22.4997C48.2479 22.6929 49.4072 22.7573 50.4698 22.7895H50.502L79.1925 5.40129H78.8061C78.4519 5.40129 78.0977 5.40129 77.8401 5.40129V5.46569V5.56229C78.1299 5.56229 78.4519 5.56229 78.8061 5.56229V5.46569L78.7417 5.36909L50.4376 22.5319L50.502 22.6285V22.5319C49.4716 22.4997 48.3123 22.4031 47.2819 22.2421L47.2497 22.3387L47.3141 22.4353C50.7274 20.3101 70.8848 7.78411 75.1674 5.49789L75.1031 5.40129V5.49789C76.0047 5.53009 76.9063 5.56229 77.8401 5.56229V5.46569H77.8079Z" fill="#3265B1"/>
<path d="M160.304 6.14342V6.04682L157.02 6.07902L165.939 19.1845H166.003C167.774 19.1845 169.449 19.1523 170.898 19.1523H171.123L160.562 5.98242L160.272 6.04682L160.304 6.14342L160.336 6.24002L160.497 6.20782L170.833 19.0879L170.93 19.0235V18.9269C169.481 18.9269 167.774 18.9591 166.036 18.9591V19.0557L166.132 18.9913L157.438 6.27222L160.336 6.24002L160.304 6.14342Z" fill="#3265B1"/>
<path d="M175.085 18.9907L175.181 18.9263L163.911 5.20898L160.305 6.01399L140.727 6.2072C140.727 6.2072 140.212 6.2716 139.696 6.4648C139.439 6.5614 139.181 6.6902 138.956 6.8512C138.763 7.0122 138.602 7.23761 138.602 7.52741C138.602 7.65621 138.634 7.78501 138.666 7.91381C138.795 8.26802 139.181 8.75102 139.664 9.39503C141.145 11.2627 143.85 14.1285 145.267 15.5775C147.135 17.5095 148.841 18.9585 151.739 19.1195C152.705 19.1839 155.539 19.1839 158.888 19.1839C164.941 19.1839 172.831 19.1195 175.052 19.1195H175.246L175.117 18.9585L175.085 18.9907V18.8941C172.863 18.8941 165.006 18.9585 158.92 18.9585C155.539 18.9585 152.738 18.9263 151.772 18.8941C148.938 18.7331 147.328 17.3485 145.428 15.4165C144.494 14.4505 142.981 12.8727 141.628 11.3593C140.952 10.6186 140.34 9.87804 139.825 9.23403C139.342 8.62222 138.988 8.10702 138.859 7.81721C138.827 7.72061 138.795 7.62401 138.795 7.52741C138.795 7.33421 138.891 7.14101 139.085 7.0122C139.342 6.7868 139.761 6.6258 140.115 6.5614C140.276 6.5292 140.437 6.497 140.566 6.4648C140.695 6.4326 140.759 6.4326 140.759 6.4326L160.337 6.2394L163.814 5.46659L175.02 19.0551L175.085 18.9907Z" fill="#3265B1"/>
<path d="M132.452 17.2505L132.517 17.2183C132.034 16.2201 127.719 9.13603 126.173 7.33282C125.69 6.75322 124.982 6.30242 124.209 5.94822L124.145 5.91602V19.9231H124.209C127.268 19.7943 129.554 19.6655 130.327 19.6011C131.615 19.4723 132.452 19.1503 132.742 18.6351C132.806 18.5063 132.839 18.3775 132.839 18.2165C132.839 17.9267 132.742 17.6047 132.549 17.2183L132.452 17.2505L132.388 17.2827C132.581 17.6691 132.678 17.9589 132.678 18.2165C132.678 18.3453 132.645 18.4741 132.581 18.6029C132.356 19.0537 131.551 19.3757 130.263 19.5045C129.49 19.6011 127.204 19.6977 124.177 19.8265V19.8909H124.241V6.01262H124.177L124.145 6.07702C124.917 6.43122 125.594 6.88202 126.077 7.42942C127.59 9.20043 131.905 16.2845 132.388 17.2827L132.452 17.2505Z" fill="#3265B1"/>
<path d="M132.355 16.8964L132.452 16.8642C131.936 15.8338 127.847 9.20056 126.366 7.49394C124.884 5.75513 121.825 5.14332 119.732 5.14332C118.702 5.14332 113.421 5.14332 108.398 5.14332C105.886 5.14332 103.439 5.14332 101.636 5.14332C100.734 5.14332 99.9614 5.14332 99.4462 5.14332C98.931 5.14332 98.609 5.14332 98.609 5.14332C98.609 5.14332 97.5786 5.14332 95.9686 5.17552C91.1385 5.23992 81.0276 5.36872 77.8076 5.36872C74.8773 5.36872 71.8183 5.04672 70.1439 4.85352H70.1117H70.0795C70.0151 4.88572 69.9829 4.88572 69.9829 4.88572C69.9829 4.88572 61.643 9.71577 57.94 12.0986C54.2369 14.4814 46.541 19.9233 46.541 19.9233L46.6054 20.0199V19.9233L45.4462 19.8267L44.1582 20.6317V20.6961C44.2226 21.1791 44.5446 21.5333 45.0598 21.8231C45.8004 22.2417 46.9274 22.4671 48.1511 22.5959C49.3425 22.7247 50.5983 22.7569 51.6287 22.7569C52.7879 22.7569 53.6251 22.6925 53.6251 22.6925L61.321 22.3705V22.1451C59.8398 22.1773 58.4874 22.2095 58.4874 22.2095V22.3061L58.584 22.2417C58.584 22.2417 58.5518 22.2095 58.5196 22.1451C58.3908 21.9519 58.1332 21.4689 58.0366 21.0825C58.0044 21.0181 58.0044 20.9537 58.0044 20.8893C58.0044 20.6961 58.0688 20.5351 58.1976 20.3741C58.3264 20.2131 58.4874 20.0843 58.6484 19.9877C58.8094 19.8589 59.2602 19.6979 59.6788 19.5691C60.0652 19.4403 60.4194 19.3437 60.4194 19.3437H60.4516L60.4838 19.3115C60.4838 19.3115 60.5482 19.2471 60.6126 19.1183C60.8702 18.7319 61.4498 17.9269 61.9328 17.5405C62.609 17.0253 63.3818 16.832 64.6698 16.7676C64.7986 16.7676 64.8952 16.7676 64.9918 16.7676C66.0544 16.7676 66.5053 16.9608 66.6663 17.0897C66.6663 17.0897 66.6985 17.1541 66.7307 17.2507C66.8917 17.8625 67.1171 19.7623 67.1171 20.8249C67.1171 21.0503 67.1171 21.2435 67.0849 21.3723C67.0527 21.5655 66.9561 21.6943 66.7951 21.8231C66.6341 21.9519 66.4087 22.0163 66.1833 22.0807L65.185 22.3383L97.1278 21.0503C97.1278 21.0503 104.566 20.8249 112.391 20.5673C120.215 20.3097 128.427 19.9877 130.004 19.8267C131.067 19.6979 131.743 19.4725 132.162 19.1827C132.58 18.8929 132.774 18.4743 132.741 18.0879C132.741 17.7015 132.58 17.3151 132.419 16.9608L132.355 16.8964L132.258 16.9286C132.419 17.2507 132.548 17.6049 132.548 17.9591C132.548 18.2811 132.419 18.6031 132.033 18.8607C131.647 19.1183 131.003 19.3437 129.972 19.4725C128.427 19.6335 120.183 19.9555 112.391 20.2131C108.495 20.3419 104.663 20.4707 101.829 20.5673C100.412 20.5995 99.253 20.6639 98.4158 20.6639C97.6108 20.6961 97.1278 20.6961 97.1278 20.6961L66.1833 21.9519V22.0485L66.2154 22.1451C66.4731 22.0807 66.6985 21.9841 66.8917 21.8553C67.0849 21.7265 67.2137 21.5011 67.2781 21.2757C67.3103 21.1147 67.3103 20.9215 67.3103 20.6961C67.3103 20.0521 67.2459 19.1183 67.1493 18.3455C67.1171 17.9591 67.0527 17.6049 66.9883 17.3473C66.9561 17.2185 66.9239 17.0897 66.9239 17.0253C66.9239 16.9931 66.8917 16.9608 66.8917 16.9286C66.8595 16.8964 66.8595 16.8642 66.8273 16.832C66.6019 16.7032 66.1188 16.4778 65.024 16.4778C64.9274 16.4778 64.7986 16.4778 64.702 16.4778C63.3818 16.51 62.5446 16.7032 61.8362 17.2829C61.1278 17.8625 60.3228 19.1183 60.3228 19.1183L60.4194 19.1827L60.3872 19.0861C60.3872 19.0861 60.033 19.1827 59.6144 19.3437C59.1958 19.4725 58.745 19.6657 58.5196 19.7945C58.3586 19.9233 58.1654 20.0521 58.0366 20.2453C57.9078 20.4385 57.8112 20.6317 57.8112 20.8893C57.8112 20.9859 57.8112 21.0503 57.8434 21.1469C58.0044 21.7587 58.423 22.4027 58.423 22.4027L58.4552 22.4349H58.5196C58.5196 22.4349 58.8738 22.4349 59.389 22.4027C59.9042 22.4027 60.6126 22.3705 61.3532 22.3705V22.2739V22.1773L53.6573 22.4993C53.6573 22.4993 53.4641 22.4993 53.1099 22.5315C52.7557 22.5315 52.2727 22.5637 51.6931 22.5637C50.3407 22.5637 48.5697 22.4993 47.0884 22.2095C46.3478 22.0807 45.7038 21.8875 45.2208 21.6299C44.7378 21.3723 44.4802 21.0503 44.448 20.6639H44.3514L44.4158 20.7605L45.575 20.0521L46.702 20.1487L46.7342 20.1165C46.7342 20.1165 47.2172 19.7623 47.99 19.2149C50.3407 17.5727 55.3639 14.0628 58.1332 12.2918C59.9686 11.1004 62.9954 9.29716 65.5392 7.81595C66.8273 7.07534 67.9543 6.39913 68.8237 5.88393C69.6609 5.40092 70.1761 5.07892 70.1761 5.07892L70.1117 4.98232L70.1439 5.07892C70.1439 5.07892 70.1761 5.07892 70.2405 5.04672L70.2083 4.95012V5.04672C71.8505 5.23992 74.9417 5.56192 77.9042 5.56192C82.219 5.56192 98.7056 5.33652 98.7056 5.33652C98.7056 5.33652 117.768 5.33652 119.829 5.33652C121.858 5.33652 124.884 5.98053 126.301 7.62275C127.75 9.29716 131.872 15.9626 132.355 16.9608V16.8964Z" fill="#3265B1"/>
<path d="M138.57 32.9975L138.666 33.0297C138.666 33.0297 138.57 26.2032 138.441 23.0798C138.312 19.9241 137.314 17.3159 135.736 14.9653C134.931 13.7739 133.128 11.5842 131.325 9.52342C129.489 7.4304 127.654 5.49838 126.752 4.78997C125.947 4.17816 124.562 3.85616 123.081 3.69516C121.568 3.53415 119.958 3.50195 118.766 3.50195C118.348 3.50195 117.961 3.50195 117.672 3.50195C115.611 3.50195 100.316 3.63075 98.9954 3.63075C97.6752 3.63075 88.1438 3.85616 85.3746 3.88836C82.6054 3.95276 81.2208 4.04936 80.1904 4.33916C79.1599 4.62897 76.6161 5.85258 76.6161 5.85258C73.0097 7.7846 52.6268 20.5037 52.6268 20.5037L52.498 20.5681L55.1385 22.6934L55.2029 22.5968L55.1063 22.5646C55.1063 22.5646 54.0759 28.1996 53.9793 30.7113C53.9793 30.8401 53.9793 30.9689 53.9793 31.1299C53.9793 33.9957 54.8165 41.3052 55.0741 43.2372C55.2029 44.2676 55.8469 47.069 56.4265 49.6129C57.0383 52.1567 57.5857 54.4429 57.5857 54.4429L57.6179 54.5395H122.437V54.4429C122.437 52.5431 122.695 50.4501 122.952 48.8078C123.081 48.0028 123.21 47.2944 123.307 46.8114C123.403 46.3284 123.468 46.0386 123.468 46.0386C125.689 39.2121 131.486 34.0923 138.57 33.0297H138.634V32.9653L138.57 32.9975V32.9009C131.389 33.9635 125.528 39.1477 123.307 46.0386C123.307 46.0386 122.276 50.6433 122.276 54.4751H122.373V54.3785H57.7145V54.4751L57.8111 54.4429C57.8111 54.4429 57.6823 53.8633 57.4569 52.9939C56.8129 50.3213 55.4927 44.7828 55.2995 43.2694C55.0419 41.3374 54.2047 33.9957 54.2047 31.1621C54.2047 31.0011 54.2047 30.8723 54.2047 30.7435C54.2691 29.5198 54.5267 27.4912 54.7843 25.7846C54.9131 24.9152 55.0419 24.1424 55.1385 23.5628C55.2351 22.9832 55.2995 22.629 55.2995 22.629V22.5646L52.7234 20.5037L52.659 20.6003L52.7234 20.6969C52.7234 20.6969 53.0455 20.5037 53.5929 20.1495C57.5535 17.6701 73.5249 7.7202 76.6805 5.98138L76.6161 5.88478L76.6483 5.98138C76.6483 5.98138 77.2923 5.69158 78.0651 5.33737C78.8379 5.01537 79.7073 4.62897 80.2226 4.50016C81.1886 4.21036 82.5732 4.11376 85.3424 4.08156C88.1116 4.01716 97.6107 3.82396 98.931 3.82396C100.251 3.82396 115.546 3.69516 117.607 3.69516C117.929 3.69516 118.283 3.69516 118.702 3.69516C119.926 3.69516 121.503 3.72736 123.017 3.88836C124.498 4.04936 125.883 4.37136 126.591 4.95097C127.46 5.62718 129.328 7.5914 131.131 9.65222C132.967 11.713 134.77 13.9027 135.543 15.0941C137.121 17.4125 138.087 19.9885 138.215 23.112C138.28 24.6576 138.344 27.1692 138.376 29.2622C138.409 30.3248 138.409 31.2587 138.409 31.9349C138.409 32.6111 138.441 33.0619 138.441 33.0619L138.57 32.9975Z" fill="#3265B1"/>
<path d="M135.672 14.9652L135.769 14.9008C134.964 13.7094 133.16 11.5198 131.357 9.45897C129.522 7.36594 127.686 5.43392 126.785 4.72551C125.98 4.11371 124.595 3.7917 123.114 3.6307C121.6 3.4697 119.99 3.4375 118.799 3.4375C118.38 3.4375 117.994 3.4375 117.704 3.4375C115.643 3.4375 100.348 3.5663 99.0279 3.5663C98.9957 3.5663 98.9313 3.5663 98.8669 3.5663H98.7703L97.1281 20.2139L96.4841 22.8221L95.6147 28.586V30.1638L95.0995 39.9527L94.9062 42.8829V46.264L95.1317 54.6039H122.566V54.5073C122.566 52.6074 122.824 50.5144 123.082 48.8722C123.21 48.0672 123.339 47.3588 123.436 46.8758C123.532 46.3928 123.597 46.103 123.597 46.103C125.819 39.2765 131.615 34.1566 138.699 33.094H138.763L138.795 33.0296C138.795 33.0296 138.699 26.2031 138.57 23.0797C138.441 19.9241 137.443 17.3159 135.865 14.9652H135.672L135.575 15.0296C137.153 17.3481 138.119 19.9241 138.248 23.0475C138.312 24.5931 138.377 27.1048 138.409 29.1978C138.441 30.2604 138.441 31.1942 138.441 31.8704C138.441 32.5466 138.473 32.9974 138.473 32.9974H138.57V32.9008C131.389 33.9634 125.529 39.1477 123.307 46.0386C123.307 46.0386 122.277 50.6432 122.277 54.4751H122.373V54.3785H95.2605L95.0351 46.264V42.9151L95.2283 39.9849L95.7435 30.196V28.6182L96.6129 22.8865L97.2569 20.2783L98.8991 3.6951H98.8025V3.7917C98.8669 3.7917 98.9313 3.7917 98.9635 3.7917C100.284 3.7917 115.579 3.6629 117.64 3.6629C117.962 3.6629 118.316 3.6629 118.735 3.6629C119.958 3.6629 121.536 3.6951 123.049 3.8561C124.531 4.01711 125.915 4.33911 126.624 4.91872C127.493 5.59492 129.361 7.55915 131.164 9.61997C132.999 11.6808 134.803 13.8704 135.575 15.0618L135.672 14.9652Z" fill="#3265B1"/>
</g>
<defs>
<clipPath id="clip0_7675_5190">
<rect width="180" height="66.0107" fill="white" transform="translate(0.300781 0.216797)"/>
</clipPath>
</defs>
</svg>
